<?xml version="1.0" encoding="UTF-8" standalone="no"?>
<!DOCTYPE svg PUBLIC "-//W3C//DTD SVG 1.1//EN"
 "http://www.w3.org/Graphics/SVG/1.1/DTD/svg11.dtd">
<!-- Generated by graphviz version 2.38.0 (20140413.2041)
 -->
<!-- Title: Tokenize Pages: 1 -->
<svg width="571pt" height="81pt"
 viewBox="0.00 0.00 571.00 81.22" xmlns="http://www.w3.org/2000/svg" xmlns:xlink="http://www.w3.org/1999/xlink">
<g id="graph0" class="graph" transform="scale(1 1) rotate(0) translate(4 77.2203)">
<title>Tokenize</title>
<polygon fill="white" stroke="none" points="-4,4 -4,-77.2203 567,-77.2203 567,4 -4,4"/>
<!-- Node1 -->
<g id="node1" class="node"><title>Node1</title>
<g id="a_node1"><a xlink:title=" ">
<polygon fill="#bfbfbf" stroke="black" points="507,-38.5 507,-57.5 563,-57.5 563,-38.5 507,-38.5"/>
<text text-anchor="middle" x="535" y="-45.5" font-family="Helvetica,sans-Serif" font-size="10.00">Tokenize</text>
</a>
</g>
</g>
<!-- Node2 -->
<g id="node2" class="node"><title>Node2</title>
<g id="a_node2"><a xlink:href="../../db/d39/struct_items_table.html#af507af2013932cb2f645c67507a11820" target="_top" xlink:title=" ">
<polygon fill="white" stroke="black" points="186,-38.5 186,-57.5 291,-57.5 291,-38.5 186,-38.5"/>
<text text-anchor="middle" x="238.5" y="-45.5" font-family="Helvetica,sans-Serif" font-size="10.00">ItemsTable::Initialize</text>
</a>
</g>
</g>
<!-- Node1&#45;&gt;Node2 -->
<g id="edge1" class="edge"><title>Node1&#45;&gt;Node2</title>
<path fill="none" stroke="midnightblue" d="M498.647,-60.6386C489.739,-63.2724 480.115,-65.6555 471,-67 407.685,-76.3397 390.635,-73.8293 327,-67 309.689,-65.1422 290.777,-61.2732 274.978,-57.5085"/>
<polygon fill="midnightblue" stroke="midnightblue" points="499.841,-63.9324 508.335,-57.6004 497.746,-57.2532 499.841,-63.9324"/>
</g>
<!-- Node4 -->
<g id="node4" class="node"><title>Node4</title>
<g id="a_node4"><a xlink:href="../../db/d39/struct_items_table.html#a2f75552179fe0f636080f1bc04b8eee8" target="_top" xlink:title=" ">
<polygon fill="white" stroke="black" points="327,-38.5 327,-57.5 471,-57.5 471,-38.5 327,-38.5"/>
<text text-anchor="middle" x="399" y="-45.5" font-family="Helvetica,sans-Serif" font-size="10.00">ItemsTable::LoadPotionNotes</text>
</a>
</g>
</g>
<!-- Node1&#45;&gt;Node4 -->
<g id="edge3" class="edge"><title>Node1&#45;&gt;Node4</title>
<path fill="none" stroke="midnightblue" d="M496.789,-48C488.756,-48 480.006,-48 471.16,-48"/>
<polygon fill="midnightblue" stroke="midnightblue" points="496.883,-51.5001 506.883,-48 496.883,-44.5001 496.883,-51.5001"/>
</g>
<!-- Node5 -->
<g id="node5" class="node"><title>Node5</title>
<g id="a_node5"><a xlink:href="../../db/d39/struct_items_table.html#a3f6860b0f2fa930ef8de8fa04d6872d6" target="_top" xlink:title=" ">
<polygon fill="white" stroke="black" points="337,-0.5 337,-19.5 461,-19.5 461,-0.5 337,-0.5"/>
<text text-anchor="middle" x="399" y="-7.5" font-family="Helvetica,sans-Serif" font-size="10.00">ItemsTable::LoadPotions</text>
</a>
</g>
</g>
<!-- Node1&#45;&gt;Node5 -->
<g id="edge5" class="edge"><title>Node1&#45;&gt;Node5</title>
<path fill="none" stroke="midnightblue" d="M497.048,-36.6441C488.509,-34.0788 479.45,-31.4043 471,-29 459.832,-25.8223 447.632,-22.503 436.545,-19.5442"/>
<polygon fill="midnightblue" stroke="midnightblue" points="496.181,-40.0383 506.766,-39.5827 498.207,-33.338 496.181,-40.0383"/>
</g>
<!-- Node3 -->
<g id="node3" class="node"><title>Node3</title>
<g id="a_node3"><a xlink:href="../../d6/d83/struct_engine.html#af028add00f4a849c60d0afa42da04a08" target="_top" xlink:title=" ">
<polygon fill="white" stroke="black" points="0,-38.5 0,-57.5 150,-57.5 150,-38.5 0,-38.5"/>
<text text-anchor="middle" x="75" y="-45.5" font-family="Helvetica,sans-Serif" font-size="10.00">Engine::SecondaryInitialization</text>
</a>
</g>
</g>
<!-- Node2&#45;&gt;Node3 -->
<g id="edge2" class="edge"><title>Node2&#45;&gt;Node3</title>
<path fill="none" stroke="midnightblue" d="M175.83,-48C167.386,-48 158.647,-48 150.011,-48"/>
<polygon fill="midnightblue" stroke="midnightblue" points="175.956,-51.5001 185.956,-48 175.956,-44.5001 175.956,-51.5001"/>
</g>
<!-- Node4&#45;&gt;Node2 -->
<g id="edge4" class="edge"><title>Node4&#45;&gt;Node2</title>
<path fill="none" stroke="midnightblue" d="M316.477,-48C307.82,-48 299.199,-48 291.027,-48"/>
<polygon fill="midnightblue" stroke="midnightblue" points="316.632,-51.5001 326.632,-48 316.632,-44.5001 316.632,-51.5001"/>
</g>
<!-- Node5&#45;&gt;Node2 -->
<g id="edge6" class="edge"><title>Node5&#45;&gt;Node2</title>
<path fill="none" stroke="midnightblue" d="M348.081,-21.968C325.87,-27.2931 300.079,-33.4762 279.209,-38.4799"/>
<polygon fill="midnightblue" stroke="midnightblue" points="349.095,-25.324 358.004,-19.589 347.463,-18.5169 349.095,-25.324"/>
</g>
</g>
</svg>
