<?xml version="1.0" encoding="UTF-8" standalone="no"?>
<!DOCTYPE svg PUBLIC "-//W3C//DTD SVG 1.1//EN"
 "http://www.w3.org/Graphics/SVG/1.1/DTD/svg11.dtd">
<!-- Generated by graphviz version 2.38.0 (20140413.2041)
 -->
<!-- Title: _46BFFA_update_spell_fx Pages: 1 -->
<!--zoomable 203 -->
<svg id="main" version="1.1" xmlns="http://www.w3.org/2000/svg" xmlns:xlink="http://www.w3.org/1999/xlink" xml:space="preserve" onload="init(evt)">
<style type="text/css"><![CDATA[
.edge:hover path { stroke: red; }
.edge:hover polygon { stroke: red; fill: red; }
]]></style>
<script type="text/javascript"><![CDATA[
var edges = document.getElementsByTagName('g');
if (edges && edges.length) {
  for (var i=0;i<edges.length;i++) {
    if (edges[i].id.substr(0,4)=='edge') {
      edges[i].setAttribute('class','edge');
    }
  }
}
]]></script>
        <defs>
                <circle id="rim" cx="0" cy="0" r="7"/>
                <circle id="rim2" cx="0" cy="0" r="3.5"/>
                <g id="zoomPlus">
                        <use xlink:href="#rim" fill="#404040">
                                <set attributeName="fill" to="#808080" begin="zoomplus.mouseover" end="zoomplus.mouseout"/>
                        </use>
                        <path d="M-4,0h8M0,-4v8" fill="none" stroke="white" stroke-width="1.5" pointer-events="none"/>
                </g>
                <g id="zoomMin">
                        <use xlink:href="#rim" fill="#404040">
                                <set attributeName="fill" to="#808080" begin="zoomminus.mouseover" end="zoomminus.mouseout"/>
                        </use>
                        <path d="M-4,0h8" fill="none" stroke="white" stroke-width="1.5" pointer-events="none"/>
                </g>
                <g id="dirArrow">
                        <path fill="none" stroke="white" stroke-width="1.5" d="M0,-3.0v7 M-2.5,-0.5L0,-3.0L2.5,-0.5"/>
                </g>
               <g id="resetDef">
                       <use xlink:href="#rim2" fill="#404040">
                               <set attributeName="fill" to="#808080" begin="reset.mouseover" end="reset.mouseout"/>
                       </use>
               </g>
        </defs>

<script type="text/javascript">
var viewWidth = 1443;
var viewHeight = 203;
var sectionId = 'dynsection-2';
</script>
<script xlink:href="../../svgpan.js"/>
<svg id="graph" class="graph">
<g id="viewport">
<title>_46BFFA_update_spell_fx</title>
<polygon fill="white" stroke="none" points="-4,4 -4,-198.5 1439,-198.5 1439,4 -4,4"/>
<!-- Node1 -->
<g id="node1" class="node"><title>Node1</title>
<g id="a_node1"><a xlink:title=" ">
<polygon fill="#bfbfbf" stroke="black" points="1304,-77 1304,-96 1435,-96 1435,-77 1304,-77"/>
<text text-anchor="middle" x="1369.5" y="-84" font-family="Helvetica,sans-Serif" font-size="10.00">_46BFFA_update_spell_fx</text>
</a>
</g>
</g>
<!-- Node2 -->
<g id="node2" class="node"><title>Node2</title>
<g id="a_node2"><a xlink:href="../../da/d20/_i_render_8h.html#a2827fe354fe45bc8a3b7bddc1f2236dc" target="_top" xlink:title=" ">
<polygon fill="white" stroke="black" points="1163.5,-137 1163.5,-156 1236.5,-156 1236.5,-137 1163.5,-137"/>
<text text-anchor="middle" x="1200" y="-144" font-family="Helvetica,sans-Serif" font-size="10.00">sub_46DEF2</text>
</a>
</g>
</g>
<!-- Node1&#45;&gt;Node2 -->
<g id="edge1" class="edge"><title>Node1&#45;&gt;Node2</title>
<path fill="none" stroke="midnightblue" d="M1332.25,-99.4843C1300.79,-110.754 1255.97,-126.809 1227.69,-136.938"/>
<polygon fill="midnightblue" stroke="midnightblue" points="1333.73,-102.674 1341.96,-96.0072 1331.36,-96.0845 1333.73,-102.674"/>
</g>
<!-- Node13 -->
<g id="node13" class="node"><title>Node13</title>
<g id="a_node13"><a xlink:href="../../d0/d5a/struct_sprite_object.html#a9e0d2e0c49fb02c2bf900de59aecff85" target="_top" xlink:title=" ">
<polygon fill="white" stroke="black" points="1132,-49.5 1132,-79.5 1268,-79.5 1268,-49.5 1132,-49.5"/>
<text text-anchor="start" x="1140" y="-67.5" font-family="Helvetica,sans-Serif" font-size="10.00">SpriteObject::UpdateObject</text>
<text text-anchor="middle" x="1200" y="-56.5" font-family="Helvetica,sans-Serif" font-size="10.00">_fn0_BLV</text>
</a>
</g>
</g>
<!-- Node1&#45;&gt;Node13 -->
<g id="edge14" class="edge"><title>Node1&#45;&gt;Node13</title>
<path fill="none" stroke="midnightblue" d="M1293.77,-76.6852C1285.22,-75.5611 1276.53,-74.4203 1268.08,-73.3105"/>
<polygon fill="midnightblue" stroke="midnightblue" points="1293.37,-80.1621 1303.74,-77.9942 1294.28,-73.2217 1293.37,-80.1621"/>
</g>
<!-- Node14 -->
<g id="node14" class="node"><title>Node14</title>
<g id="a_node14"><a xlink:href="../../da/d20/_i_render_8h.html#a522912d67446895b0a03d01837b75a99" target="_top" xlink:title=" ">
<polygon fill="white" stroke="black" points="991.5,-55 991.5,-74 1072.5,-74 1072.5,-55 991.5,-55"/>
<text text-anchor="middle" x="1032" y="-62" font-family="Helvetica,sans-Serif" font-size="10.00">UpdateObjects</text>
</a>
</g>
</g>
<!-- Node1&#45;&gt;Node14 -->
<g id="edge20" class="edge"><title>Node1&#45;&gt;Node14</title>
<path fill="none" stroke="midnightblue" d="M1293.73,-91.976C1247.07,-94.1968 1185.84,-94.9331 1132,-88.5 1109,-85.7514 1083.61,-79.5313 1064.31,-74.1123"/>
<polygon fill="midnightblue" stroke="midnightblue" points="1293.95,-95.4695 1303.76,-91.4654 1293.6,-88.4785 1293.95,-95.4695"/>
</g>
<!-- Node15 -->
<g id="node15" class="node"><title>Node15</title>
<g id="a_node15"><a xlink:href="../../d0/d5a/struct_sprite_object.html#a950e5cedc1e8cfc98d77ba9b3f91071f" target="_top" xlink:title=" ">
<polygon fill="white" stroke="black" points="1132,-0.5 1132,-30.5 1268,-30.5 1268,-0.5 1132,-0.5"/>
<text text-anchor="start" x="1140" y="-18.5" font-family="Helvetica,sans-Serif" font-size="10.00">SpriteObject::UpdateObject</text>
<text text-anchor="middle" x="1200" y="-7.5" font-family="Helvetica,sans-Serif" font-size="10.00">_fn0_ODM</text>
</a>
</g>
</g>
<!-- Node1&#45;&gt;Node15 -->
<g id="edge18" class="edge"><title>Node1&#45;&gt;Node15</title>
<path fill="none" stroke="midnightblue" d="M1340.32,-72.4573C1320.34,-62.7174 1292.79,-49.7126 1268,-39.5 1260.57,-36.4414 1252.6,-33.3887 1244.83,-30.5362"/>
<polygon fill="midnightblue" stroke="midnightblue" points="1338.95,-75.6851 1349.47,-76.9498 1342.04,-69.4014 1338.95,-75.6851"/>
</g>
<!-- Node3 -->
<g id="node3" class="node"><title>Node3</title>
<g id="a_node3"><a xlink:href="../../da/d20/_i_render_8h.html#a0e63804ace29468efe95593015c3747c" target="_top" xlink:title=" ">
<polygon fill="white" stroke="black" points="968,-131.5 968,-161.5 1096,-161.5 1096,-131.5 968,-131.5"/>
<text text-anchor="start" x="976" y="-149.5" font-family="Helvetica,sans-Serif" font-size="10.00">_46ED8A_collide_against</text>
<text text-anchor="middle" x="1032" y="-138.5" font-family="Helvetica,sans-Serif" font-size="10.00">_sprite_objects</text>
</a>
</g>
</g>
<!-- Node2&#45;&gt;Node3 -->
<g id="edge2" class="edge"><title>Node2&#45;&gt;Node3</title>
<path fill="none" stroke="midnightblue" d="M1153.33,-146.5C1135.64,-146.5 1115.08,-146.5 1096.02,-146.5"/>
<polygon fill="midnightblue" stroke="midnightblue" points="1153.39,-150 1163.39,-146.5 1153.39,-143 1153.39,-150"/>
</g>
<!-- Node4 -->
<g id="node4" class="node"><title>Node4</title>
<g id="a_node4"><a xlink:href="../../dc/dfb/_outdoor_8h.html#a62e44d7fd493356cb340fe1dc8fe993b" target="_top" xlink:title=" ">
<polygon fill="white" stroke="black" points="795,-175 795,-194 932,-194 932,-175 795,-175"/>
<text text-anchor="middle" x="863.5" y="-182" font-family="Helvetica,sans-Serif" font-size="10.00">ODM_ProcessPartyActions</text>
</a>
</g>
</g>
<!-- Node3&#45;&gt;Node4 -->
<g id="edge3" class="edge"><title>Node3&#45;&gt;Node4</title>
<path fill="none" stroke="midnightblue" d="M957.378,-163.303C939.901,-167.291 921.849,-171.411 906.361,-174.946"/>
<polygon fill="midnightblue" stroke="midnightblue" points="958.608,-166.612 967.579,-160.975 957.05,-159.787 958.608,-166.612"/>
</g>
<!-- Node10 -->
<g id="node10" class="node"><title>Node10</title>
<g id="a_node10"><a xlink:href="../../da/dc7/_indoor_8h.html#a91180cf18d91c79b7bc41c630c261cbd" target="_top" xlink:title=" ">
<polygon fill="white" stroke="black" points="813.5,-99 813.5,-118 913.5,-118 913.5,-99 813.5,-99"/>
<text text-anchor="middle" x="863.5" y="-106" font-family="Helvetica,sans-Serif" font-size="10.00">UpdateActors_BLV</text>
</a>
</g>
</g>
<!-- Node3&#45;&gt;Node10 -->
<g id="edge9" class="edge"><title>Node3&#45;&gt;Node10</title>
<path fill="none" stroke="midnightblue" d="M957.378,-129.697C939.901,-125.709 921.849,-121.589 906.361,-118.054"/>
<polygon fill="midnightblue" stroke="midnightblue" points="957.05,-133.213 967.579,-132.025 958.608,-126.388 957.05,-133.213"/>
</g>
<!-- Node12 -->
<g id="node12" class="node"><title>Node12</title>
<g id="a_node12"><a xlink:href="../../dc/dfb/_outdoor_8h.html#ab3cc30c01fb2e9afa8ec291e6043bf99" target="_top" xlink:title=" ">
<polygon fill="white" stroke="black" points="811.5,-137 811.5,-156 915.5,-156 915.5,-137 811.5,-137"/>
<text text-anchor="middle" x="863.5" y="-144" font-family="Helvetica,sans-Serif" font-size="10.00">UpdateActors_ODM</text>
</a>
</g>
</g>
<!-- Node3&#45;&gt;Node12 -->
<g id="edge12" class="edge"><title>Node3&#45;&gt;Node12</title>
<path fill="none" stroke="midnightblue" d="M957.396,-146.5C943.288,-146.5 928.805,-146.5 915.599,-146.5"/>
<polygon fill="midnightblue" stroke="midnightblue" points="957.579,-150 967.579,-146.5 957.578,-143 957.579,-150"/>
</g>
<!-- Node5 -->
<g id="node5" class="node"><title>Node5</title>
<g id="a_node5"><a xlink:href="../../dc/dfb/_outdoor_8h.html#aeedbd3470634fbb22ebda28d2f8006e4" target="_top" xlink:title=" ">
<polygon fill="white" stroke="black" points="601,-137 601,-156 759,-156 759,-137 601,-137"/>
<text text-anchor="middle" x="680" y="-144" font-family="Helvetica,sans-Serif" font-size="10.00">ODM_UpdateUserInputAndOther</text>
</a>
</g>
</g>
<!-- Node4&#45;&gt;Node5 -->
<g id="edge4" class="edge"><title>Node4&#45;&gt;Node5</title>
<path fill="none" stroke="midnightblue" d="M806.708,-172.819C780.969,-167.43 750.801,-161.114 726.471,-156.02"/>
<polygon fill="midnightblue" stroke="midnightblue" points="806.195,-176.287 816.7,-174.911 807.629,-169.436 806.195,-176.287"/>
</g>
<!-- Node6 -->
<g id="node6" class="node"><title>Node6</title>
<g id="a_node6"><a xlink:href="../../de/dcf/_engine_8h.html#a73fe5e8d7dc6ec78e5cc180d1915341b" target="_top" xlink:title=" ">
<polygon fill="white" stroke="black" points="455,-112.5 455,-142.5 565,-142.5 565,-112.5 455,-112.5"/>
<text text-anchor="start" x="463" y="-130.5" font-family="Helvetica,sans-Serif" font-size="10.00">UpdateUserInput_and</text>
<text text-anchor="middle" x="510" y="-119.5" font-family="Helvetica,sans-Serif" font-size="10.00">_MapSpecificStuff</text>
</a>
</g>
</g>
<!-- Node5&#45;&gt;Node6 -->
<g id="edge5" class="edge"><title>Node5&#45;&gt;Node6</title>
<path fill="none" stroke="midnightblue" d="M590.764,-136.521C582.132,-135.545 573.56,-134.575 565.414,-133.654"/>
<polygon fill="midnightblue" stroke="midnightblue" points="590.572,-140.021 600.902,-137.667 591.359,-133.066 590.572,-140.021"/>
</g>
<!-- Node7 -->
<g id="node7" class="node"><title>Node7</title>
<g id="a_node7"><a xlink:href="../../d4/d06/class_application_1_1_game.html#aaa0ff18388b32b4e6198835a35e000d3" target="_top" xlink:title=" ">
<polygon fill="white" stroke="black" points="316,-112.5 316,-142.5 419,-142.5 419,-112.5 316,-112.5"/>
<text text-anchor="start" x="324" y="-130.5" font-family="Helvetica,sans-Serif" font-size="10.00">Application::Game::</text>
<text text-anchor="middle" x="367.5" y="-119.5" font-family="Helvetica,sans-Serif" font-size="10.00">GameLoop</text>
</a>
</g>
</g>
<!-- Node6&#45;&gt;Node7 -->
<g id="edge6" class="edge"><title>Node6&#45;&gt;Node7</title>
<path fill="none" stroke="midnightblue" d="M444.514,-127.5C436.109,-127.5 427.593,-127.5 419.452,-127.5"/>
<polygon fill="midnightblue" stroke="midnightblue" points="444.679,-131 454.679,-127.5 444.679,-124 444.679,-131"/>
</g>
<!-- Node8 -->
<g id="node8" class="node"><title>Node8</title>
<g id="a_node8"><a xlink:href="../../d4/d06/class_application_1_1_game.html#a013ffd59e8fdf1c0a396da1dbe1681ca" target="_top" xlink:title=" ">
<polygon fill="white" stroke="black" points="156,-118 156,-137 280,-137 280,-118 156,-118"/>
<text text-anchor="middle" x="218" y="-125" font-family="Helvetica,sans-Serif" font-size="10.00">Application::Game::Loop</text>
</a>
</g>
</g>
<!-- Node7&#45;&gt;Node8 -->
<g id="edge7" class="edge"><title>Node7&#45;&gt;Node8</title>
<path fill="none" stroke="midnightblue" d="M305.59,-127.5C297.149,-127.5 288.478,-127.5 280.035,-127.5"/>
<polygon fill="midnightblue" stroke="midnightblue" points="305.739,-131 315.739,-127.5 305.739,-124 305.739,-131"/>
</g>
<!-- Node9 -->
<g id="node9" class="node"><title>Node9</title>
<g id="a_node9"><a xlink:href="../../d4/d06/class_application_1_1_game.html#a96341ca5b54d90adc3ecb3bf0bcd2312" target="_top" xlink:title=" ">
<polygon fill="white" stroke="black" points="0,-118 0,-137 120,-137 120,-118 0,-118"/>
<text text-anchor="middle" x="60" y="-125" font-family="Helvetica,sans-Serif" font-size="10.00">Application::Game::Run</text>
</a>
</g>
</g>
<!-- Node8&#45;&gt;Node9 -->
<g id="edge8" class="edge"><title>Node8&#45;&gt;Node9</title>
<path fill="none" stroke="midnightblue" d="M145.546,-127.5C137.081,-127.5 128.513,-127.5 120.244,-127.5"/>
<polygon fill="midnightblue" stroke="midnightblue" points="145.792,-131 155.792,-127.5 145.792,-124 145.792,-131"/>
</g>
<!-- Node11 -->
<g id="node11" class="node"><title>Node11</title>
<g id="a_node11"><a xlink:href="../../da/dc7/_indoor_8h.html#a7d511837933d59eeeccfc25275a366d8" target="_top" xlink:title=" ">
<polygon fill="white" stroke="black" points="603,-99 603,-118 757,-118 757,-99 603,-99"/>
<text text-anchor="middle" x="680" y="-106" font-family="Helvetica,sans-Serif" font-size="10.00">BLV_UpdateUserInputAndOther</text>
</a>
</g>
</g>
<!-- Node10&#45;&gt;Node11 -->
<g id="edge10" class="edge"><title>Node10&#45;&gt;Node11</title>
<path fill="none" stroke="midnightblue" d="M802.964,-108.5C788.319,-108.5 772.439,-108.5 757.129,-108.5"/>
<polygon fill="midnightblue" stroke="midnightblue" points="803.384,-112 813.383,-108.5 803.383,-105 803.384,-112"/>
</g>
<!-- Node11&#45;&gt;Node6 -->
<g id="edge11" class="edge"><title>Node11&#45;&gt;Node6</title>
<path fill="none" stroke="midnightblue" d="M592.735,-118.256C583.393,-119.313 574.088,-120.365 565.284,-121.361"/>
<polygon fill="midnightblue" stroke="midnightblue" points="593.321,-121.712 602.865,-117.111 592.535,-114.757 593.321,-121.712"/>
</g>
<!-- Node12&#45;&gt;Node5 -->
<g id="edge13" class="edge"><title>Node12&#45;&gt;Node5</title>
<path fill="none" stroke="midnightblue" d="M801.317,-146.5C787.772,-146.5 773.241,-146.5 759.126,-146.5"/>
<polygon fill="midnightblue" stroke="midnightblue" points="801.459,-150 811.459,-146.5 801.459,-143 801.459,-150"/>
</g>
<!-- Node13&#45;&gt;Node14 -->
<g id="edge15" class="edge"><title>Node13&#45;&gt;Node14</title>
<path fill="none" stroke="midnightblue" d="M1121.96,-64.5C1104.86,-64.5 1087.43,-64.5 1072.58,-64.5"/>
<polygon fill="midnightblue" stroke="midnightblue" points="1121.96,-68.0001 1131.96,-64.5 1121.96,-61.0001 1121.96,-68.0001"/>
</g>
<!-- Node14&#45;&gt;Node5 -->
<g id="edge17" class="edge"><title>Node14&#45;&gt;Node5</title>
<path fill="none" stroke="midnightblue" d="M980.929,-60.074C931.168,-57.8411 853.968,-60.3591 795,-89.5 774.143,-99.8069 779.123,-115.826 759,-127.5 752.369,-131.347 744.987,-134.417 737.483,-136.868"/>
<polygon fill="midnightblue" stroke="midnightblue" points="980.943,-63.5796 991.114,-60.6147 981.314,-56.5894 980.943,-63.5796"/>
</g>
<!-- Node14&#45;&gt;Node11 -->
<g id="edge16" class="edge"><title>Node14&#45;&gt;Node11</title>
<path fill="none" stroke="midnightblue" d="M981.045,-55.7621C932.833,-48.9731 858.075,-42.7938 795,-56.5 757.587,-64.6298 717.734,-86.1593 696.48,-98.8212"/>
<polygon fill="midnightblue" stroke="midnightblue" points="980.811,-59.2652 991.214,-57.2588 981.83,-52.3398 980.811,-59.2652"/>
</g>
<!-- Node15&#45;&gt;Node14 -->
<g id="edge19" class="edge"><title>Node15&#45;&gt;Node14</title>
<path fill="none" stroke="midnightblue" d="M1138.2,-33.4464C1113.57,-40.7175 1086.12,-48.8197 1065.44,-54.9246"/>
<polygon fill="midnightblue" stroke="midnightblue" points="1139.24,-36.7894 1147.84,-30.6014 1137.26,-30.0757 1139.24,-36.7894"/>
</g>
</g>
</svg>
        <g id="navigator" transform="translate(0 0)" fill="#404254">
                <rect fill="#f2f5e9" fill-opacity="0.5" stroke="#606060" stroke-width=".5" x="0" y="0" width="60" height="60"/>
                <use id="zoomplus" xlink:href="#zoomPlus" x="17" y="9" onmousedown="handleZoom(evt,'in')"/>
                <use id="zoomminus" xlink:href="#zoomMin" x="42" y="9" onmousedown="handleZoom(evt,'out')"/>
                <use id="reset" xlink:href="#resetDef" x="30" y="36" onmousedown="handleReset()"/>
                <g id="arrowUp" xlink:href="#dirArrow" transform="translate(30 24)" onmousedown="handlePan(0,-1)">
                  <use xlink:href="#rim" fill="#404040">
                        <set attributeName="fill" to="#808080" begin="arrowUp.mouseover" end="arrowUp.mouseout"/>
                  </use>
                  <path fill="none" stroke="white" stroke-width="1.5" d="M0,-3.0v7 M-2.5,-0.5L0,-3.0L2.5,-0.5"/>
                </g>
                <g id="arrowRight" xlink:href="#dirArrow" transform="rotate(90) translate(36 -43)" onmousedown="handlePan(1,0)">
                  <use xlink:href="#rim" fill="#404040">
                        <set attributeName="fill" to="#808080" begin="arrowRight.mouseover" end="arrowRight.mouseout"/>
                  </use>
                  <path fill="none" stroke="white" stroke-width="1.5" d="M0,-3.0v7 M-2.5,-0.5L0,-3.0L2.5,-0.5"/>
                </g>
                <g id="arrowDown" xlink:href="#dirArrow" transform="rotate(180) translate(-30 -48)" onmousedown="handlePan(0,1)">
                  <use xlink:href="#rim" fill="#404040">
                        <set attributeName="fill" to="#808080" begin="arrowDown.mouseover" end="arrowDown.mouseout"/>
                  </use>
                  <path fill="none" stroke="white" stroke-width="1.5" d="M0,-3.0v7 M-2.5,-0.5L0,-3.0L2.5,-0.5"/>
                </g>
                <g id="arrowLeft" xlink:href="#dirArrow" transform="rotate(270) translate(-36 17)" onmousedown="handlePan(-1,0)">
                  <use xlink:href="#rim" fill="#404040">
                        <set attributeName="fill" to="#808080" begin="arrowLeft.mouseover" end="arrowLeft.mouseout"/>
                  </use>
                  <path fill="none" stroke="white" stroke-width="1.5" d="M0,-3.0v7 M-2.5,-0.5L0,-3.0L2.5,-0.5"/>
                </g>
        </g>
        <svg viewBox="0 0 15 15" width="100%" height="30px" preserveAspectRatio="xMaxYMin meet">
         <g id="arrow_out" transform="scale(0.3 0.3)">
          <a xlink:href="_sprite_object_8cpp_a457801379764f6519b638ea5b505967e_icgraph_org.svg" target="_base">
           <rect id="button" ry="5" rx="5" y="6" x="6" height="38" width="38"
                fill="#f2f5e9" fill-opacity="0.5" stroke="#606060" stroke-width="1.0"/>
           <path id="arrow"
             d="M 11.500037,31.436501 C 11.940474,20.09759 22.043105,11.32322 32.158766,21.979434 L 37.068811,17.246167 C 37.068811,17.246167 37.088388,32 37.088388,32 L 22.160133,31.978069 C 22.160133,31.978069 26.997745,27.140456 26.997745,27.140456 C 18.528582,18.264221 13.291696,25.230495 11.500037,31.436501 z"
             style="fill:#404040;"/>
          </a>
         </g>
        </svg>
</svg>
