<?xml version="1.0" encoding="UTF-8" standalone="no"?>
<!DOCTYPE svg PUBLIC "-//W3C//DTD SVG 1.1//EN"
 "http://www.w3.org/Graphics/SVG/1.1/DTD/svg11.dtd">
<!-- Generated by graphviz version 2.38.0 (20140413.2041)
 -->
<!-- Title: BLVFace::GetTexture Pages: 1 -->
<svg width="649pt" height="78pt"
 viewBox="0.00 0.00 649.00 77.50" xmlns="http://www.w3.org/2000/svg" xmlns:xlink="http://www.w3.org/1999/xlink">
<g id="graph0" class="graph" transform="scale(1 1) rotate(0) translate(4 73.5)">
<title>BLVFace::GetTexture</title>
<polygon fill="white" stroke="none" points="-4,4 -4,-73.5 645,-73.5 645,4 -4,4"/>
<!-- Node1 -->
<g id="node1" class="node"><title>Node1</title>
<g id="a_node1"><a xlink:title=" ">
<polygon fill="#bfbfbf" stroke="black" points="0,-22.5 0,-41.5 111,-41.5 111,-22.5 0,-22.5"/>
<text text-anchor="middle" x="55.5" y="-29.5" font-family="Helvetica,sans-Serif" font-size="10.00">BLVFace::GetTexture</text>
</a>
</g>
</g>
<!-- Node2 -->
<g id="node2" class="node"><title>Node2</title>
<g id="a_node2"><a xlink:href="../../dd/d55/struct_texture_frame_table.html#a3b51764eda67472b56fa913b4b709b86" target="_top" xlink:title=" ">
<polygon fill="white" stroke="black" points="171,-39 171,-69 277,-69 277,-39 171,-39"/>
<text text-anchor="start" x="179" y="-57" font-family="Helvetica,sans-Serif" font-size="10.00">TextureFrameTable::</text>
<text text-anchor="middle" x="224" y="-46" font-family="Helvetica,sans-Serif" font-size="10.00">GetFrameTexture</text>
</a>
</g>
</g>
<!-- Node1&#45;&gt;Node2 -->
<g id="edge1" class="edge"><title>Node1&#45;&gt;Node2</title>
<path fill="none" stroke="midnightblue" d="M111.018,-39.2036C126.962,-41.3103 144.508,-43.6287 160.886,-45.7927"/>
<polygon fill="midnightblue" stroke="midnightblue" points="160.535,-49.2767 170.907,-47.1168 161.452,-42.337 160.535,-49.2767"/>
</g>
<!-- Node5 -->
<g id="node5" class="node"><title>Node5</title>
<g id="a_node5"><a xlink:href="../../d9/ded/struct_b_l_v_face.html#a8f592ccc759d53ca44c5374dc8c65a72" target="_top" xlink:title=" ">
<polygon fill="white" stroke="black" points="147,-0.5 147,-19.5 301,-19.5 301,-0.5 147,-0.5"/>
<text text-anchor="middle" x="224" y="-7.5" font-family="Helvetica,sans-Serif" font-size="10.00">BLVFace::IsTextureFrameTable</text>
</a>
</g>
</g>
<!-- Node1&#45;&gt;Node5 -->
<g id="edge4" class="edge"><title>Node1&#45;&gt;Node5</title>
<path fill="none" stroke="midnightblue" d="M111.018,-24.7964C120.621,-23.5276 130.805,-22.1819 140.965,-20.8395"/>
<polygon fill="midnightblue" stroke="midnightblue" points="141.639,-24.281 151.094,-19.5011 140.722,-17.3413 141.639,-24.281"/>
</g>
<!-- Node3 -->
<g id="node3" class="node"><title>Node3</title>
<g id="a_node3"><a xlink:href="../../d1/df3/class_texture_frame.html#a41e9c18081ccfa3f3ec341491f1d8b93" target="_top" xlink:title=" ">
<polygon fill="white" stroke="black" points="337,-44.5 337,-63.5 468,-63.5 468,-44.5 337,-44.5"/>
<text text-anchor="middle" x="402.5" y="-51.5" font-family="Helvetica,sans-Serif" font-size="10.00">TextureFrame::GetTexture</text>
</a>
</g>
</g>
<!-- Node2&#45;&gt;Node3 -->
<g id="edge2" class="edge"><title>Node2&#45;&gt;Node3</title>
<path fill="none" stroke="midnightblue" d="M277.001,-54C292.496,-54 309.794,-54 326.451,-54"/>
<polygon fill="midnightblue" stroke="midnightblue" points="326.718,-57.5001 336.718,-54 326.718,-50.5001 326.718,-57.5001"/>
</g>
<!-- Node4 -->
<g id="node4" class="node"><title>Node4</title>
<g id="a_node4"><a xlink:href="../../db/dd6/class_assets_manager.html#a10437426fdfa6c1e8e6d6a2ece0c532f" target="_top" xlink:title=" ">
<polygon fill="white" stroke="black" points="504,-44.5 504,-63.5 641,-63.5 641,-44.5 504,-44.5"/>
<text text-anchor="middle" x="572.5" y="-51.5" font-family="Helvetica,sans-Serif" font-size="10.00">AssetsManager::GetBitmap</text>
</a>
</g>
</g>
<!-- Node3&#45;&gt;Node4 -->
<g id="edge3" class="edge"><title>Node3&#45;&gt;Node4</title>
<path fill="none" stroke="midnightblue" d="M468.453,-54C476.724,-54 485.256,-54 493.703,-54"/>
<polygon fill="midnightblue" stroke="midnightblue" points="493.941,-57.5001 503.941,-54 493.941,-50.5001 493.941,-57.5001"/>
</g>
</g>
</svg>
