<?xml version="1.0" encoding="UTF-8" standalone="no"?>
<!DOCTYPE svg PUBLIC "-//W3C//DTD SVG 1.1//EN"
 "http://www.w3.org/Graphics/SVG/1.1/DTD/svg11.dtd">
<!-- Generated by graphviz version 2.38.0 (20140413.2041)
 -->
<!-- Title: BLVFace::SetTexture Pages: 1 -->
<svg width="308pt" height="165pt"
 viewBox="0.00 0.00 308.00 165.00" xmlns="http://www.w3.org/2000/svg" xmlns:xlink="http://www.w3.org/1999/xlink">
<g id="graph0" class="graph" transform="scale(1 1) rotate(0) translate(4 161)">
<title>BLVFace::SetTexture</title>
<polygon fill="white" stroke="none" points="-4,4 -4,-161 304,-161 304,4 -4,4"/>
<!-- Node1 -->
<g id="node1" class="node"><title>Node1</title>
<g id="a_node1"><a xlink:title=" ">
<polygon fill="#bfbfbf" stroke="black" points="0,-69 0,-88 110,-88 110,-69 0,-69"/>
<text text-anchor="middle" x="55" y="-76" font-family="Helvetica,sans-Serif" font-size="10.00">BLVFace::SetTexture</text>
</a>
</g>
</g>
<!-- Node2 -->
<g id="node2" class="node"><title>Node2</title>
<g id="a_node2"><a xlink:href="../../dd/d55/struct_texture_frame_table.html#a36bc3b3742a2b297fec5a1d6fef24a87" target="_top" xlink:title=" ">
<polygon fill="white" stroke="black" points="170,-126.5 170,-156.5 276,-156.5 276,-126.5 170,-126.5"/>
<text text-anchor="start" x="178" y="-144.5" font-family="Helvetica,sans-Serif" font-size="10.00">TextureFrameTable::</text>
<text text-anchor="middle" x="223" y="-133.5" font-family="Helvetica,sans-Serif" font-size="10.00">FindTextureByName</text>
</a>
</g>
</g>
<!-- Node1&#45;&gt;Node2 -->
<g id="edge1" class="edge"><title>Node1&#45;&gt;Node2</title>
<path fill="none" stroke="midnightblue" d="M77.2599,-88.0566C95.3732,-96.0584 122.178,-107.57 146,-116.5 151.975,-118.74 158.252,-120.981 164.532,-123.15"/>
<polygon fill="midnightblue" stroke="midnightblue" points="163.763,-126.586 174.358,-126.49 166.016,-119.958 163.763,-126.586"/>
</g>
<!-- Node3 -->
<g id="node3" class="node"><title>Node3</title>
<g id="a_node3"><a xlink:href="../../db/dd6/class_assets_manager.html#a10437426fdfa6c1e8e6d6a2ece0c532f" target="_top" xlink:title=" ">
<polygon fill="white" stroke="black" points="154.5,-88 154.5,-107 291.5,-107 291.5,-88 154.5,-88"/>
<text text-anchor="middle" x="223" y="-95" font-family="Helvetica,sans-Serif" font-size="10.00">AssetsManager::GetBitmap</text>
</a>
</g>
</g>
<!-- Node1&#45;&gt;Node3 -->
<g id="edge2" class="edge"><title>Node1&#45;&gt;Node3</title>
<path fill="none" stroke="midnightblue" d="M110.355,-84.7213C121.251,-85.9685 132.899,-87.3017 144.407,-88.6189"/>
<polygon fill="midnightblue" stroke="midnightblue" points="144.13,-92.1099 154.463,-89.7698 144.926,-85.1553 144.13,-92.1099"/>
</g>
<!-- Node4 -->
<g id="node4" class="node"><title>Node4</title>
<g id="a_node4"><a xlink:href="../../d9/ded/struct_b_l_v_face.html#a8f592ccc759d53ca44c5374dc8c65a72" target="_top" xlink:title=" ">
<polygon fill="white" stroke="black" points="146,-50 146,-69 300,-69 300,-50 146,-50"/>
<text text-anchor="middle" x="223" y="-57" font-family="Helvetica,sans-Serif" font-size="10.00">BLVFace::IsTextureFrameTable</text>
</a>
</g>
</g>
<!-- Node1&#45;&gt;Node4 -->
<g id="edge3" class="edge"><title>Node1&#45;&gt;Node4</title>
<path fill="none" stroke="midnightblue" d="M110.355,-72.2787C118.51,-71.3452 127.086,-70.3636 135.71,-69.3766"/>
<polygon fill="midnightblue" stroke="midnightblue" points="136.295,-72.8325 145.832,-68.218 135.499,-65.878 136.295,-72.8325"/>
</g>
<!-- Node5 -->
<g id="node5" class="node"><title>Node5</title>
<g id="a_node5"><a xlink:href="../../d9/ded/struct_b_l_v_face.html#ab08aa300699edc541cf52972c8676418" target="_top" xlink:title=" ">
<polygon fill="white" stroke="black" points="157.5,-0.5 157.5,-30.5 288.5,-30.5 288.5,-0.5 157.5,-0.5"/>
<text text-anchor="start" x="165.5" y="-18.5" font-family="Helvetica,sans-Serif" font-size="10.00">BLVFace::ToggleIsTexture</text>
<text text-anchor="middle" x="223" y="-7.5" font-family="Helvetica,sans-Serif" font-size="10.00">FrameTable</text>
</a>
</g>
</g>
<!-- Node1&#45;&gt;Node5 -->
<g id="edge4" class="edge"><title>Node1&#45;&gt;Node5</title>
<path fill="none" stroke="midnightblue" d="M77.2599,-68.9434C95.3732,-60.9416 122.178,-49.4302 146,-40.5 151.975,-38.2603 158.252,-36.0193 164.532,-33.8498"/>
<polygon fill="midnightblue" stroke="midnightblue" points="166.016,-37.0419 174.358,-30.5096 163.763,-30.4143 166.016,-37.0419"/>
</g>
</g>
</svg>
