<?xml version="1.0" encoding="UTF-8" standalone="no"?>
<!DOCTYPE svg PUBLIC "-//W3C//DTD SVG 1.1//EN"
 "http://www.w3.org/Graphics/SVG/1.1/DTD/svg11.dtd">
<!-- Generated by graphviz version 2.38.0 (20140413.2041)
 -->
<!-- Title: BLVFace::Visible Pages: 1 -->
<svg width="518pt" height="78pt"
 viewBox="0.00 0.00 518.00 77.50" xmlns="http://www.w3.org/2000/svg" xmlns:xlink="http://www.w3.org/1999/xlink">
<g id="graph0" class="graph" transform="scale(1 1) rotate(0) translate(4 73.5)">
<title>BLVFace::Visible</title>
<polygon fill="white" stroke="none" points="-4,4 -4,-73.5 514,-73.5 514,4 -4,4"/>
<!-- Node1 -->
<g id="node1" class="node"><title>Node1</title>
<g id="a_node1"><a xlink:title=" ">
<polygon fill="#bfbfbf" stroke="black" points="418,-22.5 418,-41.5 510,-41.5 510,-22.5 418,-22.5"/>
<text text-anchor="middle" x="464" y="-29.5" font-family="Helvetica,sans-Serif" font-size="10.00">BLVFace::Visible</text>
</a>
</g>
</g>
<!-- Node2 -->
<g id="node2" class="node"><title>Node2</title>
<g id="a_node2"><a xlink:href="../../d0/d67/_map_book_8cpp.html#a790ae511198549d505673e4d5519e614" target="_top" xlink:title=" ">
<polygon fill="white" stroke="black" points="271,-42.5 271,-61.5 377,-61.5 377,-42.5 271,-42.5"/>
<text text-anchor="middle" x="324" y="-49.5" font-family="Helvetica,sans-Serif" font-size="10.00">DrawBook_Map_sub</text>
</a>
</g>
</g>
<!-- Node1&#45;&gt;Node2 -->
<g id="edge1" class="edge"><title>Node1&#45;&gt;Node2</title>
<path fill="none" stroke="midnightblue" d="M407.627,-40.025C397.681,-41.4665 387.341,-42.9651 377.479,-44.3943"/>
<polygon fill="midnightblue" stroke="midnightblue" points="408.419,-43.4469 417.814,-38.5487 407.415,-36.5193 408.419,-43.4469"/>
</g>
<!-- Node4 -->
<g id="node4" class="node"><title>Node4</title>
<g id="a_node4"><a xlink:href="../../da/db4/_u_i_game_8cpp.html#a2d123b25b8450b488ec11905979530ad" target="_top" xlink:title=" ">
<polygon fill="white" stroke="black" points="266,-3.5 266,-22.5 382,-22.5 382,-3.5 266,-3.5"/>
<text text-anchor="middle" x="324" y="-10.5" font-family="Helvetica,sans-Serif" font-size="10.00">GameUI_DrawMinimap</text>
</a>
</g>
</g>
<!-- Node1&#45;&gt;Node4 -->
<g id="edge3" class="edge"><title>Node1&#45;&gt;Node4</title>
<path fill="none" stroke="midnightblue" d="M407.788,-24.3984C399.426,-23.2471 390.782,-22.057 382.375,-20.8995"/>
<polygon fill="midnightblue" stroke="midnightblue" points="407.43,-27.882 417.814,-25.7787 408.385,-20.9474 407.43,-27.882"/>
</g>
<!-- Node3 -->
<g id="node3" class="node"><title>Node3</title>
<g id="a_node3"><a xlink:href="../../d7/d06/struct_g_u_i_window___map_book.html#ab75d2ae71d6239cff0ba1528c04d7be6" target="_top" xlink:title=" ">
<polygon fill="white" stroke="black" points="110,-39 110,-69 230,-69 230,-39 110,-39"/>
<text text-anchor="start" x="118" y="-57" font-family="Helvetica,sans-Serif" font-size="10.00">GUIWindow_MapBook::</text>
<text text-anchor="middle" x="170" y="-46" font-family="Helvetica,sans-Serif" font-size="10.00">Update</text>
</a>
</g>
</g>
<!-- Node2&#45;&gt;Node3 -->
<g id="edge2" class="edge"><title>Node2&#45;&gt;Node3</title>
<path fill="none" stroke="midnightblue" d="M260.418,-52.8234C250.421,-52.955 240.104,-53.0907 230.189,-53.2212"/>
<polygon fill="midnightblue" stroke="midnightblue" points="260.737,-56.3196 270.69,-52.6883 260.645,-49.3203 260.737,-56.3196"/>
</g>
<!-- Node5 -->
<g id="node5" class="node"><title>Node5</title>
<g id="a_node5"><a xlink:href="../../d6/d83/struct_engine.html#a2a165eb0ca2f67c8ed9b9cbfde6d14e6" target="_top" xlink:title=" ">
<polygon fill="white" stroke="black" points="124.5,-0.5 124.5,-19.5 215.5,-19.5 215.5,-0.5 124.5,-0.5"/>
<text text-anchor="middle" x="170" y="-7.5" font-family="Helvetica,sans-Serif" font-size="10.00">Engine::DrawGUI</text>
</a>
</g>
</g>
<!-- Node4&#45;&gt;Node5 -->
<g id="edge4" class="edge"><title>Node4&#45;&gt;Node5</title>
<path fill="none" stroke="midnightblue" d="M255.673,-11.6712C242.075,-11.4028 228.102,-11.127 215.525,-10.8788"/>
<polygon fill="midnightblue" stroke="midnightblue" points="255.901,-15.1763 265.968,-11.8744 256.039,-8.17763 255.901,-15.1763"/>
</g>
<!-- Node6 -->
<g id="node6" class="node"><title>Node6</title>
<g id="a_node6"><a xlink:href="../../d6/d83/struct_engine.html#ac098ab29cbcd7352879d0101aaf4b827" target="_top" xlink:title=" ">
<polygon fill="white" stroke="black" points="0,-0.5 0,-19.5 74,-19.5 74,-0.5 0,-0.5"/>
<text text-anchor="middle" x="37" y="-7.5" font-family="Helvetica,sans-Serif" font-size="10.00">Engine::Draw</text>
</a>
</g>
</g>
<!-- Node5&#45;&gt;Node6 -->
<g id="edge5" class="edge"><title>Node5&#45;&gt;Node6</title>
<path fill="none" stroke="midnightblue" d="M114.149,-10C100.687,-10 86.6084,-10 74.2707,-10"/>
<polygon fill="midnightblue" stroke="midnightblue" points="114.284,-13.5001 124.284,-10 114.284,-6.5001 114.284,-13.5001"/>
</g>
</g>
</svg>
