<?xml version="1.0" encoding="UTF-8" standalone="no"?>
<!DOCTYPE svg PUBLIC "-//W3C//DTD SVG 1.1//EN"
 "http://www.w3.org/Graphics/SVG/1.1/DTD/svg11.dtd">
<!-- Generated by graphviz version 2.38.0 (20140413.2041)
 -->
<!-- Title: alcDestroyContext Pages: 1 -->
<svg width="548pt" height="88pt"
 viewBox="0.00 0.00 548.00 88.00" xmlns="http://www.w3.org/2000/svg" xmlns:xlink="http://www.w3.org/1999/xlink">
<g id="graph0" class="graph" transform="scale(1 1) rotate(0) translate(4 84)">
<title>alcDestroyContext</title>
<polygon fill="white" stroke="none" points="-4,4 -4,-84 544,-84 544,4 -4,4"/>
<!-- Node1 -->
<g id="node1" class="node"><title>Node1</title>
<g id="a_node1"><a xlink:title=" ">
<polygon fill="#bfbfbf" stroke="black" points="443,-30 443,-49 540,-49 540,-30 443,-30"/>
<text text-anchor="middle" x="491.5" y="-37" font-family="Helvetica,sans-Serif" font-size="10.00">alcDestroyContext</text>
</a>
</g>
</g>
<!-- Node2 -->
<g id="node2" class="node"><title>Node2</title>
<g id="a_node2"><a xlink:href="../../d9/d98/class_open_a_l_sound_provider.html#a090f65e443548e5323217f46feeaf1ac" target="_top" xlink:title=" ">
<polygon fill="white" stroke="black" points="293,-24.5 293,-54.5 407,-54.5 407,-24.5 293,-24.5"/>
<text text-anchor="start" x="301" y="-42.5" font-family="Helvetica,sans-Serif" font-size="10.00">OpenALSoundProvider</text>
<text text-anchor="middle" x="350" y="-31.5" font-family="Helvetica,sans-Serif" font-size="10.00">::Release</text>
</a>
</g>
</g>
<!-- Node1&#45;&gt;Node2 -->
<g id="edge1" class="edge"><title>Node1&#45;&gt;Node2</title>
<path fill="none" stroke="midnightblue" d="M432.699,-39.5C424.222,-39.5 415.504,-39.5 407.063,-39.5"/>
<polygon fill="midnightblue" stroke="midnightblue" points="432.882,-43.0001 442.882,-39.5 432.882,-36.0001 432.882,-43.0001"/>
</g>
<!-- Node3 -->
<g id="node3" class="node"><title>Node3</title>
<g id="a_node3"><a xlink:href="../../d9/d98/class_open_a_l_sound_provider.html#adbef721538eac354ac07a378ceee2fa1" target="_top" xlink:title=" ">
<polygon fill="white" stroke="black" points="137,-49.5 137,-79.5 251,-79.5 251,-49.5 137,-49.5"/>
<text text-anchor="start" x="145" y="-67.5" font-family="Helvetica,sans-Serif" font-size="10.00">OpenALSoundProvider</text>
<text text-anchor="middle" x="194" y="-56.5" font-family="Helvetica,sans-Serif" font-size="10.00">::Initialize</text>
</a>
</g>
</g>
<!-- Node2&#45;&gt;Node3 -->
<g id="edge2" class="edge"><title>Node2&#45;&gt;Node3</title>
<path fill="none" stroke="midnightblue" d="M282.955,-50.2216C272.395,-51.9359 261.554,-53.6957 251.25,-55.3686"/>
<polygon fill="midnightblue" stroke="midnightblue" points="283.657,-53.6536 292.967,-48.5963 282.535,-46.744 283.657,-53.6536"/>
</g>
<!-- Node5 -->
<g id="node5" class="node"><title>Node5</title>
<g id="a_node5"><a xlink:href="../../d9/d98/class_open_a_l_sound_provider.html#ad1fcaf82d18c358b702c3b3c4aefcf81" target="_top" xlink:title=" ">
<polygon fill="white" stroke="black" points="131,-0.5 131,-30.5 257,-30.5 257,-0.5 131,-0.5"/>
<text text-anchor="start" x="139" y="-18.5" font-family="Helvetica,sans-Serif" font-size="10.00">OpenALSoundProvider</text>
<text text-anchor="middle" x="194" y="-7.5" font-family="Helvetica,sans-Serif" font-size="10.00">::~OpenALSoundProvider</text>
</a>
</g>
</g>
<!-- Node2&#45;&gt;Node5 -->
<g id="edge4" class="edge"><title>Node2&#45;&gt;Node5</title>
<path fill="none" stroke="midnightblue" d="M283.033,-29.2195C274.477,-27.886 265.735,-26.5236 257.241,-25.2"/>
<polygon fill="midnightblue" stroke="midnightblue" points="282.547,-32.6859 292.967,-30.7676 283.625,-25.7694 282.547,-32.6859"/>
</g>
<!-- Node4 -->
<g id="node4" class="node"><title>Node4</title>
<g id="a_node4"><a xlink:href="../../d0/db7/class_m_player.html#a505e4bd268a9b786b2913a887c9c5173" target="_top" xlink:title=" ">
<polygon fill="white" stroke="black" points="0,-55 0,-74 95,-74 95,-55 0,-55"/>
<text text-anchor="middle" x="47.5" y="-62" font-family="Helvetica,sans-Serif" font-size="10.00">MPlayer::MPlayer</text>
</a>
</g>
</g>
<!-- Node3&#45;&gt;Node4 -->
<g id="edge3" class="edge"><title>Node3&#45;&gt;Node4</title>
<path fill="none" stroke="midnightblue" d="M126.587,-64.5C115.934,-64.5 105.11,-64.5 95.0504,-64.5"/>
<polygon fill="midnightblue" stroke="midnightblue" points="126.719,-68.0001 136.719,-64.5 126.719,-61.0001 126.719,-68.0001"/>
</g>
</g>
</svg>
