<?xml version="1.0" encoding="UTF-8" standalone="no"?>
<!DOCTYPE svg PUBLIC "-//W3C//DTD SVG 1.1//EN"
 "http://www.w3.org/Graphics/SVG/1.1/DTD/svg11.dtd">
<!-- Generated by graphviz version 2.38.0 (20140413.2041)
 -->
<!-- Title: InitializaDialogueOptions_Shops Pages: 1 -->
<svg width="478pt" height="78pt"
 viewBox="0.00 0.00 478.00 77.50" xmlns="http://www.w3.org/2000/svg" xmlns:xlink="http://www.w3.org/1999/xlink">
<g id="graph0" class="graph" transform="scale(1 1) rotate(0) translate(4 73.5)">
<title>InitializaDialogueOptions_Shops</title>
<polygon fill="white" stroke="none" points="-4,4 -4,-73.5 474,-73.5 474,4 -4,4"/>
<!-- Node1 -->
<g id="node1" class="node"><title>Node1</title>
<g id="a_node1"><a xlink:title=" ">
<polygon fill="#bfbfbf" stroke="black" points="0,-17 0,-47 123,-47 123,-17 0,-17"/>
<text text-anchor="start" x="8" y="-35" font-family="Helvetica,sans-Serif" font-size="10.00">InitializaDialogueOptions</text>
<text text-anchor="middle" x="61.5" y="-24" font-family="Helvetica,sans-Serif" font-size="10.00">_Shops</text>
</a>
</g>
</g>
<!-- Node2 -->
<g id="node2" class="node"><title>Node2</title>
<g id="a_node2"><a xlink:href="../../d4/d38/class_g_u_i_window.html#af1601b14fd14172585c6793565a30e7d" target="_top" xlink:title=" ">
<polygon fill="white" stroke="black" points="159,-39 159,-69 303,-69 303,-39 159,-39"/>
<text text-anchor="start" x="167" y="-57" font-family="Helvetica,sans-Serif" font-size="10.00">GUIWindow::_41D08F</text>
<text text-anchor="middle" x="231" y="-46" font-family="Helvetica,sans-Serif" font-size="10.00">_set_keyboard_control_group</text>
</a>
</g>
</g>
<!-- Node1&#45;&gt;Node2 -->
<g id="edge1" class="edge"><title>Node1&#45;&gt;Node2</title>
<path fill="none" stroke="midnightblue" d="M123.445,-40.0047C131.715,-41.0909 140.305,-42.2192 148.86,-43.3427"/>
<polygon fill="midnightblue" stroke="midnightblue" points="148.493,-46.8245 158.863,-44.6567 149.404,-39.8842 148.493,-46.8245"/>
</g>
<!-- Node3 -->
<g id="node3" class="node"><title>Node3</title>
<g id="a_node3"><a xlink:href="../../d9/d1d/_g_u_i_button_8cpp.html#ac06abfc348abf027fcd2e0e46a74d1eb" target="_top" xlink:title=" ">
<polygon fill="white" stroke="black" points="174,-0.5 174,-19.5 288,-19.5 288,-0.5 174,-0.5"/>
<text text-anchor="middle" x="231" y="-7.5" font-family="Helvetica,sans-Serif" font-size="10.00">CreateButtonInColumn</text>
</a>
</g>
</g>
<!-- Node1&#45;&gt;Node3 -->
<g id="edge2" class="edge"><title>Node1&#45;&gt;Node3</title>
<path fill="none" stroke="midnightblue" d="M123.445,-23.9953C136.564,-22.2722 150.491,-20.4429 163.799,-18.695"/>
<polygon fill="midnightblue" stroke="midnightblue" points="164.373,-22.1498 173.832,-17.3773 163.461,-15.2095 164.373,-22.1498"/>
</g>
<!-- Node4 -->
<g id="node4" class="node"><title>Node4</title>
<g id="a_node4"><a xlink:href="../../d4/d38/class_g_u_i_window.html#a29f96468b54f142995e3b1890cb7e45e" target="_top" xlink:title=" ">
<polygon fill="white" stroke="black" points="339,-0.5 339,-19.5 470,-19.5 470,-0.5 339,-0.5"/>
<text text-anchor="middle" x="404.5" y="-7.5" font-family="Helvetica,sans-Serif" font-size="10.00">GUIWindow::CreateButton</text>
</a>
</g>
</g>
<!-- Node3&#45;&gt;Node4 -->
<g id="edge3" class="edge"><title>Node3&#45;&gt;Node4</title>
<path fill="none" stroke="midnightblue" d="M288.156,-10C301.078,-10 315.022,-10 328.598,-10"/>
<polygon fill="midnightblue" stroke="midnightblue" points="328.885,-13.5001 338.885,-10 328.885,-6.5001 328.885,-13.5001"/>
</g>
</g>
</svg>
