<?xml version="1.0" encoding="UTF-8" standalone="no"?>
<!DOCTYPE svg PUBLIC "-//W3C//DTD SVG 1.1//EN"
 "http://www.w3.org/Graphics/SVG/1.1/DTD/svg11.dtd">
<!-- Generated by graphviz version 2.38.0 (20140413.2041)
 -->
<!-- Title: IsTerrainSlopeTooHigh Pages: 1 -->
<svg width="306pt" height="192pt"
 viewBox="0.00 0.00 306.00 191.50" xmlns="http://www.w3.org/2000/svg" xmlns:xlink="http://www.w3.org/1999/xlink">
<g id="graph0" class="graph" transform="scale(1 1) rotate(0) translate(4 187.5)">
<title>IsTerrainSlopeTooHigh</title>
<polygon fill="white" stroke="none" points="-4,4 -4,-187.5 302,-187.5 302,4 -4,4"/>
<!-- Node1 -->
<g id="node1" class="node"><title>Node1</title>
<g id="a_node1"><a xlink:title=" ">
<polygon fill="#bfbfbf" stroke="black" points="0,-76.5 0,-95.5 113,-95.5 113,-76.5 0,-76.5"/>
<text text-anchor="middle" x="56.5" y="-83.5" font-family="Helvetica,sans-Serif" font-size="10.00">IsTerrainSlopeTooHigh</text>
</a>
</g>
</g>
<!-- Node2 -->
<g id="node2" class="node"><title>Node2</title>
<g id="a_node2"><a xlink:href="../../d1/d55/struct_outdoor_location.html#abe2aa540a3d2933e7c1ced447be3f180" target="_top" xlink:title=" ">
<polygon fill="white" stroke="black" points="149,-153 149,-183 298,-183 298,-153 149,-153"/>
<text text-anchor="start" x="157" y="-171" font-family="Helvetica,sans-Serif" font-size="10.00">OutdoorLocation::DoGetHeight</text>
<text text-anchor="middle" x="223.5" y="-160" font-family="Helvetica,sans-Serif" font-size="10.00">OnTerrain</text>
</a>
</g>
</g>
<!-- Node1&#45;&gt;Node2 -->
<g id="edge1" class="edge"><title>Node1&#45;&gt;Node2</title>
<path fill="none" stroke="midnightblue" d="M70.5914,-95.5061C87.8765,-107.734 119.571,-129.056 149,-143 153.676,-145.216 158.603,-147.329 163.599,-149.321"/>
<polygon fill="midnightblue" stroke="midnightblue" points="162.657,-152.707 173.247,-152.997 165.149,-146.166 162.657,-152.707"/>
</g>
<!-- Node3 -->
<g id="node3" class="node"><title>Node3</title>
<g id="a_node3"><a xlink:href="../../d1/d03/_outdoor_8cpp.html#acdffafa1ce95f97ed4a56f48002db29a" target="_top" xlink:title=" ">
<polygon fill="white" stroke="black" points="168.5,-114.5 168.5,-133.5 278.5,-133.5 278.5,-114.5 168.5,-114.5"/>
<text text-anchor="middle" x="223.5" y="-121.5" font-family="Helvetica,sans-Serif" font-size="10.00">GridCellToWorldPosX</text>
</a>
</g>
</g>
<!-- Node1&#45;&gt;Node3 -->
<g id="edge2" class="edge"><title>Node1&#45;&gt;Node3</title>
<path fill="none" stroke="midnightblue" d="M99.1365,-95.589C121.008,-100.626 148.006,-106.844 171.164,-112.177"/>
<polygon fill="midnightblue" stroke="midnightblue" points="170.633,-115.646 181.163,-114.48 172.204,-108.825 170.633,-115.646"/>
</g>
<!-- Node4 -->
<g id="node4" class="node"><title>Node4</title>
<g id="a_node4"><a xlink:href="../../d1/d03/_outdoor_8cpp.html#a6f890eae14463e0db81d5a37078f042c" target="_top" xlink:title=" ">
<polygon fill="white" stroke="black" points="168.5,-76.5 168.5,-95.5 278.5,-95.5 278.5,-76.5 168.5,-76.5"/>
<text text-anchor="middle" x="223.5" y="-83.5" font-family="Helvetica,sans-Serif" font-size="10.00">GridCellToWorldPosZ</text>
</a>
</g>
</g>
<!-- Node1&#45;&gt;Node4 -->
<g id="edge3" class="edge"><title>Node1&#45;&gt;Node4</title>
<path fill="none" stroke="midnightblue" d="M113.361,-86C127.794,-86 143.446,-86 158.268,-86"/>
<polygon fill="midnightblue" stroke="midnightblue" points="158.373,-89.5001 168.373,-86 158.373,-82.5001 158.373,-89.5001"/>
</g>
<!-- Node5 -->
<g id="node5" class="node"><title>Node5</title>
<g id="a_node5"><a xlink:href="../../d1/d03/_outdoor_8cpp.html#a1fc6a9841260afdd3a49a96000d9157b" target="_top" xlink:title=" ">
<polygon fill="white" stroke="black" points="168.5,-38.5 168.5,-57.5 278.5,-57.5 278.5,-38.5 168.5,-38.5"/>
<text text-anchor="middle" x="223.5" y="-45.5" font-family="Helvetica,sans-Serif" font-size="10.00">WorldPosToGridCellX</text>
</a>
</g>
</g>
<!-- Node1&#45;&gt;Node5 -->
<g id="edge4" class="edge"><title>Node1&#45;&gt;Node5</title>
<path fill="none" stroke="midnightblue" d="M99.1365,-76.411C121.008,-71.3739 148.006,-65.1562 171.164,-59.8229"/>
<polygon fill="midnightblue" stroke="midnightblue" points="172.204,-63.1751 181.163,-57.5201 170.633,-56.3537 172.204,-63.1751"/>
</g>
<!-- Node6 -->
<g id="node6" class="node"><title>Node6</title>
<g id="a_node6"><a xlink:href="../../d1/d03/_outdoor_8cpp.html#a7e25ed8503996c8f34bdc79af76b1189" target="_top" xlink:title=" ">
<polygon fill="white" stroke="black" points="168.5,-0.5 168.5,-19.5 278.5,-19.5 278.5,-0.5 168.5,-0.5"/>
<text text-anchor="middle" x="223.5" y="-7.5" font-family="Helvetica,sans-Serif" font-size="10.00">WorldPosToGridCellZ</text>
</a>
</g>
</g>
<!-- Node1&#45;&gt;Node6 -->
<g id="edge5" class="edge"><title>Node1&#45;&gt;Node6</title>
<path fill="none" stroke="midnightblue" d="M70.1434,-76.3681C87.193,-63.8034 118.898,-41.9064 149,-29 154.724,-26.546 160.838,-24.3506 167.005,-22.402"/>
<polygon fill="midnightblue" stroke="midnightblue" points="168.09,-25.731 176.688,-19.5412 166.107,-19.0178 168.09,-25.731"/>
</g>
</g>
</svg>
