<?xml version="1.0" encoding="UTF-8" standalone="no"?>
<!DOCTYPE svg PUBLIC "-//W3C//DTD SVG 1.1//EN"
 "http://www.w3.org/Graphics/SVG/1.1/DTD/svg11.dtd">
<!-- Generated by graphviz version 2.38.0 (20140413.2041)
 -->
<!-- Title: Player::PlayAwardSound_Anim97 Pages: 1 -->
<svg width="914pt" height="310pt"
 viewBox="0.00 0.00 914.00 310.00" xmlns="http://www.w3.org/2000/svg" xmlns:xlink="http://www.w3.org/1999/xlink">
<g id="graph0" class="graph" transform="scale(1 1) rotate(0) translate(4 306)">
<title>Player::PlayAwardSound_Anim97</title>
<polygon fill="white" stroke="none" points="-4,4 -4,-306 910,-306 910,4 -4,4"/>
<!-- Node1 -->
<g id="node1" class="node"><title>Node1</title>
<g id="a_node1"><a xlink:title=" ">
<polygon fill="#bfbfbf" stroke="black" points="0,-147 0,-177 125,-177 125,-147 0,-147"/>
<text text-anchor="start" x="8" y="-165" font-family="Helvetica,sans-Serif" font-size="10.00">Player::PlayAwardSound</text>
<text text-anchor="middle" x="62.5" y="-154" font-family="Helvetica,sans-Serif" font-size="10.00">_Anim97</text>
</a>
</g>
</g>
<!-- Node2 -->
<g id="node2" class="node"><title>Node2</title>
<g id="a_node2"><a xlink:href="../../d3/db1/struct_player.html#aa69875308b81b4a8013fcb06b7c32965" target="_top" xlink:title=" ">
<polygon fill="white" stroke="black" points="339.5,-190.5 339.5,-209.5 456.5,-209.5 456.5,-190.5 339.5,-190.5"/>
<text text-anchor="middle" x="398" y="-197.5" font-family="Helvetica,sans-Serif" font-size="10.00">Player::GetPlayerIndex</text>
</a>
</g>
</g>
<!-- Node1&#45;&gt;Node2 -->
<g id="edge1" class="edge"><title>Node1&#45;&gt;Node2</title>
<path fill="none" stroke="midnightblue" d="M125.22,-175.111C137.057,-177.317 149.382,-179.405 161,-181 217.34,-188.733 281.711,-193.657 328.978,-196.549"/>
<polygon fill="midnightblue" stroke="midnightblue" points="328.905,-200.051 339.096,-197.153 329.323,-193.063 328.905,-200.051"/>
</g>
<!-- Node3 -->
<g id="node3" class="node"><title>Node3</title>
<g id="a_node3"><a xlink:href="../../d3/db1/struct_player.html#a0fec20f3dfdd8e01e0b9adc88d9bb119" target="_top" xlink:title=" ">
<polygon fill="white" stroke="black" points="167,-152.5 167,-171.5 292,-171.5 292,-152.5 167,-152.5"/>
<text text-anchor="middle" x="229.5" y="-159.5" font-family="Helvetica,sans-Serif" font-size="10.00">Player::PlayAwardSound</text>
</a>
</g>
</g>
<!-- Node1&#45;&gt;Node3 -->
<g id="edge2" class="edge"><title>Node1&#45;&gt;Node3</title>
<path fill="none" stroke="midnightblue" d="M125.409,-162C135.56,-162 146.154,-162 156.523,-162"/>
<polygon fill="midnightblue" stroke="midnightblue" points="156.792,-165.5 166.792,-162 156.792,-158.5 156.792,-165.5"/>
</g>
<!-- Node15 -->
<g id="node15" class="node"><title>Node15</title>
<g id="a_node15"><a xlink:href="../../db/d64/struct_spell_fx_renderer.html#a05fe8d486699c6edb1053c644fd4993b" target="_top" xlink:title=" ">
<polygon fill="white" stroke="black" points="161,-71 161,-101 298,-101 298,-71 161,-71"/>
<text text-anchor="start" x="169" y="-89" font-family="Helvetica,sans-Serif" font-size="10.00">SpellFxRenderer::SetPlayer</text>
<text text-anchor="middle" x="229.5" y="-78" font-family="Helvetica,sans-Serif" font-size="10.00">BuffAnim</text>
</a>
</g>
</g>
<!-- Node1&#45;&gt;Node15 -->
<g id="edge16" class="edge"><title>Node1&#45;&gt;Node15</title>
<path fill="none" stroke="midnightblue" d="M96.0987,-146.985C122.003,-135.053 158.422,-118.278 186.509,-105.341"/>
<polygon fill="midnightblue" stroke="midnightblue" points="188.069,-108.476 195.687,-101.114 185.14,-102.119 188.069,-108.476"/>
</g>
<!-- Node3&#45;&gt;Node2 -->
<g id="edge3" class="edge"><title>Node3&#45;&gt;Node2</title>
<path fill="none" stroke="midnightblue" d="M272.515,-171.589C294.684,-176.649 322.073,-182.9 345.511,-188.249"/>
<polygon fill="midnightblue" stroke="midnightblue" points="344.759,-191.667 355.287,-190.48 346.317,-184.843 344.759,-191.667"/>
</g>
<!-- Node4 -->
<g id="node4" class="node"><title>Node4</title>
<g id="a_node4"><a xlink:href="../../d7/dc2/class_audio_player.html#afa0c135f321bd87b4d4ad2dcad3833e3" target="_top" xlink:title=" ">
<polygon fill="white" stroke="black" points="337,-152.5 337,-171.5 459,-171.5 459,-152.5 337,-152.5"/>
<text text-anchor="middle" x="398" y="-159.5" font-family="Helvetica,sans-Serif" font-size="10.00">AudioPlayer::PlaySound</text>
</a>
</g>
</g>
<!-- Node3&#45;&gt;Node4 -->
<g id="edge4" class="edge"><title>Node3&#45;&gt;Node4</title>
<path fill="none" stroke="midnightblue" d="M292.025,-162C303.346,-162 315.242,-162 326.795,-162"/>
<polygon fill="midnightblue" stroke="midnightblue" points="326.836,-165.5 336.836,-162 326.836,-158.5 326.836,-165.5"/>
</g>
<!-- Node5 -->
<g id="node5" class="node"><title>Node5</title>
<g id="a_node5"><a xlink:href="../../d4/db9/_open_a_l_sound_provider_8cpp.html#a0d61058bc8900801bc227bc7b47881d7" target="_top" xlink:title=" ">
<polygon fill="white" stroke="black" points="508.5,-244.5 508.5,-263.5 611.5,-263.5 611.5,-244.5 508.5,-244.5"/>
<text text-anchor="middle" x="560" y="-251.5" font-family="Helvetica,sans-Serif" font-size="10.00">CreateAudioSample</text>
</a>
</g>
</g>
<!-- Node4&#45;&gt;Node5 -->
<g id="edge5" class="edge"><title>Node4&#45;&gt;Node5</title>
<path fill="none" stroke="midnightblue" d="M438.482,-171.574C446.47,-174.152 454.663,-177.282 462,-181 492.161,-196.284 522.614,-221.081 541.148,-237.465"/>
<polygon fill="midnightblue" stroke="midnightblue" points="539.007,-240.247 548.781,-244.336 543.691,-235.044 539.007,-240.247"/>
</g>
<!-- Node7 -->
<g id="node7" class="node"><title>Node7</title>
<g id="a_node7"><a xlink:href="../../d7/dc2/class_audio_player.html#ae30d2f6cbd73b8e316a47b4694fe8960" target="_top" xlink:title=" ">
<polygon fill="white" stroke="black" points="498,-171.5 498,-190.5 622,-190.5 622,-171.5 498,-171.5"/>
<text text-anchor="middle" x="560" y="-178.5" font-family="Helvetica,sans-Serif" font-size="10.00">AudioPlayer::LoadSound</text>
</a>
</g>
</g>
<!-- Node4&#45;&gt;Node7 -->
<g id="edge7" class="edge"><title>Node4&#45;&gt;Node7</title>
<path fill="none" stroke="midnightblue" d="M459.033,-169.129C468.444,-170.247 478.249,-171.411 487.881,-172.555"/>
<polygon fill="midnightblue" stroke="midnightblue" points="487.487,-176.032 497.83,-173.736 488.313,-169.081 487.487,-176.032"/>
</g>
<!-- Node12 -->
<g id="node12" class="node"><title>Node12</title>
<g id="a_node12"><a xlink:href="../../d6/d70/class_log.html#ac0de2621497ca3b2fbf208624c08bcdf" target="_top" xlink:title=" ">
<polygon fill="white" stroke="black" points="694,-130.5 694,-149.5 768,-149.5 768,-130.5 694,-130.5"/>
<text text-anchor="middle" x="731" y="-137.5" font-family="Helvetica,sans-Serif" font-size="10.00">Log::Warning</text>
</a>
</g>
</g>
<!-- Node4&#45;&gt;Node12 -->
<g id="edge15" class="edge"><title>Node4&#45;&gt;Node12</title>
<path fill="none" stroke="midnightblue" d="M459.326,-157.99C523.883,-153.7 624.897,-146.986 683.546,-143.088"/>
<polygon fill="midnightblue" stroke="midnightblue" points="683.889,-146.573 693.635,-142.417 683.425,-139.588 683.889,-146.573"/>
</g>
<!-- Node13 -->
<g id="node13" class="node"><title>Node13</title>
<g id="a_node13"><a xlink:href="../../d9/d98/class_open_a_l_sound_provider.html#a25ac61cd13253bb659672a1cc29ef22c" target="_top" xlink:title=" ">
<polygon fill="white" stroke="black" points="503,-84 503,-114 617,-114 617,-84 503,-84"/>
<text text-anchor="start" x="511" y="-102" font-family="Helvetica,sans-Serif" font-size="10.00">OpenALSoundProvider</text>
<text text-anchor="middle" x="560" y="-91" font-family="Helvetica,sans-Serif" font-size="10.00">::SetListenerPosition</text>
</a>
</g>
</g>
<!-- Node4&#45;&gt;Node13 -->
<g id="edge13" class="edge"><title>Node4&#45;&gt;Node13</title>
<path fill="none" stroke="midnightblue" d="M433.608,-152.464C442.911,-149.657 452.91,-146.415 462,-143 481.133,-135.812 501.827,-126.628 519.167,-118.512"/>
<polygon fill="midnightblue" stroke="midnightblue" points="520.882,-121.573 528.424,-114.133 517.888,-115.246 520.882,-121.573"/>
</g>
<!-- Node6 -->
<g id="node6" class="node"><title>Node6</title>
<g id="a_node6"><a xlink:href="../../da/def/_media_8h.html#ab508e4ee3c70ec5e60273ec99af30a2e" target="_top" xlink:title=" ">
<polygon fill="white" stroke="black" points="658,-282.5 658,-301.5 804,-301.5 804,-282.5 658,-282.5"/>
<text text-anchor="middle" x="731" y="-289.5" font-family="Helvetica,sans-Serif" font-size="10.00">CreateAudioBufferDataSource</text>
</a>
</g>
</g>
<!-- Node5&#45;&gt;Node6 -->
<g id="edge6" class="edge"><title>Node5&#45;&gt;Node6</title>
<path fill="none" stroke="midnightblue" d="M603.646,-263.589C626.148,-268.649 653.948,-274.9 677.738,-280.249"/>
<polygon fill="midnightblue" stroke="midnightblue" points="677.137,-283.701 687.661,-282.48 678.672,-276.871 677.137,-283.701"/>
</g>
<!-- Node8 -->
<g id="node8" class="node"><title>Node8</title>
<g id="a_node8"><a xlink:href="../../da/d6a/_mem_buffer_8cpp.html#a685632d9cd2b61b24a9bfc649d54937e" target="_top" xlink:title=" ">
<polygon fill="white" stroke="black" points="688.5,-244.5 688.5,-263.5 773.5,-263.5 773.5,-244.5 688.5,-244.5"/>
<text text-anchor="middle" x="731" y="-251.5" font-family="Helvetica,sans-Serif" font-size="10.00">AllocMemBuffer</text>
</a>
</g>
</g>
<!-- Node7&#45;&gt;Node8 -->
<g id="edge8" class="edge"><title>Node7&#45;&gt;Node8</title>
<path fill="none" stroke="midnightblue" d="M575.545,-190.625C594.033,-202.494 627.251,-222.612 658,-235 664.445,-237.597 671.358,-239.941 678.258,-242.023"/>
<polygon fill="midnightblue" stroke="midnightblue" points="677.725,-245.511 688.302,-244.887 679.645,-238.779 677.725,-245.511"/>
</g>
<!-- Node9 -->
<g id="node9" class="node"><title>Node9</title>
<g id="a_node9"><a xlink:href="../../d7/dc2/class_audio_player.html#aac82d03b250711ed0ce64fa22dfe3a59" target="_top" xlink:title=" ">
<polygon fill="white" stroke="black" points="670,-206.5 670,-225.5 792,-225.5 792,-206.5 670,-206.5"/>
<text text-anchor="middle" x="731" y="-213.5" font-family="Helvetica,sans-Serif" font-size="10.00">AudioPlayer::FindSound</text>
</a>
</g>
</g>
<!-- Node7&#45;&gt;Node9 -->
<g id="edge9" class="edge"><title>Node7&#45;&gt;Node9</title>
<path fill="none" stroke="midnightblue" d="M607.18,-190.564C627.766,-194.827 652.201,-199.888 673.835,-204.368"/>
<polygon fill="midnightblue" stroke="midnightblue" points="673.374,-207.847 683.876,-206.448 674.793,-200.992 673.374,-207.847"/>
</g>
<!-- Node11 -->
<g id="node11" class="node"><title>Node11</title>
<g id="a_node11"><a xlink:href="../../d9/d3e/namespacezlib.html#ae552beaf4387a81c63a28b01a9cc7ab4" target="_top" xlink:title=" ">
<polygon fill="white" stroke="black" points="685,-168.5 685,-187.5 777,-187.5 777,-168.5 685,-168.5"/>
<text text-anchor="middle" x="731" y="-175.5" font-family="Helvetica,sans-Serif" font-size="10.00">zlib::Uncompress</text>
</a>
</g>
</g>
<!-- Node7&#45;&gt;Node11 -->
<g id="edge11" class="edge"><title>Node7&#45;&gt;Node11</title>
<path fill="none" stroke="midnightblue" d="M622.013,-179.917C639.238,-179.611 657.878,-179.28 674.744,-178.981"/>
<polygon fill="midnightblue" stroke="midnightblue" points="675.052,-182.476 684.989,-178.799 674.928,-175.477 675.052,-182.476"/>
</g>
<!-- Node7&#45;&gt;Node12 -->
<g id="edge12" class="edge"><title>Node7&#45;&gt;Node12</title>
<path fill="none" stroke="midnightblue" d="M600.197,-171.491C625.271,-165.408 657.901,-157.491 684.172,-151.118"/>
<polygon fill="midnightblue" stroke="midnightblue" points="685.008,-154.517 693.901,-148.758 683.357,-147.714 685.008,-154.517"/>
</g>
<!-- Node10 -->
<g id="node10" class="node"><title>Node10</title>
<g id="a_node10"><a xlink:href="../../d8/d44/_strings_8cpp.html#ae591bae1416df2b3638ae859ad4ede6f" target="_top" xlink:title=" ">
<polygon fill="white" stroke="black" points="840,-206.5 840,-225.5 906,-225.5 906,-206.5 840,-206.5"/>
<text text-anchor="middle" x="873" y="-213.5" font-family="Helvetica,sans-Serif" font-size="10.00">MakeLower</text>
</a>
</g>
</g>
<!-- Node9&#45;&gt;Node10 -->
<g id="edge10" class="edge"><title>Node9&#45;&gt;Node10</title>
<path fill="none" stroke="midnightblue" d="M792.185,-216C804.796,-216 817.84,-216 829.636,-216"/>
<polygon fill="midnightblue" stroke="midnightblue" points="829.639,-219.5 839.639,-216 829.639,-212.5 829.639,-219.5"/>
</g>
<!-- Node14 -->
<g id="node14" class="node"><title>Node14</title>
<g id="a_node14"><a xlink:href="../../d1/d20/al_8h.html#acb8f6904370d9946f4ea496e21729415" target="_top" xlink:title=" ">
<polygon fill="white" stroke="black" points="698,-89.5 698,-108.5 764,-108.5 764,-89.5 698,-89.5"/>
<text text-anchor="middle" x="731" y="-96.5" font-family="Helvetica,sans-Serif" font-size="10.00">alListener3f</text>
</a>
</g>
</g>
<!-- Node13&#45;&gt;Node14 -->
<g id="edge14" class="edge"><title>Node13&#45;&gt;Node14</title>
<path fill="none" stroke="midnightblue" d="M617.275,-99C640.214,-99 666.29,-99 687.58,-99"/>
<polygon fill="midnightblue" stroke="midnightblue" points="687.612,-102.5 697.612,-99 687.612,-95.5001 687.612,-102.5"/>
</g>
<!-- Node16 -->
<g id="node16" class="node"><title>Node16</title>
<g id="a_node16"><a xlink:href="../../d9/d30/_s_d_l__assert_8h.html#afedcea68cf85ee469ab1ea390bbe0abb" target="_top" xlink:title=" ">
<polygon fill="white" stroke="black" points="359.5,-114.5 359.5,-133.5 436.5,-133.5 436.5,-114.5 359.5,-114.5"/>
<text text-anchor="middle" x="398" y="-121.5" font-family="Helvetica,sans-Serif" font-size="10.00">__debugbreak</text>
</a>
</g>
</g>
<!-- Node15&#45;&gt;Node16 -->
<g id="edge17" class="edge"><title>Node15&#45;&gt;Node16</title>
<path fill="none" stroke="midnightblue" d="M296.305,-101.019C314.07,-105.073 332.944,-109.381 349.493,-113.158"/>
<polygon fill="midnightblue" stroke="midnightblue" points="348.937,-116.621 359.465,-115.434 350.495,-109.796 348.937,-116.621"/>
</g>
<!-- Node17 -->
<g id="node17" class="node"><title>Node17</title>
<g id="a_node17"><a xlink:href="../../d8/dc5/struct_icon_frame_table.html#a54fe662106564367c584c401dd2e2b36" target="_top" xlink:title=" ">
<polygon fill="white" stroke="black" points="334,-76.5 334,-95.5 462,-95.5 462,-76.5 334,-76.5"/>
<text text-anchor="middle" x="398" y="-83.5" font-family="Helvetica,sans-Serif" font-size="10.00">IconFrameTable::FindIcon</text>
</a>
</g>
</g>
<!-- Node15&#45;&gt;Node17 -->
<g id="edge18" class="edge"><title>Node15&#45;&gt;Node17</title>
<path fill="none" stroke="midnightblue" d="M298.222,-86C306.607,-86 315.21,-86 323.674,-86"/>
<polygon fill="midnightblue" stroke="midnightblue" points="323.905,-89.5001 333.905,-86 323.905,-82.5001 323.905,-89.5001"/>
</g>
<!-- Node18 -->
<g id="node18" class="node"><title>Node18</title>
<g id="a_node18"><a xlink:href="../../db/d60/class_icon.html#a725397bfa1ff9e1666855d210653b379" target="_top" xlink:title=" ">
<polygon fill="white" stroke="black" points="344,-38.5 344,-57.5 452,-57.5 452,-38.5 344,-38.5"/>
<text text-anchor="middle" x="398" y="-45.5" font-family="Helvetica,sans-Serif" font-size="10.00">Icon::GetAnimLength</text>
</a>
</g>
</g>
<!-- Node15&#45;&gt;Node18 -->
<g id="edge19" class="edge"><title>Node15&#45;&gt;Node18</title>
<path fill="none" stroke="midnightblue" d="M296.305,-70.9814C312.56,-67.2715 329.744,-63.3496 345.226,-59.8164"/>
<polygon fill="midnightblue" stroke="midnightblue" points="346.156,-63.1942 355.126,-57.5568 344.598,-56.3697 346.156,-63.1942"/>
</g>
<!-- Node19 -->
<g id="node19" class="node"><title>Node19</title>
<g id="a_node19"><a xlink:href="../../d8/dc5/struct_icon_frame_table.html#a731446052ef2802faf67a4a838626e8a" target="_top" xlink:title=" ">
<polygon fill="white" stroke="black" points="335.5,-0.5 335.5,-19.5 460.5,-19.5 460.5,-0.5 335.5,-0.5"/>
<text text-anchor="middle" x="398" y="-7.5" font-family="Helvetica,sans-Serif" font-size="10.00">IconFrameTable::GetIcon</text>
</a>
</g>
</g>
<!-- Node15&#45;&gt;Node19 -->
<g id="edge20" class="edge"><title>Node15&#45;&gt;Node19</title>
<path fill="none" stroke="midnightblue" d="M254.451,-70.9115C274.978,-58.4491 305.637,-40.9302 334,-29 339.397,-26.73 345.158,-24.6073 350.921,-22.6641"/>
<polygon fill="midnightblue" stroke="midnightblue" points="352.107,-25.9593 360.557,-19.5687 349.966,-19.2947 352.107,-25.9593"/>
</g>
</g>
</svg>
