<?xml version="1.0" encoding="UTF-8" standalone="no"?>
<!DOCTYPE svg PUBLIC "-//W3C//DTD SVG 1.1//EN"
 "http://www.w3.org/Graphics/SVG/1.1/DTD/svg11.dtd">
<!-- Generated by graphviz version 2.38.0 (20140413.2041)
 -->
<!-- Title: Player::GetEquippedItemEquipType Pages: 1 -->
<svg width="379pt" height="66pt"
 viewBox="0.00 0.00 379.00 66.00" xmlns="http://www.w3.org/2000/svg" xmlns:xlink="http://www.w3.org/1999/xlink">
<g id="graph0" class="graph" transform="scale(1 1) rotate(0) translate(4 62)">
<title>Player::GetEquippedItemEquipType</title>
<polygon fill="white" stroke="none" points="-4,4 -4,-62 375,-62 375,4 -4,4"/>
<!-- Node1 -->
<g id="node1" class="node"><title>Node1</title>
<g id="a_node1"><a xlink:title=" ">
<polygon fill="#bfbfbf" stroke="black" points="0,-19.5 0,-38.5 171,-38.5 171,-19.5 0,-19.5"/>
<text text-anchor="middle" x="85.5" y="-26.5" font-family="Helvetica,sans-Serif" font-size="10.00">Player::GetEquippedItemEquipType</text>
</a>
</g>
</g>
<!-- Node2 -->
<g id="node2" class="node"><title>Node2</title>
<g id="a_node2"><a xlink:href="../../d7/d9c/struct_item_gen.html#a1aff2db2385ebf047a37787234f745a8" target="_top" xlink:title=" ">
<polygon fill="white" stroke="black" points="219,-38.5 219,-57.5 359,-57.5 359,-38.5 219,-38.5"/>
<text text-anchor="middle" x="289" y="-45.5" font-family="Helvetica,sans-Serif" font-size="10.00">ItemGen::GetItemEquipType</text>
</a>
</g>
</g>
<!-- Node1&#45;&gt;Node2 -->
<g id="edge1" class="edge"><title>Node1&#45;&gt;Node2</title>
<path fill="none" stroke="midnightblue" d="M171.078,-36.9751C183.531,-38.1493 196.322,-39.3555 208.664,-40.5192"/>
<polygon fill="midnightblue" stroke="midnightblue" points="208.624,-44.0309 218.908,-41.4852 209.281,-37.0618 208.624,-44.0309"/>
</g>
<!-- Node3 -->
<g id="node3" class="node"><title>Node3</title>
<g id="a_node3"><a xlink:href="../../d3/db1/struct_player.html#a6809c4b1b0d9d0f1de56f97c7dd2fc68" target="_top" xlink:title=" ">
<polygon fill="white" stroke="black" points="207,-0.5 207,-19.5 371,-19.5 371,-0.5 207,-0.5"/>
<text text-anchor="middle" x="289" y="-7.5" font-family="Helvetica,sans-Serif" font-size="10.00">Player::GetNthEquippedIndexItem</text>
</a>
</g>
</g>
<!-- Node1&#45;&gt;Node3 -->
<g id="edge2" class="edge"><title>Node1&#45;&gt;Node3</title>
<path fill="none" stroke="midnightblue" d="M171.078,-21.0249C179.593,-20.222 188.267,-19.4041 196.846,-18.5951"/>
<polygon fill="midnightblue" stroke="midnightblue" points="197.233,-22.0743 206.86,-17.6509 196.576,-15.1052 197.233,-22.0743"/>
</g>
</g>
</svg>
