<?xml version="1.0" encoding="UTF-8" standalone="no"?>
<!DOCTYPE svg PUBLIC "-//W3C//DTD SVG 1.1//EN"
 "http://www.w3.org/Graphics/SVG/1.1/DTD/svg11.dtd">
<!-- Generated by graphviz version 2.38.0 (20140413.2041)
 -->
<!-- Title: Player::GetSpecialItemBonus Pages: 1 -->
<svg width="2059pt" height="546pt"
 viewBox="0.00 0.00 2059.00 546.00" xmlns="http://www.w3.org/2000/svg" xmlns:xlink="http://www.w3.org/1999/xlink">
<g id="graph0" class="graph" transform="scale(1 1) rotate(0) translate(4 542)">
<title>Player::GetSpecialItemBonus</title>
<polygon fill="white" stroke="none" points="-4,4 -4,-542 2055,-542 2055,4 -4,4"/>
<!-- Node1 -->
<g id="node1" class="node"><title>Node1</title>
<g id="a_node1"><a xlink:title=" ">
<polygon fill="#bfbfbf" stroke="black" points="1906,-216.5 1906,-235.5 2051,-235.5 2051,-216.5 1906,-216.5"/>
<text text-anchor="middle" x="1978.5" y="-223.5" font-family="Helvetica,sans-Serif" font-size="10.00">Player::GetSpecialItemBonus</text>
</a>
</g>
</g>
<!-- Node2 -->
<g id="node2" class="node"><title>Node2</title>
<g id="a_node2"><a xlink:href="../../da/d35/struct_actor.html#a28c39c9980f6f643fa3e2d03d68ce4e4" target="_top" xlink:title=" ">
<polygon fill="white" stroke="black" points="1730,-233 1730,-263 1870,-263 1870,-233 1730,-233"/>
<text text-anchor="start" x="1738" y="-251" font-family="Helvetica,sans-Serif" font-size="10.00">Actor::DamageMonsterFrom</text>
<text text-anchor="middle" x="1800" y="-240" font-family="Helvetica,sans-Serif" font-size="10.00">Party</text>
</a>
</g>
</g>
<!-- Node1&#45;&gt;Node2 -->
<g id="edge1" class="edge"><title>Node1&#45;&gt;Node2</title>
<path fill="none" stroke="midnightblue" d="M1895.89,-236.173C1887.25,-237.249 1878.53,-238.336 1870.06,-239.392"/>
<polygon fill="midnightblue" stroke="midnightblue" points="1896.47,-239.627 1905.97,-234.917 1895.61,-232.68 1896.47,-239.627"/>
</g>
<!-- Node35 -->
<g id="node35" class="node"><title>Node35</title>
<g id="a_node35"><a xlink:href="../../d3/db1/struct_player.html#afbe54d04ab3e51dfa85ea61dd084d723" target="_top" xlink:title=" ">
<polygon fill="white" stroke="black" points="1757.5,-194.5 1757.5,-213.5 1842.5,-213.5 1842.5,-194.5 1757.5,-194.5"/>
<text text-anchor="middle" x="1800" y="-201.5" font-family="Helvetica,sans-Serif" font-size="10.00">Player::Recover</text>
</a>
</g>
</g>
<!-- Node1&#45;&gt;Node35 -->
<g id="edge50" class="edge"><title>Node1&#45;&gt;Node35</title>
<path fill="none" stroke="midnightblue" d="M1895.81,-215.817C1877.41,-213.525 1858.64,-211.184 1842.7,-209.198"/>
<polygon fill="midnightblue" stroke="midnightblue" points="1895.61,-219.32 1905.97,-217.083 1896.47,-212.373 1895.61,-219.32"/>
</g>
<!-- Node3 -->
<g id="node3" class="node"><title>Node3</title>
<g id="a_node3"><a xlink:href="../../d8/d06/namespace_cast_spell_info_helpers.html#a6fa3b22b4867c28cad6c215c646dc4aa" target="_top" xlink:title=" ">
<polygon fill="white" stroke="black" points="1379.5,-173 1379.5,-203 1489.5,-203 1489.5,-173 1379.5,-173"/>
<text text-anchor="start" x="1387.5" y="-191" font-family="Helvetica,sans-Serif" font-size="10.00">CastSpellInfoHelpers</text>
<text text-anchor="middle" x="1434.5" y="-180" font-family="Helvetica,sans-Serif" font-size="10.00">::_427E01_cast_spell</text>
</a>
</g>
</g>
<!-- Node2&#45;&gt;Node3 -->
<g id="edge2" class="edge"><title>Node2&#45;&gt;Node3</title>
<path fill="none" stroke="midnightblue" d="M1719.72,-234.914C1650.06,-223.416 1550.58,-206.996 1489.67,-196.941"/>
<polygon fill="midnightblue" stroke="midnightblue" points="1719.34,-238.398 1729.77,-236.573 1720.48,-231.491 1719.34,-238.398"/>
</g>
<!-- Node8 -->
<g id="node8" class="node"><title>Node8</title>
<g id="a_node8"><a xlink:href="../../d3/db1/struct_player.html#adcd0e965260bb120a6e90b515cc748ac" target="_top" xlink:title=" ">
<polygon fill="white" stroke="black" points="1536,-147 1536,-177 1694,-177 1694,-147 1536,-147"/>
<text text-anchor="start" x="1544" y="-165" font-family="Helvetica,sans-Serif" font-size="10.00">Player::_42ECB5_PlayerAttacks</text>
<text text-anchor="middle" x="1615" y="-154" font-family="Helvetica,sans-Serif" font-size="10.00">Actor</text>
</a>
</g>
</g>
<!-- Node2&#45;&gt;Node8 -->
<g id="edge7" class="edge"><title>Node2&#45;&gt;Node8</title>
<path fill="none" stroke="midnightblue" d="M1742.13,-229.041C1737.96,-227.152 1733.87,-225.136 1730,-223 1712.25,-213.205 1711.48,-205.258 1694,-195 1682.46,-188.228 1669.27,-182.101 1657.06,-177.016"/>
<polygon fill="midnightblue" stroke="midnightblue" points="1740.79,-232.274 1751.36,-232.972 1743.54,-225.834 1740.79,-232.274"/>
</g>
<!-- Node9 -->
<g id="node9" class="node"><title>Node9</title>
<g id="a_node9"><a xlink:href="../../de/dcf/_engine_8h.html#ab2d2969c88180c354c33faf51cf43977" target="_top" xlink:title=" ">
<polygon fill="white" stroke="black" points="1382.5,-238.5 1382.5,-257.5 1486.5,-257.5 1486.5,-238.5 1382.5,-238.5"/>
<text text-anchor="middle" x="1434.5" y="-245.5" font-family="Helvetica,sans-Serif" font-size="10.00">_493938_regenerate</text>
</a>
</g>
</g>
<!-- Node2&#45;&gt;Node9 -->
<g id="edge9" class="edge"><title>Node2&#45;&gt;Node9</title>
<path fill="none" stroke="midnightblue" d="M1719.55,-248C1648.72,-248 1547.14,-248 1486.59,-248"/>
<polygon fill="midnightblue" stroke="midnightblue" points="1719.77,-251.5 1729.77,-248 1719.77,-244.5 1719.77,-251.5"/>
</g>
<!-- Node21 -->
<g id="node21" class="node"><title>Node21</title>
<g id="a_node21"><a xlink:href="../../de/deb/_actor_8h.html#aa9d9c1bc5e3c38f0827c69299622b850" target="_top" xlink:title=" ">
<polygon fill="white" stroke="black" points="1554,-288 1554,-318 1676,-318 1676,-288 1554,-288"/>
<text text-anchor="start" x="1562" y="-306" font-family="Helvetica,sans-Serif" font-size="10.00">area_of_effect__damage</text>
<text text-anchor="middle" x="1615" y="-295" font-family="Helvetica,sans-Serif" font-size="10.00">_evaluate</text>
</a>
</g>
</g>
<!-- Node2&#45;&gt;Node21 -->
<g id="edge28" class="edge"><title>Node2&#45;&gt;Node21</title>
<path fill="none" stroke="midnightblue" d="M1739.39,-265.916C1715.65,-273.052 1688.63,-281.171 1665.95,-287.989"/>
<polygon fill="midnightblue" stroke="midnightblue" points="1740.43,-269.259 1748.99,-263.029 1738.41,-262.555 1740.43,-269.259"/>
</g>
<!-- Node23 -->
<g id="node23" class="node"><title>Node23</title>
<g id="a_node23"><a xlink:href="../../d9/ded/_sprite_object_8cpp.html#acf99fe98d2a583eb9438b8e21bf7ee07" target="_top" xlink:title=" ">
<polygon fill="white" stroke="black" points="1579,-379.5 1579,-398.5 1651,-398.5 1651,-379.5 1579,-379.5"/>
<text text-anchor="middle" x="1615" y="-386.5" font-family="Helvetica,sans-Serif" font-size="10.00">sub_43A97E</text>
</a>
</g>
</g>
<!-- Node2&#45;&gt;Node23 -->
<g id="edge31" class="edge"><title>Node2&#45;&gt;Node23</title>
<path fill="none" stroke="midnightblue" d="M1771.33,-269.322C1730.94,-300.441 1657.49,-357.031 1628.37,-379.468"/>
<polygon fill="midnightblue" stroke="midnightblue" points="1773.63,-271.965 1779.42,-263.089 1769.36,-266.42 1773.63,-271.965"/>
</g>
<!-- Node4 -->
<g id="node4" class="node"><title>Node4</title>
<g id="a_node4"><a xlink:href="../../d4/d06/class_application_1_1_game.html#a3f65e3f0ef1a9114fb3dea275e52442e" target="_top" xlink:title=" ">
<polygon fill="white" stroke="black" points="669.5,-153 669.5,-183 772.5,-183 772.5,-153 669.5,-153"/>
<text text-anchor="start" x="677.5" y="-171" font-family="Helvetica,sans-Serif" font-size="10.00">Application::Game::</text>
<text text-anchor="middle" x="721" y="-160" font-family="Helvetica,sans-Serif" font-size="10.00">EventLoop</text>
</a>
</g>
</g>
<!-- Node3&#45;&gt;Node4 -->
<g id="edge3" class="edge"><title>Node3&#45;&gt;Node4</title>
<path fill="none" stroke="midnightblue" d="M1369.29,-186.195C1229.34,-182.261 899.209,-172.981 772.623,-169.423"/>
<polygon fill="midnightblue" stroke="midnightblue" points="1369.34,-189.698 1379.44,-186.48 1369.54,-182.701 1369.34,-189.698"/>
</g>
<!-- Node5 -->
<g id="node5" class="node"><title>Node5</title>
<g id="a_node5"><a xlink:href="../../d4/d06/class_application_1_1_game.html#aaa0ff18388b32b4e6198835a35e000d3" target="_top" xlink:title=" ">
<polygon fill="white" stroke="black" points="320,-198 320,-228 423,-228 423,-198 320,-198"/>
<text text-anchor="start" x="328" y="-216" font-family="Helvetica,sans-Serif" font-size="10.00">Application::Game::</text>
<text text-anchor="middle" x="371.5" y="-205" font-family="Helvetica,sans-Serif" font-size="10.00">GameLoop</text>
</a>
</g>
</g>
<!-- Node4&#45;&gt;Node5 -->
<g id="edge4" class="edge"><title>Node4&#45;&gt;Node5</title>
<path fill="none" stroke="midnightblue" d="M658.951,-171.858C606.713,-175.655 529.621,-182.438 463,-193 449.968,-195.066 436,-197.861 423.031,-200.705"/>
<polygon fill="midnightblue" stroke="midnightblue" points="659.331,-175.34 669.057,-171.138 658.833,-168.357 659.331,-175.34"/>
</g>
<!-- Node6 -->
<g id="node6" class="node"><title>Node6</title>
<g id="a_node6"><a xlink:href="../../d4/d06/class_application_1_1_game.html#a013ffd59e8fdf1c0a396da1dbe1681ca" target="_top" xlink:title=" ">
<polygon fill="white" stroke="black" points="156,-76.5 156,-95.5 280,-95.5 280,-76.5 156,-76.5"/>
<text text-anchor="middle" x="218" y="-83.5" font-family="Helvetica,sans-Serif" font-size="10.00">Application::Game::Loop</text>
</a>
</g>
</g>
<!-- Node5&#45;&gt;Node6 -->
<g id="edge5" class="edge"><title>Node5&#45;&gt;Node6</title>
<path fill="none" stroke="midnightblue" d="M344.574,-191.266C311.196,-163.286 254.626,-115.865 230.478,-95.6221"/>
<polygon fill="midnightblue" stroke="midnightblue" points="342.614,-194.191 352.526,-197.933 347.111,-188.826 342.614,-194.191"/>
</g>
<!-- Node7 -->
<g id="node7" class="node"><title>Node7</title>
<g id="a_node7"><a xlink:href="../../d4/d06/class_application_1_1_game.html#a96341ca5b54d90adc3ecb3bf0bcd2312" target="_top" xlink:title=" ">
<polygon fill="white" stroke="black" points="0,-76.5 0,-95.5 120,-95.5 120,-76.5 0,-76.5"/>
<text text-anchor="middle" x="60" y="-83.5" font-family="Helvetica,sans-Serif" font-size="10.00">Application::Game::Run</text>
</a>
</g>
</g>
<!-- Node6&#45;&gt;Node7 -->
<g id="edge6" class="edge"><title>Node6&#45;&gt;Node7</title>
<path fill="none" stroke="midnightblue" d="M145.546,-86C137.081,-86 128.513,-86 120.244,-86"/>
<polygon fill="midnightblue" stroke="midnightblue" points="145.792,-89.5001 155.792,-86 145.792,-82.5001 145.792,-89.5001"/>
</g>
<!-- Node8&#45;&gt;Node4 -->
<g id="edge8" class="edge"><title>Node8&#45;&gt;Node4</title>
<path fill="none" stroke="midnightblue" d="M1525.55,-151.734C1455.3,-144.464 1354.49,-136 1266,-136 1266,-136 1266,-136 1084,-136 972.484,-136 842.393,-151.254 772.535,-160.699"/>
<polygon fill="midnightblue" stroke="midnightblue" points="1525.38,-155.235 1535.69,-152.797 1526.11,-148.273 1525.38,-155.235"/>
</g>
<!-- Node10 -->
<g id="node10" class="node"><title>Node10</title>
<g id="a_node10"><a xlink:href="../../de/dcf/_engine_8h.html#a79dc644d7866ee9c87c3774a8fab9af6" target="_top" xlink:title=" ">
<polygon fill="white" stroke="black" points="1009,-233 1009,-263 1161,-263 1161,-233 1009,-233"/>
<text text-anchor="start" x="1017" y="-251" font-family="Helvetica,sans-Serif" font-size="10.00">_494035_timed_effects</text>
<text text-anchor="middle" x="1085" y="-240" font-family="Helvetica,sans-Serif" font-size="10.00">__water_walking_damage__etc</text>
</a>
</g>
</g>
<!-- Node9&#45;&gt;Node10 -->
<g id="edge10" class="edge"><title>Node9&#45;&gt;Node10</title>
<path fill="none" stroke="midnightblue" d="M1371.96,-248C1313.13,-248 1224.29,-248 1161.26,-248"/>
<polygon fill="midnightblue" stroke="midnightblue" points="1372.23,-251.5 1382.23,-248 1372.23,-244.5 1372.23,-251.5"/>
</g>
<!-- Node10&#45;&gt;Node5 -->
<g id="edge11" class="edge"><title>Node10&#45;&gt;Node5</title>
<path fill="none" stroke="midnightblue" d="M1032.48,-266.109C1013.97,-271.742 992.779,-277.206 973,-280 748.534,-311.71 678.806,-341.414 463,-272 434.611,-262.869 406.575,-242.32 389.405,-228.06"/>
<polygon fill="midnightblue" stroke="midnightblue" points="1033.68,-269.401 1042.18,-263.07 1031.59,-262.721 1033.68,-269.401"/>
</g>
<!-- Node11 -->
<g id="node11" class="node"><title>Node11</title>
<g id="a_node11"><a xlink:href="../../d1/d28/structstru262___turn_based.html#a3d510c1516767374020392bb323a3c06" target="_top" xlink:title=" ">
<polygon fill="white" stroke="black" points="851,-241 851,-271 958,-271 958,-241 851,-241"/>
<text text-anchor="start" x="859" y="-259" font-family="Helvetica,sans-Serif" font-size="10.00">stru262_TurnBased::</text>
<text text-anchor="middle" x="904.5" y="-248" font-family="Helvetica,sans-Serif" font-size="10.00">NextTurn</text>
</a>
</g>
</g>
<!-- Node10&#45;&gt;Node11 -->
<g id="edge12" class="edge"><title>Node10&#45;&gt;Node11</title>
<path fill="none" stroke="midnightblue" d="M998.763,-251.82C984.897,-252.442 970.902,-253.069 958.12,-253.642"/>
<polygon fill="midnightblue" stroke="midnightblue" points="998.984,-255.314 1008.82,-251.37 998.671,-248.321 998.984,-255.314"/>
</g>
<!-- Node14 -->
<g id="node14" class="node"><title>Node14</title>
<g id="a_node14"><a xlink:href="../../d0/d14/struct_party.html#aaa6686874ea698d79177b7ba5d67d8bd" target="_top" xlink:title=" ">
<polygon fill="white" stroke="black" points="869,-76.5 869,-95.5 940,-95.5 940,-76.5 869,-76.5"/>
<text text-anchor="middle" x="904.5" y="-83.5" font-family="Helvetica,sans-Serif" font-size="10.00">Party::Reset</text>
</a>
</g>
</g>
<!-- Node10&#45;&gt;Node14 -->
<g id="edge16" class="edge"><title>Node10&#45;&gt;Node14</title>
<path fill="none" stroke="midnightblue" d="M1059.37,-225.645C1019.91,-189.831 944.119,-121.049 916.182,-95.6947"/>
<polygon fill="midnightblue" stroke="midnightblue" points="1057.45,-228.631 1067.21,-232.759 1062.15,-223.447 1057.45,-228.631"/>
</g>
<!-- Node18 -->
<g id="node18" class="node"><title>Node18</title>
<g id="a_node18"><a xlink:href="../../db/d38/_party_8h.html#a6327fa16a015add5509d93cc738c035b" target="_top" xlink:title=" ">
<polygon fill="white" stroke="black" points="886,-202.5 886,-221.5 923,-221.5 923,-202.5 886,-202.5"/>
<text text-anchor="middle" x="904.5" y="-209.5" font-family="Helvetica,sans-Serif" font-size="10.00">Rest</text>
</a>
</g>
</g>
<!-- Node10&#45;&gt;Node18 -->
<g id="edge24" class="edge"><title>Node10&#45;&gt;Node18</title>
<path fill="none" stroke="midnightblue" d="M999.477,-230.953C970.747,-225.159 941.361,-219.233 923.274,-215.585"/>
<polygon fill="midnightblue" stroke="midnightblue" points="999.098,-234.447 1009.59,-232.993 1000.48,-227.585 999.098,-234.447"/>
</g>
<!-- Node12 -->
<g id="node12" class="node"><title>Node12</title>
<g id="a_node12"><a xlink:href="../../d1/d28/structstru262___turn_based.html#a594cf1020b0200b78abf16be8f3ab722" target="_top" xlink:title=" ">
<polygon fill="white" stroke="black" points="667.5,-241 667.5,-271 774.5,-271 774.5,-241 667.5,-241"/>
<text text-anchor="start" x="675.5" y="-259" font-family="Helvetica,sans-Serif" font-size="10.00">stru262_TurnBased::</text>
<text text-anchor="middle" x="721" y="-248" font-family="Helvetica,sans-Serif" font-size="10.00">AITurnBasedAction</text>
</a>
</g>
</g>
<!-- Node11&#45;&gt;Node12 -->
<g id="edge13" class="edge"><title>Node11&#45;&gt;Node12</title>
<path fill="none" stroke="midnightblue" d="M840.514,-256C819.056,-256 795.307,-256 774.737,-256"/>
<polygon fill="midnightblue" stroke="midnightblue" points="840.515,-259.5 850.515,-256 840.515,-252.5 840.515,-259.5"/>
</g>
<!-- Node13 -->
<g id="node13" class="node"><title>Node13</title>
<g id="a_node13"><a xlink:href="../../da/d35/struct_actor.html#a8ad58b6020b186e538e3e033f81c073a" target="_top" xlink:title=" ">
<polygon fill="white" stroke="black" points="480,-243.5 480,-262.5 589,-262.5 589,-243.5 480,-243.5"/>
<text text-anchor="middle" x="534.5" y="-250.5" font-family="Helvetica,sans-Serif" font-size="10.00">Actor::UpdateActorAI</text>
</a>
</g>
</g>
<!-- Node12&#45;&gt;Node13 -->
<g id="edge14" class="edge"><title>Node12&#45;&gt;Node13</title>
<path fill="none" stroke="midnightblue" d="M656.852,-254.973C634.779,-254.614 610.229,-254.215 589.018,-253.87"/>
<polygon fill="midnightblue" stroke="midnightblue" points="657.074,-258.477 667.13,-255.14 657.188,-251.478 657.074,-258.477"/>
</g>
<!-- Node13&#45;&gt;Node5 -->
<g id="edge15" class="edge"><title>Node13&#45;&gt;Node5</title>
<path fill="none" stroke="midnightblue" d="M485.032,-240.958C465.51,-236.108 442.984,-230.512 423.239,-225.606"/>
<polygon fill="midnightblue" stroke="midnightblue" points="484.388,-244.404 494.936,-243.419 486.075,-237.611 484.388,-244.404"/>
</g>
<!-- Node14&#45;&gt;Node5 -->
<g id="edge21" class="edge"><title>Node14&#45;&gt;Node5</title>
<path fill="none" stroke="midnightblue" d="M858.71,-93.5483C762.115,-110.038 536.969,-149.665 463,-173 442.031,-179.615 419.406,-189.615 402.023,-197.961"/>
<polygon fill="midnightblue" stroke="midnightblue" points="859.473,-96.9689 868.744,-91.8399 858.298,-90.0682 859.473,-96.9689"/>
</g>
<!-- Node14&#45;&gt;Node6 -->
<g id="edge22" class="edge"><title>Node14&#45;&gt;Node6</title>
<path fill="none" stroke="midnightblue" d="M858.391,-86C739.194,-86 415.732,-86 280.122,-86"/>
<polygon fill="midnightblue" stroke="midnightblue" points="858.615,-89.5001 868.614,-86 858.614,-82.5001 858.615,-89.5001"/>
</g>
<!-- Node15 -->
<g id="node15" class="node"><title>Node15</title>
<g id="a_node15"><a xlink:href="../../de/da8/_u_i_party_creation_8cpp.html#ab3e0a011d0b8257f92e7b2255996f08d" target="_top" xlink:title=" ">
<polygon fill="white" stroke="black" points="661.5,-0.5 661.5,-19.5 780.5,-19.5 780.5,-0.5 661.5,-0.5"/>
<text text-anchor="middle" x="721" y="-7.5" font-family="Helvetica,sans-Serif" font-size="10.00">CreateParty_EventLoop</text>
</a>
</g>
</g>
<!-- Node14&#45;&gt;Node15 -->
<g id="edge17" class="edge"><title>Node14&#45;&gt;Node15</title>
<path fill="none" stroke="midnightblue" d="M877.918,-71.6383C857.302,-60.4365 827.346,-44.9871 800,-34 786.327,-28.5066 770.891,-23.5157 757.38,-19.5256"/>
<polygon fill="midnightblue" stroke="midnightblue" points="876.24,-74.7096 886.69,-76.4548 879.609,-68.5738 876.24,-74.7096"/>
</g>
<!-- Node17 -->
<g id="node17" class="node"><title>Node17</title>
<g id="a_node17"><a xlink:href="../../d6/d6a/_u_i_party_creation_8h.html#ae6fe5aec2826f251f3950e95fd588d79" target="_top" xlink:title=" ">
<polygon fill="white" stroke="black" points="316,-38.5 316,-57.5 427,-57.5 427,-38.5 316,-38.5"/>
<text text-anchor="middle" x="371.5" y="-45.5" font-family="Helvetica,sans-Serif" font-size="10.00">PartyCreationUI_Loop</text>
</a>
</g>
</g>
<!-- Node14&#45;&gt;Node17 -->
<g id="edge23" class="edge"><title>Node14&#45;&gt;Node17</title>
<path fill="none" stroke="midnightblue" d="M858.584,-79.1438C840.429,-76.5766 819.252,-73.8397 800,-72 666.433,-59.237 508.691,-52.5406 427.265,-49.7008"/>
<polygon fill="midnightblue" stroke="midnightblue" points="858.209,-82.626 868.606,-80.5866 859.207,-75.6974 858.209,-82.626"/>
</g>
<!-- Node16 -->
<g id="node16" class="node"><title>Node16</title>
<g id="a_node16"><a xlink:href="../../de/da8/_u_i_party_creation_8cpp.html#a3989bc11e4d285e802baa8b00e9663ad" target="_top" xlink:title=" ">
<polygon fill="white" stroke="black" points="463,-0.5 463,-19.5 606,-19.5 606,-0.5 463,-0.5"/>
<text text-anchor="middle" x="534.5" y="-7.5" font-family="Helvetica,sans-Serif" font-size="10.00">PartyCreationUI_LoopInternal</text>
</a>
</g>
</g>
<!-- Node15&#45;&gt;Node16 -->
<g id="edge18" class="edge"><title>Node15&#45;&gt;Node16</title>
<path fill="none" stroke="midnightblue" d="M651.34,-10C636.625,-10 621.051,-10 606.259,-10"/>
<polygon fill="midnightblue" stroke="midnightblue" points="651.37,-13.5001 661.37,-10 651.37,-6.5001 651.37,-13.5001"/>
</g>
<!-- Node16&#45;&gt;Node17 -->
<g id="edge19" class="edge"><title>Node16&#45;&gt;Node17</title>
<path fill="none" stroke="midnightblue" d="M483.098,-21.8961C460.468,-27.2374 434.13,-33.4537 412.835,-38.4799"/>
<polygon fill="midnightblue" stroke="midnightblue" points="483.944,-25.2926 492.873,-19.589 482.336,-18.4798 483.944,-25.2926"/>
</g>
<!-- Node17&#45;&gt;Node6 -->
<g id="edge20" class="edge"><title>Node17&#45;&gt;Node6</title>
<path fill="none" stroke="midnightblue" d="M322.498,-60.04C301.333,-65.3488 276.814,-71.4988 256.955,-76.4799"/>
<polygon fill="midnightblue" stroke="midnightblue" points="323.422,-63.4168 332.27,-57.589 321.719,-56.6271 323.422,-63.4168"/>
</g>
<!-- Node18&#45;&gt;Node4 -->
<g id="edge25" class="edge"><title>Node18&#45;&gt;Node4</title>
<path fill="none" stroke="midnightblue" d="M875.733,-205.269C848.401,-198.643 806.03,-188.371 772.687,-180.288"/>
<polygon fill="midnightblue" stroke="midnightblue" points="875.223,-208.746 885.767,-207.701 876.873,-201.943 875.223,-208.746"/>
</g>
<!-- Node19 -->
<g id="node19" class="node"><title>Node19</title>
<g id="a_node19"><a xlink:href="../../d0/d14/struct_party.html#a7e6c7262893463554672cab394812b00" target="_top" xlink:title=" ">
<polygon fill="white" stroke="black" points="670.5,-202.5 670.5,-221.5 771.5,-221.5 771.5,-202.5 670.5,-202.5"/>
<text text-anchor="middle" x="721" y="-209.5" font-family="Helvetica,sans-Serif" font-size="10.00">Party::Sleep8Hours</text>
</a>
</g>
</g>
<!-- Node18&#45;&gt;Node19 -->
<g id="edge26" class="edge"><title>Node18&#45;&gt;Node19</title>
<path fill="none" stroke="midnightblue" d="M875.621,-212C847.966,-212 804.993,-212 771.523,-212"/>
<polygon fill="midnightblue" stroke="midnightblue" points="875.767,-215.5 885.767,-212 875.767,-208.5 875.767,-215.5"/>
</g>
<!-- Node20 -->
<g id="node20" class="node"><title>Node20</title>
<g id="a_node20"><a xlink:href="../../d2/d13/class_g_u_i_window___rest.html#a2fb35507e96666175f07fb9c0ed4c036" target="_top" xlink:title=" ">
<polygon fill="white" stroke="black" points="469.5,-202.5 469.5,-221.5 599.5,-221.5 599.5,-202.5 469.5,-202.5"/>
<text text-anchor="middle" x="534.5" y="-209.5" font-family="Helvetica,sans-Serif" font-size="10.00">GUIWindow_Rest::Update</text>
</a>
</g>
</g>
<!-- Node19&#45;&gt;Node20 -->
<g id="edge27" class="edge"><title>Node19&#45;&gt;Node20</title>
<path fill="none" stroke="midnightblue" d="M659.917,-212C640.655,-212 619.255,-212 599.71,-212"/>
<polygon fill="midnightblue" stroke="midnightblue" points="660.072,-215.5 670.072,-212 660.072,-208.5 660.072,-215.5"/>
</g>
<!-- Node22 -->
<g id="node22" class="node"><title>Node22</title>
<g id="a_node22"><a xlink:href="../../de/dcf/_engine_8h.html#a73fe5e8d7dc6ec78e5cc180d1915341b" target="_top" xlink:title=" ">
<polygon fill="white" stroke="black" points="479.5,-345 479.5,-375 589.5,-375 589.5,-345 479.5,-345"/>
<text text-anchor="start" x="487.5" y="-363" font-family="Helvetica,sans-Serif" font-size="10.00">UpdateUserInput_and</text>
<text text-anchor="middle" x="534.5" y="-352" font-family="Helvetica,sans-Serif" font-size="10.00">_MapSpecificStuff</text>
</a>
</g>
</g>
<!-- Node21&#45;&gt;Node22 -->
<g id="edge29" class="edge"><title>Node21&#45;&gt;Node22</title>
<path fill="none" stroke="midnightblue" d="M1543.79,-314.234C1473.65,-324.469 1362.65,-338 1266,-338 1266,-338 1266,-338 903.5,-338 791.815,-338 661.403,-348.222 589.686,-354.73"/>
<polygon fill="midnightblue" stroke="midnightblue" points="1544.45,-317.674 1553.83,-312.749 1543.43,-310.749 1544.45,-317.674"/>
</g>
<!-- Node22&#45;&gt;Node5 -->
<g id="edge30" class="edge"><title>Node22&#45;&gt;Node5</title>
<path fill="none" stroke="midnightblue" d="M498.224,-339.541C486.543,-332.111 473.783,-323.252 463,-314 431.373,-286.863 400.218,-248.969 384,-228.166"/>
<polygon fill="midnightblue" stroke="midnightblue" points="496.554,-342.624 506.896,-344.927 500.248,-336.678 496.554,-342.624"/>
</g>
<!-- Node24 -->
<g id="node24" class="node"><title>Node24</title>
<g id="a_node24"><a xlink:href="../../d9/ded/_sprite_object_8cpp.html#a457801379764f6519b638ea5b505967e" target="_top" xlink:title=" ">
<polygon fill="white" stroke="black" points="1369,-421.5 1369,-440.5 1500,-440.5 1500,-421.5 1369,-421.5"/>
<text text-anchor="middle" x="1434.5" y="-428.5" font-family="Helvetica,sans-Serif" font-size="10.00">_46BFFA_update_spell_fx</text>
</a>
</g>
</g>
<!-- Node23&#45;&gt;Node24 -->
<g id="edge32" class="edge"><title>Node23&#45;&gt;Node24</title>
<path fill="none" stroke="midnightblue" d="M1568.98,-399.592C1540.39,-406.321 1503.68,-414.958 1476,-421.472"/>
<polygon fill="midnightblue" stroke="midnightblue" points="1569.8,-402.995 1578.73,-397.298 1568.2,-396.181 1569.8,-402.995"/>
</g>
<!-- Node25 -->
<g id="node25" class="node"><title>Node25</title>
<g id="a_node25"><a xlink:href="../../da/d20/_i_render_8h.html#a2827fe354fe45bc8a3b7bddc1f2236dc" target="_top" xlink:title=" ">
<polygon fill="white" stroke="black" points="1228.5,-503.5 1228.5,-522.5 1301.5,-522.5 1301.5,-503.5 1228.5,-503.5"/>
<text text-anchor="middle" x="1265" y="-510.5" font-family="Helvetica,sans-Serif" font-size="10.00">sub_46DEF2</text>
</a>
</g>
</g>
<!-- Node24&#45;&gt;Node25 -->
<g id="edge33" class="edge"><title>Node24&#45;&gt;Node25</title>
<path fill="none" stroke="midnightblue" d="M1410.26,-446.013C1390.29,-458.522 1360.46,-476.284 1333,-489 1321.23,-494.452 1307.84,-499.469 1296.14,-503.491"/>
<polygon fill="midnightblue" stroke="midnightblue" points="1412.39,-448.813 1418.96,-440.506 1408.64,-442.899 1412.39,-448.813"/>
</g>
<!-- Node32 -->
<g id="node32" class="node"><title>Node32</title>
<g id="a_node32"><a xlink:href="../../d0/d5a/struct_sprite_object.html#a9e0d2e0c49fb02c2bf900de59aecff85" target="_top" xlink:title=" ">
<polygon fill="white" stroke="black" points="1197,-367 1197,-397 1333,-397 1333,-367 1197,-367"/>
<text text-anchor="start" x="1205" y="-385" font-family="Helvetica,sans-Serif" font-size="10.00">SpriteObject::UpdateObject</text>
<text text-anchor="middle" x="1265" y="-374" font-family="Helvetica,sans-Serif" font-size="10.00">_fn0_BLV</text>
</a>
</g>
</g>
<!-- Node24&#45;&gt;Node32 -->
<g id="edge43" class="edge"><title>Node24&#45;&gt;Node32</title>
<path fill="none" stroke="midnightblue" d="M1390.93,-418.546C1368.55,-412.001 1340.96,-403.929 1317.4,-397.037"/>
<polygon fill="midnightblue" stroke="midnightblue" points="1390.23,-421.987 1400.81,-421.436 1392.19,-415.269 1390.23,-421.987"/>
</g>
<!-- Node33 -->
<g id="node33" class="node"><title>Node33</title>
<g id="a_node33"><a xlink:href="../../da/d20/_i_render_8h.html#a522912d67446895b0a03d01837b75a99" target="_top" xlink:title=" ">
<polygon fill="white" stroke="black" points="1044.5,-421.5 1044.5,-440.5 1125.5,-440.5 1125.5,-421.5 1044.5,-421.5"/>
<text text-anchor="middle" x="1085" y="-428.5" font-family="Helvetica,sans-Serif" font-size="10.00">UpdateObjects</text>
</a>
</g>
</g>
<!-- Node24&#45;&gt;Node33 -->
<g id="edge49" class="edge"><title>Node24&#45;&gt;Node33</title>
<path fill="none" stroke="midnightblue" d="M1391.85,-443.26C1373.92,-447.935 1352.6,-452.692 1333,-455 1272.97,-462.068 1257.1,-461.423 1197,-455 1171.32,-452.255 1142.85,-446.035 1121.18,-440.615"/>
<polygon fill="midnightblue" stroke="midnightblue" points="1392.96,-446.587 1401.71,-440.613 1391.14,-439.827 1392.96,-446.587"/>
</g>
<!-- Node34 -->
<g id="node34" class="node"><title>Node34</title>
<g id="a_node34"><a xlink:href="../../d0/d5a/struct_sprite_object.html#a950e5cedc1e8cfc98d77ba9b3f91071f" target="_top" xlink:title=" ">
<polygon fill="white" stroke="black" points="1197,-416 1197,-446 1333,-446 1333,-416 1197,-416"/>
<text text-anchor="start" x="1205" y="-434" font-family="Helvetica,sans-Serif" font-size="10.00">SpriteObject::UpdateObject</text>
<text text-anchor="middle" x="1265" y="-423" font-family="Helvetica,sans-Serif" font-size="10.00">_fn0_ODM</text>
</a>
</g>
</g>
<!-- Node24&#45;&gt;Node34 -->
<g id="edge47" class="edge"><title>Node24&#45;&gt;Node34</title>
<path fill="none" stroke="midnightblue" d="M1358.49,-431C1350.03,-431 1341.44,-431 1333.08,-431"/>
<polygon fill="midnightblue" stroke="midnightblue" points="1358.74,-434.5 1368.74,-431 1358.74,-427.5 1358.74,-434.5"/>
</g>
<!-- Node26 -->
<g id="node26" class="node"><title>Node26</title>
<g id="a_node26"><a xlink:href="../../da/d20/_i_render_8h.html#a0e63804ace29468efe95593015c3747c" target="_top" xlink:title=" ">
<polygon fill="white" stroke="black" points="1021,-486 1021,-516 1149,-516 1149,-486 1021,-486"/>
<text text-anchor="start" x="1029" y="-504" font-family="Helvetica,sans-Serif" font-size="10.00">_46ED8A_collide_against</text>
<text text-anchor="middle" x="1085" y="-493" font-family="Helvetica,sans-Serif" font-size="10.00">_sprite_objects</text>
</a>
</g>
</g>
<!-- Node25&#45;&gt;Node26 -->
<g id="edge34" class="edge"><title>Node25&#45;&gt;Node26</title>
<path fill="none" stroke="midnightblue" d="M1218.17,-509.91C1197.2,-508.497 1172.01,-506.798 1149.27,-505.265"/>
<polygon fill="midnightblue" stroke="midnightblue" points="1218.19,-513.42 1228.41,-510.6 1218.66,-506.436 1218.19,-513.42"/>
</g>
<!-- Node27 -->
<g id="node27" class="node"><title>Node27</title>
<g id="a_node27"><a xlink:href="../../dc/dfb/_outdoor_8h.html#a62e44d7fd493356cb340fe1dc8fe993b" target="_top" xlink:title=" ">
<polygon fill="white" stroke="black" points="836,-518.5 836,-537.5 973,-537.5 973,-518.5 836,-518.5"/>
<text text-anchor="middle" x="904.5" y="-525.5" font-family="Helvetica,sans-Serif" font-size="10.00">ODM_ProcessPartyActions</text>
</a>
</g>
</g>
<!-- Node26&#45;&gt;Node27 -->
<g id="edge35" class="edge"><title>Node26&#45;&gt;Node27</title>
<path fill="none" stroke="midnightblue" d="M1010.75,-512.08C996.762,-514.196 982.234,-516.393 968.599,-518.456"/>
<polygon fill="midnightblue" stroke="midnightblue" points="1011.45,-515.513 1020.82,-510.557 1010.41,-508.592 1011.45,-515.513"/>
</g>
<!-- Node29 -->
<g id="node29" class="node"><title>Node29</title>
<g id="a_node29"><a xlink:href="../../da/dc7/_indoor_8h.html#a91180cf18d91c79b7bc41c630c261cbd" target="_top" xlink:title=" ">
<polygon fill="white" stroke="black" points="854.5,-404.5 854.5,-423.5 954.5,-423.5 954.5,-404.5 854.5,-404.5"/>
<text text-anchor="middle" x="904.5" y="-411.5" font-family="Helvetica,sans-Serif" font-size="10.00">UpdateActors_BLV</text>
</a>
</g>
</g>
<!-- Node26&#45;&gt;Node29 -->
<g id="edge38" class="edge"><title>Node26&#45;&gt;Node29</title>
<path fill="none" stroke="midnightblue" d="M1043.89,-481.451C1006.94,-463.442 953.668,-437.477 925.199,-423.601"/>
<polygon fill="midnightblue" stroke="midnightblue" points="1042.39,-484.611 1052.91,-485.846 1045.45,-478.318 1042.39,-484.611"/>
</g>
<!-- Node31 -->
<g id="node31" class="node"><title>Node31</title>
<g id="a_node31"><a xlink:href="../../dc/dfb/_outdoor_8h.html#ab3cc30c01fb2e9afa8ec291e6043bf99" target="_top" xlink:title=" ">
<polygon fill="white" stroke="black" points="852.5,-480.5 852.5,-499.5 956.5,-499.5 956.5,-480.5 852.5,-480.5"/>
<text text-anchor="middle" x="904.5" y="-487.5" font-family="Helvetica,sans-Serif" font-size="10.00">UpdateActors_ODM</text>
</a>
</g>
</g>
<!-- Node26&#45;&gt;Node31 -->
<g id="edge41" class="edge"><title>Node26&#45;&gt;Node31</title>
<path fill="none" stroke="midnightblue" d="M1010.81,-496.49C992.588,-495.367 973.443,-494.187 956.549,-493.146"/>
<polygon fill="midnightblue" stroke="midnightblue" points="1010.62,-499.985 1020.82,-497.106 1011.05,-492.998 1010.62,-499.985"/>
</g>
<!-- Node28 -->
<g id="node28" class="node"><title>Node28</title>
<g id="a_node28"><a xlink:href="../../dc/dfb/_outdoor_8h.html#aeedbd3470634fbb22ebda28d2f8006e4" target="_top" xlink:title=" ">
<polygon fill="white" stroke="black" points="642,-461.5 642,-480.5 800,-480.5 800,-461.5 642,-461.5"/>
<text text-anchor="middle" x="721" y="-468.5" font-family="Helvetica,sans-Serif" font-size="10.00">ODM_UpdateUserInputAndOther</text>
</a>
</g>
</g>
<!-- Node27&#45;&gt;Node28 -->
<g id="edge36" class="edge"><title>Node27&#45;&gt;Node28</title>
<path fill="none" stroke="midnightblue" d="M858.6,-515.682C851.038,-513.516 843.282,-511.237 836,-509 806.286,-499.871 772.542,-488.496 749.526,-480.582"/>
<polygon fill="midnightblue" stroke="midnightblue" points="857.798,-519.093 868.374,-518.453 859.707,-512.358 857.798,-519.093"/>
</g>
<!-- Node28&#45;&gt;Node22 -->
<g id="edge37" class="edge"><title>Node28&#45;&gt;Node22</title>
<path fill="none" stroke="midnightblue" d="M695.257,-456.114C660.093,-434.958 596.015,-396.407 560.637,-375.123"/>
<polygon fill="midnightblue" stroke="midnightblue" points="693.576,-459.187 703.95,-461.344 697.185,-453.189 693.576,-459.187"/>
</g>
<!-- Node30 -->
<g id="node30" class="node"><title>Node30</title>
<g id="a_node30"><a xlink:href="../../da/dc7/_indoor_8h.html#a7d511837933d59eeeccfc25275a366d8" target="_top" xlink:title=" ">
<polygon fill="white" stroke="black" points="644,-366.5 644,-385.5 798,-385.5 798,-366.5 644,-366.5"/>
<text text-anchor="middle" x="721" y="-373.5" font-family="Helvetica,sans-Serif" font-size="10.00">BLV_UpdateUserInputAndOther</text>
</a>
</g>
</g>
<!-- Node29&#45;&gt;Node30 -->
<g id="edge39" class="edge"><title>Node29&#45;&gt;Node30</title>
<path fill="none" stroke="midnightblue" d="M847.708,-402.319C821.969,-396.93 791.801,-390.614 767.471,-385.52"/>
<polygon fill="midnightblue" stroke="midnightblue" points="847.195,-405.787 857.7,-404.411 848.629,-398.936 847.195,-405.787"/>
</g>
<!-- Node30&#45;&gt;Node22 -->
<g id="edge40" class="edge"><title>Node30&#45;&gt;Node22</title>
<path fill="none" stroke="midnightblue" d="M633.602,-368.508C618.664,-367.212 603.521,-365.899 589.747,-364.704"/>
<polygon fill="midnightblue" stroke="midnightblue" points="633.627,-372.023 643.892,-369.4 634.231,-365.049 633.627,-372.023"/>
</g>
<!-- Node31&#45;&gt;Node28 -->
<g id="edge42" class="edge"><title>Node31&#45;&gt;Node28</title>
<path fill="none" stroke="midnightblue" d="M842.317,-483.595C828.772,-482.177 814.241,-480.656 800.126,-479.178"/>
<polygon fill="midnightblue" stroke="midnightblue" points="842.149,-487.097 852.459,-484.657 842.878,-480.135 842.149,-487.097"/>
</g>
<!-- Node32&#45;&gt;Node33 -->
<g id="edge44" class="edge"><title>Node32&#45;&gt;Node33</title>
<path fill="none" stroke="midnightblue" d="M1199.47,-399.763C1172.78,-407.11 1142.91,-415.334 1120.52,-421.498"/>
<polygon fill="midnightblue" stroke="midnightblue" points="1200.43,-403.13 1209.14,-397.101 1198.57,-396.381 1200.43,-403.13"/>
</g>
<!-- Node33&#45;&gt;Node28 -->
<g id="edge46" class="edge"><title>Node33&#45;&gt;Node28</title>
<path fill="none" stroke="midnightblue" d="M1034.18,-436.505C973.756,-443.182 871.209,-454.513 800.217,-462.357"/>
<polygon fill="midnightblue" stroke="midnightblue" points="1034.67,-439.972 1044.22,-435.395 1033.9,-433.015 1034.67,-439.972"/>
</g>
<!-- Node33&#45;&gt;Node30 -->
<g id="edge45" class="edge"><title>Node33&#45;&gt;Node30</title>
<path fill="none" stroke="midnightblue" d="M1050.75,-417.915C1028.98,-409.926 999.717,-400.265 973,-395 915.01,-383.571 848.235,-378.915 798.144,-377.066"/>
<polygon fill="midnightblue" stroke="midnightblue" points="1049.59,-421.22 1060.19,-421.446 1052.05,-414.664 1049.59,-421.22"/>
</g>
<!-- Node34&#45;&gt;Node33 -->
<g id="edge48" class="edge"><title>Node34&#45;&gt;Node33</title>
<path fill="none" stroke="midnightblue" d="M1186.7,-431C1165.61,-431 1143.64,-431 1125.61,-431"/>
<polygon fill="midnightblue" stroke="midnightblue" points="1186.96,-434.5 1196.96,-431 1186.96,-427.5 1186.96,-434.5"/>
</g>
</g>
</svg>
