<?xml version="1.0" encoding="UTF-8" standalone="no"?>
<!DOCTYPE svg PUBLIC "-//W3C//DTD SVG 1.1//EN"
 "http://www.w3.org/Graphics/SVG/1.1/DTD/svg11.dtd">
<!-- Generated by graphviz version 2.38.0 (20140413.2041)
 -->
<!-- Title: Player::GetEquippedItemSkillType Pages: 1 -->
<svg width="2622pt" height="600pt"
 viewBox="0.00 0.00 2622.00 600.00" xmlns="http://www.w3.org/2000/svg" xmlns:xlink="http://www.w3.org/1999/xlink">
<g id="graph0" class="graph" transform="scale(1 1) rotate(0) translate(4 596)">
<title>Player::GetEquippedItemSkillType</title>
<polygon fill="white" stroke="none" points="-4,4 -4,-596 2618,-596 2618,4 -4,4"/>
<!-- Node1 -->
<g id="node1" class="node"><title>Node1</title>
<g id="a_node1"><a xlink:title=" ">
<polygon fill="#bfbfbf" stroke="black" points="2449,-426.5 2449,-445.5 2614,-445.5 2614,-426.5 2449,-426.5"/>
<text text-anchor="middle" x="2531.5" y="-433.5" font-family="Helvetica,sans-Serif" font-size="10.00">Player::GetEquippedItemSkillType</text>
</a>
</g>
</g>
<!-- Node2 -->
<g id="node2" class="node"><title>Node2</title>
<g id="a_node2"><a xlink:href="../../d3/db1/struct_player.html#a761bb34eaf4b27e7c9d201133d3fa5b4" target="_top" xlink:title=" ">
<polygon fill="white" stroke="black" points="2270,-426.5 2270,-445.5 2413,-445.5 2413,-426.5 2270,-426.5"/>
<text text-anchor="middle" x="2341.5" y="-433.5" font-family="Helvetica,sans-Serif" font-size="10.00">Player::GetActualResistance</text>
</a>
</g>
</g>
<!-- Node1&#45;&gt;Node2 -->
<g id="edge1" class="edge"><title>Node1&#45;&gt;Node2</title>
<path fill="none" stroke="midnightblue" d="M2438.78,-436C2430.17,-436 2421.53,-436 2413.16,-436"/>
<polygon fill="midnightblue" stroke="midnightblue" points="2438.86,-439.5 2448.86,-436 2438.86,-432.5 2438.86,-439.5"/>
</g>
<!-- Node3 -->
<g id="node3" class="node"><title>Node3</title>
<g id="a_node3"><a xlink:href="../../d3/db1/struct_player.html#a9a0c8a66ab12a8c5f21f2eea6a49b212" target="_top" xlink:title=" ">
<polygon fill="white" stroke="black" points="2092,-470 2092,-500 2230,-500 2230,-470 2092,-470"/>
<text text-anchor="start" x="2100" y="-488" font-family="Helvetica,sans-Serif" font-size="10.00">Player::CalculateIncomming</text>
<text text-anchor="middle" x="2161" y="-477" font-family="Helvetica,sans-Serif" font-size="10.00">Damage</text>
</a>
</g>
</g>
<!-- Node2&#45;&gt;Node3 -->
<g id="edge2" class="edge"><title>Node2&#45;&gt;Node3</title>
<path fill="none" stroke="midnightblue" d="M2295.77,-448.278C2271.82,-454.854 2242.11,-463.009 2216.78,-469.963"/>
<polygon fill="midnightblue" stroke="midnightblue" points="2296.94,-451.586 2305.66,-445.564 2295.09,-444.836 2296.94,-451.586"/>
</g>
<!-- Node40 -->
<g id="node40" class="node"><title>Node40</title>
<g id="a_node40"><a xlink:href="../../de/d17/class_g_u_i_window___character_record.html#addd6261010ad7fd72af9bb1baaeeadff" target="_top" xlink:title=" ">
<polygon fill="white" stroke="black" points="2088,-421 2088,-451 2234,-451 2234,-421 2088,-421"/>
<text text-anchor="start" x="2096" y="-439" font-family="Helvetica,sans-Serif" font-size="10.00">GUIWindow_CharacterRecord</text>
<text text-anchor="middle" x="2161" y="-428" font-family="Helvetica,sans-Serif" font-size="10.00">::CharacterUI_StatsTab_Draw</text>
</a>
</g>
</g>
<!-- Node2&#45;&gt;Node40 -->
<g id="edge58" class="edge"><title>Node2&#45;&gt;Node40</title>
<path fill="none" stroke="midnightblue" d="M2259.91,-436C2251.3,-436 2242.59,-436 2234.08,-436"/>
<polygon fill="midnightblue" stroke="midnightblue" points="2259.95,-439.5 2269.95,-436 2259.95,-432.5 2259.95,-439.5"/>
</g>
<!-- Node42 -->
<g id="node42" class="node"><title>Node42</title>
<g id="a_node42"><a xlink:href="../../d3/db1/struct_player.html#a3e81e8959144cd79df4ccd37dcd19243" target="_top" xlink:title=" ">
<polygon fill="white" stroke="black" points="1906.5,-377 1906.5,-407 2051.5,-407 2051.5,-377 1906.5,-377"/>
<text text-anchor="start" x="1914.5" y="-395" font-family="Helvetica,sans-Serif" font-size="10.00">Player::ReceiveSpecialAttack</text>
<text text-anchor="middle" x="1979" y="-384" font-family="Helvetica,sans-Serif" font-size="10.00">Effect</text>
</a>
</g>
</g>
<!-- Node2&#45;&gt;Node42 -->
<g id="edge60" class="edge"><title>Node2&#45;&gt;Node42</title>
<path fill="none" stroke="midnightblue" d="M2295.9,-423.895C2276.95,-419.178 2254.53,-414.157 2234,-411 2172.81,-401.588 2102.58,-396.788 2051.5,-394.371"/>
<polygon fill="midnightblue" stroke="midnightblue" points="2295.2,-427.328 2305.75,-426.396 2296.92,-420.543 2295.2,-427.328"/>
</g>
<!-- Node4 -->
<g id="node4" class="node"><title>Node4</title>
<g id="a_node4"><a xlink:href="../../d3/db1/struct_player.html#aaf3c460e74d64a9fe3e48155faa0b736" target="_top" xlink:title=" ">
<polygon fill="white" stroke="black" points="1919,-475.5 1919,-494.5 2039,-494.5 2039,-475.5 1919,-475.5"/>
<text text-anchor="middle" x="1979" y="-482.5" font-family="Helvetica,sans-Serif" font-size="10.00">Player::ReceiveDamage</text>
</a>
</g>
</g>
<!-- Node3&#45;&gt;Node4 -->
<g id="edge3" class="edge"><title>Node3&#45;&gt;Node4</title>
<path fill="none" stroke="midnightblue" d="M2081.63,-485C2067.33,-485 2052.63,-485 2039.01,-485"/>
<polygon fill="midnightblue" stroke="midnightblue" points="2081.95,-488.5 2091.95,-485 2081.95,-481.5 2081.95,-488.5"/>
</g>
<!-- Node5 -->
<g id="node5" class="node"><title>Node5</title>
<g id="a_node5"><a xlink:href="../../da/d35/struct_actor.html#a28c39c9980f6f643fa3e2d03d68ce4e4" target="_top" xlink:title=" ">
<polygon fill="white" stroke="black" points="1730,-470 1730,-500 1870,-500 1870,-470 1730,-470"/>
<text text-anchor="start" x="1738" y="-488" font-family="Helvetica,sans-Serif" font-size="10.00">Actor::DamageMonsterFrom</text>
<text text-anchor="middle" x="1800" y="-477" font-family="Helvetica,sans-Serif" font-size="10.00">Party</text>
</a>
</g>
</g>
<!-- Node4&#45;&gt;Node5 -->
<g id="edge4" class="edge"><title>Node4&#45;&gt;Node5</title>
<path fill="none" stroke="midnightblue" d="M1908.56,-485C1895.91,-485 1882.71,-485 1870.06,-485"/>
<polygon fill="midnightblue" stroke="midnightblue" points="1908.57,-488.5 1918.57,-485 1908.57,-481.5 1908.57,-488.5"/>
</g>
<!-- Node16 -->
<g id="node16" class="node"><title>Node16</title>
<g id="a_node16"><a xlink:href="../../da/d35/struct_actor.html#a8ad58b6020b186e538e3e033f81c073a" target="_top" xlink:title=" ">
<polygon fill="white" stroke="black" points="480,-465.5 480,-484.5 589,-484.5 589,-465.5 480,-465.5"/>
<text text-anchor="middle" x="534.5" y="-472.5" font-family="Helvetica,sans-Serif" font-size="10.00">Actor::UpdateActorAI</text>
</a>
</g>
</g>
<!-- Node4&#45;&gt;Node16 -->
<g id="edge57" class="edge"><title>Node4&#45;&gt;Node16</title>
<path fill="none" stroke="midnightblue" d="M1950.21,-499.207C1890.62,-528.312 1745.44,-592 1616,-592 1616,-592 1616,-592 903.5,-592 785.493,-592 751.542,-589.888 642,-546 603.632,-530.628 564.797,-500.113 546.428,-484.575"/>
<polygon fill="midnightblue" stroke="midnightblue" points="1951.94,-502.256 1959.35,-494.684 1948.83,-495.983 1951.94,-502.256"/>
</g>
<!-- Node38 -->
<g id="node38" class="node"><title>Node38</title>
<g id="a_node38"><a xlink:href="../../d1/d39/_player_8h.html#a296914f5ab9688709f8a797e52c4866b" target="_top" xlink:title=" ">
<polygon fill="white" stroke="black" points="1731,-387.5 1731,-406.5 1869,-406.5 1869,-387.5 1731,-387.5"/>
<text text-anchor="middle" x="1800" y="-394.5" font-family="Helvetica,sans-Serif" font-size="10.00">DamagePlayerFromMonster</text>
</a>
</g>
</g>
<!-- Node4&#45;&gt;Node38 -->
<g id="edge53" class="edge"><title>Node4&#45;&gt;Node38</title>
<path fill="none" stroke="midnightblue" d="M1918.87,-471.81C1914.36,-469.843 1910.01,-467.587 1906,-465 1885.05,-451.5 1890.42,-436.293 1870,-422 1860.61,-415.424 1849.29,-410.382 1838.56,-406.608"/>
<polygon fill="midnightblue" stroke="midnightblue" points="1917.68,-475.105 1928.27,-475.457 1920.21,-468.579 1917.68,-475.105"/>
</g>
<!-- Node39 -->
<g id="node39" class="node"><title>Node39</title>
<g id="a_node39"><a xlink:href="../../d3/db1/struct_player.html#a9f9f15ffe40eecd893fc5b1109fd9a64" target="_top" xlink:title=" ">
<polygon fill="white" stroke="black" points="1739,-431.5 1739,-450.5 1861,-450.5 1861,-431.5 1739,-431.5"/>
<text text-anchor="middle" x="1800" y="-438.5" font-family="Helvetica,sans-Serif" font-size="10.00">Player::SubtractVariable</text>
</a>
</g>
</g>
<!-- Node4&#45;&gt;Node39 -->
<g id="edge56" class="edge"><title>Node4&#45;&gt;Node39</title>
<path fill="none" stroke="midnightblue" d="M1929.85,-473.031C1901.4,-465.959 1865.87,-457.126 1839.33,-450.529"/>
<polygon fill="midnightblue" stroke="midnightblue" points="1929.04,-476.437 1939.59,-475.453 1930.73,-469.644 1929.04,-476.437"/>
</g>
<!-- Node6 -->
<g id="node6" class="node"><title>Node6</title>
<g id="a_node6"><a xlink:href="../../d8/d06/namespace_cast_spell_info_helpers.html#a6fa3b22b4867c28cad6c215c646dc4aa" target="_top" xlink:title=" ">
<polygon fill="white" stroke="black" points="1379.5,-492 1379.5,-522 1489.5,-522 1489.5,-492 1379.5,-492"/>
<text text-anchor="start" x="1387.5" y="-510" font-family="Helvetica,sans-Serif" font-size="10.00">CastSpellInfoHelpers</text>
<text text-anchor="middle" x="1434.5" y="-499" font-family="Helvetica,sans-Serif" font-size="10.00">::_427E01_cast_spell</text>
</a>
</g>
</g>
<!-- Node5&#45;&gt;Node6 -->
<g id="edge5" class="edge"><title>Node5&#45;&gt;Node6</title>
<path fill="none" stroke="midnightblue" d="M1719.72,-489.798C1650.06,-494.014 1550.58,-500.035 1489.67,-503.722"/>
<polygon fill="midnightblue" stroke="midnightblue" points="1720,-493.288 1729.77,-489.19 1719.58,-486.3 1720,-493.288"/>
</g>
<!-- Node11 -->
<g id="node11" class="node"><title>Node11</title>
<g id="a_node11"><a xlink:href="../../d3/db1/struct_player.html#adcd0e965260bb120a6e90b515cc748ac" target="_top" xlink:title=" ">
<polygon fill="white" stroke="black" points="1536,-533 1536,-563 1694,-563 1694,-533 1536,-533"/>
<text text-anchor="start" x="1544" y="-551" font-family="Helvetica,sans-Serif" font-size="10.00">Player::_42ECB5_PlayerAttacks</text>
<text text-anchor="middle" x="1615" y="-540" font-family="Helvetica,sans-Serif" font-size="10.00">Actor</text>
</a>
</g>
</g>
<!-- Node5&#45;&gt;Node11 -->
<g id="edge10" class="edge"><title>Node5&#45;&gt;Node11</title>
<path fill="none" stroke="midnightblue" d="M1745.4,-503.452C1718.17,-512.827 1685.49,-524.076 1659.79,-532.924"/>
<polygon fill="midnightblue" stroke="midnightblue" points="1746.85,-506.655 1755.17,-500.09 1744.57,-500.036 1746.85,-506.655"/>
</g>
<!-- Node12 -->
<g id="node12" class="node"><title>Node12</title>
<g id="a_node12"><a xlink:href="../../de/dcf/_engine_8h.html#ab2d2969c88180c354c33faf51cf43977" target="_top" xlink:title=" ">
<polygon fill="white" stroke="black" points="1382.5,-437.5 1382.5,-456.5 1486.5,-456.5 1486.5,-437.5 1382.5,-437.5"/>
<text text-anchor="middle" x="1434.5" y="-444.5" font-family="Helvetica,sans-Serif" font-size="10.00">_493938_regenerate</text>
</a>
</g>
</g>
<!-- Node5&#45;&gt;Node12 -->
<g id="edge12" class="edge"><title>Node5&#45;&gt;Node12</title>
<path fill="none" stroke="midnightblue" d="M1719.55,-476.695C1648.72,-469.29 1547.14,-458.671 1486.59,-452.341"/>
<polygon fill="midnightblue" stroke="midnightblue" points="1719.46,-480.204 1729.77,-477.763 1720.19,-473.242 1719.46,-480.204"/>
</g>
<!-- Node24 -->
<g id="node24" class="node"><title>Node24</title>
<g id="a_node24"><a xlink:href="../../de/deb/_actor_8h.html#aa9d9c1bc5e3c38f0827c69299622b850" target="_top" xlink:title=" ">
<polygon fill="white" stroke="black" points="1554,-395 1554,-425 1676,-425 1676,-395 1554,-395"/>
<text text-anchor="start" x="1562" y="-413" font-family="Helvetica,sans-Serif" font-size="10.00">area_of_effect__damage</text>
<text text-anchor="middle" x="1615" y="-402" font-family="Helvetica,sans-Serif" font-size="10.00">_evaluate</text>
</a>
</g>
</g>
<!-- Node5&#45;&gt;Node24 -->
<g id="edge31" class="edge"><title>Node5&#45;&gt;Node24</title>
<path fill="none" stroke="midnightblue" d="M1746.68,-466.453C1741.03,-464.329 1735.38,-462.152 1730,-460 1702.31,-448.925 1671.34,-435.261 1648.68,-425.017"/>
<polygon fill="midnightblue" stroke="midnightblue" points="1745.54,-469.766 1756.14,-469.965 1747.98,-463.204 1745.54,-469.766"/>
</g>
<!-- Node26 -->
<g id="node26" class="node"><title>Node26</title>
<g id="a_node26"><a xlink:href="../../d9/ded/_sprite_object_8cpp.html#acf99fe98d2a583eb9438b8e21bf7ee07" target="_top" xlink:title=" ">
<polygon fill="white" stroke="black" points="1579,-356.5 1579,-375.5 1651,-375.5 1651,-356.5 1579,-356.5"/>
<text text-anchor="middle" x="1615" y="-363.5" font-family="Helvetica,sans-Serif" font-size="10.00">sub_43A97E</text>
</a>
</g>
</g>
<!-- Node5&#45;&gt;Node26 -->
<g id="edge34" class="edge"><title>Node5&#45;&gt;Node26</title>
<path fill="none" stroke="midnightblue" d="M1735.47,-464.407C1733.56,-463.03 1731.73,-461.563 1730,-460 1702.58,-435.193 1722.72,-408.281 1694,-385 1681.98,-375.259 1665.72,-370.393 1651.16,-368.006"/>
<polygon fill="midnightblue" stroke="midnightblue" points="1733.97,-467.591 1744.31,-469.886 1737.66,-461.642 1733.97,-467.591"/>
</g>
<!-- Node7 -->
<g id="node7" class="node"><title>Node7</title>
<g id="a_node7"><a xlink:href="../../d4/d06/class_application_1_1_game.html#a3f65e3f0ef1a9114fb3dea275e52442e" target="_top" xlink:title=" ">
<polygon fill="white" stroke="black" points="669.5,-507 669.5,-537 772.5,-537 772.5,-507 669.5,-507"/>
<text text-anchor="start" x="677.5" y="-525" font-family="Helvetica,sans-Serif" font-size="10.00">Application::Game::</text>
<text text-anchor="middle" x="721" y="-514" font-family="Helvetica,sans-Serif" font-size="10.00">EventLoop</text>
</a>
</g>
</g>
<!-- Node6&#45;&gt;Node7 -->
<g id="edge6" class="edge"><title>Node6&#45;&gt;Node7</title>
<path fill="none" stroke="midnightblue" d="M1369.29,-508.354C1229.34,-511.304 899.209,-518.264 772.623,-520.933"/>
<polygon fill="midnightblue" stroke="midnightblue" points="1369.51,-511.85 1379.44,-508.14 1369.37,-504.851 1369.51,-511.85"/>
</g>
<!-- Node8 -->
<g id="node8" class="node"><title>Node8</title>
<g id="a_node8"><a xlink:href="../../d4/d06/class_application_1_1_game.html#aaa0ff18388b32b4e6198835a35e000d3" target="_top" xlink:title=" ">
<polygon fill="white" stroke="black" points="320,-359 320,-389 423,-389 423,-359 320,-359"/>
<text text-anchor="start" x="328" y="-377" font-family="Helvetica,sans-Serif" font-size="10.00">Application::Game::</text>
<text text-anchor="middle" x="371.5" y="-366" font-family="Helvetica,sans-Serif" font-size="10.00">GameLoop</text>
</a>
</g>
</g>
<!-- Node7&#45;&gt;Node8 -->
<g id="edge7" class="edge"><title>Node7&#45;&gt;Node8</title>
<path fill="none" stroke="midnightblue" d="M658.812,-528.462C603.968,-531.339 523.127,-528.154 463,-494 420.118,-469.642 391.226,-415.843 379.04,-389.351"/>
<polygon fill="midnightblue" stroke="midnightblue" points="659.31,-531.938 669.079,-527.836 658.885,-524.951 659.31,-531.938"/>
</g>
<!-- Node9 -->
<g id="node9" class="node"><title>Node9</title>
<g id="a_node9"><a xlink:href="../../d4/d06/class_application_1_1_game.html#a013ffd59e8fdf1c0a396da1dbe1681ca" target="_top" xlink:title=" ">
<polygon fill="white" stroke="black" points="156,-304.5 156,-323.5 280,-323.5 280,-304.5 156,-304.5"/>
<text text-anchor="middle" x="218" y="-311.5" font-family="Helvetica,sans-Serif" font-size="10.00">Application::Game::Loop</text>
</a>
</g>
</g>
<!-- Node8&#45;&gt;Node9 -->
<g id="edge8" class="edge"><title>Node8&#45;&gt;Node9</title>
<path fill="none" stroke="midnightblue" d="M322.766,-355.095C296.233,-344.588 264.363,-331.966 243.006,-323.507"/>
<polygon fill="midnightblue" stroke="midnightblue" points="321.684,-358.431 332.27,-358.859 324.262,-351.923 321.684,-358.431"/>
</g>
<!-- Node10 -->
<g id="node10" class="node"><title>Node10</title>
<g id="a_node10"><a xlink:href="../../d4/d06/class_application_1_1_game.html#a96341ca5b54d90adc3ecb3bf0bcd2312" target="_top" xlink:title=" ">
<polygon fill="white" stroke="black" points="0,-304.5 0,-323.5 120,-323.5 120,-304.5 0,-304.5"/>
<text text-anchor="middle" x="60" y="-311.5" font-family="Helvetica,sans-Serif" font-size="10.00">Application::Game::Run</text>
</a>
</g>
</g>
<!-- Node9&#45;&gt;Node10 -->
<g id="edge9" class="edge"><title>Node9&#45;&gt;Node10</title>
<path fill="none" stroke="midnightblue" d="M145.546,-314C137.081,-314 128.513,-314 120.244,-314"/>
<polygon fill="midnightblue" stroke="midnightblue" points="145.792,-317.5 155.792,-314 145.792,-310.5 145.792,-317.5"/>
</g>
<!-- Node11&#45;&gt;Node7 -->
<g id="edge11" class="edge"><title>Node11&#45;&gt;Node7</title>
<path fill="none" stroke="midnightblue" d="M1525.77,-550.361C1455.43,-552.04 1354.41,-554 1266,-554 1266,-554 1266,-554 1084,-554 972.484,-554 842.393,-538.746 772.535,-529.301"/>
<polygon fill="midnightblue" stroke="midnightblue" points="1526,-553.856 1535.92,-550.115 1525.84,-546.858 1526,-553.856"/>
</g>
<!-- Node13 -->
<g id="node13" class="node"><title>Node13</title>
<g id="a_node13"><a xlink:href="../../de/dcf/_engine_8h.html#a79dc644d7866ee9c87c3774a8fab9af6" target="_top" xlink:title=" ">
<polygon fill="white" stroke="black" points="1009,-419 1009,-449 1161,-449 1161,-419 1009,-419"/>
<text text-anchor="start" x="1017" y="-437" font-family="Helvetica,sans-Serif" font-size="10.00">_494035_timed_effects</text>
<text text-anchor="middle" x="1085" y="-426" font-family="Helvetica,sans-Serif" font-size="10.00">__water_walking_damage__etc</text>
</a>
</g>
</g>
<!-- Node12&#45;&gt;Node13 -->
<g id="edge13" class="edge"><title>Node12&#45;&gt;Node13</title>
<path fill="none" stroke="midnightblue" d="M1371.96,-444.698C1313.13,-442.497 1224.29,-439.173 1161.26,-436.816"/>
<polygon fill="midnightblue" stroke="midnightblue" points="1372.1,-448.205 1382.23,-445.082 1372.36,-441.21 1372.1,-448.205"/>
</g>
<!-- Node13&#45;&gt;Node8 -->
<g id="edge14" class="edge"><title>Node13&#45;&gt;Node8</title>
<path fill="none" stroke="midnightblue" d="M1015.53,-416.742C1001.53,-413.734 986.851,-410.95 973,-409 770.832,-380.536 527.236,-375.135 423.39,-374.171"/>
<polygon fill="midnightblue" stroke="midnightblue" points="1015.05,-420.221 1025.57,-418.963 1016.56,-413.386 1015.05,-420.221"/>
</g>
<!-- Node14 -->
<g id="node14" class="node"><title>Node14</title>
<g id="a_node14"><a xlink:href="../../d1/d28/structstru262___turn_based.html#a3d510c1516767374020392bb323a3c06" target="_top" xlink:title=" ">
<polygon fill="white" stroke="black" points="851,-419 851,-449 958,-449 958,-419 851,-419"/>
<text text-anchor="start" x="859" y="-437" font-family="Helvetica,sans-Serif" font-size="10.00">stru262_TurnBased::</text>
<text text-anchor="middle" x="904.5" y="-426" font-family="Helvetica,sans-Serif" font-size="10.00">NextTurn</text>
</a>
</g>
</g>
<!-- Node13&#45;&gt;Node14 -->
<g id="edge15" class="edge"><title>Node13&#45;&gt;Node14</title>
<path fill="none" stroke="midnightblue" d="M998.763,-434C984.897,-434 970.902,-434 958.12,-434"/>
<polygon fill="midnightblue" stroke="midnightblue" points="998.817,-437.5 1008.82,-434 998.817,-430.5 998.817,-437.5"/>
</g>
<!-- Node17 -->
<g id="node17" class="node"><title>Node17</title>
<g id="a_node17"><a xlink:href="../../d0/d14/struct_party.html#aaa6686874ea698d79177b7ba5d67d8bd" target="_top" xlink:title=" ">
<polygon fill="white" stroke="black" points="869,-304.5 869,-323.5 940,-323.5 940,-304.5 869,-304.5"/>
<text text-anchor="middle" x="904.5" y="-311.5" font-family="Helvetica,sans-Serif" font-size="10.00">Party::Reset</text>
</a>
</g>
</g>
<!-- Node13&#45;&gt;Node17 -->
<g id="edge19" class="edge"><title>Node13&#45;&gt;Node17</title>
<path fill="none" stroke="midnightblue" d="M1053.01,-413.165C1013.93,-386.895 948.395,-342.837 919.691,-323.54"/>
<polygon fill="midnightblue" stroke="midnightblue" points="1051.14,-416.127 1061.39,-418.802 1055.05,-410.318 1051.14,-416.127"/>
</g>
<!-- Node21 -->
<g id="node21" class="node"><title>Node21</title>
<g id="a_node21"><a xlink:href="../../db/d38/_party_8h.html#a6327fa16a015add5509d93cc738c035b" target="_top" xlink:title=" ">
<polygon fill="white" stroke="black" points="886,-468.5 886,-487.5 923,-487.5 923,-468.5 886,-468.5"/>
<text text-anchor="middle" x="904.5" y="-475.5" font-family="Helvetica,sans-Serif" font-size="10.00">Rest</text>
</a>
</g>
</g>
<!-- Node13&#45;&gt;Node21 -->
<g id="edge27" class="edge"><title>Node13&#45;&gt;Node21</title>
<path fill="none" stroke="midnightblue" d="M1013.03,-451.493C980.271,-459.569 944.074,-468.492 923.142,-473.651"/>
<polygon fill="midnightblue" stroke="midnightblue" points="1014.2,-454.811 1023.07,-449.019 1012.52,-448.014 1014.2,-454.811"/>
</g>
<!-- Node15 -->
<g id="node15" class="node"><title>Node15</title>
<g id="a_node15"><a xlink:href="../../d1/d28/structstru262___turn_based.html#a594cf1020b0200b78abf16be8f3ab722" target="_top" xlink:title=" ">
<polygon fill="white" stroke="black" points="667.5,-419 667.5,-449 774.5,-449 774.5,-419 667.5,-419"/>
<text text-anchor="start" x="675.5" y="-437" font-family="Helvetica,sans-Serif" font-size="10.00">stru262_TurnBased::</text>
<text text-anchor="middle" x="721" y="-426" font-family="Helvetica,sans-Serif" font-size="10.00">AITurnBasedAction</text>
</a>
</g>
</g>
<!-- Node14&#45;&gt;Node15 -->
<g id="edge16" class="edge"><title>Node14&#45;&gt;Node15</title>
<path fill="none" stroke="midnightblue" d="M840.514,-434C819.056,-434 795.307,-434 774.737,-434"/>
<polygon fill="midnightblue" stroke="midnightblue" points="840.515,-437.5 850.515,-434 840.515,-430.5 840.515,-437.5"/>
</g>
<!-- Node15&#45;&gt;Node16 -->
<g id="edge17" class="edge"><title>Node15&#45;&gt;Node16</title>
<path fill="none" stroke="midnightblue" d="M657.365,-447.919C631.387,-453.692 601.903,-460.244 578.444,-465.457"/>
<polygon fill="midnightblue" stroke="midnightblue" points="658.127,-451.335 667.13,-445.749 656.609,-444.502 658.127,-451.335"/>
</g>
<!-- Node16&#45;&gt;Node8 -->
<g id="edge18" class="edge"><title>Node16&#45;&gt;Node8</title>
<path fill="none" stroke="midnightblue" d="M476.179,-462.068C471.613,-460.286 467.162,-458.272 463,-456 430.992,-438.526 401.141,-407.517 384.998,-389.048"/>
<polygon fill="midnightblue" stroke="midnightblue" points="475.065,-465.386 485.66,-465.411 477.392,-458.785 475.065,-465.386"/>
</g>
<!-- Node17&#45;&gt;Node8 -->
<g id="edge24" class="edge"><title>Node17&#45;&gt;Node8</title>
<path fill="none" stroke="midnightblue" d="M858.529,-320.355C840.366,-322.85 819.199,-325.669 800,-328 664.021,-344.509 503.332,-360.986 423.223,-368.994"/>
<polygon fill="midnightblue" stroke="midnightblue" points="859.131,-323.805 868.558,-318.968 858.173,-316.871 859.131,-323.805"/>
</g>
<!-- Node17&#45;&gt;Node9 -->
<g id="edge25" class="edge"><title>Node17&#45;&gt;Node9</title>
<path fill="none" stroke="midnightblue" d="M858.391,-314C739.194,-314 415.732,-314 280.122,-314"/>
<polygon fill="midnightblue" stroke="midnightblue" points="858.615,-317.5 868.614,-314 858.614,-310.5 858.615,-317.5"/>
</g>
<!-- Node18 -->
<g id="node18" class="node"><title>Node18</title>
<g id="a_node18"><a xlink:href="../../de/da8/_u_i_party_creation_8cpp.html#ab3e0a011d0b8257f92e7b2255996f08d" target="_top" xlink:title=" ">
<polygon fill="white" stroke="black" points="661.5,-266.5 661.5,-285.5 780.5,-285.5 780.5,-266.5 661.5,-266.5"/>
<text text-anchor="middle" x="721" y="-273.5" font-family="Helvetica,sans-Serif" font-size="10.00">CreateParty_EventLoop</text>
</a>
</g>
</g>
<!-- Node17&#45;&gt;Node18 -->
<g id="edge20" class="edge"><title>Node17&#45;&gt;Node18</title>
<path fill="none" stroke="midnightblue" d="M859.067,-304.697C831.23,-298.869 795.45,-291.378 767.427,-285.511"/>
<polygon fill="midnightblue" stroke="midnightblue" points="858.429,-308.139 868.934,-306.763 859.863,-301.288 858.429,-308.139"/>
</g>
<!-- Node20 -->
<g id="node20" class="node"><title>Node20</title>
<g id="a_node20"><a xlink:href="../../d6/d6a/_u_i_party_creation_8h.html#ae6fe5aec2826f251f3950e95fd588d79" target="_top" xlink:title=" ">
<polygon fill="white" stroke="black" points="316,-266.5 316,-285.5 427,-285.5 427,-266.5 316,-266.5"/>
<text text-anchor="middle" x="371.5" y="-273.5" font-family="Helvetica,sans-Serif" font-size="10.00">PartyCreationUI_Loop</text>
</a>
</g>
</g>
<!-- Node17&#45;&gt;Node20 -->
<g id="edge26" class="edge"><title>Node17&#45;&gt;Node20</title>
<path fill="none" stroke="midnightblue" d="M882.683,-298.376C862.685,-284.416 831.011,-264.975 800,-257 661.494,-221.383 489.565,-250.074 412.794,-266.499"/>
<polygon fill="midnightblue" stroke="midnightblue" points="880.839,-301.361 891.006,-304.343 884.918,-295.672 880.839,-301.361"/>
</g>
<!-- Node19 -->
<g id="node19" class="node"><title>Node19</title>
<g id="a_node19"><a xlink:href="../../de/da8/_u_i_party_creation_8cpp.html#a3989bc11e4d285e802baa8b00e9663ad" target="_top" xlink:title=" ">
<polygon fill="white" stroke="black" points="463,-266.5 463,-285.5 606,-285.5 606,-266.5 463,-266.5"/>
<text text-anchor="middle" x="534.5" y="-273.5" font-family="Helvetica,sans-Serif" font-size="10.00">PartyCreationUI_LoopInternal</text>
</a>
</g>
</g>
<!-- Node18&#45;&gt;Node19 -->
<g id="edge21" class="edge"><title>Node18&#45;&gt;Node19</title>
<path fill="none" stroke="midnightblue" d="M651.34,-276C636.625,-276 621.051,-276 606.259,-276"/>
<polygon fill="midnightblue" stroke="midnightblue" points="651.37,-279.5 661.37,-276 651.37,-272.5 651.37,-279.5"/>
</g>
<!-- Node19&#45;&gt;Node20 -->
<g id="edge22" class="edge"><title>Node19&#45;&gt;Node20</title>
<path fill="none" stroke="midnightblue" d="M452.714,-276C444.032,-276 435.355,-276 427.086,-276"/>
<polygon fill="midnightblue" stroke="midnightblue" points="452.883,-279.5 462.883,-276 452.883,-272.5 452.883,-279.5"/>
</g>
<!-- Node20&#45;&gt;Node9 -->
<g id="edge23" class="edge"><title>Node20&#45;&gt;Node9</title>
<path fill="none" stroke="midnightblue" d="M322.498,-288.04C301.333,-293.349 276.814,-299.499 256.955,-304.48"/>
<polygon fill="midnightblue" stroke="midnightblue" points="323.422,-291.417 332.27,-285.589 321.719,-284.627 323.422,-291.417"/>
</g>
<!-- Node21&#45;&gt;Node7 -->
<g id="edge28" class="edge"><title>Node21&#45;&gt;Node7</title>
<path fill="none" stroke="midnightblue" d="M875.733,-484.731C848.401,-491.357 806.03,-501.629 772.687,-509.712"/>
<polygon fill="midnightblue" stroke="midnightblue" points="876.873,-488.057 885.767,-482.299 875.223,-481.254 876.873,-488.057"/>
</g>
<!-- Node22 -->
<g id="node22" class="node"><title>Node22</title>
<g id="a_node22"><a xlink:href="../../d0/d14/struct_party.html#a7e6c7262893463554672cab394812b00" target="_top" xlink:title=" ">
<polygon fill="white" stroke="black" points="670.5,-468.5 670.5,-487.5 771.5,-487.5 771.5,-468.5 670.5,-468.5"/>
<text text-anchor="middle" x="721" y="-475.5" font-family="Helvetica,sans-Serif" font-size="10.00">Party::Sleep8Hours</text>
</a>
</g>
</g>
<!-- Node21&#45;&gt;Node22 -->
<g id="edge29" class="edge"><title>Node21&#45;&gt;Node22</title>
<path fill="none" stroke="midnightblue" d="M875.621,-478C847.966,-478 804.993,-478 771.523,-478"/>
<polygon fill="midnightblue" stroke="midnightblue" points="875.767,-481.5 885.767,-478 875.767,-474.5 875.767,-481.5"/>
</g>
<!-- Node23 -->
<g id="node23" class="node"><title>Node23</title>
<g id="a_node23"><a xlink:href="../../d2/d13/class_g_u_i_window___rest.html#a2fb35507e96666175f07fb9c0ed4c036" target="_top" xlink:title=" ">
<polygon fill="white" stroke="black" points="469.5,-427.5 469.5,-446.5 599.5,-446.5 599.5,-427.5 469.5,-427.5"/>
<text text-anchor="middle" x="534.5" y="-434.5" font-family="Helvetica,sans-Serif" font-size="10.00">GUIWindow_Rest::Update</text>
</a>
</g>
</g>
<!-- Node22&#45;&gt;Node23 -->
<g id="edge30" class="edge"><title>Node22&#45;&gt;Node23</title>
<path fill="none" stroke="midnightblue" d="M667.14,-466.253C639.003,-460.001 604.847,-452.411 578.379,-446.529"/>
<polygon fill="midnightblue" stroke="midnightblue" points="666.687,-469.738 677.208,-468.491 668.206,-462.905 666.687,-469.738"/>
</g>
<!-- Node25 -->
<g id="node25" class="node"><title>Node25</title>
<g id="a_node25"><a xlink:href="../../de/dcf/_engine_8h.html#a73fe5e8d7dc6ec78e5cc180d1915341b" target="_top" xlink:title=" ">
<polygon fill="white" stroke="black" points="479.5,-163 479.5,-193 589.5,-193 589.5,-163 479.5,-163"/>
<text text-anchor="start" x="487.5" y="-181" font-family="Helvetica,sans-Serif" font-size="10.00">UpdateUserInput_and</text>
<text text-anchor="middle" x="534.5" y="-170" font-family="Helvetica,sans-Serif" font-size="10.00">_MapSpecificStuff</text>
</a>
</g>
</g>
<!-- Node24&#45;&gt;Node25 -->
<g id="edge32" class="edge"><title>Node24&#45;&gt;Node25</title>
<path fill="none" stroke="midnightblue" d="M1550.36,-391.325C1545.43,-389.359 1540.59,-387.249 1536,-385 1405.36,-321.015 1411.47,-200 1266,-200 1266,-200 1266,-200 903.5,-200 791.815,-200 661.403,-189.778 589.686,-183.27"/>
<polygon fill="midnightblue" stroke="midnightblue" points="1549.31,-394.671 1559.91,-394.928 1551.79,-388.122 1549.31,-394.671"/>
</g>
<!-- Node25&#45;&gt;Node8 -->
<g id="edge33" class="edge"><title>Node25&#45;&gt;Node8</title>
<path fill="none" stroke="midnightblue" d="M512.429,-200.752C498.185,-216.338 479.11,-237.619 463,-257 433.288,-292.745 400.351,-336.432 383.601,-358.961"/>
<polygon fill="midnightblue" stroke="midnightblue" points="515.213,-202.895 519.396,-193.16 510.055,-198.161 515.213,-202.895"/>
</g>
<!-- Node27 -->
<g id="node27" class="node"><title>Node27</title>
<g id="a_node27"><a xlink:href="../../d9/ded/_sprite_object_8cpp.html#a457801379764f6519b638ea5b505967e" target="_top" xlink:title=" ">
<polygon fill="white" stroke="black" points="1369,-102.5 1369,-121.5 1500,-121.5 1500,-102.5 1369,-102.5"/>
<text text-anchor="middle" x="1434.5" y="-109.5" font-family="Helvetica,sans-Serif" font-size="10.00">_46BFFA_update_spell_fx</text>
</a>
</g>
</g>
<!-- Node26&#45;&gt;Node27 -->
<g id="edge35" class="edge"><title>Node26&#45;&gt;Node27</title>
<path fill="none" stroke="midnightblue" d="M1603.37,-347.198C1584.19,-313.754 1541.88,-242.165 1500,-186 1481.87,-161.681 1457.77,-135.405 1444.76,-121.65"/>
<polygon fill="midnightblue" stroke="midnightblue" points="1600.56,-349.338 1608.56,-356.293 1606.65,-345.872 1600.56,-349.338"/>
</g>
<!-- Node28 -->
<g id="node28" class="node"><title>Node28</title>
<g id="a_node28"><a xlink:href="../../da/d20/_i_render_8h.html#a2827fe354fe45bc8a3b7bddc1f2236dc" target="_top" xlink:title=" ">
<polygon fill="white" stroke="black" points="1228.5,-14.5 1228.5,-33.5 1301.5,-33.5 1301.5,-14.5 1228.5,-14.5"/>
<text text-anchor="middle" x="1265" y="-21.5" font-family="Helvetica,sans-Serif" font-size="10.00">sub_46DEF2</text>
</a>
</g>
</g>
<!-- Node27&#45;&gt;Node28 -->
<g id="edge36" class="edge"><title>Node27&#45;&gt;Node28</title>
<path fill="none" stroke="midnightblue" d="M1414.42,-96.0682C1395.01,-80.5755 1363.54,-57.3396 1333,-43 1323.15,-38.3751 1311.95,-34.6537 1301.56,-31.7722"/>
<polygon fill="midnightblue" stroke="midnightblue" points="1412.23,-98.7979 1422.2,-102.383 1416.64,-93.3633 1412.23,-98.7979"/>
</g>
<!-- Node35 -->
<g id="node35" class="node"><title>Node35</title>
<g id="a_node35"><a xlink:href="../../d0/d5a/struct_sprite_object.html#a9e0d2e0c49fb02c2bf900de59aecff85" target="_top" xlink:title=" ">
<polygon fill="white" stroke="black" points="1197,-141 1197,-171 1333,-171 1333,-141 1197,-141"/>
<text text-anchor="start" x="1205" y="-159" font-family="Helvetica,sans-Serif" font-size="10.00">SpriteObject::UpdateObject</text>
<text text-anchor="middle" x="1265" y="-148" font-family="Helvetica,sans-Serif" font-size="10.00">_fn0_BLV</text>
</a>
</g>
</g>
<!-- Node27&#45;&gt;Node35 -->
<g id="edge46" class="edge"><title>Node27&#45;&gt;Node35</title>
<path fill="none" stroke="midnightblue" d="M1387.45,-124.097C1367.64,-129.301 1344.27,-135.439 1323.35,-140.935"/>
<polygon fill="midnightblue" stroke="midnightblue" points="1388.37,-127.473 1397.15,-121.547 1386.59,-120.703 1388.37,-127.473"/>
</g>
<!-- Node36 -->
<g id="node36" class="node"><title>Node36</title>
<g id="a_node36"><a xlink:href="../../da/d20/_i_render_8h.html#a522912d67446895b0a03d01837b75a99" target="_top" xlink:title=" ">
<polygon fill="white" stroke="black" points="1044.5,-102.5 1044.5,-121.5 1125.5,-121.5 1125.5,-102.5 1044.5,-102.5"/>
<text text-anchor="middle" x="1085" y="-109.5" font-family="Helvetica,sans-Serif" font-size="10.00">UpdateObjects</text>
</a>
</g>
</g>
<!-- Node27&#45;&gt;Node36 -->
<g id="edge52" class="edge"><title>Node27&#45;&gt;Node36</title>
<path fill="none" stroke="midnightblue" d="M1358.67,-112C1287.28,-112 1182.47,-112 1125.84,-112"/>
<polygon fill="midnightblue" stroke="midnightblue" points="1358.95,-115.5 1368.95,-112 1358.95,-108.5 1358.95,-115.5"/>
</g>
<!-- Node37 -->
<g id="node37" class="node"><title>Node37</title>
<g id="a_node37"><a xlink:href="../../d0/d5a/struct_sprite_object.html#a950e5cedc1e8cfc98d77ba9b3f91071f" target="_top" xlink:title=" ">
<polygon fill="white" stroke="black" points="1197,-53 1197,-83 1333,-83 1333,-53 1197,-53"/>
<text text-anchor="start" x="1205" y="-71" font-family="Helvetica,sans-Serif" font-size="10.00">SpriteObject::UpdateObject</text>
<text text-anchor="middle" x="1265" y="-60" font-family="Helvetica,sans-Serif" font-size="10.00">_fn0_ODM</text>
</a>
</g>
</g>
<!-- Node27&#45;&gt;Node37 -->
<g id="edge50" class="edge"><title>Node27&#45;&gt;Node37</title>
<path fill="none" stroke="midnightblue" d="M1387.45,-99.9026C1367.64,-94.6987 1344.27,-88.5605 1323.35,-83.0654"/>
<polygon fill="midnightblue" stroke="midnightblue" points="1386.59,-103.297 1397.15,-102.453 1388.37,-96.5268 1386.59,-103.297"/>
</g>
<!-- Node29 -->
<g id="node29" class="node"><title>Node29</title>
<g id="a_node29"><a xlink:href="../../da/d20/_i_render_8h.html#a0e63804ace29468efe95593015c3747c" target="_top" xlink:title=" ">
<polygon fill="white" stroke="black" points="1021,-21 1021,-51 1149,-51 1149,-21 1021,-21"/>
<text text-anchor="start" x="1029" y="-39" font-family="Helvetica,sans-Serif" font-size="10.00">_46ED8A_collide_against</text>
<text text-anchor="middle" x="1085" y="-28" font-family="Helvetica,sans-Serif" font-size="10.00">_sprite_objects</text>
</a>
</g>
</g>
<!-- Node28&#45;&gt;Node29 -->
<g id="edge37" class="edge"><title>Node28&#45;&gt;Node29</title>
<path fill="none" stroke="midnightblue" d="M1218.17,-27.0896C1197.2,-28.5033 1172.01,-30.2016 1149.27,-31.7346"/>
<polygon fill="midnightblue" stroke="midnightblue" points="1218.66,-30.5643 1228.41,-26.3995 1218.19,-23.5802 1218.66,-30.5643"/>
</g>
<!-- Node30 -->
<g id="node30" class="node"><title>Node30</title>
<g id="a_node30"><a xlink:href="../../dc/dfb/_outdoor_8h.html#a62e44d7fd493356cb340fe1dc8fe993b" target="_top" xlink:title=" ">
<polygon fill="white" stroke="black" points="836,-0.5 836,-19.5 973,-19.5 973,-0.5 836,-0.5"/>
<text text-anchor="middle" x="904.5" y="-7.5" font-family="Helvetica,sans-Serif" font-size="10.00">ODM_ProcessPartyActions</text>
</a>
</g>
</g>
<!-- Node29&#45;&gt;Node30 -->
<g id="edge38" class="edge"><title>Node29&#45;&gt;Node30</title>
<path fill="none" stroke="midnightblue" d="M1010.84,-25.344C997.65,-23.4224 983.972,-21.4301 971.014,-19.5427"/>
<polygon fill="midnightblue" stroke="midnightblue" points="1010.42,-28.8188 1020.82,-26.7968 1011.43,-21.8919 1010.42,-28.8188"/>
</g>
<!-- Node32 -->
<g id="node32" class="node"><title>Node32</title>
<g id="a_node32"><a xlink:href="../../da/dc7/_indoor_8h.html#a91180cf18d91c79b7bc41c630c261cbd" target="_top" xlink:title=" ">
<polygon fill="white" stroke="black" points="854.5,-114.5 854.5,-133.5 954.5,-133.5 954.5,-114.5 854.5,-114.5"/>
<text text-anchor="middle" x="904.5" y="-121.5" font-family="Helvetica,sans-Serif" font-size="10.00">UpdateActors_BLV</text>
</a>
</g>
</g>
<!-- Node29&#45;&gt;Node32 -->
<g id="edge41" class="edge"><title>Node29&#45;&gt;Node32</title>
<path fill="none" stroke="midnightblue" d="M1044.26,-55.5922C1007.12,-73.9013 953.252,-100.459 924.792,-114.489"/>
<polygon fill="midnightblue" stroke="midnightblue" points="1045.89,-58.6889 1053.31,-51.1277 1042.8,-52.4104 1045.89,-58.6889"/>
</g>
<!-- Node34 -->
<g id="node34" class="node"><title>Node34</title>
<g id="a_node34"><a xlink:href="../../dc/dfb/_outdoor_8h.html#ab3cc30c01fb2e9afa8ec291e6043bf99" target="_top" xlink:title=" ">
<polygon fill="white" stroke="black" points="852.5,-38.5 852.5,-57.5 956.5,-57.5 956.5,-38.5 852.5,-38.5"/>
<text text-anchor="middle" x="904.5" y="-45.5" font-family="Helvetica,sans-Serif" font-size="10.00">UpdateActors_ODM</text>
</a>
</g>
</g>
<!-- Node29&#45;&gt;Node34 -->
<g id="edge44" class="edge"><title>Node29&#45;&gt;Node34</title>
<path fill="none" stroke="midnightblue" d="M1010.81,-40.9204C992.588,-42.1454 973.443,-43.4324 956.549,-44.5681"/>
<polygon fill="midnightblue" stroke="midnightblue" points="1011.07,-44.4106 1020.82,-40.2476 1010.6,-37.4264 1011.07,-44.4106"/>
</g>
<!-- Node31 -->
<g id="node31" class="node"><title>Node31</title>
<g id="a_node31"><a xlink:href="../../dc/dfb/_outdoor_8h.html#aeedbd3470634fbb22ebda28d2f8006e4" target="_top" xlink:title=" ">
<polygon fill="white" stroke="black" points="642,-57.5 642,-76.5 800,-76.5 800,-57.5 642,-57.5"/>
<text text-anchor="middle" x="721" y="-64.5" font-family="Helvetica,sans-Serif" font-size="10.00">ODM_UpdateUserInputAndOther</text>
</a>
</g>
</g>
<!-- Node30&#45;&gt;Node31 -->
<g id="edge39" class="edge"><title>Node30&#45;&gt;Node31</title>
<path fill="none" stroke="midnightblue" d="M858.6,-22.3175C851.038,-24.4839 843.282,-26.7627 836,-29 806.286,-38.1287 772.542,-49.5039 749.526,-57.4181"/>
<polygon fill="midnightblue" stroke="midnightblue" points="859.707,-25.6417 868.374,-19.5473 857.798,-18.9069 859.707,-25.6417"/>
</g>
<!-- Node31&#45;&gt;Node25 -->
<g id="edge40" class="edge"><title>Node31&#45;&gt;Node25</title>
<path fill="none" stroke="midnightblue" d="M695.257,-81.8863C660.093,-103.042 596.015,-141.593 560.637,-162.877"/>
<polygon fill="midnightblue" stroke="midnightblue" points="697.185,-84.8107 703.95,-76.6563 693.576,-78.8125 697.185,-84.8107"/>
</g>
<!-- Node33 -->
<g id="node33" class="node"><title>Node33</title>
<g id="a_node33"><a xlink:href="../../da/dc7/_indoor_8h.html#a7d511837933d59eeeccfc25275a366d8" target="_top" xlink:title=" ">
<polygon fill="white" stroke="black" points="644,-152.5 644,-171.5 798,-171.5 798,-152.5 644,-152.5"/>
<text text-anchor="middle" x="721" y="-159.5" font-family="Helvetica,sans-Serif" font-size="10.00">BLV_UpdateUserInputAndOther</text>
</a>
</g>
</g>
<!-- Node32&#45;&gt;Node33 -->
<g id="edge42" class="edge"><title>Node32&#45;&gt;Node33</title>
<path fill="none" stroke="midnightblue" d="M847.708,-135.681C821.969,-141.07 791.801,-147.386 767.471,-152.48"/>
<polygon fill="midnightblue" stroke="midnightblue" points="848.629,-139.064 857.7,-133.589 847.195,-132.213 848.629,-139.064"/>
</g>
<!-- Node33&#45;&gt;Node25 -->
<g id="edge43" class="edge"><title>Node33&#45;&gt;Node25</title>
<path fill="none" stroke="midnightblue" d="M633.602,-169.492C618.664,-170.788 603.521,-172.101 589.747,-173.296"/>
<polygon fill="midnightblue" stroke="midnightblue" points="634.231,-172.951 643.892,-168.6 633.627,-165.977 634.231,-172.951"/>
</g>
<!-- Node34&#45;&gt;Node31 -->
<g id="edge45" class="edge"><title>Node34&#45;&gt;Node31</title>
<path fill="none" stroke="midnightblue" d="M842.317,-54.4048C828.772,-55.8227 814.241,-57.3439 800.126,-58.8216"/>
<polygon fill="midnightblue" stroke="midnightblue" points="842.878,-57.8653 852.459,-53.3431 842.149,-50.9034 842.878,-57.8653"/>
</g>
<!-- Node35&#45;&gt;Node36 -->
<g id="edge47" class="edge"><title>Node35&#45;&gt;Node36</title>
<path fill="none" stroke="midnightblue" d="M1193.31,-138.526C1169.84,-132.724 1144.59,-126.482 1124.48,-121.512"/>
<polygon fill="midnightblue" stroke="midnightblue" points="1192.69,-141.979 1203.24,-140.981 1194.37,-135.183 1192.69,-141.979"/>
</g>
<!-- Node36&#45;&gt;Node31 -->
<g id="edge49" class="edge"><title>Node36&#45;&gt;Node31</title>
<path fill="none" stroke="midnightblue" d="M1034.09,-105.796C973.16,-98.2216 869.471,-85.3321 798.455,-76.5041"/>
<polygon fill="midnightblue" stroke="midnightblue" points="1033.87,-109.295 1044.22,-107.055 1034.73,-102.349 1033.87,-109.295"/>
</g>
<!-- Node36&#45;&gt;Node33 -->
<g id="edge48" class="edge"><title>Node36&#45;&gt;Node33</title>
<path fill="none" stroke="midnightblue" d="M1045.99,-124.617C1024.75,-131.158 997.668,-138.665 973,-143 914.894,-153.211 848.271,-157.936 798.272,-160.122"/>
<polygon fill="midnightblue" stroke="midnightblue" points="1047.11,-127.932 1055.61,-121.598 1045.02,-121.253 1047.11,-127.932"/>
</g>
<!-- Node37&#45;&gt;Node36 -->
<g id="edge51" class="edge"><title>Node37&#45;&gt;Node36</title>
<path fill="none" stroke="midnightblue" d="M1193.31,-85.4741C1169.84,-91.2763 1144.59,-97.5176 1124.48,-102.488"/>
<polygon fill="midnightblue" stroke="midnightblue" points="1194.37,-88.8167 1203.24,-83.0192 1192.69,-82.0213 1194.37,-88.8167"/>
</g>
<!-- Node38&#45;&gt;Node24 -->
<g id="edge54" class="edge"><title>Node38&#45;&gt;Node24</title>
<path fill="none" stroke="midnightblue" d="M1720.62,-402.568C1705.7,-403.628 1690.31,-404.721 1676.07,-405.733"/>
<polygon fill="midnightblue" stroke="midnightblue" points="1721.13,-406.041 1730.86,-401.841 1720.63,-399.058 1721.13,-406.041"/>
</g>
<!-- Node38&#45;&gt;Node26 -->
<g id="edge55" class="edge"><title>Node38&#45;&gt;Node26</title>
<path fill="none" stroke="midnightblue" d="M1732.62,-385.756C1705.09,-381.091 1674.26,-375.868 1651.21,-371.965"/>
<polygon fill="midnightblue" stroke="midnightblue" points="1732.16,-389.227 1742.6,-387.446 1733.33,-382.325 1732.16,-389.227"/>
</g>
<!-- Node41 -->
<g id="node41" class="node"><title>Node41</title>
<g id="a_node41"><a xlink:href="../../de/d17/class_g_u_i_window___character_record.html#a0f5495b3e77a5b936914a37270e9d2e2" target="_top" xlink:title=" ">
<polygon fill="white" stroke="black" points="1906,-426 1906,-456 2052,-456 2052,-426 1906,-426"/>
<text text-anchor="start" x="1914" y="-444" font-family="Helvetica,sans-Serif" font-size="10.00">GUIWindow_CharacterRecord</text>
<text text-anchor="middle" x="1979" y="-433" font-family="Helvetica,sans-Serif" font-size="10.00">::Update</text>
</a>
</g>
</g>
<!-- Node40&#45;&gt;Node41 -->
<g id="edge59" class="edge"><title>Node40&#45;&gt;Node41</title>
<path fill="none" stroke="midnightblue" d="M2077.56,-438.29C2069.09,-438.525 2060.54,-438.763 2052.19,-438.995"/>
<polygon fill="midnightblue" stroke="midnightblue" points="2077.93,-441.781 2087.82,-438.005 2077.73,-434.784 2077.93,-441.781"/>
</g>
<!-- Node42&#45;&gt;Node38 -->
<g id="edge61" class="edge"><title>Node42&#45;&gt;Node38</title>
<path fill="none" stroke="midnightblue" d="M1896.12,-394.313C1887.09,-394.568 1877.96,-394.826 1869.12,-395.076"/>
<polygon fill="midnightblue" stroke="midnightblue" points="1896.37,-397.808 1906.26,-394.026 1896.17,-390.81 1896.37,-397.808"/>
</g>
</g>
</svg>
