<?xml version="1.0" encoding="UTF-8" standalone="no"?>
<!DOCTYPE svg PUBLIC "-//W3C//DTD SVG 1.1//EN"
 "http://www.w3.org/Graphics/SVG/1.1/DTD/svg11.dtd">
<!-- Generated by graphviz version 2.38.0 (20140413.2041)
 -->
<!-- Title: Player::GetActualAge Pages: 1 -->
<svg width="1325pt" height="66pt"
 viewBox="0.00 0.00 1325.00 66.00" xmlns="http://www.w3.org/2000/svg" xmlns:xlink="http://www.w3.org/1999/xlink">
<g id="graph0" class="graph" transform="scale(1 1) rotate(0) translate(4 62)">
<title>Player::GetActualAge</title>
<polygon fill="white" stroke="none" points="-4,4 -4,-62 1321,-62 1321,4 -4,4"/>
<!-- Node1 -->
<g id="node1" class="node"><title>Node1</title>
<g id="a_node1"><a xlink:title=" ">
<polygon fill="#bfbfbf" stroke="black" points="0,-19.5 0,-38.5 111,-38.5 111,-19.5 0,-19.5"/>
<text text-anchor="middle" x="55.5" y="-26.5" font-family="Helvetica,sans-Serif" font-size="10.00">Player::GetActualAge</text>
</a>
</g>
</g>
<!-- Node2 -->
<g id="node2" class="node"><title>Node2</title>
<g id="a_node2"><a xlink:href="../../d3/db1/struct_player.html#a5f9f83256cb4a71aaddc381156e473f5" target="_top" xlink:title=" ">
<polygon fill="white" stroke="black" points="147,-19.5 147,-38.5 253,-38.5 253,-19.5 147,-19.5"/>
<text text-anchor="middle" x="200" y="-26.5" font-family="Helvetica,sans-Serif" font-size="10.00">Player::GetBaseAge</text>
</a>
</g>
</g>
<!-- Node1&#45;&gt;Node2 -->
<g id="edge1" class="edge"><title>Node1&#45;&gt;Node2</title>
<path fill="none" stroke="midnightblue" d="M111.187,-29C119.445,-29 128.018,-29 136.427,-29"/>
<polygon fill="midnightblue" stroke="midnightblue" points="136.571,-32.5001 146.571,-29 136.571,-25.5001 136.571,-32.5001"/>
</g>
<!-- Node3 -->
<g id="node3" class="node"><title>Node3</title>
<g id="a_node3"><a xlink:href="../../d0/d14/struct_party.html#a2e22e5307901cb1acb688185168b6161" target="_top" xlink:title=" ">
<polygon fill="white" stroke="black" points="289,-38.5 289,-57.5 404,-57.5 404,-38.5 289,-38.5"/>
<text text-anchor="middle" x="346.5" y="-45.5" font-family="Helvetica,sans-Serif" font-size="10.00">Party::GetPlayingTime</text>
</a>
</g>
</g>
<!-- Node2&#45;&gt;Node3 -->
<g id="edge2" class="edge"><title>Node2&#45;&gt;Node3</title>
<path fill="none" stroke="midnightblue" d="M253.168,-35.8594C261.419,-36.9443 270.049,-38.0791 278.58,-39.2008"/>
<polygon fill="midnightblue" stroke="midnightblue" points="278.148,-42.6741 288.519,-40.5077 279.061,-35.7339 278.148,-42.6741"/>
</g>
<!-- Node4 -->
<g id="node4" class="node"><title>Node4</title>
<g id="a_node4"><a xlink:href="../../df/dc2/struct_game_time.html#a00951cb2332c791ffd8142e0e9425875" target="_top" xlink:title=" ">
<polygon fill="white" stroke="black" points="291,-0.5 291,-19.5 402,-19.5 402,-0.5 291,-0.5"/>
<text text-anchor="middle" x="346.5" y="-7.5" font-family="Helvetica,sans-Serif" font-size="10.00">GameTime::GetYears</text>
</a>
</g>
</g>
<!-- Node2&#45;&gt;Node4 -->
<g id="edge3" class="edge"><title>Node2&#45;&gt;Node4</title>
<path fill="none" stroke="midnightblue" d="M253.168,-22.1406C262.192,-20.954 271.669,-19.7078 280.974,-18.4843"/>
<polygon fill="midnightblue" stroke="midnightblue" points="281.515,-21.9434 290.974,-17.1695 280.603,-15.0032 281.515,-21.9434"/>
</g>
<!-- Node5 -->
<g id="node5" class="node"><title>Node5</title>
<g id="a_node5"><a xlink:href="../../df/dc2/struct_game_time.html#a07ae29857951b03940de0d2232075558" target="_top" xlink:title=" ">
<polygon fill="white" stroke="black" points="440,-0.5 440,-19.5 558,-19.5 558,-0.5 440,-0.5"/>
<text text-anchor="middle" x="499" y="-7.5" font-family="Helvetica,sans-Serif" font-size="10.00">GameTime::GetMonths</text>
</a>
</g>
</g>
<!-- Node4&#45;&gt;Node5 -->
<g id="edge4" class="edge"><title>Node4&#45;&gt;Node5</title>
<path fill="none" stroke="midnightblue" d="M402.26,-10C411.175,-10 420.506,-10 429.697,-10"/>
<polygon fill="midnightblue" stroke="midnightblue" points="429.986,-13.5001 439.986,-10 429.986,-6.5001 429.986,-13.5001"/>
</g>
<!-- Node6 -->
<g id="node6" class="node"><title>Node6</title>
<g id="a_node6"><a xlink:href="../../df/dc2/struct_game_time.html#abba323570853b3416523a1f751d9434e" target="_top" xlink:title=" ">
<polygon fill="white" stroke="black" points="594,-0.5 594,-19.5 710,-19.5 710,-0.5 594,-0.5"/>
<text text-anchor="middle" x="652" y="-7.5" font-family="Helvetica,sans-Serif" font-size="10.00">GameTime::GetWeeks</text>
</a>
</g>
</g>
<!-- Node5&#45;&gt;Node6 -->
<g id="edge5" class="edge"><title>Node5&#45;&gt;Node6</title>
<path fill="none" stroke="midnightblue" d="M558.381,-10C566.641,-10 575.19,-10 583.603,-10"/>
<polygon fill="midnightblue" stroke="midnightblue" points="583.769,-13.5001 593.769,-10 583.769,-6.5001 583.769,-13.5001"/>
</g>
<!-- Node7 -->
<g id="node7" class="node"><title>Node7</title>
<g id="a_node7"><a xlink:href="../../df/dc2/struct_game_time.html#a63923f44c458d6327dec9c87660700a5" target="_top" xlink:title=" ">
<polygon fill="white" stroke="black" points="746,-0.5 746,-19.5 854,-19.5 854,-0.5 746,-0.5"/>
<text text-anchor="middle" x="800" y="-7.5" font-family="Helvetica,sans-Serif" font-size="10.00">GameTime::GetDays</text>
</a>
</g>
</g>
<!-- Node6&#45;&gt;Node7 -->
<g id="edge6" class="edge"><title>Node6&#45;&gt;Node7</title>
<path fill="none" stroke="midnightblue" d="M710.284,-10C718.576,-10 727.152,-10 735.557,-10"/>
<polygon fill="midnightblue" stroke="midnightblue" points="735.692,-13.5001 745.692,-10 735.692,-6.5001 735.692,-13.5001"/>
</g>
<!-- Node8 -->
<g id="node8" class="node"><title>Node8</title>
<g id="a_node8"><a xlink:href="../../df/dc2/struct_game_time.html#a9f828cfde868d07e1f607171c6809435" target="_top" xlink:title=" ">
<polygon fill="white" stroke="black" points="890,-0.5 890,-19.5 1001,-19.5 1001,-0.5 890,-0.5"/>
<text text-anchor="middle" x="945.5" y="-7.5" font-family="Helvetica,sans-Serif" font-size="10.00">GameTime::GetHours</text>
</a>
</g>
</g>
<!-- Node7&#45;&gt;Node8 -->
<g id="edge7" class="edge"><title>Node7&#45;&gt;Node8</title>
<path fill="none" stroke="midnightblue" d="M854.026,-10C862.405,-10 871.149,-10 879.757,-10"/>
<polygon fill="midnightblue" stroke="midnightblue" points="879.771,-13.5001 889.771,-10 879.771,-6.5001 879.771,-13.5001"/>
</g>
<!-- Node9 -->
<g id="node9" class="node"><title>Node9</title>
<g id="a_node9"><a xlink:href="../../df/dc2/struct_game_time.html#a6957230697b66012e8207c587aa65e33" target="_top" xlink:title=" ">
<polygon fill="white" stroke="black" points="1037,-0.5 1037,-19.5 1157,-19.5 1157,-0.5 1037,-0.5"/>
<text text-anchor="middle" x="1097" y="-7.5" font-family="Helvetica,sans-Serif" font-size="10.00">GameTime::GetMinutes</text>
</a>
</g>
</g>
<!-- Node8&#45;&gt;Node9 -->
<g id="edge8" class="edge"><title>Node8&#45;&gt;Node9</title>
<path fill="none" stroke="midnightblue" d="M1001.32,-10C1009.65,-10 1018.33,-10 1026.91,-10"/>
<polygon fill="midnightblue" stroke="midnightblue" points="1026.91,-13.5001 1036.91,-10 1026.91,-6.5001 1026.91,-13.5001"/>
</g>
<!-- Node10 -->
<g id="node10" class="node"><title>Node10</title>
<g id="a_node10"><a xlink:href="../../df/dc2/struct_game_time.html#a719def6268b14c320733038cb701d1a6" target="_top" xlink:title=" ">
<polygon fill="white" stroke="black" points="1193,-0.5 1193,-19.5 1317,-19.5 1317,-0.5 1193,-0.5"/>
<text text-anchor="middle" x="1255" y="-7.5" font-family="Helvetica,sans-Serif" font-size="10.00">GameTime::GetSeconds</text>
</a>
</g>
</g>
<!-- Node9&#45;&gt;Node10 -->
<g id="edge9" class="edge"><title>Node9&#45;&gt;Node10</title>
<path fill="none" stroke="midnightblue" d="M1157.42,-10C1165.69,-10 1174.25,-10 1182.7,-10"/>
<polygon fill="midnightblue" stroke="midnightblue" points="1182.93,-13.5001 1192.93,-10 1182.93,-6.5001 1182.93,-13.5001"/>
</g>
</g>
</svg>
