<?xml version="1.0" encoding="UTF-8" standalone="no"?>
<!DOCTYPE svg PUBLIC "-//W3C//DTD SVG 1.1//EN"
 "http://www.w3.org/Graphics/SVG/1.1/DTD/svg11.dtd">
<!-- Generated by graphviz version 2.38.0 (20140413.2041)
 -->
<!-- Title: Player::CanEquip_RaceAndAlignmentCheck Pages: 1 -->
<svg width="613pt" height="344pt"
 viewBox="0.00 0.00 613.00 343.50" xmlns="http://www.w3.org/2000/svg" xmlns:xlink="http://www.w3.org/1999/xlink">
<g id="graph0" class="graph" transform="scale(1 1) rotate(0) translate(4 339.5)">
<title>Player::CanEquip_RaceAndAlignmentCheck</title>
<polygon fill="white" stroke="none" points="-4,4 -4,-339.5 609,-339.5 609,4 -4,4"/>
<!-- Node1 -->
<g id="node1" class="node"><title>Node1</title>
<g id="a_node1"><a xlink:title=" ">
<polygon fill="#bfbfbf" stroke="black" points="0,-158.5 0,-188.5 137,-188.5 137,-158.5 0,-158.5"/>
<text text-anchor="start" x="8" y="-176.5" font-family="Helvetica,sans-Serif" font-size="10.00">Player::CanEquip_RaceAnd</text>
<text text-anchor="middle" x="68.5" y="-165.5" font-family="Helvetica,sans-Serif" font-size="10.00">AlignmentCheck</text>
</a>
</g>
</g>
<!-- Node2 -->
<g id="node2" class="node"><title>Node2</title>
<g id="a_node2"><a xlink:href="../../d3/db1/struct_player.html#a0cc500ed88ed085b4671ce090f88bf4c" target="_top" xlink:title=" ">
<polygon fill="white" stroke="black" points="202,-316 202,-335 292,-335 292,-316 202,-316"/>
<text text-anchor="middle" x="247" y="-323" font-family="Helvetica,sans-Serif" font-size="10.00">Player::IsFemale</text>
</a>
</g>
</g>
<!-- Node1&#45;&gt;Node2 -->
<g id="edge1" class="edge"><title>Node1&#45;&gt;Node2</title>
<path fill="none" stroke="midnightblue" d="M77.9236,-188.908C93.3202,-215.67 128.551,-270.814 173,-301.5 179.189,-305.773 186.193,-309.328 193.352,-312.274"/>
<polygon fill="midnightblue" stroke="midnightblue" points="192.555,-315.712 203.148,-315.923 194.999,-309.152 192.555,-315.712"/>
</g>
<!-- Node3 -->
<g id="node3" class="node"><title>Node3</title>
<g id="a_node3"><a xlink:href="../../d3/db1/struct_player.html#aa47799cb4930ee0db183fcf7eae1232b" target="_top" xlink:title=" ">
<polygon fill="white" stroke="black" points="363.5,-297 363.5,-316 442.5,-316 442.5,-297 363.5,-297"/>
<text text-anchor="middle" x="403" y="-304" font-family="Helvetica,sans-Serif" font-size="10.00">Player::IsMale</text>
</a>
</g>
</g>
<!-- Node1&#45;&gt;Node3 -->
<g id="edge4" class="edge"><title>Node1&#45;&gt;Node3</title>
<path fill="none" stroke="midnightblue" d="M81.015,-188.561C98.399,-210.112 133.535,-249.265 173,-268.5 230.544,-296.547 304.843,-304.419 352.95,-306.354"/>
<polygon fill="midnightblue" stroke="midnightblue" points="352.99,-309.857 363.1,-306.689 353.221,-302.861 352.99,-309.857"/>
</g>
<!-- Node5 -->
<g id="node5" class="node"><title>Node5</title>
<g id="a_node5"><a xlink:href="../../d0/d14/struct_party.html#a476ed4592bd47bac04fd270bad96d5d1" target="_top" xlink:title=" ">
<polygon fill="white" stroke="black" points="201,-240 201,-259 293,-259 293,-240 201,-240"/>
<text text-anchor="middle" x="247" y="-247" font-family="Helvetica,sans-Serif" font-size="10.00">Party::IsPartyEvil</text>
</a>
</g>
</g>
<!-- Node1&#45;&gt;Node5 -->
<g id="edge5" class="edge"><title>Node1&#45;&gt;Node5</title>
<path fill="none" stroke="midnightblue" d="M92.9285,-188.617C113.385,-201.267 144.223,-219.039 173,-230.5 179.212,-232.974 185.851,-235.217 192.498,-237.223"/>
<polygon fill="midnightblue" stroke="midnightblue" points="191.619,-240.612 202.195,-239.991 193.54,-233.881 191.619,-240.612"/>
</g>
<!-- Node7 -->
<g id="node7" class="node"><title>Node7</title>
<g id="a_node7"><a xlink:href="../../d0/d14/struct_party.html#ade5bcd0d435dc1261e2950597eef163e" target="_top" xlink:title=" ">
<polygon fill="white" stroke="black" points="197,-202 197,-221 297,-221 297,-202 197,-202"/>
<text text-anchor="middle" x="247" y="-209" font-family="Helvetica,sans-Serif" font-size="10.00">Party::IsPartyGood</text>
</a>
</g>
</g>
<!-- Node1&#45;&gt;Node7 -->
<g id="edge7" class="edge"><title>Node1&#45;&gt;Node7</title>
<path fill="none" stroke="midnightblue" d="M137.235,-188.083C155.276,-191.967 174.528,-196.112 191.742,-199.818"/>
<polygon fill="midnightblue" stroke="midnightblue" points="191.106,-203.261 201.618,-201.945 192.579,-196.418 191.106,-203.261"/>
</g>
<!-- Node8 -->
<g id="node8" class="node"><title>Node8</title>
<g id="a_node8"><a xlink:href="../../d3/db1/struct_player.html#aa292521e5b1aee91f87cf6314fd4fc16" target="_top" xlink:title=" ">
<polygon fill="white" stroke="black" points="195,-164 195,-183 299,-183 299,-164 195,-164"/>
<text text-anchor="middle" x="247" y="-171" font-family="Helvetica,sans-Serif" font-size="10.00">Player::IsRaceDwarf</text>
</a>
</g>
</g>
<!-- Node1&#45;&gt;Node8 -->
<g id="edge9" class="edge"><title>Node1&#45;&gt;Node8</title>
<path fill="none" stroke="midnightblue" d="M137.235,-173.5C152.795,-173.5 169.256,-173.5 184.535,-173.5"/>
<polygon fill="midnightblue" stroke="midnightblue" points="184.897,-177 194.897,-173.5 184.897,-170 184.897,-177"/>
</g>
<!-- Node10 -->
<g id="node10" class="node"><title>Node10</title>
<g id="a_node10"><a xlink:href="../../d3/db1/struct_player.html#afc7affee7043a469d9f49d303623232e" target="_top" xlink:title=" ">
<polygon fill="white" stroke="black" points="201,-126 201,-145 293,-145 293,-126 201,-126"/>
<text text-anchor="middle" x="247" y="-133" font-family="Helvetica,sans-Serif" font-size="10.00">Player::IsRaceElf</text>
</a>
</g>
</g>
<!-- Node1&#45;&gt;Node10 -->
<g id="edge11" class="edge"><title>Node1&#45;&gt;Node10</title>
<path fill="none" stroke="midnightblue" d="M137.235,-158.917C155.276,-155.033 174.528,-150.888 191.742,-147.182"/>
<polygon fill="midnightblue" stroke="midnightblue" points="192.579,-150.582 201.618,-145.055 191.106,-143.739 192.579,-150.582"/>
</g>
<!-- Node11 -->
<g id="node11" class="node"><title>Node11</title>
<g id="a_node11"><a xlink:href="../../d3/db1/struct_player.html#af3523a4fd48c77e35f37fd292c6716fe" target="_top" xlink:title=" ">
<polygon fill="white" stroke="black" points="193,-88 193,-107 301,-107 301,-88 193,-88"/>
<text text-anchor="middle" x="247" y="-95" font-family="Helvetica,sans-Serif" font-size="10.00">Player::IsRaceGoblin</text>
</a>
</g>
</g>
<!-- Node1&#45;&gt;Node11 -->
<g id="edge13" class="edge"><title>Node1&#45;&gt;Node11</title>
<path fill="none" stroke="midnightblue" d="M92.9285,-158.383C113.385,-145.733 144.223,-127.961 173,-116.5 179.212,-114.026 185.851,-111.783 192.498,-109.777"/>
<polygon fill="midnightblue" stroke="midnightblue" points="193.54,-113.119 202.195,-107.009 191.619,-106.388 193.54,-113.119"/>
</g>
<!-- Node12 -->
<g id="node12" class="node"><title>Node12</title>
<g id="a_node12"><a xlink:href="../../d3/db1/struct_player.html#a86a8a0628813c4d9e76ef2dc0ca6fcbc" target="_top" xlink:title=" ">
<polygon fill="white" stroke="black" points="191.5,-50 191.5,-69 302.5,-69 302.5,-50 191.5,-50"/>
<text text-anchor="middle" x="247" y="-57" font-family="Helvetica,sans-Serif" font-size="10.00">Player::IsRaceHuman</text>
</a>
</g>
</g>
<!-- Node1&#45;&gt;Node12 -->
<g id="edge15" class="edge"><title>Node1&#45;&gt;Node12</title>
<path fill="none" stroke="midnightblue" d="M81.8509,-158.199C99.727,-137.08 134.871,-99.2615 173,-78.5 177.234,-76.1946 181.76,-74.1593 186.406,-72.3642"/>
<polygon fill="midnightblue" stroke="midnightblue" points="187.762,-75.5983 196.057,-69.0071 185.462,-68.9869 187.762,-75.5983"/>
</g>
<!-- Node13 -->
<g id="node13" class="node"><title>Node13</title>
<g id="a_node13"><a xlink:href="../../d3/db1/struct_player.html#acbac49bd56895674025d7999808bbf0c" target="_top" xlink:title=" ">
<polygon fill="white" stroke="black" points="173,-0.5 173,-30.5 321,-30.5 321,-0.5 173,-0.5"/>
<text text-anchor="start" x="181" y="-18.5" font-family="Helvetica,sans-Serif" font-size="10.00">Player::NothingOrJustBlasters</text>
<text text-anchor="middle" x="247" y="-7.5" font-family="Helvetica,sans-Serif" font-size="10.00">Equipped</text>
</a>
</g>
</g>
<!-- Node1&#45;&gt;Node13 -->
<g id="edge17" class="edge"><title>Node1&#45;&gt;Node13</title>
<path fill="none" stroke="midnightblue" d="M77.3309,-158.409C92.2852,-131.017 127.509,-72.9572 173,-40.5 175.672,-38.5937 178.501,-36.8234 181.432,-35.1804"/>
<polygon fill="midnightblue" stroke="midnightblue" points="183.123,-38.2479 190.481,-30.6248 179.975,-31.9956 183.123,-38.2479"/>
</g>
<!-- Node2&#45;&gt;Node3 -->
<g id="edge2" class="edge"><title>Node2&#45;&gt;Node3</title>
<path fill="none" stroke="midnightblue" d="M292.13,-320.055C311.279,-317.693 333.767,-314.918 353.393,-312.497"/>
<polygon fill="midnightblue" stroke="midnightblue" points="353.866,-315.965 363.362,-311.267 353.009,-309.018 353.866,-315.965"/>
</g>
<!-- Node4 -->
<g id="node4" class="node"><title>Node4</title>
<g id="a_node4"><a xlink:href="../../d3/db1/struct_player.html#a3ba480dfe47baa66a692e4b1ff4308b5" target="_top" xlink:title=" ">
<polygon fill="white" stroke="black" points="485,-297 485,-316 605,-316 605,-297 485,-297"/>
<text text-anchor="middle" x="545" y="-304" font-family="Helvetica,sans-Serif" font-size="10.00">Player::GetSexByVoice</text>
</a>
</g>
</g>
<!-- Node3&#45;&gt;Node4 -->
<g id="edge3" class="edge"><title>Node3&#45;&gt;Node4</title>
<path fill="none" stroke="midnightblue" d="M442.626,-306.5C452.603,-306.5 463.651,-306.5 474.678,-306.5"/>
<polygon fill="midnightblue" stroke="midnightblue" points="474.766,-310 484.766,-306.5 474.766,-303 474.766,-310"/>
</g>
<!-- Node6 -->
<g id="node6" class="node"><title>Node6</title>
<g id="a_node6"><a xlink:href="../../da/db4/_party_8cpp.html#aa98e661066fa419e8f3b18a3fb7c1bb2" target="_top" xlink:title=" ">
<polygon fill="white" stroke="black" points="357,-221 357,-240 449,-240 449,-221 357,-221"/>
<text text-anchor="middle" x="403" y="-228" font-family="Helvetica,sans-Serif" font-size="10.00">_449B57_test_bit</text>
</a>
</g>
</g>
<!-- Node5&#45;&gt;Node6 -->
<g id="edge6" class="edge"><title>Node5&#45;&gt;Node6</title>
<path fill="none" stroke="midnightblue" d="M293.372,-243.902C310.134,-241.834 329.316,-239.468 346.85,-237.304"/>
<polygon fill="midnightblue" stroke="midnightblue" points="347.456,-240.756 356.952,-236.058 346.599,-233.809 347.456,-240.756"/>
</g>
<!-- Node7&#45;&gt;Node6 -->
<g id="edge8" class="edge"><title>Node7&#45;&gt;Node6</title>
<path fill="none" stroke="midnightblue" d="M297.15,-217.564C312.891,-219.506 330.428,-221.67 346.585,-223.663"/>
<polygon fill="midnightblue" stroke="midnightblue" points="346.617,-227.193 356.97,-224.944 347.474,-220.246 346.617,-227.193"/>
</g>
<!-- Node9 -->
<g id="node9" class="node"><title>Node9</title>
<g id="a_node9"><a xlink:href="../../d3/db1/struct_player.html#a5581240406c08c169c7e71d5f9ad42c8" target="_top" xlink:title=" ">
<polygon fill="white" stroke="black" points="358.5,-107 358.5,-126 447.5,-126 447.5,-107 358.5,-107"/>
<text text-anchor="middle" x="403" y="-114" font-family="Helvetica,sans-Serif" font-size="10.00">Player::GetRace</text>
</a>
</g>
</g>
<!-- Node8&#45;&gt;Node9 -->
<g id="edge10" class="edge"><title>Node8&#45;&gt;Node9</title>
<path fill="none" stroke="midnightblue" d="M290.097,-163.954C300.322,-161.25 311.146,-158.059 321,-154.5 339.51,-147.814 359.54,-138.437 375.05,-130.672"/>
<polygon fill="midnightblue" stroke="midnightblue" points="376.744,-133.737 384.069,-126.083 373.57,-127.498 376.744,-133.737"/>
</g>
<!-- Node10&#45;&gt;Node9 -->
<g id="edge12" class="edge"><title>Node10&#45;&gt;Node9</title>
<path fill="none" stroke="midnightblue" d="M293.372,-129.902C310.585,-127.779 330.35,-125.34 348.261,-123.13"/>
<polygon fill="midnightblue" stroke="midnightblue" points="348.779,-126.593 358.275,-121.895 347.922,-119.646 348.779,-126.593"/>
</g>
<!-- Node11&#45;&gt;Node9 -->
<g id="edge14" class="edge"><title>Node11&#45;&gt;Node9</title>
<path fill="none" stroke="midnightblue" d="M301.43,-104.092C316.535,-105.956 332.979,-107.984 348.111,-109.851"/>
<polygon fill="midnightblue" stroke="midnightblue" points="347.991,-113.363 358.344,-111.114 348.848,-106.416 347.991,-113.363"/>
</g>
<!-- Node12&#45;&gt;Node9 -->
<g id="edge16" class="edge"><title>Node12&#45;&gt;Node9</title>
<path fill="none" stroke="midnightblue" d="M290.097,-69.0462C300.322,-71.7505 311.146,-74.9407 321,-78.5 339.51,-85.1864 359.54,-94.5626 375.05,-102.328"/>
<polygon fill="midnightblue" stroke="midnightblue" points="373.57,-105.502 384.069,-106.917 376.744,-99.2628 373.57,-105.502"/>
</g>
</g>
</svg>
