<?xml version="1.0" encoding="UTF-8" standalone="no"?>
<!DOCTYPE svg PUBLIC "-//W3C//DTD SVG 1.1//EN"
 "http://www.w3.org/Graphics/SVG/1.1/DTD/svg11.dtd">
<!-- Generated by graphviz version 2.38.0 (20140413.2041)
 -->
<!-- Title: Player::GetMerchant Pages: 1 -->
<svg width="494pt" height="142pt"
 viewBox="0.00 0.00 494.00 142.00" xmlns="http://www.w3.org/2000/svg" xmlns:xlink="http://www.w3.org/1999/xlink">
<g id="graph0" class="graph" transform="scale(1 1) rotate(0) translate(4 138)">
<title>Player::GetMerchant</title>
<polygon fill="white" stroke="none" points="-4,4 -4,-138 490,-138 490,4 -4,4"/>
<!-- Node1 -->
<g id="node1" class="node"><title>Node1</title>
<g id="a_node1"><a xlink:title=" ">
<polygon fill="#bfbfbf" stroke="black" points="379,-57.5 379,-76.5 486,-76.5 486,-57.5 379,-57.5"/>
<text text-anchor="middle" x="432.5" y="-64.5" font-family="Helvetica,sans-Serif" font-size="10.00">Player::GetMerchant</text>
</a>
</g>
</g>
<!-- Node2 -->
<g id="node2" class="node"><title>Node2</title>
<g id="a_node2"><a xlink:href="../../d3/db1/struct_player.html#a13646c170334a5c86a6eaae9a98c6abb" target="_top" xlink:title=" ">
<polygon fill="white" stroke="black" points="212,-114.5 212,-133.5 331,-133.5 331,-114.5 212,-114.5"/>
<text text-anchor="middle" x="271.5" y="-121.5" font-family="Helvetica,sans-Serif" font-size="10.00">Player::GetBuyingPrice</text>
</a>
</g>
</g>
<!-- Node1&#45;&gt;Node2 -->
<g id="edge1" class="edge"><title>Node1&#45;&gt;Node2</title>
<path fill="none" stroke="midnightblue" d="M402.037,-80.9019C385.018,-88.6143 363.069,-98.0267 343,-105 333.062,-108.453 322.157,-111.665 311.957,-114.428"/>
<polygon fill="midnightblue" stroke="midnightblue" points="403.807,-83.9405 411.436,-76.5887 400.888,-77.5784 403.807,-83.9405"/>
</g>
<!-- Node5 -->
<g id="node5" class="node"><title>Node5</title>
<g id="a_node5"><a xlink:href="../../d3/db1/struct_player.html#a7a8828fd116854643600712ae359a535" target="_top" xlink:title=" ">
<polygon fill="white" stroke="black" points="200,-76.5 200,-95.5 343,-95.5 343,-76.5 200,-76.5"/>
<text text-anchor="middle" x="271.5" y="-83.5" font-family="Helvetica,sans-Serif" font-size="10.00">Player::GetPriceIdentification</text>
</a>
</g>
</g>
<!-- Node1&#45;&gt;Node5 -->
<g id="edge4" class="edge"><title>Node1&#45;&gt;Node5</title>
<path fill="none" stroke="midnightblue" d="M368.848,-74.4867C360.397,-75.4965 351.68,-76.5382 343.103,-77.5631"/>
<polygon fill="midnightblue" stroke="midnightblue" points="369.483,-77.9359 378.997,-73.274 368.652,-70.9853 369.483,-77.9359"/>
</g>
<!-- Node6 -->
<g id="node6" class="node"><title>Node6</title>
<g id="a_node6"><a xlink:href="../../d3/db1/struct_player.html#acf5ad3e561bae7f89dd254e81d36f0e4" target="_top" xlink:title=" ">
<polygon fill="white" stroke="black" points="213.5,-38.5 213.5,-57.5 329.5,-57.5 329.5,-38.5 213.5,-38.5"/>
<text text-anchor="middle" x="271.5" y="-45.5" font-family="Helvetica,sans-Serif" font-size="10.00">Player::GetPriceRepair</text>
</a>
</g>
</g>
<!-- Node1&#45;&gt;Node6 -->
<g id="edge7" class="edge"><title>Node1&#45;&gt;Node6</title>
<path fill="none" stroke="midnightblue" d="M368.791,-59.5065C355.865,-57.9618 342.318,-56.343 329.603,-54.8237"/>
<polygon fill="midnightblue" stroke="midnightblue" points="368.652,-63.0147 378.997,-60.726 369.483,-56.0641 368.652,-63.0147"/>
</g>
<!-- Node7 -->
<g id="node7" class="node"><title>Node7</title>
<g id="a_node7"><a xlink:href="../../d3/db1/struct_player.html#aee04c8c1dcf3861b3b1ca1012efaf507" target="_top" xlink:title=" ">
<polygon fill="white" stroke="black" points="219,-0.5 219,-19.5 324,-19.5 324,-0.5 219,-0.5"/>
<text text-anchor="middle" x="271.5" y="-7.5" font-family="Helvetica,sans-Serif" font-size="10.00">Player::GetPriceSell</text>
</a>
</g>
</g>
<!-- Node1&#45;&gt;Node7 -->
<g id="edge10" class="edge"><title>Node1&#45;&gt;Node7</title>
<path fill="none" stroke="midnightblue" d="M402.037,-53.0981C385.018,-45.3857 363.069,-35.9733 343,-29 333.062,-25.5468 322.157,-22.3355 311.957,-19.5723"/>
<polygon fill="midnightblue" stroke="midnightblue" points="400.888,-56.4216 411.436,-57.4113 403.807,-50.0595 400.888,-56.4216"/>
</g>
<!-- Node3 -->
<g id="node3" class="node"><title>Node3</title>
<g id="a_node3"><a xlink:href="../../d5/d0b/_g_u_i_window_8h.html#adf1c0fa21cbb380f807de62d5a9a3fce" target="_top" xlink:title=" ">
<polygon fill="white" stroke="black" points="31.5,-38.5 31.5,-57.5 132.5,-57.5 132.5,-38.5 31.5,-38.5"/>
<text text-anchor="middle" x="82" y="-45.5" font-family="Helvetica,sans-Serif" font-size="10.00">BuildDialogueString</text>
</a>
</g>
</g>
<!-- Node2&#45;&gt;Node3 -->
<g id="edge2" class="edge"><title>Node2&#45;&gt;Node3</title>
<path fill="none" stroke="midnightblue" d="M211.661,-110.859C207.605,-109.136 203.674,-107.192 200,-105 180.02,-93.0822 184.173,-78.5881 164,-67 154.481,-61.532 143.475,-57.6361 132.704,-54.8607"/>
<polygon fill="midnightblue" stroke="midnightblue" points="210.698,-114.237 221.29,-114.494 213.17,-107.688 210.698,-114.237"/>
</g>
<!-- Node4 -->
<g id="node4" class="node"><title>Node4</title>
<g id="a_node4"><a xlink:href="../../d3/db1/struct_player.html#a66f34d3182ee6f69f54a5969bbda2229" target="_top" xlink:title=" ">
<polygon fill="white" stroke="black" points="0,-76.5 0,-95.5 164,-95.5 164,-76.5 0,-76.5"/>
<text text-anchor="middle" x="82" y="-83.5" font-family="Helvetica,sans-Serif" font-size="10.00">Player::SelectPhrasesTransaction</text>
</a>
</g>
</g>
<!-- Node2&#45;&gt;Node4 -->
<g id="edge3" class="edge"><title>Node2&#45;&gt;Node4</title>
<path fill="none" stroke="midnightblue" d="M213.216,-112.39C186.549,-106.986 155.219,-100.636 129.974,-95.5201"/>
<polygon fill="midnightblue" stroke="midnightblue" points="212.69,-115.855 223.186,-114.411 214.08,-108.994 212.69,-115.855"/>
</g>
<!-- Node5&#45;&gt;Node3 -->
<g id="edge5" class="edge"><title>Node5&#45;&gt;Node3</title>
<path fill="none" stroke="midnightblue" d="M213.216,-74.3905C186.549,-68.986 155.219,-62.6365 129.974,-57.5201"/>
<polygon fill="midnightblue" stroke="midnightblue" points="212.69,-77.8549 223.186,-76.411 214.08,-70.9944 212.69,-77.8549"/>
</g>
<!-- Node5&#45;&gt;Node4 -->
<g id="edge6" class="edge"><title>Node5&#45;&gt;Node4</title>
<path fill="none" stroke="midnightblue" d="M189.691,-86C181.263,-86 172.693,-86 164.26,-86"/>
<polygon fill="midnightblue" stroke="midnightblue" points="189.882,-89.5001 199.881,-86 189.881,-82.5001 189.882,-89.5001"/>
</g>
<!-- Node6&#45;&gt;Node3 -->
<g id="edge8" class="edge"><title>Node6&#45;&gt;Node3</title>
<path fill="none" stroke="midnightblue" d="M203.324,-48C180.048,-48 154.389,-48 132.766,-48"/>
<polygon fill="midnightblue" stroke="midnightblue" points="203.48,-51.5001 213.48,-48 203.48,-44.5001 203.48,-51.5001"/>
</g>
<!-- Node6&#45;&gt;Node4 -->
<g id="edge9" class="edge"><title>Node6&#45;&gt;Node4</title>
<path fill="none" stroke="midnightblue" d="M213.216,-59.6095C186.549,-65.014 155.219,-71.3635 129.974,-76.4799"/>
<polygon fill="midnightblue" stroke="midnightblue" points="214.08,-63.0056 223.186,-57.589 212.69,-56.1451 214.08,-63.0056"/>
</g>
<!-- Node7&#45;&gt;Node3 -->
<g id="edge11" class="edge"><title>Node7&#45;&gt;Node3</title>
<path fill="none" stroke="midnightblue" d="M213.216,-21.6095C186.549,-27.014 155.219,-33.3635 129.974,-38.4799"/>
<polygon fill="midnightblue" stroke="midnightblue" points="214.08,-25.0056 223.186,-19.589 212.69,-18.1451 214.08,-25.0056"/>
</g>
<!-- Node7&#45;&gt;Node4 -->
<g id="edge13" class="edge"><title>Node7&#45;&gt;Node4</title>
<path fill="none" stroke="midnightblue" d="M211.661,-23.1408C207.605,-24.8643 203.674,-26.8084 200,-29 180.02,-40.9178 184.173,-55.4119 164,-67 157.237,-70.8851 149.722,-73.9766 142.075,-76.4364"/>
<polygon fill="midnightblue" stroke="midnightblue" points="213.17,-26.3123 221.29,-19.5064 210.698,-19.7633 213.17,-26.3123"/>
</g>
<!-- Node8 -->
<g id="node8" class="node"><title>Node8</title>
<g id="a_node8"><a xlink:href="../../d3/db1/struct_player.html#a01fc363e4dae8c05c1867b1bfbabdcac" target="_top" xlink:title=" ">
<polygon fill="white" stroke="black" points="26.5,-0.5 26.5,-19.5 137.5,-19.5 137.5,-0.5 26.5,-0.5"/>
<text text-anchor="middle" x="82" y="-7.5" font-family="Helvetica,sans-Serif" font-size="10.00">Player::SalesProcess</text>
</a>
</g>
</g>
<!-- Node7&#45;&gt;Node8 -->
<g id="edge12" class="edge"><title>Node7&#45;&gt;Node8</title>
<path fill="none" stroke="midnightblue" d="M208.767,-10C185.757,-10 159.824,-10 137.509,-10"/>
<polygon fill="midnightblue" stroke="midnightblue" points="208.768,-13.5001 218.768,-10 208.768,-6.5001 208.768,-13.5001"/>
</g>
</g>
</svg>
