<?xml version="1.0" encoding="UTF-8" standalone="no"?>
<!DOCTYPE svg PUBLIC "-//W3C//DTD SVG 1.1//EN"
 "http://www.w3.org/Graphics/SVG/1.1/DTD/svg11.dtd">
<!-- Generated by graphviz version 2.38.0 (20140413.2041)
 -->
<!-- Title: Player::GetDisarmTrap Pages: 1 -->
<svg width="1006pt" height="708pt"
 viewBox="0.00 0.00 1006.00 708.44" xmlns="http://www.w3.org/2000/svg" xmlns:xlink="http://www.w3.org/1999/xlink">
<g id="graph0" class="graph" transform="scale(1 1) rotate(0) translate(4 704.439)">
<title>Player::GetDisarmTrap</title>
<polygon fill="white" stroke="none" points="-4,4 -4,-704.439 1002,-704.439 1002,4 -4,4"/>
<!-- Node1 -->
<g id="node1" class="node"><title>Node1</title>
<g id="a_node1"><a xlink:title=" ">
<polygon fill="#bfbfbf" stroke="black" points="0,-310.5 0,-329.5 116,-329.5 116,-310.5 0,-310.5"/>
<text text-anchor="middle" x="58" y="-317.5" font-family="Helvetica,sans-Serif" font-size="10.00">Player::GetDisarmTrap</text>
</a>
</g>
</g>
<!-- Node2 -->
<g id="node2" class="node"><title>Node2</title>
<g id="a_node2"><a xlink:href="../../d3/db1/struct_player.html#aaf2aac22893a96cea798c0f9868d24dd" target="_top" xlink:title=" ">
<polygon fill="white" stroke="black" points="152,-329.5 152,-348.5 286,-348.5 286,-329.5 152,-329.5"/>
<text text-anchor="middle" x="219" y="-336.5" font-family="Helvetica,sans-Serif" font-size="10.00">Player::GetActualSkillLevel</text>
</a>
</g>
</g>
<!-- Node1&#45;&gt;Node2 -->
<g id="edge1" class="edge"><title>Node1&#45;&gt;Node2</title>
<path fill="none" stroke="midnightblue" d="M116.403,-326.859C124.65,-327.845 133.242,-328.872 141.784,-329.892"/>
<polygon fill="midnightblue" stroke="midnightblue" points="141.419,-333.374 151.764,-331.085 142.25,-326.423 141.419,-333.374"/>
</g>
<!-- Node18 -->
<g id="node18" class="node"><title>Node18</title>
<g id="a_node18"><a xlink:href="../../d3/db1/struct_player.html#ad1457d0afb7d7ecfd97452b6e8baaf79" target="_top" xlink:title=" ">
<polygon fill="white" stroke="black" points="525,-633 525,-663 658,-663 658,-633 525,-633"/>
<text text-anchor="start" x="533" y="-651" font-family="Helvetica,sans-Serif" font-size="10.00">Player::HasEnchantedItem</text>
<text text-anchor="middle" x="591.5" y="-640" font-family="Helvetica,sans-Serif" font-size="10.00">Equipped</text>
</a>
</g>
</g>
<!-- Node1&#45;&gt;Node18 -->
<g id="edge36" class="edge"><title>Node1&#45;&gt;Node18</title>
<path fill="none" stroke="midnightblue" d="M70.2723,-329.627C118.978,-370.775 317.418,-533.832 506,-623 510.927,-625.33 516.119,-627.495 521.407,-629.497"/>
<polygon fill="midnightblue" stroke="midnightblue" points="520.398,-632.853 530.993,-632.924 522.755,-626.262 520.398,-632.853"/>
</g>
<!-- Node25 -->
<g id="node25" class="node"><title>Node25</title>
<g id="a_node25"><a xlink:href="../../d3/db1/struct_player.html#a7934658474de6dec6ee37ca7123f95de" target="_top" xlink:title=" ">
<polygon fill="white" stroke="black" points="322,-250.5 322,-269.5 470,-269.5 470,-250.5 322,-250.5"/>
<text text-anchor="middle" x="396" y="-257.5" font-family="Helvetica,sans-Serif" font-size="10.00">Player::GetActualSkillMastery</text>
</a>
</g>
</g>
<!-- Node1&#45;&gt;Node25 -->
<g id="edge33" class="edge"><title>Node1&#45;&gt;Node25</title>
<path fill="none" stroke="midnightblue" d="M116.432,-310.462C162.358,-302.756 228.368,-291.501 286,-281 302.486,-277.996 320.348,-274.61 336.749,-271.448"/>
<polygon fill="midnightblue" stroke="midnightblue" points="337.594,-274.849 346.747,-269.514 336.264,-267.977 337.594,-274.849"/>
</g>
<!-- Node26 -->
<g id="node26" class="node"><title>Node26</title>
<g id="a_node26"><a xlink:href="../../d3/db1/struct_player.html#af3cd14dd06d3e627645e4690fb7eaf94" target="_top" xlink:title=" ">
<polygon fill="white" stroke="black" points="159.5,-242 159.5,-272 278.5,-272 278.5,-242 159.5,-242"/>
<text text-anchor="start" x="167.5" y="-260" font-family="Helvetica,sans-Serif" font-size="10.00">Player::GetMultiplierFor</text>
<text text-anchor="middle" x="219" y="-249" font-family="Helvetica,sans-Serif" font-size="10.00">SkillLevel</text>
</a>
</g>
</g>
<!-- Node1&#45;&gt;Node26 -->
<g id="edge34" class="edge"><title>Node1&#45;&gt;Node26</title>
<path fill="none" stroke="midnightblue" d="M83.1487,-310.432C106.252,-301.278 141.736,-287.218 170.507,-275.818"/>
<polygon fill="midnightblue" stroke="midnightblue" points="171.971,-279.003 179.979,-272.065 169.393,-272.495 171.971,-279.003"/>
</g>
<!-- Node3 -->
<g id="node3" class="node"><title>Node3</title>
<g id="a_node3"><a xlink:href="../../d1/d6c/_n_p_c_8cpp.html#a40d19895c574dba82a55ee7b3031f20b" target="_top" xlink:title=" ">
<polygon fill="white" stroke="black" points="331,-328.5 331,-347.5 461,-347.5 461,-328.5 331,-328.5"/>
<text text-anchor="middle" x="396" y="-335.5" font-family="Helvetica,sans-Serif" font-size="10.00">CheckHiredNPCSpeciality</text>
</a>
</g>
</g>
<!-- Node2&#45;&gt;Node3 -->
<g id="edge2" class="edge"><title>Node2&#45;&gt;Node3</title>
<path fill="none" stroke="midnightblue" d="M286.16,-338.622C297.464,-338.557 309.274,-338.49 320.772,-338.424"/>
<polygon fill="midnightblue" stroke="midnightblue" points="320.794,-341.924 330.774,-338.367 320.754,-334.924 320.794,-341.924"/>
</g>
<!-- Node4 -->
<g id="node4" class="node"><title>Node4</title>
<g id="a_node4"><a xlink:href="../../d3/db1/struct_player.html#a475b26d600cd7da0c4682b038cc0d2be" target="_top" xlink:title=" ">
<polygon fill="white" stroke="black" points="337,-366.5 337,-385.5 455,-385.5 455,-366.5 337,-366.5"/>
<text text-anchor="middle" x="396" y="-373.5" font-family="Helvetica,sans-Serif" font-size="10.00">Player::GetItemsBonus</text>
</a>
</g>
</g>
<!-- Node2&#45;&gt;Node4 -->
<g id="edge3" class="edge"><title>Node2&#45;&gt;Node4</title>
<path fill="none" stroke="midnightblue" d="M265.067,-348.528C287.84,-353.343 315.674,-359.228 339.73,-364.314"/>
<polygon fill="midnightblue" stroke="midnightblue" points="339.274,-367.795 349.782,-366.44 340.722,-360.947 339.274,-367.795"/>
</g>
<!-- Node23 -->
<g id="node23" class="node"><title>Node23</title>
<g id="a_node23"><a xlink:href="../../d1/d6c/_n_p_c_8cpp.html#ab0b7197f3a0cdc35557d678ccaacdd7f" target="_top" xlink:title=" ">
<polygon fill="white" stroke="black" points="352,-289.5 352,-308.5 440,-308.5 440,-289.5 352,-289.5"/>
<text text-anchor="middle" x="396" y="-296.5" font-family="Helvetica,sans-Serif" font-size="10.00">PartyHasDragon</text>
</a>
</g>
</g>
<!-- Node2&#45;&gt;Node23 -->
<g id="edge31" class="edge"><title>Node2&#45;&gt;Node23</title>
<path fill="none" stroke="midnightblue" d="M261.917,-329.419C286.376,-323.828 317.429,-316.731 343.385,-310.798"/>
<polygon fill="midnightblue" stroke="midnightblue" points="344.457,-314.143 353.425,-308.503 342.897,-307.319 344.457,-314.143"/>
</g>
<!-- Node5 -->
<g id="node5" class="node"><title>Node5</title>
<g id="a_node5"><a xlink:href="../../d3/db1/struct_player.html#ae55aa4960489ccabd70e862226f2b8a2" target="_top" xlink:title=" ">
<polygon fill="white" stroke="black" points="743,-638.5 743,-657.5 847,-657.5 847,-638.5 743,-638.5"/>
<text text-anchor="middle" x="795" y="-645.5" font-family="Helvetica,sans-Serif" font-size="10.00">Player::GetBowItem</text>
</a>
</g>
</g>
<!-- Node4&#45;&gt;Node5 -->
<g id="edge4" class="edge"><title>Node4&#45;&gt;Node5</title>
<path fill="none" stroke="midnightblue" d="M396.958,-385.747C397.363,-428.78 405.348,-602.723 506,-673 585.58,-728.564 709.278,-685.912 765.025,-661.726"/>
<polygon fill="midnightblue" stroke="midnightblue" points="766.595,-664.858 774.308,-657.594 763.749,-658.463 766.595,-664.858"/>
</g>
<!-- Node7 -->
<g id="node7" class="node"><title>Node7</title>
<g id="a_node7"><a xlink:href="../../d7/d9c/struct_item_gen.html#af8fb15fa18b609796777def550162884" target="_top" xlink:title=" ">
<polygon fill="white" stroke="black" points="526,-480.5 526,-499.5 657,-499.5 657,-480.5 526,-480.5"/>
<text text-anchor="middle" x="591.5" y="-487.5" font-family="Helvetica,sans-Serif" font-size="10.00">ItemGen::GetDamageDice</text>
</a>
</g>
</g>
<!-- Node4&#45;&gt;Node7 -->
<g id="edge6" class="edge"><title>Node4&#45;&gt;Node7</title>
<path fill="none" stroke="midnightblue" d="M404.924,-385.544C421.534,-404.888 462.113,-448.761 506,-471 510.659,-473.361 515.609,-475.431 520.686,-477.245"/>
<polygon fill="midnightblue" stroke="midnightblue" points="519.97,-480.692 530.561,-480.429 522.118,-474.03 519.97,-480.692"/>
</g>
<!-- Node8 -->
<g id="node8" class="node"><title>Node8</title>
<g id="a_node8"><a xlink:href="../../d7/d9c/struct_item_gen.html#a32503e9f2824cb00a91b88d859def49a" target="_top" xlink:title=" ">
<polygon fill="white" stroke="black" points="526.5,-442.5 526.5,-461.5 656.5,-461.5 656.5,-442.5 526.5,-442.5"/>
<text text-anchor="middle" x="591.5" y="-449.5" font-family="Helvetica,sans-Serif" font-size="10.00">ItemGen::GetDamageMod</text>
</a>
</g>
</g>
<!-- Node4&#45;&gt;Node8 -->
<g id="edge7" class="edge"><title>Node4&#45;&gt;Node8</title>
<path fill="none" stroke="midnightblue" d="M412.294,-385.644C432.861,-398.221 470.914,-420.133 506,-433 513.067,-435.592 520.602,-437.897 528.151,-439.927"/>
<polygon fill="midnightblue" stroke="midnightblue" points="527.491,-443.371 538.045,-442.44 529.214,-436.586 527.491,-443.371"/>
</g>
<!-- Node9 -->
<g id="node9" class="node"><title>Node9</title>
<g id="a_node9"><a xlink:href="../../d7/d9c/struct_item_gen.html#a0b7e21cfa48b52596a34ac9ae05ea07e" target="_top" xlink:title=" ">
<polygon fill="white" stroke="black" points="527.5,-404.5 527.5,-423.5 655.5,-423.5 655.5,-404.5 527.5,-404.5"/>
<text text-anchor="middle" x="591.5" y="-411.5" font-family="Helvetica,sans-Serif" font-size="10.00">ItemGen::GetDamageRoll</text>
</a>
</g>
</g>
<!-- Node4&#45;&gt;Node9 -->
<g id="edge8" class="edge"><title>Node4&#45;&gt;Node9</title>
<path fill="none" stroke="midnightblue" d="M445.828,-385.589C472.053,-390.739 504.562,-397.123 532.116,-402.534"/>
<polygon fill="midnightblue" stroke="midnightblue" points="531.536,-405.987 542.023,-404.48 532.885,-399.118 531.536,-405.987"/>
</g>
<!-- Node10 -->
<g id="node10" class="node"><title>Node10</title>
<g id="a_node10"><a xlink:href="../../d3/db1/struct_player.html#aa6da66d9e96bb7cb4c438244e97664e7" target="_top" xlink:title=" ">
<polygon fill="white" stroke="black" points="506,-518.5 506,-537.5 677,-537.5 677,-518.5 506,-518.5"/>
<text text-anchor="middle" x="591.5" y="-525.5" font-family="Helvetica,sans-Serif" font-size="10.00">Player::GetEquippedItemEquipType</text>
</a>
</g>
</g>
<!-- Node4&#45;&gt;Node10 -->
<g id="edge9" class="edge"><title>Node4&#45;&gt;Node10</title>
<path fill="none" stroke="midnightblue" d="M401.86,-385.544C414.974,-410.267 453.658,-476.713 506,-509 509.429,-511.115 513.067,-512.996 516.831,-514.668"/>
<polygon fill="midnightblue" stroke="midnightblue" points="515.814,-518.029 526.402,-518.409 518.362,-511.509 515.814,-518.029"/>
</g>
<!-- Node11 -->
<g id="node11" class="node"><title>Node11</title>
<g id="a_node11"><a xlink:href="../../d7/d9c/struct_item_gen.html#a1aff2db2385ebf047a37787234f745a8" target="_top" xlink:title=" ">
<polygon fill="white" stroke="black" points="725,-366.5 725,-385.5 865,-385.5 865,-366.5 725,-366.5"/>
<text text-anchor="middle" x="795" y="-373.5" font-family="Helvetica,sans-Serif" font-size="10.00">ItemGen::GetItemEquipType</text>
</a>
</g>
</g>
<!-- Node4&#45;&gt;Node11 -->
<g id="edge14" class="edge"><title>Node4&#45;&gt;Node11</title>
<path fill="none" stroke="midnightblue" d="M455.152,-376C523.687,-376 637.92,-376 714.574,-376"/>
<polygon fill="midnightblue" stroke="midnightblue" points="714.664,-379.5 724.664,-376 714.664,-372.5 714.664,-379.5"/>
</g>
<!-- Node12 -->
<g id="node12" class="node"><title>Node12</title>
<g id="a_node12"><a xlink:href="../../d3/db1/struct_player.html#a6809c4b1b0d9d0f1de56f97c7dd2fc68" target="_top" xlink:title=" ">
<polygon fill="white" stroke="black" points="713,-556.5 713,-575.5 877,-575.5 877,-556.5 713,-556.5"/>
<text text-anchor="middle" x="795" y="-563.5" font-family="Helvetica,sans-Serif" font-size="10.00">Player::GetNthEquippedIndexItem</text>
</a>
</g>
</g>
<!-- Node4&#45;&gt;Node12 -->
<g id="edge17" class="edge"><title>Node4&#45;&gt;Node12</title>
<path fill="none" stroke="midnightblue" d="M401.756,-385.801C418.177,-419.209 473.283,-527.628 506,-547 575.945,-588.414 672.888,-584.972 734.529,-576.892"/>
<polygon fill="midnightblue" stroke="midnightblue" points="735.062,-580.352 744.484,-575.506 734.097,-573.418 735.062,-580.352"/>
</g>
<!-- Node13 -->
<g id="node13" class="node"><title>Node13</title>
<g id="a_node13"><a xlink:href="../../d7/d9c/struct_item_gen.html#a0723d1e6e73872c78e50da0e285305fd" target="_top" xlink:title=" ">
<polygon fill="white" stroke="black" points="515.5,-290.5 515.5,-309.5 667.5,-309.5 667.5,-290.5 515.5,-290.5"/>
<text text-anchor="middle" x="591.5" y="-297.5" font-family="Helvetica,sans-Serif" font-size="10.00">ItemGen::GetItemBonusArtifact</text>
</a>
</g>
</g>
<!-- Node4&#45;&gt;Node13 -->
<g id="edge12" class="edge"><title>Node4&#45;&gt;Node13</title>
<path fill="none" stroke="midnightblue" d="M448.72,-366.416C456.136,-363.951 463.46,-360.863 470,-357 490.031,-345.168 485.774,-330.495 506,-319 509.93,-316.767 514.102,-314.796 518.406,-313.056"/>
<polygon fill="midnightblue" stroke="midnightblue" points="519.768,-316.286 527.993,-309.607 517.399,-309.699 519.768,-316.286"/>
</g>
<!-- Node14 -->
<g id="node14" class="node"><title>Node14</title>
<g id="a_node14"><a xlink:href="../../d7/d9c/struct_item_gen.html#a0a1c65b82c0ff9e6f28016b544a982d6" target="_top" xlink:title=" ">
<polygon fill="white" stroke="black" points="514.5,-241 514.5,-271 668.5,-271 668.5,-241 514.5,-241"/>
<text text-anchor="start" x="522.5" y="-259" font-family="Helvetica,sans-Serif" font-size="10.00">ItemGen::GetItemBonusSpecial</text>
<text text-anchor="middle" x="591.5" y="-248" font-family="Helvetica,sans-Serif" font-size="10.00">Enchantment</text>
</a>
</g>
</g>
<!-- Node4&#45;&gt;Node14 -->
<g id="edge13" class="edge"><title>Node4&#45;&gt;Node14</title>
<path fill="none" stroke="midnightblue" d="M454.409,-366.375C460.03,-363.916 465.36,-360.842 470,-357 498.79,-333.165 477.608,-305.307 506,-281 507.983,-279.302 510.077,-277.72 512.258,-276.245"/>
<polygon fill="midnightblue" stroke="midnightblue" points="514.21,-279.158 521.056,-271.072 510.661,-273.124 514.21,-279.158"/>
</g>
<!-- Node15 -->
<g id="node15" class="node"><title>Node15</title>
<g id="a_node15"><a xlink:href="../../d3/db1/struct_player.html#a2fe2e69c33d03d97a7ef57af845489be" target="_top" xlink:title=" ">
<polygon fill="white" stroke="black" points="731,-145.5 731,-164.5 859,-164.5 859,-145.5 731,-145.5"/>
<text text-anchor="middle" x="795" y="-152.5" font-family="Helvetica,sans-Serif" font-size="10.00">Player::GetMainHandItem</text>
</a>
</g>
</g>
<!-- Node4&#45;&gt;Node15 -->
<g id="edge15" class="edge"><title>Node4&#45;&gt;Node15</title>
<path fill="none" stroke="midnightblue" d="M455.056,-368.114C460.699,-365.349 465.856,-361.727 470,-357 555.624,-259.343 408.67,-152.995 506,-67 562.954,-16.6788 604.917,-42.9174 677,-67 718.897,-80.9975 757.832,-116.548 778.516,-137.936"/>
<polygon fill="midnightblue" stroke="midnightblue" points="776.112,-140.489 785.518,-145.365 781.206,-135.688 776.112,-140.489"/>
</g>
<!-- Node16 -->
<g id="node16" class="node"><title>Node16</title>
<g id="a_node16"><a xlink:href="../../d3/db1/struct_player.html#aa21a62746eeab18923a9574f8bbeb1f5" target="_top" xlink:title=" ">
<polygon fill="white" stroke="black" points="735.5,-227.5 735.5,-246.5 854.5,-246.5 854.5,-227.5 735.5,-227.5"/>
<text text-anchor="middle" x="795" y="-234.5" font-family="Helvetica,sans-Serif" font-size="10.00">Player::GetOffHandItem</text>
</a>
</g>
</g>
<!-- Node4&#45;&gt;Node16 -->
<g id="edge18" class="edge"><title>Node4&#45;&gt;Node16</title>
<path fill="none" stroke="midnightblue" d="M455.303,-367.344C460.757,-364.703 465.803,-361.321 470,-357 519.876,-305.645 450.007,-244.607 506,-200 584.11,-137.773 713.796,-194.012 768.458,-222.631"/>
<polygon fill="midnightblue" stroke="midnightblue" points="766.998,-225.819 777.466,-227.456 770.303,-219.649 766.998,-225.819"/>
</g>
<!-- Node17 -->
<g id="node17" class="node"><title>Node17</title>
<g id="a_node17"><a xlink:href="../../d7/d9c/struct_item_gen.html#a964851ef377a08ea081799810094b9a6" target="_top" xlink:title=" ">
<polygon fill="white" stroke="black" points="520,-126.5 520,-145.5 663,-145.5 663,-126.5 520,-126.5"/>
<text text-anchor="middle" x="591.5" y="-133.5" font-family="Helvetica,sans-Serif" font-size="10.00">ItemGen::GetPlayerSkillType</text>
</a>
</g>
</g>
<!-- Node4&#45;&gt;Node17 -->
<g id="edge20" class="edge"><title>Node4&#45;&gt;Node17</title>
<path fill="none" stroke="midnightblue" d="M455.146,-367.704C460.7,-365.004 465.811,-361.51 470,-357 530.569,-291.782 446.156,-225.883 506,-160 509.349,-156.314 513.218,-153.177 517.42,-150.51"/>
<polygon fill="midnightblue" stroke="midnightblue" points="519.293,-153.478 526.455,-145.67 515.987,-147.307 519.293,-153.478"/>
</g>
<!-- Node4&#45;&gt;Node18 -->
<g id="edge21" class="edge"><title>Node4&#45;&gt;Node18</title>
<path fill="none" stroke="midnightblue" d="M402.655,-385.669C415.67,-408.173 448.293,-466.023 470,-517 489.493,-562.777 470.126,-588.525 506,-623 508.956,-625.841 512.219,-628.361 515.692,-630.596"/>
<polygon fill="midnightblue" stroke="midnightblue" points="514.26,-633.804 524.704,-635.586 517.651,-627.68 514.26,-633.804"/>
</g>
<!-- Node19 -->
<g id="node19" class="node"><title>Node19</title>
<g id="a_node19"><a xlink:href="../../d3/db1/struct_player.html#afde75b389a2678ebac44730041d4c94b" target="_top" xlink:title=" ">
<polygon fill="white" stroke="black" points="731.5,-328.5 731.5,-347.5 858.5,-347.5 858.5,-328.5 731.5,-328.5"/>
<text text-anchor="middle" x="795" y="-335.5" font-family="Helvetica,sans-Serif" font-size="10.00">Player::HasItemEquipped</text>
</a>
</g>
</g>
<!-- Node4&#45;&gt;Node19 -->
<g id="edge24" class="edge"><title>Node4&#45;&gt;Node19</title>
<path fill="none" stroke="midnightblue" d="M455.076,-367.117C460.572,-364.519 465.69,-361.209 470,-357 511.667,-316.308 459.503,-266.072 506,-231 566.674,-185.233 606.154,-203.489 677,-231 700.938,-240.295 752.133,-292.88 778.137,-320.714"/>
<polygon fill="midnightblue" stroke="midnightblue" points="775.684,-323.217 785.051,-328.168 780.817,-318.456 775.684,-323.217"/>
</g>
<!-- Node20 -->
<g id="node20" class="node"><title>Node20</title>
<g id="a_node20"><a xlink:href="../../db/d39/struct_items_table.html#a9ce59bdb78130973f350ac3f2bcf0312" target="_top" xlink:title=" ">
<polygon fill="white" stroke="black" points="527,-77 527,-107 656,-107 656,-77 527,-77"/>
<text text-anchor="start" x="535" y="-95" font-family="Helvetica,sans-Serif" font-size="10.00">ItemsTable::IsMaterialNon</text>
<text text-anchor="middle" x="591.5" y="-84" font-family="Helvetica,sans-Serif" font-size="10.00">Common</text>
</a>
</g>
</g>
<!-- Node4&#45;&gt;Node20 -->
<g id="edge25" class="edge"><title>Node4&#45;&gt;Node20</title>
<path fill="none" stroke="midnightblue" d="M455.291,-367.836C460.818,-365.112 465.884,-361.576 470,-357 542.132,-276.808 435.202,-198.372 506,-117 509.427,-113.061 513.441,-109.729 517.826,-106.91"/>
<polygon fill="midnightblue" stroke="midnightblue" points="519.55,-109.957 526.658,-102.1 516.202,-103.809 519.55,-109.957"/>
</g>
<!-- Node21 -->
<g id="node21" class="node"><title>Node21</title>
<g id="a_node21"><a xlink:href="../../db/d39/struct_items_table.html#a82c2132831b7b62f7851168122f7d5e0" target="_top" xlink:title=" ">
<polygon fill="white" stroke="black" points="519.5,-594.5 519.5,-613.5 663.5,-613.5 663.5,-594.5 519.5,-594.5"/>
<text text-anchor="middle" x="591.5" y="-601.5" font-family="Helvetica,sans-Serif" font-size="10.00">ItemsTable::IsMaterialSpecial</text>
</a>
</g>
</g>
<!-- Node4&#45;&gt;Node21 -->
<g id="edge26" class="edge"><title>Node4&#45;&gt;Node21</title>
<path fill="none" stroke="midnightblue" d="M402.028,-385.654C422.878,-425.66 501.662,-576.504 506,-580 511.265,-584.244 517.242,-587.738 523.525,-590.614"/>
<polygon fill="midnightblue" stroke="midnightblue" points="522.32,-593.902 532.904,-594.401 524.942,-587.411 522.32,-593.902"/>
</g>
<!-- Node22 -->
<g id="node22" class="node"><title>Node22</title>
<g id="a_node22"><a xlink:href="../../d3/db1/struct_player.html#a3763c75dd38d3b35f27f1c601bd38632" target="_top" xlink:title=" ">
<polygon fill="white" stroke="black" points="543,-328.5 543,-347.5 640,-347.5 640,-328.5 543,-328.5"/>
<text text-anchor="middle" x="591.5" y="-335.5" font-family="Helvetica,sans-Serif" font-size="10.00">Player::IsUnarmed</text>
</a>
</g>
</g>
<!-- Node4&#45;&gt;Node22 -->
<g id="edge27" class="edge"><title>Node4&#45;&gt;Node22</title>
<path fill="none" stroke="midnightblue" d="M445.828,-366.411C472.252,-361.222 505.056,-354.78 532.744,-349.342"/>
<polygon fill="midnightblue" stroke="midnightblue" points="533.554,-352.75 542.692,-347.389 532.205,-345.881 533.554,-352.75"/>
</g>
<!-- Node6 -->
<g id="node6" class="node"><title>Node6</title>
<g id="a_node6"><a xlink:href="../../d3/db1/struct_player.html#a72423437c838ef129ddb4e8c36d17562" target="_top" xlink:title=" ">
<polygon fill="white" stroke="black" points="913,-227.5 913,-246.5 998,-246.5 998,-227.5 913,-227.5"/>
<text text-anchor="middle" x="955.5" y="-234.5" font-family="Helvetica,sans-Serif" font-size="10.00">Player::GetItem</text>
</a>
</g>
</g>
<!-- Node5&#45;&gt;Node6 -->
<g id="edge5" class="edge"><title>Node5&#45;&gt;Node6</title>
<path fill="none" stroke="midnightblue" d="M814.846,-638.423C833.575,-627.904 861.657,-609.234 877,-585 946.234,-475.652 954.073,-312.771 954.621,-256.754"/>
<polygon fill="midnightblue" stroke="midnightblue" points="958.121,-256.76 954.648,-246.751 951.121,-256.741 958.121,-256.76"/>
</g>
<!-- Node10&#45;&gt;Node11 -->
<g id="edge10" class="edge"><title>Node10&#45;&gt;Node11</title>
<path fill="none" stroke="midnightblue" d="M655.586,-518.486C663.082,-516.018 670.404,-512.911 677,-509 725.957,-479.969 765.279,-423.399 783.309,-394.283"/>
<polygon fill="midnightblue" stroke="midnightblue" points="786.415,-395.91 788.59,-385.541 780.423,-392.29 786.415,-395.91"/>
</g>
<!-- Node10&#45;&gt;Node12 -->
<g id="edge11" class="edge"><title>Node10&#45;&gt;Node12</title>
<path fill="none" stroke="midnightblue" d="M643.087,-537.54C670.513,-542.712 704.598,-549.14 733.432,-554.578"/>
<polygon fill="midnightblue" stroke="midnightblue" points="732.917,-558.042 743.392,-556.456 734.214,-551.163 732.917,-558.042"/>
</g>
<!-- Node15&#45;&gt;Node6 -->
<g id="edge16" class="edge"><title>Node15&#45;&gt;Node6</title>
<path fill="none" stroke="midnightblue" d="M814.492,-164.567C842.29,-178.948 895.011,-206.223 927.228,-222.891"/>
<polygon fill="midnightblue" stroke="midnightblue" points="925.636,-226.008 936.126,-227.494 928.852,-219.79 925.636,-226.008"/>
</g>
<!-- Node16&#45;&gt;Node6 -->
<g id="edge19" class="edge"><title>Node16&#45;&gt;Node6</title>
<path fill="none" stroke="midnightblue" d="M854.569,-237C870.332,-237 887.269,-237 902.639,-237"/>
<polygon fill="midnightblue" stroke="midnightblue" points="902.995,-240.5 912.995,-237 902.995,-233.5 902.995,-240.5"/>
</g>
<!-- Node18&#45;&gt;Node12 -->
<g id="edge22" class="edge"><title>Node18&#45;&gt;Node12</title>
<path fill="none" stroke="midnightblue" d="M648.395,-632.889C658.029,-629.88 667.873,-626.545 677,-623 709.024,-610.561 744.282,-592.79 767.634,-580.409"/>
<polygon fill="midnightblue" stroke="midnightblue" points="769.404,-583.432 776.569,-575.627 766.101,-577.26 769.404,-583.432"/>
</g>
<!-- Node18&#45;&gt;Node19 -->
<g id="edge23" class="edge"><title>Node18&#45;&gt;Node19</title>
<path fill="none" stroke="midnightblue" d="M658.092,-637.18C665.26,-633.656 671.821,-629.039 677,-623 754.658,-532.437 632.782,-445.304 713,-357 715.762,-353.96 718.91,-351.36 722.324,-349.142"/>
<polygon fill="midnightblue" stroke="midnightblue" points="724.102,-352.16 731.29,-344.376 720.817,-345.979 724.102,-352.16"/>
</g>
<!-- Node22&#45;&gt;Node11 -->
<g id="edge28" class="edge"><title>Node22&#45;&gt;Node11</title>
<path fill="none" stroke="midnightblue" d="M640.253,-347.005C668.17,-352.27 703.677,-358.966 733.534,-364.597"/>
<polygon fill="midnightblue" stroke="midnightblue" points="732.948,-368.048 743.423,-366.462 734.245,-361.169 732.948,-368.048"/>
</g>
<!-- Node22&#45;&gt;Node16 -->
<g id="edge29" class="edge"><title>Node22&#45;&gt;Node16</title>
<path fill="none" stroke="midnightblue" d="M640.033,-330.71C652.379,-327.908 665.448,-324.107 677,-319 715.053,-302.178 753.469,-272.197 775.436,-253.523"/>
<polygon fill="midnightblue" stroke="midnightblue" points="778.002,-255.931 783.275,-246.741 773.422,-250.637 778.002,-255.931"/>
</g>
<!-- Node22&#45;&gt;Node19 -->
<g id="edge30" class="edge"><title>Node22&#45;&gt;Node19</title>
<path fill="none" stroke="midnightblue" d="M640.253,-338C664.401,-338 694.227,-338 721.163,-338"/>
<polygon fill="midnightblue" stroke="midnightblue" points="721.327,-341.5 731.327,-338 721.327,-334.5 721.327,-341.5"/>
</g>
<!-- Node24 -->
<g id="node24" class="node"><title>Node24</title>
<g id="a_node24"><a xlink:href="../../d8/dc1/struct_n_p_c_data.html#ab1888fa62a316db41b1ab7d71af63c7a" target="_top" xlink:title=" ">
<polygon fill="white" stroke="black" points="548.5,-0.5 548.5,-19.5 634.5,-19.5 634.5,-0.5 548.5,-0.5"/>
<text text-anchor="middle" x="591.5" y="-7.5" font-family="Helvetica,sans-Serif" font-size="10.00">NPCData::Hired</text>
</a>
</g>
</g>
<!-- Node23&#45;&gt;Node24 -->
<g id="edge32" class="edge"><title>Node23&#45;&gt;Node24</title>
<path fill="none" stroke="midnightblue" d="M440.149,-295.651C451.313,-292.727 462.335,-287.658 470,-279 542.954,-196.595 433.431,-116.744 506,-34 514.411,-24.4101 526.345,-18.5248 538.604,-14.9469"/>
<polygon fill="midnightblue" stroke="midnightblue" points="539.558,-18.3169 548.443,-12.5456 537.898,-11.5165 539.558,-18.3169"/>
</g>
<!-- Node26&#45;&gt;Node25 -->
<g id="edge35" class="edge"><title>Node26&#45;&gt;Node25</title>
<path fill="none" stroke="midnightblue" d="M278.759,-258.007C289.327,-258.188 300.523,-258.38 311.63,-258.571"/>
<polygon fill="midnightblue" stroke="midnightblue" points="311.727,-262.073 321.785,-258.745 311.847,-255.074 311.727,-262.073"/>
</g>
</g>
</svg>
