<?xml version="1.0" encoding="UTF-8" standalone="no"?>
<!DOCTYPE svg PUBLIC "-//W3C//DTD SVG 1.1//EN"
 "http://www.w3.org/Graphics/SVG/1.1/DTD/svg11.dtd">
<!-- Generated by graphviz version 2.38.0 (20140413.2041)
 -->
<!-- Title: Player::GetLearningPercent Pages: 1 -->
<svg width="1027pt" height="710pt"
 viewBox="0.00 0.00 1027.00 709.50" xmlns="http://www.w3.org/2000/svg" xmlns:xlink="http://www.w3.org/1999/xlink">
<g id="graph0" class="graph" transform="scale(1 1) rotate(0) translate(4 705.5)">
<title>Player::GetLearningPercent</title>
<polygon fill="white" stroke="none" points="-4,4 -4,-705.5 1023,-705.5 1023,4 -4,4"/>
<!-- Node1 -->
<g id="node1" class="node"><title>Node1</title>
<g id="a_node1"><a xlink:title=" ">
<polygon fill="#bfbfbf" stroke="black" points="0,-310.5 0,-329.5 137,-329.5 137,-310.5 0,-310.5"/>
<text text-anchor="middle" x="68.5" y="-317.5" font-family="Helvetica,sans-Serif" font-size="10.00">Player::GetLearningPercent</text>
</a>
</g>
</g>
<!-- Node2 -->
<g id="node2" class="node"><title>Node2</title>
<g id="a_node2"><a xlink:href="../../d3/db1/struct_player.html#aaf2aac22893a96cea798c0f9868d24dd" target="_top" xlink:title=" ">
<polygon fill="white" stroke="black" points="173,-336.5 173,-355.5 307,-355.5 307,-336.5 173,-336.5"/>
<text text-anchor="middle" x="240" y="-343.5" font-family="Helvetica,sans-Serif" font-size="10.00">Player::GetActualSkillLevel</text>
</a>
</g>
</g>
<!-- Node1&#45;&gt;Node2 -->
<g id="edge1" class="edge"><title>Node1&#45;&gt;Node2</title>
<path fill="none" stroke="midnightblue" d="M131.653,-329.534C143.053,-331.282 155.041,-333.121 166.708,-334.911"/>
<polygon fill="midnightblue" stroke="midnightblue" points="166.439,-338.411 176.854,-336.467 167.501,-331.492 166.439,-338.411"/>
</g>
<!-- Node25 -->
<g id="node25" class="node"><title>Node25</title>
<g id="a_node25"><a xlink:href="../../d3/db1/struct_player.html#af3cd14dd06d3e627645e4690fb7eaf94" target="_top" xlink:title=" ">
<polygon fill="white" stroke="black" points="180.5,-279 180.5,-309 299.5,-309 299.5,-279 180.5,-279"/>
<text text-anchor="start" x="188.5" y="-297" font-family="Helvetica,sans-Serif" font-size="10.00">Player::GetMultiplierFor</text>
<text text-anchor="middle" x="240" y="-286" font-family="Helvetica,sans-Serif" font-size="10.00">SkillLevel</text>
</a>
</g>
</g>
<!-- Node1&#45;&gt;Node25 -->
<g id="edge33" class="edge"><title>Node1&#45;&gt;Node25</title>
<path fill="none" stroke="midnightblue" d="M131.653,-310.466C144.178,-308.545 157.413,-306.515 170.151,-304.561"/>
<polygon fill="midnightblue" stroke="midnightblue" points="170.884,-307.99 180.237,-303.014 169.822,-301.07 170.884,-307.99"/>
</g>
<!-- Node3 -->
<g id="node3" class="node"><title>Node3</title>
<g id="a_node3"><a xlink:href="../../d1/d6c/_n_p_c_8cpp.html#a40d19895c574dba82a55ee7b3031f20b" target="_top" xlink:title=" ">
<polygon fill="white" stroke="black" points="352,-382.5 352,-401.5 482,-401.5 482,-382.5 352,-382.5"/>
<text text-anchor="middle" x="417" y="-389.5" font-family="Helvetica,sans-Serif" font-size="10.00">CheckHiredNPCSpeciality</text>
</a>
</g>
</g>
<!-- Node2&#45;&gt;Node3 -->
<g id="edge2" class="edge"><title>Node2&#45;&gt;Node3</title>
<path fill="none" stroke="midnightblue" d="M276.866,-355.533C296.412,-360.718 321.03,-367.233 343,-373 351.559,-375.247 360.685,-377.631 369.484,-379.924"/>
<polygon fill="midnightblue" stroke="midnightblue" points="368.67,-383.329 379.23,-382.461 370.434,-376.555 368.67,-383.329"/>
</g>
<!-- Node4 -->
<g id="node4" class="node"><title>Node4</title>
<g id="a_node4"><a xlink:href="../../d3/db1/struct_player.html#a475b26d600cd7da0c4682b038cc0d2be" target="_top" xlink:title=" ">
<polygon fill="white" stroke="black" points="358,-344.5 358,-363.5 476,-363.5 476,-344.5 358,-344.5"/>
<text text-anchor="middle" x="417" y="-351.5" font-family="Helvetica,sans-Serif" font-size="10.00">Player::GetItemsBonus</text>
</a>
</g>
</g>
<!-- Node2&#45;&gt;Node4 -->
<g id="edge3" class="edge"><title>Node2&#45;&gt;Node4</title>
<path fill="none" stroke="midnightblue" d="M307.16,-349.024C320.426,-349.631 334.39,-350.269 347.726,-350.879"/>
<polygon fill="midnightblue" stroke="midnightblue" points="347.631,-354.378 357.781,-351.339 347.951,-347.385 347.631,-354.378"/>
</g>
<!-- Node23 -->
<g id="node23" class="node"><title>Node23</title>
<g id="a_node23"><a xlink:href="../../d1/d6c/_n_p_c_8cpp.html#ab0b7197f3a0cdc35557d678ccaacdd7f" target="_top" xlink:title=" ">
<polygon fill="white" stroke="black" points="373,-306.5 373,-325.5 461,-325.5 461,-306.5 373,-306.5"/>
<text text-anchor="middle" x="417" y="-313.5" font-family="Helvetica,sans-Serif" font-size="10.00">PartyHasDragon</text>
</a>
</g>
</g>
<!-- Node2&#45;&gt;Node23 -->
<g id="edge31" class="edge"><title>Node2&#45;&gt;Node23</title>
<path fill="none" stroke="midnightblue" d="M296.852,-336.425C317.999,-332.8 341.996,-328.686 362.884,-325.106"/>
<polygon fill="midnightblue" stroke="midnightblue" points="363.598,-328.534 372.863,-323.395 362.415,-321.635 363.598,-328.534"/>
</g>
<!-- Node5 -->
<g id="node5" class="node"><title>Node5</title>
<g id="a_node5"><a xlink:href="../../d3/db1/struct_player.html#ae55aa4960489ccabd70e862226f2b8a2" target="_top" xlink:title=" ">
<polygon fill="white" stroke="black" points="764,-594.5 764,-613.5 868,-613.5 868,-594.5 764,-594.5"/>
<text text-anchor="middle" x="816" y="-601.5" font-family="Helvetica,sans-Serif" font-size="10.00">Player::GetBowItem</text>
</a>
</g>
</g>
<!-- Node4&#45;&gt;Node5 -->
<g id="edge4" class="edge"><title>Node4&#45;&gt;Node5</title>
<path fill="none" stroke="midnightblue" d="M476.189,-362.257C481.735,-364.964 486.833,-368.47 491,-373 554.522,-442.043 457.69,-517.77 527,-581 559.029,-610.219 679.127,-610.465 753.748,-607.543"/>
<polygon fill="midnightblue" stroke="midnightblue" points="754.118,-611.03 763.961,-607.112 753.823,-604.036 754.118,-611.03"/>
</g>
<!-- Node7 -->
<g id="node7" class="node"><title>Node7</title>
<g id="a_node7"><a xlink:href="../../d7/d9c/struct_item_gen.html#af8fb15fa18b609796777def550162884" target="_top" xlink:title=" ">
<polygon fill="white" stroke="black" points="547,-240.5 547,-259.5 678,-259.5 678,-240.5 547,-240.5"/>
<text text-anchor="middle" x="612.5" y="-247.5" font-family="Helvetica,sans-Serif" font-size="10.00">ItemGen::GetDamageDice</text>
</a>
</g>
</g>
<!-- Node4&#45;&gt;Node7 -->
<g id="edge6" class="edge"><title>Node4&#45;&gt;Node7</title>
<path fill="none" stroke="midnightblue" d="M473.951,-344.4C480.04,-341.944 485.877,-338.864 491,-335 516.134,-316.046 502.077,-293.231 527,-274 532.516,-269.744 538.755,-266.242 545.283,-263.361"/>
<polygon fill="midnightblue" stroke="midnightblue" points="546.958,-266.465 555.002,-259.57 544.414,-259.943 546.958,-266.465"/>
</g>
<!-- Node8 -->
<g id="node8" class="node"><title>Node8</title>
<g id="a_node8"><a xlink:href="../../d7/d9c/struct_item_gen.html#a32503e9f2824cb00a91b88d859def49a" target="_top" xlink:title=" ">
<polygon fill="white" stroke="black" points="547.5,-202.5 547.5,-221.5 677.5,-221.5 677.5,-202.5 547.5,-202.5"/>
<text text-anchor="middle" x="612.5" y="-209.5" font-family="Helvetica,sans-Serif" font-size="10.00">ItemGen::GetDamageMod</text>
</a>
</g>
</g>
<!-- Node4&#45;&gt;Node8 -->
<g id="edge7" class="edge"><title>Node4&#45;&gt;Node8</title>
<path fill="none" stroke="midnightblue" d="M476.206,-344.707C481.611,-342.181 486.672,-339 491,-335 526.919,-301.799 490.53,-263.595 527,-231 530.279,-228.069 533.912,-225.56 537.775,-223.414"/>
<polygon fill="midnightblue" stroke="midnightblue" points="539.567,-226.441 547.149,-219.041 536.607,-220.097 539.567,-226.441"/>
</g>
<!-- Node9 -->
<g id="node9" class="node"><title>Node9</title>
<g id="a_node9"><a xlink:href="../../d7/d9c/struct_item_gen.html#a0b7e21cfa48b52596a34ac9ae05ea07e" target="_top" xlink:title=" ">
<polygon fill="white" stroke="black" points="548.5,-164.5 548.5,-183.5 676.5,-183.5 676.5,-164.5 548.5,-164.5"/>
<text text-anchor="middle" x="612.5" y="-171.5" font-family="Helvetica,sans-Serif" font-size="10.00">ItemGen::GetDamageRoll</text>
</a>
</g>
</g>
<!-- Node4&#45;&gt;Node9 -->
<g id="edge8" class="edge"><title>Node4&#45;&gt;Node9</title>
<path fill="none" stroke="midnightblue" d="M476.204,-345.246C481.677,-342.624 486.754,-339.273 491,-335 536.892,-288.816 480.342,-238.41 527,-193 530.583,-189.513 534.66,-186.611 539.044,-184.202"/>
<polygon fill="midnightblue" stroke="midnightblue" points="540.773,-187.26 548.41,-179.917 537.861,-180.894 540.773,-187.26"/>
</g>
<!-- Node10 -->
<g id="node10" class="node"><title>Node10</title>
<g id="a_node10"><a xlink:href="../../d3/db1/struct_player.html#aa6da66d9e96bb7cb4c438244e97664e7" target="_top" xlink:title=" ">
<polygon fill="white" stroke="black" points="527,-404.5 527,-423.5 698,-423.5 698,-404.5 527,-404.5"/>
<text text-anchor="middle" x="612.5" y="-411.5" font-family="Helvetica,sans-Serif" font-size="10.00">Player::GetEquippedItemEquipType</text>
</a>
</g>
</g>
<!-- Node4&#45;&gt;Node10 -->
<g id="edge9" class="edge"><title>Node4&#45;&gt;Node10</title>
<path fill="none" stroke="midnightblue" d="M460.103,-363.529C470.329,-366.233 481.151,-369.428 491,-373 507.634,-379.032 510.434,-383.784 527,-390 538.49,-394.311 551.105,-398.283 563.003,-401.704"/>
<polygon fill="midnightblue" stroke="midnightblue" points="562.216,-405.118 572.789,-404.442 564.102,-398.377 562.216,-405.118"/>
</g>
<!-- Node11 -->
<g id="node11" class="node"><title>Node11</title>
<g id="a_node11"><a xlink:href="../../d7/d9c/struct_item_gen.html#a1aff2db2385ebf047a37787234f745a8" target="_top" xlink:title=" ">
<polygon fill="white" stroke="black" points="746,-442.5 746,-461.5 886,-461.5 886,-442.5 746,-442.5"/>
<text text-anchor="middle" x="816" y="-449.5" font-family="Helvetica,sans-Serif" font-size="10.00">ItemGen::GetItemEquipType</text>
</a>
</g>
</g>
<!-- Node4&#45;&gt;Node11 -->
<g id="edge14" class="edge"><title>Node4&#45;&gt;Node11</title>
<path fill="none" stroke="midnightblue" d="M473.924,-363.636C480.017,-366.086 485.863,-369.155 491,-373 515.897,-391.634 500.457,-416.795 527,-433 597.188,-475.852 695.745,-471.57 757.452,-462.976"/>
<polygon fill="midnightblue" stroke="midnightblue" points="758.022,-466.43 767.404,-461.508 757,-459.505 758.022,-466.43"/>
</g>
<!-- Node12 -->
<g id="node12" class="node"><title>Node12</title>
<g id="a_node12"><a xlink:href="../../d3/db1/struct_player.html#a6809c4b1b0d9d0f1de56f97c7dd2fc68" target="_top" xlink:title=" ">
<polygon fill="white" stroke="black" points="734,-366.5 734,-385.5 898,-385.5 898,-366.5 734,-366.5"/>
<text text-anchor="middle" x="816" y="-373.5" font-family="Helvetica,sans-Serif" font-size="10.00">Player::GetNthEquippedIndexItem</text>
</a>
</g>
</g>
<!-- Node4&#45;&gt;Node12 -->
<g id="edge17" class="edge"><title>Node4&#45;&gt;Node12</title>
<path fill="none" stroke="midnightblue" d="M476.152,-357.223C541.286,-360.832 647.695,-366.729 723.895,-370.951"/>
<polygon fill="midnightblue" stroke="midnightblue" points="723.791,-374.451 733.969,-371.51 724.178,-367.462 723.791,-374.451"/>
</g>
<!-- Node13 -->
<g id="node13" class="node"><title>Node13</title>
<g id="a_node13"><a xlink:href="../../d7/d9c/struct_item_gen.html#a0723d1e6e73872c78e50da0e285305fd" target="_top" xlink:title=" ">
<polygon fill="white" stroke="black" points="536.5,-126.5 536.5,-145.5 688.5,-145.5 688.5,-126.5 536.5,-126.5"/>
<text text-anchor="middle" x="612.5" y="-133.5" font-family="Helvetica,sans-Serif" font-size="10.00">ItemGen::GetItemBonusArtifact</text>
</a>
</g>
</g>
<!-- Node4&#45;&gt;Node13 -->
<g id="edge12" class="edge"><title>Node4&#45;&gt;Node13</title>
<path fill="none" stroke="midnightblue" d="M476.072,-345.634C481.639,-342.947 486.774,-339.475 491,-335 547.015,-275.684 470.001,-213.371 527,-155 528.264,-153.706 529.596,-152.491 530.986,-151.351"/>
<polygon fill="midnightblue" stroke="midnightblue" points="533.178,-154.095 539.527,-145.613 529.275,-148.285 533.178,-154.095"/>
</g>
<!-- Node14 -->
<g id="node14" class="node"><title>Node14</title>
<g id="a_node14"><a xlink:href="../../d7/d9c/struct_item_gen.html#a0a1c65b82c0ff9e6f28016b544a982d6" target="_top" xlink:title=" ">
<polygon fill="white" stroke="black" points="535.5,-77 535.5,-107 689.5,-107 689.5,-77 535.5,-77"/>
<text text-anchor="start" x="543.5" y="-95" font-family="Helvetica,sans-Serif" font-size="10.00">ItemGen::GetItemBonusSpecial</text>
<text text-anchor="middle" x="612.5" y="-84" font-family="Helvetica,sans-Serif" font-size="10.00">Enchantment</text>
</a>
</g>
</g>
<!-- Node4&#45;&gt;Node14 -->
<g id="edge13" class="edge"><title>Node4&#45;&gt;Node14</title>
<path fill="none" stroke="midnightblue" d="M476.224,-345.775C481.763,-343.063 486.85,-339.546 491,-335 557.21,-262.476 461.997,-190.607 527,-117 528.044,-115.817 529.142,-114.69 530.286,-113.614"/>
<polygon fill="midnightblue" stroke="midnightblue" points="532.721,-116.154 538.458,-107.246 528.418,-110.632 532.721,-116.154"/>
</g>
<!-- Node15 -->
<g id="node15" class="node"><title>Node15</title>
<g id="a_node15"><a xlink:href="../../d3/db1/struct_player.html#a2fe2e69c33d03d97a7ef57af845489be" target="_top" xlink:title=" ">
<polygon fill="white" stroke="black" points="752,-556.5 752,-575.5 880,-575.5 880,-556.5 752,-556.5"/>
<text text-anchor="middle" x="816" y="-563.5" font-family="Helvetica,sans-Serif" font-size="10.00">Player::GetMainHandItem</text>
</a>
</g>
</g>
<!-- Node4&#45;&gt;Node15 -->
<g id="edge15" class="edge"><title>Node4&#45;&gt;Node15</title>
<path fill="none" stroke="midnightblue" d="M476.027,-362.409C481.602,-365.088 486.751,-368.546 491,-373 544.609,-429.197 468.599,-492.802 527,-544 593.794,-602.556 706.044,-590.61 768.864,-577.693"/>
<polygon fill="midnightblue" stroke="midnightblue" points="769.839,-581.064 778.879,-575.539 768.367,-574.22 769.839,-581.064"/>
</g>
<!-- Node16 -->
<g id="node16" class="node"><title>Node16</title>
<g id="a_node16"><a xlink:href="../../d3/db1/struct_player.html#aa21a62746eeab18923a9574f8bbeb1f5" target="_top" xlink:title=" ">
<polygon fill="white" stroke="black" points="756.5,-518.5 756.5,-537.5 875.5,-537.5 875.5,-518.5 756.5,-518.5"/>
<text text-anchor="middle" x="816" y="-525.5" font-family="Helvetica,sans-Serif" font-size="10.00">Player::GetOffHandItem</text>
</a>
</g>
</g>
<!-- Node4&#45;&gt;Node16 -->
<g id="edge18" class="edge"><title>Node4&#45;&gt;Node16</title>
<path fill="none" stroke="midnightblue" d="M476.159,-362.799C481.64,-365.413 486.732,-368.749 491,-373 535.304,-417.121 478.735,-469.25 527,-509 595.516,-565.428 707.105,-552.863 769.354,-539.766"/>
<polygon fill="midnightblue" stroke="midnightblue" points="770.26,-543.151 779.275,-537.586 768.757,-536.314 770.26,-543.151"/>
</g>
<!-- Node17 -->
<g id="node17" class="node"><title>Node17</title>
<g id="a_node17"><a xlink:href="../../d7/d9c/struct_item_gen.html#a964851ef377a08ea081799810094b9a6" target="_top" xlink:title=" ">
<polygon fill="white" stroke="black" points="541,-38.5 541,-57.5 684,-57.5 684,-38.5 541,-38.5"/>
<text text-anchor="middle" x="612.5" y="-45.5" font-family="Helvetica,sans-Serif" font-size="10.00">ItemGen::GetPlayerSkillType</text>
</a>
</g>
</g>
<!-- Node4&#45;&gt;Node17 -->
<g id="edge20" class="edge"><title>Node4&#45;&gt;Node17</title>
<path fill="none" stroke="midnightblue" d="M476.009,-346.073C481.661,-343.315 486.832,-339.706 491,-335 570.683,-245.033 445.824,-155.622 527,-67 528.609,-65.2433 530.343,-63.6312 532.179,-62.1526"/>
<polygon fill="midnightblue" stroke="midnightblue" points="534.377,-64.8974 540.824,-56.4902 530.541,-59.0418 534.377,-64.8974"/>
</g>
<!-- Node18 -->
<g id="node18" class="node"><title>Node18</title>
<g id="a_node18"><a xlink:href="../../d3/db1/struct_player.html#ad1457d0afb7d7ecfd97452b6e8baaf79" target="_top" xlink:title=" ">
<polygon fill="white" stroke="black" points="546,-317 546,-347 679,-347 679,-317 546,-317"/>
<text text-anchor="start" x="554" y="-335" font-family="Helvetica,sans-Serif" font-size="10.00">Player::HasEnchantedItem</text>
<text text-anchor="middle" x="612.5" y="-324" font-family="Helvetica,sans-Serif" font-size="10.00">Equipped</text>
</a>
</g>
</g>
<!-- Node4&#45;&gt;Node18 -->
<g id="edge21" class="edge"><title>Node4&#45;&gt;Node18</title>
<path fill="none" stroke="midnightblue" d="M476.056,-347.399C494.731,-345.276 515.709,-342.891 535.476,-340.644"/>
<polygon fill="midnightblue" stroke="midnightblue" points="536.143,-344.09 545.684,-339.483 535.352,-337.135 536.143,-344.09"/>
</g>
<!-- Node19 -->
<g id="node19" class="node"><title>Node19</title>
<g id="a_node19"><a xlink:href="../../d3/db1/struct_player.html#afde75b389a2678ebac44730041d4c94b" target="_top" xlink:title=" ">
<polygon fill="white" stroke="black" points="752.5,-322.5 752.5,-341.5 879.5,-341.5 879.5,-322.5 752.5,-322.5"/>
<text text-anchor="middle" x="816" y="-329.5" font-family="Helvetica,sans-Serif" font-size="10.00">Player::HasItemEquipped</text>
</a>
</g>
</g>
<!-- Node4&#45;&gt;Node19 -->
<g id="edge24" class="edge"><title>Node4&#45;&gt;Node19</title>
<path fill="none" stroke="midnightblue" d="M466.133,-344.451C474.639,-341.934 483.247,-338.82 491,-335 509.182,-326.041 507.827,-313.578 527,-307 613.252,-277.406 722.143,-302.413 778.092,-319.423"/>
<polygon fill="midnightblue" stroke="midnightblue" points="777.316,-322.848 787.905,-322.492 779.405,-316.167 777.316,-322.848"/>
</g>
<!-- Node20 -->
<g id="node20" class="node"><title>Node20</title>
<g id="a_node20"><a xlink:href="../../db/d39/struct_items_table.html#a9ce59bdb78130973f350ac3f2bcf0312" target="_top" xlink:title=" ">
<polygon fill="white" stroke="black" points="548,-671 548,-701 677,-701 677,-671 548,-671"/>
<text text-anchor="start" x="556" y="-689" font-family="Helvetica,sans-Serif" font-size="10.00">ItemsTable::IsMaterialNon</text>
<text text-anchor="middle" x="612.5" y="-678" font-family="Helvetica,sans-Serif" font-size="10.00">Common</text>
</a>
</g>
</g>
<!-- Node4&#45;&gt;Node20 -->
<g id="edge25" class="edge"><title>Node4&#45;&gt;Node20</title>
<path fill="none" stroke="midnightblue" d="M476.052,-361.889C481.696,-364.654 486.854,-368.275 491,-373 576.084,-469.958 443.529,-562.651 527,-661 530.439,-665.051 534.5,-668.464 538.951,-671.336"/>
<polygon fill="midnightblue" stroke="midnightblue" points="537.474,-674.516 547.931,-676.219 540.818,-668.367 537.474,-674.516"/>
</g>
<!-- Node21 -->
<g id="node21" class="node"><title>Node21</title>
<g id="a_node21"><a xlink:href="../../db/d39/struct_items_table.html#a82c2132831b7b62f7851168122f7d5e0" target="_top" xlink:title=" ">
<polygon fill="white" stroke="black" points="540.5,-632.5 540.5,-651.5 684.5,-651.5 684.5,-632.5 540.5,-632.5"/>
<text text-anchor="middle" x="612.5" y="-639.5" font-family="Helvetica,sans-Serif" font-size="10.00">ItemsTable::IsMaterialSpecial</text>
</a>
</g>
</g>
<!-- Node4&#45;&gt;Node21 -->
<g id="edge26" class="edge"><title>Node4&#45;&gt;Node21</title>
<path fill="none" stroke="midnightblue" d="M476.305,-362.151C481.83,-364.877 486.891,-368.418 491,-373 564.479,-454.937 454.431,-535.256 527,-618 530.224,-621.676 533.966,-624.808 538.046,-627.474"/>
<polygon fill="midnightblue" stroke="midnightblue" points="536.388,-630.557 546.836,-632.318 539.767,-624.426 536.388,-630.557"/>
</g>
<!-- Node22 -->
<g id="node22" class="node"><title>Node22</title>
<g id="a_node22"><a xlink:href="../../d3/db1/struct_player.html#a3763c75dd38d3b35f27f1c601bd38632" target="_top" xlink:title=" ">
<polygon fill="white" stroke="black" points="564,-480.5 564,-499.5 661,-499.5 661,-480.5 564,-480.5"/>
<text text-anchor="middle" x="612.5" y="-487.5" font-family="Helvetica,sans-Serif" font-size="10.00">Player::IsUnarmed</text>
</a>
</g>
</g>
<!-- Node4&#45;&gt;Node22 -->
<g id="edge27" class="edge"><title>Node4&#45;&gt;Node22</title>
<path fill="none" stroke="midnightblue" d="M476.061,-363.453C481.493,-365.949 486.601,-369.079 491,-373 524.085,-402.492 494.243,-436.144 527,-466 534.687,-473.007 544.276,-477.983 554.208,-481.514"/>
<polygon fill="midnightblue" stroke="midnightblue" points="553.196,-484.865 563.784,-484.476 555.265,-478.177 553.196,-484.865"/>
</g>
<!-- Node6 -->
<g id="node6" class="node"><title>Node6</title>
<g id="a_node6"><a xlink:href="../../d3/db1/struct_player.html#a72423437c838ef129ddb4e8c36d17562" target="_top" xlink:title=" ">
<polygon fill="white" stroke="black" points="934,-556.5 934,-575.5 1019,-575.5 1019,-556.5 934,-556.5"/>
<text text-anchor="middle" x="976.5" y="-563.5" font-family="Helvetica,sans-Serif" font-size="10.00">Player::GetItem</text>
</a>
</g>
</g>
<!-- Node5&#45;&gt;Node6 -->
<g id="edge5" class="edge"><title>Node5&#45;&gt;Node6</title>
<path fill="none" stroke="midnightblue" d="M858.226,-594.414C870.982,-591.425 885.078,-588.099 898,-585 907.398,-582.746 917.43,-580.309 927.052,-577.957"/>
<polygon fill="midnightblue" stroke="midnightblue" points="928.007,-581.326 936.886,-575.547 926.341,-574.528 928.007,-581.326"/>
</g>
<!-- Node10&#45;&gt;Node11 -->
<g id="edge10" class="edge"><title>Node10&#45;&gt;Node11</title>
<path fill="none" stroke="midnightblue" d="M664.087,-423.54C691.513,-428.712 725.598,-435.14 754.432,-440.578"/>
<polygon fill="midnightblue" stroke="midnightblue" points="753.917,-444.042 764.392,-442.456 755.214,-437.163 753.917,-444.042"/>
</g>
<!-- Node10&#45;&gt;Node12 -->
<g id="edge11" class="edge"><title>Node10&#45;&gt;Node12</title>
<path fill="none" stroke="midnightblue" d="M664.087,-404.46C691.513,-399.288 725.598,-392.86 754.432,-387.422"/>
<polygon fill="midnightblue" stroke="midnightblue" points="755.214,-390.837 764.392,-385.544 753.917,-383.958 755.214,-390.837"/>
</g>
<!-- Node15&#45;&gt;Node6 -->
<g id="edge16" class="edge"><title>Node15&#45;&gt;Node6</title>
<path fill="none" stroke="midnightblue" d="M880.099,-566C894.408,-566 909.451,-566 923.252,-566"/>
<polygon fill="midnightblue" stroke="midnightblue" points="923.532,-569.5 933.532,-566 923.532,-562.5 923.532,-569.5"/>
</g>
<!-- Node16&#45;&gt;Node6 -->
<g id="edge19" class="edge"><title>Node16&#45;&gt;Node6</title>
<path fill="none" stroke="midnightblue" d="M858.226,-537.586C870.982,-540.575 885.078,-543.901 898,-547 907.398,-549.254 917.43,-551.691 927.052,-554.043"/>
<polygon fill="midnightblue" stroke="midnightblue" points="926.341,-557.472 936.886,-556.453 928.007,-550.674 926.341,-557.472"/>
</g>
<!-- Node18&#45;&gt;Node12 -->
<g id="edge22" class="edge"><title>Node18&#45;&gt;Node12</title>
<path fill="none" stroke="midnightblue" d="M679.2,-346.346C705.865,-352.169 736.272,-358.809 761.544,-364.327"/>
<polygon fill="midnightblue" stroke="midnightblue" points="760.799,-367.747 771.316,-366.461 762.293,-360.908 760.799,-367.747"/>
</g>
<!-- Node18&#45;&gt;Node19 -->
<g id="edge23" class="edge"><title>Node18&#45;&gt;Node19</title>
<path fill="none" stroke="midnightblue" d="M679.2,-332C699.341,-332 721.616,-332 742.202,-332"/>
<polygon fill="midnightblue" stroke="midnightblue" points="742.472,-335.5 752.472,-332 742.472,-328.5 742.472,-335.5"/>
</g>
<!-- Node22&#45;&gt;Node11 -->
<g id="edge28" class="edge"><title>Node22&#45;&gt;Node11</title>
<path fill="none" stroke="midnightblue" d="M661.253,-480.995C689.17,-475.73 724.677,-469.034 754.534,-463.403"/>
<polygon fill="midnightblue" stroke="midnightblue" points="755.245,-466.831 764.423,-461.538 753.948,-459.952 755.245,-466.831"/>
</g>
<!-- Node22&#45;&gt;Node16 -->
<g id="edge29" class="edge"><title>Node22&#45;&gt;Node16</title>
<path fill="none" stroke="midnightblue" d="M661.253,-499.005C689.17,-504.27 724.677,-510.966 754.534,-516.597"/>
<polygon fill="midnightblue" stroke="midnightblue" points="753.948,-520.048 764.423,-518.462 755.245,-513.169 753.948,-520.048"/>
</g>
<!-- Node22&#45;&gt;Node19 -->
<g id="edge30" class="edge"><title>Node22&#45;&gt;Node19</title>
<path fill="none" stroke="midnightblue" d="M633.514,-480.474C652.214,-470.736 679.893,-454.072 698,-433 722.359,-404.652 705.751,-381.473 734,-357 739.306,-352.403 745.447,-348.651 751.928,-345.589"/>
<polygon fill="midnightblue" stroke="midnightblue" points="753.71,-348.64 761.609,-341.579 751.03,-342.173 753.71,-348.64"/>
</g>
<!-- Node24 -->
<g id="node24" class="node"><title>Node24</title>
<g id="a_node24"><a xlink:href="../../d8/dc1/struct_n_p_c_data.html#ab1888fa62a316db41b1ab7d71af63c7a" target="_top" xlink:title=" ">
<polygon fill="white" stroke="black" points="569.5,-0.5 569.5,-19.5 655.5,-19.5 655.5,-0.5 569.5,-0.5"/>
<text text-anchor="middle" x="612.5" y="-7.5" font-family="Helvetica,sans-Serif" font-size="10.00">NPCData::Hired</text>
</a>
</g>
</g>
<!-- Node23&#45;&gt;Node24 -->
<g id="edge32" class="edge"><title>Node23&#45;&gt;Node24</title>
<path fill="none" stroke="midnightblue" d="M461.18,-313.338C472.345,-310.568 483.359,-305.627 491,-297 570.683,-207.033 445.824,-117.622 527,-29 535.331,-19.9044 547,-14.687 559.011,-11.7964"/>
<polygon fill="midnightblue" stroke="midnightblue" points="559.942,-15.1823 569.116,-9.88135 558.639,-8.3047 559.942,-15.1823"/>
</g>
<!-- Node26 -->
<g id="node26" class="node"><title>Node26</title>
<g id="a_node26"><a xlink:href="../../d3/db1/struct_player.html#a7934658474de6dec6ee37ca7123f95de" target="_top" xlink:title=" ">
<polygon fill="white" stroke="black" points="343,-268.5 343,-287.5 491,-287.5 491,-268.5 343,-268.5"/>
<text text-anchor="middle" x="417" y="-275.5" font-family="Helvetica,sans-Serif" font-size="10.00">Player::GetActualSkillMastery</text>
</a>
</g>
</g>
<!-- Node25&#45;&gt;Node26 -->
<g id="edge34" class="edge"><title>Node25&#45;&gt;Node26</title>
<path fill="none" stroke="midnightblue" d="M299.759,-288.628C310.327,-287.662 321.523,-286.638 332.63,-285.622"/>
<polygon fill="midnightblue" stroke="midnightblue" points="333.146,-289.09 342.785,-284.694 332.508,-282.119 333.146,-289.09"/>
</g>
</g>
</svg>
