<?xml version="1.0" encoding="UTF-8" standalone="no"?>
<!DOCTYPE svg PUBLIC "-//W3C//DTD SVG 1.1//EN"
 "http://www.w3.org/Graphics/SVG/1.1/DTD/svg11.dtd">
<!-- Generated by graphviz version 2.38.0 (20140413.2041)
 -->
<!-- Title: Player::GetBaseAC Pages: 1 -->
<svg width="474pt" height="88pt"
 viewBox="0.00 0.00 474.00 88.00" xmlns="http://www.w3.org/2000/svg" xmlns:xlink="http://www.w3.org/1999/xlink">
<g id="graph0" class="graph" transform="scale(1 1) rotate(0) translate(4 84)">
<title>Player::GetBaseAC</title>
<polygon fill="white" stroke="none" points="-4,4 -4,-84 470,-84 470,4 -4,4"/>
<!-- Node1 -->
<g id="node1" class="node"><title>Node1</title>
<g id="a_node1"><a xlink:title=" ">
<polygon fill="#bfbfbf" stroke="black" points="364,-30 364,-49 466,-49 466,-30 364,-30"/>
<text text-anchor="middle" x="415" y="-37" font-family="Helvetica,sans-Serif" font-size="10.00">Player::GetBaseAC</text>
</a>
</g>
</g>
<!-- Node2 -->
<g id="node2" class="node"><title>Node2</title>
<g id="a_node2"><a xlink:href="../../de/d17/class_g_u_i_window___character_record.html#addd6261010ad7fd72af9bb1baaeeadff" target="_top" xlink:title=" ">
<polygon fill="white" stroke="black" points="182,-49.5 182,-79.5 328,-79.5 328,-49.5 182,-49.5"/>
<text text-anchor="start" x="190" y="-67.5" font-family="Helvetica,sans-Serif" font-size="10.00">GUIWindow_CharacterRecord</text>
<text text-anchor="middle" x="255" y="-56.5" font-family="Helvetica,sans-Serif" font-size="10.00">::CharacterUI_StatsTab_Draw</text>
</a>
</g>
</g>
<!-- Node1&#45;&gt;Node2 -->
<g id="edge1" class="edge"><title>Node1&#45;&gt;Node2</title>
<path fill="none" stroke="midnightblue" d="M353.585,-49.0593C345.256,-50.3773 336.634,-51.7415 328.12,-53.0887"/>
<polygon fill="midnightblue" stroke="midnightblue" points="354.243,-52.4988 363.573,-47.4789 353.149,-45.5848 354.243,-52.4988"/>
</g>
<!-- Node4 -->
<g id="node4" class="node"><title>Node4</title>
<g id="a_node4"><a xlink:href="../../d7/da1/class_g_u_i_window___quick_reference.html#a4d739176d8af6b4d8a55c66c772addb3" target="_top" xlink:title=" ">
<polygon fill="white" stroke="black" points="184,-0.5 184,-30.5 326,-30.5 326,-0.5 184,-0.5"/>
<text text-anchor="start" x="192" y="-18.5" font-family="Helvetica,sans-Serif" font-size="10.00">GUIWindow_QuickReference</text>
<text text-anchor="middle" x="255" y="-7.5" font-family="Helvetica,sans-Serif" font-size="10.00">::Update</text>
</a>
</g>
</g>
<!-- Node1&#45;&gt;Node4 -->
<g id="edge3" class="edge"><title>Node1&#45;&gt;Node4</title>
<path fill="none" stroke="midnightblue" d="M353.596,-30.3247C344.607,-28.9593 335.278,-27.5422 326.11,-26.1496"/>
<polygon fill="midnightblue" stroke="midnightblue" points="353.161,-33.7987 363.573,-31.8403 354.212,-26.8781 353.161,-33.7987"/>
</g>
<!-- Node3 -->
<g id="node3" class="node"><title>Node3</title>
<g id="a_node3"><a xlink:href="../../de/d17/class_g_u_i_window___character_record.html#a0f5495b3e77a5b936914a37270e9d2e2" target="_top" xlink:title=" ">
<polygon fill="white" stroke="black" points="0,-49.5 0,-79.5 146,-79.5 146,-49.5 0,-49.5"/>
<text text-anchor="start" x="8" y="-67.5" font-family="Helvetica,sans-Serif" font-size="10.00">GUIWindow_CharacterRecord</text>
<text text-anchor="middle" x="73" y="-56.5" font-family="Helvetica,sans-Serif" font-size="10.00">::Update</text>
</a>
</g>
</g>
<!-- Node2&#45;&gt;Node3 -->
<g id="edge2" class="edge"><title>Node2&#45;&gt;Node3</title>
<path fill="none" stroke="midnightblue" d="M171.561,-64.5C163.094,-64.5 154.536,-64.5 146.192,-64.5"/>
<polygon fill="midnightblue" stroke="midnightblue" points="171.824,-68.0001 181.824,-64.5 171.824,-61.0001 171.824,-68.0001"/>
</g>
</g>
</svg>
