<?xml version="1.0" encoding="UTF-8" standalone="no"?>
<!DOCTYPE svg PUBLIC "-//W3C//DTD SVG 1.1//EN"
 "http://www.w3.org/Graphics/SVG/1.1/DTD/svg11.dtd">
<!-- Generated by graphviz version 2.38.0 (20140413.2041)
 -->
<!-- Title: Player::GetActualLevel Pages: 1 -->
<!--zoomable 675 -->
<svg id="main" version="1.1" xmlns="http://www.w3.org/2000/svg" xmlns:xlink="http://www.w3.org/1999/xlink" xml:space="preserve" onload="init(evt)">
<style type="text/css"><![CDATA[
.edge:hover path { stroke: red; }
.edge:hover polygon { stroke: red; fill: red; }
]]></style>
<script type="text/javascript"><![CDATA[
var edges = document.getElementsByTagName('g');
if (edges && edges.length) {
  for (var i=0;i<edges.length;i++) {
    if (edges[i].id.substr(0,4)=='edge') {
      edges[i].setAttribute('class','edge');
    }
  }
}
]]></script>
        <defs>
                <circle id="rim" cx="0" cy="0" r="7"/>
                <circle id="rim2" cx="0" cy="0" r="3.5"/>
                <g id="zoomPlus">
                        <use xlink:href="#rim" fill="#404040">
                                <set attributeName="fill" to="#808080" begin="zoomplus.mouseover" end="zoomplus.mouseout"/>
                        </use>
                        <path d="M-4,0h8M0,-4v8" fill="none" stroke="white" stroke-width="1.5" pointer-events="none"/>
                </g>
                <g id="zoomMin">
                        <use xlink:href="#rim" fill="#404040">
                                <set attributeName="fill" to="#808080" begin="zoomminus.mouseover" end="zoomminus.mouseout"/>
                        </use>
                        <path d="M-4,0h8" fill="none" stroke="white" stroke-width="1.5" pointer-events="none"/>
                </g>
                <g id="dirArrow">
                        <path fill="none" stroke="white" stroke-width="1.5" d="M0,-3.0v7 M-2.5,-0.5L0,-3.0L2.5,-0.5"/>
                </g>
               <g id="resetDef">
                       <use xlink:href="#rim2" fill="#404040">
                               <set attributeName="fill" to="#808080" begin="reset.mouseover" end="reset.mouseout"/>
                       </use>
               </g>
        </defs>

<script type="text/javascript">
var viewWidth = 816;
var viewHeight = 675;
var sectionId = 'dynsection-28';
</script>
<script xlink:href="../../svgpan.js"/>
<svg id="graph" class="graph">
<g id="viewport">
<title>Player::GetActualLevel</title>
<polygon fill="white" stroke="none" points="-4,4 -4,-671.003 812,-671.003 812,4 -4,4"/>
<!-- Node1 -->
<g id="node1" class="node"><title>Node1</title>
<g id="a_node1"><a xlink:title=" ">
<polygon fill="#bfbfbf" stroke="black" points="0,-309.5 0,-328.5 116,-328.5 116,-309.5 0,-309.5"/>
<text text-anchor="middle" x="58" y="-316.5" font-family="Helvetica,sans-Serif" font-size="10.00">Player::GetActualLevel</text>
</a>
</g>
</g>
<!-- Node2 -->
<g id="node2" class="node"><title>Node2</title>
<g id="a_node2"><a xlink:href="../../d3/db1/struct_player.html#a475b26d600cd7da0c4682b038cc0d2be" target="_top" xlink:title=" ">
<polygon fill="white" stroke="black" points="157,-328.5 157,-347.5 275,-347.5 275,-328.5 157,-328.5"/>
<text text-anchor="middle" x="216" y="-335.5" font-family="Helvetica,sans-Serif" font-size="10.00">Player::GetItemsBonus</text>
</a>
</g>
</g>
<!-- Node1&#45;&gt;Node2 -->
<g id="edge1" class="edge"><title>Node1&#45;&gt;Node2</title>
<path fill="none" stroke="midnightblue" d="M116.203,-325.967C126.116,-327.174 136.513,-328.441 146.686,-329.68"/>
<polygon fill="midnightblue" stroke="midnightblue" points="146.409,-333.172 156.759,-330.907 147.255,-326.223 146.409,-333.172"/>
</g>
<!-- Node21 -->
<g id="node21" class="node"><title>Node21</title>
<g id="a_node21"><a xlink:href="../../d3/db1/struct_player.html#af4b983e3094433a7a22e634d599d77f1" target="_top" xlink:title=" ">
<polygon fill="white" stroke="black" points="152,-290.5 152,-309.5 280,-309.5 280,-290.5 152,-290.5"/>
<text text-anchor="middle" x="216" y="-297.5" font-family="Helvetica,sans-Serif" font-size="10.00">Player::GetMagicalBonus</text>
</a>
</g>
</g>
<!-- Node1&#45;&gt;Node21 -->
<g id="edge29" class="edge"><title>Node1&#45;&gt;Node21</title>
<path fill="none" stroke="midnightblue" d="M116.203,-312.033C124.515,-311.021 133.168,-309.967 141.744,-308.922"/>
<polygon fill="midnightblue" stroke="midnightblue" points="142.247,-312.387 151.751,-307.703 141.401,-305.438 142.247,-312.387"/>
</g>
<!-- Node3 -->
<g id="node3" class="node"><title>Node3</title>
<g id="a_node3"><a xlink:href="../../d3/db1/struct_player.html#ae55aa4960489ccabd70e862226f2b8a2" target="_top" xlink:title=" ">
<polygon fill="white" stroke="black" points="553,-644.5 553,-663.5 657,-663.5 657,-644.5 553,-644.5"/>
<text text-anchor="middle" x="605" y="-651.5" font-family="Helvetica,sans-Serif" font-size="10.00">Player::GetBowItem</text>
</a>
</g>
</g>
<!-- Node2&#45;&gt;Node3 -->
<g id="edge2" class="edge"><title>Node2&#45;&gt;Node3</title>
<path fill="none" stroke="midnightblue" d="M217.037,-347.749C217.767,-388.588 226.461,-547.111 316,-619 379.898,-670.303 478.898,-670.534 542.577,-663.887"/>
<polygon fill="midnightblue" stroke="midnightblue" points="543.329,-667.324 552.871,-662.72 542.54,-660.369 543.329,-667.324"/>
</g>
<!-- Node5 -->
<g id="node5" class="node"><title>Node5</title>
<g id="a_node5"><a xlink:href="../../d7/d9c/struct_item_gen.html#af8fb15fa18b609796777def550162884" target="_top" xlink:title=" ">
<polygon fill="white" stroke="black" points="336,-290.5 336,-309.5 467,-309.5 467,-290.5 336,-290.5"/>
<text text-anchor="middle" x="401.5" y="-297.5" font-family="Helvetica,sans-Serif" font-size="10.00">ItemGen::GetDamageDice</text>
</a>
</g>
</g>
<!-- Node2&#45;&gt;Node5 -->
<g id="edge4" class="edge"><title>Node2&#45;&gt;Node5</title>
<path fill="none" stroke="midnightblue" d="M263.305,-328.411C287.956,-323.306 318.463,-316.989 344.445,-311.608"/>
<polygon fill="midnightblue" stroke="midnightblue" points="345.446,-314.975 354.528,-309.52 344.026,-308.121 345.446,-314.975"/>
</g>
<!-- Node6 -->
<g id="node6" class="node"><title>Node6</title>
<g id="a_node6"><a xlink:href="../../d7/d9c/struct_item_gen.html#a32503e9f2824cb00a91b88d859def49a" target="_top" xlink:title=" ">
<polygon fill="white" stroke="black" points="336.5,-252.5 336.5,-271.5 466.5,-271.5 466.5,-252.5 336.5,-252.5"/>
<text text-anchor="middle" x="401.5" y="-259.5" font-family="Helvetica,sans-Serif" font-size="10.00">ItemGen::GetDamageMod</text>
</a>
</g>
</g>
<!-- Node2&#45;&gt;Node6 -->
<g id="edge5" class="edge"><title>Node2&#45;&gt;Node6</title>
<path fill="none" stroke="midnightblue" d="M259.655,-328.446C266.728,-325.945 273.777,-322.838 280,-319 299.801,-306.787 295.774,-292.495 316,-281 319.93,-278.767 324.102,-276.796 328.406,-275.056"/>
<polygon fill="midnightblue" stroke="midnightblue" points="329.768,-278.286 337.993,-271.607 327.399,-271.699 329.768,-278.286"/>
</g>
<!-- Node7 -->
<g id="node7" class="node"><title>Node7</title>
<g id="a_node7"><a xlink:href="../../d7/d9c/struct_item_gen.html#a0b7e21cfa48b52596a34ac9ae05ea07e" target="_top" xlink:title=" ">
<polygon fill="white" stroke="black" points="337.5,-214.5 337.5,-233.5 465.5,-233.5 465.5,-214.5 337.5,-214.5"/>
<text text-anchor="middle" x="401.5" y="-221.5" font-family="Helvetica,sans-Serif" font-size="10.00">ItemGen::GetDamageRoll</text>
</a>
</g>
</g>
<!-- Node2&#45;&gt;Node7 -->
<g id="edge6" class="edge"><title>Node2&#45;&gt;Node7</title>
<path fill="none" stroke="midnightblue" d="M264.681,-328.416C270.225,-325.96 275.498,-322.875 280,-319 308.328,-294.618 286.816,-266.35 316,-243 319.597,-240.122 323.544,-237.66 327.705,-235.557"/>
<polygon fill="midnightblue" stroke="midnightblue" points="329.309,-238.677 337.104,-231.502 326.536,-232.25 329.309,-238.677"/>
</g>
<!-- Node8 -->
<g id="node8" class="node"><title>Node8</title>
<g id="a_node8"><a xlink:href="../../d3/db1/struct_player.html#aa6da66d9e96bb7cb4c438244e97664e7" target="_top" xlink:title=" ">
<polygon fill="white" stroke="black" points="316,-454.5 316,-473.5 487,-473.5 487,-454.5 316,-454.5"/>
<text text-anchor="middle" x="401.5" y="-461.5" font-family="Helvetica,sans-Serif" font-size="10.00">Player::GetEquippedItemEquipType</text>
</a>
</g>
</g>
<!-- Node2&#45;&gt;Node8 -->
<g id="edge7" class="edge"><title>Node2&#45;&gt;Node8</title>
<path fill="none" stroke="midnightblue" d="M223.701,-347.783C238.137,-368.105 274.265,-415.066 316,-440 323.61,-444.546 332.12,-448.265 340.73,-451.298"/>
<polygon fill="midnightblue" stroke="midnightblue" points="339.858,-454.695 350.45,-454.439 342.01,-448.034 339.858,-454.695"/>
</g>
<!-- Node9 -->
<g id="node9" class="node"><title>Node9</title>
<g id="a_node9"><a xlink:href="../../d7/d9c/struct_item_gen.html#a1aff2db2385ebf047a37787234f745a8" target="_top" xlink:title=" ">
<polygon fill="white" stroke="black" points="535,-492.5 535,-511.5 675,-511.5 675,-492.5 535,-492.5"/>
<text text-anchor="middle" x="605" y="-499.5" font-family="Helvetica,sans-Serif" font-size="10.00">ItemGen::GetItemEquipType</text>
</a>
</g>
</g>
<!-- Node2&#45;&gt;Node9 -->
<g id="edge12" class="edge"><title>Node2&#45;&gt;Node9</title>
<path fill="none" stroke="midnightblue" d="M218.671,-347.519C224.803,-379.188 249.287,-481.241 316,-521 397.415,-569.521 515.74,-535.971 571.99,-515.139"/>
<polygon fill="midnightblue" stroke="midnightblue" points="573.33,-518.374 581.43,-511.544 570.839,-511.832 573.33,-518.374"/>
</g>
<!-- Node10 -->
<g id="node10" class="node"><title>Node10</title>
<g id="a_node10"><a xlink:href="../../d3/db1/struct_player.html#a6809c4b1b0d9d0f1de56f97c7dd2fc68" target="_top" xlink:title=" ">
<polygon fill="white" stroke="black" points="523,-416.5 523,-435.5 687,-435.5 687,-416.5 523,-416.5"/>
<text text-anchor="middle" x="605" y="-423.5" font-family="Helvetica,sans-Serif" font-size="10.00">Player::GetNthEquippedIndexItem</text>
</a>
</g>
</g>
<!-- Node2&#45;&gt;Node10 -->
<g id="edge15" class="edge"><title>Node2&#45;&gt;Node10</title>
<path fill="none" stroke="midnightblue" d="M226.642,-347.51C243.246,-363.194 279.03,-394.035 316,-407 379.119,-429.135 454.717,-433.352 512.62,-432.319"/>
<polygon fill="midnightblue" stroke="midnightblue" points="512.936,-435.813 522.851,-432.079 512.772,-428.815 512.936,-435.813"/>
</g>
<!-- Node11 -->
<g id="node11" class="node"><title>Node11</title>
<g id="a_node11"><a xlink:href="../../d7/d9c/struct_item_gen.html#a0723d1e6e73872c78e50da0e285305fd" target="_top" xlink:title=" ">
<polygon fill="white" stroke="black" points="325.5,-176.5 325.5,-195.5 477.5,-195.5 477.5,-176.5 325.5,-176.5"/>
<text text-anchor="middle" x="401.5" y="-183.5" font-family="Helvetica,sans-Serif" font-size="10.00">ItemGen::GetItemBonusArtifact</text>
</a>
</g>
</g>
<!-- Node2&#45;&gt;Node11 -->
<g id="edge10" class="edge"><title>Node2&#45;&gt;Node11</title>
<path fill="none" stroke="midnightblue" d="M266.457,-328.383C271.444,-325.928 276.097,-322.852 280,-319 317.813,-281.674 276.872,-240.946 316,-205 317.536,-203.589 319.154,-202.274 320.841,-201.051"/>
<polygon fill="midnightblue" stroke="midnightblue" points="323.024,-203.822 329.78,-195.661 319.409,-197.827 323.024,-203.822"/>
</g>
<!-- Node12 -->
<g id="node12" class="node"><title>Node12</title>
<g id="a_node12"><a xlink:href="../../d7/d9c/struct_item_gen.html#a0a1c65b82c0ff9e6f28016b544a982d6" target="_top" xlink:title=" ">
<polygon fill="white" stroke="black" points="324.5,-127 324.5,-157 478.5,-157 478.5,-127 324.5,-127"/>
<text text-anchor="start" x="332.5" y="-145" font-family="Helvetica,sans-Serif" font-size="10.00">ItemGen::GetItemBonusSpecial</text>
<text text-anchor="middle" x="401.5" y="-134" font-family="Helvetica,sans-Serif" font-size="10.00">Enchantment</text>
</a>
</g>
</g>
<!-- Node2&#45;&gt;Node12 -->
<g id="edge11" class="edge"><title>Node2&#45;&gt;Node12</title>
<path fill="none" stroke="midnightblue" d="M267.357,-328.344C272.056,-325.891 276.398,-322.826 280,-319 327.587,-268.451 268.28,-217.424 316,-167 317.38,-165.542 318.841,-164.167 320.37,-162.871"/>
<polygon fill="midnightblue" stroke="midnightblue" points="322.438,-165.696 328.535,-157.031 318.366,-160.002 322.438,-165.696"/>
</g>
<!-- Node13 -->
<g id="node13" class="node"><title>Node13</title>
<g id="a_node13"><a xlink:href="../../d3/db1/struct_player.html#a2fe2e69c33d03d97a7ef57af845489be" target="_top" xlink:title=" ">
<polygon fill="white" stroke="black" points="541,-606.5 541,-625.5 669,-625.5 669,-606.5 541,-606.5"/>
<text text-anchor="middle" x="605" y="-613.5" font-family="Helvetica,sans-Serif" font-size="10.00">Player::GetMainHandItem</text>
</a>
</g>
</g>
<!-- Node2&#45;&gt;Node13 -->
<g id="edge13" class="edge"><title>Node2&#45;&gt;Node13</title>
<path fill="none" stroke="midnightblue" d="M217.578,-347.501C220.392,-384.649 236.022,-521.02 316,-582 377.724,-629.062 469.553,-631.772 532.842,-626.481"/>
<polygon fill="midnightblue" stroke="midnightblue" points="533.502,-629.935 543.137,-625.529 532.857,-622.965 533.502,-629.935"/>
</g>
<!-- Node14 -->
<g id="node14" class="node"><title>Node14</title>
<g id="a_node14"><a xlink:href="../../d3/db1/struct_player.html#aa21a62746eeab18923a9574f8bbeb1f5" target="_top" xlink:title=" ">
<polygon fill="white" stroke="black" points="545.5,-568.5 545.5,-587.5 664.5,-587.5 664.5,-568.5 545.5,-568.5"/>
<text text-anchor="middle" x="605" y="-575.5" font-family="Helvetica,sans-Serif" font-size="10.00">Player::GetOffHandItem</text>
</a>
</g>
</g>
<!-- Node2&#45;&gt;Node14 -->
<g id="edge16" class="edge"><title>Node2&#45;&gt;Node14</title>
<path fill="none" stroke="midnightblue" d="M218.248,-347.56C223.228,-381.452 244.981,-496.532 316,-547 379.78,-592.324 472.415,-594.006 535.271,-588.352"/>
<polygon fill="midnightblue" stroke="midnightblue" points="535.873,-591.81 545.482,-587.346 535.187,-584.844 535.873,-591.81"/>
</g>
<!-- Node15 -->
<g id="node15" class="node"><title>Node15</title>
<g id="a_node15"><a xlink:href="../../d7/d9c/struct_item_gen.html#a964851ef377a08ea081799810094b9a6" target="_top" xlink:title=" ">
<polygon fill="white" stroke="black" points="330,-88.5 330,-107.5 473,-107.5 473,-88.5 330,-88.5"/>
<text text-anchor="middle" x="401.5" y="-95.5" font-family="Helvetica,sans-Serif" font-size="10.00">ItemGen::GetPlayerSkillType</text>
</a>
</g>
</g>
<!-- Node2&#45;&gt;Node15 -->
<g id="edge18" class="edge"><title>Node2&#45;&gt;Node15</title>
<path fill="none" stroke="midnightblue" d="M267.877,-328.379C272.418,-325.916 276.581,-322.839 280,-319 340.356,-251.224 253.622,-183.919 316,-118 317.642,-116.265 319.404,-114.668 321.265,-113.199"/>
<polygon fill="midnightblue" stroke="midnightblue" points="323.506,-115.918 329.997,-107.544 319.701,-110.043 323.506,-115.918"/>
</g>
<!-- Node16 -->
<g id="node16" class="node"><title>Node16</title>
<g id="a_node16"><a xlink:href="../../d3/db1/struct_player.html#ad1457d0afb7d7ecfd97452b6e8baaf79" target="_top" xlink:title=" ">
<polygon fill="white" stroke="black" points="335,-367 335,-397 468,-397 468,-367 335,-367"/>
<text text-anchor="start" x="343" y="-385" font-family="Helvetica,sans-Serif" font-size="10.00">Player::HasEnchantedItem</text>
<text text-anchor="middle" x="401.5" y="-374" font-family="Helvetica,sans-Serif" font-size="10.00">Equipped</text>
</a>
</g>
</g>
<!-- Node2&#45;&gt;Node16 -->
<g id="edge19" class="edge"><title>Node2&#45;&gt;Node16</title>
<path fill="none" stroke="midnightblue" d="M256.817,-347.547C277.569,-352.523 303.606,-358.767 327.796,-364.567"/>
<polygon fill="midnightblue" stroke="midnightblue" points="327.13,-368.006 337.671,-366.935 328.762,-361.199 327.13,-368.006"/>
</g>
<!-- Node17 -->
<g id="node17" class="node"><title>Node17</title>
<g id="a_node17"><a xlink:href="../../d3/db1/struct_player.html#afde75b389a2678ebac44730041d4c94b" target="_top" xlink:title=" ">
<polygon fill="white" stroke="black" points="541.5,-372.5 541.5,-391.5 668.5,-391.5 668.5,-372.5 541.5,-372.5"/>
<text text-anchor="middle" x="605" y="-379.5" font-family="Helvetica,sans-Serif" font-size="10.00">Player::HasItemEquipped</text>
</a>
</g>
</g>
<!-- Node2&#45;&gt;Node17 -->
<g id="edge22" class="edge"><title>Node2&#45;&gt;Node17</title>
<path fill="none" stroke="midnightblue" d="M275.164,-340.149C329.999,-342.686 414.373,-347.904 487,-358 509.15,-361.079 533.403,-365.824 554.056,-370.284"/>
<polygon fill="midnightblue" stroke="midnightblue" points="553.362,-373.715 563.88,-372.442 554.864,-366.878 553.362,-373.715"/>
</g>
<!-- Node18 -->
<g id="node18" class="node"><title>Node18</title>
<g id="a_node18"><a xlink:href="../../db/d39/struct_items_table.html#a9ce59bdb78130973f350ac3f2bcf0312" target="_top" xlink:title=" ">
<polygon fill="white" stroke="black" points="337,-39 337,-69 466,-69 466,-39 337,-39"/>
<text text-anchor="start" x="345" y="-57" font-family="Helvetica,sans-Serif" font-size="10.00">ItemsTable::IsMaterialNon</text>
<text text-anchor="middle" x="401.5" y="-46" font-family="Helvetica,sans-Serif" font-size="10.00">Common</text>
</a>
</g>
</g>
<!-- Node2&#45;&gt;Node18 -->
<g id="edge23" class="edge"><title>Node2&#45;&gt;Node18</title>
<path fill="none" stroke="midnightblue" d="M267.988,-328.477C272.508,-325.995 276.636,-322.887 280,-319 350.583,-237.442 245.202,-160.372 316,-79 319.427,-75.0614 323.441,-71.7286 327.826,-68.91"/>
<polygon fill="midnightblue" stroke="midnightblue" points="329.55,-71.9566 336.658,-64.0997 326.202,-65.8093 329.55,-71.9566"/>
</g>
<!-- Node19 -->
<g id="node19" class="node"><title>Node19</title>
<g id="a_node19"><a xlink:href="../../db/d39/struct_items_table.html#a82c2132831b7b62f7851168122f7d5e0" target="_top" xlink:title=" ">
<polygon fill="white" stroke="black" points="329.5,-0.5 329.5,-19.5 473.5,-19.5 473.5,-0.5 329.5,-0.5"/>
<text text-anchor="middle" x="401.5" y="-7.5" font-family="Helvetica,sans-Serif" font-size="10.00">ItemsTable::IsMaterialSpecial</text>
</a>
</g>
</g>
<!-- Node2&#45;&gt;Node19 -->
<g id="edge24" class="edge"><title>Node2&#45;&gt;Node19</title>
<path fill="none" stroke="midnightblue" d="M268.387,-328.395C272.77,-325.924 276.758,-322.842 280,-319 363.475,-220.077 229.571,-126.353 316,-30 317.554,-28.2676 319.228,-26.6714 321.001,-25.2012"/>
<polygon fill="midnightblue" stroke="midnightblue" points="323.046,-28.0436 329.354,-19.5316 319.115,-22.2518 323.046,-28.0436"/>
</g>
<!-- Node20 -->
<g id="node20" class="node"><title>Node20</title>
<g id="a_node20"><a xlink:href="../../d3/db1/struct_player.html#a3763c75dd38d3b35f27f1c601bd38632" target="_top" xlink:title=" ">
<polygon fill="white" stroke="black" points="353,-492.5 353,-511.5 450,-511.5 450,-492.5 353,-492.5"/>
<text text-anchor="middle" x="401.5" y="-499.5" font-family="Helvetica,sans-Serif" font-size="10.00">Player::IsUnarmed</text>
</a>
</g>
</g>
<!-- Node2&#45;&gt;Node20 -->
<g id="edge25" class="edge"><title>Node2&#45;&gt;Node20</title>
<path fill="none" stroke="midnightblue" d="M220.604,-347.625C230.974,-373.922 263.546,-447.387 316,-483 324.033,-488.454 333.389,-492.365 342.89,-495.165"/>
<polygon fill="midnightblue" stroke="midnightblue" points="342.239,-498.611 352.795,-497.699 343.974,-491.83 342.239,-498.611"/>
</g>
<!-- Node4 -->
<g id="node4" class="node"><title>Node4</title>
<g id="a_node4"><a xlink:href="../../d3/db1/struct_player.html#a72423437c838ef129ddb4e8c36d17562" target="_top" xlink:title=" ">
<polygon fill="white" stroke="black" points="723,-606.5 723,-625.5 808,-625.5 808,-606.5 723,-606.5"/>
<text text-anchor="middle" x="765.5" y="-613.5" font-family="Helvetica,sans-Serif" font-size="10.00">Player::GetItem</text>
</a>
</g>
</g>
<!-- Node3&#45;&gt;Node4 -->
<g id="edge3" class="edge"><title>Node3&#45;&gt;Node4</title>
<path fill="none" stroke="midnightblue" d="M647.226,-644.414C659.982,-641.425 674.078,-638.099 687,-635 696.398,-632.746 706.43,-630.309 716.052,-627.957"/>
<polygon fill="midnightblue" stroke="midnightblue" points="717.007,-631.326 725.886,-625.547 715.341,-624.528 717.007,-631.326"/>
</g>
<!-- Node8&#45;&gt;Node9 -->
<g id="edge8" class="edge"><title>Node8&#45;&gt;Node9</title>
<path fill="none" stroke="midnightblue" d="M453.087,-473.54C480.513,-478.712 514.598,-485.14 543.432,-490.578"/>
<polygon fill="midnightblue" stroke="midnightblue" points="542.917,-494.042 553.392,-492.456 544.214,-487.163 542.917,-494.042"/>
</g>
<!-- Node8&#45;&gt;Node10 -->
<g id="edge9" class="edge"><title>Node8&#45;&gt;Node10</title>
<path fill="none" stroke="midnightblue" d="M453.087,-454.46C480.513,-449.288 514.598,-442.86 543.432,-437.422"/>
<polygon fill="midnightblue" stroke="midnightblue" points="544.214,-440.837 553.392,-435.544 542.917,-433.958 544.214,-440.837"/>
</g>
<!-- Node13&#45;&gt;Node4 -->
<g id="edge14" class="edge"><title>Node13&#45;&gt;Node4</title>
<path fill="none" stroke="midnightblue" d="M669.099,-616C683.408,-616 698.451,-616 712.252,-616"/>
<polygon fill="midnightblue" stroke="midnightblue" points="712.532,-619.5 722.532,-616 712.532,-612.5 712.532,-619.5"/>
</g>
<!-- Node14&#45;&gt;Node4 -->
<g id="edge17" class="edge"><title>Node14&#45;&gt;Node4</title>
<path fill="none" stroke="midnightblue" d="M647.226,-587.586C659.982,-590.575 674.078,-593.901 687,-597 696.398,-599.254 706.43,-601.691 716.052,-604.043"/>
<polygon fill="midnightblue" stroke="midnightblue" points="715.341,-607.472 725.886,-606.453 717.007,-600.674 715.341,-607.472"/>
</g>
<!-- Node16&#45;&gt;Node10 -->
<g id="edge20" class="edge"><title>Node16&#45;&gt;Node10</title>
<path fill="none" stroke="midnightblue" d="M468.2,-396.346C494.865,-402.169 525.272,-408.809 550.544,-414.327"/>
<polygon fill="midnightblue" stroke="midnightblue" points="549.799,-417.747 560.316,-416.461 551.293,-410.908 549.799,-417.747"/>
</g>
<!-- Node16&#45;&gt;Node17 -->
<g id="edge21" class="edge"><title>Node16&#45;&gt;Node17</title>
<path fill="none" stroke="midnightblue" d="M468.2,-382C488.341,-382 510.616,-382 531.202,-382"/>
<polygon fill="midnightblue" stroke="midnightblue" points="531.472,-385.5 541.472,-382 531.472,-378.5 531.472,-385.5"/>
</g>
<!-- Node20&#45;&gt;Node9 -->
<g id="edge26" class="edge"><title>Node20&#45;&gt;Node9</title>
<path fill="none" stroke="midnightblue" d="M450.253,-502C472.449,-502 499.443,-502 524.58,-502"/>
<polygon fill="midnightblue" stroke="midnightblue" points="524.847,-505.5 534.847,-502 524.847,-498.5 524.847,-505.5"/>
</g>
<!-- Node20&#45;&gt;Node14 -->
<g id="edge27" class="edge"><title>Node20&#45;&gt;Node14</title>
<path fill="none" stroke="midnightblue" d="M428.02,-511.625C463.827,-525.131 529.089,-549.746 569.286,-564.907"/>
<polygon fill="midnightblue" stroke="midnightblue" points="568.095,-568.198 578.687,-568.453 570.566,-561.649 568.095,-568.198"/>
</g>
<!-- Node20&#45;&gt;Node17 -->
<g id="edge28" class="edge"><title>Node20&#45;&gt;Node17</title>
<path fill="none" stroke="midnightblue" d="M450.122,-498.966C463.154,-496.204 476.551,-491.361 487,-483 516.184,-459.65 494.751,-431.473 523,-407 528.306,-402.403 534.447,-398.651 540.928,-395.589"/>
<polygon fill="midnightblue" stroke="midnightblue" points="542.71,-398.64 550.609,-391.579 540.03,-392.173 542.71,-398.64"/>
</g>
</g>
</svg>
        <g id="navigator" transform="translate(0 0)" fill="#404254">
                <rect fill="#f2f5e9" fill-opacity="0.5" stroke="#606060" stroke-width=".5" x="0" y="0" width="60" height="60"/>
                <use id="zoomplus" xlink:href="#zoomPlus" x="17" y="9" onmousedown="handleZoom(evt,'in')"/>
                <use id="zoomminus" xlink:href="#zoomMin" x="42" y="9" onmousedown="handleZoom(evt,'out')"/>
                <use id="reset" xlink:href="#resetDef" x="30" y="36" onmousedown="handleReset()"/>
                <g id="arrowUp" xlink:href="#dirArrow" transform="translate(30 24)" onmousedown="handlePan(0,-1)">
                  <use xlink:href="#rim" fill="#404040">
                        <set attributeName="fill" to="#808080" begin="arrowUp.mouseover" end="arrowUp.mouseout"/>
                  </use>
                  <path fill="none" stroke="white" stroke-width="1.5" d="M0,-3.0v7 M-2.5,-0.5L0,-3.0L2.5,-0.5"/>
                </g>
                <g id="arrowRight" xlink:href="#dirArrow" transform="rotate(90) translate(36 -43)" onmousedown="handlePan(1,0)">
                  <use xlink:href="#rim" fill="#404040">
                        <set attributeName="fill" to="#808080" begin="arrowRight.mouseover" end="arrowRight.mouseout"/>
                  </use>
                  <path fill="none" stroke="white" stroke-width="1.5" d="M0,-3.0v7 M-2.5,-0.5L0,-3.0L2.5,-0.5"/>
                </g>
                <g id="arrowDown" xlink:href="#dirArrow" transform="rotate(180) translate(-30 -48)" onmousedown="handlePan(0,1)">
                  <use xlink:href="#rim" fill="#404040">
                        <set attributeName="fill" to="#808080" begin="arrowDown.mouseover" end="arrowDown.mouseout"/>
                  </use>
                  <path fill="none" stroke="white" stroke-width="1.5" d="M0,-3.0v7 M-2.5,-0.5L0,-3.0L2.5,-0.5"/>
                </g>
                <g id="arrowLeft" xlink:href="#dirArrow" transform="rotate(270) translate(-36 17)" onmousedown="handlePan(-1,0)">
                  <use xlink:href="#rim" fill="#404040">
                        <set attributeName="fill" to="#808080" begin="arrowLeft.mouseover" end="arrowLeft.mouseout"/>
                  </use>
                  <path fill="none" stroke="white" stroke-width="1.5" d="M0,-3.0v7 M-2.5,-0.5L0,-3.0L2.5,-0.5"/>
                </g>
        </g>
        <svg viewBox="0 0 15 15" width="100%" height="30px" preserveAspectRatio="xMaxYMin meet">
         <g id="arrow_out" transform="scale(0.3 0.3)">
          <a xlink:href="struct_player_a04fbc34aab69eeb85142a066a85dca56_cgraph_org.svg" target="_base">
           <rect id="button" ry="5" rx="5" y="6" x="6" height="38" width="38"
                fill="#f2f5e9" fill-opacity="0.5" stroke="#606060" stroke-width="1.0"/>
           <path id="arrow"
             d="M 11.500037,31.436501 C 11.940474,20.09759 22.043105,11.32322 32.158766,21.979434 L 37.068811,17.246167 C 37.068811,17.246167 37.088388,32 37.088388,32 L 22.160133,31.978069 C 22.160133,31.978069 26.997745,27.140456 26.997745,27.140456 C 18.528582,18.264221 13.291696,25.230495 11.500037,31.436501 z"
             style="fill:#404040;"/>
          </a>
         </g>
        </svg>
</svg>
