<?xml version="1.0" encoding="UTF-8" standalone="no"?>
<!DOCTYPE svg PUBLIC "-//W3C//DTD SVG 1.1//EN"
 "http://www.w3.org/Graphics/SVG/1.1/DTD/svg11.dtd">
<!-- Generated by graphviz version 2.38.0 (20140413.2041)
 -->
<!-- Title: Player::GetExperienceDisplayColor Pages: 1 -->
<svg width="519pt" height="88pt"
 viewBox="0.00 0.00 519.00 88.00" xmlns="http://www.w3.org/2000/svg" xmlns:xlink="http://www.w3.org/1999/xlink">
<g id="graph0" class="graph" transform="scale(1 1) rotate(0) translate(4 84)">
<title>Player::GetExperienceDisplayColor</title>
<polygon fill="white" stroke="none" points="-4,4 -4,-84 515,-84 515,4 -4,4"/>
<!-- Node1 -->
<g id="node1" class="node"><title>Node1</title>
<g id="a_node1"><a xlink:title=" ">
<polygon fill="#bfbfbf" stroke="black" points="364,-24.5 364,-54.5 511,-54.5 511,-24.5 364,-24.5"/>
<text text-anchor="start" x="372" y="-42.5" font-family="Helvetica,sans-Serif" font-size="10.00">Player::GetExperienceDisplay</text>
<text text-anchor="middle" x="437.5" y="-31.5" font-family="Helvetica,sans-Serif" font-size="10.00">Color</text>
</a>
</g>
</g>
<!-- Node2 -->
<g id="node2" class="node"><title>Node2</title>
<g id="a_node2"><a xlink:href="../../de/d17/class_g_u_i_window___character_record.html#addd6261010ad7fd72af9bb1baaeeadff" target="_top" xlink:title=" ">
<polygon fill="white" stroke="black" points="182,-49.5 182,-79.5 328,-79.5 328,-49.5 182,-49.5"/>
<text text-anchor="start" x="190" y="-67.5" font-family="Helvetica,sans-Serif" font-size="10.00">GUIWindow_CharacterRecord</text>
<text text-anchor="middle" x="255" y="-56.5" font-family="Helvetica,sans-Serif" font-size="10.00">::CharacterUI_StatsTab_Draw</text>
</a>
</g>
</g>
<!-- Node1&#45;&gt;Node2 -->
<g id="edge1" class="edge"><title>Node1&#45;&gt;Node2</title>
<path fill="none" stroke="midnightblue" d="M353.866,-50.9452C345.297,-52.1321 336.635,-53.3317 328.194,-54.5009"/>
<polygon fill="midnightblue" stroke="midnightblue" points="354.439,-54.3993 363.864,-49.5604 353.478,-47.4655 354.439,-54.3993"/>
</g>
<!-- Node4 -->
<g id="node4" class="node"><title>Node4</title>
<g id="a_node4"><a xlink:href="../../d7/da1/class_g_u_i_window___quick_reference.html#a4d739176d8af6b4d8a55c66c772addb3" target="_top" xlink:title=" ">
<polygon fill="white" stroke="black" points="184,-0.5 184,-30.5 326,-30.5 326,-0.5 184,-0.5"/>
<text text-anchor="start" x="192" y="-18.5" font-family="Helvetica,sans-Serif" font-size="10.00">GUIWindow_QuickReference</text>
<text text-anchor="middle" x="255" y="-7.5" font-family="Helvetica,sans-Serif" font-size="10.00">::Update</text>
</a>
</g>
</g>
<!-- Node1&#45;&gt;Node4 -->
<g id="edge3" class="edge"><title>Node1&#45;&gt;Node4</title>
<path fill="none" stroke="midnightblue" d="M353.87,-28.5132C344.604,-27.2812 335.23,-26.0348 326.143,-24.8265"/>
<polygon fill="midnightblue" stroke="midnightblue" points="353.49,-31.9934 363.864,-29.842 354.413,-25.0544 353.49,-31.9934"/>
</g>
<!-- Node3 -->
<g id="node3" class="node"><title>Node3</title>
<g id="a_node3"><a xlink:href="../../de/d17/class_g_u_i_window___character_record.html#a0f5495b3e77a5b936914a37270e9d2e2" target="_top" xlink:title=" ">
<polygon fill="white" stroke="black" points="0,-49.5 0,-79.5 146,-79.5 146,-49.5 0,-49.5"/>
<text text-anchor="start" x="8" y="-67.5" font-family="Helvetica,sans-Serif" font-size="10.00">GUIWindow_CharacterRecord</text>
<text text-anchor="middle" x="73" y="-56.5" font-family="Helvetica,sans-Serif" font-size="10.00">::Update</text>
</a>
</g>
</g>
<!-- Node2&#45;&gt;Node3 -->
<g id="edge2" class="edge"><title>Node2&#45;&gt;Node3</title>
<path fill="none" stroke="midnightblue" d="M171.561,-64.5C163.094,-64.5 154.536,-64.5 146.192,-64.5"/>
<polygon fill="midnightblue" stroke="midnightblue" points="171.824,-68.0001 181.824,-64.5 171.824,-61.0001 171.824,-68.0001"/>
</g>
</g>
</svg>
