<?xml version="1.0" encoding="UTF-8" standalone="no"?>
<!DOCTYPE svg PUBLIC "-//W3C//DTD SVG 1.1//EN"
 "http://www.w3.org/Graphics/SVG/1.1/DTD/svg11.dtd">
<!-- Generated by graphviz version 2.38.0 (20140413.2041)
 -->
<!-- Title: Player::GetBaseEndurance Pages: 1 -->
<svg width="1341pt" height="192pt"
 viewBox="0.00 0.00 1341.00 192.00" xmlns="http://www.w3.org/2000/svg" xmlns:xlink="http://www.w3.org/1999/xlink">
<g id="graph0" class="graph" transform="scale(1 1) rotate(0) translate(4 188)">
<title>Player::GetBaseEndurance</title>
<polygon fill="white" stroke="none" points="-4,4 -4,-188 1337,-188 1337,4 -4,4"/>
<!-- Node1 -->
<g id="node1" class="node"><title>Node1</title>
<g id="a_node1"><a xlink:title=" ">
<polygon fill="#bfbfbf" stroke="black" points="1198,-44.5 1198,-63.5 1333,-63.5 1333,-44.5 1198,-44.5"/>
<text text-anchor="middle" x="1265.5" y="-51.5" font-family="Helvetica,sans-Serif" font-size="10.00">Player::GetBaseEndurance</text>
</a>
</g>
</g>
<!-- Node2 -->
<g id="node2" class="node"><title>Node2</title>
<g id="a_node2"><a xlink:href="../../d5/d0b/_g_u_i_window_8h.html#a4b22dccb8f1156579b89f1c7c668dd23" target="_top" xlink:title=" ">
<polygon fill="white" stroke="black" points="1012,-88.5 1012,-107.5 1162,-107.5 1162,-88.5 1012,-88.5"/>
<text text-anchor="middle" x="1087" y="-95.5" font-family="Helvetica,sans-Serif" font-size="10.00">_4B254D_SkillMasteryTeacher</text>
</a>
</g>
</g>
<!-- Node1&#45;&gt;Node2 -->
<g id="edge1" class="edge"><title>Node1&#45;&gt;Node2</title>
<path fill="none" stroke="midnightblue" d="M1216.49,-65.969C1188.12,-73.0414 1152.69,-81.8736 1126.22,-88.4713"/>
<polygon fill="midnightblue" stroke="midnightblue" points="1217.35,-69.3624 1226.2,-63.5473 1215.65,-62.5702 1217.35,-69.3624"/>
</g>
<!-- Node13 -->
<g id="node13" class="node"><title>Node13</title>
<g id="a_node13"><a xlink:href="../../de/d17/class_g_u_i_window___character_record.html#addd6261010ad7fd72af9bb1baaeeadff" target="_top" xlink:title=" ">
<polygon fill="white" stroke="black" points="1014,-39 1014,-69 1160,-69 1160,-39 1014,-39"/>
<text text-anchor="start" x="1022" y="-57" font-family="Helvetica,sans-Serif" font-size="10.00">GUIWindow_CharacterRecord</text>
<text text-anchor="middle" x="1087" y="-46" font-family="Helvetica,sans-Serif" font-size="10.00">::CharacterUI_StatsTab_Draw</text>
</a>
</g>
</g>
<!-- Node1&#45;&gt;Node13 -->
<g id="edge13" class="edge"><title>Node1&#45;&gt;Node13</title>
<path fill="none" stroke="midnightblue" d="M1187.57,-54C1178.45,-54 1169.17,-54 1160.13,-54"/>
<polygon fill="midnightblue" stroke="midnightblue" points="1187.77,-57.5001 1197.77,-54 1187.77,-50.5001 1187.77,-57.5001"/>
</g>
<!-- Node15 -->
<g id="node15" class="node"><title>Node15</title>
<g id="a_node15"><a xlink:href="../../d3/db1/struct_player.html#ac56375708861d959b5497e3053d72bdf" target="_top" xlink:title=" ">
<polygon fill="white" stroke="black" points="1024.5,-0.5 1024.5,-19.5 1149.5,-19.5 1149.5,-0.5 1024.5,-0.5"/>
<text text-anchor="middle" x="1087" y="-7.5" font-family="Helvetica,sans-Serif" font-size="10.00">Player::CompareVariable</text>
</a>
</g>
</g>
<!-- Node1&#45;&gt;Node15 -->
<g id="edge15" class="edge"><title>Node1&#45;&gt;Node15</title>
<path fill="none" stroke="midnightblue" d="M1216.49,-42.031C1188.12,-34.9586 1152.69,-26.1264 1126.22,-19.5287"/>
<polygon fill="midnightblue" stroke="midnightblue" points="1215.65,-45.4298 1226.2,-44.4527 1217.35,-38.6376 1215.65,-45.4298"/>
</g>
<!-- Node3 -->
<g id="node3" class="node"><title>Node3</title>
<g id="a_node3"><a xlink:href="../../d5/d0b/_g_u_i_window_8h.html#ae5cd6e9d5abc01da6627f5600fd99faf" target="_top" xlink:title=" ">
<polygon fill="white" stroke="black" points="835.5,-126.5 835.5,-145.5 970.5,-145.5 970.5,-126.5 835.5,-126.5"/>
<text text-anchor="middle" x="903" y="-133.5" font-family="Helvetica,sans-Serif" font-size="10.00">_4B3FE5_training_dialogue</text>
</a>
</g>
</g>
<!-- Node2&#45;&gt;Node3 -->
<g id="edge2" class="edge"><title>Node2&#45;&gt;Node3</title>
<path fill="none" stroke="midnightblue" d="M1030.05,-109.681C1004.24,-115.07 973.993,-121.386 949.596,-126.48"/>
<polygon fill="midnightblue" stroke="midnightblue" points="1031,-113.059 1040.07,-107.589 1029.57,-106.207 1031,-113.059"/>
</g>
<!-- Node10 -->
<g id="node10" class="node"><title>Node10</title>
<g id="a_node10"><a xlink:href="../../d4/dc7/_u_i_houses_8h.html#a24aa347826f0bbf037cee75945dec5d1" target="_top" xlink:title=" ">
<polygon fill="white" stroke="black" points="852.5,-88.5 852.5,-107.5 953.5,-107.5 953.5,-88.5 852.5,-88.5"/>
<text text-anchor="middle" x="903" y="-95.5" font-family="Helvetica,sans-Serif" font-size="10.00">SimpleHouseDialog</text>
</a>
</g>
</g>
<!-- Node2&#45;&gt;Node10 -->
<g id="edge10" class="edge"><title>Node2&#45;&gt;Node10</title>
<path fill="none" stroke="midnightblue" d="M1001.8,-98C985.364,-98 968.632,-98 953.762,-98"/>
<polygon fill="midnightblue" stroke="midnightblue" points="1001.97,-101.5 1011.97,-98 1001.97,-94.5001 1001.97,-101.5"/>
</g>
<!-- Node4 -->
<g id="node4" class="node"><title>Node4</title>
<g id="a_node4"><a xlink:href="../../d5/d0b/_g_u_i_window_8h.html#ac04235ad887bb855e27dc440036a112f" target="_top" xlink:title=" ">
<polygon fill="white" stroke="black" points="670,-164.5 670,-183.5 752,-183.5 752,-164.5 670,-164.5"/>
<text text-anchor="middle" x="711" y="-171.5" font-family="Helvetica,sans-Serif" font-size="10.00">ClickNPCTopic</text>
</a>
</g>
</g>
<!-- Node3&#45;&gt;Node4 -->
<g id="edge3" class="edge"><title>Node3&#45;&gt;Node4</title>
<path fill="none" stroke="midnightblue" d="M844.212,-147.558C814.471,-153.506 778.952,-160.61 752.222,-165.956"/>
<polygon fill="midnightblue" stroke="midnightblue" points="844.936,-150.982 854.055,-145.589 843.563,-144.118 844.936,-150.982"/>
</g>
<!-- Node9 -->
<g id="node9" class="node"><title>Node9</title>
<g id="a_node9"><a xlink:href="../../d6/d82/_u_i_dialogue_8h.html#a0213da862a4f9421ada12d4bfff8a710" target="_top" xlink:title=" ">
<polygon fill="white" stroke="black" points="639.5,-126.5 639.5,-145.5 782.5,-145.5 782.5,-126.5 639.5,-126.5"/>
<text text-anchor="middle" x="711" y="-133.5" font-family="Helvetica,sans-Serif" font-size="10.00">OnSelectNPCDialogueOption</text>
</a>
</g>
</g>
<!-- Node3&#45;&gt;Node9 -->
<g id="edge8" class="edge"><title>Node3&#45;&gt;Node9</title>
<path fill="none" stroke="midnightblue" d="M825.185,-136C811.162,-136 796.589,-136 782.753,-136"/>
<polygon fill="midnightblue" stroke="midnightblue" points="825.28,-139.5 835.28,-136 825.28,-132.5 825.28,-139.5"/>
</g>
<!-- Node5 -->
<g id="node5" class="node"><title>Node5</title>
<g id="a_node5"><a xlink:href="../../d4/d06/class_application_1_1_game.html#a3f65e3f0ef1a9114fb3dea275e52442e" target="_top" xlink:title=" ">
<polygon fill="white" stroke="black" points="472,-143 472,-173 575,-173 575,-143 472,-143"/>
<text text-anchor="start" x="480" y="-161" font-family="Helvetica,sans-Serif" font-size="10.00">Application::Game::</text>
<text text-anchor="middle" x="523.5" y="-150" font-family="Helvetica,sans-Serif" font-size="10.00">EventLoop</text>
</a>
</g>
</g>
<!-- Node4&#45;&gt;Node5 -->
<g id="edge4" class="edge"><title>Node4&#45;&gt;Node5</title>
<path fill="none" stroke="midnightblue" d="M659.652,-169.657C633.467,-167.399 601.537,-164.645 575.288,-162.381"/>
<polygon fill="midnightblue" stroke="midnightblue" points="659.485,-173.156 669.749,-170.528 660.087,-166.182 659.485,-173.156"/>
</g>
<!-- Node6 -->
<g id="node6" class="node"><title>Node6</title>
<g id="a_node6"><a xlink:href="../../d4/d06/class_application_1_1_game.html#aaa0ff18388b32b4e6198835a35e000d3" target="_top" xlink:title=" ">
<polygon fill="white" stroke="black" points="316,-143 316,-173 419,-173 419,-143 316,-143"/>
<text text-anchor="start" x="324" y="-161" font-family="Helvetica,sans-Serif" font-size="10.00">Application::Game::</text>
<text text-anchor="middle" x="367.5" y="-150" font-family="Helvetica,sans-Serif" font-size="10.00">GameLoop</text>
</a>
</g>
</g>
<!-- Node5&#45;&gt;Node6 -->
<g id="edge5" class="edge"><title>Node5&#45;&gt;Node6</title>
<path fill="none" stroke="midnightblue" d="M461.55,-158C447.462,-158 432.623,-158 419.036,-158"/>
<polygon fill="midnightblue" stroke="midnightblue" points="461.648,-161.5 471.648,-158 461.648,-154.5 461.648,-161.5"/>
</g>
<!-- Node7 -->
<g id="node7" class="node"><title>Node7</title>
<g id="a_node7"><a xlink:href="../../d4/d06/class_application_1_1_game.html#a013ffd59e8fdf1c0a396da1dbe1681ca" target="_top" xlink:title=" ">
<polygon fill="white" stroke="black" points="156,-148.5 156,-167.5 280,-167.5 280,-148.5 156,-148.5"/>
<text text-anchor="middle" x="218" y="-155.5" font-family="Helvetica,sans-Serif" font-size="10.00">Application::Game::Loop</text>
</a>
</g>
</g>
<!-- Node6&#45;&gt;Node7 -->
<g id="edge6" class="edge"><title>Node6&#45;&gt;Node7</title>
<path fill="none" stroke="midnightblue" d="M305.59,-158C297.149,-158 288.478,-158 280.035,-158"/>
<polygon fill="midnightblue" stroke="midnightblue" points="305.739,-161.5 315.739,-158 305.739,-154.5 305.739,-161.5"/>
</g>
<!-- Node8 -->
<g id="node8" class="node"><title>Node8</title>
<g id="a_node8"><a xlink:href="../../d4/d06/class_application_1_1_game.html#a96341ca5b54d90adc3ecb3bf0bcd2312" target="_top" xlink:title=" ">
<polygon fill="white" stroke="black" points="0,-148.5 0,-167.5 120,-167.5 120,-148.5 0,-148.5"/>
<text text-anchor="middle" x="60" y="-155.5" font-family="Helvetica,sans-Serif" font-size="10.00">Application::Game::Run</text>
</a>
</g>
</g>
<!-- Node7&#45;&gt;Node8 -->
<g id="edge7" class="edge"><title>Node7&#45;&gt;Node8</title>
<path fill="none" stroke="midnightblue" d="M145.546,-158C137.081,-158 128.513,-158 120.244,-158"/>
<polygon fill="midnightblue" stroke="midnightblue" points="145.792,-161.5 155.792,-158 145.792,-154.5 145.792,-161.5"/>
</g>
<!-- Node9&#45;&gt;Node5 -->
<g id="edge9" class="edge"><title>Node9&#45;&gt;Node5</title>
<path fill="none" stroke="midnightblue" d="M629.207,-145.582C610.814,-147.763 591.783,-150.02 575.073,-152.002"/>
<polygon fill="midnightblue" stroke="midnightblue" points="629.823,-149.033 639.341,-144.38 628.999,-142.082 629.823,-149.033"/>
</g>
<!-- Node11 -->
<g id="node11" class="node"><title>Node11</title>
<g id="a_node11"><a xlink:href="../../d4/d38/class_g_u_i_window.html#af4310ff80f340b9a9c9b3249564a0960" target="_top" xlink:title=" ">
<polygon fill="white" stroke="black" points="628,-88.5 628,-107.5 794,-107.5 794,-88.5 628,-88.5"/>
<text text-anchor="middle" x="711" y="-95.5" font-family="Helvetica,sans-Serif" font-size="10.00">GUIWindow::HouseDialogManager</text>
</a>
</g>
</g>
<!-- Node10&#45;&gt;Node11 -->
<g id="edge11" class="edge"><title>Node10&#45;&gt;Node11</title>
<path fill="none" stroke="midnightblue" d="M841.859,-98C826.746,-98 810.268,-98 794.279,-98"/>
<polygon fill="midnightblue" stroke="midnightblue" points="842.08,-101.5 852.08,-98 842.08,-94.5001 842.08,-101.5"/>
</g>
<!-- Node12 -->
<g id="node12" class="node"><title>Node12</title>
<g id="a_node12"><a xlink:href="../../d8/ddd/class_g_u_i_window___house.html#a27de5de37c96fb176d5d12465e59ccc7" target="_top" xlink:title=" ">
<polygon fill="white" stroke="black" points="455,-88.5 455,-107.5 592,-107.5 592,-88.5 455,-88.5"/>
<text text-anchor="middle" x="523.5" y="-95.5" font-family="Helvetica,sans-Serif" font-size="10.00">GUIWindow_House::Update</text>
</a>
</g>
</g>
<!-- Node11&#45;&gt;Node12 -->
<g id="edge12" class="edge"><title>Node11&#45;&gt;Node12</title>
<path fill="none" stroke="midnightblue" d="M617.731,-98C609.114,-98 600.491,-98 592.16,-98"/>
<polygon fill="midnightblue" stroke="midnightblue" points="617.827,-101.5 627.827,-98 617.827,-94.5001 617.827,-101.5"/>
</g>
<!-- Node14 -->
<g id="node14" class="node"><title>Node14</title>
<g id="a_node14"><a xlink:href="../../de/d17/class_g_u_i_window___character_record.html#a0f5495b3e77a5b936914a37270e9d2e2" target="_top" xlink:title=" ">
<polygon fill="white" stroke="black" points="830,-39 830,-69 976,-69 976,-39 830,-39"/>
<text text-anchor="start" x="838" y="-57" font-family="Helvetica,sans-Serif" font-size="10.00">GUIWindow_CharacterRecord</text>
<text text-anchor="middle" x="903" y="-46" font-family="Helvetica,sans-Serif" font-size="10.00">::Update</text>
</a>
</g>
</g>
<!-- Node13&#45;&gt;Node14 -->
<g id="edge14" class="edge"><title>Node13&#45;&gt;Node14</title>
<path fill="none" stroke="midnightblue" d="M1003.54,-54C994.387,-54 985.117,-54 976.105,-54"/>
<polygon fill="midnightblue" stroke="midnightblue" points="1003.81,-57.5001 1013.81,-54 1003.81,-50.5001 1003.81,-57.5001"/>
</g>
</g>
</svg>
