<?xml version="1.0" encoding="UTF-8" standalone="no"?>
<!DOCTYPE svg PUBLIC "-//W3C//DTD SVG 1.1//EN"
 "http://www.w3.org/Graphics/SVG/1.1/DTD/svg11.dtd">
<!-- Generated by graphviz version 2.38.0 (20140413.2041)
 -->
<!-- Title: Player::GetActualSpeed Pages: 1 -->
<!--zoomable 176 -->
<svg id="main" version="1.1" xmlns="http://www.w3.org/2000/svg" xmlns:xlink="http://www.w3.org/1999/xlink" xml:space="preserve" onload="init(evt)">
<style type="text/css"><![CDATA[
.edge:hover path { stroke: red; }
.edge:hover polygon { stroke: red; fill: red; }
]]></style>
<script type="text/javascript"><![CDATA[
var edges = document.getElementsByTagName('g');
if (edges && edges.length) {
  for (var i=0;i<edges.length;i++) {
    if (edges[i].id.substr(0,4)=='edge') {
      edges[i].setAttribute('class','edge');
    }
  }
}
]]></script>
        <defs>
                <circle id="rim" cx="0" cy="0" r="7"/>
                <circle id="rim2" cx="0" cy="0" r="3.5"/>
                <g id="zoomPlus">
                        <use xlink:href="#rim" fill="#404040">
                                <set attributeName="fill" to="#808080" begin="zoomplus.mouseover" end="zoomplus.mouseout"/>
                        </use>
                        <path d="M-4,0h8M0,-4v8" fill="none" stroke="white" stroke-width="1.5" pointer-events="none"/>
                </g>
                <g id="zoomMin">
                        <use xlink:href="#rim" fill="#404040">
                                <set attributeName="fill" to="#808080" begin="zoomminus.mouseover" end="zoomminus.mouseout"/>
                        </use>
                        <path d="M-4,0h8" fill="none" stroke="white" stroke-width="1.5" pointer-events="none"/>
                </g>
                <g id="dirArrow">
                        <path fill="none" stroke="white" stroke-width="1.5" d="M0,-3.0v7 M-2.5,-0.5L0,-3.0L2.5,-0.5"/>
                </g>
               <g id="resetDef">
                       <use xlink:href="#rim2" fill="#404040">
                               <set attributeName="fill" to="#808080" begin="reset.mouseover" end="reset.mouseout"/>
                       </use>
               </g>
        </defs>

<script type="text/javascript">
var viewWidth = 1109;
var viewHeight = 176;
var sectionId = 'dynsection-41';
</script>
<script xlink:href="../../svgpan.js"/>
<svg id="graph" class="graph">
<g id="viewport">
<title>Player::GetActualSpeed</title>
<polygon fill="white" stroke="none" points="-4,4 -4,-171.5 1105,-171.5 1105,4 -4,4"/>
<!-- Node1 -->
<g id="node1" class="node"><title>Node1</title>
<g id="a_node1"><a xlink:title=" ">
<polygon fill="#bfbfbf" stroke="black" points="979,-92.5 979,-111.5 1101,-111.5 1101,-92.5 979,-92.5"/>
<text text-anchor="middle" x="1040" y="-99.5" font-family="Helvetica,sans-Serif" font-size="10.00">Player::GetActualSpeed</text>
</a>
</g>
</g>
<!-- Node2 -->
<g id="node2" class="node"><title>Node2</title>
<g id="a_node2"><a xlink:href="../../de/d17/class_g_u_i_window___character_record.html#addd6261010ad7fd72af9bb1baaeeadff" target="_top" xlink:title=" ">
<polygon fill="white" stroke="black" points="792.5,-135 792.5,-165 938.5,-165 938.5,-135 792.5,-135"/>
<text text-anchor="start" x="800.5" y="-153" font-family="Helvetica,sans-Serif" font-size="10.00">GUIWindow_CharacterRecord</text>
<text text-anchor="middle" x="865.5" y="-142" font-family="Helvetica,sans-Serif" font-size="10.00">::CharacterUI_StatsTab_Draw</text>
</a>
</g>
</g>
<!-- Node1&#45;&gt;Node2 -->
<g id="edge1" class="edge"><title>Node1&#45;&gt;Node2</title>
<path fill="none" stroke="midnightblue" d="M994.836,-114.289C972.23,-120.579 944.515,-128.292 920.633,-134.937"/>
<polygon fill="midnightblue" stroke="midnightblue" points="995.811,-117.651 1004.51,-111.598 993.934,-110.907 995.811,-117.651"/>
</g>
<!-- Node4 -->
<g id="node4" class="node"><title>Node4</title>
<g id="a_node4"><a xlink:href="../../d3/db1/struct_player.html#ac56375708861d959b5497e3053d72bdf" target="_top" xlink:title=" ">
<polygon fill="white" stroke="black" points="803,-92.5 803,-111.5 928,-111.5 928,-92.5 803,-92.5"/>
<text text-anchor="middle" x="865.5" y="-99.5" font-family="Helvetica,sans-Serif" font-size="10.00">Player::CompareVariable</text>
</a>
</g>
</g>
<!-- Node1&#45;&gt;Node4 -->
<g id="edge3" class="edge"><title>Node1&#45;&gt;Node4</title>
<path fill="none" stroke="midnightblue" d="M968.575,-102C955.213,-102 941.327,-102 928.259,-102"/>
<polygon fill="midnightblue" stroke="midnightblue" points="968.668,-105.5 978.668,-102 968.668,-98.5001 968.668,-105.5"/>
</g>
<!-- Node5 -->
<g id="node5" class="node"><title>Node5</title>
<g id="a_node5"><a xlink:href="../../d3/db1/struct_player.html#aa480b64360cfa7628ec583a02a0f2c4c" target="_top" xlink:title=" ">
<polygon fill="white" stroke="black" points="788,-46.5 788,-65.5 943,-65.5 943,-46.5 788,-46.5"/>
<text text-anchor="middle" x="865.5" y="-53.5" font-family="Helvetica,sans-Serif" font-size="10.00">Player::GetAttackRecoveryTime</text>
</a>
</g>
</g>
<!-- Node1&#45;&gt;Node5 -->
<g id="edge4" class="edge"><title>Node1&#45;&gt;Node5</title>
<path fill="none" stroke="midnightblue" d="M993.51,-89.8694C964.959,-82.2556 928.668,-72.5781 902.196,-65.519"/>
<polygon fill="midnightblue" stroke="midnightblue" points="992.694,-93.2739 1003.26,-92.4688 994.497,-86.5102 992.694,-93.2739"/>
</g>
<!-- Node3 -->
<g id="node3" class="node"><title>Node3</title>
<g id="a_node3"><a xlink:href="../../de/d17/class_g_u_i_window___character_record.html#a0f5495b3e77a5b936914a37270e9d2e2" target="_top" xlink:title=" ">
<polygon fill="white" stroke="black" points="600,-137 600,-167 746,-167 746,-137 600,-137"/>
<text text-anchor="start" x="608" y="-155" font-family="Helvetica,sans-Serif" font-size="10.00">GUIWindow_CharacterRecord</text>
<text text-anchor="middle" x="673" y="-144" font-family="Helvetica,sans-Serif" font-size="10.00">::Update</text>
</a>
</g>
</g>
<!-- Node2&#45;&gt;Node3 -->
<g id="edge2" class="edge"><title>Node2&#45;&gt;Node3</title>
<path fill="none" stroke="midnightblue" d="M782.421,-150.862C770.343,-150.989 757.978,-151.118 746.122,-151.243"/>
<polygon fill="midnightblue" stroke="midnightblue" points="782.517,-154.361 792.48,-150.756 782.444,-147.361 782.517,-154.361"/>
</g>
<!-- Node6 -->
<g id="node6" class="node"><title>Node6</title>
<g id="a_node6"><a xlink:href="../../d8/d06/namespace_cast_spell_info_helpers.html#a6fa3b22b4867c28cad6c215c646dc4aa" target="_top" xlink:title=" ">
<polygon fill="white" stroke="black" points="618,-88 618,-118 728,-118 728,-88 618,-88"/>
<text text-anchor="start" x="626" y="-106" font-family="Helvetica,sans-Serif" font-size="10.00">CastSpellInfoHelpers</text>
<text text-anchor="middle" x="673" y="-95" font-family="Helvetica,sans-Serif" font-size="10.00">::_427E01_cast_spell</text>
</a>
</g>
</g>
<!-- Node5&#45;&gt;Node6 -->
<g id="edge5" class="edge"><title>Node5&#45;&gt;Node6</title>
<path fill="none" stroke="midnightblue" d="M816.006,-67.9645C789.15,-74.5902 755.701,-82.8429 728.013,-89.6741"/>
<polygon fill="midnightblue" stroke="midnightblue" points="817.079,-71.3047 825.949,-65.5112 815.402,-64.5085 817.079,-71.3047"/>
</g>
<!-- Node11 -->
<g id="node11" class="node"><title>Node11</title>
<g id="a_node11"><a xlink:href="../../d3/db1/struct_player.html#adcd0e965260bb120a6e90b515cc748ac" target="_top" xlink:title=" ">
<polygon fill="white" stroke="black" points="594,-39 594,-69 752,-69 752,-39 594,-39"/>
<text text-anchor="start" x="602" y="-57" font-family="Helvetica,sans-Serif" font-size="10.00">Player::_42ECB5_PlayerAttacks</text>
<text text-anchor="middle" x="673" y="-46" font-family="Helvetica,sans-Serif" font-size="10.00">Actor</text>
</a>
</g>
</g>
<!-- Node5&#45;&gt;Node11 -->
<g id="edge10" class="edge"><title>Node5&#45;&gt;Node11</title>
<path fill="none" stroke="midnightblue" d="M777.818,-55.09C769.23,-54.9998 760.549,-54.9086 752.056,-54.8195"/>
<polygon fill="midnightblue" stroke="midnightblue" points="777.804,-58.5899 787.84,-55.1952 777.877,-51.5903 777.804,-58.5899"/>
</g>
<!-- Node12 -->
<g id="node12" class="node"><title>Node12</title>
<g id="a_node12"><a xlink:href="../../da/d35/struct_actor.html#a4d67f03cd45a4619eccf79838f9eb3a7" target="_top" xlink:title=" ">
<polygon fill="white" stroke="black" points="627.5,-0.5 627.5,-19.5 718.5,-19.5 718.5,-0.5 627.5,-0.5"/>
<text text-anchor="middle" x="673" y="-7.5" font-family="Helvetica,sans-Serif" font-size="10.00">Actor::StealFrom</text>
</a>
</g>
</g>
<!-- Node5&#45;&gt;Node12 -->
<g id="edge12" class="edge"><title>Node5&#45;&gt;Node12</title>
<path fill="none" stroke="midnightblue" d="M815.088,-44.0684C783.433,-36.4248 742.91,-26.6397 713.421,-19.519"/>
<polygon fill="midnightblue" stroke="midnightblue" points="814.486,-47.5237 825.028,-46.4688 816.129,-40.7192 814.486,-47.5237"/>
</g>
<!-- Node7 -->
<g id="node7" class="node"><title>Node7</title>
<g id="a_node7"><a xlink:href="../../d4/d06/class_application_1_1_game.html#a3f65e3f0ef1a9114fb3dea275e52442e" target="_top" xlink:title=" ">
<polygon fill="white" stroke="black" points="455,-39 455,-69 558,-69 558,-39 455,-39"/>
<text text-anchor="start" x="463" y="-57" font-family="Helvetica,sans-Serif" font-size="10.00">Application::Game::</text>
<text text-anchor="middle" x="506.5" y="-46" font-family="Helvetica,sans-Serif" font-size="10.00">EventLoop</text>
</a>
</g>
</g>
<!-- Node6&#45;&gt;Node7 -->
<g id="edge6" class="edge"><title>Node6&#45;&gt;Node7</title>
<path fill="none" stroke="midnightblue" d="M611.682,-85.033C594.057,-79.783 574.982,-74.1011 558.03,-69.0516"/>
<polygon fill="midnightblue" stroke="midnightblue" points="610.719,-88.3981 621.302,-87.8986 612.718,-81.6894 610.719,-88.3981"/>
</g>
<!-- Node8 -->
<g id="node8" class="node"><title>Node8</title>
<g id="a_node8"><a xlink:href="../../d4/d06/class_application_1_1_game.html#aaa0ff18388b32b4e6198835a35e000d3" target="_top" xlink:title=" ">
<polygon fill="white" stroke="black" points="316,-39 316,-69 419,-69 419,-39 316,-39"/>
<text text-anchor="start" x="324" y="-57" font-family="Helvetica,sans-Serif" font-size="10.00">Application::Game::</text>
<text text-anchor="middle" x="367.5" y="-46" font-family="Helvetica,sans-Serif" font-size="10.00">GameLoop</text>
</a>
</g>
</g>
<!-- Node7&#45;&gt;Node8 -->
<g id="edge7" class="edge"><title>Node7&#45;&gt;Node8</title>
<path fill="none" stroke="midnightblue" d="M444.68,-54C436.228,-54 427.618,-54 419.374,-54"/>
<polygon fill="midnightblue" stroke="midnightblue" points="444.876,-57.5001 454.875,-54 444.875,-50.5001 444.876,-57.5001"/>
</g>
<!-- Node9 -->
<g id="node9" class="node"><title>Node9</title>
<g id="a_node9"><a xlink:href="../../d4/d06/class_application_1_1_game.html#a013ffd59e8fdf1c0a396da1dbe1681ca" target="_top" xlink:title=" ">
<polygon fill="white" stroke="black" points="156,-44.5 156,-63.5 280,-63.5 280,-44.5 156,-44.5"/>
<text text-anchor="middle" x="218" y="-51.5" font-family="Helvetica,sans-Serif" font-size="10.00">Application::Game::Loop</text>
</a>
</g>
</g>
<!-- Node8&#45;&gt;Node9 -->
<g id="edge8" class="edge"><title>Node8&#45;&gt;Node9</title>
<path fill="none" stroke="midnightblue" d="M305.59,-54C297.149,-54 288.478,-54 280.035,-54"/>
<polygon fill="midnightblue" stroke="midnightblue" points="305.739,-57.5001 315.739,-54 305.739,-50.5001 305.739,-57.5001"/>
</g>
<!-- Node10 -->
<g id="node10" class="node"><title>Node10</title>
<g id="a_node10"><a xlink:href="../../d4/d06/class_application_1_1_game.html#a96341ca5b54d90adc3ecb3bf0bcd2312" target="_top" xlink:title=" ">
<polygon fill="white" stroke="black" points="0,-44.5 0,-63.5 120,-63.5 120,-44.5 0,-44.5"/>
<text text-anchor="middle" x="60" y="-51.5" font-family="Helvetica,sans-Serif" font-size="10.00">Application::Game::Run</text>
</a>
</g>
</g>
<!-- Node9&#45;&gt;Node10 -->
<g id="edge9" class="edge"><title>Node9&#45;&gt;Node10</title>
<path fill="none" stroke="midnightblue" d="M145.546,-54C137.081,-54 128.513,-54 120.244,-54"/>
<polygon fill="midnightblue" stroke="midnightblue" points="145.792,-57.5001 155.792,-54 145.792,-50.5001 145.792,-57.5001"/>
</g>
<!-- Node11&#45;&gt;Node7 -->
<g id="edge11" class="edge"><title>Node11&#45;&gt;Node7</title>
<path fill="none" stroke="midnightblue" d="M583.407,-54C574.738,-54 566.163,-54 558.071,-54"/>
<polygon fill="midnightblue" stroke="midnightblue" points="583.604,-57.5001 593.604,-54 583.604,-50.5001 583.604,-57.5001"/>
</g>
<!-- Node12&#45;&gt;Node7 -->
<g id="edge13" class="edge"><title>Node12&#45;&gt;Node7</title>
<path fill="none" stroke="midnightblue" d="M621.609,-21.9428C612.407,-24.2181 602.902,-26.6305 594,-29 582.368,-32.0961 569.908,-35.5914 558.17,-38.9657"/>
<polygon fill="midnightblue" stroke="midnightblue" points="622.554,-25.315 631.434,-19.5362 620.888,-18.516 622.554,-25.315"/>
</g>
</g>
</svg>
        <g id="navigator" transform="translate(0 0)" fill="#404254">
                <rect fill="#f2f5e9" fill-opacity="0.5" stroke="#606060" stroke-width=".5" x="0" y="0" width="60" height="60"/>
                <use id="zoomplus" xlink:href="#zoomPlus" x="17" y="9" onmousedown="handleZoom(evt,'in')"/>
                <use id="zoomminus" xlink:href="#zoomMin" x="42" y="9" onmousedown="handleZoom(evt,'out')"/>
                <use id="reset" xlink:href="#resetDef" x="30" y="36" onmousedown="handleReset()"/>
                <g id="arrowUp" xlink:href="#dirArrow" transform="translate(30 24)" onmousedown="handlePan(0,-1)">
                  <use xlink:href="#rim" fill="#404040">
                        <set attributeName="fill" to="#808080" begin="arrowUp.mouseover" end="arrowUp.mouseout"/>
                  </use>
                  <path fill="none" stroke="white" stroke-width="1.5" d="M0,-3.0v7 M-2.5,-0.5L0,-3.0L2.5,-0.5"/>
                </g>
                <g id="arrowRight" xlink:href="#dirArrow" transform="rotate(90) translate(36 -43)" onmousedown="handlePan(1,0)">
                  <use xlink:href="#rim" fill="#404040">
                        <set attributeName="fill" to="#808080" begin="arrowRight.mouseover" end="arrowRight.mouseout"/>
                  </use>
                  <path fill="none" stroke="white" stroke-width="1.5" d="M0,-3.0v7 M-2.5,-0.5L0,-3.0L2.5,-0.5"/>
                </g>
                <g id="arrowDown" xlink:href="#dirArrow" transform="rotate(180) translate(-30 -48)" onmousedown="handlePan(0,1)">
                  <use xlink:href="#rim" fill="#404040">
                        <set attributeName="fill" to="#808080" begin="arrowDown.mouseover" end="arrowDown.mouseout"/>
                  </use>
                  <path fill="none" stroke="white" stroke-width="1.5" d="M0,-3.0v7 M-2.5,-0.5L0,-3.0L2.5,-0.5"/>
                </g>
                <g id="arrowLeft" xlink:href="#dirArrow" transform="rotate(270) translate(-36 17)" onmousedown="handlePan(-1,0)">
                  <use xlink:href="#rim" fill="#404040">
                        <set attributeName="fill" to="#808080" begin="arrowLeft.mouseover" end="arrowLeft.mouseout"/>
                  </use>
                  <path fill="none" stroke="white" stroke-width="1.5" d="M0,-3.0v7 M-2.5,-0.5L0,-3.0L2.5,-0.5"/>
                </g>
        </g>
        <svg viewBox="0 0 15 15" width="100%" height="30px" preserveAspectRatio="xMaxYMin meet">
         <g id="arrow_out" transform="scale(0.3 0.3)">
          <a xlink:href="struct_player_a23f3c10ff337e6d338fd392f79fed6d9_icgraph_org.svg" target="_base">
           <rect id="button" ry="5" rx="5" y="6" x="6" height="38" width="38"
                fill="#f2f5e9" fill-opacity="0.5" stroke="#606060" stroke-width="1.0"/>
           <path id="arrow"
             d="M 11.500037,31.436501 C 11.940474,20.09759 22.043105,11.32322 32.158766,21.979434 L 37.068811,17.246167 C 37.068811,17.246167 37.088388,32 37.088388,32 L 22.160133,31.978069 C 22.160133,31.978069 26.997745,27.140456 26.997745,27.140456 C 18.528582,18.264221 13.291696,25.230495 11.500037,31.436501 z"
             style="fill:#404040;"/>
          </a>
         </g>
        </svg>
</svg>
