<?xml version="1.0" encoding="UTF-8" standalone="no"?>
<!DOCTYPE svg PUBLIC "-//W3C//DTD SVG 1.1//EN"
 "http://www.w3.org/Graphics/SVG/1.1/DTD/svg11.dtd">
<!-- Generated by graphviz version 2.38.0 (20140413.2041)
 -->
<!-- Title: Player::GetBaseAccuracy Pages: 1 -->
<svg width="820pt" height="676pt"
 viewBox="0.00 0.00 820.00 675.89" xmlns="http://www.w3.org/2000/svg" xmlns:xlink="http://www.w3.org/1999/xlink">
<g id="graph0" class="graph" transform="scale(1 1) rotate(0) translate(4 671.894)">
<title>Player::GetBaseAccuracy</title>
<polygon fill="white" stroke="none" points="-4,4 -4,-671.894 816,-671.894 816,4 -4,4"/>
<!-- Node1 -->
<g id="node1" class="node"><title>Node1</title>
<g id="a_node1"><a xlink:title=" ">
<polygon fill="#bfbfbf" stroke="black" points="0,-328.5 0,-347.5 130,-347.5 130,-328.5 0,-328.5"/>
<text text-anchor="middle" x="65" y="-335.5" font-family="Helvetica,sans-Serif" font-size="10.00">Player::GetBaseAccuracy</text>
</a>
</g>
</g>
<!-- Node2 -->
<g id="node2" class="node"><title>Node2</title>
<g id="a_node2"><a xlink:href="../../d3/db1/struct_player.html#a475b26d600cd7da0c4682b038cc0d2be" target="_top" xlink:title=" ">
<polygon fill="white" stroke="black" points="166,-328.5 166,-347.5 284,-347.5 284,-328.5 166,-328.5"/>
<text text-anchor="middle" x="225" y="-335.5" font-family="Helvetica,sans-Serif" font-size="10.00">Player::GetItemsBonus</text>
</a>
</g>
</g>
<!-- Node1&#45;&gt;Node2 -->
<g id="edge1" class="edge"><title>Node1&#45;&gt;Node2</title>
<path fill="none" stroke="midnightblue" d="M130.265,-338C138.647,-338 147.258,-338 155.703,-338"/>
<polygon fill="midnightblue" stroke="midnightblue" points="155.896,-341.5 165.896,-338 155.896,-334.5 155.896,-341.5"/>
</g>
<!-- Node3 -->
<g id="node3" class="node"><title>Node3</title>
<g id="a_node3"><a xlink:href="../../d3/db1/struct_player.html#ae55aa4960489ccabd70e862226f2b8a2" target="_top" xlink:title=" ">
<polygon fill="white" stroke="black" points="557,-644.5 557,-663.5 661,-663.5 661,-644.5 557,-644.5"/>
<text text-anchor="middle" x="609" y="-651.5" font-family="Helvetica,sans-Serif" font-size="10.00">Player::GetBowItem</text>
</a>
</g>
</g>
<!-- Node2&#45;&gt;Node3 -->
<g id="edge2" class="edge"><title>Node2&#45;&gt;Node3</title>
<path fill="none" stroke="midnightblue" d="M225.832,-347.774C225.711,-388.719 231.153,-547.67 320,-620 383.523,-671.714 482.624,-671.429 546.427,-664.352"/>
<polygon fill="midnightblue" stroke="midnightblue" points="547.23,-667.781 556.742,-663.115 546.397,-660.831 547.23,-667.781"/>
</g>
<!-- Node5 -->
<g id="node5" class="node"><title>Node5</title>
<g id="a_node5"><a xlink:href="../../d7/d9c/struct_item_gen.html#af8fb15fa18b609796777def550162884" target="_top" xlink:title=" ">
<polygon fill="white" stroke="black" points="340,-290.5 340,-309.5 471,-309.5 471,-290.5 340,-290.5"/>
<text text-anchor="middle" x="405.5" y="-297.5" font-family="Helvetica,sans-Serif" font-size="10.00">ItemGen::GetDamageDice</text>
</a>
</g>
</g>
<!-- Node2&#45;&gt;Node5 -->
<g id="edge4" class="edge"><title>Node2&#45;&gt;Node5</title>
<path fill="none" stroke="midnightblue" d="M271.043,-328.411C295.023,-323.306 324.698,-316.989 349.972,-311.608"/>
<polygon fill="midnightblue" stroke="midnightblue" points="350.729,-315.026 359.781,-309.52 349.271,-308.179 350.729,-315.026"/>
</g>
<!-- Node6 -->
<g id="node6" class="node"><title>Node6</title>
<g id="a_node6"><a xlink:href="../../d7/d9c/struct_item_gen.html#a32503e9f2824cb00a91b88d859def49a" target="_top" xlink:title=" ">
<polygon fill="white" stroke="black" points="340.5,-252.5 340.5,-271.5 470.5,-271.5 470.5,-252.5 340.5,-252.5"/>
<text text-anchor="middle" x="405.5" y="-259.5" font-family="Helvetica,sans-Serif" font-size="10.00">ItemGen::GetDamageMod</text>
</a>
</g>
</g>
<!-- Node2&#45;&gt;Node6 -->
<g id="edge5" class="edge"><title>Node2&#45;&gt;Node6</title>
<path fill="none" stroke="midnightblue" d="M238.674,-328.459C256.099,-315.79 288.845,-293.557 320,-281 326.372,-278.432 333.16,-276.175 340.015,-274.201"/>
<polygon fill="midnightblue" stroke="midnightblue" points="341.31,-277.477 350.062,-271.506 339.497,-270.716 341.31,-277.477"/>
</g>
<!-- Node7 -->
<g id="node7" class="node"><title>Node7</title>
<g id="a_node7"><a xlink:href="../../d7/d9c/struct_item_gen.html#a0b7e21cfa48b52596a34ac9ae05ea07e" target="_top" xlink:title=" ">
<polygon fill="white" stroke="black" points="341.5,-214.5 341.5,-233.5 469.5,-233.5 469.5,-214.5 341.5,-214.5"/>
<text text-anchor="middle" x="405.5" y="-221.5" font-family="Helvetica,sans-Serif" font-size="10.00">ItemGen::GetDamageRoll</text>
</a>
</g>
</g>
<!-- Node2&#45;&gt;Node7 -->
<g id="edge6" class="edge"><title>Node2&#45;&gt;Node7</title>
<path fill="none" stroke="midnightblue" d="M232.515,-328.423C246.252,-309.018 280.221,-265.039 320,-243 324.139,-240.707 328.537,-238.69 333.068,-236.917"/>
<polygon fill="midnightblue" stroke="midnightblue" points="334.235,-240.217 342.516,-233.609 331.921,-233.611 334.235,-240.217"/>
</g>
<!-- Node8 -->
<g id="node8" class="node"><title>Node8</title>
<g id="a_node8"><a xlink:href="../../d3/db1/struct_player.html#aa6da66d9e96bb7cb4c438244e97664e7" target="_top" xlink:title=" ">
<polygon fill="white" stroke="black" points="320,-454.5 320,-473.5 491,-473.5 491,-454.5 320,-454.5"/>
<text text-anchor="middle" x="405.5" y="-461.5" font-family="Helvetica,sans-Serif" font-size="10.00">Player::GetEquippedItemEquipType</text>
</a>
</g>
</g>
<!-- Node2&#45;&gt;Node8 -->
<g id="edge7" class="edge"><title>Node2&#45;&gt;Node8</title>
<path fill="none" stroke="midnightblue" d="M232.238,-347.796C245.71,-368.141 279.592,-415.144 320,-440 327.456,-444.586 335.816,-448.322 344.301,-451.359"/>
<polygon fill="midnightblue" stroke="midnightblue" points="343.298,-454.714 353.891,-454.499 345.476,-448.061 343.298,-454.714"/>
</g>
<!-- Node9 -->
<g id="node9" class="node"><title>Node9</title>
<g id="a_node9"><a xlink:href="../../d7/d9c/struct_item_gen.html#a1aff2db2385ebf047a37787234f745a8" target="_top" xlink:title=" ">
<polygon fill="white" stroke="black" points="539,-492.5 539,-511.5 679,-511.5 679,-492.5 539,-492.5"/>
<text text-anchor="middle" x="609" y="-499.5" font-family="Helvetica,sans-Serif" font-size="10.00">ItemGen::GetItemEquipType</text>
</a>
</g>
</g>
<!-- Node2&#45;&gt;Node9 -->
<g id="edge12" class="edge"><title>Node2&#45;&gt;Node9</title>
<path fill="none" stroke="midnightblue" d="M227.492,-347.945C232.908,-380.052 254.763,-481.17 320,-521 401.094,-570.512 520.058,-536.255 576.304,-515.158"/>
<polygon fill="midnightblue" stroke="midnightblue" points="577.664,-518.385 585.735,-511.522 575.146,-511.854 577.664,-518.385"/>
</g>
<!-- Node10 -->
<g id="node10" class="node"><title>Node10</title>
<g id="a_node10"><a xlink:href="../../d3/db1/struct_player.html#a6809c4b1b0d9d0f1de56f97c7dd2fc68" target="_top" xlink:title=" ">
<polygon fill="white" stroke="black" points="527,-416.5 527,-435.5 691,-435.5 691,-416.5 527,-416.5"/>
<text text-anchor="middle" x="609" y="-423.5" font-family="Helvetica,sans-Serif" font-size="10.00">Player::GetNthEquippedIndexItem</text>
</a>
</g>
</g>
<!-- Node2&#45;&gt;Node10 -->
<g id="edge15" class="edge"><title>Node2&#45;&gt;Node10</title>
<path fill="none" stroke="midnightblue" d="M235.054,-347.51C250.67,-363.194 284.433,-394.035 320,-407 382.954,-429.947 458.72,-434.106 516.737,-432.843"/>
<polygon fill="midnightblue" stroke="midnightblue" points="517.089,-436.335 526.989,-432.56 516.896,-429.337 517.089,-436.335"/>
</g>
<!-- Node11 -->
<g id="node11" class="node"><title>Node11</title>
<g id="a_node11"><a xlink:href="../../d7/d9c/struct_item_gen.html#a0723d1e6e73872c78e50da0e285305fd" target="_top" xlink:title=" ">
<polygon fill="white" stroke="black" points="329.5,-176.5 329.5,-195.5 481.5,-195.5 481.5,-176.5 329.5,-176.5"/>
<text text-anchor="middle" x="405.5" y="-183.5" font-family="Helvetica,sans-Serif" font-size="10.00">ItemGen::GetItemBonusArtifact</text>
</a>
</g>
</g>
<!-- Node2&#45;&gt;Node11 -->
<g id="edge10" class="edge"><title>Node2&#45;&gt;Node11</title>
<path fill="none" stroke="midnightblue" d="M229.812,-328.461C240.206,-303.748 271.547,-237.327 320,-205 322.967,-203.021 326.109,-201.245 329.369,-199.652"/>
<polygon fill="midnightblue" stroke="midnightblue" points="330.989,-202.767 338.82,-195.631 328.248,-196.326 330.989,-202.767"/>
</g>
<!-- Node12 -->
<g id="node12" class="node"><title>Node12</title>
<g id="a_node12"><a xlink:href="../../d7/d9c/struct_item_gen.html#a0a1c65b82c0ff9e6f28016b544a982d6" target="_top" xlink:title=" ">
<polygon fill="white" stroke="black" points="328.5,-127 328.5,-157 482.5,-157 482.5,-127 328.5,-127"/>
<text text-anchor="start" x="336.5" y="-145" font-family="Helvetica,sans-Serif" font-size="10.00">ItemGen::GetItemBonusSpecial</text>
<text text-anchor="middle" x="405.5" y="-134" font-family="Helvetica,sans-Serif" font-size="10.00">Enchantment</text>
</a>
</g>
</g>
<!-- Node2&#45;&gt;Node12 -->
<g id="edge11" class="edge"><title>Node2&#45;&gt;Node12</title>
<path fill="none" stroke="midnightblue" d="M228.531,-328.162C236.569,-298.927 264.325,-211.831 320,-167 322.085,-165.321 324.28,-163.755 326.56,-162.293"/>
<polygon fill="midnightblue" stroke="midnightblue" points="328.708,-165.102 335.724,-157.163 325.289,-158.994 328.708,-165.102"/>
</g>
<!-- Node13 -->
<g id="node13" class="node"><title>Node13</title>
<g id="a_node13"><a xlink:href="../../d3/db1/struct_player.html#a2fe2e69c33d03d97a7ef57af845489be" target="_top" xlink:title=" ">
<polygon fill="white" stroke="black" points="545,-606.5 545,-625.5 673,-625.5 673,-606.5 545,-606.5"/>
<text text-anchor="middle" x="609" y="-613.5" font-family="Helvetica,sans-Serif" font-size="10.00">Player::GetMainHandItem</text>
</a>
</g>
</g>
<!-- Node2&#45;&gt;Node13 -->
<g id="edge13" class="edge"><title>Node2&#45;&gt;Node13</title>
<path fill="none" stroke="midnightblue" d="M226.354,-347.53C228.297,-384.795 240.776,-521.607 320,-583 382.836,-631.694 477.775,-632.861 541.278,-626.613"/>
<polygon fill="midnightblue" stroke="midnightblue" points="542.011,-630.055 551.581,-625.508 541.264,-623.095 542.011,-630.055"/>
</g>
<!-- Node14 -->
<g id="node14" class="node"><title>Node14</title>
<g id="a_node14"><a xlink:href="../../d3/db1/struct_player.html#aa21a62746eeab18923a9574f8bbeb1f5" target="_top" xlink:title=" ">
<polygon fill="white" stroke="black" points="549.5,-568.5 549.5,-587.5 668.5,-587.5 668.5,-568.5 549.5,-568.5"/>
<text text-anchor="middle" x="609" y="-575.5" font-family="Helvetica,sans-Serif" font-size="10.00">Player::GetOffHandItem</text>
</a>
</g>
</g>
<!-- Node2&#45;&gt;Node14 -->
<g id="edge16" class="edge"><title>Node2&#45;&gt;Node14</title>
<path fill="none" stroke="midnightblue" d="M227.015,-347.544C231.168,-381.381 250.121,-496.298 320,-547 383.619,-593.16 476.909,-594.51 539.925,-588.561"/>
<polygon fill="midnightblue" stroke="midnightblue" points="540.569,-592.013 550.157,-587.506 539.851,-585.05 540.569,-592.013"/>
</g>
<!-- Node15 -->
<g id="node15" class="node"><title>Node15</title>
<g id="a_node15"><a xlink:href="../../d7/d9c/struct_item_gen.html#a964851ef377a08ea081799810094b9a6" target="_top" xlink:title=" ">
<polygon fill="white" stroke="black" points="334,-88.5 334,-107.5 477,-107.5 477,-88.5 334,-88.5"/>
<text text-anchor="middle" x="405.5" y="-95.5" font-family="Helvetica,sans-Serif" font-size="10.00">ItemGen::GetPlayerSkillType</text>
</a>
</g>
</g>
<!-- Node2&#45;&gt;Node15 -->
<g id="edge18" class="edge"><title>Node2&#45;&gt;Node15</title>
<path fill="none" stroke="midnightblue" d="M227.079,-328.279C231.45,-293.76 251.047,-176.043 320,-118 322.537,-115.864 325.263,-113.948 328.125,-112.229"/>
<polygon fill="midnightblue" stroke="midnightblue" points="329.769,-115.319 337.071,-107.642 326.575,-109.09 329.769,-115.319"/>
</g>
<!-- Node16 -->
<g id="node16" class="node"><title>Node16</title>
<g id="a_node16"><a xlink:href="../../d3/db1/struct_player.html#ad1457d0afb7d7ecfd97452b6e8baaf79" target="_top" xlink:title=" ">
<polygon fill="white" stroke="black" points="339,-367 339,-397 472,-397 472,-367 339,-367"/>
<text text-anchor="start" x="347" y="-385" font-family="Helvetica,sans-Serif" font-size="10.00">Player::HasEnchantedItem</text>
<text text-anchor="middle" x="405.5" y="-374" font-family="Helvetica,sans-Serif" font-size="10.00">Equipped</text>
</a>
</g>
</g>
<!-- Node2&#45;&gt;Node16 -->
<g id="edge19" class="edge"><title>Node2&#45;&gt;Node16</title>
<path fill="none" stroke="midnightblue" d="M264.732,-347.547C284.829,-352.501 310.021,-358.711 333.463,-364.49"/>
<polygon fill="midnightblue" stroke="midnightblue" points="332.835,-367.939 343.383,-366.935 334.511,-361.143 332.835,-367.939"/>
</g>
<!-- Node17 -->
<g id="node17" class="node"><title>Node17</title>
<g id="a_node17"><a xlink:href="../../d3/db1/struct_player.html#afde75b389a2678ebac44730041d4c94b" target="_top" xlink:title=" ">
<polygon fill="white" stroke="black" points="545.5,-372.5 545.5,-391.5 672.5,-391.5 672.5,-372.5 545.5,-372.5"/>
<text text-anchor="middle" x="609" y="-379.5" font-family="Helvetica,sans-Serif" font-size="10.00">Player::HasItemEquipped</text>
</a>
</g>
</g>
<!-- Node2&#45;&gt;Node17 -->
<g id="edge22" class="edge"><title>Node2&#45;&gt;Node17</title>
<path fill="none" stroke="midnightblue" d="M284.125,-340.262C337.967,-342.86 420.174,-348.104 491,-358 513.148,-361.095 537.401,-365.842 558.054,-370.299"/>
<polygon fill="midnightblue" stroke="midnightblue" points="557.36,-373.73 567.878,-372.456 558.861,-366.893 557.36,-373.73"/>
</g>
<!-- Node18 -->
<g id="node18" class="node"><title>Node18</title>
<g id="a_node18"><a xlink:href="../../db/d39/struct_items_table.html#a9ce59bdb78130973f350ac3f2bcf0312" target="_top" xlink:title=" ">
<polygon fill="white" stroke="black" points="341,-39 341,-69 470,-69 470,-39 341,-39"/>
<text text-anchor="start" x="349" y="-57" font-family="Helvetica,sans-Serif" font-size="10.00">ItemsTable::IsMaterialNon</text>
<text text-anchor="middle" x="405.5" y="-46" font-family="Helvetica,sans-Serif" font-size="10.00">Common</text>
</a>
</g>
</g>
<!-- Node2&#45;&gt;Node18 -->
<g id="edge23" class="edge"><title>Node2&#45;&gt;Node18</title>
<path fill="none" stroke="midnightblue" d="M226.508,-328.354C229.026,-290.564 243.369,-151.129 320,-79 323.572,-75.638 327.574,-72.726 331.844,-70.204"/>
<polygon fill="midnightblue" stroke="midnightblue" points="333.621,-73.2263 340.93,-65.5558 330.433,-66.9945 333.621,-73.2263"/>
</g>
<!-- Node19 -->
<g id="node19" class="node"><title>Node19</title>
<g id="a_node19"><a xlink:href="../../db/d39/struct_items_table.html#a82c2132831b7b62f7851168122f7d5e0" target="_top" xlink:title=" ">
<polygon fill="white" stroke="black" points="333.5,-0.5 333.5,-19.5 477.5,-19.5 477.5,-0.5 333.5,-0.5"/>
<text text-anchor="middle" x="405.5" y="-7.5" font-family="Helvetica,sans-Serif" font-size="10.00">ItemsTable::IsMaterialSpecial</text>
</a>
</g>
</g>
<!-- Node2&#45;&gt;Node19 -->
<g id="edge24" class="edge"><title>Node2&#45;&gt;Node19</title>
<path fill="none" stroke="midnightblue" d="M225.751,-328.218C225.231,-285.703 229.076,-115.3 320,-30 321.972,-28.1498 324.083,-26.4608 326.303,-24.9193"/>
<polygon fill="midnightblue" stroke="midnightblue" points="328.45,-27.72 335.347,-19.6768 324.94,-21.6639 328.45,-27.72"/>
</g>
<!-- Node20 -->
<g id="node20" class="node"><title>Node20</title>
<g id="a_node20"><a xlink:href="../../d3/db1/struct_player.html#a3763c75dd38d3b35f27f1c601bd38632" target="_top" xlink:title=" ">
<polygon fill="white" stroke="black" points="357,-492.5 357,-511.5 454,-511.5 454,-492.5 357,-492.5"/>
<text text-anchor="middle" x="405.5" y="-499.5" font-family="Helvetica,sans-Serif" font-size="10.00">Player::IsUnarmed</text>
</a>
</g>
</g>
<!-- Node2&#45;&gt;Node20 -->
<g id="edge25" class="edge"><title>Node2&#45;&gt;Node20</title>
<path fill="none" stroke="midnightblue" d="M229.274,-347.62C238.744,-373.903 268.796,-447.334 320,-483 327.967,-488.549 337.291,-492.508 346.78,-495.325"/>
<polygon fill="midnightblue" stroke="midnightblue" points="346.122,-498.77 356.679,-497.867 347.863,-491.99 346.122,-498.77"/>
</g>
<!-- Node4 -->
<g id="node4" class="node"><title>Node4</title>
<g id="a_node4"><a xlink:href="../../d3/db1/struct_player.html#a72423437c838ef129ddb4e8c36d17562" target="_top" xlink:title=" ">
<polygon fill="white" stroke="black" points="727,-606.5 727,-625.5 812,-625.5 812,-606.5 727,-606.5"/>
<text text-anchor="middle" x="769.5" y="-613.5" font-family="Helvetica,sans-Serif" font-size="10.00">Player::GetItem</text>
</a>
</g>
</g>
<!-- Node3&#45;&gt;Node4 -->
<g id="edge3" class="edge"><title>Node3&#45;&gt;Node4</title>
<path fill="none" stroke="midnightblue" d="M651.226,-644.414C663.982,-641.425 678.078,-638.099 691,-635 700.398,-632.746 710.43,-630.309 720.052,-627.957"/>
<polygon fill="midnightblue" stroke="midnightblue" points="721.007,-631.326 729.886,-625.547 719.341,-624.528 721.007,-631.326"/>
</g>
<!-- Node8&#45;&gt;Node9 -->
<g id="edge8" class="edge"><title>Node8&#45;&gt;Node9</title>
<path fill="none" stroke="midnightblue" d="M457.087,-473.54C484.513,-478.712 518.598,-485.14 547.432,-490.578"/>
<polygon fill="midnightblue" stroke="midnightblue" points="546.917,-494.042 557.392,-492.456 548.214,-487.163 546.917,-494.042"/>
</g>
<!-- Node8&#45;&gt;Node10 -->
<g id="edge9" class="edge"><title>Node8&#45;&gt;Node10</title>
<path fill="none" stroke="midnightblue" d="M457.087,-454.46C484.513,-449.288 518.598,-442.86 547.432,-437.422"/>
<polygon fill="midnightblue" stroke="midnightblue" points="548.214,-440.837 557.392,-435.544 546.917,-433.958 548.214,-440.837"/>
</g>
<!-- Node13&#45;&gt;Node4 -->
<g id="edge14" class="edge"><title>Node13&#45;&gt;Node4</title>
<path fill="none" stroke="midnightblue" d="M673.099,-616C687.408,-616 702.451,-616 716.252,-616"/>
<polygon fill="midnightblue" stroke="midnightblue" points="716.532,-619.5 726.532,-616 716.532,-612.5 716.532,-619.5"/>
</g>
<!-- Node14&#45;&gt;Node4 -->
<g id="edge17" class="edge"><title>Node14&#45;&gt;Node4</title>
<path fill="none" stroke="midnightblue" d="M651.226,-587.586C663.982,-590.575 678.078,-593.901 691,-597 700.398,-599.254 710.43,-601.691 720.052,-604.043"/>
<polygon fill="midnightblue" stroke="midnightblue" points="719.341,-607.472 729.886,-606.453 721.007,-600.674 719.341,-607.472"/>
</g>
<!-- Node16&#45;&gt;Node10 -->
<g id="edge20" class="edge"><title>Node16&#45;&gt;Node10</title>
<path fill="none" stroke="midnightblue" d="M472.2,-396.346C498.865,-402.169 529.272,-408.809 554.544,-414.327"/>
<polygon fill="midnightblue" stroke="midnightblue" points="553.799,-417.747 564.316,-416.461 555.293,-410.908 553.799,-417.747"/>
</g>
<!-- Node16&#45;&gt;Node17 -->
<g id="edge21" class="edge"><title>Node16&#45;&gt;Node17</title>
<path fill="none" stroke="midnightblue" d="M472.2,-382C492.341,-382 514.616,-382 535.202,-382"/>
<polygon fill="midnightblue" stroke="midnightblue" points="535.472,-385.5 545.472,-382 535.472,-378.5 535.472,-385.5"/>
</g>
<!-- Node20&#45;&gt;Node9 -->
<g id="edge26" class="edge"><title>Node20&#45;&gt;Node9</title>
<path fill="none" stroke="midnightblue" d="M454.253,-502C476.449,-502 503.443,-502 528.58,-502"/>
<polygon fill="midnightblue" stroke="midnightblue" points="528.847,-505.5 538.847,-502 528.847,-498.5 528.847,-505.5"/>
</g>
<!-- Node20&#45;&gt;Node14 -->
<g id="edge27" class="edge"><title>Node20&#45;&gt;Node14</title>
<path fill="none" stroke="midnightblue" d="M432.02,-511.625C467.827,-525.131 533.089,-549.746 573.286,-564.907"/>
<polygon fill="midnightblue" stroke="midnightblue" points="572.095,-568.198 582.687,-568.453 574.566,-561.649 572.095,-568.198"/>
</g>
<!-- Node20&#45;&gt;Node17 -->
<g id="edge28" class="edge"><title>Node20&#45;&gt;Node17</title>
<path fill="none" stroke="midnightblue" d="M454.122,-498.966C467.154,-496.204 480.551,-491.361 491,-483 520.184,-459.65 498.751,-431.473 527,-407 532.306,-402.403 538.447,-398.651 544.928,-395.589"/>
<polygon fill="midnightblue" stroke="midnightblue" points="546.71,-398.64 554.609,-391.579 544.03,-392.173 546.71,-398.64"/>
</g>
</g>
</svg>
