<?xml version="1.0" encoding="UTF-8" standalone="no"?>
<!DOCTYPE svg PUBLIC "-//W3C//DTD SVG 1.1//EN"
 "http://www.w3.org/Graphics/SVG/1.1/DTD/svg11.dtd">
<!-- Generated by graphviz version 2.38.0 (20140413.2041)
 -->
<!-- Title: Arena_SelectionFightLevel Pages: 1 -->
<!--zoomable 446 -->
<svg id="main" version="1.1" xmlns="http://www.w3.org/2000/svg" xmlns:xlink="http://www.w3.org/1999/xlink" xml:space="preserve" onload="init(evt)">
<style type="text/css"><![CDATA[
.edge:hover path { stroke: red; }
.edge:hover polygon { stroke: red; fill: red; }
]]></style>
<script type="text/javascript"><![CDATA[
var edges = document.getElementsByTagName('g');
if (edges && edges.length) {
  for (var i=0;i<edges.length;i++) {
    if (edges[i].id.substr(0,4)=='edge') {
      edges[i].setAttribute('class','edge');
    }
  }
}
]]></script>
        <defs>
                <circle id="rim" cx="0" cy="0" r="7"/>
                <circle id="rim2" cx="0" cy="0" r="3.5"/>
                <g id="zoomPlus">
                        <use xlink:href="#rim" fill="#404040">
                                <set attributeName="fill" to="#808080" begin="zoomplus.mouseover" end="zoomplus.mouseout"/>
                        </use>
                        <path d="M-4,0h8M0,-4v8" fill="none" stroke="white" stroke-width="1.5" pointer-events="none"/>
                </g>
                <g id="zoomMin">
                        <use xlink:href="#rim" fill="#404040">
                                <set attributeName="fill" to="#808080" begin="zoomminus.mouseover" end="zoomminus.mouseout"/>
                        </use>
                        <path d="M-4,0h8" fill="none" stroke="white" stroke-width="1.5" pointer-events="none"/>
                </g>
                <g id="dirArrow">
                        <path fill="none" stroke="white" stroke-width="1.5" d="M0,-3.0v7 M-2.5,-0.5L0,-3.0L2.5,-0.5"/>
                </g>
               <g id="resetDef">
                       <use xlink:href="#rim2" fill="#404040">
                               <set attributeName="fill" to="#808080" begin="reset.mouseover" end="reset.mouseout"/>
                       </use>
               </g>
        </defs>

<script type="text/javascript">
var viewWidth = 1412;
var viewHeight = 446;
var sectionId = 'dynsection-0';
</script>
<script xlink:href="../../svgpan.js"/>
<svg id="graph" class="graph">
<g id="viewport">
<title>Arena_SelectionFightLevel</title>
<polygon fill="white" stroke="none" points="-4,4 -4,-441.5 1408,-441.5 1408,4 -4,4"/>
<!-- Node1 -->
<g id="node1" class="node"><title>Node1</title>
<g id="a_node1"><a xlink:title=" ">
<polygon fill="#bfbfbf" stroke="black" points="0,-311.5 0,-330.5 131,-330.5 131,-311.5 0,-311.5"/>
<text text-anchor="middle" x="65.5" y="-318.5" font-family="Helvetica,sans-Serif" font-size="10.00">Arena_SelectionFightLevel</text>
</a>
</g>
</g>
<!-- Node2 -->
<g id="node2" class="node"><title>Node2</title>
<g id="a_node2"><a xlink:href="../../d4/d38/class_g_u_i_window.html#af1601b14fd14172585c6793565a30e7d" target="_top" xlink:title=" ">
<polygon fill="white" stroke="black" points="167,-407 167,-437 311,-437 311,-407 167,-407"/>
<text text-anchor="start" x="175" y="-425" font-family="Helvetica,sans-Serif" font-size="10.00">GUIWindow::_41D08F</text>
<text text-anchor="middle" x="239" y="-414" font-family="Helvetica,sans-Serif" font-size="10.00">_set_keyboard_control_group</text>
</a>
</g>
</g>
<!-- Node1&#45;&gt;Node2 -->
<g id="edge1" class="edge"><title>Node1&#45;&gt;Node2</title>
<path fill="none" stroke="midnightblue" d="M76.8937,-330.62C94.3455,-346.349 131.158,-377.743 167,-397 170.927,-399.11 175.067,-401.101 179.295,-402.968"/>
<polygon fill="midnightblue" stroke="midnightblue" points="178.064,-406.247 188.642,-406.854 180.752,-399.783 178.064,-406.247"/>
</g>
<!-- Node3 -->
<g id="node3" class="node"><title>Node3</title>
<g id="a_node3"><a xlink:href="../../d4/d38/class_g_u_i_window.html#a29f96468b54f142995e3b1890cb7e45e" target="_top" xlink:title=" ">
<polygon fill="white" stroke="black" points="173.5,-368.5 173.5,-387.5 304.5,-387.5 304.5,-368.5 173.5,-368.5"/>
<text text-anchor="middle" x="239" y="-375.5" font-family="Helvetica,sans-Serif" font-size="10.00">GUIWindow::CreateButton</text>
</a>
</g>
</g>
<!-- Node1&#45;&gt;Node3 -->
<g id="edge2" class="edge"><title>Node1&#45;&gt;Node3</title>
<path fill="none" stroke="midnightblue" d="M89.8205,-330.577C110.041,-338.698 140.189,-350.368 167,-359 174.263,-361.338 182.007,-363.621 189.61,-365.746"/>
<polygon fill="midnightblue" stroke="midnightblue" points="188.904,-369.182 199.473,-368.441 190.749,-362.429 188.904,-369.182"/>
</g>
<!-- Node4 -->
<g id="node4" class="node"><title>Node4</title>
<g id="a_node4"><a xlink:href="../../d4/d38/class_g_u_i_window.html#a7c8bcc74ea8cc23cc666aa869e5a5d7d" target="_top" xlink:title=" ">
<polygon fill="white" stroke="black" points="171.5,-330.5 171.5,-349.5 306.5,-349.5 306.5,-330.5 171.5,-330.5"/>
<text text-anchor="middle" x="239" y="-337.5" font-family="Helvetica,sans-Serif" font-size="10.00">GUIWindow::DeleteButtons</text>
</a>
</g>
</g>
<!-- Node1&#45;&gt;Node4 -->
<g id="edge3" class="edge"><title>Node1&#45;&gt;Node4</title>
<path fill="none" stroke="midnightblue" d="M131.337,-328.183C141.154,-329.271 151.361,-330.402 161.399,-331.514"/>
<polygon fill="midnightblue" stroke="midnightblue" points="161.035,-334.995 171.36,-332.617 161.806,-328.037 161.035,-334.995"/>
</g>
<!-- Node5 -->
<g id="node5" class="node"><title>Node5</title>
<g id="a_node5"><a xlink:href="../../dd/d88/class_localization.html#a0eb0a17fdf90f6a420eeac65bf62436f" target="_top" xlink:title=" ">
<polygon fill="white" stroke="black" points="539.5,-295.5 539.5,-314.5 655.5,-314.5 655.5,-295.5 539.5,-295.5"/>
<text text-anchor="middle" x="597.5" y="-302.5" font-family="Helvetica,sans-Serif" font-size="10.00">Localization::GetString</text>
</a>
</g>
</g>
<!-- Node1&#45;&gt;Node5 -->
<g id="edge4" class="edge"><title>Node1&#45;&gt;Node5</title>
<path fill="none" stroke="midnightblue" d="M131.223,-319.046C232.273,-315.996 426.55,-310.131 529.175,-307.032"/>
<polygon fill="midnightblue" stroke="midnightblue" points="529.526,-310.524 539.416,-306.723 529.315,-303.527 529.526,-310.524"/>
</g>
<!-- Node6 -->
<g id="node6" class="node"><title>Node6</title>
<g id="a_node6"><a xlink:href="../../d0/d14/struct_party.html#a6ffe5822dbcc7089a716e75bc4b381f9" target="_top" xlink:title=" ">
<polygon fill="white" stroke="black" points="182.5,-213.5 182.5,-232.5 295.5,-232.5 295.5,-213.5 182.5,-213.5"/>
<text text-anchor="middle" x="239" y="-220.5" font-family="Helvetica,sans-Serif" font-size="10.00">Party::PartyFindsGold</text>
</a>
</g>
</g>
<!-- Node1&#45;&gt;Node6 -->
<g id="edge5" class="edge"><title>Node1&#45;&gt;Node6</title>
<path fill="none" stroke="midnightblue" d="M83.2564,-311.425C113.354,-294.226 176.74,-258.006 212.341,-237.662"/>
<polygon fill="midnightblue" stroke="midnightblue" points="214.23,-240.614 221.176,-232.614 210.757,-234.537 214.23,-240.614"/>
</g>
<!-- Node12 -->
<g id="node12" class="node"><title>Node12</title>
<g id="a_node12"><a xlink:href="../../d7/dc2/class_audio_player.html#afa0c135f321bd87b4d4ad2dcad3833e3" target="_top" xlink:title=" ">
<polygon fill="white" stroke="black" points="838,-94.5 838,-113.5 960,-113.5 960,-94.5 838,-94.5"/>
<text text-anchor="middle" x="899" y="-101.5" font-family="Helvetica,sans-Serif" font-size="10.00">AudioPlayer::PlaySound</text>
</a>
</g>
</g>
<!-- Node1&#45;&gt;Node12 -->
<g id="edge35" class="edge"><title>Node1&#45;&gt;Node12</title>
<path fill="none" stroke="midnightblue" d="M72.6446,-311.228C86.8293,-289.354 123.959,-235.869 167,-204 263.475,-132.567 297.458,-103 417.5,-103 417.5,-103 417.5,-103 598.5,-103 676.899,-103 766.842,-103.347 827.535,-103.632"/>
<polygon fill="midnightblue" stroke="midnightblue" points="827.75,-107.133 837.766,-103.681 827.783,-100.133 827.75,-107.133"/>
</g>
<!-- Node7 -->
<g id="node7" class="node"><title>Node7</title>
<g id="a_node7"><a xlink:href="../../d0/d14/struct_party.html#a548d9c56d5aaf73c69feb412dc11ba4d" target="_top" xlink:title=" ">
<polygon fill="white" stroke="black" points="377,-172.5 377,-191.5 460,-191.5 460,-172.5 377,-172.5"/>
<text text-anchor="middle" x="418.5" y="-179.5" font-family="Helvetica,sans-Serif" font-size="10.00">Party::AddGold</text>
</a>
</g>
</g>
<!-- Node6&#45;&gt;Node7 -->
<g id="edge6" class="edge"><title>Node6&#45;&gt;Node7</title>
<path fill="none" stroke="midnightblue" d="M281.168,-213.491C306.686,-207.596 339.655,-199.981 366.78,-193.716"/>
<polygon fill="midnightblue" stroke="midnightblue" points="367.906,-197.048 376.861,-191.387 366.33,-190.227 367.906,-197.048"/>
</g>
<!-- Node23 -->
<g id="node23" class="node"><title>Node23</title>
<g id="a_node23"><a xlink:href="../../d1/d6c/_n_p_c_8cpp.html#a40d19895c574dba82a55ee7b3031f20b" target="_top" xlink:title=" ">
<polygon fill="white" stroke="black" points="353.5,-134.5 353.5,-153.5 483.5,-153.5 483.5,-134.5 353.5,-134.5"/>
<text text-anchor="middle" x="418.5" y="-141.5" font-family="Helvetica,sans-Serif" font-size="10.00">CheckHiredNPCSpeciality</text>
</a>
</g>
</g>
<!-- Node6&#45;&gt;Node23 -->
<g id="edge23" class="edge"><title>Node6&#45;&gt;Node23</title>
<path fill="none" stroke="midnightblue" d="M254.307,-213.451C274.305,-200.467 312.093,-177.233 347,-163 352.854,-160.613 359.104,-158.435 365.371,-156.475"/>
<polygon fill="midnightblue" stroke="midnightblue" points="366.584,-159.766 375.182,-153.576 364.6,-153.053 366.584,-159.766"/>
</g>
<!-- Node24 -->
<g id="node24" class="node"><title>Node24</title>
<g id="a_node24"><a xlink:href="../../dd/d88/class_localization.html#aa585c1180dc1a338b5822de8e413d2d6" target="_top" xlink:title=" ">
<polygon fill="white" stroke="black" points="353,-254.5 353,-273.5 484,-273.5 484,-254.5 353,-254.5"/>
<text text-anchor="middle" x="418.5" y="-261.5" font-family="Helvetica,sans-Serif" font-size="10.00">Localization::FormatString</text>
</a>
</g>
</g>
<!-- Node6&#45;&gt;Node24 -->
<g id="edge24" class="edge"><title>Node6&#45;&gt;Node24</title>
<path fill="none" stroke="midnightblue" d="M281.168,-232.509C306.505,-238.362 339.186,-245.911 366.2,-252.15"/>
<polygon fill="midnightblue" stroke="midnightblue" points="365.717,-255.631 376.248,-254.471 367.292,-248.81 365.717,-255.631"/>
</g>
<!-- Node30 -->
<g id="node30" class="node"><title>Node30</title>
<g id="a_node30"><a xlink:href="../../d4/dca/_u_i_status_bar_8cpp.html#abe7a1f2130faa2a0a455965241061a8c" target="_top" xlink:title=" ">
<polygon fill="white" stroke="black" points="347,-213.5 347,-232.5 490,-232.5 490,-213.5 347,-213.5"/>
<text text-anchor="middle" x="418.5" y="-220.5" font-family="Helvetica,sans-Serif" font-size="10.00">GameUI_StatusBar_OnEvent</text>
</a>
</g>
</g>
<!-- Node6&#45;&gt;Node30 -->
<g id="edge32" class="edge"><title>Node6&#45;&gt;Node30</title>
<path fill="none" stroke="midnightblue" d="M295.675,-223C308.765,-223 322.975,-223 336.915,-223"/>
<polygon fill="midnightblue" stroke="midnightblue" points="336.997,-226.5 346.997,-223 336.997,-219.5 336.997,-226.5"/>
</g>
<!-- Node8 -->
<g id="node8" class="node"><title>Node8</title>
<g id="a_node8"><a xlink:href="../../d0/d14/struct_party.html#a804b168cb4a072332ee44b6cb01aacfa" target="_top" xlink:title=" ">
<polygon fill="white" stroke="black" points="556.5,-169.5 556.5,-188.5 638.5,-188.5 638.5,-169.5 556.5,-169.5"/>
<text text-anchor="middle" x="597.5" y="-176.5" font-family="Helvetica,sans-Serif" font-size="10.00">Party::GetGold</text>
</a>
</g>
</g>
<!-- Node7&#45;&gt;Node8 -->
<g id="edge7" class="edge"><title>Node7&#45;&gt;Node8</title>
<path fill="none" stroke="midnightblue" d="M460.107,-181.312C485.719,-180.878 518.989,-180.314 546.258,-179.852"/>
<polygon fill="midnightblue" stroke="midnightblue" points="546.448,-183.349 556.387,-179.68 546.329,-176.35 546.448,-183.349"/>
</g>
<!-- Node9 -->
<g id="node9" class="node"><title>Node9</title>
<g id="a_node9"><a xlink:href="../../d0/d14/struct_party.html#a658f2515f5cd833f4c8427b72fdbde93" target="_top" xlink:title=" ">
<polygon fill="white" stroke="black" points="557,-131.5 557,-150.5 638,-150.5 638,-131.5 557,-131.5"/>
<text text-anchor="middle" x="597.5" y="-138.5" font-family="Helvetica,sans-Serif" font-size="10.00">Party::SetGold</text>
</a>
</g>
</g>
<!-- Node7&#45;&gt;Node9 -->
<g id="edge8" class="edge"><title>Node7&#45;&gt;Node9</title>
<path fill="none" stroke="midnightblue" d="M460.107,-172.594C486.014,-166.593 519.756,-158.777 547.197,-152.421"/>
<polygon fill="midnightblue" stroke="midnightblue" points="548.043,-155.817 556.995,-150.151 546.464,-148.998 548.043,-155.817"/>
</g>
<!-- Node10 -->
<g id="node10" class="node"><title>Node10</title>
<g id="a_node10"><a xlink:href="../../da/db4/_party_8cpp.html#ab6af3751607396afcd1745c1a536ae1a" target="_top" xlink:title=" ">
<polygon fill="white" stroke="black" points="705,-131.5 705,-150.5 802,-150.5 802,-131.5 705,-131.5"/>
<text text-anchor="middle" x="753.5" y="-138.5" font-family="Helvetica,sans-Serif" font-size="10.00">ui_play_gold_anim</text>
</a>
</g>
</g>
<!-- Node9&#45;&gt;Node10 -->
<g id="edge9" class="edge"><title>Node9&#45;&gt;Node10</title>
<path fill="none" stroke="midnightblue" d="M638.159,-141C655.303,-141 675.706,-141 694.499,-141"/>
<polygon fill="midnightblue" stroke="midnightblue" points="694.743,-144.5 704.743,-141 694.743,-137.5 694.743,-144.5"/>
</g>
<!-- Node11 -->
<g id="node11" class="node"><title>Node11</title>
<g id="a_node11"><a xlink:href="../../db/d60/class_icon.html#a725397bfa1ff9e1666855d210653b379" target="_top" xlink:title=" ">
<polygon fill="white" stroke="black" points="845,-132.5 845,-151.5 953,-151.5 953,-132.5 845,-132.5"/>
<text text-anchor="middle" x="899" y="-139.5" font-family="Helvetica,sans-Serif" font-size="10.00">Icon::GetAnimLength</text>
</a>
</g>
</g>
<!-- Node10&#45;&gt;Node11 -->
<g id="edge10" class="edge"><title>Node10&#45;&gt;Node11</title>
<path fill="none" stroke="midnightblue" d="M802.283,-141.333C812.663,-141.405 823.8,-141.483 834.674,-141.559"/>
<polygon fill="midnightblue" stroke="midnightblue" points="834.962,-145.061 844.986,-141.631 835.011,-138.061 834.962,-145.061"/>
</g>
<!-- Node10&#45;&gt;Node12 -->
<g id="edge11" class="edge"><title>Node10&#45;&gt;Node12</title>
<path fill="none" stroke="midnightblue" d="M791.455,-131.472C809.558,-126.804 831.561,-121.131 850.861,-116.154"/>
<polygon fill="midnightblue" stroke="midnightblue" points="851.862,-119.511 860.672,-113.625 850.114,-112.732 851.862,-119.511"/>
</g>
<!-- Node13 -->
<g id="node13" class="node"><title>Node13</title>
<g id="a_node13"><a xlink:href="../../d4/db9/_open_a_l_sound_provider_8cpp.html#a0d61058bc8900801bc227bc7b47881d7" target="_top" xlink:title=" ">
<polygon fill="white" stroke="black" points="1006.5,-171.5 1006.5,-190.5 1109.5,-190.5 1109.5,-171.5 1006.5,-171.5"/>
<text text-anchor="middle" x="1058" y="-178.5" font-family="Helvetica,sans-Serif" font-size="10.00">CreateAudioSample</text>
</a>
</g>
</g>
<!-- Node12&#45;&gt;Node13 -->
<g id="edge12" class="edge"><title>Node12&#45;&gt;Node13</title>
<path fill="none" stroke="midnightblue" d="M939.188,-113.595C946.361,-116.126 953.596,-119.233 960,-123 978.969,-134.159 977.422,-145.201 996,-157 1002.34,-161.027 1009.47,-164.573 1016.55,-167.618"/>
<polygon fill="midnightblue" stroke="midnightblue" points="1015.52,-170.977 1026.11,-171.458 1018.13,-164.482 1015.52,-170.977"/>
</g>
<!-- Node15 -->
<g id="node15" class="node"><title>Node15</title>
<g id="a_node15"><a xlink:href="../../d7/dc2/class_audio_player.html#ae30d2f6cbd73b8e316a47b4694fe8960" target="_top" xlink:title=" ">
<polygon fill="white" stroke="black" points="996,-94.5 996,-113.5 1120,-113.5 1120,-94.5 996,-94.5"/>
<text text-anchor="middle" x="1058" y="-101.5" font-family="Helvetica,sans-Serif" font-size="10.00">AudioPlayer::LoadSound</text>
</a>
</g>
</g>
<!-- Node12&#45;&gt;Node15 -->
<g id="edge14" class="edge"><title>Node12&#45;&gt;Node15</title>
<path fill="none" stroke="midnightblue" d="M960.251,-104C968.551,-104 977.138,-104 985.614,-104"/>
<polygon fill="midnightblue" stroke="midnightblue" points="985.871,-107.5 995.871,-104 985.871,-100.5 985.871,-107.5"/>
</g>
<!-- Node20 -->
<g id="node20" class="node"><title>Node20</title>
<g id="a_node20"><a xlink:href="../../d6/d70/class_log.html#ac0de2621497ca3b2fbf208624c08bcdf" target="_top" xlink:title=" ">
<polygon fill="white" stroke="black" points="1192,-152.5 1192,-171.5 1266,-171.5 1266,-152.5 1192,-152.5"/>
<text text-anchor="middle" x="1229" y="-159.5" font-family="Helvetica,sans-Serif" font-size="10.00">Log::Warning</text>
</a>
</g>
</g>
<!-- Node12&#45;&gt;Node20 -->
<g id="edge22" class="edge"><title>Node12&#45;&gt;Node20</title>
<path fill="none" stroke="midnightblue" d="M946.823,-113.548C962.445,-116.659 979.956,-120.064 996,-123 1060.24,-134.755 1134.75,-147.041 1181.63,-154.609"/>
<polygon fill="midnightblue" stroke="midnightblue" points="1181.35,-158.108 1191.78,-156.243 1182.46,-151.197 1181.35,-158.108"/>
</g>
<!-- Node21 -->
<g id="node21" class="node"><title>Node21</title>
<g id="a_node21"><a xlink:href="../../d9/d98/class_open_a_l_sound_provider.html#a25ac61cd13253bb659672a1cc29ef22c" target="_top" xlink:title=" ">
<polygon fill="white" stroke="black" points="1001,-20 1001,-50 1115,-50 1115,-20 1001,-20"/>
<text text-anchor="start" x="1009" y="-38" font-family="Helvetica,sans-Serif" font-size="10.00">OpenALSoundProvider</text>
<text text-anchor="middle" x="1058" y="-27" font-family="Helvetica,sans-Serif" font-size="10.00">::SetListenerPosition</text>
</a>
</g>
</g>
<!-- Node12&#45;&gt;Node21 -->
<g id="edge20" class="edge"><title>Node12&#45;&gt;Node21</title>
<path fill="none" stroke="midnightblue" d="M921.83,-94.4058C945.399,-84.0476 983.561,-67.2757 1013.34,-54.19"/>
<polygon fill="midnightblue" stroke="midnightblue" points="1014.93,-57.3115 1022.68,-50.0837 1012.12,-50.903 1014.93,-57.3115"/>
</g>
<!-- Node14 -->
<g id="node14" class="node"><title>Node14</title>
<g id="a_node14"><a xlink:href="../../da/def/_media_8h.html#ab508e4ee3c70ec5e60273ec99af30a2e" target="_top" xlink:title=" ">
<polygon fill="white" stroke="black" points="1156,-190.5 1156,-209.5 1302,-209.5 1302,-190.5 1156,-190.5"/>
<text text-anchor="middle" x="1229" y="-197.5" font-family="Helvetica,sans-Serif" font-size="10.00">CreateAudioBufferDataSource</text>
</a>
</g>
</g>
<!-- Node13&#45;&gt;Node14 -->
<g id="edge13" class="edge"><title>Node13&#45;&gt;Node14</title>
<path fill="none" stroke="midnightblue" d="M1109.71,-186.701C1121.02,-187.973 1133.31,-189.354 1145.54,-190.729"/>
<polygon fill="midnightblue" stroke="midnightblue" points="1145.45,-194.241 1155.78,-191.88 1146.23,-187.285 1145.45,-194.241"/>
</g>
<!-- Node16 -->
<g id="node16" class="node"><title>Node16</title>
<g id="a_node16"><a xlink:href="../../da/d6a/_mem_buffer_8cpp.html#a685632d9cd2b61b24a9bfc649d54937e" target="_top" xlink:title=" ">
<polygon fill="white" stroke="black" points="1186.5,-76.5 1186.5,-95.5 1271.5,-95.5 1271.5,-76.5 1186.5,-76.5"/>
<text text-anchor="middle" x="1229" y="-83.5" font-family="Helvetica,sans-Serif" font-size="10.00">AllocMemBuffer</text>
</a>
</g>
</g>
<!-- Node15&#45;&gt;Node16 -->
<g id="edge15" class="edge"><title>Node15&#45;&gt;Node16</title>
<path fill="none" stroke="midnightblue" d="M1120.01,-97.5016C1138.43,-95.5402 1158.46,-93.4066 1176.21,-91.5157"/>
<polygon fill="midnightblue" stroke="midnightblue" points="1176.8,-94.9731 1186.37,-90.4336 1176.06,-88.0124 1176.8,-94.9731"/>
</g>
<!-- Node17 -->
<g id="node17" class="node"><title>Node17</title>
<g id="a_node17"><a xlink:href="../../d7/dc2/class_audio_player.html#aac82d03b250711ed0ce64fa22dfe3a59" target="_top" xlink:title=" ">
<polygon fill="white" stroke="black" points="1168,-38.5 1168,-57.5 1290,-57.5 1290,-38.5 1168,-38.5"/>
<text text-anchor="middle" x="1229" y="-45.5" font-family="Helvetica,sans-Serif" font-size="10.00">AudioPlayer::FindSound</text>
</a>
</g>
</g>
<!-- Node15&#45;&gt;Node17 -->
<g id="edge16" class="edge"><title>Node15&#45;&gt;Node17</title>
<path fill="none" stroke="midnightblue" d="M1081.88,-94.4806C1101.38,-86.5586 1130.26,-75.2786 1156,-67 1163.44,-64.6063 1171.39,-62.2833 1179.18,-60.1312"/>
<polygon fill="midnightblue" stroke="midnightblue" points="1180.18,-63.4873 1188.92,-57.5041 1178.35,-56.7288 1180.18,-63.4873"/>
</g>
<!-- Node19 -->
<g id="node19" class="node"><title>Node19</title>
<g id="a_node19"><a xlink:href="../../d9/d3e/namespacezlib.html#ae552beaf4387a81c63a28b01a9cc7ab4" target="_top" xlink:title=" ">
<polygon fill="white" stroke="black" points="1183,-114.5 1183,-133.5 1275,-133.5 1275,-114.5 1183,-114.5"/>
<text text-anchor="middle" x="1229" y="-121.5" font-family="Helvetica,sans-Serif" font-size="10.00">zlib::Uncompress</text>
</a>
</g>
</g>
<!-- Node15&#45;&gt;Node19 -->
<g id="edge18" class="edge"><title>Node15&#45;&gt;Node19</title>
<path fill="none" stroke="midnightblue" d="M1120.01,-111.22C1137.24,-113.259 1155.88,-115.465 1172.74,-117.461"/>
<polygon fill="midnightblue" stroke="midnightblue" points="1172.65,-120.974 1182.99,-118.673 1173.47,-114.022 1172.65,-120.974"/>
</g>
<!-- Node15&#45;&gt;Node20 -->
<g id="edge19" class="edge"><title>Node15&#45;&gt;Node20</title>
<path fill="none" stroke="midnightblue" d="M1082.47,-113.615C1108.78,-124.363 1148.72,-140.587 1156,-143 1164.38,-145.779 1173.41,-148.427 1182.16,-150.817"/>
<polygon fill="midnightblue" stroke="midnightblue" points="1181.29,-154.207 1191.85,-153.398 1183.09,-147.443 1181.29,-154.207"/>
</g>
<!-- Node18 -->
<g id="node18" class="node"><title>Node18</title>
<g id="a_node18"><a xlink:href="../../d8/d44/_strings_8cpp.html#ae591bae1416df2b3638ae859ad4ede6f" target="_top" xlink:title=" ">
<polygon fill="white" stroke="black" points="1338,-38.5 1338,-57.5 1404,-57.5 1404,-38.5 1338,-38.5"/>
<text text-anchor="middle" x="1371" y="-45.5" font-family="Helvetica,sans-Serif" font-size="10.00">MakeLower</text>
</a>
</g>
</g>
<!-- Node17&#45;&gt;Node18 -->
<g id="edge17" class="edge"><title>Node17&#45;&gt;Node18</title>
<path fill="none" stroke="midnightblue" d="M1290.19,-48C1302.8,-48 1315.84,-48 1327.64,-48"/>
<polygon fill="midnightblue" stroke="midnightblue" points="1327.64,-51.5001 1337.64,-48 1327.64,-44.5001 1327.64,-51.5001"/>
</g>
<!-- Node22 -->
<g id="node22" class="node"><title>Node22</title>
<g id="a_node22"><a xlink:href="../../d1/d20/al_8h.html#acb8f6904370d9946f4ea496e21729415" target="_top" xlink:title=" ">
<polygon fill="white" stroke="black" points="1196,-0.5 1196,-19.5 1262,-19.5 1262,-0.5 1196,-0.5"/>
<text text-anchor="middle" x="1229" y="-7.5" font-family="Helvetica,sans-Serif" font-size="10.00">alListener3f</text>
</a>
</g>
</g>
<!-- Node21&#45;&gt;Node22 -->
<g id="edge21" class="edge"><title>Node21&#45;&gt;Node22</title>
<path fill="none" stroke="midnightblue" d="M1115.27,-26.6754C1138.21,-23.2819 1164.29,-19.4246 1185.58,-16.2752"/>
<polygon fill="midnightblue" stroke="midnightblue" points="1186.23,-19.7169 1195.61,-14.7911 1185.21,-12.7923 1186.23,-19.7169"/>
</g>
<!-- Node24&#45;&gt;Node5 -->
<g id="edge25" class="edge"><title>Node24&#45;&gt;Node5</title>
<path fill="none" stroke="midnightblue" d="M460.552,-273.509C485.817,-279.362 518.407,-286.911 545.344,-293.15"/>
<polygon fill="midnightblue" stroke="midnightblue" points="544.832,-296.624 555.364,-295.471 546.412,-289.805 544.832,-296.624"/>
</g>
<!-- Node25 -->
<g id="node25" class="node"><title>Node25</title>
<g id="a_node25"><a xlink:href="../../d6/db8/mm7text__ru_8cpp.html#a53baf8844fdc6c4b8a7211d481c03a34" target="_top" xlink:title=" ">
<polygon fill="white" stroke="black" points="552.5,-257.5 552.5,-276.5 642.5,-276.5 642.5,-257.5 552.5,-257.5"/>
<text text-anchor="middle" x="597.5" y="-264.5" font-family="Helvetica,sans-Serif" font-size="10.00">sprintfex_internal</text>
</a>
</g>
</g>
<!-- Node24&#45;&gt;Node25 -->
<g id="edge26" class="edge"><title>Node24&#45;&gt;Node25</title>
<path fill="none" stroke="midnightblue" d="M484.152,-265.096C503.228,-265.419 523.902,-265.77 542.252,-266.081"/>
<polygon fill="midnightblue" stroke="midnightblue" points="542.411,-269.584 552.469,-266.254 542.53,-262.585 542.411,-269.584"/>
</g>
<!-- Node26 -->
<g id="node26" class="node"><title>Node26</title>
<g id="a_node26"><a xlink:href="../../d6/db8/mm7text__ru_8cpp.html#a3b1651c73512b95aad130c9090a7cd3c" target="_top" xlink:title=" ">
<polygon fill="white" stroke="black" points="867,-212.5 867,-231.5 931,-231.5 931,-212.5 867,-212.5"/>
<text text-anchor="middle" x="899" y="-219.5" font-family="Helvetica,sans-Serif" font-size="10.00">GetGender</text>
</a>
</g>
</g>
<!-- Node25&#45;&gt;Node26 -->
<g id="edge27" class="edge"><title>Node25&#45;&gt;Node26</title>
<path fill="none" stroke="midnightblue" d="M642.705,-258.116C661.819,-254.426 684.468,-250.255 705,-247 757.229,-238.72 817.735,-231.22 856.875,-226.641"/>
<polygon fill="midnightblue" stroke="midnightblue" points="857.305,-230.115 866.835,-225.485 856.498,-223.161 857.305,-230.115"/>
</g>
<!-- Node27 -->
<g id="node27" class="node"><title>Node27</title>
<g id="a_node27"><a xlink:href="../../d6/db8/mm7text__ru_8cpp.html#aa84f8d3f36800bc6ca518198a70797d3" target="_top" xlink:title=" ">
<polygon fill="white" stroke="black" points="710,-332.5 710,-351.5 797,-351.5 797,-332.5 710,-332.5"/>
<text text-anchor="middle" x="753.5" y="-339.5" font-family="Helvetica,sans-Serif" font-size="10.00">GetSpecialCase</text>
</a>
</g>
</g>
<!-- Node25&#45;&gt;Node27 -->
<g id="edge29" class="edge"><title>Node25&#45;&gt;Node27</title>
<path fill="none" stroke="midnightblue" d="M642.84,-275.06C651.86,-277.754 661.021,-281.313 669,-286 688.782,-297.622 685.932,-310.239 705,-323 707.731,-324.828 710.665,-326.524 713.686,-328.089"/>
<polygon fill="midnightblue" stroke="midnightblue" points="712.353,-331.329 722.894,-332.388 715.314,-324.986 712.353,-331.329"/>
</g>
<!-- Node28 -->
<g id="node28" class="node"><title>Node28</title>
<g id="a_node28"><a xlink:href="../../d6/db8/mm7text__ru_8cpp.html#a60e152118d795d22912d38e37a55dec9" target="_top" xlink:title=" ">
<polygon fill="white" stroke="black" points="705.5,-294.5 705.5,-313.5 801.5,-313.5 801.5,-294.5 705.5,-294.5"/>
<text text-anchor="middle" x="753.5" y="-301.5" font-family="Helvetica,sans-Serif" font-size="10.00">GetSpecialGender</text>
</a>
</g>
</g>
<!-- Node25&#45;&gt;Node28 -->
<g id="edge30" class="edge"><title>Node25&#45;&gt;Node28</title>
<path fill="none" stroke="midnightblue" d="M638.159,-276.528C657.842,-281.257 681.82,-287.018 702.725,-292.041"/>
<polygon fill="midnightblue" stroke="midnightblue" points="702.167,-295.507 712.708,-294.44 703.803,-288.7 702.167,-295.507"/>
</g>
<!-- Node29 -->
<g id="node29" class="node"><title>Node29</title>
<g id="a_node29"><a xlink:href="../../d6/db8/mm7text__ru_8cpp.html#a20fd879e0dfe9f113a87a611f353a725" target="_top" xlink:title=" ">
<polygon fill="white" stroke="black" points="712.5,-256.5 712.5,-275.5 794.5,-275.5 794.5,-256.5 712.5,-256.5"/>
<text text-anchor="middle" x="753.5" y="-263.5" font-family="Helvetica,sans-Serif" font-size="10.00">IsSpecialName</text>
</a>
</g>
</g>
<!-- Node25&#45;&gt;Node29 -->
<g id="edge31" class="edge"><title>Node25&#45;&gt;Node29</title>
<path fill="none" stroke="midnightblue" d="M642.63,-266.713C661.239,-266.593 683.001,-266.451 702.226,-266.326"/>
<polygon fill="midnightblue" stroke="midnightblue" points="702.335,-269.826 712.312,-266.261 702.29,-262.826 702.335,-269.826"/>
</g>
<!-- Node26&#45;&gt;Node20 -->
<g id="edge28" class="edge"><title>Node26&#45;&gt;Node20</title>
<path fill="none" stroke="midnightblue" d="M931.336,-222.607C974.681,-222.614 1054.95,-219.6 1120,-200 1137.32,-194.781 1139.14,-187.573 1156,-181 1164.31,-177.758 1173.38,-174.883 1182.18,-172.413"/>
<polygon fill="midnightblue" stroke="midnightblue" points="1183.21,-175.763 1191.96,-169.798 1181.4,-169 1183.21,-175.763"/>
</g>
<!-- Node31 -->
<g id="node31" class="node"><title>Node31</title>
<g id="a_node31"><a xlink:href="../../d4/dca/_u_i_status_bar_8cpp.html#aa9e77ce19b84f27cfb17ed5b8da6e519" target="_top" xlink:title=" ">
<polygon fill="white" stroke="black" points="526,-208 526,-238 669,-238 669,-208 526,-208"/>
<text text-anchor="start" x="534" y="-226" font-family="Helvetica,sans-Serif" font-size="10.00">GameUI_StatusBar_OnEvent</text>
<text text-anchor="middle" x="597.5" y="-215" font-family="Helvetica,sans-Serif" font-size="10.00">_Internal</text>
</a>
</g>
</g>
<!-- Node30&#45;&gt;Node31 -->
<g id="edge33" class="edge"><title>Node30&#45;&gt;Node31</title>
<path fill="none" stroke="midnightblue" d="M490.218,-223C498.57,-223 507.142,-223 515.62,-223"/>
<polygon fill="midnightblue" stroke="midnightblue" points="515.894,-226.5 525.894,-223 515.894,-219.5 515.894,-226.5"/>
</g>
<!-- Node32 -->
<g id="node32" class="node"><title>Node32</title>
<g id="a_node32"><a xlink:href="../../d4/ddd/_api_8h.html#ac0cda4967d55e3ade51d622720b64936" target="_top" xlink:title=" ">
<polygon fill="white" stroke="black" points="717,-180.5 717,-199.5 790,-199.5 790,-180.5 717,-180.5"/>
<text text-anchor="middle" x="753.5" y="-187.5" font-family="Helvetica,sans-Serif" font-size="10.00">OS_GetTime</text>
</a>
</g>
</g>
<!-- Node31&#45;&gt;Node32 -->
<g id="edge34" class="edge"><title>Node31&#45;&gt;Node32</title>
<path fill="none" stroke="midnightblue" d="M668.74,-207.949C681.755,-205.16 695.029,-202.315 707.06,-199.737"/>
<polygon fill="midnightblue" stroke="midnightblue" points="707.797,-203.159 716.841,-197.641 706.33,-196.314 707.797,-203.159"/>
</g>
</g>
</svg>
        <g id="navigator" transform="translate(0 0)" fill="#404254">
                <rect fill="#f2f5e9" fill-opacity="0.5" stroke="#606060" stroke-width=".5" x="0" y="0" width="60" height="60"/>
                <use id="zoomplus" xlink:href="#zoomPlus" x="17" y="9" onmousedown="handleZoom(evt,'in')"/>
                <use id="zoomminus" xlink:href="#zoomMin" x="42" y="9" onmousedown="handleZoom(evt,'out')"/>
                <use id="reset" xlink:href="#resetDef" x="30" y="36" onmousedown="handleReset()"/>
                <g id="arrowUp" xlink:href="#dirArrow" transform="translate(30 24)" onmousedown="handlePan(0,-1)">
                  <use xlink:href="#rim" fill="#404040">
                        <set attributeName="fill" to="#808080" begin="arrowUp.mouseover" end="arrowUp.mouseout"/>
                  </use>
                  <path fill="none" stroke="white" stroke-width="1.5" d="M0,-3.0v7 M-2.5,-0.5L0,-3.0L2.5,-0.5"/>
                </g>
                <g id="arrowRight" xlink:href="#dirArrow" transform="rotate(90) translate(36 -43)" onmousedown="handlePan(1,0)">
                  <use xlink:href="#rim" fill="#404040">
                        <set attributeName="fill" to="#808080" begin="arrowRight.mouseover" end="arrowRight.mouseout"/>
                  </use>
                  <path fill="none" stroke="white" stroke-width="1.5" d="M0,-3.0v7 M-2.5,-0.5L0,-3.0L2.5,-0.5"/>
                </g>
                <g id="arrowDown" xlink:href="#dirArrow" transform="rotate(180) translate(-30 -48)" onmousedown="handlePan(0,1)">
                  <use xlink:href="#rim" fill="#404040">
                        <set attributeName="fill" to="#808080" begin="arrowDown.mouseover" end="arrowDown.mouseout"/>
                  </use>
                  <path fill="none" stroke="white" stroke-width="1.5" d="M0,-3.0v7 M-2.5,-0.5L0,-3.0L2.5,-0.5"/>
                </g>
                <g id="arrowLeft" xlink:href="#dirArrow" transform="rotate(270) translate(-36 17)" onmousedown="handlePan(-1,0)">
                  <use xlink:href="#rim" fill="#404040">
                        <set attributeName="fill" to="#808080" begin="arrowLeft.mouseover" end="arrowLeft.mouseout"/>
                  </use>
                  <path fill="none" stroke="white" stroke-width="1.5" d="M0,-3.0v7 M-2.5,-0.5L0,-3.0L2.5,-0.5"/>
                </g>
        </g>
        <svg viewBox="0 0 15 15" width="100%" height="30px" preserveAspectRatio="xMaxYMin meet">
         <g id="arrow_out" transform="scale(0.3 0.3)">
          <a xlink:href="_u_i_arena_8h_ac109357600e9ae8133449a874a466e1f_cgraph_org.svg" target="_base">
           <rect id="button" ry="5" rx="5" y="6" x="6" height="38" width="38"
                fill="#f2f5e9" fill-opacity="0.5" stroke="#606060" stroke-width="1.0"/>
           <path id="arrow"
             d="M 11.500037,31.436501 C 11.940474,20.09759 22.043105,11.32322 32.158766,21.979434 L 37.068811,17.246167 C 37.068811,17.246167 37.088388,32 37.088388,32 L 22.160133,31.978069 C 22.160133,31.978069 26.997745,27.140456 26.997745,27.140456 C 18.528582,18.264221 13.291696,25.230495 11.500037,31.436501 z"
             style="fill:#404040;"/>
          </a>
         </g>
        </svg>
</svg>
