<?xml version="1.0" encoding="UTF-8" standalone="no"?>
<!DOCTYPE svg PUBLIC "-//W3C//DTD SVG 1.1//EN"
 "http://www.w3.org/Graphics/SVG/1.1/DTD/svg11.dtd">
<!-- Generated by graphviz version 2.38.0 (20140413.2041)
 -->
<!-- Title: sub_44861E_set_texture_indoor Pages: 1 -->
<svg width="469pt" height="165pt"
 viewBox="0.00 0.00 469.00 165.00" xmlns="http://www.w3.org/2000/svg" xmlns:xlink="http://www.w3.org/1999/xlink">
<g id="graph0" class="graph" transform="scale(1 1) rotate(0) translate(4 161)">
<title>sub_44861E_set_texture_indoor</title>
<polygon fill="white" stroke="none" points="-4,4 -4,-161 465,-161 465,4 -4,4"/>
<!-- Node1 -->
<g id="node1" class="node"><title>Node1</title>
<g id="a_node1"><a xlink:title=" ">
<polygon fill="#bfbfbf" stroke="black" points="0,-63.5 0,-93.5 125,-93.5 125,-63.5 0,-63.5"/>
<text text-anchor="start" x="8" y="-81.5" font-family="Helvetica,sans-Serif" font-size="10.00">sub_44861E_set_texture</text>
<text text-anchor="middle" x="62.5" y="-70.5" font-family="Helvetica,sans-Serif" font-size="10.00">_indoor</text>
</a>
</g>
</g>
<!-- Node2 -->
<g id="node2" class="node"><title>Node2</title>
<g id="a_node2"><a xlink:href="../../d9/ded/struct_b_l_v_face.html#a7630bb93c82ffff04220c843b5f10263" target="_top" xlink:title=" ">
<polygon fill="white" stroke="black" points="161,-69 161,-88 271,-88 271,-69 161,-69"/>
<text text-anchor="middle" x="216" y="-76" font-family="Helvetica,sans-Serif" font-size="10.00">BLVFace::SetTexture</text>
</a>
</g>
</g>
<!-- Node1&#45;&gt;Node2 -->
<g id="edge1" class="edge"><title>Node1&#45;&gt;Node2</title>
<path fill="none" stroke="midnightblue" d="M125.121,-78.5C133.508,-78.5 142.134,-78.5 150.568,-78.5"/>
<polygon fill="midnightblue" stroke="midnightblue" points="150.733,-82.0001 160.733,-78.5 150.733,-75.0001 150.733,-82.0001"/>
</g>
<!-- Node3 -->
<g id="node3" class="node"><title>Node3</title>
<g id="a_node3"><a xlink:href="../../dd/d55/struct_texture_frame_table.html#a36bc3b3742a2b297fec5a1d6fef24a87" target="_top" xlink:title=" ">
<polygon fill="white" stroke="black" points="331,-126.5 331,-156.5 437,-156.5 437,-126.5 331,-126.5"/>
<text text-anchor="start" x="339" y="-144.5" font-family="Helvetica,sans-Serif" font-size="10.00">TextureFrameTable::</text>
<text text-anchor="middle" x="384" y="-133.5" font-family="Helvetica,sans-Serif" font-size="10.00">FindTextureByName</text>
</a>
</g>
</g>
<!-- Node2&#45;&gt;Node3 -->
<g id="edge2" class="edge"><title>Node2&#45;&gt;Node3</title>
<path fill="none" stroke="midnightblue" d="M238.26,-88.0566C256.373,-96.0584 283.178,-107.57 307,-116.5 312.975,-118.74 319.252,-120.981 325.532,-123.15"/>
<polygon fill="midnightblue" stroke="midnightblue" points="324.763,-126.586 335.358,-126.49 327.016,-119.958 324.763,-126.586"/>
</g>
<!-- Node4 -->
<g id="node4" class="node"><title>Node4</title>
<g id="a_node4"><a xlink:href="../../db/dd6/class_assets_manager.html#a10437426fdfa6c1e8e6d6a2ece0c532f" target="_top" xlink:title=" ">
<polygon fill="white" stroke="black" points="315.5,-88 315.5,-107 452.5,-107 452.5,-88 315.5,-88"/>
<text text-anchor="middle" x="384" y="-95" font-family="Helvetica,sans-Serif" font-size="10.00">AssetsManager::GetBitmap</text>
</a>
</g>
</g>
<!-- Node2&#45;&gt;Node4 -->
<g id="edge3" class="edge"><title>Node2&#45;&gt;Node4</title>
<path fill="none" stroke="midnightblue" d="M271.355,-84.7213C282.251,-85.9685 293.899,-87.3017 305.407,-88.6189"/>
<polygon fill="midnightblue" stroke="midnightblue" points="305.13,-92.1099 315.463,-89.7698 305.926,-85.1553 305.13,-92.1099"/>
</g>
<!-- Node5 -->
<g id="node5" class="node"><title>Node5</title>
<g id="a_node5"><a xlink:href="../../d9/ded/struct_b_l_v_face.html#a8f592ccc759d53ca44c5374dc8c65a72" target="_top" xlink:title=" ">
<polygon fill="white" stroke="black" points="307,-50 307,-69 461,-69 461,-50 307,-50"/>
<text text-anchor="middle" x="384" y="-57" font-family="Helvetica,sans-Serif" font-size="10.00">BLVFace::IsTextureFrameTable</text>
</a>
</g>
</g>
<!-- Node2&#45;&gt;Node5 -->
<g id="edge4" class="edge"><title>Node2&#45;&gt;Node5</title>
<path fill="none" stroke="midnightblue" d="M271.355,-72.2787C279.51,-71.3452 288.086,-70.3636 296.71,-69.3766"/>
<polygon fill="midnightblue" stroke="midnightblue" points="297.295,-72.8325 306.832,-68.218 296.499,-65.878 297.295,-72.8325"/>
</g>
<!-- Node6 -->
<g id="node6" class="node"><title>Node6</title>
<g id="a_node6"><a xlink:href="../../d9/ded/struct_b_l_v_face.html#ab08aa300699edc541cf52972c8676418" target="_top" xlink:title=" ">
<polygon fill="white" stroke="black" points="318.5,-0.5 318.5,-30.5 449.5,-30.5 449.5,-0.5 318.5,-0.5"/>
<text text-anchor="start" x="326.5" y="-18.5" font-family="Helvetica,sans-Serif" font-size="10.00">BLVFace::ToggleIsTexture</text>
<text text-anchor="middle" x="384" y="-7.5" font-family="Helvetica,sans-Serif" font-size="10.00">FrameTable</text>
</a>
</g>
</g>
<!-- Node2&#45;&gt;Node6 -->
<g id="edge5" class="edge"><title>Node2&#45;&gt;Node6</title>
<path fill="none" stroke="midnightblue" d="M238.26,-68.9434C256.373,-60.9416 283.178,-49.4302 307,-40.5 312.975,-38.2603 319.252,-36.0193 325.532,-33.8498"/>
<polygon fill="midnightblue" stroke="midnightblue" points="327.016,-37.0419 335.358,-30.5096 324.763,-30.4143 327.016,-37.0419"/>
</g>
</g>
</svg>
