<?xml version="1.0" encoding="UTF-8" standalone="no"?>
<!DOCTYPE svg PUBLIC "-//W3C//DTD SVG 1.1//EN"
 "http://www.w3.org/Graphics/SVG/1.1/DTD/svg11.dtd">
<!-- Generated by graphviz version 2.38.0 (20140413.2041)
 -->
<!-- Title: GameUI_StatusBar_Update Pages: 1 -->
<!--zoomable 460 -->
<svg id="main" version="1.1" xmlns="http://www.w3.org/2000/svg" xmlns:xlink="http://www.w3.org/1999/xlink" xml:space="preserve" onload="init(evt)">
<style type="text/css"><![CDATA[
.edge:hover path { stroke: red; }
.edge:hover polygon { stroke: red; fill: red; }
]]></style>
<script type="text/javascript"><![CDATA[
var edges = document.getElementsByTagName('g');
if (edges && edges.length) {
  for (var i=0;i<edges.length;i++) {
    if (edges[i].id.substr(0,4)=='edge') {
      edges[i].setAttribute('class','edge');
    }
  }
}
]]></script>
        <defs>
                <circle id="rim" cx="0" cy="0" r="7"/>
                <circle id="rim2" cx="0" cy="0" r="3.5"/>
                <g id="zoomPlus">
                        <use xlink:href="#rim" fill="#404040">
                                <set attributeName="fill" to="#808080" begin="zoomplus.mouseover" end="zoomplus.mouseout"/>
                        </use>
                        <path d="M-4,0h8M0,-4v8" fill="none" stroke="white" stroke-width="1.5" pointer-events="none"/>
                </g>
                <g id="zoomMin">
                        <use xlink:href="#rim" fill="#404040">
                                <set attributeName="fill" to="#808080" begin="zoomminus.mouseover" end="zoomminus.mouseout"/>
                        </use>
                        <path d="M-4,0h8" fill="none" stroke="white" stroke-width="1.5" pointer-events="none"/>
                </g>
                <g id="dirArrow">
                        <path fill="none" stroke="white" stroke-width="1.5" d="M0,-3.0v7 M-2.5,-0.5L0,-3.0L2.5,-0.5"/>
                </g>
               <g id="resetDef">
                       <use xlink:href="#rim2" fill="#404040">
                               <set attributeName="fill" to="#808080" begin="reset.mouseover" end="reset.mouseout"/>
                       </use>
               </g>
        </defs>

<script type="text/javascript">
var viewWidth = 1529;
var viewHeight = 460;
var sectionId = 'dynsection-31';
</script>
<script xlink:href="../../svgpan.js"/>
<svg id="graph" class="graph">
<g id="viewport">
<title>GameUI_StatusBar_Update</title>
<polygon fill="white" stroke="none" points="-4,4 -4,-456 1525,-456 1525,4 -4,4"/>
<!-- Node1 -->
<g id="node1" class="node"><title>Node1</title>
<g id="a_node1"><a xlink:title=" ">
<polygon fill="#bfbfbf" stroke="black" points="1384,-278.5 1384,-297.5 1521,-297.5 1521,-278.5 1384,-278.5"/>
<text text-anchor="middle" x="1452.5" y="-285.5" font-family="Helvetica,sans-Serif" font-size="10.00">GameUI_StatusBar_Update</text>
</a>
</g>
</g>
<!-- Node2 -->
<g id="node2" class="node"><title>Node2</title>
<g id="a_node2"><a xlink:href="../../d8/d06/namespace_cast_spell_info_helpers.html#adcfab5ec5567ebe310863a1f9c678cc7" target="_top" xlink:title=" ">
<polygon fill="white" stroke="black" points="1230,-267.5 1230,-308.5 1348,-308.5 1348,-267.5 1230,-267.5"/>
<text text-anchor="start" x="1238" y="-296.5" font-family="Helvetica,sans-Serif" font-size="10.00">CastSpellInfoHelpers</text>
<text text-anchor="start" x="1238" y="-285.5" font-family="Helvetica,sans-Serif" font-size="10.00">::Cancel_Spell_Cast_In</text>
<text text-anchor="middle" x="1289" y="-274.5" font-family="Helvetica,sans-Serif" font-size="10.00">_Progress</text>
</a>
</g>
</g>
<!-- Node1&#45;&gt;Node2 -->
<g id="edge1" class="edge"><title>Node1&#45;&gt;Node2</title>
<path fill="none" stroke="midnightblue" d="M1373.81,-288C1365.14,-288 1356.42,-288 1348.06,-288"/>
<polygon fill="midnightblue" stroke="midnightblue" points="1373.95,-291.5 1383.95,-288 1373.95,-284.5 1373.95,-291.5"/>
</g>
<!-- Node6 -->
<g id="node6" class="node"><title>Node6</title>
<g id="a_node6"><a xlink:href="../../d4/d06/class_application_1_1_game.html#aaa0ff18388b32b4e6198835a35e000d3" target="_top" xlink:title=" ">
<polygon fill="white" stroke="black" points="316,-315 316,-345 419,-345 419,-315 316,-315"/>
<text text-anchor="start" x="324" y="-333" font-family="Helvetica,sans-Serif" font-size="10.00">Application::Game::</text>
<text text-anchor="middle" x="367.5" y="-322" font-family="Helvetica,sans-Serif" font-size="10.00">GameLoop</text>
</a>
</g>
</g>
<!-- Node1&#45;&gt;Node6 -->
<g id="edge26" class="edge"><title>Node1&#45;&gt;Node6</title>
<path fill="none" stroke="midnightblue" d="M1433.73,-304.25C1386.48,-345.678 1252.35,-452 1120,-452 1120,-452 1120,-452 727,-452 603.205,-452 568.061,-442.422 455,-392 428.338,-380.11 401.638,-359.279 385.102,-345.074"/>
<polygon fill="midnightblue" stroke="midnightblue" points="1436.14,-306.79 1441.28,-297.526 1431.48,-301.563 1436.14,-306.79"/>
</g>
<!-- Node19 -->
<g id="node19" class="node"><title>Node19</title>
<g id="a_node19"><a xlink:href="../../d6/d83/struct_engine.html#ae384c8c86225ff402d4540706340f820" target="_top" xlink:title=" ">
<polygon fill="white" stroke="black" points="1231.5,-115.5 1231.5,-134.5 1346.5,-134.5 1346.5,-115.5 1231.5,-115.5"/>
<text text-anchor="middle" x="1289" y="-122.5" font-family="Helvetica,sans-Serif" font-size="10.00">Engine::MM7_Initialize</text>
</a>
</g>
</g>
<!-- Node1&#45;&gt;Node19 -->
<g id="edge27" class="edge"><title>Node1&#45;&gt;Node19</title>
<path fill="none" stroke="midnightblue" d="M1434.62,-270.965C1400.97,-237.005 1326.49,-161.825 1299.77,-134.863"/>
<polygon fill="midnightblue" stroke="midnightblue" points="1432.36,-273.651 1441.88,-278.292 1437.33,-268.725 1432.36,-273.651"/>
</g>
<!-- Node3 -->
<g id="node3" class="node"><title>Node3</title>
<g id="a_node3"><a xlink:href="../../d2/da1/_cast_spell_info_8h.html#aeaca4ce7b3943438e4d5020dd988b9d9" target="_top" xlink:title=" ">
<polygon fill="white" stroke="black" points="1044,-166 1044,-196 1194,-196 1194,-166 1044,-166"/>
<text text-anchor="start" x="1052" y="-184" font-family="Helvetica,sans-Serif" font-size="10.00">_42777D_CastSpell_UseWand</text>
<text text-anchor="middle" x="1119" y="-173" font-family="Helvetica,sans-Serif" font-size="10.00">_ShootArrow</text>
</a>
</g>
</g>
<!-- Node2&#45;&gt;Node3 -->
<g id="edge2" class="edge"><title>Node2&#45;&gt;Node3</title>
<path fill="none" stroke="midnightblue" d="M1246.8,-261.757C1214.38,-241.109 1170.35,-213.071 1143.63,-196.047"/>
<polygon fill="midnightblue" stroke="midnightblue" points="1245.29,-264.949 1255.61,-267.369 1249.05,-259.045 1245.29,-264.949"/>
</g>
<!-- Node4 -->
<g id="node4" class="node"><title>Node4</title>
<g id="a_node4"><a xlink:href="../../d3/db1/struct_player.html#adcd0e965260bb120a6e90b515cc748ac" target="_top" xlink:title=" ">
<polygon fill="white" stroke="black" points="848.5,-229 848.5,-259 1006.5,-259 1006.5,-229 848.5,-229"/>
<text text-anchor="start" x="856.5" y="-247" font-family="Helvetica,sans-Serif" font-size="10.00">Player::_42ECB5_PlayerAttacks</text>
<text text-anchor="middle" x="927.5" y="-236" font-family="Helvetica,sans-Serif" font-size="10.00">Actor</text>
</a>
</g>
</g>
<!-- Node2&#45;&gt;Node4 -->
<g id="edge18" class="edge"><title>Node2&#45;&gt;Node4</title>
<path fill="none" stroke="midnightblue" d="M1219.7,-273.318C1211.07,-271.722 1202.35,-270.233 1194,-269 1131.25,-259.731 1059.63,-253.223 1006.6,-249.175"/>
<polygon fill="midnightblue" stroke="midnightblue" points="1219.27,-276.8 1229.75,-275.231 1220.58,-269.923 1219.27,-276.8"/>
</g>
<!-- Node5 -->
<g id="node5" class="node"><title>Node5</title>
<g id="a_node5"><a xlink:href="../../d4/d06/class_application_1_1_game.html#a3f65e3f0ef1a9114fb3dea275e52442e" target="_top" xlink:title=" ">
<polygon fill="white" stroke="black" points="480.5,-273 480.5,-303 583.5,-303 583.5,-273 480.5,-273"/>
<text text-anchor="start" x="488.5" y="-291" font-family="Helvetica,sans-Serif" font-size="10.00">Application::Game::</text>
<text text-anchor="middle" x="532" y="-280" font-family="Helvetica,sans-Serif" font-size="10.00">EventLoop</text>
</a>
</g>
</g>
<!-- Node2&#45;&gt;Node5 -->
<g id="edge19" class="edge"><title>Node2&#45;&gt;Node5</title>
<path fill="none" stroke="midnightblue" d="M1219.79,-303.441C1211.15,-304.908 1202.39,-306.16 1194,-307 1115.35,-314.869 840.936,-315.431 645,-302 624.864,-300.62 602.8,-298.084 583.62,-295.546"/>
<polygon fill="midnightblue" stroke="midnightblue" points="1220.64,-306.845 1229.86,-301.63 1219.4,-299.956 1220.64,-306.845"/>
</g>
<!-- Node15 -->
<g id="node15" class="node"><title>Node15</title>
<g id="a_node15"><a xlink:href="../../d8/d06/namespace_cast_spell_info_helpers.html#a6fa3b22b4867c28cad6c215c646dc4aa" target="_top" xlink:title=" ">
<polygon fill="white" stroke="black" points="673,-355 673,-385 783,-385 783,-355 673,-355"/>
<text text-anchor="start" x="681" y="-373" font-family="Helvetica,sans-Serif" font-size="10.00">CastSpellInfoHelpers</text>
<text text-anchor="middle" x="728" y="-362" font-family="Helvetica,sans-Serif" font-size="10.00">::_427E01_cast_spell</text>
</a>
</g>
</g>
<!-- Node2&#45;&gt;Node15 -->
<g id="edge16" class="edge"><title>Node2&#45;&gt;Node15</title>
<path fill="none" stroke="midnightblue" d="M1249.84,-314.138C1233.39,-324.042 1213.48,-334.295 1194,-340 1050.37,-382.058 871.493,-378.996 783.319,-374.062"/>
<polygon fill="midnightblue" stroke="midnightblue" points="1251.95,-316.95 1258.6,-308.704 1248.26,-311.002 1251.95,-316.95"/>
</g>
<!-- Node16 -->
<g id="node16" class="node"><title>Node16</title>
<g id="a_node16"><a xlink:href="../../de/dcf/_engine_8h.html#a287d13406d42b0831d9eb7a64d368202" target="_top" xlink:title=" ">
<polygon fill="white" stroke="black" points="690,-38.5 690,-57.5 766,-57.5 766,-38.5 690,-38.5"/>
<text text-anchor="middle" x="728" y="-45.5" font-family="Helvetica,sans-Serif" font-size="10.00">PrepareWorld</text>
</a>
</g>
</g>
<!-- Node2&#45;&gt;Node16 -->
<g id="edge20" class="edge"><title>Node2&#45;&gt;Node16</title>
<path fill="none" stroke="midnightblue" d="M1272.71,-258.3C1256.46,-229.131 1228.39,-184.917 1194,-156 1123.86,-97.0224 1096.63,-90.3067 1008,-67 923.719,-44.8368 820.461,-44.4128 766.274,-46.1386"/>
<polygon fill="midnightblue" stroke="midnightblue" points="1269.7,-260.097 1277.56,-267.203 1275.85,-256.747 1269.7,-260.097"/>
</g>
<!-- Node17 -->
<g id="node17" class="node"><title>Node17</title>
<g id="a_node17"><a xlink:href="../../d6/d7e/class_keyboard.html#a145eaffd0a9728ad95e3c37ac8313b6d" target="_top" xlink:title=" ">
<polygon fill="white" stroke="black" points="455,-363.5 455,-382.5 609,-382.5 609,-363.5 455,-363.5"/>
<text text-anchor="middle" x="532" y="-370.5" font-family="Helvetica,sans-Serif" font-size="10.00">Keyboard::ProcessInputActions</text>
</a>
</g>
</g>
<!-- Node2&#45;&gt;Node17 -->
<g id="edge22" class="edge"><title>Node2&#45;&gt;Node17</title>
<path fill="none" stroke="midnightblue" d="M1263.56,-316.076C1246.1,-334.119 1221.01,-356.299 1194,-368 974.965,-462.879 675.499,-406.88 570.899,-382.545"/>
<polygon fill="midnightblue" stroke="midnightblue" points="1266.25,-318.321 1270.55,-308.639 1261.15,-313.525 1266.25,-318.321"/>
</g>
<!-- Node18 -->
<g id="node18" class="node"><title>Node18</title>
<g id="a_node18"><a xlink:href="../../da/d35/struct_actor.html#a4d67f03cd45a4619eccf79838f9eb3a7" target="_top" xlink:title=" ">
<polygon fill="white" stroke="black" points="1073.5,-278.5 1073.5,-297.5 1164.5,-297.5 1164.5,-278.5 1073.5,-278.5"/>
<text text-anchor="middle" x="1119" y="-285.5" font-family="Helvetica,sans-Serif" font-size="10.00">Actor::StealFrom</text>
</a>
</g>
</g>
<!-- Node2&#45;&gt;Node18 -->
<g id="edge24" class="edge"><title>Node2&#45;&gt;Node18</title>
<path fill="none" stroke="midnightblue" d="M1219.56,-288C1201.06,-288 1181.5,-288 1164.67,-288"/>
<polygon fill="midnightblue" stroke="midnightblue" points="1219.71,-291.5 1229.71,-288 1219.71,-284.5 1219.71,-291.5"/>
</g>
<!-- Node3&#45;&gt;Node4 -->
<g id="edge3" class="edge"><title>Node3&#45;&gt;Node4</title>
<path fill="none" stroke="midnightblue" d="M1065.69,-199.405C1047.47,-205.727 1026.87,-212.776 1008,-219 998.107,-222.264 987.49,-225.669 977.34,-228.878"/>
<polygon fill="midnightblue" stroke="midnightblue" points="1066.96,-202.668 1075.26,-196.076 1064.66,-196.056 1066.96,-202.668"/>
</g>
<!-- Node3&#45;&gt;Node5 -->
<g id="edge8" class="edge"><title>Node3&#45;&gt;Node5</title>
<path fill="none" stroke="midnightblue" d="M1074.68,-162.302C1054.77,-154.687 1030.6,-146.794 1008,-143 847.881,-116.122 789.436,-109.846 645,-184 601.802,-206.178 563.132,-249.793 544.59,-272.863"/>
<polygon fill="midnightblue" stroke="midnightblue" points="1073.5,-165.598 1084.09,-165.998 1076.06,-159.083 1073.5,-165.598"/>
</g>
<!-- Node9 -->
<g id="node9" class="node"><title>Node9</title>
<g id="a_node9"><a xlink:href="../../d4/dc7/_u_i_houses_8h.html#a3bf47183b95e701104b8fede3df5a993" target="_top" xlink:title=" ">
<polygon fill="white" stroke="black" points="890,-76.5 890,-95.5 965,-95.5 965,-76.5 890,-76.5"/>
<text text-anchor="middle" x="927.5" y="-83.5" font-family="Helvetica,sans-Serif" font-size="10.00">TempleDialog</text>
</a>
</g>
</g>
<!-- Node3&#45;&gt;Node9 -->
<g id="edge9" class="edge"><title>Node3&#45;&gt;Node9</title>
<path fill="none" stroke="midnightblue" d="M1089.99,-159.772C1068.48,-144.274 1037.56,-123.669 1008,-110 994.522,-103.767 979.02,-98.6641 965.304,-94.7914"/>
<polygon fill="midnightblue" stroke="midnightblue" points="1088.17,-162.781 1098.31,-165.855 1092.3,-157.129 1088.17,-162.781"/>
</g>
<!-- Node12 -->
<g id="node12" class="node"><title>Node12</title>
<g id="a_node12"><a xlink:href="../../d3/db1/struct_player.html#a3de138c2c484a5eced6fade1b560fd87" target="_top" xlink:title=" ">
<polygon fill="white" stroke="black" points="847,-152.5 847,-171.5 1008,-171.5 1008,-152.5 847,-152.5"/>
<text text-anchor="middle" x="927.5" y="-159.5" font-family="Helvetica,sans-Serif" font-size="10.00">Player::UseItem_DrinkPotion_etc</text>
</a>
</g>
</g>
<!-- Node3&#45;&gt;Node12 -->
<g id="edge12" class="edge"><title>Node3&#45;&gt;Node12</title>
<path fill="none" stroke="midnightblue" d="M1033.93,-172.571C1025.37,-171.712 1016.68,-170.841 1008.16,-169.987"/>
<polygon fill="midnightblue" stroke="midnightblue" points="1033.62,-176.057 1043.92,-173.572 1034.32,-169.092 1033.62,-176.057"/>
</g>
<!-- Node13 -->
<g id="node13" class="node"><title>Node13</title>
<g id="a_node13"><a xlink:href="../../d9/dbc/_n_p_c_8h.html#acfce0b79ca64a3c666c5bc7781622842" target="_top" xlink:title=" ">
<polygon fill="white" stroke="black" points="891,-190.5 891,-209.5 964,-209.5 964,-190.5 891,-190.5"/>
<text text-anchor="middle" x="927.5" y="-197.5" font-family="Helvetica,sans-Serif" font-size="10.00">UseNPCSkill</text>
</a>
</g>
</g>
<!-- Node3&#45;&gt;Node13 -->
<g id="edge13" class="edge"><title>Node3&#45;&gt;Node13</title>
<path fill="none" stroke="midnightblue" d="M1033.88,-189.435C1009.4,-191.889 983.964,-194.439 964.217,-196.419"/>
<polygon fill="midnightblue" stroke="midnightblue" points="1034.32,-192.908 1043.92,-188.428 1033.62,-185.943 1034.32,-192.908"/>
</g>
<!-- Node4&#45;&gt;Node5 -->
<g id="edge4" class="edge"><title>Node4&#45;&gt;Node5</title>
<path fill="none" stroke="midnightblue" d="M838.339,-252.98C782.829,-258.737 709.691,-266.51 645,-274 624.95,-276.321 602.904,-279.041 583.713,-281.463"/>
<polygon fill="midnightblue" stroke="midnightblue" points="838.906,-256.44 848.492,-251.929 838.185,-249.477 838.906,-256.44"/>
</g>
<!-- Node5&#45;&gt;Node6 -->
<g id="edge5" class="edge"><title>Node5&#45;&gt;Node6</title>
<path fill="none" stroke="midnightblue" d="M470.692,-303.587C453.781,-307.958 435.571,-312.665 419.274,-316.877"/>
<polygon fill="midnightblue" stroke="midnightblue" points="471.669,-306.95 480.475,-301.059 469.917,-300.173 471.669,-306.95"/>
</g>
<!-- Node7 -->
<g id="node7" class="node"><title>Node7</title>
<g id="a_node7"><a xlink:href="../../d4/d06/class_application_1_1_game.html#a013ffd59e8fdf1c0a396da1dbe1681ca" target="_top" xlink:title=" ">
<polygon fill="white" stroke="black" points="156,-320.5 156,-339.5 280,-339.5 280,-320.5 156,-320.5"/>
<text text-anchor="middle" x="218" y="-327.5" font-family="Helvetica,sans-Serif" font-size="10.00">Application::Game::Loop</text>
</a>
</g>
</g>
<!-- Node6&#45;&gt;Node7 -->
<g id="edge6" class="edge"><title>Node6&#45;&gt;Node7</title>
<path fill="none" stroke="midnightblue" d="M305.59,-330C297.149,-330 288.478,-330 280.035,-330"/>
<polygon fill="midnightblue" stroke="midnightblue" points="305.739,-333.5 315.739,-330 305.739,-326.5 305.739,-333.5"/>
</g>
<!-- Node8 -->
<g id="node8" class="node"><title>Node8</title>
<g id="a_node8"><a xlink:href="../../d4/d06/class_application_1_1_game.html#a96341ca5b54d90adc3ecb3bf0bcd2312" target="_top" xlink:title=" ">
<polygon fill="white" stroke="black" points="0,-320.5 0,-339.5 120,-339.5 120,-320.5 0,-320.5"/>
<text text-anchor="middle" x="60" y="-327.5" font-family="Helvetica,sans-Serif" font-size="10.00">Application::Game::Run</text>
</a>
</g>
</g>
<!-- Node7&#45;&gt;Node8 -->
<g id="edge7" class="edge"><title>Node7&#45;&gt;Node8</title>
<path fill="none" stroke="midnightblue" d="M145.546,-330C137.081,-330 128.513,-330 120.244,-330"/>
<polygon fill="midnightblue" stroke="midnightblue" points="145.792,-333.5 155.792,-330 145.792,-326.5 145.792,-333.5"/>
</g>
<!-- Node10 -->
<g id="node10" class="node"><title>Node10</title>
<g id="a_node10"><a xlink:href="../../d4/d38/class_g_u_i_window.html#af4310ff80f340b9a9c9b3249564a0960" target="_top" xlink:title=" ">
<polygon fill="white" stroke="black" points="645,-76.5 645,-95.5 811,-95.5 811,-76.5 645,-76.5"/>
<text text-anchor="middle" x="728" y="-83.5" font-family="Helvetica,sans-Serif" font-size="10.00">GUIWindow::HouseDialogManager</text>
</a>
</g>
</g>
<!-- Node9&#45;&gt;Node10 -->
<g id="edge10" class="edge"><title>Node9&#45;&gt;Node10</title>
<path fill="none" stroke="midnightblue" d="M879.547,-86C859.139,-86 834.616,-86 811.343,-86"/>
<polygon fill="midnightblue" stroke="midnightblue" points="879.815,-89.5001 889.815,-86 879.815,-82.5001 879.815,-89.5001"/>
</g>
<!-- Node11 -->
<g id="node11" class="node"><title>Node11</title>
<g id="a_node11"><a xlink:href="../../d8/ddd/class_g_u_i_window___house.html#a27de5de37c96fb176d5d12465e59ccc7" target="_top" xlink:title=" ">
<polygon fill="white" stroke="black" points="463.5,-76.5 463.5,-95.5 600.5,-95.5 600.5,-76.5 463.5,-76.5"/>
<text text-anchor="middle" x="532" y="-83.5" font-family="Helvetica,sans-Serif" font-size="10.00">GUIWindow_House::Update</text>
</a>
</g>
</g>
<!-- Node10&#45;&gt;Node11 -->
<g id="edge11" class="edge"><title>Node10&#45;&gt;Node11</title>
<path fill="none" stroke="midnightblue" d="M634.705,-86C623.256,-86 611.72,-86 600.737,-86"/>
<polygon fill="midnightblue" stroke="midnightblue" points="634.727,-89.5001 644.727,-86 634.726,-82.5001 634.727,-89.5001"/>
</g>
<!-- Node14 -->
<g id="node14" class="node"><title>Node14</title>
<g id="a_node14"><a xlink:href="../../d6/d82/_u_i_dialogue_8h.html#a0213da862a4f9421ada12d4bfff8a710" target="_top" xlink:title=" ">
<polygon fill="white" stroke="black" points="656.5,-193.5 656.5,-212.5 799.5,-212.5 799.5,-193.5 656.5,-193.5"/>
<text text-anchor="middle" x="728" y="-200.5" font-family="Helvetica,sans-Serif" font-size="10.00">OnSelectNPCDialogueOption</text>
</a>
</g>
</g>
<!-- Node13&#45;&gt;Node14 -->
<g id="edge14" class="edge"><title>Node13&#45;&gt;Node14</title>
<path fill="none" stroke="midnightblue" d="M880.488,-200.699C856.473,-201.064 826.567,-201.518 799.688,-201.926"/>
<polygon fill="midnightblue" stroke="midnightblue" points="880.789,-204.195 890.734,-200.543 880.682,-197.196 880.789,-204.195"/>
</g>
<!-- Node14&#45;&gt;Node5 -->
<g id="edge15" class="edge"><title>Node14&#45;&gt;Node5</title>
<path fill="none" stroke="midnightblue" d="M688.866,-216.005C674.936,-221.003 659.135,-226.964 645,-233 616.113,-245.336 584.018,-261.343 561.617,-272.904"/>
<polygon fill="midnightblue" stroke="midnightblue" points="690.37,-219.185 698.628,-212.548 688.033,-212.587 690.37,-219.185"/>
</g>
<!-- Node15&#45;&gt;Node5 -->
<g id="edge17" class="edge"><title>Node15&#45;&gt;Node5</title>
<path fill="none" stroke="midnightblue" d="M674.144,-351.404C664.397,-347.765 654.348,-343.872 645,-340 617.073,-328.432 585.933,-313.833 563.592,-303.05"/>
<polygon fill="midnightblue" stroke="midnightblue" points="673.161,-354.772 683.754,-354.948 675.583,-348.204 673.161,-354.772"/>
</g>
<!-- Node16&#45;&gt;Node6 -->
<g id="edge21" class="edge"><title>Node16&#45;&gt;Node6</title>
<path fill="none" stroke="midnightblue" d="M679.769,-36.7638C620.694,-25.6687 519.489,-16.8059 455,-67 374.587,-129.588 368.037,-268.878 368.161,-314.91"/>
<polygon fill="midnightblue" stroke="midnightblue" points="679.449,-40.2681 689.938,-38.7742 680.806,-33.401 679.449,-40.2681"/>
</g>
<!-- Node17&#45;&gt;Node6 -->
<g id="edge23" class="edge"><title>Node17&#45;&gt;Node6</title>
<path fill="none" stroke="midnightblue" d="M485.185,-360.877C464.644,-355.441 440.346,-349.012 419.255,-343.43"/>
<polygon fill="midnightblue" stroke="midnightblue" points="484.373,-364.282 494.936,-363.457 486.164,-357.515 484.373,-364.282"/>
</g>
<!-- Node18&#45;&gt;Node5 -->
<g id="edge25" class="edge"><title>Node18&#45;&gt;Node5</title>
<path fill="none" stroke="midnightblue" d="M1062.91,-288C949.878,-288 693.202,-288 583.86,-288"/>
<polygon fill="midnightblue" stroke="midnightblue" points="1063.07,-291.5 1073.07,-288 1063.07,-284.5 1063.07,-291.5"/>
</g>
<!-- Node20 -->
<g id="node20" class="node"><title>Node20</title>
<g id="a_node20"><a xlink:href="../../d6/d83/struct_engine.html#a4e6fbae6c087bbfa2b1e20f11c46460d" target="_top" xlink:title=" ">
<polygon fill="white" stroke="black" points="1075,-0.5 1075,-19.5 1163,-19.5 1163,-0.5 1075,-0.5"/>
<text text-anchor="middle" x="1119" y="-7.5" font-family="Helvetica,sans-Serif" font-size="10.00">Engine::Initialize</text>
</a>
</g>
</g>
<!-- Node19&#45;&gt;Node20 -->
<g id="edge28" class="edge"><title>Node19&#45;&gt;Node20</title>
<path fill="none" stroke="midnightblue" d="M1274.17,-107.423C1257.28,-87.0547 1226.87,-53.7674 1194,-34 1183.81,-27.8751 1171.89,-23.1251 1160.62,-19.5285"/>
<polygon fill="midnightblue" stroke="midnightblue" points="1271.53,-109.724 1280.55,-115.284 1276.97,-105.313 1271.53,-109.724"/>
</g>
</g>
</svg>
        <g id="navigator" transform="translate(0 0)" fill="#404254">
                <rect fill="#f2f5e9" fill-opacity="0.5" stroke="#606060" stroke-width=".5" x="0" y="0" width="60" height="60"/>
                <use id="zoomplus" xlink:href="#zoomPlus" x="17" y="9" onmousedown="handleZoom(evt,'in')"/>
                <use id="zoomminus" xlink:href="#zoomMin" x="42" y="9" onmousedown="handleZoom(evt,'out')"/>
                <use id="reset" xlink:href="#resetDef" x="30" y="36" onmousedown="handleReset()"/>
                <g id="arrowUp" xlink:href="#dirArrow" transform="translate(30 24)" onmousedown="handlePan(0,-1)">
                  <use xlink:href="#rim" fill="#404040">
                        <set attributeName="fill" to="#808080" begin="arrowUp.mouseover" end="arrowUp.mouseout"/>
                  </use>
                  <path fill="none" stroke="white" stroke-width="1.5" d="M0,-3.0v7 M-2.5,-0.5L0,-3.0L2.5,-0.5"/>
                </g>
                <g id="arrowRight" xlink:href="#dirArrow" transform="rotate(90) translate(36 -43)" onmousedown="handlePan(1,0)">
                  <use xlink:href="#rim" fill="#404040">
                        <set attributeName="fill" to="#808080" begin="arrowRight.mouseover" end="arrowRight.mouseout"/>
                  </use>
                  <path fill="none" stroke="white" stroke-width="1.5" d="M0,-3.0v7 M-2.5,-0.5L0,-3.0L2.5,-0.5"/>
                </g>
                <g id="arrowDown" xlink:href="#dirArrow" transform="rotate(180) translate(-30 -48)" onmousedown="handlePan(0,1)">
                  <use xlink:href="#rim" fill="#404040">
                        <set attributeName="fill" to="#808080" begin="arrowDown.mouseover" end="arrowDown.mouseout"/>
                  </use>
                  <path fill="none" stroke="white" stroke-width="1.5" d="M0,-3.0v7 M-2.5,-0.5L0,-3.0L2.5,-0.5"/>
                </g>
                <g id="arrowLeft" xlink:href="#dirArrow" transform="rotate(270) translate(-36 17)" onmousedown="handlePan(-1,0)">
                  <use xlink:href="#rim" fill="#404040">
                        <set attributeName="fill" to="#808080" begin="arrowLeft.mouseover" end="arrowLeft.mouseout"/>
                  </use>
                  <path fill="none" stroke="white" stroke-width="1.5" d="M0,-3.0v7 M-2.5,-0.5L0,-3.0L2.5,-0.5"/>
                </g>
        </g>
        <svg viewBox="0 0 15 15" width="100%" height="30px" preserveAspectRatio="xMaxYMin meet">
         <g id="arrow_out" transform="scale(0.3 0.3)">
          <a xlink:href="_engine_8cpp_ac904a34323d1592b02c5233ddfb224a7_icgraph_org.svg" target="_base">
           <rect id="button" ry="5" rx="5" y="6" x="6" height="38" width="38"
                fill="#f2f5e9" fill-opacity="0.5" stroke="#606060" stroke-width="1.0"/>
           <path id="arrow"
             d="M 11.500037,31.436501 C 11.940474,20.09759 22.043105,11.32322 32.158766,21.979434 L 37.068811,17.246167 C 37.068811,17.246167 37.088388,32 37.088388,32 L 22.160133,31.978069 C 22.160133,31.978069 26.997745,27.140456 26.997745,27.140456 C 18.528582,18.264221 13.291696,25.230495 11.500037,31.436501 z"
             style="fill:#404040;"/>
          </a>
         </g>
        </svg>
</svg>
