<?xml version="1.0" encoding="UTF-8" standalone="no"?>
<!DOCTYPE svg PUBLIC "-//W3C//DTD SVG 1.1//EN"
 "http://www.w3.org/Graphics/SVG/1.1/DTD/svg11.dtd">
<!-- Generated by graphviz version 2.38.0 (20140413.2041)
 -->
<!-- Title: NZIArray&lt; _Ty, _Size &gt; Pages: 1 -->
<svg width="154pt" height="163pt"
 viewBox="0.00 0.00 154.00 163.00" xmlns="http://www.w3.org/2000/svg" xmlns:xlink="http://www.w3.org/1999/xlink">
<g id="graph0" class="graph" transform="scale(1 1) rotate(0) translate(4 159)">
<title>NZIArray&lt; _Ty, _Size &gt;</title>
<polygon fill="white" stroke="none" points="-4,4 -4,-159 150,-159 150,4 -4,4"/>
<!-- Node1 -->
<g id="node1" class="node"><title>Node1</title>
<g id="a_node1"><a xlink:title=" ">
<polygon fill="#bfbfbf" stroke="black" points="1.5,-78.5 1.5,-97.5 120.5,-97.5 120.5,-78.5 1.5,-78.5"/>
<text text-anchor="middle" x="61" y="-85.5" font-family="Helvetica,sans-Serif" font-size="10.00">NZIArray&lt; _Ty, _Size &gt;</text>
</a>
</g>
</g>
<!-- Node3 -->
<g id="node3" class="node"><title>Node3</title>
<g id="a_node3"><a xlink:href="../../d9/d69/class_n_z_i_array.html" target="_top" xlink:title=" ">
<polygon fill="white" stroke="black" points="7.5,-0.5 7.5,-30.5 114.5,-30.5 114.5,-0.5 7.5,-0.5"/>
<text text-anchor="start" x="15.5" y="-18.5" font-family="Helvetica,sans-Serif" font-size="10.00">NZIArray&lt; ItemDesc,</text>
<text text-anchor="middle" x="61" y="-7.5" font-family="Helvetica,sans-Serif" font-size="10.00"> 800 &gt;</text>
</a>
</g>
</g>
<!-- Node1&#45;&gt;Node3 -->
<g id="edge2" class="edge"><title>Node1&#45;&gt;Node3</title>
<path fill="none" stroke="orange" stroke-dasharray="5,2" d="M61,-68.2362C61,-56.4079 61,-41.3829 61,-30.5762"/>
<polygon fill="orange" stroke="orange" points="57.5001,-68.3553 61,-78.3553 64.5001,-68.3554 57.5001,-68.3553"/>
<text text-anchor="middle" x="103.5" y="-52" font-family="Helvetica,sans-Serif" font-size="10.00"> &lt; ItemDesc, 800 &gt;</text>
</g>
<!-- Node2 -->
<g id="node2" class="node"><title>Node2</title>
<g id="a_node2"><a xlink:title=" ">
<polygon fill="white" stroke="#bfbfbf" points="0,-135.5 0,-154.5 122,-154.5 122,-135.5 0,-135.5"/>
<text text-anchor="middle" x="61" y="-142.5" font-family="Helvetica,sans-Serif" font-size="10.00">std::array&lt; _Ty, _Size &gt;</text>
</a>
</g>
</g>
<!-- Node2&#45;&gt;Node1 -->
<g id="edge1" class="edge"><title>Node2&#45;&gt;Node1</title>
<path fill="none" stroke="#8b1a1a" d="M61,-125.117C61,-115.817 61,-105.056 61,-97.7149"/>
<polygon fill="#8b1a1a" stroke="#8b1a1a" points="57.5001,-125.406 61,-135.406 64.5001,-125.406 57.5001,-125.406"/>
</g>
</g>
</svg>
