<?xml version="1.0" encoding="UTF-8" standalone="no"?>
<!DOCTYPE svg PUBLIC "-//W3C//DTD SVG 1.1//EN"
 "http://www.w3.org/Graphics/SVG/1.1/DTD/svg11.dtd">
<!-- Generated by graphviz version 2.38.0 (20140413.2041)
 -->
<!-- Title: GUIWindow_Dialogue Pages: 1 -->
<svg width="399pt" height="374pt"
 viewBox="0.00 0.00 399.00 374.00" xmlns="http://www.w3.org/2000/svg" xmlns:xlink="http://www.w3.org/1999/xlink">
<g id="graph0" class="graph" transform="scale(1 1) rotate(0) translate(4 370)">
<title>GUIWindow_Dialogue</title>
<polygon fill="white" stroke="none" points="-4,4 -4,-370 395,-370 395,4 -4,4"/>
<!-- Node1 -->
<g id="node1" class="node"><title>Node1</title>
<g id="a_node1"><a xlink:title=" ">
<polygon fill="#bfbfbf" stroke="black" points="0,-0.5 0,-19.5 110,-19.5 110,-0.5 0,-0.5"/>
<text text-anchor="middle" x="55" y="-7.5" font-family="Helvetica,sans-Serif" font-size="10.00">GUIWindow_Dialogue</text>
</a>
</g>
</g>
<!-- Node2 -->
<g id="node2" class="node"><title>Node2</title>
<g id="a_node2"><a xlink:href="../../d4/d38/class_g_u_i_window.html" target="_top" xlink:title=" ">
<polygon fill="white" stroke="black" points="21,-67.5 21,-86.5 89,-86.5 89,-67.5 21,-67.5"/>
<text text-anchor="middle" x="55" y="-74.5" font-family="Helvetica,sans-Serif" font-size="10.00">GUIWindow</text>
</a>
</g>
</g>
<!-- Node2&#45;&gt;Node1 -->
<g id="edge1" class="edge"><title>Node2&#45;&gt;Node1</title>
<path fill="none" stroke="midnightblue" d="M55,-57.037C55,-44.6703 55,-29.1198 55,-19.6273"/>
<polygon fill="midnightblue" stroke="midnightblue" points="51.5001,-57.2338 55,-67.2338 58.5001,-57.2338 51.5001,-57.2338"/>
</g>
<!-- Node3 -->
<g id="node3" class="node"><title>Node3</title>
<g id="a_node3"><a xlink:href="../../d6/d70/class_log.html" target="_top" xlink:title=" ">
<polygon fill="white" stroke="black" points="208,-346.5 208,-365.5 240,-365.5 240,-346.5 208,-346.5"/>
<text text-anchor="middle" x="224" y="-353.5" font-family="Helvetica,sans-Serif" font-size="10.00">Log</text>
</a>
</g>
</g>
<!-- Node3&#45;&gt;Node2 -->
<g id="edge2" class="edge"><title>Node3&#45;&gt;Node2</title>
<path fill="none" stroke="#9a32cd" stroke-dasharray="5,2" d="M197.706,-350.86C148.852,-342.42 49,-321.336 49,-290 49,-290 49,-290 49,-143 49,-122.828 51.9008,-99.2827 53.6684,-86.8076"/>
<polygon fill="#9a32cd" stroke="#9a32cd" points="197.41,-354.358 207.85,-352.556 198.565,-347.454 197.41,-354.358"/>
<text text-anchor="middle" x="57" y="-219.5" font-family="Helvetica,sans-Serif" font-size="10.00"> log</text>
</g>
<!-- Node6 -->
<g id="node6" class="node"><title>Node6</title>
<g id="a_node6"><a xlink:href="../../d7/d42/class_image_loader.html" target="_top" xlink:title=" ">
<polygon fill="white" stroke="black" points="188,-279.5 188,-298.5 260,-298.5 260,-279.5 188,-279.5"/>
<text text-anchor="middle" x="224" y="-286.5" font-family="Helvetica,sans-Serif" font-size="10.00">ImageLoader</text>
</a>
</g>
</g>
<!-- Node3&#45;&gt;Node6 -->
<g id="edge6" class="edge"><title>Node3&#45;&gt;Node6</title>
<path fill="none" stroke="#9a32cd" stroke-dasharray="5,2" d="M224,-336.037C224,-323.67 224,-308.12 224,-298.627"/>
<polygon fill="#9a32cd" stroke="#9a32cd" points="220.5,-336.234 224,-346.234 227.5,-336.234 220.5,-336.234"/>
<text text-anchor="middle" x="232" y="-320" font-family="Helvetica,sans-Serif" font-size="10.00"> log</text>
</g>
<!-- Node7 -->
<g id="node7" class="node"><title>Node7</title>
<g id="a_node7"><a xlink:href="../../db/da4/class_o_s_window.html" target="_top" xlink:title=" ">
<polygon fill="white" stroke="black" points="232.5,-0.5 232.5,-19.5 297.5,-19.5 297.5,-0.5 232.5,-0.5"/>
<text text-anchor="middle" x="265" y="-7.5" font-family="Helvetica,sans-Serif" font-size="10.00">OSWindow</text>
</a>
</g>
</g>
<!-- Node3&#45;&gt;Node7 -->
<g id="edge8" class="edge"><title>Node3&#45;&gt;Node7</title>
<path fill="none" stroke="#9a32cd" stroke-dasharray="5,2" d="M250.259,-355.037C293.511,-353.567 375,-343.675 375,-290 375,-290 375,-290 375,-76 375,-39.7321 330.131,-23.2772 297.706,-16.121"/>
<polygon fill="#9a32cd" stroke="#9a32cd" points="250.083,-351.54 240.16,-355.251 250.232,-358.538 250.083,-351.54"/>
<text text-anchor="middle" x="383" y="-180.5" font-family="Helvetica,sans-Serif" font-size="10.00"> log</text>
</g>
<!-- Node4 -->
<g id="node4" class="node"><title>Node4</title>
<g id="a_node4"><a xlink:href="../../d7/dc5/class_mouse.html" target="_top" xlink:title=" ">
<polygon fill="white" stroke="black" points="107,-134.5 107,-153.5 153,-153.5 153,-134.5 107,-134.5"/>
<text text-anchor="middle" x="130" y="-141.5" font-family="Helvetica,sans-Serif" font-size="10.00">Mouse</text>
</a>
</g>
</g>
<!-- Node4&#45;&gt;Node2 -->
<g id="edge3" class="edge"><title>Node4&#45;&gt;Node2</title>
<path fill="none" stroke="#9a32cd" stroke-dasharray="5,2" d="M102.142,-129.531C95.5016,-125.656 88.6959,-121.083 83,-116 73.3397,-107.379 64.938,-94.9246 59.9212,-86.6526"/>
<polygon fill="#9a32cd" stroke="#9a32cd" points="100.522,-132.635 110.974,-134.367 103.883,-126.495 100.522,-132.635"/>
<text text-anchor="middle" x="99.5" y="-108" font-family="Helvetica,sans-Serif" font-size="10.00"> mouse</text>
</g>
<!-- Node8 -->
<g id="node8" class="node"><title>Node8</title>
<g id="a_node8"><a xlink:href="../../dc/d12/class_application_1_1_game_window_handler.html" target="_top" xlink:title=" ">
<polygon fill="white" stroke="black" points="183,-67.5 183,-86.5 347,-86.5 347,-67.5 183,-67.5"/>
<text text-anchor="middle" x="265" y="-74.5" font-family="Helvetica,sans-Serif" font-size="10.00">Application::GameWindowHandler</text>
</a>
</g>
</g>
<!-- Node4&#45;&gt;Node8 -->
<g id="edge10" class="edge"><title>Node4&#45;&gt;Node8</title>
<path fill="none" stroke="#9a32cd" stroke-dasharray="5,2" d="M157.117,-129.944C183.856,-117.069 223.966,-97.7573 246.999,-86.6672"/>
<polygon fill="#9a32cd" stroke="#9a32cd" points="155.419,-126.877 147.927,-134.369 158.455,-133.184 155.419,-126.877"/>
<text text-anchor="middle" x="222.5" y="-108" font-family="Helvetica,sans-Serif" font-size="10.00"> mouse</text>
</g>
<!-- Node5 -->
<g id="node5" class="node"><title>Node5</title>
<g id="a_node5"><a xlink:href="../../de/d73/class_image.html" target="_top" xlink:title=" ">
<polygon fill="white" stroke="black" points="202.5,-212.5 202.5,-231.5 245.5,-231.5 245.5,-212.5 202.5,-212.5"/>
<text text-anchor="middle" x="224" y="-219.5" font-family="Helvetica,sans-Serif" font-size="10.00">Image</text>
</a>
</g>
</g>
<!-- Node5&#45;&gt;Node4 -->
<g id="edge4" class="edge"><title>Node5&#45;&gt;Node4</title>
<path fill="none" stroke="#9a32cd" stroke-dasharray="5,2" d="M219.5,-202.544C216.173,-192.353 210.679,-180.147 202,-172 188.568,-159.391 168.695,-152.53 153.228,-148.885"/>
<polygon fill="#9a32cd" stroke="#9a32cd" points="216.136,-203.511 222.226,-212.181 222.872,-201.606 216.136,-203.511"/>
<text text-anchor="middle" x="244.5" y="-186" font-family="Helvetica,sans-Serif" font-size="10.00"> cursor_img</text>
<text text-anchor="middle" x="244.5" y="-175" font-family="Helvetica,sans-Serif" font-size="10.00">pPickedItem</text>
</g>
<!-- Node6&#45;&gt;Node5 -->
<g id="edge5" class="edge"><title>Node6&#45;&gt;Node5</title>
<path fill="none" stroke="#9a32cd" stroke-dasharray="5,2" d="M224,-269.037C224,-256.67 224,-241.12 224,-231.627"/>
<polygon fill="#9a32cd" stroke="#9a32cd" points="220.5,-269.234 224,-279.234 227.5,-269.234 220.5,-269.234"/>
<text text-anchor="middle" x="239" y="-253" font-family="Helvetica,sans-Serif" font-size="10.00"> loader</text>
</g>
<!-- Node7&#45;&gt;Node4 -->
<g id="edge7" class="edge"><title>Node7&#45;&gt;Node4</title>
<path fill="none" stroke="#9a32cd" stroke-dasharray="5,2" d="M222.435,-18.626C194.162,-26.0212 158.735,-40.2284 139,-67 124.179,-87.1065 126.272,-118.669 128.43,-134.018"/>
<polygon fill="#9a32cd" stroke="#9a32cd" points="223.586,-21.9486 232.485,-16.199 221.943,-15.1442 223.586,-21.9486"/>
<text text-anchor="middle" x="156.5" y="-74.5" font-family="Helvetica,sans-Serif" font-size="10.00"> window</text>
</g>
<!-- Node8&#45;&gt;Node7 -->
<g id="edge9" class="edge"><title>Node8&#45;&gt;Node7</title>
<path fill="none" stroke="#9a32cd" stroke-dasharray="5,2" d="M265,-57.037C265,-44.6703 265,-29.1198 265,-19.6273"/>
<polygon fill="#9a32cd" stroke="#9a32cd" points="261.5,-57.2338 265,-67.2338 268.5,-57.2338 261.5,-57.2338"/>
<text text-anchor="middle" x="297.5" y="-41" font-family="Helvetica,sans-Serif" font-size="10.00"> gameCallback</text>
</g>
<!-- Node9 -->
<g id="node9" class="node"><title>Node9</title>
<g id="a_node9"><a xlink:href="../../d8/dc8/struct_point.html" target="_top" xlink:title=" ">
<polygon fill="white" stroke="black" points="96.5,-212.5 96.5,-231.5 135.5,-231.5 135.5,-212.5 96.5,-212.5"/>
<text text-anchor="middle" x="116" y="-219.5" font-family="Helvetica,sans-Serif" font-size="10.00">Point</text>
</a>
</g>
</g>
<!-- Node9&#45;&gt;Node4 -->
<g id="edge11" class="edge"><title>Node9&#45;&gt;Node4</title>
<path fill="none" stroke="#9a32cd" stroke-dasharray="5,2" d="M114.524,-202.151C114.272,-192.942 114.666,-181.767 117,-172 118.548,-165.523 121.798,-158.773 124.661,-153.642"/>
<polygon fill="#9a32cd" stroke="#9a32cd" points="111.032,-202.387 115.067,-212.183 118.022,-202.009 111.032,-202.387"/>
<text text-anchor="middle" x="159.5" y="-180.5" font-family="Helvetica,sans-Serif" font-size="10.00"> pCursorBitmapPos</text>
</g>
</g>
</svg>
