<?xml version="1.0" encoding="UTF-8" standalone="no"?>
<!DOCTYPE svg PUBLIC "-//W3C//DTD SVG 1.1//EN"
 "http://www.w3.org/Graphics/SVG/1.1/DTD/svg11.dtd">
<!-- Generated by graphviz version 2.38.0 (20140413.2041)
 -->
<!-- Title: BookUI_Spellbook_DrawCurrentSchoolBackground Pages: 1 -->
<svg width="315pt" height="39pt"
 viewBox="0.00 0.00 315.00 39.00" xmlns="http://www.w3.org/2000/svg" xmlns:xlink="http://www.w3.org/1999/xlink">
<g id="graph0" class="graph" transform="scale(1 1) rotate(0) translate(4 35)">
<title>BookUI_Spellbook_DrawCurrentSchoolBackground</title>
<polygon fill="white" stroke="none" points="-4,4 -4,-35 311,-35 311,4 -4,4"/>
<!-- Node1 -->
<g id="node1" class="node"><title>Node1</title>
<g id="a_node1"><a xlink:title=" ">
<polygon fill="#bfbfbf" stroke="black" points="152,-0.5 152,-30.5 307,-30.5 307,-0.5 152,-0.5"/>
<text text-anchor="start" x="160" y="-18.5" font-family="Helvetica,sans-Serif" font-size="10.00">BookUI_Spellbook_DrawCurrent</text>
<text text-anchor="middle" x="229.5" y="-7.5" font-family="Helvetica,sans-Serif" font-size="10.00">SchoolBackground</text>
</a>
</g>
</g>
<!-- Node2 -->
<g id="node2" class="node"><title>Node2</title>
<g id="a_node2"><a xlink:href="../../d0/d1e/class_g_u_i_window___spellbook.html#af4de8bf7f7cb12f7d92d847a3ae775d9" target="_top" xlink:title=" ">
<polygon fill="white" stroke="black" points="0,-0.5 0,-30.5 116,-30.5 116,-0.5 0,-0.5"/>
<text text-anchor="start" x="8" y="-18.5" font-family="Helvetica,sans-Serif" font-size="10.00">GUIWindow_Spellbook</text>
<text text-anchor="middle" x="58" y="-7.5" font-family="Helvetica,sans-Serif" font-size="10.00">::Update</text>
</a>
</g>
</g>
<!-- Node1&#45;&gt;Node2 -->
<g id="edge1" class="edge"><title>Node1&#45;&gt;Node2</title>
<path fill="none" stroke="midnightblue" d="M141.531,-15.5C132.874,-15.5 124.249,-15.5 116.016,-15.5"/>
<polygon fill="midnightblue" stroke="midnightblue" points="141.685,-19.0001 151.685,-15.5 141.685,-12.0001 141.685,-19.0001"/>
</g>
</g>
</svg>
