<?xml version="1.0" encoding="UTF-8" standalone="no"?>
<!DOCTYPE svg PUBLIC "-//W3C//DTD SVG 1.1//EN"
 "http://www.w3.org/Graphics/SVG/1.1/DTD/svg11.dtd">
<!-- Generated by graphviz version 2.38.0 (20140413.2041)
 -->
<!-- Title: InitializeSpellBookTextures Pages: 1 -->
<!--zoomable 252 -->
<svg id="main" version="1.1" xmlns="http://www.w3.org/2000/svg" xmlns:xlink="http://www.w3.org/1999/xlink" xml:space="preserve" onload="init(evt)">
<style type="text/css"><![CDATA[
.edge:hover path { stroke: red; }
.edge:hover polygon { stroke: red; fill: red; }
]]></style>
<script type="text/javascript"><![CDATA[
var edges = document.getElementsByTagName('g');
if (edges && edges.length) {
  for (var i=0;i<edges.length;i++) {
    if (edges[i].id.substr(0,4)=='edge') {
      edges[i].setAttribute('class','edge');
    }
  }
}
]]></script>
        <defs>
                <circle id="rim" cx="0" cy="0" r="7"/>
                <circle id="rim2" cx="0" cy="0" r="3.5"/>
                <g id="zoomPlus">
                        <use xlink:href="#rim" fill="#404040">
                                <set attributeName="fill" to="#808080" begin="zoomplus.mouseover" end="zoomplus.mouseout"/>
                        </use>
                        <path d="M-4,0h8M0,-4v8" fill="none" stroke="white" stroke-width="1.5" pointer-events="none"/>
                </g>
                <g id="zoomMin">
                        <use xlink:href="#rim" fill="#404040">
                                <set attributeName="fill" to="#808080" begin="zoomminus.mouseover" end="zoomminus.mouseout"/>
                        </use>
                        <path d="M-4,0h8" fill="none" stroke="white" stroke-width="1.5" pointer-events="none"/>
                </g>
                <g id="dirArrow">
                        <path fill="none" stroke="white" stroke-width="1.5" d="M0,-3.0v7 M-2.5,-0.5L0,-3.0L2.5,-0.5"/>
                </g>
               <g id="resetDef">
                       <use xlink:href="#rim2" fill="#404040">
                               <set attributeName="fill" to="#808080" begin="reset.mouseover" end="reset.mouseout"/>
                       </use>
               </g>
        </defs>

<script type="text/javascript">
var viewWidth = 758;
var viewHeight = 252;
var sectionId = 'dynsection-0';
</script>
<script xlink:href="../../svgpan.js"/>
<svg id="graph" class="graph">
<g id="viewport">
<title>InitializeSpellBookTextures</title>
<polygon fill="white" stroke="none" points="-4,4 -4,-247.5 754,-247.5 754,4 -4,4"/>
<!-- Node1 -->
<g id="node1" class="node"><title>Node1</title>
<g id="a_node1"><a xlink:title=" ">
<polygon fill="#bfbfbf" stroke="black" points="0,-98.5 0,-117.5 134,-117.5 134,-98.5 0,-98.5"/>
<text text-anchor="middle" x="67" y="-105.5" font-family="Helvetica,sans-Serif" font-size="10.00">InitializeSpellBookTextures</text>
</a>
</g>
</g>
<!-- Node2 -->
<g id="node2" class="node"><title>Node2</title>
<g id="a_node2"><a xlink:href="../../db/dd6/class_assets_manager.html#a1233dda64079e0eba19f8be51386d029" target="_top" xlink:title=" ">
<polygon fill="white" stroke="black" points="171.5,-213 171.5,-243 304.5,-243 304.5,-213 171.5,-213"/>
<text text-anchor="start" x="179.5" y="-231" font-family="Helvetica,sans-Serif" font-size="10.00">AssetsManager::GetImage</text>
<text text-anchor="middle" x="238" y="-220" font-family="Helvetica,sans-Serif" font-size="10.00">_Alpha</text>
</a>
</g>
</g>
<!-- Node1&#45;&gt;Node2 -->
<g id="edge1" class="edge"><title>Node1&#45;&gt;Node2</title>
<path fill="none" stroke="midnightblue" d="M75.7261,-117.536C91.5467,-136.496 129.562,-179.233 170,-204 172.654,-205.625 175.434,-207.163 178.29,-208.615"/>
<polygon fill="midnightblue" stroke="midnightblue" points="177.066,-211.906 187.608,-212.961 180.025,-205.562 177.066,-211.906"/>
</g>
<!-- Node3 -->
<g id="node3" class="node"><title>Node3</title>
<g id="a_node3"><a xlink:href="../../db/dd6/class_assets_manager.html#ad4ab70fc004c8c5a54756f3d358a8383" target="_top" xlink:title=" ">
<polygon fill="white" stroke="black" points="171.5,-164 171.5,-194 304.5,-194 304.5,-164 171.5,-164"/>
<text text-anchor="start" x="179.5" y="-182" font-family="Helvetica,sans-Serif" font-size="10.00">AssetsManager::GetImage</text>
<text text-anchor="middle" x="238" y="-171" font-family="Helvetica,sans-Serif" font-size="10.00">_ColorKey</text>
</a>
</g>
</g>
<!-- Node1&#45;&gt;Node3 -->
<g id="edge2" class="edge"><title>Node1&#45;&gt;Node3</title>
<path fill="none" stroke="midnightblue" d="M87.3306,-117.525C107.681,-127.405 140.76,-143.053 170,-155 174.414,-156.804 179.02,-158.609 183.66,-160.374"/>
<polygon fill="midnightblue" stroke="midnightblue" points="182.588,-163.71 193.18,-163.929 185.036,-157.152 182.588,-163.71"/>
</g>
<!-- Node4 -->
<g id="node4" class="node"><title>Node4</title>
<g id="a_node4"><a xlink:href="../../db/dd6/class_assets_manager.html#aa6b54bf3eebb770dc30767d13c436ce0" target="_top" xlink:title=" ">
<polygon fill="white" stroke="black" points="171.5,-115 171.5,-145 304.5,-145 304.5,-115 171.5,-115"/>
<text text-anchor="start" x="179.5" y="-133" font-family="Helvetica,sans-Serif" font-size="10.00">AssetsManager::GetImage</text>
<text text-anchor="middle" x="238" y="-122" font-family="Helvetica,sans-Serif" font-size="10.00">_Solid</text>
</a>
</g>
</g>
<!-- Node1&#45;&gt;Node4 -->
<g id="edge3" class="edge"><title>Node1&#45;&gt;Node4</title>
<path fill="none" stroke="midnightblue" d="M134.308,-116.632C143.177,-117.786 152.326,-118.977 161.34,-120.151"/>
<polygon fill="midnightblue" stroke="midnightblue" points="161.069,-123.645 171.437,-121.465 161.973,-116.704 161.069,-123.645"/>
</g>
<!-- Node5 -->
<g id="node5" class="node"><title>Node5</title>
<g id="a_node5"><a xlink:href="../../d7/dc2/class_audio_player.html#afa0c135f321bd87b4d4ad2dcad3833e3" target="_top" xlink:title=" ">
<polygon fill="white" stroke="black" points="177,-76.5 177,-95.5 299,-95.5 299,-76.5 177,-76.5"/>
<text text-anchor="middle" x="238" y="-83.5" font-family="Helvetica,sans-Serif" font-size="10.00">AudioPlayer::PlaySound</text>
</a>
</g>
</g>
<!-- Node1&#45;&gt;Node5 -->
<g id="edge4" class="edge"><title>Node1&#45;&gt;Node5</title>
<path fill="none" stroke="midnightblue" d="M134.308,-99.3682C144.96,-97.9815 156.017,-96.5422 166.757,-95.1441"/>
<polygon fill="midnightblue" stroke="midnightblue" points="167.469,-98.581 176.934,-93.8193 166.565,-91.6395 167.469,-98.581"/>
</g>
<!-- Node16 -->
<g id="node16" class="node"><title>Node16</title>
<g id="a_node16"><a xlink:href="../../d7/dc2/class_audio_player.html#a222380497b8558ff7d16fa71f8680a46" target="_top" xlink:title=" ">
<polygon fill="white" stroke="black" points="170,-38.5 170,-57.5 306,-57.5 306,-38.5 170,-38.5"/>
<text text-anchor="middle" x="238" y="-45.5" font-family="Helvetica,sans-Serif" font-size="10.00">AudioPlayer::StopChannels</text>
</a>
</g>
</g>
<!-- Node1&#45;&gt;Node16 -->
<g id="edge16" class="edge"><title>Node1&#45;&gt;Node16</title>
<path fill="none" stroke="midnightblue" d="M90.0308,-98.3568C110.519,-89.5779 142.007,-76.5653 170,-67 176.611,-64.7411 183.651,-62.5339 190.589,-60.4703"/>
<polygon fill="midnightblue" stroke="midnightblue" points="191.992,-63.7078 200.62,-57.5601 190.041,-56.985 191.992,-63.7078"/>
</g>
<!-- Node17 -->
<g id="node17" class="node"><title>Node17</title>
<g id="a_node17"><a xlink:href="../../d8/d44/_strings_8cpp.html#aebf99e80337d8db0a005aebe8a13fb7f" target="_top" xlink:title=" ">
<polygon fill="white" stroke="black" points="205.5,-0.5 205.5,-19.5 270.5,-19.5 270.5,-0.5 205.5,-0.5"/>
<text text-anchor="middle" x="238" y="-7.5" font-family="Helvetica,sans-Serif" font-size="10.00">StringPrintf</text>
</a>
</g>
</g>
<!-- Node1&#45;&gt;Node17 -->
<g id="edge17" class="edge"><title>Node1&#45;&gt;Node17</title>
<path fill="none" stroke="midnightblue" d="M77.8109,-98.2574C95.0223,-81.6899 132.412,-47.983 170,-29 177.998,-24.9607 186.98,-21.6678 195.707,-19.0276"/>
<polygon fill="midnightblue" stroke="midnightblue" points="196.698,-22.3849 205.384,-16.3191 194.811,-15.6439 196.698,-22.3849"/>
</g>
<!-- Node6 -->
<g id="node6" class="node"><title>Node6</title>
<g id="a_node6"><a xlink:href="../../d4/db9/_open_a_l_sound_provider_8cpp.html#a0d61058bc8900801bc227bc7b47881d7" target="_top" xlink:title=" ">
<polygon fill="white" stroke="black" points="352.5,-168.5 352.5,-187.5 455.5,-187.5 455.5,-168.5 352.5,-168.5"/>
<text text-anchor="middle" x="404" y="-175.5" font-family="Helvetica,sans-Serif" font-size="10.00">CreateAudioSample</text>
</a>
</g>
</g>
<!-- Node5&#45;&gt;Node6 -->
<g id="edge5" class="edge"><title>Node5&#45;&gt;Node6</title>
<path fill="none" stroke="midnightblue" d="M279.204,-95.521C288.251,-98.3372 297.642,-101.814 306,-106 336.084,-121.067 366.556,-145.526 385.116,-161.688"/>
<polygon fill="midnightblue" stroke="midnightblue" points="382.956,-164.451 392.76,-168.467 387.6,-159.213 382.956,-164.451"/>
</g>
<!-- Node8 -->
<g id="node8" class="node"><title>Node8</title>
<g id="a_node8"><a xlink:href="../../d7/dc2/class_audio_player.html#ae30d2f6cbd73b8e316a47b4694fe8960" target="_top" xlink:title=" ">
<polygon fill="white" stroke="black" points="342,-95.5 342,-114.5 466,-114.5 466,-95.5 342,-95.5"/>
<text text-anchor="middle" x="404" y="-102.5" font-family="Helvetica,sans-Serif" font-size="10.00">AudioPlayer::LoadSound</text>
</a>
</g>
</g>
<!-- Node5&#45;&gt;Node8 -->
<g id="edge7" class="edge"><title>Node5&#45;&gt;Node8</title>
<path fill="none" stroke="midnightblue" d="M299.136,-92.967C309.666,-94.187 320.715,-95.467 331.517,-96.7184"/>
<polygon fill="midnightblue" stroke="midnightblue" points="331.436,-100.232 341.772,-97.9065 332.241,-93.2789 331.436,-100.232"/>
</g>
<!-- Node13 -->
<g id="node13" class="node"><title>Node13</title>
<g id="a_node13"><a xlink:href="../../d6/d70/class_log.html#ac0de2621497ca3b2fbf208624c08bcdf" target="_top" xlink:title=" ">
<polygon fill="white" stroke="black" points="538,-54.5 538,-73.5 612,-73.5 612,-54.5 538,-54.5"/>
<text text-anchor="middle" x="575" y="-61.5" font-family="Helvetica,sans-Serif" font-size="10.00">Log::Warning</text>
</a>
</g>
</g>
<!-- Node5&#45;&gt;Node13 -->
<g id="edge15" class="edge"><title>Node5&#45;&gt;Node13</title>
<path fill="none" stroke="midnightblue" d="M299.278,-82.0414C364.852,-77.7351 468.248,-70.9449 527.726,-67.0389"/>
<polygon fill="midnightblue" stroke="midnightblue" points="528.198,-70.5155 537.947,-66.3676 527.739,-63.5306 528.198,-70.5155"/>
</g>
<!-- Node14 -->
<g id="node14" class="node"><title>Node14</title>
<g id="a_node14"><a xlink:href="../../d9/d98/class_open_a_l_sound_provider.html#a25ac61cd13253bb659672a1cc29ef22c" target="_top" xlink:title=" ">
<polygon fill="white" stroke="black" points="347,-8 347,-38 461,-38 461,-8 347,-8"/>
<text text-anchor="start" x="355" y="-26" font-family="Helvetica,sans-Serif" font-size="10.00">OpenALSoundProvider</text>
<text text-anchor="middle" x="404" y="-15" font-family="Helvetica,sans-Serif" font-size="10.00">::SetListenerPosition</text>
</a>
</g>
</g>
<!-- Node5&#45;&gt;Node14 -->
<g id="edge13" class="edge"><title>Node5&#45;&gt;Node14</title>
<path fill="none" stroke="midnightblue" d="M276.528,-76.4251C286.221,-73.6619 296.577,-70.4513 306,-67 325.339,-59.9169 346.21,-50.6687 363.621,-42.4801"/>
<polygon fill="midnightblue" stroke="midnightblue" points="365.38,-45.5188 372.905,-38.0603 362.372,-39.1984 365.38,-45.5188"/>
</g>
<!-- Node7 -->
<g id="node7" class="node"><title>Node7</title>
<g id="a_node7"><a xlink:href="../../da/def/_media_8h.html#ab508e4ee3c70ec5e60273ec99af30a2e" target="_top" xlink:title=" ">
<polygon fill="white" stroke="black" points="502,-206.5 502,-225.5 648,-225.5 648,-206.5 502,-206.5"/>
<text text-anchor="middle" x="575" y="-213.5" font-family="Helvetica,sans-Serif" font-size="10.00">CreateAudioBufferDataSource</text>
</a>
</g>
</g>
<!-- Node6&#45;&gt;Node7 -->
<g id="edge6" class="edge"><title>Node6&#45;&gt;Node7</title>
<path fill="none" stroke="midnightblue" d="M447.646,-187.589C470.148,-192.649 497.948,-198.9 521.738,-204.249"/>
<polygon fill="midnightblue" stroke="midnightblue" points="521.137,-207.701 531.661,-206.48 522.672,-200.871 521.137,-207.701"/>
</g>
<!-- Node9 -->
<g id="node9" class="node"><title>Node9</title>
<g id="a_node9"><a xlink:href="../../da/d6a/_mem_buffer_8cpp.html#a685632d9cd2b61b24a9bfc649d54937e" target="_top" xlink:title=" ">
<polygon fill="white" stroke="black" points="532.5,-168.5 532.5,-187.5 617.5,-187.5 617.5,-168.5 532.5,-168.5"/>
<text text-anchor="middle" x="575" y="-175.5" font-family="Helvetica,sans-Serif" font-size="10.00">AllocMemBuffer</text>
</a>
</g>
</g>
<!-- Node8&#45;&gt;Node9 -->
<g id="edge8" class="edge"><title>Node8&#45;&gt;Node9</title>
<path fill="none" stroke="midnightblue" d="M419.545,-114.625C438.033,-126.494 471.251,-146.612 502,-159 508.445,-161.597 515.358,-163.941 522.258,-166.023"/>
<polygon fill="midnightblue" stroke="midnightblue" points="521.725,-169.511 532.302,-168.887 523.645,-162.779 521.725,-169.511"/>
</g>
<!-- Node10 -->
<g id="node10" class="node"><title>Node10</title>
<g id="a_node10"><a xlink:href="../../d7/dc2/class_audio_player.html#aac82d03b250711ed0ce64fa22dfe3a59" target="_top" xlink:title=" ">
<polygon fill="white" stroke="black" points="514,-130.5 514,-149.5 636,-149.5 636,-130.5 514,-130.5"/>
<text text-anchor="middle" x="575" y="-137.5" font-family="Helvetica,sans-Serif" font-size="10.00">AudioPlayer::FindSound</text>
</a>
</g>
</g>
<!-- Node8&#45;&gt;Node10 -->
<g id="edge9" class="edge"><title>Node8&#45;&gt;Node10</title>
<path fill="none" stroke="midnightblue" d="M451.18,-114.564C471.766,-118.827 496.201,-123.888 517.835,-128.368"/>
<polygon fill="midnightblue" stroke="midnightblue" points="517.374,-131.847 527.876,-130.448 518.793,-124.992 517.374,-131.847"/>
</g>
<!-- Node12 -->
<g id="node12" class="node"><title>Node12</title>
<g id="a_node12"><a xlink:href="../../d9/d3e/namespacezlib.html#ae552beaf4387a81c63a28b01a9cc7ab4" target="_top" xlink:title=" ">
<polygon fill="white" stroke="black" points="529,-92.5 529,-111.5 621,-111.5 621,-92.5 529,-92.5"/>
<text text-anchor="middle" x="575" y="-99.5" font-family="Helvetica,sans-Serif" font-size="10.00">zlib::Uncompress</text>
</a>
</g>
</g>
<!-- Node8&#45;&gt;Node12 -->
<g id="edge11" class="edge"><title>Node8&#45;&gt;Node12</title>
<path fill="none" stroke="midnightblue" d="M466.013,-103.917C483.238,-103.611 501.878,-103.28 518.744,-102.981"/>
<polygon fill="midnightblue" stroke="midnightblue" points="519.052,-106.476 528.989,-102.799 518.928,-99.4772 519.052,-106.476"/>
</g>
<!-- Node8&#45;&gt;Node13 -->
<g id="edge12" class="edge"><title>Node8&#45;&gt;Node13</title>
<path fill="none" stroke="midnightblue" d="M444.197,-95.4907C469.271,-89.4076 501.901,-81.4915 528.172,-75.1179"/>
<polygon fill="midnightblue" stroke="midnightblue" points="529.008,-78.5169 537.901,-72.7578 527.357,-71.7142 529.008,-78.5169"/>
</g>
<!-- Node11 -->
<g id="node11" class="node"><title>Node11</title>
<g id="a_node11"><a xlink:href="../../d8/d44/_strings_8cpp.html#ae591bae1416df2b3638ae859ad4ede6f" target="_top" xlink:title=" ">
<polygon fill="white" stroke="black" points="684,-130.5 684,-149.5 750,-149.5 750,-130.5 684,-130.5"/>
<text text-anchor="middle" x="717" y="-137.5" font-family="Helvetica,sans-Serif" font-size="10.00">MakeLower</text>
</a>
</g>
</g>
<!-- Node10&#45;&gt;Node11 -->
<g id="edge10" class="edge"><title>Node10&#45;&gt;Node11</title>
<path fill="none" stroke="midnightblue" d="M636.185,-140C648.796,-140 661.84,-140 673.636,-140"/>
<polygon fill="midnightblue" stroke="midnightblue" points="673.639,-143.5 683.639,-140 673.639,-136.5 673.639,-143.5"/>
</g>
<!-- Node15 -->
<g id="node15" class="node"><title>Node15</title>
<g id="a_node15"><a xlink:href="../../d1/d20/al_8h.html#acb8f6904370d9946f4ea496e21729415" target="_top" xlink:title=" ">
<polygon fill="white" stroke="black" points="542,-13.5 542,-32.5 608,-32.5 608,-13.5 542,-13.5"/>
<text text-anchor="middle" x="575" y="-20.5" font-family="Helvetica,sans-Serif" font-size="10.00">alListener3f</text>
</a>
</g>
</g>
<!-- Node14&#45;&gt;Node15 -->
<g id="edge14" class="edge"><title>Node14&#45;&gt;Node15</title>
<path fill="none" stroke="midnightblue" d="M461.275,-23C484.214,-23 510.29,-23 531.58,-23"/>
<polygon fill="midnightblue" stroke="midnightblue" points="531.612,-26.5001 541.612,-23 531.612,-19.5001 531.612,-26.5001"/>
</g>
</g>
</svg>
        <g id="navigator" transform="translate(0 0)" fill="#404254">
                <rect fill="#f2f5e9" fill-opacity="0.5" stroke="#606060" stroke-width=".5" x="0" y="0" width="60" height="60"/>
                <use id="zoomplus" xlink:href="#zoomPlus" x="17" y="9" onmousedown="handleZoom(evt,'in')"/>
                <use id="zoomminus" xlink:href="#zoomMin" x="42" y="9" onmousedown="handleZoom(evt,'out')"/>
                <use id="reset" xlink:href="#resetDef" x="30" y="36" onmousedown="handleReset()"/>
                <g id="arrowUp" xlink:href="#dirArrow" transform="translate(30 24)" onmousedown="handlePan(0,-1)">
                  <use xlink:href="#rim" fill="#404040">
                        <set attributeName="fill" to="#808080" begin="arrowUp.mouseover" end="arrowUp.mouseout"/>
                  </use>
                  <path fill="none" stroke="white" stroke-width="1.5" d="M0,-3.0v7 M-2.5,-0.5L0,-3.0L2.5,-0.5"/>
                </g>
                <g id="arrowRight" xlink:href="#dirArrow" transform="rotate(90) translate(36 -43)" onmousedown="handlePan(1,0)">
                  <use xlink:href="#rim" fill="#404040">
                        <set attributeName="fill" to="#808080" begin="arrowRight.mouseover" end="arrowRight.mouseout"/>
                  </use>
                  <path fill="none" stroke="white" stroke-width="1.5" d="M0,-3.0v7 M-2.5,-0.5L0,-3.0L2.5,-0.5"/>
                </g>
                <g id="arrowDown" xlink:href="#dirArrow" transform="rotate(180) translate(-30 -48)" onmousedown="handlePan(0,1)">
                  <use xlink:href="#rim" fill="#404040">
                        <set attributeName="fill" to="#808080" begin="arrowDown.mouseover" end="arrowDown.mouseout"/>
                  </use>
                  <path fill="none" stroke="white" stroke-width="1.5" d="M0,-3.0v7 M-2.5,-0.5L0,-3.0L2.5,-0.5"/>
                </g>
                <g id="arrowLeft" xlink:href="#dirArrow" transform="rotate(270) translate(-36 17)" onmousedown="handlePan(-1,0)">
                  <use xlink:href="#rim" fill="#404040">
                        <set attributeName="fill" to="#808080" begin="arrowLeft.mouseover" end="arrowLeft.mouseout"/>
                  </use>
                  <path fill="none" stroke="white" stroke-width="1.5" d="M0,-3.0v7 M-2.5,-0.5L0,-3.0L2.5,-0.5"/>
                </g>
        </g>
        <svg viewBox="0 0 15 15" width="100%" height="30px" preserveAspectRatio="xMaxYMin meet">
         <g id="arrow_out" transform="scale(0.3 0.3)">
          <a xlink:href="_spellbook_8cpp_a0d7a497d603884e3891eb9c0246ef9f2_cgraph_org.svg" target="_base">
           <rect id="button" ry="5" rx="5" y="6" x="6" height="38" width="38"
                fill="#f2f5e9" fill-opacity="0.5" stroke="#606060" stroke-width="1.0"/>
           <path id="arrow"
             d="M 11.500037,31.436501 C 11.940474,20.09759 22.043105,11.32322 32.158766,21.979434 L 37.068811,17.246167 C 37.068811,17.246167 37.088388,32 37.088388,32 L 22.160133,31.978069 C 22.160133,31.978069 26.997745,27.140456 26.997745,27.140456 C 18.528582,18.264221 13.291696,25.230495 11.500037,31.436501 z"
             style="fill:#404040;"/>
          </a>
         </g>
        </svg>
</svg>
