<?xml version="1.0" encoding="UTF-8" standalone="no"?>
<!DOCTYPE svg PUBLIC "-//W3C//DTD SVG 1.1//EN"
 "http://www.w3.org/Graphics/SVG/1.1/DTD/svg11.dtd">
<!-- Generated by graphviz version 2.38.0 (20140413.2041)
 -->
<!-- Title: OnCloseSpellBookPage Pages: 1 -->
<svg width="281pt" height="88pt"
 viewBox="0.00 0.00 281.00 88.00" xmlns="http://www.w3.org/2000/svg" xmlns:xlink="http://www.w3.org/1999/xlink">
<g id="graph0" class="graph" transform="scale(1 1) rotate(0) translate(4 84)">
<title>OnCloseSpellBookPage</title>
<polygon fill="white" stroke="none" points="-4,4 -4,-84 277,-84 277,4 -4,4"/>
<!-- Node1 -->
<g id="node1" class="node"><title>Node1</title>
<g id="a_node1"><a xlink:title=" ">
<polygon fill="#bfbfbf" stroke="black" points="152,-30 152,-49 273,-49 273,-30 152,-30"/>
<text text-anchor="middle" x="212.5" y="-37" font-family="Helvetica,sans-Serif" font-size="10.00">OnCloseSpellBookPage</text>
</a>
</g>
</g>
<!-- Node2 -->
<g id="node2" class="node"><title>Node2</title>
<g id="a_node2"><a xlink:href="../../d0/d1e/class_g_u_i_window___spellbook.html#afb173be785e24161c809463b41f7ed5a" target="_top" xlink:title=" ">
<polygon fill="white" stroke="black" points="0,-49.5 0,-79.5 116,-79.5 116,-49.5 0,-49.5"/>
<text text-anchor="start" x="8" y="-67.5" font-family="Helvetica,sans-Serif" font-size="10.00">GUIWindow_Spellbook</text>
<text text-anchor="middle" x="58" y="-56.5" font-family="Helvetica,sans-Serif" font-size="10.00">::OpenSpellbookPage</text>
</a>
</g>
</g>
<!-- Node1&#45;&gt;Node2 -->
<g id="edge1" class="edge"><title>Node1&#45;&gt;Node2</title>
<path fill="none" stroke="midnightblue" d="M143.279,-50.6838C134.223,-52.1684 125.014,-53.678 116.171,-55.1277"/>
<polygon fill="midnightblue" stroke="midnightblue" points="144.109,-54.0945 153.411,-49.0227 142.977,-47.1867 144.109,-54.0945"/>
</g>
<!-- Node3 -->
<g id="node3" class="node"><title>Node3</title>
<g id="a_node3"><a xlink:href="../../d0/d1e/class_g_u_i_window___spellbook.html#a67cf5d4bf080ae52f922acfaf9c2ec83" target="_top" xlink:title=" ">
<polygon fill="white" stroke="black" points="0,-0.5 0,-30.5 116,-30.5 116,-0.5 0,-0.5"/>
<text text-anchor="start" x="8" y="-18.5" font-family="Helvetica,sans-Serif" font-size="10.00">GUIWindow_Spellbook</text>
<text text-anchor="middle" x="58" y="-7.5" font-family="Helvetica,sans-Serif" font-size="10.00">::Release</text>
</a>
</g>
</g>
<!-- Node1&#45;&gt;Node3 -->
<g id="edge2" class="edge"><title>Node1&#45;&gt;Node3</title>
<path fill="none" stroke="midnightblue" d="M141.707,-28.5161C133.158,-27.1708 124.501,-25.8083 116.168,-24.497"/>
<polygon fill="midnightblue" stroke="midnightblue" points="141.243,-31.9862 151.666,-30.0834 142.331,-25.0713 141.243,-31.9862"/>
</g>
</g>
</svg>
