<?xml version="1.0" encoding="UTF-8" standalone="no"?>
<!DOCTYPE svg PUBLIC "-//W3C//DTD SVG 1.1//EN"
 "http://www.w3.org/Graphics/SVG/1.1/DTD/svg11.dtd">
<!-- Generated by graphviz version 2.38.0 (20140413.2041)
 -->
<!-- Title: SpriteFrameTable Pages: 1 -->
<svg width="206pt" height="431pt"
 viewBox="0.00 0.00 206.00 431.00" xmlns="http://www.w3.org/2000/svg" xmlns:xlink="http://www.w3.org/1999/xlink">
<g id="graph0" class="graph" transform="scale(1 1) rotate(0) translate(4 427)">
<title>SpriteFrameTable</title>
<polygon fill="white" stroke="none" points="-4,4 -4,-427 202,-427 202,4 -4,4"/>
<!-- Node1 -->
<g id="node1" class="node"><title>Node1</title>
<g id="a_node1"><a xlink:title=" ">
<polygon fill="#bfbfbf" stroke="black" points="77.5,-0.5 77.5,-19.5 170.5,-19.5 170.5,-0.5 77.5,-0.5"/>
<text text-anchor="middle" x="124" y="-7.5" font-family="Helvetica,sans-Serif" font-size="10.00">SpriteFrameTable</text>
</a>
</g>
</g>
<!-- Node2 -->
<g id="node2" class="node"><title>Node2</title>
<g id="a_node2"><a xlink:href="../../dc/df9/class_sprite_frame.html" target="_top" xlink:title=" ">
<polygon fill="white" stroke="black" points="89,-78.5 89,-97.5 159,-97.5 159,-78.5 89,-78.5"/>
<text text-anchor="middle" x="124" y="-85.5" font-family="Helvetica,sans-Serif" font-size="10.00">SpriteFrame</text>
</a>
</g>
</g>
<!-- Node2&#45;&gt;Node1 -->
<g id="edge1" class="edge"><title>Node2&#45;&gt;Node1</title>
<path fill="none" stroke="#9a32cd" stroke-dasharray="5,2" d="M124,-68.2239C124,-52.6974 124,-31.3582 124,-19.6165"/>
<polygon fill="#9a32cd" stroke="#9a32cd" points="120.5,-68.2818 124,-78.2818 127.5,-68.2819 120.5,-68.2818"/>
<text text-anchor="middle" x="161" y="-52" font-family="Helvetica,sans-Serif" font-size="10.00"> pSpriteSFrames</text>
<text text-anchor="middle" x="161" y="-41" font-family="Helvetica,sans-Serif" font-size="10.00">pSpritePFrames</text>
</g>
<!-- Node3 -->
<g id="node3" class="node"><title>Node3</title>
<g id="a_node3"><a xlink:href="../../d7/dbf/class_sprite.html" target="_top" xlink:title=" ">
<polygon fill="white" stroke="black" points="67,-145.5 67,-164.5 109,-164.5 109,-145.5 67,-145.5"/>
<text text-anchor="middle" x="88" y="-152.5" font-family="Helvetica,sans-Serif" font-size="10.00">Sprite</text>
</a>
</g>
</g>
<!-- Node3&#45;&gt;Node2 -->
<g id="edge2" class="edge"><title>Node3&#45;&gt;Node2</title>
<path fill="none" stroke="#9a32cd" stroke-dasharray="5,2" d="M85.324,-134.935C85.2464,-128.616 86.0858,-121.737 89,-116 92.9623,-108.2 100.336,-101.993 107.298,-97.5063"/>
<polygon fill="#9a32cd" stroke="#9a32cd" points="81.8734,-135.667 86.2041,-145.337 88.8485,-135.077 81.8734,-135.667"/>
<text text-anchor="middle" x="114" y="-119" font-family="Helvetica,sans-Serif" font-size="10.00"> hw_sprites</text>
</g>
<!-- Node4 -->
<g id="node4" class="node"><title>Node4</title>
<g id="a_node4"><a xlink:href="../../d5/d3a/struct_l_o_d_sprite.html" target="_top" xlink:title=" ">
<polygon fill="white" stroke="black" points="15,-212.5 15,-231.5 77,-231.5 77,-212.5 15,-212.5"/>
<text text-anchor="middle" x="46" y="-219.5" font-family="Helvetica,sans-Serif" font-size="10.00">LODSprite</text>
</a>
</g>
</g>
<!-- Node4&#45;&gt;Node3 -->
<g id="edge3" class="edge"><title>Node4&#45;&gt;Node3</title>
<path fill="none" stroke="#9a32cd" stroke-dasharray="5,2" d="M43.089,-202.279C42.9404,-195.819 43.7954,-188.765 47,-183 51.4724,-174.955 59.4684,-168.892 67.2189,-164.572"/>
<polygon fill="#9a32cd" stroke="#9a32cd" points="39.607,-202.635 44.0487,-212.254 46.5748,-201.965 39.607,-202.635"/>
<text text-anchor="middle" x="78" y="-186" font-family="Helvetica,sans-Serif" font-size="10.00"> sprite_header</text>
</g>
<!-- Node5 -->
<g id="node5" class="node"><title>Node5</title>
<g id="a_node5"><a xlink:href="../../d3/ddd/struct_l_o_d_sprite_header.html" target="_top" xlink:title=" ">
<polygon fill="white" stroke="black" points="0,-269.5 0,-288.5 92,-288.5 92,-269.5 0,-269.5"/>
<text text-anchor="middle" x="46" y="-276.5" font-family="Helvetica,sans-Serif" font-size="10.00">LODSpriteHeader</text>
</a>
</g>
</g>
<!-- Node5&#45;&gt;Node4 -->
<g id="edge4" class="edge"><title>Node5&#45;&gt;Node4</title>
<path fill="none" stroke="midnightblue" d="M46,-259.117C46,-249.817 46,-239.056 46,-231.715"/>
<polygon fill="midnightblue" stroke="midnightblue" points="42.5001,-259.406 46,-269.406 49.5001,-259.406 42.5001,-259.406"/>
</g>
<!-- Node6 -->
<g id="node6" class="node"><title>Node6</title>
<g id="a_node6"><a xlink:href="../../d2/d7f/class_texture.html" target="_top" xlink:title=" ">
<polygon fill="white" stroke="black" points="106.5,-212.5 106.5,-231.5 155.5,-231.5 155.5,-212.5 106.5,-212.5"/>
<text text-anchor="middle" x="131" y="-219.5" font-family="Helvetica,sans-Serif" font-size="10.00">Texture</text>
</a>
</g>
</g>
<!-- Node6&#45;&gt;Node3 -->
<g id="edge5" class="edge"><title>Node6&#45;&gt;Node3</title>
<path fill="none" stroke="#9a32cd" stroke-dasharray="5,2" d="M121.57,-203.571C117.846,-197.002 113.407,-189.541 109,-183 104.753,-176.696 99.5026,-169.946 95.3144,-164.772"/>
<polygon fill="#9a32cd" stroke="#9a32cd" points="118.523,-205.294 126.43,-212.346 124.647,-201.902 118.523,-205.294"/>
<text text-anchor="middle" x="133" y="-186" font-family="Helvetica,sans-Serif" font-size="10.00"> texture</text>
</g>
<!-- Node7 -->
<g id="node7" class="node"><title>Node7</title>
<g id="a_node7"><a xlink:href="../../de/d73/class_image.html" target="_top" xlink:title=" ">
<polygon fill="white" stroke="black" points="110.5,-269.5 110.5,-288.5 153.5,-288.5 153.5,-269.5 110.5,-269.5"/>
<text text-anchor="middle" x="132" y="-276.5" font-family="Helvetica,sans-Serif" font-size="10.00">Image</text>
</a>
</g>
</g>
<!-- Node7&#45;&gt;Node6 -->
<g id="edge6" class="edge"><title>Node7&#45;&gt;Node6</title>
<path fill="none" stroke="midnightblue" d="M131.657,-259.117C131.488,-249.817 131.292,-239.056 131.158,-231.715"/>
<polygon fill="midnightblue" stroke="midnightblue" points="128.162,-259.472 131.844,-269.406 135.161,-259.344 128.162,-259.472"/>
</g>
<!-- Node8 -->
<g id="node8" class="node"><title>Node8</title>
<g id="a_node8"><a xlink:href="../../d7/d42/class_image_loader.html" target="_top" xlink:title=" ">
<polygon fill="white" stroke="black" points="96,-336.5 96,-355.5 168,-355.5 168,-336.5 96,-336.5"/>
<text text-anchor="middle" x="132" y="-343.5" font-family="Helvetica,sans-Serif" font-size="10.00">ImageLoader</text>
</a>
</g>
</g>
<!-- Node8&#45;&gt;Node7 -->
<g id="edge7" class="edge"><title>Node8&#45;&gt;Node7</title>
<path fill="none" stroke="#9a32cd" stroke-dasharray="5,2" d="M132,-326.037C132,-313.67 132,-298.12 132,-288.627"/>
<polygon fill="#9a32cd" stroke="#9a32cd" points="128.5,-326.234 132,-336.234 135.5,-326.234 128.5,-326.234"/>
<text text-anchor="middle" x="147" y="-310" font-family="Helvetica,sans-Serif" font-size="10.00"> loader</text>
</g>
<!-- Node9 -->
<g id="node9" class="node"><title>Node9</title>
<g id="a_node9"><a xlink:href="../../d6/d70/class_log.html" target="_top" xlink:title=" ">
<polygon fill="white" stroke="black" points="116,-403.5 116,-422.5 148,-422.5 148,-403.5 116,-403.5"/>
<text text-anchor="middle" x="132" y="-410.5" font-family="Helvetica,sans-Serif" font-size="10.00">Log</text>
</a>
</g>
</g>
<!-- Node9&#45;&gt;Node8 -->
<g id="edge8" class="edge"><title>Node9&#45;&gt;Node8</title>
<path fill="none" stroke="#9a32cd" stroke-dasharray="5,2" d="M132,-393.037C132,-380.67 132,-365.12 132,-355.627"/>
<polygon fill="#9a32cd" stroke="#9a32cd" points="128.5,-393.234 132,-403.234 135.5,-393.234 128.5,-393.234"/>
<text text-anchor="middle" x="140" y="-377" font-family="Helvetica,sans-Serif" font-size="10.00"> log</text>
</g>
<!-- Node10 -->
<g id="node10" class="node"><title>Node10</title>
<g id="a_node10"><a xlink:href="../../d6/dc9/structfixed.html" target="_top" xlink:title=" ">
<polygon fill="white" stroke="black" points="142.5,-145.5 142.5,-164.5 179.5,-164.5 179.5,-145.5 142.5,-145.5"/>
<text text-anchor="middle" x="161" y="-152.5" font-family="Helvetica,sans-Serif" font-size="10.00">fixed</text>
</a>
</g>
</g>
<!-- Node10&#45;&gt;Node2 -->
<g id="edge9" class="edge"><title>Node10&#45;&gt;Node2</title>
<path fill="none" stroke="#9a32cd" stroke-dasharray="5,2" d="M151.058,-136.535C143.895,-123.95 134.535,-107.507 128.911,-97.6273"/>
<polygon fill="#9a32cd" stroke="#9a32cd" points="148.021,-138.275 156.01,-145.234 154.105,-134.812 148.021,-138.275"/>
<text text-anchor="middle" x="158.5" y="-119" font-family="Helvetica,sans-Serif" font-size="10.00"> scale</text>
</g>
</g>
</svg>
