<?xml version="1.0" encoding="UTF-8" standalone="no"?>
<!DOCTYPE svg PUBLIC "-//W3C//DTD SVG 1.1//EN"
 "http://www.w3.org/Graphics/SVG/1.1/DTD/svg11.dtd">
<!-- Generated by graphviz version 2.38.0 (20140413.2041)
 -->
<!-- Title: DrawMM7CopyrightWindow Pages: 1 -->
<!--zoomable 287 -->
<svg id="main" version="1.1" xmlns="http://www.w3.org/2000/svg" xmlns:xlink="http://www.w3.org/1999/xlink" xml:space="preserve" onload="init(evt)">
<style type="text/css"><![CDATA[
.edge:hover path { stroke: red; }
.edge:hover polygon { stroke: red; fill: red; }
]]></style>
<script type="text/javascript"><![CDATA[
var edges = document.getElementsByTagName('g');
if (edges && edges.length) {
  for (var i=0;i<edges.length;i++) {
    if (edges[i].id.substr(0,4)=='edge') {
      edges[i].setAttribute('class','edge');
    }
  }
}
]]></script>
        <defs>
                <circle id="rim" cx="0" cy="0" r="7"/>
                <circle id="rim2" cx="0" cy="0" r="3.5"/>
                <g id="zoomPlus">
                        <use xlink:href="#rim" fill="#404040">
                                <set attributeName="fill" to="#808080" begin="zoomplus.mouseover" end="zoomplus.mouseout"/>
                        </use>
                        <path d="M-4,0h8M0,-4v8" fill="none" stroke="white" stroke-width="1.5" pointer-events="none"/>
                </g>
                <g id="zoomMin">
                        <use xlink:href="#rim" fill="#404040">
                                <set attributeName="fill" to="#808080" begin="zoomminus.mouseover" end="zoomminus.mouseout"/>
                        </use>
                        <path d="M-4,0h8" fill="none" stroke="white" stroke-width="1.5" pointer-events="none"/>
                </g>
                <g id="dirArrow">
                        <path fill="none" stroke="white" stroke-width="1.5" d="M0,-3.0v7 M-2.5,-0.5L0,-3.0L2.5,-0.5"/>
                </g>
               <g id="resetDef">
                       <use xlink:href="#rim2" fill="#404040">
                               <set attributeName="fill" to="#808080" begin="reset.mouseover" end="reset.mouseout"/>
                       </use>
               </g>
        </defs>

<script type="text/javascript">
var viewWidth = 971;
var viewHeight = 287;
var sectionId = 'dynsection-0';
</script>
<script xlink:href="../../svgpan.js"/>
<svg id="graph" class="graph">
<g id="viewport">
<title>DrawMM7CopyrightWindow</title>
<polygon fill="white" stroke="none" points="-4,4 -4,-283 967,-283 967,4 -4,4"/>
<!-- Node1 -->
<g id="node1" class="node"><title>Node1</title>
<g id="a_node1"><a xlink:title=" ">
<polygon fill="#bfbfbf" stroke="black" points="0,-133.5 0,-152.5 136,-152.5 136,-133.5 0,-133.5"/>
<text text-anchor="middle" x="68" y="-140.5" font-family="Helvetica,sans-Serif" font-size="10.00">DrawMM7CopyrightWindow</text>
</a>
</g>
</g>
<!-- Node2 -->
<g id="node2" class="node"><title>Node2</title>
<g id="a_node2"><a xlink:href="../../d3/d39/class_g_u_i_font.html#a08b74df638b5c055d9f18f5ce4d8ee11" target="_top" xlink:title=" ">
<polygon fill="white" stroke="black" points="363.5,-114.5 363.5,-133.5 488.5,-133.5 488.5,-114.5 363.5,-114.5"/>
<text text-anchor="middle" x="426" y="-121.5" font-family="Helvetica,sans-Serif" font-size="10.00">GUIFont::CalcTextHeight</text>
</a>
</g>
</g>
<!-- Node1&#45;&gt;Node2 -->
<g id="edge1" class="edge"><title>Node1&#45;&gt;Node2</title>
<path fill="none" stroke="midnightblue" d="M136.379,-139.404C198.247,-136.102 289.652,-131.224 352.953,-127.845"/>
<polygon fill="midnightblue" stroke="midnightblue" points="353.454,-131.324 363.253,-127.295 353.081,-124.333 353.454,-131.324"/>
</g>
<!-- Node5 -->
<g id="node5" class="node"><title>Node5</title>
<g id="a_node5"><a xlink:href="../../d4/d38/class_g_u_i_window.html#ac0c28c954e40c6f2c7feb7022ece8052" target="_top" xlink:title=" ">
<polygon fill="white" stroke="black" points="172,-95.5 172,-114.5 324,-114.5 324,-95.5 172,-95.5"/>
<text text-anchor="middle" x="248" y="-102.5" font-family="Helvetica,sans-Serif" font-size="10.00">GUIWindow::DrawMessageBox</text>
</a>
</g>
</g>
<!-- Node1&#45;&gt;Node5 -->
<g id="edge5" class="edge"><title>Node1&#45;&gt;Node5</title>
<path fill="none" stroke="midnightblue" d="M113.917,-133.411C137.829,-128.306 167.421,-121.989 192.625,-116.608"/>
<polygon fill="midnightblue" stroke="midnightblue" points="193.357,-120.031 202.406,-114.52 191.896,-113.185 193.357,-120.031"/>
</g>
<!-- Node12 -->
<g id="node12" class="node"><title>Node12</title>
<g id="a_node12"><a xlink:href="../../d4/d38/class_g_u_i_window.html#aae805c92b9242bc94cf18c7a702433f7" target="_top" xlink:title=" ">
<polygon fill="white" stroke="black" points="360,-171.5 360,-190.5 492,-190.5 492,-171.5 360,-171.5"/>
<text text-anchor="middle" x="426" y="-178.5" font-family="Helvetica,sans-Serif" font-size="10.00">GUIWindow::DrawTitleText</text>
</a>
</g>
</g>
<!-- Node1&#45;&gt;Node12 -->
<g id="edge25" class="edge"><title>Node1&#45;&gt;Node12</title>
<path fill="none" stroke="midnightblue" d="M136.379,-150.192C197.196,-156.684 286.558,-166.222 349.705,-172.963"/>
<polygon fill="midnightblue" stroke="midnightblue" points="349.683,-176.48 359.998,-174.062 350.426,-169.52 349.683,-176.48"/>
</g>
<!-- Node16 -->
<g id="node16" class="node"><title>Node16</title>
<g id="a_node16"><a xlink:href="../../d3/d39/class_g_u_i_font.html#a439cccf73db5fd93ffc18cbba51d07e0" target="_top" xlink:title=" ">
<polygon fill="white" stroke="black" points="545.5,-259.5 545.5,-278.5 647.5,-278.5 647.5,-259.5 545.5,-259.5"/>
<text text-anchor="middle" x="596.5" y="-266.5" font-family="Helvetica,sans-Serif" font-size="10.00">GUIFont::GetHeight</text>
</a>
</g>
</g>
<!-- Node1&#45;&gt;Node16 -->
<g id="edge26" class="edge"><title>Node1&#45;&gt;Node16</title>
<path fill="none" stroke="midnightblue" d="M96.3336,-152.531C116.972,-159.538 146.073,-169.016 172,-176 300.212,-210.535 452.804,-241.632 535.307,-257.632"/>
<polygon fill="midnightblue" stroke="midnightblue" points="534.775,-261.094 545.258,-259.555 536.103,-254.221 534.775,-261.094"/>
</g>
<!-- Node18 -->
<g id="node18" class="node"><title>Node18</title>
<g id="a_node18"><a xlink:href="../../dd/d88/class_localization.html#a0eb0a17fdf90f6a420eeac65bf62436f" target="_top" xlink:title=" ">
<polygon fill="white" stroke="black" points="190,-57.5 190,-76.5 306,-76.5 306,-57.5 190,-57.5"/>
<text text-anchor="middle" x="248" y="-64.5" font-family="Helvetica,sans-Serif" font-size="10.00">Localization::GetString</text>
</a>
</g>
</g>
<!-- Node1&#45;&gt;Node18 -->
<g id="edge27" class="edge"><title>Node1&#45;&gt;Node18</title>
<path fill="none" stroke="midnightblue" d="M83.4213,-133.444C102.823,-120.963 138.743,-99.1592 172,-86 178.294,-83.5097 185.016,-81.2635 191.753,-79.262"/>
<polygon fill="midnightblue" stroke="midnightblue" points="192.904,-82.5743 201.588,-76.5045 191.015,-75.8342 192.904,-82.5743"/>
</g>
<!-- Node3 -->
<g id="node3" class="node"><title>Node3</title>
<g id="a_node3"><a xlink:href="../../d3/d39/class_g_u_i_font.html#acff82a6ae67e879bd76ddc52aa25fe02" target="_top" xlink:title=" ">
<polygon fill="white" stroke="black" points="528,-133.5 528,-152.5 665,-152.5 665,-133.5 528,-133.5"/>
<text text-anchor="middle" x="596.5" y="-140.5" font-family="Helvetica,sans-Serif" font-size="10.00">GUIFont::FitTextInAWindow</text>
</a>
</g>
</g>
<!-- Node2&#45;&gt;Node3 -->
<g id="edge2" class="edge"><title>Node2&#45;&gt;Node3</title>
<path fill="none" stroke="midnightblue" d="M488.786,-130.967C498.197,-132.028 508.012,-133.135 517.711,-134.229"/>
<polygon fill="midnightblue" stroke="midnightblue" points="517.426,-137.719 527.755,-135.361 518.211,-130.763 517.426,-137.719"/>
</g>
<!-- Node4 -->
<g id="node4" class="node"><title>Node4</title>
<g id="a_node4"><a xlink:href="../../d3/d39/class_g_u_i_font.html#adfbdd225f4c0eedcbf7e82eecd29e404" target="_top" xlink:title=" ">
<polygon fill="white" stroke="black" points="855,-152.5 855,-171.5 963,-171.5 963,-152.5 855,-152.5"/>
<text text-anchor="middle" x="909" y="-159.5" font-family="Helvetica,sans-Serif" font-size="10.00">GUIFont::IsCharValid</text>
</a>
</g>
</g>
<!-- Node2&#45;&gt;Node4 -->
<g id="edge4" class="edge"><title>Node2&#45;&gt;Node4</title>
<path fill="none" stroke="midnightblue" d="M488.726,-121.605C536.821,-120.317 605.238,-119.753 665,-124 733.965,-128.901 750.743,-134.993 819,-146 827.992,-147.45 837.479,-149.065 846.775,-150.695"/>
<polygon fill="midnightblue" stroke="midnightblue" points="846.298,-154.164 856.755,-152.462 847.519,-147.272 846.298,-154.164"/>
</g>
<!-- Node3&#45;&gt;Node4 -->
<g id="edge3" class="edge"><title>Node3&#45;&gt;Node4</title>
<path fill="none" stroke="midnightblue" d="M665.257,-147.146C718.622,-150.412 792.464,-154.93 844.655,-158.124"/>
<polygon fill="midnightblue" stroke="midnightblue" points="844.597,-161.627 854.792,-158.744 845.025,-154.64 844.597,-161.627"/>
</g>
<!-- Node5&#45;&gt;Node2 -->
<g id="edge6" class="edge"><title>Node5&#45;&gt;Node2</title>
<path fill="none" stroke="midnightblue" d="M324.15,-113.113C333.756,-114.15 343.571,-115.209 353.123,-116.241"/>
<polygon fill="midnightblue" stroke="midnightblue" points="353.045,-119.752 363.363,-117.346 353.796,-112.793 353.045,-119.752"/>
</g>
<!-- Node6 -->
<g id="node6" class="node"><title>Node6</title>
<g id="a_node6"><a xlink:href="../../d5/d0b/_g_u_i_window_8h.html#ae63663fb59f9435405c4bbbb6cc18dfe" target="_top" xlink:title=" ">
<polygon fill="white" stroke="black" points="375.5,-66.5 375.5,-85.5 476.5,-85.5 476.5,-66.5 375.5,-66.5"/>
<text text-anchor="middle" x="426" y="-73.5" font-family="Helvetica,sans-Serif" font-size="10.00">DrawPopupWindow</text>
</a>
</g>
</g>
<!-- Node5&#45;&gt;Node6 -->
<g id="edge7" class="edge"><title>Node5&#45;&gt;Node6</title>
<path fill="none" stroke="midnightblue" d="M307.117,-95.4239C325.874,-92.3333 346.686,-88.904 365.539,-85.7976"/>
<polygon fill="midnightblue" stroke="midnightblue" points="366.192,-89.2372 375.49,-84.1579 365.054,-82.3303 366.192,-89.2372"/>
</g>
<!-- Node5&#45;&gt;Node12 -->
<g id="edge16" class="edge"><title>Node5&#45;&gt;Node12</title>
<path fill="none" stroke="midnightblue" d="M271.291,-114.625C302.236,-127.988 358.367,-152.227 393.558,-167.423"/>
<polygon fill="midnightblue" stroke="midnightblue" points="392.322,-170.702 402.89,-171.453 395.097,-164.275 392.322,-170.702"/>
</g>
<!-- Node17 -->
<g id="node17" class="node"><title>Node17</title>
<g id="a_node17"><a xlink:href="../../d7/dc5/class_mouse.html#a8900246ba042b33090b8dc8e377fbb3a" target="_top" xlink:title=" ">
<polygon fill="white" stroke="black" points="369.5,-28.5 369.5,-47.5 482.5,-47.5 482.5,-28.5 369.5,-28.5"/>
<text text-anchor="middle" x="426" y="-35.5" font-family="Helvetica,sans-Serif" font-size="10.00">Mouse::GetCursorPos</text>
</a>
</g>
</g>
<!-- Node5&#45;&gt;Node17 -->
<g id="edge24" class="edge"><title>Node5&#45;&gt;Node17</title>
<path fill="none" stroke="midnightblue" d="M299.303,-95.4495C307.776,-92.9481 316.309,-89.8404 324,-86 342.381,-76.8215 341.788,-66.5104 360,-57 364.27,-54.7704 368.837,-52.7678 373.498,-50.9767"/>
<polygon fill="midnightblue" stroke="midnightblue" points="374.857,-54.2092 383.132,-47.5922 372.537,-47.6049 374.857,-54.2092"/>
</g>
<!-- Node7 -->
<g id="node7" class="node"><title>Node7</title>
<g id="a_node7"><a xlink:href="../../de/d73/class_image.html#a5093fa64598a4d7e0c70d43fe67e35cd" target="_top" xlink:title=" ">
<polygon fill="white" stroke="black" points="550.5,-57.5 550.5,-76.5 642.5,-76.5 642.5,-57.5 550.5,-57.5"/>
<text text-anchor="middle" x="596.5" y="-64.5" font-family="Helvetica,sans-Serif" font-size="10.00">Image::GetHeight</text>
</a>
</g>
</g>
<!-- Node6&#45;&gt;Node7 -->
<g id="edge8" class="edge"><title>Node6&#45;&gt;Node7</title>
<path fill="none" stroke="midnightblue" d="M476.644,-73.3484C496.575,-72.2838 519.634,-71.0522 540.107,-69.9587"/>
<polygon fill="midnightblue" stroke="midnightblue" points="540.435,-73.4462 550.234,-69.4178 540.062,-66.4562 540.435,-73.4462"/>
</g>
<!-- Node11 -->
<g id="node11" class="node"><title>Node11</title>
<g id="a_node11"><a xlink:href="../../de/d73/class_image.html#a9241b1c53141c78273e4060a91634d47" target="_top" xlink:title=" ">
<polygon fill="white" stroke="black" points="551.5,-19.5 551.5,-38.5 641.5,-38.5 641.5,-19.5 551.5,-19.5"/>
<text text-anchor="middle" x="596.5" y="-26.5" font-family="Helvetica,sans-Serif" font-size="10.00">Image::GetWidth</text>
</a>
</g>
</g>
<!-- Node6&#45;&gt;Node11 -->
<g id="edge13" class="edge"><title>Node6&#45;&gt;Node11</title>
<path fill="none" stroke="midnightblue" d="M461.098,-66.4888C487.049,-59.2503 522.981,-49.2277 551.164,-41.3667"/>
<polygon fill="midnightblue" stroke="midnightblue" points="552.472,-44.6357 561.163,-38.5776 550.591,-37.8931 552.472,-44.6357"/>
</g>
<!-- Node8 -->
<g id="node8" class="node"><title>Node8</title>
<g id="a_node8"><a xlink:href="../../d9/d30/_s_d_l__assert_8h.html#afedcea68cf85ee469ab1ea390bbe0abb" target="_top" xlink:title=" ">
<polygon fill="white" stroke="black" points="870.5,-0.5 870.5,-19.5 947.5,-19.5 947.5,-0.5 870.5,-0.5"/>
<text text-anchor="middle" x="909" y="-7.5" font-family="Helvetica,sans-Serif" font-size="10.00">__debugbreak</text>
</a>
</g>
</g>
<!-- Node7&#45;&gt;Node8 -->
<g id="edge9" class="edge"><title>Node7&#45;&gt;Node8</title>
<path fill="none" stroke="midnightblue" d="M642.587,-68.328C688.037,-68.4702 759.748,-65.3978 819,-48 836.359,-42.903 838.443,-36.2931 855,-29 859.688,-26.935 864.678,-24.9192 869.649,-23.0191"/>
<polygon fill="midnightblue" stroke="midnightblue" points="870.936,-26.2748 879.103,-19.5249 868.509,-19.7089 870.936,-26.2748"/>
</g>
<!-- Node9 -->
<g id="node9" class="node"><title>Node9</title>
<g id="a_node9"><a xlink:href="../../de/d73/class_image.html#a9b786ec61110907b38dda728bd281c73" target="_top" xlink:title=" ">
<polygon fill="white" stroke="black" points="702,-19.5 702,-38.5 818,-38.5 818,-19.5 702,-19.5"/>
<text text-anchor="middle" x="760" y="-26.5" font-family="Helvetica,sans-Serif" font-size="10.00">Image::LoadImageData</text>
</a>
</g>
</g>
<!-- Node7&#45;&gt;Node9 -->
<g id="edge10" class="edge"><title>Node7&#45;&gt;Node9</title>
<path fill="none" stroke="midnightblue" d="M638.253,-57.411C659.661,-52.3739 686.086,-46.1562 708.753,-40.8229"/>
<polygon fill="midnightblue" stroke="midnightblue" points="709.607,-44.2175 718.54,-38.5201 708.004,-37.4036 709.607,-44.2175"/>
</g>
<!-- Node9&#45;&gt;Node8 -->
<g id="edge11" class="edge"><title>Node9&#45;&gt;Node8</title>
<path fill="none" stroke="midnightblue" d="M818.255,-21.5997C832.131,-19.8062 846.82,-17.9076 860.207,-16.1773"/>
<polygon fill="midnightblue" stroke="midnightblue" points="860.687,-19.6445 870.156,-14.8914 859.79,-12.7022 860.687,-19.6445"/>
</g>
<!-- Node10 -->
<g id="node10" class="node"><title>Node10</title>
<g id="a_node10"><a xlink:href="../../d7/d42/class_image_loader.html#ad346c7973ae6f1d84a8c1fc655661319" target="_top" xlink:title=" ">
<polygon fill="white" stroke="black" points="859.5,-38.5 859.5,-57.5 958.5,-57.5 958.5,-38.5 859.5,-38.5"/>
<text text-anchor="middle" x="909" y="-45.5" font-family="Helvetica,sans-Serif" font-size="10.00">ImageLoader::Load</text>
</a>
</g>
</g>
<!-- Node9&#45;&gt;Node10 -->
<g id="edge12" class="edge"><title>Node9&#45;&gt;Node10</title>
<path fill="none" stroke="midnightblue" d="M818.255,-36.4003C828.413,-37.7132 839.006,-39.0824 849.205,-40.4007"/>
<polygon fill="midnightblue" stroke="midnightblue" points="848.876,-43.8872 859.243,-41.698 849.774,-36.945 848.876,-43.8872"/>
</g>
<!-- Node11&#45;&gt;Node8 -->
<g id="edge14" class="edge"><title>Node11&#45;&gt;Node8</title>
<path fill="none" stroke="midnightblue" d="M639.56,-19.4887C658.265,-15.7234 680.623,-11.8549 701,-10 755.274,-5.05958 817.885,-5.97234 859.911,-7.53735"/>
<polygon fill="midnightblue" stroke="midnightblue" points="860.002,-11.0437 870.134,-7.94612 860.282,-4.0493 860.002,-11.0437"/>
</g>
<!-- Node11&#45;&gt;Node9 -->
<g id="edge15" class="edge"><title>Node11&#45;&gt;Node9</title>
<path fill="none" stroke="midnightblue" d="M641.631,-29C657.021,-29 674.664,-29 691.514,-29"/>
<polygon fill="midnightblue" stroke="midnightblue" points="691.877,-32.5001 701.876,-29 691.876,-25.5001 691.877,-32.5001"/>
</g>
<!-- Node12&#45;&gt;Node3 -->
<g id="edge22" class="edge"><title>Node12&#45;&gt;Node3</title>
<path fill="none" stroke="midnightblue" d="M469.52,-171.411C491.955,-166.351 519.673,-160.1 543.393,-154.751"/>
<polygon fill="midnightblue" stroke="midnightblue" points="544.301,-158.134 553.286,-152.52 542.761,-151.306 544.301,-158.134"/>
</g>
<!-- Node13 -->
<g id="node13" class="node"><title>Node13</title>
<g id="a_node13"><a xlink:href="../../d3/d39/class_g_u_i_font.html#a9fa3825419fdf34ded3536e27bccbfdf" target="_top" xlink:title=" ">
<polygon fill="white" stroke="black" points="547,-210 547,-240 646,-240 646,-210 547,-210"/>
<text text-anchor="start" x="555" y="-228" font-family="Helvetica,sans-Serif" font-size="10.00">GUIFont::AlignText</text>
<text text-anchor="middle" x="596.5" y="-217" font-family="Helvetica,sans-Serif" font-size="10.00">_Center</text>
</a>
</g>
</g>
<!-- Node12&#45;&gt;Node13 -->
<g id="edge17" class="edge"><title>Node12&#45;&gt;Node13</title>
<path fill="none" stroke="midnightblue" d="M463.562,-190.547C485,-196.145 512.58,-203.347 536.976,-209.718"/>
<polygon fill="midnightblue" stroke="midnightblue" points="536.295,-213.157 546.855,-212.297 538.063,-206.384 536.295,-213.157"/>
</g>
<!-- Node15 -->
<g id="node15" class="node"><title>Node15</title>
<g id="a_node15"><a xlink:href="../../d3/d39/class_g_u_i_font.html#af8449e36ee49ae96e21f4406b398a010" target="_top" xlink:title=" ">
<polygon fill="white" stroke="black" points="701.5,-171.5 701.5,-190.5 818.5,-190.5 818.5,-171.5 701.5,-171.5"/>
<text text-anchor="middle" x="760" y="-178.5" font-family="Helvetica,sans-Serif" font-size="10.00">GUIFont::DrawTextLine</text>
</a>
</g>
</g>
<!-- Node12&#45;&gt;Node15 -->
<g id="edge20" class="edge"><title>Node12&#45;&gt;Node15</title>
<path fill="none" stroke="midnightblue" d="M492.196,-181C549.649,-181 633.027,-181 691.235,-181"/>
<polygon fill="midnightblue" stroke="midnightblue" points="691.437,-184.5 701.437,-181 691.437,-177.5 691.437,-184.5"/>
</g>
<!-- Node12&#45;&gt;Node16 -->
<g id="edge23" class="edge"><title>Node12&#45;&gt;Node16</title>
<path fill="none" stroke="midnightblue" d="M438.365,-190.621C456.307,-205.364 492.788,-233.558 528,-250 532.964,-252.318 538.268,-254.408 543.64,-256.279"/>
<polygon fill="midnightblue" stroke="midnightblue" points="542.732,-259.663 553.324,-259.411 544.886,-253.003 542.732,-259.663"/>
</g>
<!-- Node14 -->
<g id="node14" class="node"><title>Node14</title>
<g id="a_node14"><a xlink:href="../../d3/d39/class_g_u_i_font.html#abf5dc44bc1b328f80d5c7033279a4f8d" target="_top" xlink:title=" ">
<polygon fill="white" stroke="black" points="701,-212.5 701,-231.5 819,-231.5 819,-212.5 701,-212.5"/>
<text text-anchor="middle" x="760" y="-219.5" font-family="Helvetica,sans-Serif" font-size="10.00">GUIFont::GetLineWidth</text>
</a>
</g>
</g>
<!-- Node13&#45;&gt;Node14 -->
<g id="edge18" class="edge"><title>Node13&#45;&gt;Node14</title>
<path fill="none" stroke="midnightblue" d="M646.394,-224.092C660.348,-223.833 675.815,-223.545 690.703,-223.269"/>
<polygon fill="midnightblue" stroke="midnightblue" points="690.959,-226.765 700.892,-223.079 690.828,-219.766 690.959,-226.765"/>
</g>
<!-- Node14&#45;&gt;Node4 -->
<g id="edge19" class="edge"><title>Node14&#45;&gt;Node4</title>
<path fill="none" stroke="midnightblue" d="M786.785,-212.478C796.87,-208.687 808.511,-204.226 819,-200 838.28,-192.231 859.711,-183.097 876.711,-175.73"/>
<polygon fill="midnightblue" stroke="midnightblue" points="878.385,-178.819 886.159,-171.621 875.593,-172.4 878.385,-178.819"/>
</g>
<!-- Node15&#45;&gt;Node4 -->
<g id="edge21" class="edge"><title>Node15&#45;&gt;Node4</title>
<path fill="none" stroke="midnightblue" d="M818.676,-173.545C827.233,-172.439 836.089,-171.295 844.752,-170.175"/>
<polygon fill="midnightblue" stroke="midnightblue" points="845.334,-173.629 854.803,-168.876 844.437,-166.687 845.334,-173.629"/>
</g>
</g>
</svg>
        <g id="navigator" transform="translate(0 0)" fill="#404254">
                <rect fill="#f2f5e9" fill-opacity="0.5" stroke="#606060" stroke-width=".5" x="0" y="0" width="60" height="60"/>
                <use id="zoomplus" xlink:href="#zoomPlus" x="17" y="9" onmousedown="handleZoom(evt,'in')"/>
                <use id="zoomminus" xlink:href="#zoomMin" x="42" y="9" onmousedown="handleZoom(evt,'out')"/>
                <use id="reset" xlink:href="#resetDef" x="30" y="36" onmousedown="handleReset()"/>
                <g id="arrowUp" xlink:href="#dirArrow" transform="translate(30 24)" onmousedown="handlePan(0,-1)">
                  <use xlink:href="#rim" fill="#404040">
                        <set attributeName="fill" to="#808080" begin="arrowUp.mouseover" end="arrowUp.mouseout"/>
                  </use>
                  <path fill="none" stroke="white" stroke-width="1.5" d="M0,-3.0v7 M-2.5,-0.5L0,-3.0L2.5,-0.5"/>
                </g>
                <g id="arrowRight" xlink:href="#dirArrow" transform="rotate(90) translate(36 -43)" onmousedown="handlePan(1,0)">
                  <use xlink:href="#rim" fill="#404040">
                        <set attributeName="fill" to="#808080" begin="arrowRight.mouseover" end="arrowRight.mouseout"/>
                  </use>
                  <path fill="none" stroke="white" stroke-width="1.5" d="M0,-3.0v7 M-2.5,-0.5L0,-3.0L2.5,-0.5"/>
                </g>
                <g id="arrowDown" xlink:href="#dirArrow" transform="rotate(180) translate(-30 -48)" onmousedown="handlePan(0,1)">
                  <use xlink:href="#rim" fill="#404040">
                        <set attributeName="fill" to="#808080" begin="arrowDown.mouseover" end="arrowDown.mouseout"/>
                  </use>
                  <path fill="none" stroke="white" stroke-width="1.5" d="M0,-3.0v7 M-2.5,-0.5L0,-3.0L2.5,-0.5"/>
                </g>
                <g id="arrowLeft" xlink:href="#dirArrow" transform="rotate(270) translate(-36 17)" onmousedown="handlePan(-1,0)">
                  <use xlink:href="#rim" fill="#404040">
                        <set attributeName="fill" to="#808080" begin="arrowLeft.mouseover" end="arrowLeft.mouseout"/>
                  </use>
                  <path fill="none" stroke="white" stroke-width="1.5" d="M0,-3.0v7 M-2.5,-0.5L0,-3.0L2.5,-0.5"/>
                </g>
        </g>
        <svg viewBox="0 0 15 15" width="100%" height="30px" preserveAspectRatio="xMaxYMin meet">
         <g id="arrow_out" transform="scale(0.3 0.3)">
          <a xlink:href="_u_i_main_menu_8cpp_a900f40e5e05f1c73c3f24ee99cfa6ce0_cgraph_org.svg" target="_base">
           <rect id="button" ry="5" rx="5" y="6" x="6" height="38" width="38"
                fill="#f2f5e9" fill-opacity="0.5" stroke="#606060" stroke-width="1.0"/>
           <path id="arrow"
             d="M 11.500037,31.436501 C 11.940474,20.09759 22.043105,11.32322 32.158766,21.979434 L 37.068811,17.246167 C 37.068811,17.246167 37.088388,32 37.088388,32 L 22.160133,31.978069 C 22.160133,31.978069 26.997745,27.140456 26.997745,27.140456 C 18.528582,18.264221 13.291696,25.230495 11.500037,31.436501 z"
             style="fill:#404040;"/>
          </a>
         </g>
        </svg>
</svg>
