<?xml version="1.0" encoding="UTF-8" standalone="no"?>
<!DOCTYPE svg PUBLIC "-//W3C//DTD SVG 1.1//EN"
 "http://www.w3.org/Graphics/SVG/1.1/DTD/svg11.dtd">
<!-- Generated by graphviz version 2.38.0 (20140413.2041)
 -->
<!-- Title: Mouse::GetClickPos Pages: 1 -->
<svg width="1880pt" height="459pt"
 viewBox="0.00 0.00 1880.00 458.69" xmlns="http://www.w3.org/2000/svg" xmlns:xlink="http://www.w3.org/1999/xlink">
<g id="graph0" class="graph" transform="scale(1 1) rotate(0) translate(4 454.689)">
<title>Mouse::GetClickPos</title>
<polygon fill="white" stroke="none" points="-4,4 -4,-454.689 1876,-454.689 1876,4 -4,4"/>
<!-- Node1 -->
<g id="node1" class="node"><title>Node1</title>
<g id="a_node1"><a xlink:title=" ">
<polygon fill="#bfbfbf" stroke="black" points="1765,-282.465 1765,-301.465 1872,-301.465 1872,-282.465 1765,-282.465"/>
<text text-anchor="middle" x="1818.5" y="-289.465" font-family="Helvetica,sans-Serif" font-size="10.00">Mouse::GetClickPos</text>
</a>
</g>
</g>
<!-- Node2 -->
<g id="node2" class="node"><title>Node2</title>
<g id="a_node2"><a xlink:href="../../d6/ded/_u_i_popup_8cpp.html#a6f92c406d1384a8e1cc3e30e7d16181b" target="_top" xlink:title=" ">
<polygon fill="white" stroke="black" points="1591.5,-377.965 1591.5,-407.965 1704.5,-407.965 1704.5,-377.965 1591.5,-377.965"/>
<text text-anchor="start" x="1599.5" y="-395.965" font-family="Helvetica,sans-Serif" font-size="10.00">CharacterUI_SkillsTab</text>
<text text-anchor="middle" x="1648" y="-384.965" font-family="Helvetica,sans-Serif" font-size="10.00">_ShowHint</text>
</a>
</g>
</g>
<!-- Node1&#45;&gt;Node2 -->
<g id="edge1" class="edge"><title>Node1&#45;&gt;Node2</title>
<path fill="none" stroke="midnightblue" d="M1801.67,-309.158C1785.07,-326.267 1757.46,-352.184 1729,-367.965 1721.49,-372.128 1713.19,-375.7 1704.87,-378.732"/>
<polygon fill="midnightblue" stroke="midnightblue" points="1804.55,-311.212 1808.9,-301.55 1799.47,-306.392 1804.55,-311.212"/>
</g>
<!-- Node20 -->
<g id="node20" class="node"><title>Node20</title>
<g id="a_node20"><a xlink:href="../../da/db4/_u_i_game_8cpp.html#ae2fc1f61cfc71a50cbac5536a6230b4b" target="_top" xlink:title=" ">
<polygon fill="white" stroke="black" points="1575,-339.465 1575,-358.465 1721,-358.465 1721,-339.465 1575,-339.465"/>
<text text-anchor="middle" x="1648" y="-346.465" font-family="Helvetica,sans-Serif" font-size="10.00">GameUI_GetMinimapHintText</text>
</a>
</g>
</g>
<!-- Node1&#45;&gt;Node20 -->
<g id="edge25" class="edge"><title>Node1&#45;&gt;Node20</title>
<path fill="none" stroke="midnightblue" d="M1788.45,-305.944C1771.41,-313.76 1749.3,-323.25 1729,-329.965 1718.16,-333.551 1706.28,-336.751 1695.07,-339.456"/>
<polygon fill="midnightblue" stroke="midnightblue" points="1790.26,-308.963 1797.85,-301.568 1787.3,-302.617 1790.26,-308.963"/>
</g>
<!-- Node21 -->
<g id="node21" class="node"><title>Node21</title>
<g id="a_node21"><a xlink:href="../../d5/d09/_u_i_game_8h.html#a19b0f805a3fa3ae0a2fbde27e8df406a" target="_top" xlink:title=" ">
<polygon fill="white" stroke="black" points="788.5,-383.965 788.5,-413.965 930.5,-413.965 930.5,-383.965 788.5,-383.965"/>
<text text-anchor="start" x="796.5" y="-401.965" font-family="Helvetica,sans-Serif" font-size="10.00">GameUI_WritePointedObject</text>
<text text-anchor="middle" x="859.5" y="-390.965" font-family="Helvetica,sans-Serif" font-size="10.00">StatusString</text>
</a>
</g>
</g>
<!-- Node1&#45;&gt;Node21 -->
<g id="edge27" class="edge"><title>Node1&#45;&gt;Node21</title>
<path fill="none" stroke="midnightblue" d="M1810.27,-311.032C1798.28,-339.713 1771.29,-393.132 1729,-416.965 1620.69,-477.995 1574.32,-436.965 1450,-436.965 1450,-436.965 1450,-436.965 1248,-436.965 1122.8,-436.965 1091.32,-431.859 967,-416.965 955.177,-415.549 942.667,-413.727 930.538,-411.789"/>
<polygon fill="midnightblue" stroke="midnightblue" points="1813.55,-312.27 1814.02,-301.685 1807.05,-309.668 1813.55,-312.27"/>
</g>
<!-- Node22 -->
<g id="node22" class="node"><title>Node22</title>
<g id="a_node22"><a xlink:href="../../d6/ded/_u_i_popup_8cpp.html#a5e07aedb53720976b171f006eecac70a" target="_top" xlink:title=" ">
<polygon fill="white" stroke="black" points="1567,-301.465 1567,-320.465 1729,-320.465 1729,-301.465 1567,-301.465"/>
<text text-anchor="middle" x="1648" y="-308.465" font-family="Helvetica,sans-Serif" font-size="10.00">Inventory_ItemPopupAndAlchemy</text>
</a>
</g>
</g>
<!-- Node1&#45;&gt;Node22 -->
<g id="edge30" class="edge"><title>Node1&#45;&gt;Node22</title>
<path fill="none" stroke="midnightblue" d="M1754.66,-299.051C1746.33,-299.99 1737.7,-300.963 1729.13,-301.93"/>
<polygon fill="midnightblue" stroke="midnightblue" points="1755.1,-302.523 1764.65,-297.925 1754.32,-295.567 1755.1,-302.523"/>
</g>
<!-- Node23 -->
<g id="node23" class="node"><title>Node23</title>
<g id="a_node23"><a xlink:href="../../db/d0a/struct_chest.html#a2c1784c3f2b90957cde7323661f73118" target="_top" xlink:title=" ">
<polygon fill="white" stroke="black" points="1387,-285.465 1387,-304.465 1511,-304.465 1511,-285.465 1387,-285.465"/>
<text text-anchor="middle" x="1449" y="-292.465" font-family="Helvetica,sans-Serif" font-size="10.00">Chest::OnChestLeftClick</text>
</a>
</g>
</g>
<!-- Node1&#45;&gt;Node23 -->
<g id="edge32" class="edge"><title>Node1&#45;&gt;Node23</title>
<path fill="none" stroke="midnightblue" d="M1754.58,-291.519C1703.91,-291.267 1630.87,-291.146 1567,-291.965 1548.82,-292.198 1529.05,-292.635 1511.02,-293.104"/>
<polygon fill="midnightblue" stroke="midnightblue" points="1754.7,-295.019 1764.72,-291.572 1754.74,-288.019 1754.7,-295.019"/>
</g>
<!-- Node24 -->
<g id="node24" class="node"><title>Node24</title>
<g id="a_node24"><a xlink:href="../../d3/db1/struct_player.html#ab816cb6218e284b05514fa90d8202b6d" target="_top" xlink:title=" ">
<polygon fill="white" stroke="black" points="1578.5,-225.465 1578.5,-244.465 1717.5,-244.465 1717.5,-225.465 1578.5,-225.465"/>
<text text-anchor="middle" x="1648" y="-232.465" font-family="Helvetica,sans-Serif" font-size="10.00">Player::OnInventoryLeftClick</text>
</a>
</g>
</g>
<!-- Node1&#45;&gt;Node24 -->
<g id="edge34" class="edge"><title>Node1&#45;&gt;Node24</title>
<path fill="none" stroke="midnightblue" d="M1783.55,-278.711C1767.15,-272.465 1747.15,-265.064 1729,-258.965 1713.88,-253.884 1696.98,-248.739 1682.63,-244.522"/>
<polygon fill="midnightblue" stroke="midnightblue" points="1782.65,-282.114 1793.24,-282.429 1785.15,-275.579 1782.65,-282.114"/>
</g>
<!-- Node25 -->
<g id="node25" class="node"><title>Node25</title>
<g id="a_node25"><a xlink:href="../../d7/dc5/class_mouse.html#ae90d9b5b37b0f4612f6225982e1da13e" target="_top" xlink:title=" ">
<polygon fill="white" stroke="black" points="1575,-144.465 1575,-163.465 1721,-163.465 1721,-144.465 1575,-144.465"/>
<text text-anchor="middle" x="1648" y="-151.465" font-family="Helvetica,sans-Serif" font-size="10.00">Mouse::UI_OnMouseLeftClick</text>
</a>
</g>
</g>
<!-- Node1&#45;&gt;Node25 -->
<g id="edge35" class="edge"><title>Node1&#45;&gt;Node25</title>
<path fill="none" stroke="midnightblue" d="M1807.97,-273.452C1794.02,-248.167 1765.67,-203.108 1729,-177.965 1719.79,-171.651 1708.89,-166.964 1698.13,-163.496"/>
<polygon fill="midnightblue" stroke="midnightblue" points="1804.95,-275.218 1812.75,-282.384 1811.12,-271.915 1804.95,-275.218"/>
</g>
<!-- Node28 -->
<g id="node28" class="node"><title>Node28</title>
<g id="a_node28"><a xlink:href="../../d2/de3/_mouse_8h.html#ab0bb8576dc34234ad0b40210f8d0b39d" target="_top" xlink:title=" ">
<polygon fill="white" stroke="black" points="1599.5,-187.465 1599.5,-206.465 1696.5,-206.465 1696.5,-187.465 1599.5,-187.465"/>
<text text-anchor="middle" x="1648" y="-194.465" font-family="Helvetica,sans-Serif" font-size="10.00">UI_OnVkKeyDown</text>
</a>
</g>
</g>
<!-- Node1&#45;&gt;Node28 -->
<g id="edge38" class="edge"><title>Node1&#45;&gt;Node28</title>
<path fill="none" stroke="midnightblue" d="M1802.16,-274.634C1785.76,-257.198 1758.15,-230.824 1729,-215.965 1719.08,-210.909 1707.78,-207.17 1696.86,-204.415"/>
<polygon fill="midnightblue" stroke="midnightblue" points="1799.93,-277.381 1809.26,-282.387 1805.09,-272.651 1799.93,-277.381"/>
</g>
<!-- Node3 -->
<g id="node3" class="node"><title>Node3</title>
<g id="a_node3"><a xlink:href="../../d6/ded/_u_i_popup_8cpp.html#a4b9d033e0116029f628ef0c4a9a7d306" target="_top" xlink:title=" ">
<polygon fill="white" stroke="black" points="1390.5,-339.465 1390.5,-358.465 1507.5,-358.465 1507.5,-339.465 1390.5,-339.465"/>
<text text-anchor="middle" x="1449" y="-346.465" font-family="Helvetica,sans-Serif" font-size="10.00">UI_OnMouseRightClick</text>
</a>
</g>
</g>
<!-- Node2&#45;&gt;Node3 -->
<g id="edge2" class="edge"><title>Node2&#45;&gt;Node3</title>
<path fill="none" stroke="midnightblue" d="M1581.22,-378.273C1552.04,-371.756 1518.55,-364.275 1492.7,-358.503"/>
<polygon fill="midnightblue" stroke="midnightblue" points="1580.82,-381.769 1591.34,-380.533 1582.34,-374.937 1580.82,-381.769"/>
</g>
<!-- Node4 -->
<g id="node4" class="node"><title>Node4</title>
<g id="a_node4"><a xlink:href="../../d5/d0b/_g_u_i_window_8h.html#a9cafb995f3f6b03139380e5fb4fee184" target="_top" xlink:title=" ">
<polygon fill="white" stroke="black" points="1194.5,-200.465 1194.5,-219.465 1303.5,-219.465 1303.5,-200.465 1194.5,-200.465"/>
<text text-anchor="middle" x="1249" y="-207.465" font-family="Helvetica,sans-Serif" font-size="10.00">GUI_UpdateWindows</text>
</a>
</g>
</g>
<!-- Node3&#45;&gt;Node4 -->
<g id="edge3" class="edge"><title>Node3&#45;&gt;Node4</title>
<path fill="none" stroke="midnightblue" d="M1410.45,-335.655C1396.32,-329.907 1380.44,-322.526 1367,-313.965 1322.08,-285.343 1277.36,-239.586 1258.87,-219.709"/>
<polygon fill="midnightblue" stroke="midnightblue" points="1409.32,-338.968 1419.9,-339.367 1411.88,-332.453 1409.32,-338.968"/>
</g>
<!-- Node18 -->
<g id="node18" class="node"><title>Node18</title>
<g id="a_node18"><a xlink:href="../../dc/d12/class_application_1_1_game_window_handler.html#ac207ffe80141c2bd50e962414d07c0c2" target="_top" xlink:title=" ">
<polygon fill="white" stroke="black" points="1167,-377.965 1167,-407.965 1331,-407.965 1331,-377.965 1167,-377.965"/>
<text text-anchor="start" x="1175" y="-395.965" font-family="Helvetica,sans-Serif" font-size="10.00">Application::GameWindowHandler</text>
<text text-anchor="middle" x="1249" y="-384.965" font-family="Helvetica,sans-Serif" font-size="10.00">::OnMouseRightClick</text>
</a>
</g>
</g>
<!-- Node3&#45;&gt;Node18 -->
<g id="edge23" class="edge"><title>Node3&#45;&gt;Node18</title>
<path fill="none" stroke="midnightblue" d="M1395.16,-360.707C1371.41,-365.986 1343.09,-372.279 1317.79,-377.9"/>
<polygon fill="midnightblue" stroke="midnightblue" points="1396.03,-364.098 1405.04,-358.512 1394.52,-357.265 1396.03,-364.098"/>
</g>
<!-- Node5 -->
<g id="node5" class="node"><title>Node5</title>
<g id="a_node5"><a xlink:href="../../dd/de7/_save_load_8h.html#a5560a432d5ca59965633a942bb26666f" target="_top" xlink:title=" ">
<polygon fill="white" stroke="black" points="1012,-216.465 1012,-235.465 1086,-235.465 1086,-216.465 1012,-216.465"/>
<text text-anchor="middle" x="1049" y="-223.465" font-family="Helvetica,sans-Serif" font-size="10.00">DoSavegame</text>
</a>
</g>
</g>
<!-- Node4&#45;&gt;Node5 -->
<g id="edge4" class="edge"><title>Node4&#45;&gt;Node5</title>
<path fill="none" stroke="midnightblue" d="M1184.11,-215.128C1151.66,-217.75 1113.43,-220.84 1086.1,-223.048"/>
<polygon fill="midnightblue" stroke="midnightblue" points="1184.73,-218.589 1194.42,-214.295 1184.17,-211.612 1184.73,-218.589"/>
</g>
<!-- Node7 -->
<g id="node7" class="node"><title>Node7</title>
<g id="a_node7"><a xlink:href="../../df/dac/class_application_1_1_menu.html#aaf253396760ddad4b41b2db8901e97ee" target="_top" xlink:title=" ">
<polygon fill="white" stroke="black" points="642.5,-251.965 642.5,-281.965 743.5,-281.965 743.5,-251.965 642.5,-251.965"/>
<text text-anchor="start" x="650.5" y="-269.965" font-family="Helvetica,sans-Serif" font-size="10.00">Application::Menu::</text>
<text text-anchor="middle" x="693" y="-258.965" font-family="Helvetica,sans-Serif" font-size="10.00">MenuLoop</text>
</a>
</g>
</g>
<!-- Node4&#45;&gt;Node7 -->
<g id="edge19" class="edge"><title>Node4&#45;&gt;Node7</title>
<path fill="none" stroke="midnightblue" d="M1212.76,-222.925C1189.81,-230.76 1159.03,-240.139 1131,-244.965 992.129,-268.873 825.062,-269.684 743.576,-268.318"/>
<polygon fill="midnightblue" stroke="midnightblue" points="1214.11,-226.162 1222.4,-219.568 1211.81,-219.551 1214.11,-226.162"/>
</g>
<!-- Node9 -->
<g id="node9" class="node"><title>Node9</title>
<g id="a_node9"><a xlink:href="../../d4/d06/class_application_1_1_game.html#aaa0ff18388b32b4e6198835a35e000d3" target="_top" xlink:title=" ">
<polygon fill="white" stroke="black" points="319,-317.965 319,-347.965 422,-347.965 422,-317.965 319,-317.965"/>
<text text-anchor="start" x="327" y="-335.965" font-family="Helvetica,sans-Serif" font-size="10.00">Application::Game::</text>
<text text-anchor="middle" x="370.5" y="-324.965" font-family="Helvetica,sans-Serif" font-size="10.00">GameLoop</text>
</a>
</g>
</g>
<!-- Node4&#45;&gt;Node9 -->
<g id="edge14" class="edge"><title>Node4&#45;&gt;Node9</title>
<path fill="none" stroke="midnightblue" d="M1224.05,-224.859C1201.05,-238.472 1164.89,-258.089 1131,-268.965 1015.16,-306.143 982.163,-310.965 860.5,-310.965 860.5,-310.965 860.5,-310.965 692,-310.965 596.488,-310.965 485.341,-320.81 422.217,-327.328"/>
<polygon fill="midnightblue" stroke="midnightblue" points="1226.01,-227.768 1232.77,-219.613 1222.4,-221.77 1226.01,-227.768"/>
</g>
<!-- Node12 -->
<g id="node12" class="node"><title>Node12</title>
<g id="a_node12"><a xlink:href="../../d6/d83/struct_engine.html#ac098ab29cbcd7352879d0101aaf4b827" target="_top" xlink:title=" ">
<polygon fill="white" stroke="black" points="1012,-99.465 1012,-118.465 1086,-118.465 1086,-99.465 1012,-99.465"/>
<text text-anchor="middle" x="1049" y="-106.465" font-family="Helvetica,sans-Serif" font-size="10.00">Engine::Draw</text>
</a>
</g>
</g>
<!-- Node4&#45;&gt;Node12 -->
<g id="edge11" class="edge"><title>Node4&#45;&gt;Node12</title>
<path fill="none" stroke="midnightblue" d="M1211.77,-196.535C1197.15,-190.231 1180.57,-181.901 1167,-171.965 1147.97,-158.029 1151.03,-145.43 1131,-132.965 1117.43,-124.518 1100.73,-118.913 1086.03,-115.261"/>
<polygon fill="midnightblue" stroke="midnightblue" points="1210.46,-199.782 1221.04,-200.381 1213.15,-193.316 1210.46,-199.782"/>
</g>
<!-- Node13 -->
<g id="node13" class="node"><title>Node13</title>
<g id="a_node13"><a xlink:href="../../d8/df3/class_g_u_i_credits.html#a552d14f116789f5ff5d7d58b4fd20951" target="_top" xlink:title=" ">
<polygon fill="white" stroke="black" points="461,-175.465 461,-194.465 598,-194.465 598,-175.465 461,-175.465"/>
<text text-anchor="middle" x="529.5" y="-182.465" font-family="Helvetica,sans-Serif" font-size="10.00">GUICredits::ExecuteCredits</text>
</a>
</g>
</g>
<!-- Node4&#45;&gt;Node13 -->
<g id="edge12" class="edge"><title>Node4&#45;&gt;Node13</title>
<path fill="none" stroke="midnightblue" d="M1184.19,-207.742C1049.35,-203.044 736.494,-192.143 598.255,-187.326"/>
<polygon fill="midnightblue" stroke="midnightblue" points="1184.25,-211.246 1194.36,-208.096 1184.49,-204.25 1184.25,-211.246"/>
</g>
<!-- Node14 -->
<g id="node14" class="node"><title>Node14</title>
<g id="a_node14"><a xlink:href="../../d1/d86/class_g_u_i_window___main_menu.html#ad12c43bc3078a3dbdab21a148ba71b64" target="_top" xlink:title=" ">
<polygon fill="white" stroke="black" points="634,-25.965 634,-55.965 752,-55.965 752,-25.965 634,-25.965"/>
<text text-anchor="start" x="642" y="-43.965" font-family="Helvetica,sans-Serif" font-size="10.00">GUIWindow_MainMenu</text>
<text text-anchor="middle" x="693" y="-32.965" font-family="Helvetica,sans-Serif" font-size="10.00">::Loop</text>
</a>
</g>
</g>
<!-- Node4&#45;&gt;Node14 -->
<g id="edge15" class="edge"><title>Node4&#45;&gt;Node14</title>
<path fill="none" stroke="midnightblue" d="M1202.66,-196.515C1189.66,-190.758 1176.45,-182.793 1167,-171.965 1131.78,-131.622 1173.57,-89.4624 1131,-56.965 1016.8,30.2154 832.623,-2.75777 744.344,-25.8798"/>
<polygon fill="midnightblue" stroke="midnightblue" points="1201.46,-199.804 1212.04,-200.326 1204.1,-193.319 1201.46,-199.804"/>
</g>
<!-- Node15 -->
<g id="node15" class="node"><title>Node15</title>
<g id="a_node15"><a xlink:href="../../d2/d13/_u_i_save_load_8h.html#aaed2836e89ed0ad7f832e51d42551aed" target="_top" xlink:title=" ">
<polygon fill="white" stroke="black" points="316,-137.465 316,-156.465 425,-156.465 425,-137.465 316,-137.465"/>
<text text-anchor="middle" x="370.5" y="-144.465" font-family="Helvetica,sans-Serif" font-size="10.00">MainMenuLoad_Loop</text>
</a>
</g>
</g>
<!-- Node4&#45;&gt;Node15 -->
<g id="edge17" class="edge"><title>Node4&#45;&gt;Node15</title>
<path fill="none" stroke="midnightblue" d="M1202.99,-197.804C1131.15,-179.494 985.878,-146.965 860.5,-146.965 860.5,-146.965 860.5,-146.965 692,-146.965 598.104,-146.965 488.733,-146.965 425.089,-146.965"/>
<polygon fill="midnightblue" stroke="midnightblue" points="1202.49,-201.289 1213.05,-200.397 1204.24,-194.511 1202.49,-201.289"/>
</g>
<!-- Node16 -->
<g id="node16" class="node"><title>Node16</title>
<g id="a_node16"><a xlink:href="../../de/da8/_u_i_party_creation_8cpp.html#a3989bc11e4d285e802baa8b00e9663ad" target="_top" xlink:title=" ">
<polygon fill="white" stroke="black" points="788,-80.465 788,-99.465 931,-99.465 931,-80.465 788,-80.465"/>
<text text-anchor="middle" x="859.5" y="-87.465" font-family="Helvetica,sans-Serif" font-size="10.00">PartyCreationUI_LoopInternal</text>
</a>
</g>
</g>
<!-- Node4&#45;&gt;Node16 -->
<g id="edge20" class="edge"><title>Node4&#45;&gt;Node16</title>
<path fill="none" stroke="midnightblue" d="M1204.73,-196.454C1191.33,-190.612 1177.39,-182.613 1167,-171.965 1139.21,-143.472 1164.32,-111.729 1131,-89.965 1056.1,-41.0459 942.883,-64.9322 889.852,-80.3577"/>
<polygon fill="midnightblue" stroke="midnightblue" points="1203.74,-199.83 1214.32,-200.334 1206.37,-193.34 1203.74,-199.83"/>
</g>
<!-- Node6 -->
<g id="node6" class="node"><title>Node6</title>
<g id="a_node6"><a xlink:href="../../df/dac/class_application_1_1_menu.html#aac9ec557a30f1ba7bf6746aa62f70764" target="_top" xlink:title=" ">
<polygon fill="white" stroke="black" points="809,-213.965 809,-243.965 910,-243.965 910,-213.965 809,-213.965"/>
<text text-anchor="start" x="817" y="-231.965" font-family="Helvetica,sans-Serif" font-size="10.00">Application::Menu::</text>
<text text-anchor="middle" x="859.5" y="-220.965" font-family="Helvetica,sans-Serif" font-size="10.00">EventLoop</text>
</a>
</g>
</g>
<!-- Node5&#45;&gt;Node6 -->
<g id="edge5" class="edge"><title>Node5&#45;&gt;Node6</title>
<path fill="none" stroke="midnightblue" d="M1001.58,-226.708C973.75,-227.153 938.374,-227.719 910.009,-228.173"/>
<polygon fill="midnightblue" stroke="midnightblue" points="1001.91,-230.203 1011.85,-226.543 1001.79,-223.204 1001.91,-230.203"/>
</g>
<!-- Node6&#45;&gt;Node7 -->
<g id="edge6" class="edge"><title>Node6&#45;&gt;Node7</title>
<path fill="none" stroke="midnightblue" d="M798.823,-242.751C780.709,-246.935 761.011,-251.485 743.633,-255.5"/>
<polygon fill="midnightblue" stroke="midnightblue" points="799.743,-246.13 808.698,-240.469 798.167,-239.31 799.743,-246.13"/>
</g>
<!-- Node8 -->
<g id="node8" class="node"><title>Node8</title>
<g id="a_node8"><a xlink:href="../../d4/d06/class_application_1_1_game.html#a3f65e3f0ef1a9114fb3dea275e52442e" target="_top" xlink:title=" ">
<polygon fill="white" stroke="black" points="478,-339.965 478,-369.965 581,-369.965 581,-339.965 478,-339.965"/>
<text text-anchor="start" x="486" y="-357.965" font-family="Helvetica,sans-Serif" font-size="10.00">Application::Game::</text>
<text text-anchor="middle" x="529.5" y="-346.965" font-family="Helvetica,sans-Serif" font-size="10.00">EventLoop</text>
</a>
</g>
</g>
<!-- Node7&#45;&gt;Node8 -->
<g id="edge7" class="edge"><title>Node7&#45;&gt;Node8</title>
<path fill="none" stroke="midnightblue" d="M655.087,-287.078C625.596,-303.148 584.912,-325.316 558.17,-339.888"/>
<polygon fill="midnightblue" stroke="midnightblue" points="657.131,-289.951 664.237,-282.093 653.781,-283.804 657.131,-289.951"/>
</g>
<!-- Node8&#45;&gt;Node9 -->
<g id="edge8" class="edge"><title>Node8&#45;&gt;Node9</title>
<path fill="none" stroke="midnightblue" d="M467.721,-346.448C452.679,-344.34 436.72,-342.104 422.214,-340.071"/>
<polygon fill="midnightblue" stroke="midnightblue" points="467.571,-349.961 477.96,-347.883 468.542,-343.029 467.571,-349.961"/>
</g>
<!-- Node10 -->
<g id="node10" class="node"><title>Node10</title>
<g id="a_node10"><a xlink:href="../../d4/d06/class_application_1_1_game.html#a013ffd59e8fdf1c0a396da1dbe1681ca" target="_top" xlink:title=" ">
<polygon fill="white" stroke="black" points="156,-137.465 156,-156.465 280,-156.465 280,-137.465 156,-137.465"/>
<text text-anchor="middle" x="218" y="-144.465" font-family="Helvetica,sans-Serif" font-size="10.00">Application::Game::Loop</text>
</a>
</g>
</g>
<!-- Node9&#45;&gt;Node10 -->
<g id="edge9" class="edge"><title>Node9&#45;&gt;Node10</title>
<path fill="none" stroke="midnightblue" d="M350.855,-309.922C317.719,-268.97 249.889,-185.14 226.855,-156.673"/>
<polygon fill="midnightblue" stroke="midnightblue" points="348.173,-312.172 357.184,-317.744 353.615,-307.768 348.173,-312.172"/>
</g>
<!-- Node11 -->
<g id="node11" class="node"><title>Node11</title>
<g id="a_node11"><a xlink:href="../../d4/d06/class_application_1_1_game.html#a96341ca5b54d90adc3ecb3bf0bcd2312" target="_top" xlink:title=" ">
<polygon fill="white" stroke="black" points="0,-87.465 0,-106.465 120,-106.465 120,-87.465 0,-87.465"/>
<text text-anchor="middle" x="60" y="-94.465" font-family="Helvetica,sans-Serif" font-size="10.00">Application::Game::Run</text>
</a>
</g>
</g>
<!-- Node10&#45;&gt;Node11 -->
<g id="edge10" class="edge"><title>Node10&#45;&gt;Node11</title>
<path fill="none" stroke="midnightblue" d="M177.766,-134.39C150.803,-125.748 115.552,-114.45 90.8643,-106.537"/>
<polygon fill="midnightblue" stroke="midnightblue" points="176.699,-137.723 187.29,-137.443 178.836,-131.057 176.699,-137.723"/>
</g>
<!-- Node13&#45;&gt;Node10 -->
<g id="edge13" class="edge"><title>Node13&#45;&gt;Node10</title>
<path fill="none" stroke="midnightblue" d="M450.787,-179.97C410.458,-176.884 360.454,-172.289 316,-165.965 298.501,-163.476 279.381,-159.914 262.777,-156.545"/>
<polygon fill="midnightblue" stroke="midnightblue" points="450.589,-183.464 460.822,-180.722 451.112,-176.484 450.589,-183.464"/>
</g>
<!-- Node14&#45;&gt;Node11 -->
<g id="edge16" class="edge"><title>Node14&#45;&gt;Node11</title>
<path fill="none" stroke="midnightblue" d="M623.594,-47.0359C499.033,-58.0904 237.274,-81.3211 120.009,-91.7281"/>
<polygon fill="midnightblue" stroke="midnightblue" points="624.117,-50.5034 633.768,-46.133 623.498,-43.5308 624.117,-50.5034"/>
</g>
<!-- Node15&#45;&gt;Node10 -->
<g id="edge18" class="edge"><title>Node15&#45;&gt;Node10</title>
<path fill="none" stroke="midnightblue" d="M305.492,-146.965C297.111,-146.965 288.54,-146.965 280.207,-146.965"/>
<polygon fill="midnightblue" stroke="midnightblue" points="305.591,-150.465 315.591,-146.965 305.591,-143.465 305.591,-150.465"/>
</g>
<!-- Node17 -->
<g id="node17" class="node"><title>Node17</title>
<g id="a_node17"><a xlink:href="../../d6/d6a/_u_i_party_creation_8h.html#ae6fe5aec2826f251f3950e95fd588d79" target="_top" xlink:title=" ">
<polygon fill="white" stroke="black" points="637.5,-91.465 637.5,-110.465 748.5,-110.465 748.5,-91.465 637.5,-91.465"/>
<text text-anchor="middle" x="693" y="-98.465" font-family="Helvetica,sans-Serif" font-size="10.00">PartyCreationUI_Loop</text>
</a>
</g>
</g>
<!-- Node16&#45;&gt;Node17 -->
<g id="edge21" class="edge"><title>Node16&#45;&gt;Node17</title>
<path fill="none" stroke="midnightblue" d="M777.556,-95.3777C767.712,-96.036 757.842,-96.6959 748.512,-97.3198"/>
<polygon fill="midnightblue" stroke="midnightblue" points="778.038,-98.8533 787.783,-94.6938 777.571,-91.8689 778.038,-98.8533"/>
</g>
<!-- Node17&#45;&gt;Node10 -->
<g id="edge22" class="edge"><title>Node17&#45;&gt;Node10</title>
<path fill="none" stroke="midnightblue" d="M627.054,-103.227C551.909,-106.399 424.581,-113.487 316,-127.965 298.14,-130.346 278.612,-133.971 261.79,-137.418"/>
<polygon fill="midnightblue" stroke="midnightblue" points="627.456,-106.713 637.304,-102.805 627.168,-99.7191 627.456,-106.713"/>
</g>
<!-- Node19 -->
<g id="node19" class="node"><title>Node19</title>
<g id="a_node19"><a xlink:href="../../dc/d12/class_application_1_1_game_window_handler.html#a6bfa1a3236b3cfa93d8ac526f8bdf05e" target="_top" xlink:title=" ">
<polygon fill="white" stroke="black" points="967,-377.965 967,-407.965 1131,-407.965 1131,-377.965 967,-377.965"/>
<text text-anchor="start" x="975" y="-395.965" font-family="Helvetica,sans-Serif" font-size="10.00">Application::GameWindowHandler</text>
<text text-anchor="middle" x="1049" y="-384.965" font-family="Helvetica,sans-Serif" font-size="10.00">::OnMouseRightDoubleClick</text>
</a>
</g>
</g>
<!-- Node18&#45;&gt;Node19 -->
<g id="edge24" class="edge"><title>Node18&#45;&gt;Node19</title>
<path fill="none" stroke="midnightblue" d="M1156.64,-392.965C1148.18,-392.965 1139.65,-392.965 1131.3,-392.965"/>
<polygon fill="midnightblue" stroke="midnightblue" points="1156.89,-396.465 1166.89,-392.965 1156.89,-389.465 1156.89,-396.465"/>
</g>
<!-- Node20&#45;&gt;Node3 -->
<g id="edge26" class="edge"><title>Node20&#45;&gt;Node3</title>
<path fill="none" stroke="midnightblue" d="M1564.56,-348.965C1545.46,-348.965 1525.53,-348.965 1507.74,-348.965"/>
<polygon fill="midnightblue" stroke="midnightblue" points="1564.76,-352.465 1574.76,-348.965 1564.76,-345.465 1564.76,-352.465"/>
</g>
<!-- Node21&#45;&gt;Node7 -->
<g id="edge29" class="edge"><title>Node21&#45;&gt;Node7</title>
<path fill="none" stroke="midnightblue" d="M831.661,-377.429C798.268,-350.633 742.098,-305.56 712.903,-282.133"/>
<polygon fill="midnightblue" stroke="midnightblue" points="829.64,-380.294 839.63,-383.823 834.021,-374.835 829.64,-380.294"/>
</g>
<!-- Node21&#45;&gt;Node9 -->
<g id="edge28" class="edge"><title>Node21&#45;&gt;Node9</title>
<path fill="none" stroke="midnightblue" d="M778.001,-404.731C696.592,-408.297 567.869,-407.683 461,-378.965 436.873,-372.482 411.774,-358.888 394.317,-348.151"/>
<polygon fill="midnightblue" stroke="midnightblue" points="778.357,-408.218 788.182,-404.252 778.028,-401.226 778.357,-408.218"/>
</g>
<!-- Node22&#45;&gt;Node3 -->
<g id="edge31" class="edge"><title>Node22&#45;&gt;Node3</title>
<path fill="none" stroke="midnightblue" d="M1587.44,-322.454C1559.33,-327.876 1526.18,-334.271 1499.48,-339.421"/>
<polygon fill="midnightblue" stroke="midnightblue" points="1588.39,-325.836 1597.54,-320.505 1587.06,-318.962 1588.39,-325.836"/>
</g>
<!-- Node23&#45;&gt;Node8 -->
<g id="edge33" class="edge"><title>Node23&#45;&gt;Node8</title>
<path fill="none" stroke="midnightblue" d="M1395.61,-306.662C1319.8,-322.541 1174.87,-348.965 1050,-348.965 1050,-348.965 1050,-348.965 858.5,-348.965 760.254,-348.965 645.484,-351.689 581.066,-353.466"/>
<polygon fill="midnightblue" stroke="midnightblue" points="1396.79,-309.991 1405.84,-304.495 1395.34,-303.143 1396.79,-309.991"/>
</g>
<!-- Node26 -->
<g id="node26" class="node"><title>Node26</title>
<g id="a_node26"><a xlink:href="../../dc/d12/class_application_1_1_game_window_handler.html#af9a37c1601da3c213099e219685bdcd8" target="_top" xlink:title=" ">
<polygon fill="white" stroke="black" points="1367,-132.965 1367,-162.965 1531,-162.965 1531,-132.965 1367,-132.965"/>
<text text-anchor="start" x="1375" y="-150.965" font-family="Helvetica,sans-Serif" font-size="10.00">Application::GameWindowHandler</text>
<text text-anchor="middle" x="1449" y="-139.965" font-family="Helvetica,sans-Serif" font-size="10.00">::OnMouseLeftClick</text>
</a>
</g>
</g>
<!-- Node25&#45;&gt;Node26 -->
<g id="edge36" class="edge"><title>Node25&#45;&gt;Node26</title>
<path fill="none" stroke="midnightblue" d="M1564.69,-151.458C1553.62,-151.121 1542.27,-150.775 1531.21,-150.439"/>
<polygon fill="midnightblue" stroke="midnightblue" points="1564.66,-154.959 1574.76,-151.765 1564.87,-147.962 1564.66,-154.959"/>
</g>
<!-- Node27 -->
<g id="node27" class="node"><title>Node27</title>
<g id="a_node27"><a xlink:href="../../dc/d12/class_application_1_1_game_window_handler.html#a2df0d1231e06d8ed14b7927e0ad21637" target="_top" xlink:title=" ">
<polygon fill="white" stroke="black" points="1167,-132.965 1167,-162.965 1331,-162.965 1331,-132.965 1167,-132.965"/>
<text text-anchor="start" x="1175" y="-150.965" font-family="Helvetica,sans-Serif" font-size="10.00">Application::GameWindowHandler</text>
<text text-anchor="middle" x="1249" y="-139.965" font-family="Helvetica,sans-Serif" font-size="10.00">::OnMouseLeftDoubleClick</text>
</a>
</g>
</g>
<!-- Node26&#45;&gt;Node27 -->
<g id="edge37" class="edge"><title>Node26&#45;&gt;Node27</title>
<path fill="none" stroke="midnightblue" d="M1356.64,-147.965C1348.18,-147.965 1339.65,-147.965 1331.3,-147.965"/>
<polygon fill="midnightblue" stroke="midnightblue" points="1356.89,-151.465 1366.89,-147.965 1356.89,-144.465 1356.89,-151.465"/>
</g>
<!-- Node28&#45;&gt;Node4 -->
<g id="edge39" class="edge"><title>Node28&#45;&gt;Node4</title>
<path fill="none" stroke="midnightblue" d="M1600.5,-208.849C1579.43,-213.644 1554.12,-218.598 1531,-220.965 1452.2,-229.032 1360.41,-222.455 1303.75,-216.556"/>
<polygon fill="midnightblue" stroke="midnightblue" points="1601.53,-212.202 1610.47,-206.519 1599.93,-205.386 1601.53,-212.202"/>
</g>
<!-- Node28&#45;&gt;Node26 -->
<g id="edge40" class="edge"><title>Node28&#45;&gt;Node26</title>
<path fill="none" stroke="midnightblue" d="M1598.7,-184.951C1572.08,-178.33 1538.79,-170.049 1510.45,-163.002"/>
<polygon fill="midnightblue" stroke="midnightblue" points="1598,-188.384 1608.55,-187.401 1599.69,-181.591 1598,-188.384"/>
</g>
<!-- Node29 -->
<g id="node29" class="node"><title>Node29</title>
<g id="a_node29"><a xlink:href="../../dc/d12/class_application_1_1_game_window_handler.html#a97739625de16bed6a72a3abd974d0692" target="_top" xlink:title=" ">
<polygon fill="white" stroke="black" points="1367,-181.965 1367,-211.965 1531,-211.965 1531,-181.965 1367,-181.965"/>
<text text-anchor="start" x="1375" y="-199.965" font-family="Helvetica,sans-Serif" font-size="10.00">Application::GameWindowHandler</text>
<text text-anchor="middle" x="1449" y="-188.965" font-family="Helvetica,sans-Serif" font-size="10.00">::OnVkDown</text>
</a>
</g>
</g>
<!-- Node28&#45;&gt;Node29 -->
<g id="edge41" class="edge"><title>Node28&#45;&gt;Node29</title>
<path fill="none" stroke="midnightblue" d="M1589.17,-196.965C1570.99,-196.965 1550.56,-196.965 1531.07,-196.965"/>
<polygon fill="midnightblue" stroke="midnightblue" points="1589.31,-200.465 1599.31,-196.965 1589.31,-193.465 1589.31,-200.465"/>
</g>
</g>
</svg>
