<?xml version="1.0" encoding="UTF-8" standalone="no"?>
<!DOCTYPE svg PUBLIC "-//W3C//DTD SVG 1.1//EN"
 "http://www.w3.org/Graphics/SVG/1.1/DTD/svg11.dtd">
<!-- Generated by graphviz version 2.38.0 (20140413.2041)
 -->
<!-- Title: Mouse::SetMouseClick Pages: 1 -->
<svg width="526pt" height="137pt"
 viewBox="0.00 0.00 526.00 137.00" xmlns="http://www.w3.org/2000/svg" xmlns:xlink="http://www.w3.org/1999/xlink">
<g id="graph0" class="graph" transform="scale(1 1) rotate(0) translate(4 133)">
<title>Mouse::SetMouseClick</title>
<polygon fill="white" stroke="none" points="-4,4 -4,-133 522,-133 522,4 -4,4"/>
<!-- Node1 -->
<g id="node1" class="node"><title>Node1</title>
<g id="a_node1"><a xlink:title=" ">
<polygon fill="#bfbfbf" stroke="black" points="400,-55 400,-74 518,-74 518,-55 400,-55"/>
<text text-anchor="middle" x="459" y="-62" font-family="Helvetica,sans-Serif" font-size="10.00">Mouse::SetMouseClick</text>
</a>
</g>
</g>
<!-- Node2 -->
<g id="node2" class="node"><title>Node2</title>
<g id="a_node2"><a xlink:href="../../dc/d12/class_application_1_1_game_window_handler.html#af9a37c1601da3c213099e219685bdcd8" target="_top" xlink:title=" ">
<polygon fill="white" stroke="black" points="200,-98.5 200,-128.5 364,-128.5 364,-98.5 200,-98.5"/>
<text text-anchor="start" x="208" y="-116.5" font-family="Helvetica,sans-Serif" font-size="10.00">Application::GameWindowHandler</text>
<text text-anchor="middle" x="282" y="-105.5" font-family="Helvetica,sans-Serif" font-size="10.00">::OnMouseLeftClick</text>
</a>
</g>
</g>
<!-- Node1&#45;&gt;Node2 -->
<g id="edge1" class="edge"><title>Node1&#45;&gt;Node2</title>
<path fill="none" stroke="midnightblue" d="M414.152,-76.7776C390.665,-83.3537 361.538,-91.5092 336.703,-98.463"/>
<polygon fill="midnightblue" stroke="midnightblue" points="415.157,-80.1308 423.843,-74.064 413.269,-73.39 415.157,-80.1308"/>
</g>
<!-- Node4 -->
<g id="node4" class="node"><title>Node4</title>
<g id="a_node4"><a xlink:href="../../dc/d12/class_application_1_1_game_window_handler.html#a81e31bb38a711bbfc2c369f925291a4a" target="_top" xlink:title=" ">
<polygon fill="white" stroke="black" points="200,-49.5 200,-79.5 364,-79.5 364,-49.5 200,-49.5"/>
<text text-anchor="start" x="208" y="-67.5" font-family="Helvetica,sans-Serif" font-size="10.00">Application::GameWindowHandler</text>
<text text-anchor="middle" x="282" y="-56.5" font-family="Helvetica,sans-Serif" font-size="10.00">::OnMouseMove</text>
</a>
</g>
</g>
<!-- Node1&#45;&gt;Node4 -->
<g id="edge3" class="edge"><title>Node1&#45;&gt;Node4</title>
<path fill="none" stroke="midnightblue" d="M389.645,-64.5C381.261,-64.5 372.631,-64.5 364.082,-64.5"/>
<polygon fill="midnightblue" stroke="midnightblue" points="389.728,-68.0001 399.728,-64.5 389.727,-61.0001 389.728,-68.0001"/>
</g>
<!-- Node5 -->
<g id="node5" class="node"><title>Node5</title>
<g id="a_node5"><a xlink:href="../../dc/d12/class_application_1_1_game_window_handler.html#ac207ffe80141c2bd50e962414d07c0c2" target="_top" xlink:title=" ">
<polygon fill="white" stroke="black" points="200,-0.5 200,-30.5 364,-30.5 364,-0.5 200,-0.5"/>
<text text-anchor="start" x="208" y="-18.5" font-family="Helvetica,sans-Serif" font-size="10.00">Application::GameWindowHandler</text>
<text text-anchor="middle" x="282" y="-7.5" font-family="Helvetica,sans-Serif" font-size="10.00">::OnMouseRightClick</text>
</a>
</g>
</g>
<!-- Node1&#45;&gt;Node5 -->
<g id="edge4" class="edge"><title>Node1&#45;&gt;Node5</title>
<path fill="none" stroke="midnightblue" d="M414.152,-52.2224C390.665,-45.6463 361.538,-37.4908 336.703,-30.537"/>
<polygon fill="midnightblue" stroke="midnightblue" points="413.269,-55.61 423.843,-54.936 415.157,-48.8692 413.269,-55.61"/>
</g>
<!-- Node3 -->
<g id="node3" class="node"><title>Node3</title>
<g id="a_node3"><a xlink:href="../../dc/d12/class_application_1_1_game_window_handler.html#a2df0d1231e06d8ed14b7927e0ad21637" target="_top" xlink:title=" ">
<polygon fill="white" stroke="black" points="0,-98.5 0,-128.5 164,-128.5 164,-98.5 0,-98.5"/>
<text text-anchor="start" x="8" y="-116.5" font-family="Helvetica,sans-Serif" font-size="10.00">Application::GameWindowHandler</text>
<text text-anchor="middle" x="82" y="-105.5" font-family="Helvetica,sans-Serif" font-size="10.00">::OnMouseLeftDoubleClick</text>
</a>
</g>
</g>
<!-- Node2&#45;&gt;Node3 -->
<g id="edge2" class="edge"><title>Node2&#45;&gt;Node3</title>
<path fill="none" stroke="midnightblue" d="M189.637,-113.5C181.183,-113.5 172.654,-113.5 164.3,-113.5"/>
<polygon fill="midnightblue" stroke="midnightblue" points="189.895,-117 199.895,-113.5 189.894,-110 189.895,-117"/>
</g>
<!-- Node6 -->
<g id="node6" class="node"><title>Node6</title>
<g id="a_node6"><a xlink:href="../../dc/d12/class_application_1_1_game_window_handler.html#a6bfa1a3236b3cfa93d8ac526f8bdf05e" target="_top" xlink:title=" ">
<polygon fill="white" stroke="black" points="0,-0.5 0,-30.5 164,-30.5 164,-0.5 0,-0.5"/>
<text text-anchor="start" x="8" y="-18.5" font-family="Helvetica,sans-Serif" font-size="10.00">Application::GameWindowHandler</text>
<text text-anchor="middle" x="82" y="-7.5" font-family="Helvetica,sans-Serif" font-size="10.00">::OnMouseRightDoubleClick</text>
</a>
</g>
</g>
<!-- Node5&#45;&gt;Node6 -->
<g id="edge5" class="edge"><title>Node5&#45;&gt;Node6</title>
<path fill="none" stroke="midnightblue" d="M189.637,-15.5C181.183,-15.5 172.654,-15.5 164.3,-15.5"/>
<polygon fill="midnightblue" stroke="midnightblue" points="189.895,-19.0001 199.895,-15.5 189.894,-12.0001 189.895,-19.0001"/>
</g>
</g>
</svg>
