<?xml version="1.0" encoding="UTF-8" standalone="no"?>
<!DOCTYPE svg PUBLIC "-//W3C//DTD SVG 1.1//EN"
 "http://www.w3.org/Graphics/SVG/1.1/DTD/svg11.dtd">
<!-- Generated by graphviz version 2.38.0 (20140413.2041)
 -->
<!-- Title: ImageLoader::ImageLoader Pages: 1 -->
<svg width="531pt" height="66pt"
 viewBox="0.00 0.00 531.00 66.00" xmlns="http://www.w3.org/2000/svg" xmlns:xlink="http://www.w3.org/1999/xlink">
<g id="graph0" class="graph" transform="scale(1 1) rotate(0) translate(4 62)">
<title>ImageLoader::ImageLoader</title>
<polygon fill="white" stroke="none" points="-4,4 -4,-62 527,-62 527,4 -4,4"/>
<!-- Node1 -->
<g id="node1" class="node"><title>Node1</title>
<g id="a_node1"><a xlink:title=" ">
<polygon fill="#bfbfbf" stroke="black" points="0,-19.5 0,-38.5 134,-38.5 134,-19.5 0,-19.5"/>
<text text-anchor="middle" x="67" y="-26.5" font-family="Helvetica,sans-Serif" font-size="10.00">ImageLoader::ImageLoader</text>
</a>
</g>
</g>
<!-- Node2 -->
<g id="node2" class="node"><title>Node2</title>
<g id="a_node2"><a xlink:href="../../d1/d12/class_engine___1_1_ioc_container.html#a095a16a5af8d2d49ae6445b823332256" target="_top" xlink:title=" ">
<polygon fill="white" stroke="black" points="170,-14 170,-44 282,-44 282,-14 170,-14"/>
<text text-anchor="start" x="178" y="-32" font-family="Helvetica,sans-Serif" font-size="10.00">Engine_::IocContainer</text>
<text text-anchor="middle" x="226" y="-21" font-family="Helvetica,sans-Serif" font-size="10.00">::ResolveLogger</text>
</a>
</g>
</g>
<!-- Node1&#45;&gt;Node2 -->
<g id="edge1" class="edge"><title>Node1&#45;&gt;Node2</title>
<path fill="none" stroke="midnightblue" d="M134.127,-29C142.587,-29 151.244,-29 159.691,-29"/>
<polygon fill="midnightblue" stroke="midnightblue" points="159.863,-32.5001 169.863,-29 159.863,-25.5001 159.863,-32.5001"/>
</g>
<!-- Node3 -->
<g id="node3" class="node"><title>Node3</title>
<g id="a_node3"><a xlink:href="../../d6/d70/class_log.html#a9962588a107d3b4aa927cf12284e0fc7" target="_top" xlink:title=" ">
<polygon fill="white" stroke="black" points="328.5,-38.5 328.5,-57.5 381.5,-57.5 381.5,-38.5 328.5,-38.5"/>
<text text-anchor="middle" x="355" y="-45.5" font-family="Helvetica,sans-Serif" font-size="10.00">Log::Info</text>
</a>
</g>
</g>
<!-- Node2&#45;&gt;Node3 -->
<g id="edge2" class="edge"><title>Node2&#45;&gt;Node3</title>
<path fill="none" stroke="midnightblue" d="M282.335,-37.2784C294.492,-39.0972 307.055,-40.9767 318.202,-42.6443"/>
<polygon fill="midnightblue" stroke="midnightblue" points="317.987,-46.1512 328.395,-44.1694 319.023,-39.2282 317.987,-46.1512"/>
</g>
<!-- Node4 -->
<g id="node4" class="node"><title>Node4</title>
<g id="a_node4"><a xlink:href="../../d6/d70/class_log.html#ad9612fc4cd0f7350a0ae2a0a0fcad55e" target="_top" xlink:title=" ">
<polygon fill="white" stroke="black" points="318,-0.5 318,-19.5 392,-19.5 392,-0.5 318,-0.5"/>
<text text-anchor="middle" x="355" y="-7.5" font-family="Helvetica,sans-Serif" font-size="10.00">Log::Initialize</text>
</a>
</g>
</g>
<!-- Node2&#45;&gt;Node4 -->
<g id="edge3" class="edge"><title>Node2&#45;&gt;Node4</title>
<path fill="none" stroke="midnightblue" d="M282.335,-20.7216C290.888,-19.4419 299.643,-18.1321 307.964,-16.8872"/>
<polygon fill="midnightblue" stroke="midnightblue" points="308.484,-20.3485 317.856,-15.4073 307.449,-13.4255 308.484,-20.3485"/>
</g>
<!-- Node5 -->
<g id="node5" class="node"><title>Node5</title>
<g id="a_node5"><a xlink:href="../../d4/ddd/_api_8h.html#a5d3a103186dfe38a891a15131aa4a0de" target="_top" xlink:title=" ">
<polygon fill="white" stroke="black" points="428,-0.5 428,-19.5 523,-19.5 523,-0.5 428,-0.5"/>
<text text-anchor="middle" x="475.5" y="-7.5" font-family="Helvetica,sans-Serif" font-size="10.00">OS_OpenConsole</text>
</a>
</g>
</g>
<!-- Node4&#45;&gt;Node5 -->
<g id="edge4" class="edge"><title>Node4&#45;&gt;Node5</title>
<path fill="none" stroke="midnightblue" d="M392.198,-10C400.221,-10 408.912,-10 417.538,-10"/>
<polygon fill="midnightblue" stroke="midnightblue" points="417.591,-13.5001 427.591,-10 417.591,-6.5001 417.591,-13.5001"/>
</g>
</g>
</svg>
