<?xml version="1.0" encoding="UTF-8" standalone="no"?>
<!DOCTYPE svg PUBLIC "-//W3C//DTD SVG 1.1//EN"
 "http://www.w3.org/Graphics/SVG/1.1/DTD/svg11.dtd">
<!-- Generated by graphviz version 2.38.0 (20140413.2041)
 -->
<!-- Title: TextureFrame Pages: 1 -->
<svg width="85pt" height="286pt"
 viewBox="0.00 0.00 85.00 286.00" xmlns="http://www.w3.org/2000/svg" xmlns:xlink="http://www.w3.org/1999/xlink">
<g id="graph0" class="graph" transform="scale(1 1) rotate(0) translate(4 282)">
<title>TextureFrame</title>
<polygon fill="white" stroke="none" points="-4,4 -4,-282 81,-282 81,4 -4,4"/>
<!-- Node1 -->
<g id="node1" class="node"><title>Node1</title>
<g id="a_node1"><a xlink:title=" ">
<polygon fill="#bfbfbf" stroke="black" points="0,-0.5 0,-19.5 77,-19.5 77,-0.5 0,-0.5"/>
<text text-anchor="middle" x="38.5" y="-7.5" font-family="Helvetica,sans-Serif" font-size="10.00">TextureFrame</text>
</a>
</g>
</g>
<!-- Node2 -->
<g id="node2" class="node"><title>Node2</title>
<g id="a_node2"><a xlink:href="../../d2/d7f/class_texture.html" target="_top" xlink:title=" ">
<polygon fill="white" stroke="black" points="14,-67.5 14,-86.5 63,-86.5 63,-67.5 14,-67.5"/>
<text text-anchor="middle" x="38.5" y="-74.5" font-family="Helvetica,sans-Serif" font-size="10.00">Texture</text>
</a>
</g>
</g>
<!-- Node2&#45;&gt;Node1 -->
<g id="edge1" class="edge"><title>Node2&#45;&gt;Node1</title>
<path fill="none" stroke="#9a32cd" stroke-dasharray="5,2" d="M38.5,-57.037C38.5,-44.6703 38.5,-29.1198 38.5,-19.6273"/>
<polygon fill="#9a32cd" stroke="#9a32cd" points="35.0001,-57.2338 38.5,-67.2338 42.0001,-57.2338 35.0001,-57.2338"/>
<text text-anchor="middle" x="47" y="-41" font-family="Helvetica,sans-Serif" font-size="10.00"> tex</text>
</g>
<!-- Node3 -->
<g id="node3" class="node"><title>Node3</title>
<g id="a_node3"><a xlink:href="../../de/d73/class_image.html" target="_top" xlink:title=" ">
<polygon fill="white" stroke="black" points="17,-124.5 17,-143.5 60,-143.5 60,-124.5 17,-124.5"/>
<text text-anchor="middle" x="38.5" y="-131.5" font-family="Helvetica,sans-Serif" font-size="10.00">Image</text>
</a>
</g>
</g>
<!-- Node3&#45;&gt;Node2 -->
<g id="edge2" class="edge"><title>Node3&#45;&gt;Node2</title>
<path fill="none" stroke="midnightblue" d="M38.5,-114.117C38.5,-104.817 38.5,-94.0557 38.5,-86.7149"/>
<polygon fill="midnightblue" stroke="midnightblue" points="35.0001,-114.406 38.5,-124.406 42.0001,-114.406 35.0001,-114.406"/>
</g>
<!-- Node4 -->
<g id="node4" class="node"><title>Node4</title>
<g id="a_node4"><a xlink:href="../../d7/d42/class_image_loader.html" target="_top" xlink:title=" ">
<polygon fill="white" stroke="black" points="2.5,-191.5 2.5,-210.5 74.5,-210.5 74.5,-191.5 2.5,-191.5"/>
<text text-anchor="middle" x="38.5" y="-198.5" font-family="Helvetica,sans-Serif" font-size="10.00">ImageLoader</text>
</a>
</g>
</g>
<!-- Node4&#45;&gt;Node3 -->
<g id="edge3" class="edge"><title>Node4&#45;&gt;Node3</title>
<path fill="none" stroke="#9a32cd" stroke-dasharray="5,2" d="M38.5,-181.037C38.5,-168.67 38.5,-153.12 38.5,-143.627"/>
<polygon fill="#9a32cd" stroke="#9a32cd" points="35.0001,-181.234 38.5,-191.234 42.0001,-181.234 35.0001,-181.234"/>
<text text-anchor="middle" x="53.5" y="-165" font-family="Helvetica,sans-Serif" font-size="10.00"> loader</text>
</g>
<!-- Node5 -->
<g id="node5" class="node"><title>Node5</title>
<g id="a_node5"><a xlink:href="../../d6/d70/class_log.html" target="_top" xlink:title=" ">
<polygon fill="white" stroke="black" points="22.5,-258.5 22.5,-277.5 54.5,-277.5 54.5,-258.5 22.5,-258.5"/>
<text text-anchor="middle" x="38.5" y="-265.5" font-family="Helvetica,sans-Serif" font-size="10.00">Log</text>
</a>
</g>
</g>
<!-- Node5&#45;&gt;Node4 -->
<g id="edge4" class="edge"><title>Node5&#45;&gt;Node4</title>
<path fill="none" stroke="#9a32cd" stroke-dasharray="5,2" d="M38.5,-248.037C38.5,-235.67 38.5,-220.12 38.5,-210.627"/>
<polygon fill="#9a32cd" stroke="#9a32cd" points="35.0001,-248.234 38.5,-258.234 42.0001,-248.234 35.0001,-248.234"/>
<text text-anchor="middle" x="46.5" y="-232" font-family="Helvetica,sans-Serif" font-size="10.00"> log</text>
</g>
</g>
</svg>
