<?xml version="1.0" encoding="UTF-8" standalone="no"?>
<!DOCTYPE svg PUBLIC "-//W3C//DTD SVG 1.1//EN"
 "http://www.w3.org/Graphics/SVG/1.1/DTD/svg11.dtd">
<!-- Generated by graphviz version 2.38.0 (20140413.2041)
 -->
<!-- Title: GUIWindow_AutonotesBook::Update Pages: 1 -->
<svg width="803pt" height="439pt"
 viewBox="0.00 0.00 803.00 439.00" xmlns="http://www.w3.org/2000/svg" xmlns:xlink="http://www.w3.org/1999/xlink">
<g id="graph0" class="graph" transform="scale(1 1) rotate(0) translate(4 435)">
<title>GUIWindow_AutonotesBook::Update</title>
<polygon fill="white" stroke="none" points="-4,4 -4,-435 799,-435 799,4 -4,4"/>
<!-- Node1 -->
<g id="node1" class="node"><title>Node1</title>
<g id="a_node1"><a xlink:title=" ">
<polygon fill="#bfbfbf" stroke="black" points="0,-223 0,-253 140,-253 140,-223 0,-223"/>
<text text-anchor="start" x="8" y="-241" font-family="Helvetica,sans-Serif" font-size="10.00">GUIWindow_AutonotesBook</text>
<text text-anchor="middle" x="70" y="-230" font-family="Helvetica,sans-Serif" font-size="10.00">::Update</text>
</a>
</g>
</g>
<!-- Node2 -->
<g id="node2" class="node"><title>Node2</title>
<g id="a_node2"><a xlink:href="../../da/db4/_party_8cpp.html#aa98e661066fa419e8f3b18a3fb7c1bb2" target="_top" xlink:title=" ">
<polygon fill="white" stroke="black" points="196,-345.5 196,-364.5 288,-364.5 288,-345.5 196,-345.5"/>
<text text-anchor="middle" x="242" y="-352.5" font-family="Helvetica,sans-Serif" font-size="10.00">_449B57_test_bit</text>
</a>
</g>
</g>
<!-- Node1&#45;&gt;Node2 -->
<g id="edge1" class="edge"><title>Node1&#45;&gt;Node2</title>
<path fill="none" stroke="midnightblue" d="M83.2565,-253.27C101.332,-274.8 137.214,-313.913 176,-336 179.898,-338.22 184.078,-340.2 188.37,-341.963"/>
<polygon fill="midnightblue" stroke="midnightblue" points="187.283,-345.293 197.876,-345.483 189.714,-338.728 187.283,-345.293"/>
</g>
<!-- Node3 -->
<g id="node3" class="node"><title>Node3</title>
<g id="a_node3"><a xlink:href="../../d3/d39/class_g_u_i_font.html#a08b74df638b5c055d9f18f5ce4d8ee11" target="_top" xlink:title=" ">
<polygon fill="white" stroke="black" points="344,-209.5 344,-228.5 469,-228.5 469,-209.5 344,-209.5"/>
<text text-anchor="middle" x="406.5" y="-216.5" font-family="Helvetica,sans-Serif" font-size="10.00">GUIFont::CalcTextHeight</text>
</a>
</g>
</g>
<!-- Node1&#45;&gt;Node3 -->
<g id="edge2" class="edge"><title>Node1&#45;&gt;Node3</title>
<path fill="none" stroke="midnightblue" d="M140.309,-234.063C196.902,-230.849 276.597,-226.322 333.823,-223.071"/>
<polygon fill="midnightblue" stroke="midnightblue" points="334.093,-226.562 343.878,-222.5 333.696,-219.573 334.093,-226.562"/>
</g>
<!-- Node6 -->
<g id="node6" class="node"><title>Node6</title>
<g id="a_node6"><a xlink:href="../../d4/d38/class_g_u_i_window.html#a009aad05d919c42979eebb93d8b4354c" target="_top" xlink:title=" ">
<polygon fill="white" stroke="black" points="185,-247.5 185,-266.5 299,-266.5 299,-247.5 185,-247.5"/>
<text text-anchor="middle" x="242" y="-254.5" font-family="Helvetica,sans-Serif" font-size="10.00">GUIWindow::DrawText</text>
</a>
</g>
</g>
<!-- Node1&#45;&gt;Node6 -->
<g id="edge6" class="edge"><title>Node1&#45;&gt;Node6</title>
<path fill="none" stroke="midnightblue" d="M140.146,-245.728C151.547,-247.002 163.343,-248.321 174.674,-249.587"/>
<polygon fill="midnightblue" stroke="midnightblue" points="174.597,-253.1 184.923,-250.733 175.374,-246.143 174.597,-253.1"/>
</g>
<!-- Node9 -->
<g id="node9" class="node"><title>Node9</title>
<g id="a_node9"><a xlink:href="../../d4/d38/class_g_u_i_window.html#aae805c92b9242bc94cf18c7a702433f7" target="_top" xlink:title=" ">
<polygon fill="white" stroke="black" points="176,-307.5 176,-326.5 308,-326.5 308,-307.5 176,-307.5"/>
<text text-anchor="middle" x="242" y="-314.5" font-family="Helvetica,sans-Serif" font-size="10.00">GUIWindow::DrawTitleText</text>
</a>
</g>
</g>
<!-- Node1&#45;&gt;Node9 -->
<g id="edge11" class="edge"><title>Node1&#45;&gt;Node9</title>
<path fill="none" stroke="midnightblue" d="M103.376,-253.045C134.496,-267.507 181.132,-289.179 211.316,-303.206"/>
<polygon fill="midnightblue" stroke="midnightblue" points="209.954,-306.432 220.498,-307.473 212.904,-300.084 209.954,-306.432"/>
</g>
<!-- Node13 -->
<g id="node13" class="node"><title>Node13</title>
<g id="a_node13"><a xlink:href="../../dd/d88/class_localization.html#a0eb0a17fdf90f6a420eeac65bf62436f" target="_top" xlink:title=" ">
<polygon fill="white" stroke="black" points="184,-171.5 184,-190.5 300,-190.5 300,-171.5 184,-171.5"/>
<text text-anchor="middle" x="242" y="-178.5" font-family="Helvetica,sans-Serif" font-size="10.00">Localization::GetString</text>
</a>
</g>
</g>
<!-- Node1&#45;&gt;Node13 -->
<g id="edge18" class="edge"><title>Node1&#45;&gt;Node13</title>
<path fill="none" stroke="midnightblue" d="M116.111,-222.875C143.117,-213.819 177.072,-202.435 202.758,-193.822"/>
<polygon fill="midnightblue" stroke="midnightblue" points="204.145,-197.049 212.514,-190.551 201.92,-190.412 204.145,-197.049"/>
</g>
<!-- Node14 -->
<g id="node14" class="node"><title>Node14</title>
<g id="a_node14"><a xlink:href="../../d7/dc2/class_audio_player.html#afa0c135f321bd87b4d4ad2dcad3833e3" target="_top" xlink:title=" ">
<polygon fill="white" stroke="black" points="181,-123.5 181,-142.5 303,-142.5 303,-123.5 181,-123.5"/>
<text text-anchor="middle" x="242" y="-130.5" font-family="Helvetica,sans-Serif" font-size="10.00">AudioPlayer::PlaySound</text>
</a>
</g>
</g>
<!-- Node1&#45;&gt;Node14 -->
<g id="edge19" class="edge"><title>Node1&#45;&gt;Node14</title>
<path fill="none" stroke="midnightblue" d="M89.5486,-222.752C109.929,-206.442 144.03,-180.436 176,-162 185.734,-156.386 196.755,-151.102 206.92,-146.62"/>
<polygon fill="midnightblue" stroke="midnightblue" points="208.521,-149.742 216.333,-142.586 205.763,-143.308 208.521,-149.742"/>
</g>
<!-- Node4 -->
<g id="node4" class="node"><title>Node4</title>
<g id="a_node4"><a xlink:href="../../d3/d39/class_g_u_i_font.html#acff82a6ae67e879bd76ddc52aa25fe02" target="_top" xlink:title=" ">
<polygon fill="white" stroke="black" points="509.5,-266.5 509.5,-285.5 646.5,-285.5 646.5,-266.5 509.5,-266.5"/>
<text text-anchor="middle" x="578" y="-273.5" font-family="Helvetica,sans-Serif" font-size="10.00">GUIFont::FitTextInAWindow</text>
</a>
</g>
</g>
<!-- Node3&#45;&gt;Node4 -->
<g id="edge3" class="edge"><title>Node3&#45;&gt;Node4</title>
<path fill="none" stroke="midnightblue" d="M439.878,-228.53C449.313,-231.434 459.608,-234.728 469,-238 485.211,-243.648 488.852,-246.173 505,-252 515.425,-255.762 526.773,-259.643 537.312,-263.159"/>
<polygon fill="midnightblue" stroke="midnightblue" points="536.518,-266.583 547.111,-266.401 538.717,-259.937 536.518,-266.583"/>
</g>
<!-- Node5 -->
<g id="node5" class="node"><title>Node5</title>
<g id="a_node5"><a xlink:href="../../d3/d39/class_g_u_i_font.html#adfbdd225f4c0eedcbf7e82eecd29e404" target="_top" xlink:title=" ">
<polygon fill="white" stroke="black" points="687,-285.5 687,-304.5 795,-304.5 795,-285.5 687,-285.5"/>
<text text-anchor="middle" x="741" y="-292.5" font-family="Helvetica,sans-Serif" font-size="10.00">GUIFont::IsCharValid</text>
</a>
</g>
</g>
<!-- Node3&#45;&gt;Node5 -->
<g id="edge5" class="edge"><title>Node3&#45;&gt;Node5</title>
<path fill="none" stroke="midnightblue" d="M469.204,-224.347C518.983,-229.678 590.437,-239.639 651,-257 672.061,-263.037 694.76,-272.784 711.962,-280.895"/>
<polygon fill="midnightblue" stroke="midnightblue" points="710.874,-284.255 721.402,-285.441 713.911,-277.949 710.874,-284.255"/>
</g>
<!-- Node4&#45;&gt;Node5 -->
<g id="edge4" class="edge"><title>Node4&#45;&gt;Node5</title>
<path fill="none" stroke="midnightblue" d="M646.812,-284.003C656.762,-285.177 666.977,-286.382 676.829,-287.545"/>
<polygon fill="midnightblue" stroke="midnightblue" points="676.596,-291.042 686.938,-288.738 677.417,-284.09 676.596,-291.042"/>
</g>
<!-- Node7 -->
<g id="node7" class="node"><title>Node7</title>
<g id="a_node7"><a xlink:href="../../d3/d39/class_g_u_i_font.html#abea1624c5890b044ef1368a7ca051b3e" target="_top" xlink:title=" ">
<polygon fill="white" stroke="black" points="357,-247.5 357,-266.5 456,-266.5 456,-247.5 357,-247.5"/>
<text text-anchor="middle" x="406.5" y="-254.5" font-family="Helvetica,sans-Serif" font-size="10.00">GUIFont::DrawText</text>
</a>
</g>
</g>
<!-- Node6&#45;&gt;Node7 -->
<g id="edge7" class="edge"><title>Node6&#45;&gt;Node7</title>
<path fill="none" stroke="midnightblue" d="M299.379,-257C314.572,-257 331.051,-257 346.389,-257"/>
<polygon fill="midnightblue" stroke="midnightblue" points="346.796,-260.5 356.796,-257 346.796,-253.5 346.796,-260.5"/>
</g>
<!-- Node7&#45;&gt;Node4 -->
<g id="edge8" class="edge"><title>Node7&#45;&gt;Node4</title>
<path fill="none" stroke="midnightblue" d="M456.072,-262.445C469.584,-263.959 484.607,-265.643 499.342,-267.295"/>
<polygon fill="midnightblue" stroke="midnightblue" points="499.147,-270.795 509.474,-268.431 499.927,-263.838 499.147,-270.795"/>
</g>
<!-- Node8 -->
<g id="node8" class="node"><title>Node8</title>
<g id="a_node8"><a xlink:href="../../d3/d39/class_g_u_i_font.html#abf5dc44bc1b328f80d5c7033279a4f8d" target="_top" xlink:title=" ">
<polygon fill="white" stroke="black" points="519,-304.5 519,-323.5 637,-323.5 637,-304.5 519,-304.5"/>
<text text-anchor="middle" x="578" y="-311.5" font-family="Helvetica,sans-Serif" font-size="10.00">GUIFont::GetLineWidth</text>
</a>
</g>
</g>
<!-- Node7&#45;&gt;Node8 -->
<g id="edge9" class="edge"><title>Node7&#45;&gt;Node8</title>
<path fill="none" stroke="midnightblue" d="M430.087,-266.647C449.681,-274.811 478.916,-286.506 505,-295 512.265,-297.366 520.013,-299.652 527.634,-301.769"/>
<polygon fill="midnightblue" stroke="midnightblue" points="526.961,-305.213 537.528,-304.448 528.79,-298.456 526.961,-305.213"/>
</g>
<!-- Node8&#45;&gt;Node5 -->
<g id="edge10" class="edge"><title>Node8&#45;&gt;Node5</title>
<path fill="none" stroke="midnightblue" d="M637.125,-307.141C649.918,-305.631 663.53,-304.024 676.522,-302.491"/>
<polygon fill="midnightblue" stroke="midnightblue" points="677.26,-305.929 686.781,-301.281 676.439,-298.977 677.26,-305.929"/>
</g>
<!-- Node9&#45;&gt;Node4 -->
<g id="edge16" class="edge"><title>Node9&#45;&gt;Node4</title>
<path fill="none" stroke="midnightblue" d="M308.191,-308.997C362.904,-302.281 441.191,-292.671 499.179,-285.553"/>
<polygon fill="midnightblue" stroke="midnightblue" points="499.896,-288.991 509.395,-284.299 499.043,-282.043 499.896,-288.991"/>
</g>
<!-- Node10 -->
<g id="node10" class="node"><title>Node10</title>
<g id="a_node10"><a xlink:href="../../d3/d39/class_g_u_i_font.html#a9fa3825419fdf34ded3536e27bccbfdf" target="_top" xlink:title=" ">
<polygon fill="white" stroke="black" points="357,-324 357,-354 456,-354 456,-324 357,-324"/>
<text text-anchor="start" x="365" y="-342" font-family="Helvetica,sans-Serif" font-size="10.00">GUIFont::AlignText</text>
<text text-anchor="middle" x="406.5" y="-331" font-family="Helvetica,sans-Serif" font-size="10.00">_Center</text>
</a>
</g>
</g>
<!-- Node9&#45;&gt;Node10 -->
<g id="edge12" class="edge"><title>Node9&#45;&gt;Node10</title>
<path fill="none" stroke="midnightblue" d="M308.159,-325.821C320.852,-327.54 334.09,-329.332 346.568,-331.021"/>
<polygon fill="midnightblue" stroke="midnightblue" points="346.462,-334.539 356.841,-332.412 347.401,-327.602 346.462,-334.539"/>
</g>
<!-- Node11 -->
<g id="node11" class="node"><title>Node11</title>
<g id="a_node11"><a xlink:href="../../d3/d39/class_g_u_i_font.html#af8449e36ee49ae96e21f4406b398a010" target="_top" xlink:title=" ">
<polygon fill="white" stroke="black" points="348,-373.5 348,-392.5 465,-392.5 465,-373.5 348,-373.5"/>
<text text-anchor="middle" x="406.5" y="-380.5" font-family="Helvetica,sans-Serif" font-size="10.00">GUIFont::DrawTextLine</text>
</a>
</g>
</g>
<!-- Node9&#45;&gt;Node11 -->
<g id="edge14" class="edge"><title>Node9&#45;&gt;Node11</title>
<path fill="none" stroke="midnightblue" d="M284.474,-326.581C292.493,-329.134 300.673,-332.253 308,-336 326.047,-345.229 326.024,-354.634 344,-364 348.237,-366.208 352.773,-368.208 357.392,-370.008"/>
<polygon fill="midnightblue" stroke="midnightblue" points="356.322,-373.343 366.916,-373.425 358.686,-366.754 356.322,-373.343"/>
</g>
<!-- Node12 -->
<g id="node12" class="node"><title>Node12</title>
<g id="a_node12"><a xlink:href="../../d3/d39/class_g_u_i_font.html#a439cccf73db5fd93ffc18cbba51d07e0" target="_top" xlink:title=" ">
<polygon fill="white" stroke="black" points="355.5,-411.5 355.5,-430.5 457.5,-430.5 457.5,-411.5 355.5,-411.5"/>
<text text-anchor="middle" x="406.5" y="-418.5" font-family="Helvetica,sans-Serif" font-size="10.00">GUIFont::GetHeight</text>
</a>
</g>
</g>
<!-- Node9&#45;&gt;Node12 -->
<g id="edge17" class="edge"><title>Node9&#45;&gt;Node12</title>
<path fill="none" stroke="midnightblue" d="M291.64,-326.522C297.517,-328.988 303.147,-332.092 308,-336 334.025,-356.956 318.136,-380.846 344,-402 346.23,-403.824 348.635,-405.473 351.156,-406.965"/>
<polygon fill="midnightblue" stroke="midnightblue" points="349.588,-410.093 360.095,-411.451 352.727,-403.837 349.588,-410.093"/>
</g>
<!-- Node10&#45;&gt;Node8 -->
<g id="edge13" class="edge"><title>Node10&#45;&gt;Node8</title>
<path fill="none" stroke="midnightblue" d="M456.072,-331.836C472.427,-329.424 490.995,-326.685 508.588,-324.09"/>
<polygon fill="midnightblue" stroke="midnightblue" points="509.426,-327.505 518.809,-322.583 508.405,-320.579 509.426,-327.505"/>
</g>
<!-- Node11&#45;&gt;Node5 -->
<g id="edge15" class="edge"><title>Node11&#45;&gt;Node5</title>
<path fill="none" stroke="midnightblue" d="M465.398,-374.48C515.262,-366.348 588.803,-352.446 651,-333 671.643,-326.546 694.031,-316.973 711.188,-309.051"/>
<polygon fill="midnightblue" stroke="midnightblue" points="713.071,-312.034 720.633,-304.613 710.094,-305.698 713.071,-312.034"/>
</g>
<!-- Node15 -->
<g id="node15" class="node"><title>Node15</title>
<g id="a_node15"><a xlink:href="../../d4/db9/_open_a_l_sound_provider_8cpp.html#a0d61058bc8900801bc227bc7b47881d7" target="_top" xlink:title=" ">
<polygon fill="white" stroke="black" points="355,-16.5 355,-35.5 458,-35.5 458,-16.5 355,-16.5"/>
<text text-anchor="middle" x="406.5" y="-23.5" font-family="Helvetica,sans-Serif" font-size="10.00">CreateAudioSample</text>
</a>
</g>
</g>
<!-- Node14&#45;&gt;Node15 -->
<g id="edge20" class="edge"><title>Node14&#45;&gt;Node15</title>
<path fill="none" stroke="midnightblue" d="M254.69,-123.355C273.067,-108.419 310.121,-79.2053 344,-58 354.154,-51.6442 365.709,-45.3935 376.041,-40.1268"/>
<polygon fill="midnightblue" stroke="midnightblue" points="377.731,-43.195 385.109,-35.592 374.6,-36.9341 377.731,-43.195"/>
</g>
<!-- Node17 -->
<g id="node17" class="node"><title>Node17</title>
<g id="a_node17"><a xlink:href="../../d7/dc2/class_audio_player.html#ae30d2f6cbd73b8e316a47b4694fe8960" target="_top" xlink:title=" ">
<polygon fill="white" stroke="black" points="344.5,-123.5 344.5,-142.5 468.5,-142.5 468.5,-123.5 344.5,-123.5"/>
<text text-anchor="middle" x="406.5" y="-130.5" font-family="Helvetica,sans-Serif" font-size="10.00">AudioPlayer::LoadSound</text>
</a>
</g>
</g>
<!-- Node14&#45;&gt;Node17 -->
<g id="edge22" class="edge"><title>Node14&#45;&gt;Node17</title>
<path fill="none" stroke="midnightblue" d="M303.047,-133C313.151,-133 323.724,-133 334.082,-133"/>
<polygon fill="midnightblue" stroke="midnightblue" points="334.342,-136.5 344.342,-133 334.342,-129.5 334.342,-136.5"/>
</g>
<!-- Node22 -->
<g id="node22" class="node"><title>Node22</title>
<g id="a_node22"><a xlink:href="../../d6/d70/class_log.html#ac0de2621497ca3b2fbf208624c08bcdf" target="_top" xlink:title=" ">
<polygon fill="white" stroke="black" points="541,-190.5 541,-209.5 615,-209.5 615,-190.5 541,-190.5"/>
<text text-anchor="middle" x="578" y="-197.5" font-family="Helvetica,sans-Serif" font-size="10.00">Log::Warning</text>
</a>
</g>
</g>
<!-- Node14&#45;&gt;Node22 -->
<g id="edge30" class="edge"><title>Node14&#45;&gt;Node22</title>
<path fill="none" stroke="midnightblue" d="M290.499,-142.528C354.475,-155.362 467.587,-178.052 530.859,-190.744"/>
<polygon fill="midnightblue" stroke="midnightblue" points="530.453,-194.232 540.946,-192.768 531.829,-187.369 530.453,-194.232"/>
</g>
<!-- Node23 -->
<g id="node23" class="node"><title>Node23</title>
<g id="a_node23"><a xlink:href="../../d9/d98/class_open_a_l_sound_provider.html#a25ac61cd13253bb659672a1cc29ef22c" target="_top" xlink:title=" ">
<polygon fill="white" stroke="black" points="349.5,-68 349.5,-98 463.5,-98 463.5,-68 349.5,-68"/>
<text text-anchor="start" x="357.5" y="-86" font-family="Helvetica,sans-Serif" font-size="10.00">OpenALSoundProvider</text>
<text text-anchor="middle" x="406.5" y="-75" font-family="Helvetica,sans-Serif" font-size="10.00">::SetListenerPosition</text>
</a>
</g>
</g>
<!-- Node14&#45;&gt;Node23 -->
<g id="edge28" class="edge"><title>Node14&#45;&gt;Node23</title>
<path fill="none" stroke="midnightblue" d="M273.947,-123.478C294.515,-117.149 322.172,-108.639 346.82,-101.055"/>
<polygon fill="midnightblue" stroke="midnightblue" points="347.924,-104.378 356.453,-98.0915 345.866,-97.6872 347.924,-104.378"/>
</g>
<!-- Node16 -->
<g id="node16" class="node"><title>Node16</title>
<g id="a_node16"><a xlink:href="../../da/def/_media_8h.html#ab508e4ee3c70ec5e60273ec99af30a2e" target="_top" xlink:title=" ">
<polygon fill="white" stroke="black" points="505,-0.5 505,-19.5 651,-19.5 651,-0.5 505,-0.5"/>
<text text-anchor="middle" x="578" y="-7.5" font-family="Helvetica,sans-Serif" font-size="10.00">CreateAudioBufferDataSource</text>
</a>
</g>
</g>
<!-- Node15&#45;&gt;Node16 -->
<g id="edge21" class="edge"><title>Node15&#45;&gt;Node16</title>
<path fill="none" stroke="midnightblue" d="M458.356,-21.1995C469.897,-20.11 482.443,-18.9257 494.912,-17.7487"/>
<polygon fill="midnightblue" stroke="midnightblue" points="495.248,-21.2327 504.875,-16.8083 494.59,-14.2636 495.248,-21.2327"/>
</g>
<!-- Node18 -->
<g id="node18" class="node"><title>Node18</title>
<g id="a_node18"><a xlink:href="../../da/d6a/_mem_buffer_8cpp.html#a685632d9cd2b61b24a9bfc649d54937e" target="_top" xlink:title=" ">
<polygon fill="white" stroke="black" points="535.5,-152.5 535.5,-171.5 620.5,-171.5 620.5,-152.5 535.5,-152.5"/>
<text text-anchor="middle" x="578" y="-159.5" font-family="Helvetica,sans-Serif" font-size="10.00">AllocMemBuffer</text>
</a>
</g>
</g>
<!-- Node17&#45;&gt;Node18 -->
<g id="edge23" class="edge"><title>Node17&#45;&gt;Node18</title>
<path fill="none" stroke="midnightblue" d="M463.47,-142.576C483.424,-145.99 505.794,-149.817 525.367,-153.166"/>
<polygon fill="midnightblue" stroke="midnightblue" points="524.872,-156.632 535.319,-154.869 526.053,-149.732 524.872,-156.632"/>
</g>
<!-- Node19 -->
<g id="node19" class="node"><title>Node19</title>
<g id="a_node19"><a xlink:href="../../d7/dc2/class_audio_player.html#aac82d03b250711ed0ce64fa22dfe3a59" target="_top" xlink:title=" ">
<polygon fill="white" stroke="black" points="517,-114.5 517,-133.5 639,-133.5 639,-114.5 517,-114.5"/>
<text text-anchor="middle" x="578" y="-121.5" font-family="Helvetica,sans-Serif" font-size="10.00">AudioPlayer::FindSound</text>
</a>
</g>
</g>
<!-- Node17&#45;&gt;Node19 -->
<g id="edge24" class="edge"><title>Node17&#45;&gt;Node19</title>
<path fill="none" stroke="midnightblue" d="M468.693,-129.751C481.039,-129.095 494.11,-128.401 506.738,-127.731"/>
<polygon fill="midnightblue" stroke="midnightblue" points="506.948,-131.225 516.748,-127.199 506.577,-124.234 506.948,-131.225"/>
</g>
<!-- Node21 -->
<g id="node21" class="node"><title>Node21</title>
<g id="a_node21"><a xlink:href="../../d9/d3e/namespacezlib.html#ae552beaf4387a81c63a28b01a9cc7ab4" target="_top" xlink:title=" ">
<polygon fill="white" stroke="black" points="532,-76.5 532,-95.5 624,-95.5 624,-76.5 532,-76.5"/>
<text text-anchor="middle" x="578" y="-83.5" font-family="Helvetica,sans-Serif" font-size="10.00">zlib::Uncompress</text>
</a>
</g>
</g>
<!-- Node17&#45;&gt;Node21 -->
<g id="edge26" class="edge"><title>Node17&#45;&gt;Node21</title>
<path fill="none" stroke="midnightblue" d="M439.95,-123.491C458.892,-117.987 483.267,-110.987 505,-105 513.242,-102.729 522.029,-100.364 530.531,-98.1047"/>
<polygon fill="midnightblue" stroke="midnightblue" points="531.558,-101.454 540.33,-95.5128 529.768,-94.6863 531.558,-101.454"/>
</g>
<!-- Node17&#45;&gt;Node22 -->
<g id="edge27" class="edge"><title>Node17&#45;&gt;Node22</title>
<path fill="none" stroke="midnightblue" d="M424.301,-142.56C443.377,-153.106 475.663,-170.033 505,-181 513.27,-184.092 522.252,-186.886 530.978,-189.322"/>
<polygon fill="midnightblue" stroke="midnightblue" points="530.104,-192.711 540.668,-191.916 531.914,-185.949 530.104,-192.711"/>
</g>
<!-- Node20 -->
<g id="node20" class="node"><title>Node20</title>
<g id="a_node20"><a xlink:href="../../d8/d44/_strings_8cpp.html#ae591bae1416df2b3638ae859ad4ede6f" target="_top" xlink:title=" ">
<polygon fill="white" stroke="black" points="708,-114.5 708,-133.5 774,-133.5 774,-114.5 708,-114.5"/>
<text text-anchor="middle" x="741" y="-121.5" font-family="Helvetica,sans-Serif" font-size="10.00">MakeLower</text>
</a>
</g>
</g>
<!-- Node19&#45;&gt;Node20 -->
<g id="edge25" class="edge"><title>Node19&#45;&gt;Node20</title>
<path fill="none" stroke="midnightblue" d="M639.409,-124C658.802,-124 679.856,-124 697.668,-124"/>
<polygon fill="midnightblue" stroke="midnightblue" points="697.743,-127.5 707.743,-124 697.743,-120.5 697.743,-127.5"/>
</g>
<!-- Node24 -->
<g id="node24" class="node"><title>Node24</title>
<g id="a_node24"><a xlink:href="../../d1/d20/al_8h.html#acb8f6904370d9946f4ea496e21729415" target="_top" xlink:title=" ">
<polygon fill="white" stroke="black" points="545,-38.5 545,-57.5 611,-57.5 611,-38.5 545,-38.5"/>
<text text-anchor="middle" x="578" y="-45.5" font-family="Helvetica,sans-Serif" font-size="10.00">alListener3f</text>
</a>
</g>
</g>
<!-- Node23&#45;&gt;Node24 -->
<g id="edge29" class="edge"><title>Node23&#45;&gt;Node24</title>
<path fill="none" stroke="midnightblue" d="M463.941,-71.3455C486.949,-66.5947 513.101,-61.1945 534.454,-56.7853"/>
<polygon fill="midnightblue" stroke="midnightblue" points="535.431,-60.1576 544.516,-54.7076 534.015,-53.3022 535.431,-60.1576"/>
</g>
</g>
</svg>
