<?xml version="1.0" encoding="UTF-8" standalone="no"?>
<!DOCTYPE svg PUBLIC "-//W3C//DTD SVG 1.1//EN"
 "http://www.w3.org/Graphics/SVG/1.1/DTD/svg11.dtd">
<!-- Generated by graphviz version 2.38.0 (20140413.2041)
 -->
<!-- Title: AudioTrackS16::Open Pages: 1 -->
<svg width="335pt" height="218pt"
 viewBox="0.00 0.00 335.00 218.00" xmlns="http://www.w3.org/2000/svg" xmlns:xlink="http://www.w3.org/1999/xlink">
<g id="graph0" class="graph" transform="scale(1 1) rotate(0) translate(4 214)">
<title>AudioTrackS16::Open</title>
<polygon fill="white" stroke="none" points="-4,4 -4,-214 331,-214 331,4 -4,4"/>
<!-- Node1 -->
<g id="node1" class="node"><title>Node1</title>
<g id="a_node1"><a xlink:title=" ">
<polygon fill="#bfbfbf" stroke="black" points="0,-114.5 0,-133.5 112,-133.5 112,-114.5 0,-114.5"/>
<text text-anchor="middle" x="56" y="-121.5" font-family="Helvetica,sans-Serif" font-size="10.00">AudioTrackS16::Open</text>
</a>
</g>
</g>
<!-- Node2 -->
<g id="node2" class="node"><title>Node2</title>
<g id="a_node2"><a xlink:href="../../d1/d20/al_8h.html#af220f665740bf8a54797e210cf551dfe" target="_top" xlink:title=" ">
<polygon fill="white" stroke="black" points="148,-190.5 148,-209.5 226,-209.5 226,-190.5 148,-190.5"/>
<text text-anchor="middle" x="187" y="-197.5" font-family="Helvetica,sans-Serif" font-size="10.00">alGenSources</text>
</a>
</g>
</g>
<!-- Node1&#45;&gt;Node2 -->
<g id="edge1" class="edge"><title>Node1&#45;&gt;Node2</title>
<path fill="none" stroke="midnightblue" d="M71.2417,-133.517C88.9392,-145.204 120.204,-165.393 148,-181 150.894,-182.625 153.945,-184.266 157.008,-185.867"/>
<polygon fill="midnightblue" stroke="midnightblue" points="155.59,-189.072 166.089,-190.493 158.768,-182.835 155.59,-189.072"/>
</g>
<!-- Node3 -->
<g id="node3" class="node"><title>Node3</title>
<g id="a_node3"><a xlink:href="../../d1/d20/al_8h.html#a29049cdb4f10d594ff89e3f5bf6d5dbb" target="_top" xlink:title=" ">
<polygon fill="white" stroke="black" points="156,-152.5 156,-171.5 218,-171.5 218,-152.5 156,-152.5"/>
<text text-anchor="middle" x="187" y="-159.5" font-family="Helvetica,sans-Serif" font-size="10.00">alSource3f</text>
</a>
</g>
</g>
<!-- Node1&#45;&gt;Node3 -->
<g id="edge2" class="edge"><title>Node1&#45;&gt;Node3</title>
<path fill="none" stroke="midnightblue" d="M89.5521,-133.589C106.682,-138.635 127.833,-144.866 145.96,-150.205"/>
<polygon fill="midnightblue" stroke="midnightblue" points="145.092,-153.598 155.674,-153.067 147.07,-146.884 145.092,-153.598"/>
</g>
<!-- Node4 -->
<g id="node4" class="node"><title>Node4</title>
<g id="a_node4"><a xlink:href="../../d1/d20/al_8h.html#a225cf2acfa13a33824438ea13b071424" target="_top" xlink:title=" ">
<polygon fill="white" stroke="black" points="158.5,-114.5 158.5,-133.5 215.5,-133.5 215.5,-114.5 158.5,-114.5"/>
<text text-anchor="middle" x="187" y="-121.5" font-family="Helvetica,sans-Serif" font-size="10.00">alSourcef</text>
</a>
</g>
</g>
<!-- Node1&#45;&gt;Node4 -->
<g id="edge3" class="edge"><title>Node1&#45;&gt;Node4</title>
<path fill="none" stroke="midnightblue" d="M112.082,-124C124.35,-124 137.084,-124 148.454,-124"/>
<polygon fill="midnightblue" stroke="midnightblue" points="148.461,-127.5 158.461,-124 148.461,-120.5 148.461,-127.5"/>
</g>
<!-- Node5 -->
<g id="node5" class="node"><title>Node5</title>
<g id="a_node5"><a xlink:href="../../d1/d20/al_8h.html#ad3394e6f7a006c20921dfd59220f2bab" target="_top" xlink:title=" ">
<polygon fill="white" stroke="black" points="158.5,-76.5 158.5,-95.5 215.5,-95.5 215.5,-76.5 158.5,-76.5"/>
<text text-anchor="middle" x="187" y="-83.5" font-family="Helvetica,sans-Serif" font-size="10.00">alSourcei</text>
</a>
</g>
</g>
<!-- Node1&#45;&gt;Node5 -->
<g id="edge4" class="edge"><title>Node1&#45;&gt;Node5</title>
<path fill="none" stroke="midnightblue" d="M89.5521,-114.411C107.52,-109.118 129.914,-102.522 148.599,-97.0174"/>
<polygon fill="midnightblue" stroke="midnightblue" points="149.663,-100.353 158.267,-94.1695 147.685,-93.6378 149.663,-100.353"/>
</g>
<!-- Node6 -->
<g id="node6" class="node"><title>Node6</title>
<g id="a_node6"><a xlink:href="../../d4/db9/_open_a_l_sound_provider_8cpp.html#aece65ae279d5009406167c5949cdf6e1" target="_top" xlink:title=" ">
<polygon fill="white" stroke="black" points="154.5,-38.5 154.5,-57.5 219.5,-57.5 219.5,-38.5 154.5,-38.5"/>
<text text-anchor="middle" x="187" y="-45.5" font-family="Helvetica,sans-Serif" font-size="10.00">CheckError</text>
</a>
</g>
</g>
<!-- Node1&#45;&gt;Node6 -->
<g id="edge5" class="edge"><title>Node1&#45;&gt;Node6</title>
<path fill="none" stroke="midnightblue" d="M71.2417,-114.483C88.9392,-102.796 120.204,-82.607 148,-67 150.894,-65.375 153.945,-63.7342 157.008,-62.1333"/>
<polygon fill="midnightblue" stroke="midnightblue" points="158.768,-65.1649 166.089,-57.5065 155.59,-58.9278 158.768,-65.1649"/>
</g>
<!-- Node7 -->
<g id="node7" class="node"><title>Node7</title>
<g id="a_node7"><a xlink:href="../../d1/d20/al_8h.html#a4186472fc50616acf52fd0b41232e044" target="_top" xlink:title=" ">
<polygon fill="white" stroke="black" points="264,-76.5 264,-95.5 325,-95.5 325,-76.5 264,-76.5"/>
<text text-anchor="middle" x="294.5" y="-83.5" font-family="Helvetica,sans-Serif" font-size="10.00">alGetError</text>
</a>
</g>
</g>
<!-- Node6&#45;&gt;Node7 -->
<g id="edge6" class="edge"><title>Node6&#45;&gt;Node7</title>
<path fill="none" stroke="midnightblue" d="M214.622,-57.589C227.491,-62.2244 243.137,-67.8596 257.09,-72.8853"/>
<polygon fill="midnightblue" stroke="midnightblue" points="256.292,-76.3181 266.886,-76.4141 258.664,-69.7323 256.292,-76.3181"/>
</g>
<!-- Node8 -->
<g id="node8" class="node"><title>Node8</title>
<g id="a_node8"><a xlink:href="../../d1/d20/al_8h.html#afff97eeab77b7d7ca32af121f1f7c76b" target="_top" xlink:title=" ">
<polygon fill="white" stroke="black" points="262,-38.5 262,-57.5 327,-57.5 327,-38.5 262,-38.5"/>
<text text-anchor="middle" x="294.5" y="-45.5" font-family="Helvetica,sans-Serif" font-size="10.00">alGetString</text>
</a>
</g>
</g>
<!-- Node6&#45;&gt;Node8 -->
<g id="edge7" class="edge"><title>Node6&#45;&gt;Node8</title>
<path fill="none" stroke="midnightblue" d="M219.653,-48C229.772,-48 241.131,-48 251.85,-48"/>
<polygon fill="midnightblue" stroke="midnightblue" points="251.869,-51.5001 261.869,-48 251.869,-44.5001 251.869,-51.5001"/>
</g>
<!-- Node9 -->
<g id="node9" class="node"><title>Node9</title>
<g id="a_node9"><a xlink:href="../../d4/db9/_open_a_l_sound_provider_8cpp.html#a5ed8e2adc6340d877478a62cc1d448c9" target="_top" xlink:title=" ">
<polygon fill="white" stroke="black" points="280,-0.5 280,-19.5 309,-19.5 309,-0.5 280,-0.5"/>
<text text-anchor="middle" x="294.5" y="-7.5" font-family="Helvetica,sans-Serif" font-size="10.00">log</text>
</a>
</g>
</g>
<!-- Node6&#45;&gt;Node9 -->
<g id="edge8" class="edge"><title>Node6&#45;&gt;Node9</title>
<path fill="none" stroke="midnightblue" d="M214.622,-38.411C231.809,-32.2204 253.947,-24.2465 270.393,-18.3228"/>
<polygon fill="midnightblue" stroke="midnightblue" points="271.58,-21.6155 279.802,-14.9337 269.208,-15.0297 271.58,-21.6155"/>
</g>
</g>
</svg>
