<?xml version="1.0" encoding="UTF-8" standalone="no"?>
<!DOCTYPE svg PUBLIC "-//W3C//DTD SVG 1.1//EN"
 "http://www.w3.org/Graphics/SVG/1.1/DTD/svg11.dtd">
<!-- Generated by graphviz version 2.38.0 (20140413.2041)
 -->
<!-- Title: AudioTrackS16::Close Pages: 1 -->
<svg width="364pt" height="180pt"
 viewBox="0.00 0.00 364.00 180.00" xmlns="http://www.w3.org/2000/svg" xmlns:xlink="http://www.w3.org/1999/xlink">
<g id="graph0" class="graph" transform="scale(1 1) rotate(0) translate(4 176)">
<title>AudioTrackS16::Close</title>
<polygon fill="white" stroke="none" points="-4,4 -4,-176 360,-176 360,4 -4,4"/>
<!-- Node1 -->
<g id="node1" class="node"><title>Node1</title>
<g id="a_node1"><a xlink:title=" ">
<polygon fill="#bfbfbf" stroke="black" points="0,-76.5 0,-95.5 113,-95.5 113,-76.5 0,-76.5"/>
<text text-anchor="middle" x="56.5" y="-83.5" font-family="Helvetica,sans-Serif" font-size="10.00">AudioTrackS16::Close</text>
</a>
</g>
</g>
<!-- Node2 -->
<g id="node2" class="node"><title>Node2</title>
<g id="a_node2"><a xlink:href="../../d1/d20/al_8h.html#af2f5e685ee38a2c49e149797e8c2e86e" target="_top" xlink:title=" ">
<polygon fill="white" stroke="black" points="158,-152.5 158,-171.5 246,-171.5 246,-152.5 158,-152.5"/>
<text text-anchor="middle" x="202" y="-159.5" font-family="Helvetica,sans-Serif" font-size="10.00">alDeleteSources</text>
</a>
</g>
</g>
<!-- Node1&#45;&gt;Node2 -->
<g id="edge1" class="edge"><title>Node1&#45;&gt;Node2</title>
<path fill="none" stroke="midnightblue" d="M70.9405,-95.6145C88.3429,-107.767 119.898,-128.808 149,-143 153.145,-145.022 157.564,-146.953 162.007,-148.756"/>
<polygon fill="midnightblue" stroke="midnightblue" points="161.088,-152.153 171.678,-152.487 163.608,-145.622 161.088,-152.153"/>
</g>
<!-- Node3 -->
<g id="node3" class="node"><title>Node3</title>
<g id="a_node3"><a xlink:href="../../d1/d20/al_8h.html#ad5b5342f195467d9bf26ad6176297f2e" target="_top" xlink:title=" ">
<polygon fill="white" stroke="black" points="171,-114.5 171,-133.5 233,-133.5 233,-114.5 171,-114.5"/>
<text text-anchor="middle" x="202" y="-121.5" font-family="Helvetica,sans-Serif" font-size="10.00">alIsSource</text>
</a>
</g>
</g>
<!-- Node1&#45;&gt;Node3 -->
<g id="edge2" class="edge"><title>Node1&#45;&gt;Node3</title>
<path fill="none" stroke="midnightblue" d="M93.7111,-95.589C114.118,-100.993 139.656,-107.756 160.697,-113.327"/>
<polygon fill="midnightblue" stroke="midnightblue" points="160.059,-116.779 170.622,-115.956 161.851,-110.012 160.059,-116.779"/>
</g>
<!-- Node4 -->
<g id="node4" class="node"><title>Node4</title>
<g id="a_node4"><a xlink:href="../../d1/d20/al_8h.html#a0fde805f9ad65434ba18063220534e71" target="_top" xlink:title=" ">
<polygon fill="white" stroke="black" points="164.5,-76.5 164.5,-95.5 239.5,-95.5 239.5,-76.5 164.5,-76.5"/>
<text text-anchor="middle" x="202" y="-83.5" font-family="Helvetica,sans-Serif" font-size="10.00">alSourceStop</text>
</a>
</g>
</g>
<!-- Node1&#45;&gt;Node4 -->
<g id="edge3" class="edge"><title>Node1&#45;&gt;Node4</title>
<path fill="none" stroke="midnightblue" d="M113.392,-86C126.929,-86 141.258,-86 154.32,-86"/>
<polygon fill="midnightblue" stroke="midnightblue" points="154.484,-89.5001 164.484,-86 154.484,-82.5001 154.484,-89.5001"/>
</g>
<!-- Node5 -->
<g id="node5" class="node"><title>Node5</title>
<g id="a_node5"><a xlink:href="../../d4/db9/_open_a_l_sound_provider_8cpp.html#aece65ae279d5009406167c5949cdf6e1" target="_top" xlink:title=" ">
<polygon fill="white" stroke="black" points="169.5,-38.5 169.5,-57.5 234.5,-57.5 234.5,-38.5 169.5,-38.5"/>
<text text-anchor="middle" x="202" y="-45.5" font-family="Helvetica,sans-Serif" font-size="10.00">CheckError</text>
</a>
</g>
</g>
<!-- Node1&#45;&gt;Node5 -->
<g id="edge4" class="edge"><title>Node1&#45;&gt;Node5</title>
<path fill="none" stroke="midnightblue" d="M93.7111,-76.411C113.69,-71.1204 138.587,-64.5275 159.367,-59.0249"/>
<polygon fill="midnightblue" stroke="midnightblue" points="160.426,-62.3649 169.197,-56.4216 158.634,-55.5982 160.426,-62.3649"/>
</g>
<!-- Node9 -->
<g id="node9" class="node"><title>Node9</title>
<g id="a_node9"><a xlink:href="../../d3/d9c/class_call_back_timer.html#a8d8cf47c1cecb91037d19ff367b94155" target="_top" xlink:title=" ">
<polygon fill="white" stroke="black" points="149,-0.5 149,-19.5 255,-19.5 255,-0.5 149,-0.5"/>
<text text-anchor="middle" x="202" y="-7.5" font-family="Helvetica,sans-Serif" font-size="10.00">CallBackTimer::Stop</text>
</a>
</g>
</g>
<!-- Node1&#45;&gt;Node9 -->
<g id="edge8" class="edge"><title>Node1&#45;&gt;Node9</title>
<path fill="none" stroke="midnightblue" d="M70.9405,-76.3855C88.3429,-64.2332 119.898,-43.1917 149,-29 153.145,-26.9785 157.564,-25.0473 162.007,-23.2435"/>
<polygon fill="midnightblue" stroke="midnightblue" points="163.608,-26.3775 171.678,-19.5128 161.088,-19.8466 163.608,-26.3775"/>
</g>
<!-- Node6 -->
<g id="node6" class="node"><title>Node6</title>
<g id="a_node6"><a xlink:href="../../d1/d20/al_8h.html#a4186472fc50616acf52fd0b41232e044" target="_top" xlink:title=" ">
<polygon fill="white" stroke="black" points="293,-76.5 293,-95.5 354,-95.5 354,-76.5 293,-76.5"/>
<text text-anchor="middle" x="323.5" y="-83.5" font-family="Helvetica,sans-Serif" font-size="10.00">alGetError</text>
</a>
</g>
</g>
<!-- Node5&#45;&gt;Node6 -->
<g id="edge5" class="edge"><title>Node5&#45;&gt;Node6</title>
<path fill="none" stroke="midnightblue" d="M233.155,-57.589C248.271,-62.3958 266.768,-68.2778 283.003,-73.4403"/>
<polygon fill="midnightblue" stroke="midnightblue" points="282.178,-76.8507 292.769,-76.5457 284.3,-70.1798 282.178,-76.8507"/>
</g>
<!-- Node7 -->
<g id="node7" class="node"><title>Node7</title>
<g id="a_node7"><a xlink:href="../../d1/d20/al_8h.html#afff97eeab77b7d7ca32af121f1f7c76b" target="_top" xlink:title=" ">
<polygon fill="white" stroke="black" points="291,-38.5 291,-57.5 356,-57.5 356,-38.5 291,-38.5"/>
<text text-anchor="middle" x="323.5" y="-45.5" font-family="Helvetica,sans-Serif" font-size="10.00">alGetString</text>
</a>
</g>
</g>
<!-- Node5&#45;&gt;Node7 -->
<g id="edge6" class="edge"><title>Node5&#45;&gt;Node7</title>
<path fill="none" stroke="midnightblue" d="M234.71,-48C248.755,-48 265.474,-48 280.534,-48"/>
<polygon fill="midnightblue" stroke="midnightblue" points="280.642,-51.5001 290.642,-48 280.642,-44.5001 280.642,-51.5001"/>
</g>
<!-- Node8 -->
<g id="node8" class="node"><title>Node8</title>
<g id="a_node8"><a xlink:href="../../d4/db9/_open_a_l_sound_provider_8cpp.html#a5ed8e2adc6340d877478a62cc1d448c9" target="_top" xlink:title=" ">
<polygon fill="white" stroke="black" points="309,-0.5 309,-19.5 338,-19.5 338,-0.5 309,-0.5"/>
<text text-anchor="middle" x="323.5" y="-7.5" font-family="Helvetica,sans-Serif" font-size="10.00">log</text>
</a>
</g>
</g>
<!-- Node5&#45;&gt;Node8 -->
<g id="edge7" class="edge"><title>Node5&#45;&gt;Node8</title>
<path fill="none" stroke="midnightblue" d="M233.155,-38.411C253.69,-31.8809 280.465,-23.3667 299.331,-17.3676"/>
<polygon fill="midnightblue" stroke="midnightblue" points="300.439,-20.688 308.908,-14.3221 298.318,-14.0171 300.439,-20.688"/>
</g>
</g>
</svg>
