<?xml version="1.0" encoding="UTF-8" standalone="no"?>
<!DOCTYPE svg PUBLIC "-//W3C//DTD SVG 1.1//EN"
 "http://www.w3.org/Graphics/SVG/1.1/DTD/svg11.dtd">
<!-- Generated by graphviz version 2.38.0 (20140413.2041)
 -->
<!-- Title: sub_407A1C Pages: 1 -->
<!--zoomable 287 -->
<svg id="main" version="1.1" xmlns="http://www.w3.org/2000/svg" xmlns:xlink="http://www.w3.org/1999/xlink" xml:space="preserve" onload="init(evt)">
<style type="text/css"><![CDATA[
.edge:hover path { stroke: red; }
.edge:hover polygon { stroke: red; fill: red; }
]]></style>
<script type="text/javascript"><![CDATA[
var edges = document.getElementsByTagName('g');
if (edges && edges.length) {
  for (var i=0;i<edges.length;i++) {
    if (edges[i].id.substr(0,4)=='edge') {
      edges[i].setAttribute('class','edge');
    }
  }
}
]]></script>
        <defs>
                <circle id="rim" cx="0" cy="0" r="7"/>
                <circle id="rim2" cx="0" cy="0" r="3.5"/>
                <g id="zoomPlus">
                        <use xlink:href="#rim" fill="#404040">
                                <set attributeName="fill" to="#808080" begin="zoomplus.mouseover" end="zoomplus.mouseout"/>
                        </use>
                        <path d="M-4,0h8M0,-4v8" fill="none" stroke="white" stroke-width="1.5" pointer-events="none"/>
                </g>
                <g id="zoomMin">
                        <use xlink:href="#rim" fill="#404040">
                                <set attributeName="fill" to="#808080" begin="zoomminus.mouseover" end="zoomminus.mouseout"/>
                        </use>
                        <path d="M-4,0h8" fill="none" stroke="white" stroke-width="1.5" pointer-events="none"/>
                </g>
                <g id="dirArrow">
                        <path fill="none" stroke="white" stroke-width="1.5" d="M0,-3.0v7 M-2.5,-0.5L0,-3.0L2.5,-0.5"/>
                </g>
               <g id="resetDef">
                       <use xlink:href="#rim2" fill="#404040">
                               <set attributeName="fill" to="#808080" begin="reset.mouseover" end="reset.mouseout"/>
                       </use>
               </g>
        </defs>

<script type="text/javascript">
var viewWidth = 1288;
var viewHeight = 287;
var sectionId = 'dynsection-41';
</script>
<script xlink:href="../../svgpan.js"/>
<svg id="graph" class="graph">
<g id="viewport">
<title>sub_407A1C</title>
<polygon fill="white" stroke="none" points="-4,4 -4,-283.362 1284,-283.362 1284,4 -4,4"/>
<!-- Node1 -->
<g id="node1" class="node"><title>Node1</title>
<g id="a_node1"><a xlink:title=" ">
<polygon fill="#bfbfbf" stroke="black" points="1208,-137 1208,-156 1280,-156 1280,-137 1208,-137"/>
<text text-anchor="middle" x="1244" y="-144" font-family="Helvetica,sans-Serif" font-size="10.00">sub_407A1C</text>
</a>
</g>
</g>
<!-- Node2 -->
<g id="node2" class="node"><title>Node2</title>
<g id="a_node2"><a xlink:href="../../da/d35/struct_actor.html#a379a6e957fa30078f5f2f1db00a7c5fd" target="_top" xlink:title=" ">
<polygon fill="white" stroke="black" points="1052,-118 1052,-137 1167,-137 1167,-118 1052,-118"/>
<text text-anchor="middle" x="1109.5" y="-125" font-family="Helvetica,sans-Serif" font-size="10.00">Actor::AI_MeleeAttack</text>
</a>
</g>
</g>
<!-- Node1&#45;&gt;Node2 -->
<g id="edge1" class="edge"><title>Node1&#45;&gt;Node2</title>
<path fill="none" stroke="midnightblue" d="M1197.84,-140.024C1187.95,-138.607 1177.37,-137.089 1167.11,-135.617"/>
<polygon fill="midnightblue" stroke="midnightblue" points="1197.44,-143.503 1207.84,-141.458 1198.44,-136.574 1197.44,-143.503"/>
</g>
<!-- Node11 -->
<g id="node11" class="node"><title>Node11</title>
<g id="a_node11"><a xlink:href="../../da/d35/struct_actor.html#a30344ab5f07c2e9df1665afbc841182f" target="_top" xlink:title=" ">
<polygon fill="white" stroke="black" points="1047,-80 1047,-99 1172,-99 1172,-80 1047,-80"/>
<text text-anchor="middle" x="1109.5" y="-87" font-family="Helvetica,sans-Serif" font-size="10.00">Actor::AI_MissileAttack1</text>
</a>
</g>
</g>
<!-- Node1&#45;&gt;Node11 -->
<g id="edge12" class="edge"><title>Node1&#45;&gt;Node11</title>
<path fill="none" stroke="midnightblue" d="M1218.31,-131.774C1204.91,-124.174 1187.88,-115.132 1172,-108.5 1163.54,-104.969 1154.2,-101.751 1145.39,-99.0074"/>
<polygon fill="midnightblue" stroke="midnightblue" points="1216.94,-135.028 1227.35,-136.998 1220.45,-128.966 1216.94,-135.028"/>
</g>
<!-- Node12 -->
<g id="node12" class="node"><title>Node12</title>
<g id="a_node12"><a xlink:href="../../da/d35/struct_actor.html#a98c50c922641288fa4fd9a6cb4ee9de3" target="_top" xlink:title=" ">
<polygon fill="white" stroke="black" points="1047,-232 1047,-251 1172,-251 1172,-232 1047,-232"/>
<text text-anchor="middle" x="1109.5" y="-239" font-family="Helvetica,sans-Serif" font-size="10.00">Actor::AI_MissileAttack2</text>
</a>
</g>
</g>
<!-- Node1&#45;&gt;Node12 -->
<g id="edge15" class="edge"><title>Node1&#45;&gt;Node12</title>
<path fill="none" stroke="midnightblue" d="M1230.68,-164.323C1217.89,-181.556 1196.37,-207.238 1172,-222.5 1165.84,-226.355 1158.85,-229.478 1151.84,-231.991"/>
<polygon fill="midnightblue" stroke="midnightblue" points="1233.54,-166.342 1236.54,-156.181 1227.86,-162.253 1233.54,-166.342"/>
</g>
<!-- Node13 -->
<g id="node13" class="node"><title>Node13</title>
<g id="a_node13"><a xlink:href="../../da/d35/struct_actor.html#af9f68885bca5ef75d3bb1204caaeecb9" target="_top" xlink:title=" ">
<polygon fill="white" stroke="black" points="1051.5,-194 1051.5,-213 1167.5,-213 1167.5,-194 1051.5,-194"/>
<text text-anchor="middle" x="1109.5" y="-201" font-family="Helvetica,sans-Serif" font-size="10.00">Actor::AI_SpellAttack1</text>
</a>
</g>
</g>
<!-- Node1&#45;&gt;Node13 -->
<g id="edge18" class="edge"><title>Node1&#45;&gt;Node13</title>
<path fill="none" stroke="midnightblue" d="M1218.31,-161.226C1204.91,-168.826 1187.88,-177.868 1172,-184.5 1163.54,-188.031 1154.2,-191.249 1145.39,-193.993"/>
<polygon fill="midnightblue" stroke="midnightblue" points="1220.45,-164.034 1227.35,-156.002 1216.94,-157.972 1220.45,-164.034"/>
</g>
<!-- Node14 -->
<g id="node14" class="node"><title>Node14</title>
<g id="a_node14"><a xlink:href="../../da/d35/struct_actor.html#a8133b0550479410a3ed916102ae79966" target="_top" xlink:title=" ">
<polygon fill="white" stroke="black" points="1051.5,-156 1051.5,-175 1167.5,-175 1167.5,-156 1051.5,-156"/>
<text text-anchor="middle" x="1109.5" y="-163" font-family="Helvetica,sans-Serif" font-size="10.00">Actor::AI_SpellAttack2</text>
</a>
</g>
</g>
<!-- Node1&#45;&gt;Node14 -->
<g id="edge21" class="edge"><title>Node1&#45;&gt;Node14</title>
<path fill="none" stroke="midnightblue" d="M1197.65,-153.002C1187.99,-154.389 1177.66,-155.87 1167.61,-157.31"/>
<polygon fill="midnightblue" stroke="midnightblue" points="1198.44,-156.426 1207.84,-151.542 1197.44,-149.497 1198.44,-156.426"/>
</g>
<!-- Node15 -->
<g id="node15" class="node"><title>Node15</title>
<g id="a_node15"><a xlink:href="../../de/deb/_actor_8h.html#aa9d9c1bc5e3c38f0827c69299622b850" target="_top" xlink:title=" ">
<polygon fill="white" stroke="black" points="889,-0.5 889,-30.5 1011,-30.5 1011,-0.5 889,-0.5"/>
<text text-anchor="start" x="897" y="-18.5" font-family="Helvetica,sans-Serif" font-size="10.00">area_of_effect__damage</text>
<text text-anchor="middle" x="950" y="-7.5" font-family="Helvetica,sans-Serif" font-size="10.00">_evaluate</text>
</a>
</g>
</g>
<!-- Node1&#45;&gt;Node15 -->
<g id="edge24" class="edge"><title>Node1&#45;&gt;Node15</title>
<path fill="none" stroke="midnightblue" d="M1231.06,-128.663C1218.44,-111.203 1196.92,-85.1548 1172,-70.5 1122.41,-41.3353 1057.8,-27.5559 1011.26,-21.0942"/>
<polygon fill="midnightblue" stroke="midnightblue" points="1228.23,-130.715 1236.83,-136.905 1233.96,-126.704 1228.23,-130.715"/>
</g>
<!-- Node3 -->
<g id="node3" class="node"><title>Node3</title>
<g id="a_node3"><a xlink:href="../../d1/d28/structstru262___turn_based.html#a665f60f0baf565742d9884ef19f4be97" target="_top" xlink:title=" ">
<polygon fill="white" stroke="black" points="896.5,-150.5 896.5,-180.5 1003.5,-180.5 1003.5,-150.5 896.5,-150.5"/>
<text text-anchor="start" x="904.5" y="-168.5" font-family="Helvetica,sans-Serif" font-size="10.00">stru262_TurnBased::</text>
<text text-anchor="middle" x="950" y="-157.5" font-family="Helvetica,sans-Serif" font-size="10.00">AI_Action_</text>
</a>
</g>
</g>
<!-- Node2&#45;&gt;Node3 -->
<g id="edge2" class="edge"><title>Node2&#45;&gt;Node3</title>
<path fill="none" stroke="midnightblue" d="M1058.7,-139.515C1041.13,-143.754 1021.32,-148.533 1003.53,-152.825"/>
<polygon fill="midnightblue" stroke="midnightblue" points="1059.86,-142.837 1068.76,-137.089 1058.21,-136.032 1059.86,-142.837"/>
</g>
<!-- Node6 -->
<g id="node6" class="node"><title>Node6</title>
<g id="a_node6"><a xlink:href="../../da/d35/struct_actor.html#a8ad58b6020b186e538e3e033f81c073a" target="_top" xlink:title=" ">
<polygon fill="white" stroke="black" points="455,-156 455,-175 564,-175 564,-156 455,-156"/>
<text text-anchor="middle" x="509.5" y="-163" font-family="Helvetica,sans-Serif" font-size="10.00">Actor::UpdateActorAI</text>
</a>
</g>
</g>
<!-- Node2&#45;&gt;Node6 -->
<g id="edge11" class="edge"><title>Node2&#45;&gt;Node6</title>
<path fill="none" stroke="midnightblue" d="M1041.93,-123.849C990.388,-121.212 917.19,-117.881 853,-116.5 805.455,-115.477 793.398,-112.63 746,-116.5 680.458,-121.851 664.208,-126.3 600,-140.5 580.31,-144.855 558.51,-150.917 541.355,-155.982"/>
<polygon fill="midnightblue" stroke="midnightblue" points="1041.78,-127.346 1051.95,-124.366 1042.14,-120.355 1041.78,-127.346"/>
</g>
<!-- Node4 -->
<g id="node4" class="node"><title>Node4</title>
<g id="a_node4"><a xlink:href="../../d1/d28/structstru262___turn_based.html#a1dde7742f9c5b02777ab10742a6e7b5e" target="_top" xlink:title=" ">
<polygon fill="white" stroke="black" points="746,-175.5 746,-205.5 853,-205.5 853,-175.5 746,-175.5"/>
<text text-anchor="start" x="754" y="-193.5" font-family="Helvetica,sans-Serif" font-size="10.00">stru262_TurnBased::</text>
<text text-anchor="middle" x="799.5" y="-182.5" font-family="Helvetica,sans-Serif" font-size="10.00">_4065B0</text>
</a>
</g>
</g>
<!-- Node3&#45;&gt;Node4 -->
<g id="edge3" class="edge"><title>Node3&#45;&gt;Node4</title>
<path fill="none" stroke="midnightblue" d="M886.224,-176.068C875.195,-177.925 863.82,-179.84 853.104,-181.644"/>
<polygon fill="midnightblue" stroke="midnightblue" points="886.946,-179.496 896.226,-174.384 885.784,-172.593 886.946,-179.496"/>
</g>
<!-- Node10 -->
<g id="node10" class="node"><title>Node10</title>
<g id="a_node10"><a xlink:href="../../d1/d28/structstru262___turn_based.html#a9248876f397ec7a74c8f54a072bf2ca0" target="_top" xlink:title=" ">
<polygon fill="white" stroke="black" points="746,-126.5 746,-156.5 853,-156.5 853,-126.5 746,-126.5"/>
<text text-anchor="start" x="754" y="-144.5" font-family="Helvetica,sans-Serif" font-size="10.00">stru262_TurnBased::</text>
<text text-anchor="middle" x="799.5" y="-133.5" font-family="Helvetica,sans-Serif" font-size="10.00">StartTurn</text>
</a>
</g>
</g>
<!-- Node3&#45;&gt;Node10 -->
<g id="edge9" class="edge"><title>Node3&#45;&gt;Node10</title>
<path fill="none" stroke="midnightblue" d="M886.224,-155.354C875.195,-153.572 863.82,-151.733 853.104,-150.002"/>
<polygon fill="midnightblue" stroke="midnightblue" points="885.796,-158.831 896.226,-156.971 886.913,-151.92 885.796,-158.831"/>
</g>
<!-- Node5 -->
<g id="node5" class="node"><title>Node5</title>
<g id="a_node5"><a xlink:href="../../d1/d28/structstru262___turn_based.html#a594cf1020b0200b78abf16be8f3ab722" target="_top" xlink:title=" ">
<polygon fill="white" stroke="black" points="601.5,-150.5 601.5,-180.5 708.5,-180.5 708.5,-150.5 601.5,-150.5"/>
<text text-anchor="start" x="609.5" y="-168.5" font-family="Helvetica,sans-Serif" font-size="10.00">stru262_TurnBased::</text>
<text text-anchor="middle" x="655" y="-157.5" font-family="Helvetica,sans-Serif" font-size="10.00">AITurnBasedAction</text>
</a>
</g>
</g>
<!-- Node4&#45;&gt;Node5 -->
<g id="edge4" class="edge"><title>Node4&#45;&gt;Node5</title>
<path fill="none" stroke="midnightblue" d="M735.817,-179.503C726.841,-177.928 717.68,-176.321 708.916,-174.784"/>
<polygon fill="midnightblue" stroke="midnightblue" points="735.389,-182.981 745.843,-181.262 736.598,-176.087 735.389,-182.981"/>
</g>
<!-- Node5&#45;&gt;Node6 -->
<g id="edge5" class="edge"><title>Node5&#45;&gt;Node6</title>
<path fill="none" stroke="midnightblue" d="M591.261,-165.5C582.197,-165.5 572.938,-165.5 564.074,-165.5"/>
<polygon fill="midnightblue" stroke="midnightblue" points="591.381,-169 601.381,-165.5 591.381,-162 591.381,-169"/>
</g>
<!-- Node7 -->
<g id="node7" class="node"><title>Node7</title>
<g id="a_node7"><a xlink:href="../../d4/d06/class_application_1_1_game.html#aaa0ff18388b32b4e6198835a35e000d3" target="_top" xlink:title=" ">
<polygon fill="white" stroke="black" points="316,-103.5 316,-133.5 419,-133.5 419,-103.5 316,-103.5"/>
<text text-anchor="start" x="324" y="-121.5" font-family="Helvetica,sans-Serif" font-size="10.00">Application::Game::</text>
<text text-anchor="middle" x="367.5" y="-110.5" font-family="Helvetica,sans-Serif" font-size="10.00">GameLoop</text>
</a>
</g>
</g>
<!-- Node6&#45;&gt;Node7 -->
<g id="edge6" class="edge"><title>Node6&#45;&gt;Node7</title>
<path fill="none" stroke="midnightblue" d="M470.247,-152.658C452.651,-146.751 431.66,-139.704 413.326,-133.549"/>
<polygon fill="midnightblue" stroke="midnightblue" points="469.575,-156.124 480.169,-155.989 471.803,-149.488 469.575,-156.124"/>
</g>
<!-- Node8 -->
<g id="node8" class="node"><title>Node8</title>
<g id="a_node8"><a xlink:href="../../d4/d06/class_application_1_1_game.html#a013ffd59e8fdf1c0a396da1dbe1681ca" target="_top" xlink:title=" ">
<polygon fill="white" stroke="black" points="156,-109 156,-128 280,-128 280,-109 156,-109"/>
<text text-anchor="middle" x="218" y="-116" font-family="Helvetica,sans-Serif" font-size="10.00">Application::Game::Loop</text>
</a>
</g>
</g>
<!-- Node7&#45;&gt;Node8 -->
<g id="edge7" class="edge"><title>Node7&#45;&gt;Node8</title>
<path fill="none" stroke="midnightblue" d="M305.59,-118.5C297.149,-118.5 288.478,-118.5 280.035,-118.5"/>
<polygon fill="midnightblue" stroke="midnightblue" points="305.739,-122 315.739,-118.5 305.739,-115 305.739,-122"/>
</g>
<!-- Node9 -->
<g id="node9" class="node"><title>Node9</title>
<g id="a_node9"><a xlink:href="../../d4/d06/class_application_1_1_game.html#a96341ca5b54d90adc3ecb3bf0bcd2312" target="_top" xlink:title=" ">
<polygon fill="white" stroke="black" points="0,-109 0,-128 120,-128 120,-109 0,-109"/>
<text text-anchor="middle" x="60" y="-116" font-family="Helvetica,sans-Serif" font-size="10.00">Application::Game::Run</text>
</a>
</g>
</g>
<!-- Node8&#45;&gt;Node9 -->
<g id="edge8" class="edge"><title>Node8&#45;&gt;Node9</title>
<path fill="none" stroke="midnightblue" d="M145.546,-118.5C137.081,-118.5 128.513,-118.5 120.244,-118.5"/>
<polygon fill="midnightblue" stroke="midnightblue" points="145.792,-122 155.792,-118.5 145.792,-115 145.792,-122"/>
</g>
<!-- Node10&#45;&gt;Node5 -->
<g id="edge10" class="edge"><title>Node10&#45;&gt;Node5</title>
<path fill="none" stroke="midnightblue" d="M735.817,-152.057C726.841,-153.569 717.68,-155.112 708.916,-156.588"/>
<polygon fill="midnightblue" stroke="midnightblue" points="736.563,-155.481 745.843,-150.369 735.401,-148.578 736.563,-155.481"/>
</g>
<!-- Node11&#45;&gt;Node3 -->
<g id="edge13" class="edge"><title>Node11&#45;&gt;Node3</title>
<path fill="none" stroke="midnightblue" d="M1062.84,-102.278C1057.43,-104.18 1052.04,-106.262 1047,-108.5 1020.43,-120.295 992.034,-137.837 973.078,-150.342"/>
<polygon fill="midnightblue" stroke="midnightblue" points="1064.14,-105.531 1072.53,-99.0523 1061.93,-98.8895 1064.14,-105.531"/>
</g>
<!-- Node11&#45;&gt;Node6 -->
<g id="edge14" class="edge"><title>Node11&#45;&gt;Node6</title>
<path fill="none" stroke="midnightblue" d="M1036.8,-83.4453C936.834,-77.2002 750.86,-73.6125 600,-116.5 570.692,-124.832 540.365,-144.087 523.618,-155.826"/>
<polygon fill="midnightblue" stroke="midnightblue" points="1036.59,-86.9385 1046.79,-84.0963 1037.04,-79.9533 1036.59,-86.9385"/>
</g>
<!-- Node12&#45;&gt;Node3 -->
<g id="edge16" class="edge"><title>Node12&#45;&gt;Node3</title>
<path fill="none" stroke="midnightblue" d="M1062.84,-228.722C1057.43,-226.82 1052.04,-224.738 1047,-222.5 1020.43,-210.705 992.034,-193.163 973.078,-180.658"/>
<polygon fill="midnightblue" stroke="midnightblue" points="1061.93,-232.111 1072.53,-231.948 1064.14,-225.469 1061.93,-232.111"/>
</g>
<!-- Node12&#45;&gt;Node6 -->
<g id="edge17" class="edge"><title>Node12&#45;&gt;Node6</title>
<path fill="none" stroke="midnightblue" d="M1059.8,-253.247C966.29,-273.29 756.945,-305.858 600,-239.5 564.903,-224.661 532.846,-191.398 518.47,-175.004"/>
<polygon fill="midnightblue" stroke="midnightblue" points="1060.8,-256.611 1069.82,-251.052 1059.31,-249.773 1060.8,-256.611"/>
</g>
<!-- Node13&#45;&gt;Node3 -->
<g id="edge19" class="edge"><title>Node13&#45;&gt;Node3</title>
<path fill="none" stroke="midnightblue" d="M1058.7,-191.485C1041.13,-187.246 1021.32,-182.467 1003.53,-178.175"/>
<polygon fill="midnightblue" stroke="midnightblue" points="1058.21,-194.968 1068.76,-193.911 1059.86,-188.163 1058.21,-194.968"/>
</g>
<!-- Node13&#45;&gt;Node6 -->
<g id="edge20" class="edge"><title>Node13&#45;&gt;Node6</title>
<path fill="none" stroke="midnightblue" d="M1057.69,-215.11C964.422,-234.148 760.741,-265.111 600,-214.5 571.107,-205.403 540.88,-186.596 523.992,-175.11"/>
<polygon fill="midnightblue" stroke="midnightblue" points="1058.63,-218.489 1067.7,-213.024 1057.2,-211.636 1058.63,-218.489"/>
</g>
<!-- Node14&#45;&gt;Node3 -->
<g id="edge22" class="edge"><title>Node14&#45;&gt;Node3</title>
<path fill="none" stroke="midnightblue" d="M1040.83,-165.5C1028.36,-165.5 1015.5,-165.5 1003.56,-165.5"/>
<polygon fill="midnightblue" stroke="midnightblue" points="1041.19,-169 1051.19,-165.5 1041.19,-162 1041.19,-169"/>
</g>
<!-- Node14&#45;&gt;Node6 -->
<g id="edge23" class="edge"><title>Node14&#45;&gt;Node6</title>
<path fill="none" stroke="midnightblue" d="M1063.14,-177.508C1046.78,-181.617 1028.12,-186.044 1011,-189.5 831.943,-225.637 778.43,-228.613 600,-189.5 580.986,-185.332 559.952,-179.742 543.054,-175.006"/>
<polygon fill="midnightblue" stroke="midnightblue" points="1064.17,-180.857 1073,-175.002 1062.45,-174.073 1064.17,-180.857"/>
</g>
<!-- Node16 -->
<g id="node16" class="node"><title>Node16</title>
<g id="a_node16"><a xlink:href="../../de/dcf/_engine_8h.html#a73fe5e8d7dc6ec78e5cc180d1915341b" target="_top" xlink:title=" ">
<polygon fill="white" stroke="black" points="600,-0.5 600,-30.5 710,-30.5 710,-0.5 600,-0.5"/>
<text text-anchor="start" x="608" y="-18.5" font-family="Helvetica,sans-Serif" font-size="10.00">UpdateUserInput_and</text>
<text text-anchor="middle" x="655" y="-7.5" font-family="Helvetica,sans-Serif" font-size="10.00">_MapSpecificStuff</text>
</a>
</g>
</g>
<!-- Node15&#45;&gt;Node16 -->
<g id="edge25" class="edge"><title>Node15&#45;&gt;Node16</title>
<path fill="none" stroke="midnightblue" d="M878.558,-15.5C826.898,-15.5 757.779,-15.5 710.351,-15.5"/>
<polygon fill="midnightblue" stroke="midnightblue" points="878.646,-19.0001 888.645,-15.5 878.645,-12.0001 878.646,-19.0001"/>
</g>
<!-- Node16&#45;&gt;Node7 -->
<g id="edge26" class="edge"><title>Node16&#45;&gt;Node7</title>
<path fill="none" stroke="midnightblue" d="M602.629,-34.0332C547.651,-53.8676 461.476,-84.957 410.432,-103.372"/>
<polygon fill="midnightblue" stroke="midnightblue" points="603.961,-37.2734 612.18,-30.5874 601.586,-30.6888 603.961,-37.2734"/>
</g>
</g>
</svg>
        <g id="navigator" transform="translate(0 0)" fill="#404254">
                <rect fill="#f2f5e9" fill-opacity="0.5" stroke="#606060" stroke-width=".5" x="0" y="0" width="60" height="60"/>
                <use id="zoomplus" xlink:href="#zoomPlus" x="17" y="9" onmousedown="handleZoom(evt,'in')"/>
                <use id="zoomminus" xlink:href="#zoomMin" x="42" y="9" onmousedown="handleZoom(evt,'out')"/>
                <use id="reset" xlink:href="#resetDef" x="30" y="36" onmousedown="handleReset()"/>
                <g id="arrowUp" xlink:href="#dirArrow" transform="translate(30 24)" onmousedown="handlePan(0,-1)">
                  <use xlink:href="#rim" fill="#404040">
                        <set attributeName="fill" to="#808080" begin="arrowUp.mouseover" end="arrowUp.mouseout"/>
                  </use>
                  <path fill="none" stroke="white" stroke-width="1.5" d="M0,-3.0v7 M-2.5,-0.5L0,-3.0L2.5,-0.5"/>
                </g>
                <g id="arrowRight" xlink:href="#dirArrow" transform="rotate(90) translate(36 -43)" onmousedown="handlePan(1,0)">
                  <use xlink:href="#rim" fill="#404040">
                        <set attributeName="fill" to="#808080" begin="arrowRight.mouseover" end="arrowRight.mouseout"/>
                  </use>
                  <path fill="none" stroke="white" stroke-width="1.5" d="M0,-3.0v7 M-2.5,-0.5L0,-3.0L2.5,-0.5"/>
                </g>
                <g id="arrowDown" xlink:href="#dirArrow" transform="rotate(180) translate(-30 -48)" onmousedown="handlePan(0,1)">
                  <use xlink:href="#rim" fill="#404040">
                        <set attributeName="fill" to="#808080" begin="arrowDown.mouseover" end="arrowDown.mouseout"/>
                  </use>
                  <path fill="none" stroke="white" stroke-width="1.5" d="M0,-3.0v7 M-2.5,-0.5L0,-3.0L2.5,-0.5"/>
                </g>
                <g id="arrowLeft" xlink:href="#dirArrow" transform="rotate(270) translate(-36 17)" onmousedown="handlePan(-1,0)">
                  <use xlink:href="#rim" fill="#404040">
                        <set attributeName="fill" to="#808080" begin="arrowLeft.mouseover" end="arrowLeft.mouseout"/>
                  </use>
                  <path fill="none" stroke="white" stroke-width="1.5" d="M0,-3.0v7 M-2.5,-0.5L0,-3.0L2.5,-0.5"/>
                </g>
        </g>
        <svg viewBox="0 0 15 15" width="100%" height="30px" preserveAspectRatio="xMaxYMin meet">
         <g id="arrow_out" transform="scale(0.3 0.3)">
          <a xlink:href="_indoor_8h_a3c21411dc8c5eeee845311d6745aff90_icgraph_org.svg" target="_base">
           <rect id="button" ry="5" rx="5" y="6" x="6" height="38" width="38"
                fill="#f2f5e9" fill-opacity="0.5" stroke="#606060" stroke-width="1.0"/>
           <path id="arrow"
             d="M 11.500037,31.436501 C 11.940474,20.09759 22.043105,11.32322 32.158766,21.979434 L 37.068811,17.246167 C 37.068811,17.246167 37.088388,32 37.088388,32 L 22.160133,31.978069 C 22.160133,31.978069 26.997745,27.140456 26.997745,27.140456 C 18.528582,18.264221 13.291696,25.230495 11.500037,31.436501 z"
             style="fill:#404040;"/>
          </a>
         </g>
        </svg>
</svg>
