<?xml version="1.0" encoding="UTF-8" standalone="no"?>
<!DOCTYPE svg PUBLIC "-//W3C//DTD SVG 1.1//EN"
 "http://www.w3.org/Graphics/SVG/1.1/DTD/svg11.dtd">
<!-- Generated by graphviz version 2.38.0 (20140413.2041)
 -->
<!-- Title: sub_4075DB Pages: 1 -->
<!--zoomable 532 -->
<svg id="main" version="1.1" xmlns="http://www.w3.org/2000/svg" xmlns:xlink="http://www.w3.org/1999/xlink" xml:space="preserve" onload="init(evt)">
<style type="text/css"><![CDATA[
.edge:hover path { stroke: red; }
.edge:hover polygon { stroke: red; fill: red; }
]]></style>
<script type="text/javascript"><![CDATA[
var edges = document.getElementsByTagName('g');
if (edges && edges.length) {
  for (var i=0;i<edges.length;i++) {
    if (edges[i].id.substr(0,4)=='edge') {
      edges[i].setAttribute('class','edge');
    }
  }
}
]]></script>
        <defs>
                <circle id="rim" cx="0" cy="0" r="7"/>
                <circle id="rim2" cx="0" cy="0" r="3.5"/>
                <g id="zoomPlus">
                        <use xlink:href="#rim" fill="#404040">
                                <set attributeName="fill" to="#808080" begin="zoomplus.mouseover" end="zoomplus.mouseout"/>
                        </use>
                        <path d="M-4,0h8M0,-4v8" fill="none" stroke="white" stroke-width="1.5" pointer-events="none"/>
                </g>
                <g id="zoomMin">
                        <use xlink:href="#rim" fill="#404040">
                                <set attributeName="fill" to="#808080" begin="zoomminus.mouseover" end="zoomminus.mouseout"/>
                        </use>
                        <path d="M-4,0h8" fill="none" stroke="white" stroke-width="1.5" pointer-events="none"/>
                </g>
                <g id="dirArrow">
                        <path fill="none" stroke="white" stroke-width="1.5" d="M0,-3.0v7 M-2.5,-0.5L0,-3.0L2.5,-0.5"/>
                </g>
               <g id="resetDef">
                       <use xlink:href="#rim2" fill="#404040">
                               <set attributeName="fill" to="#808080" begin="reset.mouseover" end="reset.mouseout"/>
                       </use>
               </g>
        </defs>

<script type="text/javascript">
var viewWidth = 1538;
var viewHeight = 532;
var sectionId = 'dynsection-34';
</script>
<script xlink:href="../../svgpan.js"/>
<svg id="graph" class="graph">
<g id="viewport">
<title>sub_4075DB</title>
<polygon fill="white" stroke="none" points="-4,4 -4,-528.277 1534,-528.277 1534,4 -4,4"/>
<!-- Node1 -->
<g id="node1" class="node"><title>Node1</title>
<g id="a_node1"><a xlink:title=" ">
<polygon fill="#bfbfbf" stroke="black" points="1458,-224 1458,-243 1530,-243 1530,-224 1458,-224"/>
<text text-anchor="middle" x="1494" y="-231" font-family="Helvetica,sans-Serif" font-size="10.00">sub_4075DB</text>
</a>
</g>
</g>
<!-- Node2 -->
<g id="node2" class="node"><title>Node2</title>
<g id="a_node2"><a xlink:href="../../de/deb/_actor_8h.html#a46ac772ee98951ce6cbd66208321011c" target="_top" xlink:title=" ">
<polygon fill="white" stroke="black" points="1290,-284.5 1290,-314.5 1422,-314.5 1422,-284.5 1290,-284.5"/>
<text text-anchor="start" x="1298" y="-302.5" font-family="Helvetica,sans-Serif" font-size="10.00">sub_4070EF_prolly_detect</text>
<text text-anchor="middle" x="1356" y="-291.5" font-family="Helvetica,sans-Serif" font-size="10.00">_player</text>
</a>
</g>
</g>
<!-- Node1&#45;&gt;Node2 -->
<g id="edge1" class="edge"><title>Node1&#45;&gt;Node2</title>
<path fill="none" stroke="midnightblue" d="M1463.93,-247.606C1441.64,-258.426 1410.92,-273.331 1388.13,-284.393"/>
<polygon fill="midnightblue" stroke="midnightblue" points="1465.76,-250.612 1473.22,-243.097 1462.7,-244.314 1465.76,-250.612"/>
</g>
<!-- Node17 -->
<g id="node17" class="node"><title>Node17</title>
<g id="a_node17"><a xlink:href="../../da/dc7/_indoor_8h.html#a3c21411dc8c5eeee845311d6745aff90" target="_top" xlink:title=" ">
<polygon fill="white" stroke="black" points="1320,-158 1320,-177 1392,-177 1392,-158 1320,-158"/>
<text text-anchor="middle" x="1356" y="-165" font-family="Helvetica,sans-Serif" font-size="10.00">sub_407A1C</text>
</a>
</g>
</g>
<!-- Node1&#45;&gt;Node17 -->
<g id="edge22" class="edge"><title>Node1&#45;&gt;Node17</title>
<path fill="none" stroke="midnightblue" d="M1464.13,-219.489C1437.86,-206.74 1399.77,-188.258 1376.8,-177.109"/>
<polygon fill="midnightblue" stroke="midnightblue" points="1462.7,-222.686 1473.22,-223.903 1465.76,-216.388 1462.7,-222.686"/>
</g>
<!-- Node3 -->
<g id="node3" class="node"><title>Node3</title>
<g id="a_node3"><a xlink:href="../../da/d35/struct_actor.html#a49b223a6e46a50fd3688168173eb172e" target="_top" xlink:title=" ">
<polygon fill="white" stroke="black" points="1138.5,-375 1138.5,-394 1244.5,-394 1244.5,-375 1138.5,-375"/>
<text text-anchor="middle" x="1191.5" y="-382" font-family="Helvetica,sans-Serif" font-size="10.00">Actor::_SelectTarget</text>
</a>
</g>
</g>
<!-- Node2&#45;&gt;Node3 -->
<g id="edge2" class="edge"><title>Node2&#45;&gt;Node3</title>
<path fill="none" stroke="midnightblue" d="M1317.3,-319.222C1283.88,-336.704 1236.5,-361.483 1210.8,-374.926"/>
<polygon fill="midnightblue" stroke="midnightblue" points="1319.08,-322.237 1326.32,-314.501 1315.84,-316.034 1319.08,-322.237"/>
</g>
<!-- Node16 -->
<g id="node16" class="node"><title>Node16</title>
<g id="a_node16"><a xlink:href="../../da/d35/struct_actor.html#a92f954d74a6318e3d32edb5cfcaf7382" target="_top" xlink:title=" ">
<polygon fill="white" stroke="black" points="600,-290 600,-309 742,-309 742,-290 600,-290"/>
<text text-anchor="middle" x="671" y="-297" font-family="Helvetica,sans-Serif" font-size="10.00">Actor::MakeActorAIList_BLV</text>
</a>
</g>
</g>
<!-- Node2&#45;&gt;Node16 -->
<g id="edge20" class="edge"><title>Node2&#45;&gt;Node16</title>
<path fill="none" stroke="midnightblue" d="M1279.71,-299.5C1146.6,-299.5 871.578,-299.5 742.191,-299.5"/>
<polygon fill="midnightblue" stroke="midnightblue" points="1279.82,-303 1289.82,-299.5 1279.82,-296 1279.82,-303"/>
</g>
<!-- Node4 -->
<g id="node4" class="node"><title>Node4</title>
<g id="a_node4"><a xlink:href="../../d1/d28/structstru262___turn_based.html#ab9296194d6c557013bb18ff2f776bf20" target="_top" xlink:title=" ">
<polygon fill="white" stroke="black" points="960,-369.5 960,-399.5 1093,-399.5 1093,-369.5 960,-369.5"/>
<text text-anchor="start" x="968" y="-387.5" font-family="Helvetica,sans-Serif" font-size="10.00">stru262_TurnBased::</text>
<text text-anchor="middle" x="1026.5" y="-376.5" font-family="Helvetica,sans-Serif" font-size="10.00">ActorAIChooseNewTargets</text>
</a>
</g>
</g>
<!-- Node3&#45;&gt;Node4 -->
<g id="edge3" class="edge"><title>Node3&#45;&gt;Node4</title>
<path fill="none" stroke="midnightblue" d="M1128.47,-384.5C1116.88,-384.5 1104.74,-384.5 1093.06,-384.5"/>
<polygon fill="midnightblue" stroke="midnightblue" points="1128.48,-388 1138.48,-384.5 1128.48,-381 1128.48,-388"/>
</g>
<!-- Node6 -->
<g id="node6" class="node"><title>Node6</title>
<g id="a_node6"><a xlink:href="../../da/d35/struct_actor.html#a8ad58b6020b186e538e3e033f81c073a" target="_top" xlink:title=" ">
<polygon fill="white" stroke="black" points="455,-164 455,-183 564,-183 564,-164 455,-164"/>
<text text-anchor="middle" x="509.5" y="-171" font-family="Helvetica,sans-Serif" font-size="10.00">Actor::UpdateActorAI</text>
</a>
</g>
</g>
<!-- Node3&#45;&gt;Node6 -->
<g id="edge19" class="edge"><title>Node3&#45;&gt;Node6</title>
<path fill="none" stroke="midnightblue" d="M1172.61,-401.167C1154.02,-417.655 1123.44,-442.532 1093,-457.5 965.974,-519.956 913.768,-544.543 778,-504.5 687.662,-477.856 660.315,-461.839 600,-389.5 544.112,-322.471 518.971,-215.677 512.351,-183.189"/>
<polygon fill="midnightblue" stroke="midnightblue" points="1175.19,-403.551 1180.26,-394.248 1170.5,-398.358 1175.19,-403.551"/>
</g>
<!-- Node10 -->
<g id="node10" class="node"><title>Node10</title>
<g id="a_node10"><a xlink:href="../../d1/d28/structstru262___turn_based.html#a915c1f0111549a1f19ef5ec995dafea0" target="_top" xlink:title=" ">
<polygon fill="white" stroke="black" points="973,-418.5 973,-448.5 1080,-448.5 1080,-418.5 973,-418.5"/>
<text text-anchor="start" x="981" y="-436.5" font-family="Helvetica,sans-Serif" font-size="10.00">stru262_TurnBased::</text>
<text text-anchor="middle" x="1026.5" y="-425.5" font-family="Helvetica,sans-Serif" font-size="10.00">ActorMove</text>
</a>
</g>
</g>
<!-- Node3&#45;&gt;Node10 -->
<g id="edge9" class="edge"><title>Node3&#45;&gt;Node10</title>
<path fill="none" stroke="midnightblue" d="M1149.07,-396.954C1127.3,-403.499 1100.45,-411.571 1077.52,-418.463"/>
<polygon fill="midnightblue" stroke="midnightblue" points="1150.12,-400.295 1158.69,-394.064 1148.1,-393.591 1150.12,-400.295"/>
</g>
<!-- Node13 -->
<g id="node13" class="node"><title>Node13</title>
<g id="a_node13"><a xlink:href="../../d1/d28/structstru262___turn_based.html#a665f60f0baf565742d9884ef19f4be97" target="_top" xlink:title=" ">
<polygon fill="white" stroke="black" points="973,-202.5 973,-232.5 1080,-232.5 1080,-202.5 973,-202.5"/>
<text text-anchor="start" x="981" y="-220.5" font-family="Helvetica,sans-Serif" font-size="10.00">stru262_TurnBased::</text>
<text text-anchor="middle" x="1026.5" y="-209.5" font-family="Helvetica,sans-Serif" font-size="10.00">AI_Action_</text>
</a>
</g>
</g>
<!-- Node3&#45;&gt;Node13 -->
<g id="edge14" class="edge"><title>Node3&#45;&gt;Node13</title>
<path fill="none" stroke="midnightblue" d="M1173.48,-367.066C1141.44,-334.24 1072.67,-263.776 1042.36,-232.726"/>
<polygon fill="midnightblue" stroke="midnightblue" points="1171.3,-369.842 1180.79,-374.554 1176.31,-364.953 1171.3,-369.842"/>
</g>
<!-- Node5 -->
<g id="node5" class="node"><title>Node5</title>
<g id="a_node5"><a xlink:href="../../d1/d28/structstru262___turn_based.html#a594cf1020b0200b78abf16be8f3ab722" target="_top" xlink:title=" ">
<polygon fill="white" stroke="black" points="617.5,-350.5 617.5,-380.5 724.5,-380.5 724.5,-350.5 617.5,-350.5"/>
<text text-anchor="start" x="625.5" y="-368.5" font-family="Helvetica,sans-Serif" font-size="10.00">stru262_TurnBased::</text>
<text text-anchor="middle" x="671" y="-357.5" font-family="Helvetica,sans-Serif" font-size="10.00">AITurnBasedAction</text>
</a>
</g>
</g>
<!-- Node4&#45;&gt;Node5 -->
<g id="edge4" class="edge"><title>Node4&#45;&gt;Node5</title>
<path fill="none" stroke="midnightblue" d="M949.64,-380.423C881.831,-376.778 784.237,-371.533 724.642,-368.329"/>
<polygon fill="midnightblue" stroke="midnightblue" points="949.664,-383.929 959.838,-380.971 950.04,-376.939 949.664,-383.929"/>
</g>
<!-- Node5&#45;&gt;Node6 -->
<g id="edge5" class="edge"><title>Node5&#45;&gt;Node6</title>
<path fill="none" stroke="midnightblue" d="M633.145,-344.962C621.725,-337.542 609.626,-328.501 600,-318.5 557.946,-274.804 525.852,-208.109 514.734,-183.269"/>
<polygon fill="midnightblue" stroke="midnightblue" points="631.359,-347.973 641.693,-350.309 635.071,-342.038 631.359,-347.973"/>
</g>
<!-- Node7 -->
<g id="node7" class="node"><title>Node7</title>
<g id="a_node7"><a xlink:href="../../d4/d06/class_application_1_1_game.html#aaa0ff18388b32b4e6198835a35e000d3" target="_top" xlink:title=" ">
<polygon fill="white" stroke="black" points="316,-109.5 316,-139.5 419,-139.5 419,-109.5 316,-109.5"/>
<text text-anchor="start" x="324" y="-127.5" font-family="Helvetica,sans-Serif" font-size="10.00">Application::Game::</text>
<text text-anchor="middle" x="367.5" y="-116.5" font-family="Helvetica,sans-Serif" font-size="10.00">GameLoop</text>
</a>
</g>
</g>
<!-- Node6&#45;&gt;Node7 -->
<g id="edge6" class="edge"><title>Node6&#45;&gt;Node7</title>
<path fill="none" stroke="midnightblue" d="M471.647,-160.601C453.179,-154.138 430.71,-146.273 411.463,-139.537"/>
<polygon fill="midnightblue" stroke="midnightblue" points="470.579,-163.936 481.174,-163.936 472.892,-157.329 470.579,-163.936"/>
</g>
<!-- Node8 -->
<g id="node8" class="node"><title>Node8</title>
<g id="a_node8"><a xlink:href="../../d4/d06/class_application_1_1_game.html#a013ffd59e8fdf1c0a396da1dbe1681ca" target="_top" xlink:title=" ">
<polygon fill="white" stroke="black" points="156,-115 156,-134 280,-134 280,-115 156,-115"/>
<text text-anchor="middle" x="218" y="-122" font-family="Helvetica,sans-Serif" font-size="10.00">Application::Game::Loop</text>
</a>
</g>
</g>
<!-- Node7&#45;&gt;Node8 -->
<g id="edge7" class="edge"><title>Node7&#45;&gt;Node8</title>
<path fill="none" stroke="midnightblue" d="M305.59,-124.5C297.149,-124.5 288.478,-124.5 280.035,-124.5"/>
<polygon fill="midnightblue" stroke="midnightblue" points="305.739,-128 315.739,-124.5 305.739,-121 305.739,-128"/>
</g>
<!-- Node9 -->
<g id="node9" class="node"><title>Node9</title>
<g id="a_node9"><a xlink:href="../../d4/d06/class_application_1_1_game.html#a96341ca5b54d90adc3ecb3bf0bcd2312" target="_top" xlink:title=" ">
<polygon fill="white" stroke="black" points="0,-115 0,-134 120,-134 120,-115 0,-115"/>
<text text-anchor="middle" x="60" y="-122" font-family="Helvetica,sans-Serif" font-size="10.00">Application::Game::Run</text>
</a>
</g>
</g>
<!-- Node8&#45;&gt;Node9 -->
<g id="edge8" class="edge"><title>Node8&#45;&gt;Node9</title>
<path fill="none" stroke="midnightblue" d="M145.546,-124.5C137.081,-124.5 128.513,-124.5 120.244,-124.5"/>
<polygon fill="midnightblue" stroke="midnightblue" points="145.792,-128 155.792,-124.5 145.792,-121 145.792,-128"/>
</g>
<!-- Node11 -->
<g id="node11" class="node"><title>Node11</title>
<g id="a_node11"><a xlink:href="../../d1/d28/structstru262___turn_based.html#afc65197aeafa38ebc6a0572015e6ca4a" target="_top" xlink:title=" ">
<polygon fill="white" stroke="black" points="788,-465.5 788,-495.5 914,-495.5 914,-465.5 788,-465.5"/>
<text text-anchor="start" x="796" y="-483.5" font-family="Helvetica,sans-Serif" font-size="10.00">stru262_TurnBased::</text>
<text text-anchor="middle" x="851" y="-472.5" font-family="Helvetica,sans-Serif" font-size="10.00">ActorAIDoAdditionalMove</text>
</a>
</g>
</g>
<!-- Node10&#45;&gt;Node11 -->
<g id="edge10" class="edge"><title>Node10&#45;&gt;Node11</title>
<path fill="none" stroke="midnightblue" d="M963.093,-450.406C944.982,-455.312 925.33,-460.635 907.662,-465.422"/>
<polygon fill="midnightblue" stroke="midnightblue" points="964.236,-453.722 972.973,-447.729 962.406,-446.966 964.236,-453.722"/>
</g>
<!-- Node12 -->
<g id="node12" class="node"><title>Node12</title>
<g id="a_node12"><a xlink:href="../../d1/d28/structstru262___turn_based.html#a244b8a29fe084ce5e77d4ec20d0e77e6" target="_top" xlink:title=" ">
<polygon fill="white" stroke="black" points="778,-416.5 778,-446.5 924,-446.5 924,-416.5 778,-416.5"/>
<text text-anchor="start" x="786" y="-434.5" font-family="Helvetica,sans-Serif" font-size="10.00">stru262_TurnBased::</text>
<text text-anchor="middle" x="851" y="-423.5" font-family="Helvetica,sans-Serif" font-size="10.00">ActorAISetMovementDecision</text>
</a>
</g>
</g>
<!-- Node10&#45;&gt;Node12 -->
<g id="edge12" class="edge"><title>Node10&#45;&gt;Node12</title>
<path fill="none" stroke="midnightblue" d="M962.674,-432.776C950.182,-432.632 936.972,-432.48 924.196,-432.332"/>
<polygon fill="midnightblue" stroke="midnightblue" points="962.934,-436.279 972.973,-432.895 963.014,-429.279 962.934,-436.279"/>
</g>
<!-- Node11&#45;&gt;Node5 -->
<g id="edge11" class="edge"><title>Node11&#45;&gt;Node5</title>
<path fill="none" stroke="midnightblue" d="M789.562,-461.41C785.574,-459.574 781.684,-457.605 778,-455.5 741.318,-434.542 705.253,-400.181 686.103,-380.534"/>
<polygon fill="midnightblue" stroke="midnightblue" points="788.42,-464.728 798.99,-465.449 791.177,-458.294 788.42,-464.728"/>
</g>
<!-- Node12&#45;&gt;Node5 -->
<g id="edge13" class="edge"><title>Node12&#45;&gt;Node5</title>
<path fill="none" stroke="midnightblue" d="M799.703,-412.851C772.17,-402.642 738.5,-390.157 712.647,-380.571"/>
<polygon fill="midnightblue" stroke="midnightblue" points="798.57,-416.163 809.163,-416.358 801.004,-409.6 798.57,-416.163"/>
</g>
<!-- Node14 -->
<g id="node14" class="node"><title>Node14</title>
<g id="a_node14"><a xlink:href="../../d1/d28/structstru262___turn_based.html#a1dde7742f9c5b02777ab10742a6e7b5e" target="_top" xlink:title=" ">
<polygon fill="white" stroke="black" points="797.5,-202.5 797.5,-232.5 904.5,-232.5 904.5,-202.5 797.5,-202.5"/>
<text text-anchor="start" x="805.5" y="-220.5" font-family="Helvetica,sans-Serif" font-size="10.00">stru262_TurnBased::</text>
<text text-anchor="middle" x="851" y="-209.5" font-family="Helvetica,sans-Serif" font-size="10.00">_4065B0</text>
</a>
</g>
</g>
<!-- Node13&#45;&gt;Node14 -->
<g id="edge15" class="edge"><title>Node13&#45;&gt;Node14</title>
<path fill="none" stroke="midnightblue" d="M962.87,-217.5C943.783,-217.5 923.004,-217.5 904.647,-217.5"/>
<polygon fill="midnightblue" stroke="midnightblue" points="962.973,-221 972.973,-217.5 962.973,-214 962.973,-221"/>
</g>
<!-- Node15 -->
<g id="node15" class="node"><title>Node15</title>
<g id="a_node15"><a xlink:href="../../d1/d28/structstru262___turn_based.html#a9248876f397ec7a74c8f54a072bf2ca0" target="_top" xlink:title=" ">
<polygon fill="white" stroke="black" points="797.5,-328.5 797.5,-358.5 904.5,-358.5 904.5,-328.5 797.5,-328.5"/>
<text text-anchor="start" x="805.5" y="-346.5" font-family="Helvetica,sans-Serif" font-size="10.00">stru262_TurnBased::</text>
<text text-anchor="middle" x="851" y="-335.5" font-family="Helvetica,sans-Serif" font-size="10.00">StartTurn</text>
</a>
</g>
</g>
<!-- Node13&#45;&gt;Node15 -->
<g id="edge17" class="edge"><title>Node13&#45;&gt;Node15</title>
<path fill="none" stroke="midnightblue" d="M996.186,-238.789C961.158,-264.227 903.443,-306.141 872.732,-328.444"/>
<polygon fill="midnightblue" stroke="midnightblue" points="998.537,-241.407 1004.57,-232.699 994.424,-235.743 998.537,-241.407"/>
</g>
<!-- Node14&#45;&gt;Node5 -->
<g id="edge16" class="edge"><title>Node14&#45;&gt;Node5</title>
<path fill="none" stroke="midnightblue" d="M828.092,-239.981C806.917,-261.218 773.501,-293.461 742,-318.5 727.562,-329.977 710.379,-341.542 696.65,-350.328"/>
<polygon fill="midnightblue" stroke="midnightblue" points="830.764,-242.257 835.313,-232.689 825.79,-237.332 830.764,-242.257"/>
</g>
<!-- Node15&#45;&gt;Node5 -->
<g id="edge18" class="edge"><title>Node15&#45;&gt;Node5</title>
<path fill="none" stroke="midnightblue" d="M786.951,-351.293C766.593,-353.809 744.25,-356.57 724.72,-358.984"/>
<polygon fill="midnightblue" stroke="midnightblue" points="787.581,-354.741 797.076,-350.041 786.722,-347.794 787.581,-354.741"/>
</g>
<!-- Node16&#45;&gt;Node6 -->
<g id="edge21" class="edge"><title>Node16&#45;&gt;Node6</title>
<path fill="none" stroke="midnightblue" d="M620.672,-286.252C613.439,-283.285 606.31,-279.729 600,-275.5 561.447,-249.662 529.229,-203.188 516.427,-183.139"/>
<polygon fill="midnightblue" stroke="midnightblue" points="619.941,-289.716 630.534,-289.943 622.395,-283.16 619.941,-289.716"/>
</g>
<!-- Node18 -->
<g id="node18" class="node"><title>Node18</title>
<g id="a_node18"><a xlink:href="../../da/d35/struct_actor.html#a379a6e957fa30078f5f2f1db00a7c5fd" target="_top" xlink:title=" ">
<polygon fill="white" stroke="black" points="1134,-82 1134,-101 1249,-101 1249,-82 1134,-82"/>
<text text-anchor="middle" x="1191.5" y="-89" font-family="Helvetica,sans-Serif" font-size="10.00">Actor::AI_MeleeAttack</text>
</a>
</g>
</g>
<!-- Node17&#45;&gt;Node18 -->
<g id="edge23" class="edge"><title>Node17&#45;&gt;Node18</title>
<path fill="none" stroke="midnightblue" d="M1331.74,-152.473C1311.73,-140.013 1281.78,-122.465 1254,-110.5 1245.79,-106.963 1236.7,-103.782 1228.09,-101.078"/>
<polygon fill="midnightblue" stroke="midnightblue" points="1330.13,-155.593 1340.45,-157.968 1333.86,-149.673 1330.13,-155.593"/>
</g>
<!-- Node19 -->
<g id="node19" class="node"><title>Node19</title>
<g id="a_node19"><a xlink:href="../../da/d35/struct_actor.html#a30344ab5f07c2e9df1665afbc841182f" target="_top" xlink:title=" ">
<polygon fill="white" stroke="black" points="1129,-234 1129,-253 1254,-253 1254,-234 1129,-234"/>
<text text-anchor="middle" x="1191.5" y="-241" font-family="Helvetica,sans-Serif" font-size="10.00">Actor::AI_MissileAttack1</text>
</a>
</g>
</g>
<!-- Node17&#45;&gt;Node19 -->
<g id="edge26" class="edge"><title>Node17&#45;&gt;Node19</title>
<path fill="none" stroke="midnightblue" d="M1331.74,-182.527C1311.73,-194.987 1281.78,-212.535 1254,-224.5 1245.79,-228.037 1236.7,-231.218 1228.09,-233.922"/>
<polygon fill="midnightblue" stroke="midnightblue" points="1333.86,-185.327 1340.45,-177.032 1330.13,-179.407 1333.86,-185.327"/>
</g>
<!-- Node20 -->
<g id="node20" class="node"><title>Node20</title>
<g id="a_node20"><a xlink:href="../../da/d35/struct_actor.html#a98c50c922641288fa4fd9a6cb4ee9de3" target="_top" xlink:title=" ">
<polygon fill="white" stroke="black" points="1129,-196 1129,-215 1254,-215 1254,-196 1129,-196"/>
<text text-anchor="middle" x="1191.5" y="-203" font-family="Helvetica,sans-Serif" font-size="10.00">Actor::AI_MissileAttack2</text>
</a>
</g>
</g>
<!-- Node17&#45;&gt;Node20 -->
<g id="edge29" class="edge"><title>Node17&#45;&gt;Node20</title>
<path fill="none" stroke="midnightblue" d="M1309.79,-178.071C1285.76,-183.692 1256.44,-190.547 1233.13,-195.998"/>
<polygon fill="midnightblue" stroke="midnightblue" points="1310.8,-181.431 1319.74,-175.745 1309.21,-174.614 1310.8,-181.431"/>
</g>
<!-- Node21 -->
<g id="node21" class="node"><title>Node21</title>
<g id="a_node21"><a xlink:href="../../da/d35/struct_actor.html#af9f68885bca5ef75d3bb1204caaeecb9" target="_top" xlink:title=" ">
<polygon fill="white" stroke="black" points="1133.5,-158 1133.5,-177 1249.5,-177 1249.5,-158 1133.5,-158"/>
<text text-anchor="middle" x="1191.5" y="-165" font-family="Helvetica,sans-Serif" font-size="10.00">Actor::AI_SpellAttack1</text>
</a>
</g>
</g>
<!-- Node17&#45;&gt;Node21 -->
<g id="edge32" class="edge"><title>Node17&#45;&gt;Node21</title>
<path fill="none" stroke="midnightblue" d="M1309.51,-167.5C1290.97,-167.5 1269.33,-167.5 1249.73,-167.5"/>
<polygon fill="midnightblue" stroke="midnightblue" points="1309.74,-171 1319.74,-167.5 1309.74,-164 1309.74,-171"/>
</g>
<!-- Node22 -->
<g id="node22" class="node"><title>Node22</title>
<g id="a_node22"><a xlink:href="../../da/d35/struct_actor.html#a8133b0550479410a3ed916102ae79966" target="_top" xlink:title=" ">
<polygon fill="white" stroke="black" points="1133.5,-120 1133.5,-139 1249.5,-139 1249.5,-120 1133.5,-120"/>
<text text-anchor="middle" x="1191.5" y="-127" font-family="Helvetica,sans-Serif" font-size="10.00">Actor::AI_SpellAttack2</text>
</a>
</g>
</g>
<!-- Node17&#45;&gt;Node22 -->
<g id="edge35" class="edge"><title>Node17&#45;&gt;Node22</title>
<path fill="none" stroke="midnightblue" d="M1309.79,-156.929C1285.76,-151.308 1256.44,-144.453 1233.13,-139.002"/>
<polygon fill="midnightblue" stroke="midnightblue" points="1309.21,-160.386 1319.74,-159.255 1310.8,-153.569 1309.21,-160.386"/>
</g>
<!-- Node23 -->
<g id="node23" class="node"><title>Node23</title>
<g id="a_node23"><a xlink:href="../../de/deb/_actor_8h.html#aa9d9c1bc5e3c38f0827c69299622b850" target="_top" xlink:title=" ">
<polygon fill="white" stroke="black" points="965.5,-0.5 965.5,-30.5 1087.5,-30.5 1087.5,-0.5 965.5,-0.5"/>
<text text-anchor="start" x="973.5" y="-18.5" font-family="Helvetica,sans-Serif" font-size="10.00">area_of_effect__damage</text>
<text text-anchor="middle" x="1026.5" y="-7.5" font-family="Helvetica,sans-Serif" font-size="10.00">_evaluate</text>
</a>
</g>
</g>
<!-- Node17&#45;&gt;Node23 -->
<g id="edge38" class="edge"><title>Node17&#45;&gt;Node23</title>
<path fill="none" stroke="midnightblue" d="M1341.05,-149.716C1323.19,-128.17 1290.19,-92.3038 1254,-72.5 1201.89,-43.9854 1135.24,-29.4398 1087.77,-22.2135"/>
<polygon fill="midnightblue" stroke="midnightblue" points="1338.53,-152.159 1347.54,-157.727 1343.97,-147.753 1338.53,-152.159"/>
</g>
<!-- Node18&#45;&gt;Node6 -->
<g id="edge25" class="edge"><title>Node18&#45;&gt;Node6</title>
<path fill="none" stroke="midnightblue" d="M1123.9,-87.1106C1013.04,-81.6867 784.611,-78.5526 600,-128.5 571.796,-136.131 542.065,-153.126 524.958,-163.909"/>
<polygon fill="midnightblue" stroke="midnightblue" points="1123.76,-90.6084 1133.93,-87.6237 1124.12,-83.6175 1123.76,-90.6084"/>
</g>
<!-- Node18&#45;&gt;Node13 -->
<g id="edge24" class="edge"><title>Node18&#45;&gt;Node13</title>
<path fill="none" stroke="midnightblue" d="M1139.74,-104.841C1136,-106.524 1132.37,-108.404 1129,-110.5 1089.19,-135.219 1054.43,-179.275 1037.84,-202.39"/>
<polygon fill="midnightblue" stroke="midnightblue" points="1141.21,-108.021 1149.19,-101.048 1138.6,-101.524 1141.21,-108.021"/>
</g>
<!-- Node19&#45;&gt;Node6 -->
<g id="edge28" class="edge"><title>Node19&#45;&gt;Node6</title>
<path fill="none" stroke="midnightblue" d="M1118.66,-248.428C1036.09,-252.873 896.66,-256.638 778,-241.5 688.876,-230.13 586.807,-198.937 538.565,-183.058"/>
<polygon fill="midnightblue" stroke="midnightblue" points="1118.9,-251.92 1128.69,-247.87 1118.51,-244.931 1118.9,-251.92"/>
</g>
<!-- Node19&#45;&gt;Node13 -->
<g id="edge27" class="edge"><title>Node19&#45;&gt;Node13</title>
<path fill="none" stroke="midnightblue" d="M1120.52,-232.337C1107.02,-230.185 1093.1,-227.964 1080.26,-225.916"/>
<polygon fill="midnightblue" stroke="midnightblue" points="1120.3,-235.847 1130.73,-233.966 1121.41,-228.935 1120.3,-235.847"/>
</g>
<!-- Node20&#45;&gt;Node6 -->
<g id="edge31" class="edge"><title>Node20&#45;&gt;Node6</title>
<path fill="none" stroke="midnightblue" d="M1118.83,-195.115C1110.14,-194.101 1101.38,-193.194 1093,-192.5 898.636,-176.413 666.736,-173.78 564.009,-173.46"/>
<polygon fill="midnightblue" stroke="midnightblue" points="1118.62,-198.615 1128.97,-196.347 1119.46,-191.666 1118.62,-198.615"/>
</g>
<!-- Node20&#45;&gt;Node13 -->
<g id="edge30" class="edge"><title>Node20&#45;&gt;Node13</title>
<path fill="none" stroke="midnightblue" d="M1118.6,-210.793C1105.67,-211.745 1092.41,-212.721 1080.15,-213.624"/>
<polygon fill="midnightblue" stroke="midnightblue" points="1119.16,-214.262 1128.88,-210.037 1118.65,-207.28 1119.16,-214.262"/>
</g>
<!-- Node21&#45;&gt;Node6 -->
<g id="edge34" class="edge"><title>Node21&#45;&gt;Node6</title>
<path fill="none" stroke="midnightblue" d="M1123.28,-161.26C1113.14,-160.529 1102.8,-159.901 1093,-159.5 874.072,-150.533 818.452,-142.518 600,-159.5 587.77,-160.451 574.684,-162.122 562.399,-163.986"/>
<polygon fill="midnightblue" stroke="midnightblue" points="1123.09,-164.755 1133.32,-162.021 1123.61,-157.775 1123.09,-164.755"/>
</g>
<!-- Node21&#45;&gt;Node13 -->
<g id="edge33" class="edge"><title>Node21&#45;&gt;Node13</title>
<path fill="none" stroke="midnightblue" d="M1149.7,-180.016C1127.56,-186.808 1100.02,-195.254 1076.7,-202.409"/>
<polygon fill="midnightblue" stroke="midnightblue" points="1150.92,-183.301 1159.46,-177.022 1148.87,-176.609 1150.92,-183.301"/>
</g>
<!-- Node22&#45;&gt;Node6 -->
<g id="edge37" class="edge"><title>Node22&#45;&gt;Node6</title>
<path fill="none" stroke="midnightblue" d="M1123.17,-126.076C1013,-121.697 787.7,-117.864 600,-147.5 578.264,-150.932 554.363,-158.055 536.732,-163.979"/>
<polygon fill="midnightblue" stroke="midnightblue" points="1123.33,-129.586 1133.47,-126.501 1123.62,-122.592 1123.33,-129.586"/>
</g>
<!-- Node22&#45;&gt;Node13 -->
<g id="edge36" class="edge"><title>Node22&#45;&gt;Node13</title>
<path fill="none" stroke="midnightblue" d="M1143.7,-142.344C1138.65,-144.203 1133.66,-146.257 1129,-148.5 1097.89,-163.463 1065.51,-187.119 1045.92,-202.475"/>
<polygon fill="midnightblue" stroke="midnightblue" points="1145.08,-145.572 1153.39,-139.01 1142.8,-138.952 1145.08,-145.572"/>
</g>
<!-- Node24 -->
<g id="node24" class="node"><title>Node24</title>
<g id="a_node24"><a xlink:href="../../de/dcf/_engine_8h.html#a73fe5e8d7dc6ec78e5cc180d1915341b" target="_top" xlink:title=" ">
<polygon fill="white" stroke="black" points="616,-0.5 616,-30.5 726,-30.5 726,-0.5 616,-0.5"/>
<text text-anchor="start" x="624" y="-18.5" font-family="Helvetica,sans-Serif" font-size="10.00">UpdateUserInput_and</text>
<text text-anchor="middle" x="671" y="-7.5" font-family="Helvetica,sans-Serif" font-size="10.00">_MapSpecificStuff</text>
</a>
</g>
</g>
<!-- Node23&#45;&gt;Node24 -->
<g id="edge39" class="edge"><title>Node23&#45;&gt;Node24</title>
<path fill="none" stroke="midnightblue" d="M955.018,-15.5C887.594,-15.5 787.357,-15.5 726.034,-15.5"/>
<polygon fill="midnightblue" stroke="midnightblue" points="955.133,-19.0001 965.133,-15.5 955.133,-12.0001 955.133,-19.0001"/>
</g>
<!-- Node24&#45;&gt;Node7 -->
<g id="edge40" class="edge"><title>Node24&#45;&gt;Node7</title>
<path fill="none" stroke="midnightblue" d="M618.929,-33.9637C560.13,-55.221 464.667,-89.7331 410.163,-109.438"/>
<polygon fill="midnightblue" stroke="midnightblue" points="620.18,-37.233 628.394,-30.5415 617.8,-30.65 620.18,-37.233"/>
</g>
</g>
</svg>
        <g id="navigator" transform="translate(0 0)" fill="#404254">
                <rect fill="#f2f5e9" fill-opacity="0.5" stroke="#606060" stroke-width=".5" x="0" y="0" width="60" height="60"/>
                <use id="zoomplus" xlink:href="#zoomPlus" x="17" y="9" onmousedown="handleZoom(evt,'in')"/>
                <use id="zoomminus" xlink:href="#zoomMin" x="42" y="9" onmousedown="handleZoom(evt,'out')"/>
                <use id="reset" xlink:href="#resetDef" x="30" y="36" onmousedown="handleReset()"/>
                <g id="arrowUp" xlink:href="#dirArrow" transform="translate(30 24)" onmousedown="handlePan(0,-1)">
                  <use xlink:href="#rim" fill="#404040">
                        <set attributeName="fill" to="#808080" begin="arrowUp.mouseover" end="arrowUp.mouseout"/>
                  </use>
                  <path fill="none" stroke="white" stroke-width="1.5" d="M0,-3.0v7 M-2.5,-0.5L0,-3.0L2.5,-0.5"/>
                </g>
                <g id="arrowRight" xlink:href="#dirArrow" transform="rotate(90) translate(36 -43)" onmousedown="handlePan(1,0)">
                  <use xlink:href="#rim" fill="#404040">
                        <set attributeName="fill" to="#808080" begin="arrowRight.mouseover" end="arrowRight.mouseout"/>
                  </use>
                  <path fill="none" stroke="white" stroke-width="1.5" d="M0,-3.0v7 M-2.5,-0.5L0,-3.0L2.5,-0.5"/>
                </g>
                <g id="arrowDown" xlink:href="#dirArrow" transform="rotate(180) translate(-30 -48)" onmousedown="handlePan(0,1)">
                  <use xlink:href="#rim" fill="#404040">
                        <set attributeName="fill" to="#808080" begin="arrowDown.mouseover" end="arrowDown.mouseout"/>
                  </use>
                  <path fill="none" stroke="white" stroke-width="1.5" d="M0,-3.0v7 M-2.5,-0.5L0,-3.0L2.5,-0.5"/>
                </g>
                <g id="arrowLeft" xlink:href="#dirArrow" transform="rotate(270) translate(-36 17)" onmousedown="handlePan(-1,0)">
                  <use xlink:href="#rim" fill="#404040">
                        <set attributeName="fill" to="#808080" begin="arrowLeft.mouseover" end="arrowLeft.mouseout"/>
                  </use>
                  <path fill="none" stroke="white" stroke-width="1.5" d="M0,-3.0v7 M-2.5,-0.5L0,-3.0L2.5,-0.5"/>
                </g>
        </g>
        <svg viewBox="0 0 15 15" width="100%" height="30px" preserveAspectRatio="xMaxYMin meet">
         <g id="arrow_out" transform="scale(0.3 0.3)">
          <a xlink:href="_indoor_8h_ad3cb1fec477827478f20abb7d254bb00_icgraph_org.svg" target="_base">
           <rect id="button" ry="5" rx="5" y="6" x="6" height="38" width="38"
                fill="#f2f5e9" fill-opacity="0.5" stroke="#606060" stroke-width="1.0"/>
           <path id="arrow"
             d="M 11.500037,31.436501 C 11.940474,20.09759 22.043105,11.32322 32.158766,21.979434 L 37.068811,17.246167 C 37.068811,17.246167 37.088388,32 37.088388,32 L 22.160133,31.978069 C 22.160133,31.978069 26.997745,27.140456 26.997745,27.140456 C 18.528582,18.264221 13.291696,25.230495 11.500037,31.436501 z"
             style="fill:#404040;"/>
          </a>
         </g>
        </svg>
</svg>
