<?xml version="1.0" encoding="UTF-8" standalone="no"?>
<!DOCTYPE svg PUBLIC "-//W3C//DTD SVG 1.1//EN"
 "http://www.w3.org/Graphics/SVG/1.1/DTD/svg11.dtd">
<!-- Generated by graphviz version 2.38.0 (20140413.2041)
 -->
<!-- Title: Vec3_float_::NegDot Pages: 1 -->
<svg width="637pt" height="88pt"
 viewBox="0.00 0.00 637.00 88.00" xmlns="http://www.w3.org/2000/svg" xmlns:xlink="http://www.w3.org/1999/xlink">
<g id="graph0" class="graph" transform="scale(1 1) rotate(0) translate(4 84)">
<title>Vec3_float_::NegDot</title>
<polygon fill="white" stroke="none" points="-4,4 -4,-84 633,-84 633,4 -4,4"/>
<!-- Node1 -->
<g id="node1" class="node"><title>Node1</title>
<g id="a_node1"><a xlink:title=" ">
<polygon fill="#bfbfbf" stroke="black" points="523,-30 523,-49 629,-49 629,-30 523,-30"/>
<text text-anchor="middle" x="576" y="-37" font-family="Helvetica,sans-Serif" font-size="10.00">Vec3_float_::NegDot</text>
</a>
</g>
</g>
<!-- Node2 -->
<g id="node2" class="node"><title>Node2</title>
<g id="a_node2"><a xlink:href="../../d9/d57/struct_decal_builder.html#aca79ce21e509552edf4a94a297c58730" target="_top" xlink:title=" ">
<polygon fill="white" stroke="black" points="176.5,-49.5 176.5,-79.5 303.5,-79.5 303.5,-49.5 176.5,-49.5"/>
<text text-anchor="start" x="184.5" y="-67.5" font-family="Helvetica,sans-Serif" font-size="10.00">DecalBuilder::ApplyBlood</text>
<text text-anchor="middle" x="240" y="-56.5" font-family="Helvetica,sans-Serif" font-size="10.00">SplatToTerrain</text>
</a>
</g>
</g>
<!-- Node1&#45;&gt;Node2 -->
<g id="edge1" class="edge"><title>Node1&#45;&gt;Node2</title>
<path fill="none" stroke="midnightblue" d="M512.766,-44.1582C453.08,-48.6257 363.444,-55.335 303.627,-59.8124"/>
<polygon fill="midnightblue" stroke="midnightblue" points="513.102,-47.643 522.813,-43.4063 512.579,-40.6625 513.102,-47.643"/>
</g>
<!-- Node4 -->
<g id="node4" class="node"><title>Node4</title>
<g id="a_node4"><a xlink:href="../../d8/d95/class_lightmap_builder.html#a2897b34201f31971294789d3d0bbcf17" target="_top" xlink:title=" ">
<polygon fill="white" stroke="black" points="348,-2.5 348,-32.5 487,-32.5 487,-2.5 348,-2.5"/>
<text text-anchor="start" x="356" y="-20.5" font-family="Helvetica,sans-Serif" font-size="10.00">LightmapBuilder::StackLight</text>
<text text-anchor="middle" x="417.5" y="-9.5" font-family="Helvetica,sans-Serif" font-size="10.00">_TerrainFace</text>
</a>
</g>
</g>
<!-- Node1&#45;&gt;Node4 -->
<g id="edge3" class="edge"><title>Node1&#45;&gt;Node4</title>
<path fill="none" stroke="midnightblue" d="M512.756,-30.7501C504.322,-29.5645 495.629,-28.3424 487.092,-27.1423"/>
<polygon fill="midnightblue" stroke="midnightblue" points="512.498,-34.2481 522.888,-32.1743 513.472,-27.3162 512.498,-34.2481"/>
</g>
<!-- Node3 -->
<g id="node3" class="node"><title>Node3</title>
<g id="a_node3"><a xlink:href="../../da/d7f/class_render.html#a669638f085b2e25a069c901801e79437" target="_top" xlink:title=" ">
<polygon fill="white" stroke="black" points="0,-30 0,-49 132,-49 132,-30 0,-30"/>
<text text-anchor="middle" x="66" y="-37" font-family="Helvetica,sans-Serif" font-size="10.00">Render::RenderTerrainD3D</text>
</a>
</g>
</g>
<!-- Node2&#45;&gt;Node3 -->
<g id="edge2" class="edge"><title>Node2&#45;&gt;Node3</title>
<path fill="none" stroke="midnightblue" d="M166.499,-53.9621C155.094,-52.3044 143.364,-50.5994 132.139,-48.9679"/>
<polygon fill="midnightblue" stroke="midnightblue" points="166.018,-57.4289 176.417,-55.4037 167.025,-50.5016 166.018,-57.4289"/>
</g>
<!-- Node5 -->
<g id="node5" class="node"><title>Node5</title>
<g id="a_node5"><a xlink:href="../../d8/d95/class_lightmap_builder.html#a0ca28c7af9d79221376b3e5bd9ee13a6" target="_top" xlink:title=" ">
<polygon fill="white" stroke="black" points="168,-0.5 168,-30.5 312,-30.5 312,-0.5 168,-0.5"/>
<text text-anchor="start" x="176" y="-18.5" font-family="Helvetica,sans-Serif" font-size="10.00">LightmapBuilder::StackLights</text>
<text text-anchor="middle" x="240" y="-7.5" font-family="Helvetica,sans-Serif" font-size="10.00">_TerrainFace</text>
</a>
</g>
</g>
<!-- Node4&#45;&gt;Node5 -->
<g id="edge4" class="edge"><title>Node4&#45;&gt;Node5</title>
<path fill="none" stroke="midnightblue" d="M337.623,-16.6011C329.141,-16.5045 320.547,-16.4065 312.162,-16.311"/>
<polygon fill="midnightblue" stroke="midnightblue" points="337.854,-20.1039 347.893,-16.7182 337.934,-13.1043 337.854,-20.1039"/>
</g>
<!-- Node5&#45;&gt;Node3 -->
<g id="edge5" class="edge"><title>Node5&#45;&gt;Node3</title>
<path fill="none" stroke="midnightblue" d="M157.592,-26.8592C149.069,-28.0486 140.484,-29.2464 132.176,-30.4056"/>
<polygon fill="midnightblue" stroke="midnightblue" points="158.13,-30.3181 167.551,-25.4697 157.163,-23.3853 158.13,-30.3181"/>
</g>
</g>
</svg>
