<?xml version="1.0" encoding="UTF-8" standalone="no"?>
<!DOCTYPE svg PUBLIC "-//W3C//DTD SVG 1.1//EN"
 "http://www.w3.org/Graphics/SVG/1.1/DTD/svg11.dtd">
<!-- Generated by graphviz version 2.38.0 (20140413.2041)
 -->
<!-- Title: GUIFont::LoadFont Pages: 1 -->
<!--zoomable 410 -->
<svg id="main" version="1.1" xmlns="http://www.w3.org/2000/svg" xmlns:xlink="http://www.w3.org/1999/xlink" xml:space="preserve" onload="init(evt)">
<style type="text/css"><![CDATA[
.edge:hover path { stroke: red; }
.edge:hover polygon { stroke: red; fill: red; }
]]></style>
<script type="text/javascript"><![CDATA[
var edges = document.getElementsByTagName('g');
if (edges && edges.length) {
  for (var i=0;i<edges.length;i++) {
    if (edges[i].id.substr(0,4)=='edge') {
      edges[i].setAttribute('class','edge');
    }
  }
}
]]></script>
        <defs>
                <circle id="rim" cx="0" cy="0" r="7"/>
                <circle id="rim2" cx="0" cy="0" r="3.5"/>
                <g id="zoomPlus">
                        <use xlink:href="#rim" fill="#404040">
                                <set attributeName="fill" to="#808080" begin="zoomplus.mouseover" end="zoomplus.mouseout"/>
                        </use>
                        <path d="M-4,0h8M0,-4v8" fill="none" stroke="white" stroke-width="1.5" pointer-events="none"/>
                </g>
                <g id="zoomMin">
                        <use xlink:href="#rim" fill="#404040">
                                <set attributeName="fill" to="#808080" begin="zoomminus.mouseover" end="zoomminus.mouseout"/>
                        </use>
                        <path d="M-4,0h8" fill="none" stroke="white" stroke-width="1.5" pointer-events="none"/>
                </g>
                <g id="dirArrow">
                        <path fill="none" stroke="white" stroke-width="1.5" d="M0,-3.0v7 M-2.5,-0.5L0,-3.0L2.5,-0.5"/>
                </g>
               <g id="resetDef">
                       <use xlink:href="#rim2" fill="#404040">
                               <set attributeName="fill" to="#808080" begin="reset.mouseover" end="reset.mouseout"/>
                       </use>
               </g>
        </defs>

<script type="text/javascript">
var viewWidth = 833;
var viewHeight = 410;
var sectionId = 'dynsection-2';
</script>
<script xlink:href="../../svgpan.js"/>
<svg id="graph" class="graph">
<g id="viewport">
<title>GUIFont::LoadFont</title>
<polygon fill="white" stroke="none" points="-4,4 -4,-406 829,-406 829,4 -4,4"/>
<!-- Node1 -->
<g id="node1" class="node"><title>Node1</title>
<g id="a_node1"><a xlink:title=" ">
<polygon fill="#bfbfbf" stroke="black" points="726,-215.5 726,-234.5 825,-234.5 825,-215.5 726,-215.5"/>
<text text-anchor="middle" x="775.5" y="-222.5" font-family="Helvetica,sans-Serif" font-size="10.00">GUIFont::LoadFont</text>
</a>
</g>
</g>
<!-- Node2 -->
<g id="node2" class="node"><title>Node2</title>
<g id="a_node2"><a xlink:href="../../d8/df3/class_g_u_i_credits.html#a72154ffe4ac1567fe635ee83e8b01906" target="_top" xlink:title=" ">
<polygon fill="white" stroke="black" points="549.5,-308.5 549.5,-327.5 666.5,-327.5 666.5,-308.5 549.5,-308.5"/>
<text text-anchor="middle" x="608" y="-315.5" font-family="Helvetica,sans-Serif" font-size="10.00">GUICredits::GUICredits</text>
</a>
</g>
</g>
<!-- Node1&#45;&gt;Node2 -->
<g id="edge1" class="edge"><title>Node1&#45;&gt;Node2</title>
<path fill="none" stroke="midnightblue" d="M749.716,-239.615C732.93,-249.454 710.212,-262.653 690,-274 668.51,-286.065 643.563,-299.537 627.095,-308.357"/>
<polygon fill="midnightblue" stroke="midnightblue" points="751.527,-242.61 758.378,-234.528 747.982,-236.574 751.527,-242.61"/>
</g>
<!-- Node6 -->
<g id="node6" class="node"><title>Node6</title>
<g id="a_node6"><a xlink:href="../../d8/d1c/class_g_u_i_window___party_creation.html#aa09158bfeaf072f7244770ae5c0caf2b" target="_top" xlink:title=" ">
<polygon fill="white" stroke="black" points="539,-235 539,-265 677,-265 677,-235 539,-235"/>
<text text-anchor="start" x="547" y="-253" font-family="Helvetica,sans-Serif" font-size="10.00">GUIWindow_PartyCreation</text>
<text text-anchor="middle" x="608" y="-242" font-family="Helvetica,sans-Serif" font-size="10.00">::GUIWindow_PartyCreation</text>
</a>
</g>
</g>
<!-- Node1&#45;&gt;Node6 -->
<g id="edge5" class="edge"><title>Node1&#45;&gt;Node6</title>
<path fill="none" stroke="midnightblue" d="M715.488,-233.914C703.031,-235.796 689.79,-237.796 677.032,-239.723"/>
<polygon fill="midnightblue" stroke="midnightblue" points="716.375,-237.32 725.74,-232.366 715.329,-230.399 716.375,-237.32"/>
</g>
<!-- Node7 -->
<g id="node7" class="node"><title>Node7</title>
<g id="a_node7"><a xlink:href="../../d6/d37/class_g_u_i_window___book.html#a3afad40ee1f7c4f3a96b54106dea73f3" target="_top" xlink:title=" ">
<polygon fill="white" stroke="black" points="539.5,-186 539.5,-216 676.5,-216 676.5,-186 539.5,-186"/>
<text text-anchor="start" x="547.5" y="-204" font-family="Helvetica,sans-Serif" font-size="10.00">GUIWindow_Book::Initialize</text>
<text text-anchor="middle" x="608" y="-193" font-family="Helvetica,sans-Serif" font-size="10.00">Fonts</text>
</a>
</g>
</g>
<!-- Node1&#45;&gt;Node7 -->
<g id="edge6" class="edge"><title>Node1&#45;&gt;Node7</title>
<path fill="none" stroke="midnightblue" d="M715.799,-216.487C703.152,-214.653 689.684,-212.7 676.726,-210.821"/>
<polygon fill="midnightblue" stroke="midnightblue" points="715.341,-219.958 725.74,-217.929 716.346,-213.03 715.341,-219.958"/>
</g>
<!-- Node16 -->
<g id="node16" class="node"><title>Node16</title>
<g id="a_node16"><a xlink:href="../../d5/d0b/_g_u_i_window_8h.html#a820ed99a03030a29e6d14ef53cfa20d8" target="_top" xlink:title=" ">
<polygon fill="white" stroke="black" points="526,-102 526,-132 690,-132 690,-102 526,-102"/>
<text text-anchor="start" x="534" y="-120" font-family="Helvetica,sans-Serif" font-size="10.00">MainMenuUI_LoadFontsAndSome</text>
<text text-anchor="middle" x="608" y="-109" font-family="Helvetica,sans-Serif" font-size="10.00">Stuff</text>
</a>
</g>
</g>
<!-- Node1&#45;&gt;Node16 -->
<g id="edge15" class="edge"><title>Node1&#45;&gt;Node16</title>
<path fill="none" stroke="midnightblue" d="M751.219,-209.807C719.615,-189.184 663.481,-152.553 632.016,-132.02"/>
<polygon fill="midnightblue" stroke="midnightblue" points="749.526,-212.882 759.813,-215.416 753.351,-207.02 749.526,-212.882"/>
</g>
<!-- Node3 -->
<g id="node3" class="node"><title>Node3</title>
<g id="a_node3"><a xlink:href="../../d8/df3/class_g_u_i_credits.html#a552d14f116789f5ff5d7d58b4fd20951" target="_top" xlink:title=" ">
<polygon fill="white" stroke="black" points="347,-357.5 347,-376.5 484,-376.5 484,-357.5 347,-357.5"/>
<text text-anchor="middle" x="415.5" y="-364.5" font-family="Helvetica,sans-Serif" font-size="10.00">GUICredits::ExecuteCredits</text>
</a>
</g>
</g>
<!-- Node2&#45;&gt;Node3 -->
<g id="edge2" class="edge"><title>Node2&#45;&gt;Node3</title>
<path fill="none" stroke="midnightblue" d="M559.992,-330.091C527.177,-338.532 483.982,-349.642 453.589,-357.46"/>
<polygon fill="midnightblue" stroke="midnightblue" points="561.005,-333.445 569.817,-327.564 559.261,-326.666 561.005,-333.445"/>
</g>
<!-- Node4 -->
<g id="node4" class="node"><title>Node4</title>
<g id="a_node4"><a xlink:href="../../d4/d06/class_application_1_1_game.html#a013ffd59e8fdf1c0a396da1dbe1681ca" target="_top" xlink:title=" ">
<polygon fill="white" stroke="black" points="168.5,-382.5 168.5,-401.5 292.5,-401.5 292.5,-382.5 168.5,-382.5"/>
<text text-anchor="middle" x="230.5" y="-389.5" font-family="Helvetica,sans-Serif" font-size="10.00">Application::Game::Loop</text>
</a>
</g>
</g>
<!-- Node3&#45;&gt;Node4 -->
<g id="edge3" class="edge"><title>Node3&#45;&gt;Node4</title>
<path fill="none" stroke="midnightblue" d="M336.796,-377.615C322.094,-379.624 306.905,-381.699 292.796,-383.626"/>
<polygon fill="midnightblue" stroke="midnightblue" points="337.443,-381.059 346.877,-376.238 336.496,-374.124 337.443,-381.059"/>
</g>
<!-- Node5 -->
<g id="node5" class="node"><title>Node5</title>
<g id="a_node5"><a xlink:href="../../d4/d06/class_application_1_1_game.html#a96341ca5b54d90adc3ecb3bf0bcd2312" target="_top" xlink:title=" ">
<polygon fill="white" stroke="black" points="0,-382.5 0,-401.5 120,-401.5 120,-382.5 0,-382.5"/>
<text text-anchor="middle" x="60" y="-389.5" font-family="Helvetica,sans-Serif" font-size="10.00">Application::Game::Run</text>
</a>
</g>
</g>
<!-- Node4&#45;&gt;Node5 -->
<g id="edge4" class="edge"><title>Node4&#45;&gt;Node5</title>
<path fill="none" stroke="midnightblue" d="M158.116,-392C145.417,-392 132.32,-392 120.014,-392"/>
<polygon fill="midnightblue" stroke="midnightblue" points="158.191,-395.5 168.191,-392 158.191,-388.5 158.191,-395.5"/>
</g>
<!-- Node8 -->
<g id="node8" class="node"><title>Node8</title>
<g id="a_node8"><a xlink:href="../../d6/d37/class_g_u_i_window___book.html#ab1adfe3c80158dbd7a31930707d7cf95" target="_top" xlink:title=" ">
<polygon fill="white" stroke="black" points="341,-186 341,-216 490,-216 490,-186 341,-186"/>
<text text-anchor="start" x="349" y="-204" font-family="Helvetica,sans-Serif" font-size="10.00">GUIWindow_Book::BasicBook</text>
<text text-anchor="middle" x="415.5" y="-193" font-family="Helvetica,sans-Serif" font-size="10.00">Initialization</text>
</a>
</g>
</g>
<!-- Node7&#45;&gt;Node8 -->
<g id="edge7" class="edge"><title>Node7&#45;&gt;Node8</title>
<path fill="none" stroke="midnightblue" d="M529.085,-201C516.208,-201 502.892,-201 490.125,-201"/>
<polygon fill="midnightblue" stroke="midnightblue" points="529.3,-204.5 539.3,-201 529.3,-197.5 529.3,-204.5"/>
</g>
<!-- Node9 -->
<g id="node9" class="node"><title>Node9</title>
<g id="a_node9"><a xlink:href="../../d6/dc4/struct_g_u_i_window___autonotes_book.html#a1ce836cc6ffcd63f86d7c9897ac4c404" target="_top" xlink:title=" ">
<polygon fill="white" stroke="black" points="157.5,-333 157.5,-363 303.5,-363 303.5,-333 157.5,-333"/>
<text text-anchor="start" x="165.5" y="-351" font-family="Helvetica,sans-Serif" font-size="10.00">GUIWindow_AutonotesBook</text>
<text text-anchor="middle" x="230.5" y="-340" font-family="Helvetica,sans-Serif" font-size="10.00">::GUIWindow_AutonotesBook</text>
</a>
</g>
</g>
<!-- Node8&#45;&gt;Node9 -->
<g id="edge8" class="edge"><title>Node8&#45;&gt;Node9</title>
<path fill="none" stroke="midnightblue" d="M399.031,-224.556C379.963,-251.867 345.115,-296.511 305,-323 299.264,-326.788 292.896,-330.059 286.376,-332.868"/>
<polygon fill="midnightblue" stroke="midnightblue" points="402.12,-226.24 404.878,-216.01 396.343,-222.287 402.12,-226.24"/>
</g>
<!-- Node10 -->
<g id="node10" class="node"><title>Node10</title>
<g id="a_node10"><a xlink:href="../../d8/d16/struct_g_u_i_window___calendar_book.html#a6626ee247bfd72512876011cae06856c" target="_top" xlink:title=" ">
<polygon fill="white" stroke="black" points="160.5,-284 160.5,-314 300.5,-314 300.5,-284 160.5,-284"/>
<text text-anchor="start" x="168.5" y="-302" font-family="Helvetica,sans-Serif" font-size="10.00">GUIWindow_CalendarBook</text>
<text text-anchor="middle" x="230.5" y="-291" font-family="Helvetica,sans-Serif" font-size="10.00">::GUIWindow_CalendarBook</text>
</a>
</g>
</g>
<!-- Node8&#45;&gt;Node10 -->
<g id="edge9" class="edge"><title>Node8&#45;&gt;Node10</title>
<path fill="none" stroke="midnightblue" d="M386.971,-222.293C365.529,-238.134 334.54,-259.441 305,-274 297.625,-277.635 289.592,-280.957 281.632,-283.909"/>
<polygon fill="midnightblue" stroke="midnightblue" points="389.352,-224.883 395.261,-216.089 385.157,-219.279 389.352,-224.883"/>
</g>
<!-- Node11 -->
<g id="node11" class="node"><title>Node11</title>
<g id="a_node11"><a xlink:href="../../dc/d98/struct_g_u_i_window___journal_book.html#ac2be4a70cd9cff7f09df5d75249dfea3" target="_top" xlink:title=" ">
<polygon fill="white" stroke="black" points="164.5,-235 164.5,-265 296.5,-265 296.5,-235 164.5,-235"/>
<text text-anchor="start" x="172.5" y="-253" font-family="Helvetica,sans-Serif" font-size="10.00">GUIWindow_JournalBook</text>
<text text-anchor="middle" x="230.5" y="-242" font-family="Helvetica,sans-Serif" font-size="10.00">::GUIWindow_JournalBook</text>
</a>
</g>
</g>
<!-- Node8&#45;&gt;Node11 -->
<g id="edge10" class="edge"><title>Node8&#45;&gt;Node11</title>
<path fill="none" stroke="midnightblue" d="M348.215,-218.748C328.381,-224.059 306.833,-229.829 287.713,-234.948"/>
<polygon fill="midnightblue" stroke="midnightblue" points="349.346,-222.069 358.101,-216.101 347.536,-215.307 349.346,-222.069"/>
</g>
<!-- Node12 -->
<g id="node12" class="node"><title>Node12</title>
<g id="a_node12"><a xlink:href="../../d6/d70/struct_g_u_i_window___lloyds_book.html#a58113ea1d9d5c965387357ffee0df0ad" target="_top" xlink:title=" ">
<polygon fill="white" stroke="black" points="165.5,-186 165.5,-216 295.5,-216 295.5,-186 165.5,-186"/>
<text text-anchor="start" x="173.5" y="-204" font-family="Helvetica,sans-Serif" font-size="10.00">GUIWindow_LloydsBook</text>
<text text-anchor="middle" x="230.5" y="-193" font-family="Helvetica,sans-Serif" font-size="10.00">::GUIWindow_LloydsBook</text>
</a>
</g>
</g>
<!-- Node8&#45;&gt;Node12 -->
<g id="edge11" class="edge"><title>Node8&#45;&gt;Node12</title>
<path fill="none" stroke="midnightblue" d="M330.582,-201C318.817,-201 306.883,-201 295.566,-201"/>
<polygon fill="midnightblue" stroke="midnightblue" points="330.858,-204.5 340.858,-201 330.858,-197.5 330.858,-204.5"/>
</g>
<!-- Node13 -->
<g id="node13" class="node"><title>Node13</title>
<g id="a_node13"><a xlink:href="../../d7/d06/struct_g_u_i_window___map_book.html#a6bc21b4be0a8a480bbdd7a6d5b77db45" target="_top" xlink:title=" ">
<polygon fill="white" stroke="black" points="170.5,-137 170.5,-167 290.5,-167 290.5,-137 170.5,-137"/>
<text text-anchor="start" x="178.5" y="-155" font-family="Helvetica,sans-Serif" font-size="10.00">GUIWindow_MapBook::</text>
<text text-anchor="middle" x="230.5" y="-144" font-family="Helvetica,sans-Serif" font-size="10.00">GUIWindow_MapBook</text>
</a>
</g>
</g>
<!-- Node8&#45;&gt;Node13 -->
<g id="edge12" class="edge"><title>Node8&#45;&gt;Node13</title>
<path fill="none" stroke="midnightblue" d="M348.215,-183.252C328.381,-177.941 306.833,-172.171 287.713,-167.052"/>
<polygon fill="midnightblue" stroke="midnightblue" points="347.536,-186.693 358.101,-185.899 349.346,-179.931 347.536,-186.693"/>
</g>
<!-- Node14 -->
<g id="node14" class="node"><title>Node14</title>
<g id="a_node14"><a xlink:href="../../d3/d9c/struct_g_u_i_window___quest_book.html#a5eae3aa28c63164bc9306717496d1379" target="_top" xlink:title=" ">
<polygon fill="white" stroke="black" points="166.5,-88 166.5,-118 294.5,-118 294.5,-88 166.5,-88"/>
<text text-anchor="start" x="174.5" y="-106" font-family="Helvetica,sans-Serif" font-size="10.00">GUIWindow_QuestBook</text>
<text text-anchor="middle" x="230.5" y="-95" font-family="Helvetica,sans-Serif" font-size="10.00">::GUIWindow_QuestBook</text>
</a>
</g>
</g>
<!-- Node8&#45;&gt;Node14 -->
<g id="edge13" class="edge"><title>Node8&#45;&gt;Node14</title>
<path fill="none" stroke="midnightblue" d="M387.742,-179.795C366.331,-163.618 335.022,-141.686 305,-127 298.248,-123.697 290.932,-120.69 283.623,-118.009"/>
<polygon fill="midnightblue" stroke="midnightblue" points="385.652,-182.602 395.719,-185.902 389.907,-177.044 385.652,-182.602"/>
</g>
<!-- Node15 -->
<g id="node15" class="node"><title>Node15</title>
<g id="a_node15"><a xlink:href="../../d7/dee/struct_g_u_i_window___town_portal_book.html#a508573ae3e8ce3a2d3007a7f4306a654" target="_top" xlink:title=" ">
<polygon fill="white" stroke="black" points="156,-39 156,-69 305,-69 305,-39 156,-39"/>
<text text-anchor="start" x="164" y="-57" font-family="Helvetica,sans-Serif" font-size="10.00">GUIWindow_TownPortalBook</text>
<text text-anchor="middle" x="230.5" y="-46" font-family="Helvetica,sans-Serif" font-size="10.00">::GUIWindow_TownPortalBook</text>
</a>
</g>
</g>
<!-- Node8&#45;&gt;Node15 -->
<g id="edge14" class="edge"><title>Node8&#45;&gt;Node15</title>
<path fill="none" stroke="midnightblue" d="M399.132,-177.16C380.161,-149.538 345.406,-104.444 305,-78 299.833,-74.6186 294.15,-71.6775 288.303,-69.1276"/>
<polygon fill="midnightblue" stroke="midnightblue" points="396.461,-179.46 404.946,-185.805 402.27,-175.554 396.461,-179.46"/>
</g>
<!-- Node17 -->
<g id="node17" class="node"><title>Node17</title>
<g id="a_node17"><a xlink:href="../../d4/d38/class_g_u_i_window.html#a5c1f1a3ef130e92819f280b3824cecb9" target="_top" xlink:title=" ">
<polygon fill="white" stroke="black" points="353,-36.5 353,-55.5 478,-55.5 478,-36.5 353,-36.5"/>
<text text-anchor="middle" x="415.5" y="-43.5" font-family="Helvetica,sans-Serif" font-size="10.00">GUIWindow::InitializeGUI</text>
</a>
</g>
</g>
<!-- Node16&#45;&gt;Node17 -->
<g id="edge16" class="edge"><title>Node16&#45;&gt;Node17</title>
<path fill="none" stroke="midnightblue" d="M557.027,-98.375C520.185,-84.6439 471.566,-66.5233 442.241,-55.5938"/>
<polygon fill="midnightblue" stroke="midnightblue" points="556.007,-101.73 566.6,-101.943 558.452,-95.1707 556.007,-101.73"/>
</g>
<!-- Node18 -->
<g id="node18" class="node"><title>Node18</title>
<g id="a_node18"><a xlink:href="../../d6/d83/struct_engine.html#a4e6fbae6c087bbfa2b1e20f11c46460d" target="_top" xlink:title=" ">
<polygon fill="white" stroke="black" points="186.5,-0.5 186.5,-19.5 274.5,-19.5 274.5,-0.5 186.5,-0.5"/>
<text text-anchor="middle" x="230.5" y="-7.5" font-family="Helvetica,sans-Serif" font-size="10.00">Engine::Initialize</text>
</a>
</g>
</g>
<!-- Node17&#45;&gt;Node18 -->
<g id="edge17" class="edge"><title>Node17&#45;&gt;Node18</title>
<path fill="none" stroke="midnightblue" d="M356.044,-34.5004C329.622,-29.3027 298.954,-23.2696 274.662,-18.4909"/>
<polygon fill="midnightblue" stroke="midnightblue" points="355.452,-37.9511 365.94,-36.4472 356.803,-31.0827 355.452,-37.9511"/>
</g>
</g>
</svg>
        <g id="navigator" transform="translate(0 0)" fill="#404254">
                <rect fill="#f2f5e9" fill-opacity="0.5" stroke="#606060" stroke-width=".5" x="0" y="0" width="60" height="60"/>
                <use id="zoomplus" xlink:href="#zoomPlus" x="17" y="9" onmousedown="handleZoom(evt,'in')"/>
                <use id="zoomminus" xlink:href="#zoomMin" x="42" y="9" onmousedown="handleZoom(evt,'out')"/>
                <use id="reset" xlink:href="#resetDef" x="30" y="36" onmousedown="handleReset()"/>
                <g id="arrowUp" xlink:href="#dirArrow" transform="translate(30 24)" onmousedown="handlePan(0,-1)">
                  <use xlink:href="#rim" fill="#404040">
                        <set attributeName="fill" to="#808080" begin="arrowUp.mouseover" end="arrowUp.mouseout"/>
                  </use>
                  <path fill="none" stroke="white" stroke-width="1.5" d="M0,-3.0v7 M-2.5,-0.5L0,-3.0L2.5,-0.5"/>
                </g>
                <g id="arrowRight" xlink:href="#dirArrow" transform="rotate(90) translate(36 -43)" onmousedown="handlePan(1,0)">
                  <use xlink:href="#rim" fill="#404040">
                        <set attributeName="fill" to="#808080" begin="arrowRight.mouseover" end="arrowRight.mouseout"/>
                  </use>
                  <path fill="none" stroke="white" stroke-width="1.5" d="M0,-3.0v7 M-2.5,-0.5L0,-3.0L2.5,-0.5"/>
                </g>
                <g id="arrowDown" xlink:href="#dirArrow" transform="rotate(180) translate(-30 -48)" onmousedown="handlePan(0,1)">
                  <use xlink:href="#rim" fill="#404040">
                        <set attributeName="fill" to="#808080" begin="arrowDown.mouseover" end="arrowDown.mouseout"/>
                  </use>
                  <path fill="none" stroke="white" stroke-width="1.5" d="M0,-3.0v7 M-2.5,-0.5L0,-3.0L2.5,-0.5"/>
                </g>
                <g id="arrowLeft" xlink:href="#dirArrow" transform="rotate(270) translate(-36 17)" onmousedown="handlePan(-1,0)">
                  <use xlink:href="#rim" fill="#404040">
                        <set attributeName="fill" to="#808080" begin="arrowLeft.mouseover" end="arrowLeft.mouseout"/>
                  </use>
                  <path fill="none" stroke="white" stroke-width="1.5" d="M0,-3.0v7 M-2.5,-0.5L0,-3.0L2.5,-0.5"/>
                </g>
        </g>
        <svg viewBox="0 0 15 15" width="100%" height="30px" preserveAspectRatio="xMaxYMin meet">
         <g id="arrow_out" transform="scale(0.3 0.3)">
          <a xlink:href="class_g_u_i_font_a60a9fdf52ee46948981d31ce14d2f005_icgraph_org.svg" target="_base">
           <rect id="button" ry="5" rx="5" y="6" x="6" height="38" width="38"
                fill="#f2f5e9" fill-opacity="0.5" stroke="#606060" stroke-width="1.0"/>
           <path id="arrow"
             d="M 11.500037,31.436501 C 11.940474,20.09759 22.043105,11.32322 32.158766,21.979434 L 37.068811,17.246167 C 37.068811,17.246167 37.088388,32 37.088388,32 L 22.160133,31.978069 C 22.160133,31.978069 26.997745,27.140456 26.997745,27.140456 C 18.528582,18.264221 13.291696,25.230495 11.500037,31.436501 z"
             style="fill:#404040;"/>
          </a>
         </g>
        </svg>
</svg>
