<?xml version="1.0" encoding="UTF-8" standalone="no"?>
<!DOCTYPE svg PUBLIC "-//W3C//DTD SVG 1.1//EN"
 "http://www.w3.org/Graphics/SVG/1.1/DTD/svg11.dtd">
<!-- Generated by graphviz version 2.38.0 (20140413.2041)
 -->
<!-- Title: Actor::Reset Pages: 1 -->
<svg width="1254pt" height="72pt"
 viewBox="0.00 0.00 1254.00 71.50" xmlns="http://www.w3.org/2000/svg" xmlns:xlink="http://www.w3.org/1999/xlink">
<g id="graph0" class="graph" transform="scale(1 1) rotate(0) translate(4 67.5)">
<title>Actor::Reset</title>
<polygon fill="white" stroke="none" points="-4,4 -4,-67.5 1250,-67.5 1250,4 -4,4"/>
<!-- Node1 -->
<g id="node1" class="node"><title>Node1</title>
<g id="a_node1"><a xlink:title=" ">
<polygon fill="#bfbfbf" stroke="black" points="1175,-25 1175,-44 1246,-44 1246,-25 1175,-25"/>
<text text-anchor="middle" x="1210.5" y="-32" font-family="Helvetica,sans-Serif" font-size="10.00">Actor::Reset</text>
</a>
</g>
</g>
<!-- Node2 -->
<g id="node2" class="node"><title>Node2</title>
<g id="a_node2"><a xlink:href="../../da/d35/struct_actor.html#a2a0ff4335a1ee9096df90f288c026c8b" target="_top" xlink:title=" ">
<polygon fill="white" stroke="black" points="1049.5,-44 1049.5,-63 1118.5,-63 1118.5,-44 1049.5,-44"/>
<text text-anchor="middle" x="1084" y="-51" font-family="Helvetica,sans-Serif" font-size="10.00">Actor::Actor</text>
</a>
</g>
</g>
<!-- Node1&#45;&gt;Node2 -->
<g id="edge1" class="edge"><title>Node1&#45;&gt;Node2</title>
<path fill="none" stroke="midnightblue" d="M1164.61,-41.3511C1149.44,-43.6658 1132.78,-46.2086 1118.64,-48.3669"/>
<polygon fill="midnightblue" stroke="midnightblue" points="1165.46,-44.7612 1174.82,-39.7926 1164.41,-37.8413 1165.46,-44.7612"/>
</g>
<!-- Node3 -->
<g id="node3" class="node"><title>Node3</title>
<g id="a_node3"><a xlink:href="../../da/d35/struct_actor.html#aed567139974c9737fe83b2f2dfb90e22" target="_top" xlink:title=" ">
<polygon fill="white" stroke="black" points="1029,-6 1029,-25 1139,-25 1139,-6 1029,-6"/>
<text text-anchor="middle" x="1084" y="-13" font-family="Helvetica,sans-Serif" font-size="10.00">Actor::AI_SpellAttack</text>
</a>
</g>
</g>
<!-- Node1&#45;&gt;Node3 -->
<g id="edge2" class="edge"><title>Node1&#45;&gt;Node3</title>
<path fill="none" stroke="midnightblue" d="M1164.89,-27.6921C1156.52,-26.4154 1147.7,-25.0679 1139.08,-23.7529"/>
<polygon fill="midnightblue" stroke="midnightblue" points="1164.41,-31.1587 1174.82,-29.2074 1165.46,-24.2388 1164.41,-31.1587"/>
</g>
<!-- Node4 -->
<g id="node4" class="node"><title>Node4</title>
<g id="a_node4"><a xlink:href="../../d1/d28/structstru262___turn_based.html#afd67d9dfc47051d6ffb03a917ad51ea7" target="_top" xlink:title=" ">
<polygon fill="white" stroke="black" points="886,-22.5 886,-52.5 993,-52.5 993,-22.5 886,-22.5"/>
<text text-anchor="start" x="894" y="-40.5" font-family="Helvetica,sans-Serif" font-size="10.00">stru262_TurnBased::</text>
<text text-anchor="middle" x="939.5" y="-29.5" font-family="Helvetica,sans-Serif" font-size="10.00">AIAttacks</text>
</a>
</g>
</g>
<!-- Node3&#45;&gt;Node4 -->
<g id="edge3" class="edge"><title>Node3&#45;&gt;Node4</title>
<path fill="none" stroke="midnightblue" d="M1018.78,-25.4153C1010.23,-26.7352 1001.54,-28.0762 993.217,-29.3612"/>
<polygon fill="midnightblue" stroke="midnightblue" points="1019.37,-28.8649 1028.72,-23.88 1018.3,-21.9469 1019.37,-28.8649"/>
</g>
<!-- Node7 -->
<g id="node7" class="node"><title>Node7</title>
<g id="a_node7"><a xlink:href="../../da/d35/struct_actor.html#a8ad58b6020b186e538e3e033f81c073a" target="_top" xlink:title=" ">
<polygon fill="white" stroke="black" points="455,-6 455,-25 564,-25 564,-6 455,-6"/>
<text text-anchor="middle" x="509.5" y="-13" font-family="Helvetica,sans-Serif" font-size="10.00">Actor::UpdateActorAI</text>
</a>
</g>
</g>
<!-- Node3&#45;&gt;Node7 -->
<g id="edge10" class="edge"><title>Node3&#45;&gt;Node7</title>
<path fill="none" stroke="midnightblue" d="M1018.7,-13.0955C1010.06,-12.849 1001.31,-12.6385 993,-12.5 818.358,-9.5901 774.642,-9.57386 600,-12.5 588.497,-12.6927 576.166,-13.0247 564.446,-13.3993"/>
<polygon fill="midnightblue" stroke="midnightblue" points="1018.65,-16.5957 1028.75,-13.3993 1018.86,-9.59889 1018.65,-16.5957"/>
</g>
<!-- Node5 -->
<g id="node5" class="node"><title>Node5</title>
<g id="a_node5"><a xlink:href="../../d1/d28/structstru262___turn_based.html#a1dde7742f9c5b02777ab10742a6e7b5e" target="_top" xlink:title=" ">
<polygon fill="white" stroke="black" points="743,-22.5 743,-52.5 850,-52.5 850,-22.5 743,-22.5"/>
<text text-anchor="start" x="751" y="-40.5" font-family="Helvetica,sans-Serif" font-size="10.00">stru262_TurnBased::</text>
<text text-anchor="middle" x="796.5" y="-29.5" font-family="Helvetica,sans-Serif" font-size="10.00">_4065B0</text>
</a>
</g>
</g>
<!-- Node4&#45;&gt;Node5 -->
<g id="edge4" class="edge"><title>Node4&#45;&gt;Node5</title>
<path fill="none" stroke="midnightblue" d="M875.95,-37.5C867.3,-37.5 858.49,-37.5 850.047,-37.5"/>
<polygon fill="midnightblue" stroke="midnightblue" points="875.997,-41.0001 885.997,-37.5 875.997,-34.0001 875.997,-41.0001"/>
</g>
<!-- Node6 -->
<g id="node6" class="node"><title>Node6</title>
<g id="a_node6"><a xlink:href="../../d1/d28/structstru262___turn_based.html#a594cf1020b0200b78abf16be8f3ab722" target="_top" xlink:title=" ">
<polygon fill="white" stroke="black" points="600,-22.5 600,-52.5 707,-52.5 707,-22.5 600,-22.5"/>
<text text-anchor="start" x="608" y="-40.5" font-family="Helvetica,sans-Serif" font-size="10.00">stru262_TurnBased::</text>
<text text-anchor="middle" x="653.5" y="-29.5" font-family="Helvetica,sans-Serif" font-size="10.00">AITurnBasedAction</text>
</a>
</g>
</g>
<!-- Node5&#45;&gt;Node6 -->
<g id="edge5" class="edge"><title>Node5&#45;&gt;Node6</title>
<path fill="none" stroke="midnightblue" d="M732.95,-37.5C724.3,-37.5 715.49,-37.5 707.047,-37.5"/>
<polygon fill="midnightblue" stroke="midnightblue" points="732.997,-41.0001 742.997,-37.5 732.997,-34.0001 732.997,-41.0001"/>
</g>
<!-- Node6&#45;&gt;Node7 -->
<g id="edge6" class="edge"><title>Node6&#45;&gt;Node7</title>
<path fill="none" stroke="midnightblue" d="M589.502,-27.7398C581.116,-26.4405 572.579,-25.1179 564.368,-23.8457"/>
<polygon fill="midnightblue" stroke="midnightblue" points="589.206,-31.2356 599.624,-29.308 590.278,-24.3182 589.206,-31.2356"/>
</g>
<!-- Node8 -->
<g id="node8" class="node"><title>Node8</title>
<g id="a_node8"><a xlink:href="../../d4/d06/class_application_1_1_game.html#aaa0ff18388b32b4e6198835a35e000d3" target="_top" xlink:title=" ">
<polygon fill="white" stroke="black" points="316,-0.5 316,-30.5 419,-30.5 419,-0.5 316,-0.5"/>
<text text-anchor="start" x="324" y="-18.5" font-family="Helvetica,sans-Serif" font-size="10.00">Application::Game::</text>
<text text-anchor="middle" x="367.5" y="-7.5" font-family="Helvetica,sans-Serif" font-size="10.00">GameLoop</text>
</a>
</g>
</g>
<!-- Node7&#45;&gt;Node8 -->
<g id="edge7" class="edge"><title>Node7&#45;&gt;Node8</title>
<path fill="none" stroke="midnightblue" d="M444.762,-15.5C436.157,-15.5 427.426,-15.5 419.093,-15.5"/>
<polygon fill="midnightblue" stroke="midnightblue" points="444.773,-19.0001 454.773,-15.5 444.773,-12.0001 444.773,-19.0001"/>
</g>
<!-- Node9 -->
<g id="node9" class="node"><title>Node9</title>
<g id="a_node9"><a xlink:href="../../d4/d06/class_application_1_1_game.html#a013ffd59e8fdf1c0a396da1dbe1681ca" target="_top" xlink:title=" ">
<polygon fill="white" stroke="black" points="156,-6 156,-25 280,-25 280,-6 156,-6"/>
<text text-anchor="middle" x="218" y="-13" font-family="Helvetica,sans-Serif" font-size="10.00">Application::Game::Loop</text>
</a>
</g>
</g>
<!-- Node8&#45;&gt;Node9 -->
<g id="edge8" class="edge"><title>Node8&#45;&gt;Node9</title>
<path fill="none" stroke="midnightblue" d="M305.59,-15.5C297.149,-15.5 288.478,-15.5 280.035,-15.5"/>
<polygon fill="midnightblue" stroke="midnightblue" points="305.739,-19.0001 315.739,-15.5 305.739,-12.0001 305.739,-19.0001"/>
</g>
<!-- Node10 -->
<g id="node10" class="node"><title>Node10</title>
<g id="a_node10"><a xlink:href="../../d4/d06/class_application_1_1_game.html#a96341ca5b54d90adc3ecb3bf0bcd2312" target="_top" xlink:title=" ">
<polygon fill="white" stroke="black" points="0,-6 0,-25 120,-25 120,-6 0,-6"/>
<text text-anchor="middle" x="60" y="-13" font-family="Helvetica,sans-Serif" font-size="10.00">Application::Game::Run</text>
</a>
</g>
</g>
<!-- Node9&#45;&gt;Node10 -->
<g id="edge9" class="edge"><title>Node9&#45;&gt;Node10</title>
<path fill="none" stroke="midnightblue" d="M145.546,-15.5C137.081,-15.5 128.513,-15.5 120.244,-15.5"/>
<polygon fill="midnightblue" stroke="midnightblue" points="145.792,-19.0001 155.792,-15.5 145.792,-12.0001 145.792,-19.0001"/>
</g>
</g>
</svg>
