<?xml version="1.0" encoding="UTF-8" standalone="no"?>
<!DOCTYPE svg PUBLIC "-//W3C//DTD SVG 1.1//EN"
 "http://www.w3.org/Graphics/SVG/1.1/DTD/svg11.dtd">
<!-- Generated by graphviz version 2.38.0 (20140413.2041)
 -->
<!-- Title: Actor::AI_Stun Pages: 1 -->
<svg width="841pt" height="227pt"
 viewBox="0.00 0.00 841.00 226.50" xmlns="http://www.w3.org/2000/svg" xmlns:xlink="http://www.w3.org/1999/xlink">
<g id="graph0" class="graph" transform="scale(1 1) rotate(0) translate(4 222.5)">
<title>Actor::AI_Stun</title>
<polygon fill="white" stroke="none" points="-4,4 -4,-222.5 837,-222.5 837,4 -4,4"/>
<!-- Node1 -->
<g id="node1" class="node"><title>Node1</title>
<g id="a_node1"><a xlink:title=" ">
<polygon fill="#bfbfbf" stroke="black" points="0,-88 0,-107 80,-107 80,-88 0,-88"/>
<text text-anchor="middle" x="40" y="-95" font-family="Helvetica,sans-Serif" font-size="10.00">Actor::AI_Stun</text>
</a>
</g>
</g>
<!-- Node2 -->
<g id="node2" class="node"><title>Node2</title>
<g id="a_node2"><a xlink:href="../../da/d35/struct_actor.html#a1263c7717de137c127b39df0cf4593c0" target="_top" xlink:title=" ">
<polygon fill="white" stroke="black" points="116,-107 116,-126 231,-126 231,-107 116,-107"/>
<text text-anchor="middle" x="173.5" y="-114" font-family="Helvetica,sans-Serif" font-size="10.00">Actor::GetDirectionInfo</text>
</a>
</g>
</g>
<!-- Node1&#45;&gt;Node2 -->
<g id="edge1" class="edge"><title>Node1&#45;&gt;Node2</title>
<path fill="none" stroke="midnightblue" d="M80.0983,-103.149C88.2393,-104.325 97.0365,-105.597 105.855,-106.871"/>
<polygon fill="midnightblue" stroke="midnightblue" points="105.389,-110.34 115.787,-108.306 106.39,-103.412 105.389,-110.34"/>
</g>
<!-- Node4 -->
<g id="node4" class="node"><title>Node4</title>
<g id="a_node4"><a xlink:href="../../da/d35/struct_actor.html#a6645c1dfb2912ca41e535d36e811f17c" target="_top" xlink:title=" ">
<polygon fill="white" stroke="black" points="127,-69 127,-88 220,-88 220,-69 127,-69"/>
<text text-anchor="middle" x="173.5" y="-76" font-family="Helvetica,sans-Serif" font-size="10.00">Actor::PlaySound</text>
</a>
</g>
</g>
<!-- Node1&#45;&gt;Node4 -->
<g id="edge3" class="edge"><title>Node1&#45;&gt;Node4</title>
<path fill="none" stroke="midnightblue" d="M80.0983,-91.8508C91.5728,-90.1929 104.351,-88.3466 116.655,-86.5688"/>
<polygon fill="midnightblue" stroke="midnightblue" points="117.444,-89.9913 126.841,-85.0972 116.443,-83.0632 117.444,-89.9913"/>
</g>
<!-- Node3 -->
<g id="node3" class="node"><title>Node3</title>
<g id="a_node3"><a xlink:href="../../d6/d38/structstru193__math.html#ae5c580a8915049b2fe00949acf3ca728" target="_top" xlink:title=" ">
<polygon fill="white" stroke="black" points="274.5,-107 274.5,-126 381.5,-126 381.5,-107 274.5,-107"/>
<text text-anchor="middle" x="328" y="-114" font-family="Helvetica,sans-Serif" font-size="10.00">stru193_math::Atan2</text>
</a>
</g>
</g>
<!-- Node2&#45;&gt;Node3 -->
<g id="edge2" class="edge"><title>Node2&#45;&gt;Node3</title>
<path fill="none" stroke="midnightblue" d="M231.285,-116.5C242.002,-116.5 253.269,-116.5 264.159,-116.5"/>
<polygon fill="midnightblue" stroke="midnightblue" points="264.455,-120 274.455,-116.5 264.455,-113 264.455,-120"/>
</g>
<!-- Node5 -->
<g id="node5" class="node"><title>Node5</title>
<g id="a_node5"><a xlink:href="../../d7/dc2/class_audio_player.html#afa0c135f321bd87b4d4ad2dcad3833e3" target="_top" xlink:title=" ">
<polygon fill="white" stroke="black" points="267,-69 267,-88 389,-88 389,-69 267,-69"/>
<text text-anchor="middle" x="328" y="-76" font-family="Helvetica,sans-Serif" font-size="10.00">AudioPlayer::PlaySound</text>
</a>
</g>
</g>
<!-- Node4&#45;&gt;Node5 -->
<g id="edge4" class="edge"><title>Node4&#45;&gt;Node5</title>
<path fill="none" stroke="midnightblue" d="M220.255,-78.5C231.702,-78.5 244.246,-78.5 256.585,-78.5"/>
<polygon fill="midnightblue" stroke="midnightblue" points="256.873,-82.0001 266.873,-78.5 256.873,-75.0001 256.873,-82.0001"/>
</g>
<!-- Node6 -->
<g id="node6" class="node"><title>Node6</title>
<g id="a_node6"><a xlink:href="../../d4/db9/_open_a_l_sound_provider_8cpp.html#a0d61058bc8900801bc227bc7b47881d7" target="_top" xlink:title=" ">
<polygon fill="white" stroke="black" points="435.5,-161 435.5,-180 538.5,-180 538.5,-161 435.5,-161"/>
<text text-anchor="middle" x="487" y="-168" font-family="Helvetica,sans-Serif" font-size="10.00">CreateAudioSample</text>
</a>
</g>
</g>
<!-- Node5&#45;&gt;Node6 -->
<g id="edge5" class="edge"><title>Node5&#45;&gt;Node6</title>
<path fill="none" stroke="midnightblue" d="M365.96,-88.0381C373.767,-90.6452 381.813,-93.7956 389,-97.5 419.055,-112.991 449.535,-137.735 468.104,-154.052"/>
<polygon fill="midnightblue" stroke="midnightblue" points="465.965,-156.835 475.753,-160.892 470.631,-151.617 465.965,-156.835"/>
</g>
<!-- Node8 -->
<g id="node8" class="node"><title>Node8</title>
<g id="a_node8"><a xlink:href="../../d7/dc2/class_audio_player.html#ae30d2f6cbd73b8e316a47b4694fe8960" target="_top" xlink:title=" ">
<polygon fill="white" stroke="black" points="425,-88 425,-107 549,-107 549,-88 425,-88"/>
<text text-anchor="middle" x="487" y="-95" font-family="Helvetica,sans-Serif" font-size="10.00">AudioPlayer::LoadSound</text>
</a>
</g>
</g>
<!-- Node5&#45;&gt;Node8 -->
<g id="edge7" class="edge"><title>Node5&#45;&gt;Node8</title>
<path fill="none" stroke="midnightblue" d="M389.251,-85.7916C397.642,-86.807 406.327,-87.8581 414.894,-88.8948"/>
<polygon fill="midnightblue" stroke="midnightblue" points="414.523,-92.3754 424.871,-90.1023 415.364,-85.4261 414.523,-92.3754"/>
</g>
<!-- Node13 -->
<g id="node13" class="node"><title>Node13</title>
<g id="a_node13"><a xlink:href="../../d6/d70/class_log.html#ac0de2621497ca3b2fbf208624c08bcdf" target="_top" xlink:title=" ">
<polygon fill="white" stroke="black" points="621,-47 621,-66 695,-66 695,-47 621,-47"/>
<text text-anchor="middle" x="658" y="-54" font-family="Helvetica,sans-Serif" font-size="10.00">Log::Warning</text>
</a>
</g>
</g>
<!-- Node5&#45;&gt;Node13 -->
<g id="edge15" class="edge"><title>Node5&#45;&gt;Node13</title>
<path fill="none" stroke="midnightblue" d="M389.16,-74.4649C453.015,-70.1819 552.55,-63.5058 610.604,-59.6119"/>
<polygon fill="midnightblue" stroke="midnightblue" points="610.852,-63.1032 620.596,-58.9418 610.384,-56.1189 610.852,-63.1032"/>
</g>
<!-- Node14 -->
<g id="node14" class="node"><title>Node14</title>
<g id="a_node14"><a xlink:href="../../d9/d98/class_open_a_l_sound_provider.html#a25ac61cd13253bb659672a1cc29ef22c" target="_top" xlink:title=" ">
<polygon fill="white" stroke="black" points="430,-0.5 430,-30.5 544,-30.5 544,-0.5 430,-0.5"/>
<text text-anchor="start" x="438" y="-18.5" font-family="Helvetica,sans-Serif" font-size="10.00">OpenALSoundProvider</text>
<text text-anchor="middle" x="487" y="-7.5" font-family="Helvetica,sans-Serif" font-size="10.00">::SetListenerPosition</text>
</a>
</g>
</g>
<!-- Node5&#45;&gt;Node14 -->
<g id="edge13" class="edge"><title>Node5&#45;&gt;Node14</title>
<path fill="none" stroke="midnightblue" d="M352.845,-68.9317C375.658,-59.7776 410.695,-45.7178 439.104,-34.3181"/>
<polygon fill="midnightblue" stroke="midnightblue" points="440.48,-37.5374 448.457,-30.565 437.873,-31.041 440.48,-37.5374"/>
</g>
<!-- Node7 -->
<g id="node7" class="node"><title>Node7</title>
<g id="a_node7"><a xlink:href="../../da/def/_media_8h.html#ab508e4ee3c70ec5e60273ec99af30a2e" target="_top" xlink:title=" ">
<polygon fill="white" stroke="black" points="585,-199 585,-218 731,-218 731,-199 585,-199"/>
<text text-anchor="middle" x="658" y="-206" font-family="Helvetica,sans-Serif" font-size="10.00">CreateAudioBufferDataSource</text>
</a>
</g>
</g>
<!-- Node6&#45;&gt;Node7 -->
<g id="edge6" class="edge"><title>Node6&#45;&gt;Node7</title>
<path fill="none" stroke="midnightblue" d="M530.646,-180.089C553.148,-185.149 580.948,-191.4 604.738,-196.749"/>
<polygon fill="midnightblue" stroke="midnightblue" points="604.137,-200.201 614.661,-198.98 605.672,-193.371 604.137,-200.201"/>
</g>
<!-- Node9 -->
<g id="node9" class="node"><title>Node9</title>
<g id="a_node9"><a xlink:href="../../da/d6a/_mem_buffer_8cpp.html#a685632d9cd2b61b24a9bfc649d54937e" target="_top" xlink:title=" ">
<polygon fill="white" stroke="black" points="615.5,-161 615.5,-180 700.5,-180 700.5,-161 615.5,-161"/>
<text text-anchor="middle" x="658" y="-168" font-family="Helvetica,sans-Serif" font-size="10.00">AllocMemBuffer</text>
</a>
</g>
</g>
<!-- Node8&#45;&gt;Node9 -->
<g id="edge8" class="edge"><title>Node8&#45;&gt;Node9</title>
<path fill="none" stroke="midnightblue" d="M502.545,-107.125C521.033,-118.994 554.251,-139.112 585,-151.5 591.445,-154.097 598.358,-156.441 605.258,-158.523"/>
<polygon fill="midnightblue" stroke="midnightblue" points="604.725,-162.011 615.302,-161.387 606.645,-155.279 604.725,-162.011"/>
</g>
<!-- Node10 -->
<g id="node10" class="node"><title>Node10</title>
<g id="a_node10"><a xlink:href="../../d7/dc2/class_audio_player.html#aac82d03b250711ed0ce64fa22dfe3a59" target="_top" xlink:title=" ">
<polygon fill="white" stroke="black" points="597,-123 597,-142 719,-142 719,-123 597,-123"/>
<text text-anchor="middle" x="658" y="-130" font-family="Helvetica,sans-Serif" font-size="10.00">AudioPlayer::FindSound</text>
</a>
</g>
</g>
<!-- Node8&#45;&gt;Node10 -->
<g id="edge9" class="edge"><title>Node8&#45;&gt;Node10</title>
<path fill="none" stroke="midnightblue" d="M534.18,-107.064C554.766,-111.327 579.201,-116.388 600.835,-120.868"/>
<polygon fill="midnightblue" stroke="midnightblue" points="600.374,-124.347 610.876,-122.948 601.793,-117.492 600.374,-124.347"/>
</g>
<!-- Node12 -->
<g id="node12" class="node"><title>Node12</title>
<g id="a_node12"><a xlink:href="../../d9/d3e/namespacezlib.html#ae552beaf4387a81c63a28b01a9cc7ab4" target="_top" xlink:title=" ">
<polygon fill="white" stroke="black" points="612,-85 612,-104 704,-104 704,-85 612,-85"/>
<text text-anchor="middle" x="658" y="-92" font-family="Helvetica,sans-Serif" font-size="10.00">zlib::Uncompress</text>
</a>
</g>
</g>
<!-- Node8&#45;&gt;Node12 -->
<g id="edge11" class="edge"><title>Node8&#45;&gt;Node12</title>
<path fill="none" stroke="midnightblue" d="M549.013,-96.4169C566.238,-96.1112 584.878,-95.7803 601.744,-95.4809"/>
<polygon fill="midnightblue" stroke="midnightblue" points="602.052,-98.9761 611.989,-95.299 601.928,-91.9772 602.052,-98.9761"/>
</g>
<!-- Node8&#45;&gt;Node13 -->
<g id="edge12" class="edge"><title>Node8&#45;&gt;Node13</title>
<path fill="none" stroke="midnightblue" d="M527.197,-87.9907C552.271,-81.9076 584.901,-73.9915 611.172,-67.6179"/>
<polygon fill="midnightblue" stroke="midnightblue" points="612.008,-71.0169 620.901,-65.2578 610.357,-64.2142 612.008,-71.0169"/>
</g>
<!-- Node11 -->
<g id="node11" class="node"><title>Node11</title>
<g id="a_node11"><a xlink:href="../../d8/d44/_strings_8cpp.html#ae591bae1416df2b3638ae859ad4ede6f" target="_top" xlink:title=" ">
<polygon fill="white" stroke="black" points="767,-123 767,-142 833,-142 833,-123 767,-123"/>
<text text-anchor="middle" x="800" y="-130" font-family="Helvetica,sans-Serif" font-size="10.00">MakeLower</text>
</a>
</g>
</g>
<!-- Node10&#45;&gt;Node11 -->
<g id="edge10" class="edge"><title>Node10&#45;&gt;Node11</title>
<path fill="none" stroke="midnightblue" d="M719.185,-132.5C731.796,-132.5 744.84,-132.5 756.636,-132.5"/>
<polygon fill="midnightblue" stroke="midnightblue" points="756.639,-136 766.639,-132.5 756.639,-129 756.639,-136"/>
</g>
<!-- Node15 -->
<g id="node15" class="node"><title>Node15</title>
<g id="a_node15"><a xlink:href="../../d1/d20/al_8h.html#acb8f6904370d9946f4ea496e21729415" target="_top" xlink:title=" ">
<polygon fill="white" stroke="black" points="625,-6 625,-25 691,-25 691,-6 625,-6"/>
<text text-anchor="middle" x="658" y="-13" font-family="Helvetica,sans-Serif" font-size="10.00">alListener3f</text>
</a>
</g>
</g>
<!-- Node14&#45;&gt;Node15 -->
<g id="edge14" class="edge"><title>Node14&#45;&gt;Node15</title>
<path fill="none" stroke="midnightblue" d="M544.275,-15.5C567.214,-15.5 593.29,-15.5 614.58,-15.5"/>
<polygon fill="midnightblue" stroke="midnightblue" points="614.612,-19.0001 624.612,-15.5 614.612,-12.0001 614.612,-19.0001"/>
</g>
</g>
</svg>
