<?xml version="1.0" encoding="UTF-8" standalone="no"?>
<!DOCTYPE svg PUBLIC "-//W3C//DTD SVG 1.1//EN"
 "http://www.w3.org/Graphics/SVG/1.1/DTD/svg11.dtd">
<!-- Generated by graphviz version 2.38.0 (20140413.2041)
 -->
<!-- Title: Actor::InitializeActors Pages: 1 -->
<svg width="567pt" height="344pt"
 viewBox="0.00 0.00 567.00 343.50" xmlns="http://www.w3.org/2000/svg" xmlns:xlink="http://www.w3.org/1999/xlink">
<g id="graph0" class="graph" transform="scale(1 1) rotate(0) translate(4 339.5)">
<title>Actor::InitializeActors</title>
<polygon fill="white" stroke="none" points="-4,4 -4,-339.5 563,-339.5 563,4 -4,4"/>
<!-- Node1 -->
<g id="node1" class="node"><title>Node1</title>
<g id="a_node1"><a xlink:title=" ">
<polygon fill="#bfbfbf" stroke="black" points="0,-152.5 0,-171.5 110,-171.5 110,-152.5 0,-152.5"/>
<text text-anchor="middle" x="55" y="-159.5" font-family="Helvetica,sans-Serif" font-size="10.00">Actor::InitializeActors</text>
</a>
</g>
</g>
<!-- Node2 -->
<g id="node2" class="node"><title>Node2</title>
<g id="a_node2"><a xlink:href="../../da/d35/struct_actor.html#a848b69de6c4e3f7917ad4902a002d7f0" target="_top" xlink:title=" ">
<polygon fill="white" stroke="black" points="146,-305 146,-335 265,-335 265,-305 146,-305"/>
<text text-anchor="start" x="154" y="-323" font-family="Helvetica,sans-Serif" font-size="10.00">Actor::_4031C1_update</text>
<text text-anchor="middle" x="205.5" y="-312" font-family="Helvetica,sans-Serif" font-size="10.00">_job_never_gets_called</text>
</a>
</g>
</g>
<!-- Node1&#45;&gt;Node2 -->
<g id="edge1" class="edge"><title>Node1&#45;&gt;Node2</title>
<path fill="none" stroke="midnightblue" d="M60.2014,-171.753C71.0271,-195.838 102.13,-258.802 146,-295 148.013,-296.661 150.152,-298.228 152.378,-299.704"/>
<polygon fill="midnightblue" stroke="midnightblue" points="150.91,-302.902 161.303,-304.958 154.461,-296.869 150.91,-302.902"/>
</g>
<!-- Node3 -->
<g id="node3" class="node"><title>Node3</title>
<g id="a_node3"><a xlink:href="../../da/d35/struct_actor.html#a29eeb19ef703b8a1b9b31e5fbaa7b5e3" target="_top" xlink:title=" ">
<polygon fill="white" stroke="black" points="162.5,-266.5 162.5,-285.5 248.5,-285.5 248.5,-266.5 162.5,-266.5"/>
<text text-anchor="middle" x="205.5" y="-273.5" font-family="Helvetica,sans-Serif" font-size="10.00">Actor::AI_Stand</text>
</a>
</g>
</g>
<!-- Node1&#45;&gt;Node3 -->
<g id="edge2" class="edge"><title>Node1&#45;&gt;Node3</title>
<path fill="none" stroke="midnightblue" d="M62.5142,-171.582C75.9289,-190.607 108.541,-233.346 146,-257 149.308,-259.089 152.868,-260.969 156.539,-262.658"/>
<polygon fill="midnightblue" stroke="midnightblue" points="155.236,-265.906 165.816,-266.469 157.896,-259.431 155.236,-265.906"/>
</g>
<!-- Node6 -->
<g id="node6" class="node"><title>Node6</title>
<g id="a_node6"><a xlink:href="../../da/d35/struct_actor.html#a77ae756013f17fc041403c5a03e67e56" target="_top" xlink:title=" ">
<polygon fill="white" stroke="black" points="166.5,-228.5 166.5,-247.5 244.5,-247.5 244.5,-228.5 166.5,-228.5"/>
<text text-anchor="middle" x="205.5" y="-235.5" font-family="Helvetica,sans-Serif" font-size="10.00">Actor::CanAct</text>
</a>
</g>
</g>
<!-- Node1&#45;&gt;Node6 -->
<g id="edge5" class="edge"><title>Node1&#45;&gt;Node6</title>
<path fill="none" stroke="midnightblue" d="M68.8216,-171.585C85.7636,-183.899 116.874,-205.313 146,-219 150.653,-221.186 155.624,-223.222 160.63,-225.087"/>
<polygon fill="midnightblue" stroke="midnightblue" points="159.629,-228.445 170.224,-228.457 161.949,-221.841 159.629,-228.445"/>
</g>
<!-- Node8 -->
<g id="node8" class="node"><title>Node8</title>
<g id="a_node8"><a xlink:href="../../d0/d14/struct_party.html#a476ed4592bd47bac04fd270bad96d5d1" target="_top" xlink:title=" ">
<polygon fill="white" stroke="black" points="159.5,-190.5 159.5,-209.5 251.5,-209.5 251.5,-190.5 159.5,-190.5"/>
<text text-anchor="middle" x="205.5" y="-197.5" font-family="Helvetica,sans-Serif" font-size="10.00">Party::IsPartyEvil</text>
</a>
</g>
</g>
<!-- Node1&#45;&gt;Node8 -->
<g id="edge7" class="edge"><title>Node1&#45;&gt;Node8</title>
<path fill="none" stroke="midnightblue" d="M93.4728,-171.589C112.892,-176.558 136.802,-182.677 157.454,-187.961"/>
<polygon fill="midnightblue" stroke="midnightblue" points="156.741,-191.392 167.297,-190.48 158.476,-184.61 156.741,-191.392"/>
</g>
<!-- Node10 -->
<g id="node10" class="node"><title>Node10</title>
<g id="a_node10"><a xlink:href="../../d0/d14/struct_party.html#ade5bcd0d435dc1261e2950597eef163e" target="_top" xlink:title=" ">
<polygon fill="white" stroke="black" points="155.5,-152.5 155.5,-171.5 255.5,-171.5 255.5,-152.5 155.5,-152.5"/>
<text text-anchor="middle" x="205.5" y="-159.5" font-family="Helvetica,sans-Serif" font-size="10.00">Party::IsPartyGood</text>
</a>
</g>
</g>
<!-- Node1&#45;&gt;Node10 -->
<g id="edge9" class="edge"><title>Node1&#45;&gt;Node10</title>
<path fill="none" stroke="midnightblue" d="M110.032,-162C121.449,-162 133.556,-162 145.157,-162"/>
<polygon fill="midnightblue" stroke="midnightblue" points="145.192,-165.5 155.192,-162 145.192,-158.5 145.192,-165.5"/>
</g>
<!-- Node11 -->
<g id="node11" class="node"><title>Node11</title>
<g id="a_node11"><a xlink:href="../../da/d35/struct_actor.html#ae652380272c68abe2af75d71c2306daf" target="_top" xlink:title=" ">
<polygon fill="white" stroke="black" points="161,-114.5 161,-133.5 250,-133.5 250,-114.5 161,-114.5"/>
<text text-anchor="middle" x="205.5" y="-121.5" font-family="Helvetica,sans-Serif" font-size="10.00">Actor::IsPeasant</text>
</a>
</g>
</g>
<!-- Node1&#45;&gt;Node11 -->
<g id="edge11" class="edge"><title>Node1&#45;&gt;Node11</title>
<path fill="none" stroke="midnightblue" d="M93.4728,-152.411C112.892,-147.442 136.802,-141.323 157.454,-136.039"/>
<polygon fill="midnightblue" stroke="midnightblue" points="158.476,-139.39 167.297,-133.52 156.741,-132.608 158.476,-139.39"/>
</g>
<!-- Node12 -->
<g id="node12" class="node"><title>Node12</title>
<g id="a_node12"><a xlink:href="../../da/d35/struct_actor.html#a900a6f2a872f1af62c0b14c8c6e9a7d5" target="_top" xlink:title=" ">
<polygon fill="white" stroke="black" points="147.5,-76.5 147.5,-95.5 263.5,-95.5 263.5,-76.5 147.5,-76.5"/>
<text text-anchor="middle" x="205.5" y="-83.5" font-family="Helvetica,sans-Serif" font-size="10.00">Actor::ResetAggressor</text>
</a>
</g>
</g>
<!-- Node1&#45;&gt;Node12 -->
<g id="edge12" class="edge"><title>Node1&#45;&gt;Node12</title>
<path fill="none" stroke="midnightblue" d="M68.8216,-152.415C85.7636,-140.101 116.874,-118.687 146,-105 150.653,-102.814 155.624,-100.778 160.63,-98.9128"/>
<polygon fill="midnightblue" stroke="midnightblue" points="161.949,-102.159 170.224,-95.5431 159.629,-95.5547 161.949,-102.159"/>
</g>
<!-- Node13 -->
<g id="node13" class="node"><title>Node13</title>
<g id="a_node13"><a xlink:href="../../da/d35/struct_actor.html#a76c0f9c1bef5c8b046ffc81395dd5932" target="_top" xlink:title=" ">
<polygon fill="white" stroke="black" points="152,-38.5 152,-57.5 259,-57.5 259,-38.5 152,-38.5"/>
<text text-anchor="middle" x="205.5" y="-45.5" font-family="Helvetica,sans-Serif" font-size="10.00">Actor::ResetHasItem</text>
</a>
</g>
</g>
<!-- Node1&#45;&gt;Node13 -->
<g id="edge13" class="edge"><title>Node1&#45;&gt;Node13</title>
<path fill="none" stroke="midnightblue" d="M62.5142,-152.418C75.9289,-133.393 108.541,-90.6539 146,-67 149.308,-64.911 152.868,-63.0307 156.539,-61.3422"/>
<polygon fill="midnightblue" stroke="midnightblue" points="157.896,-64.5686 165.816,-57.5306 155.236,-58.0939 157.896,-64.5686"/>
</g>
<!-- Node14 -->
<g id="node14" class="node"><title>Node14</title>
<g id="a_node14"><a xlink:href="../../d6/d70/class_log.html#ac0de2621497ca3b2fbf208624c08bcdf" target="_top" xlink:title=" ">
<polygon fill="white" stroke="black" points="168.5,-0.5 168.5,-19.5 242.5,-19.5 242.5,-0.5 168.5,-0.5"/>
<text text-anchor="middle" x="205.5" y="-7.5" font-family="Helvetica,sans-Serif" font-size="10.00">Log::Warning</text>
</a>
</g>
</g>
<!-- Node1&#45;&gt;Node14 -->
<g id="edge14" class="edge"><title>Node1&#45;&gt;Node14</title>
<path fill="none" stroke="midnightblue" d="M59.8545,-152.359C70.0895,-127.976 100.327,-63.3593 146,-29 149.901,-26.0651 154.275,-23.5724 158.828,-21.4577"/>
<polygon fill="midnightblue" stroke="midnightblue" points="160.365,-24.612 168.331,-17.6272 157.748,-18.1196 160.365,-24.612"/>
</g>
<!-- Node4 -->
<g id="node4" class="node"><title>Node4</title>
<g id="a_node4"><a xlink:href="../../da/d35/struct_actor.html#a1263c7717de137c127b39df0cf4593c0" target="_top" xlink:title=" ">
<polygon fill="white" stroke="black" points="301,-266.5 301,-285.5 416,-285.5 416,-266.5 301,-266.5"/>
<text text-anchor="middle" x="358.5" y="-273.5" font-family="Helvetica,sans-Serif" font-size="10.00">Actor::GetDirectionInfo</text>
</a>
</g>
</g>
<!-- Node3&#45;&gt;Node4 -->
<g id="edge3" class="edge"><title>Node3&#45;&gt;Node4</title>
<path fill="none" stroke="midnightblue" d="M248.562,-276C261.623,-276 276.357,-276 290.67,-276"/>
<polygon fill="midnightblue" stroke="midnightblue" points="290.988,-279.5 300.988,-276 290.988,-272.5 290.988,-279.5"/>
</g>
<!-- Node5 -->
<g id="node5" class="node"><title>Node5</title>
<g id="a_node5"><a xlink:href="../../d6/d38/structstru193__math.html#ae5c580a8915049b2fe00949acf3ca728" target="_top" xlink:title=" ">
<polygon fill="white" stroke="black" points="452,-266.5 452,-285.5 559,-285.5 559,-266.5 452,-266.5"/>
<text text-anchor="middle" x="505.5" y="-273.5" font-family="Helvetica,sans-Serif" font-size="10.00">stru193_math::Atan2</text>
</a>
</g>
</g>
<!-- Node4&#45;&gt;Node5 -->
<g id="edge4" class="edge"><title>Node4&#45;&gt;Node5</title>
<path fill="none" stroke="midnightblue" d="M416.392,-276C424.627,-276 433.144,-276 441.491,-276"/>
<polygon fill="midnightblue" stroke="midnightblue" points="441.557,-279.5 451.557,-276 441.557,-272.5 441.557,-279.5"/>
</g>
<!-- Node7 -->
<g id="node7" class="node"><title>Node7</title>
<g id="a_node7"><a xlink:href="../../db/d1e/struct_spell_buff.html#aa8120188fb27f4eac35052ee945cce00" target="_top" xlink:title=" ">
<polygon fill="white" stroke="black" points="315,-228.5 315,-247.5 402,-247.5 402,-228.5 315,-228.5"/>
<text text-anchor="middle" x="358.5" y="-235.5" font-family="Helvetica,sans-Serif" font-size="10.00">SpellBuff::Active</text>
</a>
</g>
</g>
<!-- Node6&#45;&gt;Node7 -->
<g id="edge6" class="edge"><title>Node6&#45;&gt;Node7</title>
<path fill="none" stroke="midnightblue" d="M244.604,-238C262.832,-238 284.95,-238 304.762,-238"/>
<polygon fill="midnightblue" stroke="midnightblue" points="304.879,-241.5 314.879,-238 304.879,-234.5 304.879,-241.5"/>
</g>
<!-- Node9 -->
<g id="node9" class="node"><title>Node9</title>
<g id="a_node9"><a xlink:href="../../da/db4/_party_8cpp.html#aa98e661066fa419e8f3b18a3fb7c1bb2" target="_top" xlink:title=" ">
<polygon fill="white" stroke="black" points="312.5,-171.5 312.5,-190.5 404.5,-190.5 404.5,-171.5 312.5,-171.5"/>
<text text-anchor="middle" x="358.5" y="-178.5" font-family="Helvetica,sans-Serif" font-size="10.00">_449B57_test_bit</text>
</a>
</g>
</g>
<!-- Node8&#45;&gt;Node9 -->
<g id="edge8" class="edge"><title>Node8&#45;&gt;Node9</title>
<path fill="none" stroke="midnightblue" d="M251.805,-194.299C267.704,-192.299 285.741,-190.029 302.357,-187.939"/>
<polygon fill="midnightblue" stroke="midnightblue" points="303.003,-191.385 312.487,-186.664 302.129,-184.44 303.003,-191.385"/>
</g>
<!-- Node10&#45;&gt;Node9 -->
<g id="edge10" class="edge"><title>Node10&#45;&gt;Node9</title>
<path fill="none" stroke="midnightblue" d="M255.525,-168.169C270.359,-170.035 286.753,-172.098 301.979,-174.014"/>
<polygon fill="midnightblue" stroke="midnightblue" points="301.942,-177.537 312.301,-175.313 302.816,-170.592 301.942,-177.537"/>
</g>
</g>
</svg>
