<?xml version="1.0" encoding="UTF-8" standalone="no"?>
<!DOCTYPE svg PUBLIC "-//W3C//DTD SVG 1.1//EN"
 "http://www.w3.org/Graphics/SVG/1.1/DTD/svg11.dtd">
<!-- Generated by graphviz version 2.38.0 (20140413.2041)
 -->
<!-- Title: Actor::AI_Pursue3 Pages: 1 -->
<!--zoomable 240 -->
<svg id="main" version="1.1" xmlns="http://www.w3.org/2000/svg" xmlns:xlink="http://www.w3.org/1999/xlink" xml:space="preserve" onload="init(evt)">
<style type="text/css"><![CDATA[
.edge:hover path { stroke: red; }
.edge:hover polygon { stroke: red; fill: red; }
]]></style>
<script type="text/javascript"><![CDATA[
var edges = document.getElementsByTagName('g');
if (edges && edges.length) {
  for (var i=0;i<edges.length;i++) {
    if (edges[i].id.substr(0,4)=='edge') {
      edges[i].setAttribute('class','edge');
    }
  }
}
]]></script>
        <defs>
                <circle id="rim" cx="0" cy="0" r="7"/>
                <circle id="rim2" cx="0" cy="0" r="3.5"/>
                <g id="zoomPlus">
                        <use xlink:href="#rim" fill="#404040">
                                <set attributeName="fill" to="#808080" begin="zoomplus.mouseover" end="zoomplus.mouseout"/>
                        </use>
                        <path d="M-4,0h8M0,-4v8" fill="none" stroke="white" stroke-width="1.5" pointer-events="none"/>
                </g>
                <g id="zoomMin">
                        <use xlink:href="#rim" fill="#404040">
                                <set attributeName="fill" to="#808080" begin="zoomminus.mouseover" end="zoomminus.mouseout"/>
                        </use>
                        <path d="M-4,0h8" fill="none" stroke="white" stroke-width="1.5" pointer-events="none"/>
                </g>
                <g id="dirArrow">
                        <path fill="none" stroke="white" stroke-width="1.5" d="M0,-3.0v7 M-2.5,-0.5L0,-3.0L2.5,-0.5"/>
                </g>
               <g id="resetDef">
                       <use xlink:href="#rim2" fill="#404040">
                               <set attributeName="fill" to="#808080" begin="reset.mouseover" end="reset.mouseout"/>
                       </use>
               </g>
        </defs>

<script type="text/javascript">
var viewWidth = 1191;
var viewHeight = 240;
var sectionId = 'dynsection-31';
</script>
<script xlink:href="../../svgpan.js"/>
<svg id="graph" class="graph">
<g id="viewport">
<title>Actor::AI_Pursue3</title>
<polygon fill="white" stroke="none" points="-4,4 -4,-236.259 1187,-236.259 1187,4 -4,4"/>
<!-- Node1 -->
<g id="node1" class="node"><title>Node1</title>
<g id="a_node1"><a xlink:title=" ">
<polygon fill="#bfbfbf" stroke="black" points="0,-83.5 0,-102.5 96,-102.5 96,-83.5 0,-83.5"/>
<text text-anchor="middle" x="48" y="-90.5" font-family="Helvetica,sans-Serif" font-size="10.00">Actor::AI_Pursue3</text>
</a>
</g>
</g>
<!-- Node2 -->
<g id="node2" class="node"><title>Node2</title>
<g id="a_node2"><a xlink:href="../../da/d35/struct_actor.html#a6e012ac29ba0000e4a99caf2433cfb7d" target="_top" xlink:title=" ">
<polygon fill="white" stroke="black" points="156.5,-121.5 156.5,-140.5 278.5,-140.5 278.5,-121.5 156.5,-121.5"/>
<text text-anchor="middle" x="217.5" y="-128.5" font-family="Helvetica,sans-Serif" font-size="10.00">Actor::AI_StandOrBored</text>
</a>
</g>
</g>
<!-- Node1&#45;&gt;Node2 -->
<g id="edge1" class="edge"><title>Node1&#45;&gt;Node2</title>
<path fill="none" stroke="midnightblue" d="M91.2673,-102.589C113.57,-107.649 141.123,-113.9 164.702,-119.249"/>
<polygon fill="midnightblue" stroke="midnightblue" points="164.01,-122.681 174.537,-121.48 165.559,-115.854 164.01,-122.681"/>
</g>
<!-- Node5 -->
<g id="node5" class="node"><title>Node5</title>
<g id="a_node5"><a xlink:href="../../da/d35/struct_actor.html#a1263c7717de137c127b39df0cf4593c0" target="_top" xlink:title=" ">
<polygon fill="white" stroke="black" points="620.5,-178.5 620.5,-197.5 735.5,-197.5 735.5,-178.5 620.5,-178.5"/>
<text text-anchor="middle" x="678" y="-185.5" font-family="Helvetica,sans-Serif" font-size="10.00">Actor::GetDirectionInfo</text>
</a>
</g>
</g>
<!-- Node1&#45;&gt;Node5 -->
<g id="edge25" class="edge"><title>Node1&#45;&gt;Node5</title>
<path fill="none" stroke="midnightblue" d="M60,-102.591C75.1685,-115.316 103.838,-137.613 132,-150 269.371,-210.425 311.893,-209.002 461,-226 513.99,-232.041 528.611,-235.992 581,-226 605.14,-221.396 630.958,-210.824 649.733,-201.998"/>
<polygon fill="midnightblue" stroke="midnightblue" points="651.384,-205.087 658.863,-197.582 648.336,-198.785 651.384,-205.087"/>
</g>
<!-- Node7 -->
<g id="node7" class="node"><title>Node7</title>
<g id="a_node7"><a xlink:href="../../da/d35/struct_actor.html#a6645c1dfb2912ca41e535d36e811f17c" target="_top" xlink:title=" ">
<polygon fill="white" stroke="black" points="474.5,-83.5 474.5,-102.5 567.5,-102.5 567.5,-83.5 474.5,-83.5"/>
<text text-anchor="middle" x="521" y="-90.5" font-family="Helvetica,sans-Serif" font-size="10.00">Actor::PlaySound</text>
</a>
</g>
</g>
<!-- Node1&#45;&gt;Node7 -->
<g id="edge26" class="edge"><title>Node1&#45;&gt;Node7</title>
<path fill="none" stroke="midnightblue" d="M96.3178,-93C183.897,-93 370.838,-93 464.338,-93"/>
<polygon fill="midnightblue" stroke="midnightblue" points="464.45,-96.5001 474.45,-93 464.449,-89.5001 464.45,-96.5001"/>
</g>
<!-- Node19 -->
<g id="node19" class="node"><title>Node19</title>
<g id="a_node19"><a xlink:href="../../da/d35/struct_actor.html#a170108c8e9216a25fe72026bd0ad55b8" target="_top" xlink:title=" ">
<polygon fill="white" stroke="black" points="461,-45.5 461,-64.5 581,-64.5 581,-45.5 461,-45.5"/>
<text text-anchor="middle" x="521" y="-52.5" font-family="Helvetica,sans-Serif" font-size="10.00">Actor::UpdateAnimation</text>
</a>
</g>
</g>
<!-- Node1&#45;&gt;Node19 -->
<g id="edge27" class="edge"><title>Node1&#45;&gt;Node19</title>
<path fill="none" stroke="midnightblue" d="M96.3178,-89.1824C179.906,-82.4386 354.008,-68.3921 450.993,-60.5674"/>
<polygon fill="midnightblue" stroke="midnightblue" points="451.307,-64.0536 460.993,-59.7607 450.744,-57.0763 451.307,-64.0536"/>
</g>
<!-- Node21 -->
<g id="node21" class="node"><title>Node21</title>
<g id="a_node21"><a xlink:href="../../d3/df5/struct_monster_stats.html#af740f33299fb75dc1dafe63bf58ef858" target="_top" xlink:title=" ">
<polygon fill="white" stroke="black" points="132,-7.5 132,-26.5 303,-26.5 303,-7.5 132,-7.5"/>
<text text-anchor="middle" x="217.5" y="-14.5" font-family="Helvetica,sans-Serif" font-size="10.00">MonsterStats::BelongsToSupertype</text>
</a>
</g>
</g>
<!-- Node1&#45;&gt;Node21 -->
<g id="edge24" class="edge"><title>Node1&#45;&gt;Node21</title>
<path fill="none" stroke="midnightblue" d="M61.8639,-83.3123C77.6506,-71.8186 105.584,-52.7399 132,-41 142.136,-36.4952 153.334,-32.6128 164.172,-29.3628"/>
<polygon fill="midnightblue" stroke="midnightblue" points="165.331,-32.6716 173.982,-26.5562 163.405,-25.9416 165.331,-32.6716"/>
</g>
<!-- Node3 -->
<g id="node3" class="node"><title>Node3</title>
<g id="a_node3"><a xlink:href="../../da/d35/struct_actor.html#a1b076465dc64fee3b7845c1c4134fb68" target="_top" xlink:title=" ">
<polygon fill="white" stroke="black" points="339,-121.5 339,-140.5 425,-140.5 425,-121.5 339,-121.5"/>
<text text-anchor="middle" x="382" y="-128.5" font-family="Helvetica,sans-Serif" font-size="10.00">Actor::AI_Bored</text>
</a>
</g>
</g>
<!-- Node2&#45;&gt;Node3 -->
<g id="edge2" class="edge"><title>Node2&#45;&gt;Node3</title>
<path fill="none" stroke="midnightblue" d="M278.547,-131C295.012,-131 312.725,-131 328.717,-131"/>
<polygon fill="midnightblue" stroke="midnightblue" points="328.946,-134.5 338.946,-131 328.946,-127.5 328.946,-134.5"/>
</g>
<!-- Node4 -->
<g id="node4" class="node"><title>Node4</title>
<g id="a_node4"><a xlink:href="../../da/d35/struct_actor.html#a29eeb19ef703b8a1b9b31e5fbaa7b5e3" target="_top" xlink:title=" ">
<polygon fill="white" stroke="black" points="478,-197.5 478,-216.5 564,-216.5 564,-197.5 478,-197.5"/>
<text text-anchor="middle" x="521" y="-204.5" font-family="Helvetica,sans-Serif" font-size="10.00">Actor::AI_Stand</text>
</a>
</g>
</g>
<!-- Node2&#45;&gt;Node4 -->
<g id="edge23" class="edge"><title>Node2&#45;&gt;Node4</title>
<path fill="none" stroke="midnightblue" d="M256.38,-140.548C311.1,-154.342 412.245,-179.838 472.084,-194.922"/>
<polygon fill="midnightblue" stroke="midnightblue" points="471.486,-198.38 482.038,-197.431 473.197,-191.593 471.486,-198.38"/>
</g>
<!-- Node3&#45;&gt;Node4 -->
<g id="edge3" class="edge"><title>Node3&#45;&gt;Node4</title>
<path fill="none" stroke="midnightblue" d="M395.749,-140.672C410.797,-151.806 436.839,-170.2 461,-183 468.214,-186.822 476.174,-190.435 483.85,-193.643"/>
<polygon fill="midnightblue" stroke="midnightblue" points="482.76,-196.977 493.343,-197.474 485.38,-190.486 482.76,-196.977"/>
</g>
<!-- Node3&#45;&gt;Node5 -->
<g id="edge7" class="edge"><title>Node3&#45;&gt;Node5</title>
<path fill="none" stroke="midnightblue" d="M425.123,-139.167C475.675,-148.968 560.754,-165.463 617.872,-176.536"/>
<polygon fill="midnightblue" stroke="midnightblue" points="617.361,-180.002 627.844,-178.47 618.693,-173.13 617.361,-180.002"/>
</g>
<!-- Node6 -->
<g id="node6" class="node"><title>Node6</title>
<g id="a_node6"><a xlink:href="../../d6/d38/structstru193__math.html#ae5c580a8915049b2fe00949acf3ca728" target="_top" xlink:title=" ">
<polygon fill="white" stroke="black" points="783.5,-173.5 783.5,-192.5 890.5,-192.5 890.5,-173.5 783.5,-173.5"/>
<text text-anchor="middle" x="837" y="-180.5" font-family="Helvetica,sans-Serif" font-size="10.00">stru193_math::Atan2</text>
</a>
</g>
</g>
<!-- Node3&#45;&gt;Node6 -->
<g id="edge6" class="edge"><title>Node3&#45;&gt;Node6</title>
<path fill="none" stroke="midnightblue" d="M425.186,-133.036C465.33,-135.196 527.39,-139.119 581,-145 646.905,-152.23 721.915,-163.815 773.429,-172.295"/>
<polygon fill="midnightblue" stroke="midnightblue" points="772.972,-175.767 783.409,-173.948 774.115,-168.861 772.972,-175.767"/>
</g>
<!-- Node3&#45;&gt;Node7 -->
<g id="edge8" class="edge"><title>Node3&#45;&gt;Node7</title>
<path fill="none" stroke="midnightblue" d="M417.571,-121.411C435.175,-116.528 456.779,-110.536 475.601,-105.315"/>
<polygon fill="midnightblue" stroke="midnightblue" points="476.739,-108.631 485.44,-102.586 474.868,-101.886 476.739,-108.631"/>
</g>
<!-- Node3&#45;&gt;Node19 -->
<g id="edge21" class="edge"><title>Node3&#45;&gt;Node19</title>
<path fill="none" stroke="midnightblue" d="M393.631,-121.494C408.002,-109.07 434.849,-87.3271 461,-74 465.27,-71.8241 469.839,-69.8303 474.475,-68.0211"/>
<polygon fill="midnightblue" stroke="midnightblue" points="475.799,-71.2642 484.009,-64.5675 473.415,-64.6827 475.799,-71.2642"/>
</g>
<!-- Node4&#45;&gt;Node5 -->
<g id="edge4" class="edge"><title>Node4&#45;&gt;Node5</title>
<path fill="none" stroke="midnightblue" d="M564.354,-201.808C578.545,-200.069 594.731,-198.085 610.32,-196.174"/>
<polygon fill="midnightblue" stroke="midnightblue" points="610.952,-199.622 620.452,-194.932 610.101,-192.674 610.952,-199.622"/>
</g>
<!-- Node5&#45;&gt;Node6 -->
<g id="edge5" class="edge"><title>Node5&#45;&gt;Node6</title>
<path fill="none" stroke="midnightblue" d="M735.681,-186.195C747.826,-185.808 760.729,-185.397 773.094,-185.003"/>
<polygon fill="midnightblue" stroke="midnightblue" points="773.442,-188.494 783.325,-184.678 773.219,-181.498 773.442,-188.494"/>
</g>
<!-- Node8 -->
<g id="node8" class="node"><title>Node8</title>
<g id="a_node8"><a xlink:href="../../d7/dc2/class_audio_player.html#afa0c135f321bd87b4d4ad2dcad3833e3" target="_top" xlink:title=" ">
<polygon fill="white" stroke="black" points="617,-83.5 617,-102.5 739,-102.5 739,-83.5 617,-83.5"/>
<text text-anchor="middle" x="678" y="-90.5" font-family="Helvetica,sans-Serif" font-size="10.00">AudioPlayer::PlaySound</text>
</a>
</g>
</g>
<!-- Node7&#45;&gt;Node8 -->
<g id="edge9" class="edge"><title>Node7&#45;&gt;Node8</title>
<path fill="none" stroke="midnightblue" d="M567.667,-93C579.977,-93 593.585,-93 606.899,-93"/>
<polygon fill="midnightblue" stroke="midnightblue" points="606.997,-96.5001 616.997,-93 606.997,-89.5001 606.997,-96.5001"/>
</g>
<!-- Node9 -->
<g id="node9" class="node"><title>Node9</title>
<g id="a_node9"><a xlink:href="../../d4/db9/_open_a_l_sound_provider_8cpp.html#a0d61058bc8900801bc227bc7b47881d7" target="_top" xlink:title=" ">
<polygon fill="white" stroke="black" points="785.5,-0.5 785.5,-19.5 888.5,-19.5 888.5,-0.5 785.5,-0.5"/>
<text text-anchor="middle" x="837" y="-7.5" font-family="Helvetica,sans-Serif" font-size="10.00">CreateAudioSample</text>
</a>
</g>
</g>
<!-- Node8&#45;&gt;Node9 -->
<g id="edge10" class="edge"><title>Node8&#45;&gt;Node9</title>
<path fill="none" stroke="midnightblue" d="M720.523,-83.4067C727.015,-80.9235 733.414,-77.8328 739,-74 760.119,-59.5092 753.847,-43.4408 775,-29 777.929,-27.0007 781.077,-25.2044 784.345,-23.5917"/>
<polygon fill="midnightblue" stroke="midnightblue" points="785.992,-26.6928 793.786,-19.5163 783.218,-20.266 785.992,-26.6928"/>
</g>
<!-- Node11 -->
<g id="node11" class="node"><title>Node11</title>
<g id="a_node11"><a xlink:href="../../d7/dc2/class_audio_player.html#ae30d2f6cbd73b8e316a47b4694fe8960" target="_top" xlink:title=" ">
<polygon fill="white" stroke="black" points="775,-126.5 775,-145.5 899,-145.5 899,-126.5 775,-126.5"/>
<text text-anchor="middle" x="837" y="-133.5" font-family="Helvetica,sans-Serif" font-size="10.00">AudioPlayer::LoadSound</text>
</a>
</g>
</g>
<!-- Node8&#45;&gt;Node11 -->
<g id="edge12" class="edge"><title>Node8&#45;&gt;Node11</title>
<path fill="none" stroke="midnightblue" d="M713.843,-102.543C736.71,-108.806 766.824,-117.054 791.43,-123.793"/>
<polygon fill="midnightblue" stroke="midnightblue" points="790.685,-127.218 801.254,-126.484 792.534,-120.466 790.685,-127.218"/>
</g>
<!-- Node16 -->
<g id="node16" class="node"><title>Node16</title>
<g id="a_node16"><a xlink:href="../../d6/d70/class_log.html#ac0de2621497ca3b2fbf208624c08bcdf" target="_top" xlink:title=" ">
<polygon fill="white" stroke="black" points="971,-88.5 971,-107.5 1045,-107.5 1045,-88.5 971,-88.5"/>
<text text-anchor="middle" x="1008" y="-95.5" font-family="Helvetica,sans-Serif" font-size="10.00">Log::Warning</text>
</a>
</g>
</g>
<!-- Node8&#45;&gt;Node16 -->
<g id="edge20" class="edge"><title>Node8&#45;&gt;Node16</title>
<path fill="none" stroke="midnightblue" d="M739.16,-93.9171C802.883,-94.8885 902.138,-96.4015 960.243,-97.2872"/>
<polygon fill="midnightblue" stroke="midnightblue" points="960.544,-100.792 970.596,-97.4451 960.65,-93.7929 960.544,-100.792"/>
</g>
<!-- Node17 -->
<g id="node17" class="node"><title>Node17</title>
<g id="a_node17"><a xlink:href="../../d9/d98/class_open_a_l_sound_provider.html#a25ac61cd13253bb659672a1cc29ef22c" target="_top" xlink:title=" ">
<polygon fill="white" stroke="black" points="780,-39 780,-69 894,-69 894,-39 780,-39"/>
<text text-anchor="start" x="788" y="-57" font-family="Helvetica,sans-Serif" font-size="10.00">OpenALSoundProvider</text>
<text text-anchor="middle" x="837" y="-46" font-family="Helvetica,sans-Serif" font-size="10.00">::SetListenerPosition</text>
</a>
</g>
</g>
<!-- Node8&#45;&gt;Node17 -->
<g id="edge18" class="edge"><title>Node8&#45;&gt;Node17</title>
<path fill="none" stroke="midnightblue" d="M717.407,-83.4595C733.262,-79.5209 752.1,-74.8413 770.041,-70.3846"/>
<polygon fill="midnightblue" stroke="midnightblue" points="771.031,-73.7454 779.892,-67.9377 769.343,-66.9518 771.031,-73.7454"/>
</g>
<!-- Node10 -->
<g id="node10" class="node"><title>Node10</title>
<g id="a_node10"><a xlink:href="../../da/def/_media_8h.html#ab508e4ee3c70ec5e60273ec99af30a2e" target="_top" xlink:title=" ">
<polygon fill="white" stroke="black" points="935,-0.5 935,-19.5 1081,-19.5 1081,-0.5 935,-0.5"/>
<text text-anchor="middle" x="1008" y="-7.5" font-family="Helvetica,sans-Serif" font-size="10.00">CreateAudioBufferDataSource</text>
</a>
</g>
</g>
<!-- Node9&#45;&gt;Node10 -->
<g id="edge11" class="edge"><title>Node9&#45;&gt;Node10</title>
<path fill="none" stroke="midnightblue" d="M888.706,-10C900.023,-10 912.31,-10 924.539,-10"/>
<polygon fill="midnightblue" stroke="midnightblue" points="924.775,-13.5001 934.775,-10 924.775,-6.5001 924.775,-13.5001"/>
</g>
<!-- Node12 -->
<g id="node12" class="node"><title>Node12</title>
<g id="a_node12"><a xlink:href="../../da/d6a/_mem_buffer_8cpp.html#a685632d9cd2b61b24a9bfc649d54937e" target="_top" xlink:title=" ">
<polygon fill="white" stroke="black" points="965.5,-164.5 965.5,-183.5 1050.5,-183.5 1050.5,-164.5 965.5,-164.5"/>
<text text-anchor="middle" x="1008" y="-171.5" font-family="Helvetica,sans-Serif" font-size="10.00">AllocMemBuffer</text>
</a>
</g>
</g>
<!-- Node11&#45;&gt;Node12 -->
<g id="edge13" class="edge"><title>Node11&#45;&gt;Node12</title>
<path fill="none" stroke="midnightblue" d="M880.646,-145.589C903.319,-150.687 931.371,-156.995 955.28,-162.371"/>
<polygon fill="midnightblue" stroke="midnightblue" points="954.721,-165.832 965.245,-164.611 956.256,-159.003 954.721,-165.832"/>
</g>
<!-- Node13 -->
<g id="node13" class="node"><title>Node13</title>
<g id="a_node13"><a xlink:href="../../d7/dc2/class_audio_player.html#aac82d03b250711ed0ce64fa22dfe3a59" target="_top" xlink:title=" ">
<polygon fill="white" stroke="black" points="947,-126.5 947,-145.5 1069,-145.5 1069,-126.5 947,-126.5"/>
<text text-anchor="middle" x="1008" y="-133.5" font-family="Helvetica,sans-Serif" font-size="10.00">AudioPlayer::FindSound</text>
</a>
</g>
</g>
<!-- Node11&#45;&gt;Node13 -->
<g id="edge14" class="edge"><title>Node11&#45;&gt;Node13</title>
<path fill="none" stroke="midnightblue" d="M899.013,-136C911.201,-136 924.096,-136 936.571,-136"/>
<polygon fill="midnightblue" stroke="midnightblue" points="936.926,-139.5 946.926,-136 936.926,-132.5 936.926,-139.5"/>
</g>
<!-- Node15 -->
<g id="node15" class="node"><title>Node15</title>
<g id="a_node15"><a xlink:href="../../d9/d3e/namespacezlib.html#ae552beaf4387a81c63a28b01a9cc7ab4" target="_top" xlink:title=" ">
<polygon fill="white" stroke="black" points="962,-202.5 962,-221.5 1054,-221.5 1054,-202.5 962,-202.5"/>
<text text-anchor="middle" x="1008" y="-209.5" font-family="Helvetica,sans-Serif" font-size="10.00">zlib::Uncompress</text>
</a>
</g>
</g>
<!-- Node11&#45;&gt;Node15 -->
<g id="edge16" class="edge"><title>Node11&#45;&gt;Node15</title>
<path fill="none" stroke="midnightblue" d="M862.464,-145.58C873.904,-150.47 887.506,-156.886 899,-164 916.47,-174.813 916.664,-183.731 935,-193 940.322,-195.69 946.063,-198.028 951.9,-200.053"/>
<polygon fill="midnightblue" stroke="midnightblue" points="951.166,-203.491 961.756,-203.172 953.278,-196.818 951.166,-203.491"/>
</g>
<!-- Node11&#45;&gt;Node16 -->
<g id="edge17" class="edge"><title>Node11&#45;&gt;Node16</title>
<path fill="none" stroke="midnightblue" d="M880.646,-126.411C905.139,-120.904 935.91,-113.985 960.953,-108.354"/>
<polygon fill="midnightblue" stroke="midnightblue" points="961.958,-111.715 970.946,-106.107 960.422,-104.886 961.958,-111.715"/>
</g>
<!-- Node14 -->
<g id="node14" class="node"><title>Node14</title>
<g id="a_node14"><a xlink:href="../../d8/d44/_strings_8cpp.html#ae591bae1416df2b3638ae859ad4ede6f" target="_top" xlink:title=" ">
<polygon fill="white" stroke="black" points="1117,-126.5 1117,-145.5 1183,-145.5 1183,-126.5 1117,-126.5"/>
<text text-anchor="middle" x="1150" y="-133.5" font-family="Helvetica,sans-Serif" font-size="10.00">MakeLower</text>
</a>
</g>
</g>
<!-- Node13&#45;&gt;Node14 -->
<g id="edge15" class="edge"><title>Node13&#45;&gt;Node14</title>
<path fill="none" stroke="midnightblue" d="M1069.19,-136C1081.8,-136 1094.84,-136 1106.64,-136"/>
<polygon fill="midnightblue" stroke="midnightblue" points="1106.64,-139.5 1116.64,-136 1106.64,-132.5 1106.64,-139.5"/>
</g>
<!-- Node18 -->
<g id="node18" class="node"><title>Node18</title>
<g id="a_node18"><a xlink:href="../../d1/d20/al_8h.html#acb8f6904370d9946f4ea496e21729415" target="_top" xlink:title=" ">
<polygon fill="white" stroke="black" points="975,-44.5 975,-63.5 1041,-63.5 1041,-44.5 975,-44.5"/>
<text text-anchor="middle" x="1008" y="-51.5" font-family="Helvetica,sans-Serif" font-size="10.00">alListener3f</text>
</a>
</g>
</g>
<!-- Node17&#45;&gt;Node18 -->
<g id="edge19" class="edge"><title>Node17&#45;&gt;Node18</title>
<path fill="none" stroke="midnightblue" d="M894.275,-54C917.214,-54 943.29,-54 964.58,-54"/>
<polygon fill="midnightblue" stroke="midnightblue" points="964.612,-57.5001 974.612,-54 964.612,-50.5001 964.612,-57.5001"/>
</g>
<!-- Node20 -->
<g id="node20" class="node"><title>Node20</title>
<g id="a_node20"><a xlink:href="../../da/d35/struct_actor.html#a331a8ef3ae56428b66738fd06c9a3158" target="_top" xlink:title=" ">
<polygon fill="white" stroke="black" points="620.5,-45.5 620.5,-64.5 735.5,-64.5 735.5,-45.5 620.5,-45.5"/>
<text text-anchor="middle" x="678" y="-52.5" font-family="Helvetica,sans-Serif" font-size="10.00">Actor::ResetAnimation</text>
</a>
</g>
</g>
<!-- Node19&#45;&gt;Node20 -->
<g id="edge22" class="edge"><title>Node19&#45;&gt;Node20</title>
<path fill="none" stroke="midnightblue" d="M581.041,-55C590.629,-55 600.617,-55 610.371,-55"/>
<polygon fill="midnightblue" stroke="midnightblue" points="610.424,-58.5001 620.424,-55 610.424,-51.5001 610.424,-58.5001"/>
</g>
</g>
</svg>
        <g id="navigator" transform="translate(0 0)" fill="#404254">
                <rect fill="#f2f5e9" fill-opacity="0.5" stroke="#606060" stroke-width=".5" x="0" y="0" width="60" height="60"/>
                <use id="zoomplus" xlink:href="#zoomPlus" x="17" y="9" onmousedown="handleZoom(evt,'in')"/>
                <use id="zoomminus" xlink:href="#zoomMin" x="42" y="9" onmousedown="handleZoom(evt,'out')"/>
                <use id="reset" xlink:href="#resetDef" x="30" y="36" onmousedown="handleReset()"/>
                <g id="arrowUp" xlink:href="#dirArrow" transform="translate(30 24)" onmousedown="handlePan(0,-1)">
                  <use xlink:href="#rim" fill="#404040">
                        <set attributeName="fill" to="#808080" begin="arrowUp.mouseover" end="arrowUp.mouseout"/>
                  </use>
                  <path fill="none" stroke="white" stroke-width="1.5" d="M0,-3.0v7 M-2.5,-0.5L0,-3.0L2.5,-0.5"/>
                </g>
                <g id="arrowRight" xlink:href="#dirArrow" transform="rotate(90) translate(36 -43)" onmousedown="handlePan(1,0)">
                  <use xlink:href="#rim" fill="#404040">
                        <set attributeName="fill" to="#808080" begin="arrowRight.mouseover" end="arrowRight.mouseout"/>
                  </use>
                  <path fill="none" stroke="white" stroke-width="1.5" d="M0,-3.0v7 M-2.5,-0.5L0,-3.0L2.5,-0.5"/>
                </g>
                <g id="arrowDown" xlink:href="#dirArrow" transform="rotate(180) translate(-30 -48)" onmousedown="handlePan(0,1)">
                  <use xlink:href="#rim" fill="#404040">
                        <set attributeName="fill" to="#808080" begin="arrowDown.mouseover" end="arrowDown.mouseout"/>
                  </use>
                  <path fill="none" stroke="white" stroke-width="1.5" d="M0,-3.0v7 M-2.5,-0.5L0,-3.0L2.5,-0.5"/>
                </g>
                <g id="arrowLeft" xlink:href="#dirArrow" transform="rotate(270) translate(-36 17)" onmousedown="handlePan(-1,0)">
                  <use xlink:href="#rim" fill="#404040">
                        <set attributeName="fill" to="#808080" begin="arrowLeft.mouseover" end="arrowLeft.mouseout"/>
                  </use>
                  <path fill="none" stroke="white" stroke-width="1.5" d="M0,-3.0v7 M-2.5,-0.5L0,-3.0L2.5,-0.5"/>
                </g>
        </g>
        <svg viewBox="0 0 15 15" width="100%" height="30px" preserveAspectRatio="xMaxYMin meet">
         <g id="arrow_out" transform="scale(0.3 0.3)">
          <a xlink:href="struct_actor_af3148a1df5916c9c4fbf7c81bed51415_cgraph_org.svg" target="_base">
           <rect id="button" ry="5" rx="5" y="6" x="6" height="38" width="38"
                fill="#f2f5e9" fill-opacity="0.5" stroke="#606060" stroke-width="1.0"/>
           <path id="arrow"
             d="M 11.500037,31.436501 C 11.940474,20.09759 22.043105,11.32322 32.158766,21.979434 L 37.068811,17.246167 C 37.068811,17.246167 37.088388,32 37.088388,32 L 22.160133,31.978069 C 22.160133,31.978069 26.997745,27.140456 26.997745,27.140456 C 18.528582,18.264221 13.291696,25.230495 11.500037,31.436501 z"
             style="fill:#404040;"/>
          </a>
         </g>
        </svg>
</svg>
