<?xml version="1.0" encoding="UTF-8" standalone="no"?>
<!DOCTYPE svg PUBLIC "-//W3C//DTD SVG 1.1//EN"
 "http://www.w3.org/Graphics/SVG/1.1/DTD/svg11.dtd">
<!-- Generated by graphviz version 2.38.0 (20140413.2041)
 -->
<!-- Title: Actor::_4273BB_DoesHitOtherActor Pages: 1 -->
<svg width="420pt" height="85pt"
 viewBox="0.00 0.00 420.00 85.00" xmlns="http://www.w3.org/2000/svg" xmlns:xlink="http://www.w3.org/1999/xlink">
<g id="graph0" class="graph" transform="scale(1 1) rotate(0) translate(4 81)">
<title>Actor::_4273BB_DoesHitOtherActor</title>
<polygon fill="white" stroke="none" points="-4,4 -4,-81 416,-81 416,4 -4,4"/>
<!-- Node1 -->
<g id="node1" class="node"><title>Node1</title>
<g id="a_node1"><a xlink:title=" ">
<polygon fill="#bfbfbf" stroke="black" points="0,-33 0,-63 149,-63 149,-33 0,-33"/>
<text text-anchor="start" x="8" y="-51" font-family="Helvetica,sans-Serif" font-size="10.00">Actor::_4273BB_DoesHitOther</text>
<text text-anchor="middle" x="74.5" y="-40" font-family="Helvetica,sans-Serif" font-size="10.00">Actor</text>
</a>
</g>
</g>
<!-- Node2 -->
<g id="node2" class="node"><title>Node2</title>
<g id="a_node2"><a xlink:href="../../db/d1e/struct_spell_buff.html#aa8120188fb27f4eac35052ee945cce00" target="_top" xlink:title=" ">
<polygon fill="white" stroke="black" points="185,-57.5 185,-76.5 272,-76.5 272,-57.5 185,-57.5"/>
<text text-anchor="middle" x="228.5" y="-64.5" font-family="Helvetica,sans-Serif" font-size="10.00">SpellBuff::Active</text>
</a>
</g>
</g>
<!-- Node1&#45;&gt;Node2 -->
<g id="edge1" class="edge"><title>Node1&#45;&gt;Node2</title>
<path fill="none" stroke="midnightblue" d="M149.274,-57.2217C157.985,-58.3107 166.736,-59.4045 175.067,-60.4459"/>
<polygon fill="midnightblue" stroke="midnightblue" points="174.634,-63.9189 184.991,-61.6863 175.502,-56.9729 174.634,-63.9189"/>
</g>
<!-- Node3 -->
<g id="node3" class="node"><title>Node3</title>
<g id="a_node3"><a xlink:href="../../db/d1e/struct_spell_buff.html#a05bb78040b623168fa0fcc66764d1871" target="_top" xlink:title=" ">
<polygon fill="white" stroke="black" points="185.5,-19.5 185.5,-38.5 271.5,-38.5 271.5,-19.5 185.5,-19.5"/>
<text text-anchor="middle" x="228.5" y="-26.5" font-family="Helvetica,sans-Serif" font-size="10.00">SpellBuff::Reset</text>
</a>
</g>
</g>
<!-- Node1&#45;&gt;Node3 -->
<g id="edge2" class="edge"><title>Node1&#45;&gt;Node3</title>
<path fill="none" stroke="midnightblue" d="M149.274,-38.7783C158.093,-37.6759 166.952,-36.5685 175.375,-35.5156"/>
<polygon fill="midnightblue" stroke="midnightblue" points="175.914,-38.9756 185.402,-34.2622 175.045,-32.0297 175.914,-38.9756"/>
</g>
<!-- Node4 -->
<g id="node4" class="node"><title>Node4</title>
<g id="a_node4"><a xlink:href="../../db/dca/struct_other_overlay.html#a5398dc06bba4fa8c1bbfa026ace4cbb2" target="_top" xlink:title=" ">
<polygon fill="white" stroke="black" points="308,-38.5 308,-57.5 412,-57.5 412,-38.5 308,-38.5"/>
<text text-anchor="middle" x="360" y="-45.5" font-family="Helvetica,sans-Serif" font-size="10.00">OtherOverlay::Reset</text>
</a>
</g>
</g>
<!-- Node3&#45;&gt;Node4 -->
<g id="edge3" class="edge"><title>Node3&#45;&gt;Node4</title>
<path fill="none" stroke="midnightblue" d="M271.545,-35.1688C279.916,-36.3969 288.866,-37.7101 297.73,-39.0105"/>
<polygon fill="midnightblue" stroke="midnightblue" points="297.262,-42.4793 307.664,-40.4681 298.278,-35.5534 297.262,-42.4793"/>
</g>
<!-- Node5 -->
<g id="node5" class="node"><title>Node5</title>
<g id="a_node5"><a xlink:href="../../df/dc2/struct_game_time.html#ab85c95665b71cdbbfb8f0c3ee03d8f2d" target="_top" xlink:title=" ">
<polygon fill="white" stroke="black" points="312.5,-0.5 312.5,-19.5 407.5,-19.5 407.5,-0.5 312.5,-0.5"/>
<text text-anchor="middle" x="360" y="-7.5" font-family="Helvetica,sans-Serif" font-size="10.00">GameTime::Reset</text>
</a>
</g>
</g>
<!-- Node3&#45;&gt;Node5 -->
<g id="edge4" class="edge"><title>Node3&#45;&gt;Node5</title>
<path fill="none" stroke="midnightblue" d="M271.545,-22.8312C281.294,-21.4009 291.829,-19.8553 302.096,-18.3488"/>
<polygon fill="midnightblue" stroke="midnightblue" points="302.85,-21.7758 312.236,-16.8611 301.834,-14.8499 302.85,-21.7758"/>
</g>
</g>
</svg>
