<?xml version="1.0" encoding="UTF-8" standalone="no"?>
<!DOCTYPE svg PUBLIC "-//W3C//DTD SVG 1.1//EN"
 "http://www.w3.org/Graphics/SVG/1.1/DTD/svg11.dtd">
<!-- Generated by graphviz version 2.38.0 (20140413.2041)
 -->
<!-- Title: Actor::AI_SpellAttack Pages: 1 -->
<!--zoomable 594 -->
<svg id="main" version="1.1" xmlns="http://www.w3.org/2000/svg" xmlns:xlink="http://www.w3.org/1999/xlink" xml:space="preserve" onload="init(evt)">
<style type="text/css"><![CDATA[
.edge:hover path { stroke: red; }
.edge:hover polygon { stroke: red; fill: red; }
]]></style>
<script type="text/javascript"><![CDATA[
var edges = document.getElementsByTagName('g');
if (edges && edges.length) {
  for (var i=0;i<edges.length;i++) {
    if (edges[i].id.substr(0,4)=='edge') {
      edges[i].setAttribute('class','edge');
    }
  }
}
]]></script>
        <defs>
                <circle id="rim" cx="0" cy="0" r="7"/>
                <circle id="rim2" cx="0" cy="0" r="3.5"/>
                <g id="zoomPlus">
                        <use xlink:href="#rim" fill="#404040">
                                <set attributeName="fill" to="#808080" begin="zoomplus.mouseover" end="zoomplus.mouseout"/>
                        </use>
                        <path d="M-4,0h8M0,-4v8" fill="none" stroke="white" stroke-width="1.5" pointer-events="none"/>
                </g>
                <g id="zoomMin">
                        <use xlink:href="#rim" fill="#404040">
                                <set attributeName="fill" to="#808080" begin="zoomminus.mouseover" end="zoomminus.mouseout"/>
                        </use>
                        <path d="M-4,0h8" fill="none" stroke="white" stroke-width="1.5" pointer-events="none"/>
                </g>
                <g id="dirArrow">
                        <path fill="none" stroke="white" stroke-width="1.5" d="M0,-3.0v7 M-2.5,-0.5L0,-3.0L2.5,-0.5"/>
                </g>
               <g id="resetDef">
                       <use xlink:href="#rim2" fill="#404040">
                               <set attributeName="fill" to="#808080" begin="reset.mouseover" end="reset.mouseout"/>
                       </use>
               </g>
        </defs>

<script type="text/javascript">
var viewWidth = 922;
var viewHeight = 594;
var sectionId = 'dynsection-75';
</script>
<script xlink:href="../../svgpan.js"/>
<svg id="graph" class="graph">
<g id="viewport">
<title>Actor::AI_SpellAttack</title>
<polygon fill="white" stroke="none" points="-4,4 -4,-590 918,-590 918,4 -4,4"/>
<!-- Node1 -->
<g id="node1" class="node"><title>Node1</title>
<g id="a_node1"><a xlink:title=" ">
<polygon fill="#bfbfbf" stroke="black" points="0,-266.5 0,-285.5 110,-285.5 110,-266.5 0,-266.5"/>
<text text-anchor="middle" x="55" y="-273.5" font-family="Helvetica,sans-Serif" font-size="10.00">Actor::AI_SpellAttack</text>
</a>
</g>
</g>
<!-- Node2 -->
<g id="node2" class="node"><title>Node2</title>
<g id="a_node2"><a xlink:href="../../db/d28/structstru319.html#a50d5e3e7c9a0c051896d5714cfe65c74" target="_top" xlink:title=" ">
<polygon fill="white" stroke="black" points="172,-566.5 172,-585.5 264,-585.5 264,-566.5 172,-566.5"/>
<text text-anchor="middle" x="218" y="-573.5" font-family="Helvetica,sans-Serif" font-size="10.00">stru319::_427546</text>
</a>
</g>
</g>
<!-- Node1&#45;&gt;Node2 -->
<g id="edge1" class="edge"><title>Node1&#45;&gt;Node2</title>
<path fill="none" stroke="midnightblue" d="M55.987,-285.671C56.4804,-325.54 63.8468,-478.736 146,-557 150.668,-561.447 156.26,-564.879 162.229,-567.524"/>
<polygon fill="midnightblue" stroke="midnightblue" points="161.247,-570.892 171.84,-571.063 163.666,-564.323 161.247,-570.892"/>
</g>
<!-- Node3 -->
<g id="node3" class="node"><title>Node3</title>
<g id="a_node3"><a xlink:href="../../d8/df0/struct_other_overlay_list.html#a654e0f796a574ab0c25fe8f2fe83167b" target="_top" xlink:title=" ">
<polygon fill="white" stroke="black" points="170.5,-517 170.5,-547 265.5,-547 265.5,-517 170.5,-517"/>
<text text-anchor="start" x="178.5" y="-535" font-family="Helvetica,sans-Serif" font-size="10.00">OtherOverlayList::</text>
<text text-anchor="middle" x="218" y="-524" font-family="Helvetica,sans-Serif" font-size="10.00">_4418B1</text>
</a>
</g>
</g>
<!-- Node1&#45;&gt;Node3 -->
<g id="edge2" class="edge"><title>Node1&#45;&gt;Node3</title>
<path fill="none" stroke="midnightblue" d="M56.9565,-285.928C60.882,-321.234 78.8783,-442.055 146,-507 150.332,-511.191 155.408,-514.684 160.819,-517.594"/>
<polygon fill="midnightblue" stroke="midnightblue" points="159.628,-520.9 170.169,-521.96 162.589,-514.558 159.628,-520.9"/>
</g>
<!-- Node4 -->
<g id="node4" class="node"><title>Node4</title>
<g id="a_node4"><a xlink:href="../../db/d64/struct_spell_fx_renderer.html#a8dff419ec9f08f5afb55969c6f7c4f21" target="_top" xlink:title=" ">
<polygon fill="white" stroke="black" points="151,-456.5 151,-497.5 285,-497.5 285,-456.5 151,-456.5"/>
<text text-anchor="start" x="159" y="-485.5" font-family="Helvetica,sans-Serif" font-size="10.00">SpellFxRenderer::_4A7E89</text>
<text text-anchor="start" x="159" y="-474.5" font-family="Helvetica,sans-Serif" font-size="10.00">_sparkles_on_actor_after</text>
<text text-anchor="middle" x="218" y="-463.5" font-family="Helvetica,sans-Serif" font-size="10.00">_it_casts_buff</text>
</a>
</g>
</g>
<!-- Node1&#45;&gt;Node4 -->
<g id="edge3" class="edge"><title>Node1&#45;&gt;Node4</title>
<path fill="none" stroke="midnightblue" d="M58.533,-285.554C66.5334,-313.997 93.8719,-399.11 146,-447 147.321,-448.214 148.699,-449.383 150.123,-450.508"/>
<polygon fill="midnightblue" stroke="midnightblue" points="148.517,-453.654 158.726,-456.487 152.512,-447.906 148.517,-453.654"/>
</g>
<!-- Node6 -->
<g id="node6" class="node"><title>Node6</title>
<g id="a_node6"><a xlink:href="../../db/d1e/struct_spell_buff.html#a8803557ab6370bc592c8cc85e0d59bb1" target="_top" xlink:title=" ">
<polygon fill="white" stroke="black" points="175,-418.5 175,-437.5 261,-437.5 261,-418.5 175,-418.5"/>
<text text-anchor="middle" x="218" y="-425.5" font-family="Helvetica,sans-Serif" font-size="10.00">SpellBuff::Apply</text>
</a>
</g>
</g>
<!-- Node1&#45;&gt;Node6 -->
<g id="edge5" class="edge"><title>Node1&#45;&gt;Node6</title>
<path fill="none" stroke="midnightblue" d="M59.7489,-285.786C69.7361,-310.507 99.4397,-375.853 146,-409 151.657,-413.027 158.118,-416.201 164.784,-418.702"/>
<polygon fill="midnightblue" stroke="midnightblue" points="164.038,-422.14 174.63,-421.906 166.204,-415.483 164.038,-422.14"/>
</g>
<!-- Node8 -->
<g id="node8" class="node"><title>Node8</title>
<g id="a_node8"><a xlink:href="../../d6/d38/structstru193__math.html#ae5c580a8915049b2fe00949acf3ca728" target="_top" xlink:title=" ">
<polygon fill="white" stroke="black" points="164.5,-380.5 164.5,-399.5 271.5,-399.5 271.5,-380.5 164.5,-380.5"/>
<text text-anchor="middle" x="218" y="-387.5" font-family="Helvetica,sans-Serif" font-size="10.00">stru193_math::Atan2</text>
</a>
</g>
</g>
<!-- Node1&#45;&gt;Node8 -->
<g id="edge7" class="edge"><title>Node1&#45;&gt;Node8</title>
<path fill="none" stroke="midnightblue" d="M62.4106,-285.751C75.6389,-305.08 107.932,-348.339 146,-371 149.639,-373.166 153.527,-375.09 157.54,-376.798"/>
<polygon fill="midnightblue" stroke="midnightblue" points="156.476,-380.138 167.068,-380.404 158.954,-373.591 156.476,-380.138"/>
</g>
<!-- Node9 -->
<g id="node9" class="node"><title>Node9</title>
<g id="a_node9"><a xlink:href="../../d0/d5a/struct_sprite_object.html#acc34bdc1ca30537412a1509a39f98168" target="_top" xlink:title=" ">
<polygon fill="white" stroke="black" points="165.5,-342.5 165.5,-361.5 270.5,-361.5 270.5,-342.5 165.5,-342.5"/>
<text text-anchor="middle" x="218" y="-349.5" font-family="Helvetica,sans-Serif" font-size="10.00">SpriteObject::Create</text>
</a>
</g>
</g>
<!-- Node1&#45;&gt;Node9 -->
<g id="edge8" class="edge"><title>Node1&#45;&gt;Node9</title>
<path fill="none" stroke="midnightblue" d="M68.4253,-285.606C85.1834,-298.143 116.355,-320.009 146,-333 151.466,-335.395 157.304,-337.549 163.196,-339.471"/>
<polygon fill="midnightblue" stroke="midnightblue" points="162.521,-342.923 173.106,-342.485 164.558,-336.226 162.521,-342.923"/>
</g>
<!-- Node13 -->
<g id="node13" class="node"><title>Node13</title>
<g id="a_node13"><a xlink:href="../../df/dc2/struct_game_time.html#a06d361d87d87ee254e6c14ce035e6f58" target="_top" xlink:title=" ">
<polygon fill="white" stroke="black" points="154.5,-266.5 154.5,-285.5 281.5,-285.5 281.5,-266.5 154.5,-266.5"/>
<text text-anchor="middle" x="218" y="-273.5" font-family="Helvetica,sans-Serif" font-size="10.00">GameTime::FromMinutes</text>
</a>
</g>
</g>
<!-- Node1&#45;&gt;Node13 -->
<g id="edge13" class="edge"><title>Node1&#45;&gt;Node13</title>
<path fill="none" stroke="midnightblue" d="M110.059,-276C121.081,-276 132.847,-276 144.394,-276"/>
<polygon fill="midnightblue" stroke="midnightblue" points="144.462,-279.5 154.462,-276 144.461,-272.5 144.462,-279.5"/>
</g>
<!-- Node15 -->
<g id="node15" class="node"><title>Node15</title>
<g id="a_node15"><a xlink:href="../../da/d35/struct_actor.html#a441d491a322c7d95290c13f5ece8bb1c" target="_top" xlink:title=" ">
<polygon fill="white" stroke="black" points="164.5,-190.5 164.5,-209.5 271.5,-209.5 271.5,-190.5 164.5,-190.5"/>
<text text-anchor="middle" x="218" y="-197.5" font-family="Helvetica,sans-Serif" font-size="10.00">Actor::GetObjDescId</text>
</a>
</g>
</g>
<!-- Node1&#45;&gt;Node15 -->
<g id="edge15" class="edge"><title>Node1&#45;&gt;Node15</title>
<path fill="none" stroke="midnightblue" d="M68.4253,-266.394C85.1834,-253.857 116.355,-231.991 146,-219 151.466,-216.605 157.304,-214.451 163.196,-212.529"/>
<polygon fill="midnightblue" stroke="midnightblue" points="164.558,-215.774 173.106,-209.515 162.521,-209.077 164.558,-215.774"/>
</g>
<!-- Node17 -->
<g id="node17" class="node"><title>Node17</title>
<g id="a_node17"><a xlink:href="../../d0/d14/struct_party.html#a2e22e5307901cb1acb688185168b6161" target="_top" xlink:title=" ">
<polygon fill="white" stroke="black" points="160.5,-228.5 160.5,-247.5 275.5,-247.5 275.5,-228.5 160.5,-228.5"/>
<text text-anchor="middle" x="218" y="-235.5" font-family="Helvetica,sans-Serif" font-size="10.00">Party::GetPlayingTime</text>
</a>
</g>
</g>
<!-- Node1&#45;&gt;Node17 -->
<g id="edge17" class="edge"><title>Node1&#45;&gt;Node17</title>
<path fill="none" stroke="midnightblue" d="M96.6271,-266.411C117.968,-261.374 144.312,-255.156 166.908,-249.823"/>
<polygon fill="midnightblue" stroke="midnightblue" points="167.736,-253.224 176.665,-247.52 166.128,-246.411 167.736,-253.224"/>
</g>
<!-- Node18 -->
<g id="node18" class="node"><title>Node18</title>
<g id="a_node18"><a xlink:href="../../d6/d9e/struct_indoor_location.html#aaaf5a1255bb773cc796685052c9abd29" target="_top" xlink:title=" ">
<polygon fill="white" stroke="black" points="153,-304.5 153,-323.5 283,-323.5 283,-304.5 153,-304.5"/>
<text text-anchor="middle" x="218" y="-311.5" font-family="Helvetica,sans-Serif" font-size="10.00">IndoorLocation::GetSector</text>
</a>
</g>
</g>
<!-- Node1&#45;&gt;Node18 -->
<g id="edge18" class="edge"><title>Node1&#45;&gt;Node18</title>
<path fill="none" stroke="midnightblue" d="M96.6271,-285.589C117.968,-290.626 144.312,-296.844 166.908,-302.177"/>
<polygon fill="midnightblue" stroke="midnightblue" points="166.128,-305.589 176.665,-304.48 167.736,-298.776 166.128,-305.589"/>
</g>
<!-- Node20 -->
<g id="node20" class="node"><title>Node20</title>
<g id="a_node20"><a xlink:href="../../d7/dc2/class_audio_player.html#afa0c135f321bd87b4d4ad2dcad3833e3" target="_top" xlink:title=" ">
<polygon fill="white" stroke="black" points="337,-133.5 337,-152.5 459,-152.5 459,-133.5 337,-133.5"/>
<text text-anchor="middle" x="398" y="-140.5" font-family="Helvetica,sans-Serif" font-size="10.00">AudioPlayer::PlaySound</text>
</a>
</g>
</g>
<!-- Node1&#45;&gt;Node20 -->
<g id="edge21" class="edge"><title>Node1&#45;&gt;Node20</title>
<path fill="none" stroke="midnightblue" d="M59.0268,-266.221C67.6413,-240.316 95.0232,-170.056 146,-143 211.314,-108.334 300.322,-119.624 352.916,-131.178"/>
<polygon fill="midnightblue" stroke="midnightblue" points="352.402,-134.651 362.932,-133.479 353.969,-127.829 352.402,-134.651"/>
</g>
<!-- Node31 -->
<g id="node31" class="node"><title>Node31</title>
<g id="a_node31"><a xlink:href="../../d7/dc2/class_audio_player.html#ad938453bac4a71f0b6e6de615460e957" target="_top" xlink:title=" ">
<polygon fill="white" stroke="black" points="146,-152.5 146,-171.5 290,-171.5 290,-152.5 146,-152.5"/>
<text text-anchor="middle" x="218" y="-159.5" font-family="Helvetica,sans-Serif" font-size="10.00">AudioPlayer::PlaySpellSound</text>
</a>
</g>
</g>
<!-- Node1&#45;&gt;Node31 -->
<g id="edge33" class="edge"><title>Node1&#45;&gt;Node31</title>
<path fill="none" stroke="midnightblue" d="M62.4106,-266.249C75.6389,-246.92 107.932,-203.661 146,-181 149.639,-178.834 153.527,-176.91 157.54,-175.202"/>
<polygon fill="midnightblue" stroke="midnightblue" points="158.954,-178.409 167.068,-171.596 156.476,-171.862 158.954,-178.409"/>
</g>
<!-- Node32 -->
<g id="node32" class="node"><title>Node32</title>
<g id="a_node32"><a xlink:href="../../da/d35/struct_actor.html#a64d7be4e14386c473bd6e9028f395230" target="_top" xlink:title=" ">
<polygon fill="white" stroke="black" points="182.5,-76.5 182.5,-95.5 253.5,-95.5 253.5,-76.5 182.5,-76.5"/>
<text text-anchor="middle" x="218" y="-83.5" font-family="Helvetica,sans-Serif" font-size="10.00">Actor::Reset</text>
</a>
</g>
</g>
<!-- Node1&#45;&gt;Node32 -->
<g id="edge35" class="edge"><title>Node1&#45;&gt;Node32</title>
<path fill="none" stroke="midnightblue" d="M58.573,-266.143C66.5148,-237.641 93.3446,-154.349 146,-110 153.608,-103.592 163.003,-98.8714 172.44,-95.4012"/>
<polygon fill="midnightblue" stroke="midnightblue" points="173.79,-98.6425 182.216,-92.2194 171.624,-91.9862 173.79,-98.6425"/>
</g>
<!-- Node33 -->
<g id="node33" class="node"><title>Node33</title>
<g id="a_node33"><a xlink:href="../../d7/d9c/struct_item_gen.html#a1e9fb8b4d5efcc3dc012888383570b49" target="_top" xlink:title=" ">
<polygon fill="white" stroke="black" points="175.5,-38.5 175.5,-57.5 260.5,-57.5 260.5,-38.5 175.5,-38.5"/>
<text text-anchor="middle" x="218" y="-45.5" font-family="Helvetica,sans-Serif" font-size="10.00">ItemGen::Reset</text>
</a>
</g>
</g>
<!-- Node1&#45;&gt;Node33 -->
<g id="edge36" class="edge"><title>Node1&#45;&gt;Node33</title>
<path fill="none" stroke="midnightblue" d="M57.1769,-266.374C61.7541,-233.229 81.4442,-122.806 146,-67 151.641,-62.1235 158.406,-58.4833 165.489,-55.7691"/>
<polygon fill="midnightblue" stroke="midnightblue" points="166.826,-59.0153 175.267,-52.6126 164.676,-52.3538 166.826,-59.0153"/>
</g>
<!-- Node35 -->
<g id="node35" class="node"><title>Node35</title>
<g id="a_node35"><a xlink:href="../../d2/d82/_player_8cpp.html#a946581808d635467b04b165fb20cc75f" target="_top" xlink:title=" ">
<polygon fill="white" stroke="black" points="177.5,-0.5 177.5,-19.5 258.5,-19.5 258.5,-0.5 177.5,-0.5"/>
<text text-anchor="middle" x="218" y="-7.5" font-family="Helvetica,sans-Serif" font-size="10.00">SkillToMastery</text>
</a>
</g>
</g>
<!-- Node1&#45;&gt;Node35 -->
<g id="edge38" class="edge"><title>Node1&#45;&gt;Node35</title>
<path fill="none" stroke="midnightblue" d="M56.4612,-266.494C58.7663,-229.88 72.117,-96.6554 146,-29 152.088,-23.4249 159.634,-19.4542 167.511,-16.6331"/>
<polygon fill="midnightblue" stroke="midnightblue" points="168.632,-19.9512 177.209,-13.7314 166.625,-13.2449 168.632,-19.9512"/>
</g>
<!-- Node5 -->
<g id="node5" class="node"><title>Node5</title>
<g id="a_node5"><a xlink:href="../../dd/d2d/class_particle_engine.html#aa0699c216edc3b210955899c8df6cb05" target="_top" xlink:title=" ">
<polygon fill="white" stroke="black" points="330,-467.5 330,-486.5 466,-486.5 466,-467.5 330,-467.5"/>
<text text-anchor="middle" x="398" y="-474.5" font-family="Helvetica,sans-Serif" font-size="10.00">ParticleEngine::AddParticle</text>
</a>
</g>
</g>
<!-- Node4&#45;&gt;Node5 -->
<g id="edge4" class="edge"><title>Node4&#45;&gt;Node5</title>
<path fill="none" stroke="midnightblue" d="M285.028,-477C296.353,-477 308.211,-477 319.798,-477"/>
<polygon fill="midnightblue" stroke="midnightblue" points="319.89,-480.5 329.89,-477 319.89,-473.5 319.89,-480.5"/>
</g>
<!-- Node7 -->
<g id="node7" class="node"><title>Node7</title>
<g id="a_node7"><a xlink:href="../../db/dca/struct_other_overlay.html#a5398dc06bba4fa8c1bbfa026ace4cbb2" target="_top" xlink:title=" ">
<polygon fill="white" stroke="black" points="346,-418.5 346,-437.5 450,-437.5 450,-418.5 346,-418.5"/>
<text text-anchor="middle" x="398" y="-425.5" font-family="Helvetica,sans-Serif" font-size="10.00">OtherOverlay::Reset</text>
</a>
</g>
</g>
<!-- Node6&#45;&gt;Node7 -->
<g id="edge6" class="edge"><title>Node6&#45;&gt;Node7</title>
<path fill="none" stroke="midnightblue" d="M261.184,-428C283.403,-428 311.064,-428 335.614,-428"/>
<polygon fill="midnightblue" stroke="midnightblue" points="335.92,-431.5 345.92,-428 335.92,-424.5 335.92,-431.5"/>
</g>
<!-- Node10 -->
<g id="node10" class="node"><title>Node10</title>
<g id="a_node10"><a xlink:href="../../d6/d38/structstru193__math.html#a7a4a47e93ff200721e19681b71783c51" target="_top" xlink:title=" ">
<polygon fill="white" stroke="black" points="518.5,-361.5 518.5,-380.5 617.5,-380.5 617.5,-361.5 518.5,-361.5"/>
<text text-anchor="middle" x="568" y="-368.5" font-family="Helvetica,sans-Serif" font-size="10.00">stru193_math::Cos</text>
</a>
</g>
</g>
<!-- Node9&#45;&gt;Node10 -->
<g id="edge9" class="edge"><title>Node9&#45;&gt;Node10</title>
<path fill="none" stroke="midnightblue" d="M262.498,-361.512C281.839,-365.277 304.951,-369.146 326,-371 388.063,-376.468 459.466,-375.574 508.345,-373.87"/>
<polygon fill="midnightblue" stroke="midnightblue" points="508.558,-377.365 518.422,-373.496 508.299,-370.37 508.558,-377.365"/>
</g>
<!-- Node11 -->
<g id="node11" class="node"><title>Node11</title>
<g id="a_node11"><a xlink:href="../../de/db6/_our_math_8cpp.html#abc4811d26f9864e00046c39c39d65680" target="_top" xlink:title=" ">
<polygon fill="white" stroke="black" points="364,-304.5 364,-323.5 432,-323.5 432,-304.5 364,-304.5"/>
<text text-anchor="middle" x="398" y="-311.5" font-family="Helvetica,sans-Serif" font-size="10.00">fixpoint_mul</text>
</a>
</g>
</g>
<!-- Node9&#45;&gt;Node11 -->
<g id="edge10" class="edge"><title>Node9&#45;&gt;Node11</title>
<path fill="none" stroke="midnightblue" d="M263.917,-342.411C291.497,-336.523 326.632,-329.022 353.875,-323.206"/>
<polygon fill="midnightblue" stroke="midnightblue" points="354.849,-326.578 363.898,-321.067 353.387,-319.732 354.849,-326.578"/>
</g>
<!-- Node12 -->
<g id="node12" class="node"><title>Node12</title>
<g id="a_node12"><a xlink:href="../../d6/d38/structstru193__math.html#a9bd57620c86e36d03d93f2306f8ab80a" target="_top" xlink:title=" ">
<polygon fill="white" stroke="black" points="350,-342.5 350,-361.5 446,-361.5 446,-342.5 350,-342.5"/>
<text text-anchor="middle" x="398" y="-349.5" font-family="Helvetica,sans-Serif" font-size="10.00">stru193_math::Sin</text>
</a>
</g>
</g>
<!-- Node9&#45;&gt;Node12 -->
<g id="edge11" class="edge"><title>Node9&#45;&gt;Node12</title>
<path fill="none" stroke="midnightblue" d="M270.963,-352C292.49,-352 317.535,-352 339.601,-352"/>
<polygon fill="midnightblue" stroke="midnightblue" points="339.835,-355.5 349.835,-352 339.835,-348.5 339.835,-355.5"/>
</g>
<!-- Node12&#45;&gt;Node10 -->
<g id="edge12" class="edge"><title>Node12&#45;&gt;Node10</title>
<path fill="none" stroke="midnightblue" d="M446.244,-357.343C465.506,-359.522 487.98,-362.063 508.281,-364.359"/>
<polygon fill="midnightblue" stroke="midnightblue" points="508.028,-367.853 518.358,-365.499 508.815,-360.897 508.028,-367.853"/>
</g>
<!-- Node14 -->
<g id="node14" class="node"><title>Node14</title>
<g id="a_node14"><a xlink:href="../../df/dc2/struct_game_time.html#ab3b7fbfbc2a94e223d349b3dd48f76d3" target="_top" xlink:title=" ">
<polygon fill="white" stroke="black" points="339.5,-228.5 339.5,-247.5 456.5,-247.5 456.5,-228.5 339.5,-228.5"/>
<text text-anchor="middle" x="398" y="-235.5" font-family="Helvetica,sans-Serif" font-size="10.00">GameTime::GameTime</text>
</a>
</g>
</g>
<!-- Node13&#45;&gt;Node14 -->
<g id="edge14" class="edge"><title>Node13&#45;&gt;Node14</title>
<path fill="none" stroke="midnightblue" d="M263.917,-266.411C287.829,-261.306 317.421,-254.989 342.625,-249.608"/>
<polygon fill="midnightblue" stroke="midnightblue" points="343.357,-253.031 352.406,-247.52 341.896,-246.185 343.357,-253.031"/>
</g>
<!-- Node16 -->
<g id="node16" class="node"><title>Node16</title>
<g id="a_node16"><a xlink:href="../../dc/d41/class_object_list.html#a9b403a9566abade0fcb2161a1510756d" target="_top" xlink:title=" ">
<polygon fill="white" stroke="black" points="326,-190.5 326,-209.5 470,-209.5 470,-190.5 326,-190.5"/>
<text text-anchor="middle" x="398" y="-197.5" font-family="Helvetica,sans-Serif" font-size="10.00">ObjectList::ObjectIDByItemID</text>
</a>
</g>
</g>
<!-- Node15&#45;&gt;Node16 -->
<g id="edge16" class="edge"><title>Node15&#45;&gt;Node16</title>
<path fill="none" stroke="midnightblue" d="M271.924,-200C285.663,-200 300.782,-200 315.617,-200"/>
<polygon fill="midnightblue" stroke="midnightblue" points="315.821,-203.5 325.821,-200 315.821,-196.5 315.821,-203.5"/>
</g>
<!-- Node18&#45;&gt;Node11 -->
<g id="edge20" class="edge"><title>Node18&#45;&gt;Node11</title>
<path fill="none" stroke="midnightblue" d="M283.011,-314C306.48,-314 332.472,-314 353.702,-314"/>
<polygon fill="midnightblue" stroke="midnightblue" points="353.71,-317.5 363.71,-314 353.71,-310.5 353.71,-317.5"/>
</g>
<!-- Node19 -->
<g id="node19" class="node"><title>Node19</title>
<g id="a_node19"><a xlink:href="../../de/db6/_our_math_8cpp.html#a26d802a4465483f7c2f89657b75c9ebe" target="_top" xlink:title=" ">
<polygon fill="white" stroke="black" points="366,-266.5 366,-285.5 430,-285.5 430,-266.5 366,-266.5"/>
<text text-anchor="middle" x="398" y="-273.5" font-family="Helvetica,sans-Serif" font-size="10.00">fixpoint_div</text>
</a>
</g>
</g>
<!-- Node18&#45;&gt;Node19 -->
<g id="edge19" class="edge"><title>Node18&#45;&gt;Node19</title>
<path fill="none" stroke="midnightblue" d="M263.917,-304.411C292.136,-298.387 328.265,-290.674 355.757,-284.805"/>
<polygon fill="midnightblue" stroke="midnightblue" points="356.787,-288.164 365.836,-282.653 355.325,-281.318 356.787,-288.164"/>
</g>
<!-- Node21 -->
<g id="node21" class="node"><title>Node21</title>
<g id="a_node21"><a xlink:href="../../d4/db9/_open_a_l_sound_provider_8cpp.html#a0d61058bc8900801bc227bc7b47881d7" target="_top" xlink:title=" ">
<polygon fill="white" stroke="black" points="516.5,-144.5 516.5,-163.5 619.5,-163.5 619.5,-144.5 516.5,-144.5"/>
<text text-anchor="middle" x="568" y="-151.5" font-family="Helvetica,sans-Serif" font-size="10.00">CreateAudioSample</text>
</a>
</g>
</g>
<!-- Node20&#45;&gt;Node21 -->
<g id="edge22" class="edge"><title>Node20&#45;&gt;Node21</title>
<path fill="none" stroke="midnightblue" d="M459.177,-146.94C474.401,-147.937 490.762,-149.008 506.024,-150.008"/>
<polygon fill="midnightblue" stroke="midnightblue" points="506.18,-153.525 516.387,-150.686 506.637,-146.54 506.18,-153.525"/>
</g>
<!-- Node23 -->
<g id="node23" class="node"><title>Node23</title>
<g id="a_node23"><a xlink:href="../../d7/dc2/class_audio_player.html#ae30d2f6cbd73b8e316a47b4694fe8960" target="_top" xlink:title=" ">
<polygon fill="white" stroke="black" points="506,-98.5 506,-117.5 630,-117.5 630,-98.5 506,-98.5"/>
<text text-anchor="middle" x="568" y="-105.5" font-family="Helvetica,sans-Serif" font-size="10.00">AudioPlayer::LoadSound</text>
</a>
</g>
</g>
<!-- Node20&#45;&gt;Node23 -->
<g id="edge24" class="edge"><title>Node20&#45;&gt;Node23</title>
<path fill="none" stroke="midnightblue" d="M444.907,-133.436C465.371,-129.173 489.662,-124.112 511.167,-119.632"/>
<polygon fill="midnightblue" stroke="midnightblue" points="512.073,-123.018 521.149,-117.552 510.645,-116.166 512.073,-123.018"/>
</g>
<!-- Node28 -->
<g id="node28" class="node"><title>Node28</title>
<g id="a_node28"><a xlink:href="../../d6/d70/class_log.html#ac0de2621497ca3b2fbf208624c08bcdf" target="_top" xlink:title=" ">
<polygon fill="white" stroke="black" points="702,-22.5 702,-41.5 776,-41.5 776,-22.5 702,-22.5"/>
<text text-anchor="middle" x="739" y="-29.5" font-family="Helvetica,sans-Serif" font-size="10.00">Log::Warning</text>
</a>
</g>
</g>
<!-- Node20&#45;&gt;Node28 -->
<g id="edge32" class="edge"><title>Node20&#45;&gt;Node28</title>
<path fill="none" stroke="midnightblue" d="M415.158,-133.382C435.669,-121.522 472.431,-101.412 506,-89 568.699,-65.8177 644.409,-49.2324 691.894,-40.1262"/>
<polygon fill="midnightblue" stroke="midnightblue" points="692.697,-43.5365 701.875,-38.2429 691.399,-36.6579 692.697,-43.5365"/>
</g>
<!-- Node29 -->
<g id="node29" class="node"><title>Node29</title>
<g id="a_node29"><a xlink:href="../../d9/d98/class_open_a_l_sound_provider.html#a25ac61cd13253bb659672a1cc29ef22c" target="_top" xlink:title=" ">
<polygon fill="white" stroke="black" points="511,-199 511,-229 625,-229 625,-199 511,-199"/>
<text text-anchor="start" x="519" y="-217" font-family="Helvetica,sans-Serif" font-size="10.00">OpenALSoundProvider</text>
<text text-anchor="middle" x="568" y="-206" font-family="Helvetica,sans-Serif" font-size="10.00">::SetListenerPosition</text>
</a>
</g>
</g>
<!-- Node20&#45;&gt;Node29 -->
<g id="edge30" class="edge"><title>Node20&#45;&gt;Node29</title>
<path fill="none" stroke="midnightblue" d="M421.657,-152.575C447.254,-163.393 489.559,-181.272 521.945,-194.959"/>
<polygon fill="midnightblue" stroke="midnightblue" points="520.647,-198.21 531.221,-198.879 523.372,-191.762 520.647,-198.21"/>
</g>
<!-- Node22 -->
<g id="node22" class="node"><title>Node22</title>
<g id="a_node22"><a xlink:href="../../da/def/_media_8h.html#ab508e4ee3c70ec5e60273ec99af30a2e" target="_top" xlink:title=" ">
<polygon fill="white" stroke="black" points="666,-174.5 666,-193.5 812,-193.5 812,-174.5 666,-174.5"/>
<text text-anchor="middle" x="739" y="-181.5" font-family="Helvetica,sans-Serif" font-size="10.00">CreateAudioBufferDataSource</text>
</a>
</g>
</g>
<!-- Node21&#45;&gt;Node22 -->
<g id="edge23" class="edge"><title>Node21&#45;&gt;Node22</title>
<path fill="none" stroke="midnightblue" d="M619.706,-163.001C636.933,-166.059 656.404,-169.515 674.503,-172.728"/>
<polygon fill="midnightblue" stroke="midnightblue" points="673.935,-176.182 684.393,-174.484 675.159,-169.29 673.935,-176.182"/>
</g>
<!-- Node24 -->
<g id="node24" class="node"><title>Node24</title>
<g id="a_node24"><a xlink:href="../../da/d6a/_mem_buffer_8cpp.html#a685632d9cd2b61b24a9bfc649d54937e" target="_top" xlink:title=" ">
<polygon fill="white" stroke="black" points="696.5,-60.5 696.5,-79.5 781.5,-79.5 781.5,-60.5 696.5,-60.5"/>
<text text-anchor="middle" x="739" y="-67.5" font-family="Helvetica,sans-Serif" font-size="10.00">AllocMemBuffer</text>
</a>
</g>
</g>
<!-- Node23&#45;&gt;Node24 -->
<g id="edge25" class="edge"><title>Node23&#45;&gt;Node24</title>
<path fill="none" stroke="midnightblue" d="M611.646,-98.411C634.319,-93.3128 662.371,-87.0053 686.28,-81.6294"/>
<polygon fill="midnightblue" stroke="midnightblue" points="687.256,-84.9973 696.245,-79.3887 685.721,-78.1678 687.256,-84.9973"/>
</g>
<!-- Node25 -->
<g id="node25" class="node"><title>Node25</title>
<g id="a_node25"><a xlink:href="../../d7/dc2/class_audio_player.html#aac82d03b250711ed0ce64fa22dfe3a59" target="_top" xlink:title=" ">
<polygon fill="white" stroke="black" points="678,-136.5 678,-155.5 800,-155.5 800,-136.5 678,-136.5"/>
<text text-anchor="middle" x="739" y="-143.5" font-family="Helvetica,sans-Serif" font-size="10.00">AudioPlayer::FindSound</text>
</a>
</g>
</g>
<!-- Node23&#45;&gt;Node25 -->
<g id="edge26" class="edge"><title>Node23&#45;&gt;Node25</title>
<path fill="none" stroke="midnightblue" d="M611.646,-117.589C634.148,-122.649 661.948,-128.9 685.738,-134.249"/>
<polygon fill="midnightblue" stroke="midnightblue" points="685.137,-137.701 695.661,-136.48 686.672,-130.871 685.137,-137.701"/>
</g>
<!-- Node27 -->
<g id="node27" class="node"><title>Node27</title>
<g id="a_node27"><a xlink:href="../../d9/d3e/namespacezlib.html#ae552beaf4387a81c63a28b01a9cc7ab4" target="_top" xlink:title=" ">
<polygon fill="white" stroke="black" points="693,-98.5 693,-117.5 785,-117.5 785,-98.5 693,-98.5"/>
<text text-anchor="middle" x="739" y="-105.5" font-family="Helvetica,sans-Serif" font-size="10.00">zlib::Uncompress</text>
</a>
</g>
</g>
<!-- Node23&#45;&gt;Node27 -->
<g id="edge28" class="edge"><title>Node23&#45;&gt;Node27</title>
<path fill="none" stroke="midnightblue" d="M630.013,-108C647.238,-108 665.878,-108 682.744,-108"/>
<polygon fill="midnightblue" stroke="midnightblue" points="682.989,-111.5 692.989,-108 682.989,-104.5 682.989,-111.5"/>
</g>
<!-- Node23&#45;&gt;Node28 -->
<g id="edge29" class="edge"><title>Node23&#45;&gt;Node28</title>
<path fill="none" stroke="midnightblue" d="M582.511,-98.4389C600.704,-85.9527 634.445,-64.1422 666,-51 674.237,-47.5692 683.267,-44.6072 692.063,-42.1106"/>
<polygon fill="midnightblue" stroke="midnightblue" points="693.087,-45.4598 701.839,-39.4895 691.274,-38.6985 693.087,-45.4598"/>
</g>
<!-- Node26 -->
<g id="node26" class="node"><title>Node26</title>
<g id="a_node26"><a xlink:href="../../d8/d44/_strings_8cpp.html#ae591bae1416df2b3638ae859ad4ede6f" target="_top" xlink:title=" ">
<polygon fill="white" stroke="black" points="848,-136.5 848,-155.5 914,-155.5 914,-136.5 848,-136.5"/>
<text text-anchor="middle" x="881" y="-143.5" font-family="Helvetica,sans-Serif" font-size="10.00">MakeLower</text>
</a>
</g>
</g>
<!-- Node25&#45;&gt;Node26 -->
<g id="edge27" class="edge"><title>Node25&#45;&gt;Node26</title>
<path fill="none" stroke="midnightblue" d="M800.185,-146C812.796,-146 825.84,-146 837.636,-146"/>
<polygon fill="midnightblue" stroke="midnightblue" points="837.639,-149.5 847.639,-146 837.639,-142.5 837.639,-149.5"/>
</g>
<!-- Node30 -->
<g id="node30" class="node"><title>Node30</title>
<g id="a_node30"><a xlink:href="../../d1/d20/al_8h.html#acb8f6904370d9946f4ea496e21729415" target="_top" xlink:title=" ">
<polygon fill="white" stroke="black" points="706,-212.5 706,-231.5 772,-231.5 772,-212.5 706,-212.5"/>
<text text-anchor="middle" x="739" y="-219.5" font-family="Helvetica,sans-Serif" font-size="10.00">alListener3f</text>
</a>
</g>
</g>
<!-- Node29&#45;&gt;Node30 -->
<g id="edge31" class="edge"><title>Node29&#45;&gt;Node30</title>
<path fill="none" stroke="midnightblue" d="M625.275,-216.664C648.214,-217.75 674.29,-218.984 695.58,-219.992"/>
<polygon fill="midnightblue" stroke="midnightblue" points="695.458,-223.49 705.612,-220.467 695.789,-216.498 695.458,-223.49"/>
</g>
<!-- Node31&#45;&gt;Node20 -->
<g id="edge34" class="edge"><title>Node31&#45;&gt;Node20</title>
<path fill="none" stroke="midnightblue" d="M290.118,-154.409C302.222,-153.117 314.787,-151.776 326.866,-150.486"/>
<polygon fill="midnightblue" stroke="midnightblue" points="327.305,-153.959 336.877,-149.418 326.562,-146.999 327.305,-153.959"/>
</g>
<!-- Node34 -->
<g id="node34" class="node"><title>Node34</title>
<g id="a_node34"><a xlink:href="../../df/dc2/struct_game_time.html#ab85c95665b71cdbbfb8f0c3ee03d8f2d" target="_top" xlink:title=" ">
<polygon fill="white" stroke="black" points="350.5,-38.5 350.5,-57.5 445.5,-57.5 445.5,-38.5 350.5,-38.5"/>
<text text-anchor="middle" x="398" y="-45.5" font-family="Helvetica,sans-Serif" font-size="10.00">GameTime::Reset</text>
</a>
</g>
</g>
<!-- Node33&#45;&gt;Node34 -->
<g id="edge37" class="edge"><title>Node33&#45;&gt;Node34</title>
<path fill="none" stroke="midnightblue" d="M260.733,-48C284.41,-48 314.373,-48 340.171,-48"/>
<polygon fill="midnightblue" stroke="midnightblue" points="340.199,-51.5001 350.199,-48 340.199,-44.5001 340.199,-51.5001"/>
</g>
</g>
</svg>
        <g id="navigator" transform="translate(0 0)" fill="#404254">
                <rect fill="#f2f5e9" fill-opacity="0.5" stroke="#606060" stroke-width=".5" x="0" y="0" width="60" height="60"/>
                <use id="zoomplus" xlink:href="#zoomPlus" x="17" y="9" onmousedown="handleZoom(evt,'in')"/>
                <use id="zoomminus" xlink:href="#zoomMin" x="42" y="9" onmousedown="handleZoom(evt,'out')"/>
                <use id="reset" xlink:href="#resetDef" x="30" y="36" onmousedown="handleReset()"/>
                <g id="arrowUp" xlink:href="#dirArrow" transform="translate(30 24)" onmousedown="handlePan(0,-1)">
                  <use xlink:href="#rim" fill="#404040">
                        <set attributeName="fill" to="#808080" begin="arrowUp.mouseover" end="arrowUp.mouseout"/>
                  </use>
                  <path fill="none" stroke="white" stroke-width="1.5" d="M0,-3.0v7 M-2.5,-0.5L0,-3.0L2.5,-0.5"/>
                </g>
                <g id="arrowRight" xlink:href="#dirArrow" transform="rotate(90) translate(36 -43)" onmousedown="handlePan(1,0)">
                  <use xlink:href="#rim" fill="#404040">
                        <set attributeName="fill" to="#808080" begin="arrowRight.mouseover" end="arrowRight.mouseout"/>
                  </use>
                  <path fill="none" stroke="white" stroke-width="1.5" d="M0,-3.0v7 M-2.5,-0.5L0,-3.0L2.5,-0.5"/>
                </g>
                <g id="arrowDown" xlink:href="#dirArrow" transform="rotate(180) translate(-30 -48)" onmousedown="handlePan(0,1)">
                  <use xlink:href="#rim" fill="#404040">
                        <set attributeName="fill" to="#808080" begin="arrowDown.mouseover" end="arrowDown.mouseout"/>
                  </use>
                  <path fill="none" stroke="white" stroke-width="1.5" d="M0,-3.0v7 M-2.5,-0.5L0,-3.0L2.5,-0.5"/>
                </g>
                <g id="arrowLeft" xlink:href="#dirArrow" transform="rotate(270) translate(-36 17)" onmousedown="handlePan(-1,0)">
                  <use xlink:href="#rim" fill="#404040">
                        <set attributeName="fill" to="#808080" begin="arrowLeft.mouseover" end="arrowLeft.mouseout"/>
                  </use>
                  <path fill="none" stroke="white" stroke-width="1.5" d="M0,-3.0v7 M-2.5,-0.5L0,-3.0L2.5,-0.5"/>
                </g>
        </g>
        <svg viewBox="0 0 15 15" width="100%" height="30px" preserveAspectRatio="xMaxYMin meet">
         <g id="arrow_out" transform="scale(0.3 0.3)">
          <a xlink:href="struct_actor_aed567139974c9737fe83b2f2dfb90e22_cgraph_org.svg" target="_base">
           <rect id="button" ry="5" rx="5" y="6" x="6" height="38" width="38"
                fill="#f2f5e9" fill-opacity="0.5" stroke="#606060" stroke-width="1.0"/>
           <path id="arrow"
             d="M 11.500037,31.436501 C 11.940474,20.09759 22.043105,11.32322 32.158766,21.979434 L 37.068811,17.246167 C 37.068811,17.246167 37.088388,32 37.088388,32 L 22.160133,31.978069 C 22.160133,31.978069 26.997745,27.140456 26.997745,27.140456 C 18.528582,18.264221 13.291696,25.230495 11.500037,31.436501 z"
             style="fill:#404040;"/>
          </a>
         </g>
        </svg>
</svg>
