<?xml version="1.0" encoding="UTF-8" standalone="no"?>
<!DOCTYPE svg PUBLIC "-//W3C//DTD SVG 1.1//EN"
 "http://www.w3.org/Graphics/SVG/1.1/DTD/svg11.dtd">
<!-- Generated by graphviz version 2.38.0 (20140413.2041)
 -->
<!-- Title: Actor::AddBloodsplatOnDamageOverlay Pages: 1 -->
<svg width="2086pt" height="526pt"
 viewBox="0.00 0.00 2086.00 525.50" xmlns="http://www.w3.org/2000/svg" xmlns:xlink="http://www.w3.org/1999/xlink">
<g id="graph0" class="graph" transform="scale(1 1) rotate(0) translate(4 521.5)">
<title>Actor::AddBloodsplatOnDamageOverlay</title>
<polygon fill="white" stroke="none" points="-4,4 -4,-521.5 2082,-521.5 2082,4 -4,4"/>
<!-- Node1 -->
<g id="node1" class="node"><title>Node1</title>
<g id="a_node1"><a xlink:title=" ">
<polygon fill="#bfbfbf" stroke="black" points="1920,-234.5 1920,-264.5 2078,-264.5 2078,-234.5 1920,-234.5"/>
<text text-anchor="start" x="1928" y="-252.5" font-family="Helvetica,sans-Serif" font-size="10.00">Actor::AddBloodsplatOnDamage</text>
<text text-anchor="middle" x="1999" y="-241.5" font-family="Helvetica,sans-Serif" font-size="10.00">Overlay</text>
</a>
</g>
</g>
<!-- Node2 -->
<g id="node2" class="node"><title>Node2</title>
<g id="a_node2"><a xlink:href="../../da/d35/struct_actor.html#a988a5c01b93ff47048f8eb8dc9347f48" target="_top" xlink:title=" ">
<polygon fill="white" stroke="black" points="1721,-278 1721,-297 1884,-297 1884,-278 1721,-278"/>
<text text-anchor="middle" x="1802.5" y="-285" font-family="Helvetica,sans-Serif" font-size="10.00">Actor::ActorDamageFromMonster</text>
</a>
</g>
</g>
<!-- Node1&#45;&gt;Node2 -->
<g id="edge1" class="edge"><title>Node1&#45;&gt;Node2</title>
<path fill="none" stroke="midnightblue" d="M1911.24,-266.451C1890.96,-270.414 1870.06,-274.496 1852.13,-277.999"/>
<polygon fill="midnightblue" stroke="midnightblue" points="1911.99,-269.871 1921.13,-264.519 1910.64,-263.001 1911.99,-269.871"/>
</g>
<!-- Node20 -->
<g id="node20" class="node"><title>Node20</title>
<g id="a_node20"><a xlink:href="../../da/d35/struct_actor.html#a28c39c9980f6f643fa3e2d03d68ce4e4" target="_top" xlink:title=" ">
<polygon fill="white" stroke="black" points="1732.5,-190.5 1732.5,-220.5 1872.5,-220.5 1872.5,-190.5 1732.5,-190.5"/>
<text text-anchor="start" x="1740.5" y="-208.5" font-family="Helvetica,sans-Serif" font-size="10.00">Actor::DamageMonsterFrom</text>
<text text-anchor="middle" x="1802.5" y="-197.5" font-family="Helvetica,sans-Serif" font-size="10.00">Party</text>
</a>
</g>
</g>
<!-- Node1&#45;&gt;Node20 -->
<g id="edge26" class="edge"><title>Node1&#45;&gt;Node20</title>
<path fill="none" stroke="midnightblue" d="M1921.67,-232.232C1904.57,-228.365 1886.58,-224.293 1869.92,-220.526"/>
<polygon fill="midnightblue" stroke="midnightblue" points="1921.08,-235.688 1931.61,-234.481 1922.63,-228.86 1921.08,-235.688"/>
</g>
<!-- Node36 -->
<g id="node36" class="node"><title>Node36</title>
<g id="a_node36"><a xlink:href="../../de/deb/_actor_8h.html#a82d78c6ce98f5d4166408eff8839169d" target="_top" xlink:title=" ">
<polygon fill="white" stroke="black" points="1744,-240 1744,-259 1861,-259 1861,-240 1744,-240"/>
<text text-anchor="middle" x="1802.5" y="-247" font-family="Helvetica,sans-Serif" font-size="10.00">ItemDamageFromActor</text>
</a>
</g>
</g>
<!-- Node1&#45;&gt;Node36 -->
<g id="edge53" class="edge"><title>Node1&#45;&gt;Node36</title>
<path fill="none" stroke="midnightblue" d="M1909.58,-249.5C1893.19,-249.5 1876.46,-249.5 1861.27,-249.5"/>
<polygon fill="midnightblue" stroke="midnightblue" points="1909.73,-253 1919.73,-249.5 1909.73,-246 1909.73,-253"/>
</g>
<!-- Node3 -->
<g id="node3" class="node"><title>Node3</title>
<g id="a_node3"><a xlink:href="../../de/deb/_actor_8h.html#aa9d9c1bc5e3c38f0827c69299622b850" target="_top" xlink:title=" ">
<polygon fill="white" stroke="black" points="1563,-275.5 1563,-305.5 1685,-305.5 1685,-275.5 1563,-275.5"/>
<text text-anchor="start" x="1571" y="-293.5" font-family="Helvetica,sans-Serif" font-size="10.00">area_of_effect__damage</text>
<text text-anchor="middle" x="1624" y="-282.5" font-family="Helvetica,sans-Serif" font-size="10.00">_evaluate</text>
</a>
</g>
</g>
<!-- Node2&#45;&gt;Node3 -->
<g id="edge2" class="edge"><title>Node2&#45;&gt;Node3</title>
<path fill="none" stroke="midnightblue" d="M1710.77,-289.042C1702.05,-289.19 1693.36,-289.338 1685.05,-289.479"/>
<polygon fill="midnightblue" stroke="midnightblue" points="1711.06,-292.538 1721,-288.868 1710.94,-285.539 1711.06,-292.538"/>
</g>
<!-- Node8 -->
<g id="node8" class="node"><title>Node8</title>
<g id="a_node8"><a xlink:href="../../d9/ded/_sprite_object_8cpp.html#acf99fe98d2a583eb9438b8e21bf7ee07" target="_top" xlink:title=" ">
<polygon fill="white" stroke="black" points="1588,-237 1588,-256 1660,-256 1660,-237 1588,-237"/>
<text text-anchor="middle" x="1624" y="-244" font-family="Helvetica,sans-Serif" font-size="10.00">sub_43A97E</text>
</a>
</g>
</g>
<!-- Node2&#45;&gt;Node8 -->
<g id="edge7" class="edge"><title>Node2&#45;&gt;Node8</title>
<path fill="none" stroke="midnightblue" d="M1750.6,-275.676C1721.58,-268.934 1685.94,-260.657 1660.06,-254.643"/>
<polygon fill="midnightblue" stroke="midnightblue" points="1750.03,-279.137 1760.56,-277.991 1751.62,-272.319 1750.03,-279.137"/>
</g>
<!-- Node4 -->
<g id="node4" class="node"><title>Node4</title>
<g id="a_node4"><a xlink:href="../../de/dcf/_engine_8h.html#a73fe5e8d7dc6ec78e5cc180d1915341b" target="_top" xlink:title=" ">
<polygon fill="white" stroke="black" points="479.5,-388.5 479.5,-418.5 589.5,-418.5 589.5,-388.5 479.5,-388.5"/>
<text text-anchor="start" x="487.5" y="-406.5" font-family="Helvetica,sans-Serif" font-size="10.00">UpdateUserInput_and</text>
<text text-anchor="middle" x="534.5" y="-395.5" font-family="Helvetica,sans-Serif" font-size="10.00">_MapSpecificStuff</text>
</a>
</g>
</g>
<!-- Node3&#45;&gt;Node4 -->
<g id="edge3" class="edge"><title>Node3&#45;&gt;Node4</title>
<path fill="none" stroke="midnightblue" d="M1604.35,-313.601C1555.46,-371.37 1416.86,-517.5 1266,-517.5 1266,-517.5 1266,-517.5 903.5,-517.5 784.549,-517.5 753.616,-501.625 642,-460.5 612.089,-449.479 580.152,-431.451 559.14,-418.622"/>
<polygon fill="midnightblue" stroke="midnightblue" points="1607.19,-315.667 1610.91,-305.747 1601.81,-311.182 1607.19,-315.667"/>
</g>
<!-- Node5 -->
<g id="node5" class="node"><title>Node5</title>
<g id="a_node5"><a xlink:href="../../d4/d06/class_application_1_1_game.html#aaa0ff18388b32b4e6198835a35e000d3" target="_top" xlink:title=" ">
<polygon fill="white" stroke="black" points="320,-219.5 320,-249.5 423,-249.5 423,-219.5 320,-219.5"/>
<text text-anchor="start" x="328" y="-237.5" font-family="Helvetica,sans-Serif" font-size="10.00">Application::Game::</text>
<text text-anchor="middle" x="371.5" y="-226.5" font-family="Helvetica,sans-Serif" font-size="10.00">GameLoop</text>
</a>
</g>
</g>
<!-- Node4&#45;&gt;Node5 -->
<g id="edge4" class="edge"><title>Node4&#45;&gt;Node5</title>
<path fill="none" stroke="midnightblue" d="M511.895,-380.821C478.514,-345.782 415.299,-279.425 386.923,-249.639"/>
<polygon fill="midnightblue" stroke="midnightblue" points="509.497,-383.378 518.928,-388.204 514.565,-378.55 509.497,-383.378"/>
</g>
<!-- Node6 -->
<g id="node6" class="node"><title>Node6</title>
<g id="a_node6"><a xlink:href="../../d4/d06/class_application_1_1_game.html#a013ffd59e8fdf1c0a396da1dbe1681ca" target="_top" xlink:title=" ">
<polygon fill="white" stroke="black" points="156,-164 156,-183 280,-183 280,-164 156,-164"/>
<text text-anchor="middle" x="218" y="-171" font-family="Helvetica,sans-Serif" font-size="10.00">Application::Game::Loop</text>
</a>
</g>
</g>
<!-- Node5&#45;&gt;Node6 -->
<g id="edge5" class="edge"><title>Node5&#45;&gt;Node6</title>
<path fill="none" stroke="midnightblue" d="M323.478,-215.567C296.722,-204.794 264.354,-191.761 242.805,-183.085"/>
<polygon fill="midnightblue" stroke="midnightblue" points="322.467,-218.933 333.051,-219.421 325.082,-212.44 322.467,-218.933"/>
</g>
<!-- Node7 -->
<g id="node7" class="node"><title>Node7</title>
<g id="a_node7"><a xlink:href="../../d4/d06/class_application_1_1_game.html#a96341ca5b54d90adc3ecb3bf0bcd2312" target="_top" xlink:title=" ">
<polygon fill="white" stroke="black" points="0,-164 0,-183 120,-183 120,-164 0,-164"/>
<text text-anchor="middle" x="60" y="-171" font-family="Helvetica,sans-Serif" font-size="10.00">Application::Game::Run</text>
</a>
</g>
</g>
<!-- Node6&#45;&gt;Node7 -->
<g id="edge6" class="edge"><title>Node6&#45;&gt;Node7</title>
<path fill="none" stroke="midnightblue" d="M145.546,-173.5C137.081,-173.5 128.513,-173.5 120.244,-173.5"/>
<polygon fill="midnightblue" stroke="midnightblue" points="145.792,-177 155.792,-173.5 145.792,-170 145.792,-177"/>
</g>
<!-- Node9 -->
<g id="node9" class="node"><title>Node9</title>
<g id="a_node9"><a xlink:href="../../d9/ded/_sprite_object_8cpp.html#a457801379764f6519b638ea5b505967e" target="_top" xlink:title=" ">
<polygon fill="white" stroke="black" points="1382.5,-364 1382.5,-383 1513.5,-383 1513.5,-364 1382.5,-364"/>
<text text-anchor="middle" x="1448" y="-371" font-family="Helvetica,sans-Serif" font-size="10.00">_46BFFA_update_spell_fx</text>
</a>
</g>
</g>
<!-- Node8&#45;&gt;Node9 -->
<g id="edge8" class="edge"><title>Node8&#45;&gt;Node9</title>
<path fill="none" stroke="midnightblue" d="M1578.31,-258.142C1572.99,-260.251 1567.77,-262.692 1563,-265.5 1516.26,-293.045 1473.3,-343.027 1456.49,-363.918"/>
<polygon fill="midnightblue" stroke="midnightblue" points="1579.68,-261.371 1587.91,-254.698 1577.31,-254.782 1579.68,-261.371"/>
</g>
<!-- Node10 -->
<g id="node10" class="node"><title>Node10</title>
<g id="a_node10"><a xlink:href="../../da/d20/_i_render_8h.html#a2827fe354fe45bc8a3b7bddc1f2236dc" target="_top" xlink:title=" ">
<polygon fill="white" stroke="black" points="1228.5,-320 1228.5,-339 1301.5,-339 1301.5,-320 1228.5,-320"/>
<text text-anchor="middle" x="1265" y="-327" font-family="Helvetica,sans-Serif" font-size="10.00">sub_46DEF2</text>
</a>
</g>
</g>
<!-- Node9&#45;&gt;Node10 -->
<g id="edge9" class="edge"><title>Node9&#45;&gt;Node10</title>
<path fill="none" stroke="midnightblue" d="M1397.74,-361.525C1367.31,-354.128 1328.98,-344.809 1301.52,-338.134"/>
<polygon fill="midnightblue" stroke="midnightblue" points="1397.18,-364.991 1407.73,-363.953 1398.84,-358.189 1397.18,-364.991"/>
</g>
<!-- Node17 -->
<g id="node17" class="node"><title>Node17</title>
<g id="a_node17"><a xlink:href="../../d0/d5a/struct_sprite_object.html#a9e0d2e0c49fb02c2bf900de59aecff85" target="_top" xlink:title=" ">
<polygon fill="white" stroke="black" points="1197,-358.5 1197,-388.5 1333,-388.5 1333,-358.5 1197,-358.5"/>
<text text-anchor="start" x="1205" y="-376.5" font-family="Helvetica,sans-Serif" font-size="10.00">SpriteObject::UpdateObject</text>
<text text-anchor="middle" x="1265" y="-365.5" font-family="Helvetica,sans-Serif" font-size="10.00">_fn0_BLV</text>
</a>
</g>
</g>
<!-- Node9&#45;&gt;Node17 -->
<g id="edge19" class="edge"><title>Node9&#45;&gt;Node17</title>
<path fill="none" stroke="midnightblue" d="M1372.2,-373.5C1359.31,-373.5 1345.98,-373.5 1333.31,-373.5"/>
<polygon fill="midnightblue" stroke="midnightblue" points="1372.42,-377 1382.42,-373.5 1372.42,-370 1372.42,-377"/>
</g>
<!-- Node18 -->
<g id="node18" class="node"><title>Node18</title>
<g id="a_node18"><a xlink:href="../../da/d20/_i_render_8h.html#a522912d67446895b0a03d01837b75a99" target="_top" xlink:title=" ">
<polygon fill="white" stroke="black" points="1044.5,-413 1044.5,-432 1125.5,-432 1125.5,-413 1044.5,-413"/>
<text text-anchor="middle" x="1085" y="-420" font-family="Helvetica,sans-Serif" font-size="10.00">UpdateObjects</text>
</a>
</g>
</g>
<!-- Node9&#45;&gt;Node18 -->
<g id="edge25" class="edge"><title>Node9&#45;&gt;Node18</title>
<path fill="none" stroke="midnightblue" d="M1429.22,-389.817C1408.11,-407.983 1370.95,-436.263 1333,-447.5 1255.92,-470.322 1160.06,-446.623 1113.69,-432.074"/>
<polygon fill="midnightblue" stroke="midnightblue" points="1431.56,-392.421 1436.75,-383.181 1426.93,-387.171 1431.56,-392.421"/>
</g>
<!-- Node19 -->
<g id="node19" class="node"><title>Node19</title>
<g id="a_node19"><a xlink:href="../../d0/d5a/struct_sprite_object.html#a950e5cedc1e8cfc98d77ba9b3f91071f" target="_top" xlink:title=" ">
<polygon fill="white" stroke="black" points="1197,-407.5 1197,-437.5 1333,-437.5 1333,-407.5 1197,-407.5"/>
<text text-anchor="start" x="1205" y="-425.5" font-family="Helvetica,sans-Serif" font-size="10.00">SpriteObject::UpdateObject</text>
<text text-anchor="middle" x="1265" y="-414.5" font-family="Helvetica,sans-Serif" font-size="10.00">_fn0_ODM</text>
</a>
</g>
</g>
<!-- Node9&#45;&gt;Node19 -->
<g id="edge23" class="edge"><title>Node9&#45;&gt;Node19</title>
<path fill="none" stroke="midnightblue" d="M1401.97,-385.69C1377.63,-392.281 1347.35,-400.478 1321.54,-407.463"/>
<polygon fill="midnightblue" stroke="midnightblue" points="1402.93,-389.056 1411.67,-383.064 1401.1,-382.299 1402.93,-389.056"/>
</g>
<!-- Node11 -->
<g id="node11" class="node"><title>Node11</title>
<g id="a_node11"><a xlink:href="../../da/d20/_i_render_8h.html#a0e63804ace29468efe95593015c3747c" target="_top" xlink:title=" ">
<polygon fill="white" stroke="black" points="1021,-325.5 1021,-355.5 1149,-355.5 1149,-325.5 1021,-325.5"/>
<text text-anchor="start" x="1029" y="-343.5" font-family="Helvetica,sans-Serif" font-size="10.00">_46ED8A_collide_against</text>
<text text-anchor="middle" x="1085" y="-332.5" font-family="Helvetica,sans-Serif" font-size="10.00">_sprite_objects</text>
</a>
</g>
</g>
<!-- Node10&#45;&gt;Node11 -->
<g id="edge10" class="edge"><title>Node10&#45;&gt;Node11</title>
<path fill="none" stroke="midnightblue" d="M1218.17,-332.332C1197.2,-333.628 1172.01,-335.185 1149.27,-336.59"/>
<polygon fill="midnightblue" stroke="midnightblue" points="1218.64,-335.81 1228.41,-331.7 1218.21,-328.823 1218.64,-335.81"/>
</g>
<!-- Node12 -->
<g id="node12" class="node"><title>Node12</title>
<g id="a_node12"><a xlink:href="../../dc/dfb/_outdoor_8h.html#a62e44d7fd493356cb340fe1dc8fe993b" target="_top" xlink:title=" ">
<polygon fill="white" stroke="black" points="836,-356 836,-375 973,-375 973,-356 836,-356"/>
<text text-anchor="middle" x="904.5" y="-363" font-family="Helvetica,sans-Serif" font-size="10.00">ODM_ProcessPartyActions</text>
</a>
</g>
</g>
<!-- Node11&#45;&gt;Node12 -->
<g id="edge11" class="edge"><title>Node11&#45;&gt;Node12</title>
<path fill="none" stroke="midnightblue" d="M1010.91,-350.737C998.416,-352.487 985.485,-354.298 973.141,-356.026"/>
<polygon fill="midnightblue" stroke="midnightblue" points="1011.4,-354.203 1020.82,-349.349 1010.43,-347.27 1011.4,-354.203"/>
</g>
<!-- Node14 -->
<g id="node14" class="node"><title>Node14</title>
<g id="a_node14"><a xlink:href="../../da/dc7/_indoor_8h.html#a91180cf18d91c79b7bc41c630c261cbd" target="_top" xlink:title=" ">
<polygon fill="white" stroke="black" points="854.5,-432 854.5,-451 954.5,-451 954.5,-432 854.5,-432"/>
<text text-anchor="middle" x="904.5" y="-439" font-family="Helvetica,sans-Serif" font-size="10.00">UpdateActors_BLV</text>
</a>
</g>
</g>
<!-- Node11&#45;&gt;Node14 -->
<g id="edge14" class="edge"><title>Node11&#45;&gt;Node14</title>
<path fill="none" stroke="midnightblue" d="M1048.55,-360.558C1010.49,-382.094 951.606,-415.412 922.7,-431.768"/>
<polygon fill="midnightblue" stroke="midnightblue" points="1050.3,-363.592 1057.28,-355.621 1046.85,-357.499 1050.3,-363.592"/>
</g>
<!-- Node16 -->
<g id="node16" class="node"><title>Node16</title>
<g id="a_node16"><a xlink:href="../../dc/dfb/_outdoor_8h.html#ab3cc30c01fb2e9afa8ec291e6043bf99" target="_top" xlink:title=" ">
<polygon fill="white" stroke="black" points="852.5,-318 852.5,-337 956.5,-337 956.5,-318 852.5,-318"/>
<text text-anchor="middle" x="904.5" y="-325" font-family="Helvetica,sans-Serif" font-size="10.00">UpdateActors_ODM</text>
</a>
</g>
</g>
<!-- Node11&#45;&gt;Node16 -->
<g id="edge17" class="edge"><title>Node11&#45;&gt;Node16</title>
<path fill="none" stroke="midnightblue" d="M1010.81,-335.17C992.588,-333.843 973.443,-332.448 956.549,-331.218"/>
<polygon fill="midnightblue" stroke="midnightblue" points="1010.59,-338.663 1020.82,-335.898 1011.1,-331.681 1010.59,-338.663"/>
</g>
<!-- Node13 -->
<g id="node13" class="node"><title>Node13</title>
<g id="a_node13"><a xlink:href="../../dc/dfb/_outdoor_8h.html#aeedbd3470634fbb22ebda28d2f8006e4" target="_top" xlink:title=" ">
<polygon fill="white" stroke="black" points="642,-375 642,-394 800,-394 800,-375 642,-375"/>
<text text-anchor="middle" x="721" y="-382" font-family="Helvetica,sans-Serif" font-size="10.00">ODM_UpdateUserInputAndOther</text>
</a>
</g>
</g>
<!-- Node12&#45;&gt;Node13 -->
<g id="edge12" class="edge"><title>Node12&#45;&gt;Node13</title>
<path fill="none" stroke="midnightblue" d="M825.94,-373.619C817.363,-374.517 808.625,-375.432 800.042,-376.33"/>
<polygon fill="midnightblue" stroke="midnightblue" points="826.335,-377.097 835.916,-372.575 825.606,-370.135 826.335,-377.097"/>
</g>
<!-- Node13&#45;&gt;Node4 -->
<g id="edge13" class="edge"><title>Node13&#45;&gt;Node4</title>
<path fill="none" stroke="midnightblue" d="M631.395,-393.625C617.11,-395.096 602.71,-396.579 589.565,-397.932"/>
<polygon fill="midnightblue" stroke="midnightblue" points="632.167,-397.064 641.755,-392.558 631.449,-390.101 632.167,-397.064"/>
</g>
<!-- Node15 -->
<g id="node15" class="node"><title>Node15</title>
<g id="a_node15"><a xlink:href="../../da/dc7/_indoor_8h.html#a7d511837933d59eeeccfc25275a366d8" target="_top" xlink:title=" ">
<polygon fill="white" stroke="black" points="644,-432 644,-451 798,-451 798,-432 644,-432"/>
<text text-anchor="middle" x="721" y="-439" font-family="Helvetica,sans-Serif" font-size="10.00">BLV_UpdateUserInputAndOther</text>
</a>
</g>
</g>
<!-- Node14&#45;&gt;Node15 -->
<g id="edge15" class="edge"><title>Node14&#45;&gt;Node15</title>
<path fill="none" stroke="midnightblue" d="M843.964,-441.5C829.319,-441.5 813.439,-441.5 798.129,-441.5"/>
<polygon fill="midnightblue" stroke="midnightblue" points="844.384,-445 854.383,-441.5 844.383,-438 844.384,-445"/>
</g>
<!-- Node15&#45;&gt;Node4 -->
<g id="edge16" class="edge"><title>Node15&#45;&gt;Node4</title>
<path fill="none" stroke="midnightblue" d="M663.605,-429.885C640.072,-425.038 612.852,-419.431 589.571,-414.636"/>
<polygon fill="midnightblue" stroke="midnightblue" points="662.942,-433.322 673.443,-431.911 664.355,-426.466 662.942,-433.322"/>
</g>
<!-- Node16&#45;&gt;Node13 -->
<g id="edge18" class="edge"><title>Node16&#45;&gt;Node13</title>
<path fill="none" stroke="midnightblue" d="M858.6,-339.818C851.038,-341.984 843.282,-344.263 836,-346.5 806.286,-355.629 772.542,-367.004 749.526,-374.918"/>
<polygon fill="midnightblue" stroke="midnightblue" points="859.707,-343.142 868.374,-337.047 857.798,-336.407 859.707,-343.142"/>
</g>
<!-- Node17&#45;&gt;Node18 -->
<g id="edge20" class="edge"><title>Node17&#45;&gt;Node18</title>
<path fill="none" stroke="midnightblue" d="M1199.47,-391.263C1172.78,-398.61 1142.91,-406.834 1120.52,-412.998"/>
<polygon fill="midnightblue" stroke="midnightblue" points="1200.43,-394.63 1209.14,-388.601 1198.57,-387.881 1200.43,-394.63"/>
</g>
<!-- Node18&#45;&gt;Node13 -->
<g id="edge22" class="edge"><title>Node18&#45;&gt;Node13</title>
<path fill="none" stroke="midnightblue" d="M1034.18,-417.27C973.756,-410.927 871.209,-400.163 800.217,-392.711"/>
<polygon fill="midnightblue" stroke="midnightblue" points="1033.91,-420.761 1044.22,-418.325 1034.64,-413.8 1033.91,-420.761"/>
</g>
<!-- Node18&#45;&gt;Node15 -->
<g id="edge21" class="edge"><title>Node18&#45;&gt;Node15</title>
<path fill="none" stroke="midnightblue" d="M1053.43,-436.026C1031.52,-444.952 1001.05,-455.831 973,-460.5 900.794,-472.517 815.622,-460.675 765.363,-451.051"/>
<polygon fill="midnightblue" stroke="midnightblue" points="1054.97,-439.174 1062.85,-432.091 1052.28,-432.714 1054.97,-439.174"/>
</g>
<!-- Node19&#45;&gt;Node18 -->
<g id="edge24" class="edge"><title>Node19&#45;&gt;Node18</title>
<path fill="none" stroke="midnightblue" d="M1186.7,-422.5C1165.61,-422.5 1143.64,-422.5 1125.61,-422.5"/>
<polygon fill="midnightblue" stroke="midnightblue" points="1186.96,-426 1196.96,-422.5 1186.96,-419 1186.96,-426"/>
</g>
<!-- Node20&#45;&gt;Node3 -->
<g id="edge51" class="edge"><title>Node20&#45;&gt;Node3</title>
<path fill="none" stroke="midnightblue" d="M1732.34,-224.555C1728.42,-226.377 1724.61,-228.355 1721,-230.5 1701.82,-241.901 1703.63,-253.214 1685,-265.5 1679.44,-269.166 1673.26,-272.47 1667.03,-275.384"/>
<polygon fill="midnightblue" stroke="midnightblue" points="1733.83,-227.726 1741.65,-220.584 1731.08,-221.288 1733.83,-227.726"/>
</g>
<!-- Node20&#45;&gt;Node8 -->
<g id="edge52" class="edge"><title>Node20&#45;&gt;Node8</title>
<path fill="none" stroke="midnightblue" d="M1726.96,-222.815C1703.82,-228.191 1679.38,-233.867 1660.24,-238.314"/>
<polygon fill="midnightblue" stroke="midnightblue" points="1727.83,-226.206 1736.78,-220.534 1726.25,-219.388 1727.83,-226.206"/>
</g>
<!-- Node21 -->
<g id="node21" class="node"><title>Node21</title>
<g id="a_node21"><a xlink:href="../../d8/d06/namespace_cast_spell_info_helpers.html#a6fa3b22b4867c28cad6c215c646dc4aa" target="_top" xlink:title=" ">
<polygon fill="white" stroke="black" points="1393,-25.5 1393,-55.5 1503,-55.5 1503,-25.5 1393,-25.5"/>
<text text-anchor="start" x="1401" y="-43.5" font-family="Helvetica,sans-Serif" font-size="10.00">CastSpellInfoHelpers</text>
<text text-anchor="middle" x="1448" y="-32.5" font-family="Helvetica,sans-Serif" font-size="10.00">::_427E01_cast_spell</text>
</a>
</g>
</g>
<!-- Node20&#45;&gt;Node21 -->
<g id="edge27" class="edge"><title>Node20&#45;&gt;Node21</title>
<path fill="none" stroke="midnightblue" d="M1760.17,-186.156C1689.17,-152.921 1545.48,-85.6607 1481.27,-55.6046"/>
<polygon fill="midnightblue" stroke="midnightblue" points="1758.74,-189.35 1769.28,-190.42 1761.71,-183.011 1758.74,-189.35"/>
</g>
<!-- Node23 -->
<g id="node23" class="node"><title>Node23</title>
<g id="a_node23"><a xlink:href="../../d3/db1/struct_player.html#adcd0e965260bb120a6e90b515cc748ac" target="_top" xlink:title=" ">
<polygon fill="white" stroke="black" points="1369,-122.5 1369,-152.5 1527,-152.5 1527,-122.5 1369,-122.5"/>
<text text-anchor="start" x="1377" y="-140.5" font-family="Helvetica,sans-Serif" font-size="10.00">Player::_42ECB5_PlayerAttacks</text>
<text text-anchor="middle" x="1448" y="-129.5" font-family="Helvetica,sans-Serif" font-size="10.00">Actor</text>
</a>
</g>
</g>
<!-- Node20&#45;&gt;Node23 -->
<g id="edge30" class="edge"><title>Node20&#45;&gt;Node23</title>
<path fill="none" stroke="midnightblue" d="M1722.37,-190.235C1664.02,-178.979 1585.03,-163.741 1526.96,-152.539"/>
<polygon fill="midnightblue" stroke="midnightblue" points="1721.8,-193.689 1732.28,-192.147 1723.12,-186.816 1721.8,-193.689"/>
</g>
<!-- Node24 -->
<g id="node24" class="node"><title>Node24</title>
<g id="a_node24"><a xlink:href="../../de/dcf/_engine_8h.html#ab2d2969c88180c354c33faf51cf43977" target="_top" xlink:title=" ">
<polygon fill="white" stroke="black" points="1572,-196 1572,-215 1676,-215 1676,-196 1572,-196"/>
<text text-anchor="middle" x="1624" y="-203" font-family="Helvetica,sans-Serif" font-size="10.00">_493938_regenerate</text>
</a>
</g>
</g>
<!-- Node20&#45;&gt;Node24 -->
<g id="edge32" class="edge"><title>Node20&#45;&gt;Node24</title>
<path fill="none" stroke="midnightblue" d="M1722.05,-205.5C1706.43,-205.5 1690.43,-205.5 1676.04,-205.5"/>
<polygon fill="midnightblue" stroke="midnightblue" points="1722.25,-209 1732.25,-205.5 1722.25,-202 1722.25,-209"/>
</g>
<!-- Node22 -->
<g id="node22" class="node"><title>Node22</title>
<g id="a_node22"><a xlink:href="../../d4/d06/class_application_1_1_game.html#a3f65e3f0ef1a9114fb3dea275e52442e" target="_top" xlink:title=" ">
<polygon fill="white" stroke="black" points="669.5,-0.5 669.5,-30.5 772.5,-30.5 772.5,-0.5 669.5,-0.5"/>
<text text-anchor="start" x="677.5" y="-18.5" font-family="Helvetica,sans-Serif" font-size="10.00">Application::Game::</text>
<text text-anchor="middle" x="721" y="-7.5" font-family="Helvetica,sans-Serif" font-size="10.00">EventLoop</text>
</a>
</g>
</g>
<!-- Node21&#45;&gt;Node22 -->
<g id="edge28" class="edge"><title>Node21&#45;&gt;Node22</title>
<path fill="none" stroke="midnightblue" d="M1382.49,-38.2755C1240.12,-33.3661 901.463,-21.6884 772.791,-17.2514"/>
<polygon fill="midnightblue" stroke="midnightblue" points="1382.69,-41.7844 1392.8,-38.6312 1382.93,-34.7885 1382.69,-41.7844"/>
</g>
<!-- Node22&#45;&gt;Node5 -->
<g id="edge29" class="edge"><title>Node22&#45;&gt;Node5</title>
<path fill="none" stroke="midnightblue" d="M659.289,-3.98781C602.284,3.1687 517.791,3.89286 463,-40.5 421.717,-73.9486 450.204,-106.702 427,-154.5 415.257,-178.689 396.904,-203.892 384.79,-219.392"/>
<polygon fill="midnightblue" stroke="midnightblue" points="658.868,-7.46264 669.248,-5.33807 659.809,-0.526111 658.868,-7.46264"/>
</g>
<!-- Node23&#45;&gt;Node22 -->
<g id="edge31" class="edge"><title>Node23&#45;&gt;Node22</title>
<path fill="none" stroke="midnightblue" d="M1358.66,-123.418C1239.77,-104.349 1021.76,-68.9592 836,-36.5 815.284,-32.88 792.484,-28.7162 772.755,-25.0557"/>
<polygon fill="midnightblue" stroke="midnightblue" points="1358.37,-126.917 1368.8,-125.044 1359.48,-120.005 1358.37,-126.917"/>
</g>
<!-- Node25 -->
<g id="node25" class="node"><title>Node25</title>
<g id="a_node25"><a xlink:href="../../de/dcf/_engine_8h.html#a79dc644d7866ee9c87c3774a8fab9af6" target="_top" xlink:title=" ">
<polygon fill="white" stroke="black" points="1009,-190.5 1009,-220.5 1161,-220.5 1161,-190.5 1009,-190.5"/>
<text text-anchor="start" x="1017" y="-208.5" font-family="Helvetica,sans-Serif" font-size="10.00">_494035_timed_effects</text>
<text text-anchor="middle" x="1085" y="-197.5" font-family="Helvetica,sans-Serif" font-size="10.00">__water_walking_damage__etc</text>
</a>
</g>
</g>
<!-- Node24&#45;&gt;Node25 -->
<g id="edge33" class="edge"><title>Node24&#45;&gt;Node25</title>
<path fill="none" stroke="midnightblue" d="M1561.88,-205.5C1463.09,-205.5 1268.6,-205.5 1161.38,-205.5"/>
<polygon fill="midnightblue" stroke="midnightblue" points="1562,-209 1572,-205.5 1562,-202 1562,-209"/>
</g>
<!-- Node25&#45;&gt;Node5 -->
<g id="edge34" class="edge"><title>Node25&#45;&gt;Node5</title>
<path fill="none" stroke="midnightblue" d="M1051.18,-225.587C1029.72,-237.743 1000.63,-252.413 973,-260.5 755.408,-324.181 684.432,-320.176 463,-271.5 441.78,-266.835 419.155,-257.585 401.835,-249.501"/>
<polygon fill="midnightblue" stroke="midnightblue" points="1052.98,-228.59 1059.89,-220.557 1049.48,-222.529 1052.98,-228.59"/>
</g>
<!-- Node26 -->
<g id="node26" class="node"><title>Node26</title>
<g id="a_node26"><a xlink:href="../../d1/d28/structstru262___turn_based.html#a3d510c1516767374020392bb323a3c06" target="_top" xlink:title=" ">
<polygon fill="white" stroke="black" points="851,-221.5 851,-251.5 958,-251.5 958,-221.5 851,-221.5"/>
<text text-anchor="start" x="859" y="-239.5" font-family="Helvetica,sans-Serif" font-size="10.00">stru262_TurnBased::</text>
<text text-anchor="middle" x="904.5" y="-228.5" font-family="Helvetica,sans-Serif" font-size="10.00">NextTurn</text>
</a>
</g>
</g>
<!-- Node25&#45;&gt;Node26 -->
<g id="edge35" class="edge"><title>Node25&#45;&gt;Node26</title>
<path fill="none" stroke="midnightblue" d="M998.763,-220.303C984.897,-222.711 970.902,-225.142 958.12,-227.362"/>
<polygon fill="midnightblue" stroke="midnightblue" points="999.564,-223.716 1008.82,-218.557 998.366,-216.82 999.564,-223.716"/>
</g>
<!-- Node29 -->
<g id="node29" class="node"><title>Node29</title>
<g id="a_node29"><a xlink:href="../../d0/d14/struct_party.html#aaa6686874ea698d79177b7ba5d67d8bd" target="_top" xlink:title=" ">
<polygon fill="white" stroke="black" points="869,-164 869,-183 940,-183 940,-164 869,-164"/>
<text text-anchor="middle" x="904.5" y="-171" font-family="Helvetica,sans-Serif" font-size="10.00">Party::Reset</text>
</a>
</g>
</g>
<!-- Node25&#45;&gt;Node29 -->
<g id="edge39" class="edge"><title>Node25&#45;&gt;Node29</title>
<path fill="none" stroke="midnightblue" d="M998.706,-190.209C978.024,-186.502 957.058,-182.743 940.262,-179.732"/>
<polygon fill="midnightblue" stroke="midnightblue" points="998.357,-193.702 1008.82,-192.022 999.592,-186.812 998.357,-193.702"/>
</g>
<!-- Node33 -->
<g id="node33" class="node"><title>Node33</title>
<g id="a_node33"><a xlink:href="../../db/d38/_party_8h.html#a6327fa16a015add5509d93cc738c035b" target="_top" xlink:title=" ">
<polygon fill="white" stroke="black" points="886,-82 886,-101 923,-101 923,-82 886,-82"/>
<text text-anchor="middle" x="904.5" y="-89" font-family="Helvetica,sans-Serif" font-size="10.00">Rest</text>
</a>
</g>
</g>
<!-- Node25&#45;&gt;Node33 -->
<g id="edge47" class="edge"><title>Node25&#45;&gt;Node33</title>
<path fill="none" stroke="midnightblue" d="M1051.44,-184.707C1012.54,-159.86 949.107,-119.35 920.423,-101.03"/>
<polygon fill="midnightblue" stroke="midnightblue" points="1049.98,-187.929 1060.3,-190.362 1053.75,-182.029 1049.98,-187.929"/>
</g>
<!-- Node27 -->
<g id="node27" class="node"><title>Node27</title>
<g id="a_node27"><a xlink:href="../../d1/d28/structstru262___turn_based.html#a594cf1020b0200b78abf16be8f3ab722" target="_top" xlink:title=" ">
<polygon fill="white" stroke="black" points="667.5,-240.5 667.5,-270.5 774.5,-270.5 774.5,-240.5 667.5,-240.5"/>
<text text-anchor="start" x="675.5" y="-258.5" font-family="Helvetica,sans-Serif" font-size="10.00">stru262_TurnBased::</text>
<text text-anchor="middle" x="721" y="-247.5" font-family="Helvetica,sans-Serif" font-size="10.00">AITurnBasedAction</text>
</a>
</g>
</g>
<!-- Node26&#45;&gt;Node27 -->
<g id="edge36" class="edge"><title>Node26&#45;&gt;Node27</title>
<path fill="none" stroke="midnightblue" d="M840.514,-243.094C819.056,-245.34 795.307,-247.826 774.737,-249.979"/>
<polygon fill="midnightblue" stroke="midnightblue" points="840.934,-246.569 850.515,-242.047 840.205,-239.607 840.934,-246.569"/>
</g>
<!-- Node28 -->
<g id="node28" class="node"><title>Node28</title>
<g id="a_node28"><a xlink:href="../../da/d35/struct_actor.html#a8ad58b6020b186e538e3e033f81c073a" target="_top" xlink:title=" ">
<polygon fill="white" stroke="black" points="480,-243 480,-262 589,-262 589,-243 480,-243"/>
<text text-anchor="middle" x="534.5" y="-250" font-family="Helvetica,sans-Serif" font-size="10.00">Actor::UpdateActorAI</text>
</a>
</g>
</g>
<!-- Node27&#45;&gt;Node28 -->
<g id="edge37" class="edge"><title>Node27&#45;&gt;Node28</title>
<path fill="none" stroke="midnightblue" d="M656.852,-254.473C634.779,-254.114 610.229,-253.715 589.018,-253.37"/>
<polygon fill="midnightblue" stroke="midnightblue" points="657.074,-257.977 667.13,-254.64 657.188,-250.978 657.074,-257.977"/>
</g>
<!-- Node28&#45;&gt;Node5 -->
<g id="edge38" class="edge"><title>Node28&#45;&gt;Node5</title>
<path fill="none" stroke="midnightblue" d="M469.85,-245.384C454.343,-243.65 437.962,-241.819 423.151,-240.163"/>
<polygon fill="midnightblue" stroke="midnightblue" points="469.562,-248.873 479.889,-246.506 470.34,-241.917 469.562,-248.873"/>
</g>
<!-- Node29&#45;&gt;Node5 -->
<g id="edge44" class="edge"><title>Node29&#45;&gt;Node5</title>
<path fill="none" stroke="midnightblue" d="M858.526,-179.832C840.363,-182.324 819.196,-185.147 800,-187.5 664.006,-204.171 503.324,-221.091 423.219,-229.338"/>
<polygon fill="midnightblue" stroke="midnightblue" points="859.128,-183.282 868.555,-178.448 858.171,-176.348 859.128,-183.282"/>
</g>
<!-- Node29&#45;&gt;Node6 -->
<g id="edge45" class="edge"><title>Node29&#45;&gt;Node6</title>
<path fill="none" stroke="midnightblue" d="M858.391,-173.5C739.194,-173.5 415.732,-173.5 280.122,-173.5"/>
<polygon fill="midnightblue" stroke="midnightblue" points="858.615,-177 868.614,-173.5 858.614,-170 858.615,-177"/>
</g>
<!-- Node30 -->
<g id="node30" class="node"><title>Node30</title>
<g id="a_node30"><a xlink:href="../../de/da8/_u_i_party_creation_8cpp.html#ab3e0a011d0b8257f92e7b2255996f08d" target="_top" xlink:title=" ">
<polygon fill="white" stroke="black" points="661.5,-126 661.5,-145 780.5,-145 780.5,-126 661.5,-126"/>
<text text-anchor="middle" x="721" y="-133" font-family="Helvetica,sans-Serif" font-size="10.00">CreateParty_EventLoop</text>
</a>
</g>
</g>
<!-- Node29&#45;&gt;Node30 -->
<g id="edge40" class="edge"><title>Node29&#45;&gt;Node30</title>
<path fill="none" stroke="midnightblue" d="M859.067,-164.197C831.23,-158.369 795.45,-150.878 767.427,-145.011"/>
<polygon fill="midnightblue" stroke="midnightblue" points="858.429,-167.639 868.934,-166.263 859.863,-160.788 858.429,-167.639"/>
</g>
<!-- Node32 -->
<g id="node32" class="node"><title>Node32</title>
<g id="a_node32"><a xlink:href="../../d6/d6a/_u_i_party_creation_8h.html#ae6fe5aec2826f251f3950e95fd588d79" target="_top" xlink:title=" ">
<polygon fill="white" stroke="black" points="316,-126 316,-145 427,-145 427,-126 316,-126"/>
<text text-anchor="middle" x="371.5" y="-133" font-family="Helvetica,sans-Serif" font-size="10.00">PartyCreationUI_Loop</text>
</a>
</g>
</g>
<!-- Node29&#45;&gt;Node32 -->
<g id="edge46" class="edge"><title>Node29&#45;&gt;Node32</title>
<path fill="none" stroke="midnightblue" d="M882.683,-157.876C862.685,-143.916 831.011,-124.475 800,-116.5 661.494,-80.8828 489.565,-109.574 412.794,-125.999"/>
<polygon fill="midnightblue" stroke="midnightblue" points="880.839,-160.861 891.006,-163.843 884.918,-155.172 880.839,-160.861"/>
</g>
<!-- Node31 -->
<g id="node31" class="node"><title>Node31</title>
<g id="a_node31"><a xlink:href="../../de/da8/_u_i_party_creation_8cpp.html#a3989bc11e4d285e802baa8b00e9663ad" target="_top" xlink:title=" ">
<polygon fill="white" stroke="black" points="463,-126 463,-145 606,-145 606,-126 463,-126"/>
<text text-anchor="middle" x="534.5" y="-133" font-family="Helvetica,sans-Serif" font-size="10.00">PartyCreationUI_LoopInternal</text>
</a>
</g>
</g>
<!-- Node30&#45;&gt;Node31 -->
<g id="edge41" class="edge"><title>Node30&#45;&gt;Node31</title>
<path fill="none" stroke="midnightblue" d="M651.34,-135.5C636.625,-135.5 621.051,-135.5 606.259,-135.5"/>
<polygon fill="midnightblue" stroke="midnightblue" points="651.37,-139 661.37,-135.5 651.37,-132 651.37,-139"/>
</g>
<!-- Node31&#45;&gt;Node32 -->
<g id="edge42" class="edge"><title>Node31&#45;&gt;Node32</title>
<path fill="none" stroke="midnightblue" d="M452.714,-135.5C444.032,-135.5 435.355,-135.5 427.086,-135.5"/>
<polygon fill="midnightblue" stroke="midnightblue" points="452.883,-139 462.883,-135.5 452.883,-132 452.883,-139"/>
</g>
<!-- Node32&#45;&gt;Node6 -->
<g id="edge43" class="edge"><title>Node32&#45;&gt;Node6</title>
<path fill="none" stroke="midnightblue" d="M322.498,-147.54C301.333,-152.849 276.814,-158.999 256.955,-163.98"/>
<polygon fill="midnightblue" stroke="midnightblue" points="323.422,-150.917 332.27,-145.089 321.719,-144.127 323.422,-150.917"/>
</g>
<!-- Node33&#45;&gt;Node22 -->
<g id="edge48" class="edge"><title>Node33&#45;&gt;Node22</title>
<path fill="none" stroke="midnightblue" d="M876.044,-83.8172C863.464,-79.7787 848.586,-74.2545 836,-67.5 818.377,-58.0424 817.769,-49.6794 800,-40.5 791.409,-36.0619 781.878,-32.2176 772.514,-28.9648"/>
<polygon fill="midnightblue" stroke="midnightblue" points="875.385,-87.2754 885.971,-86.8544 877.433,-80.5817 875.385,-87.2754"/>
</g>
<!-- Node34 -->
<g id="node34" class="node"><title>Node34</title>
<g id="a_node34"><a xlink:href="../../d0/d14/struct_party.html#a7e6c7262893463554672cab394812b00" target="_top" xlink:title=" ">
<polygon fill="white" stroke="black" points="670.5,-50 670.5,-69 771.5,-69 771.5,-50 670.5,-50"/>
<text text-anchor="middle" x="721" y="-57" font-family="Helvetica,sans-Serif" font-size="10.00">Party::Sleep8Hours</text>
</a>
</g>
</g>
<!-- Node33&#45;&gt;Node34 -->
<g id="edge49" class="edge"><title>Node33&#45;&gt;Node34</title>
<path fill="none" stroke="midnightblue" d="M875.621,-86.5847C847.966,-81.7089 804.993,-74.1324 771.523,-68.2313"/>
<polygon fill="midnightblue" stroke="midnightblue" points="875.311,-90.0839 885.767,-88.3734 876.526,-83.1902 875.311,-90.0839"/>
</g>
<!-- Node35 -->
<g id="node35" class="node"><title>Node35</title>
<g id="a_node35"><a xlink:href="../../d2/d13/class_g_u_i_window___rest.html#a2fb35507e96666175f07fb9c0ed4c036" target="_top" xlink:title=" ">
<polygon fill="white" stroke="black" points="469.5,-50 469.5,-69 599.5,-69 599.5,-50 469.5,-50"/>
<text text-anchor="middle" x="534.5" y="-57" font-family="Helvetica,sans-Serif" font-size="10.00">GUIWindow_Rest::Update</text>
</a>
</g>
</g>
<!-- Node34&#45;&gt;Node35 -->
<g id="edge50" class="edge"><title>Node34&#45;&gt;Node35</title>
<path fill="none" stroke="midnightblue" d="M659.917,-59.5C640.655,-59.5 619.255,-59.5 599.71,-59.5"/>
<polygon fill="midnightblue" stroke="midnightblue" points="660.072,-63.0001 670.072,-59.5 660.072,-56.0001 660.072,-63.0001"/>
</g>
<!-- Node36&#45;&gt;Node3 -->
<g id="edge54" class="edge"><title>Node36&#45;&gt;Node3</title>
<path fill="none" stroke="midnightblue" d="M1750.79,-261.279C1730.3,-266.039 1706.48,-271.572 1685.12,-276.533"/>
<polygon fill="midnightblue" stroke="midnightblue" points="1751.62,-264.681 1760.56,-259.009 1750.03,-257.863 1751.62,-264.681"/>
</g>
<!-- Node36&#45;&gt;Node8 -->
<g id="edge55" class="edge"><title>Node36&#45;&gt;Node8</title>
<path fill="none" stroke="midnightblue" d="M1733.52,-248.345C1708.52,-247.92 1681.21,-247.455 1660.25,-247.099"/>
<polygon fill="midnightblue" stroke="midnightblue" points="1733.65,-251.847 1743.71,-248.518 1733.77,-244.848 1733.65,-251.847"/>
</g>
</g>
</svg>
