<?xml version="1.0" encoding="UTF-8" standalone="no"?>
<!DOCTYPE svg PUBLIC "-//W3C//DTD SVG 1.1//EN"
 "http://www.w3.org/Graphics/SVG/1.1/DTD/svg11.dtd">
<!-- Generated by graphviz version 2.38.0 (20140413.2041)
 -->
<!-- Title: Actor::AI_FaceObject Pages: 1 -->
<svg width="1192pt" height="154pt"
 viewBox="0.00 0.00 1192.00 153.50" xmlns="http://www.w3.org/2000/svg" xmlns:xlink="http://www.w3.org/1999/xlink">
<g id="graph0" class="graph" transform="scale(1 1) rotate(0) translate(4 149.5)">
<title>Actor::AI_FaceObject</title>
<polygon fill="white" stroke="none" points="-4,4 -4,-149.5 1188,-149.5 1188,4 -4,4"/>
<!-- Node1 -->
<g id="node1" class="node"><title>Node1</title>
<g id="a_node1"><a xlink:title=" ">
<polygon fill="#bfbfbf" stroke="black" points="1074,-38.5 1074,-57.5 1184,-57.5 1184,-38.5 1074,-38.5"/>
<text text-anchor="middle" x="1129" y="-45.5" font-family="Helvetica,sans-Serif" font-size="10.00">Actor::AI_FaceObject</text>
</a>
</g>
</g>
<!-- Node2 -->
<g id="node2" class="node"><title>Node2</title>
<g id="a_node2"><a xlink:href="../../dd/da4/_viewport_8cpp.html#a7291e3aad3c053a6f0dd0bbd788f375b" target="_top" xlink:title=" ">
<polygon fill="white" stroke="black" points="943.5,-76.5 943.5,-95.5 1028.5,-95.5 1028.5,-76.5 943.5,-76.5"/>
<text text-anchor="middle" x="986" y="-83.5" font-family="Helvetica,sans-Serif" font-size="10.00">ActorInteraction</text>
</a>
</g>
</g>
<!-- Node1&#45;&gt;Node2 -->
<g id="edge1" class="edge"><title>Node1&#45;&gt;Node2</title>
<path fill="none" stroke="midnightblue" d="M1082.56,-60.2462C1063.13,-65.484 1040.77,-71.5091 1022.57,-76.4141"/>
<polygon fill="midnightblue" stroke="midnightblue" points="1083.68,-63.5707 1092.42,-57.589 1081.85,-56.8118 1083.68,-63.5707"/>
</g>
<!-- Node10 -->
<g id="node10" class="node"><title>Node10</title>
<g id="a_node10"><a xlink:href="../../da/dc7/_indoor_8h.html#a91180cf18d91c79b7bc41c630c261cbd" target="_top" xlink:title=" ">
<polygon fill="white" stroke="black" points="936,-38.5 936,-57.5 1036,-57.5 1036,-38.5 936,-38.5"/>
<text text-anchor="middle" x="986" y="-45.5" font-family="Helvetica,sans-Serif" font-size="10.00">UpdateActors_BLV</text>
</a>
</g>
</g>
<!-- Node1&#45;&gt;Node10 -->
<g id="edge9" class="edge"><title>Node1&#45;&gt;Node10</title>
<path fill="none" stroke="midnightblue" d="M1063.87,-48C1054.55,-48 1045.08,-48 1036.12,-48"/>
<polygon fill="midnightblue" stroke="midnightblue" points="1063.89,-51.5001 1073.89,-48 1063.89,-44.5001 1063.89,-51.5001"/>
</g>
<!-- Node13 -->
<g id="node13" class="node"><title>Node13</title>
<g id="a_node13"><a xlink:href="../../dc/dfb/_outdoor_8h.html#ab3cc30c01fb2e9afa8ec291e6043bf99" target="_top" xlink:title=" ">
<polygon fill="white" stroke="black" points="934,-0.5 934,-19.5 1038,-19.5 1038,-0.5 934,-0.5"/>
<text text-anchor="middle" x="986" y="-7.5" font-family="Helvetica,sans-Serif" font-size="10.00">UpdateActors_ODM</text>
</a>
</g>
</g>
<!-- Node1&#45;&gt;Node13 -->
<g id="edge13" class="edge"><title>Node1&#45;&gt;Node13</title>
<path fill="none" stroke="midnightblue" d="M1082.56,-35.7538C1063.13,-30.516 1040.77,-24.4909 1022.57,-19.5859"/>
<polygon fill="midnightblue" stroke="midnightblue" points="1081.85,-39.1882 1092.42,-38.411 1083.68,-32.4293 1081.85,-39.1882"/>
</g>
<!-- Node3 -->
<g id="node3" class="node"><title>Node3</title>
<g id="a_node3"><a xlink:href="../../da/dc7/_indoor_8h.html#a610d890adaeca99c4a4e30e2d8c78d50" target="_top" xlink:title=" ">
<polygon fill="white" stroke="black" points="753.5,-115 753.5,-145 884.5,-145 884.5,-115 753.5,-115"/>
<text text-anchor="start" x="761.5" y="-133" font-family="Helvetica,sans-Serif" font-size="10.00">DoInteractionWithTopmost</text>
<text text-anchor="middle" x="819" y="-122" font-family="Helvetica,sans-Serif" font-size="10.00">ZObject</text>
</a>
</g>
</g>
<!-- Node2&#45;&gt;Node3 -->
<g id="edge2" class="edge"><title>Node2&#45;&gt;Node3</title>
<path fill="none" stroke="midnightblue" d="M939.367,-98.1687C919.91,-103.357 897.008,-109.465 876.495,-114.935"/>
<polygon fill="midnightblue" stroke="midnightblue" points="940.437,-101.506 949.197,-95.5473 938.633,-94.7422 940.437,-101.506"/>
</g>
<!-- Node9 -->
<g id="node9" class="node"><title>Node9</title>
<g id="a_node9"><a xlink:href="../../d6/d83/struct_engine.html#aa61c335333d4fc146a9d721c2a3de07f" target="_top" xlink:title=" ">
<polygon fill="white" stroke="black" points="743.5,-76.5 743.5,-95.5 894.5,-95.5 894.5,-76.5 743.5,-76.5"/>
<text text-anchor="middle" x="819" y="-83.5" font-family="Helvetica,sans-Serif" font-size="10.00">Engine::OnGameViewportClick</text>
</a>
</g>
</g>
<!-- Node2&#45;&gt;Node9 -->
<g id="edge8" class="edge"><title>Node2&#45;&gt;Node9</title>
<path fill="none" stroke="midnightblue" d="M933.345,-86C921.086,-86 907.766,-86 894.708,-86"/>
<polygon fill="midnightblue" stroke="midnightblue" points="933.364,-89.5001 943.364,-86 933.363,-82.5001 933.364,-89.5001"/>
</g>
<!-- Node4 -->
<g id="node4" class="node"><title>Node4</title>
<g id="a_node4"><a xlink:href="../../d4/d06/class_application_1_1_game.html#abdee85389dd132c251e41e1b953b5ced" target="_top" xlink:title=" ">
<polygon fill="white" stroke="black" points="597.5,-98 597.5,-128 700.5,-128 700.5,-98 597.5,-98"/>
<text text-anchor="start" x="605.5" y="-116" font-family="Helvetica,sans-Serif" font-size="10.00">Application::Game::</text>
<text text-anchor="middle" x="649" y="-105" font-family="Helvetica,sans-Serif" font-size="10.00">OnPressSpace</text>
</a>
</g>
</g>
<!-- Node3&#45;&gt;Node4 -->
<g id="edge3" class="edge"><title>Node3&#45;&gt;Node4</title>
<path fill="none" stroke="midnightblue" d="M742.768,-122.387C728.537,-120.947 713.967,-119.473 700.715,-118.132"/>
<polygon fill="midnightblue" stroke="midnightblue" points="742.745,-125.903 753.047,-123.427 743.45,-118.938 742.745,-125.903"/>
</g>
<!-- Node5 -->
<g id="node5" class="node"><title>Node5</title>
<g id="a_node5"><a xlink:href="../../d4/d06/class_application_1_1_game.html#a3f65e3f0ef1a9114fb3dea275e52442e" target="_top" xlink:title=" ">
<polygon fill="white" stroke="black" points="455,-92 455,-122 558,-122 558,-92 455,-92"/>
<text text-anchor="start" x="463" y="-110" font-family="Helvetica,sans-Serif" font-size="10.00">Application::Game::</text>
<text text-anchor="middle" x="506.5" y="-99" font-family="Helvetica,sans-Serif" font-size="10.00">EventLoop</text>
</a>
</g>
</g>
<!-- Node4&#45;&gt;Node5 -->
<g id="edge4" class="edge"><title>Node4&#45;&gt;Node5</title>
<path fill="none" stroke="midnightblue" d="M587.274,-110.407C577.56,-109.992 567.597,-109.566 558.149,-109.163"/>
<polygon fill="midnightblue" stroke="midnightblue" points="587.136,-113.904 597.276,-110.834 587.435,-106.91 587.136,-113.904"/>
</g>
<!-- Node6 -->
<g id="node6" class="node"><title>Node6</title>
<g id="a_node6"><a xlink:href="../../d4/d06/class_application_1_1_game.html#aaa0ff18388b32b4e6198835a35e000d3" target="_top" xlink:title=" ">
<polygon fill="white" stroke="black" points="316,-67 316,-97 419,-97 419,-67 316,-67"/>
<text text-anchor="start" x="324" y="-85" font-family="Helvetica,sans-Serif" font-size="10.00">Application::Game::</text>
<text text-anchor="middle" x="367.5" y="-74" font-family="Helvetica,sans-Serif" font-size="10.00">GameLoop</text>
</a>
</g>
</g>
<!-- Node5&#45;&gt;Node6 -->
<g id="edge5" class="edge"><title>Node5&#45;&gt;Node6</title>
<path fill="none" stroke="midnightblue" d="M444.958,-95.9522C436.417,-94.3936 427.709,-92.8045 419.374,-91.2835"/>
<polygon fill="midnightblue" stroke="midnightblue" points="444.41,-99.4098 454.875,-97.762 445.666,-92.5236 444.41,-99.4098"/>
</g>
<!-- Node7 -->
<g id="node7" class="node"><title>Node7</title>
<g id="a_node7"><a xlink:href="../../d4/d06/class_application_1_1_game.html#a013ffd59e8fdf1c0a396da1dbe1681ca" target="_top" xlink:title=" ">
<polygon fill="white" stroke="black" points="156,-72.5 156,-91.5 280,-91.5 280,-72.5 156,-72.5"/>
<text text-anchor="middle" x="218" y="-79.5" font-family="Helvetica,sans-Serif" font-size="10.00">Application::Game::Loop</text>
</a>
</g>
</g>
<!-- Node6&#45;&gt;Node7 -->
<g id="edge6" class="edge"><title>Node6&#45;&gt;Node7</title>
<path fill="none" stroke="midnightblue" d="M305.59,-82C297.149,-82 288.478,-82 280.035,-82"/>
<polygon fill="midnightblue" stroke="midnightblue" points="305.739,-85.5001 315.739,-82 305.739,-78.5001 305.739,-85.5001"/>
</g>
<!-- Node8 -->
<g id="node8" class="node"><title>Node8</title>
<g id="a_node8"><a xlink:href="../../d4/d06/class_application_1_1_game.html#a96341ca5b54d90adc3ecb3bf0bcd2312" target="_top" xlink:title=" ">
<polygon fill="white" stroke="black" points="0,-72.5 0,-91.5 120,-91.5 120,-72.5 0,-72.5"/>
<text text-anchor="middle" x="60" y="-79.5" font-family="Helvetica,sans-Serif" font-size="10.00">Application::Game::Run</text>
</a>
</g>
</g>
<!-- Node7&#45;&gt;Node8 -->
<g id="edge7" class="edge"><title>Node7&#45;&gt;Node8</title>
<path fill="none" stroke="midnightblue" d="M145.546,-82C137.081,-82 128.513,-82 120.244,-82"/>
<polygon fill="midnightblue" stroke="midnightblue" points="145.792,-85.5001 155.792,-82 145.792,-78.5001 145.792,-85.5001"/>
</g>
<!-- Node11 -->
<g id="node11" class="node"><title>Node11</title>
<g id="a_node11"><a xlink:href="../../da/dc7/_indoor_8h.html#a7d511837933d59eeeccfc25275a366d8" target="_top" xlink:title=" ">
<polygon fill="white" stroke="black" points="742,-38.5 742,-57.5 896,-57.5 896,-38.5 742,-38.5"/>
<text text-anchor="middle" x="819" y="-45.5" font-family="Helvetica,sans-Serif" font-size="10.00">BLV_UpdateUserInputAndOther</text>
</a>
</g>
</g>
<!-- Node10&#45;&gt;Node11 -->
<g id="edge10" class="edge"><title>Node10&#45;&gt;Node11</title>
<path fill="none" stroke="midnightblue" d="M925.714,-48C916.098,-48 906.023,-48 896.074,-48"/>
<polygon fill="midnightblue" stroke="midnightblue" points="925.941,-51.5001 935.941,-48 925.941,-44.5001 925.941,-51.5001"/>
</g>
<!-- Node12 -->
<g id="node12" class="node"><title>Node12</title>
<g id="a_node12"><a xlink:href="../../de/dcf/_engine_8h.html#a73fe5e8d7dc6ec78e5cc180d1915341b" target="_top" xlink:title=" ">
<polygon fill="white" stroke="black" points="594,-33 594,-63 704,-63 704,-33 594,-33"/>
<text text-anchor="start" x="602" y="-51" font-family="Helvetica,sans-Serif" font-size="10.00">UpdateUserInput_and</text>
<text text-anchor="middle" x="649" y="-40" font-family="Helvetica,sans-Serif" font-size="10.00">_MapSpecificStuff</text>
</a>
</g>
</g>
<!-- Node11&#45;&gt;Node12 -->
<g id="edge11" class="edge"><title>Node11&#45;&gt;Node12</title>
<path fill="none" stroke="midnightblue" d="M731.735,-48C722.393,-48 713.088,-48 704.284,-48"/>
<polygon fill="midnightblue" stroke="midnightblue" points="731.865,-51.5001 741.865,-48 731.865,-44.5001 731.865,-51.5001"/>
</g>
<!-- Node12&#45;&gt;Node6 -->
<g id="edge12" class="edge"><title>Node12&#45;&gt;Node6</title>
<path fill="none" stroke="midnightblue" d="M583.729,-55.8183C533.775,-61.895 465.439,-70.2078 419.276,-75.8233"/>
<polygon fill="midnightblue" stroke="midnightblue" points="584.274,-59.2779 593.778,-54.5959 583.429,-52.3291 584.274,-59.2779"/>
</g>
<!-- Node14 -->
<g id="node14" class="node"><title>Node14</title>
<g id="a_node14"><a xlink:href="../../dc/dfb/_outdoor_8h.html#aeedbd3470634fbb22ebda28d2f8006e4" target="_top" xlink:title=" ">
<polygon fill="white" stroke="black" points="740,-0.5 740,-19.5 898,-19.5 898,-0.5 740,-0.5"/>
<text text-anchor="middle" x="819" y="-7.5" font-family="Helvetica,sans-Serif" font-size="10.00">ODM_UpdateUserInputAndOther</text>
</a>
</g>
</g>
<!-- Node13&#45;&gt;Node14 -->
<g id="edge14" class="edge"><title>Node13&#45;&gt;Node14</title>
<path fill="none" stroke="midnightblue" d="M923.458,-10C915.227,-10 906.698,-10 898.229,-10"/>
<polygon fill="midnightblue" stroke="midnightblue" points="923.697,-13.5001 933.697,-10 923.697,-6.5001 923.697,-13.5001"/>
</g>
<!-- Node14&#45;&gt;Node12 -->
<g id="edge15" class="edge"><title>Node14&#45;&gt;Node12</title>
<path fill="none" stroke="midnightblue" d="M765.654,-21.8401C746.103,-26.2624 723.872,-31.2908 704.161,-35.7494"/>
<polygon fill="midnightblue" stroke="midnightblue" points="766.625,-25.209 775.607,-19.589 765.081,-18.3815 766.625,-25.209"/>
</g>
</g>
</svg>
