<?xml version="1.0" encoding="UTF-8" standalone="no"?>
<!DOCTYPE svg PUBLIC "-//W3C//DTD SVG 1.1//EN"
 "http://www.w3.org/Graphics/SVG/1.1/DTD/svg11.dtd">
<!-- Generated by graphviz version 2.38.0 (20140413.2041)
 -->
<!-- Title: MakeImageAlpha Pages: 1 -->
<svg width="264pt" height="127pt"
 viewBox="0.00 0.00 264.00 126.50" xmlns="http://www.w3.org/2000/svg" xmlns:xlink="http://www.w3.org/1999/xlink">
<g id="graph0" class="graph" transform="scale(1 1) rotate(0) translate(4 122.5)">
<title>MakeImageAlpha</title>
<polygon fill="white" stroke="none" points="-4,4 -4,-122.5 260,-122.5 260,4 -4,4"/>
<!-- Node1 -->
<g id="node1" class="node"><title>Node1</title>
<g id="a_node1"><a xlink:title=" ">
<polygon fill="#bfbfbf" stroke="black" points="164,-44.5 164,-63.5 256,-63.5 256,-44.5 164,-44.5"/>
<text text-anchor="middle" x="210" y="-51.5" font-family="Helvetica,sans-Serif" font-size="10.00">MakeImageAlpha</text>
</a>
</g>
</g>
<!-- Node2 -->
<g id="node2" class="node"><title>Node2</title>
<g id="a_node2"><a xlink:href="../../dd/db4/class_color_key___l_o_d___loader.html#abb39babe0aa159f704f959a5b92cda2b" target="_top" xlink:title=" ">
<polygon fill="white" stroke="black" points="6,-88 6,-118 122,-118 122,-88 6,-88"/>
<text text-anchor="start" x="14" y="-106" font-family="Helvetica,sans-Serif" font-size="10.00">ColorKey_LOD_Loader</text>
<text text-anchor="middle" x="64" y="-95" font-family="Helvetica,sans-Serif" font-size="10.00">::Load</text>
</a>
</g>
</g>
<!-- Node1&#45;&gt;Node2 -->
<g id="edge1" class="edge"><title>Node1&#45;&gt;Node2</title>
<path fill="none" stroke="midnightblue" d="M171.356,-66.8093C152.312,-73.2897 129.079,-81.1955 109.19,-87.963"/>
<polygon fill="midnightblue" stroke="midnightblue" points="172.554,-70.0989 180.894,-63.564 170.299,-63.472 172.554,-70.0989"/>
</g>
<!-- Node3 -->
<g id="node3" class="node"><title>Node3</title>
<g id="a_node3"><a xlink:href="../../d6/d04/class_image16bit___l_o_d___loader.html#aa051d215ee70bb680927d148787213bc" target="_top" xlink:title=" ">
<polygon fill="white" stroke="black" points="2.5,-39 2.5,-69 125.5,-69 125.5,-39 2.5,-39"/>
<text text-anchor="start" x="10.5" y="-57" font-family="Helvetica,sans-Serif" font-size="10.00">Image16bit_LOD_Loader</text>
<text text-anchor="middle" x="64" y="-46" font-family="Helvetica,sans-Serif" font-size="10.00">::Load</text>
</a>
</g>
</g>
<!-- Node1&#45;&gt;Node3 -->
<g id="edge2" class="edge"><title>Node1&#45;&gt;Node3</title>
<path fill="none" stroke="midnightblue" d="M153.655,-54C144.466,-54 134.894,-54 125.584,-54"/>
<polygon fill="midnightblue" stroke="midnightblue" points="153.833,-57.5001 163.833,-54 153.833,-50.5001 153.833,-57.5001"/>
</g>
<!-- Node4 -->
<g id="node4" class="node"><title>Node4</title>
<g id="a_node4"><a xlink:href="../../d1/df5/class_alpha___l_o_d___loader.html#a75be289126a7877979d78b1011b2470e" target="_top" xlink:title=" ">
<polygon fill="white" stroke="black" points="0,-0.5 0,-19.5 128,-19.5 128,-0.5 0,-0.5"/>
<text text-anchor="middle" x="64" y="-7.5" font-family="Helvetica,sans-Serif" font-size="10.00">Alpha_LOD_Loader::Load</text>
</a>
</g>
</g>
<!-- Node1&#45;&gt;Node4 -->
<g id="edge3" class="edge"><title>Node1&#45;&gt;Node4</title>
<path fill="none" stroke="midnightblue" d="M167.998,-41.4715C145.173,-34.4973 117.212,-25.9535 96.1849,-19.5287"/>
<polygon fill="midnightblue" stroke="midnightblue" points="167.168,-44.8776 177.754,-44.4527 169.213,-38.1832 167.168,-44.8776"/>
</g>
</g>
</svg>
