<?xml version="1.0" encoding="UTF-8" standalone="no"?>
<!DOCTYPE svg PUBLIC "-//W3C//DTD SVG 1.1//EN"
 "http://www.w3.org/Graphics/SVG/1.1/DTD/svg11.dtd">
<!-- Generated by graphviz version 2.38.0 (20140413.2041)
 -->
<!-- Title: avformat_close_input Pages: 1 -->
<!--zoomable 209 -->
<svg id="main" version="1.1" xmlns="http://www.w3.org/2000/svg" xmlns:xlink="http://www.w3.org/1999/xlink" xml:space="preserve" onload="init(evt)">
<style type="text/css"><![CDATA[
.edge:hover path { stroke: red; }
.edge:hover polygon { stroke: red; fill: red; }
]]></style>
<script type="text/javascript"><![CDATA[
var edges = document.getElementsByTagName('g');
if (edges && edges.length) {
  for (var i=0;i<edges.length;i++) {
    if (edges[i].id.substr(0,4)=='edge') {
      edges[i].setAttribute('class','edge');
    }
  }
}
]]></script>
        <defs>
                <circle id="rim" cx="0" cy="0" r="7"/>
                <circle id="rim2" cx="0" cy="0" r="3.5"/>
                <g id="zoomPlus">
                        <use xlink:href="#rim" fill="#404040">
                                <set attributeName="fill" to="#808080" begin="zoomplus.mouseover" end="zoomplus.mouseout"/>
                        </use>
                        <path d="M-4,0h8M0,-4v8" fill="none" stroke="white" stroke-width="1.5" pointer-events="none"/>
                </g>
                <g id="zoomMin">
                        <use xlink:href="#rim" fill="#404040">
                                <set attributeName="fill" to="#808080" begin="zoomminus.mouseover" end="zoomminus.mouseout"/>
                        </use>
                        <path d="M-4,0h8" fill="none" stroke="white" stroke-width="1.5" pointer-events="none"/>
                </g>
                <g id="dirArrow">
                        <path fill="none" stroke="white" stroke-width="1.5" d="M0,-3.0v7 M-2.5,-0.5L0,-3.0L2.5,-0.5"/>
                </g>
               <g id="resetDef">
                       <use xlink:href="#rim2" fill="#404040">
                               <set attributeName="fill" to="#808080" begin="reset.mouseover" end="reset.mouseout"/>
                       </use>
               </g>
        </defs>

<script type="text/javascript">
var viewWidth = 737;
var viewHeight = 209;
var sectionId = 'dynsection-6';
</script>
<script xlink:href="../../svgpan.js"/>
<svg id="graph" class="graph">
<g id="viewport">
<title>avformat_close_input</title>
<polygon fill="white" stroke="none" points="-4,4 -4,-204.5 733,-204.5 733,4 -4,4"/>
<!-- Node1 -->
<g id="node1" class="node"><title>Node1</title>
<g id="a_node1"><a xlink:title=" ">
<polygon fill="#bfbfbf" stroke="black" points="622,-82.5 622,-101.5 729,-101.5 729,-82.5 622,-82.5"/>
<text text-anchor="middle" x="675.5" y="-89.5" font-family="Helvetica,sans-Serif" font-size="10.00">avformat_close_input</text>
</a>
</g>
</g>
<!-- Node2 -->
<g id="node2" class="node"><title>Node2</title>
<g id="a_node2"><a xlink:href="../../da/dfd/class_audio_base_data_source.html#ae810f4bf456410a7f34556dac7a72096" target="_top" xlink:title=" ">
<polygon fill="white" stroke="black" points="466.5,-110 466.5,-140 581.5,-140 581.5,-110 466.5,-110"/>
<text text-anchor="start" x="474.5" y="-128" font-family="Helvetica,sans-Serif" font-size="10.00">AudioBaseDataSource</text>
<text text-anchor="middle" x="524" y="-117" font-family="Helvetica,sans-Serif" font-size="10.00">::Close</text>
</a>
</g>
</g>
<!-- Node1&#45;&gt;Node2 -->
<g id="edge1" class="edge"><title>Node1&#45;&gt;Node2</title>
<path fill="none" stroke="midnightblue" d="M621.172,-103.771C608.307,-106.611 594.518,-109.655 581.513,-112.526"/>
<polygon fill="midnightblue" stroke="midnightblue" points="622.248,-107.118 631.258,-101.545 620.739,-100.283 622.248,-107.118"/>
</g>
<!-- Node7 -->
<g id="node7" class="node"><title>Node7</title>
<g id="a_node7"><a xlink:href="../../de/d14/class_movie.html#ae127560c9b743d7a21ad27f0c617a0ba" target="_top" xlink:title=" ">
<polygon fill="white" stroke="black" points="462,-49.5 462,-68.5 586,-68.5 586,-49.5 462,-49.5"/>
<text text-anchor="middle" x="524" y="-56.5" font-family="Helvetica,sans-Serif" font-size="10.00">Movie::ReleaseAVCodec</text>
</a>
</g>
</g>
<!-- Node1&#45;&gt;Node7 -->
<g id="edge7" class="edge"><title>Node1&#45;&gt;Node7</title>
<path fill="none" stroke="midnightblue" d="M621.236,-80.2427C603.825,-76.3995 584.715,-72.1812 568.144,-68.5235"/>
<polygon fill="midnightblue" stroke="midnightblue" points="620.739,-83.7172 631.258,-82.455 622.248,-76.8818 620.739,-83.7172"/>
</g>
<!-- Node3 -->
<g id="node3" class="node"><title>Node3</title>
<g id="a_node3"><a xlink:href="../../da/dfd/class_audio_base_data_source.html#a70c5309340c769cdb690e2afe79a3c74" target="_top" xlink:title=" ">
<polygon fill="white" stroke="black" points="305,-165 305,-195 420,-195 420,-165 305,-165"/>
<text text-anchor="start" x="313" y="-183" font-family="Helvetica,sans-Serif" font-size="10.00">AudioBaseDataSource</text>
<text text-anchor="middle" x="362.5" y="-172" font-family="Helvetica,sans-Serif" font-size="10.00">::Open</text>
</a>
</g>
</g>
<!-- Node2&#45;&gt;Node3 -->
<g id="edge2" class="edge"><title>Node2&#45;&gt;Node3</title>
<path fill="none" stroke="midnightblue" d="M469.937,-143.298C449.515,-150.34 426.454,-158.292 407.031,-164.989"/>
<polygon fill="midnightblue" stroke="midnightblue" points="471.103,-146.598 479.416,-140.029 468.821,-139.98 471.103,-146.598"/>
</g>
<!-- Node5 -->
<g id="node5" class="node"><title>Node5</title>
<g id="a_node5"><a xlink:href="../../d0/de5/class_audio_buffer_data_source.html#af3355c6bb925e3a5968e594668f8c6b6" target="_top" xlink:title=" ">
<polygon fill="white" stroke="black" points="146,-121 146,-151 263,-151 263,-121 146,-121"/>
<text text-anchor="start" x="154" y="-139" font-family="Helvetica,sans-Serif" font-size="10.00">AudioBufferDataSource</text>
<text text-anchor="middle" x="204.5" y="-128" font-family="Helvetica,sans-Serif" font-size="10.00">::Open</text>
</a>
</g>
</g>
<!-- Node2&#45;&gt;Node5 -->
<g id="edge5" class="edge"><title>Node2&#45;&gt;Node5</title>
<path fill="none" stroke="midnightblue" d="M456.208,-127.314C399.006,-129.296 317.492,-132.12 263.11,-134.004"/>
<polygon fill="midnightblue" stroke="midnightblue" points="456.365,-130.811 466.237,-126.967 456.122,-123.815 456.365,-130.811"/>
</g>
<!-- Node6 -->
<g id="node6" class="node"><title>Node6</title>
<g id="a_node6"><a xlink:href="../../da/dfd/class_audio_base_data_source.html#ad43a6ea2a3adf5381bcaef398bba80c3" target="_top" xlink:title=" ">
<polygon fill="white" stroke="black" points="299,-77 299,-107 426,-107 426,-77 299,-77"/>
<text text-anchor="start" x="307" y="-95" font-family="Helvetica,sans-Serif" font-size="10.00">AudioBaseDataSource</text>
<text text-anchor="middle" x="362.5" y="-84" font-family="Helvetica,sans-Serif" font-size="10.00">::~AudioBaseDataSource</text>
</a>
</g>
</g>
<!-- Node2&#45;&gt;Node6 -->
<g id="edge6" class="edge"><title>Node2&#45;&gt;Node6</title>
<path fill="none" stroke="midnightblue" d="M456.436,-111.228C446.437,-109.159 436.152,-107.032 426.236,-104.98"/>
<polygon fill="midnightblue" stroke="midnightblue" points="455.815,-114.674 466.317,-113.273 457.234,-107.819 455.815,-114.674"/>
</g>
<!-- Node4 -->
<g id="node4" class="node"><title>Node4</title>
<g id="a_node4"><a xlink:href="../../d6/dd4/class_audio_file_data_source.html#ac200a49a8fdc19da4e0d0a5c451e1fab" target="_top" xlink:title=" ">
<polygon fill="white" stroke="black" points="150.5,-170 150.5,-200 258.5,-200 258.5,-170 150.5,-170"/>
<text text-anchor="start" x="158.5" y="-188" font-family="Helvetica,sans-Serif" font-size="10.00">AudioFileDataSource</text>
<text text-anchor="middle" x="204.5" y="-177" font-family="Helvetica,sans-Serif" font-size="10.00">::Open</text>
</a>
</g>
</g>
<!-- Node3&#45;&gt;Node4 -->
<g id="edge3" class="edge"><title>Node3&#45;&gt;Node4</title>
<path fill="none" stroke="midnightblue" d="M294.71,-182.141C282.638,-182.528 270.199,-182.926 258.584,-183.299"/>
<polygon fill="midnightblue" stroke="midnightblue" points="294.856,-185.638 304.739,-181.819 294.632,-178.641 294.856,-185.638"/>
</g>
<!-- Node3&#45;&gt;Node5 -->
<g id="edge4" class="edge"><title>Node3&#45;&gt;Node5</title>
<path fill="none" stroke="midnightblue" d="M298.349,-162.188C285.219,-158.485 271.507,-154.617 258.775,-151.026"/>
<polygon fill="midnightblue" stroke="midnightblue" points="297.675,-165.635 308.25,-164.981 299.576,-158.898 297.675,-165.635"/>
</g>
<!-- Node8 -->
<g id="node8" class="node"><title>Node8</title>
<g id="a_node8"><a xlink:href="../../de/d14/class_movie.html#a92a659499a03cd3dbffa24fde86470a5" target="_top" xlink:title=" ">
<polygon fill="white" stroke="black" points="326.5,-38.5 326.5,-57.5 398.5,-57.5 398.5,-38.5 326.5,-38.5"/>
<text text-anchor="middle" x="362.5" y="-45.5" font-family="Helvetica,sans-Serif" font-size="10.00">Movie::Close</text>
</a>
</g>
</g>
<!-- Node7&#45;&gt;Node8 -->
<g id="edge8" class="edge"><title>Node7&#45;&gt;Node8</title>
<path fill="none" stroke="midnightblue" d="M451.712,-54.0836C433.417,-52.8219 414.522,-51.5188 398.935,-50.4438"/>
<polygon fill="midnightblue" stroke="midnightblue" points="451.572,-57.5822 461.789,-54.7786 452.054,-50.5988 451.572,-57.5822"/>
</g>
<!-- Node9 -->
<g id="node9" class="node"><title>Node9</title>
<g id="a_node9"><a xlink:href="../../de/d14/class_movie.html#aa9f6ef7307d7a42b57db6d14de6e2cfe" target="_top" xlink:title=" ">
<polygon fill="white" stroke="black" points="159,-76.5 159,-95.5 250,-95.5 250,-76.5 159,-76.5"/>
<text text-anchor="middle" x="204.5" y="-83.5" font-family="Helvetica,sans-Serif" font-size="10.00">Movie::GetFrame</text>
</a>
</g>
</g>
<!-- Node8&#45;&gt;Node9 -->
<g id="edge9" class="edge"><title>Node8&#45;&gt;Node9</title>
<path fill="none" stroke="midnightblue" d="M316.704,-58.9118C293.896,-64.4676 266.431,-71.1577 244.503,-76.4993"/>
<polygon fill="midnightblue" stroke="midnightblue" points="317.603,-62.2953 326.491,-56.5279 315.946,-55.4941 317.603,-62.2953"/>
</g>
<!-- Node10 -->
<g id="node10" class="node"><title>Node10</title>
<g id="a_node10"><a xlink:href="../../de/d14/class_movie.html#a5ff25439adbe3f75e945dd2b4bd8deaa" target="_top" xlink:title=" ">
<polygon fill="white" stroke="black" points="170.5,-38.5 170.5,-57.5 238.5,-57.5 238.5,-38.5 170.5,-38.5"/>
<text text-anchor="middle" x="204.5" y="-45.5" font-family="Helvetica,sans-Serif" font-size="10.00">Movie::Load</text>
</a>
</g>
</g>
<!-- Node8&#45;&gt;Node10 -->
<g id="edge10" class="edge"><title>Node8&#45;&gt;Node10</title>
<path fill="none" stroke="midnightblue" d="M316.213,-48C291.371,-48 261.123,-48 238.525,-48"/>
<polygon fill="midnightblue" stroke="midnightblue" points="316.491,-51.5001 326.491,-48 316.491,-44.5001 316.491,-51.5001"/>
</g>
<!-- Node12 -->
<g id="node12" class="node"><title>Node12</title>
<g id="a_node12"><a xlink:href="../../de/d14/class_movie.html#abb2861f5e0f380ca942f68c05833ffe8" target="_top" xlink:title=" ">
<polygon fill="white" stroke="black" points="165.5,-0.5 165.5,-19.5 243.5,-19.5 243.5,-0.5 165.5,-0.5"/>
<text text-anchor="middle" x="204.5" y="-7.5" font-family="Helvetica,sans-Serif" font-size="10.00">Movie::~Movie</text>
</a>
</g>
</g>
<!-- Node8&#45;&gt;Node12 -->
<g id="edge12" class="edge"><title>Node8&#45;&gt;Node12</title>
<path fill="none" stroke="midnightblue" d="M316.592,-37.0609C293.516,-31.4398 265.697,-24.6633 243.67,-19.2977"/>
<polygon fill="midnightblue" stroke="midnightblue" points="315.946,-40.5059 326.491,-39.4721 317.603,-33.7047 315.946,-40.5059"/>
</g>
<!-- Node11 -->
<g id="node11" class="node"><title>Node11</title>
<g id="a_node11"><a xlink:href="../../de/d14/class_movie.html#ae528f4eacffa4317dd6404768ff563dc" target="_top" xlink:title=" ">
<polygon fill="white" stroke="black" points="0,-38.5 0,-57.5 110,-57.5 110,-38.5 0,-38.5"/>
<text text-anchor="middle" x="55" y="-45.5" font-family="Helvetica,sans-Serif" font-size="10.00">Movie::LoadFromLOD</text>
</a>
</g>
</g>
<!-- Node10&#45;&gt;Node11 -->
<g id="edge11" class="edge"><title>Node10&#45;&gt;Node11</title>
<path fill="none" stroke="midnightblue" d="M159.975,-48C144.35,-48 126.537,-48 110.123,-48"/>
<polygon fill="midnightblue" stroke="midnightblue" points="160.398,-51.5001 170.398,-48 160.398,-44.5001 160.398,-51.5001"/>
</g>
</g>
</svg>
        <g id="navigator" transform="translate(0 0)" fill="#404254">
                <rect fill="#f2f5e9" fill-opacity="0.5" stroke="#606060" stroke-width=".5" x="0" y="0" width="60" height="60"/>
                <use id="zoomplus" xlink:href="#zoomPlus" x="17" y="9" onmousedown="handleZoom(evt,'in')"/>
                <use id="zoomminus" xlink:href="#zoomMin" x="42" y="9" onmousedown="handleZoom(evt,'out')"/>
                <use id="reset" xlink:href="#resetDef" x="30" y="36" onmousedown="handleReset()"/>
                <g id="arrowUp" xlink:href="#dirArrow" transform="translate(30 24)" onmousedown="handlePan(0,-1)">
                  <use xlink:href="#rim" fill="#404040">
                        <set attributeName="fill" to="#808080" begin="arrowUp.mouseover" end="arrowUp.mouseout"/>
                  </use>
                  <path fill="none" stroke="white" stroke-width="1.5" d="M0,-3.0v7 M-2.5,-0.5L0,-3.0L2.5,-0.5"/>
                </g>
                <g id="arrowRight" xlink:href="#dirArrow" transform="rotate(90) translate(36 -43)" onmousedown="handlePan(1,0)">
                  <use xlink:href="#rim" fill="#404040">
                        <set attributeName="fill" to="#808080" begin="arrowRight.mouseover" end="arrowRight.mouseout"/>
                  </use>
                  <path fill="none" stroke="white" stroke-width="1.5" d="M0,-3.0v7 M-2.5,-0.5L0,-3.0L2.5,-0.5"/>
                </g>
                <g id="arrowDown" xlink:href="#dirArrow" transform="rotate(180) translate(-30 -48)" onmousedown="handlePan(0,1)">
                  <use xlink:href="#rim" fill="#404040">
                        <set attributeName="fill" to="#808080" begin="arrowDown.mouseover" end="arrowDown.mouseout"/>
                  </use>
                  <path fill="none" stroke="white" stroke-width="1.5" d="M0,-3.0v7 M-2.5,-0.5L0,-3.0L2.5,-0.5"/>
                </g>
                <g id="arrowLeft" xlink:href="#dirArrow" transform="rotate(270) translate(-36 17)" onmousedown="handlePan(-1,0)">
                  <use xlink:href="#rim" fill="#404040">
                        <set attributeName="fill" to="#808080" begin="arrowLeft.mouseover" end="arrowLeft.mouseout"/>
                  </use>
                  <path fill="none" stroke="white" stroke-width="1.5" d="M0,-3.0v7 M-2.5,-0.5L0,-3.0L2.5,-0.5"/>
                </g>
        </g>
        <svg viewBox="0 0 15 15" width="100%" height="30px" preserveAspectRatio="xMaxYMin meet">
         <g id="arrow_out" transform="scale(0.3 0.3)">
          <a xlink:href="group__lavf__decoding_gae804b99aec044690162b8b9b110236a4_icgraph_org.svg" target="_base">
           <rect id="button" ry="5" rx="5" y="6" x="6" height="38" width="38"
                fill="#f2f5e9" fill-opacity="0.5" stroke="#606060" stroke-width="1.0"/>
           <path id="arrow"
             d="M 11.500037,31.436501 C 11.940474,20.09759 22.043105,11.32322 32.158766,21.979434 L 37.068811,17.246167 C 37.068811,17.246167 37.088388,32 37.088388,32 L 22.160133,31.978069 C 22.160133,31.978069 26.997745,27.140456 26.997745,27.140456 C 18.528582,18.264221 13.291696,25.230495 11.500037,31.436501 z"
             style="fill:#404040;"/>
          </a>
         </g>
        </svg>
</svg>
