<?xml version="1.0" encoding="UTF-8" standalone="no"?>
<!DOCTYPE svg PUBLIC "-//W3C//DTD SVG 1.1//EN"
 "http://www.w3.org/Graphics/SVG/1.1/DTD/svg11.dtd">
<!-- Generated by graphviz version 2.38.0 (20140413.2041)
 -->
<!-- Title: OpenALSoundProvider::PlayTrack16 Pages: 1 -->
<svg width="476pt" height="268pt"
 viewBox="0.00 0.00 476.00 267.50" xmlns="http://www.w3.org/2000/svg" xmlns:xlink="http://www.w3.org/1999/xlink">
<g id="graph0" class="graph" transform="scale(1 1) rotate(0) translate(4 263.5)">
<title>OpenALSoundProvider::PlayTrack16</title>
<polygon fill="white" stroke="none" points="-4,4 -4,-263.5 472,-263.5 472,4 -4,4"/>
<!-- Node1 -->
<g id="node1" class="node"><title>Node1</title>
<g id="a_node1"><a xlink:title=" ">
<polygon fill="#bfbfbf" stroke="black" points="0,-109 0,-139 114,-139 114,-109 0,-109"/>
<text text-anchor="start" x="8" y="-127" font-family="Helvetica,sans-Serif" font-size="10.00">OpenALSoundProvider</text>
<text text-anchor="middle" x="57" y="-116" font-family="Helvetica,sans-Serif" font-size="10.00">::PlayTrack16</text>
</a>
</g>
</g>
<!-- Node2 -->
<g id="node2" class="node"><title>Node2</title>
<g id="a_node2"><a xlink:href="../../d9/d98/class_open_a_l_sound_provider.html#a38b3e262cf2d0df63670e3fe17397d5e" target="_top" xlink:title=" ">
<polygon fill="white" stroke="black" points="150,-229 150,-259 264,-259 264,-229 150,-229"/>
<text text-anchor="start" x="158" y="-247" font-family="Helvetica,sans-Serif" font-size="10.00">OpenALSoundProvider</text>
<text text-anchor="middle" x="207" y="-236" font-family="Helvetica,sans-Serif" font-size="10.00">::alBufferLength</text>
</a>
</g>
</g>
<!-- Node1&#45;&gt;Node2 -->
<g id="edge1" class="edge"><title>Node1&#45;&gt;Node2</title>
<path fill="none" stroke="midnightblue" d="M70.9141,-139.035C87.7779,-158.069 118.837,-191.13 150,-214 154.785,-217.512 160.033,-220.872 165.337,-223.991"/>
<polygon fill="midnightblue" stroke="midnightblue" points="163.813,-227.149 174.246,-228.994 167.241,-221.046 163.813,-227.149"/>
</g>
<!-- Node4 -->
<g id="node4" class="node"><title>Node4</title>
<g id="a_node4"><a xlink:href="../../d4/db9/_open_a_l_sound_provider_8cpp.html#aece65ae279d5009406167c5949cdf6e1" target="_top" xlink:title=" ">
<polygon fill="white" stroke="black" points="301,-190.5 301,-209.5 366,-209.5 366,-190.5 301,-190.5"/>
<text text-anchor="middle" x="333.5" y="-197.5" font-family="Helvetica,sans-Serif" font-size="10.00">CheckError</text>
</a>
</g>
</g>
<!-- Node1&#45;&gt;Node4 -->
<g id="edge11" class="edge"><title>Node1&#45;&gt;Node4</title>
<path fill="none" stroke="midnightblue" d="M79.1932,-139.117C97.1609,-151.14 124.073,-167.333 150,-176 196.542,-191.558 252.915,-197.087 290.578,-199.02"/>
<polygon fill="midnightblue" stroke="midnightblue" points="290.534,-202.522 300.681,-199.476 290.849,-195.529 290.534,-202.522"/>
</g>
<!-- Node7 -->
<g id="node7" class="node"><title>Node7</title>
<g id="a_node7"><a xlink:href="../../d4/db9/_open_a_l_sound_provider_8cpp.html#a5ed8e2adc6340d877478a62cc1d448c9" target="_top" xlink:title=" ">
<polygon fill="white" stroke="black" points="421,-152.5 421,-171.5 450,-171.5 450,-152.5 421,-152.5"/>
<text text-anchor="middle" x="435.5" y="-159.5" font-family="Helvetica,sans-Serif" font-size="10.00">log</text>
</a>
</g>
</g>
<!-- Node1&#45;&gt;Node7 -->
<g id="edge12" class="edge"><title>Node1&#45;&gt;Node7</title>
<path fill="none" stroke="midnightblue" d="M114.229,-136.884C125.997,-139.222 138.364,-141.418 150,-143 246.018,-156.059 361.541,-160.256 410.599,-161.508"/>
<polygon fill="midnightblue" stroke="midnightblue" points="410.732,-165.012 420.812,-161.75 410.898,-158.014 410.732,-165.012"/>
</g>
<!-- Node8 -->
<g id="node8" class="node"><title>Node8</title>
<g id="a_node8"><a xlink:href="../../d1/d20/al_8h.html#a351078b6c8ce55fb2f10a1d2f0b0175d" target="_top" xlink:title=" ">
<polygon fill="white" stroke="black" points="170.5,-114.5 170.5,-133.5 243.5,-133.5 243.5,-114.5 170.5,-114.5"/>
<text text-anchor="middle" x="207" y="-121.5" font-family="Helvetica,sans-Serif" font-size="10.00">alGetSourcef</text>
</a>
</g>
</g>
<!-- Node1&#45;&gt;Node8 -->
<g id="edge7" class="edge"><title>Node1&#45;&gt;Node8</title>
<path fill="none" stroke="midnightblue" d="M114.375,-124C129.493,-124 145.655,-124 160.129,-124"/>
<polygon fill="midnightblue" stroke="midnightblue" points="160.331,-127.5 170.331,-124 160.331,-120.5 160.331,-127.5"/>
</g>
<!-- Node9 -->
<g id="node9" class="node"><title>Node9</title>
<g id="a_node9"><a xlink:href="../../d1/d20/al_8h.html#a9ab43cbddc0f0a059f141c4cd96aafd7" target="_top" xlink:title=" ">
<polygon fill="white" stroke="black" points="170.5,-76.5 170.5,-95.5 243.5,-95.5 243.5,-76.5 170.5,-76.5"/>
<text text-anchor="middle" x="207" y="-83.5" font-family="Helvetica,sans-Serif" font-size="10.00">alGetSourcei</text>
</a>
</g>
</g>
<!-- Node1&#45;&gt;Node9 -->
<g id="edge8" class="edge"><title>Node1&#45;&gt;Node9</title>
<path fill="none" stroke="midnightblue" d="M114.375,-109.525C129.64,-105.606 145.968,-101.414 160.55,-97.6696"/>
<polygon fill="midnightblue" stroke="midnightblue" points="161.516,-101.035 170.331,-95.1582 159.775,-94.2552 161.516,-101.035"/>
</g>
<!-- Node10 -->
<g id="node10" class="node"><title>Node10</title>
<g id="a_node10"><a xlink:href="../../d1/d20/al_8h.html#ad3394e6f7a006c20921dfd59220f2bab" target="_top" xlink:title=" ">
<polygon fill="white" stroke="black" points="178.5,-38.5 178.5,-57.5 235.5,-57.5 235.5,-38.5 178.5,-38.5"/>
<text text-anchor="middle" x="207" y="-45.5" font-family="Helvetica,sans-Serif" font-size="10.00">alSourcei</text>
</a>
</g>
</g>
<!-- Node1&#45;&gt;Node10 -->
<g id="edge9" class="edge"><title>Node1&#45;&gt;Node10</title>
<path fill="none" stroke="midnightblue" d="M79.1474,-108.962C97.3064,-96.5296 124.511,-79.0274 150,-67 155.91,-64.2111 162.344,-61.6344 168.675,-59.3368"/>
<polygon fill="midnightblue" stroke="midnightblue" points="170.137,-62.5348 178.45,-55.9656 167.855,-55.9173 170.137,-62.5348"/>
</g>
<!-- Node11 -->
<g id="node11" class="node"><title>Node11</title>
<g id="a_node11"><a xlink:href="../../d1/d20/al_8h.html#aa6fe20b22cffa118d1a56b8168b86864" target="_top" xlink:title=" ">
<polygon fill="white" stroke="black" points="170,-0.5 170,-19.5 244,-19.5 244,-0.5 170,-0.5"/>
<text text-anchor="middle" x="207" y="-7.5" font-family="Helvetica,sans-Serif" font-size="10.00">alSourcePlay</text>
</a>
</g>
</g>
<!-- Node1&#45;&gt;Node11 -->
<g id="edge10" class="edge"><title>Node1&#45;&gt;Node11</title>
<path fill="none" stroke="midnightblue" d="M69.0661,-108.652C84.8269,-87.8275 115.662,-50.7332 150,-29 153.321,-26.8982 156.901,-25 160.588,-23.2918"/>
<polygon fill="midnightblue" stroke="midnightblue" points="161.996,-26.4969 169.888,-19.4284 159.311,-20.0325 161.996,-26.4969"/>
</g>
<!-- Node3 -->
<g id="node3" class="node"><title>Node3</title>
<g id="a_node3"><a xlink:href="../../d1/d20/al_8h.html#abdbdac4ec86ac4f59855b5a7673fe366" target="_top" xlink:title=" ">
<polygon fill="white" stroke="black" points="300,-234.5 300,-253.5 367,-253.5 367,-234.5 300,-234.5"/>
<text text-anchor="middle" x="333.5" y="-241.5" font-family="Helvetica,sans-Serif" font-size="10.00">alGetBufferi</text>
</a>
</g>
</g>
<!-- Node2&#45;&gt;Node3 -->
<g id="edge2" class="edge"><title>Node2&#45;&gt;Node3</title>
<path fill="none" stroke="midnightblue" d="M264.058,-244C272.681,-244 281.463,-244 289.735,-244"/>
<polygon fill="midnightblue" stroke="midnightblue" points="289.89,-247.5 299.889,-244 289.889,-240.5 289.89,-247.5"/>
</g>
<!-- Node2&#45;&gt;Node4 -->
<g id="edge3" class="edge"><title>Node2&#45;&gt;Node4</title>
<path fill="none" stroke="midnightblue" d="M250.498,-228.981C265.264,-223.762 281.685,-217.959 295.93,-212.924"/>
<polygon fill="midnightblue" stroke="midnightblue" points="297.136,-216.21 305.398,-209.578 294.803,-209.611 297.136,-216.21"/>
</g>
<!-- Node5 -->
<g id="node5" class="node"><title>Node5</title>
<g id="a_node5"><a xlink:href="../../d1/d20/al_8h.html#a4186472fc50616acf52fd0b41232e044" target="_top" xlink:title=" ">
<polygon fill="white" stroke="black" points="405,-228.5 405,-247.5 466,-247.5 466,-228.5 405,-228.5"/>
<text text-anchor="middle" x="435.5" y="-235.5" font-family="Helvetica,sans-Serif" font-size="10.00">alGetError</text>
</a>
</g>
</g>
<!-- Node4&#45;&gt;Node5 -->
<g id="edge4" class="edge"><title>Node4&#45;&gt;Node5</title>
<path fill="none" stroke="midnightblue" d="M359.734,-209.589C371.814,-214.179 386.475,-219.75 399.602,-224.739"/>
<polygon fill="midnightblue" stroke="midnightblue" points="398.683,-228.134 409.274,-228.414 401.169,-221.59 398.683,-228.134"/>
</g>
<!-- Node6 -->
<g id="node6" class="node"><title>Node6</title>
<g id="a_node6"><a xlink:href="../../d1/d20/al_8h.html#afff97eeab77b7d7ca32af121f1f7c76b" target="_top" xlink:title=" ">
<polygon fill="white" stroke="black" points="403,-190.5 403,-209.5 468,-209.5 468,-190.5 403,-190.5"/>
<text text-anchor="middle" x="435.5" y="-197.5" font-family="Helvetica,sans-Serif" font-size="10.00">alGetString</text>
</a>
</g>
</g>
<!-- Node4&#45;&gt;Node6 -->
<g id="edge5" class="edge"><title>Node4&#45;&gt;Node6</title>
<path fill="none" stroke="midnightblue" d="M366.141,-200C374.531,-200 383.721,-200 392.566,-200"/>
<polygon fill="midnightblue" stroke="midnightblue" points="392.722,-203.5 402.722,-200 392.722,-196.5 392.722,-203.5"/>
</g>
<!-- Node4&#45;&gt;Node7 -->
<g id="edge6" class="edge"><title>Node4&#45;&gt;Node7</title>
<path fill="none" stroke="midnightblue" d="M359.734,-190.411C375.682,-184.351 396.126,-176.582 411.605,-170.7"/>
<polygon fill="midnightblue" stroke="midnightblue" points="412.857,-173.969 420.962,-167.145 410.37,-167.425 412.857,-173.969"/>
</g>
</g>
</svg>
