<?xml version="1.0" encoding="UTF-8" standalone="no"?>
<!DOCTYPE svg PUBLIC "-//W3C//DTD SVG 1.1//EN"
 "http://www.w3.org/Graphics/SVG/1.1/DTD/svg11.dtd">
<!-- Generated by graphviz version 2.38.0 (20140413.2041)
 -->
<!-- Title: LightmapBuilder::StackLights_TerrainFace Pages: 1 -->
<svg width="539pt" height="142pt"
 viewBox="0.00 0.00 539.00 142.00" xmlns="http://www.w3.org/2000/svg" xmlns:xlink="http://www.w3.org/1999/xlink">
<g id="graph0" class="graph" transform="scale(1 1) rotate(0) translate(4 138)">
<title>LightmapBuilder::StackLights_TerrainFace</title>
<polygon fill="white" stroke="none" points="-4,4 -4,-138 535,-138 535,4 -4,4"/>
<!-- Node1 -->
<g id="node1" class="node"><title>Node1</title>
<g id="a_node1"><a xlink:title=" ">
<polygon fill="#bfbfbf" stroke="black" points="0,-52 0,-82 144,-82 144,-52 0,-52"/>
<text text-anchor="start" x="8" y="-70" font-family="Helvetica,sans-Serif" font-size="10.00">LightmapBuilder::StackLights</text>
<text text-anchor="middle" x="72" y="-59" font-family="Helvetica,sans-Serif" font-size="10.00">_TerrainFace</text>
</a>
</g>
</g>
<!-- Node2 -->
<g id="node2" class="node"><title>Node2</title>
<g id="a_node2"><a xlink:href="../../d8/d95/class_lightmap_builder.html#a2897b34201f31971294789d3d0bbcf17" target="_top" xlink:title=" ">
<polygon fill="white" stroke="black" points="180,-52 180,-82 319,-82 319,-52 180,-52"/>
<text text-anchor="start" x="188" y="-70" font-family="Helvetica,sans-Serif" font-size="10.00">LightmapBuilder::StackLight</text>
<text text-anchor="middle" x="249.5" y="-59" font-family="Helvetica,sans-Serif" font-size="10.00">_TerrainFace</text>
</a>
</g>
</g>
<!-- Node1&#45;&gt;Node2 -->
<g id="edge1" class="edge"><title>Node1&#45;&gt;Node2</title>
<path fill="none" stroke="midnightblue" d="M144.13,-67C152.506,-67 161.092,-67 169.567,-67"/>
<polygon fill="midnightblue" stroke="midnightblue" points="169.828,-70.5001 179.828,-67 169.828,-63.5001 169.828,-70.5001"/>
</g>
<!-- Node3 -->
<g id="node3" class="node"><title>Node3</title>
<g id="a_node3"><a xlink:href="../../d9/de5/struct_indoor_camera_d3_d.html#ab41d05e68756ae03c5a2f14c6efdb1bf" target="_top" xlink:title=" ">
<polygon fill="white" stroke="black" points="355,-114.5 355,-133.5 531,-133.5 531,-114.5 355,-114.5"/>
<text text-anchor="middle" x="443" y="-121.5" font-family="Helvetica,sans-Serif" font-size="10.00">IndoorCameraD3D::GetPolygonMaxZ</text>
</a>
</g>
</g>
<!-- Node2&#45;&gt;Node3 -->
<g id="edge2" class="edge"><title>Node2&#45;&gt;Node3</title>
<path fill="none" stroke="midnightblue" d="M288.314,-82.1361C307.991,-89.6575 332.563,-98.5022 355,-105 364.038,-107.617 373.695,-110.064 383.167,-112.273"/>
<polygon fill="midnightblue" stroke="midnightblue" points="382.41,-115.691 392.937,-114.487 383.957,-108.864 382.41,-115.691"/>
</g>
<!-- Node4 -->
<g id="node4" class="node"><title>Node4</title>
<g id="a_node4"><a xlink:href="../../d9/de5/struct_indoor_camera_d3_d.html#af2f5e59d83b6ee3e97564cecadf8f526" target="_top" xlink:title=" ">
<polygon fill="white" stroke="black" points="356.5,-76.5 356.5,-95.5 529.5,-95.5 529.5,-76.5 356.5,-76.5"/>
<text text-anchor="middle" x="443" y="-83.5" font-family="Helvetica,sans-Serif" font-size="10.00">IndoorCameraD3D::GetPolygonMinZ</text>
</a>
</g>
</g>
<!-- Node2&#45;&gt;Node4 -->
<g id="edge3" class="edge"><title>Node2&#45;&gt;Node4</title>
<path fill="none" stroke="midnightblue" d="M319.095,-73.8058C327.828,-74.6723 336.89,-75.5714 345.956,-76.4708"/>
<polygon fill="midnightblue" stroke="midnightblue" points="345.878,-79.9802 356.175,-77.4847 346.569,-73.0144 345.878,-79.9802"/>
</g>
<!-- Node5 -->
<g id="node5" class="node"><title>Node5</title>
<g id="a_node5"><a xlink:href="../../d5/d06/struct_vec3__float__.html#a5ba0d388755649300a78acaa7689f5fd" target="_top" xlink:title=" ">
<polygon fill="white" stroke="black" points="390,-38.5 390,-57.5 496,-57.5 496,-38.5 390,-38.5"/>
<text text-anchor="middle" x="443" y="-45.5" font-family="Helvetica,sans-Serif" font-size="10.00">Vec3_float_::NegDot</text>
</a>
</g>
</g>
<!-- Node2&#45;&gt;Node5 -->
<g id="edge4" class="edge"><title>Node2&#45;&gt;Node5</title>
<path fill="none" stroke="midnightblue" d="M319.095,-60.1942C338.836,-58.2356 360.256,-56.1104 379.6,-54.1911"/>
<polygon fill="midnightblue" stroke="midnightblue" points="380.202,-57.6487 389.807,-53.1784 379.51,-50.6829 380.202,-57.6487"/>
</g>
<!-- Node6 -->
<g id="node6" class="node"><title>Node6</title>
<g id="a_node6"><a xlink:href="../../d6/d70/class_log.html#ac0de2621497ca3b2fbf208624c08bcdf" target="_top" xlink:title=" ">
<polygon fill="white" stroke="black" points="406,-0.5 406,-19.5 480,-19.5 480,-0.5 406,-0.5"/>
<text text-anchor="middle" x="443" y="-7.5" font-family="Helvetica,sans-Serif" font-size="10.00">Log::Warning</text>
</a>
</g>
</g>
<!-- Node2&#45;&gt;Node6 -->
<g id="edge5" class="edge"><title>Node2&#45;&gt;Node6</title>
<path fill="none" stroke="midnightblue" d="M288.314,-51.8639C307.991,-44.3425 332.563,-35.4978 355,-29 368.135,-25.196 382.58,-21.7524 395.861,-18.8743"/>
<polygon fill="midnightblue" stroke="midnightblue" points="396.688,-22.277 405.749,-16.787 395.242,-15.4279 396.688,-22.277"/>
</g>
</g>
</svg>
