<?xml version="1.0" encoding="UTF-8" standalone="no"?>
<!DOCTYPE svg PUBLIC "-//W3C//DTD SVG 1.1//EN"
 "http://www.w3.org/Graphics/SVG/1.1/DTD/svg11.dtd">
<!-- Generated by graphviz version 2.38.0 (20140413.2041)
 -->
<!-- Title: LightmapBuilder::ApplyLights_OutdoorFace Pages: 1 -->
<svg width="466pt" height="39pt"
 viewBox="0.00 0.00 466.00 39.00" xmlns="http://www.w3.org/2000/svg" xmlns:xlink="http://www.w3.org/1999/xlink">
<g id="graph0" class="graph" transform="scale(1 1) rotate(0) translate(4 35)">
<title>LightmapBuilder::ApplyLights_OutdoorFace</title>
<polygon fill="white" stroke="none" points="-4,4 -4,-35 462,-35 462,4 -4,4"/>
<!-- Node1 -->
<g id="node1" class="node"><title>Node1</title>
<g id="a_node1"><a xlink:title=" ">
<polygon fill="#bfbfbf" stroke="black" points="0,-0.5 0,-30.5 143,-30.5 143,-0.5 0,-0.5"/>
<text text-anchor="start" x="8" y="-18.5" font-family="Helvetica,sans-Serif" font-size="10.00">LightmapBuilder::ApplyLights</text>
<text text-anchor="middle" x="71.5" y="-7.5" font-family="Helvetica,sans-Serif" font-size="10.00">_OutdoorFace</text>
</a>
</g>
</g>
<!-- Node2 -->
<g id="node2" class="node"><title>Node2</title>
<g id="a_node2"><a xlink:href="../../d8/d95/class_lightmap_builder.html#a3ec6e21d358aac2456e8ca65efb301b2" target="_top" xlink:title=" ">
<polygon fill="white" stroke="black" points="179,-6 179,-25 345,-25 345,-6 179,-6"/>
<text text-anchor="middle" x="262" y="-13" font-family="Helvetica,sans-Serif" font-size="10.00">LightmapBuilder::ApplyLight_ODM</text>
</a>
</g>
</g>
<!-- Node1&#45;&gt;Node2 -->
<g id="edge1" class="edge"><title>Node1&#45;&gt;Node2</title>
<path fill="none" stroke="midnightblue" d="M143.227,-15.5C151.561,-15.5 160.158,-15.5 168.733,-15.5"/>
<polygon fill="midnightblue" stroke="midnightblue" points="168.772,-19.0001 178.772,-15.5 168.772,-12.0001 168.772,-19.0001"/>
</g>
<!-- Node3 -->
<g id="node3" class="node"><title>Node3</title>
<g id="a_node3"><a xlink:href="../../d9/d30/_s_d_l__assert_8h.html#afedcea68cf85ee469ab1ea390bbe0abb" target="_top" xlink:title=" ">
<polygon fill="white" stroke="black" points="381,-6 381,-25 458,-25 458,-6 381,-6"/>
<text text-anchor="middle" x="419.5" y="-13" font-family="Helvetica,sans-Serif" font-size="10.00">__debugbreak</text>
</a>
</g>
</g>
<!-- Node2&#45;&gt;Node3 -->
<g id="edge2" class="edge"><title>Node2&#45;&gt;Node3</title>
<path fill="none" stroke="midnightblue" d="M345.303,-15.5C353.915,-15.5 362.451,-15.5 370.488,-15.5"/>
<polygon fill="midnightblue" stroke="midnightblue" points="370.731,-19.0001 380.731,-15.5 370.731,-12.0001 370.731,-19.0001"/>
</g>
</g>
</svg>
