<?xml version="1.0" encoding="UTF-8" standalone="no"?>
<!DOCTYPE svg PUBLIC "-//W3C//DTD SVG 1.1//EN"
 "http://www.w3.org/Graphics/SVG/1.1/DTD/svg11.dtd">
<!-- Generated by graphviz version 2.38.0 (20140413.2041)
 -->
<!-- Title: PaletteManager::LoadPalette Pages: 1 -->
<svg width="741pt" height="179pt"
 viewBox="0.00 0.00 741.00 179.09" xmlns="http://www.w3.org/2000/svg" xmlns:xlink="http://www.w3.org/1999/xlink">
<g id="graph0" class="graph" transform="scale(1 1) rotate(0) translate(4 175.089)">
<title>PaletteManager::LoadPalette</title>
<polygon fill="white" stroke="none" points="-4,4 -4,-175.089 737,-175.089 737,4 -4,4"/>
<!-- Node1 -->
<g id="node1" class="node"><title>Node1</title>
<g id="a_node1"><a xlink:title=" ">
<polygon fill="#bfbfbf" stroke="black" points="0,-82.5 0,-101.5 143,-101.5 143,-82.5 0,-82.5"/>
<text text-anchor="middle" x="71.5" y="-89.5" font-family="Helvetica,sans-Serif" font-size="10.00">PaletteManager::LoadPalette</text>
</a>
</g>
</g>
<!-- Node2 -->
<g id="node2" class="node"><title>Node2</title>
<g id="a_node2"><a xlink:href="../../dc/dc7/_palette_manager_8cpp.html#ac3ff9b1524059bcbd44e6318120c1211" target="_top" xlink:title=" ">
<polygon fill="white" stroke="black" points="557,-80.5 557,-99.5 620,-99.5 620,-80.5 557,-80.5"/>
<text text-anchor="middle" x="588.5" y="-87.5" font-family="Helvetica,sans-Serif" font-size="10.00">HSV2RGB</text>
</a>
</g>
</g>
<!-- Node1&#45;&gt;Node2 -->
<g id="edge1" class="edge"><title>Node1&#45;&gt;Node2</title>
<path fill="none" stroke="midnightblue" d="M81.9741,-101.541C99.3582,-118.289 138.317,-152.395 179,-165 215.98,-176.457 500.726,-168.998 521,-160 545.174,-149.271 564.811,-125.177 576.32,-108.267"/>
<polygon fill="midnightblue" stroke="midnightblue" points="579.345,-110.036 581.855,-99.7433 573.474,-106.224 579.345,-110.036"/>
</g>
<!-- Node4 -->
<g id="node4" class="node"><title>Node4</title>
<g id="a_node4"><a xlink:href="../../d8/d81/class_l_o_d_file___icons_bitmaps.html#af1497f81fa4c1f6dff3eaf1b6a4144f5" target="_top" xlink:title=" ">
<polygon fill="white" stroke="black" points="188.5,-126 188.5,-156 306.5,-156 306.5,-126 188.5,-126"/>
<text text-anchor="start" x="196.5" y="-144" font-family="Helvetica,sans-Serif" font-size="10.00">LODFile_IconsBitmaps</text>
<text text-anchor="middle" x="247.5" y="-133" font-family="Helvetica,sans-Serif" font-size="10.00">::LoadTextureFromLOD</text>
</a>
</g>
</g>
<!-- Node1&#45;&gt;Node4 -->
<g id="edge3" class="edge"><title>Node1&#45;&gt;Node4</title>
<path fill="none" stroke="midnightblue" d="M106.462,-101.564C128.299,-107.713 157.344,-115.893 183.32,-123.208"/>
<polygon fill="midnightblue" stroke="midnightblue" points="182.529,-126.621 193.103,-125.963 184.427,-119.883 182.529,-126.621"/>
</g>
<!-- Node6 -->
<g id="node6" class="node"><title>Node6</title>
<g id="a_node6"><a xlink:href="../../d3/db3/struct_palette_manager.html#a538015d7dba26a0012f50bc68aee3101" target="_top" xlink:title=" ">
<polygon fill="white" stroke="black" points="179,-77 179,-107 316,-107 316,-77 179,-77"/>
<text text-anchor="start" x="187" y="-95" font-family="Helvetica,sans-Serif" font-size="10.00">PaletteManager::MakeBase</text>
<text text-anchor="middle" x="247.5" y="-84" font-family="Helvetica,sans-Serif" font-size="10.00">PaletteLut</text>
</a>
</g>
</g>
<!-- Node1&#45;&gt;Node6 -->
<g id="edge5" class="edge"><title>Node1&#45;&gt;Node6</title>
<path fill="none" stroke="midnightblue" d="M143.022,-92C151.553,-92 160.304,-92 168.929,-92"/>
<polygon fill="midnightblue" stroke="midnightblue" points="168.977,-95.5001 178.977,-92 168.977,-88.5001 168.977,-95.5001"/>
</g>
<!-- Node8 -->
<g id="node8" class="node"><title>Node8</title>
<g id="a_node8"><a xlink:href="../../dc/dc7/_palette_manager_8cpp.html#aa590abf1c9bfcecac42541926c9d90f7" target="_top" xlink:title=" ">
<polygon fill="white" stroke="black" points="557,-39.5 557,-58.5 620,-58.5 620,-39.5 557,-39.5"/>
<text text-anchor="middle" x="588.5" y="-46.5" font-family="Helvetica,sans-Serif" font-size="10.00">RGB2HSV</text>
</a>
</g>
</g>
<!-- Node1&#45;&gt;Node8 -->
<g id="edge12" class="edge"><title>Node1&#45;&gt;Node8</title>
<path fill="none" stroke="midnightblue" d="M106.25,-82.375C127.044,-76.8719 154.354,-70.4053 179,-67 312.546,-48.5478 472.76,-47.5669 546.582,-48.2902"/>
<polygon fill="midnightblue" stroke="midnightblue" points="546.794,-51.7927 556.833,-48.4074 546.874,-44.7932 546.794,-51.7927"/>
</g>
<!-- Node9 -->
<g id="node9" class="node"><title>Node9</title>
<g id="a_node9"><a xlink:href="../../d0/ded/struct_texture___m_m7.html#a5d76b76e8d592e2cc382ca2723774b32" target="_top" xlink:title=" ">
<polygon fill="white" stroke="black" points="378,-0.5 378,-19.5 495,-19.5 495,-0.5 378,-0.5"/>
<text text-anchor="middle" x="436.5" y="-7.5" font-family="Helvetica,sans-Serif" font-size="10.00">Texture_MM7::Release</text>
</a>
</g>
</g>
<!-- Node1&#45;&gt;Node9 -->
<g id="edge10" class="edge"><title>Node1&#45;&gt;Node9</title>
<path fill="none" stroke="midnightblue" d="M85.8254,-82.3984C105.247,-68.9694 142.953,-44.9926 179,-34 241.066,-15.0731 315.163,-9.89049 367.721,-8.95268"/>
<polygon fill="midnightblue" stroke="midnightblue" points="367.983,-12.4497 377.936,-8.81891 367.891,-5.45026 367.983,-12.4497"/>
</g>
<!-- Node3 -->
<g id="node3" class="node"><title>Node3</title>
<g id="a_node3"><a xlink:href="../../d9/d30/_s_d_l__assert_8h.html#afedcea68cf85ee469ab1ea390bbe0abb" target="_top" xlink:title=" ">
<polygon fill="white" stroke="black" points="656,-39.5 656,-58.5 733,-58.5 733,-39.5 656,-39.5"/>
<text text-anchor="middle" x="694.5" y="-46.5" font-family="Helvetica,sans-Serif" font-size="10.00">__debugbreak</text>
</a>
</g>
</g>
<!-- Node2&#45;&gt;Node3 -->
<g id="edge2" class="edge"><title>Node2&#45;&gt;Node3</title>
<path fill="none" stroke="midnightblue" d="M613.621,-80.4907C627.305,-75.0961 644.646,-68.2597 659.672,-62.3362"/>
<polygon fill="midnightblue" stroke="midnightblue" points="661.13,-65.5235 669.149,-58.5997 658.563,-59.0113 661.13,-65.5235"/>
</g>
<!-- Node5 -->
<g id="node5" class="node"><title>Node5</title>
<g id="a_node5"><a xlink:href="../../d9/d3e/namespacezlib.html#ae552beaf4387a81c63a28b01a9cc7ab4" target="_top" xlink:title=" ">
<polygon fill="white" stroke="black" points="390.5,-131.5 390.5,-150.5 482.5,-150.5 482.5,-131.5 390.5,-131.5"/>
<text text-anchor="middle" x="436.5" y="-138.5" font-family="Helvetica,sans-Serif" font-size="10.00">zlib::Uncompress</text>
</a>
</g>
</g>
<!-- Node4&#45;&gt;Node5 -->
<g id="edge4" class="edge"><title>Node4&#45;&gt;Node5</title>
<path fill="none" stroke="midnightblue" d="M306.643,-141C330.178,-141 357.219,-141 380.433,-141"/>
<polygon fill="midnightblue" stroke="midnightblue" points="380.463,-144.5 390.463,-141 380.463,-137.5 380.463,-144.5"/>
</g>
<!-- Node7 -->
<g id="node7" class="node"><title>Node7</title>
<g id="a_node7"><a xlink:href="../../d3/db3/struct_palette_manager.html#ae561cf64d07038ce806940d4a64d2088" target="_top" xlink:title=" ">
<polygon fill="white" stroke="black" points="352,-80.5 352,-99.5 521,-99.5 521,-80.5 352,-80.5"/>
<text text-anchor="middle" x="436.5" y="-87.5" font-family="Helvetica,sans-Serif" font-size="10.00">PaletteManager::CalcPalettes_LUT</text>
</a>
</g>
</g>
<!-- Node6&#45;&gt;Node7 -->
<g id="edge6" class="edge"><title>Node6&#45;&gt;Node7</title>
<path fill="none" stroke="midnightblue" d="M316.011,-91.278C324.358,-91.1887 333.004,-91.0962 341.655,-91.0037"/>
<polygon fill="midnightblue" stroke="midnightblue" points="341.832,-94.5021 351.794,-90.8953 341.757,-87.5025 341.832,-94.5021"/>
</g>
<!-- Node7&#45;&gt;Node2 -->
<g id="edge7" class="edge"><title>Node7&#45;&gt;Node2</title>
<path fill="none" stroke="midnightblue" d="M521.271,-90C530.137,-90 538.837,-90 546.866,-90"/>
<polygon fill="midnightblue" stroke="midnightblue" points="546.993,-93.5001 556.993,-90 546.993,-86.5001 546.993,-93.5001"/>
</g>
<!-- Node7&#45;&gt;Node8 -->
<g id="edge8" class="edge"><title>Node7&#45;&gt;Node8</title>
<path fill="none" stroke="midnightblue" d="M472.29,-80.4907C494.605,-74.3912 523.664,-66.4486 547.014,-60.0663"/>
<polygon fill="midnightblue" stroke="midnightblue" points="548.241,-63.3592 556.964,-57.3464 546.395,-56.6069 548.241,-63.3592"/>
</g>
<!-- Node8&#45;&gt;Node3 -->
<g id="edge9" class="edge"><title>Node8&#45;&gt;Node3</title>
<path fill="none" stroke="midnightblue" d="M620.141,-49C628.151,-49 636.98,-49 645.653,-49"/>
<polygon fill="midnightblue" stroke="midnightblue" points="645.705,-52.5001 655.705,-49 645.705,-45.5001 645.705,-52.5001"/>
</g>
<!-- Node9&#45;&gt;Node3 -->
<g id="edge11" class="edge"><title>Node9&#45;&gt;Node3</title>
<path fill="none" stroke="midnightblue" d="M495.345,-14.1988C531.387,-17.3432 578.614,-22.4238 620,-30 630.112,-31.8512 640.886,-34.3382 650.979,-36.9016"/>
<polygon fill="midnightblue" stroke="midnightblue" points="650.235,-40.3248 660.795,-39.4699 652.007,-33.5527 650.235,-40.3248"/>
</g>
</g>
</svg>
