<?xml version="1.0" encoding="UTF-8" standalone="no"?>
<!DOCTYPE svg PUBLIC "-//W3C//DTD SVG 1.1//EN"
 "http://www.w3.org/Graphics/SVG/1.1/DTD/svg11.dtd">
<!-- Generated by graphviz version 2.38.0 (20140413.2041)
 -->
<!-- Title: PaletteManager::MakeBasePaletteLut Pages: 1 -->
<svg width="562pt" height="66pt"
 viewBox="0.00 0.00 562.00 66.00" xmlns="http://www.w3.org/2000/svg" xmlns:xlink="http://www.w3.org/1999/xlink">
<g id="graph0" class="graph" transform="scale(1 1) rotate(0) translate(4 62)">
<title>PaletteManager::MakeBasePaletteLut</title>
<polygon fill="white" stroke="none" points="-4,4 -4,-62 558,-62 558,4 -4,4"/>
<!-- Node1 -->
<g id="node1" class="node"><title>Node1</title>
<g id="a_node1"><a xlink:title=" ">
<polygon fill="#bfbfbf" stroke="black" points="0,-14 0,-44 137,-44 137,-14 0,-14"/>
<text text-anchor="start" x="8" y="-32" font-family="Helvetica,sans-Serif" font-size="10.00">PaletteManager::MakeBase</text>
<text text-anchor="middle" x="68.5" y="-21" font-family="Helvetica,sans-Serif" font-size="10.00">PaletteLut</text>
</a>
</g>
</g>
<!-- Node2 -->
<g id="node2" class="node"><title>Node2</title>
<g id="a_node2"><a xlink:href="../../d3/db3/struct_palette_manager.html#ae561cf64d07038ce806940d4a64d2088" target="_top" xlink:title=" ">
<polygon fill="white" stroke="black" points="173,-19.5 173,-38.5 342,-38.5 342,-19.5 173,-19.5"/>
<text text-anchor="middle" x="257.5" y="-26.5" font-family="Helvetica,sans-Serif" font-size="10.00">PaletteManager::CalcPalettes_LUT</text>
</a>
</g>
</g>
<!-- Node1&#45;&gt;Node2 -->
<g id="edge1" class="edge"><title>Node1&#45;&gt;Node2</title>
<path fill="none" stroke="midnightblue" d="M137.011,-29C145.358,-29 154.004,-29 162.655,-29"/>
<polygon fill="midnightblue" stroke="midnightblue" points="162.794,-32.5001 172.794,-29 162.794,-25.5001 162.794,-32.5001"/>
</g>
<!-- Node3 -->
<g id="node3" class="node"><title>Node3</title>
<g id="a_node3"><a xlink:href="../../dc/dc7/_palette_manager_8cpp.html#ac3ff9b1524059bcbd44e6318120c1211" target="_top" xlink:title=" ">
<polygon fill="white" stroke="black" points="378,-38.5 378,-57.5 441,-57.5 441,-38.5 378,-38.5"/>
<text text-anchor="middle" x="409.5" y="-45.5" font-family="Helvetica,sans-Serif" font-size="10.00">HSV2RGB</text>
</a>
</g>
</g>
<!-- Node2&#45;&gt;Node3 -->
<g id="edge2" class="edge"><title>Node2&#45;&gt;Node3</title>
<path fill="none" stroke="midnightblue" d="M333.939,-38.5557C345.649,-40.0388 357.344,-41.5202 367.883,-42.8551"/>
<polygon fill="midnightblue" stroke="midnightblue" points="367.634,-46.3515 377.994,-44.1359 368.513,-39.407 367.634,-46.3515"/>
</g>
<!-- Node5 -->
<g id="node5" class="node"><title>Node5</title>
<g id="a_node5"><a xlink:href="../../dc/dc7/_palette_manager_8cpp.html#aa590abf1c9bfcecac42541926c9d90f7" target="_top" xlink:title=" ">
<polygon fill="white" stroke="black" points="378,-0.5 378,-19.5 441,-19.5 441,-0.5 378,-0.5"/>
<text text-anchor="middle" x="409.5" y="-7.5" font-family="Helvetica,sans-Serif" font-size="10.00">RGB2HSV</text>
</a>
</g>
</g>
<!-- Node2&#45;&gt;Node5 -->
<g id="edge4" class="edge"><title>Node2&#45;&gt;Node5</title>
<path fill="none" stroke="midnightblue" d="M333.939,-19.4443C345.649,-17.9612 357.344,-16.4798 367.883,-15.1449"/>
<polygon fill="midnightblue" stroke="midnightblue" points="368.513,-18.593 377.994,-13.8641 367.634,-11.6485 368.513,-18.593"/>
</g>
<!-- Node4 -->
<g id="node4" class="node"><title>Node4</title>
<g id="a_node4"><a xlink:href="../../d9/d30/_s_d_l__assert_8h.html#afedcea68cf85ee469ab1ea390bbe0abb" target="_top" xlink:title=" ">
<polygon fill="white" stroke="black" points="477,-19.5 477,-38.5 554,-38.5 554,-19.5 477,-19.5"/>
<text text-anchor="middle" x="515.5" y="-26.5" font-family="Helvetica,sans-Serif" font-size="10.00">__debugbreak</text>
</a>
</g>
</g>
<!-- Node3&#45;&gt;Node4 -->
<g id="edge3" class="edge"><title>Node3&#45;&gt;Node4</title>
<path fill="none" stroke="midnightblue" d="M441.141,-42.4021C449.151,-40.9387 457.98,-39.3258 466.653,-37.7413"/>
<polygon fill="midnightblue" stroke="midnightblue" points="467.497,-41.1451 476.705,-35.9048 466.239,-34.259 467.497,-41.1451"/>
</g>
<!-- Node5&#45;&gt;Node4 -->
<g id="edge5" class="edge"><title>Node5&#45;&gt;Node4</title>
<path fill="none" stroke="midnightblue" d="M441.141,-15.5979C449.151,-17.0613 457.98,-18.6742 466.653,-20.2587"/>
<polygon fill="midnightblue" stroke="midnightblue" points="466.239,-23.741 476.705,-22.0952 467.497,-16.8549 466.239,-23.741"/>
</g>
</g>
</svg>
