<?xml version="1.0" encoding="UTF-8" standalone="no"?>
<!DOCTYPE svg PUBLIC "-//W3C//DTD SVG 1.1//EN"
 "http://www.w3.org/Graphics/SVG/1.1/DTD/svg11.dtd">
<!-- Generated by graphviz version 2.38.0 (20140413.2041)
 -->
<!-- Title: PaletteManager::PaletteManager Pages: 1 -->
<svg width="584pt" height="66pt"
 viewBox="0.00 0.00 584.00 66.00" xmlns="http://www.w3.org/2000/svg" xmlns:xlink="http://www.w3.org/1999/xlink">
<g id="graph0" class="graph" transform="scale(1 1) rotate(0) translate(4 62)">
<title>PaletteManager::PaletteManager</title>
<polygon fill="white" stroke="none" points="-4,4 -4,-62 580,-62 580,4 -4,4"/>
<!-- Node1 -->
<g id="node1" class="node"><title>Node1</title>
<g id="a_node1"><a xlink:title=" ">
<polygon fill="#bfbfbf" stroke="black" points="0,-19.5 0,-38.5 159,-38.5 159,-19.5 0,-19.5"/>
<text text-anchor="middle" x="79.5" y="-26.5" font-family="Helvetica,sans-Serif" font-size="10.00">PaletteManager::PaletteManager</text>
</a>
</g>
</g>
<!-- Node2 -->
<g id="node2" class="node"><title>Node2</title>
<g id="a_node2"><a xlink:href="../../d3/db3/struct_palette_manager.html#ae561cf64d07038ce806940d4a64d2088" target="_top" xlink:title=" ">
<polygon fill="white" stroke="black" points="195,-19.5 195,-38.5 364,-38.5 364,-19.5 195,-19.5"/>
<text text-anchor="middle" x="279.5" y="-26.5" font-family="Helvetica,sans-Serif" font-size="10.00">PaletteManager::CalcPalettes_LUT</text>
</a>
</g>
</g>
<!-- Node1&#45;&gt;Node2 -->
<g id="edge1" class="edge"><title>Node1&#45;&gt;Node2</title>
<path fill="none" stroke="midnightblue" d="M159.039,-29C167.498,-29 176.165,-29 184.779,-29"/>
<polygon fill="midnightblue" stroke="midnightblue" points="184.85,-32.5001 194.85,-29 184.85,-25.5001 184.85,-32.5001"/>
</g>
<!-- Node3 -->
<g id="node3" class="node"><title>Node3</title>
<g id="a_node3"><a xlink:href="../../dc/dc7/_palette_manager_8cpp.html#ac3ff9b1524059bcbd44e6318120c1211" target="_top" xlink:title=" ">
<polygon fill="white" stroke="black" points="400,-38.5 400,-57.5 463,-57.5 463,-38.5 400,-38.5"/>
<text text-anchor="middle" x="431.5" y="-45.5" font-family="Helvetica,sans-Serif" font-size="10.00">HSV2RGB</text>
</a>
</g>
</g>
<!-- Node2&#45;&gt;Node3 -->
<g id="edge2" class="edge"><title>Node2&#45;&gt;Node3</title>
<path fill="none" stroke="midnightblue" d="M355.939,-38.5557C367.649,-40.0388 379.344,-41.5202 389.883,-42.8551"/>
<polygon fill="midnightblue" stroke="midnightblue" points="389.634,-46.3515 399.994,-44.1359 390.513,-39.407 389.634,-46.3515"/>
</g>
<!-- Node5 -->
<g id="node5" class="node"><title>Node5</title>
<g id="a_node5"><a xlink:href="../../dc/dc7/_palette_manager_8cpp.html#aa590abf1c9bfcecac42541926c9d90f7" target="_top" xlink:title=" ">
<polygon fill="white" stroke="black" points="400,-0.5 400,-19.5 463,-19.5 463,-0.5 400,-0.5"/>
<text text-anchor="middle" x="431.5" y="-7.5" font-family="Helvetica,sans-Serif" font-size="10.00">RGB2HSV</text>
</a>
</g>
</g>
<!-- Node2&#45;&gt;Node5 -->
<g id="edge4" class="edge"><title>Node2&#45;&gt;Node5</title>
<path fill="none" stroke="midnightblue" d="M355.939,-19.4443C367.649,-17.9612 379.344,-16.4798 389.883,-15.1449"/>
<polygon fill="midnightblue" stroke="midnightblue" points="390.513,-18.593 399.994,-13.8641 389.634,-11.6485 390.513,-18.593"/>
</g>
<!-- Node4 -->
<g id="node4" class="node"><title>Node4</title>
<g id="a_node4"><a xlink:href="../../d9/d30/_s_d_l__assert_8h.html#afedcea68cf85ee469ab1ea390bbe0abb" target="_top" xlink:title=" ">
<polygon fill="white" stroke="black" points="499,-19.5 499,-38.5 576,-38.5 576,-19.5 499,-19.5"/>
<text text-anchor="middle" x="537.5" y="-26.5" font-family="Helvetica,sans-Serif" font-size="10.00">__debugbreak</text>
</a>
</g>
</g>
<!-- Node3&#45;&gt;Node4 -->
<g id="edge3" class="edge"><title>Node3&#45;&gt;Node4</title>
<path fill="none" stroke="midnightblue" d="M463.141,-42.4021C471.151,-40.9387 479.98,-39.3258 488.653,-37.7413"/>
<polygon fill="midnightblue" stroke="midnightblue" points="489.497,-41.1451 498.705,-35.9048 488.239,-34.259 489.497,-41.1451"/>
</g>
<!-- Node5&#45;&gt;Node4 -->
<g id="edge5" class="edge"><title>Node5&#45;&gt;Node4</title>
<path fill="none" stroke="midnightblue" d="M463.141,-15.5979C471.151,-17.0613 479.98,-18.6742 488.653,-20.2587"/>
<polygon fill="midnightblue" stroke="midnightblue" points="488.239,-23.741 498.705,-22.0952 489.497,-16.8549 488.239,-23.741"/>
</g>
</g>
</svg>
