<?xml version="1.0" encoding="UTF-8" standalone="no"?>
<!DOCTYPE svg PUBLIC "-//W3C//DTD SVG 1.1//EN"
 "http://www.w3.org/Graphics/SVG/1.1/DTD/svg11.dtd">
<!-- Generated by graphviz version 2.38.0 (20140413.2041)
 -->
<!-- Title: GUIWindow_QuestBook::Update Pages: 1 -->
<!--zoomable 439 -->
<svg id="main" version="1.1" xmlns="http://www.w3.org/2000/svg" xmlns:xlink="http://www.w3.org/1999/xlink" xml:space="preserve" onload="init(evt)">
<style type="text/css"><![CDATA[
.edge:hover path { stroke: red; }
.edge:hover polygon { stroke: red; fill: red; }
]]></style>
<script type="text/javascript"><![CDATA[
var edges = document.getElementsByTagName('g');
if (edges && edges.length) {
  for (var i=0;i<edges.length;i++) {
    if (edges[i].id.substr(0,4)=='edge') {
      edges[i].setAttribute('class','edge');
    }
  }
}
]]></script>
        <defs>
                <circle id="rim" cx="0" cy="0" r="7"/>
                <circle id="rim2" cx="0" cy="0" r="3.5"/>
                <g id="zoomPlus">
                        <use xlink:href="#rim" fill="#404040">
                                <set attributeName="fill" to="#808080" begin="zoomplus.mouseover" end="zoomplus.mouseout"/>
                        </use>
                        <path d="M-4,0h8M0,-4v8" fill="none" stroke="white" stroke-width="1.5" pointer-events="none"/>
                </g>
                <g id="zoomMin">
                        <use xlink:href="#rim" fill="#404040">
                                <set attributeName="fill" to="#808080" begin="zoomminus.mouseover" end="zoomminus.mouseout"/>
                        </use>
                        <path d="M-4,0h8" fill="none" stroke="white" stroke-width="1.5" pointer-events="none"/>
                </g>
                <g id="dirArrow">
                        <path fill="none" stroke="white" stroke-width="1.5" d="M0,-3.0v7 M-2.5,-0.5L0,-3.0L2.5,-0.5"/>
                </g>
               <g id="resetDef">
                       <use xlink:href="#rim2" fill="#404040">
                               <set attributeName="fill" to="#808080" begin="reset.mouseover" end="reset.mouseout"/>
                       </use>
               </g>
        </defs>

<script type="text/javascript">
var viewWidth = 785;
var viewHeight = 439;
var sectionId = 'dynsection-3';
</script>
<script xlink:href="../../svgpan.js"/>
<svg id="graph" class="graph">
<g id="viewport">
<title>GUIWindow_QuestBook::Update</title>
<polygon fill="white" stroke="none" points="-4,4 -4,-435 781,-435 781,4 -4,4"/>
<!-- Node1 -->
<g id="node1" class="node"><title>Node1</title>
<g id="a_node1"><a xlink:title=" ">
<polygon fill="#bfbfbf" stroke="black" points="0,-204 0,-234 122,-234 122,-204 0,-204"/>
<text text-anchor="start" x="8" y="-222" font-family="Helvetica,sans-Serif" font-size="10.00">GUIWindow_QuestBook</text>
<text text-anchor="middle" x="61" y="-211" font-family="Helvetica,sans-Serif" font-size="10.00">::Update</text>
</a>
</g>
</g>
<!-- Node2 -->
<g id="node2" class="node"><title>Node2</title>
<g id="a_node2"><a xlink:href="../../d3/d39/class_g_u_i_font.html#a08b74df638b5c055d9f18f5ce4d8ee11" target="_top" xlink:title=" ">
<polygon fill="white" stroke="black" points="326,-209.5 326,-228.5 451,-228.5 451,-209.5 326,-209.5"/>
<text text-anchor="middle" x="388.5" y="-216.5" font-family="Helvetica,sans-Serif" font-size="10.00">GUIFont::CalcTextHeight</text>
</a>
</g>
</g>
<!-- Node1&#45;&gt;Node2 -->
<g id="edge1" class="edge"><title>Node1&#45;&gt;Node2</title>
<path fill="none" stroke="midnightblue" d="M122.081,-219C176.754,-219 257.553,-219 315.629,-219"/>
<polygon fill="midnightblue" stroke="midnightblue" points="315.834,-222.5 325.834,-219 315.834,-215.5 315.834,-222.5"/>
</g>
<!-- Node5 -->
<g id="node5" class="node"><title>Node5</title>
<g id="a_node5"><a xlink:href="../../d4/d38/class_g_u_i_window.html#a009aad05d919c42979eebb93d8b4354c" target="_top" xlink:title=" ">
<polygon fill="white" stroke="black" points="167,-247.5 167,-266.5 281,-266.5 281,-247.5 167,-247.5"/>
<text text-anchor="middle" x="224" y="-254.5" font-family="Helvetica,sans-Serif" font-size="10.00">GUIWindow::DrawText</text>
</a>
</g>
</g>
<!-- Node1&#45;&gt;Node5 -->
<g id="edge5" class="edge"><title>Node1&#45;&gt;Node5</title>
<path fill="none" stroke="midnightblue" d="M122.409,-233.258C138.804,-237.128 156.387,-241.278 172.194,-245.009"/>
<polygon fill="midnightblue" stroke="midnightblue" points="171.758,-248.502 182.295,-247.393 173.366,-241.689 171.758,-248.502"/>
</g>
<!-- Node8 -->
<g id="node8" class="node"><title>Node8</title>
<g id="a_node8"><a xlink:href="../../d4/d38/class_g_u_i_window.html#aae805c92b9242bc94cf18c7a702433f7" target="_top" xlink:title=" ">
<polygon fill="white" stroke="black" points="158,-329.5 158,-348.5 290,-348.5 290,-329.5 158,-329.5"/>
<text text-anchor="middle" x="224" y="-336.5" font-family="Helvetica,sans-Serif" font-size="10.00">GUIWindow::DrawTitleText</text>
</a>
</g>
</g>
<!-- Node1&#45;&gt;Node8 -->
<g id="edge10" class="edge"><title>Node1&#45;&gt;Node8</title>
<path fill="none" stroke="midnightblue" d="M82.3908,-234.198C113.042,-257.044 170.705,-300.022 201.815,-323.21"/>
<polygon fill="midnightblue" stroke="midnightblue" points="200.091,-326.29 210.2,-329.46 204.274,-320.678 200.091,-326.29"/>
</g>
<!-- Node12 -->
<g id="node12" class="node"><title>Node12</title>
<g id="a_node12"><a xlink:href="../../dd/d88/class_localization.html#a0eb0a17fdf90f6a420eeac65bf62436f" target="_top" xlink:title=" ">
<polygon fill="white" stroke="black" points="166,-171.5 166,-190.5 282,-190.5 282,-171.5 166,-171.5"/>
<text text-anchor="middle" x="224" y="-178.5" font-family="Helvetica,sans-Serif" font-size="10.00">Localization::GetString</text>
</a>
</g>
</g>
<!-- Node1&#45;&gt;Node12 -->
<g id="edge17" class="edge"><title>Node1&#45;&gt;Node12</title>
<path fill="none" stroke="midnightblue" d="M122.409,-204.742C138.804,-200.872 156.387,-196.722 172.194,-192.991"/>
<polygon fill="midnightblue" stroke="midnightblue" points="173.366,-196.311 182.295,-190.607 171.758,-189.498 173.366,-196.311"/>
</g>
<!-- Node13 -->
<g id="node13" class="node"><title>Node13</title>
<g id="a_node13"><a xlink:href="../../d7/dc2/class_audio_player.html#afa0c135f321bd87b4d4ad2dcad3833e3" target="_top" xlink:title=" ">
<polygon fill="white" stroke="black" points="163,-123.5 163,-142.5 285,-142.5 285,-123.5 163,-123.5"/>
<text text-anchor="middle" x="224" y="-130.5" font-family="Helvetica,sans-Serif" font-size="10.00">AudioPlayer::PlaySound</text>
</a>
</g>
</g>
<!-- Node1&#45;&gt;Node13 -->
<g id="edge18" class="edge"><title>Node1&#45;&gt;Node13</title>
<path fill="none" stroke="midnightblue" d="M85.6294,-203.924C104.799,-191.95 132.697,-175.1 158,-162 168.418,-156.606 180.048,-151.225 190.559,-146.588"/>
<polygon fill="midnightblue" stroke="midnightblue" points="192.053,-149.755 199.83,-142.56 189.264,-143.335 192.053,-149.755"/>
</g>
<!-- Node3 -->
<g id="node3" class="node"><title>Node3</title>
<g id="a_node3"><a xlink:href="../../d3/d39/class_g_u_i_font.html#acff82a6ae67e879bd76ddc52aa25fe02" target="_top" xlink:title=" ">
<polygon fill="white" stroke="black" points="491.5,-266.5 491.5,-285.5 628.5,-285.5 628.5,-266.5 491.5,-266.5"/>
<text text-anchor="middle" x="560" y="-273.5" font-family="Helvetica,sans-Serif" font-size="10.00">GUIFont::FitTextInAWindow</text>
</a>
</g>
</g>
<!-- Node2&#45;&gt;Node3 -->
<g id="edge2" class="edge"><title>Node2&#45;&gt;Node3</title>
<path fill="none" stroke="midnightblue" d="M421.878,-228.53C431.313,-231.434 441.608,-234.728 451,-238 467.211,-243.648 470.852,-246.173 487,-252 497.425,-255.762 508.773,-259.643 519.312,-263.159"/>
<polygon fill="midnightblue" stroke="midnightblue" points="518.518,-266.583 529.111,-266.401 520.717,-259.937 518.518,-266.583"/>
</g>
<!-- Node4 -->
<g id="node4" class="node"><title>Node4</title>
<g id="a_node4"><a xlink:href="../../d3/d39/class_g_u_i_font.html#adfbdd225f4c0eedcbf7e82eecd29e404" target="_top" xlink:title=" ">
<polygon fill="white" stroke="black" points="669,-285.5 669,-304.5 777,-304.5 777,-285.5 669,-285.5"/>
<text text-anchor="middle" x="723" y="-292.5" font-family="Helvetica,sans-Serif" font-size="10.00">GUIFont::IsCharValid</text>
</a>
</g>
</g>
<!-- Node2&#45;&gt;Node4 -->
<g id="edge4" class="edge"><title>Node2&#45;&gt;Node4</title>
<path fill="none" stroke="midnightblue" d="M451.204,-224.347C500.983,-229.678 572.437,-239.639 633,-257 654.061,-263.037 676.76,-272.784 693.962,-280.895"/>
<polygon fill="midnightblue" stroke="midnightblue" points="692.874,-284.255 703.402,-285.441 695.911,-277.949 692.874,-284.255"/>
</g>
<!-- Node3&#45;&gt;Node4 -->
<g id="edge3" class="edge"><title>Node3&#45;&gt;Node4</title>
<path fill="none" stroke="midnightblue" d="M628.812,-284.003C638.762,-285.177 648.977,-286.382 658.829,-287.545"/>
<polygon fill="midnightblue" stroke="midnightblue" points="658.596,-291.042 668.938,-288.738 659.417,-284.09 658.596,-291.042"/>
</g>
<!-- Node6 -->
<g id="node6" class="node"><title>Node6</title>
<g id="a_node6"><a xlink:href="../../d3/d39/class_g_u_i_font.html#abea1624c5890b044ef1368a7ca051b3e" target="_top" xlink:title=" ">
<polygon fill="white" stroke="black" points="339,-247.5 339,-266.5 438,-266.5 438,-247.5 339,-247.5"/>
<text text-anchor="middle" x="388.5" y="-254.5" font-family="Helvetica,sans-Serif" font-size="10.00">GUIFont::DrawText</text>
</a>
</g>
</g>
<!-- Node5&#45;&gt;Node6 -->
<g id="edge6" class="edge"><title>Node5&#45;&gt;Node6</title>
<path fill="none" stroke="midnightblue" d="M281.379,-257C296.572,-257 313.051,-257 328.389,-257"/>
<polygon fill="midnightblue" stroke="midnightblue" points="328.796,-260.5 338.796,-257 328.796,-253.5 328.796,-260.5"/>
</g>
<!-- Node6&#45;&gt;Node3 -->
<g id="edge7" class="edge"><title>Node6&#45;&gt;Node3</title>
<path fill="none" stroke="midnightblue" d="M438.072,-262.445C451.584,-263.959 466.607,-265.643 481.342,-267.295"/>
<polygon fill="midnightblue" stroke="midnightblue" points="481.147,-270.795 491.474,-268.431 481.927,-263.838 481.147,-270.795"/>
</g>
<!-- Node7 -->
<g id="node7" class="node"><title>Node7</title>
<g id="a_node7"><a xlink:href="../../d3/d39/class_g_u_i_font.html#abf5dc44bc1b328f80d5c7033279a4f8d" target="_top" xlink:title=" ">
<polygon fill="white" stroke="black" points="501,-304.5 501,-323.5 619,-323.5 619,-304.5 501,-304.5"/>
<text text-anchor="middle" x="560" y="-311.5" font-family="Helvetica,sans-Serif" font-size="10.00">GUIFont::GetLineWidth</text>
</a>
</g>
</g>
<!-- Node6&#45;&gt;Node7 -->
<g id="edge8" class="edge"><title>Node6&#45;&gt;Node7</title>
<path fill="none" stroke="midnightblue" d="M412.087,-266.647C431.681,-274.811 460.916,-286.506 487,-295 494.265,-297.366 502.013,-299.652 509.634,-301.769"/>
<polygon fill="midnightblue" stroke="midnightblue" points="508.961,-305.213 519.528,-304.448 510.79,-298.456 508.961,-305.213"/>
</g>
<!-- Node7&#45;&gt;Node4 -->
<g id="edge9" class="edge"><title>Node7&#45;&gt;Node4</title>
<path fill="none" stroke="midnightblue" d="M619.125,-307.141C631.918,-305.631 645.53,-304.024 658.522,-302.491"/>
<polygon fill="midnightblue" stroke="midnightblue" points="659.26,-305.929 668.781,-301.281 658.439,-298.977 659.26,-305.929"/>
</g>
<!-- Node8&#45;&gt;Node3 -->
<g id="edge15" class="edge"><title>Node8&#45;&gt;Node3</title>
<path fill="none" stroke="midnightblue" d="M260.833,-329.38C280.068,-324.407 304.234,-318.461 326,-314 377.606,-303.423 436.125,-293.888 481.608,-287.015"/>
<polygon fill="midnightblue" stroke="midnightblue" points="482.325,-290.447 491.695,-285.502 481.286,-283.524 482.325,-290.447"/>
</g>
<!-- Node9 -->
<g id="node9" class="node"><title>Node9</title>
<g id="a_node9"><a xlink:href="../../d3/d39/class_g_u_i_font.html#a9fa3825419fdf34ded3536e27bccbfdf" target="_top" xlink:title=" ">
<polygon fill="white" stroke="black" points="339,-324 339,-354 438,-354 438,-324 339,-324"/>
<text text-anchor="start" x="347" y="-342" font-family="Helvetica,sans-Serif" font-size="10.00">GUIFont::AlignText</text>
<text text-anchor="middle" x="388.5" y="-331" font-family="Helvetica,sans-Serif" font-size="10.00">_Center</text>
</a>
</g>
</g>
<!-- Node8&#45;&gt;Node9 -->
<g id="edge11" class="edge"><title>Node8&#45;&gt;Node9</title>
<path fill="none" stroke="midnightblue" d="M290.159,-339C302.852,-339 316.09,-339 328.568,-339"/>
<polygon fill="midnightblue" stroke="midnightblue" points="328.841,-342.5 338.841,-339 328.841,-335.5 328.841,-342.5"/>
</g>
<!-- Node10 -->
<g id="node10" class="node"><title>Node10</title>
<g id="a_node10"><a xlink:href="../../d3/d39/class_g_u_i_font.html#af8449e36ee49ae96e21f4406b398a010" target="_top" xlink:title=" ">
<polygon fill="white" stroke="black" points="330,-373.5 330,-392.5 447,-392.5 447,-373.5 330,-373.5"/>
<text text-anchor="middle" x="388.5" y="-380.5" font-family="Helvetica,sans-Serif" font-size="10.00">GUIFont::DrawTextLine</text>
</a>
</g>
</g>
<!-- Node8&#45;&gt;Node10 -->
<g id="edge13" class="edge"><title>Node8&#45;&gt;Node10</title>
<path fill="none" stroke="midnightblue" d="M260.26,-348.547C284.323,-355.063 316.409,-363.751 342.341,-370.772"/>
<polygon fill="midnightblue" stroke="midnightblue" points="341.742,-374.236 352.309,-373.471 343.571,-367.479 341.742,-374.236"/>
</g>
<!-- Node11 -->
<g id="node11" class="node"><title>Node11</title>
<g id="a_node11"><a xlink:href="../../d3/d39/class_g_u_i_font.html#a439cccf73db5fd93ffc18cbba51d07e0" target="_top" xlink:title=" ">
<polygon fill="white" stroke="black" points="337.5,-411.5 337.5,-430.5 439.5,-430.5 439.5,-411.5 337.5,-411.5"/>
<text text-anchor="middle" x="388.5" y="-418.5" font-family="Helvetica,sans-Serif" font-size="10.00">GUIFont::GetHeight</text>
</a>
</g>
</g>
<!-- Node8&#45;&gt;Node11 -->
<g id="edge16" class="edge"><title>Node8&#45;&gt;Node11</title>
<path fill="none" stroke="midnightblue" d="M238.097,-348.723C256.782,-362.224 292.543,-386.709 326,-402 330.955,-404.264 336.253,-406.356 341.584,-408.257"/>
<polygon fill="midnightblue" stroke="midnightblue" points="340.553,-411.603 351.147,-411.472 342.783,-404.968 340.553,-411.603"/>
</g>
<!-- Node9&#45;&gt;Node7 -->
<g id="edge12" class="edge"><title>Node9&#45;&gt;Node7</title>
<path fill="none" stroke="midnightblue" d="M438.072,-331.836C454.427,-329.424 472.995,-326.685 490.588,-324.09"/>
<polygon fill="midnightblue" stroke="midnightblue" points="491.426,-327.505 500.809,-322.583 490.405,-320.579 491.426,-327.505"/>
</g>
<!-- Node10&#45;&gt;Node4 -->
<g id="edge14" class="edge"><title>Node10&#45;&gt;Node4</title>
<path fill="none" stroke="midnightblue" d="M447.398,-374.48C497.262,-366.348 570.803,-352.446 633,-333 653.643,-326.546 676.031,-316.973 693.188,-309.051"/>
<polygon fill="midnightblue" stroke="midnightblue" points="695.071,-312.034 702.633,-304.613 692.094,-305.698 695.071,-312.034"/>
</g>
<!-- Node14 -->
<g id="node14" class="node"><title>Node14</title>
<g id="a_node14"><a xlink:href="../../d4/db9/_open_a_l_sound_provider_8cpp.html#a0d61058bc8900801bc227bc7b47881d7" target="_top" xlink:title=" ">
<polygon fill="white" stroke="black" points="337,-16.5 337,-35.5 440,-35.5 440,-16.5 337,-16.5"/>
<text text-anchor="middle" x="388.5" y="-23.5" font-family="Helvetica,sans-Serif" font-size="10.00">CreateAudioSample</text>
</a>
</g>
</g>
<!-- Node13&#45;&gt;Node14 -->
<g id="edge19" class="edge"><title>Node13&#45;&gt;Node14</title>
<path fill="none" stroke="midnightblue" d="M236.69,-123.355C255.067,-108.419 292.121,-79.2053 326,-58 336.154,-51.6442 347.709,-45.3935 358.041,-40.1268"/>
<polygon fill="midnightblue" stroke="midnightblue" points="359.731,-43.195 367.109,-35.592 356.6,-36.9341 359.731,-43.195"/>
</g>
<!-- Node16 -->
<g id="node16" class="node"><title>Node16</title>
<g id="a_node16"><a xlink:href="../../d7/dc2/class_audio_player.html#ae30d2f6cbd73b8e316a47b4694fe8960" target="_top" xlink:title=" ">
<polygon fill="white" stroke="black" points="326.5,-123.5 326.5,-142.5 450.5,-142.5 450.5,-123.5 326.5,-123.5"/>
<text text-anchor="middle" x="388.5" y="-130.5" font-family="Helvetica,sans-Serif" font-size="10.00">AudioPlayer::LoadSound</text>
</a>
</g>
</g>
<!-- Node13&#45;&gt;Node16 -->
<g id="edge21" class="edge"><title>Node13&#45;&gt;Node16</title>
<path fill="none" stroke="midnightblue" d="M285.047,-133C295.151,-133 305.724,-133 316.082,-133"/>
<polygon fill="midnightblue" stroke="midnightblue" points="316.342,-136.5 326.342,-133 316.342,-129.5 316.342,-136.5"/>
</g>
<!-- Node21 -->
<g id="node21" class="node"><title>Node21</title>
<g id="a_node21"><a xlink:href="../../d6/d70/class_log.html#ac0de2621497ca3b2fbf208624c08bcdf" target="_top" xlink:title=" ">
<polygon fill="white" stroke="black" points="523,-190.5 523,-209.5 597,-209.5 597,-190.5 523,-190.5"/>
<text text-anchor="middle" x="560" y="-197.5" font-family="Helvetica,sans-Serif" font-size="10.00">Log::Warning</text>
</a>
</g>
</g>
<!-- Node13&#45;&gt;Node21 -->
<g id="edge29" class="edge"><title>Node13&#45;&gt;Node21</title>
<path fill="none" stroke="midnightblue" d="M272.499,-142.528C336.475,-155.362 449.587,-178.052 512.859,-190.744"/>
<polygon fill="midnightblue" stroke="midnightblue" points="512.453,-194.232 522.946,-192.768 513.829,-187.369 512.453,-194.232"/>
</g>
<!-- Node22 -->
<g id="node22" class="node"><title>Node22</title>
<g id="a_node22"><a xlink:href="../../d9/d98/class_open_a_l_sound_provider.html#a25ac61cd13253bb659672a1cc29ef22c" target="_top" xlink:title=" ">
<polygon fill="white" stroke="black" points="331.5,-68 331.5,-98 445.5,-98 445.5,-68 331.5,-68"/>
<text text-anchor="start" x="339.5" y="-86" font-family="Helvetica,sans-Serif" font-size="10.00">OpenALSoundProvider</text>
<text text-anchor="middle" x="388.5" y="-75" font-family="Helvetica,sans-Serif" font-size="10.00">::SetListenerPosition</text>
</a>
</g>
</g>
<!-- Node13&#45;&gt;Node22 -->
<g id="edge27" class="edge"><title>Node13&#45;&gt;Node22</title>
<path fill="none" stroke="midnightblue" d="M255.947,-123.478C276.515,-117.149 304.172,-108.639 328.82,-101.055"/>
<polygon fill="midnightblue" stroke="midnightblue" points="329.924,-104.378 338.453,-98.0915 327.866,-97.6872 329.924,-104.378"/>
</g>
<!-- Node15 -->
<g id="node15" class="node"><title>Node15</title>
<g id="a_node15"><a xlink:href="../../da/def/_media_8h.html#ab508e4ee3c70ec5e60273ec99af30a2e" target="_top" xlink:title=" ">
<polygon fill="white" stroke="black" points="487,-0.5 487,-19.5 633,-19.5 633,-0.5 487,-0.5"/>
<text text-anchor="middle" x="560" y="-7.5" font-family="Helvetica,sans-Serif" font-size="10.00">CreateAudioBufferDataSource</text>
</a>
</g>
</g>
<!-- Node14&#45;&gt;Node15 -->
<g id="edge20" class="edge"><title>Node14&#45;&gt;Node15</title>
<path fill="none" stroke="midnightblue" d="M440.356,-21.1995C451.897,-20.11 464.443,-18.9257 476.912,-17.7487"/>
<polygon fill="midnightblue" stroke="midnightblue" points="477.248,-21.2327 486.875,-16.8083 476.59,-14.2636 477.248,-21.2327"/>
</g>
<!-- Node17 -->
<g id="node17" class="node"><title>Node17</title>
<g id="a_node17"><a xlink:href="../../da/d6a/_mem_buffer_8cpp.html#a685632d9cd2b61b24a9bfc649d54937e" target="_top" xlink:title=" ">
<polygon fill="white" stroke="black" points="517.5,-152.5 517.5,-171.5 602.5,-171.5 602.5,-152.5 517.5,-152.5"/>
<text text-anchor="middle" x="560" y="-159.5" font-family="Helvetica,sans-Serif" font-size="10.00">AllocMemBuffer</text>
</a>
</g>
</g>
<!-- Node16&#45;&gt;Node17 -->
<g id="edge22" class="edge"><title>Node16&#45;&gt;Node17</title>
<path fill="none" stroke="midnightblue" d="M445.47,-142.576C465.424,-145.99 487.794,-149.817 507.367,-153.166"/>
<polygon fill="midnightblue" stroke="midnightblue" points="506.872,-156.632 517.319,-154.869 508.053,-149.732 506.872,-156.632"/>
</g>
<!-- Node18 -->
<g id="node18" class="node"><title>Node18</title>
<g id="a_node18"><a xlink:href="../../d7/dc2/class_audio_player.html#aac82d03b250711ed0ce64fa22dfe3a59" target="_top" xlink:title=" ">
<polygon fill="white" stroke="black" points="499,-114.5 499,-133.5 621,-133.5 621,-114.5 499,-114.5"/>
<text text-anchor="middle" x="560" y="-121.5" font-family="Helvetica,sans-Serif" font-size="10.00">AudioPlayer::FindSound</text>
</a>
</g>
</g>
<!-- Node16&#45;&gt;Node18 -->
<g id="edge23" class="edge"><title>Node16&#45;&gt;Node18</title>
<path fill="none" stroke="midnightblue" d="M450.693,-129.751C463.039,-129.095 476.11,-128.401 488.738,-127.731"/>
<polygon fill="midnightblue" stroke="midnightblue" points="488.948,-131.225 498.748,-127.199 488.577,-124.234 488.948,-131.225"/>
</g>
<!-- Node20 -->
<g id="node20" class="node"><title>Node20</title>
<g id="a_node20"><a xlink:href="../../d9/d3e/namespacezlib.html#ae552beaf4387a81c63a28b01a9cc7ab4" target="_top" xlink:title=" ">
<polygon fill="white" stroke="black" points="514,-76.5 514,-95.5 606,-95.5 606,-76.5 514,-76.5"/>
<text text-anchor="middle" x="560" y="-83.5" font-family="Helvetica,sans-Serif" font-size="10.00">zlib::Uncompress</text>
</a>
</g>
</g>
<!-- Node16&#45;&gt;Node20 -->
<g id="edge25" class="edge"><title>Node16&#45;&gt;Node20</title>
<path fill="none" stroke="midnightblue" d="M421.95,-123.491C440.892,-117.987 465.267,-110.987 487,-105 495.242,-102.729 504.029,-100.364 512.531,-98.1047"/>
<polygon fill="midnightblue" stroke="midnightblue" points="513.558,-101.454 522.33,-95.5128 511.768,-94.6863 513.558,-101.454"/>
</g>
<!-- Node16&#45;&gt;Node21 -->
<g id="edge26" class="edge"><title>Node16&#45;&gt;Node21</title>
<path fill="none" stroke="midnightblue" d="M406.301,-142.56C425.377,-153.106 457.663,-170.033 487,-181 495.27,-184.092 504.252,-186.886 512.978,-189.322"/>
<polygon fill="midnightblue" stroke="midnightblue" points="512.104,-192.711 522.668,-191.916 513.914,-185.949 512.104,-192.711"/>
</g>
<!-- Node19 -->
<g id="node19" class="node"><title>Node19</title>
<g id="a_node19"><a xlink:href="../../d8/d44/_strings_8cpp.html#ae591bae1416df2b3638ae859ad4ede6f" target="_top" xlink:title=" ">
<polygon fill="white" stroke="black" points="690,-114.5 690,-133.5 756,-133.5 756,-114.5 690,-114.5"/>
<text text-anchor="middle" x="723" y="-121.5" font-family="Helvetica,sans-Serif" font-size="10.00">MakeLower</text>
</a>
</g>
</g>
<!-- Node18&#45;&gt;Node19 -->
<g id="edge24" class="edge"><title>Node18&#45;&gt;Node19</title>
<path fill="none" stroke="midnightblue" d="M621.409,-124C640.802,-124 661.856,-124 679.668,-124"/>
<polygon fill="midnightblue" stroke="midnightblue" points="679.743,-127.5 689.743,-124 679.743,-120.5 679.743,-127.5"/>
</g>
<!-- Node23 -->
<g id="node23" class="node"><title>Node23</title>
<g id="a_node23"><a xlink:href="../../d1/d20/al_8h.html#acb8f6904370d9946f4ea496e21729415" target="_top" xlink:title=" ">
<polygon fill="white" stroke="black" points="527,-38.5 527,-57.5 593,-57.5 593,-38.5 527,-38.5"/>
<text text-anchor="middle" x="560" y="-45.5" font-family="Helvetica,sans-Serif" font-size="10.00">alListener3f</text>
</a>
</g>
</g>
<!-- Node22&#45;&gt;Node23 -->
<g id="edge28" class="edge"><title>Node22&#45;&gt;Node23</title>
<path fill="none" stroke="midnightblue" d="M445.941,-71.3455C468.949,-66.5947 495.101,-61.1945 516.454,-56.7853"/>
<polygon fill="midnightblue" stroke="midnightblue" points="517.431,-60.1576 526.516,-54.7076 516.015,-53.3022 517.431,-60.1576"/>
</g>
</g>
</svg>
        <g id="navigator" transform="translate(0 0)" fill="#404254">
                <rect fill="#f2f5e9" fill-opacity="0.5" stroke="#606060" stroke-width=".5" x="0" y="0" width="60" height="60"/>
                <use id="zoomplus" xlink:href="#zoomPlus" x="17" y="9" onmousedown="handleZoom(evt,'in')"/>
                <use id="zoomminus" xlink:href="#zoomMin" x="42" y="9" onmousedown="handleZoom(evt,'out')"/>
                <use id="reset" xlink:href="#resetDef" x="30" y="36" onmousedown="handleReset()"/>
                <g id="arrowUp" xlink:href="#dirArrow" transform="translate(30 24)" onmousedown="handlePan(0,-1)">
                  <use xlink:href="#rim" fill="#404040">
                        <set attributeName="fill" to="#808080" begin="arrowUp.mouseover" end="arrowUp.mouseout"/>
                  </use>
                  <path fill="none" stroke="white" stroke-width="1.5" d="M0,-3.0v7 M-2.5,-0.5L0,-3.0L2.5,-0.5"/>
                </g>
                <g id="arrowRight" xlink:href="#dirArrow" transform="rotate(90) translate(36 -43)" onmousedown="handlePan(1,0)">
                  <use xlink:href="#rim" fill="#404040">
                        <set attributeName="fill" to="#808080" begin="arrowRight.mouseover" end="arrowRight.mouseout"/>
                  </use>
                  <path fill="none" stroke="white" stroke-width="1.5" d="M0,-3.0v7 M-2.5,-0.5L0,-3.0L2.5,-0.5"/>
                </g>
                <g id="arrowDown" xlink:href="#dirArrow" transform="rotate(180) translate(-30 -48)" onmousedown="handlePan(0,1)">
                  <use xlink:href="#rim" fill="#404040">
                        <set attributeName="fill" to="#808080" begin="arrowDown.mouseover" end="arrowDown.mouseout"/>
                  </use>
                  <path fill="none" stroke="white" stroke-width="1.5" d="M0,-3.0v7 M-2.5,-0.5L0,-3.0L2.5,-0.5"/>
                </g>
                <g id="arrowLeft" xlink:href="#dirArrow" transform="rotate(270) translate(-36 17)" onmousedown="handlePan(-1,0)">
                  <use xlink:href="#rim" fill="#404040">
                        <set attributeName="fill" to="#808080" begin="arrowLeft.mouseover" end="arrowLeft.mouseout"/>
                  </use>
                  <path fill="none" stroke="white" stroke-width="1.5" d="M0,-3.0v7 M-2.5,-0.5L0,-3.0L2.5,-0.5"/>
                </g>
        </g>
        <svg viewBox="0 0 15 15" width="100%" height="30px" preserveAspectRatio="xMaxYMin meet">
         <g id="arrow_out" transform="scale(0.3 0.3)">
          <a xlink:href="struct_g_u_i_window___quest_book_a74b01e5e2ebd7ad52bb980a98a87be7e_cgraph_org.svg" target="_base">
           <rect id="button" ry="5" rx="5" y="6" x="6" height="38" width="38"
                fill="#f2f5e9" fill-opacity="0.5" stroke="#606060" stroke-width="1.0"/>
           <path id="arrow"
             d="M 11.500037,31.436501 C 11.940474,20.09759 22.043105,11.32322 32.158766,21.979434 L 37.068811,17.246167 C 37.068811,17.246167 37.088388,32 37.088388,32 L 22.160133,31.978069 C 22.160133,31.978069 26.997745,27.140456 26.997745,27.140456 C 18.528582,18.264221 13.291696,25.230495 11.500037,31.436501 z"
             style="fill:#404040;"/>
          </a>
         </g>
        </svg>
</svg>
