<?xml version="1.0" encoding="UTF-8" standalone="no"?>
<!DOCTYPE svg PUBLIC "-//W3C//DTD SVG 1.1//EN"
 "http://www.w3.org/Graphics/SVG/1.1/DTD/svg11.dtd">
<!-- Generated by graphviz version 2.38.0 (20140413.2041)
 -->
<!-- Title: RenderOpenGL::ClearTarget Pages: 1 -->
<svg width="245pt" height="84pt"
 viewBox="0.00 0.00 245.00 84.00" xmlns="http://www.w3.org/2000/svg" xmlns:xlink="http://www.w3.org/1999/xlink">
<g id="graph0" class="graph" transform="scale(1 1) rotate(0) translate(4 80)">
<title>RenderOpenGL::ClearTarget</title>
<polygon fill="white" stroke="none" points="-4,4 -4,-80 241,-80 241,4 -4,4"/>
<!-- Node1 -->
<g id="node1" class="node"><title>Node1</title>
<g id="a_node1"><a xlink:title=" ">
<polygon fill="#bfbfbf" stroke="black" points="0,-19.5 0,-38.5 139,-38.5 139,-19.5 0,-19.5"/>
<text text-anchor="middle" x="69.5" y="-26.5" font-family="Helvetica,sans-Serif" font-size="10.00">RenderOpenGL::ClearTarget</text>
</a>
</g>
</g>
<!-- Node2 -->
<g id="node2" class="node"><title>Node2</title>
<g id="a_node2"><a xlink:href="../../d4/d68/_engine_8cpp.html#a3fa4621a9002451f0e3066f2e027bfd3" target="_top" xlink:title=" ">
<polygon fill="white" stroke="black" points="181,-38.5 181,-57.5 231,-57.5 231,-38.5 181,-38.5"/>
<text text-anchor="middle" x="206" y="-45.5" font-family="Helvetica,sans-Serif" font-size="10.00">Color32</text>
</a>
</g>
</g>
<!-- Node1&#45;&gt;Node2 -->
<g id="edge1" class="edge"><title>Node1&#45;&gt;Node2</title>
<path fill="none" stroke="midnightblue" d="M138.144,-38.5557C149.505,-40.1606 160.851,-41.7633 170.885,-43.1808"/>
<polygon fill="midnightblue" stroke="midnightblue" points="170.421,-46.6499 180.812,-44.5831 171.4,-39.7187 170.421,-46.6499"/>
</g>
<!-- Node3 -->
<g id="node3" class="node"><title>Node3</title>
<g id="a_node3"><a xlink:href="../../d2/d83/_m_m7_8h.html#afcf95e3a294e5646a7e76ca294b9c64a" target="_top" xlink:title=" ">
<polygon fill="white" stroke="black" points="175,-0.5 175,-19.5 237,-19.5 237,-0.5 175,-0.5"/>
<text text-anchor="middle" x="206" y="-7.5" font-family="Helvetica,sans-Serif" font-size="10.00">memset32</text>
</a>
</g>
</g>
<!-- Node1&#45;&gt;Node3 -->
<g id="edge3" class="edge"><title>Node1&#45;&gt;Node3</title>
<path fill="none" stroke="midnightblue" d="M138.144,-19.4443C147.159,-18.1708 156.165,-16.8986 164.513,-15.7193"/>
<polygon fill="midnightblue" stroke="midnightblue" points="165.275,-19.1465 174.687,-14.2821 164.296,-12.2153 165.275,-19.1465"/>
</g>
<!-- Node2&#45;&gt;Node2 -->
<g id="edge2" class="edge"><title>Node2&#45;&gt;Node2</title>
<path fill="none" stroke="midnightblue" d="M185.038,-57.7571C174.841,-66.5653 181.828,-76 206,-76 221.485,-76 229.918,-72.128 231.298,-67.0292"/>
<polygon fill="midnightblue" stroke="midnightblue" points="234.368,-65.3329 226.962,-57.7571 228.027,-68.2982 234.368,-65.3329"/>
</g>
</g>
</svg>
