<?xml version="1.0" encoding="UTF-8" standalone="no"?>
<!DOCTYPE svg PUBLIC "-//W3C//DTD SVG 1.1//EN"
 "http://www.w3.org/Graphics/SVG/1.1/DTD/svg11.dtd">
<!-- Generated by graphviz version 2.38.0 (20140413.2041)
 -->
<!-- Title: RenderOpenGL::RenderTerrainD3D Pages: 1 -->
<!--zoomable 718 -->
<svg id="main" version="1.1" xmlns="http://www.w3.org/2000/svg" xmlns:xlink="http://www.w3.org/1999/xlink" xml:space="preserve" onload="init(evt)">
<style type="text/css"><![CDATA[
.edge:hover path { stroke: red; }
.edge:hover polygon { stroke: red; fill: red; }
]]></style>
<script type="text/javascript"><![CDATA[
var edges = document.getElementsByTagName('g');
if (edges && edges.length) {
  for (var i=0;i<edges.length;i++) {
    if (edges[i].id.substr(0,4)=='edge') {
      edges[i].setAttribute('class','edge');
    }
  }
}
]]></script>
        <defs>
                <circle id="rim" cx="0" cy="0" r="7"/>
                <circle id="rim2" cx="0" cy="0" r="3.5"/>
                <g id="zoomPlus">
                        <use xlink:href="#rim" fill="#404040">
                                <set attributeName="fill" to="#808080" begin="zoomplus.mouseover" end="zoomplus.mouseout"/>
                        </use>
                        <path d="M-4,0h8M0,-4v8" fill="none" stroke="white" stroke-width="1.5" pointer-events="none"/>
                </g>
                <g id="zoomMin">
                        <use xlink:href="#rim" fill="#404040">
                                <set attributeName="fill" to="#808080" begin="zoomminus.mouseover" end="zoomminus.mouseout"/>
                        </use>
                        <path d="M-4,0h8" fill="none" stroke="white" stroke-width="1.5" pointer-events="none"/>
                </g>
                <g id="dirArrow">
                        <path fill="none" stroke="white" stroke-width="1.5" d="M0,-3.0v7 M-2.5,-0.5L0,-3.0L2.5,-0.5"/>
                </g>
               <g id="resetDef">
                       <use xlink:href="#rim2" fill="#404040">
                               <set attributeName="fill" to="#808080" begin="reset.mouseover" end="reset.mouseout"/>
                       </use>
               </g>
        </defs>

<script type="text/javascript">
var viewWidth = 857;
var viewHeight = 718;
var sectionId = 'dynsection-74';
</script>
<script xlink:href="../../svgpan.js"/>
<svg id="graph" class="graph">
<g id="viewport">
<title>RenderOpenGL::RenderTerrainD3D</title>
<polygon fill="white" stroke="none" points="-4,4 -4,-714 853,-714 853,4 -4,4"/>
<!-- Node1 -->
<g id="node1" class="node"><title>Node1</title>
<g id="a_node1"><a xlink:title=" ">
<polygon fill="#bfbfbf" stroke="black" points="0,-247.5 0,-266.5 168,-266.5 168,-247.5 0,-247.5"/>
<text text-anchor="middle" x="84" y="-254.5" font-family="Helvetica,sans-Serif" font-size="10.00">RenderOpenGL::RenderTerrainD3D</text>
</a>
</g>
</g>
<!-- Node2 -->
<g id="node2" class="node"><title>Node2</title>
<g id="a_node2"><a xlink:href="../../da/d79/_render_open_g_l_8cpp.html#a27a3ab41e96351d06e3c7b710d3f1944" target="_top" xlink:title=" ">
<polygon fill="white" stroke="black" points="207.5,-636.5 207.5,-655.5 340.5,-655.5 340.5,-636.5 207.5,-636.5"/>
<text text-anchor="middle" x="274" y="-643.5" font-family="Helvetica,sans-Serif" font-size="10.00">_set_3d_modelview_matrix</text>
</a>
</g>
</g>
<!-- Node1&#45;&gt;Node2 -->
<g id="edge1" class="edge"><title>Node1&#45;&gt;Node2</title>
<path fill="none" stroke="midnightblue" d="M85.6379,-266.758C89.0569,-311.658 108.806,-500.881 204,-611 211.813,-620.038 222.527,-627.021 233.182,-632.286"/>
<polygon fill="midnightblue" stroke="midnightblue" points="231.902,-635.548 242.456,-636.478 234.785,-629.17 231.902,-635.548"/>
</g>
<!-- Node6 -->
<g id="node6" class="node"><title>Node6</title>
<g id="a_node6"><a xlink:href="../../da/d79/_render_open_g_l_8cpp.html#a3989bb5338ec37b4251ac5edf57a32bd" target="_top" xlink:title=" ">
<polygon fill="white" stroke="black" points="225,-571 225,-601 323,-601 323,-571 225,-571"/>
<text text-anchor="start" x="233" y="-589" font-family="Helvetica,sans-Serif" font-size="10.00">_set_3d_projection</text>
<text text-anchor="middle" x="274" y="-578" font-family="Helvetica,sans-Serif" font-size="10.00">_matrix</text>
</a>
</g>
</g>
<!-- Node1&#45;&gt;Node6 -->
<g id="edge5" class="edge"><title>Node1&#45;&gt;Node6</title>
<path fill="none" stroke="midnightblue" d="M88.6898,-266.938C101.712,-301.42 147.774,-418.518 204,-505 217.719,-526.102 236.38,-547.686 250.837,-563.262"/>
<polygon fill="midnightblue" stroke="midnightblue" points="248.559,-565.948 257.965,-570.825 253.653,-561.147 248.559,-565.948"/>
</g>
<!-- Node7 -->
<g id="node7" class="node"><title>Node7</title>
<g id="a_node7"><a xlink:href="../../d9/de5/struct_indoor_camera_d3_d.html#ae44ac296d0d5225048b313e14edf7da1" target="_top" xlink:title=" ">
<polygon fill="white" stroke="black" points="383,-538.5 383,-557.5 531,-557.5 531,-538.5 383,-538.5"/>
<text text-anchor="middle" x="457" y="-545.5" font-family="Helvetica,sans-Serif" font-size="10.00">IndoorCameraD3D::GetFarClip</text>
</a>
</g>
</g>
<!-- Node1&#45;&gt;Node7 -->
<g id="edge28" class="edge"><title>Node1&#45;&gt;Node7</title>
<path fill="none" stroke="midnightblue" d="M90.1042,-266.504C104.871,-293.354 150.042,-371.06 204,-421 271.355,-483.338 295.387,-493.457 380,-529 385.842,-531.454 392.076,-533.644 398.364,-535.586"/>
<polygon fill="midnightblue" stroke="midnightblue" points="397.665,-539.026 408.243,-538.433 399.603,-532.3 397.665,-539.026"/>
</g>
<!-- Node9 -->
<g id="node9" class="node"><title>Node9</title>
<g id="a_node9"><a xlink:href="../../d6/d38/structstru193__math.html#ae5c580a8915049b2fe00949acf3ca728" target="_top" xlink:title=" ">
<polygon fill="white" stroke="black" points="220.5,-392.5 220.5,-411.5 327.5,-411.5 327.5,-392.5 220.5,-392.5"/>
<text text-anchor="middle" x="274" y="-399.5" font-family="Helvetica,sans-Serif" font-size="10.00">stru193_math::Atan2</text>
</a>
</g>
</g>
<!-- Node1&#45;&gt;Node9 -->
<g id="edge10" class="edge"><title>Node1&#45;&gt;Node9</title>
<path fill="none" stroke="midnightblue" d="M91.2237,-266.569C107.063,-290.14 151.395,-351.372 204,-383 207.594,-385.161 211.439,-387.082 215.408,-388.789"/>
<polygon fill="midnightblue" stroke="midnightblue" points="214.239,-392.09 224.83,-392.397 216.742,-385.553 214.239,-392.09"/>
</g>
<!-- Node10 -->
<g id="node10" class="node"><title>Node10</title>
<g id="a_node10"><a xlink:href="../../d1/d55/struct_outdoor_location.html#ad85e502d212dfc65ab10ba2d57300467" target="_top" xlink:title=" ">
<polygon fill="white" stroke="black" points="205.5,-354.5 205.5,-373.5 342.5,-373.5 342.5,-354.5 205.5,-354.5"/>
<text text-anchor="middle" x="274" y="-361.5" font-family="Helvetica,sans-Serif" font-size="10.00">OutdoorLocation::DoGetTile</text>
</a>
</g>
</g>
<!-- Node1&#45;&gt;Node10 -->
<g id="edge11" class="edge"><title>Node1&#45;&gt;Node10</title>
<path fill="none" stroke="midnightblue" d="M95.2754,-266.704C114.88,-284.71 159.636,-323.42 204,-345 208.698,-347.285 213.714,-349.332 218.817,-351.158"/>
<polygon fill="midnightblue" stroke="midnightblue" points="218.084,-354.601 228.677,-354.4 220.271,-347.951 218.084,-354.601"/>
</g>
<!-- Node11 -->
<g id="node11" class="node"><title>Node11</title>
<g id="a_node11"><a xlink:href="../../d1/d2c/class_render_open_g_l.html#a73da4c6b1e9ec6c9afc445058ee37dd9" target="_top" xlink:title=" ">
<polygon fill="white" stroke="black" points="204,-305 204,-335 344,-335 344,-305 204,-305"/>
<text text-anchor="start" x="212" y="-323" font-family="Helvetica,sans-Serif" font-size="10.00">RenderOpenGL::DrawTerrain</text>
<text text-anchor="middle" x="274" y="-312" font-family="Helvetica,sans-Serif" font-size="10.00">Polygon</text>
</a>
</g>
</g>
<!-- Node1&#45;&gt;Node11 -->
<g id="edge12" class="edge"><title>Node1&#45;&gt;Node11</title>
<path fill="none" stroke="midnightblue" d="M113.553,-266.568C141.226,-275.842 183.923,-290.15 218.171,-301.627"/>
<polygon fill="midnightblue" stroke="midnightblue" points="217.45,-305.076 228.044,-304.935 219.674,-298.439 217.45,-305.076"/>
</g>
<!-- Node20 -->
<g id="node20" class="node"><title>Node20</title>
<g id="a_node20"><a xlink:href="../../df/dc4/_s_d_l__opengl_8h.html#a1beaf822e5a901dc3fe429b68efb77d4" target="_top" xlink:title=" ">
<polygon fill="white" stroke="black" points="430,-196.5 430,-215.5 484,-215.5 484,-196.5 430,-196.5"/>
<text text-anchor="middle" x="457" y="-203.5" font-family="Helvetica,sans-Serif" font-size="10.00">glEnable</text>
</a>
</g>
</g>
<!-- Node1&#45;&gt;Node20 -->
<g id="edge32" class="edge"><title>Node1&#45;&gt;Node20</title>
<path fill="none" stroke="midnightblue" d="M149.438,-266.51C203.033,-271.914 280.529,-273.84 344,-252 362.912,-245.493 361.941,-233.595 380,-225 392.403,-219.096 406.849,-214.894 419.796,-211.969"/>
<polygon fill="midnightblue" stroke="midnightblue" points="420.712,-215.353 429.789,-209.889 419.286,-208.5 420.712,-215.353"/>
</g>
<!-- Node24 -->
<g id="node24" class="node"><title>Node24</title>
<g id="a_node24"><a xlink:href="../../d1/d2c/class_render_open_g_l.html#aa3457a68cf374a1345c12e79e9827fd3" target="_top" xlink:title=" ">
<polygon fill="white" stroke="black" points="570,-153 570,-183 714,-183 714,-153 570,-153"/>
<text text-anchor="start" x="578" y="-171" font-family="Helvetica,sans-Serif" font-size="10.00">RenderOpenGL::GetActorTint</text>
<text text-anchor="middle" x="642" y="-160" font-family="Helvetica,sans-Serif" font-size="10.00">Color</text>
</a>
</g>
</g>
<!-- Node1&#45;&gt;Node24 -->
<g id="edge26" class="edge"><title>Node1&#45;&gt;Node24</title>
<path fill="none" stroke="midnightblue" d="M168.12,-250.003C231.716,-243.688 313.518,-233.208 344,-219 363.403,-209.956 360.28,-195.33 380,-187 436.716,-163.044 506.524,-159.126 559.67,-160.745"/>
<polygon fill="midnightblue" stroke="midnightblue" points="559.605,-164.245 569.73,-161.123 559.868,-157.25 559.605,-164.245"/>
</g>
<!-- Node25 -->
<g id="node25" class="node"><title>Node25</title>
<g id="a_node25"><a xlink:href="../../df/dc4/_s_d_l__opengl_8h.html#a940f58f3728713267a58e2d09ff602b2" target="_top" xlink:title=" ">
<polygon fill="white" stroke="black" points="236,-190.5 236,-209.5 312,-209.5 312,-190.5 236,-190.5"/>
<text text-anchor="middle" x="274" y="-197.5" font-family="Helvetica,sans-Serif" font-size="10.00">glBindTexture</text>
</a>
</g>
</g>
<!-- Node1&#45;&gt;Node25 -->
<g id="edge29" class="edge"><title>Node1&#45;&gt;Node25</title>
<path fill="none" stroke="midnightblue" d="M116.467,-247.459C148.053,-237.883 196.878,-223.079 231.593,-212.554"/>
<polygon fill="midnightblue" stroke="midnightblue" points="232.876,-215.823 241.43,-209.572 230.845,-209.124 232.876,-215.823"/>
</g>
<!-- Node26 -->
<g id="node26" class="node"><title>Node26</title>
<g id="a_node26"><a xlink:href="../../df/dc4/_s_d_l__opengl_8h.html#ab96734b878496b7f1d84b854a0cc072c" target="_top" xlink:title=" ">
<polygon fill="white" stroke="black" points="243,-152.5 243,-171.5 305,-171.5 305,-152.5 243,-152.5"/>
<text text-anchor="middle" x="274" y="-159.5" font-family="Helvetica,sans-Serif" font-size="10.00">glCullFace</text>
</a>
</g>
</g>
<!-- Node1&#45;&gt;Node26 -->
<g id="edge30" class="edge"><title>Node1&#45;&gt;Node26</title>
<path fill="none" stroke="midnightblue" d="M97.1466,-247.473C117.925,-231.595 162.116,-199.63 204,-181 213.1,-176.952 223.266,-173.577 232.938,-170.849"/>
<polygon fill="midnightblue" stroke="midnightblue" points="234.005,-174.187 242.774,-168.24 232.21,-167.421 234.005,-174.187"/>
</g>
<!-- Node27 -->
<g id="node27" class="node"><title>Node27</title>
<g id="a_node27"><a xlink:href="../../df/dc4/_s_d_l__opengl_8h.html#a2dd6d6a950c820e1448dd34a6c1e7ad0" target="_top" xlink:title=" ">
<polygon fill="white" stroke="black" points="237,-114.5 237,-133.5 311,-133.5 311,-114.5 237,-114.5"/>
<text text-anchor="middle" x="274" y="-121.5" font-family="Helvetica,sans-Serif" font-size="10.00">glDepthMask</text>
</a>
</g>
</g>
<!-- Node1&#45;&gt;Node27 -->
<g id="edge31" class="edge"><title>Node1&#45;&gt;Node27</title>
<path fill="none" stroke="midnightblue" d="M92.1931,-247.406C109.151,-225.476 153.99,-171.39 204,-143 211.144,-138.944 219.201,-135.716 227.222,-133.159"/>
<polygon fill="midnightblue" stroke="midnightblue" points="228.285,-136.495 236.924,-130.361 226.346,-129.769 228.285,-136.495"/>
</g>
<!-- Node28 -->
<g id="node28" class="node"><title>Node28</title>
<g id="a_node28"><a xlink:href="../../df/dc4/_s_d_l__opengl_8h.html#afa8b9e2bcb7fed76f69b2182bc2f3d73" target="_top" xlink:title=" ">
<polygon fill="white" stroke="black" points="240,-76.5 240,-95.5 308,-95.5 308,-76.5 240,-76.5"/>
<text text-anchor="middle" x="274" y="-83.5" font-family="Helvetica,sans-Serif" font-size="10.00">glFrontFace</text>
</a>
</g>
</g>
<!-- Node1&#45;&gt;Node28 -->
<g id="edge33" class="edge"><title>Node1&#45;&gt;Node28</title>
<path fill="none" stroke="midnightblue" d="M89.6657,-247.438C103.279,-220.57 145.705,-143.832 204,-105 211.822,-99.7896 221.045,-95.9995 230.159,-93.2452"/>
<polygon fill="midnightblue" stroke="midnightblue" points="231.17,-96.5981 239.934,-90.6449 229.371,-89.8333 231.17,-96.5981"/>
</g>
<!-- Node29 -->
<g id="node29" class="node"><title>Node29</title>
<g id="a_node29"><a xlink:href="../../d1/d03/_outdoor_8cpp.html#a1fc6a9841260afdd3a49a96000d9157b" target="_top" xlink:title=" ">
<polygon fill="white" stroke="black" points="219,-38.5 219,-57.5 329,-57.5 329,-38.5 219,-38.5"/>
<text text-anchor="middle" x="274" y="-45.5" font-family="Helvetica,sans-Serif" font-size="10.00">WorldPosToGridCellX</text>
</a>
</g>
</g>
<!-- Node1&#45;&gt;Node29 -->
<g id="edge34" class="edge"><title>Node1&#45;&gt;Node29</title>
<path fill="none" stroke="midnightblue" d="M88.1633,-247.352C98.9218,-216.091 137.19,-116.74 204,-67 206.51,-65.1311 209.194,-63.446 211.994,-61.9267"/>
<polygon fill="midnightblue" stroke="midnightblue" points="213.667,-65.0087 221.257,-57.6164 210.714,-58.6622 213.667,-65.0087"/>
</g>
<!-- Node30 -->
<g id="node30" class="node"><title>Node30</title>
<g id="a_node30"><a xlink:href="../../d1/d03/_outdoor_8cpp.html#a7e25ed8503996c8f34bdc79af76b1189" target="_top" xlink:title=" ">
<polygon fill="white" stroke="black" points="219,-0.5 219,-19.5 329,-19.5 329,-0.5 219,-0.5"/>
<text text-anchor="middle" x="274" y="-7.5" font-family="Helvetica,sans-Serif" font-size="10.00">WorldPosToGridCellZ</text>
</a>
</g>
</g>
<!-- Node1&#45;&gt;Node30 -->
<g id="edge35" class="edge"><title>Node1&#45;&gt;Node30</title>
<path fill="none" stroke="midnightblue" d="M87.0815,-247.462C95.2225,-212.489 128.266,-90.1473 204,-29 206.266,-27.1706 208.695,-25.517 211.239,-24.0222"/>
<polygon fill="midnightblue" stroke="midnightblue" points="212.869,-27.1204 220.258,-19.5276 209.747,-20.8553 212.869,-27.1204"/>
</g>
<!-- Node3 -->
<g id="node3" class="node"><title>Node3</title>
<g id="a_node3"><a xlink:href="../../df/dc4/_s_d_l__opengl_8h.html#a6577472f85b23086331edadaf0311a49" target="_top" xlink:title=" ">
<polygon fill="white" stroke="black" points="418.5,-614.5 418.5,-633.5 495.5,-633.5 495.5,-614.5 418.5,-614.5"/>
<text text-anchor="middle" x="457" y="-621.5" font-family="Helvetica,sans-Serif" font-size="10.00">glLoadIdentity</text>
</a>
</g>
</g>
<!-- Node2&#45;&gt;Node3 -->
<g id="edge2" class="edge"><title>Node2&#45;&gt;Node3</title>
<path fill="none" stroke="midnightblue" d="M340.601,-638.026C362.93,-635.312 387.453,-632.332 408.128,-629.819"/>
<polygon fill="midnightblue" stroke="midnightblue" points="408.744,-633.27 418.248,-628.589 407.899,-626.321 408.744,-633.27"/>
</g>
<!-- Node4 -->
<g id="node4" class="node"><title>Node4</title>
<g id="a_node4"><a xlink:href="../../df/dc4/_s_d_l__opengl_8h.html#af14e38e22806d0220680b52edbc3bcef" target="_top" xlink:title=" ">
<polygon fill="white" stroke="black" points="419.5,-652.5 419.5,-671.5 494.5,-671.5 494.5,-652.5 419.5,-652.5"/>
<text text-anchor="middle" x="457" y="-659.5" font-family="Helvetica,sans-Serif" font-size="10.00">glMatrixMode</text>
</a>
</g>
</g>
<!-- Node2&#45;&gt;Node4 -->
<g id="edge3" class="edge"><title>Node2&#45;&gt;Node4</title>
<path fill="none" stroke="midnightblue" d="M340.601,-651.799C363.277,-653.803 388.214,-656.008 409.087,-657.853"/>
<polygon fill="midnightblue" stroke="midnightblue" points="409.018,-661.36 419.288,-658.755 409.635,-654.388 409.018,-661.36"/>
</g>
<!-- Node5 -->
<g id="node5" class="node"><title>Node5</title>
<g id="a_node5"><a xlink:href="../../df/dc4/_s_d_l__opengl_8h.html#a8fd928b1b75f4c7b75bd3b0fa06a3fd3" target="_top" xlink:title=" ">
<polygon fill="white" stroke="black" points="431.5,-690.5 431.5,-709.5 482.5,-709.5 482.5,-690.5 431.5,-690.5"/>
<text text-anchor="middle" x="457" y="-697.5" font-family="Helvetica,sans-Serif" font-size="10.00">glScalef</text>
</a>
</g>
</g>
<!-- Node2&#45;&gt;Node5 -->
<g id="edge4" class="edge"><title>Node2&#45;&gt;Node5</title>
<path fill="none" stroke="midnightblue" d="M302.015,-655.641C323.116,-663.016 353.249,-673.21 380,-681 393.395,-684.901 408.257,-688.726 421.261,-691.91"/>
<polygon fill="midnightblue" stroke="midnightblue" points="420.685,-695.371 431.227,-694.315 422.328,-688.567 420.685,-695.371"/>
</g>
<!-- Node6&#45;&gt;Node3 -->
<g id="edge8" class="edge"><title>Node6&#45;&gt;Node3</title>
<path fill="none" stroke="midnightblue" d="M323.029,-596.084C349.38,-601.616 381.943,-608.452 408.249,-613.975"/>
<polygon fill="midnightblue" stroke="midnightblue" points="407.86,-617.469 418.365,-616.099 409.298,-610.619 407.86,-617.469"/>
</g>
<!-- Node6&#45;&gt;Node4 -->
<g id="edge9" class="edge"><title>Node6&#45;&gt;Node4</title>
<path fill="none" stroke="midnightblue" d="M298.771,-601.168C319.526,-613.85 350.812,-631.64 380,-643 389.411,-646.663 399.756,-649.799 409.702,-652.406"/>
<polygon fill="midnightblue" stroke="midnightblue" points="408.916,-655.817 419.465,-654.837 410.607,-649.025 408.916,-655.817"/>
</g>
<!-- Node6&#45;&gt;Node7 -->
<g id="edge6" class="edge"><title>Node6&#45;&gt;Node7</title>
<path fill="none" stroke="midnightblue" d="M323.029,-575.916C346.87,-570.911 375.796,-564.838 400.573,-559.637"/>
<polygon fill="midnightblue" stroke="midnightblue" points="401.486,-563.021 410.553,-557.541 400.048,-556.171 401.486,-563.021"/>
</g>
<!-- Node8 -->
<g id="node8" class="node"><title>Node8</title>
<g id="a_node8"><a xlink:href="../../d9/de5/struct_indoor_camera_d3_d.html#a6ade9a050aa9009a83e21461c6c470c4" target="_top" xlink:title=" ">
<polygon fill="white" stroke="black" points="380,-576.5 380,-595.5 534,-595.5 534,-576.5 380,-576.5"/>
<text text-anchor="middle" x="457" y="-583.5" font-family="Helvetica,sans-Serif" font-size="10.00">IndoorCameraD3D::GetNearClip</text>
</a>
</g>
</g>
<!-- Node6&#45;&gt;Node8 -->
<g id="edge7" class="edge"><title>Node6&#45;&gt;Node8</title>
<path fill="none" stroke="midnightblue" d="M323.029,-586C337.291,-586 353.372,-586 369.296,-586"/>
<polygon fill="midnightblue" stroke="midnightblue" points="369.717,-589.5 379.717,-586 369.717,-582.5 369.717,-589.5"/>
</g>
<!-- Node12 -->
<g id="node12" class="node"><title>Node12</title>
<g id="a_node12"><a xlink:href="../../de/d73/class_image.html#a9241b1c53141c78273e4060a91634d47" target="_top" xlink:title=" ">
<polygon fill="white" stroke="black" points="412,-234.5 412,-253.5 502,-253.5 502,-234.5 412,-234.5"/>
<text text-anchor="middle" x="457" y="-241.5" font-family="Helvetica,sans-Serif" font-size="10.00">Image::GetWidth</text>
</a>
</g>
</g>
<!-- Node11&#45;&gt;Node12 -->
<g id="edge13" class="edge"><title>Node11&#45;&gt;Node12</title>
<path fill="none" stroke="midnightblue" d="M314.104,-304.884C324.08,-300.521 334.628,-295.451 344,-290 361.288,-279.944 361.941,-271.595 380,-263 386.994,-259.671 394.638,-256.883 402.296,-254.56"/>
<polygon fill="midnightblue" stroke="midnightblue" points="403.267,-257.922 411.956,-251.86 401.383,-251.181 403.267,-257.922"/>
</g>
<!-- Node16 -->
<g id="node16" class="node"><title>Node16</title>
<g id="a_node16"><a xlink:href="../../df/dc4/_s_d_l__opengl_8h.html#a98964453975519f92d6cc59ef77f7436" target="_top" xlink:title=" ">
<polygon fill="white" stroke="black" points="432.5,-272.5 432.5,-291.5 481.5,-291.5 481.5,-272.5 432.5,-272.5"/>
<text text-anchor="middle" x="457" y="-279.5" font-family="Helvetica,sans-Serif" font-size="10.00">glBegin</text>
</a>
</g>
</g>
<!-- Node11&#45;&gt;Node16 -->
<g id="edge18" class="edge"><title>Node11&#45;&gt;Node16</title>
<path fill="none" stroke="midnightblue" d="M344.203,-305.471C371.083,-299.828 400.621,-293.627 422.581,-289.016"/>
<polygon fill="midnightblue" stroke="midnightblue" points="423.337,-292.434 432.404,-286.954 421.898,-285.583 423.337,-292.434"/>
</g>
<!-- Node17 -->
<g id="node17" class="node"><title>Node17</title>
<g id="a_node17"><a xlink:href="../../df/dc4/_s_d_l__opengl_8h.html#a8e13e72c3a7bac1f4685fcf3d32bf98c" target="_top" xlink:title=" ">
<polygon fill="white" stroke="black" points="421.5,-500.5 421.5,-519.5 492.5,-519.5 492.5,-500.5 421.5,-500.5"/>
<text text-anchor="middle" x="457" y="-507.5" font-family="Helvetica,sans-Serif" font-size="10.00">glBlendFunc</text>
</a>
</g>
</g>
<!-- Node11&#45;&gt;Node17 -->
<g id="edge19" class="edge"><title>Node11&#45;&gt;Node17</title>
<path fill="none" stroke="midnightblue" d="M331.866,-335.063C336.363,-337.835 340.507,-341.116 344,-345 388.691,-394.691 332.819,-443.666 380,-491 388.317,-499.344 399.708,-504.217 411.139,-507.012"/>
<polygon fill="midnightblue" stroke="midnightblue" points="410.633,-510.479 421.12,-508.969 411.98,-503.61 410.633,-510.479"/>
</g>
<!-- Node18 -->
<g id="node18" class="node"><title>Node18</title>
<g id="a_node18"><a xlink:href="../../df/dc4/_s_d_l__opengl_8h.html#acee7240272b34e83a4567a1fb586be99" target="_top" xlink:title=" ">
<polygon fill="white" stroke="black" points="430,-462.5 430,-481.5 484,-481.5 484,-462.5 430,-462.5"/>
<text text-anchor="middle" x="457" y="-469.5" font-family="Helvetica,sans-Serif" font-size="10.00">glColor3f</text>
</a>
</g>
</g>
<!-- Node11&#45;&gt;Node18 -->
<g id="edge20" class="edge"><title>Node11&#45;&gt;Node18</title>
<path fill="none" stroke="midnightblue" d="M331.208,-335.168C335.899,-337.92 340.265,-341.167 344,-345 379.312,-381.237 342.876,-418.622 380,-453 390.656,-462.868 405.645,-467.809 419.499,-470.217"/>
<polygon fill="midnightblue" stroke="midnightblue" points="419.402,-473.736 429.781,-471.604 420.338,-466.799 419.402,-473.736"/>
</g>
<!-- Node19 -->
<g id="node19" class="node"><title>Node19</title>
<g id="a_node19"><a xlink:href="../../df/dc4/_s_d_l__opengl_8h.html#acfd692f7e3361a218a542300f35ea816" target="_top" xlink:title=" ">
<polygon fill="white" stroke="black" points="429,-424.5 429,-443.5 485,-443.5 485,-424.5 429,-424.5"/>
<text text-anchor="middle" x="457" y="-431.5" font-family="Helvetica,sans-Serif" font-size="10.00">glDisable</text>
</a>
</g>
</g>
<!-- Node11&#45;&gt;Node19 -->
<g id="edge21" class="edge"><title>Node11&#45;&gt;Node19</title>
<path fill="none" stroke="midnightblue" d="M329.235,-335.052C334.554,-337.84 339.6,-341.128 344,-345 370.262,-368.113 352.587,-393.265 380,-415 391.04,-423.753 405.59,-428.534 419.002,-431.123"/>
<polygon fill="midnightblue" stroke="midnightblue" points="418.534,-434.593 428.959,-432.706 419.632,-427.679 418.534,-434.593"/>
</g>
<!-- Node11&#45;&gt;Node20 -->
<g id="edge22" class="edge"><title>Node11&#45;&gt;Node20</title>
<path fill="none" stroke="midnightblue" d="M321.345,-304.89C329.476,-300.89 337.426,-295.973 344,-290 368.441,-267.792 353.81,-245.117 380,-225 391.345,-216.285 406.199,-211.525 419.761,-208.94"/>
<polygon fill="midnightblue" stroke="midnightblue" points="420.468,-212.371 429.802,-207.357 419.379,-205.457 420.468,-212.371"/>
</g>
<!-- Node21 -->
<g id="node21" class="node"><title>Node21</title>
<g id="a_node21"><a xlink:href="../../df/dc4/_s_d_l__opengl_8h.html#abbff207d1fa71b296ff35b149cef7238" target="_top" xlink:title=" ">
<polygon fill="white" stroke="black" points="436.5,-386.5 436.5,-405.5 477.5,-405.5 477.5,-386.5 436.5,-386.5"/>
<text text-anchor="middle" x="457" y="-393.5" font-family="Helvetica,sans-Serif" font-size="10.00">glEnd</text>
</a>
</g>
</g>
<!-- Node11&#45;&gt;Node21 -->
<g id="edge23" class="edge"><title>Node11&#45;&gt;Node21</title>
<path fill="none" stroke="midnightblue" d="M323.95,-335.097C330.878,-337.983 337.76,-341.284 344,-345 362.393,-355.953 361.07,-367.004 380,-377 394.323,-384.563 411.768,-389.201 426.33,-391.999"/>
<polygon fill="midnightblue" stroke="midnightblue" points="425.888,-395.475 436.338,-393.727 427.079,-388.577 425.888,-395.475"/>
</g>
<!-- Node22 -->
<g id="node22" class="node"><title>Node22</title>
<g id="a_node22"><a xlink:href="../../df/dc4/_s_d_l__opengl_8h.html#a09db6f9fa0d39ef7e3919e6212296ece" target="_top" xlink:title=" ">
<polygon fill="white" stroke="black" points="420.5,-348.5 420.5,-367.5 493.5,-367.5 493.5,-348.5 420.5,-348.5"/>
<text text-anchor="middle" x="457" y="-355.5" font-family="Helvetica,sans-Serif" font-size="10.00">glTexCoord2f</text>
</a>
</g>
</g>
<!-- Node11&#45;&gt;Node22 -->
<g id="edge24" class="edge"><title>Node11&#45;&gt;Node22</title>
<path fill="none" stroke="midnightblue" d="M344.203,-334.529C366.401,-339.189 390.41,-344.23 410.469,-348.441"/>
<polygon fill="midnightblue" stroke="midnightblue" points="409.763,-351.869 420.269,-350.498 411.201,-345.018 409.763,-351.869"/>
</g>
<!-- Node23 -->
<g id="node23" class="node"><title>Node23</title>
<g id="a_node23"><a xlink:href="../../df/dc4/_s_d_l__opengl_8h.html#a9a95e17961303a80a5bf052b8c1cf677" target="_top" xlink:title=" ">
<polygon fill="white" stroke="black" points="427,-310.5 427,-329.5 487,-329.5 487,-310.5 427,-310.5"/>
<text text-anchor="middle" x="457" y="-317.5" font-family="Helvetica,sans-Serif" font-size="10.00">glVertex3f</text>
</a>
</g>
</g>
<!-- Node11&#45;&gt;Node23 -->
<g id="edge25" class="edge"><title>Node11&#45;&gt;Node23</title>
<path fill="none" stroke="midnightblue" d="M344.203,-320C368.62,-320 395.23,-320 416.362,-320"/>
<polygon fill="midnightblue" stroke="midnightblue" points="416.566,-323.5 426.566,-320 416.566,-316.5 416.566,-323.5"/>
</g>
<!-- Node13 -->
<g id="node13" class="node"><title>Node13</title>
<g id="a_node13"><a xlink:href="../../d9/d30/_s_d_l__assert_8h.html#afedcea68cf85ee469ab1ea390bbe0abb" target="_top" xlink:title=" ">
<polygon fill="white" stroke="black" points="761,-202.5 761,-221.5 838,-221.5 838,-202.5 761,-202.5"/>
<text text-anchor="middle" x="799.5" y="-209.5" font-family="Helvetica,sans-Serif" font-size="10.00">__debugbreak</text>
</a>
</g>
</g>
<!-- Node12&#45;&gt;Node13 -->
<g id="edge14" class="edge"><title>Node12&#45;&gt;Node13</title>
<path fill="none" stroke="midnightblue" d="M502.116,-238.543C522.723,-236.081 547.6,-233.231 570,-231 632.42,-224.784 704.575,-219.021 750.828,-215.509"/>
<polygon fill="midnightblue" stroke="midnightblue" points="751.154,-218.995 760.863,-214.752 750.627,-212.014 751.154,-218.995"/>
</g>
<!-- Node14 -->
<g id="node14" class="node"><title>Node14</title>
<g id="a_node14"><a xlink:href="../../de/d73/class_image.html#a9b786ec61110907b38dda728bd281c73" target="_top" xlink:title=" ">
<polygon fill="white" stroke="black" points="584,-240.5 584,-259.5 700,-259.5 700,-240.5 584,-240.5"/>
<text text-anchor="middle" x="642" y="-247.5" font-family="Helvetica,sans-Serif" font-size="10.00">Image::LoadImageData</text>
</a>
</g>
</g>
<!-- Node12&#45;&gt;Node14 -->
<g id="edge15" class="edge"><title>Node12&#45;&gt;Node14</title>
<path fill="none" stroke="midnightblue" d="M502.299,-245.452C523.773,-246.156 550.022,-247.017 573.885,-247.799"/>
<polygon fill="midnightblue" stroke="midnightblue" points="573.835,-251.3 583.944,-248.129 574.064,-244.303 573.835,-251.3"/>
</g>
<!-- Node14&#45;&gt;Node13 -->
<g id="edge16" class="edge"><title>Node14&#45;&gt;Node13</title>
<path fill="none" stroke="midnightblue" d="M682.239,-240.411C703.149,-235.301 729.031,-228.976 751.063,-223.592"/>
<polygon fill="midnightblue" stroke="midnightblue" points="751.999,-226.967 760.883,-221.193 750.338,-220.167 751.999,-226.967"/>
</g>
<!-- Node15 -->
<g id="node15" class="node"><title>Node15</title>
<g id="a_node15"><a xlink:href="../../d7/d42/class_image_loader.html#ad346c7973ae6f1d84a8c1fc655661319" target="_top" xlink:title=" ">
<polygon fill="white" stroke="black" points="750,-240.5 750,-259.5 849,-259.5 849,-240.5 750,-240.5"/>
<text text-anchor="middle" x="799.5" y="-247.5" font-family="Helvetica,sans-Serif" font-size="10.00">ImageLoader::Load</text>
</a>
</g>
</g>
<!-- Node14&#45;&gt;Node15 -->
<g id="edge17" class="edge"><title>Node14&#45;&gt;Node15</title>
<path fill="none" stroke="midnightblue" d="M700.019,-250C712.946,-250 726.698,-250 739.697,-250"/>
<polygon fill="midnightblue" stroke="midnightblue" points="739.93,-253.5 749.93,-250 739.93,-246.5 739.93,-253.5"/>
</g>
<!-- Node24&#45;&gt;Node13 -->
<g id="edge27" class="edge"><title>Node24&#45;&gt;Node13</title>
<path fill="none" stroke="midnightblue" d="M696.079,-183.019C715.232,-188.439 736.613,-194.489 754.865,-199.653"/>
<polygon fill="midnightblue" stroke="midnightblue" points="754.074,-203.067 764.649,-202.422 755.98,-196.331 754.074,-203.067"/>
</g>
</g>
</svg>
        <g id="navigator" transform="translate(0 0)" fill="#404254">
                <rect fill="#f2f5e9" fill-opacity="0.5" stroke="#606060" stroke-width=".5" x="0" y="0" width="60" height="60"/>
                <use id="zoomplus" xlink:href="#zoomPlus" x="17" y="9" onmousedown="handleZoom(evt,'in')"/>
                <use id="zoomminus" xlink:href="#zoomMin" x="42" y="9" onmousedown="handleZoom(evt,'out')"/>
                <use id="reset" xlink:href="#resetDef" x="30" y="36" onmousedown="handleReset()"/>
                <g id="arrowUp" xlink:href="#dirArrow" transform="translate(30 24)" onmousedown="handlePan(0,-1)">
                  <use xlink:href="#rim" fill="#404040">
                        <set attributeName="fill" to="#808080" begin="arrowUp.mouseover" end="arrowUp.mouseout"/>
                  </use>
                  <path fill="none" stroke="white" stroke-width="1.5" d="M0,-3.0v7 M-2.5,-0.5L0,-3.0L2.5,-0.5"/>
                </g>
                <g id="arrowRight" xlink:href="#dirArrow" transform="rotate(90) translate(36 -43)" onmousedown="handlePan(1,0)">
                  <use xlink:href="#rim" fill="#404040">
                        <set attributeName="fill" to="#808080" begin="arrowRight.mouseover" end="arrowRight.mouseout"/>
                  </use>
                  <path fill="none" stroke="white" stroke-width="1.5" d="M0,-3.0v7 M-2.5,-0.5L0,-3.0L2.5,-0.5"/>
                </g>
                <g id="arrowDown" xlink:href="#dirArrow" transform="rotate(180) translate(-30 -48)" onmousedown="handlePan(0,1)">
                  <use xlink:href="#rim" fill="#404040">
                        <set attributeName="fill" to="#808080" begin="arrowDown.mouseover" end="arrowDown.mouseout"/>
                  </use>
                  <path fill="none" stroke="white" stroke-width="1.5" d="M0,-3.0v7 M-2.5,-0.5L0,-3.0L2.5,-0.5"/>
                </g>
                <g id="arrowLeft" xlink:href="#dirArrow" transform="rotate(270) translate(-36 17)" onmousedown="handlePan(-1,0)">
                  <use xlink:href="#rim" fill="#404040">
                        <set attributeName="fill" to="#808080" begin="arrowLeft.mouseover" end="arrowLeft.mouseout"/>
                  </use>
                  <path fill="none" stroke="white" stroke-width="1.5" d="M0,-3.0v7 M-2.5,-0.5L0,-3.0L2.5,-0.5"/>
                </g>
        </g>
        <svg viewBox="0 0 15 15" width="100%" height="30px" preserveAspectRatio="xMaxYMin meet">
         <g id="arrow_out" transform="scale(0.3 0.3)">
          <a xlink:href="class_render_open_g_l_abf236e63625c1bc5204b19c19527a84e_cgraph_org.svg" target="_base">
           <rect id="button" ry="5" rx="5" y="6" x="6" height="38" width="38"
                fill="#f2f5e9" fill-opacity="0.5" stroke="#606060" stroke-width="1.0"/>
           <path id="arrow"
             d="M 11.500037,31.436501 C 11.940474,20.09759 22.043105,11.32322 32.158766,21.979434 L 37.068811,17.246167 C 37.068811,17.246167 37.088388,32 37.088388,32 L 22.160133,31.978069 C 22.160133,31.978069 26.997745,27.140456 26.997745,27.140456 C 18.528582,18.264221 13.291696,25.230495 11.500037,31.436501 z"
             style="fill:#404040;"/>
          </a>
         </g>
        </svg>
</svg>
