<?xml version="1.0" encoding="UTF-8" standalone="no"?>
<!DOCTYPE svg PUBLIC "-//W3C//DTD SVG 1.1//EN"
 "http://www.w3.org/Graphics/SVG/1.1/DTD/svg11.dtd">
<!-- Generated by graphviz version 2.38.0 (20140413.2041)
 -->
<!-- Title: RenderOpenGL::TexturePixelRotateDraw Pages: 1 -->
<svg width="237pt" height="52pt"
 viewBox="0.00 0.00 237.00 51.50" xmlns="http://www.w3.org/2000/svg" xmlns:xlink="http://www.w3.org/1999/xlink">
<g id="graph0" class="graph" transform="scale(1 1) rotate(0) translate(4 47.5)">
<title>RenderOpenGL::TexturePixelRotateDraw</title>
<polygon fill="white" stroke="none" points="-4,4 -4,-47.5 233,-47.5 233,4 -4,4"/>
<!-- Node1 -->
<g id="node1" class="node"><title>Node1</title>
<g id="a_node1"><a xlink:title=" ">
<polygon fill="#bfbfbf" stroke="black" points="0,-0.5 0,-30.5 143,-30.5 143,-0.5 0,-0.5"/>
<text text-anchor="start" x="8" y="-18.5" font-family="Helvetica,sans-Serif" font-size="10.00">RenderOpenGL::TexturePixel</text>
<text text-anchor="middle" x="71.5" y="-7.5" font-family="Helvetica,sans-Serif" font-size="10.00">RotateDraw</text>
</a>
</g>
</g>
<!-- Node2 -->
<g id="node2" class="node"><title>Node2</title>
<g id="a_node2"><a xlink:href="../../d4/d68/_engine_8cpp.html#a3fa4621a9002451f0e3066f2e027bfd3" target="_top" xlink:title=" ">
<polygon fill="white" stroke="black" points="179,-6 179,-25 229,-25 229,-6 179,-6"/>
<text text-anchor="middle" x="204" y="-13" font-family="Helvetica,sans-Serif" font-size="10.00">Color32</text>
</a>
</g>
</g>
<!-- Node1&#45;&gt;Node2 -->
<g id="edge1" class="edge"><title>Node1&#45;&gt;Node2</title>
<path fill="none" stroke="midnightblue" d="M143.097,-15.5C151.933,-15.5 160.637,-15.5 168.555,-15.5"/>
<polygon fill="midnightblue" stroke="midnightblue" points="168.805,-19.0001 178.805,-15.5 168.805,-12.0001 168.805,-19.0001"/>
</g>
<!-- Node2&#45;&gt;Node2 -->
<g id="edge2" class="edge"><title>Node2&#45;&gt;Node2</title>
<path fill="none" stroke="midnightblue" d="M183.655,-25.2571C173.757,-34.0653 180.539,-43.5 204,-43.5 219.03,-43.5 227.214,-39.628 228.553,-34.5292"/>
<polygon fill="midnightblue" stroke="midnightblue" points="231.665,-32.9164 224.345,-25.2571 225.291,-35.8096 231.665,-32.9164"/>
</g>
</g>
</svg>
