<?xml version="1.0" encoding="UTF-8" standalone="no"?>
<!DOCTYPE svg PUBLIC "-//W3C//DTD SVG 1.1//EN"
 "http://www.w3.org/Graphics/SVG/1.1/DTD/svg11.dtd">
<!-- Generated by graphviz version 2.38.0 (20140413.2041)
 -->
<!-- Title: glBlendFunc Pages: 1 -->
<!--zoomable 207 -->
<svg id="main" version="1.1" xmlns="http://www.w3.org/2000/svg" xmlns:xlink="http://www.w3.org/1999/xlink" xml:space="preserve" onload="init(evt)">
<style type="text/css"><![CDATA[
.edge:hover path { stroke: red; }
.edge:hover polygon { stroke: red; fill: red; }
]]></style>
<script type="text/javascript"><![CDATA[
var edges = document.getElementsByTagName('g');
if (edges && edges.length) {
  for (var i=0;i<edges.length;i++) {
    if (edges[i].id.substr(0,4)=='edge') {
      edges[i].setAttribute('class','edge');
    }
  }
}
]]></script>
        <defs>
                <circle id="rim" cx="0" cy="0" r="7"/>
                <circle id="rim2" cx="0" cy="0" r="3.5"/>
                <g id="zoomPlus">
                        <use xlink:href="#rim" fill="#404040">
                                <set attributeName="fill" to="#808080" begin="zoomplus.mouseover" end="zoomplus.mouseout"/>
                        </use>
                        <path d="M-4,0h8M0,-4v8" fill="none" stroke="white" stroke-width="1.5" pointer-events="none"/>
                </g>
                <g id="zoomMin">
                        <use xlink:href="#rim" fill="#404040">
                                <set attributeName="fill" to="#808080" begin="zoomminus.mouseover" end="zoomminus.mouseout"/>
                        </use>
                        <path d="M-4,0h8" fill="none" stroke="white" stroke-width="1.5" pointer-events="none"/>
                </g>
                <g id="dirArrow">
                        <path fill="none" stroke="white" stroke-width="1.5" d="M0,-3.0v7 M-2.5,-0.5L0,-3.0L2.5,-0.5"/>
                </g>
               <g id="resetDef">
                       <use xlink:href="#rim2" fill="#404040">
                               <set attributeName="fill" to="#808080" begin="reset.mouseover" end="reset.mouseout"/>
                       </use>
               </g>
        </defs>

<script type="text/javascript">
var viewWidth = 715;
var viewHeight = 207;
var sectionId = 'dynsection-2';
</script>
<script xlink:href="../../svgpan.js"/>
<svg id="graph" class="graph">
<g id="viewport">
<title>glBlendFunc</title>
<polygon fill="white" stroke="none" points="-4,4 -4,-203 711,-203 711,4 -4,4"/>
<!-- Node1 -->
<g id="node1" class="node"><title>Node1</title>
<g id="a_node1"><a xlink:title=" ">
<polygon fill="#bfbfbf" stroke="black" points="636,-113.5 636,-132.5 707,-132.5 707,-113.5 636,-113.5"/>
<text text-anchor="middle" x="671.5" y="-120.5" font-family="Helvetica,sans-Serif" font-size="10.00">glBlendFunc</text>
</a>
</g>
</g>
<!-- Node2 -->
<g id="node2" class="node"><title>Node2</title>
<g id="a_node2"><a xlink:href="../../d1/d2c/class_render_open_g_l.html#a1ec3ae7449c3d375def37ad738bcc47b" target="_top" xlink:title=" ">
<polygon fill="white" stroke="black" points="450.5,-179.5 450.5,-198.5 587.5,-198.5 587.5,-179.5 450.5,-179.5"/>
<text text-anchor="middle" x="519" y="-186.5" font-family="Helvetica,sans-Serif" font-size="10.00">RenderOpenGL::DrawImage</text>
</a>
</g>
</g>
<!-- Node1&#45;&gt;Node2 -->
<g id="edge1" class="edge"><title>Node1&#45;&gt;Node2</title>
<path fill="none" stroke="midnightblue" d="M650.693,-138.997C637.141,-149.217 618.366,-162.005 600,-170 591.231,-173.818 581.572,-176.938 572.089,-179.466"/>
<polygon fill="midnightblue" stroke="midnightblue" points="653.024,-141.619 658.788,-132.729 648.738,-136.084 653.024,-141.619"/>
</g>
<!-- Node3 -->
<g id="node3" class="node"><title>Node3</title>
<g id="a_node3"><a xlink:href="../../d1/d2c/class_render_open_g_l.html#a73da4c6b1e9ec6c9afc445058ee37dd9" target="_top" xlink:title=" ">
<polygon fill="white" stroke="black" points="449,-130 449,-160 589,-160 589,-130 449,-130"/>
<text text-anchor="start" x="457" y="-148" font-family="Helvetica,sans-Serif" font-size="10.00">RenderOpenGL::DrawTerrain</text>
<text text-anchor="middle" x="519" y="-137" font-family="Helvetica,sans-Serif" font-size="10.00">Polygon</text>
</a>
</g>
</g>
<!-- Node1&#45;&gt;Node3 -->
<g id="edge2" class="edge"><title>Node1&#45;&gt;Node3</title>
<path fill="none" stroke="midnightblue" d="M625.746,-129.542C614.216,-131.228 601.536,-133.081 589.082,-134.902"/>
<polygon fill="midnightblue" stroke="midnightblue" points="626.584,-132.957 635.972,-128.047 625.571,-126.031 626.584,-132.957"/>
</g>
<!-- Node5 -->
<g id="node5" class="node"><title>Node5</title>
<g id="a_node5"><a xlink:href="../../d1/d2c/class_render_open_g_l.html#a8b3a448184b108020bb9eaf1b22843ae" target="_top" xlink:title=" ">
<polygon fill="white" stroke="black" points="438,-91.5 438,-110.5 600,-110.5 600,-91.5 438,-91.5"/>
<text text-anchor="middle" x="519" y="-98.5" font-family="Helvetica,sans-Serif" font-size="10.00">RenderOpenGL::DrawTextureNew</text>
</a>
</g>
</g>
<!-- Node1&#45;&gt;Node5 -->
<g id="edge4" class="edge"><title>Node1&#45;&gt;Node5</title>
<path fill="none" stroke="midnightblue" d="M626.035,-116.5C613.214,-114.626 598.952,-112.541 585.152,-110.524"/>
<polygon fill="midnightblue" stroke="midnightblue" points="625.571,-119.969 635.972,-117.953 626.584,-113.043 625.571,-119.969"/>
</g>
<!-- Node8 -->
<g id="node8" class="node"><title>Node8</title>
<g id="a_node8"><a xlink:href="../../d1/d2c/class_render_open_g_l.html#a38bd287d0324b5bb712622e4feb69616" target="_top" xlink:title=" ">
<polygon fill="white" stroke="black" points="448,-18 448,-48 590,-48 590,-18 448,-18"/>
<text text-anchor="start" x="456" y="-36" font-family="Helvetica,sans-Serif" font-size="10.00">RenderOpenGL::SetBillboard</text>
<text text-anchor="middle" x="519" y="-25" font-family="Helvetica,sans-Serif" font-size="10.00">BlendOptions</text>
</a>
</g>
</g>
<!-- Node1&#45;&gt;Node8 -->
<g id="edge7" class="edge"><title>Node1&#45;&gt;Node8</title>
<path fill="none" stroke="midnightblue" d="M645.674,-108.154C617.9,-91.5449 573.149,-64.7837 545.217,-48.0798"/>
<polygon fill="midnightblue" stroke="midnightblue" points="644.015,-111.24 654.394,-113.368 647.608,-105.232 644.015,-111.24"/>
</g>
<!-- Node4 -->
<g id="node4" class="node"><title>Node4</title>
<g id="a_node4"><a xlink:href="../../d1/d2c/class_render_open_g_l.html#abf236e63625c1bc5204b19c19527a84e" target="_top" xlink:title=" ">
<polygon fill="white" stroke="black" points="218.5,-148.5 218.5,-167.5 386.5,-167.5 386.5,-148.5 218.5,-148.5"/>
<text text-anchor="middle" x="302.5" y="-155.5" font-family="Helvetica,sans-Serif" font-size="10.00">RenderOpenGL::RenderTerrainD3D</text>
</a>
</g>
</g>
<!-- Node3&#45;&gt;Node4 -->
<g id="edge3" class="edge"><title>Node3&#45;&gt;Node4</title>
<path fill="none" stroke="midnightblue" d="M438.559,-149.815C421.637,-150.84 403.723,-151.926 386.666,-152.96"/>
<polygon fill="midnightblue" stroke="midnightblue" points="439.18,-153.283 448.95,-149.185 438.757,-146.296 439.18,-153.283"/>
</g>
<!-- Node6 -->
<g id="node6" class="node"><title>Node6</title>
<g id="a_node6"><a xlink:href="../../d1/d2c/class_render_open_g_l.html#a0c65a63b9c5af40b8e7abc757cecd747" target="_top" xlink:title=" ">
<polygon fill="white" stroke="black" points="231,-99 231,-129 374,-129 374,-99 231,-99"/>
<text text-anchor="start" x="239" y="-117" font-family="Helvetica,sans-Serif" font-size="10.00">RenderOpenGL::DrawTexture</text>
<text text-anchor="middle" x="302.5" y="-106" font-family="Helvetica,sans-Serif" font-size="10.00">AlphaNew</text>
</a>
</g>
</g>
<!-- Node5&#45;&gt;Node6 -->
<g id="edge5" class="edge"><title>Node5&#45;&gt;Node6</title>
<path fill="none" stroke="midnightblue" d="M427.661,-106.475C409.751,-107.561 391.195,-108.685 374.06,-109.724"/>
<polygon fill="midnightblue" stroke="midnightblue" points="428.053,-109.958 437.823,-105.859 427.63,-102.971 428.053,-109.958"/>
</g>
<!-- Node7 -->
<g id="node7" class="node"><title>Node7</title>
<g id="a_node7"><a xlink:href="../../d1/d2c/class_render_open_g_l.html#a765887187b4d8690b1c05986f1cfcbb6" target="_top" xlink:title=" ">
<polygon fill="white" stroke="black" points="231,-50 231,-80 374,-80 374,-50 231,-50"/>
<text text-anchor="start" x="239" y="-68" font-family="Helvetica,sans-Serif" font-size="10.00">RenderOpenGL::DrawTexture</text>
<text text-anchor="middle" x="302.5" y="-57" font-family="Helvetica,sans-Serif" font-size="10.00">Offset</text>
</a>
</g>
</g>
<!-- Node5&#45;&gt;Node7 -->
<g id="edge6" class="edge"><title>Node5&#45;&gt;Node7</title>
<path fill="none" stroke="midnightblue" d="M451.445,-89.83C426.956,-85.7198 399.142,-81.0518 374.292,-76.8812"/>
<polygon fill="midnightblue" stroke="midnightblue" points="450.921,-93.2908 461.362,-91.4943 452.079,-86.3874 450.921,-93.2908"/>
</g>
<!-- Node9 -->
<g id="node9" class="node"><title>Node9</title>
<g id="a_node9"><a xlink:href="../../d1/d2c/class_render_open_g_l.html#aa8450e2f9a2794c223a911b44c9e625d" target="_top" xlink:title=" ">
<polygon fill="white" stroke="black" points="203,-11.5 203,-30.5 402,-30.5 402,-11.5 203,-11.5"/>
<text text-anchor="middle" x="302.5" y="-18.5" font-family="Helvetica,sans-Serif" font-size="10.00">RenderOpenGL::DoRenderBillboards_D3D</text>
</a>
</g>
</g>
<!-- Node8&#45;&gt;Node9 -->
<g id="edge8" class="edge"><title>Node8&#45;&gt;Node9</title>
<path fill="none" stroke="midnightblue" d="M437.738,-28.5098C426.18,-27.8632 414.175,-27.1916 402.308,-26.5277"/>
<polygon fill="midnightblue" stroke="midnightblue" points="437.585,-32.0066 447.765,-29.0708 437.976,-25.0176 437.585,-32.0066"/>
</g>
<!-- Node10 -->
<g id="node10" class="node"><title>Node10</title>
<g id="a_node10"><a xlink:href="../../d1/d2c/class_render_open_g_l.html#abc6318edd34cbb12202a1e600a82b459" target="_top" xlink:title=" ">
<polygon fill="white" stroke="black" points="0,-0.5 0,-41.5 167,-41.5 167,-0.5 0,-0.5"/>
<text text-anchor="start" x="8" y="-29.5" font-family="Helvetica,sans-Serif" font-size="10.00">RenderOpenGL::DrawBillboards</text>
<text text-anchor="start" x="8" y="-18.5" font-family="Helvetica,sans-Serif" font-size="10.00">_And_MaybeRenderSpecialEffects</text>
<text text-anchor="middle" x="83.5" y="-7.5" font-family="Helvetica,sans-Serif" font-size="10.00">_And_EndScene</text>
</a>
</g>
</g>
<!-- Node9&#45;&gt;Node10 -->
<g id="edge9" class="edge"><title>Node9&#45;&gt;Node10</title>
<path fill="none" stroke="midnightblue" d="M192.709,-21C184.067,-21 175.427,-21 167.009,-21"/>
<polygon fill="midnightblue" stroke="midnightblue" points="192.842,-24.5001 202.842,-21 192.842,-17.5001 192.842,-24.5001"/>
</g>
</g>
</svg>
        <g id="navigator" transform="translate(0 0)" fill="#404254">
                <rect fill="#f2f5e9" fill-opacity="0.5" stroke="#606060" stroke-width=".5" x="0" y="0" width="60" height="60"/>
                <use id="zoomplus" xlink:href="#zoomPlus" x="17" y="9" onmousedown="handleZoom(evt,'in')"/>
                <use id="zoomminus" xlink:href="#zoomMin" x="42" y="9" onmousedown="handleZoom(evt,'out')"/>
                <use id="reset" xlink:href="#resetDef" x="30" y="36" onmousedown="handleReset()"/>
                <g id="arrowUp" xlink:href="#dirArrow" transform="translate(30 24)" onmousedown="handlePan(0,-1)">
                  <use xlink:href="#rim" fill="#404040">
                        <set attributeName="fill" to="#808080" begin="arrowUp.mouseover" end="arrowUp.mouseout"/>
                  </use>
                  <path fill="none" stroke="white" stroke-width="1.5" d="M0,-3.0v7 M-2.5,-0.5L0,-3.0L2.5,-0.5"/>
                </g>
                <g id="arrowRight" xlink:href="#dirArrow" transform="rotate(90) translate(36 -43)" onmousedown="handlePan(1,0)">
                  <use xlink:href="#rim" fill="#404040">
                        <set attributeName="fill" to="#808080" begin="arrowRight.mouseover" end="arrowRight.mouseout"/>
                  </use>
                  <path fill="none" stroke="white" stroke-width="1.5" d="M0,-3.0v7 M-2.5,-0.5L0,-3.0L2.5,-0.5"/>
                </g>
                <g id="arrowDown" xlink:href="#dirArrow" transform="rotate(180) translate(-30 -48)" onmousedown="handlePan(0,1)">
                  <use xlink:href="#rim" fill="#404040">
                        <set attributeName="fill" to="#808080" begin="arrowDown.mouseover" end="arrowDown.mouseout"/>
                  </use>
                  <path fill="none" stroke="white" stroke-width="1.5" d="M0,-3.0v7 M-2.5,-0.5L0,-3.0L2.5,-0.5"/>
                </g>
                <g id="arrowLeft" xlink:href="#dirArrow" transform="rotate(270) translate(-36 17)" onmousedown="handlePan(-1,0)">
                  <use xlink:href="#rim" fill="#404040">
                        <set attributeName="fill" to="#808080" begin="arrowLeft.mouseover" end="arrowLeft.mouseout"/>
                  </use>
                  <path fill="none" stroke="white" stroke-width="1.5" d="M0,-3.0v7 M-2.5,-0.5L0,-3.0L2.5,-0.5"/>
                </g>
        </g>
        <svg viewBox="0 0 15 15" width="100%" height="30px" preserveAspectRatio="xMaxYMin meet">
         <g id="arrow_out" transform="scale(0.3 0.3)">
          <a xlink:href="_s_d_l__opengl_8h_a8e13e72c3a7bac1f4685fcf3d32bf98c_icgraph_org.svg" target="_base">
           <rect id="button" ry="5" rx="5" y="6" x="6" height="38" width="38"
                fill="#f2f5e9" fill-opacity="0.5" stroke="#606060" stroke-width="1.0"/>
           <path id="arrow"
             d="M 11.500037,31.436501 C 11.940474,20.09759 22.043105,11.32322 32.158766,21.979434 L 37.068811,17.246167 C 37.068811,17.246167 37.088388,32 37.088388,32 L 22.160133,31.978069 C 22.160133,31.978069 26.997745,27.140456 26.997745,27.140456 C 18.528582,18.264221 13.291696,25.230495 11.500037,31.436501 z"
             style="fill:#404040;"/>
          </a>
         </g>
        </svg>
</svg>
