<?xml version="1.0" encoding="UTF-8" standalone="no"?>
<!DOCTYPE svg PUBLIC "-//W3C//DTD SVG 1.1//EN"
 "http://www.w3.org/Graphics/SVG/1.1/DTD/svg11.dtd">
<!-- Generated by graphviz version 2.38.0 (20140413.2041)
 -->
<!-- Title: glClearDepth Pages: 1 -->
<svg width="277pt" height="66pt"
 viewBox="0.00 0.00 277.00 66.00" xmlns="http://www.w3.org/2000/svg" xmlns:xlink="http://www.w3.org/1999/xlink">
<g id="graph0" class="graph" transform="scale(1 1) rotate(0) translate(4 62)">
<title>glClearDepth</title>
<polygon fill="white" stroke="none" points="-4,4 -4,-62 273,-62 273,4 -4,4"/>
<!-- Node1 -->
<g id="node1" class="node"><title>Node1</title>
<g id="a_node1"><a xlink:title=" ">
<polygon fill="#bfbfbf" stroke="black" points="197,-19.5 197,-38.5 269,-38.5 269,-19.5 197,-19.5"/>
<text text-anchor="middle" x="233" y="-26.5" font-family="Helvetica,sans-Serif" font-size="10.00">glClearDepth</text>
</a>
</g>
</g>
<!-- Node2 -->
<g id="node2" class="node"><title>Node2</title>
<g id="a_node2"><a xlink:href="../../d1/d2c/class_render_open_g_l.html#abdeee2a4474c1fa7b5aab0015ef4f51c" target="_top" xlink:title=" ">
<polygon fill="white" stroke="black" points="0,-38.5 0,-57.5 161,-57.5 161,-38.5 0,-38.5"/>
<text text-anchor="middle" x="80.5" y="-45.5" font-family="Helvetica,sans-Serif" font-size="10.00">RenderOpenGL::BeginSceneD3D</text>
</a>
</g>
</g>
<!-- Node1&#45;&gt;Node2 -->
<g id="edge1" class="edge"><title>Node1&#45;&gt;Node2</title>
<path fill="none" stroke="midnightblue" d="M186.792,-34.7073C177.342,-35.9004 167.135,-37.1889 156.924,-38.478"/>
<polygon fill="midnightblue" stroke="midnightblue" points="187.232,-38.1797 196.714,-33.4547 186.355,-31.2348 187.232,-38.1797"/>
</g>
<!-- Node3 -->
<g id="node3" class="node"><title>Node3</title>
<g id="a_node3"><a xlink:href="../../d1/d2c/class_render_open_g_l.html#af9678acf4f34b5adf8acdb6717d76bf0" target="_top" xlink:title=" ">
<polygon fill="white" stroke="black" points="18,-0.5 18,-19.5 143,-19.5 143,-0.5 18,-0.5"/>
<text text-anchor="middle" x="80.5" y="-7.5" font-family="Helvetica,sans-Serif" font-size="10.00">RenderOpenGL::Initialize</text>
</a>
</g>
</g>
<!-- Node1&#45;&gt;Node3 -->
<g id="edge2" class="edge"><title>Node1&#45;&gt;Node3</title>
<path fill="none" stroke="midnightblue" d="M186.591,-23.2673C172.903,-21.5392 157.642,-19.6126 143.087,-17.7751"/>
<polygon fill="midnightblue" stroke="midnightblue" points="186.355,-26.7652 196.714,-24.5453 187.232,-19.8203 186.355,-26.7652"/>
</g>
</g>
</svg>
