<?xml version="1.0" encoding="UTF-8" standalone="no"?>
<!DOCTYPE svg PUBLIC "-//W3C//DTD SVG 1.1//EN"
 "http://www.w3.org/Graphics/SVG/1.1/DTD/svg11.dtd">
<!-- Generated by graphviz version 2.38.0 (20140413.2041)
 -->
<!-- Title: glBegin Pages: 1 -->
<svg width="496pt" height="264pt"
 viewBox="0.00 0.00 496.00 264.00" xmlns="http://www.w3.org/2000/svg" xmlns:xlink="http://www.w3.org/1999/xlink">
<g id="graph0" class="graph" transform="scale(1 1) rotate(0) translate(4 260)">
<title>glBegin</title>
<polygon fill="white" stroke="none" points="-4,4 -4,-260 492,-260 492,4 -4,4"/>
<!-- Node1 -->
<g id="node1" class="node"><title>Node1</title>
<g id="a_node1"><a xlink:title=" ">
<polygon fill="#bfbfbf" stroke="black" points="439,-110.5 439,-129.5 488,-129.5 488,-110.5 439,-110.5"/>
<text text-anchor="middle" x="463.5" y="-117.5" font-family="Helvetica,sans-Serif" font-size="10.00">glBegin</text>
</a>
</g>
</g>
<!-- Node2 -->
<g id="node2" class="node"><title>Node2</title>
<g id="a_node2"><a xlink:href="../../d1/d2c/class_render_open_g_l.html#aa8450e2f9a2794c223a911b44c9e625d" target="_top" xlink:title=" ">
<polygon fill="white" stroke="black" points="204,-225.5 204,-244.5 403,-244.5 403,-225.5 204,-225.5"/>
<text text-anchor="middle" x="303.5" y="-232.5" font-family="Helvetica,sans-Serif" font-size="10.00">RenderOpenGL::DoRenderBillboards_D3D</text>
</a>
</g>
</g>
<!-- Node1&#45;&gt;Node2 -->
<g id="edge1" class="edge"><title>Node1&#45;&gt;Node2</title>
<path fill="none" stroke="midnightblue" d="M455.925,-139.434C447.364,-161.623 430.198,-197.263 403,-216 397.407,-219.853 391.231,-222.974 384.782,-225.495"/>
<polygon fill="midnightblue" stroke="midnightblue" points="459.316,-140.349 459.442,-129.755 452.737,-137.958 459.316,-140.349"/>
</g>
<!-- Node4 -->
<g id="node4" class="node"><title>Node4</title>
<g id="a_node4"><a xlink:href="../../d1/d2c/class_render_open_g_l.html#a4fccb42ef83fafb054dc2c6806accc56" target="_top" xlink:title=" ">
<polygon fill="white" stroke="black" points="235,-176 235,-206 372,-206 372,-176 235,-176"/>
<text text-anchor="start" x="243" y="-194" font-family="Helvetica,sans-Serif" font-size="10.00">RenderOpenGL::DrawIndoor</text>
<text text-anchor="middle" x="303.5" y="-183" font-family="Helvetica,sans-Serif" font-size="10.00">Polygon</text>
</a>
</g>
</g>
<!-- Node1&#45;&gt;Node4 -->
<g id="edge3" class="edge"><title>Node1&#45;&gt;Node4</title>
<path fill="none" stroke="midnightblue" d="M445.536,-136.677C434.315,-146.831 418.804,-159.292 403,-167 393.35,-171.707 382.706,-175.533 372.09,-178.631"/>
<polygon fill="midnightblue" stroke="midnightblue" points="447.983,-139.18 452.891,-129.791 443.199,-134.07 447.983,-139.18"/>
</g>
<!-- Node5 -->
<g id="node5" class="node"><title>Node5</title>
<g id="a_node5"><a xlink:href="../../d1/d2c/class_render_open_g_l.html#a68c08130262b58b491b9469ab5850e0b" target="_top" xlink:title=" ">
<polygon fill="white" stroke="black" points="230.5,-127 230.5,-157 376.5,-157 376.5,-127 230.5,-127"/>
<text text-anchor="start" x="238.5" y="-145" font-family="Helvetica,sans-Serif" font-size="10.00">RenderOpenGL::DrawOutdoor</text>
<text text-anchor="middle" x="303.5" y="-134" font-family="Helvetica,sans-Serif" font-size="10.00">SkyPolygon</text>
</a>
</g>
</g>
<!-- Node1&#45;&gt;Node5 -->
<g id="edge4" class="edge"><title>Node1&#45;&gt;Node5</title>
<path fill="none" stroke="midnightblue" d="M428.856,-124.685C413.565,-126.814 394.846,-129.42 376.62,-131.958"/>
<polygon fill="midnightblue" stroke="midnightblue" points="429.424,-128.139 438.846,-123.294 428.459,-121.206 429.424,-128.139"/>
</g>
<!-- Node7 -->
<g id="node7" class="node"><title>Node7</title>
<g id="a_node7"><a xlink:href="../../d1/d2c/class_render_open_g_l.html#a576b5518c3b8f32ae0f794104f2016c9" target="_top" xlink:title=" ">
<polygon fill="white" stroke="black" points="230.5,-88.5 230.5,-107.5 376.5,-107.5 376.5,-88.5 230.5,-88.5"/>
<text text-anchor="middle" x="303.5" y="-95.5" font-family="Helvetica,sans-Serif" font-size="10.00">RenderOpenGL::DrawPolygon</text>
</a>
</g>
</g>
<!-- Node1&#45;&gt;Node7 -->
<g id="edge6" class="edge"><title>Node1&#45;&gt;Node7</title>
<path fill="none" stroke="midnightblue" d="M428.719,-115.296C412.379,-113.021 392.149,-110.204 372.792,-107.509"/>
<polygon fill="midnightblue" stroke="midnightblue" points="428.459,-118.794 438.846,-116.706 429.424,-111.861 428.459,-118.794"/>
</g>
<!-- Node8 -->
<g id="node8" class="node"><title>Node8</title>
<g id="a_node8"><a xlink:href="../../d1/d2c/class_render_open_g_l.html#a73da4c6b1e9ec6c9afc445058ee37dd9" target="_top" xlink:title=" ">
<polygon fill="white" stroke="black" points="233.5,-39 233.5,-69 373.5,-69 373.5,-39 233.5,-39"/>
<text text-anchor="start" x="241.5" y="-57" font-family="Helvetica,sans-Serif" font-size="10.00">RenderOpenGL::DrawTerrain</text>
<text text-anchor="middle" x="303.5" y="-46" font-family="Helvetica,sans-Serif" font-size="10.00">Polygon</text>
</a>
</g>
</g>
<!-- Node1&#45;&gt;Node8 -->
<g id="edge7" class="edge"><title>Node1&#45;&gt;Node8</title>
<path fill="none" stroke="midnightblue" d="M442.834,-103.803C431.724,-95.3542 417.242,-85.4623 403,-79 393.762,-74.8083 383.704,-71.2383 373.662,-68.2223"/>
<polygon fill="midnightblue" stroke="midnightblue" points="440.926,-106.754 450.953,-110.176 445.248,-101.248 440.926,-106.754"/>
</g>
<!-- Node10 -->
<g id="node10" class="node"><title>Node10</title>
<g id="a_node10"><a xlink:href="../../d1/d2c/class_render_open_g_l.html#a34282b1db303b3f992415b47eda137c6" target="_top" xlink:title=" ">
<polygon fill="white" stroke="black" points="229.5,-0.5 229.5,-19.5 377.5,-19.5 377.5,-0.5 229.5,-0.5"/>
<text text-anchor="middle" x="303.5" y="-7.5" font-family="Helvetica,sans-Serif" font-size="10.00">RenderOpenGL::RasterLine2D</text>
</a>
</g>
</g>
<!-- Node1&#45;&gt;Node10 -->
<g id="edge9" class="edge"><title>Node1&#45;&gt;Node10</title>
<path fill="none" stroke="midnightblue" d="M455.387,-100.952C446.481,-79.8671 429.145,-46.5486 403,-29 395.336,-23.8558 386.623,-20.0273 377.625,-17.1901"/>
<polygon fill="midnightblue" stroke="midnightblue" points="452.223,-102.466 459.181,-110.456 458.724,-99.8711 452.223,-102.466"/>
</g>
<!-- Node3 -->
<g id="node3" class="node"><title>Node3</title>
<g id="a_node3"><a xlink:href="../../d1/d2c/class_render_open_g_l.html#abc6318edd34cbb12202a1e600a82b459" target="_top" xlink:title=" ">
<polygon fill="white" stroke="black" points="0.5,-214.5 0.5,-255.5 167.5,-255.5 167.5,-214.5 0.5,-214.5"/>
<text text-anchor="start" x="8.5" y="-243.5" font-family="Helvetica,sans-Serif" font-size="10.00">RenderOpenGL::DrawBillboards</text>
<text text-anchor="start" x="8.5" y="-232.5" font-family="Helvetica,sans-Serif" font-size="10.00">_And_MaybeRenderSpecialEffects</text>
<text text-anchor="middle" x="84" y="-221.5" font-family="Helvetica,sans-Serif" font-size="10.00">_And_EndScene</text>
</a>
</g>
</g>
<!-- Node2&#45;&gt;Node3 -->
<g id="edge2" class="edge"><title>Node2&#45;&gt;Node3</title>
<path fill="none" stroke="midnightblue" d="M193.663,-235C184.904,-235 176.145,-235 167.615,-235"/>
<polygon fill="midnightblue" stroke="midnightblue" points="193.932,-238.5 203.932,-235 193.932,-231.5 193.932,-238.5"/>
</g>
<!-- Node6 -->
<g id="node6" class="node"><title>Node6</title>
<g id="a_node6"><a xlink:href="../../d1/d2c/class_render_open_g_l.html#a307e76e7523ffa0b9cfd67d4f552968a" target="_top" xlink:title=" ">
<polygon fill="white" stroke="black" points="11,-127 11,-157 157,-157 157,-127 11,-127"/>
<text text-anchor="start" x="19" y="-145" font-family="Helvetica,sans-Serif" font-size="10.00">RenderOpenGL::DrawOutdoor</text>
<text text-anchor="middle" x="84" y="-134" font-family="Helvetica,sans-Serif" font-size="10.00">SkyD3D</text>
</a>
</g>
</g>
<!-- Node5&#45;&gt;Node6 -->
<g id="edge5" class="edge"><title>Node5&#45;&gt;Node6</title>
<path fill="none" stroke="midnightblue" d="M220.327,-142C199.6,-142 177.5,-142 157.298,-142"/>
<polygon fill="midnightblue" stroke="midnightblue" points="220.378,-145.5 230.378,-142 220.378,-138.5 220.378,-145.5"/>
</g>
<!-- Node9 -->
<g id="node9" class="node"><title>Node9</title>
<g id="a_node9"><a xlink:href="../../d1/d2c/class_render_open_g_l.html#abf236e63625c1bc5204b19c19527a84e" target="_top" xlink:title=" ">
<polygon fill="white" stroke="black" points="0,-44.5 0,-63.5 168,-63.5 168,-44.5 0,-44.5"/>
<text text-anchor="middle" x="84" y="-51.5" font-family="Helvetica,sans-Serif" font-size="10.00">RenderOpenGL::RenderTerrainD3D</text>
</a>
</g>
</g>
<!-- Node8&#45;&gt;Node9 -->
<g id="edge8" class="edge"><title>Node8&#45;&gt;Node9</title>
<path fill="none" stroke="midnightblue" d="M223.245,-54C205.277,-54 186.146,-54 168.027,-54"/>
<polygon fill="midnightblue" stroke="midnightblue" points="223.383,-57.5001 233.383,-54 223.383,-50.5001 223.383,-57.5001"/>
</g>
</g>
</svg>
