<?xml version="1.0" encoding="UTF-8" standalone="no"?>
<!DOCTYPE svg PUBLIC "-//W3C//DTD SVG 1.1//EN"
 "http://www.w3.org/Graphics/SVG/1.1/DTD/svg11.dtd">
<!-- Generated by graphviz version 2.38.0 (20140413.2041)
 -->
<!-- Title: glColor3ub Pages: 1 -->
<svg width="254pt" height="66pt"
 viewBox="0.00 0.00 254.00 66.00" xmlns="http://www.w3.org/2000/svg" xmlns:xlink="http://www.w3.org/1999/xlink">
<g id="graph0" class="graph" transform="scale(1 1) rotate(0) translate(4 62)">
<title>glColor3ub</title>
<polygon fill="white" stroke="none" points="-4,4 -4,-62 250,-62 250,4 -4,4"/>
<!-- Node1 -->
<g id="node1" class="node"><title>Node1</title>
<g id="a_node1"><a xlink:title=" ">
<polygon fill="#bfbfbf" stroke="black" points="184,-19.5 184,-38.5 246,-38.5 246,-19.5 184,-19.5"/>
<text text-anchor="middle" x="215" y="-26.5" font-family="Helvetica,sans-Serif" font-size="10.00">glColor3ub</text>
</a>
</g>
</g>
<!-- Node2 -->
<g id="node2" class="node"><title>Node2</title>
<g id="a_node2"><a xlink:href="../../d1/d2c/class_render_open_g_l.html#a73a9b7652fe3f2e3c2653f6ada62f275" target="_top" xlink:title=" ">
<polygon fill="white" stroke="black" points="3,-38.5 3,-57.5 145,-57.5 145,-38.5 3,-38.5"/>
<text text-anchor="middle" x="74" y="-45.5" font-family="Helvetica,sans-Serif" font-size="10.00">RenderOpenGL::FillRectFast</text>
</a>
</g>
</g>
<!-- Node1&#45;&gt;Node2 -->
<g id="edge1" class="edge"><title>Node1&#45;&gt;Node2</title>
<path fill="none" stroke="midnightblue" d="M173.899,-34.4815C164.741,-35.7332 154.749,-37.0991 144.75,-38.4659"/>
<polygon fill="midnightblue" stroke="midnightblue" points="174.405,-37.9449 183.839,-33.1227 173.457,-31.0094 174.405,-37.9449"/>
</g>
<!-- Node3 -->
<g id="node3" class="node"><title>Node3</title>
<g id="a_node3"><a xlink:href="../../d1/d2c/class_render_open_g_l.html#a34282b1db303b3f992415b47eda137c6" target="_top" xlink:title=" ">
<polygon fill="white" stroke="black" points="0,-0.5 0,-19.5 148,-19.5 148,-0.5 0,-0.5"/>
<text text-anchor="middle" x="74" y="-7.5" font-family="Helvetica,sans-Serif" font-size="10.00">RenderOpenGL::RasterLine2D</text>
</a>
</g>
</g>
<!-- Node1&#45;&gt;Node3 -->
<g id="edge2" class="edge"><title>Node1&#45;&gt;Node3</title>
<path fill="none" stroke="midnightblue" d="M173.899,-23.5185C164.741,-22.2668 154.749,-20.9009 144.75,-19.5341"/>
<polygon fill="midnightblue" stroke="midnightblue" points="173.457,-26.9906 183.839,-24.8773 174.405,-20.0551 173.457,-26.9906"/>
</g>
</g>
</svg>
