<?xml version="1.0" encoding="UTF-8" standalone="no"?>
<!DOCTYPE svg PUBLIC "-//W3C//DTD SVG 1.1//EN"
 "http://www.w3.org/Graphics/SVG/1.1/DTD/svg11.dtd">
<!-- Generated by graphviz version 2.38.0 (20140413.2041)
 -->
<!-- Title: glBindTexture Pages: 1 -->
<!--zoomable 390 -->
<svg id="main" version="1.1" xmlns="http://www.w3.org/2000/svg" xmlns:xlink="http://www.w3.org/1999/xlink" xml:space="preserve" onload="init(evt)">
<style type="text/css"><![CDATA[
.edge:hover path { stroke: red; }
.edge:hover polygon { stroke: red; fill: red; }
]]></style>
<script type="text/javascript"><![CDATA[
var edges = document.getElementsByTagName('g');
if (edges && edges.length) {
  for (var i=0;i<edges.length;i++) {
    if (edges[i].id.substr(0,4)=='edge') {
      edges[i].setAttribute('class','edge');
    }
  }
}
]]></script>
        <defs>
                <circle id="rim" cx="0" cy="0" r="7"/>
                <circle id="rim2" cx="0" cy="0" r="3.5"/>
                <g id="zoomPlus">
                        <use xlink:href="#rim" fill="#404040">
                                <set attributeName="fill" to="#808080" begin="zoomplus.mouseover" end="zoomplus.mouseout"/>
                        </use>
                        <path d="M-4,0h8M0,-4v8" fill="none" stroke="white" stroke-width="1.5" pointer-events="none"/>
                </g>
                <g id="zoomMin">
                        <use xlink:href="#rim" fill="#404040">
                                <set attributeName="fill" to="#808080" begin="zoomminus.mouseover" end="zoomminus.mouseout"/>
                        </use>
                        <path d="M-4,0h8" fill="none" stroke="white" stroke-width="1.5" pointer-events="none"/>
                </g>
                <g id="dirArrow">
                        <path fill="none" stroke="white" stroke-width="1.5" d="M0,-3.0v7 M-2.5,-0.5L0,-3.0L2.5,-0.5"/>
                </g>
               <g id="resetDef">
                       <use xlink:href="#rim2" fill="#404040">
                               <set attributeName="fill" to="#808080" begin="reset.mouseover" end="reset.mouseout"/>
                       </use>
               </g>
        </defs>

<script type="text/javascript">
var viewWidth = 522;
var viewHeight = 390;
var sectionId = 'dynsection-36';
</script>
<script xlink:href="../../svgpan.js"/>
<svg id="graph" class="graph">
<g id="viewport">
<title>glBindTexture</title>
<polygon fill="white" stroke="none" points="-4,4 -4,-385.5 518,-385.5 518,4 -4,4"/>
<!-- Node1 -->
<g id="node1" class="node"><title>Node1</title>
<g id="a_node1"><a xlink:title=" ">
<polygon fill="#bfbfbf" stroke="black" points="438,-176 438,-195 514,-195 514,-176 438,-176"/>
<text text-anchor="middle" x="476" y="-183" font-family="Helvetica,sans-Serif" font-size="10.00">glBindTexture</text>
</a>
</g>
</g>
<!-- Node2 -->
<g id="node2" class="node"><title>Node2</title>
<g id="a_node2"><a xlink:href="../../d1/d2c/class_render_open_g_l.html#aa8450e2f9a2794c223a911b44c9e625d" target="_top" xlink:title=" ">
<polygon fill="white" stroke="black" points="203,-351 203,-370 402,-370 402,-351 203,-351"/>
<text text-anchor="middle" x="302.5" y="-358" font-family="Helvetica,sans-Serif" font-size="10.00">RenderOpenGL::DoRenderBillboards_D3D</text>
</a>
</g>
</g>
<!-- Node1&#45;&gt;Node2 -->
<g id="edge1" class="edge"><title>Node1&#45;&gt;Node2</title>
<path fill="none" stroke="midnightblue" d="M471.743,-205.001C465.061,-238.528 446.505,-306.828 402,-341.5 397.191,-345.246 391.857,-348.323 386.229,-350.844"/>
<polygon fill="midnightblue" stroke="midnightblue" points="475.204,-205.531 473.574,-195.062 468.32,-204.263 475.204,-205.531"/>
</g>
<!-- Node4 -->
<g id="node4" class="node"><title>Node4</title>
<g id="a_node4"><a xlink:href="../../d1/d2c/class_render_open_g_l.html#a1ec3ae7449c3d375def37ad738bcc47b" target="_top" xlink:title=" ">
<polygon fill="white" stroke="black" points="234,-313 234,-332 371,-332 371,-313 234,-313"/>
<text text-anchor="middle" x="302.5" y="-320" font-family="Helvetica,sans-Serif" font-size="10.00">RenderOpenGL::DrawImage</text>
</a>
</g>
</g>
<!-- Node1&#45;&gt;Node4 -->
<g id="edge3" class="edge"><title>Node1&#45;&gt;Node4</title>
<path fill="none" stroke="midnightblue" d="M468.699,-204.721C458.905,-231.396 437.384,-279.102 402,-303.5 392.824,-309.827 382.079,-314.178 371.125,-317.146"/>
<polygon fill="midnightblue" stroke="midnightblue" points="472.098,-205.604 472.086,-195.009 465.488,-203.3 472.098,-205.604"/>
</g>
<!-- Node5 -->
<g id="node5" class="node"><title>Node5</title>
<g id="a_node5"><a xlink:href="../../d1/d2c/class_render_open_g_l.html#a4fccb42ef83fafb054dc2c6806accc56" target="_top" xlink:title=" ">
<polygon fill="white" stroke="black" points="234,-263.5 234,-293.5 371,-293.5 371,-263.5 234,-263.5"/>
<text text-anchor="start" x="242" y="-281.5" font-family="Helvetica,sans-Serif" font-size="10.00">RenderOpenGL::DrawIndoor</text>
<text text-anchor="middle" x="302.5" y="-270.5" font-family="Helvetica,sans-Serif" font-size="10.00">Polygon</text>
</a>
</g>
</g>
<!-- Node1&#45;&gt;Node5 -->
<g id="edge4" class="edge"><title>Node1&#45;&gt;Node5</title>
<path fill="none" stroke="midnightblue" d="M461.031,-203.139C447.568,-218.942 425.784,-241.565 402,-254.5 392.491,-259.672 381.866,-263.744 371.21,-266.946"/>
<polygon fill="midnightblue" stroke="midnightblue" points="463.946,-205.106 467.614,-195.166 458.548,-200.649 463.946,-205.106"/>
</g>
<!-- Node6 -->
<g id="node6" class="node"><title>Node6</title>
<g id="a_node6"><a xlink:href="../../d1/d2c/class_render_open_g_l.html#a68c08130262b58b491b9469ab5850e0b" target="_top" xlink:title=" ">
<polygon fill="white" stroke="black" points="229.5,-214.5 229.5,-244.5 375.5,-244.5 375.5,-214.5 229.5,-214.5"/>
<text text-anchor="start" x="237.5" y="-232.5" font-family="Helvetica,sans-Serif" font-size="10.00">RenderOpenGL::DrawOutdoor</text>
<text text-anchor="middle" x="302.5" y="-221.5" font-family="Helvetica,sans-Serif" font-size="10.00">SkyPolygon</text>
</a>
</g>
</g>
<!-- Node1&#45;&gt;Node6 -->
<g id="edge5" class="edge"><title>Node1&#45;&gt;Node6</title>
<path fill="none" stroke="midnightblue" d="M428.786,-197.574C419.899,-199.883 410.662,-202.273 402,-204.5 389.355,-207.75 375.79,-211.21 362.894,-214.487"/>
<polygon fill="midnightblue" stroke="midnightblue" points="429.826,-200.92 438.622,-195.015 428.063,-194.145 429.826,-200.92"/>
</g>
<!-- Node8 -->
<g id="node8" class="node"><title>Node8</title>
<g id="a_node8"><a xlink:href="../../d1/d2c/class_render_open_g_l.html#a576b5518c3b8f32ae0f794104f2016c9" target="_top" xlink:title=" ">
<polygon fill="white" stroke="black" points="229.5,-176 229.5,-195 375.5,-195 375.5,-176 229.5,-176"/>
<text text-anchor="middle" x="302.5" y="-183" font-family="Helvetica,sans-Serif" font-size="10.00">RenderOpenGL::DrawPolygon</text>
</a>
</g>
</g>
<!-- Node1&#45;&gt;Node8 -->
<g id="edge7" class="edge"><title>Node1&#45;&gt;Node8</title>
<path fill="none" stroke="midnightblue" d="M427.572,-185.5C411.482,-185.5 393.127,-185.5 375.558,-185.5"/>
<polygon fill="midnightblue" stroke="midnightblue" points="427.787,-189 437.787,-185.5 427.787,-182 427.787,-189"/>
</g>
<!-- Node9 -->
<g id="node9" class="node"><title>Node9</title>
<g id="a_node9"><a xlink:href="../../d1/d2c/class_render_open_g_l.html#a8b3a448184b108020bb9eaf1b22843ae" target="_top" xlink:title=" ">
<polygon fill="white" stroke="black" points="221.5,-138 221.5,-157 383.5,-157 383.5,-138 221.5,-138"/>
<text text-anchor="middle" x="302.5" y="-145" font-family="Helvetica,sans-Serif" font-size="10.00">RenderOpenGL::DrawTextureNew</text>
</a>
</g>
</g>
<!-- Node1&#45;&gt;Node9 -->
<g id="edge8" class="edge"><title>Node1&#45;&gt;Node9</title>
<path fill="none" stroke="midnightblue" d="M430.316,-173.386C420.986,-170.993 411.192,-168.581 402,-166.5 387.222,-163.155 371.112,-159.889 356.283,-157.035"/>
<polygon fill="midnightblue" stroke="midnightblue" points="429.648,-176.829 440.207,-175.959 431.41,-170.054 429.648,-176.829"/>
</g>
<!-- Node12 -->
<g id="node12" class="node"><title>Node12</title>
<g id="a_node12"><a xlink:href="../../d1/d2c/class_render_open_g_l.html#a27161a3279e2fef20034c0ed3d6e84ba" target="_top" xlink:title=" ">
<polygon fill="white" stroke="black" points="230.5,-88.5 230.5,-118.5 374.5,-118.5 374.5,-88.5 230.5,-88.5"/>
<text text-anchor="start" x="238.5" y="-106.5" font-family="Helvetica,sans-Serif" font-size="10.00">RenderOpenGL::MoveTexture</text>
<text text-anchor="middle" x="302.5" y="-95.5" font-family="Helvetica,sans-Serif" font-size="10.00">ToDevice</text>
</a>
</g>
</g>
<!-- Node1&#45;&gt;Node12 -->
<g id="edge11" class="edge"><title>Node1&#45;&gt;Node12</title>
<path fill="none" stroke="midnightblue" d="M458.146,-168.99C444.179,-156.183 423.242,-138.912 402,-128.5 393.445,-124.307 384.117,-120.77 374.722,-117.8"/>
<polygon fill="midnightblue" stroke="midnightblue" points="455.834,-171.62 465.514,-175.929 460.634,-166.525 455.834,-171.62"/>
</g>
<!-- Node13 -->
<g id="node13" class="node"><title>Node13</title>
<g id="a_node13"><a xlink:href="../../d1/d2c/class_render_open_g_l.html#abf236e63625c1bc5204b19c19527a84e" target="_top" xlink:title=" ">
<polygon fill="white" stroke="black" points="218.5,-50 218.5,-69 386.5,-69 386.5,-50 218.5,-50"/>
<text text-anchor="middle" x="302.5" y="-57" font-family="Helvetica,sans-Serif" font-size="10.00">RenderOpenGL::RenderTerrainD3D</text>
</a>
</g>
</g>
<!-- Node1&#45;&gt;Node13 -->
<g id="edge12" class="edge"><title>Node1&#45;&gt;Node13</title>
<path fill="none" stroke="midnightblue" d="M467.336,-166.491C456.535,-142.262 434.459,-100.953 402,-79.5 395.449,-75.1704 388.158,-71.7449 380.589,-69.0395"/>
<polygon fill="midnightblue" stroke="midnightblue" points="464.13,-167.896 471.272,-175.721 470.569,-165.15 464.13,-167.896"/>
</g>
<!-- Node14 -->
<g id="node14" class="node"><title>Node14</title>
<g id="a_node14"><a xlink:href="../../d1/d2c/class_render_open_g_l.html#af962b3ad3d60affbb882633b9429865e" target="_top" xlink:title=" ">
<polygon fill="white" stroke="black" points="242.5,-0.5 242.5,-30.5 362.5,-30.5 362.5,-0.5 242.5,-0.5"/>
<text text-anchor="start" x="250.5" y="-18.5" font-family="Helvetica,sans-Serif" font-size="10.00">RenderOpenGL::Update</text>
<text text-anchor="middle" x="302.5" y="-7.5" font-family="Helvetica,sans-Serif" font-size="10.00">_Texture</text>
</a>
</g>
</g>
<!-- Node1&#45;&gt;Node14 -->
<g id="edge13" class="edge"><title>Node1&#45;&gt;Node14</title>
<path fill="none" stroke="midnightblue" d="M470.684,-165.886C462.73,-134.495 442.713,-73.1864 402,-40.5 390.719,-31.4428 376.558,-25.6229 362.521,-21.8956"/>
<polygon fill="midnightblue" stroke="midnightblue" points="467.367,-167.069 473.084,-175.989 474.178,-165.451 467.367,-167.069"/>
</g>
<!-- Node3 -->
<g id="node3" class="node"><title>Node3</title>
<g id="a_node3"><a xlink:href="../../d1/d2c/class_render_open_g_l.html#abc6318edd34cbb12202a1e600a82b459" target="_top" xlink:title=" ">
<polygon fill="white" stroke="black" points="0,-340 0,-381 167,-381 167,-340 0,-340"/>
<text text-anchor="start" x="8" y="-369" font-family="Helvetica,sans-Serif" font-size="10.00">RenderOpenGL::DrawBillboards</text>
<text text-anchor="start" x="8" y="-358" font-family="Helvetica,sans-Serif" font-size="10.00">_And_MaybeRenderSpecialEffects</text>
<text text-anchor="middle" x="83.5" y="-347" font-family="Helvetica,sans-Serif" font-size="10.00">_And_EndScene</text>
</a>
</g>
</g>
<!-- Node2&#45;&gt;Node3 -->
<g id="edge2" class="edge"><title>Node2&#45;&gt;Node3</title>
<path fill="none" stroke="midnightblue" d="M192.709,-360.5C184.067,-360.5 175.427,-360.5 167.009,-360.5"/>
<polygon fill="midnightblue" stroke="midnightblue" points="192.842,-364 202.842,-360.5 192.842,-357 192.842,-364"/>
</g>
<!-- Node7 -->
<g id="node7" class="node"><title>Node7</title>
<g id="a_node7"><a xlink:href="../../d1/d2c/class_render_open_g_l.html#a307e76e7523ffa0b9cfd67d4f552968a" target="_top" xlink:title=" ">
<polygon fill="white" stroke="black" points="10.5,-214.5 10.5,-244.5 156.5,-244.5 156.5,-214.5 10.5,-214.5"/>
<text text-anchor="start" x="18.5" y="-232.5" font-family="Helvetica,sans-Serif" font-size="10.00">RenderOpenGL::DrawOutdoor</text>
<text text-anchor="middle" x="83.5" y="-221.5" font-family="Helvetica,sans-Serif" font-size="10.00">SkyD3D</text>
</a>
</g>
</g>
<!-- Node6&#45;&gt;Node7 -->
<g id="edge6" class="edge"><title>Node6&#45;&gt;Node7</title>
<path fill="none" stroke="midnightblue" d="M218.996,-229.5C198.528,-229.5 176.75,-229.5 156.812,-229.5"/>
<polygon fill="midnightblue" stroke="midnightblue" points="219.242,-233 229.242,-229.5 219.242,-226 219.242,-233"/>
</g>
<!-- Node10 -->
<g id="node10" class="node"><title>Node10</title>
<g id="a_node10"><a xlink:href="../../d1/d2c/class_render_open_g_l.html#a0c65a63b9c5af40b8e7abc757cecd747" target="_top" xlink:title=" ">
<polygon fill="white" stroke="black" points="12,-148.5 12,-178.5 155,-178.5 155,-148.5 12,-148.5"/>
<text text-anchor="start" x="20" y="-166.5" font-family="Helvetica,sans-Serif" font-size="10.00">RenderOpenGL::DrawTexture</text>
<text text-anchor="middle" x="83.5" y="-155.5" font-family="Helvetica,sans-Serif" font-size="10.00">AlphaNew</text>
</a>
</g>
</g>
<!-- Node9&#45;&gt;Node10 -->
<g id="edge9" class="edge"><title>Node9&#45;&gt;Node10</title>
<path fill="none" stroke="midnightblue" d="M211.282,-154.152C192.515,-155.536 172.997,-156.975 155.061,-158.297"/>
<polygon fill="midnightblue" stroke="midnightblue" points="211.598,-157.638 221.314,-153.412 211.083,-150.657 211.598,-157.638"/>
</g>
<!-- Node11 -->
<g id="node11" class="node"><title>Node11</title>
<g id="a_node11"><a xlink:href="../../d1/d2c/class_render_open_g_l.html#a765887187b4d8690b1c05986f1cfcbb6" target="_top" xlink:title=" ">
<polygon fill="white" stroke="black" points="12,-99.5 12,-129.5 155,-129.5 155,-99.5 12,-99.5"/>
<text text-anchor="start" x="20" y="-117.5" font-family="Helvetica,sans-Serif" font-size="10.00">RenderOpenGL::DrawTexture</text>
<text text-anchor="middle" x="83.5" y="-106.5" font-family="Helvetica,sans-Serif" font-size="10.00">Offset</text>
</a>
</g>
</g>
<!-- Node9&#45;&gt;Node11 -->
<g id="edge10" class="edge"><title>Node9&#45;&gt;Node11</title>
<path fill="none" stroke="midnightblue" d="M229.023,-136.478C205.275,-132.867 178.93,-128.86 155.307,-125.268"/>
<polygon fill="midnightblue" stroke="midnightblue" points="228.613,-139.956 239.026,-137.999 229.666,-133.036 228.613,-139.956"/>
</g>
</g>
</svg>
        <g id="navigator" transform="translate(0 0)" fill="#404254">
                <rect fill="#f2f5e9" fill-opacity="0.5" stroke="#606060" stroke-width=".5" x="0" y="0" width="60" height="60"/>
                <use id="zoomplus" xlink:href="#zoomPlus" x="17" y="9" onmousedown="handleZoom(evt,'in')"/>
                <use id="zoomminus" xlink:href="#zoomMin" x="42" y="9" onmousedown="handleZoom(evt,'out')"/>
                <use id="reset" xlink:href="#resetDef" x="30" y="36" onmousedown="handleReset()"/>
                <g id="arrowUp" xlink:href="#dirArrow" transform="translate(30 24)" onmousedown="handlePan(0,-1)">
                  <use xlink:href="#rim" fill="#404040">
                        <set attributeName="fill" to="#808080" begin="arrowUp.mouseover" end="arrowUp.mouseout"/>
                  </use>
                  <path fill="none" stroke="white" stroke-width="1.5" d="M0,-3.0v7 M-2.5,-0.5L0,-3.0L2.5,-0.5"/>
                </g>
                <g id="arrowRight" xlink:href="#dirArrow" transform="rotate(90) translate(36 -43)" onmousedown="handlePan(1,0)">
                  <use xlink:href="#rim" fill="#404040">
                        <set attributeName="fill" to="#808080" begin="arrowRight.mouseover" end="arrowRight.mouseout"/>
                  </use>
                  <path fill="none" stroke="white" stroke-width="1.5" d="M0,-3.0v7 M-2.5,-0.5L0,-3.0L2.5,-0.5"/>
                </g>
                <g id="arrowDown" xlink:href="#dirArrow" transform="rotate(180) translate(-30 -48)" onmousedown="handlePan(0,1)">
                  <use xlink:href="#rim" fill="#404040">
                        <set attributeName="fill" to="#808080" begin="arrowDown.mouseover" end="arrowDown.mouseout"/>
                  </use>
                  <path fill="none" stroke="white" stroke-width="1.5" d="M0,-3.0v7 M-2.5,-0.5L0,-3.0L2.5,-0.5"/>
                </g>
                <g id="arrowLeft" xlink:href="#dirArrow" transform="rotate(270) translate(-36 17)" onmousedown="handlePan(-1,0)">
                  <use xlink:href="#rim" fill="#404040">
                        <set attributeName="fill" to="#808080" begin="arrowLeft.mouseover" end="arrowLeft.mouseout"/>
                  </use>
                  <path fill="none" stroke="white" stroke-width="1.5" d="M0,-3.0v7 M-2.5,-0.5L0,-3.0L2.5,-0.5"/>
                </g>
        </g>
        <svg viewBox="0 0 15 15" width="100%" height="30px" preserveAspectRatio="xMaxYMin meet">
         <g id="arrow_out" transform="scale(0.3 0.3)">
          <a xlink:href="_s_d_l__opengl_8h_a940f58f3728713267a58e2d09ff602b2_icgraph_org.svg" target="_base">
           <rect id="button" ry="5" rx="5" y="6" x="6" height="38" width="38"
                fill="#f2f5e9" fill-opacity="0.5" stroke="#606060" stroke-width="1.0"/>
           <path id="arrow"
             d="M 11.500037,31.436501 C 11.940474,20.09759 22.043105,11.32322 32.158766,21.979434 L 37.068811,17.246167 C 37.068811,17.246167 37.088388,32 37.088388,32 L 22.160133,31.978069 C 22.160133,31.978069 26.997745,27.140456 26.997745,27.140456 C 18.528582,18.264221 13.291696,25.230495 11.500037,31.436501 z"
             style="fill:#404040;"/>
          </a>
         </g>
        </svg>
</svg>
