<?xml version="1.0" encoding="UTF-8" standalone="no"?>
<!DOCTYPE svg PUBLIC "-//W3C//DTD SVG 1.1//EN"
 "http://www.w3.org/Graphics/SVG/1.1/DTD/svg11.dtd">
<!-- Generated by graphviz version 2.38.0 (20140413.2041)
 -->
<!-- Title: TextureFrameTable::GetFrameTexture Pages: 1 -->
<svg width="454pt" height="39pt"
 viewBox="0.00 0.00 454.00 39.00" xmlns="http://www.w3.org/2000/svg" xmlns:xlink="http://www.w3.org/1999/xlink">
<g id="graph0" class="graph" transform="scale(1 1) rotate(0) translate(4 35)">
<title>TextureFrameTable::GetFrameTexture</title>
<polygon fill="white" stroke="none" points="-4,4 -4,-35 450,-35 450,4 -4,4"/>
<!-- Node1 -->
<g id="node1" class="node"><title>Node1</title>
<g id="a_node1"><a xlink:title=" ">
<polygon fill="#bfbfbf" stroke="black" points="0,-0.5 0,-30.5 106,-30.5 106,-0.5 0,-0.5"/>
<text text-anchor="start" x="8" y="-18.5" font-family="Helvetica,sans-Serif" font-size="10.00">TextureFrameTable::</text>
<text text-anchor="middle" x="53" y="-7.5" font-family="Helvetica,sans-Serif" font-size="10.00">GetFrameTexture</text>
</a>
</g>
</g>
<!-- Node2 -->
<g id="node2" class="node"><title>Node2</title>
<g id="a_node2"><a xlink:href="../../d1/df3/class_texture_frame.html#a41e9c18081ccfa3f3ec341491f1d8b93" target="_top" xlink:title=" ">
<polygon fill="white" stroke="black" points="142,-6 142,-25 273,-25 273,-6 142,-6"/>
<text text-anchor="middle" x="207.5" y="-13" font-family="Helvetica,sans-Serif" font-size="10.00">TextureFrame::GetTexture</text>
</a>
</g>
</g>
<!-- Node1&#45;&gt;Node2 -->
<g id="edge1" class="edge"><title>Node1&#45;&gt;Node2</title>
<path fill="none" stroke="midnightblue" d="M106.055,-15.5C114.304,-15.5 122.973,-15.5 131.62,-15.5"/>
<polygon fill="midnightblue" stroke="midnightblue" points="131.732,-19.0001 141.732,-15.5 131.732,-12.0001 131.732,-19.0001"/>
</g>
<!-- Node3 -->
<g id="node3" class="node"><title>Node3</title>
<g id="a_node3"><a xlink:href="../../db/dd6/class_assets_manager.html#a10437426fdfa6c1e8e6d6a2ece0c532f" target="_top" xlink:title=" ">
<polygon fill="white" stroke="black" points="309,-6 309,-25 446,-25 446,-6 309,-6"/>
<text text-anchor="middle" x="377.5" y="-13" font-family="Helvetica,sans-Serif" font-size="10.00">AssetsManager::GetBitmap</text>
</a>
</g>
</g>
<!-- Node2&#45;&gt;Node3 -->
<g id="edge2" class="edge"><title>Node2&#45;&gt;Node3</title>
<path fill="none" stroke="midnightblue" d="M273.453,-15.5C281.724,-15.5 290.256,-15.5 298.703,-15.5"/>
<polygon fill="midnightblue" stroke="midnightblue" points="298.941,-19.0001 308.941,-15.5 298.941,-12.0001 298.941,-19.0001"/>
</g>
</g>
</svg>
