<?xml version="1.0" encoding="UTF-8" standalone="no"?>
<!DOCTYPE svg PUBLIC "-//W3C//DTD SVG 1.1//EN"
 "http://www.w3.org/Graphics/SVG/1.1/DTD/svg11.dtd">
<!-- Generated by graphviz version 2.38.0 (20140413.2041)
 -->
<!-- Title: TextureFrameTable::FromFile Pages: 1 -->
<svg width="389pt" height="39pt"
 viewBox="0.00 0.00 389.00 39.00" xmlns="http://www.w3.org/2000/svg" xmlns:xlink="http://www.w3.org/1999/xlink">
<g id="graph0" class="graph" transform="scale(1 1) rotate(0) translate(4 35)">
<title>TextureFrameTable::FromFile</title>
<polygon fill="white" stroke="none" points="-4,4 -4,-35 385,-35 385,4 -4,4"/>
<!-- Node1 -->
<g id="node1" class="node"><title>Node1</title>
<g id="a_node1"><a xlink:title=" ">
<polygon fill="#bfbfbf" stroke="black" points="275,-0.5 275,-30.5 381,-30.5 381,-0.5 275,-0.5"/>
<text text-anchor="start" x="283" y="-18.5" font-family="Helvetica,sans-Serif" font-size="10.00">TextureFrameTable::</text>
<text text-anchor="middle" x="328" y="-7.5" font-family="Helvetica,sans-Serif" font-size="10.00">FromFile</text>
</a>
</g>
</g>
<!-- Node2 -->
<g id="node2" class="node"><title>Node2</title>
<g id="a_node2"><a xlink:href="../../d6/d83/struct_engine.html#ae384c8c86225ff402d4540706340f820" target="_top" xlink:title=" ">
<polygon fill="white" stroke="black" points="124,-6 124,-25 239,-25 239,-6 124,-6"/>
<text text-anchor="middle" x="181.5" y="-13" font-family="Helvetica,sans-Serif" font-size="10.00">Engine::MM7_Initialize</text>
</a>
</g>
</g>
<!-- Node1&#45;&gt;Node2 -->
<g id="edge1" class="edge"><title>Node1&#45;&gt;Node2</title>
<path fill="none" stroke="midnightblue" d="M264.724,-15.5C256.338,-15.5 247.769,-15.5 239.481,-15.5"/>
<polygon fill="midnightblue" stroke="midnightblue" points="264.832,-19.0001 274.832,-15.5 264.832,-12.0001 264.832,-19.0001"/>
</g>
<!-- Node3 -->
<g id="node3" class="node"><title>Node3</title>
<g id="a_node3"><a xlink:href="../../d6/d83/struct_engine.html#a4e6fbae6c087bbfa2b1e20f11c46460d" target="_top" xlink:title=" ">
<polygon fill="white" stroke="black" points="0,-6 0,-25 88,-25 88,-6 0,-6"/>
<text text-anchor="middle" x="44" y="-13" font-family="Helvetica,sans-Serif" font-size="10.00">Engine::Initialize</text>
</a>
</g>
</g>
<!-- Node2&#45;&gt;Node3 -->
<g id="edge2" class="edge"><title>Node2&#45;&gt;Node3</title>
<path fill="none" stroke="midnightblue" d="M113.709,-15.5C105.058,-15.5 96.3857,-15.5 88.2572,-15.5"/>
<polygon fill="midnightblue" stroke="midnightblue" points="113.821,-19.0001 123.821,-15.5 113.821,-12.0001 113.821,-19.0001"/>
</g>
</g>
</svg>
