<?xml version="1.0" encoding="UTF-8" standalone="no"?>
<!DOCTYPE svg PUBLIC "-//W3C//DTD SVG 1.1//EN"
 "http://www.w3.org/Graphics/SVG/1.1/DTD/svg11.dtd">
<!-- Generated by graphviz version 2.38.0 (20140413.2041)
 -->
<!-- Title: GUIWindow_QuickReference::GUIWindow_QuickReference Pages: 1 -->
<svg width="432pt" height="192pt"
 viewBox="0.00 0.00 432.00 192.00" xmlns="http://www.w3.org/2000/svg" xmlns:xlink="http://www.w3.org/1999/xlink">
<g id="graph0" class="graph" transform="scale(1 1) rotate(0) translate(4 188)">
<title>GUIWindow_QuickReference::GUIWindow_QuickReference</title>
<polygon fill="white" stroke="none" points="-4,4 -4,-188 428,-188 428,4 -4,4"/>
<!-- Node1 -->
<g id="node1" class="node"><title>Node1</title>
<g id="a_node1"><a xlink:title=" ">
<polygon fill="#bfbfbf" stroke="black" points="0,-71 0,-101 148,-101 148,-71 0,-71"/>
<text text-anchor="start" x="8" y="-89" font-family="Helvetica,sans-Serif" font-size="10.00">GUIWindow_QuickReference</text>
<text text-anchor="middle" x="74" y="-78" font-family="Helvetica,sans-Serif" font-size="10.00">::GUIWindow_QuickReference</text>
</a>
</g>
</g>
<!-- Node2 -->
<g id="node2" class="node"><title>Node2</title>
<g id="a_node2"><a xlink:href="../../d4/d38/class_g_u_i_window.html#a29f96468b54f142995e3b1890cb7e45e" target="_top" xlink:title=" ">
<polygon fill="white" stroke="black" points="186.5,-164.5 186.5,-183.5 317.5,-183.5 317.5,-164.5 186.5,-164.5"/>
<text text-anchor="middle" x="252" y="-171.5" font-family="Helvetica,sans-Serif" font-size="10.00">GUIWindow::CreateButton</text>
</a>
</g>
</g>
<!-- Node1&#45;&gt;Node2 -->
<g id="edge1" class="edge"><title>Node1&#45;&gt;Node2</title>
<path fill="none" stroke="midnightblue" d="M94.8979,-101.089C116.025,-116.496 150.876,-140.194 184,-155 189.303,-157.371 194.976,-159.521 200.693,-161.449"/>
<polygon fill="midnightblue" stroke="midnightblue" points="199.708,-164.808 210.298,-164.486 201.818,-158.134 199.708,-164.808"/>
</g>
<!-- Node3 -->
<g id="node3" class="node"><title>Node3</title>
<g id="a_node3"><a xlink:href="../../db/dd6/class_assets_manager.html#ad4ab70fc004c8c5a54756f3d358a8383" target="_top" xlink:title=" ">
<polygon fill="white" stroke="black" points="185.5,-115 185.5,-145 318.5,-145 318.5,-115 185.5,-115"/>
<text text-anchor="start" x="193.5" y="-133" font-family="Helvetica,sans-Serif" font-size="10.00">AssetsManager::GetImage</text>
<text text-anchor="middle" x="252" y="-122" font-family="Helvetica,sans-Serif" font-size="10.00">_ColorKey</text>
</a>
</g>
</g>
<!-- Node1&#45;&gt;Node3 -->
<g id="edge2" class="edge"><title>Node1&#45;&gt;Node3</title>
<path fill="none" stroke="midnightblue" d="M135.077,-101.019C149.863,-104.716 165.821,-108.705 181.03,-112.507"/>
<polygon fill="midnightblue" stroke="midnightblue" points="180.345,-115.944 190.895,-114.974 182.043,-109.153 180.345,-115.944"/>
</g>
<!-- Node4 -->
<g id="node4" class="node"><title>Node4</title>
<g id="a_node4"><a xlink:href="../../dd/d88/class_localization.html#a0eb0a17fdf90f6a420eeac65bf62436f" target="_top" xlink:title=" ">
<polygon fill="white" stroke="black" points="194,-76.5 194,-95.5 310,-95.5 310,-76.5 194,-76.5"/>
<text text-anchor="middle" x="252" y="-83.5" font-family="Helvetica,sans-Serif" font-size="10.00">Localization::GetString</text>
</a>
</g>
</g>
<!-- Node1&#45;&gt;Node4 -->
<g id="edge3" class="edge"><title>Node1&#45;&gt;Node4</title>
<path fill="none" stroke="midnightblue" d="M148.111,-86C159.944,-86 172.148,-86 183.832,-86"/>
<polygon fill="midnightblue" stroke="midnightblue" points="183.943,-89.5001 193.943,-86 183.943,-82.5001 183.943,-89.5001"/>
</g>
<!-- Node5 -->
<g id="node5" class="node"><title>Node5</title>
<g id="a_node5"><a xlink:href="../../d8/da1/struct_timer.html#a9b8c57bf9675da635a82d68d9b4d05e5" target="_top" xlink:title=" ">
<polygon fill="white" stroke="black" points="215,-38.5 215,-57.5 289,-57.5 289,-38.5 215,-38.5"/>
<text text-anchor="middle" x="252" y="-45.5" font-family="Helvetica,sans-Serif" font-size="10.00">Timer::Pause</text>
</a>
</g>
</g>
<!-- Node1&#45;&gt;Node5 -->
<g id="edge4" class="edge"><title>Node1&#45;&gt;Node5</title>
<path fill="none" stroke="midnightblue" d="M144.56,-70.9814C164.828,-66.6054 186.462,-61.9344 204.896,-57.9542"/>
<polygon fill="midnightblue" stroke="midnightblue" points="205.743,-61.3521 214.779,-55.8204 204.266,-54.5097 205.743,-61.3521"/>
</g>
<!-- Node7 -->
<g id="node7" class="node"><title>Node7</title>
<g id="a_node7"><a xlink:href="../../d7/dc2/class_audio_player.html#a222380497b8558ff7d16fa71f8680a46" target="_top" xlink:title=" ">
<polygon fill="white" stroke="black" points="184,-0.5 184,-19.5 320,-19.5 320,-0.5 184,-0.5"/>
<text text-anchor="middle" x="252" y="-7.5" font-family="Helvetica,sans-Serif" font-size="10.00">AudioPlayer::StopChannels</text>
</a>
</g>
</g>
<!-- Node1&#45;&gt;Node7 -->
<g id="edge6" class="edge"><title>Node1&#45;&gt;Node7</title>
<path fill="none" stroke="midnightblue" d="M100.282,-70.8723C121.934,-58.386 154.242,-40.854 184,-29 189.897,-26.651 196.193,-24.4664 202.477,-22.4775"/>
<polygon fill="midnightblue" stroke="midnightblue" points="203.719,-25.7584 212.281,-19.5177 201.696,-19.0571 203.719,-25.7584"/>
</g>
<!-- Node6 -->
<g id="node6" class="node"><title>Node6</title>
<g id="a_node6"><a xlink:href="../../d8/da1/struct_timer.html#af11deea7dde51d637aec54587820f92b" target="_top" xlink:title=" ">
<polygon fill="white" stroke="black" points="356,-38.5 356,-57.5 424,-57.5 424,-38.5 356,-38.5"/>
<text text-anchor="middle" x="390" y="-45.5" font-family="Helvetica,sans-Serif" font-size="10.00">Timer::Time</text>
</a>
</g>
</g>
<!-- Node5&#45;&gt;Node6 -->
<g id="edge5" class="edge"><title>Node5&#45;&gt;Node6</title>
<path fill="none" stroke="midnightblue" d="M289.088,-48C306.404,-48 327.29,-48 345.479,-48"/>
<polygon fill="midnightblue" stroke="midnightblue" points="345.547,-51.5001 355.547,-48 345.547,-44.5001 345.547,-51.5001"/>
</g>
</g>
</svg>
