<?xml version="1.0" encoding="UTF-8" standalone="no"?>
<!DOCTYPE svg PUBLIC "-//W3C//DTD SVG 1.1//EN"
 "http://www.w3.org/Graphics/SVG/1.1/DTD/svg11.dtd">
<!-- Generated by graphviz version 2.38.0 (20140413.2041)
 -->
<!-- Title: main Pages: 1 -->
<svg width="473pt" height="39pt"
 viewBox="0.00 0.00 473.00 39.00" xmlns="http://www.w3.org/2000/svg" xmlns:xlink="http://www.w3.org/1999/xlink">
<g id="graph0" class="graph" transform="scale(1 1) rotate(0) translate(4 35)">
<title>main</title>
<polygon fill="white" stroke="none" points="-4,4 -4,-35 469,-35 469,4 -4,4"/>
<!-- Node1 -->
<g id="node1" class="node"><title>Node1</title>
<g id="a_node1"><a xlink:title=" ">
<polygon fill="#bfbfbf" stroke="black" points="0,-6 0,-25 38,-25 38,-6 0,-6"/>
<text text-anchor="middle" x="19" y="-13" font-family="Helvetica,sans-Serif" font-size="10.00">main</text>
</a>
</g>
</g>
<!-- Node2 -->
<g id="node2" class="node"><title>Node2</title>
<g id="a_node2"><a xlink:href="../../d7/db5/_game_8cpp.html#ad318314d1daea4c1b716cec6ef4b5982" target="_top" xlink:title=" ">
<polygon fill="white" stroke="black" points="74,-6 74,-25 133,-25 133,-6 74,-6"/>
<text text-anchor="middle" x="103.5" y="-13" font-family="Helvetica,sans-Serif" font-size="10.00">MM_Main</text>
</a>
</g>
</g>
<!-- Node1&#45;&gt;Node2 -->
<g id="edge1" class="edge"><title>Node1&#45;&gt;Node2</title>
<path fill="none" stroke="midnightblue" d="M38.3094,-15.5C45.8158,-15.5 54.8082,-15.5 63.6528,-15.5"/>
<polygon fill="midnightblue" stroke="midnightblue" points="63.8698,-19.0001 73.8698,-15.5 63.8698,-12.0001 63.8698,-19.0001"/>
</g>
<!-- Node3 -->
<g id="node3" class="node"><title>Node3</title>
<g id="a_node3"><a xlink:href="../../d4/d6b/class_application_1_1_game_factory.html#a85a68d312f5e4edbdebd43c81a4b5845" target="_top" xlink:title=" ">
<polygon fill="white" stroke="black" points="169,-0.5 169,-30.5 299,-30.5 299,-0.5 169,-0.5"/>
<text text-anchor="start" x="177" y="-18.5" font-family="Helvetica,sans-Serif" font-size="10.00">Application::GameFactory</text>
<text text-anchor="middle" x="234" y="-7.5" font-family="Helvetica,sans-Serif" font-size="10.00">::CreateGame</text>
</a>
</g>
</g>
<!-- Node2&#45;&gt;Node3 -->
<g id="edge2" class="edge"><title>Node2&#45;&gt;Node3</title>
<path fill="none" stroke="midnightblue" d="M133.018,-15.5C140.754,-15.5 149.504,-15.5 158.529,-15.5"/>
<polygon fill="midnightblue" stroke="midnightblue" points="158.797,-19.0001 168.797,-15.5 158.797,-12.0001 158.797,-19.0001"/>
</g>
<!-- Node4 -->
<g id="node4" class="node"><title>Node4</title>
<g id="a_node4"><a xlink:href="../../d4/d6b/class_application_1_1_game_factory.html#a2cacf6bd4f2a8124fa18fd973b64807b" target="_top" xlink:title=" ">
<polygon fill="white" stroke="black" points="335,-0.5 335,-30.5 465,-30.5 465,-0.5 335,-0.5"/>
<text text-anchor="start" x="343" y="-18.5" font-family="Helvetica,sans-Serif" font-size="10.00">Application::GameFactory</text>
<text text-anchor="middle" x="400" y="-7.5" font-family="Helvetica,sans-Serif" font-size="10.00">::CreateConfiguration</text>
</a>
</g>
</g>
<!-- Node3&#45;&gt;Node4 -->
<g id="edge3" class="edge"><title>Node3&#45;&gt;Node4</title>
<path fill="none" stroke="midnightblue" d="M299.346,-15.5C307.64,-15.5 316.187,-15.5 324.625,-15.5"/>
<polygon fill="midnightblue" stroke="midnightblue" points="324.839,-19.0001 334.839,-15.5 324.839,-12.0001 324.839,-19.0001"/>
</g>
</g>
</svg>
