<?xml version="1.0" encoding="UTF-8" standalone="no"?>
<!DOCTYPE svg PUBLIC "-//W3C//DTD SVG 1.1//EN"
 "http://www.w3.org/Graphics/SVG/1.1/DTD/svg11.dtd">
<!-- Generated by graphviz version 2.38.0 (20140413.2041)
 -->
<!-- Title: KeyboardActionMapping::ReadMappings Pages: 1 -->
<svg width="321pt" height="78pt"
 viewBox="0.00 0.00 321.00 77.50" xmlns="http://www.w3.org/2000/svg" xmlns:xlink="http://www.w3.org/1999/xlink">
<g id="graph0" class="graph" transform="scale(1 1) rotate(0) translate(4 73.5)">
<title>KeyboardActionMapping::ReadMappings</title>
<polygon fill="white" stroke="none" points="-4,4 -4,-73.5 317,-73.5 317,4 -4,4"/>
<!-- Node1 -->
<g id="node1" class="node"><title>Node1</title>
<g id="a_node1"><a xlink:title=" ">
<polygon fill="#bfbfbf" stroke="black" points="0,-22.5 0,-52.5 122,-52.5 122,-22.5 0,-22.5"/>
<text text-anchor="start" x="8" y="-40.5" font-family="Helvetica,sans-Serif" font-size="10.00">KeyboardActionMapping</text>
<text text-anchor="middle" x="61" y="-29.5" font-family="Helvetica,sans-Serif" font-size="10.00">::ReadMappings</text>
</a>
</g>
</g>
<!-- Node2 -->
<g id="node2" class="node"><title>Node2</title>
<g id="a_node2"><a xlink:href="../../d2/dd4/_launcher_8cpp.html#a830acc9f064bc234e0e87be40be2bf12" target="_top" xlink:title=" ">
<polygon fill="white" stroke="black" points="188,-50 188,-69 283,-69 283,-50 188,-50"/>
<text text-anchor="middle" x="235.5" y="-57" font-family="Helvetica,sans-Serif" font-size="10.00">OS_GetAppString</text>
</a>
</g>
</g>
<!-- Node1&#45;&gt;Node2 -->
<g id="edge1" class="edge"><title>Node1&#45;&gt;Node2</title>
<path fill="none" stroke="midnightblue" d="M122.332,-45.1945C140.281,-47.4837 159.881,-49.9833 177.603,-52.2436"/>
<polygon fill="midnightblue" stroke="midnightblue" points="177.432,-55.75 187.794,-53.5433 178.317,-48.8062 177.432,-55.75"/>
</g>
<!-- Node3 -->
<g id="node3" class="node"><title>Node3</title>
<g id="a_node3"><a xlink:href="../../d3/d10/struct_keyboard_action_mapping.html#aceeecc60b2cf09b36b450c08330461ec" target="_top" xlink:title=" ">
<polygon fill="white" stroke="black" points="158,-0.5 158,-30.5 313,-30.5 313,-0.5 158,-0.5"/>
<text text-anchor="start" x="166" y="-18.5" font-family="Helvetica,sans-Serif" font-size="10.00">KeyboardActionMapping</text>
<text text-anchor="middle" x="235.5" y="-7.5" font-family="Helvetica,sans-Serif" font-size="10.00">::TranslateKeyNameToKeyCode</text>
</a>
</g>
</g>
<!-- Node1&#45;&gt;Node3 -->
<g id="edge2" class="edge"><title>Node1&#45;&gt;Node3</title>
<path fill="none" stroke="midnightblue" d="M122.332,-29.8055C130.572,-28.7546 139.16,-27.6593 147.755,-26.5632"/>
<polygon fill="midnightblue" stroke="midnightblue" points="148.35,-30.0157 157.827,-25.2786 147.464,-23.072 148.35,-30.0157"/>
</g>
</g>
</svg>
