<?xml version="1.0" encoding="UTF-8" standalone="no"?>
<!DOCTYPE svg PUBLIC "-//W3C//DTD SVG 1.1//EN"
 "http://www.w3.org/Graphics/SVG/1.1/DTD/svg11.dtd">
<!-- Generated by graphviz version 2.38.0 (20140413.2041)
 -->
<!-- Title: AVFilterContext Pages: 1 -->
<svg width="708pt" height="491pt"
 viewBox="0.00 0.00 708.00 491.00" xmlns="http://www.w3.org/2000/svg" xmlns:xlink="http://www.w3.org/1999/xlink">
<g id="graph0" class="graph" transform="scale(1 1) rotate(0) translate(4 487)">
<title>AVFilterContext</title>
<polygon fill="white" stroke="none" points="-4,4 -4,-487 704,-487 704,4 -4,4"/>
<!-- Node1 -->
<g id="node1" class="node"><title>Node1</title>
<g id="a_node1"><a xlink:title=" ">
<polygon fill="#bfbfbf" stroke="black" points="89,-159.5 89,-178.5 175,-178.5 175,-159.5 89,-159.5"/>
<text text-anchor="middle" x="132" y="-166.5" font-family="Helvetica,sans-Serif" font-size="10.00">AVFilterContext</text>
</a>
</g>
</g>
<!-- Node6 -->
<g id="node6" class="node"><title>Node6</title>
<g id="a_node6"><a xlink:href="../../d4/d5e/struct_a_v_filter_graph.html" target="_top" xlink:title=" ">
<polygon fill="white" stroke="black" points="0,-68.5 0,-87.5 78,-87.5 78,-68.5 0,-68.5"/>
<text text-anchor="middle" x="39" y="-75.5" font-family="Helvetica,sans-Serif" font-size="10.00">AVFilterGraph</text>
</a>
</g>
</g>
<!-- Node1&#45;&gt;Node6 -->
<g id="edge20" class="edge"><title>Node1&#45;&gt;Node6</title>
<path fill="none" stroke="#9a32cd" stroke-dasharray="5,2" d="M88.6778,-155.834C69.9627,-148.191 49.8923,-136.223 39,-118 33.5113,-108.817 34.7977,-96.1137 36.587,-87.7331"/>
<polygon fill="#9a32cd" stroke="#9a32cd" points="87.6932,-159.203 98.2853,-159.447 90.1571,-152.651 87.6932,-159.203"/>
<text text-anchor="middle" x="52.5" y="-110" font-family="Helvetica,sans-Serif" font-size="10.00"> filters</text>
</g>
<!-- Node7 -->
<g id="node7" class="node"><title>Node7</title>
<g id="a_node7"><a xlink:href="../../d6/d1a/struct_a_v_filter_link.html" target="_top" xlink:title=" ">
<polygon fill="white" stroke="black" points="150,-0.5 150,-19.5 220,-19.5 220,-0.5 150,-0.5"/>
<text text-anchor="middle" x="185" y="-7.5" font-family="Helvetica,sans-Serif" font-size="10.00">AVFilterLink</text>
</a>
</g>
</g>
<!-- Node1&#45;&gt;Node7 -->
<g id="edge19" class="edge"><title>Node1&#45;&gt;Node7</title>
<path fill="none" stroke="#9a32cd" stroke-dasharray="5,2" d="M132.01,-149.239C132.604,-128.45 135.331,-94.262 146,-67 153.254,-48.4649 167.783,-30.1399 176.914,-19.7317"/>
<polygon fill="#9a32cd" stroke="#9a32cd" points="128.51,-149.231 131.863,-159.281 135.509,-149.333 128.51,-149.231"/>
<text text-anchor="middle" x="154.5" y="-81" font-family="Helvetica,sans-Serif" font-size="10.00"> src</text>
<text text-anchor="middle" x="154.5" y="-70" font-family="Helvetica,sans-Serif" font-size="10.00">dst</text>
</g>
<!-- Node2 -->
<g id="node2" class="node"><title>Node2</title>
<g id="a_node2"><a xlink:href="../../de/db5/struct_a_v_filter.html" target="_top" xlink:title=" ">
<polygon fill="white" stroke="black" points="121,-256 121,-275 173,-275 173,-256 121,-256"/>
<text text-anchor="middle" x="147" y="-263" font-family="Helvetica,sans-Serif" font-size="10.00">AVFilter</text>
</a>
</g>
</g>
<!-- Node2&#45;&gt;Node1 -->
<g id="edge1" class="edge"><title>Node2&#45;&gt;Node1</title>
<path fill="none" stroke="#9a32cd" stroke-dasharray="5,2" d="M144.036,-245.825C140.809,-225.499 135.79,-193.874 133.381,-178.7"/>
<polygon fill="#9a32cd" stroke="#9a32cd" points="140.591,-246.451 145.616,-255.779 147.505,-245.354 140.591,-246.451"/>
<text text-anchor="middle" x="153" y="-223" font-family="Helvetica,sans-Serif" font-size="10.00"> filter</text>
</g>
<!-- Node2&#45;&gt;Node2 -->
<g id="edge2" class="edge"><title>Node2&#45;&gt;Node2</title>
<path fill="none" stroke="#9a32cd" stroke-dasharray="5,2" d="M183.475,-272.017C188.016,-270.862 191,-268.69 191,-265.5 191,-260.266 182.963,-257.771 173.199,-258.016"/>
<polygon fill="#9a32cd" stroke="#9a32cd" points="182.828,-268.562 173.199,-272.984 183.483,-275.531 182.828,-268.562"/>
<text text-anchor="middle" x="202" y="-263" font-family="Helvetica,sans-Serif" font-size="10.00"> next</text>
</g>
<!-- Node3 -->
<g id="node3" class="node"><title>Node3</title>
<g id="a_node3"><a xlink:href="../../d2/de1/struct_a_v_class.html" target="_top" xlink:title=" ">
<polygon fill="white" stroke="black" points="50.5,-329.5 50.5,-348.5 105.5,-348.5 105.5,-329.5 50.5,-329.5"/>
<text text-anchor="middle" x="78" y="-336.5" font-family="Helvetica,sans-Serif" font-size="10.00">AVClass</text>
</a>
</g>
</g>
<!-- Node3&#45;&gt;Node1 -->
<g id="edge7" class="edge"><title>Node3&#45;&gt;Node1</title>
<path fill="none" stroke="#9a32cd" stroke-dasharray="5,2" d="M72.3854,-319.655C67.7145,-301.278 63.0057,-272.434 71,-249 81.1825,-219.152 107.718,-191.815 122.208,-178.505"/>
<polygon fill="#9a32cd" stroke="#9a32cd" points="69.0397,-320.687 75.1047,-329.375 75.7808,-318.801 69.0397,-320.687"/>
<text text-anchor="middle" x="91.5" y="-263" font-family="Helvetica,sans-Serif" font-size="10.00"> av_class</text>
</g>
<!-- Node3&#45;&gt;Node2 -->
<g id="edge3" class="edge"><title>Node3&#45;&gt;Node2</title>
<path fill="none" stroke="#9a32cd" stroke-dasharray="5,2" d="M93.4715,-321.968C107.369,-307.567 127.26,-286.955 138.47,-275.339"/>
<polygon fill="#9a32cd" stroke="#9a32cd" points="90.8864,-319.606 86.4608,-329.233 95.9235,-324.467 90.8864,-319.606"/>
<text text-anchor="middle" x="138" y="-303" font-family="Helvetica,sans-Serif" font-size="10.00"> priv_class</text>
</g>
<!-- Node3&#45;&gt;Node3 -->
<g id="edge4" class="edge"><title>Node3&#45;&gt;Node3</title>
<path fill="none" stroke="#9a32cd" stroke-dasharray="5,2" d="M115.572,-344.242C120.35,-343.325 123.5,-341.578 123.5,-339 123.5,-334.875 115.435,-332.877 105.543,-333.006"/>
<polygon fill="#9a32cd" stroke="#9a32cd" points="115.254,-340.756 105.543,-344.994 115.777,-347.736 115.254,-340.756"/>
<text text-anchor="middle" x="161.5" y="-336.5" font-family="Helvetica,sans-Serif" font-size="10.00"> child_class_next</text>
</g>
<!-- Node3&#45;&gt;Node6 -->
<g id="edge9" class="edge"><title>Node3&#45;&gt;Node6</title>
<path fill="none" stroke="#9a32cd" stroke-dasharray="5,2" d="M68.4708,-320.343C57.8815,-299.637 41.4272,-263.947 35,-231 25.3807,-181.69 32.6667,-168.235 32,-118 31.9351,-113.112 31.4027,-111.852 32,-107 32.8081,-100.435 34.644,-93.1962 36.2328,-87.7234"/>
<polygon fill="#9a32cd" stroke="#9a32cd" points="65.5137,-322.24 73.2592,-329.469 71.7123,-318.988 65.5137,-322.24"/>
<text text-anchor="middle" x="55.5" y="-223" font-family="Helvetica,sans-Serif" font-size="10.00"> av_class</text>
</g>
<!-- Node4 -->
<g id="node4" class="node"><title>Node4</title>
<g id="a_node4"><a xlink:href="../../d3/ded/struct_a_v_option.html" target="_top" xlink:title=" ">
<polygon fill="white" stroke="black" points="129.5,-396.5 129.5,-415.5 188.5,-415.5 188.5,-396.5 129.5,-396.5"/>
<text text-anchor="middle" x="159" y="-403.5" font-family="Helvetica,sans-Serif" font-size="10.00">AVOption</text>
</a>
</g>
</g>
<!-- Node4&#45;&gt;Node3 -->
<g id="edge5" class="edge"><title>Node4&#45;&gt;Node3</title>
<path fill="none" stroke="#9a32cd" stroke-dasharray="5,2" d="M139.951,-389.713C123.992,-376.907 101.787,-359.088 88.7509,-348.627"/>
<polygon fill="#9a32cd" stroke="#9a32cd" points="138.086,-392.705 148.076,-396.234 142.467,-387.245 138.086,-392.705"/>
<text text-anchor="middle" x="139" y="-370" font-family="Helvetica,sans-Serif" font-size="10.00"> option</text>
</g>
<!-- Node5 -->
<g id="node5" class="node"><title>Node5</title>
<g id="a_node5"><a xlink:href="../../d7/d28/struct_a_v_rational.html" target="_top" xlink:title=" ">
<polygon fill="white" stroke="black" points="216.5,-463.5 216.5,-482.5 281.5,-482.5 281.5,-463.5 216.5,-463.5"/>
<text text-anchor="middle" x="249" y="-470.5" font-family="Helvetica,sans-Serif" font-size="10.00">AVRational</text>
</a>
</g>
</g>
<!-- Node5&#45;&gt;Node4 -->
<g id="edge6" class="edge"><title>Node5&#45;&gt;Node4</title>
<path fill="none" stroke="#9a32cd" stroke-dasharray="5,2" d="M228.325,-457.068C210.56,-444.238 185.564,-426.185 170.945,-415.627"/>
<polygon fill="#9a32cd" stroke="#9a32cd" points="226.706,-460.216 236.862,-463.234 230.805,-454.541 226.706,-460.216"/>
<text text-anchor="middle" x="214.5" y="-437" font-family="Helvetica,sans-Serif" font-size="10.00"> q</text>
</g>
<!-- Node5&#45;&gt;Node7 -->
<g id="edge11" class="edge"><title>Node5&#45;&gt;Node7</title>
<path fill="none" stroke="#9a32cd" stroke-dasharray="5,2" d="M249,-453.134C249,-440.161 249,-422.536 249,-407 249,-407 249,-407 249,-77 249,-50.1857 221.438,-30.1413 202.488,-19.5293"/>
<polygon fill="#9a32cd" stroke="#9a32cd" points="245.5,-453.169 249,-463.169 252.5,-453.169 245.5,-453.169"/>
<text text-anchor="middle" x="296" y="-274" font-family="Helvetica,sans-Serif" font-size="10.00"> sample_aspect_ratio</text>
<text text-anchor="middle" x="296" y="-263" font-family="Helvetica,sans-Serif" font-size="10.00">frame_rate</text>
<text text-anchor="middle" x="296" y="-252" font-family="Helvetica,sans-Serif" font-size="10.00">time_base</text>
</g>
<!-- Node8 -->
<g id="node8" class="node"><title>Node8</title>
<g id="a_node8"><a xlink:href="../../d6/d03/struct_a_v_frame.html" target="_top" xlink:title=" ">
<polygon fill="white" stroke="black" points="424,-68.5 424,-87.5 482,-87.5 482,-68.5 424,-68.5"/>
<text text-anchor="middle" x="453" y="-75.5" font-family="Helvetica,sans-Serif" font-size="10.00">AVFrame</text>
</a>
</g>
</g>
<!-- Node5&#45;&gt;Node8 -->
<g id="edge16" class="edge"><title>Node5&#45;&gt;Node8</title>
<path fill="none" stroke="#9a32cd" stroke-dasharray="5,2" d="M291.743,-468.639C386.521,-460.613 606,-438.613 606,-407 606,-407 606,-407 606,-168 606,-111.304 526.53,-90.1021 482.138,-82.6816"/>
<polygon fill="#9a32cd" stroke="#9a32cd" points="291.302,-465.164 281.628,-469.483 291.884,-472.139 291.302,-465.164"/>
<text text-anchor="middle" x="653" y="-303" font-family="Helvetica,sans-Serif" font-size="10.00"> sample_aspect_ratio</text>
</g>
<!-- Node6&#45;&gt;Node1 -->
<g id="edge8" class="edge"><title>Node6&#45;&gt;Node1</title>
<path fill="none" stroke="#9a32cd" stroke-dasharray="5,2" d="M55.3773,-94.6729C75.0953,-113.543 107.499,-144.553 123.083,-159.466"/>
<polygon fill="#9a32cd" stroke="#9a32cd" points="57.6715,-92.024 48.0269,-87.6386 52.8317,-97.0813 57.6715,-92.024"/>
<text text-anchor="middle" x="92" y="-110" font-family="Helvetica,sans-Serif" font-size="10.00"> graph</text>
</g>
<!-- Node6&#45;&gt;Node7 -->
<g id="edge12" class="edge"><title>Node6&#45;&gt;Node7</title>
<path fill="none" stroke="#9a32cd" stroke-dasharray="5,2" d="M26.8398,-59.2257C23.4843,-51.9944 21.9753,-43.9562 27,-38 42.3869,-19.7607 108.067,-13.8417 149.75,-11.9215"/>
<polygon fill="#9a32cd" stroke="#9a32cd" points="24.0703,-61.4262 32.1198,-68.3151 30.1232,-57.9101 24.0703,-61.4262"/>
<text text-anchor="middle" x="41" y="-41" font-family="Helvetica,sans-Serif" font-size="10.00"> graph</text>
</g>
<!-- Node7&#45;&gt;Node1 -->
<g id="edge21" class="edge"><title>Node7&#45;&gt;Node1</title>
<path fill="none" stroke="#9a32cd" stroke-dasharray="5,2" d="M180.241,-29.8598C176.096,-45.7571 169.713,-69.0397 163,-89 154.265,-114.975 141.858,-144.908 135.726,-159.336"/>
<polygon fill="#9a32cd" stroke="#9a32cd" points="183.742,-30.2986 182.836,-19.7425 176.961,-28.5594 183.742,-30.2986"/>
<text text-anchor="middle" x="188" y="-81" font-family="Helvetica,sans-Serif" font-size="10.00"> outputs</text>
<text text-anchor="middle" x="188" y="-70" font-family="Helvetica,sans-Serif" font-size="10.00">inputs</text>
</g>
<!-- Node7&#45;&gt;Node6 -->
<g id="edge10" class="edge"><title>Node7&#45;&gt;Node6</title>
<path fill="none" stroke="#9a32cd" stroke-dasharray="5,2" d="M139.712,-14.8968C117.666,-18.4316 91.5538,-25.1677 71,-38 58.8159,-45.6068 49.1099,-59.473 43.7073,-68.4569"/>
<polygon fill="#9a32cd" stroke="#9a32cd" points="140.439,-18.3285 149.842,-13.4467 139.447,-11.3991 140.439,-18.3285"/>
<text text-anchor="middle" x="94.5" y="-41" font-family="Helvetica,sans-Serif" font-size="10.00"> sink_links</text>
</g>
<!-- Node8&#45;&gt;Node7 -->
<g id="edge13" class="edge"><title>Node8&#45;&gt;Node7</title>
<path fill="none" stroke="#9a32cd" stroke-dasharray="5,2" d="M421.031,-64.9481C397.72,-56.5047 365.23,-45.4433 336,-38 296.773,-28.011 250.894,-20.3654 220.092,-15.8019"/>
<polygon fill="#9a32cd" stroke="#9a32cd" points="419.829,-68.2353 430.423,-68.3883 422.237,-61.6624 419.829,-68.2353"/>
<text text-anchor="middle" x="396" y="-41" font-family="Helvetica,sans-Serif" font-size="10.00"> partial_buf</text>
</g>
<!-- Node9 -->
<g id="node9" class="node"><title>Node9</title>
<g id="a_node9"><a xlink:href="../../d5/d95/struct_a_v_frame_side_data.html" target="_top" xlink:title=" ">
<polygon fill="white" stroke="black" points="480,-159.5 480,-178.5 578,-178.5 578,-159.5 480,-159.5"/>
<text text-anchor="middle" x="529" y="-166.5" font-family="Helvetica,sans-Serif" font-size="10.00">AVFrameSideData</text>
</a>
</g>
</g>
<!-- Node9&#45;&gt;Node8 -->
<g id="edge14" class="edge"><title>Node9&#45;&gt;Node8</title>
<path fill="none" stroke="#9a32cd" stroke-dasharray="5,2" d="M515.081,-151.7C498.96,-132.822 473.005,-102.427 460.377,-87.6386"/>
<polygon fill="#9a32cd" stroke="#9a32cd" points="512.557,-154.135 521.713,-159.466 517.881,-149.589 512.557,-154.135"/>
<text text-anchor="middle" x="507" y="-110" font-family="Helvetica,sans-Serif" font-size="10.00"> side_data</text>
</g>
<!-- Node10 -->
<g id="node10" class="node"><title>Node10</title>
<g id="a_node10"><a xlink:href="../../d0/dc0/struct_a_v_buffer_ref.html" target="_top" xlink:title=" ">
<polygon fill="white" stroke="black" points="361.5,-256 361.5,-275 430.5,-275 430.5,-256 361.5,-256"/>
<text text-anchor="middle" x="396" y="-263" font-family="Helvetica,sans-Serif" font-size="10.00">AVBufferRef</text>
</a>
</g>
</g>
<!-- Node10&#45;&gt;Node1 -->
<g id="edge22" class="edge"><title>Node10&#45;&gt;Node1</title>
<path fill="none" stroke="#9a32cd" stroke-dasharray="5,2" d="M359.749,-252.889C355.458,-251.557 351.136,-250.235 347,-249 318.688,-240.543 310.963,-240.548 283,-231 234.838,-214.555 179.752,-191.078 151.289,-178.588"/>
<polygon fill="#9a32cd" stroke="#9a32cd" points="359.012,-256.326 369.601,-255.978 361.106,-249.646 359.012,-256.326"/>
<text text-anchor="middle" x="316.5" y="-223" font-family="Helvetica,sans-Serif" font-size="10.00"> hw_device_ctx</text>
</g>
<!-- Node10&#45;&gt;Node7 -->
<g id="edge18" class="edge"><title>Node10&#45;&gt;Node7</title>
<path fill="none" stroke="#9a32cd" stroke-dasharray="5,2" d="M390.138,-245.97C375.643,-203.086 334.055,-96.2329 263,-38 250.808,-28.0083 234.693,-21.6182 220.276,-17.5793"/>
<polygon fill="#9a32cd" stroke="#9a32cd" points="386.867,-247.229 393.309,-255.64 393.519,-245.048 386.867,-247.229"/>
<text text-anchor="middle" x="365.5" y="-110" font-family="Helvetica,sans-Serif" font-size="10.00"> hw_frames_ctx</text>
</g>
<!-- Node10&#45;&gt;Node8 -->
<g id="edge17" class="edge"><title>Node10&#45;&gt;Node8</title>
<path fill="none" stroke="#9a32cd" stroke-dasharray="5,2" d="M393.793,-245.782C391.523,-220.021 390.145,-172.668 405,-136 413.064,-116.096 430.852,-98.0378 442.363,-87.8011"/>
<polygon fill="#9a32cd" stroke="#9a32cd" points="390.337,-246.393 394.843,-255.982 397.3,-245.676 390.337,-246.393"/>
<text text-anchor="middle" x="438" y="-194" font-family="Helvetica,sans-Serif" font-size="10.00"> private_ref</text>
<text text-anchor="middle" x="438" y="-183" font-family="Helvetica,sans-Serif" font-size="10.00">hw_frames_ctx</text>
<text text-anchor="middle" x="438" y="-172" font-family="Helvetica,sans-Serif" font-size="10.00">qp_table_buf</text>
<text text-anchor="middle" x="438" y="-161" font-family="Helvetica,sans-Serif" font-size="10.00">extended_buf</text>
<text text-anchor="middle" x="438" y="-150" font-family="Helvetica,sans-Serif" font-size="10.00">opaque_ref</text>
<text text-anchor="middle" x="438" y="-139" font-family="Helvetica,sans-Serif" font-size="10.00">buf</text>
</g>
<!-- Node10&#45;&gt;Node9 -->
<g id="edge15" class="edge"><title>Node10&#45;&gt;Node9</title>
<path fill="none" stroke="#9a32cd" stroke-dasharray="5,2" d="M416.566,-249.887C444.596,-229.971 493.916,-194.928 516.756,-178.7"/>
<polygon fill="#9a32cd" stroke="#9a32cd" points="414.399,-247.134 408.274,-255.779 418.453,-252.84 414.399,-247.134"/>
<text text-anchor="middle" x="466" y="-223" font-family="Helvetica,sans-Serif" font-size="10.00"> buf</text>
</g>
</g>
</svg>
