<?xml version="1.0" encoding="UTF-8" standalone="no"?>
<!DOCTYPE svg PUBLIC "-//W3C//DTD SVG 1.1//EN"
 "http://www.w3.org/Graphics/SVG/1.1/DTD/svg11.dtd">
<!-- Generated by graphviz version 2.38.0 (20140413.2041)
 -->
<!-- Title: GUIWindow_Spellbook::OpenSpellbookPage Pages: 1 -->
<!--zoomable 470 -->
<svg id="main" version="1.1" xmlns="http://www.w3.org/2000/svg" xmlns:xlink="http://www.w3.org/1999/xlink" xml:space="preserve" onload="init(evt)">
<style type="text/css"><![CDATA[
.edge:hover path { stroke: red; }
.edge:hover polygon { stroke: red; fill: red; }
]]></style>
<script type="text/javascript"><![CDATA[
var edges = document.getElementsByTagName('g');
if (edges && edges.length) {
  for (var i=0;i<edges.length;i++) {
    if (edges[i].id.substr(0,4)=='edge') {
      edges[i].setAttribute('class','edge');
    }
  }
}
]]></script>
        <defs>
                <circle id="rim" cx="0" cy="0" r="7"/>
                <circle id="rim2" cx="0" cy="0" r="3.5"/>
                <g id="zoomPlus">
                        <use xlink:href="#rim" fill="#404040">
                                <set attributeName="fill" to="#808080" begin="zoomplus.mouseover" end="zoomplus.mouseout"/>
                        </use>
                        <path d="M-4,0h8M0,-4v8" fill="none" stroke="white" stroke-width="1.5" pointer-events="none"/>
                </g>
                <g id="zoomMin">
                        <use xlink:href="#rim" fill="#404040">
                                <set attributeName="fill" to="#808080" begin="zoomminus.mouseover" end="zoomminus.mouseout"/>
                        </use>
                        <path d="M-4,0h8" fill="none" stroke="white" stroke-width="1.5" pointer-events="none"/>
                </g>
                <g id="dirArrow">
                        <path fill="none" stroke="white" stroke-width="1.5" d="M0,-3.0v7 M-2.5,-0.5L0,-3.0L2.5,-0.5"/>
                </g>
               <g id="resetDef">
                       <use xlink:href="#rim2" fill="#404040">
                               <set attributeName="fill" to="#808080" begin="reset.mouseover" end="reset.mouseout"/>
                       </use>
               </g>
        </defs>

<script type="text/javascript">
var viewWidth = 802;
var viewHeight = 470;
var sectionId = 'dynsection-7';
</script>
<script xlink:href="../../svgpan.js"/>
<svg id="graph" class="graph">
<g id="viewport">
<title>GUIWindow_Spellbook::OpenSpellbookPage</title>
<polygon fill="white" stroke="none" points="-4,4 -4,-465.5 798,-465.5 798,4 -4,4"/>
<!-- Node1 -->
<g id="node1" class="node"><title>Node1</title>
<g id="a_node1"><a xlink:title=" ">
<polygon fill="#bfbfbf" stroke="black" points="0,-272.5 0,-302.5 116,-302.5 116,-272.5 0,-272.5"/>
<text text-anchor="start" x="8" y="-290.5" font-family="Helvetica,sans-Serif" font-size="10.00">GUIWindow_Spellbook</text>
<text text-anchor="middle" x="58" y="-279.5" font-family="Helvetica,sans-Serif" font-size="10.00">::OpenSpellbookPage</text>
</a>
</g>
</g>
<!-- Node2 -->
<g id="node2" class="node"><title>Node2</title>
<g id="a_node2"><a xlink:href="../../d1/d3f/_spellbook_8cpp.html#ae9f7a5f0725e7707988850cfe806d44b" target="_top" xlink:title=" ">
<polygon fill="white" stroke="black" points="152.5,-382 152.5,-401 273.5,-401 273.5,-382 152.5,-382"/>
<text text-anchor="middle" x="213" y="-389" font-family="Helvetica,sans-Serif" font-size="10.00">OnCloseSpellBookPage</text>
</a>
</g>
</g>
<!-- Node1&#45;&gt;Node2 -->
<g id="edge1" class="edge"><title>Node1&#45;&gt;Node2</title>
<path fill="none" stroke="midnightblue" d="M81.2475,-302.622C110.24,-322.33 160.651,-356.596 189.679,-376.328"/>
<polygon fill="midnightblue" stroke="midnightblue" points="187.716,-379.225 197.954,-381.952 191.651,-373.436 187.716,-379.225"/>
</g>
<!-- Node4 -->
<g id="node4" class="node"><title>Node4</title>
<g id="a_node4"><a xlink:href="../../d0/d1e/class_g_u_i_window___spellbook.html#ab1a90262c6fa3a76655a1db7a98b0c41" target="_top" xlink:title=" ">
<polygon fill="white" stroke="black" points="155,-272.5 155,-302.5 271,-302.5 271,-272.5 155,-272.5"/>
<text text-anchor="start" x="163" y="-290.5" font-family="Helvetica,sans-Serif" font-size="10.00">GUIWindow_Spellbook</text>
<text text-anchor="middle" x="213" y="-279.5" font-family="Helvetica,sans-Serif" font-size="10.00">::OpenSpellbook</text>
</a>
</g>
</g>
<!-- Node1&#45;&gt;Node4 -->
<g id="edge3" class="edge"><title>Node1&#45;&gt;Node4</title>
<path fill="none" stroke="midnightblue" d="M116.407,-287.5C125.623,-287.5 135.234,-287.5 144.657,-287.5"/>
<polygon fill="midnightblue" stroke="midnightblue" points="144.78,-291 154.78,-287.5 144.78,-284 144.78,-291"/>
</g>
<!-- Node16 -->
<g id="node16" class="node"><title>Node16</title>
<g id="a_node16"><a xlink:href="../../d7/dc2/class_audio_player.html#afa0c135f321bd87b4d4ad2dcad3833e3" target="_top" xlink:title=" ">
<polygon fill="white" stroke="black" points="152,-88 152,-107 274,-107 274,-88 152,-88"/>
<text text-anchor="middle" x="213" y="-95" font-family="Helvetica,sans-Serif" font-size="10.00">AudioPlayer::PlaySound</text>
</a>
</g>
</g>
<!-- Node1&#45;&gt;Node16 -->
<g id="edge18" class="edge"><title>Node1&#45;&gt;Node16</title>
<path fill="none" stroke="midnightblue" d="M71.262,-272.273C99.3593,-237.381 168.258,-151.82 197.978,-114.913"/>
<polygon fill="midnightblue" stroke="midnightblue" points="200.783,-117.01 204.329,-107.026 195.331,-112.619 200.783,-117.01"/>
</g>
<!-- Node3 -->
<g id="node3" class="node"><title>Node3</title>
<g id="a_node3"><a xlink:href="../../d4/d38/class_g_u_i_window.html#a7c8bcc74ea8cc23cc666aa869e5a5d7d" target="_top" xlink:title=" ">
<polygon fill="white" stroke="black" points="326,-442 326,-461 461,-461 461,-442 326,-442"/>
<text text-anchor="middle" x="393.5" y="-449" font-family="Helvetica,sans-Serif" font-size="10.00">GUIWindow::DeleteButtons</text>
</a>
</g>
</g>
<!-- Node2&#45;&gt;Node3 -->
<g id="edge2" class="edge"><title>Node2&#45;&gt;Node3</title>
<path fill="none" stroke="midnightblue" d="M233.465,-401.025C252.587,-410.09 282.774,-423.629 310,-432.5 317.935,-435.086 326.409,-437.459 334.792,-439.587"/>
<polygon fill="midnightblue" stroke="midnightblue" points="334.008,-442.998 344.553,-441.97 335.669,-436.198 334.008,-442.998"/>
</g>
<!-- Node5 -->
<g id="node5" class="node"><title>Node5</title>
<g id="a_node5"><a xlink:href="../../d4/d38/class_g_u_i_window.html#af1601b14fd14172585c6793565a30e7d" target="_top" xlink:title=" ">
<polygon fill="white" stroke="black" points="321.5,-354.5 321.5,-384.5 465.5,-384.5 465.5,-354.5 321.5,-354.5"/>
<text text-anchor="start" x="329.5" y="-372.5" font-family="Helvetica,sans-Serif" font-size="10.00">GUIWindow::_41D08F</text>
<text text-anchor="middle" x="393.5" y="-361.5" font-family="Helvetica,sans-Serif" font-size="10.00">_set_keyboard_control_group</text>
</a>
</g>
</g>
<!-- Node4&#45;&gt;Node5 -->
<g id="edge4" class="edge"><title>Node4&#45;&gt;Node5</title>
<path fill="none" stroke="midnightblue" d="M236.062,-302.695C255.008,-315.222 283.394,-332.777 310,-344.5 315.352,-346.858 320.992,-349.079 326.708,-351.149"/>
<polygon fill="midnightblue" stroke="midnightblue" points="325.767,-354.527 336.362,-354.489 328.056,-347.912 325.767,-354.527"/>
</g>
<!-- Node6 -->
<g id="node6" class="node"><title>Node6</title>
<g id="a_node6"><a xlink:href="../../d4/d38/class_g_u_i_window.html#a29f96468b54f142995e3b1890cb7e45e" target="_top" xlink:title=" ">
<polygon fill="white" stroke="black" points="328,-316 328,-335 459,-335 459,-316 328,-316"/>
<text text-anchor="middle" x="393.5" y="-323" font-family="Helvetica,sans-Serif" font-size="10.00">GUIWindow::CreateButton</text>
</a>
</g>
</g>
<!-- Node4&#45;&gt;Node6 -->
<g id="edge5" class="edge"><title>Node4&#45;&gt;Node6</title>
<path fill="none" stroke="midnightblue" d="M271.461,-299.733C292.657,-304.245 316.603,-309.343 337.569,-313.806"/>
<polygon fill="midnightblue" stroke="midnightblue" points="337.088,-317.282 347.597,-315.941 338.545,-310.435 337.088,-317.282"/>
</g>
<!-- Node7 -->
<g id="node7" class="node"><title>Node7</title>
<g id="a_node7"><a xlink:href="../../de/d73/class_image.html#a5093fa64598a4d7e0c70d43fe67e35cd" target="_top" xlink:title=" ">
<polygon fill="white" stroke="black" points="347.5,-240 347.5,-259 439.5,-259 439.5,-240 347.5,-240"/>
<text text-anchor="middle" x="393.5" y="-247" font-family="Helvetica,sans-Serif" font-size="10.00">Image::GetHeight</text>
</a>
</g>
</g>
<!-- Node4&#45;&gt;Node7 -->
<g id="edge6" class="edge"><title>Node4&#45;&gt;Node7</title>
<path fill="none" stroke="midnightblue" d="M271.461,-275.267C292.657,-270.755 316.603,-265.657 337.569,-261.194"/>
<polygon fill="midnightblue" stroke="midnightblue" points="338.545,-264.565 347.597,-259.059 337.088,-257.718 338.545,-264.565"/>
</g>
<!-- Node11 -->
<g id="node11" class="node"><title>Node11</title>
<g id="a_node11"><a xlink:href="../../dd/d88/class_localization.html#aaf78c05232016d5491a9e0172d7a5ff5" target="_top" xlink:title=" ">
<polygon fill="white" stroke="black" points="310,-202 310,-221 477,-221 477,-202 310,-202"/>
<text text-anchor="middle" x="393.5" y="-209" font-family="Helvetica,sans-Serif" font-size="10.00">Localization::GetSpellSchoolName</text>
</a>
</g>
</g>
<!-- Node4&#45;&gt;Node11 -->
<g id="edge11" class="edge"><title>Node4&#45;&gt;Node11</title>
<path fill="none" stroke="midnightblue" d="M235.117,-272.347C253.935,-259.498 282.651,-241.458 310,-230.5 316.325,-227.966 323.065,-225.726 329.862,-223.758"/>
<polygon fill="midnightblue" stroke="midnightblue" points="331.079,-227.054 339.819,-221.065 329.252,-220.297 331.079,-227.054"/>
</g>
<!-- Node12 -->
<g id="node12" class="node"><title>Node12</title>
<g id="a_node12"><a xlink:href="../../dd/d88/class_localization.html#a0eb0a17fdf90f6a420eeac65bf62436f" target="_top" xlink:title=" ">
<polygon fill="white" stroke="black" points="335.5,-164 335.5,-183 451.5,-183 451.5,-164 335.5,-164"/>
<text text-anchor="middle" x="393.5" y="-171" font-family="Helvetica,sans-Serif" font-size="10.00">Localization::GetString</text>
</a>
</g>
</g>
<!-- Node4&#45;&gt;Node12 -->
<g id="edge12" class="edge"><title>Node4&#45;&gt;Node12</title>
<path fill="none" stroke="midnightblue" d="M224.852,-272.38C240.947,-251.123 273.232,-212.742 310,-192.5 314.909,-189.797 320.185,-187.479 325.611,-185.489"/>
<polygon fill="midnightblue" stroke="midnightblue" points="327.078,-188.691 335.491,-182.251 324.899,-182.039 327.078,-188.691"/>
</g>
<!-- Node13 -->
<g id="node13" class="node"><title>Node13</title>
<g id="a_node13"><a xlink:href="../../de/d73/class_image.html#a9241b1c53141c78273e4060a91634d47" target="_top" xlink:title=" ">
<polygon fill="white" stroke="black" points="348.5,-278 348.5,-297 438.5,-297 438.5,-278 348.5,-278"/>
<text text-anchor="middle" x="393.5" y="-285" font-family="Helvetica,sans-Serif" font-size="10.00">Image::GetWidth</text>
</a>
</g>
</g>
<!-- Node4&#45;&gt;Node13 -->
<g id="edge13" class="edge"><title>Node4&#45;&gt;Node13</title>
<path fill="none" stroke="midnightblue" d="M271.461,-287.5C292.919,-287.5 317.198,-287.5 338.348,-287.5"/>
<polygon fill="midnightblue" stroke="midnightblue" points="338.453,-291 348.453,-287.5 338.453,-284 338.453,-291"/>
</g>
<!-- Node14 -->
<g id="node14" class="node"><title>Node14</title>
<g id="a_node14"><a xlink:href="../../d1/d3f/_spellbook_8cpp.html#ac21c7ca83294e474af86d54fc4c01775" target="_top" xlink:title=" ">
<polygon fill="white" stroke="black" points="353.5,-404 353.5,-423 433.5,-423 433.5,-404 353.5,-404"/>
<text text-anchor="middle" x="393.5" y="-411" font-family="Helvetica,sans-Serif" font-size="10.00">LoadSpellbook</text>
</a>
</g>
</g>
<!-- Node4&#45;&gt;Node14 -->
<g id="edge16" class="edge"><title>Node4&#45;&gt;Node14</title>
<path fill="none" stroke="midnightblue" d="M223.124,-302.594C238.158,-326.1 270.447,-371.169 310,-394.5 320.085,-400.449 331.883,-404.535 343.35,-407.342"/>
<polygon fill="midnightblue" stroke="midnightblue" points="342.777,-410.799 353.291,-409.494 344.258,-403.958 342.777,-410.799"/>
</g>
<!-- Node8 -->
<g id="node8" class="node"><title>Node8</title>
<g id="a_node8"><a xlink:href="../../d9/d30/_s_d_l__assert_8h.html#afedcea68cf85ee469ab1ea390bbe0abb" target="_top" xlink:title=" ">
<polygon fill="white" stroke="black" points="706,-294 706,-313 783,-313 783,-294 706,-294"/>
<text text-anchor="middle" x="744.5" y="-301" font-family="Helvetica,sans-Serif" font-size="10.00">__debugbreak</text>
</a>
</g>
</g>
<!-- Node7&#45;&gt;Node8 -->
<g id="edge7" class="edge"><title>Node7&#45;&gt;Node8</title>
<path fill="none" stroke="midnightblue" d="M439.916,-246.504C493.383,-244.28 584.354,-244.598 659,-265.5 676.422,-270.378 678.552,-276.966 695,-284.5 699.183,-286.416 703.619,-288.321 708.042,-290.143"/>
<polygon fill="midnightblue" stroke="midnightblue" points="707.016,-293.503 717.601,-293.973 709.62,-287.005 707.016,-293.503"/>
</g>
<!-- Node9 -->
<g id="node9" class="node"><title>Node9</title>
<g id="a_node9"><a xlink:href="../../de/d73/class_image.html#a9b786ec61110907b38dda728bd281c73" target="_top" xlink:title=" ">
<polygon fill="white" stroke="black" points="528,-275 528,-294 644,-294 644,-275 528,-275"/>
<text text-anchor="middle" x="586" y="-282" font-family="Helvetica,sans-Serif" font-size="10.00">Image::LoadImageData</text>
</a>
</g>
</g>
<!-- Node7&#45;&gt;Node9 -->
<g id="edge8" class="edge"><title>Node7&#45;&gt;Node9</title>
<path fill="none" stroke="midnightblue" d="M439.646,-257.795C464.524,-262.365 495.778,-268.107 522.923,-273.095"/>
<polygon fill="midnightblue" stroke="midnightblue" points="522.636,-276.601 533.104,-274.965 523.901,-269.716 522.636,-276.601"/>
</g>
<!-- Node9&#45;&gt;Node8 -->
<g id="edge9" class="edge"><title>Node9&#45;&gt;Node8</title>
<path fill="none" stroke="midnightblue" d="M644.386,-291.467C661.131,-293.5 679.252,-295.7 695.363,-297.656"/>
<polygon fill="midnightblue" stroke="midnightblue" points="695.276,-301.171 705.625,-298.902 696.12,-294.222 695.276,-301.171"/>
</g>
<!-- Node10 -->
<g id="node10" class="node"><title>Node10</title>
<g id="a_node10"><a xlink:href="../../d7/d42/class_image_loader.html#ad346c7973ae6f1d84a8c1fc655661319" target="_top" xlink:title=" ">
<polygon fill="white" stroke="black" points="695,-256 695,-275 794,-275 794,-256 695,-256"/>
<text text-anchor="middle" x="744.5" y="-263" font-family="Helvetica,sans-Serif" font-size="10.00">ImageLoader::Load</text>
</a>
</g>
</g>
<!-- Node9&#45;&gt;Node10 -->
<g id="edge10" class="edge"><title>Node9&#45;&gt;Node10</title>
<path fill="none" stroke="midnightblue" d="M644.386,-277.533C657.594,-275.929 671.658,-274.222 684.916,-272.612"/>
<polygon fill="midnightblue" stroke="midnightblue" points="685.365,-276.084 694.87,-271.404 684.521,-269.135 685.365,-276.084"/>
</g>
<!-- Node13&#45;&gt;Node8 -->
<g id="edge14" class="edge"><title>Node13&#45;&gt;Node8</title>
<path fill="none" stroke="midnightblue" d="M438.532,-294.877C460.783,-298.24 488.248,-301.837 513,-303.5 576.104,-307.741 649.145,-306.745 695.802,-305.363"/>
<polygon fill="midnightblue" stroke="midnightblue" points="696.034,-308.857 705.919,-305.044 695.814,-301.861 696.034,-308.857"/>
</g>
<!-- Node13&#45;&gt;Node9 -->
<g id="edge15" class="edge"><title>Node13&#45;&gt;Node9</title>
<path fill="none" stroke="midnightblue" d="M438.683,-286.804C462.068,-286.436 491.284,-285.976 517.446,-285.564"/>
<polygon fill="midnightblue" stroke="midnightblue" points="517.739,-289.06 527.682,-285.403 517.628,-282.061 517.739,-289.06"/>
</g>
<!-- Node15 -->
<g id="node15" class="node"><title>Node15</title>
<g id="a_node15"><a xlink:href="../../db/dd6/class_assets_manager.html#aa6b54bf3eebb770dc30767d13c436ce0" target="_top" xlink:title=" ">
<polygon fill="white" stroke="black" points="519.5,-398.5 519.5,-428.5 652.5,-428.5 652.5,-398.5 519.5,-398.5"/>
<text text-anchor="start" x="527.5" y="-416.5" font-family="Helvetica,sans-Serif" font-size="10.00">AssetsManager::GetImage</text>
<text text-anchor="middle" x="586" y="-405.5" font-family="Helvetica,sans-Serif" font-size="10.00">_Solid</text>
</a>
</g>
</g>
<!-- Node14&#45;&gt;Node15 -->
<g id="edge17" class="edge"><title>Node14&#45;&gt;Node15</title>
<path fill="none" stroke="midnightblue" d="M433.51,-413.5C455.324,-413.5 483.27,-413.5 509.205,-413.5"/>
<polygon fill="midnightblue" stroke="midnightblue" points="509.408,-417 519.408,-413.5 509.408,-410 509.408,-417"/>
</g>
<!-- Node17 -->
<g id="node17" class="node"><title>Node17</title>
<g id="a_node17"><a xlink:href="../../d4/db9/_open_a_l_sound_provider_8cpp.html#a0d61058bc8900801bc227bc7b47881d7" target="_top" xlink:title=" ">
<polygon fill="white" stroke="black" points="342,-126 342,-145 445,-145 445,-126 342,-126"/>
<text text-anchor="middle" x="393.5" y="-133" font-family="Helvetica,sans-Serif" font-size="10.00">CreateAudioSample</text>
</a>
</g>
</g>
<!-- Node16&#45;&gt;Node17 -->
<g id="edge19" class="edge"><title>Node16&#45;&gt;Node17</title>
<path fill="none" stroke="midnightblue" d="M259.043,-107.089C283.023,-112.194 312.698,-118.511 337.972,-123.892"/>
<polygon fill="midnightblue" stroke="midnightblue" points="337.271,-127.321 347.781,-125.98 338.729,-120.474 337.271,-127.321"/>
</g>
<!-- Node19 -->
<g id="node19" class="node"><title>Node19</title>
<g id="a_node19"><a xlink:href="../../d7/dc2/class_audio_player.html#ae30d2f6cbd73b8e316a47b4694fe8960" target="_top" xlink:title=" ">
<polygon fill="white" stroke="black" points="331.5,-88 331.5,-107 455.5,-107 455.5,-88 331.5,-88"/>
<text text-anchor="middle" x="393.5" y="-95" font-family="Helvetica,sans-Serif" font-size="10.00">AudioPlayer::LoadSound</text>
</a>
</g>
</g>
<!-- Node16&#45;&gt;Node19 -->
<g id="edge21" class="edge"><title>Node16&#45;&gt;Node19</title>
<path fill="none" stroke="midnightblue" d="M274.432,-97.5C289.449,-97.5 305.685,-97.5 321.171,-97.5"/>
<polygon fill="midnightblue" stroke="midnightblue" points="321.219,-101 331.219,-97.5 321.219,-94.0001 321.219,-101"/>
</g>
<!-- Node24 -->
<g id="node24" class="node"><title>Node24</title>
<g id="a_node24"><a xlink:href="../../d6/d70/class_log.html#ac0de2621497ca3b2fbf208624c08bcdf" target="_top" xlink:title=" ">
<polygon fill="white" stroke="black" points="549,-46 549,-65 623,-65 623,-46 549,-46"/>
<text text-anchor="middle" x="586" y="-53" font-family="Helvetica,sans-Serif" font-size="10.00">Log::Warning</text>
</a>
</g>
</g>
<!-- Node16&#45;&gt;Node24 -->
<g id="edge29" class="edge"><title>Node16&#45;&gt;Node24</title>
<path fill="none" stroke="midnightblue" d="M256.835,-87.9564C273.377,-84.5516 292.502,-80.9555 310,-78.5 390.007,-67.2728 483.935,-60.8568 538.728,-57.7851"/>
<polygon fill="midnightblue" stroke="midnightblue" points="539.027,-61.2741 548.82,-57.2325 538.644,-54.2846 539.027,-61.2741"/>
</g>
<!-- Node25 -->
<g id="node25" class="node"><title>Node25</title>
<g id="a_node25"><a xlink:href="../../d9/d98/class_open_a_l_sound_provider.html#a25ac61cd13253bb659672a1cc29ef22c" target="_top" xlink:title=" ">
<polygon fill="white" stroke="black" points="336.5,-0.5 336.5,-30.5 450.5,-30.5 450.5,-0.5 336.5,-0.5"/>
<text text-anchor="start" x="344.5" y="-18.5" font-family="Helvetica,sans-Serif" font-size="10.00">OpenALSoundProvider</text>
<text text-anchor="middle" x="393.5" y="-7.5" font-family="Helvetica,sans-Serif" font-size="10.00">::SetListenerPosition</text>
</a>
</g>
</g>
<!-- Node16&#45;&gt;Node25 -->
<g id="edge27" class="edge"><title>Node16&#45;&gt;Node25</title>
<path fill="none" stroke="midnightblue" d="M229.937,-87.9205C248.69,-76.8734 280.958,-58.5601 310,-45.5 318.872,-41.5104 328.448,-37.6453 337.827,-34.0906"/>
<polygon fill="midnightblue" stroke="midnightblue" points="339.331,-37.2655 347.49,-30.5064 336.897,-30.7024 339.331,-37.2655"/>
</g>
<!-- Node18 -->
<g id="node18" class="node"><title>Node18</title>
<g id="a_node18"><a xlink:href="../../da/def/_media_8h.html#ab508e4ee3c70ec5e60273ec99af30a2e" target="_top" xlink:title=" ">
<polygon fill="white" stroke="black" points="513,-198 513,-217 659,-217 659,-198 513,-198"/>
<text text-anchor="middle" x="586" y="-205" font-family="Helvetica,sans-Serif" font-size="10.00">CreateAudioBufferDataSource</text>
</a>
</g>
</g>
<!-- Node17&#45;&gt;Node18 -->
<g id="edge20" class="edge"><title>Node17&#45;&gt;Node18</title>
<path fill="none" stroke="midnightblue" d="M445.332,-142.76C456.177,-145.511 467.282,-149.297 477,-154.5 496.402,-164.888 493.765,-177.806 513,-188.5 516.985,-190.715 521.238,-192.681 525.61,-194.424"/>
<polygon fill="midnightblue" stroke="midnightblue" points="524.718,-197.822 535.313,-197.892 527.075,-191.23 524.718,-197.822"/>
</g>
<!-- Node20 -->
<g id="node20" class="node"><title>Node20</title>
<g id="a_node20"><a xlink:href="../../da/d6a/_mem_buffer_8cpp.html#a685632d9cd2b61b24a9bfc649d54937e" target="_top" xlink:title=" ">
<polygon fill="white" stroke="black" points="543.5,-160 543.5,-179 628.5,-179 628.5,-160 543.5,-160"/>
<text text-anchor="middle" x="586" y="-167" font-family="Helvetica,sans-Serif" font-size="10.00">AllocMemBuffer</text>
</a>
</g>
</g>
<!-- Node19&#45;&gt;Node20 -->
<g id="edge22" class="edge"><title>Node19&#45;&gt;Node20</title>
<path fill="none" stroke="midnightblue" d="M453.598,-107.056C461.715,-109.52 469.744,-112.615 477,-116.5 496.402,-126.888 493.765,-139.806 513,-150.5 519.37,-154.041 526.426,-156.945 533.557,-159.319"/>
<polygon fill="midnightblue" stroke="midnightblue" points="532.686,-162.712 543.27,-162.239 534.701,-156.008 532.686,-162.712"/>
</g>
<!-- Node21 -->
<g id="node21" class="node"><title>Node21</title>
<g id="a_node21"><a xlink:href="../../d7/dc2/class_audio_player.html#aac82d03b250711ed0ce64fa22dfe3a59" target="_top" xlink:title=" ">
<polygon fill="white" stroke="black" points="525,-122 525,-141 647,-141 647,-122 525,-122"/>
<text text-anchor="middle" x="586" y="-129" font-family="Helvetica,sans-Serif" font-size="10.00">AudioPlayer::FindSound</text>
</a>
</g>
</g>
<!-- Node19&#45;&gt;Node21 -->
<g id="edge23" class="edge"><title>Node19&#45;&gt;Node21</title>
<path fill="none" stroke="midnightblue" d="M447.818,-107.016C470.741,-111.107 497.711,-115.921 521.644,-120.192"/>
<polygon fill="midnightblue" stroke="midnightblue" points="521.235,-123.675 531.695,-121.986 522.465,-116.784 521.235,-123.675"/>
</g>
<!-- Node23 -->
<g id="node23" class="node"><title>Node23</title>
<g id="a_node23"><a xlink:href="../../d9/d3e/namespacezlib.html#ae552beaf4387a81c63a28b01a9cc7ab4" target="_top" xlink:title=" ">
<polygon fill="white" stroke="black" points="540,-84 540,-103 632,-103 632,-84 540,-84"/>
<text text-anchor="middle" x="586" y="-91" font-family="Helvetica,sans-Serif" font-size="10.00">zlib::Uncompress</text>
</a>
</g>
</g>
<!-- Node19&#45;&gt;Node23 -->
<g id="edge25" class="edge"><title>Node19&#45;&gt;Node23</title>
<path fill="none" stroke="midnightblue" d="M455.561,-96.2179C479.451,-95.7162 506.649,-95.1452 529.927,-94.6564"/>
<polygon fill="midnightblue" stroke="midnightblue" points="530.056,-98.1545 539.98,-94.4453 529.909,-91.1561 530.056,-98.1545"/>
</g>
<!-- Node19&#45;&gt;Node24 -->
<g id="edge26" class="edge"><title>Node19&#45;&gt;Node24</title>
<path fill="none" stroke="midnightblue" d="M437.727,-87.9695C467.907,-81.3157 508.139,-72.4458 538.925,-65.6582"/>
<polygon fill="midnightblue" stroke="midnightblue" points="539.964,-69.0133 548.976,-63.4423 538.457,-62.1775 539.964,-69.0133"/>
</g>
<!-- Node22 -->
<g id="node22" class="node"><title>Node22</title>
<g id="a_node22"><a xlink:href="../../d8/d44/_strings_8cpp.html#ae591bae1416df2b3638ae859ad4ede6f" target="_top" xlink:title=" ">
<polygon fill="white" stroke="black" points="711.5,-122 711.5,-141 777.5,-141 777.5,-122 711.5,-122"/>
<text text-anchor="middle" x="744.5" y="-129" font-family="Helvetica,sans-Serif" font-size="10.00">MakeLower</text>
</a>
</g>
</g>
<!-- Node21&#45;&gt;Node22 -->
<g id="edge24" class="edge"><title>Node21&#45;&gt;Node22</title>
<path fill="none" stroke="midnightblue" d="M647.059,-131.5C665.02,-131.5 684.334,-131.5 700.925,-131.5"/>
<polygon fill="midnightblue" stroke="midnightblue" points="701.393,-135 711.393,-131.5 701.393,-128 701.393,-135"/>
</g>
<!-- Node26 -->
<g id="node26" class="node"><title>Node26</title>
<g id="a_node26"><a xlink:href="../../d1/d20/al_8h.html#acb8f6904370d9946f4ea496e21729415" target="_top" xlink:title=" ">
<polygon fill="white" stroke="black" points="553,-6 553,-25 619,-25 619,-6 553,-6"/>
<text text-anchor="middle" x="586" y="-13" font-family="Helvetica,sans-Serif" font-size="10.00">alListener3f</text>
</a>
</g>
</g>
<!-- Node25&#45;&gt;Node26 -->
<g id="edge28" class="edge"><title>Node25&#45;&gt;Node26</title>
<path fill="none" stroke="midnightblue" d="M450.626,-15.5C479.984,-15.5 515.343,-15.5 542.42,-15.5"/>
<polygon fill="midnightblue" stroke="midnightblue" points="542.731,-19.0001 552.731,-15.5 542.731,-12.0001 542.731,-19.0001"/>
</g>
</g>
</svg>
        <g id="navigator" transform="translate(0 0)" fill="#404254">
                <rect fill="#f2f5e9" fill-opacity="0.5" stroke="#606060" stroke-width=".5" x="0" y="0" width="60" height="60"/>
                <use id="zoomplus" xlink:href="#zoomPlus" x="17" y="9" onmousedown="handleZoom(evt,'in')"/>
                <use id="zoomminus" xlink:href="#zoomMin" x="42" y="9" onmousedown="handleZoom(evt,'out')"/>
                <use id="reset" xlink:href="#resetDef" x="30" y="36" onmousedown="handleReset()"/>
                <g id="arrowUp" xlink:href="#dirArrow" transform="translate(30 24)" onmousedown="handlePan(0,-1)">
                  <use xlink:href="#rim" fill="#404040">
                        <set attributeName="fill" to="#808080" begin="arrowUp.mouseover" end="arrowUp.mouseout"/>
                  </use>
                  <path fill="none" stroke="white" stroke-width="1.5" d="M0,-3.0v7 M-2.5,-0.5L0,-3.0L2.5,-0.5"/>
                </g>
                <g id="arrowRight" xlink:href="#dirArrow" transform="rotate(90) translate(36 -43)" onmousedown="handlePan(1,0)">
                  <use xlink:href="#rim" fill="#404040">
                        <set attributeName="fill" to="#808080" begin="arrowRight.mouseover" end="arrowRight.mouseout"/>
                  </use>
                  <path fill="none" stroke="white" stroke-width="1.5" d="M0,-3.0v7 M-2.5,-0.5L0,-3.0L2.5,-0.5"/>
                </g>
                <g id="arrowDown" xlink:href="#dirArrow" transform="rotate(180) translate(-30 -48)" onmousedown="handlePan(0,1)">
                  <use xlink:href="#rim" fill="#404040">
                        <set attributeName="fill" to="#808080" begin="arrowDown.mouseover" end="arrowDown.mouseout"/>
                  </use>
                  <path fill="none" stroke="white" stroke-width="1.5" d="M0,-3.0v7 M-2.5,-0.5L0,-3.0L2.5,-0.5"/>
                </g>
                <g id="arrowLeft" xlink:href="#dirArrow" transform="rotate(270) translate(-36 17)" onmousedown="handlePan(-1,0)">
                  <use xlink:href="#rim" fill="#404040">
                        <set attributeName="fill" to="#808080" begin="arrowLeft.mouseover" end="arrowLeft.mouseout"/>
                  </use>
                  <path fill="none" stroke="white" stroke-width="1.5" d="M0,-3.0v7 M-2.5,-0.5L0,-3.0L2.5,-0.5"/>
                </g>
        </g>
        <svg viewBox="0 0 15 15" width="100%" height="30px" preserveAspectRatio="xMaxYMin meet">
         <g id="arrow_out" transform="scale(0.3 0.3)">
          <a xlink:href="class_g_u_i_window___spellbook_afb173be785e24161c809463b41f7ed5a_cgraph_org.svg" target="_base">
           <rect id="button" ry="5" rx="5" y="6" x="6" height="38" width="38"
                fill="#f2f5e9" fill-opacity="0.5" stroke="#606060" stroke-width="1.0"/>
           <path id="arrow"
             d="M 11.500037,31.436501 C 11.940474,20.09759 22.043105,11.32322 32.158766,21.979434 L 37.068811,17.246167 C 37.068811,17.246167 37.088388,32 37.088388,32 L 22.160133,31.978069 C 22.160133,31.978069 26.997745,27.140456 26.997745,27.140456 C 18.528582,18.264221 13.291696,25.230495 11.500037,31.436501 z"
             style="fill:#404040;"/>
          </a>
         </g>
        </svg>
</svg>
