<?xml version="1.0" encoding="UTF-8" standalone="no"?>
<!DOCTYPE svg PUBLIC "-//W3C//DTD SVG 1.1//EN"
 "http://www.w3.org/Graphics/SVG/1.1/DTD/svg11.dtd">
<!-- Generated by graphviz version 2.38.0 (20140413.2041)
 -->
<!-- Title: Polygon::_normalize_v_18 Pages: 1 -->
<svg width="537pt" height="66pt"
 viewBox="0.00 0.00 537.00 66.00" xmlns="http://www.w3.org/2000/svg" xmlns:xlink="http://www.w3.org/1999/xlink">
<g id="graph0" class="graph" transform="scale(1 1) rotate(0) translate(4 62)">
<title>Polygon::_normalize_v_18</title>
<polygon fill="white" stroke="none" points="-4,4 -4,-62 533,-62 533,4 -4,4"/>
<!-- Node1 -->
<g id="node1" class="node"><title>Node1</title>
<g id="a_node1"><a xlink:title=" ">
<polygon fill="#bfbfbf" stroke="black" points="399,-19.5 399,-38.5 529,-38.5 529,-19.5 399,-19.5"/>
<text text-anchor="middle" x="464" y="-26.5" font-family="Helvetica,sans-Serif" font-size="10.00">Polygon::_normalize_v_18</text>
</a>
</g>
</g>
<!-- Node2 -->
<g id="node2" class="node"><title>Node2</title>
<g id="a_node2"><a xlink:href="../../d3/df8/struct_o_d_m_face.html#a9f781c2ebc56dc413cbc7eabe7d037df" target="_top" xlink:title=" ">
<polygon fill="white" stroke="black" points="206,-19.5 206,-38.5 363,-38.5 363,-19.5 206,-19.5"/>
<text text-anchor="middle" x="284.5" y="-26.5" font-family="Helvetica,sans-Serif" font-size="10.00">ODMFace::IsBackfaceNotCulled</text>
</a>
</g>
</g>
<!-- Node1&#45;&gt;Node2 -->
<g id="edge1" class="edge"><title>Node1&#45;&gt;Node2</title>
<path fill="none" stroke="midnightblue" d="M388.711,-29C380.252,-29 371.613,-29 363.112,-29"/>
<polygon fill="midnightblue" stroke="midnightblue" points="388.918,-32.5001 398.918,-29 388.918,-25.5001 388.918,-32.5001"/>
</g>
<!-- Node3 -->
<g id="node3" class="node"><title>Node3</title>
<g id="a_node3"><a xlink:href="../../d1/d2c/class_render_open_g_l.html#ac8b40cc63905732097b33b8f1d994503" target="_top" xlink:title=" ">
<polygon fill="white" stroke="black" points="0,-38.5 0,-57.5 170,-57.5 170,-38.5 0,-38.5"/>
<text text-anchor="middle" x="85" y="-45.5" font-family="Helvetica,sans-Serif" font-size="10.00">RenderOpenGL::DrawBuildingsD3D</text>
</a>
</g>
</g>
<!-- Node2&#45;&gt;Node3 -->
<g id="edge2" class="edge"><title>Node2&#45;&gt;Node3</title>
<path fill="none" stroke="midnightblue" d="M195.531,-37.4629C187.116,-38.2724 178.595,-39.0922 170.216,-39.8982"/>
<polygon fill="midnightblue" stroke="midnightblue" points="196.107,-40.9236 205.726,-36.482 195.437,-33.9558 196.107,-40.9236"/>
</g>
<!-- Node4 -->
<g id="node4" class="node"><title>Node4</title>
<g id="a_node4"><a xlink:href="../../da/d7f/class_render.html#a848f9b1f22cea77442a8c5431ae54091" target="_top" xlink:title=" ">
<polygon fill="white" stroke="black" points="18,-0.5 18,-19.5 152,-19.5 152,-0.5 18,-0.5"/>
<text text-anchor="middle" x="85" y="-7.5" font-family="Helvetica,sans-Serif" font-size="10.00">Render::DrawBuildingsD3D</text>
</a>
</g>
</g>
<!-- Node2&#45;&gt;Node4 -->
<g id="edge3" class="edge"><title>Node2&#45;&gt;Node4</title>
<path fill="none" stroke="midnightblue" d="M195.685,-20.552C181.083,-19.1472 166.158,-17.7114 152.209,-16.3695"/>
<polygon fill="midnightblue" stroke="midnightblue" points="195.437,-24.0442 205.726,-21.518 196.107,-17.0764 195.437,-24.0442"/>
</g>
</g>
</svg>
