<?xml version="1.0" encoding="UTF-8" standalone="no"?>
<!DOCTYPE svg PUBLIC "-//W3C//DTD SVG 1.1//EN"
 "http://www.w3.org/Graphics/SVG/1.1/DTD/svg11.dtd">
<!-- Generated by graphviz version 2.38.0 (20140413.2041)
 -->
<!-- Title: OtherOverlayList::Reset Pages: 1 -->
<svg width="583pt" height="56pt"
 viewBox="0.00 0.00 583.00 55.50" xmlns="http://www.w3.org/2000/svg" xmlns:xlink="http://www.w3.org/1999/xlink">
<g id="graph0" class="graph" transform="scale(1 1) rotate(0) translate(4 51.5)">
<title>OtherOverlayList::Reset</title>
<polygon fill="white" stroke="none" points="-4,4 -4,-51.5 579,-51.5 579,4 -4,4"/>
<!-- Node1 -->
<g id="node1" class="node"><title>Node1</title>
<g id="a_node1"><a xlink:title=" ">
<polygon fill="#bfbfbf" stroke="black" points="455,-0.5 455,-19.5 575,-19.5 575,-0.5 455,-0.5"/>
<text text-anchor="middle" x="515" y="-7.5" font-family="Helvetica,sans-Serif" font-size="10.00">OtherOverlayList::Reset</text>
</a>
</g>
</g>
<!-- Node2 -->
<g id="node2" class="node"><title>Node2</title>
<g id="a_node2"><a xlink:href="../../d4/d06/class_application_1_1_game.html#aaa0ff18388b32b4e6198835a35e000d3" target="_top" xlink:title=" ">
<polygon fill="white" stroke="black" points="316,-17 316,-47 419,-47 419,-17 316,-17"/>
<text text-anchor="start" x="324" y="-35" font-family="Helvetica,sans-Serif" font-size="10.00">Application::Game::</text>
<text text-anchor="middle" x="367.5" y="-24" font-family="Helvetica,sans-Serif" font-size="10.00">GameLoop</text>
</a>
</g>
</g>
<!-- Node1&#45;&gt;Node2 -->
<g id="edge1" class="edge"><title>Node1&#45;&gt;Node2</title>
<path fill="none" stroke="midnightblue" d="M444.774,-20.4672C436.166,-21.7687 427.492,-23.0803 419.236,-24.3286"/>
<polygon fill="midnightblue" stroke="midnightblue" points="445.455,-23.904 454.82,-18.9482 444.409,-16.9827 445.455,-23.904"/>
</g>
<!-- Node3 -->
<g id="node3" class="node"><title>Node3</title>
<g id="a_node3"><a xlink:href="../../d4/d06/class_application_1_1_game.html#a013ffd59e8fdf1c0a396da1dbe1681ca" target="_top" xlink:title=" ">
<polygon fill="white" stroke="black" points="156,-0.5 156,-19.5 280,-19.5 280,-0.5 156,-0.5"/>
<text text-anchor="middle" x="218" y="-7.5" font-family="Helvetica,sans-Serif" font-size="10.00">Application::Game::Loop</text>
</a>
</g>
</g>
<!-- Node1&#45;&gt;Node3 -->
<g id="edge4" class="edge"><title>Node1&#45;&gt;Node3</title>
<path fill="none" stroke="midnightblue" d="M444.824,-8.37384C436.13,-8.21948 427.359,-8.08798 419,-8 373.225,-7.51821 361.775,-7.52814 316,-8 304.378,-8.1198 291.975,-8.32031 280.055,-8.54933"/>
<polygon fill="midnightblue" stroke="midnightblue" points="444.901,-11.8758 454.965,-8.5643 445.032,-4.87703 444.901,-11.8758"/>
</g>
<!-- Node2&#45;&gt;Node3 -->
<g id="edge2" class="edge"><title>Node2&#45;&gt;Node3</title>
<path fill="none" stroke="midnightblue" d="M305.59,-22.915C297.149,-21.6562 288.478,-20.3628 280.035,-19.1036"/>
<polygon fill="midnightblue" stroke="midnightblue" points="305.332,-26.4153 315.739,-24.4288 306.365,-19.4919 305.332,-26.4153"/>
</g>
<!-- Node4 -->
<g id="node4" class="node"><title>Node4</title>
<g id="a_node4"><a xlink:href="../../d4/d06/class_application_1_1_game.html#a96341ca5b54d90adc3ecb3bf0bcd2312" target="_top" xlink:title=" ">
<polygon fill="white" stroke="black" points="0,-0.5 0,-19.5 120,-19.5 120,-0.5 0,-0.5"/>
<text text-anchor="middle" x="60" y="-7.5" font-family="Helvetica,sans-Serif" font-size="10.00">Application::Game::Run</text>
</a>
</g>
</g>
<!-- Node3&#45;&gt;Node4 -->
<g id="edge3" class="edge"><title>Node3&#45;&gt;Node4</title>
<path fill="none" stroke="midnightblue" d="M145.546,-10C137.081,-10 128.513,-10 120.244,-10"/>
<polygon fill="midnightblue" stroke="midnightblue" points="145.792,-13.5001 155.792,-10 145.792,-6.5001 145.792,-13.5001"/>
</g>
</g>
</svg>
