<?xml version="1.0" encoding="UTF-8" standalone="no"?>
<!DOCTYPE svg PUBLIC "-//W3C//DTD SVG 1.1//EN"
 "http://www.w3.org/Graphics/SVG/1.1/DTD/svg11.dtd">
<!-- Generated by graphviz version 2.38.0 (20140413.2041)
 -->
<!-- Title: Party::HasItem Pages: 1 -->
<svg width="1803pt" height="890pt"
 viewBox="0.00 0.00 1803.00 889.86" xmlns="http://www.w3.org/2000/svg" xmlns:xlink="http://www.w3.org/1999/xlink">
<g id="graph0" class="graph" transform="scale(1 1) rotate(0) translate(4 885.861)">
<title>Party::HasItem</title>
<polygon fill="white" stroke="none" points="-4,4 -4,-885.861 1799,-885.861 1799,4 -4,4"/>
<!-- Node1 -->
<g id="node1" class="node"><title>Node1</title>
<g id="a_node1"><a xlink:title=" ">
<polygon fill="#bfbfbf" stroke="black" points="1713,-828.361 1713,-847.361 1795,-847.361 1795,-828.361 1713,-828.361"/>
<text text-anchor="middle" x="1754" y="-835.361" font-family="Helvetica,sans-Serif" font-size="10.00">Party::HasItem</text>
</a>
</g>
</g>
<!-- Node2 -->
<g id="node2" class="node"><title>Node2</title>
<g id="a_node2"><a xlink:href="../../d4/dc7/_u_i_houses_8h.html#ac550075052fced91028753139e30ac47" target="_top" xlink:title=" ">
<polygon fill="white" stroke="black" points="1554,-796.861 1554,-826.861 1677,-826.861 1677,-796.861 1554,-796.861"/>
<text text-anchor="start" x="1562" y="-814.861" font-family="Helvetica,sans-Serif" font-size="10.00">InitializaDialogueOptions</text>
<text text-anchor="middle" x="1615.5" y="-803.861" font-family="Helvetica,sans-Serif" font-size="10.00">_Tavern</text>
</a>
</g>
</g>
<!-- Node1&#45;&gt;Node2 -->
<g id="edge1" class="edge"><title>Node1&#45;&gt;Node2</title>
<path fill="none" stroke="midnightblue" d="M1702.83,-828.305C1694.49,-826.716 1685.75,-825.052 1677.18,-823.419"/>
<polygon fill="midnightblue" stroke="midnightblue" points="1702.31,-831.768 1712.78,-830.201 1703.62,-824.891 1702.31,-831.768"/>
</g>
<!-- Node40 -->
<g id="node40" class="node"><title>Node40</title>
<g id="a_node40"><a xlink:href="../../d4/dc7/_u_i_houses_8h.html#a85ed65d74da96b17f506a5b39248fc84" target="_top" xlink:title=" ">
<polygon fill="white" stroke="black" points="1259,-862.361 1259,-881.361 1330,-881.361 1330,-862.361 1259,-862.361"/>
<text text-anchor="middle" x="1294.5" y="-869.361" font-family="Helvetica,sans-Serif" font-size="10.00">TavernDialog</text>
</a>
</g>
</g>
<!-- Node1&#45;&gt;Node40 -->
<g id="edge70" class="edge"><title>Node1&#45;&gt;Node40</title>
<path fill="none" stroke="midnightblue" d="M1702.73,-841.597C1609.09,-848.556 1410.22,-863.335 1330.06,-869.292"/>
<polygon fill="midnightblue" stroke="midnightblue" points="1703.09,-845.08 1712.8,-840.848 1702.57,-838.099 1703.09,-845.08"/>
</g>
<!-- Node3 -->
<g id="node3" class="node"><title>Node3</title>
<g id="a_node3"><a xlink:href="../../d4/dc7/_u_i_houses_8h.html#a719e7a9d096a2515e32cc2f594b027f7" target="_top" xlink:title=" ">
<polygon fill="white" stroke="black" points="1381,-786.361 1381,-805.361 1518,-805.361 1518,-786.361 1381,-786.361"/>
<text text-anchor="middle" x="1449.5" y="-793.361" font-family="Helvetica,sans-Serif" font-size="10.00">HouseDialogPressCloseBtn</text>
</a>
</g>
</g>
<!-- Node2&#45;&gt;Node3 -->
<g id="edge2" class="edge"><title>Node2&#45;&gt;Node3</title>
<path fill="none" stroke="midnightblue" d="M1543.92,-804.975C1535.33,-804.137 1526.57,-803.283 1518.03,-802.45"/>
<polygon fill="midnightblue" stroke="midnightblue" points="1543.61,-808.461 1553.9,-805.949 1544.29,-801.494 1543.61,-808.461"/>
</g>
<!-- Node4 -->
<g id="node4" class="node"><title>Node4</title>
<g id="a_node4"><a xlink:href="../../d4/dc7/_u_i_houses_8h.html#a367ca93a4c306e3d85e764d52a71a2d2" target="_top" xlink:title=" ">
<polygon fill="white" stroke="black" points="1244,-748.361 1244,-767.361 1345,-767.361 1345,-748.361 1244,-748.361"/>
<text text-anchor="middle" x="1294.5" y="-755.361" font-family="Helvetica,sans-Serif" font-size="10.00">BackToHouseMenu</text>
</a>
</g>
</g>
<!-- Node3&#45;&gt;Node4 -->
<g id="edge3" class="edge"><title>Node3&#45;&gt;Node4</title>
<path fill="none" stroke="midnightblue" d="M1419.2,-783.137C1398.23,-776.587 1369.51,-769.147 1345.02,-763.797"/>
<polygon fill="midnightblue" stroke="midnightblue" points="1418.22,-786.5 1428.81,-786.269 1420.39,-779.844 1418.22,-786.5"/>
</g>
<!-- Node6 -->
<g id="node6" class="node"><title>Node6</title>
<g id="a_node6"><a xlink:href="../../d4/d06/class_application_1_1_game.html#a3f65e3f0ef1a9114fb3dea275e52442e" target="_top" xlink:title=" ">
<polygon fill="white" stroke="black" points="485.5,-540.861 485.5,-570.861 588.5,-570.861 588.5,-540.861 485.5,-540.861"/>
<text text-anchor="start" x="493.5" y="-558.861" font-family="Helvetica,sans-Serif" font-size="10.00">Application::Game::</text>
<text text-anchor="middle" x="537" y="-547.861" font-family="Helvetica,sans-Serif" font-size="10.00">EventLoop</text>
</a>
</g>
</g>
<!-- Node3&#45;&gt;Node6 -->
<g id="edge13" class="edge"><title>Node3&#45;&gt;Node6</title>
<path fill="none" stroke="midnightblue" d="M1370.65,-795.861C1305.33,-795.861 1209.57,-795.861 1126,-795.861 1126,-795.861 1126,-795.861 929.5,-795.861 803.485,-795.861 754.624,-802.029 655,-724.861 628.892,-704.638 637.201,-687.416 619,-659.861 597.178,-626.825 567.859,-590.944 551.141,-571.151"/>
<polygon fill="midnightblue" stroke="midnightblue" points="1370.86,-799.361 1380.86,-795.861 1370.86,-792.361 1370.86,-799.361"/>
</g>
<!-- Node11 -->
<g id="node11" class="node"><title>Node11</title>
<g id="a_node11"><a xlink:href="../../df/d62/_events_8h.html#a0240e072af574434c2024a6f164a19d1" target="_top" xlink:title=" ">
<polygon fill="white" stroke="black" points="1252,-406.361 1252,-425.361 1337,-425.361 1337,-406.361 1252,-406.361"/>
<text text-anchor="middle" x="1294.5" y="-413.361" font-family="Helvetica,sans-Serif" font-size="10.00">EventProcessor</text>
</a>
</g>
</g>
<!-- Node3&#45;&gt;Node11 -->
<g id="edge14" class="edge"><title>Node3&#45;&gt;Node11</title>
<path fill="none" stroke="midnightblue" d="M1440.7,-776.477C1412.95,-707.575 1319.68,-475.92 1299.41,-425.571"/>
<polygon fill="midnightblue" stroke="midnightblue" points="1437.58,-778.117 1444.56,-786.086 1444.08,-775.502 1437.58,-778.117"/>
</g>
<!-- Node3&#45;&gt;Node40 -->
<g id="edge65" class="edge"><title>Node3&#45;&gt;Node40</title>
<path fill="none" stroke="midnightblue" d="M1423.96,-810.622C1403.3,-822.749 1372.75,-839.968 1345,-852.861 1337.82,-856.197 1329.88,-859.435 1322.5,-862.266"/>
<polygon fill="midnightblue" stroke="midnightblue" points="1425.89,-813.547 1432.72,-805.442 1422.33,-807.523 1425.89,-813.547"/>
</g>
<!-- Node43 -->
<g id="node43" class="node"><title>Node43</title>
<g id="a_node43"><a xlink:href="../../d4/dc7/_u_i_houses_8h.html#a051a9386ff5f507d34162a116de3f434" target="_top" xlink:title=" ">
<polygon fill="white" stroke="black" points="1247.5,-824.361 1247.5,-843.361 1341.5,-843.361 1341.5,-824.361 1247.5,-824.361"/>
<text text-anchor="middle" x="1294.5" y="-831.361" font-family="Helvetica,sans-Serif" font-size="10.00">TravelByTransport</text>
</a>
</g>
</g>
<!-- Node3&#45;&gt;Node43 -->
<g id="edge68" class="edge"><title>Node3&#45;&gt;Node43</title>
<path fill="none" stroke="midnightblue" d="M1400.02,-807.901C1378.65,-813.21 1353.89,-819.36 1333.83,-824.341"/>
<polygon fill="midnightblue" stroke="midnightblue" points="1401.03,-811.257 1409.89,-805.45 1399.34,-804.464 1401.03,-811.257"/>
</g>
<!-- Node4&#45;&gt;Node3 -->
<g id="edge10" class="edge"><title>Node4&#45;&gt;Node3</title>
<path fill="none" stroke="midnightblue" d="M1324.58,-770.514C1341.19,-775.713 1362.72,-781.48 1383.17,-786.321"/>
<polygon fill="midnightblue" stroke="midnightblue" points="1325.52,-767.139 1314.93,-767.363 1323.35,-773.794 1325.52,-767.139"/>
</g>
<!-- Node5 -->
<g id="node5" class="node"><title>Node5</title>
<g id="a_node5"><a xlink:href="../../d5/d0b/_g_u_i_window_8h.html#ac04235ad887bb855e27dc440036a112f" target="_top" xlink:title=" ">
<polygon fill="white" stroke="black" points="1084,-672.361 1084,-691.361 1166,-691.361 1166,-672.361 1084,-672.361"/>
<text text-anchor="middle" x="1125" y="-679.361" font-family="Helvetica,sans-Serif" font-size="10.00">ClickNPCTopic</text>
</a>
</g>
</g>
<!-- Node4&#45;&gt;Node5 -->
<g id="edge4" class="edge"><title>Node4&#45;&gt;Node5</title>
<path fill="none" stroke="midnightblue" d="M1271.67,-742.377C1254.89,-731.033 1230.8,-715.922 1208,-705.861 1194.84,-700.052 1179.88,-695.2 1166.37,-691.413"/>
<polygon fill="midnightblue" stroke="midnightblue" points="1269.96,-745.45 1280.18,-748.235 1273.93,-739.684 1269.96,-745.45"/>
</g>
<!-- Node4&#45;&gt;Node6 -->
<g id="edge9" class="edge"><title>Node4&#45;&gt;Node6</title>
<path fill="none" stroke="midnightblue" d="M1233.97,-757.13C1095.29,-754.556 754.914,-742.957 655,-690.861 627.774,-676.665 572.673,-603.671 549.103,-571.324"/>
<polygon fill="midnightblue" stroke="midnightblue" points="1233.94,-760.63 1244,-757.307 1234.06,-753.631 1233.94,-760.63"/>
</g>
<!-- Node10 -->
<g id="node10" class="node"><title>Node10</title>
<g id="a_node10"><a xlink:href="../../d1/d67/struct_arcomage_game.html#af5f4ef42b2a0d72d14621a54895afb58" target="_top" xlink:title=" ">
<polygon fill="white" stroke="black" points="480,-669.361 480,-688.361 594,-688.361 594,-669.361 480,-669.361"/>
<text text-anchor="middle" x="537" y="-676.361" font-family="Helvetica,sans-Serif" font-size="10.00">ArcomageGame::Loop</text>
</a>
</g>
</g>
<!-- Node4&#45;&gt;Node10 -->
<g id="edge11" class="edge"><title>Node4&#45;&gt;Node10</title>
<path fill="none" stroke="midnightblue" d="M1233.42,-763.477C1118.94,-772.459 862.484,-784.306 655,-733.861 616.179,-724.422 574.779,-701.519 553.154,-688.439"/>
<polygon fill="midnightblue" stroke="midnightblue" points="1234.03,-766.938 1243.72,-762.646 1233.47,-759.961 1234.03,-766.938"/>
</g>
<!-- Node5&#45;&gt;Node6 -->
<g id="edge5" class="edge"><title>Node5&#45;&gt;Node6</title>
<path fill="none" stroke="midnightblue" d="M1073.82,-689.651C985.446,-701.162 797.878,-715.604 655,-657.861 609.028,-639.282 568.699,-594.717 549.65,-571.119"/>
<polygon fill="midnightblue" stroke="midnightblue" points="1074.4,-693.105 1083.84,-688.302 1073.47,-686.168 1074.4,-693.105"/>
</g>
<!-- Node7 -->
<g id="node7" class="node"><title>Node7</title>
<g id="a_node7"><a xlink:href="../../d4/d06/class_application_1_1_game.html#aaa0ff18388b32b4e6198835a35e000d3" target="_top" xlink:title=" ">
<polygon fill="white" stroke="black" points="316,-300.861 316,-330.861 419,-330.861 419,-300.861 316,-300.861"/>
<text text-anchor="start" x="324" y="-318.861" font-family="Helvetica,sans-Serif" font-size="10.00">Application::Game::</text>
<text text-anchor="middle" x="367.5" y="-307.861" font-family="Helvetica,sans-Serif" font-size="10.00">GameLoop</text>
</a>
</g>
</g>
<!-- Node6&#45;&gt;Node7 -->
<g id="edge6" class="edge"><title>Node6&#45;&gt;Node7</title>
<path fill="none" stroke="midnightblue" d="M519.677,-532.473C485.511,-483.518 407.287,-371.437 378.974,-330.868"/>
<polygon fill="midnightblue" stroke="midnightblue" points="516.929,-534.651 525.522,-540.848 522.669,-530.644 516.929,-534.651"/>
</g>
<!-- Node8 -->
<g id="node8" class="node"><title>Node8</title>
<g id="a_node8"><a xlink:href="../../d4/d06/class_application_1_1_game.html#a013ffd59e8fdf1c0a396da1dbe1681ca" target="_top" xlink:title=" ">
<polygon fill="white" stroke="black" points="156,-306.361 156,-325.361 280,-325.361 280,-306.361 156,-306.361"/>
<text text-anchor="middle" x="218" y="-313.361" font-family="Helvetica,sans-Serif" font-size="10.00">Application::Game::Loop</text>
</a>
</g>
</g>
<!-- Node7&#45;&gt;Node8 -->
<g id="edge7" class="edge"><title>Node7&#45;&gt;Node8</title>
<path fill="none" stroke="midnightblue" d="M305.59,-315.861C297.149,-315.861 288.478,-315.861 280.035,-315.861"/>
<polygon fill="midnightblue" stroke="midnightblue" points="305.739,-319.361 315.739,-315.861 305.739,-312.361 305.739,-319.361"/>
</g>
<!-- Node9 -->
<g id="node9" class="node"><title>Node9</title>
<g id="a_node9"><a xlink:href="../../d4/d06/class_application_1_1_game.html#a96341ca5b54d90adc3ecb3bf0bcd2312" target="_top" xlink:title=" ">
<polygon fill="white" stroke="black" points="0,-306.361 0,-325.361 120,-325.361 120,-306.361 0,-306.361"/>
<text text-anchor="middle" x="60" y="-313.361" font-family="Helvetica,sans-Serif" font-size="10.00">Application::Game::Run</text>
</a>
</g>
</g>
<!-- Node8&#45;&gt;Node9 -->
<g id="edge8" class="edge"><title>Node8&#45;&gt;Node9</title>
<path fill="none" stroke="midnightblue" d="M145.546,-315.861C137.081,-315.861 128.513,-315.861 120.244,-315.861"/>
<polygon fill="midnightblue" stroke="midnightblue" points="145.792,-319.361 155.792,-315.861 145.792,-312.361 145.792,-319.361"/>
</g>
<!-- Node10&#45;&gt;Node7 -->
<g id="edge12" class="edge"><title>Node10&#45;&gt;Node7</title>
<path fill="none" stroke="midnightblue" d="M518.791,-661.941C500.69,-643.303 472.458,-611.729 455,-579.861 406.8,-491.878 379.822,-372.586 371.399,-330.945"/>
<polygon fill="midnightblue" stroke="midnightblue" points="516.348,-664.448 525.867,-669.099 521.326,-659.527 516.348,-664.448"/>
</g>
<!-- Node11&#45;&gt;Node5 -->
<g id="edge25" class="edge"><title>Node11&#45;&gt;Node5</title>
<path fill="none" stroke="midnightblue" d="M1292.41,-435.436C1288.79,-481.208 1273.33,-596.019 1208,-657.861 1196.69,-668.568 1180.86,-674.529 1166.13,-677.837"/>
<polygon fill="midnightblue" stroke="midnightblue" points="1295.91,-435.576 1293.1,-425.361 1288.93,-435.1 1295.91,-435.576"/>
</g>
<!-- Node11&#45;&gt;Node6 -->
<g id="edge32" class="edge"><title>Node11&#45;&gt;Node6</title>
<path fill="none" stroke="midnightblue" d="M1291.16,-435.467C1285.26,-475.192 1265.9,-564.879 1208,-605.861 1107.64,-676.896 773.718,-655.855 655,-623.861 617.117,-613.652 578.87,-587.825 556.855,-571.101"/>
<polygon fill="midnightblue" stroke="midnightblue" points="1294.64,-435.841 1292.51,-425.463 1287.7,-434.905 1294.64,-435.841"/>
</g>
<!-- Node12 -->
<g id="node12" class="node"><title>Node12</title>
<g id="a_node12"><a xlink:href="../../d8/d06/namespace_cast_spell_info_helpers.html#a6fa3b22b4867c28cad6c215c646dc4aa" target="_top" xlink:title=" ">
<polygon fill="white" stroke="black" points="682,-584.861 682,-614.861 792,-614.861 792,-584.861 682,-584.861"/>
<text text-anchor="start" x="690" y="-602.861" font-family="Helvetica,sans-Serif" font-size="10.00">CastSpellInfoHelpers</text>
<text text-anchor="middle" x="737" y="-591.861" font-family="Helvetica,sans-Serif" font-size="10.00">::_427E01_cast_spell</text>
</a>
</g>
</g>
<!-- Node11&#45;&gt;Node12 -->
<g id="edge15" class="edge"><title>Node11&#45;&gt;Node12</title>
<path fill="none" stroke="midnightblue" d="M1289.51,-435.668C1281.24,-470.89 1258.63,-543.728 1208,-575.861 1140.4,-618.767 900.806,-610.041 792.211,-603.595"/>
<polygon fill="midnightblue" stroke="midnightblue" points="1292.98,-436.171 1291.7,-425.653 1286.14,-434.671 1292.98,-436.171"/>
</g>
<!-- Node13 -->
<g id="node13" class="node"><title>Node13</title>
<g id="a_node13"><a xlink:href="../../da/dc7/_indoor_8h.html#a07b99aba77bf867821578ea0151a2f64" target="_top" xlink:title=" ">
<polygon fill="white" stroke="black" points="864,-104.361 864,-123.361 997,-123.361 997,-104.361 864,-104.361"/>
<text text-anchor="middle" x="930.5" y="-111.361" font-family="Helvetica,sans-Serif" font-size="10.00">BLV_ProcessPartyActions</text>
</a>
</g>
</g>
<!-- Node11&#45;&gt;Node13 -->
<g id="edge17" class="edge"><title>Node11&#45;&gt;Node13</title>
<path fill="none" stroke="midnightblue" d="M1293.93,-395.986C1293.85,-345.2 1285.95,-210.15 1208,-145.861 1145.28,-94.128 1045.57,-96.5733 984.581,-104.328"/>
<polygon fill="midnightblue" stroke="midnightblue" points="1290.43,-396.216 1293.84,-406.247 1297.43,-396.28 1290.43,-396.216"/>
</g>
<!-- Node16 -->
<g id="node16" class="node"><title>Node16</title>
<g id="a_node16"><a xlink:href="../../df/d62/_events_8h.html#a968ca1ccd91c32205a907ec6e9cb1e37" target="_top" xlink:title=" ">
<polygon fill="white" stroke="black" points="876.5,-230.361 876.5,-249.361 984.5,-249.361 984.5,-230.361 876.5,-230.361"/>
<text text-anchor="middle" x="930.5" y="-237.361" font-family="Helvetica,sans-Serif" font-size="10.00">check_event_triggers</text>
</a>
</g>
</g>
<!-- Node11&#45;&gt;Node16 -->
<g id="edge21" class="edge"><title>Node11&#45;&gt;Node16</title>
<path fill="none" stroke="midnightblue" d="M1291.68,-396.281C1286.71,-355.415 1268.87,-261.554 1208,-221.861 1171.23,-197.884 1046.37,-217.241 977.697,-230.332"/>
<polygon fill="midnightblue" stroke="midnightblue" points="1288.21,-396.748 1292.77,-406.313 1295.17,-395.994 1288.21,-396.748"/>
</g>
<!-- Node18 -->
<g id="node18" class="node"><title>Node18</title>
<g id="a_node18"><a xlink:href="../../dd/da4/_viewport_8cpp.html#ad5fd167f78f03f865122445749988f17" target="_top" xlink:title=" ">
<polygon fill="white" stroke="black" points="1071,-444.361 1071,-463.361 1179,-463.361 1179,-444.361 1071,-444.361"/>
<text text-anchor="middle" x="1125" y="-451.361" font-family="Helvetica,sans-Serif" font-size="10.00">DecorationInteraction</text>
</a>
</g>
</g>
<!-- Node11&#45;&gt;Node18 -->
<g id="edge26" class="edge"><title>Node11&#45;&gt;Node18</title>
<path fill="none" stroke="midnightblue" d="M1241.77,-427.597C1218.04,-432.98 1190.27,-439.279 1167.88,-444.359"/>
<polygon fill="midnightblue" stroke="midnightblue" points="1242.69,-430.978 1251.66,-425.352 1241.14,-424.151 1242.69,-430.978"/>
</g>
<!-- Node19 -->
<g id="node19" class="node"><title>Node19</title>
<g id="a_node19"><a xlink:href="../../da/dc7/_indoor_8h.html#a610d890adaeca99c4a4e30e2d8c78d50" target="_top" xlink:title=" ">
<polygon fill="white" stroke="black" points="865,-458.861 865,-488.861 996,-488.861 996,-458.861 865,-458.861"/>
<text text-anchor="start" x="873" y="-476.861" font-family="Helvetica,sans-Serif" font-size="10.00">DoInteractionWithTopmost</text>
<text text-anchor="middle" x="930.5" y="-465.861" font-family="Helvetica,sans-Serif" font-size="10.00">ZObject</text>
</a>
</g>
</g>
<!-- Node11&#45;&gt;Node19 -->
<g id="edge31" class="edge"><title>Node11&#45;&gt;Node19</title>
<path fill="none" stroke="midnightblue" d="M1275.88,-432.177C1259.64,-446.029 1234.16,-464.889 1208,-472.861 1137.97,-494.201 1053.26,-490.472 996.203,-483.967"/>
<polygon fill="midnightblue" stroke="midnightblue" points="1278.3,-434.712 1283.49,-425.474 1273.67,-429.461 1278.3,-434.712"/>
</g>
<!-- Node21 -->
<g id="node21" class="node"><title>Node21</title>
<g id="a_node21"><a xlink:href="../../d6/d83/struct_engine.html#aa61c335333d4fc146a9d721c2a3de07f" target="_top" xlink:title=" ">
<polygon fill="white" stroke="black" points="855,-420.361 855,-439.361 1006,-439.361 1006,-420.361 855,-420.361"/>
<text text-anchor="middle" x="930.5" y="-427.361" font-family="Helvetica,sans-Serif" font-size="10.00">Engine::OnGameViewportClick</text>
</a>
</g>
</g>
<!-- Node11&#45;&gt;Node21 -->
<g id="edge35" class="edge"><title>Node11&#45;&gt;Node21</title>
<path fill="none" stroke="midnightblue" d="M1241.7,-417.864C1179.99,-420.251 1076.42,-424.256 1006.09,-426.976"/>
<polygon fill="midnightblue" stroke="midnightblue" points="1242.12,-421.351 1251.97,-417.467 1241.85,-414.356 1242.12,-421.351"/>
</g>
<!-- Node22 -->
<g id="node22" class="node"><title>Node22</title>
<g id="a_node22"><a xlink:href="../../dc/dfb/_outdoor_8h.html#a62e44d7fd493356cb340fe1dc8fe993b" target="_top" xlink:title=" ">
<polygon fill="white" stroke="black" points="862,-344.361 862,-363.361 999,-363.361 999,-344.361 862,-344.361"/>
<text text-anchor="middle" x="930.5" y="-351.361" font-family="Helvetica,sans-Serif" font-size="10.00">ODM_ProcessPartyActions</text>
</a>
</g>
</g>
<!-- Node11&#45;&gt;Node22 -->
<g id="edge33" class="edge"><title>Node11&#45;&gt;Node22</title>
<path fill="none" stroke="midnightblue" d="M1245.72,-403.982C1233.47,-401.129 1220.28,-398.226 1208,-395.861 1137.08,-382.202 1055.22,-370.236 999.084,-362.607"/>
<polygon fill="midnightblue" stroke="midnightblue" points="1245.22,-407.46 1255.76,-406.354 1246.83,-400.647 1245.22,-407.46"/>
</g>
<!-- Node23 -->
<g id="node23" class="node"><title>Node23</title>
<g id="a_node23"><a xlink:href="../../de/dcf/_engine_8h.html#ae7f8027f55be72ffd24ef6904a4a19fa" target="_top" xlink:title=" ">
<polygon fill="white" stroke="black" points="1088.5,-520.361 1088.5,-539.361 1161.5,-539.361 1161.5,-520.361 1088.5,-520.361"/>
<text text-anchor="middle" x="1125" y="-527.361" font-family="Helvetica,sans-Serif" font-size="10.00">OnMapLeave</text>
</a>
</g>
</g>
<!-- Node11&#45;&gt;Node23 -->
<g id="edge36" class="edge"><title>Node11&#45;&gt;Node23</title>
<path fill="none" stroke="midnightblue" d="M1276.13,-433.195C1260.5,-451.684 1235.76,-479.922 1208,-496.861 1188.25,-508.914 1162.12,-515.19 1144.72,-520.29"/>
<polygon fill="midnightblue" stroke="midnightblue" points="1278.89,-435.362 1282.66,-425.461 1273.53,-430.85 1278.89,-435.362"/>
</g>
<!-- Node24 -->
<g id="node24" class="node"><title>Node24</title>
<g id="a_node24"><a xlink:href="../../de/dcf/_engine_8h.html#a509d2bef33e8d17041d5920e9f16cb36" target="_top" xlink:title=" ">
<polygon fill="white" stroke="black" points="896,-382.361 896,-401.361 965,-401.361 965,-382.361 896,-382.361"/>
<text text-anchor="middle" x="930.5" y="-389.361" font-family="Helvetica,sans-Serif" font-size="10.00">OnMapLoad</text>
</a>
</g>
</g>
<!-- Node11&#45;&gt;Node24 -->
<g id="edge39" class="edge"><title>Node11&#45;&gt;Node24</title>
<path fill="none" stroke="midnightblue" d="M1241.77,-412.431C1166.41,-407.435 1028.53,-398.294 965.079,-394.087"/>
<polygon fill="midnightblue" stroke="midnightblue" points="1241.76,-415.939 1251.97,-413.108 1242.23,-408.954 1241.76,-415.939"/>
</g>
<!-- Node27 -->
<g id="node27" class="node"><title>Node27</title>
<g id="a_node27"><a xlink:href="../../d6/d82/_u_i_dialogue_8h.html#a0213da862a4f9421ada12d4bfff8a710" target="_top" xlink:title=" ">
<polygon fill="white" stroke="black" points="665.5,-546.361 665.5,-565.361 808.5,-565.361 808.5,-546.361 665.5,-546.361"/>
<text text-anchor="middle" x="737" y="-553.361" font-family="Helvetica,sans-Serif" font-size="10.00">OnSelectNPCDialogueOption</text>
</a>
</g>
</g>
<!-- Node11&#45;&gt;Node27 -->
<g id="edge45" class="edge"><title>Node11&#45;&gt;Node27</title>
<path fill="none" stroke="midnightblue" d="M1287.69,-435.102C1277.32,-465.616 1252.43,-524.173 1208,-548.861 1141.57,-585.773 923.024,-572.68 808.865,-562.806"/>
<polygon fill="midnightblue" stroke="midnightblue" points="1291.02,-436.172 1290.76,-425.58 1284.36,-434.023 1291.02,-436.172"/>
</g>
<!-- Node28 -->
<g id="node28" class="node"><title>Node28</title>
<g id="a_node28"><a xlink:href="../../de/dcf/_engine_8h.html#aa23f204fc47791b8d9e7e554c349eb8d" target="_top" xlink:title=" ">
<polygon fill="white" stroke="black" points="1098.5,-28.3609 1098.5,-47.3609 1151.5,-47.3609 1151.5,-28.3609 1098.5,-28.3609"/>
<text text-anchor="middle" x="1125" y="-35.3609" font-family="Helvetica,sans-Serif" font-size="10.00">OnTimer</text>
</a>
</g>
</g>
<!-- Node11&#45;&gt;Node28 -->
<g id="edge47" class="edge"><title>Node11&#45;&gt;Node28</title>
<path fill="none" stroke="midnightblue" d="M1291.37,-396.183C1283.72,-329.005 1255.51,-110.165 1208,-60.8609 1193.43,-45.742 1169.8,-40.319 1151.63,-38.4873"/>
<polygon fill="midnightblue" stroke="midnightblue" points="1287.91,-396.706 1292.49,-406.257 1294.86,-395.931 1287.91,-396.706"/>
</g>
<!-- Node31 -->
<g id="node31" class="node"><title>Node31</title>
<g id="a_node31"><a xlink:href="../../de/dcf/_engine_8h.html#ae0618476a317b2f59ef0f5694f51e00b" target="_top" xlink:title=" ">
<polygon fill="white" stroke="black" points="1089,-155.361 1089,-174.361 1161,-174.361 1161,-155.361 1089,-155.361"/>
<text text-anchor="middle" x="1125" y="-162.361" font-family="Helvetica,sans-Serif" font-size="10.00">sub_4452BB</text>
</a>
</g>
</g>
<!-- Node11&#45;&gt;Node31 -->
<g id="edge51" class="edge"><title>Node11&#45;&gt;Node31</title>
<path fill="none" stroke="midnightblue" d="M1291.86,-395.999C1287.14,-352.064 1269.64,-246.019 1208,-188.861 1195.27,-177.061 1177.05,-171.034 1161.02,-167.968"/>
<polygon fill="midnightblue" stroke="midnightblue" points="1288.37,-396.369 1292.82,-405.987 1295.34,-395.698 1288.37,-396.369"/>
</g>
<!-- Node36 -->
<g id="node36" class="node"><title>Node36</title>
<g id="a_node36"><a xlink:href="../../da/dc7/_indoor_8h.html#a91180cf18d91c79b7bc41c630c261cbd" target="_top" xlink:title=" ">
<polygon fill="white" stroke="black" points="1075,-70.3609 1075,-89.3609 1175,-89.3609 1175,-70.3609 1075,-70.3609"/>
<text text-anchor="middle" x="1125" y="-77.3609" font-family="Helvetica,sans-Serif" font-size="10.00">UpdateActors_BLV</text>
</a>
</g>
</g>
<!-- Node11&#45;&gt;Node36 -->
<g id="edge57" class="edge"><title>Node11&#45;&gt;Node36</title>
<path fill="none" stroke="midnightblue" d="M1293.82,-395.96C1293.6,-342.44 1285.63,-193.813 1208,-109.861 1199.25,-100.4 1187.27,-93.9148 1175.17,-89.4717"/>
<polygon fill="midnightblue" stroke="midnightblue" points="1290.32,-396.124 1293.77,-406.142 1297.32,-396.16 1290.32,-396.124"/>
</g>
<!-- Node37 -->
<g id="node37" class="node"><title>Node37</title>
<g id="a_node37"><a xlink:href="../../d0/d5a/struct_sprite_object.html#a9e0d2e0c49fb02c2bf900de59aecff85" target="_top" xlink:title=" ">
<polygon fill="white" stroke="black" points="1057,-231.861 1057,-261.861 1193,-261.861 1193,-231.861 1057,-231.861"/>
<text text-anchor="start" x="1065" y="-249.861" font-family="Helvetica,sans-Serif" font-size="10.00">SpriteObject::UpdateObject</text>
<text text-anchor="middle" x="1125" y="-238.861" font-family="Helvetica,sans-Serif" font-size="10.00">_fn0_BLV</text>
</a>
</g>
</g>
<!-- Node11&#45;&gt;Node37 -->
<g id="edge59" class="edge"><title>Node11&#45;&gt;Node37</title>
<path fill="none" stroke="midnightblue" d="M1287.29,-396.335C1276.36,-365.115 1250.7,-304.098 1208,-270.861 1203.43,-267.308 1198.36,-264.28 1193.03,-261.701"/>
<polygon fill="midnightblue" stroke="midnightblue" points="1284.05,-397.674 1290.55,-406.041 1290.69,-395.448 1284.05,-397.674"/>
</g>
<!-- Node39 -->
<g id="node39" class="node"><title>Node39</title>
<g id="a_node39"><a xlink:href="../../d0/d5a/struct_sprite_object.html#a950e5cedc1e8cfc98d77ba9b3f91071f" target="_top" xlink:title=" ">
<polygon fill="white" stroke="black" points="1057,-280.861 1057,-310.861 1193,-310.861 1193,-280.861 1057,-280.861"/>
<text text-anchor="start" x="1065" y="-298.861" font-family="Helvetica,sans-Serif" font-size="10.00">SpriteObject::UpdateObject</text>
<text text-anchor="middle" x="1125" y="-287.861" font-family="Helvetica,sans-Serif" font-size="10.00">_fn0_ODM</text>
</a>
</g>
</g>
<!-- Node11&#45;&gt;Node39 -->
<g id="edge63" class="edge"><title>Node11&#45;&gt;Node39</title>
<path fill="none" stroke="midnightblue" d="M1280.69,-398.085C1265.43,-378.036 1238.15,-345.655 1208,-325.861 1199,-319.955 1188.69,-315.017 1178.48,-310.965"/>
<polygon fill="midnightblue" stroke="midnightblue" points="1278.06,-400.403 1286.83,-406.339 1283.67,-396.226 1278.06,-400.403"/>
</g>
<!-- Node12&#45;&gt;Node6 -->
<g id="edge16" class="edge"><title>Node12&#45;&gt;Node6</title>
<path fill="none" stroke="midnightblue" d="M671.779,-585.59C644.829,-579.601 613.939,-572.736 588.636,-567.113"/>
<polygon fill="midnightblue" stroke="midnightblue" points="671.374,-589.085 681.896,-587.838 672.893,-582.252 671.374,-589.085"/>
</g>
<!-- Node14 -->
<g id="node14" class="node"><title>Node14</title>
<g id="a_node14"><a xlink:href="../../da/dc7/_indoor_8h.html#a7d511837933d59eeeccfc25275a366d8" target="_top" xlink:title=" ">
<polygon fill="white" stroke="black" points="660,-211.361 660,-230.361 814,-230.361 814,-211.361 660,-211.361"/>
<text text-anchor="middle" x="737" y="-218.361" font-family="Helvetica,sans-Serif" font-size="10.00">BLV_UpdateUserInputAndOther</text>
</a>
</g>
</g>
<!-- Node13&#45;&gt;Node14 -->
<g id="edge18" class="edge"><title>Node13&#45;&gt;Node14</title>
<path fill="none" stroke="midnightblue" d="M865.783,-127.139C862.026,-128.824 858.398,-130.722 855,-132.861 833.906,-146.137 838.216,-159.987 819,-175.861 801.016,-190.717 777.419,-203.18 760.336,-211.196"/>
<polygon fill="midnightblue" stroke="midnightblue" points="867.311,-130.299 875.33,-123.375 864.743,-123.787 867.311,-130.299"/>
</g>
<!-- Node15 -->
<g id="node15" class="node"><title>Node15</title>
<g id="a_node15"><a xlink:href="../../de/dcf/_engine_8h.html#a73fe5e8d7dc6ec78e5cc180d1915341b" target="_top" xlink:title=" ">
<polygon fill="white" stroke="black" points="482,-237.861 482,-267.861 592,-267.861 592,-237.861 482,-237.861"/>
<text text-anchor="start" x="490" y="-255.861" font-family="Helvetica,sans-Serif" font-size="10.00">UpdateUserInput_and</text>
<text text-anchor="middle" x="537" y="-244.861" font-family="Helvetica,sans-Serif" font-size="10.00">_MapSpecificStuff</text>
</a>
</g>
</g>
<!-- Node14&#45;&gt;Node15 -->
<g id="edge19" class="edge"><title>Node14&#45;&gt;Node15</title>
<path fill="none" stroke="midnightblue" d="M667.165,-231.986C642.637,-235.95 615.378,-240.355 592.248,-244.094"/>
<polygon fill="midnightblue" stroke="midnightblue" points="667.816,-235.426 677.13,-230.375 666.699,-228.516 667.816,-235.426"/>
</g>
<!-- Node15&#45;&gt;Node7 -->
<g id="edge20" class="edge"><title>Node15&#45;&gt;Node7</title>
<path fill="none" stroke="midnightblue" d="M474.283,-271.101C467.737,-273.275 461.208,-275.548 455,-277.861 436.709,-284.676 416.732,-293.366 400.589,-300.715"/>
<polygon fill="midnightblue" stroke="midnightblue" points="475.421,-274.411 483.849,-267.991 473.257,-267.754 475.421,-274.411"/>
</g>
<!-- Node16&#45;&gt;Node14 -->
<g id="edge22" class="edge"><title>Node16&#45;&gt;Node14</title>
<path fill="none" stroke="midnightblue" d="M866.245,-233.585C849.573,-231.931 831.411,-230.129 814.138,-228.415"/>
<polygon fill="midnightblue" stroke="midnightblue" points="866.114,-237.089 876.411,-234.594 866.805,-230.123 866.114,-237.089"/>
</g>
<!-- Node17 -->
<g id="node17" class="node"><title>Node17</title>
<g id="a_node17"><a xlink:href="../../dc/dfb/_outdoor_8h.html#aeedbd3470634fbb22ebda28d2f8006e4" target="_top" xlink:title=" ">
<polygon fill="white" stroke="black" points="658,-249.361 658,-268.361 816,-268.361 816,-249.361 658,-249.361"/>
<text text-anchor="middle" x="737" y="-256.361" font-family="Helvetica,sans-Serif" font-size="10.00">ODM_UpdateUserInputAndOther</text>
</a>
</g>
</g>
<!-- Node16&#45;&gt;Node17 -->
<g id="edge23" class="edge"><title>Node16&#45;&gt;Node17</title>
<path fill="none" stroke="midnightblue" d="M866.147,-246.147C850.197,-247.729 832.887,-249.447 816.3,-251.092"/>
<polygon fill="midnightblue" stroke="midnightblue" points="866.805,-249.599 876.411,-245.128 866.114,-242.633 866.805,-249.599"/>
</g>
<!-- Node17&#45;&gt;Node15 -->
<g id="edge24" class="edge"><title>Node17&#45;&gt;Node15</title>
<path fill="none" stroke="midnightblue" d="M647.633,-256.183C628.756,-255.611 609.356,-255.023 592.223,-254.504"/>
<polygon fill="midnightblue" stroke="midnightblue" points="647.644,-259.685 657.745,-256.49 647.856,-252.688 647.644,-259.685"/>
</g>
<!-- Node18&#45;&gt;Node19 -->
<g id="edge27" class="edge"><title>Node18&#45;&gt;Node19</title>
<path fill="none" stroke="midnightblue" d="M1060.89,-460.417C1040.11,-462.577 1016.98,-464.98 996.085,-467.151"/>
<polygon fill="midnightblue" stroke="midnightblue" points="1061.3,-463.894 1070.89,-459.379 1060.58,-456.931 1061.3,-463.894"/>
</g>
<!-- Node18&#45;&gt;Node21 -->
<g id="edge30" class="edge"><title>Node18&#45;&gt;Node21</title>
<path fill="none" stroke="midnightblue" d="M1060.8,-445.981C1043.29,-443.799 1024.13,-441.41 1006.05,-439.156"/>
<polygon fill="midnightblue" stroke="midnightblue" points="1060.53,-449.475 1070.89,-447.239 1061.4,-442.529 1060.53,-449.475"/>
</g>
<!-- Node20 -->
<g id="node20" class="node"><title>Node20</title>
<g id="a_node20"><a xlink:href="../../d4/d06/class_application_1_1_game.html#abdee85389dd132c251e41e1b953b5ced" target="_top" xlink:title=" ">
<polygon fill="white" stroke="black" points="685.5,-458.861 685.5,-488.861 788.5,-488.861 788.5,-458.861 685.5,-458.861"/>
<text text-anchor="start" x="693.5" y="-476.861" font-family="Helvetica,sans-Serif" font-size="10.00">Application::Game::</text>
<text text-anchor="middle" x="737" y="-465.861" font-family="Helvetica,sans-Serif" font-size="10.00">OnPressSpace</text>
</a>
</g>
</g>
<!-- Node19&#45;&gt;Node20 -->
<g id="edge28" class="edge"><title>Node19&#45;&gt;Node20</title>
<path fill="none" stroke="midnightblue" d="M854.878,-473.861C832.709,-473.861 808.949,-473.861 788.68,-473.861"/>
<polygon fill="midnightblue" stroke="midnightblue" points="854.934,-477.361 864.934,-473.861 854.934,-470.361 854.934,-477.361"/>
</g>
<!-- Node20&#45;&gt;Node6 -->
<g id="edge29" class="edge"><title>Node20&#45;&gt;Node6</title>
<path fill="none" stroke="midnightblue" d="M684.174,-492.498C674.439,-496.157 664.376,-500.046 655,-503.861 626.176,-515.59 593.886,-530.043 570.543,-540.731"/>
<polygon fill="midnightblue" stroke="midnightblue" points="685.614,-495.697 693.764,-488.928 683.171,-489.137 685.614,-495.697"/>
</g>
<!-- Node22&#45;&gt;Node17 -->
<g id="edge34" class="edge"><title>Node22&#45;&gt;Node17</title>
<path fill="none" stroke="midnightblue" d="M910.611,-337.566C889.603,-320.27 853.997,-293.341 819,-277.861 810.414,-274.063 800.966,-270.969 791.647,-268.466"/>
<polygon fill="midnightblue" stroke="midnightblue" points="908.51,-340.372 918.423,-344.112 913.006,-335.007 908.51,-340.372"/>
</g>
<!-- Node23&#45;&gt;Node6 -->
<g id="edge37" class="edge"><title>Node23&#45;&gt;Node6</title>
<path fill="none" stroke="midnightblue" d="M1078.08,-528.329C993.972,-526.014 809.609,-523.227 655,-536.861 633.169,-538.786 609.252,-542.398 588.765,-545.96"/>
<polygon fill="midnightblue" stroke="midnightblue" points="1078.22,-531.834 1088.31,-528.622 1078.42,-524.837 1078.22,-531.834"/>
</g>
<!-- Node23&#45;&gt;Node11 -->
<g id="edge38" class="edge"><title>Node23&#45;&gt;Node11</title>
<path fill="none" stroke="midnightblue" d="M1171.37,-529.792C1183.81,-526.574 1196.91,-521.628 1208,-514.861 1246.45,-491.399 1279.11,-446.259 1289.8,-425.578"/>
<polygon fill="midnightblue" stroke="midnightblue" points="1170.57,-526.385 1161.59,-532.005 1172.12,-533.212 1170.57,-526.385"/>
</g>
<!-- Node24&#45;&gt;Node6 -->
<g id="edge44" class="edge"><title>Node24&#45;&gt;Node6</title>
<path fill="none" stroke="midnightblue" d="M885.608,-393.836C829.348,-397.92 730.111,-410.446 655,-448.861 609.908,-471.923 569.193,-517.11 549.858,-540.703"/>
<polygon fill="midnightblue" stroke="midnightblue" points="886.188,-397.305 895.933,-393.147 885.722,-390.321 886.188,-397.305"/>
</g>
<!-- Node25 -->
<g id="node25" class="node"><title>Node25</title>
<g id="a_node25"><a xlink:href="../../de/dcf/_engine_8h.html#a7ac85aa3f91f16b9f3007f4d7f1b419a" target="_top" xlink:title=" ">
<polygon fill="white" stroke="black" points="693,-287.361 693,-306.361 781,-306.361 781,-287.361 693,-287.361"/>
<text text-anchor="middle" x="737" y="-294.361" font-family="Helvetica,sans-Serif" font-size="10.00">DoPrepareWorld</text>
</a>
</g>
</g>
<!-- Node24&#45;&gt;Node25 -->
<g id="edge40" class="edge"><title>Node24&#45;&gt;Node25</title>
<path fill="none" stroke="midnightblue" d="M885.98,-383.299C875.607,-380.571 864.729,-377.123 855,-372.861 813.512,-354.686 770.206,-322.511 749.875,-306.487"/>
<polygon fill="midnightblue" stroke="midnightblue" points="885.17,-386.704 895.717,-385.698 886.845,-379.908 885.17,-386.704"/>
</g>
<!-- Node25&#45;&gt;Node7 -->
<g id="edge41" class="edge"><title>Node25&#45;&gt;Node7</title>
<path fill="none" stroke="midnightblue" d="M682.744,-307.364C662.83,-310.802 639.961,-314.17 619,-315.861 550.075,-321.421 470.136,-320.074 419.452,-318.256"/>
<polygon fill="midnightblue" stroke="midnightblue" points="683.628,-310.762 692.863,-305.569 682.406,-303.87 683.628,-310.762"/>
</g>
<!-- Node26 -->
<g id="node26" class="node"><title>Node26</title>
<g id="a_node26"><a xlink:href="../../de/dcf/_engine_8h.html#a287d13406d42b0831d9eb7a64d368202" target="_top" xlink:title=" ">
<polygon fill="white" stroke="black" points="499,-287.361 499,-306.361 575,-306.361 575,-287.361 499,-287.361"/>
<text text-anchor="middle" x="537" y="-294.361" font-family="Helvetica,sans-Serif" font-size="10.00">PrepareWorld</text>
</a>
</g>
</g>
<!-- Node25&#45;&gt;Node26 -->
<g id="edge42" class="edge"><title>Node25&#45;&gt;Node26</title>
<path fill="none" stroke="midnightblue" d="M682.314,-296.861C648.321,-296.861 605.239,-296.861 575.031,-296.861"/>
<polygon fill="midnightblue" stroke="midnightblue" points="682.548,-300.361 692.548,-296.861 682.548,-293.361 682.548,-300.361"/>
</g>
<!-- Node26&#45;&gt;Node7 -->
<g id="edge43" class="edge"><title>Node26&#45;&gt;Node7</title>
<path fill="none" stroke="midnightblue" d="M488.851,-302.209C467.145,-304.671 441.356,-307.597 419.228,-310.107"/>
<polygon fill="midnightblue" stroke="midnightblue" points="489.285,-305.683 498.826,-301.078 488.496,-298.727 489.285,-305.683"/>
</g>
<!-- Node27&#45;&gt;Node6 -->
<g id="edge46" class="edge"><title>Node27&#45;&gt;Node6</title>
<path fill="none" stroke="midnightblue" d="M655.141,-555.861C632.674,-555.861 608.915,-555.861 588.711,-555.861"/>
<polygon fill="midnightblue" stroke="midnightblue" points="655.356,-559.361 665.356,-555.861 655.356,-552.361 655.356,-559.361"/>
</g>
<!-- Node28&#45;&gt;Node7 -->
<g id="edge48" class="edge"><title>Node28&#45;&gt;Node7</title>
<path fill="none" stroke="midnightblue" d="M1088.35,-29.6212C1009.01,-12.7479 812.46,20.9373 655,-18.8609 557.059,-43.6157 524.04,-53.1132 455,-126.861 405.43,-179.811 380.376,-266.126 371.898,-300.77"/>
<polygon fill="midnightblue" stroke="midnightblue" points="1087.79,-33.0829 1098.31,-31.7841 1089.28,-26.2422 1087.79,-33.0829"/>
</g>
<!-- Node29 -->
<g id="node29" class="node"><title>Node29</title>
<g id="a_node29"><a xlink:href="../../d6/d83/struct_engine.html#ae384c8c86225ff402d4540706340f820" target="_top" xlink:title=" ">
<polygon fill="white" stroke="black" points="873,-28.3609 873,-47.3609 988,-47.3609 988,-28.3609 873,-28.3609"/>
<text text-anchor="middle" x="930.5" y="-35.3609" font-family="Helvetica,sans-Serif" font-size="10.00">Engine::MM7_Initialize</text>
</a>
</g>
</g>
<!-- Node28&#45;&gt;Node29 -->
<g id="edge49" class="edge"><title>Node28&#45;&gt;Node29</title>
<path fill="none" stroke="midnightblue" d="M1088.27,-37.8609C1060.15,-37.8609 1020.43,-37.8609 988.014,-37.8609"/>
<polygon fill="midnightblue" stroke="midnightblue" points="1088.44,-41.361 1098.44,-37.8609 1088.44,-34.361 1088.44,-41.361"/>
</g>
<!-- Node30 -->
<g id="node30" class="node"><title>Node30</title>
<g id="a_node30"><a xlink:href="../../d6/d83/struct_engine.html#a4e6fbae6c087bbfa2b1e20f11c46460d" target="_top" xlink:title=" ">
<polygon fill="white" stroke="black" points="693,-28.3609 693,-47.3609 781,-47.3609 781,-28.3609 693,-28.3609"/>
<text text-anchor="middle" x="737" y="-35.3609" font-family="Helvetica,sans-Serif" font-size="10.00">Engine::Initialize</text>
</a>
</g>
</g>
<!-- Node29&#45;&gt;Node30 -->
<g id="edge50" class="edge"><title>Node29&#45;&gt;Node30</title>
<path fill="none" stroke="midnightblue" d="M862.644,-37.8609C835.603,-37.8609 805.17,-37.8609 781.145,-37.8609"/>
<polygon fill="midnightblue" stroke="midnightblue" points="862.821,-41.361 872.821,-37.8609 862.821,-34.361 862.821,-41.361"/>
</g>
<!-- Node31&#45;&gt;Node6 -->
<g id="edge52" class="edge"><title>Node31&#45;&gt;Node6</title>
<path fill="none" stroke="midnightblue" d="M1095.55,-179.655C1078.33,-189.724 1056.89,-204.376 1042,-221.861 1018.03,-250.011 1034.64,-273.471 1006,-296.861 952.403,-340.639 921.544,-315.861 855,-334.861 765.257,-360.484 730.957,-344.631 655,-398.861 600.775,-437.575 560.999,-509.039 545.332,-540.411"/>
<polygon fill="midnightblue" stroke="midnightblue" points="1097.62,-182.504 1104.61,-174.543 1094.18,-176.406 1097.62,-182.504"/>
</g>
<!-- Node32 -->
<g id="node32" class="node"><title>Node32</title>
<g id="a_node32"><a xlink:href="../../d7/dc5/class_mouse.html#ae90d9b5b37b0f4612f6225982e1da13e" target="_top" xlink:title=" ">
<polygon fill="white" stroke="black" points="857.5,-142.361 857.5,-161.361 1003.5,-161.361 1003.5,-142.361 857.5,-142.361"/>
<text text-anchor="middle" x="930.5" y="-149.361" font-family="Helvetica,sans-Serif" font-size="10.00">Mouse::UI_OnMouseLeftClick</text>
</a>
</g>
</g>
<!-- Node31&#45;&gt;Node32 -->
<g id="edge53" class="edge"><title>Node31&#45;&gt;Node32</title>
<path fill="none" stroke="midnightblue" d="M1078.5,-161.788C1056.18,-160.281 1028.75,-158.429 1003.66,-156.734"/>
<polygon fill="midnightblue" stroke="midnightblue" points="1078.48,-165.295 1088.69,-162.477 1078.95,-158.311 1078.48,-165.295"/>
</g>
<!-- Node35 -->
<g id="node35" class="node"><title>Node35</title>
<g id="a_node35"><a xlink:href="../../d9/d04/class_g_u_i_window___generic_dialogue.html#ab245a574a57ec2a498aa9d5823b37bc3" target="_top" xlink:title=" ">
<polygon fill="white" stroke="black" points="858.5,-180.861 858.5,-210.861 1002.5,-210.861 1002.5,-180.861 858.5,-180.861"/>
<text text-anchor="start" x="866.5" y="-198.861" font-family="Helvetica,sans-Serif" font-size="10.00">GUIWindow_GenericDialogue</text>
<text text-anchor="middle" x="930.5" y="-187.861" font-family="Helvetica,sans-Serif" font-size="10.00">::Update</text>
</a>
</g>
</g>
<!-- Node31&#45;&gt;Node35 -->
<g id="edge56" class="edge"><title>Node31&#45;&gt;Node35</title>
<path fill="none" stroke="midnightblue" d="M1078.71,-172.155C1056.11,-175.793 1028.25,-180.28 1002.87,-184.368"/>
<polygon fill="midnightblue" stroke="midnightblue" points="1079.38,-175.592 1088.69,-170.547 1078.26,-168.681 1079.38,-175.592"/>
</g>
<!-- Node33 -->
<g id="node33" class="node"><title>Node33</title>
<g id="a_node33"><a xlink:href="../../dc/d12/class_application_1_1_game_window_handler.html#af9a37c1601da3c213099e219685bdcd8" target="_top" xlink:title=" ">
<polygon fill="white" stroke="black" points="655,-136.861 655,-166.861 819,-166.861 819,-136.861 655,-136.861"/>
<text text-anchor="start" x="663" y="-154.861" font-family="Helvetica,sans-Serif" font-size="10.00">Application::GameWindowHandler</text>
<text text-anchor="middle" x="737" y="-143.861" font-family="Helvetica,sans-Serif" font-size="10.00">::OnMouseLeftClick</text>
</a>
</g>
</g>
<!-- Node32&#45;&gt;Node33 -->
<g id="edge54" class="edge"><title>Node32&#45;&gt;Node33</title>
<path fill="none" stroke="midnightblue" d="M847.301,-151.861C837.938,-151.861 828.398,-151.861 819.05,-151.861"/>
<polygon fill="midnightblue" stroke="midnightblue" points="847.375,-155.361 857.375,-151.861 847.375,-148.361 847.375,-155.361"/>
</g>
<!-- Node34 -->
<g id="node34" class="node"><title>Node34</title>
<g id="a_node34"><a xlink:href="../../dc/d12/class_application_1_1_game_window_handler.html#a2df0d1231e06d8ed14b7927e0ad21637" target="_top" xlink:title=" ">
<polygon fill="white" stroke="black" points="455,-136.861 455,-166.861 619,-166.861 619,-136.861 455,-136.861"/>
<text text-anchor="start" x="463" y="-154.861" font-family="Helvetica,sans-Serif" font-size="10.00">Application::GameWindowHandler</text>
<text text-anchor="middle" x="537" y="-143.861" font-family="Helvetica,sans-Serif" font-size="10.00">::OnMouseLeftDoubleClick</text>
</a>
</g>
</g>
<!-- Node33&#45;&gt;Node34 -->
<g id="edge55" class="edge"><title>Node33&#45;&gt;Node34</title>
<path fill="none" stroke="midnightblue" d="M644.637,-151.861C636.183,-151.861 627.654,-151.861 619.3,-151.861"/>
<polygon fill="midnightblue" stroke="midnightblue" points="644.895,-155.361 654.895,-151.861 644.894,-148.361 644.895,-155.361"/>
</g>
<!-- Node36&#45;&gt;Node14 -->
<g id="edge58" class="edge"><title>Node36&#45;&gt;Node14</title>
<path fill="none" stroke="midnightblue" d="M1074.8,-68.3847C1016.83,-57.8347 920.184,-49.869 855,-94.8609 822.578,-117.24 845.592,-146.794 819,-175.861 804.124,-192.122 781.972,-203.866 764.592,-211.271"/>
<polygon fill="midnightblue" stroke="midnightblue" points="1074.32,-71.8578 1084.8,-70.302 1075.64,-64.9828 1074.32,-71.8578"/>
</g>
<!-- Node38 -->
<g id="node38" class="node"><title>Node38</title>
<g id="a_node38"><a xlink:href="../../da/d20/_i_render_8h.html#a522912d67446895b0a03d01837b75a99" target="_top" xlink:title=" ">
<polygon fill="white" stroke="black" points="890,-268.361 890,-287.361 971,-287.361 971,-268.361 890,-268.361"/>
<text text-anchor="middle" x="930.5" y="-275.361" font-family="Helvetica,sans-Serif" font-size="10.00">UpdateObjects</text>
</a>
</g>
</g>
<!-- Node37&#45;&gt;Node38 -->
<g id="edge60" class="edge"><title>Node37&#45;&gt;Node38</title>
<path fill="none" stroke="midnightblue" d="M1046.73,-259.304C1020.8,-263.481 992.944,-267.966 971.12,-271.481"/>
<polygon fill="midnightblue" stroke="midnightblue" points="1047.63,-262.705 1056.94,-257.66 1046.51,-255.794 1047.63,-262.705"/>
</g>
<!-- Node38&#45;&gt;Node14 -->
<g id="edge61" class="edge"><title>Node38&#45;&gt;Node14</title>
<path fill="none" stroke="midnightblue" d="M880.081,-267.008C871.606,-264.652 862.968,-261.93 855,-258.861 838.117,-252.358 835.945,-246.201 819,-239.861 809.124,-236.166 798.294,-233.033 787.858,-230.443"/>
<polygon fill="midnightblue" stroke="midnightblue" points="879.343,-270.433 889.905,-269.605 881.132,-263.665 879.343,-270.433"/>
</g>
<!-- Node38&#45;&gt;Node17 -->
<g id="edge62" class="edge"><title>Node38&#45;&gt;Node17</title>
<path fill="none" stroke="midnightblue" d="M879.737,-272.924C860.397,-271.005 837.773,-268.76 816.352,-266.635"/>
<polygon fill="midnightblue" stroke="midnightblue" points="879.524,-276.42 889.821,-273.924 880.216,-269.454 879.524,-276.42"/>
</g>
<!-- Node39&#45;&gt;Node38 -->
<g id="edge64" class="edge"><title>Node39&#45;&gt;Node38</title>
<path fill="none" stroke="midnightblue" d="M1046.73,-288.636C1020.8,-286.211 992.944,-283.606 971.12,-281.566"/>
<polygon fill="midnightblue" stroke="midnightblue" points="1046.66,-292.144 1056.94,-289.591 1047.31,-285.175 1046.66,-292.144"/>
</g>
<!-- Node41 -->
<g id="node41" class="node"><title>Node41</title>
<g id="a_node41"><a xlink:href="../../d4/d38/class_g_u_i_window.html#af4310ff80f340b9a9c9b3249564a0960" target="_top" xlink:title=" ">
<polygon fill="white" stroke="black" points="1042,-843.361 1042,-862.361 1208,-862.361 1208,-843.361 1042,-843.361"/>
<text text-anchor="middle" x="1125" y="-850.361" font-family="Helvetica,sans-Serif" font-size="10.00">GUIWindow::HouseDialogManager</text>
</a>
</g>
</g>
<!-- Node40&#45;&gt;Node41 -->
<g id="edge66" class="edge"><title>Node40&#45;&gt;Node41</title>
<path fill="none" stroke="midnightblue" d="M1248.69,-866.778C1236.21,-865.363 1222.25,-863.779 1208.34,-862.2"/>
<polygon fill="midnightblue" stroke="midnightblue" points="1248.46,-870.275 1258.79,-867.924 1249.25,-863.319 1248.46,-870.275"/>
</g>
<!-- Node42 -->
<g id="node42" class="node"><title>Node42</title>
<g id="a_node42"><a xlink:href="../../d8/ddd/class_g_u_i_window___house.html#a27de5de37c96fb176d5d12465e59ccc7" target="_top" xlink:title=" ">
<polygon fill="white" stroke="black" points="862,-843.361 862,-862.361 999,-862.361 999,-843.361 862,-843.361"/>
<text text-anchor="middle" x="930.5" y="-850.361" font-family="Helvetica,sans-Serif" font-size="10.00">GUIWindow_House::Update</text>
</a>
</g>
</g>
<!-- Node41&#45;&gt;Node42 -->
<g id="edge67" class="edge"><title>Node41&#45;&gt;Node42</title>
<path fill="none" stroke="midnightblue" d="M1031.76,-852.861C1020.79,-852.861 1009.75,-852.861 999.213,-852.861"/>
<polygon fill="midnightblue" stroke="midnightblue" points="1031.8,-856.361 1041.8,-852.861 1031.8,-849.361 1031.8,-856.361"/>
</g>
<!-- Node43&#45;&gt;Node41 -->
<g id="edge69" class="edge"><title>Node43&#45;&gt;Node41</title>
<path fill="none" stroke="midnightblue" d="M1237.31,-840.235C1227.9,-841.303 1217.96,-842.429 1208.06,-843.552"/>
<polygon fill="midnightblue" stroke="midnightblue" points="1237.74,-843.708 1247.29,-839.103 1236.96,-836.753 1237.74,-843.708"/>
</g>
</g>
</svg>
