<?xml version="1.0" encoding="UTF-8" standalone="no"?>
<!DOCTYPE svg PUBLIC "-//W3C//DTD SVG 1.1//EN"
 "http://www.w3.org/Graphics/SVG/1.1/DTD/svg11.dtd">
<!-- Generated by graphviz version 2.38.0 (20140413.2041)
 -->
<!-- Title: Party::GivePartyExp Pages: 1 -->
<!--zoomable 522 -->
<svg id="main" version="1.1" xmlns="http://www.w3.org/2000/svg" xmlns:xlink="http://www.w3.org/1999/xlink" xml:space="preserve" onload="init(evt)">
<style type="text/css"><![CDATA[
.edge:hover path { stroke: red; }
.edge:hover polygon { stroke: red; fill: red; }
]]></style>
<script type="text/javascript"><![CDATA[
var edges = document.getElementsByTagName('g');
if (edges && edges.length) {
  for (var i=0;i<edges.length;i++) {
    if (edges[i].id.substr(0,4)=='edge') {
      edges[i].setAttribute('class','edge');
    }
  }
}
]]></script>
        <defs>
                <circle id="rim" cx="0" cy="0" r="7"/>
                <circle id="rim2" cx="0" cy="0" r="3.5"/>
                <g id="zoomPlus">
                        <use xlink:href="#rim" fill="#404040">
                                <set attributeName="fill" to="#808080" begin="zoomplus.mouseover" end="zoomplus.mouseout"/>
                        </use>
                        <path d="M-4,0h8M0,-4v8" fill="none" stroke="white" stroke-width="1.5" pointer-events="none"/>
                </g>
                <g id="zoomMin">
                        <use xlink:href="#rim" fill="#404040">
                                <set attributeName="fill" to="#808080" begin="zoomminus.mouseover" end="zoomminus.mouseout"/>
                        </use>
                        <path d="M-4,0h8" fill="none" stroke="white" stroke-width="1.5" pointer-events="none"/>
                </g>
                <g id="dirArrow">
                        <path fill="none" stroke="white" stroke-width="1.5" d="M0,-3.0v7 M-2.5,-0.5L0,-3.0L2.5,-0.5"/>
                </g>
               <g id="resetDef">
                       <use xlink:href="#rim2" fill="#404040">
                               <set attributeName="fill" to="#808080" begin="reset.mouseover" end="reset.mouseout"/>
                       </use>
               </g>
        </defs>

<script type="text/javascript">
var viewWidth = 2044;
var viewHeight = 522;
var sectionId = 'dynsection-25';
</script>
<script xlink:href="../../svgpan.js"/>
<svg id="graph" class="graph">
<g id="viewport">
<title>Party::GivePartyExp</title>
<polygon fill="white" stroke="none" points="-4,4 -4,-517.666 2040,-517.666 2040,4 -4,4"/>
<!-- Node1 -->
<g id="node1" class="node"><title>Node1</title>
<g id="a_node1"><a xlink:title=" ">
<polygon fill="#bfbfbf" stroke="black" points="1931,-229 1931,-248 2036,-248 2036,-229 1931,-229"/>
<text text-anchor="middle" x="1983.5" y="-236" font-family="Helvetica,sans-Serif" font-size="10.00">Party::GivePartyExp</text>
</a>
</g>
</g>
<!-- Node2 -->
<g id="node2" class="node"><title>Node2</title>
<g id="a_node2"><a xlink:href="../../da/d35/struct_actor.html#a28c39c9980f6f643fa3e2d03d68ce4e4" target="_top" xlink:title=" ">
<polygon fill="white" stroke="black" points="1755,-278.5 1755,-308.5 1895,-308.5 1895,-278.5 1755,-278.5"/>
<text text-anchor="start" x="1763" y="-296.5" font-family="Helvetica,sans-Serif" font-size="10.00">Actor::DamageMonsterFrom</text>
<text text-anchor="middle" x="1825" y="-285.5" font-family="Helvetica,sans-Serif" font-size="10.00">Party</text>
</a>
</g>
</g>
<!-- Node1&#45;&gt;Node2 -->
<g id="edge1" class="edge"><title>Node1&#45;&gt;Node2</title>
<path fill="none" stroke="midnightblue" d="M1945.51,-251.499C1922.52,-259.578 1892.88,-269.996 1868.87,-278.435"/>
<polygon fill="midnightblue" stroke="midnightblue" points="1946.97,-254.698 1955.24,-248.08 1944.64,-248.094 1946.97,-254.698"/>
</g>
<!-- Node4 -->
<g id="node4" class="node"><title>Node4</title>
<g id="a_node4"><a xlink:href="../../d4/d06/class_application_1_1_game.html#a3f65e3f0ef1a9114fb3dea275e52442e" target="_top" xlink:title=" ">
<polygon fill="white" stroke="black" points="1021.5,-454.5 1021.5,-484.5 1124.5,-484.5 1124.5,-454.5 1021.5,-454.5"/>
<text text-anchor="start" x="1029.5" y="-472.5" font-family="Helvetica,sans-Serif" font-size="10.00">Application::Game::</text>
<text text-anchor="middle" x="1073" y="-461.5" font-family="Helvetica,sans-Serif" font-size="10.00">EventLoop</text>
</a>
</g>
</g>
<!-- Node1&#45;&gt;Node4 -->
<g id="edge53" class="edge"><title>Node1&#45;&gt;Node4</title>
<path fill="none" stroke="midnightblue" d="M1971.33,-256.86C1932.53,-318.095 1796.79,-511.5 1630,-511.5 1630,-511.5 1630,-511.5 1423,-511.5 1316.2,-511.5 1192.33,-491.873 1124.63,-479.453"/>
<polygon fill="midnightblue" stroke="midnightblue" points="1974.4,-258.555 1976.72,-248.216 1968.46,-254.853 1974.4,-258.555"/>
</g>
<!-- Node13 -->
<g id="node13" class="node"><title>Node13</title>
<g id="a_node13"><a xlink:href="../../da/d35/struct_actor.html#a8ad58b6020b186e538e3e033f81c073a" target="_top" xlink:title=" ">
<polygon fill="white" stroke="black" points="850,-268 850,-287 959,-287 959,-268 850,-268"/>
<text text-anchor="middle" x="904.5" y="-275" font-family="Helvetica,sans-Serif" font-size="10.00">Actor::UpdateActorAI</text>
</a>
</g>
</g>
<!-- Node1&#45;&gt;Node13 -->
<g id="edge56" class="edge"><title>Node1&#45;&gt;Node13</title>
<path fill="none" stroke="midnightblue" d="M1920.52,-234.64C1765.91,-226.039 1350.99,-209.286 1009,-252.5 984.425,-255.605 957.219,-262.309 936.87,-267.994"/>
<polygon fill="midnightblue" stroke="midnightblue" points="1920.58,-238.149 1930.77,-235.219 1920.98,-231.16 1920.58,-238.149"/>
</g>
<!-- Node35 -->
<g id="node35" class="node"><title>Node35</title>
<g id="a_node35"><a xlink:href="../../d1/d39/_player_8h.html#a296914f5ab9688709f8a797e52c4866b" target="_top" xlink:title=" ">
<polygon fill="white" stroke="black" points="1756,-185 1756,-204 1894,-204 1894,-185 1756,-185"/>
<text text-anchor="middle" x="1825" y="-192" font-family="Helvetica,sans-Serif" font-size="10.00">DamagePlayerFromMonster</text>
</a>
</g>
</g>
<!-- Node1&#45;&gt;Node35 -->
<g id="edge50" class="edge"><title>Node1&#45;&gt;Node35</title>
<path fill="none" stroke="midnightblue" d="M1938.6,-226.159C1913.68,-219.151 1882.95,-210.511 1859.89,-204.029"/>
<polygon fill="midnightblue" stroke="midnightblue" points="1937.97,-229.615 1948.54,-228.953 1939.86,-222.877 1937.97,-229.615"/>
</g>
<!-- Node36 -->
<g id="node36" class="node"><title>Node36</title>
<g id="a_node36"><a xlink:href="../../d3/da4/class_win_api_window.html#ac7dffd1a9acce9462f7373d678d79f0a" target="_top" xlink:title=" ">
<polygon fill="white" stroke="black" points="1755,-125 1755,-144 1895,-144 1895,-125 1755,-125"/>
<text text-anchor="middle" x="1825" y="-132" font-family="Helvetica,sans-Serif" font-size="10.00">WinApiWindow::OnOSMenu</text>
</a>
</g>
</g>
<!-- Node1&#45;&gt;Node36 -->
<g id="edge54" class="edge"><title>Node1&#45;&gt;Node36</title>
<path fill="none" stroke="midnightblue" d="M1961.65,-222.7C1944.15,-209.627 1918.33,-190.789 1895,-175.5 1877.63,-164.12 1857.11,-152.098 1842.98,-144.036"/>
<polygon fill="midnightblue" stroke="midnightblue" points="1959.89,-225.756 1969.99,-228.962 1964.1,-220.158 1959.89,-225.756"/>
</g>
<!-- Node3 -->
<g id="node3" class="node"><title>Node3</title>
<g id="a_node3"><a xlink:href="../../d8/d06/namespace_cast_spell_info_helpers.html#a6fa3b22b4867c28cad6c215c646dc4aa" target="_top" xlink:title=" ">
<polygon fill="white" stroke="black" points="1369,-378.5 1369,-408.5 1479,-408.5 1479,-378.5 1369,-378.5"/>
<text text-anchor="start" x="1377" y="-396.5" font-family="Helvetica,sans-Serif" font-size="10.00">CastSpellInfoHelpers</text>
<text text-anchor="middle" x="1424" y="-385.5" font-family="Helvetica,sans-Serif" font-size="10.00">::_427E01_cast_spell</text>
</a>
</g>
</g>
<!-- Node2&#45;&gt;Node3 -->
<g id="edge2" class="edge"><title>Node2&#45;&gt;Node3</title>
<path fill="none" stroke="midnightblue" d="M1776.86,-312.145C1758.93,-318.818 1738.19,-326.032 1719,-331.5 1636.47,-355.011 1538.61,-373.907 1479.2,-384.411"/>
<polygon fill="midnightblue" stroke="midnightblue" points="1778.39,-315.311 1786.51,-308.508 1775.92,-308.761 1778.39,-315.311"/>
</g>
<!-- Node8 -->
<g id="node8" class="node"><title>Node8</title>
<g id="a_node8"><a xlink:href="../../d3/db1/struct_player.html#adcd0e965260bb120a6e90b515cc748ac" target="_top" xlink:title=" ">
<polygon fill="white" stroke="black" points="1345,-444.5 1345,-474.5 1503,-474.5 1503,-444.5 1345,-444.5"/>
<text text-anchor="start" x="1353" y="-462.5" font-family="Helvetica,sans-Serif" font-size="10.00">Player::_42ECB5_PlayerAttacks</text>
<text text-anchor="middle" x="1424" y="-451.5" font-family="Helvetica,sans-Serif" font-size="10.00">Actor</text>
</a>
</g>
</g>
<!-- Node2&#45;&gt;Node8 -->
<g id="edge7" class="edge"><title>Node2&#45;&gt;Node8</title>
<path fill="none" stroke="midnightblue" d="M1797.83,-315.045C1777.38,-331.018 1747.72,-352.38 1719,-366.5 1644.77,-402.993 1553.06,-429.311 1492,-444.444"/>
<polygon fill="midnightblue" stroke="midnightblue" points="1800.06,-317.739 1805.72,-308.783 1795.71,-312.254 1800.06,-317.739"/>
</g>
<!-- Node9 -->
<g id="node9" class="node"><title>Node9</title>
<g id="a_node9"><a xlink:href="../../de/dcf/_engine_8h.html#ab2d2969c88180c354c33faf51cf43977" target="_top" xlink:title=" ">
<polygon fill="white" stroke="black" points="1577,-303 1577,-322 1681,-322 1681,-303 1577,-303"/>
<text text-anchor="middle" x="1629" y="-310" font-family="Helvetica,sans-Serif" font-size="10.00">_493938_regenerate</text>
</a>
</g>
</g>
<!-- Node2&#45;&gt;Node9 -->
<g id="edge9" class="edge"><title>Node2&#45;&gt;Node9</title>
<path fill="none" stroke="midnightblue" d="M1744.71,-301.266C1723.27,-303.365 1700.64,-305.582 1681.19,-307.486"/>
<polygon fill="midnightblue" stroke="midnightblue" points="1745.17,-304.737 1754.78,-300.279 1744.49,-297.77 1745.17,-304.737"/>
</g>
<!-- Node21 -->
<g id="node21" class="node"><title>Node21</title>
<g id="a_node21"><a xlink:href="../../de/deb/_actor_8h.html#aa9d9c1bc5e3c38f0827c69299622b850" target="_top" xlink:title=" ">
<polygon fill="white" stroke="black" points="1568,-179.5 1568,-209.5 1690,-209.5 1690,-179.5 1568,-179.5"/>
<text text-anchor="start" x="1576" y="-197.5" font-family="Helvetica,sans-Serif" font-size="10.00">area_of_effect__damage</text>
<text text-anchor="middle" x="1629" y="-186.5" font-family="Helvetica,sans-Serif" font-size="10.00">_evaluate</text>
</a>
</g>
</g>
<!-- Node2&#45;&gt;Node21 -->
<g id="edge28" class="edge"><title>Node2&#45;&gt;Node21</title>
<path fill="none" stroke="midnightblue" d="M1785.52,-273.865C1748.44,-254.939 1693.12,-226.71 1659.42,-209.515"/>
<polygon fill="midnightblue" stroke="midnightblue" points="1784.04,-277.036 1794.54,-278.464 1787.22,-270.801 1784.04,-277.036"/>
</g>
<!-- Node23 -->
<g id="node23" class="node"><title>Node23</title>
<g id="a_node23"><a xlink:href="../../d9/ded/_sprite_object_8cpp.html#acf99fe98d2a583eb9438b8e21bf7ee07" target="_top" xlink:title=" ">
<polygon fill="white" stroke="black" points="1593,-141 1593,-160 1665,-160 1665,-141 1593,-141"/>
<text text-anchor="middle" x="1629" y="-148" font-family="Helvetica,sans-Serif" font-size="10.00">sub_43A97E</text>
</a>
</g>
</g>
<!-- Node2&#45;&gt;Node23 -->
<g id="edge31" class="edge"><title>Node2&#45;&gt;Node23</title>
<path fill="none" stroke="midnightblue" d="M1803.9,-270.514C1790.05,-254.598 1771.28,-232.873 1755,-213.5 1738.75,-194.154 1740.57,-182.657 1719,-169.5 1702.95,-159.71 1682.59,-154.916 1665.39,-152.589"/>
<polygon fill="midnightblue" stroke="midnightblue" points="1801.44,-273.026 1810.65,-278.265 1806.72,-268.427 1801.44,-273.026"/>
</g>
<!-- Node3&#45;&gt;Node4 -->
<g id="edge3" class="edge"><title>Node3&#45;&gt;Node4</title>
<path fill="none" stroke="midnightblue" d="M1358.76,-407.489C1291.25,-422.189 1186.46,-445.011 1124.59,-458.484"/>
<polygon fill="midnightblue" stroke="midnightblue" points="1359.83,-410.839 1368.85,-405.292 1358.34,-404 1359.83,-410.839"/>
</g>
<!-- Node5 -->
<g id="node5" class="node"><title>Node5</title>
<g id="a_node5"><a xlink:href="../../d4/d06/class_application_1_1_game.html#aaa0ff18388b32b4e6198835a35e000d3" target="_top" xlink:title=" ">
<polygon fill="white" stroke="black" points="320,-318.5 320,-348.5 423,-348.5 423,-318.5 320,-318.5"/>
<text text-anchor="start" x="328" y="-336.5" font-family="Helvetica,sans-Serif" font-size="10.00">Application::Game::</text>
<text text-anchor="middle" x="371.5" y="-325.5" font-family="Helvetica,sans-Serif" font-size="10.00">GameLoop</text>
</a>
</g>
</g>
<!-- Node4&#45;&gt;Node5 -->
<g id="edge4" class="edge"><title>Node4&#45;&gt;Node5</title>
<path fill="none" stroke="midnightblue" d="M1011.06,-473.697C926.874,-477.948 770.782,-480.229 642,-450.5 547.818,-428.759 445.398,-375.095 398.543,-348.682"/>
<polygon fill="midnightblue" stroke="midnightblue" points="1011.42,-477.183 1021.22,-473.157 1011.04,-470.193 1011.42,-477.183"/>
</g>
<!-- Node6 -->
<g id="node6" class="node"><title>Node6</title>
<g id="a_node6"><a xlink:href="../../d4/d06/class_application_1_1_game.html#a013ffd59e8fdf1c0a396da1dbe1681ca" target="_top" xlink:title=" ">
<polygon fill="white" stroke="black" points="156,-384 156,-403 280,-403 280,-384 156,-384"/>
<text text-anchor="middle" x="218" y="-391" font-family="Helvetica,sans-Serif" font-size="10.00">Application::Game::Loop</text>
</a>
</g>
</g>
<!-- Node5&#45;&gt;Node6 -->
<g id="edge5" class="edge"><title>Node5&#45;&gt;Node6</title>
<path fill="none" stroke="midnightblue" d="M322.766,-352.405C296.233,-362.912 264.363,-375.534 243.006,-383.993"/>
<polygon fill="midnightblue" stroke="midnightblue" points="324.262,-355.577 332.27,-348.641 321.684,-349.069 324.262,-355.577"/>
</g>
<!-- Node7 -->
<g id="node7" class="node"><title>Node7</title>
<g id="a_node7"><a xlink:href="../../d4/d06/class_application_1_1_game.html#a96341ca5b54d90adc3ecb3bf0bcd2312" target="_top" xlink:title=" ">
<polygon fill="white" stroke="black" points="0,-384 0,-403 120,-403 120,-384 0,-384"/>
<text text-anchor="middle" x="60" y="-391" font-family="Helvetica,sans-Serif" font-size="10.00">Application::Game::Run</text>
</a>
</g>
</g>
<!-- Node6&#45;&gt;Node7 -->
<g id="edge6" class="edge"><title>Node6&#45;&gt;Node7</title>
<path fill="none" stroke="midnightblue" d="M145.546,-393.5C137.081,-393.5 128.513,-393.5 120.244,-393.5"/>
<polygon fill="midnightblue" stroke="midnightblue" points="145.792,-397 155.792,-393.5 145.792,-390 145.792,-397"/>
</g>
<!-- Node8&#45;&gt;Node4 -->
<g id="edge8" class="edge"><title>Node8&#45;&gt;Node4</title>
<path fill="none" stroke="midnightblue" d="M1334.62,-462.032C1268.15,-463.937 1179.43,-466.479 1124.54,-468.052"/>
<polygon fill="midnightblue" stroke="midnightblue" points="1334.78,-465.529 1344.68,-461.744 1334.58,-458.532 1334.78,-465.529"/>
</g>
<!-- Node10 -->
<g id="node10" class="node"><title>Node10</title>
<g id="a_node10"><a xlink:href="../../de/dcf/_engine_8h.html#a79dc644d7866ee9c87c3774a8fab9af6" target="_top" xlink:title=" ">
<polygon fill="white" stroke="black" points="1348,-306.5 1348,-336.5 1500,-336.5 1500,-306.5 1348,-306.5"/>
<text text-anchor="start" x="1356" y="-324.5" font-family="Helvetica,sans-Serif" font-size="10.00">_494035_timed_effects</text>
<text text-anchor="middle" x="1424" y="-313.5" font-family="Helvetica,sans-Serif" font-size="10.00">__water_walking_damage__etc</text>
</a>
</g>
</g>
<!-- Node9&#45;&gt;Node10 -->
<g id="edge10" class="edge"><title>Node9&#45;&gt;Node10</title>
<path fill="none" stroke="midnightblue" d="M1566.76,-315.215C1545.86,-316.142 1522.25,-317.188 1500.38,-318.158"/>
<polygon fill="midnightblue" stroke="midnightblue" points="1566.94,-318.711 1576.77,-314.771 1566.63,-311.718 1566.94,-318.711"/>
</g>
<!-- Node10&#45;&gt;Node5 -->
<g id="edge11" class="edge"><title>Node10&#45;&gt;Node5</title>
<path fill="none" stroke="midnightblue" d="M1337.82,-322.473C1127.89,-324.871 590.561,-331.009 423.111,-332.922"/>
<polygon fill="midnightblue" stroke="midnightblue" points="1337.91,-325.972 1347.87,-322.358 1337.83,-318.973 1337.91,-325.972"/>
</g>
<!-- Node11 -->
<g id="node11" class="node"><title>Node11</title>
<g id="a_node11"><a xlink:href="../../d1/d28/structstru262___turn_based.html#a3d510c1516767374020392bb323a3c06" target="_top" xlink:title=" ">
<polygon fill="white" stroke="black" points="1187.5,-262.5 1187.5,-292.5 1294.5,-292.5 1294.5,-262.5 1187.5,-262.5"/>
<text text-anchor="start" x="1195.5" y="-280.5" font-family="Helvetica,sans-Serif" font-size="10.00">stru262_TurnBased::</text>
<text text-anchor="middle" x="1241" y="-269.5" font-family="Helvetica,sans-Serif" font-size="10.00">NextTurn</text>
</a>
</g>
</g>
<!-- Node10&#45;&gt;Node11 -->
<g id="edge12" class="edge"><title>Node10&#45;&gt;Node11</title>
<path fill="none" stroke="midnightblue" d="M1351.45,-304.107C1332.54,-299.51 1312.47,-294.632 1294.76,-290.325"/>
<polygon fill="midnightblue" stroke="midnightblue" points="1350.67,-307.519 1361.22,-306.481 1352.33,-300.718 1350.67,-307.519"/>
</g>
<!-- Node14 -->
<g id="node14" class="node"><title>Node14</title>
<g id="a_node14"><a xlink:href="../../d0/d14/struct_party.html#aaa6686874ea698d79177b7ba5d67d8bd" target="_top" xlink:title=" ">
<polygon fill="white" stroke="black" points="869,-375 869,-394 940,-394 940,-375 869,-375"/>
<text text-anchor="middle" x="904.5" y="-382" font-family="Helvetica,sans-Serif" font-size="10.00">Party::Reset</text>
</a>
</g>
</g>
<!-- Node10&#45;&gt;Node14 -->
<g id="edge16" class="edge"><title>Node10&#45;&gt;Node14</title>
<path fill="none" stroke="midnightblue" d="M1337.8,-331.976C1328.09,-333.167 1318.33,-334.361 1309,-335.5 1172.41,-352.181 1009.79,-371.88 940.046,-380.321"/>
<polygon fill="midnightblue" stroke="midnightblue" points="1338.38,-335.431 1347.88,-330.739 1337.53,-328.483 1338.38,-335.431"/>
</g>
<!-- Node18 -->
<g id="node18" class="node"><title>Node18</title>
<g id="a_node18"><a xlink:href="../../db/d38/_party_8h.html#a6327fa16a015add5509d93cc738c035b" target="_top" xlink:title=" ">
<polygon fill="white" stroke="black" points="1222.5,-388 1222.5,-407 1259.5,-407 1259.5,-388 1222.5,-388"/>
<text text-anchor="middle" x="1241" y="-395" font-family="Helvetica,sans-Serif" font-size="10.00">Rest</text>
</a>
</g>
</g>
<!-- Node10&#45;&gt;Node18 -->
<g id="edge24" class="edge"><title>Node10&#45;&gt;Node18</title>
<path fill="none" stroke="midnightblue" d="M1382.64,-340.91C1361,-351.065 1333.75,-363.442 1309,-373.5 1292.4,-380.244 1273.11,-387.048 1259.5,-391.68"/>
<polygon fill="midnightblue" stroke="midnightblue" points="1384.31,-343.995 1391.86,-336.563 1381.32,-337.664 1384.31,-343.995"/>
</g>
<!-- Node12 -->
<g id="node12" class="node"><title>Node12</title>
<g id="a_node12"><a xlink:href="../../d1/d28/structstru262___turn_based.html#a594cf1020b0200b78abf16be8f3ab722" target="_top" xlink:title=" ">
<polygon fill="white" stroke="black" points="1019.5,-262.5 1019.5,-292.5 1126.5,-292.5 1126.5,-262.5 1019.5,-262.5"/>
<text text-anchor="start" x="1027.5" y="-280.5" font-family="Helvetica,sans-Serif" font-size="10.00">stru262_TurnBased::</text>
<text text-anchor="middle" x="1073" y="-269.5" font-family="Helvetica,sans-Serif" font-size="10.00">AITurnBasedAction</text>
</a>
</g>
</g>
<!-- Node11&#45;&gt;Node12 -->
<g id="edge13" class="edge"><title>Node11&#45;&gt;Node12</title>
<path fill="none" stroke="midnightblue" d="M1177.28,-277.5C1160.63,-277.5 1142.81,-277.5 1126.75,-277.5"/>
<polygon fill="midnightblue" stroke="midnightblue" points="1177.48,-281 1187.48,-277.5 1177.48,-274 1177.48,-281"/>
</g>
<!-- Node12&#45;&gt;Node13 -->
<g id="edge14" class="edge"><title>Node12&#45;&gt;Node13</title>
<path fill="none" stroke="midnightblue" d="M1009.25,-277.5C992.796,-277.5 975.206,-277.5 959.27,-277.5"/>
<polygon fill="midnightblue" stroke="midnightblue" points="1009.32,-281 1019.32,-277.5 1009.32,-274 1009.32,-281"/>
</g>
<!-- Node13&#45;&gt;Node5 -->
<g id="edge15" class="edge"><title>Node13&#45;&gt;Node5</title>
<path fill="none" stroke="midnightblue" d="M839.555,-276.084C753.266,-275.348 595.125,-278.155 463,-303.5 445.443,-306.868 426.593,-312.733 410.665,-318.39"/>
<polygon fill="midnightblue" stroke="midnightblue" points="839.68,-279.585 849.716,-276.19 839.753,-272.585 839.68,-279.585"/>
</g>
<!-- Node14&#45;&gt;Node5 -->
<g id="edge21" class="edge"><title>Node14&#45;&gt;Node5</title>
<path fill="none" stroke="midnightblue" d="M858.459,-380.174C760.108,-370.728 526.685,-348.309 423.294,-338.379"/>
<polygon fill="midnightblue" stroke="midnightblue" points="858.371,-383.682 868.66,-381.154 859.04,-376.714 858.371,-383.682"/>
</g>
<!-- Node14&#45;&gt;Node6 -->
<g id="edge22" class="edge"><title>Node14&#45;&gt;Node6</title>
<path fill="none" stroke="midnightblue" d="M858.391,-385.093C739.194,-386.66 415.732,-390.913 280.122,-392.696"/>
<polygon fill="midnightblue" stroke="midnightblue" points="858.661,-388.59 868.614,-384.959 858.569,-381.591 858.661,-388.59"/>
</g>
<!-- Node15 -->
<g id="node15" class="node"><title>Node15</title>
<g id="a_node15"><a xlink:href="../../de/da8/_u_i_party_creation_8cpp.html#ab3e0a011d0b8257f92e7b2255996f08d" target="_top" xlink:title=" ">
<polygon fill="white" stroke="black" points="661.5,-422 661.5,-441 780.5,-441 780.5,-422 661.5,-422"/>
<text text-anchor="middle" x="721" y="-429" font-family="Helvetica,sans-Serif" font-size="10.00">CreateParty_EventLoop</text>
</a>
</g>
</g>
<!-- Node14&#45;&gt;Node15 -->
<g id="edge17" class="edge"><title>Node14&#45;&gt;Node15</title>
<path fill="none" stroke="midnightblue" d="M858.915,-396.045C828.195,-404.001 787.855,-414.447 758.933,-421.936"/>
<polygon fill="midnightblue" stroke="midnightblue" points="860.131,-399.346 868.934,-393.451 858.376,-392.57 860.131,-399.346"/>
</g>
<!-- Node17 -->
<g id="node17" class="node"><title>Node17</title>
<g id="a_node17"><a xlink:href="../../d6/d6a/_u_i_party_creation_8h.html#ae6fe5aec2826f251f3950e95fd588d79" target="_top" xlink:title=" ">
<polygon fill="white" stroke="black" points="316,-479 316,-498 427,-498 427,-479 316,-479"/>
<text text-anchor="middle" x="371.5" y="-486" font-family="Helvetica,sans-Serif" font-size="10.00">PartyCreationUI_Loop</text>
</a>
</g>
</g>
<!-- Node14&#45;&gt;Node17 -->
<g id="edge23" class="edge"><title>Node14&#45;&gt;Node17</title>
<path fill="none" stroke="midnightblue" d="M858.932,-392.645C850.885,-395.311 842.877,-398.838 836,-403.5 814.221,-418.265 821.695,-435.611 800,-450.5 725.904,-501.351 694.951,-494.703 606,-507.5 543.092,-516.55 526.216,-514.064 463,-507.5 445.115,-505.643 425.557,-501.774 409.214,-498.009"/>
<polygon fill="midnightblue" stroke="midnightblue" points="860.071,-395.959 868.694,-389.803 858.114,-389.238 860.071,-395.959"/>
</g>
<!-- Node16 -->
<g id="node16" class="node"><title>Node16</title>
<g id="a_node16"><a xlink:href="../../de/da8/_u_i_party_creation_8cpp.html#a3989bc11e4d285e802baa8b00e9663ad" target="_top" xlink:title=" ">
<polygon fill="white" stroke="black" points="463,-479 463,-498 606,-498 606,-479 463,-479"/>
<text text-anchor="middle" x="534.5" y="-486" font-family="Helvetica,sans-Serif" font-size="10.00">PartyCreationUI_LoopInternal</text>
</a>
</g>
</g>
<!-- Node15&#45;&gt;Node16 -->
<g id="edge18" class="edge"><title>Node15&#45;&gt;Node16</title>
<path fill="none" stroke="midnightblue" d="M679.474,-444.02C645.436,-454.536 597.516,-469.34 566.482,-478.928"/>
<polygon fill="midnightblue" stroke="midnightblue" points="680.598,-447.336 689.119,-441.041 678.531,-440.648 680.598,-447.336"/>
</g>
<!-- Node16&#45;&gt;Node17 -->
<g id="edge19" class="edge"><title>Node16&#45;&gt;Node17</title>
<path fill="none" stroke="midnightblue" d="M452.714,-488.5C444.032,-488.5 435.355,-488.5 427.086,-488.5"/>
<polygon fill="midnightblue" stroke="midnightblue" points="452.883,-492 462.883,-488.5 452.883,-485 452.883,-492"/>
</g>
<!-- Node17&#45;&gt;Node6 -->
<g id="edge20" class="edge"><title>Node17&#45;&gt;Node6</title>
<path fill="none" stroke="midnightblue" d="M346.548,-473.481C315.119,-453.773 260.858,-419.748 234.401,-403.157"/>
<polygon fill="midnightblue" stroke="midnightblue" points="344.808,-476.521 355.14,-478.868 348.527,-470.59 344.808,-476.521"/>
</g>
<!-- Node18&#45;&gt;Node4 -->
<g id="edge25" class="edge"><title>Node18&#45;&gt;Node4</title>
<path fill="none" stroke="midnightblue" d="M1212.78,-406.506C1200.51,-410.756 1185.9,-416.079 1173,-421.5 1149.05,-431.561 1122.61,-444.479 1103.08,-454.379"/>
<polygon fill="midnightblue" stroke="midnightblue" points="1214.11,-409.749 1222.45,-403.21 1211.86,-403.123 1214.11,-409.749"/>
</g>
<!-- Node19 -->
<g id="node19" class="node"><title>Node19</title>
<g id="a_node19"><a xlink:href="../../d0/d14/struct_party.html#a7e6c7262893463554672cab394812b00" target="_top" xlink:title=" ">
<polygon fill="white" stroke="black" points="1022.5,-403 1022.5,-422 1123.5,-422 1123.5,-403 1022.5,-403"/>
<text text-anchor="middle" x="1073" y="-410" font-family="Helvetica,sans-Serif" font-size="10.00">Party::Sleep8Hours</text>
</a>
</g>
</g>
<!-- Node18&#45;&gt;Node19 -->
<g id="edge26" class="edge"><title>Node18&#45;&gt;Node19</title>
<path fill="none" stroke="midnightblue" d="M1212.02,-400.029C1187.92,-402.206 1152.55,-405.402 1123.66,-408.013"/>
<polygon fill="midnightblue" stroke="midnightblue" points="1212.59,-403.491 1222.24,-399.105 1211.96,-396.52 1212.59,-403.491"/>
</g>
<!-- Node20 -->
<g id="node20" class="node"><title>Node20</title>
<g id="a_node20"><a xlink:href="../../d2/d13/class_g_u_i_window___rest.html#a2fb35507e96666175f07fb9c0ed4c036" target="_top" xlink:title=" ">
<polygon fill="white" stroke="black" points="839.5,-413 839.5,-432 969.5,-432 969.5,-413 839.5,-413"/>
<text text-anchor="middle" x="904.5" y="-420" font-family="Helvetica,sans-Serif" font-size="10.00">GUIWindow_Rest::Update</text>
</a>
</g>
</g>
<!-- Node19&#45;&gt;Node20 -->
<g id="edge27" class="edge"><title>Node19&#45;&gt;Node20</title>
<path fill="none" stroke="midnightblue" d="M1012.15,-416.095C998.35,-416.923 983.615,-417.808 969.64,-418.648"/>
<polygon fill="midnightblue" stroke="midnightblue" points="1012.72,-419.567 1022.5,-415.473 1012.3,-412.579 1012.72,-419.567"/>
</g>
<!-- Node22 -->
<g id="node22" class="node"><title>Node22</title>
<g id="a_node22"><a xlink:href="../../de/dcf/_engine_8h.html#a73fe5e8d7dc6ec78e5cc180d1915341b" target="_top" xlink:title=" ">
<polygon fill="white" stroke="black" points="479.5,-161.5 479.5,-191.5 589.5,-191.5 589.5,-161.5 479.5,-161.5"/>
<text text-anchor="start" x="487.5" y="-179.5" font-family="Helvetica,sans-Serif" font-size="10.00">UpdateUserInput_and</text>
<text text-anchor="middle" x="534.5" y="-168.5" font-family="Helvetica,sans-Serif" font-size="10.00">_MapSpecificStuff</text>
</a>
</g>
</g>
<!-- Node21&#45;&gt;Node22 -->
<g id="edge29" class="edge"><title>Node21&#45;&gt;Node22</title>
<path fill="none" stroke="midnightblue" d="M1557.72,-194.791C1480.36,-195.087 1352.31,-195.5 1242,-195.5 1242,-195.5 1242,-195.5 903.5,-195.5 791.865,-195.5 661.435,-186.672 589.702,-181.051"/>
<polygon fill="midnightblue" stroke="midnightblue" points="1557.84,-198.291 1567.83,-194.752 1557.81,-191.291 1557.84,-198.291"/>
</g>
<!-- Node22&#45;&gt;Node5 -->
<g id="edge30" class="edge"><title>Node22&#45;&gt;Node5</title>
<path fill="none" stroke="midnightblue" d="M510.636,-198.796C477.423,-231.184 416.687,-290.411 388.127,-318.261"/>
<polygon fill="midnightblue" stroke="midnightblue" points="513.347,-201.041 518.063,-191.554 508.46,-196.03 513.347,-201.041"/>
</g>
<!-- Node24 -->
<g id="node24" class="node"><title>Node24</title>
<g id="a_node24"><a xlink:href="../../d9/ded/_sprite_object_8cpp.html#a457801379764f6519b638ea5b505967e" target="_top" xlink:title=" ">
<polygon fill="white" stroke="black" points="1358.5,-94 1358.5,-113 1489.5,-113 1489.5,-94 1358.5,-94"/>
<text text-anchor="middle" x="1424" y="-101" font-family="Helvetica,sans-Serif" font-size="10.00">_46BFFA_update_spell_fx</text>
</a>
</g>
</g>
<!-- Node23&#45;&gt;Node24 -->
<g id="edge32" class="edge"><title>Node23&#45;&gt;Node24</title>
<path fill="none" stroke="midnightblue" d="M1582.91,-141.153C1568.83,-138.159 1553.25,-134.77 1539,-131.5 1513.48,-125.642 1484.85,-118.61 1462.67,-113.059"/>
<polygon fill="midnightblue" stroke="midnightblue" points="1582.35,-144.613 1592.86,-143.256 1583.8,-137.764 1582.35,-144.613"/>
</g>
<!-- Node25 -->
<g id="node25" class="node"><title>Node25</title>
<g id="a_node25"><a xlink:href="../../da/d20/_i_render_8h.html#a2827fe354fe45bc8a3b7bddc1f2236dc" target="_top" xlink:title=" ">
<polygon fill="white" stroke="black" points="1204.5,-138 1204.5,-157 1277.5,-157 1277.5,-138 1204.5,-138"/>
<text text-anchor="middle" x="1241" y="-145" font-family="Helvetica,sans-Serif" font-size="10.00">sub_46DEF2</text>
</a>
</g>
</g>
<!-- Node24&#45;&gt;Node25 -->
<g id="edge33" class="edge"><title>Node24&#45;&gt;Node25</title>
<path fill="none" stroke="midnightblue" d="M1373.74,-115.475C1343.31,-122.872 1304.98,-132.191 1277.52,-138.866"/>
<polygon fill="midnightblue" stroke="midnightblue" points="1374.84,-118.811 1383.73,-113.047 1373.18,-112.009 1374.84,-118.811"/>
</g>
<!-- Node32 -->
<g id="node32" class="node"><title>Node32</title>
<g id="a_node32"><a xlink:href="../../d0/d5a/struct_sprite_object.html#a9e0d2e0c49fb02c2bf900de59aecff85" target="_top" xlink:title=" ">
<polygon fill="white" stroke="black" points="1173,-0.5 1173,-30.5 1309,-30.5 1309,-0.5 1173,-0.5"/>
<text text-anchor="start" x="1181" y="-18.5" font-family="Helvetica,sans-Serif" font-size="10.00">SpriteObject::UpdateObject</text>
<text text-anchor="middle" x="1241" y="-7.5" font-family="Helvetica,sans-Serif" font-size="10.00">_fn0_BLV</text>
</a>
</g>
</g>
<!-- Node24&#45;&gt;Node32 -->
<g id="edge43" class="edge"><title>Node24&#45;&gt;Node32</title>
<path fill="none" stroke="midnightblue" d="M1395.84,-89.2003C1372.86,-77.2195 1338.98,-59.8267 1309,-45.5 1298.54,-40.4991 1287.05,-35.2628 1276.58,-30.5904"/>
<polygon fill="midnightblue" stroke="midnightblue" points="1394.49,-92.4462 1404.97,-93.9788 1397.73,-86.2431 1394.49,-92.4462"/>
</g>
<!-- Node33 -->
<g id="node33" class="node"><title>Node33</title>
<g id="a_node33"><a xlink:href="../../da/d20/_i_render_8h.html#a522912d67446895b0a03d01837b75a99" target="_top" xlink:title=" ">
<polygon fill="white" stroke="black" points="1032.5,-50 1032.5,-69 1113.5,-69 1113.5,-50 1032.5,-50"/>
<text text-anchor="middle" x="1073" y="-57" font-family="Helvetica,sans-Serif" font-size="10.00">UpdateObjects</text>
</a>
</g>
</g>
<!-- Node24&#45;&gt;Node33 -->
<g id="edge49" class="edge"><title>Node24&#45;&gt;Node33</title>
<path fill="none" stroke="midnightblue" d="M1375.76,-91.6394C1355.35,-86.9044 1331.11,-81.8034 1309,-78.5 1240.79,-68.3107 1160.56,-63.3033 1113.69,-61.0706"/>
<polygon fill="midnightblue" stroke="midnightblue" points="1375.22,-95.1069 1385.75,-93.9975 1376.83,-88.2941 1375.22,-95.1069"/>
</g>
<!-- Node34 -->
<g id="node34" class="node"><title>Node34</title>
<g id="a_node34"><a xlink:href="../../d0/d5a/struct_sprite_object.html#a950e5cedc1e8cfc98d77ba9b3f91071f" target="_top" xlink:title=" ">
<polygon fill="white" stroke="black" points="1173,-88.5 1173,-118.5 1309,-118.5 1309,-88.5 1173,-88.5"/>
<text text-anchor="start" x="1181" y="-106.5" font-family="Helvetica,sans-Serif" font-size="10.00">SpriteObject::UpdateObject</text>
<text text-anchor="middle" x="1241" y="-95.5" font-family="Helvetica,sans-Serif" font-size="10.00">_fn0_ODM</text>
</a>
</g>
</g>
<!-- Node24&#45;&gt;Node34 -->
<g id="edge47" class="edge"><title>Node24&#45;&gt;Node34</title>
<path fill="none" stroke="midnightblue" d="M1348.2,-103.5C1335.31,-103.5 1321.98,-103.5 1309.31,-103.5"/>
<polygon fill="midnightblue" stroke="midnightblue" points="1348.42,-107 1358.42,-103.5 1348.42,-100 1348.42,-107"/>
</g>
<!-- Node26 -->
<g id="node26" class="node"><title>Node26</title>
<g id="a_node26"><a xlink:href="../../da/d20/_i_render_8h.html#a0e63804ace29468efe95593015c3747c" target="_top" xlink:title=" ">
<polygon fill="white" stroke="black" points="1009,-113.5 1009,-143.5 1137,-143.5 1137,-113.5 1009,-113.5"/>
<text text-anchor="start" x="1017" y="-131.5" font-family="Helvetica,sans-Serif" font-size="10.00">_46ED8A_collide_against</text>
<text text-anchor="middle" x="1073" y="-120.5" font-family="Helvetica,sans-Serif" font-size="10.00">_sprite_objects</text>
</a>
</g>
</g>
<!-- Node25&#45;&gt;Node26 -->
<g id="edge34" class="edge"><title>Node25&#45;&gt;Node26</title>
<path fill="none" stroke="midnightblue" d="M1194.33,-142.273C1176.64,-140.248 1156.08,-137.895 1137.02,-135.713"/>
<polygon fill="midnightblue" stroke="midnightblue" points="1194.06,-145.764 1204.39,-143.424 1194.85,-138.809 1194.06,-145.764"/>
</g>
<!-- Node27 -->
<g id="node27" class="node"><title>Node27</title>
<g id="a_node27"><a xlink:href="../../dc/dfb/_outdoor_8h.html#a62e44d7fd493356cb340fe1dc8fe993b" target="_top" xlink:title=" ">
<polygon fill="white" stroke="black" points="836,-34 836,-53 973,-53 973,-34 836,-34"/>
<text text-anchor="middle" x="904.5" y="-41" font-family="Helvetica,sans-Serif" font-size="10.00">ODM_ProcessPartyActions</text>
</a>
</g>
</g>
<!-- Node26&#45;&gt;Node27 -->
<g id="edge35" class="edge"><title>Node26&#45;&gt;Node27</title>
<path fill="none" stroke="midnightblue" d="M1033.37,-108.778C999.125,-91.2964 950.587,-66.5175 924.255,-53.0744"/>
<polygon fill="midnightblue" stroke="midnightblue" points="1032.12,-112.07 1042.62,-113.499 1035.3,-105.835 1032.12,-112.07"/>
</g>
<!-- Node29 -->
<g id="node29" class="node"><title>Node29</title>
<g id="a_node29"><a xlink:href="../../da/dc7/_indoor_8h.html#a91180cf18d91c79b7bc41c630c261cbd" target="_top" xlink:title=" ">
<polygon fill="white" stroke="black" points="854.5,-148 854.5,-167 954.5,-167 954.5,-148 854.5,-148"/>
<text text-anchor="middle" x="904.5" y="-155" font-family="Helvetica,sans-Serif" font-size="10.00">UpdateActors_BLV</text>
</a>
</g>
</g>
<!-- Node26&#45;&gt;Node29 -->
<g id="edge38" class="edge"><title>Node26&#45;&gt;Node29</title>
<path fill="none" stroke="midnightblue" d="M998.385,-141.322C983.53,-143.909 968.261,-146.569 954.503,-148.965"/>
<polygon fill="midnightblue" stroke="midnightblue" points="999.327,-144.71 1008.58,-139.546 998.126,-137.814 999.327,-144.71"/>
</g>
<!-- Node31 -->
<g id="node31" class="node"><title>Node31</title>
<g id="a_node31"><a xlink:href="../../dc/dfb/_outdoor_8h.html#ab3cc30c01fb2e9afa8ec291e6043bf99" target="_top" xlink:title=" ">
<polygon fill="white" stroke="black" points="852.5,-110 852.5,-129 956.5,-129 956.5,-110 852.5,-110"/>
<text text-anchor="middle" x="904.5" y="-117" font-family="Helvetica,sans-Serif" font-size="10.00">UpdateActors_ODM</text>
</a>
</g>
</g>
<!-- Node26&#45;&gt;Node31 -->
<g id="edge41" class="edge"><title>Node26&#45;&gt;Node31</title>
<path fill="none" stroke="midnightblue" d="M998.396,-124.521C984.288,-123.759 969.805,-122.976 956.599,-122.262"/>
<polygon fill="midnightblue" stroke="midnightblue" points="998.404,-128.027 1008.58,-125.072 998.782,-121.037 998.404,-128.027"/>
</g>
<!-- Node28 -->
<g id="node28" class="node"><title>Node28</title>
<g id="a_node28"><a xlink:href="../../dc/dfb/_outdoor_8h.html#aeedbd3470634fbb22ebda28d2f8006e4" target="_top" xlink:title=" ">
<polygon fill="white" stroke="black" points="642,-72 642,-91 800,-91 800,-72 642,-72"/>
<text text-anchor="middle" x="721" y="-79" font-family="Helvetica,sans-Serif" font-size="10.00">ODM_UpdateUserInputAndOther</text>
</a>
</g>
</g>
<!-- Node27&#45;&gt;Node28 -->
<g id="edge36" class="edge"><title>Node27&#45;&gt;Node28</title>
<path fill="none" stroke="midnightblue" d="M847.708,-55.181C821.969,-60.5699 791.801,-66.8861 767.471,-71.9799"/>
<polygon fill="midnightblue" stroke="midnightblue" points="848.629,-58.564 857.7,-53.089 847.195,-51.7126 848.629,-58.564"/>
</g>
<!-- Node28&#45;&gt;Node22 -->
<g id="edge37" class="edge"><title>Node28&#45;&gt;Node22</title>
<path fill="none" stroke="midnightblue" d="M692.293,-95.7664C658.001,-113.424 599.859,-143.361 564.833,-161.397"/>
<polygon fill="midnightblue" stroke="midnightblue" points="694.005,-98.8215 701.294,-91.1319 690.801,-92.5981 694.005,-98.8215"/>
</g>
<!-- Node30 -->
<g id="node30" class="node"><title>Node30</title>
<g id="a_node30"><a xlink:href="../../da/dc7/_indoor_8h.html#a7d511837933d59eeeccfc25275a366d8" target="_top" xlink:title=" ">
<polygon fill="white" stroke="black" points="644,-148 644,-167 798,-167 798,-148 644,-148"/>
<text text-anchor="middle" x="721" y="-155" font-family="Helvetica,sans-Serif" font-size="10.00">BLV_UpdateUserInputAndOther</text>
</a>
</g>
</g>
<!-- Node29&#45;&gt;Node30 -->
<g id="edge39" class="edge"><title>Node29&#45;&gt;Node30</title>
<path fill="none" stroke="midnightblue" d="M843.964,-157.5C829.319,-157.5 813.439,-157.5 798.129,-157.5"/>
<polygon fill="midnightblue" stroke="midnightblue" points="844.384,-161 854.383,-157.5 844.383,-154 844.384,-161"/>
</g>
<!-- Node30&#45;&gt;Node22 -->
<g id="edge40" class="edge"><title>Node30&#45;&gt;Node22</title>
<path fill="none" stroke="midnightblue" d="M633.602,-166.397C618.664,-167.936 603.521,-169.495 589.747,-170.914"/>
<polygon fill="midnightblue" stroke="midnightblue" points="634.303,-169.844 643.892,-165.338 633.586,-162.881 634.303,-169.844"/>
</g>
<!-- Node31&#45;&gt;Node28 -->
<g id="edge42" class="edge"><title>Node31&#45;&gt;Node28</title>
<path fill="none" stroke="midnightblue" d="M847.708,-107.819C821.969,-102.43 791.801,-96.1139 767.471,-91.0201"/>
<polygon fill="midnightblue" stroke="midnightblue" points="847.195,-111.287 857.7,-109.911 848.629,-104.436 847.195,-111.287"/>
</g>
<!-- Node32&#45;&gt;Node33 -->
<g id="edge44" class="edge"><title>Node32&#45;&gt;Node33</title>
<path fill="none" stroke="midnightblue" d="M1173.53,-33.1194C1151.89,-38.8547 1128.69,-45.0041 1110.14,-49.9217"/>
<polygon fill="midnightblue" stroke="midnightblue" points="1174.57,-36.4646 1183.34,-30.5192 1172.77,-29.6983 1174.57,-36.4646"/>
</g>
<!-- Node33&#45;&gt;Node28 -->
<g id="edge46" class="edge"><title>Node33&#45;&gt;Node28</title>
<path fill="none" stroke="midnightblue" d="M1041.88,-45.8361C1022.62,-37.8648 996.869,-28.595 973,-24.5 912.988,-14.204 895.26,-10.5106 836,-24.5 797.236,-33.651 756.624,-58.1134 735.927,-71.8313"/>
<polygon fill="midnightblue" stroke="midnightblue" points="1040.74,-49.1552 1051.31,-49.8519 1043.48,-42.7146 1040.74,-49.1552"/>
</g>
<!-- Node33&#45;&gt;Node30 -->
<g id="edge45" class="edge"><title>Node33&#45;&gt;Node30</title>
<path fill="none" stroke="midnightblue" d="M1022.08,-63.9064C973.601,-69.1732 898.381,-79.9779 836,-100.5 799.006,-112.67 758.996,-135.048 737.602,-147.845"/>
<polygon fill="midnightblue" stroke="midnightblue" points="1022.73,-67.3581 1032.31,-62.8348 1022,-60.3962 1022.73,-67.3581"/>
</g>
<!-- Node34&#45;&gt;Node33 -->
<g id="edge48" class="edge"><title>Node34&#45;&gt;Node33</title>
<path fill="none" stroke="midnightblue" d="M1173.53,-85.8806C1151.89,-80.1453 1128.69,-73.9959 1110.14,-69.0783"/>
<polygon fill="midnightblue" stroke="midnightblue" points="1172.77,-89.3017 1183.34,-88.4808 1174.57,-82.5354 1172.77,-89.3017"/>
</g>
<!-- Node35&#45;&gt;Node21 -->
<g id="edge51" class="edge"><title>Node35&#45;&gt;Node21</title>
<path fill="none" stroke="midnightblue" d="M1745.71,-194.5C1727.21,-194.5 1707.76,-194.5 1690.21,-194.5"/>
<polygon fill="midnightblue" stroke="midnightblue" points="1745.88,-198 1755.88,-194.5 1745.88,-191 1745.88,-198"/>
</g>
<!-- Node35&#45;&gt;Node23 -->
<g id="edge52" class="edge"><title>Node35&#45;&gt;Node23</title>
<path fill="none" stroke="midnightblue" d="M1774.63,-182.495C1757.09,-178.295 1737.18,-173.605 1719,-169.5 1701.28,-165.499 1681.52,-161.258 1665.13,-157.801"/>
<polygon fill="midnightblue" stroke="midnightblue" points="1774.12,-185.971 1784.66,-184.903 1775.75,-179.164 1774.12,-185.971"/>
</g>
<!-- Node37 -->
<g id="node37" class="node"><title>Node37</title>
<g id="a_node37"><a xlink:href="../../d3/da4/class_win_api_window.html#ad522bd6b9cf87a887e4429771a5b4089" target="_top" xlink:title=" ">
<polygon fill="white" stroke="black" points="1539,-103 1539,-122 1719,-122 1719,-103 1539,-103"/>
<text text-anchor="middle" x="1629" y="-110" font-family="Helvetica,sans-Serif" font-size="10.00">WinApiWindow::WinApiMessageProc</text>
</a>
</g>
</g>
<!-- Node36&#45;&gt;Node37 -->
<g id="edge55" class="edge"><title>Node36&#45;&gt;Node37</title>
<path fill="none" stroke="midnightblue" d="M1744.7,-125.507C1734.51,-124.352 1724.05,-123.166 1713.8,-122.003"/>
<polygon fill="midnightblue" stroke="midnightblue" points="1744.45,-129.001 1754.78,-126.651 1745.24,-122.046 1744.45,-129.001"/>
</g>
</g>
</svg>
        <g id="navigator" transform="translate(0 0)" fill="#404254">
                <rect fill="#f2f5e9" fill-opacity="0.5" stroke="#606060" stroke-width=".5" x="0" y="0" width="60" height="60"/>
                <use id="zoomplus" xlink:href="#zoomPlus" x="17" y="9" onmousedown="handleZoom(evt,'in')"/>
                <use id="zoomminus" xlink:href="#zoomMin" x="42" y="9" onmousedown="handleZoom(evt,'out')"/>
                <use id="reset" xlink:href="#resetDef" x="30" y="36" onmousedown="handleReset()"/>
                <g id="arrowUp" xlink:href="#dirArrow" transform="translate(30 24)" onmousedown="handlePan(0,-1)">
                  <use xlink:href="#rim" fill="#404040">
                        <set attributeName="fill" to="#808080" begin="arrowUp.mouseover" end="arrowUp.mouseout"/>
                  </use>
                  <path fill="none" stroke="white" stroke-width="1.5" d="M0,-3.0v7 M-2.5,-0.5L0,-3.0L2.5,-0.5"/>
                </g>
                <g id="arrowRight" xlink:href="#dirArrow" transform="rotate(90) translate(36 -43)" onmousedown="handlePan(1,0)">
                  <use xlink:href="#rim" fill="#404040">
                        <set attributeName="fill" to="#808080" begin="arrowRight.mouseover" end="arrowRight.mouseout"/>
                  </use>
                  <path fill="none" stroke="white" stroke-width="1.5" d="M0,-3.0v7 M-2.5,-0.5L0,-3.0L2.5,-0.5"/>
                </g>
                <g id="arrowDown" xlink:href="#dirArrow" transform="rotate(180) translate(-30 -48)" onmousedown="handlePan(0,1)">
                  <use xlink:href="#rim" fill="#404040">
                        <set attributeName="fill" to="#808080" begin="arrowDown.mouseover" end="arrowDown.mouseout"/>
                  </use>
                  <path fill="none" stroke="white" stroke-width="1.5" d="M0,-3.0v7 M-2.5,-0.5L0,-3.0L2.5,-0.5"/>
                </g>
                <g id="arrowLeft" xlink:href="#dirArrow" transform="rotate(270) translate(-36 17)" onmousedown="handlePan(-1,0)">
                  <use xlink:href="#rim" fill="#404040">
                        <set attributeName="fill" to="#808080" begin="arrowLeft.mouseover" end="arrowLeft.mouseout"/>
                  </use>
                  <path fill="none" stroke="white" stroke-width="1.5" d="M0,-3.0v7 M-2.5,-0.5L0,-3.0L2.5,-0.5"/>
                </g>
        </g>
        <svg viewBox="0 0 15 15" width="100%" height="30px" preserveAspectRatio="xMaxYMin meet">
         <g id="arrow_out" transform="scale(0.3 0.3)">
          <a xlink:href="struct_party_af90af968b8fd1d3eb232a7c3108c31ed_icgraph_org.svg" target="_base">
           <rect id="button" ry="5" rx="5" y="6" x="6" height="38" width="38"
                fill="#f2f5e9" fill-opacity="0.5" stroke="#606060" stroke-width="1.0"/>
           <path id="arrow"
             d="M 11.500037,31.436501 C 11.940474,20.09759 22.043105,11.32322 32.158766,21.979434 L 37.068811,17.246167 C 37.068811,17.246167 37.088388,32 37.088388,32 L 22.160133,31.978069 C 22.160133,31.978069 26.997745,27.140456 26.997745,27.140456 C 18.528582,18.264221 13.291696,25.230495 11.500037,31.436501 z"
             style="fill:#404040;"/>
          </a>
         </g>
        </svg>
</svg>
