<?xml version="1.0" encoding="UTF-8" standalone="no"?>
<!DOCTYPE svg PUBLIC "-//W3C//DTD SVG 1.1//EN"
 "http://www.w3.org/Graphics/SVG/1.1/DTD/svg11.dtd">
<!-- Generated by graphviz version 2.38.0 (20140413.2041)
 -->
<!-- Title: Party::GetNextActiveCharacter Pages: 1 -->
<!--zoomable 592 -->
<svg id="main" version="1.1" xmlns="http://www.w3.org/2000/svg" xmlns:xlink="http://www.w3.org/1999/xlink" xml:space="preserve" onload="init(evt)">
<style type="text/css"><![CDATA[
.edge:hover path { stroke: red; }
.edge:hover polygon { stroke: red; fill: red; }
]]></style>
<script type="text/javascript"><![CDATA[
var edges = document.getElementsByTagName('g');
if (edges && edges.length) {
  for (var i=0;i<edges.length;i++) {
    if (edges[i].id.substr(0,4)=='edge') {
      edges[i].setAttribute('class','edge');
    }
  }
}
]]></script>
        <defs>
                <circle id="rim" cx="0" cy="0" r="7"/>
                <circle id="rim2" cx="0" cy="0" r="3.5"/>
                <g id="zoomPlus">
                        <use xlink:href="#rim" fill="#404040">
                                <set attributeName="fill" to="#808080" begin="zoomplus.mouseover" end="zoomplus.mouseout"/>
                        </use>
                        <path d="M-4,0h8M0,-4v8" fill="none" stroke="white" stroke-width="1.5" pointer-events="none"/>
                </g>
                <g id="zoomMin">
                        <use xlink:href="#rim" fill="#404040">
                                <set attributeName="fill" to="#808080" begin="zoomminus.mouseover" end="zoomminus.mouseout"/>
                        </use>
                        <path d="M-4,0h8" fill="none" stroke="white" stroke-width="1.5" pointer-events="none"/>
                </g>
                <g id="dirArrow">
                        <path fill="none" stroke="white" stroke-width="1.5" d="M0,-3.0v7 M-2.5,-0.5L0,-3.0L2.5,-0.5"/>
                </g>
               <g id="resetDef">
                       <use xlink:href="#rim2" fill="#404040">
                               <set attributeName="fill" to="#808080" begin="reset.mouseover" end="reset.mouseout"/>
                       </use>
               </g>
        </defs>

<script type="text/javascript">
var viewWidth = 2198;
var viewHeight = 592;
var sectionId = 'dynsection-17';
</script>
<script xlink:href="../../svgpan.js"/>
<svg id="graph" class="graph">
<g id="viewport">
<title>Party::GetNextActiveCharacter</title>
<polygon fill="white" stroke="none" points="-4,4 -4,-587.708 2194,-587.708 2194,4 -4,4"/>
<!-- Node1 -->
<g id="node1" class="node"><title>Node1</title>
<g id="a_node1"><a xlink:title=" ">
<polygon fill="#bfbfbf" stroke="black" points="2040,-270 2040,-289 2190,-289 2190,-270 2040,-270"/>
<text text-anchor="middle" x="2115" y="-277" font-family="Helvetica,sans-Serif" font-size="10.00">Party::GetNextActiveCharacter</text>
</a>
</g>
</g>
<!-- Node2 -->
<g id="node2" class="node"><title>Node2</title>
<g id="a_node2"><a xlink:href="../../de/dcf/_engine_8h.html#a79dc644d7866ee9c87c3774a8fab9af6" target="_top" xlink:title=" ">
<polygon fill="white" stroke="black" points="1852,-384.5 1852,-414.5 2004,-414.5 2004,-384.5 1852,-384.5"/>
<text text-anchor="start" x="1860" y="-402.5" font-family="Helvetica,sans-Serif" font-size="10.00">_494035_timed_effects</text>
<text text-anchor="middle" x="1928" y="-391.5" font-family="Helvetica,sans-Serif" font-size="10.00">__water_walking_damage__etc</text>
</a>
</g>
</g>
<!-- Node1&#45;&gt;Node2 -->
<g id="edge1" class="edge"><title>Node1&#45;&gt;Node2</title>
<path fill="none" stroke="midnightblue" d="M2090.41,-294.799C2054.75,-317.933 1987.52,-361.544 1952.13,-384.5"/>
<polygon fill="midnightblue" stroke="midnightblue" points="2092.69,-297.496 2099.17,-289.117 2088.88,-291.623 2092.69,-297.496"/>
</g>
<!-- Node14 -->
<g id="node14" class="node"><title>Node14</title>
<g id="a_node14"><a xlink:href="../../d4/d06/class_application_1_1_game.html#a3f65e3f0ef1a9114fb3dea275e52442e" target="_top" xlink:title=" ">
<polygon fill="white" stroke="black" points="1514,-240.5 1514,-270.5 1617,-270.5 1617,-240.5 1514,-240.5"/>
<text text-anchor="start" x="1522" y="-258.5" font-family="Helvetica,sans-Serif" font-size="10.00">Application::Game::</text>
<text text-anchor="middle" x="1565.5" y="-247.5" font-family="Helvetica,sans-Serif" font-size="10.00">EventLoop</text>
</a>
</g>
</g>
<!-- Node1&#45;&gt;Node14 -->
<g id="edge22" class="edge"><title>Node1&#45;&gt;Node14</title>
<path fill="none" stroke="midnightblue" d="M2070.83,-291.661C2050.7,-296.723 2026.31,-301.997 2004,-304.5 1849.49,-321.837 1807.43,-311.125 1655,-280.5 1641.85,-277.858 1627.8,-274.259 1614.86,-270.614"/>
<polygon fill="midnightblue" stroke="midnightblue" points="2071.83,-295.017 2080.63,-289.128 2070.08,-288.24 2071.83,-295.017"/>
</g>
<!-- Node17 -->
<g id="node17" class="node"><title>Node17</title>
<g id="a_node17"><a xlink:href="../../d4/d06/class_application_1_1_game.html#a38be2dadf5b0f2d739f52ac8d95d89c9" target="_top" xlink:title=" ">
<polygon fill="white" stroke="black" points="1876.5,-264.5 1876.5,-294.5 1979.5,-294.5 1979.5,-264.5 1876.5,-264.5"/>
<text text-anchor="start" x="1884.5" y="-282.5" font-family="Helvetica,sans-Serif" font-size="10.00">Application::Game::</text>
<text text-anchor="middle" x="1928" y="-271.5" font-family="Helvetica,sans-Serif" font-size="10.00">OnEscape</text>
</a>
</g>
</g>
<!-- Node1&#45;&gt;Node17 -->
<g id="edge23" class="edge"><title>Node1&#45;&gt;Node17</title>
<path fill="none" stroke="midnightblue" d="M2029.79,-279.5C2012.66,-279.5 1995.15,-279.5 1979.63,-279.5"/>
<polygon fill="midnightblue" stroke="midnightblue" points="2029.82,-283 2039.82,-279.5 2029.82,-276 2029.82,-283"/>
</g>
<!-- Node18 -->
<g id="node18" class="node"><title>Node18</title>
<g id="a_node18"><a xlink:href="../../d3/db1/struct_player.html#afbe54d04ab3e51dfa85ea61dd084d723" target="_top" xlink:title=" ">
<polygon fill="white" stroke="black" points="1885.5,-226 1885.5,-245 1970.5,-245 1970.5,-226 1885.5,-226"/>
<text text-anchor="middle" x="1928" y="-233" font-family="Helvetica,sans-Serif" font-size="10.00">Player::Recover</text>
</a>
</g>
</g>
<!-- Node1&#45;&gt;Node18 -->
<g id="edge25" class="edge"><title>Node1&#45;&gt;Node18</title>
<path fill="none" stroke="midnightblue" d="M2064.06,-267.624C2034.26,-260.536 1996.93,-251.655 1969.06,-245.029"/>
<polygon fill="midnightblue" stroke="midnightblue" points="2063.32,-271.044 2073.86,-269.953 2064.94,-264.234 2063.32,-271.044"/>
</g>
<!-- Node19 -->
<g id="node19" class="node"><title>Node19</title>
<g id="a_node19"><a xlink:href="../../d3/db1/struct_player.html#aebe64c211ece6cc0bc3ad2f58a73f751" target="_top" xlink:title=" ">
<polygon fill="white" stroke="black" points="1865,-145 1865,-164 1991,-164 1991,-145 1865,-145"/>
<text text-anchor="middle" x="1928" y="-152" font-family="Helvetica,sans-Serif" font-size="10.00">Player::SetRecoveryTime</text>
</a>
</g>
</g>
<!-- Node1&#45;&gt;Node19 -->
<g id="edge26" class="edge"><title>Node1&#45;&gt;Node19</title>
<path fill="none" stroke="midnightblue" d="M2091.29,-264.154C2052.64,-238.042 1975.18,-185.706 1943.26,-164.134"/>
<polygon fill="midnightblue" stroke="midnightblue" points="2089.55,-267.2 2099.79,-269.899 2093.46,-261.4 2089.55,-267.2"/>
</g>
<!-- Node3 -->
<g id="node3" class="node"><title>Node3</title>
<g id="a_node3"><a xlink:href="../../d4/d06/class_application_1_1_game.html#aaa0ff18388b32b4e6198835a35e000d3" target="_top" xlink:title=" ">
<polygon fill="white" stroke="black" points="320,-399.5 320,-429.5 423,-429.5 423,-399.5 320,-399.5"/>
<text text-anchor="start" x="328" y="-417.5" font-family="Helvetica,sans-Serif" font-size="10.00">Application::Game::</text>
<text text-anchor="middle" x="371.5" y="-406.5" font-family="Helvetica,sans-Serif" font-size="10.00">GameLoop</text>
</a>
</g>
</g>
<!-- Node2&#45;&gt;Node3 -->
<g id="edge2" class="edge"><title>Node2&#45;&gt;Node3</title>
<path fill="none" stroke="midnightblue" d="M1841.66,-407.572C1833,-408.277 1824.33,-408.935 1816,-409.5 1728.55,-415.434 1706.6,-415.579 1619,-418.5 1302,-429.072 1222.68,-433.5 905.5,-433.5 905.5,-433.5 905.5,-433.5 720,-433.5 614.265,-433.5 490.703,-424.621 423.096,-419.003"/>
<polygon fill="midnightblue" stroke="midnightblue" points="1842.13,-411.046 1851.8,-406.727 1841.55,-404.07 1842.13,-411.046"/>
</g>
<!-- Node6 -->
<g id="node6" class="node"><title>Node6</title>
<g id="a_node6"><a xlink:href="../../d1/d28/structstru262___turn_based.html#a3d510c1516767374020392bb323a3c06" target="_top" xlink:title=" ">
<polygon fill="white" stroke="black" points="1512,-378.5 1512,-408.5 1619,-408.5 1619,-378.5 1512,-378.5"/>
<text text-anchor="start" x="1520" y="-396.5" font-family="Helvetica,sans-Serif" font-size="10.00">stru262_TurnBased::</text>
<text text-anchor="middle" x="1565.5" y="-385.5" font-family="Helvetica,sans-Serif" font-size="10.00">NextTurn</text>
</a>
</g>
</g>
<!-- Node2&#45;&gt;Node6 -->
<g id="edge5" class="edge"><title>Node2&#45;&gt;Node6</title>
<path fill="none" stroke="midnightblue" d="M1841.44,-398.076C1772.38,-396.926 1677.4,-395.346 1619.08,-394.375"/>
<polygon fill="midnightblue" stroke="midnightblue" points="1841.81,-401.583 1851.87,-398.25 1841.93,-394.583 1841.81,-401.583"/>
</g>
<!-- Node9 -->
<g id="node9" class="node"><title>Node9</title>
<g id="a_node9"><a xlink:href="../../d0/d14/struct_party.html#aaa6686874ea698d79177b7ba5d67d8bd" target="_top" xlink:title=" ">
<polygon fill="white" stroke="black" points="869,-500 869,-519 940,-519 940,-500 869,-500"/>
<text text-anchor="middle" x="904.5" y="-507" font-family="Helvetica,sans-Serif" font-size="10.00">Party::Reset</text>
</a>
</g>
</g>
<!-- Node2&#45;&gt;Node9 -->
<g id="edge9" class="edge"><title>Node2&#45;&gt;Node9</title>
<path fill="none" stroke="midnightblue" d="M1891.03,-419.402C1869.77,-430.376 1842.01,-443.384 1816,-451.5 1708.65,-484.993 1678.95,-493.5 1566.5,-493.5 1566.5,-493.5 1566.5,-493.5 1240,-493.5 1130.41,-493.5 1000.85,-502.175 940.145,-506.75"/>
<polygon fill="midnightblue" stroke="midnightblue" points="1892.78,-422.434 1900.01,-414.686 1889.53,-416.237 1892.78,-422.434"/>
</g>
<!-- Node13 -->
<g id="node13" class="node"><title>Node13</title>
<g id="a_node13"><a xlink:href="../../db/d38/_party_8h.html#a6327fa16a015add5509d93cc738c035b" target="_top" xlink:title=" ">
<polygon fill="white" stroke="black" points="1717,-352 1717,-371 1754,-371 1754,-352 1717,-352"/>
<text text-anchor="middle" x="1735.5" y="-359" font-family="Helvetica,sans-Serif" font-size="10.00">Rest</text>
</a>
</g>
</g>
<!-- Node2&#45;&gt;Node13 -->
<g id="edge17" class="edge"><title>Node2&#45;&gt;Node13</title>
<path fill="none" stroke="midnightblue" d="M1841.82,-382.509C1808.85,-375.933 1774.26,-369.032 1754.07,-365.005"/>
<polygon fill="midnightblue" stroke="midnightblue" points="1841.49,-386.012 1851.98,-384.536 1842.86,-379.147 1841.49,-386.012"/>
</g>
<!-- Node4 -->
<g id="node4" class="node"><title>Node4</title>
<g id="a_node4"><a xlink:href="../../d4/d06/class_application_1_1_game.html#a013ffd59e8fdf1c0a396da1dbe1681ca" target="_top" xlink:title=" ">
<polygon fill="white" stroke="black" points="156,-500 156,-519 280,-519 280,-500 156,-500"/>
<text text-anchor="middle" x="218" y="-507" font-family="Helvetica,sans-Serif" font-size="10.00">Application::Game::Loop</text>
</a>
</g>
</g>
<!-- Node3&#45;&gt;Node4 -->
<g id="edge3" class="edge"><title>Node3&#45;&gt;Node4</title>
<path fill="none" stroke="midnightblue" d="M337.936,-434.92C306.036,-454.923 258.792,-484.548 234.567,-499.738"/>
<polygon fill="midnightblue" stroke="midnightblue" points="339.882,-437.831 346.494,-429.553 336.163,-431.9 339.882,-437.831"/>
</g>
<!-- Node5 -->
<g id="node5" class="node"><title>Node5</title>
<g id="a_node5"><a xlink:href="../../d4/d06/class_application_1_1_game.html#a96341ca5b54d90adc3ecb3bf0bcd2312" target="_top" xlink:title=" ">
<polygon fill="white" stroke="black" points="0,-500 0,-519 120,-519 120,-500 0,-500"/>
<text text-anchor="middle" x="60" y="-507" font-family="Helvetica,sans-Serif" font-size="10.00">Application::Game::Run</text>
</a>
</g>
</g>
<!-- Node4&#45;&gt;Node5 -->
<g id="edge4" class="edge"><title>Node4&#45;&gt;Node5</title>
<path fill="none" stroke="midnightblue" d="M145.546,-509.5C137.081,-509.5 128.513,-509.5 120.244,-509.5"/>
<polygon fill="midnightblue" stroke="midnightblue" points="145.792,-513 155.792,-509.5 145.792,-506 145.792,-513"/>
</g>
<!-- Node7 -->
<g id="node7" class="node"><title>Node7</title>
<g id="a_node7"><a xlink:href="../../d1/d28/structstru262___turn_based.html#a594cf1020b0200b78abf16be8f3ab722" target="_top" xlink:title=" ">
<polygon fill="white" stroke="black" points="1357,-378.5 1357,-408.5 1464,-408.5 1464,-378.5 1357,-378.5"/>
<text text-anchor="start" x="1365" y="-396.5" font-family="Helvetica,sans-Serif" font-size="10.00">stru262_TurnBased::</text>
<text text-anchor="middle" x="1410.5" y="-385.5" font-family="Helvetica,sans-Serif" font-size="10.00">AITurnBasedAction</text>
</a>
</g>
</g>
<!-- Node6&#45;&gt;Node7 -->
<g id="edge6" class="edge"><title>Node6&#45;&gt;Node7</title>
<path fill="none" stroke="midnightblue" d="M1501.57,-393.5C1489.17,-393.5 1476.28,-393.5 1464.25,-393.5"/>
<polygon fill="midnightblue" stroke="midnightblue" points="1501.85,-397 1511.85,-393.5 1501.85,-390 1501.85,-397"/>
</g>
<!-- Node8 -->
<g id="node8" class="node"><title>Node8</title>
<g id="a_node8"><a xlink:href="../../da/d35/struct_actor.html#a8ad58b6020b186e538e3e033f81c073a" target="_top" xlink:title=" ">
<polygon fill="white" stroke="black" points="1018.5,-385 1018.5,-404 1127.5,-404 1127.5,-385 1018.5,-385"/>
<text text-anchor="middle" x="1073" y="-392" font-family="Helvetica,sans-Serif" font-size="10.00">Actor::UpdateActorAI</text>
</a>
</g>
</g>
<!-- Node7&#45;&gt;Node8 -->
<g id="edge7" class="edge"><title>Node7&#45;&gt;Node8</title>
<path fill="none" stroke="midnightblue" d="M1346.48,-393.688C1283.33,-393.876 1187.18,-394.163 1127.59,-394.34"/>
<polygon fill="midnightblue" stroke="midnightblue" points="1346.72,-397.187 1356.71,-393.657 1346.7,-390.187 1346.72,-397.187"/>
</g>
<!-- Node8&#45;&gt;Node3 -->
<g id="edge8" class="edge"><title>Node8&#45;&gt;Node3</title>
<path fill="none" stroke="midnightblue" d="M1007.88,-396.333C870.026,-400.275 547.842,-409.487 423.091,-413.054"/>
<polygon fill="midnightblue" stroke="midnightblue" points="1008.38,-399.821 1018.27,-396.036 1008.18,-392.823 1008.38,-399.821"/>
</g>
<!-- Node9&#45;&gt;Node3 -->
<g id="edge14" class="edge"><title>Node9&#45;&gt;Node3</title>
<path fill="none" stroke="midnightblue" d="M858.985,-503.491C750.916,-488.868 482.122,-452.276 463,-447.5 444.665,-442.921 424.884,-435.955 408.505,-429.601"/>
<polygon fill="midnightblue" stroke="midnightblue" points="858.548,-506.964 868.927,-504.836 859.487,-500.027 858.548,-506.964"/>
</g>
<!-- Node9&#45;&gt;Node4 -->
<g id="edge15" class="edge"><title>Node9&#45;&gt;Node4</title>
<path fill="none" stroke="midnightblue" d="M858.391,-509.5C739.194,-509.5 415.732,-509.5 280.122,-509.5"/>
<polygon fill="midnightblue" stroke="midnightblue" points="858.615,-513 868.614,-509.5 858.614,-506 858.615,-513"/>
</g>
<!-- Node10 -->
<g id="node10" class="node"><title>Node10</title>
<g id="a_node10"><a xlink:href="../../de/da8/_u_i_party_creation_8cpp.html#ab3e0a011d0b8257f92e7b2255996f08d" target="_top" xlink:title=" ">
<polygon fill="white" stroke="black" points="661.5,-538 661.5,-557 780.5,-557 780.5,-538 661.5,-538"/>
<text text-anchor="middle" x="721" y="-545" font-family="Helvetica,sans-Serif" font-size="10.00">CreateParty_EventLoop</text>
</a>
</g>
</g>
<!-- Node9&#45;&gt;Node10 -->
<g id="edge10" class="edge"><title>Node9&#45;&gt;Node10</title>
<path fill="none" stroke="midnightblue" d="M859.067,-518.803C831.23,-524.631 795.45,-532.122 767.427,-537.989"/>
<polygon fill="midnightblue" stroke="midnightblue" points="859.863,-522.212 868.934,-516.737 858.429,-515.361 859.863,-522.212"/>
</g>
<!-- Node12 -->
<g id="node12" class="node"><title>Node12</title>
<g id="a_node12"><a xlink:href="../../d6/d6a/_u_i_party_creation_8h.html#ae6fe5aec2826f251f3950e95fd588d79" target="_top" xlink:title=" ">
<polygon fill="white" stroke="black" points="316,-538 316,-557 427,-557 427,-538 316,-538"/>
<text text-anchor="middle" x="371.5" y="-545" font-family="Helvetica,sans-Serif" font-size="10.00">PartyCreationUI_Loop</text>
</a>
</g>
</g>
<!-- Node9&#45;&gt;Node12 -->
<g id="edge16" class="edge"><title>Node9&#45;&gt;Node12</title>
<path fill="none" stroke="midnightblue" d="M882.683,-525.124C862.685,-539.084 831.011,-558.525 800,-566.5 661.494,-602.117 489.565,-573.426 412.794,-557.001"/>
<polygon fill="midnightblue" stroke="midnightblue" points="884.918,-527.828 891.006,-519.157 880.839,-522.139 884.918,-527.828"/>
</g>
<!-- Node11 -->
<g id="node11" class="node"><title>Node11</title>
<g id="a_node11"><a xlink:href="../../de/da8/_u_i_party_creation_8cpp.html#a3989bc11e4d285e802baa8b00e9663ad" target="_top" xlink:title=" ">
<polygon fill="white" stroke="black" points="463,-538 463,-557 606,-557 606,-538 463,-538"/>
<text text-anchor="middle" x="534.5" y="-545" font-family="Helvetica,sans-Serif" font-size="10.00">PartyCreationUI_LoopInternal</text>
</a>
</g>
</g>
<!-- Node10&#45;&gt;Node11 -->
<g id="edge11" class="edge"><title>Node10&#45;&gt;Node11</title>
<path fill="none" stroke="midnightblue" d="M651.34,-547.5C636.625,-547.5 621.051,-547.5 606.259,-547.5"/>
<polygon fill="midnightblue" stroke="midnightblue" points="651.37,-551 661.37,-547.5 651.37,-544 651.37,-551"/>
</g>
<!-- Node11&#45;&gt;Node12 -->
<g id="edge12" class="edge"><title>Node11&#45;&gt;Node12</title>
<path fill="none" stroke="midnightblue" d="M452.714,-547.5C444.032,-547.5 435.355,-547.5 427.086,-547.5"/>
<polygon fill="midnightblue" stroke="midnightblue" points="452.883,-551 462.883,-547.5 452.883,-544 452.883,-551"/>
</g>
<!-- Node12&#45;&gt;Node4 -->
<g id="edge13" class="edge"><title>Node12&#45;&gt;Node4</title>
<path fill="none" stroke="midnightblue" d="M322.498,-535.46C301.333,-530.151 276.814,-524.001 256.955,-519.02"/>
<polygon fill="midnightblue" stroke="midnightblue" points="321.719,-538.873 332.27,-537.911 323.422,-532.083 321.719,-538.873"/>
</g>
<!-- Node13&#45;&gt;Node14 -->
<g id="edge18" class="edge"><title>Node13&#45;&gt;Node14</title>
<path fill="none" stroke="midnightblue" d="M1707.05,-356.448C1691.13,-352.747 1671.11,-346.73 1655,-337.5 1623.92,-319.695 1594.87,-289.09 1579.01,-270.728"/>
<polygon fill="midnightblue" stroke="midnightblue" points="1706.33,-359.872 1716.84,-358.556 1707.8,-353.029 1706.33,-359.872"/>
</g>
<!-- Node15 -->
<g id="node15" class="node"><title>Node15</title>
<g id="a_node15"><a xlink:href="../../d0/d14/struct_party.html#a7e6c7262893463554672cab394812b00" target="_top" xlink:title=" ">
<polygon fill="white" stroke="black" points="1515,-340 1515,-359 1616,-359 1616,-340 1515,-340"/>
<text text-anchor="middle" x="1565.5" y="-347" font-family="Helvetica,sans-Serif" font-size="10.00">Party::Sleep8Hours</text>
</a>
</g>
</g>
<!-- Node13&#45;&gt;Node15 -->
<g id="edge20" class="edge"><title>Node13&#45;&gt;Node15</title>
<path fill="none" stroke="midnightblue" d="M1706.78,-359.52C1682.24,-357.767 1645.82,-355.165 1616.24,-353.053"/>
<polygon fill="midnightblue" stroke="midnightblue" points="1706.61,-363.017 1716.84,-360.238 1707.11,-356.035 1706.61,-363.017"/>
</g>
<!-- Node14&#45;&gt;Node3 -->
<g id="edge19" class="edge"><title>Node14&#45;&gt;Node3</title>
<path fill="none" stroke="midnightblue" d="M1503.92,-258.199C1439.12,-260.85 1333.31,-264.5 1242,-264.5 1242,-264.5 1242,-264.5 720,-264.5 584.965,-264.5 442.802,-361.157 391.968,-399.292"/>
<polygon fill="midnightblue" stroke="midnightblue" points="1504.11,-261.694 1513.96,-257.783 1503.82,-254.7 1504.11,-261.694"/>
</g>
<!-- Node16 -->
<g id="node16" class="node"><title>Node16</title>
<g id="a_node16"><a xlink:href="../../d2/d13/class_g_u_i_window___rest.html#a2fb35507e96666175f07fb9c0ed4c036" target="_top" xlink:title=" ">
<polygon fill="white" stroke="black" points="1345.5,-340 1345.5,-359 1475.5,-359 1475.5,-340 1345.5,-340"/>
<text text-anchor="middle" x="1410.5" y="-347" font-family="Helvetica,sans-Serif" font-size="10.00">GUIWindow_Rest::Update</text>
</a>
</g>
</g>
<!-- Node15&#45;&gt;Node16 -->
<g id="edge21" class="edge"><title>Node15&#45;&gt;Node16</title>
<path fill="none" stroke="midnightblue" d="M1504.68,-349.5C1495.17,-349.5 1485.31,-349.5 1475.7,-349.5"/>
<polygon fill="midnightblue" stroke="midnightblue" points="1504.83,-353 1514.83,-349.5 1504.83,-346 1504.83,-353"/>
</g>
<!-- Node17&#45;&gt;Node14 -->
<g id="edge24" class="edge"><title>Node17&#45;&gt;Node14</title>
<path fill="none" stroke="midnightblue" d="M1866.07,-275.496C1810.94,-271.867 1727.53,-266.359 1655,-261.5 1642.71,-260.677 1629.46,-259.782 1617.04,-258.941"/>
<polygon fill="midnightblue" stroke="midnightblue" points="1866.16,-279.009 1876.37,-276.174 1866.62,-272.024 1866.16,-279.009"/>
</g>
<!-- Node19&#45;&gt;Node14 -->
<g id="edge54" class="edge"><title>Node19&#45;&gt;Node14</title>
<path fill="none" stroke="midnightblue" d="M1908.6,-170.89C1887.75,-188.42 1851.98,-215.453 1816,-228.5 1750.26,-252.34 1668.88,-256.9 1617.31,-256.984"/>
<polygon fill="midnightblue" stroke="midnightblue" points="1911.03,-173.42 1916.33,-164.248 1906.46,-168.112 1911.03,-173.42"/>
</g>
<!-- Node20 -->
<g id="node20" class="node"><title>Node20</title>
<g id="a_node20"><a xlink:href="../../d8/d06/namespace_cast_spell_info_helpers.html#a6fa3b22b4867c28cad6c215c646dc4aa" target="_top" xlink:title=" ">
<polygon fill="white" stroke="black" points="1680.5,-188.5 1680.5,-218.5 1790.5,-218.5 1790.5,-188.5 1680.5,-188.5"/>
<text text-anchor="start" x="1688.5" y="-206.5" font-family="Helvetica,sans-Serif" font-size="10.00">CastSpellInfoHelpers</text>
<text text-anchor="middle" x="1735.5" y="-195.5" font-family="Helvetica,sans-Serif" font-size="10.00">::_427E01_cast_spell</text>
</a>
</g>
</g>
<!-- Node19&#45;&gt;Node20 -->
<g id="edge27" class="edge"><title>Node19&#45;&gt;Node20</title>
<path fill="none" stroke="midnightblue" d="M1879.82,-166.637C1852.75,-173.598 1818.67,-182.364 1790.54,-189.601"/>
<polygon fill="midnightblue" stroke="midnightblue" points="1881,-169.945 1889.82,-164.064 1879.26,-163.166 1881,-169.945"/>
</g>
<!-- Node21 -->
<g id="node21" class="node"><title>Node21</title>
<g id="a_node21"><a xlink:href="../../d3/db1/struct_player.html#adcd0e965260bb120a6e90b515cc748ac" target="_top" xlink:title=" ">
<polygon fill="white" stroke="black" points="1656.5,-139.5 1656.5,-169.5 1814.5,-169.5 1814.5,-139.5 1656.5,-139.5"/>
<text text-anchor="start" x="1664.5" y="-157.5" font-family="Helvetica,sans-Serif" font-size="10.00">Player::_42ECB5_PlayerAttacks</text>
<text text-anchor="middle" x="1735.5" y="-146.5" font-family="Helvetica,sans-Serif" font-size="10.00">Actor</text>
</a>
</g>
</g>
<!-- Node19&#45;&gt;Node21 -->
<g id="edge29" class="edge"><title>Node19&#45;&gt;Node21</title>
<path fill="none" stroke="midnightblue" d="M1854.55,-154.5C1841.46,-154.5 1827.77,-154.5 1814.54,-154.5"/>
<polygon fill="midnightblue" stroke="midnightblue" points="1854.89,-158 1864.89,-154.5 1854.89,-151 1854.89,-158"/>
</g>
<!-- Node22 -->
<g id="node22" class="node"><title>Node22</title>
<g id="a_node22"><a xlink:href="../../d1/d39/_player_8h.html#a296914f5ab9688709f8a797e52c4866b" target="_top" xlink:title=" ">
<polygon fill="white" stroke="black" points="1666.5,-63 1666.5,-82 1804.5,-82 1804.5,-63 1666.5,-63"/>
<text text-anchor="middle" x="1735.5" y="-70" font-family="Helvetica,sans-Serif" font-size="10.00">DamagePlayerFromMonster</text>
</a>
</g>
</g>
<!-- Node19&#45;&gt;Node22 -->
<g id="edge31" class="edge"><title>Node19&#45;&gt;Node22</title>
<path fill="none" stroke="midnightblue" d="M1904.4,-139.143C1882.62,-124.961 1848.29,-104.225 1816,-91.5 1806.49,-87.7537 1796.05,-84.6118 1785.94,-82.0306"/>
<polygon fill="midnightblue" stroke="midnightblue" points="1902.66,-142.184 1912.93,-144.777 1906.52,-136.344 1902.66,-142.184"/>
</g>
<!-- Node37 -->
<g id="node37" class="node"><title>Node37</title>
<g id="a_node37"><a xlink:href="../../da/d35/struct_actor.html#a4d67f03cd45a4619eccf79838f9eb3a7" target="_top" xlink:title=" ">
<polygon fill="white" stroke="black" points="1690,-101 1690,-120 1781,-120 1781,-101 1690,-101"/>
<text text-anchor="middle" x="1735.5" y="-108" font-family="Helvetica,sans-Serif" font-size="10.00">Actor::StealFrom</text>
</a>
</g>
</g>
<!-- Node19&#45;&gt;Node37 -->
<g id="edge55" class="edge"><title>Node19&#45;&gt;Node37</title>
<path fill="none" stroke="midnightblue" d="M1875.58,-142.624C1844.89,-135.536 1806.44,-126.655 1777.75,-120.029"/>
<polygon fill="midnightblue" stroke="midnightblue" points="1875.13,-146.112 1885.66,-144.953 1876.71,-139.292 1875.13,-146.112"/>
</g>
<!-- Node38 -->
<g id="node38" class="node"><title>Node38</title>
<g id="a_node38"><a xlink:href="../../d3/db1/struct_player.html#a3de138c2c484a5eced6fade1b560fd87" target="_top" xlink:title=" ">
<polygon fill="white" stroke="black" points="1655,-25 1655,-44 1816,-44 1816,-25 1655,-25"/>
<text text-anchor="middle" x="1735.5" y="-32" font-family="Helvetica,sans-Serif" font-size="10.00">Player::UseItem_DrinkPotion_etc</text>
</a>
</g>
</g>
<!-- Node19&#45;&gt;Node38 -->
<g id="edge57" class="edge"><title>Node19&#45;&gt;Node38</title>
<path fill="none" stroke="midnightblue" d="M1912.69,-136.842C1893.24,-114.043 1856.23,-74.7759 1816,-53.5 1808.72,-49.6524 1800.66,-46.573 1792.55,-44.1111"/>
<polygon fill="midnightblue" stroke="midnightblue" points="1910.16,-139.271 1919.26,-144.702 1915.54,-134.784 1910.16,-139.271"/>
</g>
<!-- Node20&#45;&gt;Node14 -->
<g id="edge28" class="edge"><title>Node20&#45;&gt;Node14</title>
<path fill="none" stroke="midnightblue" d="M1676.29,-221.519C1656.29,-227.709 1634.13,-234.568 1614.98,-240.493"/>
<polygon fill="midnightblue" stroke="midnightblue" points="1677.39,-224.841 1685.91,-218.541 1675.32,-218.154 1677.39,-224.841"/>
</g>
<!-- Node21&#45;&gt;Node14 -->
<g id="edge30" class="edge"><title>Node21&#45;&gt;Node14</title>
<path fill="none" stroke="midnightblue" d="M1665.04,-173.51C1661.58,-175.061 1658.22,-176.723 1655,-178.5 1625.05,-195.042 1596.3,-223.033 1580.07,-240.323"/>
<polygon fill="midnightblue" stroke="midnightblue" points="1666.43,-176.719 1674.33,-169.659 1663.76,-170.252 1666.43,-176.719"/>
</g>
<!-- Node23 -->
<g id="node23" class="node"><title>Node23</title>
<g id="a_node23"><a xlink:href="../../de/deb/_actor_8h.html#aa9d9c1bc5e3c38f0827c69299622b850" target="_top" xlink:title=" ">
<polygon fill="white" stroke="black" points="1349.5,-158.5 1349.5,-188.5 1471.5,-188.5 1471.5,-158.5 1349.5,-158.5"/>
<text text-anchor="start" x="1357.5" y="-176.5" font-family="Helvetica,sans-Serif" font-size="10.00">area_of_effect__damage</text>
<text text-anchor="middle" x="1410.5" y="-165.5" font-family="Helvetica,sans-Serif" font-size="10.00">_evaluate</text>
</a>
</g>
</g>
<!-- Node22&#45;&gt;Node23 -->
<g id="edge32" class="edge"><title>Node22&#45;&gt;Node23</title>
<path fill="none" stroke="midnightblue" d="M1681.51,-84.4603C1672.62,-86.6671 1663.52,-89.052 1655,-91.5 1582.97,-112.189 1500.61,-141.038 1452.5,-158.427"/>
<polygon fill="midnightblue" stroke="midnightblue" points="1682.52,-87.8166 1691.41,-82.0506 1680.86,-81.0152 1682.52,-87.8166"/>
</g>
<!-- Node25 -->
<g id="node25" class="node"><title>Node25</title>
<g id="a_node25"><a xlink:href="../../d9/ded/_sprite_object_8cpp.html#acf99fe98d2a583eb9438b8e21bf7ee07" target="_top" xlink:title=" ">
<polygon fill="white" stroke="black" points="1529.5,-63 1529.5,-82 1601.5,-82 1601.5,-63 1529.5,-63"/>
<text text-anchor="middle" x="1565.5" y="-70" font-family="Helvetica,sans-Serif" font-size="10.00">sub_43A97E</text>
</a>
</g>
</g>
<!-- Node22&#45;&gt;Node25 -->
<g id="edge35" class="edge"><title>Node22&#45;&gt;Node25</title>
<path fill="none" stroke="midnightblue" d="M1655.96,-72.5C1636.9,-72.5 1617.48,-72.5 1601.62,-72.5"/>
<polygon fill="midnightblue" stroke="midnightblue" points="1656.17,-76.0001 1666.17,-72.5 1656.17,-69.0001 1656.17,-76.0001"/>
</g>
<!-- Node24 -->
<g id="node24" class="node"><title>Node24</title>
<g id="a_node24"><a xlink:href="../../de/dcf/_engine_8h.html#a73fe5e8d7dc6ec78e5cc180d1915341b" target="_top" xlink:title=" ">
<polygon fill="white" stroke="black" points="479.5,-169.5 479.5,-199.5 589.5,-199.5 589.5,-169.5 479.5,-169.5"/>
<text text-anchor="start" x="487.5" y="-187.5" font-family="Helvetica,sans-Serif" font-size="10.00">UpdateUserInput_and</text>
<text text-anchor="middle" x="534.5" y="-176.5" font-family="Helvetica,sans-Serif" font-size="10.00">_MapSpecificStuff</text>
</a>
</g>
</g>
<!-- Node23&#45;&gt;Node24 -->
<g id="edge33" class="edge"><title>Node23&#45;&gt;Node24</title>
<path fill="none" stroke="midnightblue" d="M1339.19,-190.165C1271.62,-204.708 1166.42,-223.5 1074,-223.5 1074,-223.5 1074,-223.5 903.5,-223.5 791.39,-223.5 661.132,-205.379 589.557,-193.841"/>
<polygon fill="midnightblue" stroke="midnightblue" points="1340.27,-193.512 1349.29,-187.962 1338.78,-186.673 1340.27,-193.512"/>
</g>
<!-- Node24&#45;&gt;Node3 -->
<g id="edge34" class="edge"><title>Node24&#45;&gt;Node3</title>
<path fill="none" stroke="midnightblue" d="M506.401,-206.289C492.403,-218.383 475.653,-234.241 463,-250.5 424.255,-300.289 392.26,-368.798 379.036,-399.062"/>
<polygon fill="midnightblue" stroke="midnightblue" points="508.9,-208.759 514.273,-199.628 504.378,-203.415 508.9,-208.759"/>
</g>
<!-- Node26 -->
<g id="node26" class="node"><title>Node26</title>
<g id="a_node26"><a xlink:href="../../d9/ded/_sprite_object_8cpp.html#a457801379764f6519b638ea5b505967e" target="_top" xlink:title=" ">
<polygon fill="white" stroke="black" points="1345,-63 1345,-82 1476,-82 1476,-63 1345,-63"/>
<text text-anchor="middle" x="1410.5" y="-70" font-family="Helvetica,sans-Serif" font-size="10.00">_46BFFA_update_spell_fx</text>
</a>
</g>
</g>
<!-- Node25&#45;&gt;Node26 -->
<g id="edge36" class="edge"><title>Node25&#45;&gt;Node26</title>
<path fill="none" stroke="midnightblue" d="M1519.39,-72.5C1505.86,-72.5 1490.74,-72.5 1476.2,-72.5"/>
<polygon fill="midnightblue" stroke="midnightblue" points="1519.4,-76.0001 1529.4,-72.5 1519.4,-69.0001 1519.4,-76.0001"/>
</g>
<!-- Node27 -->
<g id="node27" class="node"><title>Node27</title>
<g id="a_node27"><a xlink:href="../../da/d20/_i_render_8h.html#a2827fe354fe45bc8a3b7bddc1f2236dc" target="_top" xlink:title=" ">
<polygon fill="white" stroke="black" points="1204.5,-138 1204.5,-157 1277.5,-157 1277.5,-138 1204.5,-138"/>
<text text-anchor="middle" x="1241" y="-145" font-family="Helvetica,sans-Serif" font-size="10.00">sub_46DEF2</text>
</a>
</g>
</g>
<!-- Node26&#45;&gt;Node27 -->
<g id="edge37" class="edge"><title>Node26&#45;&gt;Node27</title>
<path fill="none" stroke="midnightblue" d="M1385.63,-87.4353C1365.7,-99.4415 1336.25,-116.124 1309,-127.5 1299.03,-131.662 1287.89,-135.347 1277.61,-138.384"/>
<polygon fill="midnightblue" stroke="midnightblue" points="1387.62,-90.3195 1394.34,-82.1225 1383.98,-84.3443 1387.62,-90.3195"/>
</g>
<!-- Node34 -->
<g id="node34" class="node"><title>Node34</title>
<g id="a_node34"><a xlink:href="../../d0/d5a/struct_sprite_object.html#a9e0d2e0c49fb02c2bf900de59aecff85" target="_top" xlink:title=" ">
<polygon fill="white" stroke="black" points="1173,-88.5 1173,-118.5 1309,-118.5 1309,-88.5 1173,-88.5"/>
<text text-anchor="start" x="1181" y="-106.5" font-family="Helvetica,sans-Serif" font-size="10.00">SpriteObject::UpdateObject</text>
<text text-anchor="middle" x="1241" y="-95.5" font-family="Helvetica,sans-Serif" font-size="10.00">_fn0_BLV</text>
</a>
</g>
</g>
<!-- Node26&#45;&gt;Node34 -->
<g id="edge47" class="edge"><title>Node26&#45;&gt;Node34</title>
<path fill="none" stroke="midnightblue" d="M1347.94,-83.8929C1335.33,-86.2271 1321.99,-88.6954 1309.19,-91.0642"/>
<polygon fill="midnightblue" stroke="midnightblue" points="1348.68,-87.3155 1357.88,-82.054 1347.41,-80.4323 1348.68,-87.3155"/>
</g>
<!-- Node35 -->
<g id="node35" class="node"><title>Node35</title>
<g id="a_node35"><a xlink:href="../../da/d20/_i_render_8h.html#a522912d67446895b0a03d01837b75a99" target="_top" xlink:title=" ">
<polygon fill="white" stroke="black" points="1032.5,-50 1032.5,-69 1113.5,-69 1113.5,-50 1032.5,-50"/>
<text text-anchor="middle" x="1073" y="-57" font-family="Helvetica,sans-Serif" font-size="10.00">UpdateObjects</text>
</a>
</g>
</g>
<!-- Node26&#45;&gt;Node35 -->
<g id="edge53" class="edge"><title>Node26&#45;&gt;Node35</title>
<path fill="none" stroke="midnightblue" d="M1334.54,-69.5955C1266.25,-66.9494 1168.03,-63.1435 1113.78,-61.0415"/>
<polygon fill="midnightblue" stroke="midnightblue" points="1334.68,-73.1036 1344.81,-69.9935 1334.96,-66.1088 1334.68,-73.1036"/>
</g>
<!-- Node36 -->
<g id="node36" class="node"><title>Node36</title>
<g id="a_node36"><a xlink:href="../../d0/d5a/struct_sprite_object.html#a950e5cedc1e8cfc98d77ba9b3f91071f" target="_top" xlink:title=" ">
<polygon fill="white" stroke="black" points="1173,-0.5 1173,-30.5 1309,-30.5 1309,-0.5 1173,-0.5"/>
<text text-anchor="start" x="1181" y="-18.5" font-family="Helvetica,sans-Serif" font-size="10.00">SpriteObject::UpdateObject</text>
<text text-anchor="middle" x="1241" y="-7.5" font-family="Helvetica,sans-Serif" font-size="10.00">_fn0_ODM</text>
</a>
</g>
</g>
<!-- Node26&#45;&gt;Node36 -->
<g id="edge51" class="edge"><title>Node26&#45;&gt;Node36</title>
<path fill="none" stroke="midnightblue" d="M1371.83,-59.6794C1346.44,-51.0421 1312.87,-39.6153 1286.22,-30.5468"/>
<polygon fill="midnightblue" stroke="midnightblue" points="1370.87,-63.0513 1381.46,-62.9595 1373.12,-56.4244 1370.87,-63.0513"/>
</g>
<!-- Node28 -->
<g id="node28" class="node"><title>Node28</title>
<g id="a_node28"><a xlink:href="../../da/d20/_i_render_8h.html#a0e63804ace29468efe95593015c3747c" target="_top" xlink:title=" ">
<polygon fill="white" stroke="black" points="1009,-132.5 1009,-162.5 1137,-162.5 1137,-132.5 1009,-132.5"/>
<text text-anchor="start" x="1017" y="-150.5" font-family="Helvetica,sans-Serif" font-size="10.00">_46ED8A_collide_against</text>
<text text-anchor="middle" x="1073" y="-139.5" font-family="Helvetica,sans-Serif" font-size="10.00">_sprite_objects</text>
</a>
</g>
</g>
<!-- Node27&#45;&gt;Node28 -->
<g id="edge38" class="edge"><title>Node27&#45;&gt;Node28</title>
<path fill="none" stroke="midnightblue" d="M1194.33,-147.5C1176.64,-147.5 1156.08,-147.5 1137.02,-147.5"/>
<polygon fill="midnightblue" stroke="midnightblue" points="1194.39,-151 1204.39,-147.5 1194.39,-144 1194.39,-151"/>
</g>
<!-- Node29 -->
<g id="node29" class="node"><title>Node29</title>
<g id="a_node29"><a xlink:href="../../dc/dfb/_outdoor_8h.html#a62e44d7fd493356cb340fe1dc8fe993b" target="_top" xlink:title=" ">
<polygon fill="white" stroke="black" points="836,-176 836,-195 973,-195 973,-176 836,-176"/>
<text text-anchor="middle" x="904.5" y="-183" font-family="Helvetica,sans-Serif" font-size="10.00">ODM_ProcessPartyActions</text>
</a>
</g>
</g>
<!-- Node28&#45;&gt;Node29 -->
<g id="edge39" class="edge"><title>Node28&#45;&gt;Node29</title>
<path fill="none" stroke="midnightblue" d="M998.378,-164.303C980.901,-168.291 962.849,-172.411 947.361,-175.946"/>
<polygon fill="midnightblue" stroke="midnightblue" points="999.608,-167.612 1008.58,-161.975 998.05,-160.787 999.608,-167.612"/>
</g>
<!-- Node31 -->
<g id="node31" class="node"><title>Node31</title>
<g id="a_node31"><a xlink:href="../../da/dc7/_indoor_8h.html#a91180cf18d91c79b7bc41c630c261cbd" target="_top" xlink:title=" ">
<polygon fill="white" stroke="black" points="854.5,-100 854.5,-119 954.5,-119 954.5,-100 854.5,-100"/>
<text text-anchor="middle" x="904.5" y="-107" font-family="Helvetica,sans-Serif" font-size="10.00">UpdateActors_BLV</text>
</a>
</g>
</g>
<!-- Node28&#45;&gt;Node31 -->
<g id="edge42" class="edge"><title>Node28&#45;&gt;Node31</title>
<path fill="none" stroke="midnightblue" d="M998.378,-130.697C980.901,-126.709 962.849,-122.589 947.361,-119.054"/>
<polygon fill="midnightblue" stroke="midnightblue" points="998.05,-134.213 1008.58,-133.025 999.608,-127.388 998.05,-134.213"/>
</g>
<!-- Node33 -->
<g id="node33" class="node"><title>Node33</title>
<g id="a_node33"><a xlink:href="../../dc/dfb/_outdoor_8h.html#ab3cc30c01fb2e9afa8ec291e6043bf99" target="_top" xlink:title=" ">
<polygon fill="white" stroke="black" points="852.5,-138 852.5,-157 956.5,-157 956.5,-138 852.5,-138"/>
<text text-anchor="middle" x="904.5" y="-145" font-family="Helvetica,sans-Serif" font-size="10.00">UpdateActors_ODM</text>
</a>
</g>
</g>
<!-- Node28&#45;&gt;Node33 -->
<g id="edge45" class="edge"><title>Node28&#45;&gt;Node33</title>
<path fill="none" stroke="midnightblue" d="M998.396,-147.5C984.288,-147.5 969.805,-147.5 956.599,-147.5"/>
<polygon fill="midnightblue" stroke="midnightblue" points="998.579,-151 1008.58,-147.5 998.578,-144 998.579,-151"/>
</g>
<!-- Node30 -->
<g id="node30" class="node"><title>Node30</title>
<g id="a_node30"><a xlink:href="../../dc/dfb/_outdoor_8h.html#aeedbd3470634fbb22ebda28d2f8006e4" target="_top" xlink:title=" ">
<polygon fill="white" stroke="black" points="642,-156 642,-175 800,-175 800,-156 642,-156"/>
<text text-anchor="middle" x="721" y="-163" font-family="Helvetica,sans-Serif" font-size="10.00">ODM_UpdateUserInputAndOther</text>
</a>
</g>
</g>
<!-- Node29&#45;&gt;Node30 -->
<g id="edge40" class="edge"><title>Node29&#45;&gt;Node30</title>
<path fill="none" stroke="midnightblue" d="M825.94,-176.953C817.363,-176.008 808.625,-175.045 800.042,-174.1"/>
<polygon fill="midnightblue" stroke="midnightblue" points="825.593,-180.436 835.916,-178.053 826.36,-173.478 825.593,-180.436"/>
</g>
<!-- Node30&#45;&gt;Node24 -->
<g id="edge41" class="edge"><title>Node30&#45;&gt;Node24</title>
<path fill="none" stroke="midnightblue" d="M631.395,-174.625C617.11,-176.096 602.71,-177.579 589.565,-178.932"/>
<polygon fill="midnightblue" stroke="midnightblue" points="632.167,-178.064 641.755,-173.558 631.449,-171.101 632.167,-178.064"/>
</g>
<!-- Node32 -->
<g id="node32" class="node"><title>Node32</title>
<g id="a_node32"><a xlink:href="../../da/dc7/_indoor_8h.html#a7d511837933d59eeeccfc25275a366d8" target="_top" xlink:title=" ">
<polygon fill="white" stroke="black" points="644,-100 644,-119 798,-119 798,-100 644,-100"/>
<text text-anchor="middle" x="721" y="-107" font-family="Helvetica,sans-Serif" font-size="10.00">BLV_UpdateUserInputAndOther</text>
</a>
</g>
</g>
<!-- Node31&#45;&gt;Node32 -->
<g id="edge43" class="edge"><title>Node31&#45;&gt;Node32</title>
<path fill="none" stroke="midnightblue" d="M843.964,-109.5C829.319,-109.5 813.439,-109.5 798.129,-109.5"/>
<polygon fill="midnightblue" stroke="midnightblue" points="844.384,-113 854.383,-109.5 844.383,-106 844.384,-113"/>
</g>
<!-- Node32&#45;&gt;Node24 -->
<g id="edge44" class="edge"><title>Node32&#45;&gt;Node24</title>
<path fill="none" stroke="midnightblue" d="M686.842,-122.979C654.676,-136.055 605.958,-155.859 572.536,-169.445"/>
<polygon fill="midnightblue" stroke="midnightblue" points="688.312,-126.16 696.258,-119.151 685.676,-119.675 688.312,-126.16"/>
</g>
<!-- Node33&#45;&gt;Node30 -->
<g id="edge46" class="edge"><title>Node33&#45;&gt;Node30</title>
<path fill="none" stroke="midnightblue" d="M842.317,-153.568C828.772,-154.911 814.241,-156.352 800.126,-157.752"/>
<polygon fill="midnightblue" stroke="midnightblue" points="842.853,-157.032 852.459,-152.562 842.162,-150.066 842.853,-157.032"/>
</g>
<!-- Node34&#45;&gt;Node35 -->
<g id="edge48" class="edge"><title>Node34&#45;&gt;Node35</title>
<path fill="none" stroke="midnightblue" d="M1173.53,-85.8806C1151.89,-80.1453 1128.69,-73.9959 1110.14,-69.0783"/>
<polygon fill="midnightblue" stroke="midnightblue" points="1172.77,-89.3017 1183.34,-88.4808 1174.57,-82.5354 1172.77,-89.3017"/>
</g>
<!-- Node35&#45;&gt;Node30 -->
<g id="edge50" class="edge"><title>Node35&#45;&gt;Node30</title>
<path fill="none" stroke="midnightblue" d="M1022.28,-56.6399C972.473,-55.8592 894.945,-60.4457 836,-90.5 815.274,-101.068 818.83,-114.838 800,-128.5 784.108,-140.03 764.056,-149.449 748.262,-155.897"/>
<polygon fill="midnightblue" stroke="midnightblue" points="1022.39,-60.1434 1032.47,-56.8807 1022.56,-53.1453 1022.39,-60.1434"/>
</g>
<!-- Node35&#45;&gt;Node32 -->
<g id="edge49" class="edge"><title>Node35&#45;&gt;Node32</title>
<path fill="none" stroke="midnightblue" d="M1022.03,-52.7484C973.807,-47.7092 899.041,-43.8012 836,-57.5 798.587,-65.6298 758.734,-87.1593 737.48,-99.8212"/>
<polygon fill="midnightblue" stroke="midnightblue" points="1021.88,-56.2527 1032.2,-53.8694 1022.65,-49.2949 1021.88,-56.2527"/>
</g>
<!-- Node36&#45;&gt;Node35 -->
<g id="edge52" class="edge"><title>Node36&#45;&gt;Node35</title>
<path fill="none" stroke="midnightblue" d="M1173.53,-33.1194C1151.89,-38.8547 1128.69,-45.0041 1110.14,-49.9217"/>
<polygon fill="midnightblue" stroke="midnightblue" points="1174.57,-36.4646 1183.34,-30.5192 1172.77,-29.6983 1174.57,-36.4646"/>
</g>
<!-- Node37&#45;&gt;Node14 -->
<g id="edge56" class="edge"><title>Node37&#45;&gt;Node14</title>
<path fill="none" stroke="midnightblue" d="M1679.77,-118.023C1671.02,-120.752 1662.42,-124.461 1655,-129.5 1612.98,-158.033 1584.58,-213.618 1572.74,-240.383"/>
<polygon fill="midnightblue" stroke="midnightblue" points="1680.92,-121.338 1689.66,-115.34 1679.09,-114.582 1680.92,-121.338"/>
</g>
</g>
</svg>
        <g id="navigator" transform="translate(0 0)" fill="#404254">
                <rect fill="#f2f5e9" fill-opacity="0.5" stroke="#606060" stroke-width=".5" x="0" y="0" width="60" height="60"/>
                <use id="zoomplus" xlink:href="#zoomPlus" x="17" y="9" onmousedown="handleZoom(evt,'in')"/>
                <use id="zoomminus" xlink:href="#zoomMin" x="42" y="9" onmousedown="handleZoom(evt,'out')"/>
                <use id="reset" xlink:href="#resetDef" x="30" y="36" onmousedown="handleReset()"/>
                <g id="arrowUp" xlink:href="#dirArrow" transform="translate(30 24)" onmousedown="handlePan(0,-1)">
                  <use xlink:href="#rim" fill="#404040">
                        <set attributeName="fill" to="#808080" begin="arrowUp.mouseover" end="arrowUp.mouseout"/>
                  </use>
                  <path fill="none" stroke="white" stroke-width="1.5" d="M0,-3.0v7 M-2.5,-0.5L0,-3.0L2.5,-0.5"/>
                </g>
                <g id="arrowRight" xlink:href="#dirArrow" transform="rotate(90) translate(36 -43)" onmousedown="handlePan(1,0)">
                  <use xlink:href="#rim" fill="#404040">
                        <set attributeName="fill" to="#808080" begin="arrowRight.mouseover" end="arrowRight.mouseout"/>
                  </use>
                  <path fill="none" stroke="white" stroke-width="1.5" d="M0,-3.0v7 M-2.5,-0.5L0,-3.0L2.5,-0.5"/>
                </g>
                <g id="arrowDown" xlink:href="#dirArrow" transform="rotate(180) translate(-30 -48)" onmousedown="handlePan(0,1)">
                  <use xlink:href="#rim" fill="#404040">
                        <set attributeName="fill" to="#808080" begin="arrowDown.mouseover" end="arrowDown.mouseout"/>
                  </use>
                  <path fill="none" stroke="white" stroke-width="1.5" d="M0,-3.0v7 M-2.5,-0.5L0,-3.0L2.5,-0.5"/>
                </g>
                <g id="arrowLeft" xlink:href="#dirArrow" transform="rotate(270) translate(-36 17)" onmousedown="handlePan(-1,0)">
                  <use xlink:href="#rim" fill="#404040">
                        <set attributeName="fill" to="#808080" begin="arrowLeft.mouseover" end="arrowLeft.mouseout"/>
                  </use>
                  <path fill="none" stroke="white" stroke-width="1.5" d="M0,-3.0v7 M-2.5,-0.5L0,-3.0L2.5,-0.5"/>
                </g>
        </g>
        <svg viewBox="0 0 15 15" width="100%" height="30px" preserveAspectRatio="xMaxYMin meet">
         <g id="arrow_out" transform="scale(0.3 0.3)">
          <a xlink:href="struct_party_a47ff91c6c78be96285be388f2cd4e3c6_icgraph_org.svg" target="_base">
           <rect id="button" ry="5" rx="5" y="6" x="6" height="38" width="38"
                fill="#f2f5e9" fill-opacity="0.5" stroke="#606060" stroke-width="1.0"/>
           <path id="arrow"
             d="M 11.500037,31.436501 C 11.940474,20.09759 22.043105,11.32322 32.158766,21.979434 L 37.068811,17.246167 C 37.068811,17.246167 37.088388,32 37.088388,32 L 22.160133,31.978069 C 22.160133,31.978069 26.997745,27.140456 26.997745,27.140456 C 18.528582,18.264221 13.291696,25.230495 11.500037,31.436501 z"
             style="fill:#404040;"/>
          </a>
         </g>
        </svg>
</svg>
