<?xml version="1.0" encoding="UTF-8" standalone="no"?>
<!DOCTYPE svg PUBLIC "-//W3C//DTD SVG 1.1//EN"
 "http://www.w3.org/Graphics/SVG/1.1/DTD/svg11.dtd">
<!-- Generated by graphviz version 2.38.0 (20140413.2041)
 -->
<!-- Title: Party::TakeGold Pages: 1 -->
<!--zoomable 458 -->
<svg id="main" version="1.1" xmlns="http://www.w3.org/2000/svg" xmlns:xlink="http://www.w3.org/1999/xlink" xml:space="preserve" onload="init(evt)">
<style type="text/css"><![CDATA[
.edge:hover path { stroke: red; }
.edge:hover polygon { stroke: red; fill: red; }
]]></style>
<script type="text/javascript"><![CDATA[
var edges = document.getElementsByTagName('g');
if (edges && edges.length) {
  for (var i=0;i<edges.length;i++) {
    if (edges[i].id.substr(0,4)=='edge') {
      edges[i].setAttribute('class','edge');
    }
  }
}
]]></script>
        <defs>
                <circle id="rim" cx="0" cy="0" r="7"/>
                <circle id="rim2" cx="0" cy="0" r="3.5"/>
                <g id="zoomPlus">
                        <use xlink:href="#rim" fill="#404040">
                                <set attributeName="fill" to="#808080" begin="zoomplus.mouseover" end="zoomplus.mouseout"/>
                        </use>
                        <path d="M-4,0h8M0,-4v8" fill="none" stroke="white" stroke-width="1.5" pointer-events="none"/>
                </g>
                <g id="zoomMin">
                        <use xlink:href="#rim" fill="#404040">
                                <set attributeName="fill" to="#808080" begin="zoomminus.mouseover" end="zoomminus.mouseout"/>
                        </use>
                        <path d="M-4,0h8" fill="none" stroke="white" stroke-width="1.5" pointer-events="none"/>
                </g>
                <g id="dirArrow">
                        <path fill="none" stroke="white" stroke-width="1.5" d="M0,-3.0v7 M-2.5,-0.5L0,-3.0L2.5,-0.5"/>
                </g>
               <g id="resetDef">
                       <use xlink:href="#rim2" fill="#404040">
                               <set attributeName="fill" to="#808080" begin="reset.mouseover" end="reset.mouseout"/>
                       </use>
               </g>
        </defs>

<script type="text/javascript">
var viewWidth = 965;
var viewHeight = 458;
var sectionId = 'dynsection-38';
</script>
<script xlink:href="../../svgpan.js"/>
<svg id="graph" class="graph">
<g id="viewport">
<title>Party::TakeGold</title>
<polygon fill="white" stroke="none" points="-4,4 -4,-454 961,-454 961,4 -4,4"/>
<!-- Node1 -->
<g id="node1" class="node"><title>Node1</title>
<g id="a_node1"><a xlink:title=" ">
<polygon fill="#bfbfbf" stroke="black" points="870,-209.5 870,-228.5 957,-228.5 957,-209.5 870,-209.5"/>
<text text-anchor="middle" x="913.5" y="-216.5" font-family="Helvetica,sans-Serif" font-size="10.00">Party::TakeGold</text>
</a>
</g>
</g>
<!-- Node2 -->
<g id="node2" class="node"><title>Node2</title>
<g id="a_node2"><a xlink:href="../../d4/dc7/_u_i_houses_8h.html#a6a8b5b55aa413db9c82a54e32b0e6ca6" target="_top" xlink:title=" ">
<polygon fill="white" stroke="black" points="729.5,-152.5 729.5,-171.5 795.5,-171.5 795.5,-152.5 729.5,-152.5"/>
<text text-anchor="middle" x="762.5" y="-159.5" font-family="Helvetica,sans-Serif" font-size="10.00">BankDialog</text>
</a>
</g>
</g>
<!-- Node1&#45;&gt;Node2 -->
<g id="edge1" class="edge"><title>Node1&#45;&gt;Node2</title>
<path fill="none" stroke="midnightblue" d="M885.983,-204.622C871.02,-196.905 851.805,-187.642 834,-181 821.767,-176.437 807.965,-172.47 795.837,-169.358"/>
<polygon fill="midnightblue" stroke="midnightblue" points="884.662,-207.882 895.144,-209.428 887.914,-201.683 884.662,-207.882"/>
</g>
<!-- Node5 -->
<g id="node5" class="node"><title>Node5</title>
<g id="a_node5"><a xlink:href="../../d5/d0b/_g_u_i_window_8h.html#ac04235ad887bb855e27dc440036a112f" target="_top" xlink:title=" ">
<polygon fill="white" stroke="black" points="721.5,-430.5 721.5,-449.5 803.5,-449.5 803.5,-430.5 721.5,-430.5"/>
<text text-anchor="middle" x="762.5" y="-437.5" font-family="Helvetica,sans-Serif" font-size="10.00">ClickNPCTopic</text>
</a>
</g>
</g>
<!-- Node1&#45;&gt;Node5 -->
<g id="edge4" class="edge"><title>Node1&#45;&gt;Node5</title>
<path fill="none" stroke="midnightblue" d="M910.635,-238.903C905.753,-279.398 888.898,-371.703 834,-421 825.606,-428.538 814.527,-433.131 803.645,-435.916"/>
<polygon fill="midnightblue" stroke="midnightblue" points="914.14,-239.044 911.736,-228.725 907.18,-238.291 914.14,-239.044"/>
</g>
<!-- Node10 -->
<g id="node10" class="node"><title>Node10</title>
<g id="a_node10"><a xlink:href="../../d4/dc7/_u_i_houses_8h.html#a7fbb26f3fd48a15ffdcb709219220a74" target="_top" xlink:title=" ">
<polygon fill="white" stroke="black" points="729.5,-114.5 729.5,-133.5 795.5,-133.5 795.5,-114.5 729.5,-114.5"/>
<text text-anchor="middle" x="762.5" y="-121.5" font-family="Helvetica,sans-Serif" font-size="10.00">GuildDialog</text>
</a>
</g>
</g>
<!-- Node1&#45;&gt;Node10 -->
<g id="edge9" class="edge"><title>Node1&#45;&gt;Node10</title>
<path fill="none" stroke="midnightblue" d="M898.823,-201.304C884.489,-183.954 860.411,-157.99 834,-143 822.314,-136.367 808.219,-131.97 795.712,-129.094"/>
<polygon fill="midnightblue" stroke="midnightblue" points="896.402,-203.88 905.391,-209.488 901.862,-199.498 896.402,-203.88"/>
</g>
<!-- Node11 -->
<g id="node11" class="node"><title>Node11</title>
<g id="a_node11"><a xlink:href="../../d6/d82/_u_i_dialogue_8h.html#a0213da862a4f9421ada12d4bfff8a710" target="_top" xlink:title=" ">
<polygon fill="white" stroke="black" points="691,-392.5 691,-411.5 834,-411.5 834,-392.5 691,-392.5"/>
<text text-anchor="middle" x="762.5" y="-399.5" font-family="Helvetica,sans-Serif" font-size="10.00">OnSelectNPCDialogueOption</text>
</a>
</g>
</g>
<!-- Node1&#45;&gt;Node11 -->
<g id="edge11" class="edge"><title>Node1&#45;&gt;Node11</title>
<path fill="none" stroke="midnightblue" d="M908.67,-238.711C900.905,-273.27 879.987,-344.75 834,-383 829.322,-386.891 823.92,-389.991 818.229,-392.459"/>
<polygon fill="midnightblue" stroke="midnightblue" points="912.105,-239.384 910.744,-228.877 905.255,-237.939 912.105,-239.384"/>
</g>
<!-- Node12 -->
<g id="node12" class="node"><title>Node12</title>
<g id="a_node12"><a xlink:href="../../d4/dc7/_u_i_houses_8h.html#a95517cbe760707e2481b7c26770b186a" target="_top" xlink:title=" ">
<polygon fill="white" stroke="black" points="727,-76.5 727,-95.5 798,-95.5 798,-76.5 727,-76.5"/>
<text text-anchor="middle" x="762.5" y="-83.5" font-family="Helvetica,sans-Serif" font-size="10.00">sub_4B6478</text>
</a>
</g>
</g>
<!-- Node1&#45;&gt;Node12 -->
<g id="edge13" class="edge"><title>Node1&#45;&gt;Node12</title>
<path fill="none" stroke="midnightblue" d="M904.541,-200C892.867,-174.48 868.661,-129.51 834,-105 823.547,-97.6079 810.368,-93.0912 798.241,-90.3316"/>
<polygon fill="midnightblue" stroke="midnightblue" points="901.418,-201.592 908.648,-209.337 907.825,-198.774 901.418,-201.592"/>
</g>
<!-- Node13 -->
<g id="node13" class="node"><title>Node13</title>
<g id="a_node13"><a xlink:href="../../d3/db1/struct_player.html#a9f9f15ffe40eecd893fc5b1109fd9a64" target="_top" xlink:title=" ">
<polygon fill="white" stroke="black" points="701.5,-228.5 701.5,-247.5 823.5,-247.5 823.5,-228.5 701.5,-228.5"/>
<text text-anchor="middle" x="762.5" y="-235.5" font-family="Helvetica,sans-Serif" font-size="10.00">Player::SubtractVariable</text>
</a>
</g>
</g>
<!-- Node1&#45;&gt;Node13 -->
<g id="edge15" class="edge"><title>Node1&#45;&gt;Node13</title>
<path fill="none" stroke="midnightblue" d="M859.775,-225.723C848.098,-227.212 835.639,-228.801 823.69,-230.325"/>
<polygon fill="midnightblue" stroke="midnightblue" points="860.326,-229.182 869.803,-224.445 859.44,-222.238 860.326,-229.182"/>
</g>
<!-- Node14 -->
<g id="node14" class="node"><title>Node14</title>
<g id="a_node14"><a xlink:href="../../d4/dc7/_u_i_houses_8h.html#a85ed65d74da96b17f506a5b39248fc84" target="_top" xlink:title=" ">
<polygon fill="white" stroke="black" points="727,-0.5 727,-19.5 798,-19.5 798,-0.5 727,-0.5"/>
<text text-anchor="middle" x="762.5" y="-7.5" font-family="Helvetica,sans-Serif" font-size="10.00">TavernDialog</text>
</a>
</g>
</g>
<!-- Node1&#45;&gt;Node14 -->
<g id="edge16" class="edge"><title>Node1&#45;&gt;Node14</title>
<path fill="none" stroke="midnightblue" d="M910.137,-199.47C904.415,-160.939 886.211,-74.8964 834,-29 824.098,-20.296 810.607,-15.5282 798.076,-12.935"/>
<polygon fill="midnightblue" stroke="midnightblue" points="906.672,-199.97 911.487,-209.408 913.608,-199.027 906.672,-199.97"/>
</g>
<!-- Node15 -->
<g id="node15" class="node"><title>Node15</title>
<g id="a_node15"><a xlink:href="../../d4/dc7/_u_i_houses_8h.html#a3bf47183b95e701104b8fede3df5a993" target="_top" xlink:title=" ">
<polygon fill="white" stroke="black" points="725,-304.5 725,-323.5 800,-323.5 800,-304.5 725,-304.5"/>
<text text-anchor="middle" x="762.5" y="-311.5" font-family="Helvetica,sans-Serif" font-size="10.00">TempleDialog</text>
</a>
</g>
</g>
<!-- Node1&#45;&gt;Node15 -->
<g id="edge18" class="edge"><title>Node1&#45;&gt;Node15</title>
<path fill="none" stroke="midnightblue" d="M898.823,-236.696C884.489,-254.046 860.411,-280.01 834,-295 823.637,-300.882 811.379,-305.006 800.015,-307.87"/>
<polygon fill="midnightblue" stroke="midnightblue" points="901.862,-238.502 905.391,-228.512 896.402,-234.12 901.862,-238.502"/>
</g>
<!-- Node16 -->
<g id="node16" class="node"><title>Node16</title>
<g id="a_node16"><a xlink:href="../../d4/dc7/_u_i_houses_8h.html#afdce028ca6920ad78a2a8f39fb093b04" target="_top" xlink:title=" ">
<polygon fill="white" stroke="black" points="721,-266.5 721,-285.5 804,-285.5 804,-266.5 721,-266.5"/>
<text text-anchor="middle" x="762.5" y="-273.5" font-family="Helvetica,sans-Serif" font-size="10.00">TownHallDialog</text>
</a>
</g>
</g>
<!-- Node1&#45;&gt;Node16 -->
<g id="edge20" class="edge"><title>Node1&#45;&gt;Node16</title>
<path fill="none" stroke="midnightblue" d="M885.983,-233.378C871.02,-241.095 851.805,-250.358 834,-257 824.499,-260.544 814.051,-263.729 804.176,-266.432"/>
<polygon fill="midnightblue" stroke="midnightblue" points="887.914,-236.317 895.144,-228.572 884.662,-230.118 887.914,-236.317"/>
</g>
<!-- Node17 -->
<g id="node17" class="node"><title>Node17</title>
<g id="a_node17"><a xlink:href="../../d4/dc7/_u_i_houses_8h.html#a508cd0b3e4de36620322bbefc36c56cf" target="_top" xlink:title=" ">
<polygon fill="white" stroke="black" points="724,-190.5 724,-209.5 801,-209.5 801,-190.5 724,-190.5"/>
<text text-anchor="middle" x="762.5" y="-197.5" font-family="Helvetica,sans-Serif" font-size="10.00">TrainingDialog</text>
</a>
</g>
</g>
<!-- Node1&#45;&gt;Node17 -->
<g id="edge22" class="edge"><title>Node1&#45;&gt;Node17</title>
<path fill="none" stroke="midnightblue" d="M859.625,-212.258C840.303,-209.794 818.856,-207.059 801.132,-204.799"/>
<polygon fill="midnightblue" stroke="midnightblue" points="859.44,-215.762 869.803,-213.555 860.326,-208.818 859.44,-215.762"/>
</g>
<!-- Node18 -->
<g id="node18" class="node"><title>Node18</title>
<g id="a_node18"><a xlink:href="../../d4/dc7/_u_i_houses_8h.html#a051a9386ff5f507d34162a116de3f434" target="_top" xlink:title=" ">
<polygon fill="white" stroke="black" points="715.5,-38.5 715.5,-57.5 809.5,-57.5 809.5,-38.5 715.5,-38.5"/>
<text text-anchor="middle" x="762.5" y="-45.5" font-family="Helvetica,sans-Serif" font-size="10.00">TravelByTransport</text>
</a>
</g>
</g>
<!-- Node1&#45;&gt;Node18 -->
<g id="edge24" class="edge"><title>Node1&#45;&gt;Node18</title>
<path fill="none" stroke="midnightblue" d="M907.882,-199.402C899.181,-166.869 877.223,-101.857 834,-67 826.994,-61.3501 818.452,-57.3727 809.763,-54.5746"/>
<polygon fill="midnightblue" stroke="midnightblue" points="904.578,-200.613 910.42,-209.451 911.365,-198.899 904.578,-200.613"/>
</g>
<!-- Node19 -->
<g id="node19" class="node"><title>Node19</title>
<g id="a_node19"><a xlink:href="../../db/d14/_u_i_shops_8h.html#a62c4e572d5c06ab9dd3aae265c49c840" target="_top" xlink:title=" ">
<polygon fill="white" stroke="black" points="709,-343 709,-373 816,-373 816,-343 709,-343"/>
<text text-anchor="start" x="717" y="-361" font-family="Helvetica,sans-Serif" font-size="10.00">UIShop_Buy_Identify</text>
<text text-anchor="middle" x="762.5" y="-350" font-family="Helvetica,sans-Serif" font-size="10.00">_Repair</text>
</a>
</g>
</g>
<!-- Node1&#45;&gt;Node19 -->
<g id="edge26" class="edge"><title>Node1&#45;&gt;Node19</title>
<path fill="none" stroke="midnightblue" d="M904.08,-237.994C892.017,-263.14 867.517,-307.293 834,-333 828.642,-337.11 822.551,-340.581 816.247,-343.505"/>
<polygon fill="midnightblue" stroke="midnightblue" points="907.321,-239.325 908.349,-228.78 900.969,-236.382 907.321,-239.325"/>
</g>
<!-- Node3 -->
<g id="node3" class="node"><title>Node3</title>
<g id="a_node3"><a xlink:href="../../d4/d38/class_g_u_i_window.html#af4310ff80f340b9a9c9b3249564a0960" target="_top" xlink:title=" ">
<polygon fill="white" stroke="black" points="489,-133.5 489,-152.5 655,-152.5 655,-133.5 489,-133.5"/>
<text text-anchor="middle" x="572" y="-140.5" font-family="Helvetica,sans-Serif" font-size="10.00">GUIWindow::HouseDialogManager</text>
</a>
</g>
</g>
<!-- Node2&#45;&gt;Node3 -->
<g id="edge2" class="edge"><title>Node2&#45;&gt;Node3</title>
<path fill="none" stroke="midnightblue" d="M719.047,-157.721C700.156,-155.817 677.239,-153.507 655.214,-151.287"/>
<polygon fill="midnightblue" stroke="midnightblue" points="718.795,-161.213 729.096,-158.734 719.497,-154.248 718.795,-161.213"/>
</g>
<!-- Node4 -->
<g id="node4" class="node"><title>Node4</title>
<g id="a_node4"><a xlink:href="../../d8/ddd/class_g_u_i_window___house.html#a27de5de37c96fb176d5d12465e59ccc7" target="_top" xlink:title=" ">
<polygon fill="white" stroke="black" points="316,-133.5 316,-152.5 453,-152.5 453,-133.5 316,-133.5"/>
<text text-anchor="middle" x="384.5" y="-140.5" font-family="Helvetica,sans-Serif" font-size="10.00">GUIWindow_House::Update</text>
</a>
</g>
</g>
<!-- Node3&#45;&gt;Node4 -->
<g id="edge3" class="edge"><title>Node3&#45;&gt;Node4</title>
<path fill="none" stroke="midnightblue" d="M478.731,-143C470.114,-143 461.491,-143 453.16,-143"/>
<polygon fill="midnightblue" stroke="midnightblue" points="478.827,-146.5 488.827,-143 478.827,-139.5 478.827,-146.5"/>
</g>
<!-- Node6 -->
<g id="node6" class="node"><title>Node6</title>
<g id="a_node6"><a xlink:href="../../d4/d06/class_application_1_1_game.html#a3f65e3f0ef1a9114fb3dea275e52442e" target="_top" xlink:title=" ">
<polygon fill="white" stroke="black" points="520.5,-387 520.5,-417 623.5,-417 623.5,-387 520.5,-387"/>
<text text-anchor="start" x="528.5" y="-405" font-family="Helvetica,sans-Serif" font-size="10.00">Application::Game::</text>
<text text-anchor="middle" x="572" y="-394" font-family="Helvetica,sans-Serif" font-size="10.00">EventLoop</text>
</a>
</g>
</g>
<!-- Node5&#45;&gt;Node6 -->
<g id="edge5" class="edge"><title>Node5&#45;&gt;Node6</title>
<path fill="none" stroke="midnightblue" d="M711.04,-429.828C684.036,-424.384 650.865,-417.697 623.808,-412.242"/>
<polygon fill="midnightblue" stroke="midnightblue" points="710.568,-433.303 721.062,-431.848 711.951,-426.441 710.568,-433.303"/>
</g>
<!-- Node7 -->
<g id="node7" class="node"><title>Node7</title>
<g id="a_node7"><a xlink:href="../../d4/d06/class_application_1_1_game.html#aaa0ff18388b32b4e6198835a35e000d3" target="_top" xlink:title=" ">
<polygon fill="white" stroke="black" points="333,-387 333,-417 436,-417 436,-387 333,-387"/>
<text text-anchor="start" x="341" y="-405" font-family="Helvetica,sans-Serif" font-size="10.00">Application::Game::</text>
<text text-anchor="middle" x="384.5" y="-394" font-family="Helvetica,sans-Serif" font-size="10.00">GameLoop</text>
</a>
</g>
</g>
<!-- Node6&#45;&gt;Node7 -->
<g id="edge6" class="edge"><title>Node6&#45;&gt;Node7</title>
<path fill="none" stroke="midnightblue" d="M510.252,-402C486.265,-402 459.022,-402 436.127,-402"/>
<polygon fill="midnightblue" stroke="midnightblue" points="510.311,-405.5 520.311,-402 510.311,-398.5 510.311,-405.5"/>
</g>
<!-- Node8 -->
<g id="node8" class="node"><title>Node8</title>
<g id="a_node8"><a xlink:href="../../d4/d06/class_application_1_1_game.html#a013ffd59e8fdf1c0a396da1dbe1681ca" target="_top" xlink:title=" ">
<polygon fill="white" stroke="black" points="156,-392.5 156,-411.5 280,-411.5 280,-392.5 156,-392.5"/>
<text text-anchor="middle" x="218" y="-399.5" font-family="Helvetica,sans-Serif" font-size="10.00">Application::Game::Loop</text>
</a>
</g>
</g>
<!-- Node7&#45;&gt;Node8 -->
<g id="edge7" class="edge"><title>Node7&#45;&gt;Node8</title>
<path fill="none" stroke="midnightblue" d="M322.455,-402C308.67,-402 294.032,-402 280.239,-402"/>
<polygon fill="midnightblue" stroke="midnightblue" points="322.802,-405.5 332.802,-402 322.802,-398.5 322.802,-405.5"/>
</g>
<!-- Node9 -->
<g id="node9" class="node"><title>Node9</title>
<g id="a_node9"><a xlink:href="../../d4/d06/class_application_1_1_game.html#a96341ca5b54d90adc3ecb3bf0bcd2312" target="_top" xlink:title=" ">
<polygon fill="white" stroke="black" points="0,-392.5 0,-411.5 120,-411.5 120,-392.5 0,-392.5"/>
<text text-anchor="middle" x="60" y="-399.5" font-family="Helvetica,sans-Serif" font-size="10.00">Application::Game::Run</text>
</a>
</g>
</g>
<!-- Node8&#45;&gt;Node9 -->
<g id="edge8" class="edge"><title>Node8&#45;&gt;Node9</title>
<path fill="none" stroke="midnightblue" d="M145.546,-402C137.081,-402 128.513,-402 120.244,-402"/>
<polygon fill="midnightblue" stroke="midnightblue" points="145.792,-405.5 155.792,-402 145.792,-398.5 145.792,-405.5"/>
</g>
<!-- Node10&#45;&gt;Node3 -->
<g id="edge10" class="edge"><title>Node10&#45;&gt;Node3</title>
<path fill="none" stroke="midnightblue" d="M719.047,-128.279C700.156,-130.183 677.239,-132.493 655.214,-134.713"/>
<polygon fill="midnightblue" stroke="midnightblue" points="719.497,-131.752 729.096,-127.266 718.795,-124.787 719.497,-131.752"/>
</g>
<!-- Node11&#45;&gt;Node6 -->
<g id="edge12" class="edge"><title>Node11&#45;&gt;Node6</title>
<path fill="none" stroke="midnightblue" d="M680.711,-402C661.299,-402 641.11,-402 623.528,-402"/>
<polygon fill="midnightblue" stroke="midnightblue" points="680.773,-405.5 690.773,-402 680.773,-398.5 680.773,-405.5"/>
</g>
<!-- Node12&#45;&gt;Node3 -->
<g id="edge14" class="edge"><title>Node12&#45;&gt;Node3</title>
<path fill="none" stroke="midnightblue" d="M717.313,-97.5574C708.571,-99.9427 699.479,-102.494 691,-105 660.247,-114.09 625.319,-125.472 601.493,-133.398"/>
<polygon fill="midnightblue" stroke="midnightblue" points="718.241,-100.932 726.983,-94.9459 716.416,-94.1744 718.241,-100.932"/>
</g>
<!-- Node14&#45;&gt;Node3 -->
<g id="edge17" class="edge"><title>Node14&#45;&gt;Node3</title>
<path fill="none" stroke="midnightblue" d="M716.872,-18.3689C707.973,-21.0338 698.932,-24.5035 691,-29 641.192,-57.235 596.854,-111.41 580.102,-133.385"/>
<polygon fill="midnightblue" stroke="midnightblue" points="718.052,-21.6758 726.794,-15.6902 716.227,-14.9178 718.052,-21.6758"/>
</g>
<!-- Node15&#45;&gt;Node3 -->
<g id="edge19" class="edge"><title>Node15&#45;&gt;Node3</title>
<path fill="none" stroke="midnightblue" d="M714.996,-306.067C706.585,-303.382 698.207,-299.794 691,-295 632.865,-256.331 591.004,-179.49 577.593,-152.579"/>
<polygon fill="midnightblue" stroke="midnightblue" points="714.244,-309.491 724.818,-308.821 716.135,-302.751 714.244,-309.491"/>
</g>
<!-- Node16&#45;&gt;Node3 -->
<g id="edge21" class="edge"><title>Node16&#45;&gt;Node3</title>
<path fill="none" stroke="midnightblue" d="M711.347,-265.874C704.283,-263.488 697.293,-260.567 691,-257 641.192,-228.765 596.854,-174.59 580.102,-152.615"/>
<polygon fill="midnightblue" stroke="midnightblue" points="710.381,-269.238 720.967,-268.805 712.422,-262.542 710.381,-269.238"/>
</g>
<!-- Node17&#45;&gt;Node3 -->
<g id="edge23" class="edge"><title>Node17&#45;&gt;Node3</title>
<path fill="none" stroke="midnightblue" d="M715.139,-187.848C707.072,-185.636 698.778,-183.299 691,-181 660.247,-171.91 625.319,-160.528 601.493,-152.602"/>
<polygon fill="midnightblue" stroke="midnightblue" points="714.247,-191.232 724.815,-190.473 716.08,-184.477 714.247,-191.232"/>
</g>
<!-- Node18&#45;&gt;Node3 -->
<g id="edge25" class="edge"><title>Node18&#45;&gt;Node3</title>
<path fill="none" stroke="midnightblue" d="M707.817,-60.5892C702.051,-62.494 696.344,-64.628 691,-67 649.351,-85.4856 605.586,-117.517 585.019,-133.442"/>
<polygon fill="midnightblue" stroke="midnightblue" points="708.996,-63.8883 717.522,-57.5983 706.935,-57.1987 708.996,-63.8883"/>
</g>
<!-- Node19&#45;&gt;Node6 -->
<g id="edge27" class="edge"><title>Node19&#45;&gt;Node6</title>
<path fill="none" stroke="midnightblue" d="M699.071,-372.572C674.57,-378.291 646.818,-384.769 623.602,-390.188"/>
<polygon fill="midnightblue" stroke="midnightblue" points="700.05,-375.938 708.992,-370.256 698.458,-369.121 700.05,-375.938"/>
</g>
</g>
</svg>
        <g id="navigator" transform="translate(0 0)" fill="#404254">
                <rect fill="#f2f5e9" fill-opacity="0.5" stroke="#606060" stroke-width=".5" x="0" y="0" width="60" height="60"/>
                <use id="zoomplus" xlink:href="#zoomPlus" x="17" y="9" onmousedown="handleZoom(evt,'in')"/>
                <use id="zoomminus" xlink:href="#zoomMin" x="42" y="9" onmousedown="handleZoom(evt,'out')"/>
                <use id="reset" xlink:href="#resetDef" x="30" y="36" onmousedown="handleReset()"/>
                <g id="arrowUp" xlink:href="#dirArrow" transform="translate(30 24)" onmousedown="handlePan(0,-1)">
                  <use xlink:href="#rim" fill="#404040">
                        <set attributeName="fill" to="#808080" begin="arrowUp.mouseover" end="arrowUp.mouseout"/>
                  </use>
                  <path fill="none" stroke="white" stroke-width="1.5" d="M0,-3.0v7 M-2.5,-0.5L0,-3.0L2.5,-0.5"/>
                </g>
                <g id="arrowRight" xlink:href="#dirArrow" transform="rotate(90) translate(36 -43)" onmousedown="handlePan(1,0)">
                  <use xlink:href="#rim" fill="#404040">
                        <set attributeName="fill" to="#808080" begin="arrowRight.mouseover" end="arrowRight.mouseout"/>
                  </use>
                  <path fill="none" stroke="white" stroke-width="1.5" d="M0,-3.0v7 M-2.5,-0.5L0,-3.0L2.5,-0.5"/>
                </g>
                <g id="arrowDown" xlink:href="#dirArrow" transform="rotate(180) translate(-30 -48)" onmousedown="handlePan(0,1)">
                  <use xlink:href="#rim" fill="#404040">
                        <set attributeName="fill" to="#808080" begin="arrowDown.mouseover" end="arrowDown.mouseout"/>
                  </use>
                  <path fill="none" stroke="white" stroke-width="1.5" d="M0,-3.0v7 M-2.5,-0.5L0,-3.0L2.5,-0.5"/>
                </g>
                <g id="arrowLeft" xlink:href="#dirArrow" transform="rotate(270) translate(-36 17)" onmousedown="handlePan(-1,0)">
                  <use xlink:href="#rim" fill="#404040">
                        <set attributeName="fill" to="#808080" begin="arrowLeft.mouseover" end="arrowLeft.mouseout"/>
                  </use>
                  <path fill="none" stroke="white" stroke-width="1.5" d="M0,-3.0v7 M-2.5,-0.5L0,-3.0L2.5,-0.5"/>
                </g>
        </g>
        <svg viewBox="0 0 15 15" width="100%" height="30px" preserveAspectRatio="xMaxYMin meet">
         <g id="arrow_out" transform="scale(0.3 0.3)">
          <a xlink:href="struct_party_a5195024f4a2073b89708b6ef48894d3a_icgraph_org.svg" target="_base">
           <rect id="button" ry="5" rx="5" y="6" x="6" height="38" width="38"
                fill="#f2f5e9" fill-opacity="0.5" stroke="#606060" stroke-width="1.0"/>
           <path id="arrow"
             d="M 11.500037,31.436501 C 11.940474,20.09759 22.043105,11.32322 32.158766,21.979434 L 37.068811,17.246167 C 37.068811,17.246167 37.088388,32 37.088388,32 L 22.160133,31.978069 C 22.160133,31.978069 26.997745,27.140456 26.997745,27.140456 C 18.528582,18.264221 13.291696,25.230495 11.500037,31.436501 z"
             style="fill:#404040;"/>
          </a>
         </g>
        </svg>
</svg>
