<?xml version="1.0" encoding="UTF-8" standalone="no"?>
<!DOCTYPE svg PUBLIC "-//W3C//DTD SVG 1.1//EN"
 "http://www.w3.org/Graphics/SVG/1.1/DTD/svg11.dtd">
<!-- Generated by graphviz version 2.38.0 (20140413.2041)
 -->
<!-- Title: Party::Zero Pages: 1 -->
<svg width="977pt" height="154pt"
 viewBox="0.00 0.00 977.00 153.50" xmlns="http://www.w3.org/2000/svg" xmlns:xlink="http://www.w3.org/1999/xlink">
<g id="graph0" class="graph" transform="scale(1 1) rotate(0) translate(4 149.5)">
<title>Party::Zero</title>
<polygon fill="white" stroke="none" points="-4,4 -4,-149.5 973,-149.5 973,4 -4,4"/>
<!-- Node1 -->
<g id="node1" class="node"><title>Node1</title>
<g id="a_node1"><a xlink:title=" ">
<polygon fill="#bfbfbf" stroke="black" points="904,-88 904,-107 969,-107 969,-88 904,-88"/>
<text text-anchor="middle" x="936.5" y="-95" font-family="Helvetica,sans-Serif" font-size="10.00">Party::Zero</text>
</a>
</g>
</g>
<!-- Node2 -->
<g id="node2" class="node"><title>Node2</title>
<g id="a_node2"><a xlink:href="../../d0/d14/struct_party.html#a31d77f763e1dc9549532653a4a0dfde5" target="_top" xlink:title=" ">
<polygon fill="white" stroke="black" points="798,-107 798,-126 867,-126 867,-107 798,-107"/>
<text text-anchor="middle" x="832.5" y="-114" font-family="Helvetica,sans-Serif" font-size="10.00">Party::Party</text>
</a>
</g>
</g>
<!-- Node1&#45;&gt;Node2 -->
<g id="edge1" class="edge"><title>Node1&#45;&gt;Node2</title>
<path fill="none" stroke="midnightblue" d="M893.712,-105.284C884.927,-106.92 875.765,-108.627 867.316,-110.201"/>
<polygon fill="midnightblue" stroke="midnightblue" points="894.596,-108.68 903.786,-103.408 893.314,-101.798 894.596,-108.68"/>
</g>
<!-- Node3 -->
<g id="node3" class="node"><title>Node3</title>
<g id="a_node3"><a xlink:href="../../d0/d14/struct_party.html#aaa6686874ea698d79177b7ba5d67d8bd" target="_top" xlink:title=" ">
<polygon fill="white" stroke="black" points="797,-69 797,-88 868,-88 868,-69 797,-69"/>
<text text-anchor="middle" x="832.5" y="-76" font-family="Helvetica,sans-Serif" font-size="10.00">Party::Reset</text>
</a>
</g>
</g>
<!-- Node1&#45;&gt;Node3 -->
<g id="edge2" class="edge"><title>Node1&#45;&gt;Node3</title>
<path fill="none" stroke="midnightblue" d="M893.92,-89.7547C885.319,-88.1525 876.347,-86.4814 868.03,-84.9321"/>
<polygon fill="midnightblue" stroke="midnightblue" points="893.314,-93.2019 903.786,-91.5924 894.596,-86.3203 893.314,-93.2019"/>
</g>
<!-- Node4 -->
<g id="node4" class="node"><title>Node4</title>
<g id="a_node4"><a xlink:href="../../de/da8/_u_i_party_creation_8cpp.html#ab3e0a011d0b8257f92e7b2255996f08d" target="_top" xlink:title=" ">
<polygon fill="white" stroke="black" points="642,-126 642,-145 761,-145 761,-126 642,-126"/>
<text text-anchor="middle" x="701.5" y="-133" font-family="Helvetica,sans-Serif" font-size="10.00">CreateParty_EventLoop</text>
</a>
</g>
</g>
<!-- Node3&#45;&gt;Node4 -->
<g id="edge3" class="edge"><title>Node3&#45;&gt;Node4</title>
<path fill="none" stroke="midnightblue" d="M802.682,-92.3747C789.967,-98.396 774.806,-105.441 761,-111.5 749.741,-116.441 737.137,-121.652 726.519,-125.952"/>
<polygon fill="midnightblue" stroke="midnightblue" points="804.34,-95.4619 811.864,-88.0032 801.33,-89.1416 804.34,-95.4619"/>
</g>
<!-- Node6 -->
<g id="node6" class="node"><title>Node6</title>
<g id="a_node6"><a xlink:href="../../d6/d6a/_u_i_party_creation_8h.html#ae6fe5aec2826f251f3950e95fd588d79" target="_top" xlink:title=" ">
<polygon fill="white" stroke="black" points="316,-88 316,-107 427,-107 427,-88 316,-88"/>
<text text-anchor="middle" x="371.5" y="-95" font-family="Helvetica,sans-Serif" font-size="10.00">PartyCreationUI_Loop</text>
</a>
</g>
</g>
<!-- Node3&#45;&gt;Node6 -->
<g id="edge11" class="edge"><title>Node3&#45;&gt;Node6</title>
<path fill="none" stroke="midnightblue" d="M786.546,-80.3608C701.796,-83.869 518.698,-91.4482 427.06,-95.2415"/>
<polygon fill="midnightblue" stroke="midnightblue" points="786.777,-83.8544 796.624,-79.9437 786.487,-76.8604 786.777,-83.8544"/>
</g>
<!-- Node7 -->
<g id="node7" class="node"><title>Node7</title>
<g id="a_node7"><a xlink:href="../../d4/d06/class_application_1_1_game.html#a013ffd59e8fdf1c0a396da1dbe1681ca" target="_top" xlink:title=" ">
<polygon fill="white" stroke="black" points="156,-50 156,-69 280,-69 280,-50 156,-50"/>
<text text-anchor="middle" x="218" y="-57" font-family="Helvetica,sans-Serif" font-size="10.00">Application::Game::Loop</text>
</a>
</g>
</g>
<!-- Node3&#45;&gt;Node7 -->
<g id="edge10" class="edge"><title>Node3&#45;&gt;Node7</title>
<path fill="none" stroke="midnightblue" d="M786.571,-77.1063C678.354,-73.7493 403.123,-65.2116 280.069,-61.3944"/>
<polygon fill="midnightblue" stroke="midnightblue" points="786.711,-80.6122 796.814,-77.424 786.928,-73.6156 786.711,-80.6122"/>
</g>
<!-- Node9 -->
<g id="node9" class="node"><title>Node9</title>
<g id="a_node9"><a xlink:href="../../d4/d06/class_application_1_1_game.html#aaa0ff18388b32b4e6198835a35e000d3" target="_top" xlink:title=" ">
<polygon fill="white" stroke="black" points="483,-0.5 483,-30.5 586,-30.5 586,-0.5 483,-0.5"/>
<text text-anchor="start" x="491" y="-18.5" font-family="Helvetica,sans-Serif" font-size="10.00">Application::Game::</text>
<text text-anchor="middle" x="534.5" y="-7.5" font-family="Helvetica,sans-Serif" font-size="10.00">GameLoop</text>
</a>
</g>
</g>
<!-- Node3&#45;&gt;Node9 -->
<g id="edge8" class="edge"><title>Node3&#45;&gt;Node9</title>
<path fill="none" stroke="midnightblue" d="M806.093,-64.2989C792.998,-57.5831 776.549,-50.0561 761,-45.5 702.443,-28.3426 632.432,-20.9678 586.121,-17.8169"/>
<polygon fill="midnightblue" stroke="midnightblue" points="804.498,-67.4144 814.974,-68.9915 807.768,-61.2252 804.498,-67.4144"/>
</g>
<!-- Node5 -->
<g id="node5" class="node"><title>Node5</title>
<g id="a_node5"><a xlink:href="../../de/da8/_u_i_party_creation_8cpp.html#a3989bc11e4d285e802baa8b00e9663ad" target="_top" xlink:title=" ">
<polygon fill="white" stroke="black" points="463,-126 463,-145 606,-145 606,-126 463,-126"/>
<text text-anchor="middle" x="534.5" y="-133" font-family="Helvetica,sans-Serif" font-size="10.00">PartyCreationUI_LoopInternal</text>
</a>
</g>
</g>
<!-- Node4&#45;&gt;Node5 -->
<g id="edge4" class="edge"><title>Node4&#45;&gt;Node5</title>
<path fill="none" stroke="midnightblue" d="M631.675,-135.5C623.222,-135.5 614.572,-135.5 606.094,-135.5"/>
<polygon fill="midnightblue" stroke="midnightblue" points="631.863,-139 641.863,-135.5 631.863,-132 631.863,-139"/>
</g>
<!-- Node5&#45;&gt;Node6 -->
<g id="edge5" class="edge"><title>Node5&#45;&gt;Node6</title>
<path fill="none" stroke="midnightblue" d="M483.098,-123.604C460.468,-118.263 434.13,-112.046 412.835,-107.02"/>
<polygon fill="midnightblue" stroke="midnightblue" points="482.336,-127.02 492.873,-125.911 483.944,-120.207 482.336,-127.02"/>
</g>
<!-- Node6&#45;&gt;Node7 -->
<g id="edge6" class="edge"><title>Node6&#45;&gt;Node7</title>
<path fill="none" stroke="midnightblue" d="M322.498,-85.46C301.333,-80.1512 276.814,-74.0012 256.955,-69.0201"/>
<polygon fill="midnightblue" stroke="midnightblue" points="321.719,-88.8729 332.27,-87.911 323.422,-82.0832 321.719,-88.8729"/>
</g>
<!-- Node8 -->
<g id="node8" class="node"><title>Node8</title>
<g id="a_node8"><a xlink:href="../../d4/d06/class_application_1_1_game.html#a96341ca5b54d90adc3ecb3bf0bcd2312" target="_top" xlink:title=" ">
<polygon fill="white" stroke="black" points="0,-50 0,-69 120,-69 120,-50 0,-50"/>
<text text-anchor="middle" x="60" y="-57" font-family="Helvetica,sans-Serif" font-size="10.00">Application::Game::Run</text>
</a>
</g>
</g>
<!-- Node7&#45;&gt;Node8 -->
<g id="edge7" class="edge"><title>Node7&#45;&gt;Node8</title>
<path fill="none" stroke="midnightblue" d="M145.546,-59.5C137.081,-59.5 128.513,-59.5 120.244,-59.5"/>
<polygon fill="midnightblue" stroke="midnightblue" points="145.792,-63.0001 155.792,-59.5 145.792,-56.0001 145.792,-63.0001"/>
</g>
<!-- Node9&#45;&gt;Node7 -->
<g id="edge9" class="edge"><title>Node9&#45;&gt;Node7</title>
<path fill="none" stroke="midnightblue" d="M472.786,-23.7706C429.155,-29.7393 368.938,-38.0289 316,-45.5 304.375,-47.1406 291.97,-48.9139 280.05,-50.6292"/>
<polygon fill="midnightblue" stroke="midnightblue" points="473.513,-27.2038 482.947,-22.3814 472.565,-20.2683 473.513,-27.2038"/>
</g>
</g>
</svg>
