<?xml version="1.0" encoding="UTF-8" standalone="no"?>
<!DOCTYPE svg PUBLIC "-//W3C//DTD SVG 1.1//EN"
 "http://www.w3.org/Graphics/SVG/1.1/DTD/svg11.dtd">
<!-- Generated by graphviz version 2.38.0 (20140413.2041)
 -->
<!-- Title: Party::sub_421B2C_PlaceInInventory_or_DropPickedItem Pages: 1 -->
<!--zoomable 218 -->
<svg id="main" version="1.1" xmlns="http://www.w3.org/2000/svg" xmlns:xlink="http://www.w3.org/1999/xlink" xml:space="preserve" onload="init(evt)">
<style type="text/css"><![CDATA[
.edge:hover path { stroke: red; }
.edge:hover polygon { stroke: red; fill: red; }
]]></style>
<script type="text/javascript"><![CDATA[
var edges = document.getElementsByTagName('g');
if (edges && edges.length) {
  for (var i=0;i<edges.length;i++) {
    if (edges[i].id.substr(0,4)=='edge') {
      edges[i].setAttribute('class','edge');
    }
  }
}
]]></script>
        <defs>
                <circle id="rim" cx="0" cy="0" r="7"/>
                <circle id="rim2" cx="0" cy="0" r="3.5"/>
                <g id="zoomPlus">
                        <use xlink:href="#rim" fill="#404040">
                                <set attributeName="fill" to="#808080" begin="zoomplus.mouseover" end="zoomplus.mouseout"/>
                        </use>
                        <path d="M-4,0h8M0,-4v8" fill="none" stroke="white" stroke-width="1.5" pointer-events="none"/>
                </g>
                <g id="zoomMin">
                        <use xlink:href="#rim" fill="#404040">
                                <set attributeName="fill" to="#808080" begin="zoomminus.mouseover" end="zoomminus.mouseout"/>
                        </use>
                        <path d="M-4,0h8" fill="none" stroke="white" stroke-width="1.5" pointer-events="none"/>
                </g>
                <g id="dirArrow">
                        <path fill="none" stroke="white" stroke-width="1.5" d="M0,-3.0v7 M-2.5,-0.5L0,-3.0L2.5,-0.5"/>
                </g>
               <g id="resetDef">
                       <use xlink:href="#rim2" fill="#404040">
                               <set attributeName="fill" to="#808080" begin="reset.mouseover" end="reset.mouseout"/>
                       </use>
               </g>
        </defs>

<script type="text/javascript">
var viewWidth = 855;
var viewHeight = 218;
var sectionId = 'dynsection-30';
</script>
<script xlink:href="../../svgpan.js"/>
<svg id="graph" class="graph">
<g id="viewport">
<title>Party::sub_421B2C_PlaceInInventory_or_DropPickedItem</title>
<polygon fill="white" stroke="none" points="-4,4 -4,-214 851,-214 851,4 -4,4"/>
<!-- Node1 -->
<g id="node1" class="node"><title>Node1</title>
<g id="a_node1"><a xlink:title=" ">
<polygon fill="#bfbfbf" stroke="black" points="0,-109 0,-139 143,-139 143,-109 0,-109"/>
<text text-anchor="start" x="8" y="-127" font-family="Helvetica,sans-Serif" font-size="10.00">Party::sub_421B2C_PlaceIn</text>
<text text-anchor="middle" x="71.5" y="-116" font-family="Helvetica,sans-Serif" font-size="10.00">Inventory_or_DropPickedItem</text>
</a>
</g>
</g>
<!-- Node2 -->
<g id="node2" class="node"><title>Node2</title>
<g id="a_node2"><a xlink:href="../../d7/d9c/struct_item_gen.html#a670a9aa2c4150975e25bd86af446a89e" target="_top" xlink:title=" ">
<polygon fill="white" stroke="black" points="191.5,-190.5 191.5,-209.5 310.5,-209.5 310.5,-190.5 191.5,-190.5"/>
<text text-anchor="middle" x="251" y="-197.5" font-family="Helvetica,sans-Serif" font-size="10.00">ItemGen::GetIconName</text>
</a>
</g>
</g>
<!-- Node1&#45;&gt;Node2 -->
<g id="edge1" class="edge"><title>Node1&#45;&gt;Node2</title>
<path fill="none" stroke="midnightblue" d="M100.972,-139.142C122.165,-150.105 151.977,-164.889 179,-176 188.657,-179.971 199.237,-183.81 209.212,-187.211"/>
<polygon fill="midnightblue" stroke="midnightblue" points="208.334,-190.608 218.928,-190.454 210.551,-183.968 208.334,-190.608"/>
</g>
<!-- Node3 -->
<g id="node3" class="node"><title>Node3</title>
<g id="a_node3"><a xlink:href="../../db/dd6/class_assets_manager.html#ad4ab70fc004c8c5a54756f3d358a8383" target="_top" xlink:title=" ">
<polygon fill="white" stroke="black" points="529.5,-131 529.5,-161 662.5,-161 662.5,-131 529.5,-131"/>
<text text-anchor="start" x="537.5" y="-149" font-family="Helvetica,sans-Serif" font-size="10.00">AssetsManager::GetImage</text>
<text text-anchor="middle" x="596" y="-138" font-family="Helvetica,sans-Serif" font-size="10.00">_ColorKey</text>
</a>
</g>
</g>
<!-- Node1&#45;&gt;Node3 -->
<g id="edge2" class="edge"><title>Node1&#45;&gt;Node3</title>
<path fill="none" stroke="midnightblue" d="M143.021,-138.31C154.982,-140.239 167.311,-141.923 179,-143 297.403,-153.909 435.564,-152.028 519.102,-149.295"/>
<polygon fill="midnightblue" stroke="midnightblue" points="519.389,-152.788 529.264,-148.95 519.151,-145.792 519.389,-152.788"/>
</g>
<!-- Node4 -->
<g id="node4" class="node"><title>Node4</title>
<g id="a_node4"><a xlink:href="../../d6/d9e/struct_indoor_location.html#aaaf5a1255bb773cc796685052c9abd29" target="_top" xlink:title=" ">
<polygon fill="white" stroke="black" points="186,-114.5 186,-133.5 316,-133.5 316,-114.5 186,-114.5"/>
<text text-anchor="middle" x="251" y="-121.5" font-family="Helvetica,sans-Serif" font-size="10.00">IndoorLocation::GetSector</text>
</a>
</g>
</g>
<!-- Node1&#45;&gt;Node4 -->
<g id="edge3" class="edge"><title>Node1&#45;&gt;Node4</title>
<path fill="none" stroke="midnightblue" d="M143.163,-124C153.859,-124 164.922,-124 175.693,-124"/>
<polygon fill="midnightblue" stroke="midnightblue" points="175.909,-127.5 185.909,-124 175.909,-120.5 175.909,-127.5"/>
</g>
<!-- Node7 -->
<g id="node7" class="node"><title>Node7</title>
<g id="a_node7"><a xlink:href="../../dc/d41/class_object_list.html#a9b403a9566abade0fcb2161a1510756d" target="_top" xlink:title=" ">
<polygon fill="white" stroke="black" points="179,-76.5 179,-95.5 323,-95.5 323,-76.5 179,-76.5"/>
<text text-anchor="middle" x="251" y="-83.5" font-family="Helvetica,sans-Serif" font-size="10.00">ObjectList::ObjectIDByItemID</text>
</a>
</g>
</g>
<!-- Node1&#45;&gt;Node7 -->
<g id="edge6" class="edge"><title>Node1&#45;&gt;Node7</title>
<path fill="none" stroke="midnightblue" d="M142.653,-108.981C160.227,-105.219 178.82,-101.239 195.505,-97.6666"/>
<polygon fill="midnightblue" stroke="midnightblue" points="196.575,-101.017 205.621,-95.5009 195.11,-94.172 196.575,-101.017"/>
</g>
<!-- Node8 -->
<g id="node8" class="node"><title>Node8</title>
<g id="a_node8"><a xlink:href="../../d7/dc5/class_mouse.html#a3e7df01835f0ec8a3459dcd2f9a4dfa3" target="_top" xlink:title=" ">
<polygon fill="white" stroke="black" points="182.5,-38.5 182.5,-57.5 319.5,-57.5 319.5,-38.5 182.5,-38.5"/>
<text text-anchor="middle" x="251" y="-45.5" font-family="Helvetica,sans-Serif" font-size="10.00">Mouse::RemoveHoldingItem</text>
</a>
</g>
</g>
<!-- Node1&#45;&gt;Node8 -->
<g id="edge7" class="edge"><title>Node1&#45;&gt;Node8</title>
<path fill="none" stroke="midnightblue" d="M96.6894,-108.974C117.789,-96.3807 149.551,-78.6413 179,-67 184.996,-64.6296 191.392,-62.4548 197.795,-60.4906"/>
<polygon fill="midnightblue" stroke="midnightblue" points="199.183,-63.7322 207.808,-57.5795 197.228,-57.0105 199.183,-63.7322"/>
</g>
<!-- Node5 -->
<g id="node5" class="node"><title>Node5</title>
<g id="a_node5"><a xlink:href="../../de/db6/_our_math_8cpp.html#a26d802a4465483f7c2f89657b75c9ebe" target="_top" xlink:title=" ">
<polygon fill="white" stroke="black" points="388,-76.5 388,-95.5 452,-95.5 452,-76.5 388,-76.5"/>
<text text-anchor="middle" x="420" y="-83.5" font-family="Helvetica,sans-Serif" font-size="10.00">fixpoint_div</text>
</a>
</g>
</g>
<!-- Node4&#45;&gt;Node5 -->
<g id="edge4" class="edge"><title>Node4&#45;&gt;Node5</title>
<path fill="none" stroke="midnightblue" d="M294.141,-114.411C319.788,-108.575 352.4,-101.154 377.863,-95.3605"/>
<polygon fill="midnightblue" stroke="midnightblue" points="378.969,-98.6984 387.943,-93.0668 377.416,-91.8728 378.969,-98.6984"/>
</g>
<!-- Node6 -->
<g id="node6" class="node"><title>Node6</title>
<g id="a_node6"><a xlink:href="../../de/db6/_our_math_8cpp.html#abc4811d26f9864e00046c39c39d65680" target="_top" xlink:title=" ">
<polygon fill="white" stroke="black" points="386,-114.5 386,-133.5 454,-133.5 454,-114.5 386,-114.5"/>
<text text-anchor="middle" x="420" y="-121.5" font-family="Helvetica,sans-Serif" font-size="10.00">fixpoint_mul</text>
</a>
</g>
</g>
<!-- Node4&#45;&gt;Node6 -->
<g id="edge5" class="edge"><title>Node4&#45;&gt;Node6</title>
<path fill="none" stroke="midnightblue" d="M316.089,-124C335.927,-124 357.312,-124 375.422,-124"/>
<polygon fill="midnightblue" stroke="midnightblue" points="375.669,-127.5 385.669,-124 375.669,-120.5 375.669,-127.5"/>
</g>
<!-- Node9 -->
<g id="node9" class="node"><title>Node9</title>
<g id="a_node9"><a xlink:href="../../d7/d9c/struct_item_gen.html#a1e9fb8b4d5efcc3dc012888383570b49" target="_top" xlink:title=" ">
<polygon fill="white" stroke="black" points="377.5,-0.5 377.5,-19.5 462.5,-19.5 462.5,-0.5 377.5,-0.5"/>
<text text-anchor="middle" x="420" y="-7.5" font-family="Helvetica,sans-Serif" font-size="10.00">ItemGen::Reset</text>
</a>
</g>
</g>
<!-- Node8&#45;&gt;Node9 -->
<g id="edge8" class="edge"><title>Node8&#45;&gt;Node9</title>
<path fill="none" stroke="midnightblue" d="M294.141,-38.411C316.462,-33.3321 344.057,-27.0529 367.624,-21.6903"/>
<polygon fill="midnightblue" stroke="midnightblue" points="368.477,-25.0859 377.451,-19.4543 366.923,-18.2603 368.477,-25.0859"/>
</g>
<!-- Node11 -->
<g id="node11" class="node"><title>Node11</title>
<g id="a_node11"><a xlink:href="../../d7/dc5/class_mouse.html#a6c1329c4dec99e3c72b20087d95ea91d" target="_top" xlink:title=" ">
<polygon fill="white" stroke="black" points="359,-38.5 359,-57.5 481,-57.5 481,-38.5 359,-38.5"/>
<text text-anchor="middle" x="420" y="-45.5" font-family="Helvetica,sans-Serif" font-size="10.00">Mouse::SetCursorImage</text>
</a>
</g>
</g>
<!-- Node8&#45;&gt;Node11 -->
<g id="edge10" class="edge"><title>Node8&#45;&gt;Node11</title>
<path fill="none" stroke="midnightblue" d="M319.925,-48C329.408,-48 339.17,-48 348.695,-48"/>
<polygon fill="midnightblue" stroke="midnightblue" points="348.916,-51.5001 358.916,-48 348.916,-44.5001 348.916,-51.5001"/>
</g>
<!-- Node10 -->
<g id="node10" class="node"><title>Node10</title>
<g id="a_node10"><a xlink:href="../../df/dc2/struct_game_time.html#ab85c95665b71cdbbfb8f0c3ee03d8f2d" target="_top" xlink:title=" ">
<polygon fill="white" stroke="black" points="548.5,-0.5 548.5,-19.5 643.5,-19.5 643.5,-0.5 548.5,-0.5"/>
<text text-anchor="middle" x="596" y="-7.5" font-family="Helvetica,sans-Serif" font-size="10.00">GameTime::Reset</text>
</a>
</g>
</g>
<!-- Node9&#45;&gt;Node10 -->
<g id="edge9" class="edge"><title>Node9&#45;&gt;Node10</title>
<path fill="none" stroke="midnightblue" d="M462.677,-10C485.286,-10 513.561,-10 538.163,-10"/>
<polygon fill="midnightblue" stroke="midnightblue" points="538.454,-13.5001 548.454,-10 538.454,-6.5001 538.454,-13.5001"/>
</g>
<!-- Node11&#45;&gt;Node3 -->
<g id="edge14" class="edge"><title>Node11&#45;&gt;Node3</title>
<path fill="none" stroke="midnightblue" d="M460.992,-57.5369C467.94,-60.0551 474.888,-63.1721 481,-67 500.717,-79.3488 498.454,-90.9543 517,-105 527.489,-112.944 539.735,-120.178 551.372,-126.282"/>
<polygon fill="midnightblue" stroke="midnightblue" points="550.028,-129.525 560.53,-130.928 553.195,-123.282 550.028,-129.525"/>
</g>
<!-- Node12 -->
<g id="node12" class="node"><title>Node12</title>
<g id="a_node12"><a xlink:href="../../d7/dc5/class_mouse.html#a34379441f427a47f1e767e0d93bf0ee8" target="_top" xlink:title=" ">
<polygon fill="white" stroke="black" points="517,-76.5 517,-95.5 675,-95.5 675,-76.5 517,-76.5"/>
<text text-anchor="middle" x="596" y="-83.5" font-family="Helvetica,sans-Serif" font-size="10.00">Mouse::AllocCursorSystemMem</text>
</a>
</g>
</g>
<!-- Node11&#45;&gt;Node12 -->
<g id="edge11" class="edge"><title>Node11&#45;&gt;Node12</title>
<path fill="none" stroke="midnightblue" d="M464.908,-57.589C488.179,-62.6713 516.954,-68.9554 541.519,-74.3203"/>
<polygon fill="midnightblue" stroke="midnightblue" points="540.892,-77.7657 551.408,-76.4799 542.385,-70.9268 540.892,-77.7657"/>
</g>
<!-- Node14 -->
<g id="node14" class="node"><title>Node14</title>
<g id="a_node14"><a xlink:href="../../d7/dc5/class_mouse.html#a455021707dcb042f6e58821cef234311" target="_top" xlink:title=" ">
<polygon fill="white" stroke="black" points="544.5,-38.5 544.5,-57.5 647.5,-57.5 647.5,-38.5 544.5,-38.5"/>
<text text-anchor="middle" x="596" y="-45.5" font-family="Helvetica,sans-Serif" font-size="10.00">Mouse::ClearCursor</text>
</a>
</g>
</g>
<!-- Node11&#45;&gt;Node14 -->
<g id="edge13" class="edge"><title>Node11&#45;&gt;Node14</title>
<path fill="none" stroke="midnightblue" d="M481.368,-48C498.357,-48 516.845,-48 533.877,-48"/>
<polygon fill="midnightblue" stroke="midnightblue" points="534.267,-51.5001 544.267,-48 534.267,-44.5001 534.267,-51.5001"/>
</g>
<!-- Node13 -->
<g id="node13" class="node"><title>Node13</title>
<g id="a_node13"><a xlink:href="../../d7/dc5/class_mouse.html#a6f27132399a757994d0f9689f526d54d" target="_top" xlink:title=" ">
<polygon fill="white" stroke="black" points="711,-76.5 711,-95.5 847,-95.5 847,-76.5 711,-76.5"/>
<text text-anchor="middle" x="779" y="-83.5" font-family="Helvetica,sans-Serif" font-size="10.00">Mouse::DoAllocCursorMem</text>
</a>
</g>
</g>
<!-- Node12&#45;&gt;Node13 -->
<g id="edge12" class="edge"><title>Node12&#45;&gt;Node13</title>
<path fill="none" stroke="midnightblue" d="M675.074,-86C683.576,-86 692.228,-86 700.721,-86"/>
<polygon fill="midnightblue" stroke="midnightblue" points="700.982,-89.5001 710.982,-86 700.981,-82.5001 700.982,-89.5001"/>
</g>
</g>
</svg>
        <g id="navigator" transform="translate(0 0)" fill="#404254">
                <rect fill="#f2f5e9" fill-opacity="0.5" stroke="#606060" stroke-width=".5" x="0" y="0" width="60" height="60"/>
                <use id="zoomplus" xlink:href="#zoomPlus" x="17" y="9" onmousedown="handleZoom(evt,'in')"/>
                <use id="zoomminus" xlink:href="#zoomMin" x="42" y="9" onmousedown="handleZoom(evt,'out')"/>
                <use id="reset" xlink:href="#resetDef" x="30" y="36" onmousedown="handleReset()"/>
                <g id="arrowUp" xlink:href="#dirArrow" transform="translate(30 24)" onmousedown="handlePan(0,-1)">
                  <use xlink:href="#rim" fill="#404040">
                        <set attributeName="fill" to="#808080" begin="arrowUp.mouseover" end="arrowUp.mouseout"/>
                  </use>
                  <path fill="none" stroke="white" stroke-width="1.5" d="M0,-3.0v7 M-2.5,-0.5L0,-3.0L2.5,-0.5"/>
                </g>
                <g id="arrowRight" xlink:href="#dirArrow" transform="rotate(90) translate(36 -43)" onmousedown="handlePan(1,0)">
                  <use xlink:href="#rim" fill="#404040">
                        <set attributeName="fill" to="#808080" begin="arrowRight.mouseover" end="arrowRight.mouseout"/>
                  </use>
                  <path fill="none" stroke="white" stroke-width="1.5" d="M0,-3.0v7 M-2.5,-0.5L0,-3.0L2.5,-0.5"/>
                </g>
                <g id="arrowDown" xlink:href="#dirArrow" transform="rotate(180) translate(-30 -48)" onmousedown="handlePan(0,1)">
                  <use xlink:href="#rim" fill="#404040">
                        <set attributeName="fill" to="#808080" begin="arrowDown.mouseover" end="arrowDown.mouseout"/>
                  </use>
                  <path fill="none" stroke="white" stroke-width="1.5" d="M0,-3.0v7 M-2.5,-0.5L0,-3.0L2.5,-0.5"/>
                </g>
                <g id="arrowLeft" xlink:href="#dirArrow" transform="rotate(270) translate(-36 17)" onmousedown="handlePan(-1,0)">
                  <use xlink:href="#rim" fill="#404040">
                        <set attributeName="fill" to="#808080" begin="arrowLeft.mouseover" end="arrowLeft.mouseout"/>
                  </use>
                  <path fill="none" stroke="white" stroke-width="1.5" d="M0,-3.0v7 M-2.5,-0.5L0,-3.0L2.5,-0.5"/>
                </g>
        </g>
        <svg viewBox="0 0 15 15" width="100%" height="30px" preserveAspectRatio="xMaxYMin meet">
         <g id="arrow_out" transform="scale(0.3 0.3)">
          <a xlink:href="struct_party_ac9e435d65b7d78122dddeef2c457a52a_cgraph_org.svg" target="_base">
           <rect id="button" ry="5" rx="5" y="6" x="6" height="38" width="38"
                fill="#f2f5e9" fill-opacity="0.5" stroke="#606060" stroke-width="1.0"/>
           <path id="arrow"
             d="M 11.500037,31.436501 C 11.940474,20.09759 22.043105,11.32322 32.158766,21.979434 L 37.068811,17.246167 C 37.068811,17.246167 37.088388,32 37.088388,32 L 22.160133,31.978069 C 22.160133,31.978069 26.997745,27.140456 26.997745,27.140456 C 18.528582,18.264221 13.291696,25.230495 11.500037,31.436501 z"
             style="fill:#404040;"/>
          </a>
         </g>
        </svg>
</svg>
