<?xml version="1.0" encoding="UTF-8" standalone="no"?>
<!DOCTYPE svg PUBLIC "-//W3C//DTD SVG 1.1//EN"
 "http://www.w3.org/Graphics/SVG/1.1/DTD/svg11.dtd">
<!-- Generated by graphviz version 2.38.0 (20140413.2041)
 -->
<!-- Title: DecalBuilder::ApplyDecals Pages: 1 -->
<!--zoomable 317 -->
<svg id="main" version="1.1" xmlns="http://www.w3.org/2000/svg" xmlns:xlink="http://www.w3.org/1999/xlink" xml:space="preserve" onload="init(evt)">
<style type="text/css"><![CDATA[
.edge:hover path { stroke: red; }
.edge:hover polygon { stroke: red; fill: red; }
]]></style>
<script type="text/javascript"><![CDATA[
var edges = document.getElementsByTagName('g');
if (edges && edges.length) {
  for (var i=0;i<edges.length;i++) {
    if (edges[i].id.substr(0,4)=='edge') {
      edges[i].setAttribute('class','edge');
    }
  }
}
]]></script>
        <defs>
                <circle id="rim" cx="0" cy="0" r="7"/>
                <circle id="rim2" cx="0" cy="0" r="3.5"/>
                <g id="zoomPlus">
                        <use xlink:href="#rim" fill="#404040">
                                <set attributeName="fill" to="#808080" begin="zoomplus.mouseover" end="zoomplus.mouseout"/>
                        </use>
                        <path d="M-4,0h8M0,-4v8" fill="none" stroke="white" stroke-width="1.5" pointer-events="none"/>
                </g>
                <g id="zoomMin">
                        <use xlink:href="#rim" fill="#404040">
                                <set attributeName="fill" to="#808080" begin="zoomminus.mouseover" end="zoomminus.mouseout"/>
                        </use>
                        <path d="M-4,0h8" fill="none" stroke="white" stroke-width="1.5" pointer-events="none"/>
                </g>
                <g id="dirArrow">
                        <path fill="none" stroke="white" stroke-width="1.5" d="M0,-3.0v7 M-2.5,-0.5L0,-3.0L2.5,-0.5"/>
                </g>
               <g id="resetDef">
                       <use xlink:href="#rim2" fill="#404040">
                               <set attributeName="fill" to="#808080" begin="reset.mouseover" end="reset.mouseout"/>
                       </use>
               </g>
        </defs>

<script type="text/javascript">
var viewWidth = 709;
var viewHeight = 317;
var sectionId = 'dynsection-5';
</script>
<script xlink:href="../../svgpan.js"/>
<svg id="graph" class="graph">
<g id="viewport">
<title>DecalBuilder::ApplyDecals</title>
<polygon fill="white" stroke="none" points="-4,4 -4,-313 705,-313 705,4 -4,4"/>
<!-- Node1 -->
<g id="node1" class="node"><title>Node1</title>
<g id="a_node1"><a xlink:title=" ">
<polygon fill="#bfbfbf" stroke="black" points="0,-114.5 0,-133.5 132,-133.5 132,-114.5 0,-114.5"/>
<text text-anchor="middle" x="66" y="-121.5" font-family="Helvetica,sans-Serif" font-size="10.00">DecalBuilder::ApplyDecals</text>
</a>
</g>
</g>
<!-- Node2 -->
<g id="node2" class="node"><title>Node2</title>
<g id="a_node2"><a xlink:href="../../d9/de5/struct_indoor_camera_d3_d.html#a85503674c7fac9705fe73e99f4f009fb" target="_top" xlink:title=" ">
<polygon fill="white" stroke="black" points="170,-218.5 170,-237.5 308,-237.5 308,-218.5 170,-218.5"/>
<text text-anchor="middle" x="239" y="-225.5" font-family="Helvetica,sans-Serif" font-size="10.00">IndoorCameraD3D::_437376</text>
</a>
</g>
</g>
<!-- Node1&#45;&gt;Node2 -->
<g id="edge1" class="edge"><title>Node1&#45;&gt;Node2</title>
<path fill="none" stroke="midnightblue" d="M75.7272,-133.73C92.0849,-151.374 129.22,-188.697 168,-209 172.306,-211.254 176.904,-213.261 181.609,-215.043"/>
<polygon fill="midnightblue" stroke="midnightblue" points="180.762,-218.452 191.356,-218.393 183.037,-211.832 180.762,-218.452"/>
</g>
<!-- Node3 -->
<g id="node3" class="node"><title>Node3</title>
<g id="a_node3"><a xlink:href="../../d2/dc7/_render_8cpp.html#aa7459c3126d3e1bcf791c83d4862603c" target="_top" xlink:title=" ">
<polygon fill="white" stroke="black" points="177,-158.5 177,-199.5 301,-199.5 301,-158.5 177,-158.5"/>
<text text-anchor="start" x="185" y="-187.5" font-family="Helvetica,sans-Serif" font-size="10.00">_43F5C8_get_point_light</text>
<text text-anchor="start" x="185" y="-176.5" font-family="Helvetica,sans-Serif" font-size="10.00">_level_with_respect_to</text>
<text text-anchor="middle" x="239" y="-165.5" font-family="Helvetica,sans-Serif" font-size="10.00">_lights</text>
</a>
</g>
</g>
<!-- Node1&#45;&gt;Node3 -->
<g id="edge2" class="edge"><title>Node1&#45;&gt;Node3</title>
<path fill="none" stroke="midnightblue" d="M96.7859,-133.58C116.215,-139.829 142.443,-148.265 167.022,-156.171"/>
<polygon fill="midnightblue" stroke="midnightblue" points="166.111,-159.554 176.703,-159.285 168.255,-152.891 166.111,-159.554"/>
</g>
<!-- Node5 -->
<g id="node5" class="node"><title>Node5</title>
<g id="a_node5"><a xlink:href="../../d9/d57/struct_decal_builder.html#a446ed06a49dc4c5b9cddd583e121696e" target="_top" xlink:title=" ">
<polygon fill="white" stroke="black" points="181,-109 181,-139 297,-139 297,-109 181,-109"/>
<text text-anchor="start" x="189" y="-127" font-family="Helvetica,sans-Serif" font-size="10.00">DecalBuilder::_49B790</text>
<text text-anchor="middle" x="239" y="-116" font-family="Helvetica,sans-Serif" font-size="10.00">_build_decal_geometry</text>
</a>
</g>
</g>
<!-- Node1&#45;&gt;Node5 -->
<g id="edge4" class="edge"><title>Node1&#45;&gt;Node5</title>
<path fill="none" stroke="midnightblue" d="M132.136,-124C144.796,-124 158.09,-124 170.815,-124"/>
<polygon fill="midnightblue" stroke="midnightblue" points="170.876,-127.5 180.876,-124 170.876,-120.5 170.876,-127.5"/>
</g>
<!-- Node13 -->
<g id="node13" class="node"><title>Node13</title>
<g id="a_node13"><a xlink:href="../../d6/d70/class_log.html#ac0de2621497ca3b2fbf208624c08bcdf" target="_top" xlink:title=" ">
<polygon fill="white" stroke="black" points="391.5,-38.5 391.5,-57.5 465.5,-57.5 465.5,-38.5 391.5,-38.5"/>
<text text-anchor="middle" x="428.5" y="-45.5" font-family="Helvetica,sans-Serif" font-size="10.00">Log::Warning</text>
</a>
</g>
</g>
<!-- Node1&#45;&gt;Node13 -->
<g id="edge15" class="edge"><title>Node1&#45;&gt;Node13</title>
<path fill="none" stroke="midnightblue" d="M103.836,-114.426C122.931,-109.579 146.662,-103.735 168,-99 242.379,-82.4959 329.364,-65.9596 381.362,-56.3671"/>
<polygon fill="midnightblue" stroke="midnightblue" points="382.079,-59.7941 391.282,-54.5433 380.813,-52.9095 382.079,-59.7941"/>
</g>
<!-- Node14 -->
<g id="node14" class="node"><title>Node14</title>
<g id="a_node14"><a xlink:href="../../d9/de5/struct_indoor_camera_d3_d.html#a54400a04f69505afe582bf74fa82aab2" target="_top" xlink:title=" ">
<polygon fill="white" stroke="black" points="168,-2 168,-32 310,-32 310,-2 168,-2"/>
<text text-anchor="start" x="176" y="-20" font-family="Helvetica,sans-Serif" font-size="10.00">IndoorCameraD3D::GetFacet</text>
<text text-anchor="middle" x="239" y="-9" font-family="Helvetica,sans-Serif" font-size="10.00">Orientation</text>
</a>
</g>
</g>
<!-- Node1&#45;&gt;Node14 -->
<g id="edge13" class="edge"><title>Node1&#45;&gt;Node14</title>
<path fill="none" stroke="midnightblue" d="M82.0169,-114.393C101.709,-101.815 137.356,-79.1201 168,-60 179.957,-52.5398 193.112,-44.4323 204.76,-37.2887"/>
<polygon fill="midnightblue" stroke="midnightblue" points="206.628,-40.2484 213.328,-32.0404 202.972,-34.2792 206.628,-40.2484"/>
</g>
<!-- Node4 -->
<g id="node4" class="node"><title>Node4</title>
<g id="a_node4"><a xlink:href="../../d5/d2e/_vector_types_8cpp.html#a5eb2b4017143261b8e3f12f6c796a11c" target="_top" xlink:title=" ">
<polygon fill="white" stroke="black" points="374.5,-289.5 374.5,-308.5 482.5,-308.5 482.5,-289.5 374.5,-289.5"/>
<text text-anchor="middle" x="428.5" y="-296.5" font-family="Helvetica,sans-Serif" font-size="10.00">int_get_vector_length</text>
</a>
</g>
</g>
<!-- Node3&#45;&gt;Node4 -->
<g id="edge3" class="edge"><title>Node3&#45;&gt;Node4</title>
<path fill="none" stroke="midnightblue" d="M297.513,-199.521C301.998,-202.324 306.238,-205.473 310,-209 335.81,-233.199 318.165,-258.16 346,-280 351.529,-284.338 357.879,-287.716 364.542,-290.34"/>
<polygon fill="midnightblue" stroke="midnightblue" points="363.875,-293.808 374.469,-293.671 366.101,-287.171 363.875,-293.808"/>
</g>
<!-- Node6 -->
<g id="node6" class="node"><title>Node6</title>
<g id="a_node6"><a xlink:href="../../d9/de5/struct_indoor_camera_d3_d.html#a24e9b2bf7ebf1c160f3b64ad493d762d" target="_top" xlink:title=" ">
<polygon fill="white" stroke="black" points="359.5,-251.5 359.5,-270.5 497.5,-270.5 497.5,-251.5 359.5,-251.5"/>
<text text-anchor="middle" x="428.5" y="-258.5" font-family="Helvetica,sans-Serif" font-size="10.00">IndoorCameraD3D::_437143</text>
</a>
</g>
</g>
<!-- Node5&#45;&gt;Node6 -->
<g id="edge5" class="edge"><title>Node5&#45;&gt;Node6</title>
<path fill="none" stroke="midnightblue" d="M296.483,-139.08C301.41,-141.852 306.025,-145.128 310,-149 341.75,-179.925 312.54,-212.933 346,-242 347.782,-243.548 349.667,-244.977 351.633,-246.294"/>
<polygon fill="midnightblue" stroke="midnightblue" points="350.283,-249.549 360.718,-251.386 353.706,-243.443 350.283,-249.549"/>
</g>
<!-- Node7 -->
<g id="node7" class="node"><title>Node7</title>
<g id="a_node7"><a xlink:href="../../d9/de5/struct_indoor_camera_d3_d.html#a26a558dcf2f047db3583cf676397614e" target="_top" xlink:title=" ">
<polygon fill="white" stroke="black" points="358,-202 358,-232 499,-232 499,-202 358,-202"/>
<text text-anchor="start" x="366" y="-220" font-family="Helvetica,sans-Serif" font-size="10.00">IndoorCameraD3D::Lightmap</text>
<text text-anchor="middle" x="428.5" y="-209" font-family="Helvetica,sans-Serif" font-size="10.00">FarClip</text>
</a>
</g>
</g>
<!-- Node5&#45;&gt;Node7 -->
<g id="edge6" class="edge"><title>Node5&#45;&gt;Node7</title>
<path fill="none" stroke="midnightblue" d="M292.019,-139.018C298.336,-141.856 304.494,-145.165 310,-149 330.452,-163.246 325.23,-178.222 346,-192 349.079,-194.043 352.333,-195.925 355.699,-197.658"/>
<polygon fill="midnightblue" stroke="midnightblue" points="354.28,-200.859 364.823,-201.907 357.235,-194.513 354.28,-200.859"/>
</g>
<!-- Node9 -->
<g id="node9" class="node"><title>Node9</title>
<g id="a_node9"><a xlink:href="../../d9/de5/struct_indoor_camera_d3_d.html#ad185dd72ebe4886358ced5bd208c3822" target="_top" xlink:title=" ">
<polygon fill="white" stroke="black" points="358,-153 358,-183 499,-183 499,-153 358,-153"/>
<text text-anchor="start" x="366" y="-171" font-family="Helvetica,sans-Serif" font-size="10.00">IndoorCameraD3D::Lightmap</text>
<text text-anchor="middle" x="428.5" y="-160" font-family="Helvetica,sans-Serif" font-size="10.00">NeerClip</text>
</a>
</g>
</g>
<!-- Node5&#45;&gt;Node9 -->
<g id="edge8" class="edge"><title>Node5&#45;&gt;Node9</title>
<path fill="none" stroke="midnightblue" d="M297.02,-137.381C314.911,-141.579 334.922,-146.275 353.795,-150.704"/>
<polygon fill="midnightblue" stroke="midnightblue" points="353.009,-154.114 363.544,-152.992 354.608,-147.3 353.009,-154.114"/>
</g>
<!-- Node11 -->
<g id="node11" class="node"><title>Node11</title>
<g id="a_node11"><a xlink:href="../../d9/de5/struct_indoor_camera_d3_d.html#a32190b521a23e986e5b0b13098e4b114" target="_top" xlink:title=" ">
<polygon fill="white" stroke="black" points="362.5,-114.5 362.5,-133.5 494.5,-133.5 494.5,-114.5 362.5,-114.5"/>
<text text-anchor="middle" x="428.5" y="-121.5" font-family="Helvetica,sans-Serif" font-size="10.00">IndoorCameraD3D::Project</text>
</a>
</g>
</g>
<!-- Node5&#45;&gt;Node11 -->
<g id="edge10" class="edge"><title>Node5&#45;&gt;Node11</title>
<path fill="none" stroke="midnightblue" d="M297.02,-124C314.383,-124 333.743,-124 352.122,-124"/>
<polygon fill="midnightblue" stroke="midnightblue" points="352.213,-127.5 362.213,-124 352.213,-120.5 352.213,-127.5"/>
</g>
<!-- Node12 -->
<g id="node12" class="node"><title>Node12</title>
<g id="a_node12"><a xlink:href="../../d9/de5/struct_indoor_camera_d3_d.html#a819c840787fde1b667c5477bafb21a62" target="_top" xlink:title=" ">
<polygon fill="white" stroke="black" points="346,-76.5 346,-95.5 511,-95.5 511,-76.5 346,-76.5"/>
<text text-anchor="middle" x="428.5" y="-83.5" font-family="Helvetica,sans-Serif" font-size="10.00">IndoorCameraD3D::ViewTransform</text>
</a>
</g>
</g>
<!-- Node5&#45;&gt;Node12 -->
<g id="edge11" class="edge"><title>Node5&#45;&gt;Node12</title>
<path fill="none" stroke="midnightblue" d="M297.02,-112.444C320.295,-107.727 347.159,-102.283 370.438,-97.5645"/>
<polygon fill="midnightblue" stroke="midnightblue" points="371.409,-100.939 380.515,-95.5223 370.019,-94.0784 371.409,-100.939"/>
</g>
<!-- Node5&#45;&gt;Node13 -->
<g id="edge12" class="edge"><title>Node5&#45;&gt;Node13</title>
<path fill="none" stroke="midnightblue" d="M270.16,-108.93C282.578,-102.612 297.059,-95.0958 310,-88 326.242,-79.0944 328.788,-73.8458 346,-67 357.172,-62.5563 369.638,-59.0001 381.394,-56.2219"/>
<polygon fill="midnightblue" stroke="midnightblue" points="382.489,-59.564 391.492,-53.978 380.971,-52.7307 382.489,-59.564"/>
</g>
<!-- Node8 -->
<g id="node8" class="node"><title>Node8</title>
<g id="a_node8"><a xlink:href="../../d9/de5/struct_indoor_camera_d3_d.html#ae44ac296d0d5225048b313e14edf7da1" target="_top" xlink:title=" ">
<polygon fill="white" stroke="black" points="550,-207.5 550,-226.5 698,-226.5 698,-207.5 550,-207.5"/>
<text text-anchor="middle" x="624" y="-214.5" font-family="Helvetica,sans-Serif" font-size="10.00">IndoorCameraD3D::GetFarClip</text>
</a>
</g>
</g>
<!-- Node7&#45;&gt;Node8 -->
<g id="edge7" class="edge"><title>Node7&#45;&gt;Node8</title>
<path fill="none" stroke="midnightblue" d="M499.085,-217C512.208,-217 526.058,-217 539.555,-217"/>
<polygon fill="midnightblue" stroke="midnightblue" points="539.79,-220.5 549.79,-217 539.79,-213.5 539.79,-220.5"/>
</g>
<!-- Node10 -->
<g id="node10" class="node"><title>Node10</title>
<g id="a_node10"><a xlink:href="../../d9/de5/struct_indoor_camera_d3_d.html#a6ade9a050aa9009a83e21461c6c470c4" target="_top" xlink:title=" ">
<polygon fill="white" stroke="black" points="547,-158.5 547,-177.5 701,-177.5 701,-158.5 547,-158.5"/>
<text text-anchor="middle" x="624" y="-165.5" font-family="Helvetica,sans-Serif" font-size="10.00">IndoorCameraD3D::GetNearClip</text>
</a>
</g>
</g>
<!-- Node9&#45;&gt;Node10 -->
<g id="edge9" class="edge"><title>Node9&#45;&gt;Node10</title>
<path fill="none" stroke="midnightblue" d="M499.085,-168C511.31,-168 524.166,-168 536.779,-168"/>
<polygon fill="midnightblue" stroke="midnightblue" points="536.827,-171.5 546.827,-168 536.827,-164.5 536.827,-171.5"/>
</g>
<!-- Node15 -->
<g id="node15" class="node"><title>Node15</title>
<g id="a_node15"><a xlink:href="../../d5/d06/struct_vec3__float__.html#a1e4f12ec431a3a2e6b3e62ea7a8397c6" target="_top" xlink:title=" ">
<polygon fill="white" stroke="black" points="370,-0.5 370,-19.5 487,-19.5 487,-0.5 370,-0.5"/>
<text text-anchor="middle" x="428.5" y="-7.5" font-family="Helvetica,sans-Serif" font-size="10.00">Vec3_float_::Normalize</text>
</a>
</g>
</g>
<!-- Node14&#45;&gt;Node15 -->
<g id="edge14" class="edge"><title>Node14&#45;&gt;Node15</title>
<path fill="none" stroke="midnightblue" d="M310.085,-14.3835C326.211,-13.7814 343.338,-13.1421 359.38,-12.5432"/>
<polygon fill="midnightblue" stroke="midnightblue" points="359.881,-16.027 369.743,-12.1562 359.62,-9.03185 359.881,-16.027"/>
</g>
</g>
</svg>
        <g id="navigator" transform="translate(0 0)" fill="#404254">
                <rect fill="#f2f5e9" fill-opacity="0.5" stroke="#606060" stroke-width=".5" x="0" y="0" width="60" height="60"/>
                <use id="zoomplus" xlink:href="#zoomPlus" x="17" y="9" onmousedown="handleZoom(evt,'in')"/>
                <use id="zoomminus" xlink:href="#zoomMin" x="42" y="9" onmousedown="handleZoom(evt,'out')"/>
                <use id="reset" xlink:href="#resetDef" x="30" y="36" onmousedown="handleReset()"/>
                <g id="arrowUp" xlink:href="#dirArrow" transform="translate(30 24)" onmousedown="handlePan(0,-1)">
                  <use xlink:href="#rim" fill="#404040">
                        <set attributeName="fill" to="#808080" begin="arrowUp.mouseover" end="arrowUp.mouseout"/>
                  </use>
                  <path fill="none" stroke="white" stroke-width="1.5" d="M0,-3.0v7 M-2.5,-0.5L0,-3.0L2.5,-0.5"/>
                </g>
                <g id="arrowRight" xlink:href="#dirArrow" transform="rotate(90) translate(36 -43)" onmousedown="handlePan(1,0)">
                  <use xlink:href="#rim" fill="#404040">
                        <set attributeName="fill" to="#808080" begin="arrowRight.mouseover" end="arrowRight.mouseout"/>
                  </use>
                  <path fill="none" stroke="white" stroke-width="1.5" d="M0,-3.0v7 M-2.5,-0.5L0,-3.0L2.5,-0.5"/>
                </g>
                <g id="arrowDown" xlink:href="#dirArrow" transform="rotate(180) translate(-30 -48)" onmousedown="handlePan(0,1)">
                  <use xlink:href="#rim" fill="#404040">
                        <set attributeName="fill" to="#808080" begin="arrowDown.mouseover" end="arrowDown.mouseout"/>
                  </use>
                  <path fill="none" stroke="white" stroke-width="1.5" d="M0,-3.0v7 M-2.5,-0.5L0,-3.0L2.5,-0.5"/>
                </g>
                <g id="arrowLeft" xlink:href="#dirArrow" transform="rotate(270) translate(-36 17)" onmousedown="handlePan(-1,0)">
                  <use xlink:href="#rim" fill="#404040">
                        <set attributeName="fill" to="#808080" begin="arrowLeft.mouseover" end="arrowLeft.mouseout"/>
                  </use>
                  <path fill="none" stroke="white" stroke-width="1.5" d="M0,-3.0v7 M-2.5,-0.5L0,-3.0L2.5,-0.5"/>
                </g>
        </g>
        <svg viewBox="0 0 15 15" width="100%" height="30px" preserveAspectRatio="xMaxYMin meet">
         <g id="arrow_out" transform="scale(0.3 0.3)">
          <a xlink:href="struct_decal_builder_a26caa6e44670b7a57cfdf7bb4d4f303e_cgraph_org.svg" target="_base">
           <rect id="button" ry="5" rx="5" y="6" x="6" height="38" width="38"
                fill="#f2f5e9" fill-opacity="0.5" stroke="#606060" stroke-width="1.0"/>
           <path id="arrow"
             d="M 11.500037,31.436501 C 11.940474,20.09759 22.043105,11.32322 32.158766,21.979434 L 37.068811,17.246167 C 37.068811,17.246167 37.088388,32 37.088388,32 L 22.160133,31.978069 C 22.160133,31.978069 26.997745,27.140456 26.997745,27.140456 C 18.528582,18.264221 13.291696,25.230495 11.500037,31.436501 z"
             style="fill:#404040;"/>
          </a>
         </g>
        </svg>
</svg>
