<?xml version="1.0" encoding="UTF-8" standalone="no"?>
<!DOCTYPE svg PUBLIC "-//W3C//DTD SVG 1.1//EN"
 "http://www.w3.org/Graphics/SVG/1.1/DTD/svg11.dtd">
<!-- Generated by graphviz version 2.38.0 (20140413.2041)
 -->
<!-- Title: DecalBuilder::Reset Pages: 1 -->
<svg width="1276pt" height="110pt"
 viewBox="0.00 0.00 1276.00 109.50" xmlns="http://www.w3.org/2000/svg" xmlns:xlink="http://www.w3.org/1999/xlink">
<g id="graph0" class="graph" transform="scale(1 1) rotate(0) translate(4 105.5)">
<title>DecalBuilder::Reset</title>
<polygon fill="white" stroke="none" points="-4,4 -4,-105.5 1272,-105.5 1272,4 -4,4"/>
<!-- Node1 -->
<g id="node1" class="node"><title>Node1</title>
<g id="a_node1"><a xlink:title=" ">
<polygon fill="#bfbfbf" stroke="black" points="1165,-38.5 1165,-57.5 1268,-57.5 1268,-38.5 1165,-38.5"/>
<text text-anchor="middle" x="1216.5" y="-45.5" font-family="Helvetica,sans-Serif" font-size="10.00">DecalBuilder::Reset</text>
</a>
</g>
</g>
<!-- Node2 -->
<g id="node2" class="node"><title>Node2</title>
<g id="a_node2"><a xlink:href="../../d4/d06/class_application_1_1_game.html#a3f65e3f0ef1a9114fb3dea275e52442e" target="_top" xlink:title=" ">
<polygon fill="white" stroke="black" points="567,-71 567,-101 670,-101 670,-71 567,-71"/>
<text text-anchor="start" x="575" y="-89" font-family="Helvetica,sans-Serif" font-size="10.00">Application::Game::</text>
<text text-anchor="middle" x="618.5" y="-78" font-family="Helvetica,sans-Serif" font-size="10.00">EventLoop</text>
</a>
</g>
</g>
<!-- Node1&#45;&gt;Node2 -->
<g id="edge1" class="edge"><title>Node1&#45;&gt;Node2</title>
<path fill="none" stroke="midnightblue" d="M1169.08,-59.796C1156.19,-62.6354 1142.12,-65.3284 1129,-67 961.949,-88.2874 761.797,-88.4283 670.005,-87.0965"/>
<polygon fill="midnightblue" stroke="midnightblue" points="1170.16,-63.1394 1179.14,-57.5041 1168.61,-56.3145 1170.16,-63.1394"/>
</g>
<!-- Node6 -->
<g id="node6" class="node"><title>Node6</title>
<g id="a_node6"><a xlink:href="../../d1/d55/struct_outdoor_location.html#a51ee85637b8d77dd09ac74de8b1f35a1" target="_top" xlink:title=" ">
<polygon fill="white" stroke="black" points="1000,-38.5 1000,-57.5 1129,-57.5 1129,-38.5 1000,-38.5"/>
<text text-anchor="middle" x="1064.5" y="-45.5" font-family="Helvetica,sans-Serif" font-size="10.00">OutdoorLocation::Initialize</text>
</a>
</g>
</g>
<!-- Node1&#45;&gt;Node6 -->
<g id="edge5" class="edge"><title>Node1&#45;&gt;Node6</title>
<path fill="none" stroke="midnightblue" d="M1154.66,-48C1146.29,-48 1137.68,-48 1129.26,-48"/>
<polygon fill="midnightblue" stroke="midnightblue" points="1154.72,-51.5001 1164.72,-48 1154.72,-44.5001 1154.72,-51.5001"/>
</g>
<!-- Node11 -->
<g id="node11" class="node"><title>Node11</title>
<g id="a_node11"><a xlink:href="../../d6/d9e/struct_indoor_location.html#a49022907e8b214b629b60d390dad4a38" target="_top" xlink:title=" ">
<polygon fill="white" stroke="black" points="851.5,-0.5 851.5,-19.5 958.5,-19.5 958.5,-0.5 851.5,-0.5"/>
<text text-anchor="middle" x="905" y="-7.5" font-family="Helvetica,sans-Serif" font-size="10.00">IndoorLocation::Load</text>
</a>
</g>
</g>
<!-- Node1&#45;&gt;Node11 -->
<g id="edge13" class="edge"><title>Node1&#45;&gt;Node11</title>
<path fill="none" stroke="midnightblue" d="M1167.6,-36.3052C1155.1,-33.5756 1141.59,-30.9113 1129,-29 1071.18,-20.2261 1004.28,-15.2017 958.946,-12.5506"/>
<polygon fill="midnightblue" stroke="midnightblue" points="1166.85,-39.7248 1177.38,-38.4952 1168.38,-32.894 1166.85,-39.7248"/>
</g>
<!-- Node3 -->
<g id="node3" class="node"><title>Node3</title>
<g id="a_node3"><a xlink:href="../../d4/d06/class_application_1_1_game.html#aaa0ff18388b32b4e6198835a35e000d3" target="_top" xlink:title=" ">
<polygon fill="white" stroke="black" points="316,-33 316,-63 419,-63 419,-33 316,-33"/>
<text text-anchor="start" x="324" y="-51" font-family="Helvetica,sans-Serif" font-size="10.00">Application::Game::</text>
<text text-anchor="middle" x="367.5" y="-40" font-family="Helvetica,sans-Serif" font-size="10.00">GameLoop</text>
</a>
</g>
</g>
<!-- Node2&#45;&gt;Node3 -->
<g id="edge2" class="edge"><title>Node2&#45;&gt;Node3</title>
<path fill="none" stroke="midnightblue" d="M556.887,-77.2511C526.318,-72.7871 488.676,-67.2118 455,-62 443.424,-60.2085 430.986,-58.2281 419.252,-56.3345"/>
<polygon fill="midnightblue" stroke="midnightblue" points="556.567,-80.7412 566.967,-78.7202 557.576,-73.8144 556.567,-80.7412"/>
</g>
<!-- Node4 -->
<g id="node4" class="node"><title>Node4</title>
<g id="a_node4"><a xlink:href="../../d4/d06/class_application_1_1_game.html#a013ffd59e8fdf1c0a396da1dbe1681ca" target="_top" xlink:title=" ">
<polygon fill="white" stroke="black" points="156,-38.5 156,-57.5 280,-57.5 280,-38.5 156,-38.5"/>
<text text-anchor="middle" x="218" y="-45.5" font-family="Helvetica,sans-Serif" font-size="10.00">Application::Game::Loop</text>
</a>
</g>
</g>
<!-- Node3&#45;&gt;Node4 -->
<g id="edge3" class="edge"><title>Node3&#45;&gt;Node4</title>
<path fill="none" stroke="midnightblue" d="M305.59,-48C297.149,-48 288.478,-48 280.035,-48"/>
<polygon fill="midnightblue" stroke="midnightblue" points="305.739,-51.5001 315.739,-48 305.739,-44.5001 305.739,-51.5001"/>
</g>
<!-- Node5 -->
<g id="node5" class="node"><title>Node5</title>
<g id="a_node5"><a xlink:href="../../d4/d06/class_application_1_1_game.html#a96341ca5b54d90adc3ecb3bf0bcd2312" target="_top" xlink:title=" ">
<polygon fill="white" stroke="black" points="0,-38.5 0,-57.5 120,-57.5 120,-38.5 0,-38.5"/>
<text text-anchor="middle" x="60" y="-45.5" font-family="Helvetica,sans-Serif" font-size="10.00">Application::Game::Run</text>
</a>
</g>
</g>
<!-- Node4&#45;&gt;Node5 -->
<g id="edge4" class="edge"><title>Node4&#45;&gt;Node5</title>
<path fill="none" stroke="midnightblue" d="M145.546,-48C137.081,-48 128.513,-48 120.244,-48"/>
<polygon fill="midnightblue" stroke="midnightblue" points="145.792,-51.5001 155.792,-48 145.792,-44.5001 145.792,-51.5001"/>
</g>
<!-- Node7 -->
<g id="node7" class="node"><title>Node7</title>
<g id="a_node7"><a xlink:href="../../dc/dfb/_outdoor_8h.html#ad0b6920041533cc49817c0c848c6b3b5" target="_top" xlink:title=" ">
<polygon fill="white" stroke="black" points="846,-38.5 846,-57.5 964,-57.5 964,-38.5 846,-38.5"/>
<text text-anchor="middle" x="905" y="-45.5" font-family="Helvetica,sans-Serif" font-size="10.00">ODM_LoadAndInitialize</text>
</a>
</g>
</g>
<!-- Node6&#45;&gt;Node7 -->
<g id="edge6" class="edge"><title>Node6&#45;&gt;Node7</title>
<path fill="none" stroke="midnightblue" d="M989.865,-48C981.27,-48 972.593,-48 964.247,-48"/>
<polygon fill="midnightblue" stroke="midnightblue" points="989.893,-51.5001 999.893,-48 989.893,-44.5001 989.893,-51.5001"/>
</g>
<!-- Node8 -->
<g id="node8" class="node"><title>Node8</title>
<g id="a_node8"><a xlink:href="../../de/dcf/_engine_8h.html#a5cf7667eb3b81f9acbc63bdf01528452" target="_top" xlink:title=" ">
<polygon fill="white" stroke="black" points="706,-38.5 706,-57.5 810,-57.5 810,-38.5 706,-38.5"/>
<text text-anchor="middle" x="758" y="-45.5" font-family="Helvetica,sans-Serif" font-size="10.00">PrepareToLoadODM</text>
</a>
</g>
</g>
<!-- Node7&#45;&gt;Node8 -->
<g id="edge7" class="edge"><title>Node7&#45;&gt;Node8</title>
<path fill="none" stroke="midnightblue" d="M835.79,-48C827.157,-48 818.442,-48 810.138,-48"/>
<polygon fill="midnightblue" stroke="midnightblue" points="835.858,-51.5001 845.858,-48 835.858,-44.5001 835.858,-51.5001"/>
</g>
<!-- Node8&#45;&gt;Node2 -->
<g id="edge12" class="edge"><title>Node8&#45;&gt;Node2</title>
<path fill="none" stroke="midnightblue" d="M712.297,-60.3542C698.799,-64.0846 683.885,-68.2062 670.035,-72.034"/>
<polygon fill="midnightblue" stroke="midnightblue" points="713.597,-63.6264 722.303,-57.589 711.732,-56.8793 713.597,-63.6264"/>
</g>
<!-- Node9 -->
<g id="node9" class="node"><title>Node9</title>
<g id="a_node9"><a xlink:href="../../de/dcf/_engine_8h.html#a7ac85aa3f91f16b9f3007f4d7f1b419a" target="_top" xlink:title=" ">
<polygon fill="white" stroke="black" points="574.5,-0.5 574.5,-19.5 662.5,-19.5 662.5,-0.5 574.5,-0.5"/>
<text text-anchor="middle" x="618.5" y="-7.5" font-family="Helvetica,sans-Serif" font-size="10.00">DoPrepareWorld</text>
</a>
</g>
</g>
<!-- Node8&#45;&gt;Node9 -->
<g id="edge8" class="edge"><title>Node8&#45;&gt;Node9</title>
<path fill="none" stroke="midnightblue" d="M712.427,-35.6817C693.535,-30.4607 671.853,-24.4684 654.186,-19.5859"/>
<polygon fill="midnightblue" stroke="midnightblue" points="711.732,-39.1207 722.303,-38.411 713.597,-32.3736 711.732,-39.1207"/>
</g>
<!-- Node9&#45;&gt;Node3 -->
<g id="edge9" class="edge"><title>Node9&#45;&gt;Node3</title>
<path fill="none" stroke="midnightblue" d="M568.121,-21.7369C556.025,-24.3652 543.083,-26.9717 531,-29 493.744,-35.2537 451.338,-40.1378 419.19,-43.3874"/>
<polygon fill="midnightblue" stroke="midnightblue" points="569.039,-25.1183 578.044,-19.5362 567.524,-18.2843 569.039,-25.1183"/>
</g>
<!-- Node10 -->
<g id="node10" class="node"><title>Node10</title>
<g id="a_node10"><a xlink:href="../../de/dcf/_engine_8h.html#a287d13406d42b0831d9eb7a64d368202" target="_top" xlink:title=" ">
<polygon fill="white" stroke="black" points="455,-0.5 455,-19.5 531,-19.5 531,-0.5 455,-0.5"/>
<text text-anchor="middle" x="493" y="-7.5" font-family="Helvetica,sans-Serif" font-size="10.00">PrepareWorld</text>
</a>
</g>
</g>
<!-- Node9&#45;&gt;Node10 -->
<g id="edge10" class="edge"><title>Node9&#45;&gt;Node10</title>
<path fill="none" stroke="midnightblue" d="M564.236,-10C553.11,-10 541.61,-10 531.216,-10"/>
<polygon fill="midnightblue" stroke="midnightblue" points="564.306,-13.5001 574.306,-10 564.306,-6.5001 564.306,-13.5001"/>
</g>
<!-- Node10&#45;&gt;Node3 -->
<g id="edge11" class="edge"><title>Node10&#45;&gt;Node3</title>
<path fill="none" stroke="midnightblue" d="M451.228,-22.5453C440.419,-25.871 428.638,-29.4961 417.443,-32.9405"/>
<polygon fill="midnightblue" stroke="midnightblue" points="452.307,-25.8752 460.836,-19.589 450.249,-19.1847 452.307,-25.8752"/>
</g>
<!-- Node12 -->
<g id="node12" class="node"><title>Node12</title>
<g id="a_node12"><a xlink:href="../../da/dc7/_indoor_8h.html#abecbfe3d22734c1621783ba67cb67cc1" target="_top" xlink:title=" ">
<polygon fill="white" stroke="black" points="707.5,-0.5 707.5,-19.5 808.5,-19.5 808.5,-0.5 707.5,-0.5"/>
<text text-anchor="middle" x="758" y="-7.5" font-family="Helvetica,sans-Serif" font-size="10.00">PrepareToLoadBLV</text>
</a>
</g>
</g>
<!-- Node11&#45;&gt;Node12 -->
<g id="edge14" class="edge"><title>Node11&#45;&gt;Node12</title>
<path fill="none" stroke="midnightblue" d="M840.969,-10C830.13,-10 819.003,-10 808.581,-10"/>
<polygon fill="midnightblue" stroke="midnightblue" points="841.242,-13.5001 851.241,-10 841.241,-6.5001 841.242,-13.5001"/>
</g>
<!-- Node12&#45;&gt;Node9 -->
<g id="edge15" class="edge"><title>Node12&#45;&gt;Node9</title>
<path fill="none" stroke="midnightblue" d="M697.267,-10C685.641,-10 673.664,-10 662.699,-10"/>
<polygon fill="midnightblue" stroke="midnightblue" points="697.359,-13.5001 707.359,-10 697.359,-6.5001 697.359,-13.5001"/>
</g>
</g>
</svg>
