<?xml version="1.0" encoding="UTF-8" standalone="no"?>
<!DOCTYPE svg PUBLIC "-//W3C//DTD SVG 1.1//EN"
 "http://www.w3.org/Graphics/SVG/1.1/DTD/svg11.dtd">
<!-- Generated by graphviz version 2.38.0 (20140413.2041)
 -->
<!-- Title: DecalBuilder::DrawDecalDebugOutlines Pages: 1 -->
<svg width="673pt" height="116pt"
 viewBox="0.00 0.00 673.00 115.50" xmlns="http://www.w3.org/2000/svg" xmlns:xlink="http://www.w3.org/1999/xlink">
<g id="graph0" class="graph" transform="scale(1 1) rotate(0) translate(4 111.5)">
<title>DecalBuilder::DrawDecalDebugOutlines</title>
<polygon fill="white" stroke="none" points="-4,4 -4,-111.5 669,-111.5 669,4 -4,4"/>
<!-- Node1 -->
<g id="node1" class="node"><title>Node1</title>
<g id="a_node1"><a xlink:title=" ">
<polygon fill="#bfbfbf" stroke="black" points="0,-33 0,-63 152,-63 152,-33 0,-33"/>
<text text-anchor="start" x="8" y="-51" font-family="Helvetica,sans-Serif" font-size="10.00">DecalBuilder::DrawDecalDebug</text>
<text text-anchor="middle" x="76" y="-40" font-family="Helvetica,sans-Serif" font-size="10.00">Outlines</text>
</a>
</g>
</g>
<!-- Node2 -->
<g id="node2" class="node"><title>Node2</title>
<g id="a_node2"><a xlink:href="../../d9/de5/struct_indoor_camera_d3_d.html#abd36d14d321f50e9a10ea7ecc41b685d" target="_top" xlink:title=" ">
<polygon fill="white" stroke="black" points="188,-33 188,-63 316,-63 316,-33 188,-33"/>
<text text-anchor="start" x="196" y="-51" font-family="Helvetica,sans-Serif" font-size="10.00">IndoorCameraD3D::debug</text>
<text text-anchor="middle" x="252" y="-40" font-family="Helvetica,sans-Serif" font-size="10.00">_outline_sw</text>
</a>
</g>
</g>
<!-- Node1&#45;&gt;Node2 -->
<g id="edge1" class="edge"><title>Node1&#45;&gt;Node2</title>
<path fill="none" stroke="midnightblue" d="M152.054,-48C160.555,-48 169.211,-48 177.689,-48"/>
<polygon fill="midnightblue" stroke="midnightblue" points="177.92,-51.5001 187.92,-48 177.92,-44.5001 177.92,-51.5001"/>
</g>
<!-- Node3 -->
<g id="node3" class="node"><title>Node3</title>
<g id="a_node3"><a xlink:href="../../d9/de5/struct_indoor_camera_d3_d.html#a492282eb1b8ac7ed510b9fb049a6ce35" target="_top" xlink:title=" ">
<polygon fill="white" stroke="black" points="352,-33 352,-63 464,-63 464,-33 352,-33"/>
<text text-anchor="start" x="360" y="-51" font-family="Helvetica,sans-Serif" font-size="10.00">IndoorCameraD3D::do</text>
<text text-anchor="middle" x="408" y="-40" font-family="Helvetica,sans-Serif" font-size="10.00">_draw_debug_line_sw</text>
</a>
</g>
</g>
<!-- Node2&#45;&gt;Node3 -->
<g id="edge2" class="edge"><title>Node2&#45;&gt;Node3</title>
<path fill="none" stroke="midnightblue" d="M316.082,-48C324.468,-48 333.081,-48 341.507,-48"/>
<polygon fill="midnightblue" stroke="midnightblue" points="341.663,-51.5001 351.663,-48 341.662,-44.5001 341.663,-51.5001"/>
</g>
<!-- Node4 -->
<g id="node4" class="node"><title>Node4</title>
<g id="a_node4"><a xlink:href="../../d9/de5/struct_indoor_camera_d3_d.html#a40aa230165ecf145864256e42f4b2634" target="_top" xlink:title=" ">
<polygon fill="white" stroke="black" points="509.5,-77 509.5,-107 655.5,-107 655.5,-77 509.5,-77"/>
<text text-anchor="start" x="517.5" y="-95" font-family="Helvetica,sans-Serif" font-size="10.00">IndoorCameraD3D::CalcPortal</text>
<text text-anchor="middle" x="582.5" y="-84" font-family="Helvetica,sans-Serif" font-size="10.00">Shape</text>
</a>
</g>
</g>
<!-- Node3&#45;&gt;Node4 -->
<g id="edge3" class="edge"><title>Node3&#45;&gt;Node4</title>
<path fill="none" stroke="midnightblue" d="M464.054,-62.0428C479.487,-65.9792 496.459,-70.3084 512.588,-74.4224"/>
<polygon fill="midnightblue" stroke="midnightblue" points="511.945,-77.8705 522.5,-76.9507 513.675,-71.0877 511.945,-77.8705"/>
</g>
<!-- Node5 -->
<g id="node5" class="node"><title>Node5</title>
<g id="a_node5"><a xlink:href="../../d9/de5/struct_indoor_camera_d3_d.html#a32190b521a23e986e5b0b13098e4b114" target="_top" xlink:title=" ">
<polygon fill="white" stroke="black" points="516.5,-38.5 516.5,-57.5 648.5,-57.5 648.5,-38.5 516.5,-38.5"/>
<text text-anchor="middle" x="582.5" y="-45.5" font-family="Helvetica,sans-Serif" font-size="10.00">IndoorCameraD3D::Project</text>
</a>
</g>
</g>
<!-- Node3&#45;&gt;Node5 -->
<g id="edge4" class="edge"><title>Node3&#45;&gt;Node5</title>
<path fill="none" stroke="midnightblue" d="M464.054,-48C477.463,-48 492.035,-48 506.205,-48"/>
<polygon fill="midnightblue" stroke="midnightblue" points="506.43,-51.5001 516.43,-48 506.43,-44.5001 506.43,-51.5001"/>
</g>
<!-- Node6 -->
<g id="node6" class="node"><title>Node6</title>
<g id="a_node6"><a xlink:href="../../d9/de5/struct_indoor_camera_d3_d.html#a819c840787fde1b667c5477bafb21a62" target="_top" xlink:title=" ">
<polygon fill="white" stroke="black" points="500,-0.5 500,-19.5 665,-19.5 665,-0.5 500,-0.5"/>
<text text-anchor="middle" x="582.5" y="-7.5" font-family="Helvetica,sans-Serif" font-size="10.00">IndoorCameraD3D::ViewTransform</text>
</a>
</g>
</g>
<!-- Node3&#45;&gt;Node6 -->
<g id="edge5" class="edge"><title>Node3&#45;&gt;Node6</title>
<path fill="none" stroke="midnightblue" d="M464.054,-35.8721C484.551,-31.3568 507.765,-26.2431 528.11,-21.7613"/>
<polygon fill="midnightblue" stroke="midnightblue" points="529.136,-25.1192 538.149,-19.5497 527.63,-18.2831 529.136,-25.1192"/>
</g>
</g>
</svg>
