<?xml version="1.0" encoding="UTF-8" standalone="no"?>
<!DOCTYPE svg PUBLIC "-//W3C//DTD SVG 1.1//EN"
 "http://www.w3.org/Graphics/SVG/1.1/DTD/svg11.dtd">
<!-- Generated by graphviz version 2.38.0 (20140413.2041)
 -->
<!-- Title: GUIWindow_Book::InitializeFonts Pages: 1 -->
<svg width="777pt" height="252pt"
 viewBox="0.00 0.00 777.00 252.00" xmlns="http://www.w3.org/2000/svg" xmlns:xlink="http://www.w3.org/1999/xlink">
<g id="graph0" class="graph" transform="scale(1 1) rotate(0) translate(4 248)">
<title>GUIWindow_Book::InitializeFonts</title>
<polygon fill="white" stroke="none" points="-4,4 -4,-248 773,-248 773,4 -4,4"/>
<!-- Node1 -->
<g id="node1" class="node"><title>Node1</title>
<g id="a_node1"><a xlink:title=" ">
<polygon fill="#bfbfbf" stroke="black" points="0,-126.5 0,-156.5 137,-156.5 137,-126.5 0,-126.5"/>
<text text-anchor="start" x="8" y="-144.5" font-family="Helvetica,sans-Serif" font-size="10.00">GUIWindow_Book::Initialize</text>
<text text-anchor="middle" x="68.5" y="-133.5" font-family="Helvetica,sans-Serif" font-size="10.00">Fonts</text>
</a>
</g>
</g>
<!-- Node2 -->
<g id="node2" class="node"><title>Node2</title>
<g id="a_node2"><a xlink:href="../../db/dd6/class_assets_manager.html#a1233dda64079e0eba19f8be51386d029" target="_top" xlink:title=" ">
<polygon fill="white" stroke="black" points="174.5,-195.5 174.5,-225.5 307.5,-225.5 307.5,-195.5 174.5,-195.5"/>
<text text-anchor="start" x="182.5" y="-213.5" font-family="Helvetica,sans-Serif" font-size="10.00">AssetsManager::GetImage</text>
<text text-anchor="middle" x="241" y="-202.5" font-family="Helvetica,sans-Serif" font-size="10.00">_Alpha</text>
</a>
</g>
</g>
<!-- Node1&#45;&gt;Node2 -->
<g id="edge1" class="edge"><title>Node1&#45;&gt;Node2</title>
<path fill="none" stroke="midnightblue" d="M103.84,-156.555C123.912,-165.24 149.787,-176.24 173,-185.5 178.189,-187.57 183.624,-189.685 189.059,-191.764"/>
<polygon fill="midnightblue" stroke="midnightblue" points="188.195,-195.18 198.786,-195.453 190.677,-188.635 188.195,-195.18"/>
</g>
<!-- Node3 -->
<g id="node3" class="node"><title>Node3</title>
<g id="a_node3"><a xlink:href="../../d3/d39/class_g_u_i_font.html#a60a9fdf52ee46948981d31ce14d2f005" target="_top" xlink:title=" ">
<polygon fill="white" stroke="black" points="191.5,-157 191.5,-176 290.5,-176 290.5,-157 191.5,-157"/>
<text text-anchor="middle" x="241" y="-164" font-family="Helvetica,sans-Serif" font-size="10.00">GUIFont::LoadFont</text>
</a>
</g>
</g>
<!-- Node1&#45;&gt;Node3 -->
<g id="edge2" class="edge"><title>Node1&#45;&gt;Node3</title>
<path fill="none" stroke="midnightblue" d="M137.376,-151.452C151.873,-153.578 167.07,-155.806 181.193,-157.877"/>
<polygon fill="midnightblue" stroke="midnightblue" points="180.859,-161.366 191.261,-159.354 181.875,-154.44 180.859,-161.366"/>
</g>
<!-- Node7 -->
<g id="node7" class="node"><title>Node7</title>
<g id="a_node7"><a xlink:href="../../d7/dc2/class_audio_player.html#afa0c135f321bd87b4d4ad2dcad3833e3" target="_top" xlink:title=" ">
<polygon fill="white" stroke="black" points="180,-107 180,-126 302,-126 302,-107 180,-107"/>
<text text-anchor="middle" x="241" y="-114" font-family="Helvetica,sans-Serif" font-size="10.00">AudioPlayer::PlaySound</text>
</a>
</g>
</g>
<!-- Node1&#45;&gt;Node7 -->
<g id="edge6" class="edge"><title>Node1&#45;&gt;Node7</title>
<path fill="none" stroke="midnightblue" d="M137.376,-131.548C148.003,-129.989 159.005,-128.376 169.685,-126.81"/>
<polygon fill="midnightblue" stroke="midnightblue" points="170.416,-130.24 179.803,-125.327 169.401,-123.314 170.416,-130.24"/>
</g>
<!-- Node17 -->
<g id="node17" class="node"><title>Node17</title>
<g id="a_node17"><a xlink:href="../../d7/dc2/class_audio_player.html#a222380497b8558ff7d16fa71f8680a46" target="_top" xlink:title=" ">
<polygon fill="white" stroke="black" points="173,-69 173,-88 309,-88 309,-69 173,-69"/>
<text text-anchor="middle" x="241" y="-76" font-family="Helvetica,sans-Serif" font-size="10.00">AudioPlayer::StopChannels</text>
</a>
</g>
</g>
<!-- Node1&#45;&gt;Node17 -->
<g id="edge18" class="edge"><title>Node1&#45;&gt;Node17</title>
<path fill="none" stroke="midnightblue" d="M102.178,-126.36C122.342,-117.332 148.879,-106.009 173,-97.5 179.512,-95.2028 186.452,-92.985 193.306,-90.9255"/>
<polygon fill="midnightblue" stroke="midnightblue" points="194.608,-94.1918 203.227,-88.0305 192.647,-87.4721 194.608,-94.1918"/>
</g>
<!-- Node4 -->
<g id="node4" class="node"><title>Node4</title>
<g id="a_node4"><a xlink:href="../../dd/da7/class_l_o_d_1_1_file.html#af2af972a90784bbcfa975ccd0346385d" target="_top" xlink:title=" ">
<polygon fill="white" stroke="black" points="345,-213.5 345,-243.5 485,-243.5 485,-213.5 345,-213.5"/>
<text text-anchor="start" x="353" y="-231.5" font-family="Helvetica,sans-Serif" font-size="10.00">LOD::File::LoadCompressed</text>
<text text-anchor="middle" x="415" y="-220.5" font-family="Helvetica,sans-Serif" font-size="10.00">Texture</text>
</a>
</g>
</g>
<!-- Node3&#45;&gt;Node4 -->
<g id="edge3" class="edge"><title>Node3&#45;&gt;Node4</title>
<path fill="none" stroke="midnightblue" d="M280.322,-176.033C289.809,-178.756 299.869,-181.959 309,-185.5 325.678,-191.969 328.563,-196.441 345,-203.5 349.976,-205.637 355.201,-207.753 360.456,-209.797"/>
<polygon fill="midnightblue" stroke="midnightblue" points="359.308,-213.105 369.899,-213.386 361.795,-206.561 359.308,-213.105"/>
</g>
<!-- Node6 -->
<g id="node6" class="node"><title>Node6</title>
<g id="a_node6"><a xlink:href="../../d8/d81/class_l_o_d_file___icons_bitmaps.html#a91b62998b7a068b94e4e53dd1994b104" target="_top" xlink:title=" ">
<polygon fill="white" stroke="black" points="357,-164.5 357,-194.5 473,-194.5 473,-164.5 357,-164.5"/>
<text text-anchor="start" x="365" y="-182.5" font-family="Helvetica,sans-Serif" font-size="10.00">LODFile_IconsBitmaps</text>
<text text-anchor="middle" x="415" y="-171.5" font-family="Helvetica,sans-Serif" font-size="10.00">::LoadTexture</text>
</a>
</g>
</g>
<!-- Node3&#45;&gt;Node6 -->
<g id="edge5" class="edge"><title>Node3&#45;&gt;Node6</title>
<path fill="none" stroke="midnightblue" d="M290.828,-170.191C308.175,-171.502 328.02,-173.001 346.64,-174.409"/>
<polygon fill="midnightblue" stroke="midnightblue" points="346.599,-177.916 356.835,-175.179 347.127,-170.936 346.599,-177.916"/>
</g>
<!-- Node5 -->
<g id="node5" class="node"><title>Node5</title>
<g id="a_node5"><a xlink:href="../../d9/d3e/namespacezlib.html#ae552beaf4387a81c63a28b01a9cc7ab4" target="_top" xlink:title=" ">
<polygon fill="white" stroke="black" points="548,-210 548,-229 640,-229 640,-210 548,-210"/>
<text text-anchor="middle" x="594" y="-217" font-family="Helvetica,sans-Serif" font-size="10.00">zlib::Uncompress</text>
</a>
</g>
</g>
<!-- Node4&#45;&gt;Node5 -->
<g id="edge4" class="edge"><title>Node4&#45;&gt;Node5</title>
<path fill="none" stroke="midnightblue" d="M485.193,-224.982C502.617,-224.096 521.091,-223.156 537.731,-222.31"/>
<polygon fill="midnightblue" stroke="midnightblue" points="538.019,-225.8 547.829,-221.797 537.664,-218.809 538.019,-225.8"/>
</g>
<!-- Node8 -->
<g id="node8" class="node"><title>Node8</title>
<g id="a_node8"><a xlink:href="../../d4/db9/_open_a_l_sound_provider_8cpp.html#a0d61058bc8900801bc227bc7b47881d7" target="_top" xlink:title=" ">
<polygon fill="white" stroke="black" points="363.5,-50 363.5,-69 466.5,-69 466.5,-50 363.5,-50"/>
<text text-anchor="middle" x="415" y="-57" font-family="Helvetica,sans-Serif" font-size="10.00">CreateAudioSample</text>
</a>
</g>
</g>
<!-- Node7&#45;&gt;Node8 -->
<g id="edge7" class="edge"><title>Node7&#45;&gt;Node8</title>
<path fill="none" stroke="midnightblue" d="M278.007,-106.965C288.095,-104.111 299.027,-100.845 309,-97.5 325.276,-92.041 328.89,-89.432 345,-83.5 355.102,-79.7803 366.09,-75.889 376.266,-72.3488"/>
<polygon fill="midnightblue" stroke="midnightblue" points="377.412,-75.6559 385.718,-69.0791 375.123,-69.0405 377.412,-75.6559"/>
</g>
<!-- Node10 -->
<g id="node10" class="node"><title>Node10</title>
<g id="a_node10"><a xlink:href="../../d7/dc2/class_audio_player.html#ae30d2f6cbd73b8e316a47b4694fe8960" target="_top" xlink:title=" ">
<polygon fill="white" stroke="black" points="353,-126 353,-145 477,-145 477,-126 353,-126"/>
<text text-anchor="middle" x="415" y="-133" font-family="Helvetica,sans-Serif" font-size="10.00">AudioPlayer::LoadSound</text>
</a>
</g>
</g>
<!-- Node7&#45;&gt;Node10 -->
<g id="edge9" class="edge"><title>Node7&#45;&gt;Node10</title>
<path fill="none" stroke="midnightblue" d="M302.157,-123.145C315.204,-124.586 329.125,-126.124 342.558,-127.608"/>
<polygon fill="midnightblue" stroke="midnightblue" points="342.388,-131.111 352.712,-128.73 343.157,-124.153 342.388,-131.111"/>
</g>
<!-- Node14 -->
<g id="node14" class="node"><title>Node14</title>
<g id="a_node14"><a xlink:href="../../d6/d70/class_log.html#ac0de2621497ca3b2fbf208624c08bcdf" target="_top" xlink:title=" ">
<polygon fill="white" stroke="black" points="557,-88 557,-107 631,-107 631,-88 557,-88"/>
<text text-anchor="middle" x="594" y="-95" font-family="Helvetica,sans-Serif" font-size="10.00">Log::Warning</text>
</a>
</g>
</g>
<!-- Node7&#45;&gt;Node14 -->
<g id="edge17" class="edge"><title>Node7&#45;&gt;Node14</title>
<path fill="none" stroke="midnightblue" d="M302.339,-113.234C371.595,-109.485 483.687,-103.417 546.511,-100.017"/>
<polygon fill="midnightblue" stroke="midnightblue" points="546.733,-103.51 556.529,-99.4742 546.355,-96.5199 546.733,-103.51"/>
</g>
<!-- Node15 -->
<g id="node15" class="node"><title>Node15</title>
<g id="a_node15"><a xlink:href="../../d9/d98/class_open_a_l_sound_provider.html#a25ac61cd13253bb659672a1cc29ef22c" target="_top" xlink:title=" ">
<polygon fill="white" stroke="black" points="358,-0.5 358,-30.5 472,-30.5 472,-0.5 358,-0.5"/>
<text text-anchor="start" x="366" y="-18.5" font-family="Helvetica,sans-Serif" font-size="10.00">OpenALSoundProvider</text>
<text text-anchor="middle" x="415" y="-7.5" font-family="Helvetica,sans-Serif" font-size="10.00">::SetListenerPosition</text>
</a>
</g>
</g>
<!-- Node7&#45;&gt;Node15 -->
<g id="edge15" class="edge"><title>Node7&#45;&gt;Node15</title>
<path fill="none" stroke="midnightblue" d="M291.546,-106.981C297.766,-104.514 303.771,-101.409 309,-97.5 332.999,-79.5606 321.655,-59.2832 345,-40.5 347.085,-38.8227 349.292,-37.2523 351.587,-35.7827"/>
<polygon fill="midnightblue" stroke="midnightblue" points="353.803,-38.5519 360.804,-30.6 350.372,-32.4502 353.803,-38.5519"/>
</g>
<!-- Node9 -->
<g id="node9" class="node"><title>Node9</title>
<g id="a_node9"><a xlink:href="../../da/def/_media_8h.html#ab508e4ee3c70ec5e60273ec99af30a2e" target="_top" xlink:title=" ">
<polygon fill="white" stroke="black" points="521,-50 521,-69 667,-69 667,-50 521,-50"/>
<text text-anchor="middle" x="594" y="-57" font-family="Helvetica,sans-Serif" font-size="10.00">CreateAudioBufferDataSource</text>
</a>
</g>
</g>
<!-- Node8&#45;&gt;Node9 -->
<g id="edge8" class="edge"><title>Node8&#45;&gt;Node9</title>
<path fill="none" stroke="midnightblue" d="M466.721,-59.5C480.416,-59.5 495.597,-59.5 510.547,-59.5"/>
<polygon fill="midnightblue" stroke="midnightblue" points="510.839,-63.0001 520.839,-59.5 510.839,-56.0001 510.839,-63.0001"/>
</g>
<!-- Node10&#45;&gt;Node5 -->
<g id="edge13" class="edge"><title>Node10&#45;&gt;Node5</title>
<path fill="none" stroke="midnightblue" d="M464.165,-145.112C471.422,-147.582 478.608,-150.664 485,-154.5 504.947,-166.472 501.612,-179.642 521,-192.5 529.428,-198.089 539.172,-202.735 548.716,-206.506"/>
<polygon fill="midnightblue" stroke="midnightblue" points="547.543,-209.804 558.136,-209.988 549.97,-203.238 547.543,-209.804"/>
</g>
<!-- Node11 -->
<g id="node11" class="node"><title>Node11</title>
<g id="a_node11"><a xlink:href="../../da/d6a/_mem_buffer_8cpp.html#a685632d9cd2b61b24a9bfc649d54937e" target="_top" xlink:title=" ">
<polygon fill="white" stroke="black" points="551.5,-164 551.5,-183 636.5,-183 636.5,-164 551.5,-164"/>
<text text-anchor="middle" x="594" y="-171" font-family="Helvetica,sans-Serif" font-size="10.00">AllocMemBuffer</text>
</a>
</g>
</g>
<!-- Node10&#45;&gt;Node11 -->
<g id="edge10" class="edge"><title>Node10&#45;&gt;Node11</title>
<path fill="none" stroke="midnightblue" d="M460.665,-145.089C485.256,-150.369 515.889,-156.945 541.487,-162.441"/>
<polygon fill="midnightblue" stroke="midnightblue" points="540.878,-165.89 551.39,-164.567 542.347,-159.046 540.878,-165.89"/>
</g>
<!-- Node12 -->
<g id="node12" class="node"><title>Node12</title>
<g id="a_node12"><a xlink:href="../../d7/dc2/class_audio_player.html#aac82d03b250711ed0ce64fa22dfe3a59" target="_top" xlink:title=" ">
<polygon fill="white" stroke="black" points="533,-126 533,-145 655,-145 655,-126 533,-126"/>
<text text-anchor="middle" x="594" y="-133" font-family="Helvetica,sans-Serif" font-size="10.00">AudioPlayer::FindSound</text>
</a>
</g>
</g>
<!-- Node10&#45;&gt;Node12 -->
<g id="edge11" class="edge"><title>Node10&#45;&gt;Node12</title>
<path fill="none" stroke="midnightblue" d="M477.409,-135.5C492.012,-135.5 507.704,-135.5 522.671,-135.5"/>
<polygon fill="midnightblue" stroke="midnightblue" points="522.895,-139 532.895,-135.5 522.894,-132 522.895,-139"/>
</g>
<!-- Node10&#45;&gt;Node14 -->
<g id="edge14" class="edge"><title>Node10&#45;&gt;Node14</title>
<path fill="none" stroke="midnightblue" d="M460.665,-125.911C487.09,-120.238 520.492,-113.067 547.127,-107.348"/>
<polygon fill="midnightblue" stroke="midnightblue" points="547.932,-110.755 556.975,-105.234 546.463,-103.911 547.932,-110.755"/>
</g>
<!-- Node13 -->
<g id="node13" class="node"><title>Node13</title>
<g id="a_node13"><a xlink:href="../../d8/d44/_strings_8cpp.html#ae591bae1416df2b3638ae859ad4ede6f" target="_top" xlink:title=" ">
<polygon fill="white" stroke="black" points="703,-126 703,-145 769,-145 769,-126 703,-126"/>
<text text-anchor="middle" x="736" y="-133" font-family="Helvetica,sans-Serif" font-size="10.00">MakeLower</text>
</a>
</g>
</g>
<!-- Node12&#45;&gt;Node13 -->
<g id="edge12" class="edge"><title>Node12&#45;&gt;Node13</title>
<path fill="none" stroke="midnightblue" d="M655.185,-135.5C667.796,-135.5 680.84,-135.5 692.636,-135.5"/>
<polygon fill="midnightblue" stroke="midnightblue" points="692.639,-139 702.639,-135.5 692.639,-132 692.639,-139"/>
</g>
<!-- Node16 -->
<g id="node16" class="node"><title>Node16</title>
<g id="a_node16"><a xlink:href="../../d1/d20/al_8h.html#acb8f6904370d9946f4ea496e21729415" target="_top" xlink:title=" ">
<polygon fill="white" stroke="black" points="561,-6 561,-25 627,-25 627,-6 561,-6"/>
<text text-anchor="middle" x="594" y="-13" font-family="Helvetica,sans-Serif" font-size="10.00">alListener3f</text>
</a>
</g>
</g>
<!-- Node15&#45;&gt;Node16 -->
<g id="edge16" class="edge"><title>Node15&#45;&gt;Node16</title>
<path fill="none" stroke="midnightblue" d="M472.004,-15.5C497.501,-15.5 527.177,-15.5 550.758,-15.5"/>
<polygon fill="midnightblue" stroke="midnightblue" points="550.793,-19.0001 560.793,-15.5 550.793,-12.0001 550.793,-19.0001"/>
</g>
</g>
</svg>
