<?xml version="1.0" encoding="UTF-8" standalone="no"?>
<!DOCTYPE svg PUBLIC "-//W3C//DTD SVG 1.1//EN"
 "http://www.w3.org/Graphics/SVG/1.1/DTD/svg11.dtd">
<!-- Generated by graphviz version 2.38.0 (20140413.2041)
 -->
<!-- Title: SpriteObject::OnInteraction Pages: 1 -->
<svg width="1628pt" height="403pt"
 viewBox="0.00 0.00 1628.00 402.50" xmlns="http://www.w3.org/2000/svg" xmlns:xlink="http://www.w3.org/1999/xlink">
<g id="graph0" class="graph" transform="scale(1 1) rotate(0) translate(4 398.5)">
<title>SpriteObject::OnInteraction</title>
<polygon fill="white" stroke="none" points="-4,4 -4,-398.5 1624,-398.5 1624,4 -4,4"/>
<!-- Node1 -->
<g id="node1" class="node"><title>Node1</title>
<g id="a_node1"><a xlink:title=" ">
<polygon fill="#bfbfbf" stroke="black" points="1486,-199.5 1486,-218.5 1620,-218.5 1620,-199.5 1486,-199.5"/>
<text text-anchor="middle" x="1553" y="-206.5" font-family="Helvetica,sans-Serif" font-size="10.00">SpriteObject::OnInteraction</text>
</a>
</g>
</g>
<!-- Node2 -->
<g id="node2" class="node"><title>Node2</title>
<g id="a_node2"><a xlink:href="../../d8/d06/namespace_cast_spell_info_helpers.html#a6fa3b22b4867c28cad6c215c646dc4aa" target="_top" xlink:title=" ">
<polygon fill="white" stroke="black" points="1329.5,-150 1329.5,-180 1439.5,-180 1439.5,-150 1329.5,-150"/>
<text text-anchor="start" x="1337.5" y="-168" font-family="Helvetica,sans-Serif" font-size="10.00">CastSpellInfoHelpers</text>
<text text-anchor="middle" x="1384.5" y="-157" font-family="Helvetica,sans-Serif" font-size="10.00">::_427E01_cast_spell</text>
</a>
</g>
</g>
<!-- Node1&#45;&gt;Node2 -->
<g id="edge1" class="edge"><title>Node1&#45;&gt;Node2</title>
<path fill="none" stroke="midnightblue" d="M1506.1,-196.871C1485.51,-191.429 1461.07,-184.971 1439.6,-179.296"/>
<polygon fill="midnightblue" stroke="midnightblue" points="1505.31,-200.281 1515.87,-199.453 1507.1,-193.514 1505.31,-200.281"/>
</g>
<!-- Node7 -->
<g id="node7" class="node"><title>Node7</title>
<g id="a_node7"><a xlink:href="../../d9/ded/_sprite_object_8cpp.html#a457801379764f6519b638ea5b505967e" target="_top" xlink:title=" ">
<polygon fill="white" stroke="black" points="1319,-287.5 1319,-306.5 1450,-306.5 1450,-287.5 1319,-287.5"/>
<text text-anchor="middle" x="1384.5" y="-294.5" font-family="Helvetica,sans-Serif" font-size="10.00">_46BFFA_update_spell_fx</text>
</a>
</g>
</g>
<!-- Node1&#45;&gt;Node7 -->
<g id="edge6" class="edge"><title>Node1&#45;&gt;Node7</title>
<path fill="none" stroke="midnightblue" d="M1525.59,-223.443C1505.05,-234.629 1475.79,-250.45 1450,-264 1434.74,-272.014 1417.34,-280.902 1404.47,-287.433"/>
<polygon fill="midnightblue" stroke="midnightblue" points="1527.27,-226.515 1534.37,-218.655 1523.92,-220.369 1527.27,-226.515"/>
</g>
<!-- Node16 -->
<g id="node16" class="node"><title>Node16</title>
<g id="a_node16"><a xlink:href="../../d0/d5a/struct_sprite_object.html#a9e0d2e0c49fb02c2bf900de59aecff85" target="_top" xlink:title=" ">
<polygon fill="white" stroke="black" points="1139.5,-238 1139.5,-268 1275.5,-268 1275.5,-238 1139.5,-238"/>
<text text-anchor="start" x="1147.5" y="-256" font-family="Helvetica,sans-Serif" font-size="10.00">SpriteObject::UpdateObject</text>
<text text-anchor="middle" x="1207.5" y="-245" font-family="Helvetica,sans-Serif" font-size="10.00">_fn0_BLV</text>
</a>
</g>
</g>
<!-- Node1&#45;&gt;Node16 -->
<g id="edge40" class="edge"><title>Node1&#45;&gt;Node16</title>
<path fill="none" stroke="midnightblue" d="M1475.75,-219.574C1467.07,-220.746 1458.34,-221.909 1450,-223 1391.14,-230.695 1324.15,-238.98 1275.67,-244.889"/>
<polygon fill="midnightblue" stroke="midnightblue" points="1476.46,-223.01 1485.9,-218.198 1475.52,-216.074 1476.46,-223.01"/>
</g>
<!-- Node17 -->
<g id="node17" class="node"><title>Node17</title>
<g id="a_node17"><a xlink:href="../../da/d20/_i_render_8h.html#a522912d67446895b0a03d01837b75a99" target="_top" xlink:title=" ">
<polygon fill="white" stroke="black" points="991.5,-246.5 991.5,-265.5 1072.5,-265.5 1072.5,-246.5 991.5,-246.5"/>
<text text-anchor="middle" x="1032" y="-253.5" font-family="Helvetica,sans-Serif" font-size="10.00">UpdateObjects</text>
</a>
</g>
</g>
<!-- Node1&#45;&gt;Node17 -->
<g id="edge42" class="edge"><title>Node1&#45;&gt;Node17</title>
<path fill="none" stroke="midnightblue" d="M1475.65,-207.204C1391.07,-206.429 1250.92,-208.758 1132,-228 1107.31,-231.994 1080.02,-239.994 1060.35,-246.423"/>
<polygon fill="midnightblue" stroke="midnightblue" points="1475.65,-210.704 1485.68,-207.313 1475.72,-203.704 1475.65,-210.704"/>
</g>
<!-- Node18 -->
<g id="node18" class="node"><title>Node18</title>
<g id="a_node18"><a xlink:href="../../d0/d5a/struct_sprite_object.html#a950e5cedc1e8cfc98d77ba9b3f91071f" target="_top" xlink:title=" ">
<polygon fill="white" stroke="black" points="1139.5,-364 1139.5,-394 1275.5,-394 1275.5,-364 1139.5,-364"/>
<text text-anchor="start" x="1147.5" y="-382" font-family="Helvetica,sans-Serif" font-size="10.00">SpriteObject::UpdateObject</text>
<text text-anchor="middle" x="1207.5" y="-371" font-family="Helvetica,sans-Serif" font-size="10.00">_fn0_ODM</text>
</a>
</g>
</g>
<!-- Node1&#45;&gt;Node18 -->
<g id="edge41" class="edge"><title>Node1&#45;&gt;Node18</title>
<path fill="none" stroke="midnightblue" d="M1539.88,-226.915C1522.71,-250.881 1489.02,-293.018 1450,-316 1396.14,-347.719 1326.3,-363.695 1275.59,-371.599"/>
<polygon fill="midnightblue" stroke="midnightblue" points="1542.76,-228.898 1545.63,-218.697 1537.03,-224.886 1542.76,-228.898"/>
</g>
<!-- Node19 -->
<g id="node19" class="node"><title>Node19</title>
<g id="a_node19"><a xlink:href="../../d0/d5a/struct_sprite_object.html#a19ffc839b7bf2f0e65114372d599a86a" target="_top" xlink:title=" ">
<polygon fill="white" stroke="black" points="1328.5,-30 1328.5,-60 1440.5,-60 1440.5,-30 1328.5,-30"/>
<text text-anchor="start" x="1336.5" y="-48" font-family="Helvetica,sans-Serif" font-size="10.00">SpriteObject::Initialize</text>
<text text-anchor="middle" x="1384.5" y="-37" font-family="Helvetica,sans-Serif" font-size="10.00">SpriteObjects</text>
</a>
</g>
</g>
<!-- Node1&#45;&gt;Node19 -->
<g id="edge25" class="edge"><title>Node1&#45;&gt;Node19</title>
<path fill="none" stroke="midnightblue" d="M1536.28,-191.613C1516.61,-170.073 1481.66,-132.489 1450,-102 1434.71,-87.2807 1416.54,-71.3529 1403.39,-60.0862"/>
<polygon fill="midnightblue" stroke="midnightblue" points="1533.94,-194.246 1543.26,-199.289 1539.12,-189.536 1533.94,-194.246"/>
</g>
<!-- Node25 -->
<g id="node25" class="node"><title>Node25</title>
<g id="a_node25"><a xlink:href="../../dd/da4/_viewport_8cpp.html#ad2fc7671d4f9ef2ac5c25246e2c74bca" target="_top" xlink:title=" ">
<polygon fill="white" stroke="black" points="1344.5,-111.5 1344.5,-130.5 1424.5,-130.5 1424.5,-111.5 1344.5,-111.5"/>
<text text-anchor="middle" x="1384.5" y="-118.5" font-family="Helvetica,sans-Serif" font-size="10.00">ItemInteraction</text>
</a>
</g>
</g>
<!-- Node1&#45;&gt;Node25 -->
<g id="edge35" class="edge"><title>Node1&#45;&gt;Node25</title>
<path fill="none" stroke="midnightblue" d="M1532.56,-193.152C1512.81,-177.723 1480.83,-154.535 1450,-140 1442.08,-136.266 1433.27,-133.089 1424.76,-130.463"/>
<polygon fill="midnightblue" stroke="midnightblue" points="1530.47,-195.963 1540.48,-199.438 1534.82,-190.48 1530.47,-195.963"/>
</g>
<!-- Node3 -->
<g id="node3" class="node"><title>Node3</title>
<g id="a_node3"><a xlink:href="../../d4/d06/class_application_1_1_game.html#a3f65e3f0ef1a9114fb3dea275e52442e" target="_top" xlink:title=" ">
<polygon fill="white" stroke="black" points="812,-112 812,-142 915,-142 915,-112 812,-112"/>
<text text-anchor="start" x="820" y="-130" font-family="Helvetica,sans-Serif" font-size="10.00">Application::Game::</text>
<text text-anchor="middle" x="863.5" y="-119" font-family="Helvetica,sans-Serif" font-size="10.00">EventLoop</text>
</a>
</g>
</g>
<!-- Node2&#45;&gt;Node3 -->
<g id="edge2" class="edge"><title>Node2&#45;&gt;Node3</title>
<path fill="none" stroke="midnightblue" d="M1319.29,-166.682C1237.38,-167.948 1091.53,-167.246 968,-151 950.626,-148.715 931.894,-144.821 915.204,-140.827"/>
<polygon fill="midnightblue" stroke="midnightblue" points="1319.5,-170.179 1329.44,-166.51 1319.38,-163.18 1319.5,-170.179"/>
</g>
<!-- Node4 -->
<g id="node4" class="node"><title>Node4</title>
<g id="a_node4"><a xlink:href="../../d4/d06/class_application_1_1_game.html#aaa0ff18388b32b4e6198835a35e000d3" target="_top" xlink:title=" ">
<polygon fill="white" stroke="black" points="316,-93 316,-123 419,-123 419,-93 316,-93"/>
<text text-anchor="start" x="324" y="-111" font-family="Helvetica,sans-Serif" font-size="10.00">Application::Game::</text>
<text text-anchor="middle" x="367.5" y="-100" font-family="Helvetica,sans-Serif" font-size="10.00">GameLoop</text>
</a>
</g>
</g>
<!-- Node3&#45;&gt;Node4 -->
<g id="edge3" class="edge"><title>Node3&#45;&gt;Node4</title>
<path fill="none" stroke="midnightblue" d="M801.876,-124.668C703.528,-120.886 511,-113.481 419.343,-109.955"/>
<polygon fill="midnightblue" stroke="midnightblue" points="801.828,-128.169 811.955,-125.056 802.097,-121.174 801.828,-128.169"/>
</g>
<!-- Node5 -->
<g id="node5" class="node"><title>Node5</title>
<g id="a_node5"><a xlink:href="../../d4/d06/class_application_1_1_game.html#a013ffd59e8fdf1c0a396da1dbe1681ca" target="_top" xlink:title=" ">
<polygon fill="white" stroke="black" points="156,-98.5 156,-117.5 280,-117.5 280,-98.5 156,-98.5"/>
<text text-anchor="middle" x="218" y="-105.5" font-family="Helvetica,sans-Serif" font-size="10.00">Application::Game::Loop</text>
</a>
</g>
</g>
<!-- Node4&#45;&gt;Node5 -->
<g id="edge4" class="edge"><title>Node4&#45;&gt;Node5</title>
<path fill="none" stroke="midnightblue" d="M305.59,-108C297.149,-108 288.478,-108 280.035,-108"/>
<polygon fill="midnightblue" stroke="midnightblue" points="305.739,-111.5 315.739,-108 305.739,-104.5 305.739,-111.5"/>
</g>
<!-- Node6 -->
<g id="node6" class="node"><title>Node6</title>
<g id="a_node6"><a xlink:href="../../d4/d06/class_application_1_1_game.html#a96341ca5b54d90adc3ecb3bf0bcd2312" target="_top" xlink:title=" ">
<polygon fill="white" stroke="black" points="0,-98.5 0,-117.5 120,-117.5 120,-98.5 0,-98.5"/>
<text text-anchor="middle" x="60" y="-105.5" font-family="Helvetica,sans-Serif" font-size="10.00">Application::Game::Run</text>
</a>
</g>
</g>
<!-- Node5&#45;&gt;Node6 -->
<g id="edge5" class="edge"><title>Node5&#45;&gt;Node6</title>
<path fill="none" stroke="midnightblue" d="M145.546,-108C137.081,-108 128.513,-108 120.244,-108"/>
<polygon fill="midnightblue" stroke="midnightblue" points="145.792,-111.5 155.792,-108 145.792,-104.5 145.792,-111.5"/>
</g>
<!-- Node8 -->
<g id="node8" class="node"><title>Node8</title>
<g id="a_node8"><a xlink:href="../../da/d20/_i_render_8h.html#a2827fe354fe45bc8a3b7bddc1f2236dc" target="_top" xlink:title=" ">
<polygon fill="white" stroke="black" points="1171,-325.5 1171,-344.5 1244,-344.5 1244,-325.5 1171,-325.5"/>
<text text-anchor="middle" x="1207.5" y="-332.5" font-family="Helvetica,sans-Serif" font-size="10.00">sub_46DEF2</text>
</a>
</g>
</g>
<!-- Node7&#45;&gt;Node8 -->
<g id="edge7" class="edge"><title>Node7&#45;&gt;Node8</title>
<path fill="none" stroke="midnightblue" d="M1329.38,-308.751C1301.64,-314.776 1268.63,-321.944 1244.12,-327.266"/>
<polygon fill="midnightblue" stroke="midnightblue" points="1330.31,-312.131 1339.34,-306.589 1328.83,-305.291 1330.31,-312.131"/>
</g>
<!-- Node7&#45;&gt;Node16 -->
<g id="edge18" class="edge"><title>Node7&#45;&gt;Node16</title>
<path fill="none" stroke="midnightblue" d="M1335.67,-284.974C1314.91,-279.755 1290.37,-273.586 1268.42,-268.065"/>
<polygon fill="midnightblue" stroke="midnightblue" points="1334.98,-288.409 1345.53,-287.453 1336.68,-281.62 1334.98,-288.409"/>
</g>
<!-- Node7&#45;&gt;Node17 -->
<g id="edge24" class="edge"><title>Node7&#45;&gt;Node17</title>
<path fill="none" stroke="midnightblue" d="M1308.78,-293.601C1258.6,-290.696 1191.11,-285.582 1132,-277 1112.18,-274.122 1090.38,-269.643 1072.29,-265.559"/>
<polygon fill="midnightblue" stroke="midnightblue" points="1308.71,-297.103 1318.89,-294.171 1309.1,-290.114 1308.71,-297.103"/>
</g>
<!-- Node7&#45;&gt;Node18 -->
<g id="edge22" class="edge"><title>Node7&#45;&gt;Node18</title>
<path fill="none" stroke="midnightblue" d="M1359.95,-312.078C1340,-324.426 1310.36,-341.789 1283,-354 1275.03,-357.559 1266.38,-360.901 1257.9,-363.912"/>
<polygon fill="midnightblue" stroke="midnightblue" points="1362.03,-314.903 1368.65,-306.629 1358.32,-308.97 1362.03,-314.903"/>
</g>
<!-- Node9 -->
<g id="node9" class="node"><title>Node9</title>
<g id="a_node9"><a xlink:href="../../da/d20/_i_render_8h.html#a0e63804ace29468efe95593015c3747c" target="_top" xlink:title=" ">
<polygon fill="white" stroke="black" points="968,-319 968,-349 1096,-349 1096,-319 968,-319"/>
<text text-anchor="start" x="976" y="-337" font-family="Helvetica,sans-Serif" font-size="10.00">_46ED8A_collide_against</text>
<text text-anchor="middle" x="1032" y="-326" font-family="Helvetica,sans-Serif" font-size="10.00">_sprite_objects</text>
</a>
</g>
</g>
<!-- Node8&#45;&gt;Node9 -->
<g id="edge8" class="edge"><title>Node8&#45;&gt;Node9</title>
<path fill="none" stroke="midnightblue" d="M1160.72,-334.736C1140.97,-334.622 1117.56,-334.487 1096.2,-334.364"/>
<polygon fill="midnightblue" stroke="midnightblue" points="1160.95,-338.237 1170.97,-334.795 1160.99,-331.238 1160.95,-338.237"/>
</g>
<!-- Node10 -->
<g id="node10" class="node"><title>Node10</title>
<g id="a_node10"><a xlink:href="../../dc/dfb/_outdoor_8h.html#a62e44d7fd493356cb340fe1dc8fe993b" target="_top" xlink:title=" ">
<polygon fill="white" stroke="black" points="795,-361.5 795,-380.5 932,-380.5 932,-361.5 795,-361.5"/>
<text text-anchor="middle" x="863.5" y="-368.5" font-family="Helvetica,sans-Serif" font-size="10.00">ODM_ProcessPartyActions</text>
</a>
</g>
</g>
<!-- Node9&#45;&gt;Node10 -->
<g id="edge9" class="edge"><title>Node9&#45;&gt;Node10</title>
<path fill="none" stroke="midnightblue" d="M957.563,-350.319C940.403,-354.133 922.679,-358.071 907.362,-361.475"/>
<polygon fill="midnightblue" stroke="midnightblue" points="958.576,-353.68 967.579,-348.094 957.057,-346.846 958.576,-353.68"/>
</g>
<!-- Node13 -->
<g id="node13" class="node"><title>Node13</title>
<g id="a_node13"><a xlink:href="../../da/dc7/_indoor_8h.html#a91180cf18d91c79b7bc41c630c261cbd" target="_top" xlink:title=" ">
<polygon fill="white" stroke="black" points="813.5,-285.5 813.5,-304.5 913.5,-304.5 913.5,-285.5 813.5,-285.5"/>
<text text-anchor="middle" x="863.5" y="-292.5" font-family="Helvetica,sans-Serif" font-size="10.00">UpdateActors_BLV</text>
</a>
</g>
</g>
<!-- Node9&#45;&gt;Node13 -->
<g id="edge13" class="edge"><title>Node9&#45;&gt;Node13</title>
<path fill="none" stroke="midnightblue" d="M957.648,-316.819C939.618,-312.595 920.96,-308.225 905.121,-304.515"/>
<polygon fill="midnightblue" stroke="midnightblue" points="957.044,-320.272 967.579,-319.145 958.64,-313.456 957.044,-320.272"/>
</g>
<!-- Node15 -->
<g id="node15" class="node"><title>Node15</title>
<g id="a_node15"><a xlink:href="../../dc/dfb/_outdoor_8h.html#ab3cc30c01fb2e9afa8ec291e6043bf99" target="_top" xlink:title=" ">
<polygon fill="white" stroke="black" points="811.5,-323.5 811.5,-342.5 915.5,-342.5 915.5,-323.5 811.5,-323.5"/>
<text text-anchor="middle" x="863.5" y="-330.5" font-family="Helvetica,sans-Serif" font-size="10.00">UpdateActors_ODM</text>
</a>
</g>
</g>
<!-- Node9&#45;&gt;Node15 -->
<g id="edge16" class="edge"><title>Node9&#45;&gt;Node15</title>
<path fill="none" stroke="midnightblue" d="M957.396,-333.558C943.288,-333.473 928.805,-333.386 915.599,-333.307"/>
<polygon fill="midnightblue" stroke="midnightblue" points="957.558,-337.059 967.579,-333.619 957.6,-330.059 957.558,-337.059"/>
</g>
<!-- Node11 -->
<g id="node11" class="node"><title>Node11</title>
<g id="a_node11"><a xlink:href="../../dc/dfb/_outdoor_8h.html#aeedbd3470634fbb22ebda28d2f8006e4" target="_top" xlink:title=" ">
<polygon fill="white" stroke="black" points="601,-304.5 601,-323.5 759,-323.5 759,-304.5 601,-304.5"/>
<text text-anchor="middle" x="680" y="-311.5" font-family="Helvetica,sans-Serif" font-size="10.00">ODM_UpdateUserInputAndOther</text>
</a>
</g>
</g>
<!-- Node10&#45;&gt;Node11 -->
<g id="edge10" class="edge"><title>Node10&#45;&gt;Node11</title>
<path fill="none" stroke="midnightblue" d="M817.6,-358.682C810.038,-356.516 802.282,-354.237 795,-352 765.286,-342.871 731.542,-331.496 708.526,-323.582"/>
<polygon fill="midnightblue" stroke="midnightblue" points="816.798,-362.093 827.374,-361.453 818.707,-355.358 816.798,-362.093"/>
</g>
<!-- Node12 -->
<g id="node12" class="node"><title>Node12</title>
<g id="a_node12"><a xlink:href="../../de/dcf/_engine_8h.html#a73fe5e8d7dc6ec78e5cc180d1915341b" target="_top" xlink:title=" ">
<polygon fill="white" stroke="black" points="455,-242 455,-272 565,-272 565,-242 455,-242"/>
<text text-anchor="start" x="463" y="-260" font-family="Helvetica,sans-Serif" font-size="10.00">UpdateUserInput_and</text>
<text text-anchor="middle" x="510" y="-249" font-family="Helvetica,sans-Serif" font-size="10.00">_MapSpecificStuff</text>
</a>
</g>
</g>
<!-- Node11&#45;&gt;Node12 -->
<g id="edge11" class="edge"><title>Node11&#45;&gt;Node12</title>
<path fill="none" stroke="midnightblue" d="M641.213,-301.179C615.756,-292.542 582.077,-281.115 555.349,-272.047"/>
<polygon fill="midnightblue" stroke="midnightblue" points="640.286,-304.561 650.881,-304.459 642.535,-297.932 640.286,-304.561"/>
</g>
<!-- Node12&#45;&gt;Node4 -->
<g id="edge12" class="edge"><title>Node12&#45;&gt;Node4</title>
<path fill="none" stroke="midnightblue" d="M487.533,-234.235C458.506,-203.451 407.529,-149.391 382.783,-123.147"/>
<polygon fill="midnightblue" stroke="midnightblue" points="485.348,-237.019 494.755,-241.893 490.441,-232.216 485.348,-237.019"/>
</g>
<!-- Node14 -->
<g id="node14" class="node"><title>Node14</title>
<g id="a_node14"><a xlink:href="../../da/dc7/_indoor_8h.html#a7d511837933d59eeeccfc25275a366d8" target="_top" xlink:title=" ">
<polygon fill="white" stroke="black" points="603,-247.5 603,-266.5 757,-266.5 757,-247.5 603,-247.5"/>
<text text-anchor="middle" x="680" y="-254.5" font-family="Helvetica,sans-Serif" font-size="10.00">BLV_UpdateUserInputAndOther</text>
</a>
</g>
</g>
<!-- Node13&#45;&gt;Node14 -->
<g id="edge14" class="edge"><title>Node13&#45;&gt;Node14</title>
<path fill="none" stroke="midnightblue" d="M806.708,-283.319C780.969,-277.93 750.801,-271.614 726.471,-266.52"/>
<polygon fill="midnightblue" stroke="midnightblue" points="806.195,-286.787 816.7,-285.411 807.629,-279.936 806.195,-286.787"/>
</g>
<!-- Node14&#45;&gt;Node12 -->
<g id="edge15" class="edge"><title>Node14&#45;&gt;Node12</title>
<path fill="none" stroke="midnightblue" d="M592.735,-257C583.393,-257 574.088,-257 565.284,-257"/>
<polygon fill="midnightblue" stroke="midnightblue" points="592.865,-260.5 602.865,-257 592.865,-253.5 592.865,-260.5"/>
</g>
<!-- Node15&#45;&gt;Node11 -->
<g id="edge17" class="edge"><title>Node15&#45;&gt;Node11</title>
<path fill="none" stroke="midnightblue" d="M801.317,-326.595C787.772,-325.177 773.241,-323.656 759.126,-322.178"/>
<polygon fill="midnightblue" stroke="midnightblue" points="801.149,-330.097 811.459,-327.657 801.878,-323.135 801.149,-330.097"/>
</g>
<!-- Node16&#45;&gt;Node17 -->
<g id="edge19" class="edge"><title>Node16&#45;&gt;Node17</title>
<path fill="none" stroke="midnightblue" d="M1129.25,-254.336C1109.66,-254.675 1089.41,-255.025 1072.56,-255.316"/>
<polygon fill="midnightblue" stroke="midnightblue" points="1129.48,-257.832 1139.42,-254.16 1129.36,-250.833 1129.48,-257.832"/>
</g>
<!-- Node17&#45;&gt;Node11 -->
<g id="edge21" class="edge"><title>Node17&#45;&gt;Node11</title>
<path fill="none" stroke="midnightblue" d="M981.194,-256.803C933.091,-258.378 858.41,-262.938 795,-276 762.715,-282.65 726.857,-295.567 704.134,-304.481"/>
<polygon fill="midnightblue" stroke="midnightblue" points="981.447,-260.297 991.339,-256.502 981.239,-253.3 981.447,-260.297"/>
</g>
<!-- Node17&#45;&gt;Node14 -->
<g id="edge20" class="edge"><title>Node17&#45;&gt;Node14</title>
<path fill="none" stroke="midnightblue" d="M981.115,-248.159C965.437,-246.042 948.035,-244.048 932,-243 871.241,-239.028 855.775,-239.282 795,-243 779.476,-243.95 762.828,-245.62 747.183,-247.484"/>
<polygon fill="midnightblue" stroke="midnightblue" points="980.748,-251.641 991.136,-249.559 981.717,-244.709 980.748,-251.641"/>
</g>
<!-- Node18&#45;&gt;Node17 -->
<g id="edge23" class="edge"><title>Node18&#45;&gt;Node17</title>
<path fill="none" stroke="midnightblue" d="M1140.95,-359.456C1137.84,-357.775 1134.84,-355.959 1132,-354 1111.21,-339.641 1113.66,-328.07 1096,-310 1079.69,-293.31 1058.79,-276.119 1045.65,-265.745"/>
<polygon fill="midnightblue" stroke="midnightblue" points="1139.41,-362.602 1149.93,-363.849 1142.49,-356.313 1139.41,-362.602"/>
</g>
<!-- Node20 -->
<g id="node20" class="node"><title>Node20</title>
<g id="a_node20"><a xlink:href="../../dc/dfb/_outdoor_8h.html#ad0b6920041533cc49817c0c848c6b3b5" target="_top" xlink:title=" ">
<polygon fill="white" stroke="black" points="1148.5,-35.5 1148.5,-54.5 1266.5,-54.5 1266.5,-35.5 1148.5,-35.5"/>
<text text-anchor="middle" x="1207.5" y="-42.5" font-family="Helvetica,sans-Serif" font-size="10.00">ODM_LoadAndInitialize</text>
</a>
</g>
</g>
<!-- Node19&#45;&gt;Node20 -->
<g id="edge26" class="edge"><title>Node19&#45;&gt;Node20</title>
<path fill="none" stroke="midnightblue" d="M1317.81,-45C1300.96,-45 1282.96,-45 1266.53,-45"/>
<polygon fill="midnightblue" stroke="midnightblue" points="1318.13,-48.5001 1328.13,-45 1318.13,-41.5001 1318.13,-48.5001"/>
</g>
<!-- Node24 -->
<g id="node24" class="node"><title>Node24</title>
<g id="a_node24"><a xlink:href="../../da/dc7/_indoor_8h.html#abecbfe3d22734c1621783ba67cb67cc1" target="_top" xlink:title=" ">
<polygon fill="white" stroke="black" points="981.5,-0.5 981.5,-19.5 1082.5,-19.5 1082.5,-0.5 981.5,-0.5"/>
<text text-anchor="middle" x="1032" y="-7.5" font-family="Helvetica,sans-Serif" font-size="10.00">PrepareToLoadBLV</text>
</a>
</g>
</g>
<!-- Node19&#45;&gt;Node24 -->
<g id="edge33" class="edge"><title>Node19&#45;&gt;Node24</title>
<path fill="none" stroke="midnightblue" d="M1318.25,-31.46C1306.56,-29.3768 1294.45,-27.4427 1283,-26 1213.74,-17.2708 1133.06,-13.1981 1082.5,-11.3742"/>
<polygon fill="midnightblue" stroke="midnightblue" points="1317.93,-34.9598 1328.4,-33.3205 1319.2,-28.0745 1317.93,-34.9598"/>
</g>
<!-- Node21 -->
<g id="node21" class="node"><title>Node21</title>
<g id="a_node21"><a xlink:href="../../de/dcf/_engine_8h.html#a5cf7667eb3b81f9acbc63bdf01528452" target="_top" xlink:title=" ">
<polygon fill="white" stroke="black" points="980,-41.5 980,-60.5 1084,-60.5 1084,-41.5 980,-41.5"/>
<text text-anchor="middle" x="1032" y="-48.5" font-family="Helvetica,sans-Serif" font-size="10.00">PrepareToLoadODM</text>
</a>
</g>
</g>
<!-- Node20&#45;&gt;Node21 -->
<g id="edge27" class="edge"><title>Node20&#45;&gt;Node21</title>
<path fill="none" stroke="midnightblue" d="M1138.1,-47.3655C1120.11,-47.9874 1101.03,-48.6475 1084.12,-49.2321"/>
<polygon fill="midnightblue" stroke="midnightblue" points="1138.37,-50.8582 1148.24,-47.0146 1138.13,-43.8624 1138.37,-50.8582"/>
</g>
<!-- Node21&#45;&gt;Node3 -->
<g id="edge32" class="edge"><title>Node21&#45;&gt;Node3</title>
<path fill="none" stroke="midnightblue" d="M1000.62,-64.8652C971.441,-78.1862 927.468,-98.2579 897.451,-111.959"/>
<polygon fill="midnightblue" stroke="midnightblue" points="1002.27,-67.9619 1009.91,-60.6255 999.362,-61.594 1002.27,-67.9619"/>
</g>
<!-- Node22 -->
<g id="node22" class="node"><title>Node22</title>
<g id="a_node22"><a xlink:href="../../de/dcf/_engine_8h.html#a7ac85aa3f91f16b9f3007f4d7f1b419a" target="_top" xlink:title=" ">
<polygon fill="white" stroke="black" points="819.5,-41.5 819.5,-60.5 907.5,-60.5 907.5,-41.5 819.5,-41.5"/>
<text text-anchor="middle" x="863.5" y="-48.5" font-family="Helvetica,sans-Serif" font-size="10.00">DoPrepareWorld</text>
</a>
</g>
</g>
<!-- Node21&#45;&gt;Node22 -->
<g id="edge28" class="edge"><title>Node21&#45;&gt;Node22</title>
<path fill="none" stroke="midnightblue" d="M969.444,-51C948.862,-51 926.379,-51 907.522,-51"/>
<polygon fill="midnightblue" stroke="midnightblue" points="969.686,-54.5001 979.686,-51 969.686,-47.5001 969.686,-54.5001"/>
</g>
<!-- Node22&#45;&gt;Node4 -->
<g id="edge29" class="edge"><title>Node22&#45;&gt;Node4</title>
<path fill="none" stroke="midnightblue" d="M809.108,-47.3473C730.427,-43.3358 579.229,-40.8788 455,-70 434.239,-74.8666 412.258,-84.5898 395.649,-92.9821"/>
<polygon fill="midnightblue" stroke="midnightblue" points="809.085,-50.851 819.259,-47.8943 809.461,-43.8611 809.085,-50.851"/>
</g>
<!-- Node23 -->
<g id="node23" class="node"><title>Node23</title>
<g id="a_node23"><a xlink:href="../../de/dcf/_engine_8h.html#a287d13406d42b0831d9eb7a64d368202" target="_top" xlink:title=" ">
<polygon fill="white" stroke="black" points="472,-79.5 472,-98.5 548,-98.5 548,-79.5 472,-79.5"/>
<text text-anchor="middle" x="510" y="-86.5" font-family="Helvetica,sans-Serif" font-size="10.00">PrepareWorld</text>
</a>
</g>
</g>
<!-- Node22&#45;&gt;Node23 -->
<g id="edge30" class="edge"><title>Node22&#45;&gt;Node23</title>
<path fill="none" stroke="midnightblue" d="M809.174,-58.6073C793.067,-60.7987 775.327,-63.1065 759,-65 684.234,-73.6711 596.534,-81.6423 548.021,-85.8592"/>
<polygon fill="midnightblue" stroke="midnightblue" points="810.061,-62.0185 819.491,-57.1896 809.108,-55.0836 810.061,-62.0185"/>
</g>
<!-- Node23&#45;&gt;Node4 -->
<g id="edge31" class="edge"><title>Node23&#45;&gt;Node4</title>
<path fill="none" stroke="midnightblue" d="M461.578,-95.4129C447.94,-97.2573 433.013,-99.2759 419.185,-101.146"/>
<polygon fill="midnightblue" stroke="midnightblue" points="462.277,-98.8504 471.717,-94.0418 461.339,-91.9135 462.277,-98.8504"/>
</g>
<!-- Node24&#45;&gt;Node22 -->
<g id="edge34" class="edge"><title>Node24&#45;&gt;Node22</title>
<path fill="none" stroke="midnightblue" d="M982.627,-21.9116C957.365,-28.1323 926.872,-35.6411 903.196,-41.4714"/>
<polygon fill="midnightblue" stroke="midnightblue" points="983.51,-25.2989 992.383,-19.5093 981.836,-18.5019 983.51,-25.2989"/>
</g>
<!-- Node26 -->
<g id="node26" class="node"><title>Node26</title>
<g id="a_node26"><a xlink:href="../../da/dc7/_indoor_8h.html#a610d890adaeca99c4a4e30e2d8c78d50" target="_top" xlink:title=" ">
<polygon fill="white" stroke="black" points="1142,-112 1142,-142 1273,-142 1273,-112 1142,-112"/>
<text text-anchor="start" x="1150" y="-130" font-family="Helvetica,sans-Serif" font-size="10.00">DoInteractionWithTopmost</text>
<text text-anchor="middle" x="1207.5" y="-119" font-family="Helvetica,sans-Serif" font-size="10.00">ZObject</text>
</a>
</g>
</g>
<!-- Node25&#45;&gt;Node26 -->
<g id="edge36" class="edge"><title>Node25&#45;&gt;Node26</title>
<path fill="none" stroke="midnightblue" d="M1334.04,-122.696C1315.1,-123.345 1293.2,-124.096 1273.06,-124.787"/>
<polygon fill="midnightblue" stroke="midnightblue" points="1334.35,-126.187 1344.23,-122.347 1334.11,-119.191 1334.35,-126.187"/>
</g>
<!-- Node28 -->
<g id="node28" class="node"><title>Node28</title>
<g id="a_node28"><a xlink:href="../../d6/d83/struct_engine.html#aa61c335333d4fc146a9d721c2a3de07f" target="_top" xlink:title=" ">
<polygon fill="white" stroke="black" points="1132,-73.5 1132,-92.5 1283,-92.5 1283,-73.5 1132,-73.5"/>
<text text-anchor="middle" x="1207.5" y="-80.5" font-family="Helvetica,sans-Serif" font-size="10.00">Engine::OnGameViewportClick</text>
</a>
</g>
</g>
<!-- Node25&#45;&gt;Node28 -->
<g id="edge39" class="edge"><title>Node25&#45;&gt;Node28</title>
<path fill="none" stroke="midnightblue" d="M1334.28,-110.312C1308.49,-104.713 1277.18,-97.9141 1252.25,-92.5007"/>
<polygon fill="midnightblue" stroke="midnightblue" points="1333.71,-113.77 1344.23,-112.472 1335.2,-106.93 1333.71,-113.77"/>
</g>
<!-- Node27 -->
<g id="node27" class="node"><title>Node27</title>
<g id="a_node27"><a xlink:href="../../d4/d06/class_application_1_1_game.html#abdee85389dd132c251e41e1b953b5ced" target="_top" xlink:title=" ">
<polygon fill="white" stroke="black" points="980.5,-112 980.5,-142 1083.5,-142 1083.5,-112 980.5,-112"/>
<text text-anchor="start" x="988.5" y="-130" font-family="Helvetica,sans-Serif" font-size="10.00">Application::Game::</text>
<text text-anchor="middle" x="1032" y="-119" font-family="Helvetica,sans-Serif" font-size="10.00">OnPressSpace</text>
</a>
</g>
</g>
<!-- Node26&#45;&gt;Node27 -->
<g id="edge37" class="edge"><title>Node26&#45;&gt;Node27</title>
<path fill="none" stroke="midnightblue" d="M1131.84,-127C1115.54,-127 1098.66,-127 1083.56,-127"/>
<polygon fill="midnightblue" stroke="midnightblue" points="1131.9,-130.5 1141.9,-127 1131.89,-123.5 1131.9,-130.5"/>
</g>
<!-- Node27&#45;&gt;Node3 -->
<g id="edge38" class="edge"><title>Node27&#45;&gt;Node3</title>
<path fill="none" stroke="midnightblue" d="M969.998,-127C951.938,-127 932.371,-127 915.049,-127"/>
<polygon fill="midnightblue" stroke="midnightblue" points="970.14,-130.5 980.14,-127 970.14,-123.5 970.14,-130.5"/>
</g>
</g>
</svg>
