<?xml version="1.0" encoding="UTF-8" standalone="no"?>
<!DOCTYPE svg PUBLIC "-//W3C//DTD SVG 1.1//EN"
 "http://www.w3.org/Graphics/SVG/1.1/DTD/svg11.dtd">
<!-- Generated by graphviz version 2.38.0 (20140413.2041)
 -->
<!-- Title: am_DrawText Pages: 1 -->
<!--zoomable 85 -->
<svg id="main" version="1.1" xmlns="http://www.w3.org/2000/svg" xmlns:xlink="http://www.w3.org/1999/xlink" xml:space="preserve" onload="init(evt)">
<style type="text/css"><![CDATA[
.edge:hover path { stroke: red; }
.edge:hover polygon { stroke: red; fill: red; }
]]></style>
<script type="text/javascript"><![CDATA[
var edges = document.getElementsByTagName('g');
if (edges && edges.length) {
  for (var i=0;i<edges.length;i++) {
    if (edges[i].id.substr(0,4)=='edge') {
      edges[i].setAttribute('class','edge');
    }
  }
}
]]></script>
        <defs>
                <circle id="rim" cx="0" cy="0" r="7"/>
                <circle id="rim2" cx="0" cy="0" r="3.5"/>
                <g id="zoomPlus">
                        <use xlink:href="#rim" fill="#404040">
                                <set attributeName="fill" to="#808080" begin="zoomplus.mouseover" end="zoomplus.mouseout"/>
                        </use>
                        <path d="M-4,0h8M0,-4v8" fill="none" stroke="white" stroke-width="1.5" pointer-events="none"/>
                </g>
                <g id="zoomMin">
                        <use xlink:href="#rim" fill="#404040">
                                <set attributeName="fill" to="#808080" begin="zoomminus.mouseover" end="zoomminus.mouseout"/>
                        </use>
                        <path d="M-4,0h8" fill="none" stroke="white" stroke-width="1.5" pointer-events="none"/>
                </g>
                <g id="dirArrow">
                        <path fill="none" stroke="white" stroke-width="1.5" d="M0,-3.0v7 M-2.5,-0.5L0,-3.0L2.5,-0.5"/>
                </g>
               <g id="resetDef">
                       <use xlink:href="#rim2" fill="#404040">
                               <set attributeName="fill" to="#808080" begin="reset.mouseover" end="reset.mouseout"/>
                       </use>
               </g>
        </defs>

<script type="text/javascript">
var viewWidth = 686;
var viewHeight = 85;
var sectionId = 'dynsection-48';
</script>
<script xlink:href="../../svgpan.js"/>
<svg id="graph" class="graph">
<g id="viewport">
<title>am_DrawText</title>
<polygon fill="white" stroke="none" points="-4,4 -4,-81 682,-81 682,4 -4,4"/>
<!-- Node1 -->
<g id="node1" class="node"><title>Node1</title>
<g id="a_node1"><a xlink:title=" ">
<polygon fill="#bfbfbf" stroke="black" points="0,-19.5 0,-38.5 76,-38.5 76,-19.5 0,-19.5"/>
<text text-anchor="middle" x="38" y="-26.5" font-family="Helvetica,sans-Serif" font-size="10.00">am_DrawText</text>
</a>
</g>
</g>
<!-- Node2 -->
<g id="node2" class="node"><title>Node2</title>
<g id="a_node2"><a xlink:href="../../d4/d38/class_g_u_i_window.html#a009aad05d919c42979eebb93d8b4354c" target="_top" xlink:title=" ">
<polygon fill="white" stroke="black" points="112,-38.5 112,-57.5 226,-57.5 226,-38.5 112,-38.5"/>
<text text-anchor="middle" x="169" y="-45.5" font-family="Helvetica,sans-Serif" font-size="10.00">GUIWindow::DrawText</text>
</a>
</g>
</g>
<!-- Node1&#45;&gt;Node2 -->
<g id="edge1" class="edge"><title>Node1&#45;&gt;Node2</title>
<path fill="none" stroke="midnightblue" d="M76.3121,-34.4956C84.2277,-35.6614 92.8118,-36.9258 101.445,-38.1973"/>
<polygon fill="midnightblue" stroke="midnightblue" points="101.162,-41.6933 111.565,-39.6879 102.182,-34.768 101.162,-41.6933"/>
</g>
<!-- Node7 -->
<g id="node7" class="node"><title>Node7</title>
<g id="a_node7"><a xlink:href="../../d3/d39/class_g_u_i_font.html#a439cccf73db5fd93ffc18cbba51d07e0" target="_top" xlink:title=" ">
<polygon fill="white" stroke="black" points="118,-0.5 118,-19.5 220,-19.5 220,-0.5 118,-0.5"/>
<text text-anchor="middle" x="169" y="-7.5" font-family="Helvetica,sans-Serif" font-size="10.00">GUIFont::GetHeight</text>
</a>
</g>
</g>
<!-- Node1&#45;&gt;Node7 -->
<g id="edge7" class="edge"><title>Node1&#45;&gt;Node7</title>
<path fill="none" stroke="midnightblue" d="M76.3121,-23.5044C86.124,-22.0593 96.9632,-20.4628 107.65,-18.8888"/>
<polygon fill="midnightblue" stroke="midnightblue" points="108.427,-22.3121 117.811,-17.3922 107.407,-15.3868 108.427,-22.3121"/>
</g>
<!-- Node3 -->
<g id="node3" class="node"><title>Node3</title>
<g id="a_node3"><a xlink:href="../../d3/d39/class_g_u_i_font.html#abea1624c5890b044ef1368a7ca051b3e" target="_top" xlink:title=" ">
<polygon fill="white" stroke="black" points="262,-38.5 262,-57.5 361,-57.5 361,-38.5 262,-38.5"/>
<text text-anchor="middle" x="311.5" y="-45.5" font-family="Helvetica,sans-Serif" font-size="10.00">GUIFont::DrawText</text>
</a>
</g>
</g>
<!-- Node2&#45;&gt;Node3 -->
<g id="edge2" class="edge"><title>Node2&#45;&gt;Node3</title>
<path fill="none" stroke="midnightblue" d="M226.337,-48C234.696,-48 243.328,-48 251.735,-48"/>
<polygon fill="midnightblue" stroke="midnightblue" points="251.844,-51.5001 261.843,-48 251.843,-44.5001 251.844,-51.5001"/>
</g>
<!-- Node4 -->
<g id="node4" class="node"><title>Node4</title>
<g id="a_node4"><a xlink:href="../../d3/d39/class_g_u_i_font.html#acff82a6ae67e879bd76ddc52aa25fe02" target="_top" xlink:title=" ">
<polygon fill="white" stroke="black" points="397,-57.5 397,-76.5 534,-76.5 534,-57.5 397,-57.5"/>
<text text-anchor="middle" x="465.5" y="-64.5" font-family="Helvetica,sans-Serif" font-size="10.00">GUIFont::FitTextInAWindow</text>
</a>
</g>
</g>
<!-- Node3&#45;&gt;Node4 -->
<g id="edge3" class="edge"><title>Node3&#45;&gt;Node4</title>
<path fill="none" stroke="midnightblue" d="M361.012,-54.064C369.281,-55.0976 378.052,-56.194 386.853,-57.2941"/>
<polygon fill="midnightblue" stroke="midnightblue" points="386.42,-60.7671 396.777,-58.5346 387.288,-53.8212 386.42,-60.7671"/>
</g>
<!-- Node6 -->
<g id="node6" class="node"><title>Node6</title>
<g id="a_node6"><a xlink:href="../../d3/d39/class_g_u_i_font.html#abf5dc44bc1b328f80d5c7033279a4f8d" target="_top" xlink:title=" ">
<polygon fill="white" stroke="black" points="406.5,-19.5 406.5,-38.5 524.5,-38.5 524.5,-19.5 406.5,-19.5"/>
<text text-anchor="middle" x="465.5" y="-26.5" font-family="Helvetica,sans-Serif" font-size="10.00">GUIFont::GetLineWidth</text>
</a>
</g>
</g>
<!-- Node3&#45;&gt;Node6 -->
<g id="edge5" class="edge"><title>Node3&#45;&gt;Node6</title>
<path fill="none" stroke="midnightblue" d="M361.012,-41.936C372.279,-40.5276 384.478,-39.0027 396.414,-37.5107"/>
<polygon fill="midnightblue" stroke="midnightblue" points="396.864,-40.9818 406.352,-36.2684 395.996,-34.0359 396.864,-40.9818"/>
</g>
<!-- Node5 -->
<g id="node5" class="node"><title>Node5</title>
<g id="a_node5"><a xlink:href="../../d3/d39/class_g_u_i_font.html#adfbdd225f4c0eedcbf7e82eecd29e404" target="_top" xlink:title=" ">
<polygon fill="white" stroke="black" points="570,-38.5 570,-57.5 678,-57.5 678,-38.5 570,-38.5"/>
<text text-anchor="middle" x="624" y="-45.5" font-family="Helvetica,sans-Serif" font-size="10.00">GUIFont::IsCharValid</text>
</a>
</g>
</g>
<!-- Node4&#45;&gt;Node5 -->
<g id="edge4" class="edge"><title>Node4&#45;&gt;Node5</title>
<path fill="none" stroke="midnightblue" d="M534.233,-58.7768C542.69,-57.7501 551.314,-56.7031 559.7,-55.685"/>
<polygon fill="midnightblue" stroke="midnightblue" points="560.279,-59.1405 569.784,-54.4607 559.435,-52.1915 560.279,-59.1405"/>
</g>
<!-- Node6&#45;&gt;Node5 -->
<g id="edge6" class="edge"><title>Node6&#45;&gt;Node5</title>
<path fill="none" stroke="midnightblue" d="M524.775,-36.0749C536.201,-37.4622 548.237,-38.9233 559.815,-40.329"/>
<polygon fill="midnightblue" stroke="midnightblue" points="559.497,-43.8159 569.846,-41.5468 560.34,-36.867 559.497,-43.8159"/>
</g>
</g>
</svg>
        <g id="navigator" transform="translate(0 0)" fill="#404254">
                <rect fill="#f2f5e9" fill-opacity="0.5" stroke="#606060" stroke-width=".5" x="0" y="0" width="60" height="60"/>
                <use id="zoomplus" xlink:href="#zoomPlus" x="17" y="9" onmousedown="handleZoom(evt,'in')"/>
                <use id="zoomminus" xlink:href="#zoomMin" x="42" y="9" onmousedown="handleZoom(evt,'out')"/>
                <use id="reset" xlink:href="#resetDef" x="30" y="36" onmousedown="handleReset()"/>
                <g id="arrowUp" xlink:href="#dirArrow" transform="translate(30 24)" onmousedown="handlePan(0,-1)">
                  <use xlink:href="#rim" fill="#404040">
                        <set attributeName="fill" to="#808080" begin="arrowUp.mouseover" end="arrowUp.mouseout"/>
                  </use>
                  <path fill="none" stroke="white" stroke-width="1.5" d="M0,-3.0v7 M-2.5,-0.5L0,-3.0L2.5,-0.5"/>
                </g>
                <g id="arrowRight" xlink:href="#dirArrow" transform="rotate(90) translate(36 -43)" onmousedown="handlePan(1,0)">
                  <use xlink:href="#rim" fill="#404040">
                        <set attributeName="fill" to="#808080" begin="arrowRight.mouseover" end="arrowRight.mouseout"/>
                  </use>
                  <path fill="none" stroke="white" stroke-width="1.5" d="M0,-3.0v7 M-2.5,-0.5L0,-3.0L2.5,-0.5"/>
                </g>
                <g id="arrowDown" xlink:href="#dirArrow" transform="rotate(180) translate(-30 -48)" onmousedown="handlePan(0,1)">
                  <use xlink:href="#rim" fill="#404040">
                        <set attributeName="fill" to="#808080" begin="arrowDown.mouseover" end="arrowDown.mouseout"/>
                  </use>
                  <path fill="none" stroke="white" stroke-width="1.5" d="M0,-3.0v7 M-2.5,-0.5L0,-3.0L2.5,-0.5"/>
                </g>
                <g id="arrowLeft" xlink:href="#dirArrow" transform="rotate(270) translate(-36 17)" onmousedown="handlePan(-1,0)">
                  <use xlink:href="#rim" fill="#404040">
                        <set attributeName="fill" to="#808080" begin="arrowLeft.mouseover" end="arrowLeft.mouseout"/>
                  </use>
                  <path fill="none" stroke="white" stroke-width="1.5" d="M0,-3.0v7 M-2.5,-0.5L0,-3.0L2.5,-0.5"/>
                </g>
        </g>
        <svg viewBox="0 0 15 15" width="100%" height="30px" preserveAspectRatio="xMaxYMin meet">
         <g id="arrow_out" transform="scale(0.3 0.3)">
          <a xlink:href="_arcomage_2_arcomage_8cpp_af761a64f69c9a5ecb2170262031e49d5_cgraph_org.svg" target="_base">
           <rect id="button" ry="5" rx="5" y="6" x="6" height="38" width="38"
                fill="#f2f5e9" fill-opacity="0.5" stroke="#606060" stroke-width="1.0"/>
           <path id="arrow"
             d="M 11.500037,31.436501 C 11.940474,20.09759 22.043105,11.32322 32.158766,21.979434 L 37.068811,17.246167 C 37.068811,17.246167 37.088388,32 37.088388,32 L 22.160133,31.978069 C 22.160133,31.978069 26.997745,27.140456 26.997745,27.140456 C 18.528582,18.264221 13.291696,25.230495 11.500037,31.436501 z"
             style="fill:#404040;"/>
          </a>
         </g>
        </svg>
</svg>
