<?xml version="1.0" encoding="UTF-8" standalone="no"?>
<!DOCTYPE svg PUBLIC "-//W3C//DTD SVG 1.1//EN"
 "http://www.w3.org/Graphics/SVG/1.1/DTD/svg11.dtd">
<!-- Generated by graphviz version 2.38.0 (20140413.2041)
 -->
<!-- Title: am_DrawText Pages: 1 -->
<svg width="686pt" height="85pt"
 viewBox="0.00 0.00 686.00 85.00" xmlns="http://www.w3.org/2000/svg" xmlns:xlink="http://www.w3.org/1999/xlink">
<g id="graph0" class="graph" transform="scale(1 1) rotate(0) translate(4 81)">
<title>am_DrawText</title>
<polygon fill="white" stroke="none" points="-4,4 -4,-81 682,-81 682,4 -4,4"/>
<!-- Node1 -->
<g id="node1" class="node"><title>Node1</title>
<g id="a_node1"><a xlink:title=" ">
<polygon fill="#bfbfbf" stroke="black" points="0,-19.5 0,-38.5 76,-38.5 76,-19.5 0,-19.5"/>
<text text-anchor="middle" x="38" y="-26.5" font-family="Helvetica,sans-Serif" font-size="10.00">am_DrawText</text>
</a>
</g>
</g>
<!-- Node2 -->
<g id="node2" class="node"><title>Node2</title>
<g id="a_node2"><a xlink:href="../../d4/d38/class_g_u_i_window.html#a009aad05d919c42979eebb93d8b4354c" target="_top" xlink:title=" ">
<polygon fill="white" stroke="black" points="112,-38.5 112,-57.5 226,-57.5 226,-38.5 112,-38.5"/>
<text text-anchor="middle" x="169" y="-45.5" font-family="Helvetica,sans-Serif" font-size="10.00">GUIWindow::DrawText</text>
</a>
</g>
</g>
<!-- Node1&#45;&gt;Node2 -->
<g id="edge1" class="edge"><title>Node1&#45;&gt;Node2</title>
<path fill="none" stroke="midnightblue" d="M76.3121,-34.4956C84.2277,-35.6614 92.8118,-36.9258 101.445,-38.1973"/>
<polygon fill="midnightblue" stroke="midnightblue" points="101.162,-41.6933 111.565,-39.6879 102.182,-34.768 101.162,-41.6933"/>
</g>
<!-- Node7 -->
<g id="node7" class="node"><title>Node7</title>
<g id="a_node7"><a xlink:href="../../d3/d39/class_g_u_i_font.html#a439cccf73db5fd93ffc18cbba51d07e0" target="_top" xlink:title=" ">
<polygon fill="white" stroke="black" points="118,-0.5 118,-19.5 220,-19.5 220,-0.5 118,-0.5"/>
<text text-anchor="middle" x="169" y="-7.5" font-family="Helvetica,sans-Serif" font-size="10.00">GUIFont::GetHeight</text>
</a>
</g>
</g>
<!-- Node1&#45;&gt;Node7 -->
<g id="edge7" class="edge"><title>Node1&#45;&gt;Node7</title>
<path fill="none" stroke="midnightblue" d="M76.3121,-23.5044C86.124,-22.0593 96.9632,-20.4628 107.65,-18.8888"/>
<polygon fill="midnightblue" stroke="midnightblue" points="108.427,-22.3121 117.811,-17.3922 107.407,-15.3868 108.427,-22.3121"/>
</g>
<!-- Node3 -->
<g id="node3" class="node"><title>Node3</title>
<g id="a_node3"><a xlink:href="../../d3/d39/class_g_u_i_font.html#abea1624c5890b044ef1368a7ca051b3e" target="_top" xlink:title=" ">
<polygon fill="white" stroke="black" points="262,-38.5 262,-57.5 361,-57.5 361,-38.5 262,-38.5"/>
<text text-anchor="middle" x="311.5" y="-45.5" font-family="Helvetica,sans-Serif" font-size="10.00">GUIFont::DrawText</text>
</a>
</g>
</g>
<!-- Node2&#45;&gt;Node3 -->
<g id="edge2" class="edge"><title>Node2&#45;&gt;Node3</title>
<path fill="none" stroke="midnightblue" d="M226.337,-48C234.696,-48 243.328,-48 251.735,-48"/>
<polygon fill="midnightblue" stroke="midnightblue" points="251.844,-51.5001 261.843,-48 251.843,-44.5001 251.844,-51.5001"/>
</g>
<!-- Node4 -->
<g id="node4" class="node"><title>Node4</title>
<g id="a_node4"><a xlink:href="../../d3/d39/class_g_u_i_font.html#acff82a6ae67e879bd76ddc52aa25fe02" target="_top" xlink:title=" ">
<polygon fill="white" stroke="black" points="397,-57.5 397,-76.5 534,-76.5 534,-57.5 397,-57.5"/>
<text text-anchor="middle" x="465.5" y="-64.5" font-family="Helvetica,sans-Serif" font-size="10.00">GUIFont::FitTextInAWindow</text>
</a>
</g>
</g>
<!-- Node3&#45;&gt;Node4 -->
<g id="edge3" class="edge"><title>Node3&#45;&gt;Node4</title>
<path fill="none" stroke="midnightblue" d="M361.012,-54.064C369.281,-55.0976 378.052,-56.194 386.853,-57.2941"/>
<polygon fill="midnightblue" stroke="midnightblue" points="386.42,-60.7671 396.777,-58.5346 387.288,-53.8212 386.42,-60.7671"/>
</g>
<!-- Node6 -->
<g id="node6" class="node"><title>Node6</title>
<g id="a_node6"><a xlink:href="../../d3/d39/class_g_u_i_font.html#abf5dc44bc1b328f80d5c7033279a4f8d" target="_top" xlink:title=" ">
<polygon fill="white" stroke="black" points="406.5,-19.5 406.5,-38.5 524.5,-38.5 524.5,-19.5 406.5,-19.5"/>
<text text-anchor="middle" x="465.5" y="-26.5" font-family="Helvetica,sans-Serif" font-size="10.00">GUIFont::GetLineWidth</text>
</a>
</g>
</g>
<!-- Node3&#45;&gt;Node6 -->
<g id="edge5" class="edge"><title>Node3&#45;&gt;Node6</title>
<path fill="none" stroke="midnightblue" d="M361.012,-41.936C372.279,-40.5276 384.478,-39.0027 396.414,-37.5107"/>
<polygon fill="midnightblue" stroke="midnightblue" points="396.864,-40.9818 406.352,-36.2684 395.996,-34.0359 396.864,-40.9818"/>
</g>
<!-- Node5 -->
<g id="node5" class="node"><title>Node5</title>
<g id="a_node5"><a xlink:href="../../d3/d39/class_g_u_i_font.html#adfbdd225f4c0eedcbf7e82eecd29e404" target="_top" xlink:title=" ">
<polygon fill="white" stroke="black" points="570,-38.5 570,-57.5 678,-57.5 678,-38.5 570,-38.5"/>
<text text-anchor="middle" x="624" y="-45.5" font-family="Helvetica,sans-Serif" font-size="10.00">GUIFont::IsCharValid</text>
</a>
</g>
</g>
<!-- Node4&#45;&gt;Node5 -->
<g id="edge4" class="edge"><title>Node4&#45;&gt;Node5</title>
<path fill="none" stroke="midnightblue" d="M534.233,-58.7768C542.69,-57.7501 551.314,-56.7031 559.7,-55.685"/>
<polygon fill="midnightblue" stroke="midnightblue" points="560.279,-59.1405 569.784,-54.4607 559.435,-52.1915 560.279,-59.1405"/>
</g>
<!-- Node6&#45;&gt;Node5 -->
<g id="edge6" class="edge"><title>Node6&#45;&gt;Node5</title>
<path fill="none" stroke="midnightblue" d="M524.775,-36.0749C536.201,-37.4622 548.237,-38.9233 559.815,-40.329"/>
<polygon fill="midnightblue" stroke="midnightblue" points="559.497,-43.8159 569.846,-41.5468 560.34,-36.867 559.497,-43.8159"/>
</g>
</g>
</svg>
