<?xml version="1.0" encoding="UTF-8" standalone="no"?>
<!DOCTYPE svg PUBLIC "-//W3C//DTD SVG 1.1//EN"
 "http://www.w3.org/Graphics/SVG/1.1/DTD/svg11.dtd">
<!-- Generated by graphviz version 2.38.0 (20140413.2041)
 -->
<!-- Title: rand_interval Pages: 1 -->
<!--zoomable 263 -->
<svg id="main" version="1.1" xmlns="http://www.w3.org/2000/svg" xmlns:xlink="http://www.w3.org/1999/xlink" xml:space="preserve" onload="init(evt)">
<style type="text/css"><![CDATA[
.edge:hover path { stroke: red; }
.edge:hover polygon { stroke: red; fill: red; }
]]></style>
<script type="text/javascript"><![CDATA[
var edges = document.getElementsByTagName('g');
if (edges && edges.length) {
  for (var i=0;i<edges.length;i++) {
    if (edges[i].id.substr(0,4)=='edge') {
      edges[i].setAttribute('class','edge');
    }
  }
}
]]></script>
        <defs>
                <circle id="rim" cx="0" cy="0" r="7"/>
                <circle id="rim2" cx="0" cy="0" r="3.5"/>
                <g id="zoomPlus">
                        <use xlink:href="#rim" fill="#404040">
                                <set attributeName="fill" to="#808080" begin="zoomplus.mouseover" end="zoomplus.mouseout"/>
                        </use>
                        <path d="M-4,0h8M0,-4v8" fill="none" stroke="white" stroke-width="1.5" pointer-events="none"/>
                </g>
                <g id="zoomMin">
                        <use xlink:href="#rim" fill="#404040">
                                <set attributeName="fill" to="#808080" begin="zoomminus.mouseover" end="zoomminus.mouseout"/>
                        </use>
                        <path d="M-4,0h8" fill="none" stroke="white" stroke-width="1.5" pointer-events="none"/>
                </g>
                <g id="dirArrow">
                        <path fill="none" stroke="white" stroke-width="1.5" d="M0,-3.0v7 M-2.5,-0.5L0,-3.0L2.5,-0.5"/>
                </g>
               <g id="resetDef">
                       <use xlink:href="#rim2" fill="#404040">
                               <set attributeName="fill" to="#808080" begin="reset.mouseover" end="reset.mouseout"/>
                       </use>
               </g>
        </defs>

<script type="text/javascript">
var viewWidth = 1458;
var viewHeight = 263;
var sectionId = 'dynsection-51';
</script>
<script xlink:href="../../svgpan.js"/>
<svg id="graph" class="graph">
<g id="viewport">
<title>rand_interval</title>
<polygon fill="white" stroke="none" points="-4,4 -4,-259.319 1454,-259.319 1454,4 -4,4"/>
<!-- Node1 -->
<g id="node1" class="node"><title>Node1</title>
<g id="a_node1"><a xlink:title=" ">
<polygon fill="#bfbfbf" stroke="black" points="1379,-59.319 1379,-78.319 1450,-78.319 1450,-59.319 1379,-59.319"/>
<text text-anchor="middle" x="1414.5" y="-66.319" font-family="Helvetica,sans-Serif" font-size="10.00">rand_interval</text>
</a>
</g>
</g>
<!-- Node2 -->
<g id="node2" class="node"><title>Node2</title>
<g id="a_node2"><a xlink:href="../../d3/d70/_arcomage_2_arcomage_8cpp.html#ac194d5154f4d3704bf2a169870afc116" target="_top" xlink:title=" ">
<polygon fill="white" stroke="black" points="1225,-148.319 1225,-167.319 1343,-167.319 1343,-148.319 1225,-148.319"/>
<text text-anchor="middle" x="1284" y="-155.319" font-family="Helvetica,sans-Serif" font-size="10.00">GetNextCardFromDeck</text>
</a>
</g>
</g>
<!-- Node1&#45;&gt;Node2 -->
<g id="edge1" class="edge"><title>Node1&#45;&gt;Node2</title>
<path fill="none" stroke="midnightblue" d="M1391.48,-84.069C1365,-102.411 1321.33,-132.654 1299.04,-148.093"/>
<polygon fill="midnightblue" stroke="midnightblue" points="1393.52,-86.9147 1399.75,-78.3436 1389.53,-81.1601 1393.52,-86.9147"/>
</g>
<!-- Node6 -->
<g id="node6" class="node"><title>Node6</title>
<g id="a_node6"><a xlink:href="../../d1/d67/struct_arcomage_game.html#af5f4ef42b2a0d72d14621a54895afb58" target="_top" xlink:title=" ">
<polygon fill="white" stroke="black" points="455,-72.319 455,-91.319 569,-91.319 569,-72.319 455,-72.319"/>
<text text-anchor="middle" x="512" y="-79.319" font-family="Helvetica,sans-Serif" font-size="10.00">ArcomageGame::Loop</text>
</a>
</g>
</g>
<!-- Node1&#45;&gt;Node6 -->
<g id="edge17" class="edge"><title>Node1&#45;&gt;Node6</title>
<path fill="none" stroke="midnightblue" d="M1394.99,-52.7264C1381.53,-42.0065 1362.33,-28.6729 1343,-21.819 1257.59,8.45709 1230.62,-2.81903 1140,-2.81903 1140,-2.81903 1140,-2.81903 828.5,-2.81903 715.287,-2.81903 585.882,-51.2782 535.093,-72.2898"/>
<polygon fill="midnightblue" stroke="midnightblue" points="1393.02,-55.6346 1402.96,-59.2991 1397.47,-50.2352 1393.02,-55.6346"/>
</g>
<!-- Node14 -->
<g id="node14" class="node"><title>Node14</title>
<g id="a_node14"><a xlink:href="../../d3/d70/_arcomage_2_arcomage_8cpp.html#a1cc7fa71c0782bc6edd73578da1d83a0" target="_top" xlink:title=" ">
<polygon fill="white" stroke="black" points="1093,-72.319 1093,-91.319 1185,-91.319 1185,-72.319 1093,-72.319"/>
<text text-anchor="middle" x="1139" y="-79.319" font-family="Helvetica,sans-Serif" font-size="10.00">OpponentsAITurn</text>
</a>
</g>
</g>
<!-- Node1&#45;&gt;Node14 -->
<g id="edge18" class="edge"><title>Node1&#45;&gt;Node14</title>
<path fill="none" stroke="midnightblue" d="M1368.87,-70.9406C1318.24,-73.3469 1236.14,-77.2495 1185.25,-79.668"/>
<polygon fill="midnightblue" stroke="midnightblue" points="1369.04,-74.4364 1378.86,-70.4655 1368.71,-67.4443 1369.04,-74.4364"/>
</g>
<!-- Node15 -->
<g id="node15" class="node"><title>Node15</title>
<g id="a_node15"><a xlink:href="../../db/d55/structexplosion__effect__struct.html#a436b1857a90644e9fe7e388415492944" target="_top" xlink:title=" ">
<polygon fill="white" stroke="black" points="1226,-31.819 1226,-61.819 1342,-61.819 1342,-31.819 1226,-31.819"/>
<text text-anchor="start" x="1234" y="-49.819" font-family="Helvetica,sans-Serif" font-size="10.00">explosion_effect_struct</text>
<text text-anchor="middle" x="1284" y="-38.819" font-family="Helvetica,sans-Serif" font-size="10.00">::UpdateEffect</text>
</a>
</g>
</g>
<!-- Node1&#45;&gt;Node15 -->
<g id="edge20" class="edge"><title>Node1&#45;&gt;Node15</title>
<path fill="none" stroke="midnightblue" d="M1368.87,-61.1777C1360.23,-59.6987 1351.07,-58.13 1342.09,-56.5937"/>
<polygon fill="midnightblue" stroke="midnightblue" points="1368.28,-64.6277 1378.73,-62.8655 1369.46,-57.7281 1368.28,-64.6277"/>
</g>
<!-- Node3 -->
<g id="node3" class="node"><title>Node3</title>
<g id="a_node3"><a xlink:href="../../d3/d70/_arcomage_2_arcomage_8cpp.html#ade405a947de12828dbb9889158aff519" target="_top" xlink:title=" ">
<polygon fill="white" stroke="black" points="1089,-110.319 1089,-129.319 1189,-129.319 1189,-110.319 1089,-110.319"/>
<text text-anchor="middle" x="1139" y="-117.319" font-family="Helvetica,sans-Serif" font-size="10.00">ApplyCardToPlayer</text>
</a>
</g>
</g>
<!-- Node2&#45;&gt;Node3 -->
<g id="edge2" class="edge"><title>Node2&#45;&gt;Node3</title>
<path fill="none" stroke="midnightblue" d="M1237.19,-145.645C1217.41,-140.39 1194.62,-134.332 1176.07,-129.405"/>
<polygon fill="midnightblue" stroke="midnightblue" points="1236.35,-149.044 1246.92,-148.23 1238.15,-142.279 1236.35,-149.044"/>
</g>
<!-- Node2&#45;&gt;Node6 -->
<g id="edge15" class="edge"><title>Node2&#45;&gt;Node6</title>
<path fill="none" stroke="midnightblue" d="M1229.53,-169.443C1173.4,-180.617 1082.43,-195.819 1003,-195.819 1003,-195.819 1003,-195.819 828.5,-195.819 705.904,-195.819 571.605,-118.741 527.738,-91.3425"/>
<polygon fill="midnightblue" stroke="midnightblue" points="1230.49,-172.82 1239.6,-167.408 1229.1,-165.959 1230.49,-172.82"/>
</g>
<!-- Node10 -->
<g id="node10" class="node"><title>Node10</title>
<g id="a_node10"><a xlink:href="../../d3/d70/_arcomage_2_arcomage_8cpp.html#aa002c458365a310e9988b642add051cf" target="_top" xlink:title=" ">
<polygon fill="white" stroke="black" points="625,-72.319 625,-91.319 688,-91.319 688,-72.319 625,-72.319"/>
<text text-anchor="middle" x="656.5" y="-79.319" font-family="Helvetica,sans-Serif" font-size="10.00">PlayerTurn</text>
</a>
</g>
</g>
<!-- Node2&#45;&gt;Node10 -->
<g id="edge16" class="edge"><title>Node2&#45;&gt;Node10</title>
<path fill="none" stroke="midnightblue" d="M1214.86,-156.599C1147.57,-154.764 1041.86,-150.189 951,-138.819 854.17,-126.702 741.273,-101.641 688.128,-89.1828"/>
<polygon fill="midnightblue" stroke="midnightblue" points="1214.82,-160.099 1224.91,-156.86 1215,-153.101 1214.82,-160.099"/>
</g>
<!-- Node11 -->
<g id="node11" class="node"><title>Node11</title>
<g id="a_node11"><a xlink:href="../../d3/d70/_arcomage_2_arcomage_8cpp.html#ad379045c7e3d7696a8f885bfd8a29bbb" target="_top" xlink:title=" ">
<polygon fill="white" stroke="black" points="963.5,-228.319 963.5,-247.319 1040.5,-247.319 1040.5,-228.319 963.5,-228.319"/>
<text text-anchor="middle" x="1002" y="-235.319" font-family="Helvetica,sans-Serif" font-size="10.00">InitalHandsFill</text>
</a>
</g>
</g>
<!-- Node2&#45;&gt;Node11 -->
<g id="edge11" class="edge"><title>Node2&#45;&gt;Node11</title>
<path fill="none" stroke="midnightblue" d="M1260.88,-173.037C1242.47,-184.952 1215.14,-200.944 1189,-209.819 1139.37,-226.671 1078.86,-233.399 1040.62,-236.072"/>
<polygon fill="midnightblue" stroke="midnightblue" points="1262.99,-175.838 1269.4,-167.401 1259.13,-170 1262.99,-175.838"/>
</g>
<!-- Node4 -->
<g id="node4" class="node"><title>Node4</title>
<g id="a_node4"><a xlink:href="../../d3/d70/_arcomage_2_arcomage_8cpp.html#adaa9ec7ed17ca8f9a101946efa436592" target="_top" xlink:title=" ">
<polygon fill="white" stroke="black" points="951,-110.319 951,-129.319 1053,-129.319 1053,-110.319 951,-110.319"/>
<text text-anchor="middle" x="1002" y="-117.319" font-family="Helvetica,sans-Serif" font-size="10.00">DrawCardAnimation</text>
</a>
</g>
</g>
<!-- Node3&#45;&gt;Node4 -->
<g id="edge3" class="edge"><title>Node3&#45;&gt;Node4</title>
<path fill="none" stroke="midnightblue" d="M1078.65,-119.819C1070.17,-119.819 1061.5,-119.819 1053.22,-119.819"/>
<polygon fill="midnightblue" stroke="midnightblue" points="1078.88,-123.319 1088.88,-119.819 1078.88,-116.319 1078.88,-123.319"/>
</g>
<!-- Node5 -->
<g id="node5" class="node"><title>Node5</title>
<g id="a_node5"><a xlink:href="../../d3/d70/_arcomage_2_arcomage_8cpp.html#ab809b05bad30ea060faa30704e9e75ec" target="_top" xlink:title=" ">
<polygon fill="white" stroke="black" points="792.5,-34.319 792.5,-53.319 866.5,-53.319 866.5,-34.319 792.5,-34.319"/>
<text text-anchor="middle" x="829.5" y="-41.319" font-family="Helvetica,sans-Serif" font-size="10.00">DrawGameUI</text>
</a>
</g>
</g>
<!-- Node4&#45;&gt;Node5 -->
<g id="edge4" class="edge"><title>Node4&#45;&gt;Node5</title>
<path fill="none" stroke="midnightblue" d="M969.902,-105.957C935.706,-90.7143 881.673,-66.6295 851.919,-53.3663"/>
<polygon fill="midnightblue" stroke="midnightblue" points="968.847,-109.319 979.406,-110.194 971.697,-102.925 968.847,-109.319"/>
</g>
<!-- Node5&#45;&gt;Node6 -->
<g id="edge5" class="edge"><title>Node5&#45;&gt;Node6</title>
<path fill="none" stroke="midnightblue" d="M782.241,-46.1433C736.915,-48.7989 665.958,-53.9653 605,-62.819 588.214,-65.257 569.884,-68.8498 554.033,-72.2569"/>
<polygon fill="midnightblue" stroke="midnightblue" points="782.564,-49.6307 792.349,-45.5679 782.167,-42.642 782.564,-49.6307"/>
</g>
<!-- Node5&#45;&gt;Node10 -->
<g id="edge9" class="edge"><title>Node5&#45;&gt;Node10</title>
<path fill="none" stroke="midnightblue" d="M782.453,-54.0518C752.591,-60.6876 714.506,-69.151 688.275,-74.9801"/>
<polygon fill="midnightblue" stroke="midnightblue" points="783.233,-57.4639 792.235,-51.8779 781.714,-50.6306 783.233,-57.4639"/>
</g>
<!-- Node7 -->
<g id="node7" class="node"><title>Node7</title>
<g id="a_node7"><a xlink:href="../../d4/d06/class_application_1_1_game.html#aaa0ff18388b32b4e6198835a35e000d3" target="_top" xlink:title=" ">
<polygon fill="white" stroke="black" points="316,-115.819 316,-145.819 419,-145.819 419,-115.819 316,-115.819"/>
<text text-anchor="start" x="324" y="-133.819" font-family="Helvetica,sans-Serif" font-size="10.00">Application::Game::</text>
<text text-anchor="middle" x="367.5" y="-122.819" font-family="Helvetica,sans-Serif" font-size="10.00">GameLoop</text>
</a>
</g>
</g>
<!-- Node6&#45;&gt;Node7 -->
<g id="edge6" class="edge"><title>Node6&#45;&gt;Node7</title>
<path fill="none" stroke="midnightblue" d="M473.489,-94.7176C454.691,-101.181 431.821,-109.046 412.23,-115.782"/>
<polygon fill="midnightblue" stroke="midnightblue" points="474.868,-97.9446 483.186,-91.383 472.592,-91.325 474.868,-97.9446"/>
</g>
<!-- Node8 -->
<g id="node8" class="node"><title>Node8</title>
<g id="a_node8"><a xlink:href="../../d4/d06/class_application_1_1_game.html#a013ffd59e8fdf1c0a396da1dbe1681ca" target="_top" xlink:title=" ">
<polygon fill="white" stroke="black" points="156,-121.319 156,-140.319 280,-140.319 280,-121.319 156,-121.319"/>
<text text-anchor="middle" x="218" y="-128.319" font-family="Helvetica,sans-Serif" font-size="10.00">Application::Game::Loop</text>
</a>
</g>
</g>
<!-- Node7&#45;&gt;Node8 -->
<g id="edge7" class="edge"><title>Node7&#45;&gt;Node8</title>
<path fill="none" stroke="midnightblue" d="M305.59,-130.819C297.149,-130.819 288.478,-130.819 280.035,-130.819"/>
<polygon fill="midnightblue" stroke="midnightblue" points="305.739,-134.319 315.739,-130.819 305.739,-127.319 305.739,-134.319"/>
</g>
<!-- Node9 -->
<g id="node9" class="node"><title>Node9</title>
<g id="a_node9"><a xlink:href="../../d4/d06/class_application_1_1_game.html#a96341ca5b54d90adc3ecb3bf0bcd2312" target="_top" xlink:title=" ">
<polygon fill="white" stroke="black" points="0,-121.319 0,-140.319 120,-140.319 120,-121.319 0,-121.319"/>
<text text-anchor="middle" x="60" y="-128.319" font-family="Helvetica,sans-Serif" font-size="10.00">Application::Game::Run</text>
</a>
</g>
</g>
<!-- Node8&#45;&gt;Node9 -->
<g id="edge8" class="edge"><title>Node8&#45;&gt;Node9</title>
<path fill="none" stroke="midnightblue" d="M145.546,-130.819C137.081,-130.819 128.513,-130.819 120.244,-130.819"/>
<polygon fill="midnightblue" stroke="midnightblue" points="145.792,-134.319 155.792,-130.819 145.792,-127.319 145.792,-134.319"/>
</g>
<!-- Node10&#45;&gt;Node6 -->
<g id="edge10" class="edge"><title>Node10&#45;&gt;Node6</title>
<path fill="none" stroke="midnightblue" d="M614.534,-81.819C600.377,-81.819 584.26,-81.819 569.102,-81.819"/>
<polygon fill="midnightblue" stroke="midnightblue" points="614.93,-85.3191 624.93,-81.819 614.93,-78.3191 614.93,-85.3191"/>
</g>
<!-- Node12 -->
<g id="node12" class="node"><title>Node12</title>
<g id="a_node12"><a xlink:href="../../d1/d67/struct_arcomage_game.html#af8d9f3727a4dd021c4ebe6bfc2bb14dd" target="_top" xlink:title=" ">
<polygon fill="white" stroke="black" points="744,-229.319 744,-248.319 915,-248.319 915,-229.319 744,-229.319"/>
<text text-anchor="middle" x="829.5" y="-236.319" font-family="Helvetica,sans-Serif" font-size="10.00">ArcomageGame::PrepareArcomage</text>
</a>
</g>
</g>
<!-- Node11&#45;&gt;Node12 -->
<g id="edge12" class="edge"><title>Node11&#45;&gt;Node12</title>
<path fill="none" stroke="midnightblue" d="M953.124,-238.1C941.32,-238.169 928.324,-238.245 915.34,-238.321"/>
<polygon fill="midnightblue" stroke="midnightblue" points="953.181,-241.6 963.161,-238.041 953.14,-234.6 953.181,-241.6"/>
</g>
<!-- Node13 -->
<g id="node13" class="node"><title>Node13</title>
<g id="a_node13"><a xlink:href="../../d4/d06/class_application_1_1_game.html#a3f65e3f0ef1a9114fb3dea275e52442e" target="_top" xlink:title=" ">
<polygon fill="white" stroke="black" points="605,-224.819 605,-254.819 708,-254.819 708,-224.819 605,-224.819"/>
<text text-anchor="start" x="613" y="-242.819" font-family="Helvetica,sans-Serif" font-size="10.00">Application::Game::</text>
<text text-anchor="middle" x="656.5" y="-231.819" font-family="Helvetica,sans-Serif" font-size="10.00">EventLoop</text>
</a>
</g>
</g>
<!-- Node12&#45;&gt;Node13 -->
<g id="edge13" class="edge"><title>Node12&#45;&gt;Node13</title>
<path fill="none" stroke="midnightblue" d="M733.564,-239.374C724.919,-239.425 716.404,-239.475 708.379,-239.521"/>
<polygon fill="midnightblue" stroke="midnightblue" points="733.772,-242.873 743.751,-239.315 733.731,-235.873 733.772,-242.873"/>
</g>
<!-- Node13&#45;&gt;Node7 -->
<g id="edge14" class="edge"><title>Node13&#45;&gt;Node7</title>
<path fill="none" stroke="midnightblue" d="M606.538,-221.224C550.539,-199.956 459.935,-165.545 408.159,-145.881"/>
<polygon fill="midnightblue" stroke="midnightblue" points="605.304,-224.499 615.895,-224.777 607.789,-217.955 605.304,-224.499"/>
</g>
<!-- Node14&#45;&gt;Node10 -->
<g id="edge19" class="edge"><title>Node14&#45;&gt;Node10</title>
<path fill="none" stroke="midnightblue" d="M1082.72,-81.819C981.009,-81.819 767.352,-81.819 688.012,-81.819"/>
<polygon fill="midnightblue" stroke="midnightblue" points="1082.8,-85.3191 1092.8,-81.819 1082.8,-78.3191 1082.8,-85.3191"/>
</g>
<!-- Node15&#45;&gt;Node5 -->
<g id="edge21" class="edge"><title>Node15&#45;&gt;Node5</title>
<path fill="none" stroke="midnightblue" d="M1215.68,-46.3727C1118.57,-45.7289 942.529,-44.5618 866.77,-44.0595"/>
<polygon fill="midnightblue" stroke="midnightblue" points="1215.67,-49.8726 1225.69,-46.4391 1215.71,-42.8728 1215.67,-49.8726"/>
</g>
</g>
</svg>
        <g id="navigator" transform="translate(0 0)" fill="#404254">
                <rect fill="#f2f5e9" fill-opacity="0.5" stroke="#606060" stroke-width=".5" x="0" y="0" width="60" height="60"/>
                <use id="zoomplus" xlink:href="#zoomPlus" x="17" y="9" onmousedown="handleZoom(evt,'in')"/>
                <use id="zoomminus" xlink:href="#zoomMin" x="42" y="9" onmousedown="handleZoom(evt,'out')"/>
                <use id="reset" xlink:href="#resetDef" x="30" y="36" onmousedown="handleReset()"/>
                <g id="arrowUp" xlink:href="#dirArrow" transform="translate(30 24)" onmousedown="handlePan(0,-1)">
                  <use xlink:href="#rim" fill="#404040">
                        <set attributeName="fill" to="#808080" begin="arrowUp.mouseover" end="arrowUp.mouseout"/>
                  </use>
                  <path fill="none" stroke="white" stroke-width="1.5" d="M0,-3.0v7 M-2.5,-0.5L0,-3.0L2.5,-0.5"/>
                </g>
                <g id="arrowRight" xlink:href="#dirArrow" transform="rotate(90) translate(36 -43)" onmousedown="handlePan(1,0)">
                  <use xlink:href="#rim" fill="#404040">
                        <set attributeName="fill" to="#808080" begin="arrowRight.mouseover" end="arrowRight.mouseout"/>
                  </use>
                  <path fill="none" stroke="white" stroke-width="1.5" d="M0,-3.0v7 M-2.5,-0.5L0,-3.0L2.5,-0.5"/>
                </g>
                <g id="arrowDown" xlink:href="#dirArrow" transform="rotate(180) translate(-30 -48)" onmousedown="handlePan(0,1)">
                  <use xlink:href="#rim" fill="#404040">
                        <set attributeName="fill" to="#808080" begin="arrowDown.mouseover" end="arrowDown.mouseout"/>
                  </use>
                  <path fill="none" stroke="white" stroke-width="1.5" d="M0,-3.0v7 M-2.5,-0.5L0,-3.0L2.5,-0.5"/>
                </g>
                <g id="arrowLeft" xlink:href="#dirArrow" transform="rotate(270) translate(-36 17)" onmousedown="handlePan(-1,0)">
                  <use xlink:href="#rim" fill="#404040">
                        <set attributeName="fill" to="#808080" begin="arrowLeft.mouseover" end="arrowLeft.mouseout"/>
                  </use>
                  <path fill="none" stroke="white" stroke-width="1.5" d="M0,-3.0v7 M-2.5,-0.5L0,-3.0L2.5,-0.5"/>
                </g>
        </g>
        <svg viewBox="0 0 15 15" width="100%" height="30px" preserveAspectRatio="xMaxYMin meet">
         <g id="arrow_out" transform="scale(0.3 0.3)">
          <a xlink:href="_arcomage_2_arcomage_8cpp_a28dbeabbe23b8564485c2da27437a112_icgraph_org.svg" target="_base">
           <rect id="button" ry="5" rx="5" y="6" x="6" height="38" width="38"
                fill="#f2f5e9" fill-opacity="0.5" stroke="#606060" stroke-width="1.0"/>
           <path id="arrow"
             d="M 11.500037,31.436501 C 11.940474,20.09759 22.043105,11.32322 32.158766,21.979434 L 37.068811,17.246167 C 37.068811,17.246167 37.088388,32 37.088388,32 L 22.160133,31.978069 C 22.160133,31.978069 26.997745,27.140456 26.997745,27.140456 C 18.528582,18.264221 13.291696,25.230495 11.500037,31.436501 z"
             style="fill:#404040;"/>
          </a>
         </g>
        </svg>
</svg>
