<?xml version="1.0" encoding="UTF-8" standalone="no"?>
<!DOCTYPE svg PUBLIC "-//W3C//DTD SVG 1.1//EN"
 "http://www.w3.org/Graphics/SVG/1.1/DTD/svg11.dtd">
<!-- Generated by graphviz version 2.38.0 (20140413.2041)
 -->
<!-- Title: FillPlayerDeck Pages: 1 -->
<svg width="1439pt" height="167pt"
 viewBox="0.00 0.00 1439.00 166.73" xmlns="http://www.w3.org/2000/svg" xmlns:xlink="http://www.w3.org/1999/xlink">
<g id="graph0" class="graph" transform="scale(1 1) rotate(0) translate(4 162.735)">
<title>FillPlayerDeck</title>
<polygon fill="white" stroke="none" points="-4,4 -4,-162.735 1435,-162.735 1435,4 -4,4"/>
<!-- Node1 -->
<g id="node1" class="node"><title>Node1</title>
<g id="a_node1"><a xlink:title=" ">
<polygon fill="#bfbfbf" stroke="black" points="1351,-38.5 1351,-57.5 1431,-57.5 1431,-38.5 1351,-38.5"/>
<text text-anchor="middle" x="1391" y="-45.5" font-family="Helvetica,sans-Serif" font-size="10.00">FillPlayerDeck</text>
</a>
</g>
</g>
<!-- Node2 -->
<g id="node2" class="node"><title>Node2</title>
<g id="a_node2"><a xlink:href="../../d3/d70/_arcomage_2_arcomage_8cpp.html#ac194d5154f4d3704bf2a169870afc116" target="_top" xlink:title=" ">
<polygon fill="white" stroke="black" points="1197,-57.5 1197,-76.5 1315,-76.5 1315,-57.5 1197,-57.5"/>
<text text-anchor="middle" x="1256" y="-64.5" font-family="Helvetica,sans-Serif" font-size="10.00">GetNextCardFromDeck</text>
</a>
</g>
</g>
<!-- Node1&#45;&gt;Node2 -->
<g id="edge1" class="edge"><title>Node1&#45;&gt;Node2</title>
<path fill="none" stroke="midnightblue" d="M1340.84,-55.0229C1332.47,-56.2186 1323.71,-57.4706 1315.13,-58.6957"/>
<polygon fill="midnightblue" stroke="midnightblue" points="1341.41,-58.477 1350.81,-53.5979 1340.42,-51.5473 1341.41,-58.477"/>
</g>
<!-- Node14 -->
<g id="node14" class="node"><title>Node14</title>
<g id="a_node14"><a xlink:href="../../d3/d70/_arcomage_2_arcomage_8cpp.html#a8b2ffeed44b18106aeeb7da3ed01382c" target="_top" xlink:title=" ">
<polygon fill="white" stroke="black" points="1206.5,-0.5 1206.5,-19.5 1305.5,-19.5 1305.5,-0.5 1206.5,-0.5"/>
<text text-anchor="middle" x="1256" y="-7.5" font-family="Helvetica,sans-Serif" font-size="10.00">SetStartGameData</text>
</a>
</g>
</g>
<!-- Node1&#45;&gt;Node14 -->
<g id="edge17" class="edge"><title>Node1&#45;&gt;Node14</title>
<path fill="none" stroke="midnightblue" d="M1346.63,-35.6094C1328.42,-30.4055 1307.56,-24.4459 1290.55,-19.5859"/>
<polygon fill="midnightblue" stroke="midnightblue" points="1345.86,-39.029 1356.44,-38.411 1347.78,-32.2984 1345.86,-39.029"/>
</g>
<!-- Node3 -->
<g id="node3" class="node"><title>Node3</title>
<g id="a_node3"><a xlink:href="../../d3/d70/_arcomage_2_arcomage_8cpp.html#ade405a947de12828dbb9889158aff519" target="_top" xlink:title=" ">
<polygon fill="white" stroke="black" points="1061,-95.5 1061,-114.5 1161,-114.5 1161,-95.5 1061,-95.5"/>
<text text-anchor="middle" x="1111" y="-102.5" font-family="Helvetica,sans-Serif" font-size="10.00">ApplyCardToPlayer</text>
</a>
</g>
</g>
<!-- Node2&#45;&gt;Node3 -->
<g id="edge2" class="edge"><title>Node2&#45;&gt;Node3</title>
<path fill="none" stroke="midnightblue" d="M1209.19,-79.1742C1189.41,-84.4287 1166.62,-90.4866 1148.07,-95.4141"/>
<polygon fill="midnightblue" stroke="midnightblue" points="1210.15,-82.5399 1218.92,-76.589 1208.35,-75.7747 1210.15,-82.5399"/>
</g>
<!-- Node6 -->
<g id="node6" class="node"><title>Node6</title>
<g id="a_node6"><a xlink:href="../../d1/d67/struct_arcomage_game.html#af5f4ef42b2a0d72d14621a54895afb58" target="_top" xlink:title=" ">
<polygon fill="white" stroke="black" points="455,-76.5 455,-95.5 569,-95.5 569,-76.5 455,-76.5"/>
<text text-anchor="middle" x="512" y="-83.5" font-family="Helvetica,sans-Serif" font-size="10.00">ArcomageGame::Loop</text>
</a>
</g>
</g>
<!-- Node2&#45;&gt;Node6 -->
<g id="edge15" class="edge"><title>Node2&#45;&gt;Node6</title>
<path fill="none" stroke="midnightblue" d="M1186.43,-67C1122.72,-67 1025.19,-67 940.5,-67 940.5,-67 940.5,-67 780,-67 707.04,-67 623.148,-74.1462 569.173,-79.6733"/>
<polygon fill="midnightblue" stroke="midnightblue" points="1186.75,-70.5001 1196.75,-67 1186.75,-63.5001 1186.75,-70.5001"/>
</g>
<!-- Node10 -->
<g id="node10" class="node"><title>Node10</title>
<g id="a_node10"><a xlink:href="../../d3/d70/_arcomage_2_arcomage_8cpp.html#aa002c458365a310e9988b642add051cf" target="_top" xlink:title=" ">
<polygon fill="white" stroke="black" points="625,-133.5 625,-152.5 688,-152.5 688,-133.5 625,-133.5"/>
<text text-anchor="middle" x="656.5" y="-140.5" font-family="Helvetica,sans-Serif" font-size="10.00">PlayerTurn</text>
</a>
</g>
</g>
<!-- Node2&#45;&gt;Node10 -->
<g id="edge16" class="edge"><title>Node2&#45;&gt;Node10</title>
<path fill="none" stroke="midnightblue" d="M1235.47,-82.9602C1217.39,-96.6862 1189.12,-115.565 1161,-124 988.607,-175.709 768.086,-156.573 688.156,-147.068"/>
<polygon fill="midnightblue" stroke="midnightblue" points="1237.76,-85.6166 1243.48,-76.7043 1233.45,-80.0987 1237.76,-85.6166"/>
</g>
<!-- Node11 -->
<g id="node11" class="node"><title>Node11</title>
<g id="a_node11"><a xlink:href="../../d3/d70/_arcomage_2_arcomage_8cpp.html#ad379045c7e3d7696a8f885bfd8a29bbb" target="_top" xlink:title=" ">
<polygon fill="white" stroke="black" points="1072.5,-19.5 1072.5,-38.5 1149.5,-38.5 1149.5,-19.5 1072.5,-19.5"/>
<text text-anchor="middle" x="1111" y="-26.5" font-family="Helvetica,sans-Serif" font-size="10.00">InitalHandsFill</text>
</a>
</g>
</g>
<!-- Node2&#45;&gt;Node11 -->
<g id="edge11" class="edge"><title>Node2&#45;&gt;Node11</title>
<path fill="none" stroke="midnightblue" d="M1209.19,-54.8258C1189.41,-49.5713 1166.62,-43.5134 1148.07,-38.5859"/>
<polygon fill="midnightblue" stroke="midnightblue" points="1208.35,-58.2253 1218.92,-57.411 1210.15,-51.4601 1208.35,-58.2253"/>
</g>
<!-- Node4 -->
<g id="node4" class="node"><title>Node4</title>
<g id="a_node4"><a xlink:href="../../d3/d70/_arcomage_2_arcomage_8cpp.html#adaa9ec7ed17ca8f9a101946efa436592" target="_top" xlink:title=" ">
<polygon fill="white" stroke="black" points="888.5,-95.5 888.5,-114.5 990.5,-114.5 990.5,-95.5 888.5,-95.5"/>
<text text-anchor="middle" x="939.5" y="-102.5" font-family="Helvetica,sans-Serif" font-size="10.00">DrawCardAnimation</text>
</a>
</g>
</g>
<!-- Node3&#45;&gt;Node4 -->
<g id="edge3" class="edge"><title>Node3&#45;&gt;Node4</title>
<path fill="none" stroke="midnightblue" d="M1050.9,-105C1031.22,-105 1009.52,-105 990.593,-105"/>
<polygon fill="midnightblue" stroke="midnightblue" points="1050.97,-108.5 1060.97,-105 1050.97,-101.5 1050.97,-108.5"/>
</g>
<!-- Node5 -->
<g id="node5" class="node"><title>Node5</title>
<g id="a_node5"><a xlink:href="../../d3/d70/_arcomage_2_arcomage_8cpp.html#ab809b05bad30ea060faa30704e9e75ec" target="_top" xlink:title=" ">
<polygon fill="white" stroke="black" points="744,-95.5 744,-114.5 818,-114.5 818,-95.5 744,-95.5"/>
<text text-anchor="middle" x="781" y="-102.5" font-family="Helvetica,sans-Serif" font-size="10.00">DrawGameUI</text>
</a>
</g>
</g>
<!-- Node4&#45;&gt;Node5 -->
<g id="edge4" class="edge"><title>Node4&#45;&gt;Node5</title>
<path fill="none" stroke="midnightblue" d="M878.082,-105C857.94,-105 836.133,-105 818.393,-105"/>
<polygon fill="midnightblue" stroke="midnightblue" points="878.121,-108.5 888.121,-105 878.121,-101.5 878.121,-108.5"/>
</g>
<!-- Node5&#45;&gt;Node6 -->
<g id="edge5" class="edge"><title>Node5&#45;&gt;Node6</title>
<path fill="none" stroke="midnightblue" d="M733.769,-101.71C688.042,-98.4562 618.001,-93.472 569.111,-89.9929"/>
<polygon fill="midnightblue" stroke="midnightblue" points="733.768,-105.219 743.991,-102.438 734.265,-98.2365 733.768,-105.219"/>
</g>
<!-- Node5&#45;&gt;Node10 -->
<g id="edge9" class="edge"><title>Node5&#45;&gt;Node10</title>
<path fill="none" stroke="midnightblue" d="M739.122,-117.68C722.571,-122.815 703.779,-128.644 688.402,-133.414"/>
<polygon fill="midnightblue" stroke="midnightblue" points="740.574,-120.895 749.088,-114.589 738.5,-114.209 740.574,-120.895"/>
</g>
<!-- Node7 -->
<g id="node7" class="node"><title>Node7</title>
<g id="a_node7"><a xlink:href="../../d4/d06/class_application_1_1_game.html#aaa0ff18388b32b4e6198835a35e000d3" target="_top" xlink:title=" ">
<polygon fill="white" stroke="black" points="316,-50 316,-80 419,-80 419,-50 316,-50"/>
<text text-anchor="start" x="324" y="-68" font-family="Helvetica,sans-Serif" font-size="10.00">Application::Game::</text>
<text text-anchor="middle" x="367.5" y="-57" font-family="Helvetica,sans-Serif" font-size="10.00">GameLoop</text>
</a>
</g>
</g>
<!-- Node6&#45;&gt;Node7 -->
<g id="edge6" class="edge"><title>Node6&#45;&gt;Node7</title>
<path fill="none" stroke="midnightblue" d="M444.731,-76.2341C436.193,-74.9758 427.559,-73.7035 419.323,-72.4898"/>
<polygon fill="midnightblue" stroke="midnightblue" points="444.277,-79.7048 454.68,-77.7002 445.297,-72.7796 444.277,-79.7048"/>
</g>
<!-- Node8 -->
<g id="node8" class="node"><title>Node8</title>
<g id="a_node8"><a xlink:href="../../d4/d06/class_application_1_1_game.html#a013ffd59e8fdf1c0a396da1dbe1681ca" target="_top" xlink:title=" ">
<polygon fill="white" stroke="black" points="156,-55.5 156,-74.5 280,-74.5 280,-55.5 156,-55.5"/>
<text text-anchor="middle" x="218" y="-62.5" font-family="Helvetica,sans-Serif" font-size="10.00">Application::Game::Loop</text>
</a>
</g>
</g>
<!-- Node7&#45;&gt;Node8 -->
<g id="edge7" class="edge"><title>Node7&#45;&gt;Node8</title>
<path fill="none" stroke="midnightblue" d="M305.59,-65C297.149,-65 288.478,-65 280.035,-65"/>
<polygon fill="midnightblue" stroke="midnightblue" points="305.739,-68.5001 315.739,-65 305.739,-61.5001 305.739,-68.5001"/>
</g>
<!-- Node9 -->
<g id="node9" class="node"><title>Node9</title>
<g id="a_node9"><a xlink:href="../../d4/d06/class_application_1_1_game.html#a96341ca5b54d90adc3ecb3bf0bcd2312" target="_top" xlink:title=" ">
<polygon fill="white" stroke="black" points="0,-55.5 0,-74.5 120,-74.5 120,-55.5 0,-55.5"/>
<text text-anchor="middle" x="60" y="-62.5" font-family="Helvetica,sans-Serif" font-size="10.00">Application::Game::Run</text>
</a>
</g>
</g>
<!-- Node8&#45;&gt;Node9 -->
<g id="edge8" class="edge"><title>Node8&#45;&gt;Node9</title>
<path fill="none" stroke="midnightblue" d="M145.546,-65C137.081,-65 128.513,-65 120.244,-65"/>
<polygon fill="midnightblue" stroke="midnightblue" points="145.792,-68.5001 155.792,-65 145.792,-61.5001 145.792,-68.5001"/>
</g>
<!-- Node10&#45;&gt;Node6 -->
<g id="edge10" class="edge"><title>Node10&#45;&gt;Node6</title>
<path fill="none" stroke="midnightblue" d="M622.148,-129.659C596.012,-119.205 560.282,-104.913 536.929,-95.5716"/>
<polygon fill="midnightblue" stroke="midnightblue" points="621.064,-132.995 631.649,-133.459 623.664,-126.496 621.064,-132.995"/>
</g>
<!-- Node12 -->
<g id="node12" class="node"><title>Node12</title>
<g id="a_node12"><a xlink:href="../../d1/d67/struct_arcomage_game.html#af8d9f3727a4dd021c4ebe6bfc2bb14dd" target="_top" xlink:title=" ">
<polygon fill="white" stroke="black" points="854,-13.5 854,-32.5 1025,-32.5 1025,-13.5 854,-13.5"/>
<text text-anchor="middle" x="939.5" y="-20.5" font-family="Helvetica,sans-Serif" font-size="10.00">ArcomageGame::PrepareArcomage</text>
</a>
</g>
</g>
<!-- Node11&#45;&gt;Node12 -->
<g id="edge12" class="edge"><title>Node11&#45;&gt;Node12</title>
<path fill="none" stroke="midnightblue" d="M1062.12,-27.3052C1050.57,-26.8962 1037.88,-26.447 1025.19,-25.9978"/>
<polygon fill="midnightblue" stroke="midnightblue" points="1062.26,-30.8124 1072.38,-27.6684 1062.51,-23.8167 1062.26,-30.8124"/>
</g>
<!-- Node13 -->
<g id="node13" class="node"><title>Node13</title>
<g id="a_node13"><a xlink:href="../../d4/d06/class_application_1_1_game.html#a3f65e3f0ef1a9114fb3dea275e52442e" target="_top" xlink:title=" ">
<polygon fill="white" stroke="black" points="605,-8 605,-38 708,-38 708,-8 605,-8"/>
<text text-anchor="start" x="613" y="-26" font-family="Helvetica,sans-Serif" font-size="10.00">Application::Game::</text>
<text text-anchor="middle" x="656.5" y="-15" font-family="Helvetica,sans-Serif" font-size="10.00">EventLoop</text>
</a>
</g>
</g>
<!-- Node12&#45;&gt;Node13 -->
<g id="edge13" class="edge"><title>Node12&#45;&gt;Node13</title>
<path fill="none" stroke="midnightblue" d="M843.647,-23C798.274,-23 745.776,-23 708.121,-23"/>
<polygon fill="midnightblue" stroke="midnightblue" points="843.81,-26.5001 853.81,-23 843.81,-19.5001 843.81,-26.5001"/>
</g>
<!-- Node13&#45;&gt;Node7 -->
<g id="edge14" class="edge"><title>Node13&#45;&gt;Node7</title>
<path fill="none" stroke="midnightblue" d="M594.721,-31.8945C542.522,-39.5334 468.147,-50.4175 419.125,-57.5915"/>
<polygon fill="midnightblue" stroke="midnightblue" points="595.463,-35.3233 604.851,-30.4121 594.449,-28.397 595.463,-35.3233"/>
</g>
<!-- Node14&#45;&gt;Node12 -->
<g id="edge18" class="edge"><title>Node14&#45;&gt;Node12</title>
<path fill="none" stroke="midnightblue" d="M1196.33,-8.36244C1157.83,-7.69139 1106.38,-7.55901 1061,-10 1046.82,-10.7628 1031.74,-12.0272 1017.22,-13.4755"/>
<polygon fill="midnightblue" stroke="midnightblue" points="1196.26,-11.8617 1206.33,-8.55379 1196.4,-4.86299 1196.26,-11.8617"/>
</g>
</g>
</svg>
