<?xml version="1.0" encoding="UTF-8" standalone="no"?>
<!DOCTYPE svg PUBLIC "-//W3C//DTD SVG 1.1//EN"
 "http://www.w3.org/Graphics/SVG/1.1/DTD/svg11.dtd">
<!-- Generated by graphviz version 2.38.0 (20140413.2041)
 -->
<!-- Title: OnSelectShopDialogueOption Pages: 1 -->
<svg width="492pt" height="142pt"
 viewBox="0.00 0.00 492.00 142.00" xmlns="http://www.w3.org/2000/svg" xmlns:xlink="http://www.w3.org/1999/xlink">
<g id="graph0" class="graph" transform="scale(1 1) rotate(0) translate(4 138)">
<title>OnSelectShopDialogueOption</title>
<polygon fill="white" stroke="none" points="-4,4 -4,-138 488,-138 488,4 -4,4"/>
<!-- Node1 -->
<g id="node1" class="node"><title>Node1</title>
<g id="a_node1"><a xlink:title=" ">
<polygon fill="#bfbfbf" stroke="black" points="0,-76.5 0,-95.5 146,-95.5 146,-76.5 0,-76.5"/>
<text text-anchor="middle" x="73" y="-83.5" font-family="Helvetica,sans-Serif" font-size="10.00">OnSelectShopDialogueOption</text>
</a>
</g>
</g>
<!-- Node2 -->
<g id="node2" class="node"><title>Node2</title>
<g id="a_node2"><a xlink:href="../../d4/d38/class_g_u_i_window.html#a29f96468b54f142995e3b1890cb7e45e" target="_top" xlink:title=" ">
<polygon fill="white" stroke="black" points="182,-114.5 182,-133.5 313,-133.5 313,-114.5 182,-114.5"/>
<text text-anchor="middle" x="247.5" y="-121.5" font-family="Helvetica,sans-Serif" font-size="10.00">GUIWindow::CreateButton</text>
</a>
</g>
</g>
<!-- Node1&#45;&gt;Node2 -->
<g id="edge1" class="edge"><title>Node1&#45;&gt;Node2</title>
<path fill="none" stroke="midnightblue" d="M117.529,-95.589C140.6,-100.671 169.127,-106.955 193.481,-112.32"/>
<polygon fill="midnightblue" stroke="midnightblue" points="192.765,-115.747 203.284,-114.48 194.271,-108.911 192.765,-115.747"/>
</g>
<!-- Node3 -->
<g id="node3" class="node"><title>Node3</title>
<g id="a_node3"><a xlink:href="../../dd/d88/class_localization.html#a0eb0a17fdf90f6a420eeac65bf62436f" target="_top" xlink:title=" ">
<polygon fill="white" stroke="black" points="189.5,-76.5 189.5,-95.5 305.5,-95.5 305.5,-76.5 189.5,-76.5"/>
<text text-anchor="middle" x="247.5" y="-83.5" font-family="Helvetica,sans-Serif" font-size="10.00">Localization::GetString</text>
</a>
</g>
</g>
<!-- Node1&#45;&gt;Node3 -->
<g id="edge2" class="edge"><title>Node1&#45;&gt;Node3</title>
<path fill="none" stroke="midnightblue" d="M146.156,-86C157.07,-86 168.294,-86 179.103,-86"/>
<polygon fill="midnightblue" stroke="midnightblue" points="179.315,-89.5001 189.315,-86 179.315,-82.5001 179.315,-89.5001"/>
</g>
<!-- Node4 -->
<g id="node4" class="node"><title>Node4</title>
<g id="a_node4"><a xlink:href="../../d4/d38/class_g_u_i_window.html#aaf2e6a2022904abc2d253e9d4acd5d99" target="_top" xlink:title=" ">
<polygon fill="white" stroke="black" points="193,-38.5 193,-57.5 302,-57.5 302,-38.5 193,-38.5"/>
<text text-anchor="middle" x="247.5" y="-45.5" font-family="Helvetica,sans-Serif" font-size="10.00">GUIWindow::Release</text>
</a>
</g>
</g>
<!-- Node1&#45;&gt;Node4 -->
<g id="edge3" class="edge"><title>Node1&#45;&gt;Node4</title>
<path fill="none" stroke="midnightblue" d="M117.529,-76.411C140.6,-71.3287 169.127,-65.0446 193.481,-59.6797"/>
<polygon fill="midnightblue" stroke="midnightblue" points="194.271,-63.0895 203.284,-57.5201 192.765,-56.2534 194.271,-63.0895"/>
</g>
<!-- Node5 -->
<g id="node5" class="node"><title>Node5</title>
<g id="a_node5"><a xlink:href="../../d4/d38/class_g_u_i_window.html#a7c8bcc74ea8cc23cc666aa869e5a5d7d" target="_top" xlink:title=" ">
<polygon fill="white" stroke="black" points="349,-76.5 349,-95.5 484,-95.5 484,-76.5 349,-76.5"/>
<text text-anchor="middle" x="416.5" y="-83.5" font-family="Helvetica,sans-Serif" font-size="10.00">GUIWindow::DeleteButtons</text>
</a>
</g>
</g>
<!-- Node4&#45;&gt;Node5 -->
<g id="edge4" class="edge"><title>Node4&#45;&gt;Node5</title>
<path fill="none" stroke="midnightblue" d="M290.641,-57.589C312.877,-62.6487 340.348,-68.8996 363.856,-74.2488"/>
<polygon fill="midnightblue" stroke="midnightblue" points="363.135,-77.6739 373.662,-76.4799 364.688,-70.8484 363.135,-77.6739"/>
</g>
<!-- Node6 -->
<g id="node6" class="node"><title>Node6</title>
<g id="a_node6"><a xlink:href="../../d6/d70/class_log.html#a9962588a107d3b4aa927cf12284e0fc7" target="_top" xlink:title=" ">
<polygon fill="white" stroke="black" points="390,-38.5 390,-57.5 443,-57.5 443,-38.5 390,-38.5"/>
<text text-anchor="middle" x="416.5" y="-45.5" font-family="Helvetica,sans-Serif" font-size="10.00">Log::Info</text>
</a>
</g>
</g>
<!-- Node4&#45;&gt;Node6 -->
<g id="edge5" class="edge"><title>Node4&#45;&gt;Node6</title>
<path fill="none" stroke="midnightblue" d="M302.259,-48C327.612,-48 357.172,-48 379.733,-48"/>
<polygon fill="midnightblue" stroke="midnightblue" points="379.881,-51.5001 389.881,-48 379.88,-44.5001 379.881,-51.5001"/>
</g>
<!-- Node7 -->
<g id="node7" class="node"><title>Node7</title>
<g id="a_node7"><a xlink:href="../../d5/d0b/_g_u_i_window_8h.html#a2dd068506951f75670a9b118af013003" target="_top" xlink:title=" ">
<polygon fill="white" stroke="black" points="390,-0.5 390,-19.5 443,-19.5 443,-0.5 390,-0.5"/>
<text text-anchor="middle" x="416.5" y="-7.5" font-family="Helvetica,sans-Serif" font-size="10.00">ToString</text>
</a>
</g>
</g>
<!-- Node4&#45;&gt;Node7 -->
<g id="edge6" class="edge"><title>Node4&#45;&gt;Node7</title>
<path fill="none" stroke="midnightblue" d="M290.641,-38.411C318.109,-32.1609 353.564,-24.0932 379.671,-18.1528"/>
<polygon fill="midnightblue" stroke="midnightblue" points="380.558,-21.5404 389.532,-15.9088 379.005,-14.7149 380.558,-21.5404"/>
</g>
</g>
</svg>
