<?xml version="1.0" encoding="UTF-8" standalone="no"?>
<!DOCTYPE svg PUBLIC "-//W3C//DTD SVG 1.1//EN"
 "http://www.w3.org/Graphics/SVG/1.1/DTD/svg11.dtd">
<!-- Generated by graphviz version 2.38.0 (20140413.2041)
 -->
<!-- Title: GUIWindow::DrawFlashingInputCursor Pages: 1 -->
<svg width="763pt" height="85pt"
 viewBox="0.00 0.00 763.00 85.00" xmlns="http://www.w3.org/2000/svg" xmlns:xlink="http://www.w3.org/1999/xlink">
<g id="graph0" class="graph" transform="scale(1 1) rotate(0) translate(4 81)">
<title>GUIWindow::DrawFlashingInputCursor</title>
<polygon fill="white" stroke="none" points="-4,4 -4,-81 759,-81 759,4 -4,4"/>
<!-- Node1 -->
<g id="node1" class="node"><title>Node1</title>
<g id="a_node1"><a xlink:title=" ">
<polygon fill="#bfbfbf" stroke="black" points="0,-14 0,-44 153,-44 153,-14 0,-14"/>
<text text-anchor="start" x="8" y="-32" font-family="Helvetica,sans-Serif" font-size="10.00">GUIWindow::DrawFlashingInput</text>
<text text-anchor="middle" x="76.5" y="-21" font-family="Helvetica,sans-Serif" font-size="10.00">Cursor</text>
</a>
</g>
</g>
<!-- Node2 -->
<g id="node2" class="node"><title>Node2</title>
<g id="a_node2"><a xlink:href="../../d4/d38/class_g_u_i_window.html#a009aad05d919c42979eebb93d8b4354c" target="_top" xlink:title=" ">
<polygon fill="white" stroke="black" points="189,-38.5 189,-57.5 303,-57.5 303,-38.5 189,-38.5"/>
<text text-anchor="middle" x="246" y="-45.5" font-family="Helvetica,sans-Serif" font-size="10.00">GUIWindow::DrawText</text>
</a>
</g>
</g>
<!-- Node1&#45;&gt;Node2 -->
<g id="edge1" class="edge"><title>Node1&#45;&gt;Node2</title>
<path fill="none" stroke="midnightblue" d="M153.409,-37.6105C161.901,-38.5738 170.502,-39.5494 178.858,-40.4973"/>
<polygon fill="midnightblue" stroke="midnightblue" points="178.574,-43.9875 188.905,-41.6369 179.363,-37.0321 178.574,-43.9875"/>
</g>
<!-- Node7 -->
<g id="node7" class="node"><title>Node7</title>
<g id="a_node7"><a xlink:href="../../d4/ddd/_api_8h.html#ac0cda4967d55e3ade51d622720b64936" target="_top" xlink:title=" ">
<polygon fill="white" stroke="black" points="209.5,-0.5 209.5,-19.5 282.5,-19.5 282.5,-0.5 209.5,-0.5"/>
<text text-anchor="middle" x="246" y="-7.5" font-family="Helvetica,sans-Serif" font-size="10.00">OS_GetTime</text>
</a>
</g>
</g>
<!-- Node1&#45;&gt;Node7 -->
<g id="edge7" class="edge"><title>Node1&#45;&gt;Node7</title>
<path fill="none" stroke="midnightblue" d="M153.409,-20.3895C169.011,-18.6196 184.979,-16.8083 199.123,-15.204"/>
<polygon fill="midnightblue" stroke="midnightblue" points="199.525,-18.6809 209.067,-14.076 198.736,-11.7255 199.525,-18.6809"/>
</g>
<!-- Node3 -->
<g id="node3" class="node"><title>Node3</title>
<g id="a_node3"><a xlink:href="../../d3/d39/class_g_u_i_font.html#abea1624c5890b044ef1368a7ca051b3e" target="_top" xlink:title=" ">
<polygon fill="white" stroke="black" points="339,-38.5 339,-57.5 438,-57.5 438,-38.5 339,-38.5"/>
<text text-anchor="middle" x="388.5" y="-45.5" font-family="Helvetica,sans-Serif" font-size="10.00">GUIFont::DrawText</text>
</a>
</g>
</g>
<!-- Node2&#45;&gt;Node3 -->
<g id="edge2" class="edge"><title>Node2&#45;&gt;Node3</title>
<path fill="none" stroke="midnightblue" d="M303.337,-48C311.696,-48 320.328,-48 328.735,-48"/>
<polygon fill="midnightblue" stroke="midnightblue" points="328.844,-51.5001 338.843,-48 328.843,-44.5001 328.844,-51.5001"/>
</g>
<!-- Node4 -->
<g id="node4" class="node"><title>Node4</title>
<g id="a_node4"><a xlink:href="../../d3/d39/class_g_u_i_font.html#acff82a6ae67e879bd76ddc52aa25fe02" target="_top" xlink:title=" ">
<polygon fill="white" stroke="black" points="474,-57.5 474,-76.5 611,-76.5 611,-57.5 474,-57.5"/>
<text text-anchor="middle" x="542.5" y="-64.5" font-family="Helvetica,sans-Serif" font-size="10.00">GUIFont::FitTextInAWindow</text>
</a>
</g>
</g>
<!-- Node3&#45;&gt;Node4 -->
<g id="edge3" class="edge"><title>Node3&#45;&gt;Node4</title>
<path fill="none" stroke="midnightblue" d="M438.012,-54.064C446.281,-55.0976 455.052,-56.194 463.853,-57.2941"/>
<polygon fill="midnightblue" stroke="midnightblue" points="463.42,-60.7671 473.777,-58.5346 464.288,-53.8212 463.42,-60.7671"/>
</g>
<!-- Node6 -->
<g id="node6" class="node"><title>Node6</title>
<g id="a_node6"><a xlink:href="../../d3/d39/class_g_u_i_font.html#abf5dc44bc1b328f80d5c7033279a4f8d" target="_top" xlink:title=" ">
<polygon fill="white" stroke="black" points="483.5,-19.5 483.5,-38.5 601.5,-38.5 601.5,-19.5 483.5,-19.5"/>
<text text-anchor="middle" x="542.5" y="-26.5" font-family="Helvetica,sans-Serif" font-size="10.00">GUIFont::GetLineWidth</text>
</a>
</g>
</g>
<!-- Node3&#45;&gt;Node6 -->
<g id="edge5" class="edge"><title>Node3&#45;&gt;Node6</title>
<path fill="none" stroke="midnightblue" d="M438.012,-41.936C449.279,-40.5276 461.478,-39.0027 473.414,-37.5107"/>
<polygon fill="midnightblue" stroke="midnightblue" points="473.864,-40.9818 483.352,-36.2684 472.996,-34.0359 473.864,-40.9818"/>
</g>
<!-- Node5 -->
<g id="node5" class="node"><title>Node5</title>
<g id="a_node5"><a xlink:href="../../d3/d39/class_g_u_i_font.html#adfbdd225f4c0eedcbf7e82eecd29e404" target="_top" xlink:title=" ">
<polygon fill="white" stroke="black" points="647,-38.5 647,-57.5 755,-57.5 755,-38.5 647,-38.5"/>
<text text-anchor="middle" x="701" y="-45.5" font-family="Helvetica,sans-Serif" font-size="10.00">GUIFont::IsCharValid</text>
</a>
</g>
</g>
<!-- Node4&#45;&gt;Node5 -->
<g id="edge4" class="edge"><title>Node4&#45;&gt;Node5</title>
<path fill="none" stroke="midnightblue" d="M611.233,-58.7768C619.69,-57.7501 628.314,-56.7031 636.7,-55.685"/>
<polygon fill="midnightblue" stroke="midnightblue" points="637.279,-59.1405 646.784,-54.4607 636.435,-52.1915 637.279,-59.1405"/>
</g>
<!-- Node6&#45;&gt;Node5 -->
<g id="edge6" class="edge"><title>Node6&#45;&gt;Node5</title>
<path fill="none" stroke="midnightblue" d="M601.775,-36.0749C613.201,-37.4622 625.237,-38.9233 636.815,-40.329"/>
<polygon fill="midnightblue" stroke="midnightblue" points="636.497,-43.8159 646.846,-41.5468 637.34,-36.867 636.497,-43.8159"/>
</g>
</g>
</svg>
