<?xml version="1.0" encoding="UTF-8" standalone="no"?>
<!DOCTYPE svg PUBLIC "-//W3C//DTD SVG 1.1//EN"
 "http://www.w3.org/Graphics/SVG/1.1/DTD/svg11.dtd">
<!-- Generated by graphviz version 2.38.0 (20140413.2041)
 -->
<!-- Title: GUIWindow::DrawText Pages: 1 -->
<svg width="574pt" height="66pt"
 viewBox="0.00 0.00 574.00 66.00" xmlns="http://www.w3.org/2000/svg" xmlns:xlink="http://www.w3.org/1999/xlink">
<g id="graph0" class="graph" transform="scale(1 1) rotate(0) translate(4 62)">
<title>GUIWindow::DrawText</title>
<polygon fill="white" stroke="none" points="-4,4 -4,-62 570,-62 570,4 -4,4"/>
<!-- Node1 -->
<g id="node1" class="node"><title>Node1</title>
<g id="a_node1"><a xlink:title=" ">
<polygon fill="#bfbfbf" stroke="black" points="0,-19.5 0,-38.5 114,-38.5 114,-19.5 0,-19.5"/>
<text text-anchor="middle" x="57" y="-26.5" font-family="Helvetica,sans-Serif" font-size="10.00">GUIWindow::DrawText</text>
</a>
</g>
</g>
<!-- Node2 -->
<g id="node2" class="node"><title>Node2</title>
<g id="a_node2"><a xlink:href="../../d3/d39/class_g_u_i_font.html#abea1624c5890b044ef1368a7ca051b3e" target="_top" xlink:title=" ">
<polygon fill="white" stroke="black" points="150,-19.5 150,-38.5 249,-38.5 249,-19.5 150,-19.5"/>
<text text-anchor="middle" x="199.5" y="-26.5" font-family="Helvetica,sans-Serif" font-size="10.00">GUIFont::DrawText</text>
</a>
</g>
</g>
<!-- Node1&#45;&gt;Node2 -->
<g id="edge1" class="edge"><title>Node1&#45;&gt;Node2</title>
<path fill="none" stroke="midnightblue" d="M114.337,-29C122.696,-29 131.328,-29 139.735,-29"/>
<polygon fill="midnightblue" stroke="midnightblue" points="139.844,-32.5001 149.843,-29 139.843,-25.5001 139.844,-32.5001"/>
</g>
<!-- Node3 -->
<g id="node3" class="node"><title>Node3</title>
<g id="a_node3"><a xlink:href="../../d3/d39/class_g_u_i_font.html#acff82a6ae67e879bd76ddc52aa25fe02" target="_top" xlink:title=" ">
<polygon fill="white" stroke="black" points="285,-38.5 285,-57.5 422,-57.5 422,-38.5 285,-38.5"/>
<text text-anchor="middle" x="353.5" y="-45.5" font-family="Helvetica,sans-Serif" font-size="10.00">GUIFont::FitTextInAWindow</text>
</a>
</g>
</g>
<!-- Node2&#45;&gt;Node3 -->
<g id="edge2" class="edge"><title>Node2&#45;&gt;Node3</title>
<path fill="none" stroke="midnightblue" d="M249.012,-35.064C257.281,-36.0976 266.052,-37.194 274.853,-38.2941"/>
<polygon fill="midnightblue" stroke="midnightblue" points="274.42,-41.7671 284.777,-39.5346 275.288,-34.8212 274.42,-41.7671"/>
</g>
<!-- Node5 -->
<g id="node5" class="node"><title>Node5</title>
<g id="a_node5"><a xlink:href="../../d3/d39/class_g_u_i_font.html#abf5dc44bc1b328f80d5c7033279a4f8d" target="_top" xlink:title=" ">
<polygon fill="white" stroke="black" points="294.5,-0.5 294.5,-19.5 412.5,-19.5 412.5,-0.5 294.5,-0.5"/>
<text text-anchor="middle" x="353.5" y="-7.5" font-family="Helvetica,sans-Serif" font-size="10.00">GUIFont::GetLineWidth</text>
</a>
</g>
</g>
<!-- Node2&#45;&gt;Node5 -->
<g id="edge4" class="edge"><title>Node2&#45;&gt;Node5</title>
<path fill="none" stroke="midnightblue" d="M249.012,-22.936C260.279,-21.5276 272.478,-20.0027 284.414,-18.5107"/>
<polygon fill="midnightblue" stroke="midnightblue" points="284.864,-21.9818 294.352,-17.2684 283.996,-15.0359 284.864,-21.9818"/>
</g>
<!-- Node4 -->
<g id="node4" class="node"><title>Node4</title>
<g id="a_node4"><a xlink:href="../../d3/d39/class_g_u_i_font.html#adfbdd225f4c0eedcbf7e82eecd29e404" target="_top" xlink:title=" ">
<polygon fill="white" stroke="black" points="458,-19.5 458,-38.5 566,-38.5 566,-19.5 458,-19.5"/>
<text text-anchor="middle" x="512" y="-26.5" font-family="Helvetica,sans-Serif" font-size="10.00">GUIFont::IsCharValid</text>
</a>
</g>
</g>
<!-- Node3&#45;&gt;Node4 -->
<g id="edge3" class="edge"><title>Node3&#45;&gt;Node4</title>
<path fill="none" stroke="midnightblue" d="M422.233,-39.7768C430.69,-38.7501 439.314,-37.7031 447.7,-36.685"/>
<polygon fill="midnightblue" stroke="midnightblue" points="448.279,-40.1405 457.784,-35.4607 447.435,-33.1915 448.279,-40.1405"/>
</g>
<!-- Node5&#45;&gt;Node4 -->
<g id="edge5" class="edge"><title>Node5&#45;&gt;Node4</title>
<path fill="none" stroke="midnightblue" d="M412.775,-17.0749C424.201,-18.4622 436.237,-19.9233 447.815,-21.329"/>
<polygon fill="midnightblue" stroke="midnightblue" points="447.497,-24.8159 457.846,-22.5468 448.34,-17.867 447.497,-24.8159"/>
</g>
</g>
</svg>
