<?xml version="1.0" encoding="UTF-8" standalone="no"?>
<!DOCTYPE svg PUBLIC "-//W3C//DTD SVG 1.1//EN"
 "http://www.w3.org/Graphics/SVG/1.1/DTD/svg11.dtd">
<!-- Generated by graphviz version 2.38.0 (20140413.2041)
 -->
<!-- Title: GUIWindow::_41D73D_draw_buff_tooltip Pages: 1 -->
<!--zoomable 553 -->
<svg id="main" version="1.1" xmlns="http://www.w3.org/2000/svg" xmlns:xlink="http://www.w3.org/1999/xlink" xml:space="preserve" onload="init(evt)">
<style type="text/css"><![CDATA[
.edge:hover path { stroke: red; }
.edge:hover polygon { stroke: red; fill: red; }
]]></style>
<script type="text/javascript"><![CDATA[
var edges = document.getElementsByTagName('g');
if (edges && edges.length) {
  for (var i=0;i<edges.length;i++) {
    if (edges[i].id.substr(0,4)=='edge') {
      edges[i].setAttribute('class','edge');
    }
  }
}
]]></script>
        <defs>
                <circle id="rim" cx="0" cy="0" r="7"/>
                <circle id="rim2" cx="0" cy="0" r="3.5"/>
                <g id="zoomPlus">
                        <use xlink:href="#rim" fill="#404040">
                                <set attributeName="fill" to="#808080" begin="zoomplus.mouseover" end="zoomplus.mouseout"/>
                        </use>
                        <path d="M-4,0h8M0,-4v8" fill="none" stroke="white" stroke-width="1.5" pointer-events="none"/>
                </g>
                <g id="zoomMin">
                        <use xlink:href="#rim" fill="#404040">
                                <set attributeName="fill" to="#808080" begin="zoomminus.mouseover" end="zoomminus.mouseout"/>
                        </use>
                        <path d="M-4,0h8" fill="none" stroke="white" stroke-width="1.5" pointer-events="none"/>
                </g>
                <g id="dirArrow">
                        <path fill="none" stroke="white" stroke-width="1.5" d="M0,-3.0v7 M-2.5,-0.5L0,-3.0L2.5,-0.5"/>
                </g>
               <g id="resetDef">
                       <use xlink:href="#rim2" fill="#404040">
                               <set attributeName="fill" to="#808080" begin="reset.mouseover" end="reset.mouseout"/>
                       </use>
               </g>
        </defs>

<script type="text/javascript">
var viewWidth = 1196;
var viewHeight = 553;
var sectionId = 'dynsection-24';
</script>
<script xlink:href="../../svgpan.js"/>
<svg id="graph" class="graph">
<g id="viewport">
<title>GUIWindow::_41D73D_draw_buff_tooltip</title>
<polygon fill="white" stroke="none" points="-4,4 -4,-548.808 1192,-548.808 1192,4 -4,4"/>
<!-- Node1 -->
<g id="node1" class="node"><title>Node1</title>
<g id="a_node1"><a xlink:title=" ">
<polygon fill="#bfbfbf" stroke="black" points="0,-147 0,-177 113,-177 113,-147 0,-147"/>
<text text-anchor="start" x="8" y="-165" font-family="Helvetica,sans-Serif" font-size="10.00">GUIWindow::_41D73D</text>
<text text-anchor="middle" x="56.5" y="-154" font-family="Helvetica,sans-Serif" font-size="10.00">_draw_buff_tooltip</text>
</a>
</g>
</g>
<!-- Node2 -->
<g id="node2" class="node"><title>Node2</title>
<g id="a_node2"><a xlink:href="../../d4/d68/_engine_8cpp.html#a08aa5a1574881457a84b6365c8899183" target="_top" xlink:title=" ">
<polygon fill="white" stroke="black" points="200,-392.5 200,-411.5 250,-411.5 250,-392.5 200,-392.5"/>
<text text-anchor="middle" x="225" y="-399.5" font-family="Helvetica,sans-Serif" font-size="10.00">Color16</text>
</a>
</g>
</g>
<!-- Node1&#45;&gt;Node2 -->
<g id="edge1" class="edge"><title>Node1&#45;&gt;Node2</title>
<path fill="none" stroke="midnightblue" d="M59.1282,-177.009C64.2885,-216.976 83.99,-326.761 149,-383 160.171,-392.664 175.584,-397.531 189.534,-399.94"/>
<polygon fill="midnightblue" stroke="midnightblue" points="189.44,-403.459 199.821,-401.341 190.385,-396.523 189.44,-403.459"/>
</g>
<!-- Node3 -->
<g id="node3" class="node"><title>Node3</title>
<g id="a_node3"><a xlink:href="../../dc/dce/_g_u_i_window_8cpp.html#a035c6832c1355c22e9f5ac3a19e0f844" target="_top" xlink:title=" ">
<polygon fill="white" stroke="black" points="174,-343 174,-373 276,-373 276,-343 174,-343"/>
<text text-anchor="start" x="182" y="-361" font-family="Helvetica,sans-Serif" font-size="10.00">DrawBuff_remaining</text>
<text text-anchor="middle" x="225" y="-350" font-family="Helvetica,sans-Serif" font-size="10.00">_time_string</text>
</a>
</g>
</g>
<!-- Node1&#45;&gt;Node3 -->
<g id="edge2" class="edge"><title>Node1&#45;&gt;Node3</title>
<path fill="none" stroke="midnightblue" d="M61.9437,-177.057C72.1412,-209.147 100.177,-284.852 149,-328 153.689,-332.144 159.023,-335.755 164.633,-338.893"/>
<polygon fill="midnightblue" stroke="midnightblue" points="163.122,-342.051 173.625,-343.443 166.283,-335.805 163.122,-342.051"/>
</g>
<!-- Node12 -->
<g id="node12" class="node"><title>Node12</title>
<g id="a_node12"><a xlink:href="../../dd/d88/class_localization.html#a0eb0a17fdf90f6a420eeac65bf62436f" target="_top" xlink:title=" ">
<polygon fill="white" stroke="black" points="515.5,-342.5 515.5,-361.5 631.5,-361.5 631.5,-342.5 515.5,-342.5"/>
<text text-anchor="middle" x="573.5" y="-349.5" font-family="Helvetica,sans-Serif" font-size="10.00">Localization::GetString</text>
</a>
</g>
</g>
<!-- Node1&#45;&gt;Node12 -->
<g id="edge47" class="edge"><title>Node1&#45;&gt;Node12</title>
<path fill="none" stroke="midnightblue" d="M79.4331,-177.168C97.588,-189.351 124.312,-206.439 149,-219 229.326,-259.868 251.194,-267.436 337,-295 396.451,-314.098 466.138,-330.213 514.201,-340.383"/>
<polygon fill="midnightblue" stroke="midnightblue" points="513.612,-343.835 524.118,-342.462 515.049,-336.984 513.612,-343.835"/>
</g>
<!-- Node14 -->
<g id="node14" class="node"><title>Node14</title>
<g id="a_node14"><a xlink:href="../../d4/d38/class_g_u_i_window.html#ac0c28c954e40c6f2c7feb7022ece8052" target="_top" xlink:title=" ">
<polygon fill="white" stroke="black" points="149,-190.5 149,-209.5 301,-209.5 301,-190.5 149,-190.5"/>
<text text-anchor="middle" x="225" y="-197.5" font-family="Helvetica,sans-Serif" font-size="10.00">GUIWindow::DrawMessageBox</text>
</a>
</g>
</g>
<!-- Node1&#45;&gt;Node14 -->
<g id="edge16" class="edge"><title>Node1&#45;&gt;Node14</title>
<path fill="none" stroke="midnightblue" d="M113.405,-174.759C132.464,-179.109 153.675,-183.95 172.382,-188.219"/>
<polygon fill="midnightblue" stroke="midnightblue" points="171.67,-191.647 182.198,-190.46 173.228,-184.822 171.67,-191.647"/>
</g>
<!-- Node24 -->
<g id="node24" class="node"><title>Node24</title>
<g id="a_node24"><a xlink:href="../../d4/d38/class_g_u_i_window.html#aae805c92b9242bc94cf18c7a702433f7" target="_top" xlink:title=" ">
<polygon fill="white" stroke="black" points="337,-152.5 337,-171.5 469,-171.5 469,-152.5 337,-152.5"/>
<text text-anchor="middle" x="403" y="-159.5" font-family="Helvetica,sans-Serif" font-size="10.00">GUIWindow::DrawTitleText</text>
</a>
</g>
</g>
<!-- Node1&#45;&gt;Node24 -->
<g id="edge43" class="edge"><title>Node1&#45;&gt;Node24</title>
<path fill="none" stroke="midnightblue" d="M113.233,-162C171.257,-162 262.49,-162 326.855,-162"/>
<polygon fill="midnightblue" stroke="midnightblue" points="326.945,-165.5 336.945,-162 326.945,-158.5 326.945,-165.5"/>
</g>
<!-- Node28 -->
<g id="node28" class="node"><title>Node28</title>
<g id="a_node28"><a xlink:href="../../d3/d39/class_g_u_i_font.html#a439cccf73db5fd93ffc18cbba51d07e0" target="_top" xlink:title=" ">
<polygon fill="white" stroke="black" points="522.5,-64.5 522.5,-83.5 624.5,-83.5 624.5,-64.5 522.5,-64.5"/>
<text text-anchor="middle" x="573.5" y="-71.5" font-family="Helvetica,sans-Serif" font-size="10.00">GUIFont::GetHeight</text>
</a>
</g>
</g>
<!-- Node1&#45;&gt;Node28 -->
<g id="edge44" class="edge"><title>Node1&#45;&gt;Node28</title>
<path fill="none" stroke="midnightblue" d="M75.7707,-146.844C93.3359,-133.235 121.241,-114.048 149,-105 273.309,-64.4806 428.638,-65.2252 512.345,-69.5069"/>
<polygon fill="midnightblue" stroke="midnightblue" points="512.262,-73.0075 522.438,-70.0584 512.644,-66.0179 512.262,-73.0075"/>
</g>
<!-- Node30 -->
<g id="node30" class="node"><title>Node30</title>
<g id="a_node30"><a xlink:href="../../d4/d38/class_g_u_i_window.html#a009aad05d919c42979eebb93d8b4354c" target="_top" xlink:title=" ">
<polygon fill="white" stroke="black" points="168,-114.5 168,-133.5 282,-133.5 282,-114.5 168,-114.5"/>
<text text-anchor="middle" x="225" y="-121.5" font-family="Helvetica,sans-Serif" font-size="10.00">GUIWindow::DrawText</text>
</a>
</g>
</g>
<!-- Node1&#45;&gt;Node30 -->
<g id="edge39" class="edge"><title>Node1&#45;&gt;Node30</title>
<path fill="none" stroke="midnightblue" d="M113.405,-149.241C132.464,-144.891 153.675,-140.05 172.382,-135.781"/>
<polygon fill="midnightblue" stroke="midnightblue" points="173.228,-139.178 182.198,-133.54 171.67,-132.353 173.228,-139.178"/>
</g>
<!-- Node32 -->
<g id="node32" class="node"><title>Node32</title>
<g id="a_node32"><a xlink:href="../../d0/d14/struct_party.html#a2e22e5307901cb1acb688185168b6161" target="_top" xlink:title=" ">
<polygon fill="white" stroke="black" points="167.5,-38.5 167.5,-57.5 282.5,-57.5 282.5,-38.5 167.5,-38.5"/>
<text text-anchor="middle" x="225" y="-45.5" font-family="Helvetica,sans-Serif" font-size="10.00">Party::GetPlayingTime</text>
</a>
</g>
</g>
<!-- Node1&#45;&gt;Node32 -->
<g id="edge45" class="edge"><title>Node1&#45;&gt;Node32</title>
<path fill="none" stroke="midnightblue" d="M69.16,-146.727C85.1211,-126.816 115.624,-92.1622 149,-72 156.317,-67.5797 164.535,-63.8869 172.776,-60.8299"/>
<polygon fill="midnightblue" stroke="midnightblue" points="174.084,-64.0815 182.409,-57.5279 171.814,-57.4597 174.084,-64.0815"/>
</g>
<!-- Node33 -->
<g id="node33" class="node"><title>Node33</title>
<g id="a_node33"><a xlink:href="../../dd/d88/class_localization.html#a3cd51b45a3cf4989bd7f40f46c631127" target="_top" xlink:title=" ">
<polygon fill="white" stroke="black" points="156.5,-0.5 156.5,-19.5 293.5,-19.5 293.5,-0.5 156.5,-0.5"/>
<text text-anchor="middle" x="225" y="-7.5" font-family="Helvetica,sans-Serif" font-size="10.00">Localization::GetSpellName</text>
</a>
</g>
</g>
<!-- Node1&#45;&gt;Node33 -->
<g id="edge46" class="edge"><title>Node1&#45;&gt;Node33</title>
<path fill="none" stroke="midnightblue" d="M63.5162,-146.984C75.4495,-119.185 104.836,-59.7454 149,-29 151.899,-26.9819 154.994,-25.1778 158.213,-23.5653"/>
<polygon fill="midnightblue" stroke="midnightblue" points="159.78,-26.7009 167.559,-19.5087 156.993,-20.2797 159.78,-26.7009"/>
</g>
<!-- Node4 -->
<g id="node4" class="node"><title>Node4</title>
<g id="a_node4"><a xlink:href="../../dc/dce/_g_u_i_window_8cpp.html#a5113d7cdf579fd445ecf0308393ee8c0" target="_top" xlink:title=" ">
<polygon fill="white" stroke="black" points="349.5,-418.5 349.5,-437.5 456.5,-437.5 456.5,-418.5 349.5,-418.5"/>
<text text-anchor="middle" x="403" y="-425.5" font-family="Helvetica,sans-Serif" font-size="10.00">MakeDateTimeString</text>
</a>
</g>
</g>
<!-- Node3&#45;&gt;Node4 -->
<g id="edge3" class="edge"><title>Node3&#45;&gt;Node4</title>
<path fill="none" stroke="midnightblue" d="M273.46,-373.042C282.654,-376.175 292.172,-379.571 301,-383 325.605,-392.556 352.916,-404.829 372.928,-414.143"/>
<polygon fill="midnightblue" stroke="midnightblue" points="371.581,-417.377 382.122,-418.453 374.553,-411.039 371.581,-417.377"/>
</g>
<!-- Node5 -->
<g id="node5" class="node"><title>Node5</title>
<g id="a_node5"><a xlink:href="../../df/dc2/struct_game_time.html#a63923f44c458d6327dec9c87660700a5" target="_top" xlink:title=" ">
<polygon fill="white" stroke="black" points="519.5,-380.5 519.5,-399.5 627.5,-399.5 627.5,-380.5 519.5,-380.5"/>
<text text-anchor="middle" x="573.5" y="-387.5" font-family="Helvetica,sans-Serif" font-size="10.00">GameTime::GetDays</text>
</a>
</g>
</g>
<!-- Node4&#45;&gt;Node5 -->
<g id="edge4" class="edge"><title>Node4&#45;&gt;Node5</title>
<path fill="none" stroke="midnightblue" d="M446.52,-418.411C468.955,-413.351 496.673,-407.1 520.393,-401.751"/>
<polygon fill="midnightblue" stroke="midnightblue" points="521.301,-405.134 530.286,-399.52 519.761,-398.306 521.301,-405.134"/>
</g>
<!-- Node9 -->
<g id="node9" class="node"><title>Node9</title>
<g id="a_node9"><a xlink:href="../../df/dc2/struct_game_time.html#a52727e9719cc59a2bfedd0b56ee7d2ba" target="_top" xlink:title=" ">
<polygon fill="white" stroke="black" points="686.5,-522.5 686.5,-541.5 824.5,-541.5 824.5,-522.5 686.5,-522.5"/>
<text text-anchor="middle" x="755.5" y="-529.5" font-family="Helvetica,sans-Serif" font-size="10.00">GameTime::GetHoursOfDay</text>
</a>
</g>
</g>
<!-- Node4&#45;&gt;Node9 -->
<g id="edge8" class="edge"><title>Node4&#45;&gt;Node9</title>
<path fill="none" stroke="midnightblue" d="M410.431,-437.592C424.65,-457.851 461.014,-504.64 505,-523 561.343,-546.518 631.22,-546.88 682.679,-542.448"/>
<polygon fill="midnightblue" stroke="midnightblue" points="683.088,-545.926 692.716,-541.504 682.432,-538.956 683.088,-545.926"/>
</g>
<!-- Node10 -->
<g id="node10" class="node"><title>Node10</title>
<g id="a_node10"><a xlink:href="../../df/dc2/struct_game_time.html#a72d75830ae38cb9176ae7370f0b116a0" target="_top" xlink:title=" ">
<polygon fill="white" stroke="black" points="678,-456.5 678,-475.5 833,-475.5 833,-456.5 678,-456.5"/>
<text text-anchor="middle" x="755.5" y="-463.5" font-family="Helvetica,sans-Serif" font-size="10.00">GameTime::GetMinutesFraction</text>
</a>
</g>
</g>
<!-- Node4&#45;&gt;Node10 -->
<g id="edge10" class="edge"><title>Node4&#45;&gt;Node10</title>
<path fill="none" stroke="midnightblue" d="M456.628,-435.72C472.186,-437.887 489.264,-440.153 505,-442 559.068,-448.345 619.875,-454.22 667.922,-458.569"/>
<polygon fill="midnightblue" stroke="midnightblue" points="667.7,-462.063 677.974,-459.474 668.328,-455.091 667.7,-462.063"/>
</g>
<!-- Node11 -->
<g id="node11" class="node"><title>Node11</title>
<g id="a_node11"><a xlink:href="../../df/dc2/struct_game_time.html#a2b06bc31a7d3a042d1addbcb9a5d3a58" target="_top" xlink:title=" ">
<polygon fill="white" stroke="black" points="869,-418.5 869,-437.5 1028,-437.5 1028,-418.5 869,-418.5"/>
<text text-anchor="middle" x="948.5" y="-425.5" font-family="Helvetica,sans-Serif" font-size="10.00">GameTime::GetSecondsFraction</text>
</a>
</g>
</g>
<!-- Node4&#45;&gt;Node11 -->
<g id="edge12" class="edge"><title>Node4&#45;&gt;Node11</title>
<path fill="none" stroke="midnightblue" d="M456.607,-428C549.702,-428 744.396,-428 858.633,-428"/>
<polygon fill="midnightblue" stroke="midnightblue" points="858.752,-431.5 868.752,-428 858.752,-424.5 858.752,-431.5"/>
</g>
<!-- Node4&#45;&gt;Node12 -->
<g id="edge14" class="edge"><title>Node4&#45;&gt;Node12</title>
<path fill="none" stroke="midnightblue" d="M418.492,-418.342C437.617,-405.95 472.652,-384.452 505,-371 510.545,-368.694 516.459,-366.571 522.395,-364.647"/>
<polygon fill="midnightblue" stroke="midnightblue" points="523.807,-367.875 532.342,-361.598 521.755,-361.182 523.807,-367.875"/>
</g>
<!-- Node13 -->
<g id="node13" class="node"><title>Node13</title>
<g id="a_node13"><a xlink:href="../../d8/d44/_strings_8cpp.html#aebf99e80337d8db0a005aebe8a13fb7f" target="_top" xlink:title=" ">
<polygon fill="white" stroke="black" points="541,-494.5 541,-513.5 606,-513.5 606,-494.5 541,-494.5"/>
<text text-anchor="middle" x="573.5" y="-501.5" font-family="Helvetica,sans-Serif" font-size="10.00">StringPrintf</text>
</a>
</g>
</g>
<!-- Node4&#45;&gt;Node13 -->
<g id="edge15" class="edge"><title>Node4&#45;&gt;Node13</title>
<path fill="none" stroke="midnightblue" d="M420.82,-437.543C440.598,-448.556 474.593,-466.837 505,-480 514.064,-483.924 524,-487.723 533.395,-491.097"/>
<polygon fill="midnightblue" stroke="midnightblue" points="532.336,-494.434 542.931,-494.446 534.656,-487.83 532.336,-494.434"/>
</g>
<!-- Node6 -->
<g id="node6" class="node"><title>Node6</title>
<g id="a_node6"><a xlink:href="../../df/dc2/struct_game_time.html#a9f828cfde868d07e1f607171c6809435" target="_top" xlink:title=" ">
<polygon fill="white" stroke="black" points="700,-380.5 700,-399.5 811,-399.5 811,-380.5 700,-380.5"/>
<text text-anchor="middle" x="755.5" y="-387.5" font-family="Helvetica,sans-Serif" font-size="10.00">GameTime::GetHours</text>
</a>
</g>
</g>
<!-- Node5&#45;&gt;Node6 -->
<g id="edge5" class="edge"><title>Node5&#45;&gt;Node6</title>
<path fill="none" stroke="midnightblue" d="M627.532,-390C647.049,-390 669.374,-390 689.805,-390"/>
<polygon fill="midnightblue" stroke="midnightblue" points="689.975,-393.5 699.975,-390 689.975,-386.5 689.975,-393.5"/>
</g>
<!-- Node7 -->
<g id="node7" class="node"><title>Node7</title>
<g id="a_node7"><a xlink:href="../../df/dc2/struct_game_time.html#a6957230697b66012e8207c587aa65e33" target="_top" xlink:title=" ">
<polygon fill="white" stroke="black" points="888.5,-380.5 888.5,-399.5 1008.5,-399.5 1008.5,-380.5 888.5,-380.5"/>
<text text-anchor="middle" x="948.5" y="-387.5" font-family="Helvetica,sans-Serif" font-size="10.00">GameTime::GetMinutes</text>
</a>
</g>
</g>
<!-- Node6&#45;&gt;Node7 -->
<g id="edge6" class="edge"><title>Node6&#45;&gt;Node7</title>
<path fill="none" stroke="midnightblue" d="M811.233,-390C832.074,-390 856.103,-390 878.125,-390"/>
<polygon fill="midnightblue" stroke="midnightblue" points="878.416,-393.5 888.416,-390 878.416,-386.5 878.416,-393.5"/>
</g>
<!-- Node8 -->
<g id="node8" class="node"><title>Node8</title>
<g id="a_node8"><a xlink:href="../../df/dc2/struct_game_time.html#a719def6268b14c320733038cb701d1a6" target="_top" xlink:title=" ">
<polygon fill="white" stroke="black" points="1064,-437.5 1064,-456.5 1188,-456.5 1188,-437.5 1064,-437.5"/>
<text text-anchor="middle" x="1126" y="-444.5" font-family="Helvetica,sans-Serif" font-size="10.00">GameTime::GetSeconds</text>
</a>
</g>
</g>
<!-- Node7&#45;&gt;Node8 -->
<g id="edge7" class="edge"><title>Node7&#45;&gt;Node8</title>
<path fill="none" stroke="midnightblue" d="M993.389,-399.509C1004.75,-402.273 1016.9,-405.5 1028,-409 1050.33,-416.04 1074.87,-425.675 1093.69,-433.482"/>
<polygon fill="midnightblue" stroke="midnightblue" points="1092.39,-436.731 1102.96,-437.374 1095.1,-430.277 1092.39,-436.731"/>
</g>
<!-- Node9&#45;&gt;Node8 -->
<g id="edge9" class="edge"><title>Node9&#45;&gt;Node8</title>
<path fill="none" stroke="midnightblue" d="M797.699,-522.497C865.412,-506.878 1000.06,-475.819 1073.8,-458.811"/>
<polygon fill="midnightblue" stroke="midnightblue" points="1074.83,-462.165 1083.78,-456.507 1073.25,-455.344 1074.83,-462.165"/>
</g>
<!-- Node10&#45;&gt;Node8 -->
<g id="edge11" class="edge"><title>Node10&#45;&gt;Node8</title>
<path fill="none" stroke="midnightblue" d="M833.301,-462.04C898.139,-458.697 990.264,-453.947 1053.54,-450.684"/>
<polygon fill="midnightblue" stroke="midnightblue" points="1054.02,-454.164 1063.83,-450.154 1053.66,-447.174 1054.02,-454.164"/>
</g>
<!-- Node11&#45;&gt;Node8 -->
<g id="edge13" class="edge"><title>Node11&#45;&gt;Node8</title>
<path fill="none" stroke="midnightblue" d="M1028.01,-436.5C1036.58,-437.427 1045.26,-438.367 1053.73,-439.284"/>
<polygon fill="midnightblue" stroke="midnightblue" points="1053.62,-442.792 1063.93,-440.389 1054.37,-435.833 1053.62,-442.792"/>
</g>
<!-- Node15 -->
<g id="node15" class="node"><title>Node15</title>
<g id="a_node15"><a xlink:href="../../d3/d39/class_g_u_i_font.html#a08b74df638b5c055d9f18f5ce4d8ee11" target="_top" xlink:title=" ">
<polygon fill="white" stroke="black" points="340.5,-228.5 340.5,-247.5 465.5,-247.5 465.5,-228.5 340.5,-228.5"/>
<text text-anchor="middle" x="403" y="-235.5" font-family="Helvetica,sans-Serif" font-size="10.00">GUIFont::CalcTextHeight</text>
</a>
</g>
</g>
<!-- Node14&#45;&gt;Node15 -->
<g id="edge17" class="edge"><title>Node14&#45;&gt;Node15</title>
<path fill="none" stroke="midnightblue" d="M270.412,-209.589C293.951,-214.671 323.057,-220.955 347.905,-226.32"/>
<polygon fill="midnightblue" stroke="midnightblue" points="347.394,-229.791 357.907,-228.48 348.871,-222.948 347.394,-229.791"/>
</g>
<!-- Node18 -->
<g id="node18" class="node"><title>Node18</title>
<g id="a_node18"><a xlink:href="../../d5/d0b/_g_u_i_window_8h.html#ae63663fb59f9435405c4bbbb6cc18dfe" target="_top" xlink:title=" ">
<polygon fill="white" stroke="black" points="352.5,-266.5 352.5,-285.5 453.5,-285.5 453.5,-266.5 352.5,-266.5"/>
<text text-anchor="middle" x="403" y="-273.5" font-family="Helvetica,sans-Serif" font-size="10.00">DrawPopupWindow</text>
</a>
</g>
</g>
<!-- Node14&#45;&gt;Node18 -->
<g id="edge21" class="edge"><title>Node14&#45;&gt;Node18</title>
<path fill="none" stroke="midnightblue" d="M242.093,-209.501C263.29,-221.724 301.987,-243.04 337,-257 342.805,-259.315 349.002,-261.487 355.178,-263.477"/>
<polygon fill="midnightblue" stroke="midnightblue" points="354.218,-266.843 364.805,-266.447 356.282,-260.155 354.218,-266.843"/>
</g>
<!-- Node14&#45;&gt;Node24 -->
<g id="edge30" class="edge"><title>Node14&#45;&gt;Node24</title>
<path fill="none" stroke="midnightblue" d="M270.412,-190.411C293.951,-185.329 323.057,-179.045 347.905,-173.68"/>
<polygon fill="midnightblue" stroke="midnightblue" points="348.871,-177.052 357.907,-171.52 347.394,-170.209 348.871,-177.052"/>
</g>
<!-- Node29 -->
<g id="node29" class="node"><title>Node29</title>
<g id="a_node29"><a xlink:href="../../d7/dc5/class_mouse.html#a8900246ba042b33090b8dc8e377fbb3a" target="_top" xlink:title=" ">
<polygon fill="white" stroke="black" points="346.5,-190.5 346.5,-209.5 459.5,-209.5 459.5,-190.5 346.5,-190.5"/>
<text text-anchor="middle" x="403" y="-197.5" font-family="Helvetica,sans-Serif" font-size="10.00">Mouse::GetCursorPos</text>
</a>
</g>
</g>
<!-- Node14&#45;&gt;Node29 -->
<g id="edge38" class="edge"><title>Node14&#45;&gt;Node29</title>
<path fill="none" stroke="midnightblue" d="M301.15,-200C312.739,-200 324.631,-200 335.999,-200"/>
<polygon fill="midnightblue" stroke="midnightblue" points="336.269,-203.5 346.269,-200 336.269,-196.5 336.269,-203.5"/>
</g>
<!-- Node16 -->
<g id="node16" class="node"><title>Node16</title>
<g id="a_node16"><a xlink:href="../../d3/d39/class_g_u_i_font.html#acff82a6ae67e879bd76ddc52aa25fe02" target="_top" xlink:title=" ">
<polygon fill="white" stroke="black" points="505,-152.5 505,-171.5 642,-171.5 642,-152.5 505,-152.5"/>
<text text-anchor="middle" x="573.5" y="-159.5" font-family="Helvetica,sans-Serif" font-size="10.00">GUIFont::FitTextInAWindow</text>
</a>
</g>
</g>
<!-- Node15&#45;&gt;Node16 -->
<g id="edge18" class="edge"><title>Node15&#45;&gt;Node16</title>
<path fill="none" stroke="midnightblue" d="M441.95,-228.423C450.95,-225.739 460.423,-222.565 469,-219 497.583,-207.121 528.428,-189.443 548.939,-176.929"/>
<polygon fill="midnightblue" stroke="midnightblue" points="550.924,-179.816 557.591,-171.582 547.244,-173.862 550.924,-179.816"/>
</g>
<!-- Node17 -->
<g id="node17" class="node"><title>Node17</title>
<g id="a_node17"><a xlink:href="../../d3/d39/class_g_u_i_font.html#adfbdd225f4c0eedcbf7e82eecd29e404" target="_top" xlink:title=" ">
<polygon fill="white" stroke="black" points="894.5,-171.5 894.5,-190.5 1002.5,-190.5 1002.5,-171.5 894.5,-171.5"/>
<text text-anchor="middle" x="948.5" y="-178.5" font-family="Helvetica,sans-Serif" font-size="10.00">GUIFont::IsCharValid</text>
</a>
</g>
</g>
<!-- Node15&#45;&gt;Node17 -->
<g id="edge20" class="edge"><title>Node15&#45;&gt;Node17</title>
<path fill="none" stroke="midnightblue" d="M465.696,-240.564C549.583,-242.852 703.964,-242.794 833,-219 861.528,-213.739 892.703,-203.048 915.31,-194.342"/>
<polygon fill="midnightblue" stroke="midnightblue" points="916.721,-197.548 924.747,-190.632 914.16,-191.033 916.721,-197.548"/>
</g>
<!-- Node16&#45;&gt;Node17 -->
<g id="edge19" class="edge"><title>Node16&#45;&gt;Node17</title>
<path fill="none" stroke="midnightblue" d="M642.047,-165.441C710.94,-168.95 816.998,-174.352 884.281,-177.78"/>
<polygon fill="midnightblue" stroke="midnightblue" points="884.161,-181.278 894.326,-178.291 884.517,-174.287 884.161,-181.278"/>
</g>
<!-- Node19 -->
<g id="node19" class="node"><title>Node19</title>
<g id="a_node19"><a xlink:href="../../de/d73/class_image.html#a5093fa64598a4d7e0c70d43fe67e35cd" target="_top" xlink:title=" ">
<polygon fill="white" stroke="black" points="527.5,-304.5 527.5,-323.5 619.5,-323.5 619.5,-304.5 527.5,-304.5"/>
<text text-anchor="middle" x="573.5" y="-311.5" font-family="Helvetica,sans-Serif" font-size="10.00">Image::GetHeight</text>
</a>
</g>
</g>
<!-- Node18&#45;&gt;Node19 -->
<g id="edge22" class="edge"><title>Node18&#45;&gt;Node19</title>
<path fill="none" stroke="midnightblue" d="M446.52,-285.589C468.955,-290.649 496.673,-296.9 520.393,-302.249"/>
<polygon fill="midnightblue" stroke="midnightblue" points="519.761,-305.694 530.286,-304.48 521.301,-298.866 519.761,-305.694"/>
</g>
<!-- Node23 -->
<g id="node23" class="node"><title>Node23</title>
<g id="a_node23"><a xlink:href="../../de/d73/class_image.html#a9241b1c53141c78273e4060a91634d47" target="_top" xlink:title=" ">
<polygon fill="white" stroke="black" points="528.5,-266.5 528.5,-285.5 618.5,-285.5 618.5,-266.5 528.5,-266.5"/>
<text text-anchor="middle" x="573.5" y="-273.5" font-family="Helvetica,sans-Serif" font-size="10.00">Image::GetWidth</text>
</a>
</g>
</g>
<!-- Node18&#45;&gt;Node23 -->
<g id="edge27" class="edge"><title>Node18&#45;&gt;Node23</title>
<path fill="none" stroke="midnightblue" d="M453.644,-276C473.907,-276 497.403,-276 518.128,-276"/>
<polygon fill="midnightblue" stroke="midnightblue" points="518.366,-279.5 528.366,-276 518.366,-272.5 518.366,-279.5"/>
</g>
<!-- Node20 -->
<g id="node20" class="node"><title>Node20</title>
<g id="a_node20"><a xlink:href="../../d9/d30/_s_d_l__assert_8h.html#afedcea68cf85ee469ab1ea390bbe0abb" target="_top" xlink:title=" ">
<polygon fill="white" stroke="black" points="910,-323.5 910,-342.5 987,-342.5 987,-323.5 910,-323.5"/>
<text text-anchor="middle" x="948.5" y="-330.5" font-family="Helvetica,sans-Serif" font-size="10.00">__debugbreak</text>
</a>
</g>
</g>
<!-- Node19&#45;&gt;Node20 -->
<g id="edge23" class="edge"><title>Node19&#45;&gt;Node20</title>
<path fill="none" stroke="midnightblue" d="M616.56,-323.511C635.265,-327.277 657.623,-331.145 678,-333 755.319,-340.038 845.635,-337.952 899.612,-335.613"/>
<polygon fill="midnightblue" stroke="midnightblue" points="900.078,-339.096 909.908,-335.145 899.76,-332.103 900.078,-339.096"/>
</g>
<!-- Node21 -->
<g id="node21" class="node"><title>Node21</title>
<g id="a_node21"><a xlink:href="../../de/d73/class_image.html#a9b786ec61110907b38dda728bd281c73" target="_top" xlink:title=" ">
<polygon fill="white" stroke="black" points="697.5,-304.5 697.5,-323.5 813.5,-323.5 813.5,-304.5 697.5,-304.5"/>
<text text-anchor="middle" x="755.5" y="-311.5" font-family="Helvetica,sans-Serif" font-size="10.00">Image::LoadImageData</text>
</a>
</g>
</g>
<!-- Node19&#45;&gt;Node21 -->
<g id="edge24" class="edge"><title>Node19&#45;&gt;Node21</title>
<path fill="none" stroke="midnightblue" d="M619.922,-314C640.333,-314 664.837,-314 687.309,-314"/>
<polygon fill="midnightblue" stroke="midnightblue" points="687.47,-317.5 697.47,-314 687.47,-310.5 687.47,-317.5"/>
</g>
<!-- Node21&#45;&gt;Node20 -->
<g id="edge25" class="edge"><title>Node21&#45;&gt;Node20</title>
<path fill="none" stroke="midnightblue" d="M813.548,-319.675C841.011,-322.407 873.567,-325.645 899.706,-328.246"/>
<polygon fill="midnightblue" stroke="midnightblue" points="899.452,-331.738 909.75,-329.245 900.145,-324.772 899.452,-331.738"/>
</g>
<!-- Node22 -->
<g id="node22" class="node"><title>Node22</title>
<g id="a_node22"><a xlink:href="../../d7/d42/class_image_loader.html#ad346c7973ae6f1d84a8c1fc655661319" target="_top" xlink:title=" ">
<polygon fill="white" stroke="black" points="899,-285.5 899,-304.5 998,-304.5 998,-285.5 899,-285.5"/>
<text text-anchor="middle" x="948.5" y="-292.5" font-family="Helvetica,sans-Serif" font-size="10.00">ImageLoader::Load</text>
</a>
</g>
</g>
<!-- Node21&#45;&gt;Node22 -->
<g id="edge26" class="edge"><title>Node21&#45;&gt;Node22</title>
<path fill="none" stroke="midnightblue" d="M813.548,-308.325C837.305,-305.962 864.874,-303.219 888.803,-300.839"/>
<polygon fill="midnightblue" stroke="midnightblue" points="889.209,-304.316 898.814,-299.843 888.516,-297.35 889.209,-304.316"/>
</g>
<!-- Node23&#45;&gt;Node20 -->
<g id="edge28" class="edge"><title>Node23&#45;&gt;Node20</title>
<path fill="none" stroke="midnightblue" d="M618.911,-273.811C671.188,-272.469 760.118,-274.082 833,-295 850.39,-299.991 852.078,-307.601 869,-314 878.84,-317.721 889.654,-320.893 900.027,-323.518"/>
<polygon fill="midnightblue" stroke="midnightblue" points="899.249,-326.931 909.79,-325.867 900.886,-320.125 899.249,-326.931"/>
</g>
<!-- Node23&#45;&gt;Node21 -->
<g id="edge29" class="edge"><title>Node23&#45;&gt;Node21</title>
<path fill="none" stroke="midnightblue" d="M618.533,-285.296C642.882,-290.436 673.367,-296.872 699.297,-302.346"/>
<polygon fill="midnightblue" stroke="midnightblue" points="698.85,-305.829 709.357,-304.47 700.296,-298.98 698.85,-305.829"/>
</g>
<!-- Node24&#45;&gt;Node16 -->
<g id="edge36" class="edge"><title>Node24&#45;&gt;Node16</title>
<path fill="none" stroke="midnightblue" d="M469.146,-162C477.442,-162 485.999,-162 494.471,-162"/>
<polygon fill="midnightblue" stroke="midnightblue" points="494.74,-165.5 504.74,-162 494.74,-158.5 494.74,-165.5"/>
</g>
<!-- Node25 -->
<g id="node25" class="node"><title>Node25</title>
<g id="a_node25"><a xlink:href="../../d3/d39/class_g_u_i_font.html#a9fa3825419fdf34ded3536e27bccbfdf" target="_top" xlink:title=" ">
<polygon fill="white" stroke="black" points="524,-103 524,-133 623,-133 623,-103 524,-103"/>
<text text-anchor="start" x="532" y="-121" font-family="Helvetica,sans-Serif" font-size="10.00">GUIFont::AlignText</text>
<text text-anchor="middle" x="573.5" y="-110" font-family="Helvetica,sans-Serif" font-size="10.00">_Center</text>
</a>
</g>
</g>
<!-- Node24&#45;&gt;Node25 -->
<g id="edge31" class="edge"><title>Node24&#45;&gt;Node25</title>
<path fill="none" stroke="midnightblue" d="M440.562,-152.453C462,-146.855 489.58,-139.653 513.976,-133.282"/>
<polygon fill="midnightblue" stroke="midnightblue" points="515.063,-136.616 523.855,-130.703 513.295,-129.843 515.063,-136.616"/>
</g>
<!-- Node27 -->
<g id="node27" class="node"><title>Node27</title>
<g id="a_node27"><a xlink:href="../../d3/d39/class_g_u_i_font.html#af8449e36ee49ae96e21f4406b398a010" target="_top" xlink:title=" ">
<polygon fill="white" stroke="black" points="697,-190.5 697,-209.5 814,-209.5 814,-190.5 697,-190.5"/>
<text text-anchor="middle" x="755.5" y="-197.5" font-family="Helvetica,sans-Serif" font-size="10.00">GUIFont::DrawTextLine</text>
</a>
</g>
</g>
<!-- Node24&#45;&gt;Node27 -->
<g id="edge34" class="edge"><title>Node24&#45;&gt;Node27</title>
<path fill="none" stroke="midnightblue" d="M449.08,-171.577C466.485,-174.986 486.603,-178.577 505,-181 566.246,-189.068 636.435,-194.035 686.735,-196.857"/>
<polygon fill="midnightblue" stroke="midnightblue" points="686.661,-200.358 696.838,-197.41 687.044,-193.369 686.661,-200.358"/>
</g>
<!-- Node24&#45;&gt;Node28 -->
<g id="edge37" class="edge"><title>Node24&#45;&gt;Node28</title>
<path fill="none" stroke="midnightblue" d="M450.849,-152.421C457.271,-149.958 463.529,-146.87 469,-143 491.357,-127.188 482.565,-108.7 505,-93 507.88,-90.9845 510.969,-89.182 514.184,-87.57"/>
<polygon fill="midnightblue" stroke="midnightblue" points="515.732,-90.7132 523.505,-83.5131 512.939,-84.2949 515.732,-90.7132"/>
</g>
<!-- Node26 -->
<g id="node26" class="node"><title>Node26</title>
<g id="a_node26"><a xlink:href="../../d3/d39/class_g_u_i_font.html#abf5dc44bc1b328f80d5c7033279a4f8d" target="_top" xlink:title=" ">
<polygon fill="white" stroke="black" points="696.5,-108.5 696.5,-127.5 814.5,-127.5 814.5,-108.5 696.5,-108.5"/>
<text text-anchor="middle" x="755.5" y="-115.5" font-family="Helvetica,sans-Serif" font-size="10.00">GUIFont::GetLineWidth</text>
</a>
</g>
</g>
<!-- Node25&#45;&gt;Node26 -->
<g id="edge32" class="edge"><title>Node25&#45;&gt;Node26</title>
<path fill="none" stroke="midnightblue" d="M623.211,-118C642.627,-118 665.316,-118 686.319,-118"/>
<polygon fill="midnightblue" stroke="midnightblue" points="686.472,-121.5 696.472,-118 686.472,-114.5 686.472,-121.5"/>
</g>
<!-- Node26&#45;&gt;Node17 -->
<g id="edge33" class="edge"><title>Node26&#45;&gt;Node17</title>
<path fill="none" stroke="midnightblue" d="M785.509,-127.568C818.418,-138.423 872.241,-156.176 908.731,-168.212"/>
<polygon fill="midnightblue" stroke="midnightblue" points="907.939,-171.636 918.532,-171.445 910.131,-164.989 907.939,-171.636"/>
</g>
<!-- Node27&#45;&gt;Node17 -->
<g id="edge35" class="edge"><title>Node27&#45;&gt;Node17</title>
<path fill="none" stroke="midnightblue" d="M814.065,-194.274C836.164,-192.075 861.499,-189.555 884.114,-187.305"/>
<polygon fill="midnightblue" stroke="midnightblue" points="884.687,-190.766 894.292,-186.293 883.995,-183.8 884.687,-190.766"/>
</g>
<!-- Node31 -->
<g id="node31" class="node"><title>Node31</title>
<g id="a_node31"><a xlink:href="../../d3/d39/class_g_u_i_font.html#abea1624c5890b044ef1368a7ca051b3e" target="_top" xlink:title=" ">
<polygon fill="white" stroke="black" points="353.5,-114.5 353.5,-133.5 452.5,-133.5 452.5,-114.5 353.5,-114.5"/>
<text text-anchor="middle" x="403" y="-121.5" font-family="Helvetica,sans-Serif" font-size="10.00">GUIFont::DrawText</text>
</a>
</g>
</g>
<!-- Node30&#45;&gt;Node31 -->
<g id="edge40" class="edge"><title>Node30&#45;&gt;Node31</title>
<path fill="none" stroke="midnightblue" d="M282.171,-124C301.704,-124 323.654,-124 343.379,-124"/>
<polygon fill="midnightblue" stroke="midnightblue" points="343.467,-127.5 353.467,-124 343.467,-120.5 343.467,-127.5"/>
</g>
<!-- Node31&#45;&gt;Node16 -->
<g id="edge41" class="edge"><title>Node31&#45;&gt;Node16</title>
<path fill="none" stroke="midnightblue" d="M446.52,-133.589C468.955,-138.649 496.673,-144.9 520.393,-150.249"/>
<polygon fill="midnightblue" stroke="midnightblue" points="519.761,-153.694 530.286,-152.48 521.301,-146.866 519.761,-153.694"/>
</g>
<!-- Node31&#45;&gt;Node26 -->
<g id="edge42" class="edge"><title>Node31&#45;&gt;Node26</title>
<path fill="none" stroke="midnightblue" d="M413.519,-114.476C430.266,-98.4733 466.856,-66.7857 505,-55 563.175,-37.0253 583.084,-39.6267 642,-55 677.028,-64.1401 712.695,-86.8733 734.216,-102.378"/>
<polygon fill="midnightblue" stroke="midnightblue" points="732.142,-105.198 742.266,-108.321 736.299,-99.566 732.142,-105.198"/>
</g>
</g>
</svg>
        <g id="navigator" transform="translate(0 0)" fill="#404254">
                <rect fill="#f2f5e9" fill-opacity="0.5" stroke="#606060" stroke-width=".5" x="0" y="0" width="60" height="60"/>
                <use id="zoomplus" xlink:href="#zoomPlus" x="17" y="9" onmousedown="handleZoom(evt,'in')"/>
                <use id="zoomminus" xlink:href="#zoomMin" x="42" y="9" onmousedown="handleZoom(evt,'out')"/>
                <use id="reset" xlink:href="#resetDef" x="30" y="36" onmousedown="handleReset()"/>
                <g id="arrowUp" xlink:href="#dirArrow" transform="translate(30 24)" onmousedown="handlePan(0,-1)">
                  <use xlink:href="#rim" fill="#404040">
                        <set attributeName="fill" to="#808080" begin="arrowUp.mouseover" end="arrowUp.mouseout"/>
                  </use>
                  <path fill="none" stroke="white" stroke-width="1.5" d="M0,-3.0v7 M-2.5,-0.5L0,-3.0L2.5,-0.5"/>
                </g>
                <g id="arrowRight" xlink:href="#dirArrow" transform="rotate(90) translate(36 -43)" onmousedown="handlePan(1,0)">
                  <use xlink:href="#rim" fill="#404040">
                        <set attributeName="fill" to="#808080" begin="arrowRight.mouseover" end="arrowRight.mouseout"/>
                  </use>
                  <path fill="none" stroke="white" stroke-width="1.5" d="M0,-3.0v7 M-2.5,-0.5L0,-3.0L2.5,-0.5"/>
                </g>
                <g id="arrowDown" xlink:href="#dirArrow" transform="rotate(180) translate(-30 -48)" onmousedown="handlePan(0,1)">
                  <use xlink:href="#rim" fill="#404040">
                        <set attributeName="fill" to="#808080" begin="arrowDown.mouseover" end="arrowDown.mouseout"/>
                  </use>
                  <path fill="none" stroke="white" stroke-width="1.5" d="M0,-3.0v7 M-2.5,-0.5L0,-3.0L2.5,-0.5"/>
                </g>
                <g id="arrowLeft" xlink:href="#dirArrow" transform="rotate(270) translate(-36 17)" onmousedown="handlePan(-1,0)">
                  <use xlink:href="#rim" fill="#404040">
                        <set attributeName="fill" to="#808080" begin="arrowLeft.mouseover" end="arrowLeft.mouseout"/>
                  </use>
                  <path fill="none" stroke="white" stroke-width="1.5" d="M0,-3.0v7 M-2.5,-0.5L0,-3.0L2.5,-0.5"/>
                </g>
        </g>
        <svg viewBox="0 0 15 15" width="100%" height="30px" preserveAspectRatio="xMaxYMin meet">
         <g id="arrow_out" transform="scale(0.3 0.3)">
          <a xlink:href="class_g_u_i_window_afb1aed077e95deae983b0b005f57f07c_cgraph_org.svg" target="_base">
           <rect id="button" ry="5" rx="5" y="6" x="6" height="38" width="38"
                fill="#f2f5e9" fill-opacity="0.5" stroke="#606060" stroke-width="1.0"/>
           <path id="arrow"
             d="M 11.500037,31.436501 C 11.940474,20.09759 22.043105,11.32322 32.158766,21.979434 L 37.068811,17.246167 C 37.068811,17.246167 37.088388,32 37.088388,32 L 22.160133,31.978069 C 22.160133,31.978069 26.997745,27.140456 26.997745,27.140456 C 18.528582,18.264221 13.291696,25.230495 11.500037,31.436501 z"
             style="fill:#404040;"/>
          </a>
         </g>
        </svg>
</svg>
