<?xml version="1.0" encoding="UTF-8" standalone="no"?>
<!DOCTYPE svg PUBLIC "-//W3C//DTD SVG 1.1//EN"
 "http://www.w3.org/Graphics/SVG/1.1/DTD/svg11.dtd">
<!-- Generated by graphviz version 2.38.0 (20140413.2041)
 -->
<!-- Title: GUIWindow::DrawFlashingInputCursor Pages: 1 -->
<svg width="716pt" height="203pt"
 viewBox="0.00 0.00 716.00 202.50" xmlns="http://www.w3.org/2000/svg" xmlns:xlink="http://www.w3.org/1999/xlink">
<g id="graph0" class="graph" transform="scale(1 1) rotate(0) translate(4 198.5)">
<title>GUIWindow::DrawFlashingInputCursor</title>
<polygon fill="white" stroke="none" points="-4,4 -4,-198.5 712,-198.5 712,4 -4,4"/>
<!-- Node1 -->
<g id="node1" class="node"><title>Node1</title>
<g id="a_node1"><a xlink:title=" ">
<polygon fill="#bfbfbf" stroke="black" points="555,-93.5 555,-123.5 708,-123.5 708,-93.5 555,-93.5"/>
<text text-anchor="start" x="563" y="-111.5" font-family="Helvetica,sans-Serif" font-size="10.00">GUIWindow::DrawFlashingInput</text>
<text text-anchor="middle" x="631.5" y="-100.5" font-family="Helvetica,sans-Serif" font-size="10.00">Cursor</text>
</a>
</g>
</g>
<!-- Node2 -->
<g id="node2" class="node"><title>Node2</title>
<g id="a_node2"><a xlink:href="../../d4/dc7/_u_i_houses_8h.html#a6a8b5b55aa413db9c82a54e32b0e6ca6" target="_top" xlink:title=" ">
<polygon fill="white" stroke="black" points="414,-175 414,-194 480,-194 480,-175 414,-175"/>
<text text-anchor="middle" x="447" y="-182" font-family="Helvetica,sans-Serif" font-size="10.00">BankDialog</text>
</a>
</g>
</g>
<!-- Node1&#45;&gt;Node2 -->
<g id="edge1" class="edge"><title>Node1&#45;&gt;Node2</title>
<path fill="none" stroke="midnightblue" d="M595.847,-128.62C574.266,-140.538 545.634,-155.261 519,-165.5 506.613,-170.262 492.573,-174.291 480.267,-177.396"/>
<polygon fill="midnightblue" stroke="midnightblue" points="597.617,-131.641 604.637,-123.706 594.201,-125.531 597.617,-131.641"/>
</g>
<!-- Node5 -->
<g id="node5" class="node"><title>Node5</title>
<g id="a_node5"><a xlink:href="../../d4/dc7/_u_i_houses_8h.html#afdce028ca6920ad78a2a8f39fb093b04" target="_top" xlink:title=" ">
<polygon fill="white" stroke="black" points="405.5,-137 405.5,-156 488.5,-156 488.5,-137 405.5,-137"/>
<text text-anchor="middle" x="447" y="-144" font-family="Helvetica,sans-Serif" font-size="10.00">TownHallDialog</text>
</a>
</g>
</g>
<!-- Node1&#45;&gt;Node5 -->
<g id="edge4" class="edge"><title>Node1&#45;&gt;Node5</title>
<path fill="none" stroke="midnightblue" d="M548.562,-125.561C527.775,-129.889 506.337,-134.353 488.623,-138.041"/>
<polygon fill="midnightblue" stroke="midnightblue" points="549.295,-128.984 558.371,-123.519 547.868,-122.131 549.295,-128.984"/>
</g>
<!-- Node6 -->
<g id="node6" class="node"><title>Node6</title>
<g id="a_node6"><a xlink:href="../../d9/d68/_u_i_save_load_8cpp.html#adc9f057ec5f87bf3c586388900eddac9" target="_top" xlink:title=" ">
<polygon fill="white" stroke="black" points="399.5,-99 399.5,-118 494.5,-118 494.5,-99 399.5,-99"/>
<text text-anchor="middle" x="447" y="-106" font-family="Helvetica,sans-Serif" font-size="10.00">UI_DrawSaveLoad</text>
</a>
</g>
</g>
<!-- Node1&#45;&gt;Node6 -->
<g id="edge6" class="edge"><title>Node1&#45;&gt;Node6</title>
<path fill="none" stroke="midnightblue" d="M544.797,-108.5C527.462,-108.5 509.86,-108.5 494.505,-108.5"/>
<polygon fill="midnightblue" stroke="midnightblue" points="544.953,-112 554.953,-108.5 544.953,-105 544.953,-112"/>
</g>
<!-- Node9 -->
<g id="node9" class="node"><title>Node9</title>
<g id="a_node9"><a xlink:href="../../d8/d1c/class_g_u_i_window___party_creation.html#a666d9cdf41b2eddb86e18cf412e22b0b" target="_top" xlink:title=" ">
<polygon fill="white" stroke="black" points="381,-49.5 381,-79.5 513,-79.5 513,-49.5 381,-49.5"/>
<text text-anchor="start" x="389" y="-67.5" font-family="Helvetica,sans-Serif" font-size="10.00">GUIWindow_PartyCreation</text>
<text text-anchor="middle" x="447" y="-56.5" font-family="Helvetica,sans-Serif" font-size="10.00">::Update</text>
</a>
</g>
</g>
<!-- Node1&#45;&gt;Node9 -->
<g id="edge9" class="edge"><title>Node1&#45;&gt;Node9</title>
<path fill="none" stroke="midnightblue" d="M558.425,-91.1231C542.522,-87.2888 525.804,-83.2582 510.325,-79.5262"/>
<polygon fill="midnightblue" stroke="midnightblue" points="557.662,-94.5394 568.204,-93.4808 559.303,-87.7344 557.662,-94.5394"/>
</g>
<!-- Node10 -->
<g id="node10" class="node"><title>Node10</title>
<g id="a_node10"><a xlink:href="../../d9/d04/class_g_u_i_window___generic_dialogue.html#ab245a574a57ec2a498aa9d5823b37bc3" target="_top" xlink:title=" ">
<polygon fill="white" stroke="black" points="375,-0.5 375,-30.5 519,-30.5 519,-0.5 375,-0.5"/>
<text text-anchor="start" x="383" y="-18.5" font-family="Helvetica,sans-Serif" font-size="10.00">GUIWindow_GenericDialogue</text>
<text text-anchor="middle" x="447" y="-7.5" font-family="Helvetica,sans-Serif" font-size="10.00">::Update</text>
</a>
</g>
</g>
<!-- Node1&#45;&gt;Node10 -->
<g id="edge10" class="edge"><title>Node1&#45;&gt;Node10</title>
<path fill="none" stroke="midnightblue" d="M600.112,-87.5714C578.224,-73.1014 547.625,-54.0848 519,-40.5 511.444,-36.9142 503.229,-33.5587 495.156,-30.5426"/>
<polygon fill="midnightblue" stroke="midnightblue" points="598.376,-90.6208 608.635,-93.2673 602.265,-84.8009 598.376,-90.6208"/>
</g>
<!-- Node3 -->
<g id="node3" class="node"><title>Node3</title>
<g id="a_node3"><a xlink:href="../../d4/d38/class_g_u_i_window.html#af4310ff80f340b9a9c9b3249564a0960" target="_top" xlink:title=" ">
<polygon fill="white" stroke="black" points="173,-156 173,-175 339,-175 339,-156 173,-156"/>
<text text-anchor="middle" x="256" y="-163" font-family="Helvetica,sans-Serif" font-size="10.00">GUIWindow::HouseDialogManager</text>
</a>
</g>
</g>
<!-- Node2&#45;&gt;Node3 -->
<g id="edge2" class="edge"><title>Node2&#45;&gt;Node3</title>
<path fill="none" stroke="midnightblue" d="M403.823,-180.26C384.79,-178.347 361.622,-176.018 339.368,-173.78"/>
<polygon fill="midnightblue" stroke="midnightblue" points="403.639,-183.759 413.939,-181.277 404.339,-176.794 403.639,-183.759"/>
</g>
<!-- Node4 -->
<g id="node4" class="node"><title>Node4</title>
<g id="a_node4"><a xlink:href="../../d8/ddd/class_g_u_i_window___house.html#a27de5de37c96fb176d5d12465e59ccc7" target="_top" xlink:title=" ">
<polygon fill="white" stroke="black" points="0,-156 0,-175 137,-175 137,-156 0,-156"/>
<text text-anchor="middle" x="68.5" y="-163" font-family="Helvetica,sans-Serif" font-size="10.00">GUIWindow_House::Update</text>
</a>
</g>
</g>
<!-- Node3&#45;&gt;Node4 -->
<g id="edge3" class="edge"><title>Node3&#45;&gt;Node4</title>
<path fill="none" stroke="midnightblue" d="M162.731,-165.5C154.114,-165.5 145.491,-165.5 137.16,-165.5"/>
<polygon fill="midnightblue" stroke="midnightblue" points="162.827,-169 172.827,-165.5 162.827,-162 162.827,-169"/>
</g>
<!-- Node5&#45;&gt;Node3 -->
<g id="edge5" class="edge"><title>Node5&#45;&gt;Node3</title>
<path fill="none" stroke="midnightblue" d="M395.067,-151.62C377.824,-153.354 358.104,-155.336 339.068,-157.25"/>
<polygon fill="midnightblue" stroke="midnightblue" points="395.855,-155.059 405.455,-150.576 395.155,-148.094 395.855,-155.059"/>
</g>
<!-- Node7 -->
<g id="node7" class="node"><title>Node7</title>
<g id="a_node7"><a xlink:href="../../db/ddc/class_g_u_i_window___save.html#a3fe17e2c92dbee96fd297fe0f738cda1" target="_top" xlink:title=" ">
<polygon fill="white" stroke="black" points="190.5,-118 190.5,-137 321.5,-137 321.5,-118 190.5,-118"/>
<text text-anchor="middle" x="256" y="-125" font-family="Helvetica,sans-Serif" font-size="10.00">GUIWindow_Save::Update</text>
</a>
</g>
</g>
<!-- Node6&#45;&gt;Node7 -->
<g id="edge7" class="edge"><title>Node6&#45;&gt;Node7</title>
<path fill="none" stroke="midnightblue" d="M389.121,-114.218C367.881,-116.353 343.611,-118.793 321.717,-120.994"/>
<polygon fill="midnightblue" stroke="midnightblue" points="389.681,-117.679 399.281,-113.197 388.981,-110.715 389.681,-117.679"/>
</g>
<!-- Node8 -->
<g id="node8" class="node"><title>Node8</title>
<g id="a_node8"><a xlink:href="../../d0/dd2/class_g_u_i_window___load.html#a8e1030a33cb887e7b805f50c0c07eff2" target="_top" xlink:title=" ">
<polygon fill="white" stroke="black" points="190.5,-80 190.5,-99 321.5,-99 321.5,-80 190.5,-80"/>
<text text-anchor="middle" x="256" y="-87" font-family="Helvetica,sans-Serif" font-size="10.00">GUIWindow_Load::Update</text>
</a>
</g>
</g>
<!-- Node6&#45;&gt;Node8 -->
<g id="edge8" class="edge"><title>Node6&#45;&gt;Node8</title>
<path fill="none" stroke="midnightblue" d="M389.121,-102.782C367.881,-100.647 343.611,-98.2069 321.717,-96.0059"/>
<polygon fill="midnightblue" stroke="midnightblue" points="388.981,-106.285 399.281,-103.803 389.681,-99.3206 388.981,-106.285"/>
</g>
</g>
</svg>
