<?xml version="1.0" encoding="UTF-8" standalone="no"?>
<!DOCTYPE svg PUBLIC "-//W3C//DTD SVG 1.1//EN"
 "http://www.w3.org/Graphics/SVG/1.1/DTD/svg11.dtd">
<!-- Generated by graphviz version 2.38.0 (20140413.2041)
 -->
<!-- Title: GUIWindow::DrawTitleText Pages: 1 -->
<svg width="763pt" height="154pt"
 viewBox="0.00 0.00 763.00 153.50" xmlns="http://www.w3.org/2000/svg" xmlns:xlink="http://www.w3.org/1999/xlink">
<g id="graph0" class="graph" transform="scale(1 1) rotate(0) translate(4 149.5)">
<title>GUIWindow::DrawTitleText</title>
<polygon fill="white" stroke="none" points="-4,4 -4,-149.5 759,-149.5 759,4 -4,4"/>
<!-- Node1 -->
<g id="node1" class="node"><title>Node1</title>
<g id="a_node1"><a xlink:title=" ">
<polygon fill="#bfbfbf" stroke="black" points="0,-57.5 0,-76.5 132,-76.5 132,-57.5 0,-57.5"/>
<text text-anchor="middle" x="66" y="-64.5" font-family="Helvetica,sans-Serif" font-size="10.00">GUIWindow::DrawTitleText</text>
</a>
</g>
</g>
<!-- Node2 -->
<g id="node2" class="node"><title>Node2</title>
<g id="a_node2"><a xlink:href="../../d4/d38/class_g_u_i_window.html#aae805c92b9242bc94cf18c7a702433f7" target="_top" xlink:title=" ">
<polygon fill="white" stroke="black" points="168,-57.5 168,-76.5 300,-76.5 300,-57.5 168,-57.5"/>
<text text-anchor="middle" x="234" y="-64.5" font-family="Helvetica,sans-Serif" font-size="10.00">GUIWindow::DrawTitleText</text>
</a>
</g>
</g>
<!-- Node1&#45;&gt;Node2 -->
<g id="edge1" class="edge"><title>Node1&#45;&gt;Node2</title>
<path fill="none" stroke="midnightblue" d="M132.131,-67C140.461,-67 149.044,-67 157.521,-67"/>
<polygon fill="midnightblue" stroke="midnightblue" points="157.784,-70.5001 167.784,-67 157.784,-63.5001 157.784,-70.5001"/>
</g>
<!-- Node3 -->
<g id="node3" class="node"><title>Node3</title>
<g id="a_node3"><a xlink:href="../../d3/d39/class_g_u_i_font.html#a9fa3825419fdf34ded3536e27bccbfdf" target="_top" xlink:title=" ">
<polygon fill="white" stroke="black" points="337.5,-115 337.5,-145 436.5,-145 436.5,-115 337.5,-115"/>
<text text-anchor="start" x="345.5" y="-133" font-family="Helvetica,sans-Serif" font-size="10.00">GUIFont::AlignText</text>
<text text-anchor="middle" x="387" y="-122" font-family="Helvetica,sans-Serif" font-size="10.00">_Center</text>
</a>
</g>
</g>
<!-- Node2&#45;&gt;Node3 -->
<g id="edge2" class="edge"><title>Node2&#45;&gt;Node3</title>
<path fill="none" stroke="midnightblue" d="M257.934,-76.5683C279.779,-85.6826 313.28,-99.66 340.54,-111.033"/>
<polygon fill="midnightblue" stroke="midnightblue" points="339.315,-114.315 349.892,-114.935 342.01,-107.854 339.315,-114.315"/>
</g>
<!-- Node6 -->
<g id="node6" class="node"><title>Node6</title>
<g id="a_node6"><a xlink:href="../../d3/d39/class_g_u_i_font.html#af8449e36ee49ae96e21f4406b398a010" target="_top" xlink:title=" ">
<polygon fill="white" stroke="black" points="484,-76.5 484,-95.5 601,-95.5 601,-76.5 484,-76.5"/>
<text text-anchor="middle" x="542.5" y="-83.5" font-family="Helvetica,sans-Serif" font-size="10.00">GUIFont::DrawTextLine</text>
</a>
</g>
</g>
<!-- Node2&#45;&gt;Node6 -->
<g id="edge5" class="edge"><title>Node2&#45;&gt;Node6</title>
<path fill="none" stroke="midnightblue" d="M300.001,-71.0294C351.07,-74.1952 421.974,-78.5906 473.741,-81.7996"/>
<polygon fill="midnightblue" stroke="midnightblue" points="473.63,-85.2993 483.827,-82.4249 474.063,-78.3127 473.63,-85.2993"/>
</g>
<!-- Node7 -->
<g id="node7" class="node"><title>Node7</title>
<g id="a_node7"><a xlink:href="../../d3/d39/class_g_u_i_font.html#acff82a6ae67e879bd76ddc52aa25fe02" target="_top" xlink:title=" ">
<polygon fill="white" stroke="black" points="474,-38.5 474,-57.5 611,-57.5 611,-38.5 474,-38.5"/>
<text text-anchor="middle" x="542.5" y="-45.5" font-family="Helvetica,sans-Serif" font-size="10.00">GUIFont::FitTextInAWindow</text>
</a>
</g>
</g>
<!-- Node2&#45;&gt;Node7 -->
<g id="edge7" class="edge"><title>Node2&#45;&gt;Node7</title>
<path fill="none" stroke="midnightblue" d="M300.001,-62.9706C347.84,-60.005 413.085,-55.9605 463.699,-52.8229"/>
<polygon fill="midnightblue" stroke="midnightblue" points="464.177,-56.3001 473.941,-52.188 463.743,-49.3135 464.177,-56.3001"/>
</g>
<!-- Node8 -->
<g id="node8" class="node"><title>Node8</title>
<g id="a_node8"><a xlink:href="../../d3/d39/class_g_u_i_font.html#a439cccf73db5fd93ffc18cbba51d07e0" target="_top" xlink:title=" ">
<polygon fill="white" stroke="black" points="336,-0.5 336,-19.5 438,-19.5 438,-0.5 336,-0.5"/>
<text text-anchor="middle" x="387" y="-7.5" font-family="Helvetica,sans-Serif" font-size="10.00">GUIFont::GetHeight</text>
</a>
</g>
</g>
<!-- Node2&#45;&gt;Node8 -->
<g id="edge9" class="edge"><title>Node2&#45;&gt;Node8</title>
<path fill="none" stroke="midnightblue" d="M260.274,-57.4595C285.099,-48.0884 323.183,-33.7124 350.932,-23.2377"/>
<polygon fill="midnightblue" stroke="midnightblue" points="352.524,-26.3778 360.644,-19.5716 350.052,-19.8288 352.524,-26.3778"/>
</g>
<!-- Node4 -->
<g id="node4" class="node"><title>Node4</title>
<g id="a_node4"><a xlink:href="../../d3/d39/class_g_u_i_font.html#abf5dc44bc1b328f80d5c7033279a4f8d" target="_top" xlink:title=" ">
<polygon fill="white" stroke="black" points="483.5,-117.5 483.5,-136.5 601.5,-136.5 601.5,-117.5 483.5,-117.5"/>
<text text-anchor="middle" x="542.5" y="-124.5" font-family="Helvetica,sans-Serif" font-size="10.00">GUIFont::GetLineWidth</text>
</a>
</g>
</g>
<!-- Node3&#45;&gt;Node4 -->
<g id="edge3" class="edge"><title>Node3&#45;&gt;Node4</title>
<path fill="none" stroke="midnightblue" d="M436.568,-129.051C448.165,-128.824 460.759,-128.578 473.064,-128.338"/>
<polygon fill="midnightblue" stroke="midnightblue" points="473.374,-131.832 483.304,-128.137 473.238,-124.834 473.374,-131.832"/>
</g>
<!-- Node5 -->
<g id="node5" class="node"><title>Node5</title>
<g id="a_node5"><a xlink:href="../../d3/d39/class_g_u_i_font.html#adfbdd225f4c0eedcbf7e82eecd29e404" target="_top" xlink:title=" ">
<polygon fill="white" stroke="black" points="647,-76.5 647,-95.5 755,-95.5 755,-76.5 647,-76.5"/>
<text text-anchor="middle" x="701" y="-83.5" font-family="Helvetica,sans-Serif" font-size="10.00">GUIFont::IsCharValid</text>
</a>
</g>
</g>
<!-- Node4&#45;&gt;Node5 -->
<g id="edge4" class="edge"><title>Node4&#45;&gt;Node5</title>
<path fill="none" stroke="midnightblue" d="M579.798,-117.491C601.841,-111.716 630.191,-104.289 653.822,-98.0977"/>
<polygon fill="midnightblue" stroke="midnightblue" points="654.842,-101.449 663.628,-95.5286 653.068,-94.6773 654.842,-101.449"/>
</g>
<!-- Node6&#45;&gt;Node5 -->
<g id="edge6" class="edge"><title>Node6&#45;&gt;Node5</title>
<path fill="none" stroke="midnightblue" d="M601.33,-86C612.846,-86 624.997,-86 636.685,-86"/>
<polygon fill="midnightblue" stroke="midnightblue" points="636.811,-89.5001 646.811,-86 636.811,-82.5001 636.811,-89.5001"/>
</g>
<!-- Node7&#45;&gt;Node5 -->
<g id="edge8" class="edge"><title>Node7&#45;&gt;Node5</title>
<path fill="none" stroke="midnightblue" d="M582.992,-57.589C603.643,-62.6035 629.114,-68.7881 651.012,-74.1053"/>
<polygon fill="midnightblue" stroke="midnightblue" points="650.249,-77.5215 660.792,-76.4799 651.901,-70.7191 650.249,-77.5215"/>
</g>
</g>
</svg>
