<?xml version="1.0" encoding="UTF-8" standalone="no"?>
<!DOCTYPE svg PUBLIC "-//W3C//DTD SVG 1.1//EN"
 "http://www.w3.org/Graphics/SVG/1.1/DTD/svg11.dtd">
<!-- Generated by graphviz version 2.38.0 (20140413.2041)
 -->
<!-- Title: Tokenize Pages: 1 -->
<!--zoomable 176 -->
<svg id="main" version="1.1" xmlns="http://www.w3.org/2000/svg" xmlns:xlink="http://www.w3.org/1999/xlink" xml:space="preserve" onload="init(evt)">
<style type="text/css"><![CDATA[
.edge:hover path { stroke: red; }
.edge:hover polygon { stroke: red; fill: red; }
]]></style>
<script type="text/javascript"><![CDATA[
var edges = document.getElementsByTagName('g');
if (edges && edges.length) {
  for (var i=0;i<edges.length;i++) {
    if (edges[i].id.substr(0,4)=='edge') {
      edges[i].setAttribute('class','edge');
    }
  }
}
]]></script>
        <defs>
                <circle id="rim" cx="0" cy="0" r="7"/>
                <circle id="rim2" cx="0" cy="0" r="3.5"/>
                <g id="zoomPlus">
                        <use xlink:href="#rim" fill="#404040">
                                <set attributeName="fill" to="#808080" begin="zoomplus.mouseover" end="zoomplus.mouseout"/>
                        </use>
                        <path d="M-4,0h8M0,-4v8" fill="none" stroke="white" stroke-width="1.5" pointer-events="none"/>
                </g>
                <g id="zoomMin">
                        <use xlink:href="#rim" fill="#404040">
                                <set attributeName="fill" to="#808080" begin="zoomminus.mouseover" end="zoomminus.mouseout"/>
                        </use>
                        <path d="M-4,0h8" fill="none" stroke="white" stroke-width="1.5" pointer-events="none"/>
                </g>
                <g id="dirArrow">
                        <path fill="none" stroke="white" stroke-width="1.5" d="M0,-3.0v7 M-2.5,-0.5L0,-3.0L2.5,-0.5"/>
                </g>
               <g id="resetDef">
                       <use xlink:href="#rim2" fill="#404040">
                               <set attributeName="fill" to="#808080" begin="reset.mouseover" end="reset.mouseout"/>
                       </use>
               </g>
        </defs>

<script type="text/javascript">
var viewWidth = 666;
var viewHeight = 176;
var sectionId = 'dynsection-0';
</script>
<script xlink:href="../../svgpan.js"/>
<svg id="graph" class="graph">
<g id="viewport">
<title>Tokenize</title>
<polygon fill="white" stroke="none" points="-4,4 -4,-171.5 662,-171.5 662,4 -4,4"/>
<!-- Node1 -->
<g id="node1" class="node"><title>Node1</title>
<g id="a_node1"><a xlink:title=" ">
<polygon fill="#bfbfbf" stroke="black" points="602,-79 602,-98 658,-98 658,-79 602,-79"/>
<text text-anchor="middle" x="630" y="-86" font-family="Helvetica,sans-Serif" font-size="10.00">Tokenize</text>
</a>
</g>
</g>
<!-- Node2 -->
<g id="node2" class="node"><title>Node2</title>
<g id="a_node2"><a xlink:href="../../d1/d36/struct_spell_stats.html#a2d44ea6964c1d7ae943e81cd89cc7b3c" target="_top" xlink:title=" ">
<polygon fill="white" stroke="black" points="459.5,-148 459.5,-167 562.5,-167 562.5,-148 459.5,-148"/>
<text text-anchor="middle" x="511" y="-155" font-family="Helvetica,sans-Serif" font-size="10.00">SpellStats::Initialize</text>
</a>
</g>
</g>
<!-- Node1&#45;&gt;Node2 -->
<g id="edge1" class="edge"><title>Node1&#45;&gt;Node2</title>
<path fill="none" stroke="midnightblue" d="M611.54,-104.99C599.488,-115.682 582.685,-129.285 566,-138.5 559.388,-142.152 551.943,-145.31 544.742,-147.945"/>
<polygon fill="midnightblue" stroke="midnightblue" points="614.024,-107.461 619.065,-98.1424 609.313,-102.284 614.024,-107.461"/>
</g>
<!-- Node5 -->
<g id="node5" class="node"><title>Node5</title>
<g id="a_node5"><a xlink:href="../../dd/d88/class_localization.html#a3c8ff9cc7f527a8daf3cd2116ab14263" target="_top" xlink:title=" ">
<polygon fill="white" stroke="black" points="456,-98.5 456,-128.5 566,-128.5 566,-98.5 456,-98.5"/>
<text text-anchor="start" x="464" y="-116.5" font-family="Helvetica,sans-Serif" font-size="10.00">Localization::Initialize</text>
<text text-anchor="middle" x="511" y="-105.5" font-family="Helvetica,sans-Serif" font-size="10.00">AttributeNames</text>
</a>
</g>
</g>
<!-- Node1&#45;&gt;Node5 -->
<g id="edge4" class="edge"><title>Node1&#45;&gt;Node5</title>
<path fill="none" stroke="midnightblue" d="M591.901,-96.4272C583.715,-98.1762 574.881,-100.064 566.176,-101.924"/>
<polygon fill="midnightblue" stroke="midnightblue" points="592.816,-99.8107 601.864,-94.2983 591.353,-92.9653 592.816,-99.8107"/>
</g>
<!-- Node9 -->
<g id="node9" class="node"><title>Node9</title>
<g id="a_node9"><a xlink:href="../../dd/d88/class_localization.html#a5b837383ba0ecb6f66e0d82a59b8fb4e" target="_top" xlink:title=" ">
<polygon fill="white" stroke="black" points="456,-49.5 456,-79.5 566,-79.5 566,-49.5 456,-49.5"/>
<text text-anchor="start" x="464" y="-67.5" font-family="Helvetica,sans-Serif" font-size="10.00">Localization::Initialize</text>
<text text-anchor="middle" x="511" y="-56.5" font-family="Helvetica,sans-Serif" font-size="10.00">ClassNames</text>
</a>
</g>
</g>
<!-- Node1&#45;&gt;Node9 -->
<g id="edge8" class="edge"><title>Node1&#45;&gt;Node9</title>
<path fill="none" stroke="midnightblue" d="M591.901,-80.8899C583.715,-79.2108 574.881,-77.3988 566.176,-75.613"/>
<polygon fill="midnightblue" stroke="midnightblue" points="591.364,-84.3527 601.864,-82.9336 592.771,-77.4955 591.364,-84.3527"/>
</g>
<!-- Node10 -->
<g id="node10" class="node"><title>Node10</title>
<g id="a_node10"><a xlink:href="../../dd/d88/class_localization.html#a01ff4edd6b043a885c53d7ac067f1631" target="_top" xlink:title=" ">
<polygon fill="white" stroke="black" points="456,-0.5 456,-30.5 566,-30.5 566,-0.5 456,-0.5"/>
<text text-anchor="start" x="464" y="-18.5" font-family="Helvetica,sans-Serif" font-size="10.00">Localization::Initialize</text>
<text text-anchor="middle" x="511" y="-7.5" font-family="Helvetica,sans-Serif" font-size="10.00">SkillNames</text>
</a>
</g>
</g>
<!-- Node1&#45;&gt;Node10 -->
<g id="edge10" class="edge"><title>Node1&#45;&gt;Node10</title>
<path fill="none" stroke="midnightblue" d="M610.803,-72.4211C598.659,-62.1881 582.033,-49.1027 566,-39.5 560.719,-36.3372 554.947,-33.3385 549.205,-30.6009"/>
<polygon fill="midnightblue" stroke="midnightblue" points="608.565,-75.1126 618.432,-78.9719 613.125,-69.8018 608.565,-75.1126"/>
</g>
<!-- Node3 -->
<g id="node3" class="node"><title>Node3</title>
<g id="a_node3"><a xlink:href="../../db/d39/struct_items_table.html#af507af2013932cb2f645c67507a11820" target="_top" xlink:title=" ">
<polygon fill="white" stroke="black" points="312.5,-148 312.5,-167 417.5,-167 417.5,-148 312.5,-148"/>
<text text-anchor="middle" x="365" y="-155" font-family="Helvetica,sans-Serif" font-size="10.00">ItemsTable::Initialize</text>
</a>
</g>
</g>
<!-- Node2&#45;&gt;Node3 -->
<g id="edge2" class="edge"><title>Node2&#45;&gt;Node3</title>
<path fill="none" stroke="midnightblue" d="M448.98,-157.5C438.591,-157.5 427.89,-157.5 417.77,-157.5"/>
<polygon fill="midnightblue" stroke="midnightblue" points="449.231,-161 459.231,-157.5 449.231,-154 449.231,-161"/>
</g>
<!-- Node4 -->
<g id="node4" class="node"><title>Node4</title>
<g id="a_node4"><a xlink:href="../../d6/d83/struct_engine.html#af028add00f4a849c60d0afa42da04a08" target="_top" xlink:title=" ">
<polygon fill="white" stroke="black" points="124,-148 124,-167 274,-167 274,-148 124,-148"/>
<text text-anchor="middle" x="199" y="-155" font-family="Helvetica,sans-Serif" font-size="10.00">Engine::SecondaryInitialization</text>
</a>
</g>
</g>
<!-- Node3&#45;&gt;Node4 -->
<g id="edge3" class="edge"><title>Node3&#45;&gt;Node4</title>
<path fill="none" stroke="midnightblue" d="M301.977,-157.5C292.847,-157.5 283.366,-157.5 274.023,-157.5"/>
<polygon fill="midnightblue" stroke="midnightblue" points="302.109,-161 312.109,-157.5 302.109,-154 302.109,-161"/>
</g>
<!-- Node6 -->
<g id="node6" class="node"><title>Node6</title>
<g id="a_node6"><a xlink:href="../../dd/d88/class_localization.html#a76effecdc8b0d509e81e75f2273265af" target="_top" xlink:title=" ">
<polygon fill="white" stroke="black" points="310,-55 310,-74 420,-74 420,-55 310,-55"/>
<text text-anchor="middle" x="365" y="-62" font-family="Helvetica,sans-Serif" font-size="10.00">Localization::Initialize</text>
</a>
</g>
</g>
<!-- Node5&#45;&gt;Node6 -->
<g id="edge5" class="edge"><title>Node5&#45;&gt;Node6</title>
<path fill="none" stroke="midnightblue" d="M456.123,-95.1667C435.05,-87.9963 411.763,-80.0722 394.14,-74.0754"/>
<polygon fill="midnightblue" stroke="midnightblue" points="455.026,-98.4905 465.62,-98.3986 457.281,-91.8637 455.026,-98.4905"/>
</g>
<!-- Node7 -->
<g id="node7" class="node"><title>Node7</title>
<g id="a_node7"><a xlink:href="../../d6/d83/struct_engine.html#ae384c8c86225ff402d4540706340f820" target="_top" xlink:title=" ">
<polygon fill="white" stroke="black" points="141.5,-55 141.5,-74 256.5,-74 256.5,-55 141.5,-55"/>
<text text-anchor="middle" x="199" y="-62" font-family="Helvetica,sans-Serif" font-size="10.00">Engine::MM7_Initialize</text>
</a>
</g>
</g>
<!-- Node6&#45;&gt;Node7 -->
<g id="edge6" class="edge"><title>Node6&#45;&gt;Node7</title>
<path fill="none" stroke="midnightblue" d="M299.658,-64.5C285.452,-64.5 270.503,-64.5 256.629,-64.5"/>
<polygon fill="midnightblue" stroke="midnightblue" points="299.846,-68.0001 309.846,-64.5 299.846,-61.0001 299.846,-68.0001"/>
</g>
<!-- Node8 -->
<g id="node8" class="node"><title>Node8</title>
<g id="a_node8"><a xlink:href="../../d6/d83/struct_engine.html#a4e6fbae6c087bbfa2b1e20f11c46460d" target="_top" xlink:title=" ">
<polygon fill="white" stroke="black" points="0,-55 0,-74 88,-74 88,-55 0,-55"/>
<text text-anchor="middle" x="44" y="-62" font-family="Helvetica,sans-Serif" font-size="10.00">Engine::Initialize</text>
</a>
</g>
</g>
<!-- Node7&#45;&gt;Node8 -->
<g id="edge7" class="edge"><title>Node7&#45;&gt;Node8</title>
<path fill="none" stroke="midnightblue" d="M131.046,-64.5C116.587,-64.5 101.665,-64.5 88.3913,-64.5"/>
<polygon fill="midnightblue" stroke="midnightblue" points="131.463,-68.0001 141.463,-64.5 131.463,-61.0001 131.463,-68.0001"/>
</g>
<!-- Node9&#45;&gt;Node6 -->
<g id="edge9" class="edge"><title>Node9&#45;&gt;Node6</title>
<path fill="none" stroke="midnightblue" d="M445.73,-64.5C437.25,-64.5 428.625,-64.5 420.333,-64.5"/>
<polygon fill="midnightblue" stroke="midnightblue" points="445.97,-68.0001 455.97,-64.5 445.97,-61.0001 445.97,-68.0001"/>
</g>
<!-- Node10&#45;&gt;Node6 -->
<g id="edge11" class="edge"><title>Node10&#45;&gt;Node6</title>
<path fill="none" stroke="midnightblue" d="M456.123,-33.8333C435.05,-41.0037 411.763,-48.9278 394.14,-54.9246"/>
<polygon fill="midnightblue" stroke="midnightblue" points="457.281,-37.1363 465.62,-30.6014 455.026,-30.5095 457.281,-37.1363"/>
</g>
</g>
</svg>
        <g id="navigator" transform="translate(0 0)" fill="#404254">
                <rect fill="#f2f5e9" fill-opacity="0.5" stroke="#606060" stroke-width=".5" x="0" y="0" width="60" height="60"/>
                <use id="zoomplus" xlink:href="#zoomPlus" x="17" y="9" onmousedown="handleZoom(evt,'in')"/>
                <use id="zoomminus" xlink:href="#zoomMin" x="42" y="9" onmousedown="handleZoom(evt,'out')"/>
                <use id="reset" xlink:href="#resetDef" x="30" y="36" onmousedown="handleReset()"/>
                <g id="arrowUp" xlink:href="#dirArrow" transform="translate(30 24)" onmousedown="handlePan(0,-1)">
                  <use xlink:href="#rim" fill="#404040">
                        <set attributeName="fill" to="#808080" begin="arrowUp.mouseover" end="arrowUp.mouseout"/>
                  </use>
                  <path fill="none" stroke="white" stroke-width="1.5" d="M0,-3.0v7 M-2.5,-0.5L0,-3.0L2.5,-0.5"/>
                </g>
                <g id="arrowRight" xlink:href="#dirArrow" transform="rotate(90) translate(36 -43)" onmousedown="handlePan(1,0)">
                  <use xlink:href="#rim" fill="#404040">
                        <set attributeName="fill" to="#808080" begin="arrowRight.mouseover" end="arrowRight.mouseout"/>
                  </use>
                  <path fill="none" stroke="white" stroke-width="1.5" d="M0,-3.0v7 M-2.5,-0.5L0,-3.0L2.5,-0.5"/>
                </g>
                <g id="arrowDown" xlink:href="#dirArrow" transform="rotate(180) translate(-30 -48)" onmousedown="handlePan(0,1)">
                  <use xlink:href="#rim" fill="#404040">
                        <set attributeName="fill" to="#808080" begin="arrowDown.mouseover" end="arrowDown.mouseout"/>
                  </use>
                  <path fill="none" stroke="white" stroke-width="1.5" d="M0,-3.0v7 M-2.5,-0.5L0,-3.0L2.5,-0.5"/>
                </g>
                <g id="arrowLeft" xlink:href="#dirArrow" transform="rotate(270) translate(-36 17)" onmousedown="handlePan(-1,0)">
                  <use xlink:href="#rim" fill="#404040">
                        <set attributeName="fill" to="#808080" begin="arrowLeft.mouseover" end="arrowLeft.mouseout"/>
                  </use>
                  <path fill="none" stroke="white" stroke-width="1.5" d="M0,-3.0v7 M-2.5,-0.5L0,-3.0L2.5,-0.5"/>
                </g>
        </g>
        <svg viewBox="0 0 15 15" width="100%" height="30px" preserveAspectRatio="xMaxYMin meet">
         <g id="arrow_out" transform="scale(0.3 0.3)">
          <a xlink:href="_localization_8cpp_ae146e86f2bb99e255b31df22155b2d79_icgraph_org.svg" target="_base">
           <rect id="button" ry="5" rx="5" y="6" x="6" height="38" width="38"
                fill="#f2f5e9" fill-opacity="0.5" stroke="#606060" stroke-width="1.0"/>
           <path id="arrow"
             d="M 11.500037,31.436501 C 11.940474,20.09759 22.043105,11.32322 32.158766,21.979434 L 37.068811,17.246167 C 37.068811,17.246167 37.088388,32 37.088388,32 L 22.160133,31.978069 C 22.160133,31.978069 26.997745,27.140456 26.997745,27.140456 C 18.528582,18.264221 13.291696,25.230495 11.500037,31.436501 z"
             style="fill:#404040;"/>
          </a>
         </g>
        </svg>
</svg>
