<?xml version="1.0" encoding="UTF-8" standalone="no"?>
<!DOCTYPE svg PUBLIC "-//W3C//DTD SVG 1.1//EN"
 "http://www.w3.org/Graphics/SVG/1.1/DTD/svg11.dtd">
<!-- Generated by graphviz version 2.38.0 (20140413.2041)
 -->
<!-- Title: GUIWindow_MapBook Pages: 1 -->
<svg width="401pt" height="431pt"
 viewBox="0.00 0.00 401.00 431.00" xmlns="http://www.w3.org/2000/svg" xmlns:xlink="http://www.w3.org/1999/xlink">
<g id="graph0" class="graph" transform="scale(1 1) rotate(0) translate(4 427)">
<title>GUIWindow_MapBook</title>
<polygon fill="white" stroke="none" points="-4,4 -4,-427 397,-427 397,4 -4,4"/>
<!-- Node1 -->
<g id="node1" class="node"><title>Node1</title>
<g id="a_node1"><a xlink:title=" ">
<polygon fill="#bfbfbf" stroke="black" points="0,-0.5 0,-19.5 114,-19.5 114,-0.5 0,-0.5"/>
<text text-anchor="middle" x="57" y="-7.5" font-family="Helvetica,sans-Serif" font-size="10.00">GUIWindow_MapBook</text>
</a>
</g>
</g>
<!-- Node2 -->
<g id="node2" class="node"><title>Node2</title>
<g id="a_node2"><a xlink:href="../../d6/d37/class_g_u_i_window___book.html" target="_top" xlink:title=" ">
<polygon fill="white" stroke="black" points="9.5,-57.5 9.5,-76.5 104.5,-76.5 104.5,-57.5 9.5,-57.5"/>
<text text-anchor="middle" x="57" y="-64.5" font-family="Helvetica,sans-Serif" font-size="10.00">GUIWindow_Book</text>
</a>
</g>
</g>
<!-- Node2&#45;&gt;Node1 -->
<g id="edge1" class="edge"><title>Node2&#45;&gt;Node1</title>
<path fill="none" stroke="midnightblue" d="M57,-47.1166C57,-37.8173 57,-27.0557 57,-19.7149"/>
<polygon fill="midnightblue" stroke="midnightblue" points="53.5001,-47.4062 57,-57.4063 60.5001,-47.4063 53.5001,-47.4062"/>
</g>
<!-- Node3 -->
<g id="node3" class="node"><title>Node3</title>
<g id="a_node3"><a xlink:href="../../d4/d38/class_g_u_i_window.html" target="_top" xlink:title=" ">
<polygon fill="white" stroke="black" points="23,-124.5 23,-143.5 91,-143.5 91,-124.5 23,-124.5"/>
<text text-anchor="middle" x="57" y="-131.5" font-family="Helvetica,sans-Serif" font-size="10.00">GUIWindow</text>
</a>
</g>
</g>
<!-- Node3&#45;&gt;Node2 -->
<g id="edge2" class="edge"><title>Node3&#45;&gt;Node2</title>
<path fill="none" stroke="midnightblue" d="M57,-114.037C57,-101.67 57,-86.1198 57,-76.6273"/>
<polygon fill="midnightblue" stroke="midnightblue" points="53.5001,-114.234 57,-124.234 60.5001,-114.234 53.5001,-114.234"/>
</g>
<!-- Node4 -->
<g id="node4" class="node"><title>Node4</title>
<g id="a_node4"><a xlink:href="../../d6/d70/class_log.html" target="_top" xlink:title=" ">
<polygon fill="white" stroke="black" points="210,-403.5 210,-422.5 242,-422.5 242,-403.5 210,-403.5"/>
<text text-anchor="middle" x="226" y="-410.5" font-family="Helvetica,sans-Serif" font-size="10.00">Log</text>
</a>
</g>
</g>
<!-- Node4&#45;&gt;Node3 -->
<g id="edge3" class="edge"><title>Node4&#45;&gt;Node3</title>
<path fill="none" stroke="#9a32cd" stroke-dasharray="5,2" d="M199.706,-407.86C150.852,-399.42 51,-378.336 51,-347 51,-347 51,-347 51,-200 51,-179.828 53.9008,-156.283 55.6684,-143.808"/>
<polygon fill="#9a32cd" stroke="#9a32cd" points="199.41,-411.358 209.85,-409.556 200.565,-404.454 199.41,-411.358"/>
<text text-anchor="middle" x="59" y="-276.5" font-family="Helvetica,sans-Serif" font-size="10.00"> log</text>
</g>
<!-- Node7 -->
<g id="node7" class="node"><title>Node7</title>
<g id="a_node7"><a xlink:href="../../d7/d42/class_image_loader.html" target="_top" xlink:title=" ">
<polygon fill="white" stroke="black" points="190,-336.5 190,-355.5 262,-355.5 262,-336.5 190,-336.5"/>
<text text-anchor="middle" x="226" y="-343.5" font-family="Helvetica,sans-Serif" font-size="10.00">ImageLoader</text>
</a>
</g>
</g>
<!-- Node4&#45;&gt;Node7 -->
<g id="edge7" class="edge"><title>Node4&#45;&gt;Node7</title>
<path fill="none" stroke="#9a32cd" stroke-dasharray="5,2" d="M226,-393.037C226,-380.67 226,-365.12 226,-355.627"/>
<polygon fill="#9a32cd" stroke="#9a32cd" points="222.5,-393.234 226,-403.234 229.5,-393.234 222.5,-393.234"/>
<text text-anchor="middle" x="234" y="-377" font-family="Helvetica,sans-Serif" font-size="10.00"> log</text>
</g>
<!-- Node8 -->
<g id="node8" class="node"><title>Node8</title>
<g id="a_node8"><a xlink:href="../../db/da4/class_o_s_window.html" target="_top" xlink:title=" ">
<polygon fill="white" stroke="black" points="234.5,-57.5 234.5,-76.5 299.5,-76.5 299.5,-57.5 234.5,-57.5"/>
<text text-anchor="middle" x="267" y="-64.5" font-family="Helvetica,sans-Serif" font-size="10.00">OSWindow</text>
</a>
</g>
</g>
<!-- Node4&#45;&gt;Node8 -->
<g id="edge9" class="edge"><title>Node4&#45;&gt;Node8</title>
<path fill="none" stroke="#9a32cd" stroke-dasharray="5,2" d="M252.259,-412.037C295.511,-410.567 377,-400.675 377,-347 377,-347 377,-347 377,-133 377,-96.7321 332.131,-80.2772 299.706,-73.121"/>
<polygon fill="#9a32cd" stroke="#9a32cd" points="252.083,-408.54 242.16,-412.251 252.232,-415.538 252.083,-408.54"/>
<text text-anchor="middle" x="385" y="-237.5" font-family="Helvetica,sans-Serif" font-size="10.00"> log</text>
</g>
<!-- Node5 -->
<g id="node5" class="node"><title>Node5</title>
<g id="a_node5"><a xlink:href="../../d7/dc5/class_mouse.html" target="_top" xlink:title=" ">
<polygon fill="white" stroke="black" points="109,-191.5 109,-210.5 155,-210.5 155,-191.5 109,-191.5"/>
<text text-anchor="middle" x="132" y="-198.5" font-family="Helvetica,sans-Serif" font-size="10.00">Mouse</text>
</a>
</g>
</g>
<!-- Node5&#45;&gt;Node3 -->
<g id="edge4" class="edge"><title>Node5&#45;&gt;Node3</title>
<path fill="none" stroke="#9a32cd" stroke-dasharray="5,2" d="M104.142,-186.531C97.5016,-182.656 90.6959,-178.083 85,-173 75.3397,-164.379 66.938,-151.925 61.9212,-143.653"/>
<polygon fill="#9a32cd" stroke="#9a32cd" points="102.522,-189.635 112.974,-191.367 105.883,-183.495 102.522,-189.635"/>
<text text-anchor="middle" x="101.5" y="-165" font-family="Helvetica,sans-Serif" font-size="10.00"> mouse</text>
</g>
<!-- Node9 -->
<g id="node9" class="node"><title>Node9</title>
<g id="a_node9"><a xlink:href="../../dc/d12/class_application_1_1_game_window_handler.html" target="_top" xlink:title=" ">
<polygon fill="white" stroke="black" points="185,-124.5 185,-143.5 349,-143.5 349,-124.5 185,-124.5"/>
<text text-anchor="middle" x="267" y="-131.5" font-family="Helvetica,sans-Serif" font-size="10.00">Application::GameWindowHandler</text>
</a>
</g>
</g>
<!-- Node5&#45;&gt;Node9 -->
<g id="edge11" class="edge"><title>Node5&#45;&gt;Node9</title>
<path fill="none" stroke="#9a32cd" stroke-dasharray="5,2" d="M159.117,-186.944C185.856,-174.069 225.966,-154.757 248.999,-143.667"/>
<polygon fill="#9a32cd" stroke="#9a32cd" points="157.419,-183.877 149.927,-191.369 160.455,-190.184 157.419,-183.877"/>
<text text-anchor="middle" x="224.5" y="-165" font-family="Helvetica,sans-Serif" font-size="10.00"> mouse</text>
</g>
<!-- Node6 -->
<g id="node6" class="node"><title>Node6</title>
<g id="a_node6"><a xlink:href="../../de/d73/class_image.html" target="_top" xlink:title=" ">
<polygon fill="white" stroke="black" points="204.5,-269.5 204.5,-288.5 247.5,-288.5 247.5,-269.5 204.5,-269.5"/>
<text text-anchor="middle" x="226" y="-276.5" font-family="Helvetica,sans-Serif" font-size="10.00">Image</text>
</a>
</g>
</g>
<!-- Node6&#45;&gt;Node5 -->
<g id="edge5" class="edge"><title>Node6&#45;&gt;Node5</title>
<path fill="none" stroke="#9a32cd" stroke-dasharray="5,2" d="M221.5,-259.544C218.173,-249.353 212.679,-237.147 204,-229 190.568,-216.391 170.695,-209.53 155.228,-205.885"/>
<polygon fill="#9a32cd" stroke="#9a32cd" points="218.136,-260.511 224.226,-269.181 224.872,-258.606 218.136,-260.511"/>
<text text-anchor="middle" x="246.5" y="-243" font-family="Helvetica,sans-Serif" font-size="10.00"> cursor_img</text>
<text text-anchor="middle" x="246.5" y="-232" font-family="Helvetica,sans-Serif" font-size="10.00">pPickedItem</text>
</g>
<!-- Node7&#45;&gt;Node6 -->
<g id="edge6" class="edge"><title>Node7&#45;&gt;Node6</title>
<path fill="none" stroke="#9a32cd" stroke-dasharray="5,2" d="M226,-326.037C226,-313.67 226,-298.12 226,-288.627"/>
<polygon fill="#9a32cd" stroke="#9a32cd" points="222.5,-326.234 226,-336.234 229.5,-326.234 222.5,-326.234"/>
<text text-anchor="middle" x="241" y="-310" font-family="Helvetica,sans-Serif" font-size="10.00"> loader</text>
</g>
<!-- Node8&#45;&gt;Node5 -->
<g id="edge8" class="edge"><title>Node8&#45;&gt;Node5</title>
<path fill="none" stroke="#9a32cd" stroke-dasharray="5,2" d="M224.435,-75.626C196.162,-83.0212 160.735,-97.2284 141,-124 126.179,-144.106 128.272,-175.669 130.43,-191.018"/>
<polygon fill="#9a32cd" stroke="#9a32cd" points="225.586,-78.9486 234.485,-73.199 223.943,-72.1442 225.586,-78.9486"/>
<text text-anchor="middle" x="158.5" y="-131.5" font-family="Helvetica,sans-Serif" font-size="10.00"> window</text>
</g>
<!-- Node9&#45;&gt;Node8 -->
<g id="edge10" class="edge"><title>Node9&#45;&gt;Node8</title>
<path fill="none" stroke="#9a32cd" stroke-dasharray="5,2" d="M267,-114.037C267,-101.67 267,-86.1198 267,-76.6273"/>
<polygon fill="#9a32cd" stroke="#9a32cd" points="263.5,-114.234 267,-124.234 270.5,-114.234 263.5,-114.234"/>
<text text-anchor="middle" x="299.5" y="-98" font-family="Helvetica,sans-Serif" font-size="10.00"> gameCallback</text>
</g>
<!-- Node10 -->
<g id="node10" class="node"><title>Node10</title>
<g id="a_node10"><a xlink:href="../../d8/dc8/struct_point.html" target="_top" xlink:title=" ">
<polygon fill="white" stroke="black" points="98.5,-269.5 98.5,-288.5 137.5,-288.5 137.5,-269.5 98.5,-269.5"/>
<text text-anchor="middle" x="118" y="-276.5" font-family="Helvetica,sans-Serif" font-size="10.00">Point</text>
</a>
</g>
</g>
<!-- Node10&#45;&gt;Node5 -->
<g id="edge12" class="edge"><title>Node10&#45;&gt;Node5</title>
<path fill="none" stroke="#9a32cd" stroke-dasharray="5,2" d="M116.524,-259.151C116.272,-249.942 116.666,-238.767 119,-229 120.548,-222.523 123.798,-215.773 126.661,-210.642"/>
<polygon fill="#9a32cd" stroke="#9a32cd" points="113.032,-259.387 117.067,-269.183 120.022,-259.009 113.032,-259.387"/>
<text text-anchor="middle" x="161.5" y="-237.5" font-family="Helvetica,sans-Serif" font-size="10.00"> pCursorBitmapPos</text>
</g>
</g>
</svg>
