<?xml version="1.0" encoding="UTF-8" standalone="no"?>
<!DOCTYPE svg PUBLIC "-//W3C//DTD SVG 1.1//EN"
 "http://www.w3.org/Graphics/SVG/1.1/DTD/svg11.dtd">
<!-- Generated by graphviz version 2.38.0 (20140413.2041)
 -->
<!-- Title: GUIWindow_Inventory::Update Pages: 1 -->
<svg width="964pt" height="561pt"
 viewBox="0.00 0.00 964.00 560.71" xmlns="http://www.w3.org/2000/svg" xmlns:xlink="http://www.w3.org/1999/xlink">
<g id="graph0" class="graph" transform="scale(1 1) rotate(0) translate(4 556.708)">
<title>GUIWindow_Inventory::Update</title>
<polygon fill="white" stroke="none" points="-4,4 -4,-556.708 960,-556.708 960,4 -4,4"/>
<!-- Node1 -->
<g id="node1" class="node"><title>Node1</title>
<g id="a_node1"><a xlink:title=" ">
<polygon fill="#bfbfbf" stroke="black" points="0,-213.5 0,-243.5 111,-243.5 111,-213.5 0,-213.5"/>
<text text-anchor="start" x="8" y="-231.5" font-family="Helvetica,sans-Serif" font-size="10.00">GUIWindow_Inventory</text>
<text text-anchor="middle" x="55.5" y="-220.5" font-family="Helvetica,sans-Serif" font-size="10.00">::Update</text>
</a>
</g>
</g>
<!-- Node2 -->
<g id="node2" class="node"><title>Node2</title>
<g id="a_node2"><a xlink:href="../../d4/d38/class_g_u_i_window.html#ac0c28c954e40c6f2c7feb7022ece8052" target="_top" xlink:title=" ">
<polygon fill="white" stroke="black" points="147,-376 147,-395 299,-395 299,-376 147,-376"/>
<text text-anchor="middle" x="223" y="-383" font-family="Helvetica,sans-Serif" font-size="10.00">GUIWindow::DrawMessageBox</text>
</a>
</g>
</g>
<!-- Node1&#45;&gt;Node2 -->
<g id="edge1" class="edge"><title>Node1&#45;&gt;Node2</title>
<path fill="none" stroke="midnightblue" d="M72.3688,-243.554C103.396,-272.987 171.891,-337.965 204.319,-368.727"/>
<polygon fill="midnightblue" stroke="midnightblue" points="202.077,-371.425 211.741,-375.768 206.895,-366.346 202.077,-371.425"/>
</g>
<!-- Node18 -->
<g id="node18" class="node"><title>Node18</title>
<g id="a_node18"><a xlink:href="../../d4/d38/class_g_u_i_window.html#a009aad05d919c42979eebb93d8b4354c" target="_top" xlink:title=" ">
<polygon fill="white" stroke="black" points="166,-436 166,-455 280,-455 280,-436 166,-436"/>
<text text-anchor="middle" x="223" y="-443" font-family="Helvetica,sans-Serif" font-size="10.00">GUIWindow::DrawText</text>
</a>
</g>
</g>
<!-- Node1&#45;&gt;Node18 -->
<g id="edge24" class="edge"><title>Node1&#45;&gt;Node18</title>
<path fill="none" stroke="midnightblue" d="M60.863,-243.509C71.059,-276.349 99.269,-355.544 147,-404.5 158.195,-415.982 173.302,-425.076 187.024,-431.752"/>
<polygon fill="midnightblue" stroke="midnightblue" points="185.69,-434.991 196.238,-435.987 188.614,-428.63 185.69,-434.991"/>
</g>
<!-- Node20 -->
<g id="node20" class="node"><title>Node20</title>
<g id="a_node20"><a xlink:href="../../d4/d38/class_g_u_i_window.html#aaf2e6a2022904abc2d253e9d4acd5d99" target="_top" xlink:title=" ">
<polygon fill="white" stroke="black" points="168.5,-243 168.5,-262 277.5,-262 277.5,-243 168.5,-243"/>
<text text-anchor="middle" x="223" y="-250" font-family="Helvetica,sans-Serif" font-size="10.00">GUIWindow::Release</text>
</a>
</g>
</g>
<!-- Node1&#45;&gt;Node20 -->
<g id="edge28" class="edge"><title>Node1&#45;&gt;Node20</title>
<path fill="none" stroke="midnightblue" d="M111.15,-236.425C126.21,-238.609 142.68,-240.997 158.209,-243.249"/>
<polygon fill="midnightblue" stroke="midnightblue" points="157.855,-246.734 168.253,-244.706 158.859,-239.807 157.855,-246.734"/>
</g>
<!-- Node24 -->
<g id="node24" class="node"><title>Node24</title>
<g id="a_node24"><a xlink:href="../../d7/d9c/struct_item_gen.html#a1e9fb8b4d5efcc3dc012888383570b49" target="_top" xlink:title=" ">
<polygon fill="white" stroke="black" points="180.5,-195 180.5,-214 265.5,-214 265.5,-195 180.5,-195"/>
<text text-anchor="middle" x="223" y="-202" font-family="Helvetica,sans-Serif" font-size="10.00">ItemGen::Reset</text>
</a>
</g>
</g>
<!-- Node1&#45;&gt;Node24 -->
<g id="edge32" class="edge"><title>Node1&#45;&gt;Node24</title>
<path fill="none" stroke="midnightblue" d="M111.15,-220.575C130.136,-217.822 151.362,-214.744 170.119,-212.024"/>
<polygon fill="midnightblue" stroke="midnightblue" points="170.861,-215.453 180.255,-210.554 169.856,-208.525 170.861,-215.453"/>
</g>
<!-- Node26 -->
<g id="node26" class="node"><title>Node26</title>
<g id="a_node26"><a xlink:href="../../d8/da1/struct_timer.html#ad3b4e386f8ebb885fa2ef6fcac8d9ca3" target="_top" xlink:title=" ">
<polygon fill="white" stroke="black" points="181.5,-148 181.5,-167 264.5,-167 264.5,-148 181.5,-148"/>
<text text-anchor="middle" x="223" y="-155" font-family="Helvetica,sans-Serif" font-size="10.00">Timer::Resume</text>
</a>
</g>
</g>
<!-- Node1&#45;&gt;Node26 -->
<g id="edge34" class="edge"><title>Node1&#45;&gt;Node26</title>
<path fill="none" stroke="midnightblue" d="M86.7828,-213.308C104.224,-204.762 126.656,-194.112 147,-185.5 159.321,-180.284 172.981,-175.032 185.231,-170.508"/>
<polygon fill="midnightblue" stroke="midnightblue" points="186.507,-173.768 194.7,-167.051 184.106,-167.193 186.507,-173.768"/>
</g>
<!-- Node31 -->
<g id="node31" class="node"><title>Node31</title>
<g id="a_node31"><a xlink:href="../../d4/d59/_actor_8cpp.html#a57b7705f43a1e465a9aef921d9d68b05" target="_top" xlink:title=" ">
<polygon fill="white" stroke="black" points="188.5,-55 188.5,-74 257.5,-74 257.5,-55 188.5,-55"/>
<text text-anchor="middle" x="223" y="-62" font-family="Helvetica,sans-Serif" font-size="10.00">SpawnActor</text>
</a>
</g>
</g>
<!-- Node1&#45;&gt;Node31 -->
<g id="edge39" class="edge"><title>Node1&#45;&gt;Node31</title>
<path fill="none" stroke="midnightblue" d="M71.8541,-213.194C89.8422,-195.271 120.552,-164.698 147,-138.5 166.92,-118.768 189.873,-96.136 205.087,-81.1505"/>
<polygon fill="midnightblue" stroke="midnightblue" points="207.61,-83.5775 212.279,-74.0669 202.698,-78.5899 207.61,-83.5775"/>
</g>
<!-- Node3 -->
<g id="node3" class="node"><title>Node3</title>
<g id="a_node3"><a xlink:href="../../d3/d39/class_g_u_i_font.html#a08b74df638b5c055d9f18f5ce4d8ee11" target="_top" xlink:title=" ">
<polygon fill="white" stroke="black" points="346,-518 346,-537 471,-537 471,-518 346,-518"/>
<text text-anchor="middle" x="408.5" y="-525" font-family="Helvetica,sans-Serif" font-size="10.00">GUIFont::CalcTextHeight</text>
</a>
</g>
</g>
<!-- Node2&#45;&gt;Node3 -->
<g id="edge2" class="edge"><title>Node2&#45;&gt;Node3</title>
<path fill="none" stroke="midnightblue" d="M250.785,-395.031C266.531,-401.772 285.862,-412.172 299,-426.5 325.9,-455.836 304.73,-482.655 335,-508.5 336.991,-510.2 339.118,-511.751 341.346,-513.164"/>
<polygon fill="midnightblue" stroke="midnightblue" points="339.898,-516.359 350.371,-517.966 343.186,-510.179 339.898,-516.359"/>
</g>
<!-- Node6 -->
<g id="node6" class="node"><title>Node6</title>
<g id="a_node6"><a xlink:href="../../d5/d0b/_g_u_i_window_8h.html#ae63663fb59f9435405c4bbbb6cc18dfe" target="_top" xlink:title=" ">
<polygon fill="white" stroke="black" points="358,-376 358,-395 459,-395 459,-376 358,-376"/>
<text text-anchor="middle" x="408.5" y="-383" font-family="Helvetica,sans-Serif" font-size="10.00">DrawPopupWindow</text>
</a>
</g>
</g>
<!-- Node2&#45;&gt;Node6 -->
<g id="edge6" class="edge"><title>Node2&#45;&gt;Node6</title>
<path fill="none" stroke="midnightblue" d="M299.166,-385.5C315.25,-385.5 332.037,-385.5 347.46,-385.5"/>
<polygon fill="midnightblue" stroke="midnightblue" points="347.895,-389 357.895,-385.5 347.895,-382 347.895,-389"/>
</g>
<!-- Node12 -->
<g id="node12" class="node"><title>Node12</title>
<g id="a_node12"><a xlink:href="../../d4/d38/class_g_u_i_window.html#aae805c92b9242bc94cf18c7a702433f7" target="_top" xlink:title=" ">
<polygon fill="white" stroke="black" points="342.5,-414 342.5,-433 474.5,-433 474.5,-414 342.5,-414"/>
<text text-anchor="middle" x="408.5" y="-421" font-family="Helvetica,sans-Serif" font-size="10.00">GUIWindow::DrawTitleText</text>
</a>
</g>
</g>
<!-- Node2&#45;&gt;Node12 -->
<g id="edge15" class="edge"><title>Node2&#45;&gt;Node12</title>
<path fill="none" stroke="midnightblue" d="M270.305,-395.089C294.956,-400.194 325.463,-406.511 351.445,-411.892"/>
<polygon fill="midnightblue" stroke="midnightblue" points="351.026,-415.379 361.528,-413.98 352.446,-408.525 351.026,-415.379"/>
</g>
<!-- Node17 -->
<g id="node17" class="node"><title>Node17</title>
<g id="a_node17"><a xlink:href="../../d7/dc5/class_mouse.html#a8900246ba042b33090b8dc8e377fbb3a" target="_top" xlink:title=" ">
<polygon fill="white" stroke="black" points="352,-338 352,-357 465,-357 465,-338 352,-338"/>
<text text-anchor="middle" x="408.5" y="-345" font-family="Helvetica,sans-Serif" font-size="10.00">Mouse::GetCursorPos</text>
</a>
</g>
</g>
<!-- Node2&#45;&gt;Node17 -->
<g id="edge23" class="edge"><title>Node2&#45;&gt;Node17</title>
<path fill="none" stroke="midnightblue" d="M270.305,-375.911C294.956,-370.806 325.463,-364.489 351.445,-359.108"/>
<polygon fill="midnightblue" stroke="midnightblue" points="352.446,-362.475 361.528,-357.02 351.026,-355.621 352.446,-362.475"/>
</g>
<!-- Node4 -->
<g id="node4" class="node"><title>Node4</title>
<g id="a_node4"><a xlink:href="../../d3/d39/class_g_u_i_font.html#acff82a6ae67e879bd76ddc52aa25fe02" target="_top" xlink:title=" ">
<polygon fill="white" stroke="black" points="518,-518 518,-537 655,-537 655,-518 518,-518"/>
<text text-anchor="middle" x="586.5" y="-525" font-family="Helvetica,sans-Serif" font-size="10.00">GUIFont::FitTextInAWindow</text>
</a>
</g>
</g>
<!-- Node3&#45;&gt;Node4 -->
<g id="edge3" class="edge"><title>Node3&#45;&gt;Node4</title>
<path fill="none" stroke="midnightblue" d="M471.056,-527.5C482.905,-527.5 495.459,-527.5 507.743,-527.5"/>
<polygon fill="midnightblue" stroke="midnightblue" points="507.977,-531 517.977,-527.5 507.977,-524 507.977,-531"/>
</g>
<!-- Node5 -->
<g id="node5" class="node"><title>Node5</title>
<g id="a_node5"><a xlink:href="../../d3/d39/class_g_u_i_font.html#adfbdd225f4c0eedcbf7e82eecd29e404" target="_top" xlink:title=" ">
<polygon fill="white" stroke="black" points="848,-499 848,-518 956,-518 956,-499 848,-499"/>
<text text-anchor="middle" x="902" y="-506" font-family="Helvetica,sans-Serif" font-size="10.00">GUIFont::IsCharValid</text>
</a>
</g>
</g>
<!-- Node3&#45;&gt;Node5 -->
<g id="edge5" class="edge"><title>Node3&#45;&gt;Node5</title>
<path fill="none" stroke="midnightblue" d="M453.615,-537.012C473.227,-540.777 496.662,-544.646 518,-546.5 648.369,-557.829 683.07,-552.89 812,-530.5 826.764,-527.936 842.706,-524.282 856.963,-520.687"/>
<polygon fill="midnightblue" stroke="midnightblue" points="858.197,-523.984 867.005,-518.096 856.448,-517.206 858.197,-523.984"/>
</g>
<!-- Node4&#45;&gt;Node5 -->
<g id="edge4" class="edge"><title>Node4&#45;&gt;Node5</title>
<path fill="none" stroke="midnightblue" d="M655.139,-523.401C709.139,-520.128 784.268,-515.575 837.225,-512.365"/>
<polygon fill="midnightblue" stroke="midnightblue" points="837.738,-515.841 847.508,-511.742 837.315,-508.853 837.738,-515.841"/>
</g>
<!-- Node7 -->
<g id="node7" class="node"><title>Node7</title>
<g id="a_node7"><a xlink:href="../../de/d73/class_image.html#a5093fa64598a4d7e0c70d43fe67e35cd" target="_top" xlink:title=" ">
<polygon fill="white" stroke="black" points="540.5,-316 540.5,-335 632.5,-335 632.5,-316 540.5,-316"/>
<text text-anchor="middle" x="586.5" y="-323" font-family="Helvetica,sans-Serif" font-size="10.00">Image::GetHeight</text>
</a>
</g>
</g>
<!-- Node6&#45;&gt;Node7 -->
<g id="edge7" class="edge"><title>Node6&#45;&gt;Node7</title>
<path fill="none" stroke="midnightblue" d="M454.278,-375.957C463.609,-373.364 473.26,-370.22 482,-366.5 499.253,-359.156 500.814,-352 518,-344.5 523.361,-342.161 529.087,-340.03 534.853,-338.112"/>
<polygon fill="midnightblue" stroke="midnightblue" points="536.035,-341.41 544.536,-335.087 533.947,-334.729 536.035,-341.41"/>
</g>
<!-- Node11 -->
<g id="node11" class="node"><title>Node11</title>
<g id="a_node11"><a xlink:href="../../de/d73/class_image.html#a9241b1c53141c78273e4060a91634d47" target="_top" xlink:title=" ">
<polygon fill="white" stroke="black" points="541.5,-278 541.5,-297 631.5,-297 631.5,-278 541.5,-278"/>
<text text-anchor="middle" x="586.5" y="-285" font-family="Helvetica,sans-Serif" font-size="10.00">Image::GetWidth</text>
</a>
</g>
</g>
<!-- Node6&#45;&gt;Node11 -->
<g id="edge12" class="edge"><title>Node6&#45;&gt;Node11</title>
<path fill="none" stroke="midnightblue" d="M459.051,-378.025C467.228,-375.296 475.233,-371.574 482,-366.5 506.882,-347.845 493.288,-325.379 518,-306.5 522.186,-303.302 526.884,-300.643 531.803,-298.431"/>
<polygon fill="midnightblue" stroke="midnightblue" points="533.388,-301.571 541.457,-294.705 530.868,-295.041 533.388,-301.571"/>
</g>
<!-- Node8 -->
<g id="node8" class="node"><title>Node8</title>
<g id="a_node8"><a xlink:href="../../d9/d30/_s_d_l__assert_8h.html#afedcea68cf85ee469ab1ea390bbe0abb" target="_top" xlink:title=" ">
<polygon fill="white" stroke="black" points="863.5,-316 863.5,-335 940.5,-335 940.5,-316 863.5,-316"/>
<text text-anchor="middle" x="902" y="-323" font-family="Helvetica,sans-Serif" font-size="10.00">__debugbreak</text>
</a>
</g>
</g>
<!-- Node7&#45;&gt;Node8 -->
<g id="edge8" class="edge"><title>Node7&#45;&gt;Node8</title>
<path fill="none" stroke="midnightblue" d="M632.751,-325.5C691.297,-325.5 792.869,-325.5 852.813,-325.5"/>
<polygon fill="midnightblue" stroke="midnightblue" points="853.142,-329 863.142,-325.5 853.142,-322 853.142,-329"/>
</g>
<!-- Node9 -->
<g id="node9" class="node"><title>Node9</title>
<g id="a_node9"><a xlink:href="../../de/d73/class_image.html#a9b786ec61110907b38dda728bd281c73" target="_top" xlink:title=" ">
<polygon fill="white" stroke="black" points="693.5,-297 693.5,-316 809.5,-316 809.5,-297 693.5,-297"/>
<text text-anchor="middle" x="751.5" y="-304" font-family="Helvetica,sans-Serif" font-size="10.00">Image::LoadImageData</text>
</a>
</g>
</g>
<!-- Node7&#45;&gt;Node9 -->
<g id="edge9" class="edge"><title>Node7&#45;&gt;Node9</title>
<path fill="none" stroke="midnightblue" d="M632.905,-320.207C648.428,-318.398 666.142,-316.333 683.027,-314.365"/>
<polygon fill="midnightblue" stroke="midnightblue" points="683.879,-317.789 693.406,-313.155 683.068,-310.837 683.879,-317.789"/>
</g>
<!-- Node9&#45;&gt;Node8 -->
<g id="edge10" class="edge"><title>Node9&#45;&gt;Node8</title>
<path fill="none" stroke="midnightblue" d="M809.914,-313.846C824.222,-315.677 839.411,-317.62 853.2,-319.384"/>
<polygon fill="midnightblue" stroke="midnightblue" points="853.071,-322.896 863.434,-320.694 853.959,-315.953 853.071,-322.896"/>
</g>
<!-- Node10 -->
<g id="node10" class="node"><title>Node10</title>
<g id="a_node10"><a xlink:href="../../d7/d42/class_image_loader.html#ad346c7973ae6f1d84a8c1fc655661319" target="_top" xlink:title=" ">
<polygon fill="white" stroke="black" points="852.5,-278 852.5,-297 951.5,-297 951.5,-278 852.5,-278"/>
<text text-anchor="middle" x="902" y="-285" font-family="Helvetica,sans-Serif" font-size="10.00">ImageLoader::Load</text>
</a>
</g>
</g>
<!-- Node9&#45;&gt;Node10 -->
<g id="edge11" class="edge"><title>Node9&#45;&gt;Node10</title>
<path fill="none" stroke="midnightblue" d="M809.914,-299.154C820.552,-297.793 831.677,-296.37 842.352,-295.004"/>
<polygon fill="midnightblue" stroke="midnightblue" points="842.942,-298.457 852.417,-293.716 842.054,-291.513 842.942,-298.457"/>
</g>
<!-- Node11&#45;&gt;Node8 -->
<g id="edge13" class="edge"><title>Node11&#45;&gt;Node8</title>
<path fill="none" stroke="midnightblue" d="M631.712,-281.313C677.544,-276.327 750.901,-272.366 812,-287.5 829.561,-291.85 831.443,-299.207 848,-306.5 852.688,-308.565 857.678,-310.581 862.649,-312.481"/>
<polygon fill="midnightblue" stroke="midnightblue" points="861.509,-315.791 872.103,-315.975 863.936,-309.225 861.509,-315.791"/>
</g>
<!-- Node11&#45;&gt;Node9 -->
<g id="edge14" class="edge"><title>Node11&#45;&gt;Node9</title>
<path fill="none" stroke="midnightblue" d="M631.61,-292.642C647.531,-294.497 665.882,-296.637 683.328,-298.67"/>
<polygon fill="midnightblue" stroke="midnightblue" points="683.133,-302.171 693.471,-299.852 683.943,-295.218 683.133,-302.171"/>
</g>
<!-- Node12&#45;&gt;Node4 -->
<g id="edge21" class="edge"><title>Node12&#45;&gt;Node4</title>
<path fill="none" stroke="midnightblue" d="M425.742,-433.098C456.521,-451.285 523.535,-490.885 560.233,-512.569"/>
<polygon fill="midnightblue" stroke="midnightblue" points="558.907,-515.851 569.297,-517.926 562.468,-509.825 558.907,-515.851"/>
</g>
<!-- Node13 -->
<g id="node13" class="node"><title>Node13</title>
<g id="a_node13"><a xlink:href="../../d3/d39/class_g_u_i_font.html#a9fa3825419fdf34ded3536e27bccbfdf" target="_top" xlink:title=" ">
<polygon fill="white" stroke="black" points="537,-430.5 537,-460.5 636,-460.5 636,-430.5 537,-430.5"/>
<text text-anchor="start" x="545" y="-448.5" font-family="Helvetica,sans-Serif" font-size="10.00">GUIFont::AlignText</text>
<text text-anchor="middle" x="586.5" y="-437.5" font-family="Helvetica,sans-Serif" font-size="10.00">_Center</text>
</a>
</g>
</g>
<!-- Node12&#45;&gt;Node13 -->
<g id="edge16" class="edge"><title>Node12&#45;&gt;Node13</title>
<path fill="none" stroke="midnightblue" d="M474.536,-431.629C491.646,-433.768 510.002,-436.063 526.76,-438.157"/>
<polygon fill="midnightblue" stroke="midnightblue" points="526.605,-441.665 536.962,-439.433 527.474,-434.719 526.605,-441.665"/>
</g>
<!-- Node15 -->
<g id="node15" class="node"><title>Node15</title>
<g id="a_node15"><a xlink:href="../../d3/d39/class_g_u_i_font.html#af8449e36ee49ae96e21f4406b398a010" target="_top" xlink:title=" ">
<polygon fill="white" stroke="black" points="693,-417 693,-436 810,-436 810,-417 693,-417"/>
<text text-anchor="middle" x="751.5" y="-424" font-family="Helvetica,sans-Serif" font-size="10.00">GUIFont::DrawTextLine</text>
</a>
</g>
</g>
<!-- Node12&#45;&gt;Node15 -->
<g id="edge19" class="edge"><title>Node12&#45;&gt;Node15</title>
<path fill="none" stroke="midnightblue" d="M474.643,-421.16C524.128,-419.756 593.864,-418.581 655,-420.5 664.023,-420.783 673.519,-421.217 682.881,-421.723"/>
<polygon fill="midnightblue" stroke="midnightblue" points="682.774,-425.223 692.957,-422.299 683.173,-418.234 682.774,-425.223"/>
</g>
<!-- Node16 -->
<g id="node16" class="node"><title>Node16</title>
<g id="a_node16"><a xlink:href="../../d3/d39/class_g_u_i_font.html#a439cccf73db5fd93ffc18cbba51d07e0" target="_top" xlink:title=" ">
<polygon fill="white" stroke="black" points="535.5,-354 535.5,-373 637.5,-373 637.5,-354 535.5,-354"/>
<text text-anchor="middle" x="586.5" y="-361" font-family="Helvetica,sans-Serif" font-size="10.00">GUIFont::GetHeight</text>
</a>
</g>
</g>
<!-- Node12&#45;&gt;Node16 -->
<g id="edge22" class="edge"><title>Node12&#45;&gt;Node16</title>
<path fill="none" stroke="midnightblue" d="M451.313,-413.951C461.468,-411.246 472.217,-408.057 482,-404.5 498.629,-398.454 501.644,-394.25 518,-387.5 527.301,-383.662 537.464,-379.853 547.016,-376.437"/>
<polygon fill="midnightblue" stroke="midnightblue" points="548.414,-379.656 556.687,-373.037 546.092,-373.052 548.414,-379.656"/>
</g>
<!-- Node14 -->
<g id="node14" class="node"><title>Node14</title>
<g id="a_node14"><a xlink:href="../../d3/d39/class_g_u_i_font.html#abf5dc44bc1b328f80d5c7033279a4f8d" target="_top" xlink:title=" ">
<polygon fill="white" stroke="black" points="692.5,-480 692.5,-499 810.5,-499 810.5,-480 692.5,-480"/>
<text text-anchor="middle" x="751.5" y="-487" font-family="Helvetica,sans-Serif" font-size="10.00">GUIFont::GetLineWidth</text>
</a>
</g>
</g>
<!-- Node13&#45;&gt;Node14 -->
<g id="edge17" class="edge"><title>Node13&#45;&gt;Node14</title>
<path fill="none" stroke="midnightblue" d="M636.405,-458.701C658.263,-464.602 683.865,-471.513 705.273,-477.291"/>
<polygon fill="midnightblue" stroke="midnightblue" points="704.53,-480.716 715.097,-479.943 706.355,-473.958 704.53,-480.716"/>
</g>
<!-- Node14&#45;&gt;Node5 -->
<g id="edge18" class="edge"><title>Node14&#45;&gt;Node5</title>
<path fill="none" stroke="midnightblue" d="M810.765,-496.955C819.621,-498.088 828.795,-499.262 837.75,-500.407"/>
<polygon fill="midnightblue" stroke="midnightblue" points="837.377,-503.888 847.74,-501.686 838.265,-496.945 837.377,-503.888"/>
</g>
<!-- Node15&#45;&gt;Node5 -->
<g id="edge20" class="edge"><title>Node15&#45;&gt;Node5</title>
<path fill="none" stroke="midnightblue" d="M769.825,-436.067C795.646,-450.324 844.418,-477.256 874.667,-493.959"/>
<polygon fill="midnightblue" stroke="midnightblue" points="873.339,-497.224 883.785,-498.994 876.723,-491.096 873.339,-497.224"/>
</g>
<!-- Node19 -->
<g id="node19" class="node"><title>Node19</title>
<g id="a_node19"><a xlink:href="../../d3/d39/class_g_u_i_font.html#abea1624c5890b044ef1368a7ca051b3e" target="_top" xlink:title=" ">
<polygon fill="white" stroke="black" points="359,-480 359,-499 458,-499 458,-480 359,-480"/>
<text text-anchor="middle" x="408.5" y="-487" font-family="Helvetica,sans-Serif" font-size="10.00">GUIFont::DrawText</text>
</a>
</g>
</g>
<!-- Node18&#45;&gt;Node19 -->
<g id="edge25" class="edge"><title>Node18&#45;&gt;Node19</title>
<path fill="none" stroke="midnightblue" d="M263.817,-455.047C291.35,-461.649 328.186,-470.482 357.667,-477.551"/>
<polygon fill="midnightblue" stroke="midnightblue" points="357.22,-481.043 367.761,-479.971 358.853,-474.236 357.22,-481.043"/>
</g>
<!-- Node19&#45;&gt;Node4 -->
<g id="edge26" class="edge"><title>Node19&#45;&gt;Node4</title>
<path fill="none" stroke="midnightblue" d="M453.912,-499.089C477.451,-504.171 506.557,-510.455 531.405,-515.82"/>
<polygon fill="midnightblue" stroke="midnightblue" points="530.894,-519.291 541.407,-517.98 532.371,-512.448 530.894,-519.291"/>
</g>
<!-- Node19&#45;&gt;Node14 -->
<g id="edge27" class="edge"><title>Node19&#45;&gt;Node14</title>
<path fill="none" stroke="midnightblue" d="M458.357,-489.5C517.005,-489.5 615.72,-489.5 681.969,-489.5"/>
<polygon fill="midnightblue" stroke="midnightblue" points="682.311,-493 692.311,-489.5 682.311,-486 682.311,-493"/>
</g>
<!-- Node21 -->
<g id="node21" class="node"><title>Node21</title>
<g id="a_node21"><a xlink:href="../../d4/d38/class_g_u_i_window.html#a7c8bcc74ea8cc23cc666aa869e5a5d7d" target="_top" xlink:title=" ">
<polygon fill="white" stroke="black" points="341,-300 341,-319 476,-319 476,-300 341,-300"/>
<text text-anchor="middle" x="408.5" y="-307" font-family="Helvetica,sans-Serif" font-size="10.00">GUIWindow::DeleteButtons</text>
</a>
</g>
</g>
<!-- Node20&#45;&gt;Node21 -->
<g id="edge29" class="edge"><title>Node20&#45;&gt;Node21</title>
<path fill="none" stroke="midnightblue" d="M250.288,-262.11C272.668,-270.144 305.75,-281.673 335,-290.5 342.793,-292.852 351.108,-295.189 359.223,-297.378"/>
<polygon fill="midnightblue" stroke="midnightblue" points="358.411,-300.783 368.974,-299.966 360.206,-294.018 358.411,-300.783"/>
</g>
<!-- Node22 -->
<g id="node22" class="node"><title>Node22</title>
<g id="a_node22"><a xlink:href="../../d6/d70/class_log.html#a9962588a107d3b4aa927cf12284e0fc7" target="_top" xlink:title=" ">
<polygon fill="white" stroke="black" points="382,-262 382,-281 435,-281 435,-262 382,-262"/>
<text text-anchor="middle" x="408.5" y="-269" font-family="Helvetica,sans-Serif" font-size="10.00">Log::Info</text>
</a>
</g>
</g>
<!-- Node20&#45;&gt;Node22 -->
<g id="edge30" class="edge"><title>Node20&#45;&gt;Node22</title>
<path fill="none" stroke="midnightblue" d="M277.569,-258.047C307.827,-261.18 344.828,-265.011 371.595,-267.782"/>
<polygon fill="midnightblue" stroke="midnightblue" points="371.367,-271.277 381.674,-268.826 372.088,-264.315 371.367,-271.277"/>
</g>
<!-- Node23 -->
<g id="node23" class="node"><title>Node23</title>
<g id="a_node23"><a xlink:href="../../d5/d0b/_g_u_i_window_8h.html#a2dd068506951f75670a9b118af013003" target="_top" xlink:title=" ">
<polygon fill="white" stroke="black" points="382,-224 382,-243 435,-243 435,-224 382,-224"/>
<text text-anchor="middle" x="408.5" y="-231" font-family="Helvetica,sans-Serif" font-size="10.00">ToString</text>
</a>
</g>
</g>
<!-- Node20&#45;&gt;Node23 -->
<g id="edge31" class="edge"><title>Node20&#45;&gt;Node23</title>
<path fill="none" stroke="midnightblue" d="M277.569,-246.953C307.827,-243.82 344.828,-239.989 371.595,-237.218"/>
<polygon fill="midnightblue" stroke="midnightblue" points="372.088,-240.685 381.674,-236.174 371.367,-233.723 372.088,-240.685"/>
</g>
<!-- Node25 -->
<g id="node25" class="node"><title>Node25</title>
<g id="a_node25"><a xlink:href="../../df/dc2/struct_game_time.html#ab85c95665b71cdbbfb8f0c3ee03d8f2d" target="_top" xlink:title=" ">
<polygon fill="white" stroke="black" points="361,-186 361,-205 456,-205 456,-186 361,-186"/>
<text text-anchor="middle" x="408.5" y="-193" font-family="Helvetica,sans-Serif" font-size="10.00">GameTime::Reset</text>
</a>
</g>
</g>
<!-- Node24&#45;&gt;Node25 -->
<g id="edge33" class="edge"><title>Node24&#45;&gt;Node25</title>
<path fill="none" stroke="midnightblue" d="M265.639,-202.458C290.768,-201.225 323.131,-199.638 350.599,-198.291"/>
<polygon fill="midnightblue" stroke="midnightblue" points="351.045,-201.773 360.862,-197.787 350.702,-194.782 351.045,-201.773"/>
</g>
<!-- Node27 -->
<g id="node27" class="node"><title>Node27</title>
<g id="a_node27"><a xlink:href="../../d3/d10/struct_keyboard_action_mapping.html#ad6ae2db00bf12d5c2913a62b33e6eb87" target="_top" xlink:title=" ">
<polygon fill="white" stroke="black" points="347.5,-98.5 347.5,-128.5 469.5,-128.5 469.5,-98.5 347.5,-98.5"/>
<text text-anchor="start" x="355.5" y="-116.5" font-family="Helvetica,sans-Serif" font-size="10.00">KeyboardActionMapping</text>
<text text-anchor="middle" x="408.5" y="-105.5" font-family="Helvetica,sans-Serif" font-size="10.00">::ResetKeys</text>
</a>
</g>
</g>
<!-- Node26&#45;&gt;Node27 -->
<g id="edge35" class="edge"><title>Node26&#45;&gt;Node27</title>
<path fill="none" stroke="midnightblue" d="M263.817,-147.953C285.313,-142.798 312.479,-136.284 337.389,-130.311"/>
<polygon fill="midnightblue" stroke="midnightblue" points="338.263,-133.701 347.171,-127.966 336.631,-126.894 338.263,-133.701"/>
</g>
<!-- Node30 -->
<g id="node30" class="node"><title>Node30</title>
<g id="a_node30"><a xlink:href="../../d8/da1/struct_timer.html#af11deea7dde51d637aec54587820f92b" target="_top" xlink:title=" ">
<polygon fill="white" stroke="black" points="374.5,-148 374.5,-167 442.5,-167 442.5,-148 374.5,-148"/>
<text text-anchor="middle" x="408.5" y="-155" font-family="Helvetica,sans-Serif" font-size="10.00">Timer::Time</text>
</a>
</g>
</g>
<!-- Node26&#45;&gt;Node30 -->
<g id="edge38" class="edge"><title>Node26&#45;&gt;Node30</title>
<path fill="none" stroke="midnightblue" d="M264.725,-157.5C294.193,-157.5 333.959,-157.5 364.04,-157.5"/>
<polygon fill="midnightblue" stroke="midnightblue" points="364.243,-161 374.243,-157.5 364.243,-154 364.243,-161"/>
</g>
<!-- Node28 -->
<g id="node28" class="node"><title>Node28</title>
<g id="a_node28"><a xlink:href="../../d9/d5c/_keyboard_8cpp.html#a9a306ed3c0cd703601061b725374ecf1" target="_top" xlink:title=" ">
<polygon fill="white" stroke="black" points="536,-104 536,-123 637,-123 637,-104 536,-104"/>
<text text-anchor="middle" x="586.5" y="-111" font-family="Helvetica,sans-Serif" font-size="10.00">GetAsyncKeyState</text>
</a>
</g>
</g>
<!-- Node27&#45;&gt;Node28 -->
<g id="edge36" class="edge"><title>Node27&#45;&gt;Node28</title>
<path fill="none" stroke="midnightblue" d="M469.577,-113.5C487.725,-113.5 507.641,-113.5 525.767,-113.5"/>
<polygon fill="midnightblue" stroke="midnightblue" points="525.917,-117 535.917,-113.5 525.917,-110 525.917,-117"/>
</g>
<!-- Node29 -->
<g id="node29" class="node"><title>Node29</title>
<g id="a_node29"><a xlink:href="../../d3/d07/_s_d_l__keyboard_8h.html#a69e91052c1f268c9dd47f255e9f9084a" target="_top" xlink:title="Get a snapshot of the current state of the keyboard.">
<polygon fill="white" stroke="black" points="691,-104 691,-123 812,-123 812,-104 691,-104"/>
<text text-anchor="middle" x="751.5" y="-111" font-family="Helvetica,sans-Serif" font-size="10.00">SDL_GetKeyboardState</text>
</a>
</g>
</g>
<!-- Node28&#45;&gt;Node29 -->
<g id="edge37" class="edge"><title>Node28&#45;&gt;Node29</title>
<path fill="none" stroke="midnightblue" d="M637.291,-113.5C651.06,-113.5 666.259,-113.5 680.93,-113.5"/>
<polygon fill="midnightblue" stroke="midnightblue" points="680.979,-117 690.979,-113.5 680.979,-110 680.979,-117"/>
</g>
<!-- Node32 -->
<g id="node32" class="node"><title>Node32</title>
<g id="a_node32"><a xlink:href="../../d4/d10/class_l_o_d_file___sprites.html#af31329dee5aecf30f01cad682e6a6532" target="_top" xlink:title=" ">
<polygon fill="white" stroke="black" points="335,-0.5 335,-30.5 482,-30.5 482,-0.5 335,-0.5"/>
<text text-anchor="start" x="343" y="-18.5" font-family="Helvetica,sans-Serif" font-size="10.00">LODFile_Sprites::DeleteSome</text>
<text text-anchor="middle" x="408.5" y="-7.5" font-family="Helvetica,sans-Serif" font-size="10.00">Sprites</text>
</a>
</g>
</g>
<!-- Node31&#45;&gt;Node32 -->
<g id="edge40" class="edge"><title>Node31&#45;&gt;Node32</title>
<path fill="none" stroke="midnightblue" d="M257.657,-55.5126C280.98,-49.2845 312.812,-40.7844 341.14,-33.2202"/>
<polygon fill="midnightblue" stroke="midnightblue" points="342.235,-36.5504 350.994,-30.5889 340.429,-29.7874 342.235,-36.5504"/>
</g>
<!-- Node33 -->
<g id="node33" class="node"><title>Node33</title>
<g id="a_node33"><a xlink:href="../../d3/db3/struct_palette_manager.html#ac0ebd8e545aef594a6c97a9636491a24" target="_top" xlink:title=" ">
<polygon fill="white" stroke="black" points="341.5,-49.5 341.5,-79.5 475.5,-79.5 475.5,-49.5 341.5,-49.5"/>
<text text-anchor="start" x="349.5" y="-67.5" font-family="Helvetica,sans-Serif" font-size="10.00">PaletteManager::ResetNon</text>
<text text-anchor="middle" x="408.5" y="-56.5" font-family="Helvetica,sans-Serif" font-size="10.00">TestLocked</text>
</a>
</g>
</g>
<!-- Node31&#45;&gt;Node33 -->
<g id="edge41" class="edge"><title>Node31&#45;&gt;Node33</title>
<path fill="none" stroke="midnightblue" d="M257.657,-64.5C278.3,-64.5 305.608,-64.5 331.253,-64.5"/>
<polygon fill="midnightblue" stroke="midnightblue" points="331.358,-68.0001 341.358,-64.5 331.358,-61.0001 331.358,-68.0001"/>
</g>
</g>
</svg>
