<?xml version="1.0" encoding="UTF-8" standalone="no"?>
<!DOCTYPE svg PUBLIC "-//W3C//DTD SVG 1.1//EN"
 "http://www.w3.org/Graphics/SVG/1.1/DTD/svg11.dtd">
<!-- Generated by graphviz version 2.38.0 (20140413.2041)
 -->
<!-- Title: PCX_LOD_Loader Pages: 1 -->
<svg width="287pt" height="229pt"
 viewBox="0.00 0.00 286.50 229.00" xmlns="http://www.w3.org/2000/svg" xmlns:xlink="http://www.w3.org/1999/xlink">
<g id="graph0" class="graph" transform="scale(1 1) rotate(0) translate(4 225)">
<title>PCX_LOD_Loader</title>
<polygon fill="white" stroke="none" points="-4,4 -4,-225 282.5,-225 282.5,4 -4,4"/>
<!-- Node1 -->
<g id="node1" class="node"><title>Node1</title>
<g id="a_node1"><a xlink:title=" ">
<polygon fill="#bfbfbf" stroke="black" points="45.5,-0.5 45.5,-19.5 140.5,-19.5 140.5,-0.5 45.5,-0.5"/>
<text text-anchor="middle" x="93" y="-7.5" font-family="Helvetica,sans-Serif" font-size="10.00">PCX_LOD_Loader</text>
</a>
</g>
</g>
<!-- Node2 -->
<g id="node2" class="node"><title>Node2</title>
<g id="a_node2"><a xlink:href="../../d5/da3/class_p_c_x___loader.html" target="_top" xlink:title=" ">
<polygon fill="white" stroke="black" points="8,-67.5 8,-86.5 78,-86.5 78,-67.5 8,-67.5"/>
<text text-anchor="middle" x="43" y="-74.5" font-family="Helvetica,sans-Serif" font-size="10.00">PCX_Loader</text>
</a>
</g>
</g>
<!-- Node2&#45;&gt;Node1 -->
<g id="edge1" class="edge"><title>Node2&#45;&gt;Node1</title>
<path fill="none" stroke="midnightblue" d="M55.8689,-59.2705C65.6175,-46.5972 78.6147,-29.701 86.3636,-19.6273"/>
<polygon fill="midnightblue" stroke="midnightblue" points="53.0662,-57.1735 49.7432,-67.2338 58.6146,-61.4416 53.0662,-57.1735"/>
</g>
<!-- Node3 -->
<g id="node3" class="node"><title>Node3</title>
<g id="a_node3"><a xlink:href="../../d7/d42/class_image_loader.html" target="_top" xlink:title=" ">
<polygon fill="white" stroke="black" points="0,-134.5 0,-153.5 72,-153.5 72,-134.5 0,-134.5"/>
<text text-anchor="middle" x="36" y="-141.5" font-family="Helvetica,sans-Serif" font-size="10.00">ImageLoader</text>
</a>
</g>
</g>
<!-- Node3&#45;&gt;Node2 -->
<g id="edge2" class="edge"><title>Node3&#45;&gt;Node2</title>
<path fill="none" stroke="midnightblue" d="M38.0422,-124.037C39.374,-111.67 41.0486,-96.1198 42.0709,-86.6273"/>
<polygon fill="midnightblue" stroke="midnightblue" points="34.535,-123.917 36.9441,-134.234 41.4947,-124.666 34.535,-123.917"/>
</g>
<!-- Node4 -->
<g id="node4" class="node"><title>Node4</title>
<g id="a_node4"><a xlink:href="../../d6/d70/class_log.html" target="_top" xlink:title=" ">
<polygon fill="white" stroke="black" points="20,-201.5 20,-220.5 52,-220.5 52,-201.5 20,-201.5"/>
<text text-anchor="middle" x="36" y="-208.5" font-family="Helvetica,sans-Serif" font-size="10.00">Log</text>
</a>
</g>
</g>
<!-- Node4&#45;&gt;Node3 -->
<g id="edge3" class="edge"><title>Node4&#45;&gt;Node3</title>
<path fill="none" stroke="#9a32cd" stroke-dasharray="5,2" d="M36,-191.037C36,-178.67 36,-163.12 36,-153.627"/>
<polygon fill="#9a32cd" stroke="#9a32cd" points="32.5001,-191.234 36,-201.234 39.5001,-191.234 32.5001,-191.234"/>
<text text-anchor="middle" x="44" y="-175" font-family="Helvetica,sans-Serif" font-size="10.00"> log</text>
</g>
<!-- Node5 -->
<g id="node5" class="node"><title>Node5</title>
<g id="a_node5"><a xlink:href="../../dd/da7/class_l_o_d_1_1_file.html" target="_top" xlink:title=" ">
<polygon fill="white" stroke="black" points="102,-67.5 102,-86.5 160,-86.5 160,-67.5 102,-67.5"/>
<text text-anchor="middle" x="131" y="-74.5" font-family="Helvetica,sans-Serif" font-size="10.00">LOD::File</text>
</a>
</g>
</g>
<!-- Node5&#45;&gt;Node1 -->
<g id="edge4" class="edge"><title>Node5&#45;&gt;Node1</title>
<path fill="none" stroke="#9a32cd" stroke-dasharray="5,2" d="M120.79,-58.5347C113.432,-45.9499 103.82,-29.5072 98.0437,-19.6273"/>
<polygon fill="#9a32cd" stroke="#9a32cd" points="117.807,-60.3673 125.875,-67.2338 123.85,-56.8344 117.807,-60.3673"/>
<text text-anchor="middle" x="123" y="-41" font-family="Helvetica,sans-Serif" font-size="10.00"> lod</text>
</g>
<!-- Node6 -->
<g id="node6" class="node"><title>Node6</title>
<g id="a_node6"><a xlink:href="../../d1/db2/struct_l_o_d_1_1_directory.html" target="_top" xlink:title=" ">
<polygon fill="white" stroke="black" points="90.5,-134.5 90.5,-153.5 171.5,-153.5 171.5,-134.5 90.5,-134.5"/>
<text text-anchor="middle" x="131" y="-141.5" font-family="Helvetica,sans-Serif" font-size="10.00">LOD::Directory</text>
</a>
</g>
</g>
<!-- Node6&#45;&gt;Node5 -->
<g id="edge5" class="edge"><title>Node6&#45;&gt;Node5</title>
<path fill="none" stroke="#9a32cd" stroke-dasharray="5,2" d="M131,-124.037C131,-111.67 131,-96.1198 131,-86.6273"/>
<polygon fill="#9a32cd" stroke="#9a32cd" points="127.5,-124.234 131,-134.234 134.5,-124.234 127.5,-124.234"/>
<text text-anchor="middle" x="159.5" y="-108" font-family="Helvetica,sans-Serif" font-size="10.00"> pSubIndices</text>
</g>
<!-- Node7 -->
<g id="node7" class="node"><title>Node7</title>
<g id="a_node7"><a xlink:href="../../dc/d2a/struct_l_o_d_1_1_file_header.html" target="_top" xlink:title=" ">
<polygon fill="white" stroke="black" points="189.5,-134.5 189.5,-153.5 278.5,-153.5 278.5,-134.5 189.5,-134.5"/>
<text text-anchor="middle" x="234" y="-141.5" font-family="Helvetica,sans-Serif" font-size="10.00">LOD::FileHeader</text>
</a>
</g>
</g>
<!-- Node7&#45;&gt;Node5 -->
<g id="edge6" class="edge"><title>Node7&#45;&gt;Node5</title>
<path fill="none" stroke="#9a32cd" stroke-dasharray="5,2" d="M218.644,-126.917C211.091,-119.603 201.568,-111.215 192,-105 180.54,-97.5557 166.684,-91.2376 155.076,-86.5891"/>
<polygon fill="#9a32cd" stroke="#9a32cd" points="216.439,-129.663 225.976,-134.278 221.399,-124.723 216.439,-129.663"/>
<text text-anchor="middle" x="222.5" y="-108" font-family="Helvetica,sans-Serif" font-size="10.00"> header</text>
</g>
</g>
</svg>
