<?xml version="1.0" encoding="UTF-8" standalone="no"?>
<!DOCTYPE svg PUBLIC "-//W3C//DTD SVG 1.1//EN"
 "http://www.w3.org/Graphics/SVG/1.1/DTD/svg11.dtd">
<!-- Generated by graphviz version 2.38.0 (20140413.2041)
 -->
<!-- Title: ParticleEngine::DrawParticles_BLV Pages: 1 -->
<!--zoomable 180 -->
<svg id="main" version="1.1" xmlns="http://www.w3.org/2000/svg" xmlns:xlink="http://www.w3.org/1999/xlink" xml:space="preserve" onload="init(evt)">
<style type="text/css"><![CDATA[
.edge:hover path { stroke: red; }
.edge:hover polygon { stroke: red; fill: red; }
]]></style>
<script type="text/javascript"><![CDATA[
var edges = document.getElementsByTagName('g');
if (edges && edges.length) {
  for (var i=0;i<edges.length;i++) {
    if (edges[i].id.substr(0,4)=='edge') {
      edges[i].setAttribute('class','edge');
    }
  }
}
]]></script>
        <defs>
                <circle id="rim" cx="0" cy="0" r="7"/>
                <circle id="rim2" cx="0" cy="0" r="3.5"/>
                <g id="zoomPlus">
                        <use xlink:href="#rim" fill="#404040">
                                <set attributeName="fill" to="#808080" begin="zoomplus.mouseover" end="zoomplus.mouseout"/>
                        </use>
                        <path d="M-4,0h8M0,-4v8" fill="none" stroke="white" stroke-width="1.5" pointer-events="none"/>
                </g>
                <g id="zoomMin">
                        <use xlink:href="#rim" fill="#404040">
                                <set attributeName="fill" to="#808080" begin="zoomminus.mouseover" end="zoomminus.mouseout"/>
                        </use>
                        <path d="M-4,0h8" fill="none" stroke="white" stroke-width="1.5" pointer-events="none"/>
                </g>
                <g id="dirArrow">
                        <path fill="none" stroke="white" stroke-width="1.5" d="M0,-3.0v7 M-2.5,-0.5L0,-3.0L2.5,-0.5"/>
                </g>
               <g id="resetDef">
                       <use xlink:href="#rim2" fill="#404040">
                               <set attributeName="fill" to="#808080" begin="reset.mouseover" end="reset.mouseout"/>
                       </use>
               </g>
        </defs>

<script type="text/javascript">
var viewWidth = 826;
var viewHeight = 180;
var sectionId = 'dynsection-9';
</script>
<script xlink:href="../../svgpan.js"/>
<svg id="graph" class="graph">
<g id="viewport">
<title>ParticleEngine::DrawParticles_BLV</title>
<polygon fill="white" stroke="none" points="-4,4 -4,-176 822,-176 822,4 -4,4"/>
<!-- Node1 -->
<g id="node1" class="node"><title>Node1</title>
<g id="a_node1"><a xlink:title=" ">
<polygon fill="#bfbfbf" stroke="black" points="0,-95.5 0,-114.5 170,-114.5 170,-95.5 0,-95.5"/>
<text text-anchor="middle" x="85" y="-102.5" font-family="Helvetica,sans-Serif" font-size="10.00">ParticleEngine::DrawParticles_BLV</text>
</a>
</g>
</g>
<!-- Node2 -->
<g id="node2" class="node"><title>Node2</title>
<g id="a_node2"><a xlink:href="../../dd/d2d/class_particle_engine.html#ad63c7069319085019cf0c086e38cce06" target="_top" xlink:title=" ">
<polygon fill="white" stroke="black" points="206,-90 206,-120 343,-120 343,-90 206,-90"/>
<text text-anchor="start" x="214" y="-108" font-family="Helvetica,sans-Serif" font-size="10.00">ParticleEngine::ViewProject</text>
<text text-anchor="middle" x="274.5" y="-97" font-family="Helvetica,sans-Serif" font-size="10.00">_TrueIfStillVisible_BLV</text>
</a>
</g>
</g>
<!-- Node1&#45;&gt;Node2 -->
<g id="edge1" class="edge"><title>Node1&#45;&gt;Node2</title>
<path fill="none" stroke="midnightblue" d="M170.152,-105C178.665,-105 187.285,-105 195.727,-105"/>
<polygon fill="midnightblue" stroke="midnightblue" points="195.916,-108.5 205.916,-105 195.916,-101.5 195.916,-108.5"/>
</g>
<!-- Node3 -->
<g id="node3" class="node"><title>Node3</title>
<g id="a_node3"><a xlink:href="../../d6/dc9/structfixed.html#ad27ee11f1bd754c1dd01daf3f938cbbb" target="_top" xlink:title=" ">
<polygon fill="white" stroke="black" points="405,-152.5 405,-171.5 492,-171.5 492,-152.5 405,-152.5"/>
<text text-anchor="middle" x="448.5" y="-159.5" font-family="Helvetica,sans-Serif" font-size="10.00">fixed::FromFloat</text>
</a>
</g>
</g>
<!-- Node2&#45;&gt;Node3 -->
<g id="edge2" class="edge"><title>Node2&#45;&gt;Node3</title>
<path fill="none" stroke="midnightblue" d="M314.068,-120.008C333.427,-127.323 357.316,-136.025 379,-143 386.189,-145.312 393.854,-147.605 401.358,-149.755"/>
<polygon fill="midnightblue" stroke="midnightblue" points="400.501,-153.15 411.075,-152.489 402.397,-146.411 400.501,-153.15"/>
</g>
<!-- Node7 -->
<g id="node7" class="node"><title>Node7</title>
<g id="a_node7"><a xlink:href="../../d6/dc9/structfixed.html#a5afca03668479a0abe9b6d9fcc2d3bd6" target="_top" xlink:title=" ">
<polygon fill="white" stroke="black" points="410.5,-114.5 410.5,-133.5 486.5,-133.5 486.5,-114.5 410.5,-114.5"/>
<text text-anchor="middle" x="448.5" y="-121.5" font-family="Helvetica,sans-Serif" font-size="10.00">fixed::FromInt</text>
</a>
</g>
</g>
<!-- Node2&#45;&gt;Node7 -->
<g id="edge6" class="edge"><title>Node2&#45;&gt;Node7</title>
<path fill="none" stroke="midnightblue" d="M343.479,-112.509C362.475,-114.608 382.699,-116.842 400.215,-118.777"/>
<polygon fill="midnightblue" stroke="midnightblue" points="399.861,-122.259 410.185,-119.878 400.63,-115.301 399.861,-122.259"/>
</g>
<!-- Node8 -->
<g id="node8" class="node"><title>Node8</title>
<g id="a_node8"><a xlink:href="../../d9/de5/struct_indoor_camera_d3_d.html#a32190b521a23e986e5b0b13098e4b114" target="_top" xlink:title=" ">
<polygon fill="white" stroke="black" points="382.5,-76.5 382.5,-95.5 514.5,-95.5 514.5,-76.5 382.5,-76.5"/>
<text text-anchor="middle" x="448.5" y="-83.5" font-family="Helvetica,sans-Serif" font-size="10.00">IndoorCameraD3D::Project</text>
</a>
</g>
</g>
<!-- Node2&#45;&gt;Node8 -->
<g id="edge8" class="edge"><title>Node2&#45;&gt;Node8</title>
<path fill="none" stroke="midnightblue" d="M343.479,-97.4907C352.857,-96.4547 362.535,-95.3857 372.038,-94.3359"/>
<polygon fill="midnightblue" stroke="midnightblue" points="372.704,-97.7837 382.26,-93.2068 371.936,-90.826 372.704,-97.7837"/>
</g>
<!-- Node9 -->
<g id="node9" class="node"><title>Node9</title>
<g id="a_node9"><a xlink:href="../../d9/de5/struct_indoor_camera_d3_d.html#a4c237cb96e18e53a8d9a9f01df08165c" target="_top" xlink:title=" ">
<polygon fill="white" stroke="black" points="379,-38.5 379,-57.5 518,-57.5 518,-38.5 379,-38.5"/>
<text text-anchor="middle" x="448.5" y="-45.5" font-family="Helvetica,sans-Serif" font-size="10.00">IndoorCameraD3D::ViewClip</text>
</a>
</g>
</g>
<!-- Node2&#45;&gt;Node9 -->
<g id="edge9" class="edge"><title>Node2&#45;&gt;Node9</title>
<path fill="none" stroke="midnightblue" d="M314.068,-89.9924C333.427,-82.6767 357.316,-73.9752 379,-67 386.189,-64.6876 393.854,-62.3952 401.358,-60.2453"/>
<polygon fill="midnightblue" stroke="midnightblue" points="402.397,-63.5889 411.075,-57.5114 400.501,-56.8505 402.397,-63.5889"/>
</g>
<!-- Node4 -->
<g id="node4" class="node"><title>Node4</title>
<g id="a_node4"><a xlink:href="../../d0/dc0/_our_math_8h.html#a0291a2ad34d9448b49019f7be6a6e503" target="_top" xlink:title=" ">
<polygon fill="white" stroke="black" points="589,-152.5 589,-171.5 684,-171.5 684,-152.5 589,-152.5"/>
<text text-anchor="middle" x="636.5" y="-159.5" font-family="Helvetica,sans-Serif" font-size="10.00">fixpoint_from_float</text>
</a>
</g>
</g>
<!-- Node3&#45;&gt;Node4 -->
<g id="edge3" class="edge"><title>Node3&#45;&gt;Node4</title>
<path fill="none" stroke="midnightblue" d="M492.172,-162C517.868,-162 550.898,-162 578.773,-162"/>
<polygon fill="midnightblue" stroke="midnightblue" points="578.787,-165.5 588.787,-162 578.787,-158.5 578.787,-165.5"/>
</g>
<!-- Node5 -->
<g id="node5" class="node"><title>Node5</title>
<g id="a_node5"><a xlink:href="../../d6/dc9/structfixed.html#a77864f1a61a82980108874fc3709d9ef" target="_top" xlink:title=" ">
<polygon fill="white" stroke="black" points="605.5,-114.5 605.5,-133.5 667.5,-133.5 667.5,-114.5 605.5,-114.5"/>
<text text-anchor="middle" x="636.5" y="-121.5" font-family="Helvetica,sans-Serif" font-size="10.00">fixed::Raw</text>
</a>
</g>
</g>
<!-- Node3&#45;&gt;Node5 -->
<g id="edge4" class="edge"><title>Node3&#45;&gt;Node5</title>
<path fill="none" stroke="midnightblue" d="M492.172,-153.282C523.296,-146.923 565.183,-138.366 595.633,-132.145"/>
<polygon fill="midnightblue" stroke="midnightblue" points="596.392,-135.562 605.489,-130.131 594.991,-128.704 596.392,-135.562"/>
</g>
<!-- Node6 -->
<g id="node6" class="node"><title>Node6</title>
<g id="a_node6"><a xlink:href="../../d6/dc9/structfixed.html#a35ab68b29d570ad4cdb6c752b344f7e2" target="_top" xlink:title=" ">
<polygon fill="white" stroke="black" points="755,-114.5 755,-133.5 818,-133.5 818,-114.5 755,-114.5"/>
<text text-anchor="middle" x="786.5" y="-121.5" font-family="Helvetica,sans-Serif" font-size="10.00">fixed::fixed</text>
</a>
</g>
</g>
<!-- Node5&#45;&gt;Node6 -->
<g id="edge5" class="edge"><title>Node5&#45;&gt;Node6</title>
<path fill="none" stroke="midnightblue" d="M667.807,-124C690.081,-124 720.582,-124 744.952,-124"/>
<polygon fill="midnightblue" stroke="midnightblue" points="744.979,-127.5 754.979,-124 744.979,-120.5 744.979,-127.5"/>
</g>
<!-- Node7&#45;&gt;Node5 -->
<g id="edge7" class="edge"><title>Node7&#45;&gt;Node5</title>
<path fill="none" stroke="midnightblue" d="M486.693,-124C518.029,-124 562.78,-124 595.013,-124"/>
<polygon fill="midnightblue" stroke="midnightblue" points="595.426,-127.5 605.426,-124 595.426,-120.5 595.426,-127.5"/>
</g>
<!-- Node10 -->
<g id="node10" class="node"><title>Node10</title>
<g id="a_node10"><a xlink:href="../../d9/de5/struct_indoor_camera_d3_d.html#ae44ac296d0d5225048b313e14edf7da1" target="_top" xlink:title=" ">
<polygon fill="white" stroke="black" points="562.5,-76.5 562.5,-95.5 710.5,-95.5 710.5,-76.5 562.5,-76.5"/>
<text text-anchor="middle" x="636.5" y="-83.5" font-family="Helvetica,sans-Serif" font-size="10.00">IndoorCameraD3D::GetFarClip</text>
</a>
</g>
</g>
<!-- Node9&#45;&gt;Node10 -->
<g id="edge10" class="edge"><title>Node9&#45;&gt;Node10</title>
<path fill="none" stroke="midnightblue" d="M496.436,-57.589C521.533,-62.7165 552.619,-69.0672 579.03,-74.4632"/>
<polygon fill="midnightblue" stroke="midnightblue" points="578.404,-77.9074 588.902,-76.4799 579.805,-71.049 578.404,-77.9074"/>
</g>
<!-- Node11 -->
<g id="node11" class="node"><title>Node11</title>
<g id="a_node11"><a xlink:href="../../d9/de5/struct_indoor_camera_d3_d.html#a6ade9a050aa9009a83e21461c6c470c4" target="_top" xlink:title=" ">
<polygon fill="white" stroke="black" points="559.5,-38.5 559.5,-57.5 713.5,-57.5 713.5,-38.5 559.5,-38.5"/>
<text text-anchor="middle" x="636.5" y="-45.5" font-family="Helvetica,sans-Serif" font-size="10.00">IndoorCameraD3D::GetNearClip</text>
</a>
</g>
</g>
<!-- Node9&#45;&gt;Node11 -->
<g id="edge11" class="edge"><title>Node9&#45;&gt;Node11</title>
<path fill="none" stroke="midnightblue" d="M518.231,-48C528.243,-48 538.659,-48 548.968,-48"/>
<polygon fill="midnightblue" stroke="midnightblue" points="549.223,-51.5001 559.223,-48 549.223,-44.5001 549.223,-51.5001"/>
</g>
<!-- Node12 -->
<g id="node12" class="node"><title>Node12</title>
<g id="a_node12"><a xlink:href="../../d9/de5/struct_indoor_camera_d3_d.html#a819c840787fde1b667c5477bafb21a62" target="_top" xlink:title=" ">
<polygon fill="white" stroke="black" points="554,-0.5 554,-19.5 719,-19.5 719,-0.5 554,-0.5"/>
<text text-anchor="middle" x="636.5" y="-7.5" font-family="Helvetica,sans-Serif" font-size="10.00">IndoorCameraD3D::ViewTransform</text>
</a>
</g>
</g>
<!-- Node9&#45;&gt;Node12 -->
<g id="edge12" class="edge"><title>Node9&#45;&gt;Node12</title>
<path fill="none" stroke="midnightblue" d="M496.436,-38.411C521.533,-33.2835 552.619,-26.9328 579.03,-21.5368"/>
<polygon fill="midnightblue" stroke="midnightblue" points="579.805,-24.951 588.902,-19.5201 578.404,-18.0926 579.805,-24.951"/>
</g>
</g>
</svg>
        <g id="navigator" transform="translate(0 0)" fill="#404254">
                <rect fill="#f2f5e9" fill-opacity="0.5" stroke="#606060" stroke-width=".5" x="0" y="0" width="60" height="60"/>
                <use id="zoomplus" xlink:href="#zoomPlus" x="17" y="9" onmousedown="handleZoom(evt,'in')"/>
                <use id="zoomminus" xlink:href="#zoomMin" x="42" y="9" onmousedown="handleZoom(evt,'out')"/>
                <use id="reset" xlink:href="#resetDef" x="30" y="36" onmousedown="handleReset()"/>
                <g id="arrowUp" xlink:href="#dirArrow" transform="translate(30 24)" onmousedown="handlePan(0,-1)">
                  <use xlink:href="#rim" fill="#404040">
                        <set attributeName="fill" to="#808080" begin="arrowUp.mouseover" end="arrowUp.mouseout"/>
                  </use>
                  <path fill="none" stroke="white" stroke-width="1.5" d="M0,-3.0v7 M-2.5,-0.5L0,-3.0L2.5,-0.5"/>
                </g>
                <g id="arrowRight" xlink:href="#dirArrow" transform="rotate(90) translate(36 -43)" onmousedown="handlePan(1,0)">
                  <use xlink:href="#rim" fill="#404040">
                        <set attributeName="fill" to="#808080" begin="arrowRight.mouseover" end="arrowRight.mouseout"/>
                  </use>
                  <path fill="none" stroke="white" stroke-width="1.5" d="M0,-3.0v7 M-2.5,-0.5L0,-3.0L2.5,-0.5"/>
                </g>
                <g id="arrowDown" xlink:href="#dirArrow" transform="rotate(180) translate(-30 -48)" onmousedown="handlePan(0,1)">
                  <use xlink:href="#rim" fill="#404040">
                        <set attributeName="fill" to="#808080" begin="arrowDown.mouseover" end="arrowDown.mouseout"/>
                  </use>
                  <path fill="none" stroke="white" stroke-width="1.5" d="M0,-3.0v7 M-2.5,-0.5L0,-3.0L2.5,-0.5"/>
                </g>
                <g id="arrowLeft" xlink:href="#dirArrow" transform="rotate(270) translate(-36 17)" onmousedown="handlePan(-1,0)">
                  <use xlink:href="#rim" fill="#404040">
                        <set attributeName="fill" to="#808080" begin="arrowLeft.mouseover" end="arrowLeft.mouseout"/>
                  </use>
                  <path fill="none" stroke="white" stroke-width="1.5" d="M0,-3.0v7 M-2.5,-0.5L0,-3.0L2.5,-0.5"/>
                </g>
        </g>
        <svg viewBox="0 0 15 15" width="100%" height="30px" preserveAspectRatio="xMaxYMin meet">
         <g id="arrow_out" transform="scale(0.3 0.3)">
          <a xlink:href="class_particle_engine_ac38c9e5bad552707f0c7f97d40c7aab9_cgraph_org.svg" target="_base">
           <rect id="button" ry="5" rx="5" y="6" x="6" height="38" width="38"
                fill="#f2f5e9" fill-opacity="0.5" stroke="#606060" stroke-width="1.0"/>
           <path id="arrow"
             d="M 11.500037,31.436501 C 11.940474,20.09759 22.043105,11.32322 32.158766,21.979434 L 37.068811,17.246167 C 37.068811,17.246167 37.088388,32 37.088388,32 L 22.160133,31.978069 C 22.160133,31.978069 26.997745,27.140456 26.997745,27.140456 C 18.528582,18.264221 13.291696,25.230495 11.500037,31.436501 z"
             style="fill:#404040;"/>
          </a>
         </g>
        </svg>
</svg>
