<?xml version="1.0" encoding="UTF-8" standalone="no"?>
<!DOCTYPE svg PUBLIC "-//W3C//DTD SVG 1.1//EN"
 "http://www.w3.org/Graphics/SVG/1.1/DTD/svg11.dtd">
<!-- Generated by graphviz version 2.38.0 (20140413.2041)
 -->
<!-- Title: ParticleEngine::ViewProject_TrueIfStillVisible_BLV Pages: 1 -->
<svg width="620pt" height="180pt"
 viewBox="0.00 0.00 620.00 180.00" xmlns="http://www.w3.org/2000/svg" xmlns:xlink="http://www.w3.org/1999/xlink">
<g id="graph0" class="graph" transform="scale(1 1) rotate(0) translate(4 176)">
<title>ParticleEngine::ViewProject_TrueIfStillVisible_BLV</title>
<polygon fill="white" stroke="none" points="-4,4 -4,-176 616,-176 616,4 -4,4"/>
<!-- Node1 -->
<g id="node1" class="node"><title>Node1</title>
<g id="a_node1"><a xlink:title=" ">
<polygon fill="#bfbfbf" stroke="black" points="0,-90 0,-120 137,-120 137,-90 0,-90"/>
<text text-anchor="start" x="8" y="-108" font-family="Helvetica,sans-Serif" font-size="10.00">ParticleEngine::ViewProject</text>
<text text-anchor="middle" x="68.5" y="-97" font-family="Helvetica,sans-Serif" font-size="10.00">_TrueIfStillVisible_BLV</text>
</a>
</g>
</g>
<!-- Node2 -->
<g id="node2" class="node"><title>Node2</title>
<g id="a_node2"><a xlink:href="../../d6/dc9/structfixed.html#ad27ee11f1bd754c1dd01daf3f938cbbb" target="_top" xlink:title=" ">
<polygon fill="white" stroke="black" points="199,-152.5 199,-171.5 286,-171.5 286,-152.5 199,-152.5"/>
<text text-anchor="middle" x="242.5" y="-159.5" font-family="Helvetica,sans-Serif" font-size="10.00">fixed::FromFloat</text>
</a>
</g>
</g>
<!-- Node1&#45;&gt;Node2 -->
<g id="edge1" class="edge"><title>Node1&#45;&gt;Node2</title>
<path fill="none" stroke="midnightblue" d="M108.068,-120.008C127.427,-127.323 151.316,-136.025 173,-143 180.189,-145.312 187.854,-147.605 195.358,-149.755"/>
<polygon fill="midnightblue" stroke="midnightblue" points="194.501,-153.15 205.075,-152.489 196.397,-146.411 194.501,-153.15"/>
</g>
<!-- Node6 -->
<g id="node6" class="node"><title>Node6</title>
<g id="a_node6"><a xlink:href="../../d6/dc9/structfixed.html#a5afca03668479a0abe9b6d9fcc2d3bd6" target="_top" xlink:title=" ">
<polygon fill="white" stroke="black" points="204.5,-114.5 204.5,-133.5 280.5,-133.5 280.5,-114.5 204.5,-114.5"/>
<text text-anchor="middle" x="242.5" y="-121.5" font-family="Helvetica,sans-Serif" font-size="10.00">fixed::FromInt</text>
</a>
</g>
</g>
<!-- Node1&#45;&gt;Node6 -->
<g id="edge5" class="edge"><title>Node1&#45;&gt;Node6</title>
<path fill="none" stroke="midnightblue" d="M137.479,-112.509C156.475,-114.608 176.699,-116.842 194.215,-118.777"/>
<polygon fill="midnightblue" stroke="midnightblue" points="193.861,-122.259 204.185,-119.878 194.63,-115.301 193.861,-122.259"/>
</g>
<!-- Node7 -->
<g id="node7" class="node"><title>Node7</title>
<g id="a_node7"><a xlink:href="../../d9/de5/struct_indoor_camera_d3_d.html#a32190b521a23e986e5b0b13098e4b114" target="_top" xlink:title=" ">
<polygon fill="white" stroke="black" points="176.5,-76.5 176.5,-95.5 308.5,-95.5 308.5,-76.5 176.5,-76.5"/>
<text text-anchor="middle" x="242.5" y="-83.5" font-family="Helvetica,sans-Serif" font-size="10.00">IndoorCameraD3D::Project</text>
</a>
</g>
</g>
<!-- Node1&#45;&gt;Node7 -->
<g id="edge7" class="edge"><title>Node1&#45;&gt;Node7</title>
<path fill="none" stroke="midnightblue" d="M137.479,-97.4907C146.857,-96.4547 156.535,-95.3857 166.038,-94.3359"/>
<polygon fill="midnightblue" stroke="midnightblue" points="166.704,-97.7837 176.26,-93.2068 165.936,-90.826 166.704,-97.7837"/>
</g>
<!-- Node8 -->
<g id="node8" class="node"><title>Node8</title>
<g id="a_node8"><a xlink:href="../../d9/de5/struct_indoor_camera_d3_d.html#a4c237cb96e18e53a8d9a9f01df08165c" target="_top" xlink:title=" ">
<polygon fill="white" stroke="black" points="173,-38.5 173,-57.5 312,-57.5 312,-38.5 173,-38.5"/>
<text text-anchor="middle" x="242.5" y="-45.5" font-family="Helvetica,sans-Serif" font-size="10.00">IndoorCameraD3D::ViewClip</text>
</a>
</g>
</g>
<!-- Node1&#45;&gt;Node8 -->
<g id="edge8" class="edge"><title>Node1&#45;&gt;Node8</title>
<path fill="none" stroke="midnightblue" d="M108.068,-89.9924C127.427,-82.6767 151.316,-73.9752 173,-67 180.189,-64.6876 187.854,-62.3952 195.358,-60.2453"/>
<polygon fill="midnightblue" stroke="midnightblue" points="196.397,-63.5889 205.075,-57.5114 194.501,-56.8505 196.397,-63.5889"/>
</g>
<!-- Node3 -->
<g id="node3" class="node"><title>Node3</title>
<g id="a_node3"><a xlink:href="../../d0/dc0/_our_math_8h.html#a0291a2ad34d9448b49019f7be6a6e503" target="_top" xlink:title=" ">
<polygon fill="white" stroke="black" points="383,-152.5 383,-171.5 478,-171.5 478,-152.5 383,-152.5"/>
<text text-anchor="middle" x="430.5" y="-159.5" font-family="Helvetica,sans-Serif" font-size="10.00">fixpoint_from_float</text>
</a>
</g>
</g>
<!-- Node2&#45;&gt;Node3 -->
<g id="edge2" class="edge"><title>Node2&#45;&gt;Node3</title>
<path fill="none" stroke="midnightblue" d="M286.172,-162C311.868,-162 344.898,-162 372.773,-162"/>
<polygon fill="midnightblue" stroke="midnightblue" points="372.787,-165.5 382.787,-162 372.787,-158.5 372.787,-165.5"/>
</g>
<!-- Node4 -->
<g id="node4" class="node"><title>Node4</title>
<g id="a_node4"><a xlink:href="../../d6/dc9/structfixed.html#a77864f1a61a82980108874fc3709d9ef" target="_top" xlink:title=" ">
<polygon fill="white" stroke="black" points="399.5,-114.5 399.5,-133.5 461.5,-133.5 461.5,-114.5 399.5,-114.5"/>
<text text-anchor="middle" x="430.5" y="-121.5" font-family="Helvetica,sans-Serif" font-size="10.00">fixed::Raw</text>
</a>
</g>
</g>
<!-- Node2&#45;&gt;Node4 -->
<g id="edge3" class="edge"><title>Node2&#45;&gt;Node4</title>
<path fill="none" stroke="midnightblue" d="M286.172,-153.282C317.296,-146.923 359.183,-138.366 389.633,-132.145"/>
<polygon fill="midnightblue" stroke="midnightblue" points="390.392,-135.562 399.489,-130.131 388.991,-128.704 390.392,-135.562"/>
</g>
<!-- Node5 -->
<g id="node5" class="node"><title>Node5</title>
<g id="a_node5"><a xlink:href="../../d6/dc9/structfixed.html#a35ab68b29d570ad4cdb6c752b344f7e2" target="_top" xlink:title=" ">
<polygon fill="white" stroke="black" points="549,-114.5 549,-133.5 612,-133.5 612,-114.5 549,-114.5"/>
<text text-anchor="middle" x="580.5" y="-121.5" font-family="Helvetica,sans-Serif" font-size="10.00">fixed::fixed</text>
</a>
</g>
</g>
<!-- Node4&#45;&gt;Node5 -->
<g id="edge4" class="edge"><title>Node4&#45;&gt;Node5</title>
<path fill="none" stroke="midnightblue" d="M461.807,-124C484.081,-124 514.582,-124 538.952,-124"/>
<polygon fill="midnightblue" stroke="midnightblue" points="538.979,-127.5 548.979,-124 538.979,-120.5 538.979,-127.5"/>
</g>
<!-- Node6&#45;&gt;Node4 -->
<g id="edge6" class="edge"><title>Node6&#45;&gt;Node4</title>
<path fill="none" stroke="midnightblue" d="M280.693,-124C312.029,-124 356.78,-124 389.013,-124"/>
<polygon fill="midnightblue" stroke="midnightblue" points="389.426,-127.5 399.426,-124 389.426,-120.5 389.426,-127.5"/>
</g>
<!-- Node9 -->
<g id="node9" class="node"><title>Node9</title>
<g id="a_node9"><a xlink:href="../../d9/de5/struct_indoor_camera_d3_d.html#ae44ac296d0d5225048b313e14edf7da1" target="_top" xlink:title=" ">
<polygon fill="white" stroke="black" points="356.5,-76.5 356.5,-95.5 504.5,-95.5 504.5,-76.5 356.5,-76.5"/>
<text text-anchor="middle" x="430.5" y="-83.5" font-family="Helvetica,sans-Serif" font-size="10.00">IndoorCameraD3D::GetFarClip</text>
</a>
</g>
</g>
<!-- Node8&#45;&gt;Node9 -->
<g id="edge9" class="edge"><title>Node8&#45;&gt;Node9</title>
<path fill="none" stroke="midnightblue" d="M290.436,-57.589C315.533,-62.7165 346.619,-69.0672 373.03,-74.4632"/>
<polygon fill="midnightblue" stroke="midnightblue" points="372.404,-77.9074 382.902,-76.4799 373.805,-71.049 372.404,-77.9074"/>
</g>
<!-- Node10 -->
<g id="node10" class="node"><title>Node10</title>
<g id="a_node10"><a xlink:href="../../d9/de5/struct_indoor_camera_d3_d.html#a6ade9a050aa9009a83e21461c6c470c4" target="_top" xlink:title=" ">
<polygon fill="white" stroke="black" points="353.5,-38.5 353.5,-57.5 507.5,-57.5 507.5,-38.5 353.5,-38.5"/>
<text text-anchor="middle" x="430.5" y="-45.5" font-family="Helvetica,sans-Serif" font-size="10.00">IndoorCameraD3D::GetNearClip</text>
</a>
</g>
</g>
<!-- Node8&#45;&gt;Node10 -->
<g id="edge10" class="edge"><title>Node8&#45;&gt;Node10</title>
<path fill="none" stroke="midnightblue" d="M312.231,-48C322.243,-48 332.659,-48 342.968,-48"/>
<polygon fill="midnightblue" stroke="midnightblue" points="343.223,-51.5001 353.223,-48 343.223,-44.5001 343.223,-51.5001"/>
</g>
<!-- Node11 -->
<g id="node11" class="node"><title>Node11</title>
<g id="a_node11"><a xlink:href="../../d9/de5/struct_indoor_camera_d3_d.html#a819c840787fde1b667c5477bafb21a62" target="_top" xlink:title=" ">
<polygon fill="white" stroke="black" points="348,-0.5 348,-19.5 513,-19.5 513,-0.5 348,-0.5"/>
<text text-anchor="middle" x="430.5" y="-7.5" font-family="Helvetica,sans-Serif" font-size="10.00">IndoorCameraD3D::ViewTransform</text>
</a>
</g>
</g>
<!-- Node8&#45;&gt;Node11 -->
<g id="edge11" class="edge"><title>Node8&#45;&gt;Node11</title>
<path fill="none" stroke="midnightblue" d="M290.436,-38.411C315.533,-33.2835 346.619,-26.9328 373.03,-21.5368"/>
<polygon fill="midnightblue" stroke="midnightblue" points="373.805,-24.951 382.902,-19.5201 372.404,-18.0926 373.805,-24.951"/>
</g>
</g>
</svg>
