<?xml version="1.0" encoding="UTF-8" standalone="no"?>
<!DOCTYPE svg PUBLIC "-//W3C//DTD SVG 1.1//EN"
 "http://www.w3.org/Graphics/SVG/1.1/DTD/svg11.dtd">
<!-- Generated by graphviz version 2.38.0 (20140413.2041)
 -->
<!-- Title: stru10::CalcFaceBounding Pages: 1 -->
<svg width="297pt" height="66pt"
 viewBox="0.00 0.00 297.00 66.00" xmlns="http://www.w3.org/2000/svg" xmlns:xlink="http://www.w3.org/1999/xlink">
<g id="graph0" class="graph" transform="scale(1 1) rotate(0) translate(4 62)">
<title>stru10::CalcFaceBounding</title>
<polygon fill="white" stroke="none" points="-4,4 -4,-62 293,-62 293,4 -4,4"/>
<!-- Node1 -->
<g id="node1" class="node"><title>Node1</title>
<g id="a_node1"><a xlink:title=" ">
<polygon fill="#bfbfbf" stroke="black" points="158,-19.5 158,-38.5 289,-38.5 289,-19.5 158,-19.5"/>
<text text-anchor="middle" x="223.5" y="-26.5" font-family="Helvetica,sans-Serif" font-size="10.00">stru10::CalcFaceBounding</text>
</a>
</g>
</g>
<!-- Node2 -->
<g id="node2" class="node"><title>Node2</title>
<g id="a_node2"><a xlink:href="../../d0/da9/structstru10.html#ad0f015a8c888fbecbbf95a0e52e90dbf" target="_top" xlink:title=" ">
<polygon fill="white" stroke="black" points="15.5,-38.5 15.5,-57.5 106.5,-57.5 106.5,-38.5 15.5,-38.5"/>
<text text-anchor="middle" x="61" y="-45.5" font-family="Helvetica,sans-Serif" font-size="10.00">stru10::_49C5DA</text>
</a>
</g>
</g>
<!-- Node1&#45;&gt;Node2 -->
<g id="edge1" class="edge"><title>Node1&#45;&gt;Node2</title>
<path fill="none" stroke="midnightblue" d="M147.603,-37.8663C133.677,-39.5148 119.535,-41.189 106.865,-42.6889"/>
<polygon fill="midnightblue" stroke="midnightblue" points="148.162,-41.3247 157.681,-36.6733 147.339,-34.3732 148.162,-41.3247"/>
</g>
<!-- Node3 -->
<g id="node3" class="node"><title>Node3</title>
<g id="a_node3"><a xlink:href="../../d0/da9/structstru10.html#aeb7dc7356430a339e07a67f28b4bb9fb" target="_top" xlink:title=" ">
<polygon fill="white" stroke="black" points="0,-0.5 0,-19.5 122,-19.5 122,-0.5 0,-0.5"/>
<text text-anchor="middle" x="61" y="-7.5" font-family="Helvetica,sans-Serif" font-size="10.00">stru10::CalcPortalShape</text>
</a>
</g>
</g>
<!-- Node1&#45;&gt;Node3 -->
<g id="edge2" class="edge"><title>Node1&#45;&gt;Node3</title>
<path fill="none" stroke="midnightblue" d="M147.686,-20.1435C139.119,-19.1293 130.469,-18.1054 122.129,-17.1181"/>
<polygon fill="midnightblue" stroke="midnightblue" points="147.339,-23.6268 157.681,-21.3267 148.162,-16.6753 147.339,-23.6268"/>
</g>
</g>
</svg>
