<?xml version="1.0" encoding="UTF-8" standalone="no"?>
<!DOCTYPE svg PUBLIC "-//W3C//DTD SVG 1.1//EN"
 "http://www.w3.org/Graphics/SVG/1.1/DTD/svg11.dtd">
<!-- Generated by graphviz version 2.38.0 (20140413.2041)
 -->
<!-- Title: GUIWindow_DebugMenu::GUIWindow_DebugMenu Pages: 1 -->
<svg width="412pt" height="116pt"
 viewBox="0.00 0.00 412.00 116.00" xmlns="http://www.w3.org/2000/svg" xmlns:xlink="http://www.w3.org/1999/xlink">
<g id="graph0" class="graph" transform="scale(1 1) rotate(0) translate(4 112)">
<title>GUIWindow_DebugMenu::GUIWindow_DebugMenu</title>
<polygon fill="white" stroke="none" points="-4,4 -4,-112 408,-112 408,4 -4,4"/>
<!-- Node1 -->
<g id="node1" class="node"><title>Node1</title>
<g id="a_node1"><a xlink:title=" ">
<polygon fill="#bfbfbf" stroke="black" points="0,-39 0,-69 131,-69 131,-39 0,-39"/>
<text text-anchor="start" x="8" y="-57" font-family="Helvetica,sans-Serif" font-size="10.00">GUIWindow_DebugMenu</text>
<text text-anchor="middle" x="65.5" y="-46" font-family="Helvetica,sans-Serif" font-size="10.00">::GUIWindow_DebugMenu</text>
</a>
</g>
</g>
<!-- Node2 -->
<g id="node2" class="node"><title>Node2</title>
<g id="a_node2"><a xlink:href="../../d4/d38/class_g_u_i_window.html#a29f96468b54f142995e3b1890cb7e45e" target="_top" xlink:title=" ">
<polygon fill="white" stroke="black" points="168,-88.5 168,-107.5 299,-107.5 299,-88.5 168,-88.5"/>
<text text-anchor="middle" x="233.5" y="-95.5" font-family="Helvetica,sans-Serif" font-size="10.00">GUIWindow::CreateButton</text>
</a>
</g>
</g>
<!-- Node1&#45;&gt;Node2 -->
<g id="edge1" class="edge"><title>Node1&#45;&gt;Node2</title>
<path fill="none" stroke="midnightblue" d="M123.163,-69.0192C143.799,-74.4888 166.857,-80.6007 186.459,-85.7964"/>
<polygon fill="midnightblue" stroke="midnightblue" points="185.801,-89.2427 196.364,-88.4217 187.594,-82.4763 185.801,-89.2427"/>
</g>
<!-- Node3 -->
<g id="node3" class="node"><title>Node3</title>
<g id="a_node3"><a xlink:href="../../db/dd6/class_assets_manager.html#ad4ab70fc004c8c5a54756f3d358a8383" target="_top" xlink:title=" ">
<polygon fill="white" stroke="black" points="167,-39 167,-69 300,-69 300,-39 167,-39"/>
<text text-anchor="start" x="175" y="-57" font-family="Helvetica,sans-Serif" font-size="10.00">AssetsManager::GetImage</text>
<text text-anchor="middle" x="233.5" y="-46" font-family="Helvetica,sans-Serif" font-size="10.00">_ColorKey</text>
</a>
</g>
</g>
<!-- Node1&#45;&gt;Node3 -->
<g id="edge2" class="edge"><title>Node1&#45;&gt;Node3</title>
<path fill="none" stroke="midnightblue" d="M131.155,-54C139.596,-54 148.303,-54 156.903,-54"/>
<polygon fill="midnightblue" stroke="midnightblue" points="156.928,-57.5001 166.928,-54 156.928,-50.5001 156.928,-57.5001"/>
</g>
<!-- Node4 -->
<g id="node4" class="node"><title>Node4</title>
<g id="a_node4"><a xlink:href="../../d8/da1/struct_timer.html#a9b8c57bf9675da635a82d68d9b4d05e5" target="_top" xlink:title=" ">
<polygon fill="white" stroke="black" points="196.5,-0.5 196.5,-19.5 270.5,-19.5 270.5,-0.5 196.5,-0.5"/>
<text text-anchor="middle" x="233.5" y="-7.5" font-family="Helvetica,sans-Serif" font-size="10.00">Timer::Pause</text>
</a>
</g>
</g>
<!-- Node1&#45;&gt;Node4 -->
<g id="edge3" class="edge"><title>Node1&#45;&gt;Node4</title>
<path fill="none" stroke="midnightblue" d="M123.163,-38.9808C143.799,-33.5112 166.857,-27.3993 186.459,-22.2036"/>
<polygon fill="midnightblue" stroke="midnightblue" points="187.594,-25.5237 196.364,-19.5783 185.801,-18.7573 187.594,-25.5237"/>
</g>
<!-- Node5 -->
<g id="node5" class="node"><title>Node5</title>
<g id="a_node5"><a xlink:href="../../d8/da1/struct_timer.html#af11deea7dde51d637aec54587820f92b" target="_top" xlink:title=" ">
<polygon fill="white" stroke="black" points="336,-0.5 336,-19.5 404,-19.5 404,-0.5 336,-0.5"/>
<text text-anchor="middle" x="370" y="-7.5" font-family="Helvetica,sans-Serif" font-size="10.00">Timer::Time</text>
</a>
</g>
</g>
<!-- Node4&#45;&gt;Node5 -->
<g id="edge4" class="edge"><title>Node4&#45;&gt;Node5</title>
<path fill="none" stroke="midnightblue" d="M270.544,-10C287.456,-10 307.751,-10 325.51,-10"/>
<polygon fill="midnightblue" stroke="midnightblue" points="325.629,-13.5001 335.629,-10 325.629,-6.5001 325.629,-13.5001"/>
</g>
</g>
</svg>
