<?xml version="1.0" encoding="UTF-8" standalone="no"?>
<!DOCTYPE svg PUBLIC "-//W3C//DTD SVG 1.1//EN"
 "http://www.w3.org/Graphics/SVG/1.1/DTD/svg11.dtd">
<!-- Generated by graphviz version 2.38.0 (20140413.2041)
 -->
<!-- Title: AVStreamWrapper::open Pages: 1 -->
<svg width="413pt" height="211pt"
 viewBox="0.00 0.00 413.00 211.00" xmlns="http://www.w3.org/2000/svg" xmlns:xlink="http://www.w3.org/1999/xlink">
<g id="graph0" class="graph" transform="scale(1 1) rotate(0) translate(4 207)">
<title>AVStreamWrapper::open</title>
<polygon fill="white" stroke="none" points="-4,4 -4,-207 409,-207 409,4 -4,4"/>
<!-- Node1 -->
<g id="node1" class="node"><title>Node1</title>
<g id="a_node1"><a xlink:title=" ">
<polygon fill="#bfbfbf" stroke="black" points="0,-107.5 0,-126.5 125,-126.5 125,-107.5 0,-107.5"/>
<text text-anchor="middle" x="62.5" y="-114.5" font-family="Helvetica,sans-Serif" font-size="10.00">AVStreamWrapper::open</text>
</a>
</g>
</g>
<!-- Node2 -->
<g id="node2" class="node"><title>Node2</title>
<g id="a_node2"><a xlink:href="../../dc/d2c/group__lavf__decoding.html#gaa6fa468c922ff5c60a6021dcac09aff9" target="_top" xlink:title=" ">
<polygon fill="white" stroke="black" points="172.5,-183.5 172.5,-202.5 277.5,-202.5 277.5,-183.5 172.5,-183.5"/>
<text text-anchor="middle" x="225" y="-190.5" font-family="Helvetica,sans-Serif" font-size="10.00">av_find_best_stream</text>
</a>
</g>
</g>
<!-- Node1&#45;&gt;Node2 -->
<g id="edge1" class="edge"><title>Node1&#45;&gt;Node2</title>
<path fill="none" stroke="midnightblue" d="M77.4752,-126.603C95.9211,-138.936 129.724,-160.37 161,-174 166.3,-176.31 171.967,-178.449 177.648,-180.394"/>
<polygon fill="midnightblue" stroke="midnightblue" points="176.569,-183.724 187.161,-183.482 178.73,-177.066 176.569,-183.724"/>
</g>
<!-- Node3 -->
<g id="node3" class="node"><title>Node3</title>
<g id="a_node3"><a xlink:href="../../d5/d44/group__lavc__core.html#gae80afec6f26df6607eaacf39b561c315" target="_top" xlink:title=" ">
<polygon fill="white" stroke="black" points="165,-145.5 165,-164.5 285,-164.5 285,-145.5 165,-145.5"/>
<text text-anchor="middle" x="225" y="-152.5" font-family="Helvetica,sans-Serif" font-size="10.00">avcodec_alloc_context3</text>
</a>
</g>
</g>
<!-- Node1&#45;&gt;Node3 -->
<g id="edge2" class="edge"><title>Node1&#45;&gt;Node3</title>
<path fill="none" stroke="midnightblue" d="M104.001,-126.589C125.181,-131.604 151.302,-137.788 173.76,-143.105"/>
<polygon fill="midnightblue" stroke="midnightblue" points="173.253,-146.582 183.79,-145.48 174.866,-139.77 173.253,-146.582"/>
</g>
<!-- Node4 -->
<g id="node4" class="node"><title>Node4</title>
<g id="a_node4"><a xlink:href="../../d5/d44/group__lavc__core.html#ga11f785a188d7d9df71621001465b0f1d" target="_top" xlink:title=" ">
<polygon fill="white" stroke="black" points="183.5,-107.5 183.5,-126.5 266.5,-126.5 266.5,-107.5 183.5,-107.5"/>
<text text-anchor="middle" x="225" y="-114.5" font-family="Helvetica,sans-Serif" font-size="10.00">avcodec_open2</text>
</a>
</g>
</g>
<!-- Node1&#45;&gt;Node4 -->
<g id="edge3" class="edge"><title>Node1&#45;&gt;Node4</title>
<path fill="none" stroke="midnightblue" d="M125.094,-117C140.896,-117 157.72,-117 172.926,-117"/>
<polygon fill="midnightblue" stroke="midnightblue" points="173.162,-120.5 183.162,-117 173.162,-113.5 173.162,-120.5"/>
</g>
<!-- Node5 -->
<g id="node5" class="node"><title>Node5</title>
<g id="a_node5"><a xlink:href="../../d5/d44/group__lavc__core.html#gac7b282f51540ca7a99416a3ba6ee0d16" target="_top" xlink:title=" ">
<polygon fill="white" stroke="black" points="172,-58 172,-88 278,-88 278,-58 172,-58"/>
<text text-anchor="start" x="180" y="-76" font-family="Helvetica,sans-Serif" font-size="10.00">avcodec_parameters</text>
<text text-anchor="middle" x="225" y="-65" font-family="Helvetica,sans-Serif" font-size="10.00">_to_context</text>
</a>
</g>
</g>
<!-- Node1&#45;&gt;Node5 -->
<g id="edge4" class="edge"><title>Node1&#45;&gt;Node5</title>
<path fill="none" stroke="midnightblue" d="M98.3261,-107.453C116.955,-102.346 140.453,-95.904 162.075,-89.9762"/>
<polygon fill="midnightblue" stroke="midnightblue" points="163.135,-93.3149 171.854,-87.2955 161.284,-86.564 163.135,-93.3149"/>
</g>
<!-- Node6 -->
<g id="node6" class="node"><title>Node6</title>
<g id="a_node6"><a xlink:href="../../da/ddd/class_a_v_stream_wrapper.html#a8dc7c5ed0a01d7d464ef26a59ed46762" target="_top" xlink:title=" ">
<polygon fill="white" stroke="black" points="161,-19.5 161,-38.5 289,-38.5 289,-19.5 161,-19.5"/>
<text text-anchor="middle" x="225" y="-26.5" font-family="Helvetica,sans-Serif" font-size="10.00">AVStreamWrapper::close</text>
</a>
</g>
</g>
<!-- Node1&#45;&gt;Node6 -->
<g id="edge5" class="edge"><title>Node1&#45;&gt;Node6</title>
<path fill="none" stroke="midnightblue" d="M74.7866,-107.404C92.2459,-92.9744 127.314,-65.614 161,-49 166.275,-46.3986 171.962,-44.0372 177.686,-41.9239"/>
<polygon fill="midnightblue" stroke="midnightblue" points="178.98,-45.1799 187.286,-38.6033 176.692,-38.5644 178.98,-45.1799"/>
</g>
<!-- Node7 -->
<g id="node7" class="node"><title>Node7</title>
<g id="a_node7"><a xlink:href="../../d5/d44/group__lavc__core.html#gaf4daa92361efb3523ef5afeb0b54077f" target="_top" xlink:title=" ">
<polygon fill="white" stroke="black" points="325,-38.5 325,-57.5 405,-57.5 405,-38.5 325,-38.5"/>
<text text-anchor="middle" x="365" y="-45.5" font-family="Helvetica,sans-Serif" font-size="10.00">avcodec_close</text>
</a>
</g>
</g>
<!-- Node6&#45;&gt;Node7 -->
<g id="edge6" class="edge"><title>Node6&#45;&gt;Node7</title>
<path fill="none" stroke="midnightblue" d="M289.345,-37.7215C297.815,-38.8876 306.399,-40.0694 314.582,-41.1961"/>
<polygon fill="midnightblue" stroke="midnightblue" points="314.31,-44.6916 324.694,-42.5883 315.265,-37.757 314.31,-44.6916"/>
</g>
<!-- Node8 -->
<g id="node8" class="node"><title>Node8</title>
<g id="a_node8"><a xlink:href="../../d6/d70/class_log.html#ac0de2621497ca3b2fbf208624c08bcdf" target="_top" xlink:title=" ">
<polygon fill="white" stroke="black" points="328,-0.5 328,-19.5 402,-19.5 402,-0.5 328,-0.5"/>
<text text-anchor="middle" x="365" y="-7.5" font-family="Helvetica,sans-Serif" font-size="10.00">Log::Warning</text>
</a>
</g>
</g>
<!-- Node6&#45;&gt;Node8 -->
<g id="edge7" class="edge"><title>Node6&#45;&gt;Node8</title>
<path fill="none" stroke="midnightblue" d="M289.345,-20.2785C298.921,-18.9602 308.643,-17.6217 317.766,-16.3655"/>
<polygon fill="midnightblue" stroke="midnightblue" points="318.344,-19.8191 327.773,-14.9878 317.389,-12.8845 318.344,-19.8191"/>
</g>
</g>
</svg>
