<?xml version="1.0" encoding="UTF-8" standalone="no"?>
<!DOCTYPE svg PUBLIC "-//W3C//DTD SVG 1.1//EN"
 "http://www.w3.org/Graphics/SVG/1.1/DTD/svg11.dtd">
<!-- Generated by graphviz version 2.38.0 (20140413.2041)
 -->
<!-- Title: WeaponShopWares Pages: 1 -->
<!--zoomable 665 -->
<svg id="main" version="1.1" xmlns="http://www.w3.org/2000/svg" xmlns:xlink="http://www.w3.org/1999/xlink" xml:space="preserve" onload="init(evt)">
<style type="text/css"><![CDATA[
.edge:hover path { stroke: red; }
.edge:hover polygon { stroke: red; fill: red; }
]]></style>
<script type="text/javascript"><![CDATA[
var edges = document.getElementsByTagName('g');
if (edges && edges.length) {
  for (var i=0;i<edges.length;i++) {
    if (edges[i].id.substr(0,4)=='edge') {
      edges[i].setAttribute('class','edge');
    }
  }
}
]]></script>
        <defs>
                <circle id="rim" cx="0" cy="0" r="7"/>
                <circle id="rim2" cx="0" cy="0" r="3.5"/>
                <g id="zoomPlus">
                        <use xlink:href="#rim" fill="#404040">
                                <set attributeName="fill" to="#808080" begin="zoomplus.mouseover" end="zoomplus.mouseout"/>
                        </use>
                        <path d="M-4,0h8M0,-4v8" fill="none" stroke="white" stroke-width="1.5" pointer-events="none"/>
                </g>
                <g id="zoomMin">
                        <use xlink:href="#rim" fill="#404040">
                                <set attributeName="fill" to="#808080" begin="zoomminus.mouseover" end="zoomminus.mouseout"/>
                        </use>
                        <path d="M-4,0h8" fill="none" stroke="white" stroke-width="1.5" pointer-events="none"/>
                </g>
                <g id="dirArrow">
                        <path fill="none" stroke="white" stroke-width="1.5" d="M0,-3.0v7 M-2.5,-0.5L0,-3.0L2.5,-0.5"/>
                </g>
               <g id="resetDef">
                       <use xlink:href="#rim2" fill="#404040">
                               <set attributeName="fill" to="#808080" begin="reset.mouseover" end="reset.mouseout"/>
                       </use>
               </g>
        </defs>

<script type="text/javascript">
var viewWidth = 1174;
var viewHeight = 665;
var sectionId = 'dynsection-0';
</script>
<script xlink:href="../../svgpan.js"/>
<svg id="graph" class="graph">
<g id="viewport">
<title>WeaponShopWares</title>
<polygon fill="white" stroke="none" points="-4,4 -4,-661 1170,-661 1170,4 -4,4"/>
<!-- Node1 -->
<g id="node1" class="node"><title>Node1</title>
<g id="a_node1"><a xlink:title=" ">
<polygon fill="#bfbfbf" stroke="black" points="0,-230 0,-249 104,-249 104,-230 0,-230"/>
<text text-anchor="middle" x="52" y="-237" font-family="Helvetica,sans-Serif" font-size="10.00">WeaponShopWares</text>
</a>
</g>
</g>
<!-- Node2 -->
<g id="node2" class="node"><title>Node2</title>
<g id="a_node2"><a xlink:href="../../dc/dce/_g_u_i_window_8cpp.html#a64d55e0c3e7a3991e8c2951291a85b00" target="_top" xlink:title=" ">
<polygon fill="white" stroke="black" points="176,-557 176,-576 277,-576 277,-557 176,-557"/>
<text text-anchor="middle" x="226.5" y="-564" font-family="Helvetica,sans-Serif" font-size="10.00">BuildDialogueString</text>
</a>
</g>
</g>
<!-- Node1&#45;&gt;Node2 -->
<g id="edge1" class="edge"><title>Node1&#45;&gt;Node2</title>
<path fill="none" stroke="midnightblue" d="M52.4862,-249.008C50.7691,-291.083 49.736,-462.208 140,-547.5 147.294,-554.393 156.511,-558.994 166.173,-562.028"/>
<polygon fill="midnightblue" stroke="midnightblue" points="165.37,-565.435 175.929,-564.566 167.132,-558.661 165.37,-565.435"/>
</g>
<!-- Node3 -->
<g id="node3" class="node"><title>Node3</title>
<g id="a_node3"><a xlink:href="../../d3/d39/class_g_u_i_font.html#a08b74df638b5c055d9f18f5ce4d8ee11" target="_top" xlink:title=" ">
<polygon fill="white" stroke="black" points="352.5,-360 352.5,-379 477.5,-379 477.5,-360 352.5,-360"/>
<text text-anchor="middle" x="415" y="-367" font-family="Helvetica,sans-Serif" font-size="10.00">GUIFont::CalcTextHeight</text>
</a>
</g>
</g>
<!-- Node1&#45;&gt;Node3 -->
<g id="edge3" class="edge"><title>Node1&#45;&gt;Node3</title>
<path fill="none" stroke="midnightblue" d="M57.6223,-249.308C68.4746,-271.083 97.8861,-323.283 140,-345.5 202.453,-378.447 284.177,-381.34 342.072,-377.906"/>
<polygon fill="midnightblue" stroke="midnightblue" points="342.49,-381.386 352.233,-377.224 342.021,-374.401 342.49,-381.386"/>
</g>
<!-- Node6 -->
<g id="node6" class="node"><title>Node6</title>
<g id="a_node6"><a xlink:href="../../d4/d68/_engine_8cpp.html#a08aa5a1574881457a84b6365c8899183" target="_top" xlink:title=" ">
<polygon fill="white" stroke="black" points="390,-246 390,-265 440,-265 440,-246 390,-246"/>
<text text-anchor="middle" x="415" y="-253" font-family="Helvetica,sans-Serif" font-size="10.00">Color16</text>
</a>
</g>
</g>
<!-- Node1&#45;&gt;Node6 -->
<g id="edge7" class="edge"><title>Node1&#45;&gt;Node6</title>
<path fill="none" stroke="midnightblue" d="M104.339,-241.775C179.049,-245.087 315.753,-251.146 379.53,-253.972"/>
<polygon fill="midnightblue" stroke="midnightblue" points="379.695,-257.483 389.84,-254.429 380.005,-250.49 379.695,-257.483"/>
</g>
<!-- Node7 -->
<g id="node7" class="node"><title>Node7</title>
<g id="a_node7"><a xlink:href="../../d4/d38/class_g_u_i_window.html#a8e8028e1c992d833f13b7dd33edc8cf6" target="_top" xlink:title=" ">
<polygon fill="white" stroke="black" points="165,-295 165,-336 288,-336 288,-295 165,-295"/>
<text text-anchor="start" x="173" y="-324" font-family="Helvetica,sans-Serif" font-size="10.00">GUIWindow::DrawShops</text>
<text text-anchor="start" x="173" y="-313" font-family="Helvetica,sans-Serif" font-size="10.00">_next_generation_time</text>
<text text-anchor="middle" x="226.5" y="-302" font-family="Helvetica,sans-Serif" font-size="10.00">_string</text>
</a>
</g>
</g>
<!-- Node1&#45;&gt;Node7 -->
<g id="edge8" class="edge"><title>Node1&#45;&gt;Node7</title>
<path fill="none" stroke="midnightblue" d="M74.8472,-249.125C98.5287,-259.559 137.26,-276.623 169.52,-290.836"/>
<polygon fill="midnightblue" stroke="midnightblue" points="168.301,-294.124 178.863,-294.953 171.123,-287.718 168.301,-294.124"/>
</g>
<!-- Node8 -->
<g id="node8" class="node"><title>Node8</title>
<g id="a_node8"><a xlink:href="../../d4/d38/class_g_u_i_window.html#aae805c92b9242bc94cf18c7a702433f7" target="_top" xlink:title=" ">
<polygon fill="white" stroke="black" points="349,-485 349,-504 481,-504 481,-485 349,-485"/>
<text text-anchor="middle" x="415" y="-492" font-family="Helvetica,sans-Serif" font-size="10.00">GUIWindow::DrawTitleText</text>
</a>
</g>
</g>
<!-- Node1&#45;&gt;Node8 -->
<g id="edge33" class="edge"><title>Node1&#45;&gt;Node8</title>
<path fill="none" stroke="midnightblue" d="M56.7755,-249.105C66.7854,-273.442 96.2648,-338.233 140,-375.5 206.609,-432.257 304.451,-465.894 363.414,-482.23"/>
<polygon fill="midnightblue" stroke="midnightblue" points="362.676,-485.656 373.243,-484.893 364.506,-478.9 362.676,-485.656"/>
</g>
<!-- Node13 -->
<g id="node13" class="node"><title>Node13</title>
<g id="a_node13"><a xlink:href="../../dd/d88/class_localization.html#a0eb0a17fdf90f6a420eeac65bf62436f" target="_top" xlink:title=" ">
<polygon fill="white" stroke="black" points="519.5,-170 519.5,-189 635.5,-189 635.5,-170 519.5,-170"/>
<text text-anchor="middle" x="577.5" y="-177" font-family="Helvetica,sans-Serif" font-size="10.00">Localization::GetString</text>
</a>
</g>
</g>
<!-- Node1&#45;&gt;Node13 -->
<g id="edge42" class="edge"><title>Node1&#45;&gt;Node13</title>
<path fill="none" stroke="midnightblue" d="M67.4186,-229.955C84.1542,-219.344 112.929,-202.516 140,-193.5 229.222,-163.786 255.248,-167.856 349,-160.5 407.487,-155.911 422.616,-154.749 481,-160.5 496.309,-162.008 512.802,-164.845 527.702,-167.875"/>
<polygon fill="midnightblue" stroke="midnightblue" points="527.222,-171.351 537.729,-169.99 528.666,-164.501 527.222,-171.351"/>
</g>
<!-- Node23 -->
<g id="node23" class="node"><title>Node23</title>
<g id="a_node23"><a xlink:href="../../d4/dca/_u_i_status_bar_8cpp.html#a17bbc7a9910d08427f658850ba3ab7d6" target="_top" xlink:title=" ">
<polygon fill="white" stroke="black" points="140,-519 140,-538 313,-538 313,-519 140,-519"/>
<text text-anchor="middle" x="226.5" y="-526" font-family="Helvetica,sans-Serif" font-size="10.00">GameUI_StatusBar_DrawImmediate</text>
</a>
</g>
</g>
<!-- Node1&#45;&gt;Node23 -->
<g id="edge34" class="edge"><title>Node1&#45;&gt;Node23</title>
<path fill="none" stroke="midnightblue" d="M54.8269,-249.384C61.3485,-282.556 86.0305,-391.857 140,-463.5 155.812,-484.49 180.128,-502.07 198.792,-513.632"/>
<polygon fill="midnightblue" stroke="midnightblue" points="197.062,-516.675 207.439,-518.813 200.66,-510.67 197.062,-516.675"/>
</g>
<!-- Node26 -->
<g id="node26" class="node"><title>Node26</title>
<g id="a_node26"><a xlink:href="../../d7/dc5/class_mouse.html#a8900246ba042b33090b8dc8e377fbb3a" target="_top" xlink:title=" ">
<polygon fill="white" stroke="black" points="170,-126 170,-145 283,-145 283,-126 170,-126"/>
<text text-anchor="middle" x="226.5" y="-133" font-family="Helvetica,sans-Serif" font-size="10.00">Mouse::GetCursorPos</text>
</a>
</g>
</g>
<!-- Node1&#45;&gt;Node26 -->
<g id="edge40" class="edge"><title>Node1&#45;&gt;Node26</title>
<path fill="none" stroke="midnightblue" d="M60.7978,-229.81C74.8495,-212.989 106.127,-178.384 140,-159.5 148.295,-154.875 157.549,-151.087 166.82,-147.999"/>
<polygon fill="midnightblue" stroke="midnightblue" points="167.923,-151.322 176.448,-145.031 165.86,-144.633 167.923,-151.322"/>
</g>
<!-- Node27 -->
<g id="node27" class="node"><title>Node27</title>
<g id="a_node27"><a xlink:href="../../d0/d14/struct_party.html#a2e22e5307901cb1acb688185168b6161" target="_top" xlink:title=" ">
<polygon fill="white" stroke="black" points="169,-88 169,-107 284,-107 284,-88 169,-88"/>
<text text-anchor="middle" x="226.5" y="-95" font-family="Helvetica,sans-Serif" font-size="10.00">Party::GetPlayingTime</text>
</a>
</g>
</g>
<!-- Node1&#45;&gt;Node27 -->
<g id="edge41" class="edge"><title>Node1&#45;&gt;Node27</title>
<path fill="none" stroke="midnightblue" d="M56.8112,-229.995C66.705,-206.611 95.5713,-146.05 140,-116.5 145.785,-112.653 152.228,-109.573 158.91,-107.111"/>
<polygon fill="midnightblue" stroke="midnightblue" points="160.373,-110.317 168.823,-103.926 158.231,-103.652 160.373,-110.317"/>
</g>
<!-- Node28 -->
<g id="node28" class="node"><title>Node28</title>
<g id="a_node28"><a xlink:href="../../d3/d54/_u_i_houses_8cpp.html#aaef68534ab4d38fece496837509e8dd7" target="_top" xlink:title=" ">
<polygon fill="white" stroke="black" points="158.5,-202.5 158.5,-232.5 294.5,-232.5 294.5,-202.5 158.5,-202.5"/>
<text text-anchor="start" x="166.5" y="-220.5" font-family="Helvetica,sans-Serif" font-size="10.00">HouseUI_CheckIfPlayerCan</text>
<text text-anchor="middle" x="226.5" y="-209.5" font-family="Helvetica,sans-Serif" font-size="10.00">Interact</text>
</a>
</g>
</g>
<!-- Node1&#45;&gt;Node28 -->
<g id="edge43" class="edge"><title>Node1&#45;&gt;Node28</title>
<path fill="none" stroke="midnightblue" d="M104.289,-232.959C118.087,-231.199 133.322,-229.256 148.199,-227.359"/>
<polygon fill="midnightblue" stroke="midnightblue" points="148.941,-230.792 158.418,-226.055 148.056,-223.849 148.941,-230.792"/>
</g>
<!-- Node36 -->
<g id="node36" class="node"><title>Node36</title>
<g id="a_node36"><a xlink:href="../../d4/ddd/_api_8h.html#afcf1e1d3f06b3cebefde41d256128b66" target="_top" xlink:title=" ">
<polygon fill="white" stroke="black" points="180.5,-50 180.5,-69 272.5,-69 272.5,-50 180.5,-50"/>
<text text-anchor="middle" x="226.5" y="-57" font-family="Helvetica,sans-Serif" font-size="10.00">OS_IfCtrlPressed</text>
</a>
</g>
</g>
<!-- Node1&#45;&gt;Node36 -->
<g id="edge54" class="edge"><title>Node1&#45;&gt;Node36</title>
<path fill="none" stroke="midnightblue" d="M55.2611,-229.669C62.3254,-201.293 86.7655,-118.72 140,-78.5 148.824,-71.833 159.536,-67.4206 170.351,-64.52"/>
<polygon fill="midnightblue" stroke="midnightblue" points="171.289,-67.896 180.26,-62.2598 169.732,-61.0713 171.289,-67.896"/>
</g>
<!-- Node39 -->
<g id="node39" class="node"><title>Node39</title>
<g id="a_node39"><a xlink:href="../../d1/d12/class_engine___1_1_ioc_container.html#ad92ce5cee27f4415ef48d49dea4ec074" target="_top" xlink:title=" ">
<polygon fill="white" stroke="black" points="170.5,-0.5 170.5,-30.5 282.5,-30.5 282.5,-0.5 170.5,-0.5"/>
<text text-anchor="start" x="178.5" y="-18.5" font-family="Helvetica,sans-Serif" font-size="10.00">Engine_::IocContainer</text>
<text text-anchor="middle" x="226.5" y="-7.5" font-family="Helvetica,sans-Serif" font-size="10.00">::ResolveMouse</text>
</a>
</g>
</g>
<!-- Node1&#45;&gt;Node39 -->
<g id="edge57" class="edge"><title>Node1&#45;&gt;Node39</title>
<path fill="none" stroke="midnightblue" d="M54.2964,-229.943C59.1402,-198.015 79.1361,-94.0499 140,-40.5 146.108,-35.1256 153.317,-30.9043 160.916,-27.5892"/>
<polygon fill="midnightblue" stroke="midnightblue" points="162.247,-30.8273 170.33,-23.9783 159.74,-24.2916 162.247,-30.8273"/>
</g>
<!-- Node2&#45;&gt;Node2 -->
<g id="edge2" class="edge"><title>Node2&#45;&gt;Node2</title>
<path fill="none" stroke="midnightblue" d="M199.682,-576.257C186.635,-585.065 195.574,-594.5 226.5,-594.5 247.278,-594.5 258.132,-590.241 259.06,-584.775"/>
<polygon fill="midnightblue" stroke="midnightblue" points="261.81,-582.593 253.318,-576.257 256.006,-586.505 261.81,-582.593"/>
</g>
<!-- Node4 -->
<g id="node4" class="node"><title>Node4</title>
<g id="a_node4"><a xlink:href="../../d3/d39/class_g_u_i_font.html#acff82a6ae67e879bd76ddc52aa25fe02" target="_top" xlink:title=" ">
<polygon fill="white" stroke="black" points="674,-512 674,-531 811,-531 811,-512 674,-512"/>
<text text-anchor="middle" x="742.5" y="-519" font-family="Helvetica,sans-Serif" font-size="10.00">GUIFont::FitTextInAWindow</text>
</a>
</g>
</g>
<!-- Node3&#45;&gt;Node4 -->
<g id="edge4" class="edge"><title>Node3&#45;&gt;Node4</title>
<path fill="none" stroke="midnightblue" d="M431.771,-379.071C471.309,-402.74 578.349,-464.83 674,-502.5 679.947,-504.842 686.293,-507.023 692.626,-509.009"/>
<polygon fill="midnightblue" stroke="midnightblue" points="691.921,-512.452 702.505,-511.967 693.929,-505.746 691.921,-512.452"/>
</g>
<!-- Node5 -->
<g id="node5" class="node"><title>Node5</title>
<g id="a_node5"><a xlink:href="../../d3/d39/class_g_u_i_font.html#adfbdd225f4c0eedcbf7e82eecd29e404" target="_top" xlink:title=" ">
<polygon fill="white" stroke="black" points="872.5,-493 872.5,-512 980.5,-512 980.5,-493 872.5,-493"/>
<text text-anchor="middle" x="926.5" y="-500" font-family="Helvetica,sans-Serif" font-size="10.00">GUIFont::IsCharValid</text>
</a>
</g>
</g>
<!-- Node3&#45;&gt;Node5 -->
<g id="edge6" class="edge"><title>Node3&#45;&gt;Node5</title>
<path fill="none" stroke="midnightblue" d="M461.045,-379.034C534.717,-394.918 685.365,-428.613 811,-464.5 837.49,-472.067 866.986,-481.89 889.406,-489.653"/>
<polygon fill="midnightblue" stroke="midnightblue" points="888.267,-492.962 898.862,-492.95 890.572,-486.352 888.267,-492.962"/>
</g>
<!-- Node4&#45;&gt;Node5 -->
<g id="edge5" class="edge"><title>Node4&#45;&gt;Node5</title>
<path fill="none" stroke="midnightblue" d="M811.011,-514.452C827.767,-512.703 845.662,-510.835 862.207,-509.108"/>
<polygon fill="midnightblue" stroke="midnightblue" points="862.729,-512.572 872.311,-508.053 862.002,-505.61 862.729,-512.572"/>
</g>
<!-- Node7&#45;&gt;Node3 -->
<g id="edge9" class="edge"><title>Node7&#45;&gt;Node3</title>
<path fill="none" stroke="midnightblue" d="M288.051,-333.032C315.254,-340.909 346.708,-350.016 371.378,-357.159"/>
<polygon fill="midnightblue" stroke="midnightblue" points="370.581,-360.572 381.16,-359.991 372.528,-353.848 370.581,-360.572"/>
</g>
<!-- Node7&#45;&gt;Node6 -->
<g id="edge10" class="edge"><title>Node7&#45;&gt;Node6</title>
<path fill="none" stroke="midnightblue" d="M288.051,-296.02C318.662,-286.172 354.654,-274.592 380.307,-266.34"/>
<polygon fill="midnightblue" stroke="midnightblue" points="381.492,-269.635 389.939,-263.241 379.348,-262.972 381.492,-269.635"/>
</g>
<!-- Node7&#45;&gt;Node8 -->
<g id="edge11" class="edge"><title>Node7&#45;&gt;Node8</title>
<path fill="none" stroke="midnightblue" d="M248.894,-336.034C286.097,-371.74 362.016,-444.606 396.391,-477.599"/>
<polygon fill="midnightblue" stroke="midnightblue" points="394.177,-480.326 403.816,-484.725 399.025,-475.275 394.177,-480.326"/>
</g>
<!-- Node7&#45;&gt;Node13 -->
<g id="edge19" class="edge"><title>Node7&#45;&gt;Node13</title>
<path fill="none" stroke="midnightblue" d="M288.092,-311.976C353.107,-307.12 451.076,-296.361 481,-274.5 509.569,-253.629 490.932,-227.421 517,-203.5 521.364,-199.496 526.482,-196.119 531.852,-193.283"/>
<polygon fill="midnightblue" stroke="midnightblue" points="533.453,-196.399 541.04,-189.004 530.497,-190.053 533.453,-196.399"/>
</g>
<!-- Node14 -->
<g id="node14" class="node"><title>Node14</title>
<g id="a_node14"><a xlink:href="../../dc/dce/_g_u_i_window_8cpp.html#a5113d7cdf579fd445ecf0308393ee8c0" target="_top" xlink:title=" ">
<polygon fill="white" stroke="black" points="361.5,-322 361.5,-341 468.5,-341 468.5,-322 361.5,-322"/>
<text text-anchor="middle" x="415" y="-329" font-family="Helvetica,sans-Serif" font-size="10.00">MakeDateTimeString</text>
</a>
</g>
</g>
<!-- Node7&#45;&gt;Node14 -->
<g id="edge20" class="edge"><title>Node7&#45;&gt;Node14</title>
<path fill="none" stroke="midnightblue" d="M288.051,-320.695C308.251,-322.428 330.794,-324.362 351.163,-326.109"/>
<polygon fill="midnightblue" stroke="midnightblue" points="351.017,-329.609 361.279,-326.977 351.615,-322.635 351.017,-329.609"/>
</g>
<!-- Node8&#45;&gt;Node4 -->
<g id="edge17" class="edge"><title>Node8&#45;&gt;Node4</title>
<path fill="none" stroke="midnightblue" d="M481.087,-499.899C533.659,-504.26 607.804,-510.41 663.54,-515.033"/>
<polygon fill="midnightblue" stroke="midnightblue" points="663.469,-518.539 673.724,-515.878 664.048,-511.563 663.469,-518.539"/>
</g>
<!-- Node9 -->
<g id="node9" class="node"><title>Node9</title>
<g id="a_node9"><a xlink:href="../../d3/d39/class_g_u_i_font.html#a9fa3825419fdf34ded3536e27bccbfdf" target="_top" xlink:title=" ">
<polygon fill="white" stroke="black" points="528,-626.5 528,-656.5 627,-656.5 627,-626.5 528,-626.5"/>
<text text-anchor="start" x="536" y="-644.5" font-family="Helvetica,sans-Serif" font-size="10.00">GUIFont::AlignText</text>
<text text-anchor="middle" x="577.5" y="-633.5" font-family="Helvetica,sans-Serif" font-size="10.00">_Center</text>
</a>
</g>
</g>
<!-- Node8&#45;&gt;Node9 -->
<g id="edge12" class="edge"><title>Node8&#45;&gt;Node9</title>
<path fill="none" stroke="midnightblue" d="M429.424,-504.06C443.494,-514.551 465.648,-532.451 481,-551.5 501.722,-577.213 492.422,-594.443 517,-616.5 518.728,-618.051 520.566,-619.514 522.484,-620.894"/>
<polygon fill="midnightblue" stroke="midnightblue" points="520.991,-624.088 531.325,-626.424 524.703,-618.153 520.991,-624.088"/>
</g>
<!-- Node11 -->
<g id="node11" class="node"><title>Node11</title>
<g id="a_node11"><a xlink:href="../../d3/d39/class_g_u_i_font.html#af8449e36ee49ae96e21f4406b398a010" target="_top" xlink:title=" ">
<polygon fill="white" stroke="black" points="684,-474 684,-493 801,-493 801,-474 684,-474"/>
<text text-anchor="middle" x="742.5" y="-481" font-family="Helvetica,sans-Serif" font-size="10.00">GUIFont::DrawTextLine</text>
</a>
</g>
</g>
<!-- Node8&#45;&gt;Node11 -->
<g id="edge15" class="edge"><title>Node8&#45;&gt;Node11</title>
<path fill="none" stroke="midnightblue" d="M481.087,-492.3C536.89,-490.415 617,-487.707 673.6,-485.795"/>
<polygon fill="midnightblue" stroke="midnightblue" points="674.007,-489.283 683.883,-485.447 673.771,-482.287 674.007,-489.283"/>
</g>
<!-- Node12 -->
<g id="node12" class="node"><title>Node12</title>
<g id="a_node12"><a xlink:href="../../d3/d39/class_g_u_i_font.html#a439cccf73db5fd93ffc18cbba51d07e0" target="_top" xlink:title=" ">
<polygon fill="white" stroke="black" points="526.5,-550 526.5,-569 628.5,-569 628.5,-550 526.5,-550"/>
<text text-anchor="middle" x="577.5" y="-557" font-family="Helvetica,sans-Serif" font-size="10.00">GUIFont::GetHeight</text>
</a>
</g>
</g>
<!-- Node8&#45;&gt;Node12 -->
<g id="edge18" class="edge"><title>Node8&#45;&gt;Node12</title>
<path fill="none" stroke="midnightblue" d="M439.666,-504.124C460.131,-512.443 490.511,-524.781 517,-535.5 525.552,-538.961 534.799,-542.694 543.396,-546.162"/>
<polygon fill="midnightblue" stroke="midnightblue" points="542.17,-549.442 552.753,-549.936 544.788,-542.95 542.17,-549.442"/>
</g>
<!-- Node10 -->
<g id="node10" class="node"><title>Node10</title>
<g id="a_node10"><a xlink:href="../../d3/d39/class_g_u_i_font.html#abf5dc44bc1b328f80d5c7033279a4f8d" target="_top" xlink:title=" ">
<polygon fill="white" stroke="black" points="683.5,-588 683.5,-607 801.5,-607 801.5,-588 683.5,-588"/>
<text text-anchor="middle" x="742.5" y="-595" font-family="Helvetica,sans-Serif" font-size="10.00">GUIFont::GetLineWidth</text>
</a>
</g>
</g>
<!-- Node9&#45;&gt;Node10 -->
<g id="edge13" class="edge"><title>Node9&#45;&gt;Node10</title>
<path fill="none" stroke="midnightblue" d="M627.405,-628.299C649.263,-622.398 674.865,-615.487 696.273,-609.709"/>
<polygon fill="midnightblue" stroke="midnightblue" points="697.355,-613.042 706.097,-607.057 695.53,-606.284 697.355,-613.042"/>
</g>
<!-- Node10&#45;&gt;Node5 -->
<g id="edge14" class="edge"><title>Node10&#45;&gt;Node5</title>
<path fill="none" stroke="midnightblue" d="M761.953,-587.868C794.057,-571.11 860.347,-536.508 897.927,-516.892"/>
<polygon fill="midnightblue" stroke="midnightblue" points="900.024,-519.746 907.269,-512.016 896.784,-513.541 900.024,-519.746"/>
</g>
<!-- Node11&#45;&gt;Node5 -->
<g id="edge16" class="edge"><title>Node11&#45;&gt;Node5</title>
<path fill="none" stroke="midnightblue" d="M801.086,-489.512C820.507,-491.539 842.287,-493.813 862.13,-495.884"/>
<polygon fill="midnightblue" stroke="midnightblue" points="861.998,-499.39 872.308,-496.947 862.725,-492.427 861.998,-499.39"/>
</g>
<!-- Node14&#45;&gt;Node13 -->
<g id="edge31" class="edge"><title>Node14&#45;&gt;Node13</title>
<path fill="none" stroke="midnightblue" d="M458.4,-321.998C466.711,-318.546 474.77,-313.859 481,-307.5 515.231,-272.561 483.291,-238.943 517,-203.5 520.649,-199.664 524.993,-196.425 529.65,-193.693"/>
<polygon fill="midnightblue" stroke="midnightblue" points="531.53,-196.665 538.889,-189.043 528.383,-190.413 531.53,-196.665"/>
</g>
<!-- Node15 -->
<g id="node15" class="node"><title>Node15</title>
<g id="a_node15"><a xlink:href="../../df/dc2/struct_game_time.html#a63923f44c458d6327dec9c87660700a5" target="_top" xlink:title=" ">
<polygon fill="white" stroke="black" points="523.5,-246 523.5,-265 631.5,-265 631.5,-246 523.5,-246"/>
<text text-anchor="middle" x="577.5" y="-253" font-family="Helvetica,sans-Serif" font-size="10.00">GameTime::GetDays</text>
</a>
</g>
</g>
<!-- Node14&#45;&gt;Node15 -->
<g id="edge21" class="edge"><title>Node14&#45;&gt;Node15</title>
<path fill="none" stroke="midnightblue" d="M447.942,-321.904C458.756,-318.088 470.696,-313.228 481,-307.5 498.716,-297.651 499.432,-289.611 517,-279.5 523.703,-275.642 531.148,-272.111 538.438,-269.014"/>
<polygon fill="midnightblue" stroke="midnightblue" points="540.24,-272.061 548.2,-265.069 537.617,-265.571 540.24,-272.061"/>
</g>
<!-- Node19 -->
<g id="node19" class="node"><title>Node19</title>
<g id="a_node19"><a xlink:href="../../df/dc2/struct_game_time.html#a52727e9719cc59a2bfedd0b56ee7d2ba" target="_top" xlink:title=" ">
<polygon fill="white" stroke="black" points="857.5,-208 857.5,-227 995.5,-227 995.5,-208 857.5,-208"/>
<text text-anchor="middle" x="926.5" y="-215" font-family="Helvetica,sans-Serif" font-size="10.00">GameTime::GetHoursOfDay</text>
</a>
</g>
</g>
<!-- Node14&#45;&gt;Node19 -->
<g id="edge25" class="edge"><title>Node14&#45;&gt;Node19</title>
<path fill="none" stroke="midnightblue" d="M449.576,-321.97C460.521,-317.65 472.126,-311.639 481,-303.5 505.912,-280.65 488.397,-254.517 517,-236.5 570.05,-203.084 744.34,-206.733 847.327,-212.209"/>
<polygon fill="midnightblue" stroke="midnightblue" points="847.195,-215.707 857.372,-212.761 847.579,-208.717 847.195,-215.707"/>
</g>
<!-- Node20 -->
<g id="node20" class="node"><title>Node20</title>
<g id="a_node20"><a xlink:href="../../df/dc2/struct_game_time.html#a72d75830ae38cb9176ae7370f0b116a0" target="_top" xlink:title=" ">
<polygon fill="white" stroke="black" points="849,-322 849,-341 1004,-341 1004,-322 849,-322"/>
<text text-anchor="middle" x="926.5" y="-329" font-family="Helvetica,sans-Serif" font-size="10.00">GameTime::GetMinutesFraction</text>
</a>
</g>
</g>
<!-- Node14&#45;&gt;Node20 -->
<g id="edge27" class="edge"><title>Node14&#45;&gt;Node20</title>
<path fill="none" stroke="midnightblue" d="M468.606,-331.5C556.168,-331.5 732.653,-331.5 838.818,-331.5"/>
<polygon fill="midnightblue" stroke="midnightblue" points="838.867,-335 848.867,-331.5 838.867,-328 838.867,-335"/>
</g>
<!-- Node21 -->
<g id="node21" class="node"><title>Node21</title>
<g id="a_node21"><a xlink:href="../../df/dc2/struct_game_time.html#a2b06bc31a7d3a042d1addbcb9a5d3a58" target="_top" xlink:title=" ">
<polygon fill="white" stroke="black" points="847,-284 847,-303 1006,-303 1006,-284 847,-284"/>
<text text-anchor="middle" x="926.5" y="-291" font-family="Helvetica,sans-Serif" font-size="10.00">GameTime::GetSecondsFraction</text>
</a>
</g>
</g>
<!-- Node14&#45;&gt;Node21 -->
<g id="edge29" class="edge"><title>Node14&#45;&gt;Node21</title>
<path fill="none" stroke="midnightblue" d="M468.606,-327.576C555.552,-321.092 730.175,-308.068 836.568,-300.133"/>
<polygon fill="midnightblue" stroke="midnightblue" points="836.934,-303.615 846.646,-299.381 836.413,-296.635 836.934,-303.615"/>
</g>
<!-- Node22 -->
<g id="node22" class="node"><title>Node22</title>
<g id="a_node22"><a xlink:href="../../d8/d44/_strings_8cpp.html#aebf99e80337d8db0a005aebe8a13fb7f" target="_top" xlink:title=" ">
<polygon fill="white" stroke="black" points="545,-360 545,-379 610,-379 610,-360 545,-360"/>
<text text-anchor="middle" x="577.5" y="-367" font-family="Helvetica,sans-Serif" font-size="10.00">StringPrintf</text>
</a>
</g>
</g>
<!-- Node14&#45;&gt;Node22 -->
<g id="edge32" class="edge"><title>Node14&#45;&gt;Node22</title>
<path fill="none" stroke="midnightblue" d="M456.501,-341.089C480.472,-346.764 510.773,-353.938 534.928,-359.657"/>
<polygon fill="midnightblue" stroke="midnightblue" points="534.331,-363.113 544.868,-362.011 535.944,-356.301 534.331,-363.113"/>
</g>
<!-- Node16 -->
<g id="node16" class="node"><title>Node16</title>
<g id="a_node16"><a xlink:href="../../df/dc2/struct_game_time.html#a9f828cfde868d07e1f607171c6809435" target="_top" xlink:title=" ">
<polygon fill="white" stroke="black" points="687,-246 687,-265 798,-265 798,-246 687,-246"/>
<text text-anchor="middle" x="742.5" y="-253" font-family="Helvetica,sans-Serif" font-size="10.00">GameTime::GetHours</text>
</a>
</g>
</g>
<!-- Node15&#45;&gt;Node16 -->
<g id="edge22" class="edge"><title>Node15&#45;&gt;Node16</title>
<path fill="none" stroke="midnightblue" d="M631.872,-255.5C646.206,-255.5 661.862,-255.5 676.74,-255.5"/>
<polygon fill="midnightblue" stroke="midnightblue" points="676.89,-259 686.89,-255.5 676.89,-252 676.89,-259"/>
</g>
<!-- Node17 -->
<g id="node17" class="node"><title>Node17</title>
<g id="a_node17"><a xlink:href="../../df/dc2/struct_game_time.html#a6957230697b66012e8207c587aa65e33" target="_top" xlink:title=" ">
<polygon fill="white" stroke="black" points="866.5,-246 866.5,-265 986.5,-265 986.5,-246 866.5,-246"/>
<text text-anchor="middle" x="926.5" y="-253" font-family="Helvetica,sans-Serif" font-size="10.00">GameTime::GetMinutes</text>
</a>
</g>
</g>
<!-- Node16&#45;&gt;Node17 -->
<g id="edge23" class="edge"><title>Node16&#45;&gt;Node17</title>
<path fill="none" stroke="midnightblue" d="M798.106,-255.5C816.389,-255.5 837.019,-255.5 856.269,-255.5"/>
<polygon fill="midnightblue" stroke="midnightblue" points="856.492,-259 866.492,-255.5 856.492,-252 856.492,-259"/>
</g>
<!-- Node18 -->
<g id="node18" class="node"><title>Node18</title>
<g id="a_node18"><a xlink:href="../../df/dc2/struct_game_time.html#a719def6268b14c320733038cb701d1a6" target="_top" xlink:title=" ">
<polygon fill="white" stroke="black" points="1042,-265 1042,-284 1166,-284 1166,-265 1042,-265"/>
<text text-anchor="middle" x="1104" y="-272" font-family="Helvetica,sans-Serif" font-size="10.00">GameTime::GetSeconds</text>
</a>
</g>
</g>
<!-- Node17&#45;&gt;Node18 -->
<g id="edge24" class="edge"><title>Node17&#45;&gt;Node18</title>
<path fill="none" stroke="midnightblue" d="M986.916,-261.933C1001.3,-263.49 1016.82,-265.17 1031.68,-266.779"/>
<polygon fill="midnightblue" stroke="midnightblue" points="1031.53,-270.283 1041.85,-267.88 1032.28,-263.324 1031.53,-270.283"/>
</g>
<!-- Node19&#45;&gt;Node18 -->
<g id="edge26" class="edge"><title>Node19&#45;&gt;Node18</title>
<path fill="none" stroke="midnightblue" d="M971.389,-227.009C982.746,-229.773 994.9,-233 1006,-236.5 1028.33,-243.54 1052.87,-253.175 1071.69,-260.982"/>
<polygon fill="midnightblue" stroke="midnightblue" points="1070.39,-264.231 1080.96,-264.874 1073.1,-257.777 1070.39,-264.231"/>
</g>
<!-- Node20&#45;&gt;Node18 -->
<g id="edge28" class="edge"><title>Node20&#45;&gt;Node18</title>
<path fill="none" stroke="midnightblue" d="M971.389,-321.991C982.746,-319.227 994.9,-316 1006,-312.5 1028.33,-305.46 1052.87,-295.825 1071.69,-288.018"/>
<polygon fill="midnightblue" stroke="midnightblue" points="1073.1,-291.223 1080.96,-284.126 1070.39,-284.769 1073.1,-291.223"/>
</g>
<!-- Node21&#45;&gt;Node18 -->
<g id="edge30" class="edge"><title>Node21&#45;&gt;Node18</title>
<path fill="none" stroke="midnightblue" d="M1006.01,-285C1014.58,-284.073 1023.26,-283.133 1031.73,-282.216"/>
<polygon fill="midnightblue" stroke="midnightblue" points="1032.37,-285.667 1041.93,-281.111 1031.62,-278.708 1032.37,-285.667"/>
</g>
<!-- Node23&#45;&gt;Node9 -->
<g id="edge35" class="edge"><title>Node23&#45;&gt;Node9</title>
<path fill="none" stroke="midnightblue" d="M291.825,-538.01C299.246,-540.48 306.481,-543.588 313,-547.5 334.082,-560.149 327.956,-576.787 349,-589.5 400.801,-620.794 469.607,-633.272 517.937,-638.238"/>
<polygon fill="midnightblue" stroke="midnightblue" points="517.639,-641.726 527.925,-639.188 518.302,-634.757 517.639,-641.726"/>
</g>
<!-- Node24 -->
<g id="node24" class="node"><title>Node24</title>
<g id="a_node24"><a xlink:href="../../d4/d38/class_g_u_i_window.html#a009aad05d919c42979eebb93d8b4354c" target="_top" xlink:title=" ">
<polygon fill="white" stroke="black" points="358,-561 358,-580 472,-580 472,-561 358,-561"/>
<text text-anchor="middle" x="415" y="-568" font-family="Helvetica,sans-Serif" font-size="10.00">GUIWindow::DrawText</text>
</a>
</g>
</g>
<!-- Node23&#45;&gt;Node24 -->
<g id="edge36" class="edge"><title>Node23&#45;&gt;Node24</title>
<path fill="none" stroke="midnightblue" d="M270.567,-538.024C284.147,-541.04 299.203,-544.396 313,-547.5 328.976,-551.094 346.364,-555.041 362.14,-558.635"/>
<polygon fill="midnightblue" stroke="midnightblue" points="361.714,-562.128 372.242,-560.939 363.271,-555.303 361.714,-562.128"/>
</g>
<!-- Node25 -->
<g id="node25" class="node"><title>Node25</title>
<g id="a_node25"><a xlink:href="../../d3/d39/class_g_u_i_font.html#abea1624c5890b044ef1368a7ca051b3e" target="_top" xlink:title=" ">
<polygon fill="white" stroke="black" points="528,-588 528,-607 627,-607 627,-588 528,-588"/>
<text text-anchor="middle" x="577.5" y="-595" font-family="Helvetica,sans-Serif" font-size="10.00">GUIFont::DrawText</text>
</a>
</g>
</g>
<!-- Node24&#45;&gt;Node25 -->
<g id="edge37" class="edge"><title>Node24&#45;&gt;Node25</title>
<path fill="none" stroke="midnightblue" d="M472.135,-579.943C486.898,-582.427 502.862,-585.112 517.757,-587.618"/>
<polygon fill="midnightblue" stroke="midnightblue" points="517.43,-591.112 527.872,-589.32 518.591,-584.209 517.43,-591.112"/>
</g>
<!-- Node25&#45;&gt;Node4 -->
<g id="edge38" class="edge"><title>Node25&#45;&gt;Node4</title>
<path fill="none" stroke="midnightblue" d="M612.276,-587.969C620.792,-585.226 629.832,-582.014 638,-578.5 666.27,-566.339 696.951,-548.856 717.508,-536.465"/>
<polygon fill="midnightblue" stroke="midnightblue" points="719.48,-539.362 726.196,-531.167 715.836,-533.385 719.48,-539.362"/>
</g>
<!-- Node25&#45;&gt;Node10 -->
<g id="edge39" class="edge"><title>Node25&#45;&gt;Node10</title>
<path fill="none" stroke="midnightblue" d="M627.405,-597.5C641.867,-597.5 657.968,-597.5 673.409,-597.5"/>
<polygon fill="midnightblue" stroke="midnightblue" points="673.437,-601 683.437,-597.5 673.437,-594 673.437,-601"/>
</g>
<!-- Node28&#45;&gt;Node3 -->
<g id="edge44" class="edge"><title>Node28&#45;&gt;Node3</title>
<path fill="none" stroke="midnightblue" d="M251.384,-232.668C269.818,-245.218 295.112,-264.363 313,-285.5 334.334,-310.708 323.212,-329.871 349,-350.5 351.281,-352.325 353.731,-353.974 356.297,-355.465"/>
<polygon fill="midnightblue" stroke="midnightblue" points="354.867,-358.662 365.384,-359.948 357.964,-352.385 354.867,-358.662"/>
</g>
<!-- Node28&#45;&gt;Node13 -->
<g id="edge53" class="edge"><title>Node28&#45;&gt;Node13</title>
<path fill="none" stroke="midnightblue" d="M294.717,-214.691C345.944,-212.012 418.14,-207.076 481,-198.5 495.152,-196.569 510.365,-193.843 524.398,-191.057"/>
<polygon fill="midnightblue" stroke="midnightblue" points="525.273,-194.451 534.375,-189.028 523.878,-187.591 525.273,-194.451"/>
</g>
<!-- Node29 -->
<g id="node29" class="node"><title>Node29</title>
<g id="a_node29"><a xlink:href="../../dd/d88/class_localization.html#aa585c1180dc1a338b5822de8e413d2d6" target="_top" xlink:title=" ">
<polygon fill="white" stroke="black" points="349.5,-170 349.5,-189 480.5,-189 480.5,-170 349.5,-170"/>
<text text-anchor="middle" x="415" y="-177" font-family="Helvetica,sans-Serif" font-size="10.00">Localization::FormatString</text>
</a>
</g>
</g>
<!-- Node28&#45;&gt;Node29 -->
<g id="edge45" class="edge"><title>Node28&#45;&gt;Node29</title>
<path fill="none" stroke="midnightblue" d="M294.567,-203.835C315.204,-199.63 337.702,-195.046 357.551,-191.002"/>
<polygon fill="midnightblue" stroke="midnightblue" points="358.263,-194.429 367.362,-189.003 356.865,-187.57 358.263,-194.429"/>
</g>
<!-- Node29&#45;&gt;Node13 -->
<g id="edge46" class="edge"><title>Node29&#45;&gt;Node13</title>
<path fill="none" stroke="midnightblue" d="M480.819,-179.5C490.211,-179.5 499.896,-179.5 509.333,-179.5"/>
<polygon fill="midnightblue" stroke="midnightblue" points="509.45,-183 519.45,-179.5 509.45,-176 509.45,-183"/>
</g>
<!-- Node30 -->
<g id="node30" class="node"><title>Node30</title>
<g id="a_node30"><a xlink:href="../../d6/db8/mm7text__ru_8cpp.html#a53baf8844fdc6c4b8a7211d481c03a34" target="_top" xlink:title=" ">
<polygon fill="white" stroke="black" points="532.5,-132 532.5,-151 622.5,-151 622.5,-132 532.5,-132"/>
<text text-anchor="middle" x="577.5" y="-139" font-family="Helvetica,sans-Serif" font-size="10.00">sprintfex_internal</text>
</a>
</g>
</g>
<!-- Node29&#45;&gt;Node30 -->
<g id="edge47" class="edge"><title>Node29&#45;&gt;Node30</title>
<path fill="none" stroke="midnightblue" d="M456.501,-169.911C477.681,-164.896 503.802,-158.712 526.26,-153.395"/>
<polygon fill="midnightblue" stroke="midnightblue" points="527.366,-156.73 536.29,-151.02 525.753,-149.918 527.366,-156.73"/>
</g>
<!-- Node31 -->
<g id="node31" class="node"><title>Node31</title>
<g id="a_node31"><a xlink:href="../../d6/db8/mm7text__ru_8cpp.html#a3b1651c73512b95aad130c9090a7cd3c" target="_top" xlink:title=" ">
<polygon fill="white" stroke="black" points="710.5,-170 710.5,-189 774.5,-189 774.5,-170 710.5,-170"/>
<text text-anchor="middle" x="742.5" y="-177" font-family="Helvetica,sans-Serif" font-size="10.00">GetGender</text>
</a>
</g>
</g>
<!-- Node30&#45;&gt;Node31 -->
<g id="edge48" class="edge"><title>Node30&#45;&gt;Node31</title>
<path fill="none" stroke="midnightblue" d="M619.632,-151.089C644.416,-156.867 675.864,-164.198 700.606,-169.966"/>
<polygon fill="midnightblue" stroke="midnightblue" points="699.882,-173.391 710.415,-172.253 701.471,-166.574 699.882,-173.391"/>
</g>
<!-- Node33 -->
<g id="node33" class="node"><title>Node33</title>
<g id="a_node33"><a xlink:href="../../d6/db8/mm7text__ru_8cpp.html#aa84f8d3f36800bc6ca518198a70797d3" target="_top" xlink:title=" ">
<polygon fill="white" stroke="black" points="699,-132 699,-151 786,-151 786,-132 699,-132"/>
<text text-anchor="middle" x="742.5" y="-139" font-family="Helvetica,sans-Serif" font-size="10.00">GetSpecialCase</text>
</a>
</g>
</g>
<!-- Node30&#45;&gt;Node33 -->
<g id="edge50" class="edge"><title>Node30&#45;&gt;Node33</title>
<path fill="none" stroke="midnightblue" d="M622.61,-141.5C642.947,-141.5 667.25,-141.5 688.568,-141.5"/>
<polygon fill="midnightblue" stroke="midnightblue" points="688.763,-145 698.763,-141.5 688.763,-138 688.763,-145"/>
</g>
<!-- Node34 -->
<g id="node34" class="node"><title>Node34</title>
<g id="a_node34"><a xlink:href="../../d6/db8/mm7text__ru_8cpp.html#a60e152118d795d22912d38e37a55dec9" target="_top" xlink:title=" ">
<polygon fill="white" stroke="black" points="694.5,-94 694.5,-113 790.5,-113 790.5,-94 694.5,-94"/>
<text text-anchor="middle" x="742.5" y="-101" font-family="Helvetica,sans-Serif" font-size="10.00">GetSpecialGender</text>
</a>
</g>
</g>
<!-- Node30&#45;&gt;Node34 -->
<g id="edge51" class="edge"><title>Node30&#45;&gt;Node34</title>
<path fill="none" stroke="midnightblue" d="M619.632,-131.911C641.238,-126.874 667.909,-120.656 690.786,-115.323"/>
<polygon fill="midnightblue" stroke="midnightblue" points="691.72,-118.699 700.664,-113.02 690.13,-111.882 691.72,-118.699"/>
</g>
<!-- Node35 -->
<g id="node35" class="node"><title>Node35</title>
<g id="a_node35"><a xlink:href="../../d6/db8/mm7text__ru_8cpp.html#a20fd879e0dfe9f113a87a611f353a725" target="_top" xlink:title=" ">
<polygon fill="white" stroke="black" points="701.5,-56 701.5,-75 783.5,-75 783.5,-56 701.5,-56"/>
<text text-anchor="middle" x="742.5" y="-63" font-family="Helvetica,sans-Serif" font-size="10.00">IsSpecialName</text>
</a>
</g>
</g>
<!-- Node30&#45;&gt;Node35 -->
<g id="edge52" class="edge"><title>Node30&#45;&gt;Node35</title>
<path fill="none" stroke="midnightblue" d="M592.118,-131.788C610.11,-119.338 643.138,-97.7762 674,-84.5 679.517,-82.1269 685.413,-79.963 691.339,-78.0156"/>
<polygon fill="midnightblue" stroke="midnightblue" points="692.756,-81.241 701.277,-74.9441 690.689,-74.5532 692.756,-81.241"/>
</g>
<!-- Node32 -->
<g id="node32" class="node"><title>Node32</title>
<g id="a_node32"><a xlink:href="../../d6/d70/class_log.html#ac0de2621497ca3b2fbf208624c08bcdf" target="_top" xlink:title=" ">
<polygon fill="white" stroke="black" points="889.5,-170 889.5,-189 963.5,-189 963.5,-170 889.5,-170"/>
<text text-anchor="middle" x="926.5" y="-177" font-family="Helvetica,sans-Serif" font-size="10.00">Log::Warning</text>
</a>
</g>
</g>
<!-- Node31&#45;&gt;Node32 -->
<g id="edge49" class="edge"><title>Node31&#45;&gt;Node32</title>
<path fill="none" stroke="midnightblue" d="M774.787,-179.5C803.492,-179.5 846.389,-179.5 879.086,-179.5"/>
<polygon fill="midnightblue" stroke="midnightblue" points="879.312,-183 889.312,-179.5 879.312,-176 879.312,-183"/>
</g>
<!-- Node37 -->
<g id="node37" class="node"><title>Node37</title>
<g id="a_node37"><a xlink:href="../../d9/d5c/_keyboard_8cpp.html#a9a306ed3c0cd703601061b725374ecf1" target="_top" xlink:title=" ">
<polygon fill="white" stroke="black" points="364.5,-50 364.5,-69 465.5,-69 465.5,-50 364.5,-50"/>
<text text-anchor="middle" x="415" y="-57" font-family="Helvetica,sans-Serif" font-size="10.00">GetAsyncKeyState</text>
</a>
</g>
</g>
<!-- Node36&#45;&gt;Node37 -->
<g id="edge55" class="edge"><title>Node36&#45;&gt;Node37</title>
<path fill="none" stroke="midnightblue" d="M272.646,-59.5C297.105,-59.5 327.644,-59.5 354.071,-59.5"/>
<polygon fill="midnightblue" stroke="midnightblue" points="354.354,-63.0001 364.354,-59.5 354.354,-56.0001 354.354,-63.0001"/>
</g>
<!-- Node38 -->
<g id="node38" class="node"><title>Node38</title>
<g id="a_node38"><a xlink:href="../../d3/d07/_s_d_l__keyboard_8h.html#a69e91052c1f268c9dd47f255e9f9084a" target="_top" xlink:title="Get a snapshot of the current state of the keyboard.">
<polygon fill="white" stroke="black" points="517,-50 517,-69 638,-69 638,-50 517,-50"/>
<text text-anchor="middle" x="577.5" y="-57" font-family="Helvetica,sans-Serif" font-size="10.00">SDL_GetKeyboardState</text>
</a>
</g>
</g>
<!-- Node37&#45;&gt;Node38 -->
<g id="edge56" class="edge"><title>Node37&#45;&gt;Node38</title>
<path fill="none" stroke="midnightblue" d="M465.903,-59.5C478.736,-59.5 492.783,-59.5 506.431,-59.5"/>
<polygon fill="midnightblue" stroke="midnightblue" points="506.762,-63.0001 516.762,-59.5 506.762,-56.0001 506.762,-63.0001"/>
</g>
</g>
</svg>
        <g id="navigator" transform="translate(0 0)" fill="#404254">
                <rect fill="#f2f5e9" fill-opacity="0.5" stroke="#606060" stroke-width=".5" x="0" y="0" width="60" height="60"/>
                <use id="zoomplus" xlink:href="#zoomPlus" x="17" y="9" onmousedown="handleZoom(evt,'in')"/>
                <use id="zoomminus" xlink:href="#zoomMin" x="42" y="9" onmousedown="handleZoom(evt,'out')"/>
                <use id="reset" xlink:href="#resetDef" x="30" y="36" onmousedown="handleReset()"/>
                <g id="arrowUp" xlink:href="#dirArrow" transform="translate(30 24)" onmousedown="handlePan(0,-1)">
                  <use xlink:href="#rim" fill="#404040">
                        <set attributeName="fill" to="#808080" begin="arrowUp.mouseover" end="arrowUp.mouseout"/>
                  </use>
                  <path fill="none" stroke="white" stroke-width="1.5" d="M0,-3.0v7 M-2.5,-0.5L0,-3.0L2.5,-0.5"/>
                </g>
                <g id="arrowRight" xlink:href="#dirArrow" transform="rotate(90) translate(36 -43)" onmousedown="handlePan(1,0)">
                  <use xlink:href="#rim" fill="#404040">
                        <set attributeName="fill" to="#808080" begin="arrowRight.mouseover" end="arrowRight.mouseout"/>
                  </use>
                  <path fill="none" stroke="white" stroke-width="1.5" d="M0,-3.0v7 M-2.5,-0.5L0,-3.0L2.5,-0.5"/>
                </g>
                <g id="arrowDown" xlink:href="#dirArrow" transform="rotate(180) translate(-30 -48)" onmousedown="handlePan(0,1)">
                  <use xlink:href="#rim" fill="#404040">
                        <set attributeName="fill" to="#808080" begin="arrowDown.mouseover" end="arrowDown.mouseout"/>
                  </use>
                  <path fill="none" stroke="white" stroke-width="1.5" d="M0,-3.0v7 M-2.5,-0.5L0,-3.0L2.5,-0.5"/>
                </g>
                <g id="arrowLeft" xlink:href="#dirArrow" transform="rotate(270) translate(-36 17)" onmousedown="handlePan(-1,0)">
                  <use xlink:href="#rim" fill="#404040">
                        <set attributeName="fill" to="#808080" begin="arrowLeft.mouseover" end="arrowLeft.mouseout"/>
                  </use>
                  <path fill="none" stroke="white" stroke-width="1.5" d="M0,-3.0v7 M-2.5,-0.5L0,-3.0L2.5,-0.5"/>
                </g>
        </g>
        <svg viewBox="0 0 15 15" width="100%" height="30px" preserveAspectRatio="xMaxYMin meet">
         <g id="arrow_out" transform="scale(0.3 0.3)">
          <a xlink:href="_u_i_shops_8h_a31553fdddae423f12250a5b2638d5a30_cgraph_org.svg" target="_base">
           <rect id="button" ry="5" rx="5" y="6" x="6" height="38" width="38"
                fill="#f2f5e9" fill-opacity="0.5" stroke="#606060" stroke-width="1.0"/>
           <path id="arrow"
             d="M 11.500037,31.436501 C 11.940474,20.09759 22.043105,11.32322 32.158766,21.979434 L 37.068811,17.246167 C 37.068811,17.246167 37.088388,32 37.088388,32 L 22.160133,31.978069 C 22.160133,31.978069 26.997745,27.140456 26.997745,27.140456 C 18.528582,18.264221 13.291696,25.230495 11.500037,31.436501 z"
             style="fill:#404040;"/>
          </a>
         </g>
        </svg>
</svg>
