<?xml version="1.0" encoding="UTF-8" standalone="no"?>
<!DOCTYPE svg PUBLIC "-//W3C//DTD SVG 1.1//EN"
 "http://www.w3.org/Graphics/SVG/1.1/DTD/svg11.dtd">
<!-- Generated by graphviz version 2.38.0 (20140413.2041)
 -->
<!-- Title: sub_4B1523_showSpellbookInfo Pages: 1 -->
<svg width="1798pt" height="344pt"
 viewBox="0.00 0.00 1798.00 343.50" xmlns="http://www.w3.org/2000/svg" xmlns:xlink="http://www.w3.org/1999/xlink">
<g id="graph0" class="graph" transform="scale(1 1) rotate(0) translate(4 339.5)">
<title>sub_4B1523_showSpellbookInfo</title>
<polygon fill="white" stroke="none" points="-4,4 -4,-339.5 1794,-339.5 1794,4 -4,4"/>
<!-- Node1 -->
<g id="node1" class="node"><title>Node1</title>
<g id="a_node1"><a xlink:title=" ">
<polygon fill="#bfbfbf" stroke="black" points="1634,-113 1634,-132 1790,-132 1790,-113 1634,-113"/>
<text text-anchor="middle" x="1712" y="-120" font-family="Helvetica,sans-Serif" font-size="10.00">sub_4B1523_showSpellbookInfo</text>
</a>
</g>
</g>
<!-- Node2 -->
<g id="node2" class="node"><title>Node2</title>
<g id="a_node2"><a xlink:href="../../db/d14/_u_i_shops_8h.html#a78364230a9d48e2bf4566f5a370b95c2" target="_top" xlink:title=" ">
<polygon fill="white" stroke="black" points="1488,-113 1488,-132 1598,-132 1598,-113 1488,-113"/>
<text text-anchor="middle" x="1543" y="-120" font-family="Helvetica,sans-Serif" font-size="10.00">ShowPopupShopItem</text>
</a>
</g>
</g>
<!-- Node1&#45;&gt;Node2 -->
<g id="edge1" class="edge"><title>Node1&#45;&gt;Node2</title>
<path fill="none" stroke="midnightblue" d="M1623.74,-122.5C1615.13,-122.5 1606.57,-122.5 1598.43,-122.5"/>
<polygon fill="midnightblue" stroke="midnightblue" points="1623.85,-126 1633.85,-122.5 1623.85,-119 1623.85,-126"/>
</g>
<!-- Node3 -->
<g id="node3" class="node"><title>Node3</title>
<g id="a_node3"><a xlink:href="../../d6/ded/_u_i_popup_8cpp.html#a4b9d033e0116029f628ef0c4a9a7d306" target="_top" xlink:title=" ">
<polygon fill="white" stroke="black" points="1335,-113 1335,-132 1452,-132 1452,-113 1335,-113"/>
<text text-anchor="middle" x="1393.5" y="-120" font-family="Helvetica,sans-Serif" font-size="10.00">UI_OnMouseRightClick</text>
</a>
</g>
</g>
<!-- Node2&#45;&gt;Node3 -->
<g id="edge2" class="edge"><title>Node2&#45;&gt;Node3</title>
<path fill="none" stroke="midnightblue" d="M1477.64,-122.5C1469.13,-122.5 1460.44,-122.5 1452.05,-122.5"/>
<polygon fill="midnightblue" stroke="midnightblue" points="1477.91,-126 1487.91,-122.5 1477.91,-119 1477.91,-126"/>
</g>
<!-- Node4 -->
<g id="node4" class="node"><title>Node4</title>
<g id="a_node4"><a xlink:href="../../d5/d0b/_g_u_i_window_8h.html#a9cafb995f3f6b03139380e5fb4fee184" target="_top" xlink:title=" ">
<polygon fill="white" stroke="black" points="1162.5,-164 1162.5,-183 1271.5,-183 1271.5,-164 1162.5,-164"/>
<text text-anchor="middle" x="1217" y="-171" font-family="Helvetica,sans-Serif" font-size="10.00">GUI_UpdateWindows</text>
</a>
</g>
</g>
<!-- Node3&#45;&gt;Node4 -->
<g id="edge3" class="edge"><title>Node3&#45;&gt;Node4</title>
<path fill="none" stroke="midnightblue" d="M1349.73,-135.001C1319.16,-143.934 1278.66,-155.771 1250.67,-163.95"/>
<polygon fill="midnightblue" stroke="midnightblue" points="1351.06,-138.258 1359.68,-132.093 1349.1,-131.539 1351.06,-138.258"/>
</g>
<!-- Node18 -->
<g id="node18" class="node"><title>Node18</title>
<g id="a_node18"><a xlink:href="../../dc/d12/class_application_1_1_game_window_handler.html#ac207ffe80141c2bd50e962414d07c0c2" target="_top" xlink:title=" ">
<polygon fill="white" stroke="black" points="1135,-57.5 1135,-87.5 1299,-87.5 1299,-57.5 1135,-57.5"/>
<text text-anchor="start" x="1143" y="-75.5" font-family="Helvetica,sans-Serif" font-size="10.00">Application::GameWindowHandler</text>
<text text-anchor="middle" x="1217" y="-64.5" font-family="Helvetica,sans-Serif" font-size="10.00">::OnMouseRightClick</text>
</a>
</g>
</g>
<!-- Node3&#45;&gt;Node18 -->
<g id="edge23" class="edge"><title>Node3&#45;&gt;Node18</title>
<path fill="none" stroke="midnightblue" d="M1349.46,-110.167C1325.65,-103.344 1295.86,-94.8103 1270.67,-87.5915"/>
<polygon fill="midnightblue" stroke="midnightblue" points="1348.69,-113.588 1359.27,-112.978 1350.62,-106.859 1348.69,-113.588"/>
</g>
<!-- Node5 -->
<g id="node5" class="node"><title>Node5</title>
<g id="a_node5"><a xlink:href="../../dd/de7/_save_load_8h.html#a5560a432d5ca59965633a942bb26666f" target="_top" xlink:title=" ">
<polygon fill="white" stroke="black" points="980,-126 980,-145 1054,-145 1054,-126 980,-126"/>
<text text-anchor="middle" x="1017" y="-133" font-family="Helvetica,sans-Serif" font-size="10.00">DoSavegame</text>
</a>
</g>
</g>
<!-- Node4&#45;&gt;Node5 -->
<g id="edge4" class="edge"><title>Node4&#45;&gt;Node5</title>
<path fill="none" stroke="midnightblue" d="M1156.23,-162.029C1123.02,-155.654 1082.77,-147.931 1054.29,-142.466"/>
<polygon fill="midnightblue" stroke="midnightblue" points="1155.81,-165.512 1166.29,-163.96 1157.13,-158.638 1155.81,-165.512"/>
</g>
<!-- Node7 -->
<g id="node7" class="node"><title>Node7</title>
<g id="a_node7"><a xlink:href="../../df/dac/class_application_1_1_menu.html#aaf253396760ddad4b41b2db8901e97ee" target="_top" xlink:title=" ">
<polygon fill="white" stroke="black" points="642.5,-190.5 642.5,-220.5 743.5,-220.5 743.5,-190.5 642.5,-190.5"/>
<text text-anchor="start" x="650.5" y="-208.5" font-family="Helvetica,sans-Serif" font-size="10.00">Application::Menu::</text>
<text text-anchor="middle" x="693" y="-197.5" font-family="Helvetica,sans-Serif" font-size="10.00">MenuLoop</text>
</a>
</g>
</g>
<!-- Node4&#45;&gt;Node7 -->
<g id="edge19" class="edge"><title>Node4&#45;&gt;Node7</title>
<path fill="none" stroke="midnightblue" d="M1156.4,-184.7C1138.05,-187.737 1117.75,-190.684 1099,-192.5 971.386,-204.858 820.21,-206.209 743.697,-205.962"/>
<polygon fill="midnightblue" stroke="midnightblue" points="1157.09,-188.133 1166.37,-183.011 1155.92,-181.231 1157.09,-188.133"/>
</g>
<!-- Node9 -->
<g id="node9" class="node"><title>Node9</title>
<g id="a_node9"><a xlink:href="../../d4/d06/class_application_1_1_game.html#aaa0ff18388b32b4e6198835a35e000d3" target="_top" xlink:title=" ">
<polygon fill="white" stroke="black" points="319,-218.5 319,-248.5 422,-248.5 422,-218.5 319,-218.5"/>
<text text-anchor="start" x="327" y="-236.5" font-family="Helvetica,sans-Serif" font-size="10.00">Application::Game::</text>
<text text-anchor="middle" x="370.5" y="-225.5" font-family="Helvetica,sans-Serif" font-size="10.00">GameLoop</text>
</a>
</g>
</g>
<!-- Node4&#45;&gt;Node9 -->
<g id="edge14" class="edge"><title>Node4&#45;&gt;Node9</title>
<path fill="none" stroke="midnightblue" d="M1182.04,-186.599C1158.93,-195.069 1127.49,-205.737 1099,-212.5 987.79,-238.898 958.8,-249.5 844.5,-249.5 844.5,-249.5 844.5,-249.5 692,-249.5 596.594,-249.5 485.411,-242.34 422.252,-237.6"/>
<polygon fill="midnightblue" stroke="midnightblue" points="1183.56,-189.768 1191.71,-183.003 1181.12,-183.207 1183.56,-189.768"/>
</g>
<!-- Node12 -->
<g id="node12" class="node"><title>Node12</title>
<g id="a_node12"><a xlink:href="../../d6/d83/struct_engine.html#ac098ab29cbcd7352879d0101aaf4b827" target="_top" xlink:title=" ">
<polygon fill="white" stroke="black" points="980,-164 980,-183 1054,-183 1054,-164 980,-164"/>
<text text-anchor="middle" x="1017" y="-171" font-family="Helvetica,sans-Serif" font-size="10.00">Engine::Draw</text>
</a>
</g>
</g>
<!-- Node4&#45;&gt;Node12 -->
<g id="edge11" class="edge"><title>Node4&#45;&gt;Node12</title>
<path fill="none" stroke="midnightblue" d="M1152.11,-173.5C1119.66,-173.5 1081.43,-173.5 1054.1,-173.5"/>
<polygon fill="midnightblue" stroke="midnightblue" points="1152.42,-177 1162.42,-173.5 1152.42,-170 1152.42,-177"/>
</g>
<!-- Node13 -->
<g id="node13" class="node"><title>Node13</title>
<g id="a_node13"><a xlink:href="../../d8/df3/class_g_u_i_credits.html#a552d14f116789f5ff5d7d58b4fd20951" target="_top" xlink:title=" ">
<polygon fill="white" stroke="black" points="461,-152 461,-171 598,-171 598,-152 461,-152"/>
<text text-anchor="middle" x="529.5" y="-159" font-family="Helvetica,sans-Serif" font-size="10.00">GUICredits::ExecuteCredits</text>
</a>
</g>
</g>
<!-- Node4&#45;&gt;Node13 -->
<g id="edge12" class="edge"><title>Node4&#45;&gt;Node13</title>
<path fill="none" stroke="midnightblue" d="M1193.07,-158.417C1170.29,-144.406 1133.83,-124.533 1099,-116.5 899.781,-70.5536 652.053,-128.012 563.7,-151.95"/>
<polygon fill="midnightblue" stroke="midnightblue" points="1191.34,-161.462 1201.67,-163.828 1195.07,-155.539 1191.34,-161.462"/>
</g>
<!-- Node14 -->
<g id="node14" class="node"><title>Node14</title>
<g id="a_node14"><a xlink:href="../../d1/d86/class_g_u_i_window___main_menu.html#ad12c43bc3078a3dbdab21a148ba71b64" target="_top" xlink:title=" ">
<polygon fill="white" stroke="black" points="634,-38.5 634,-68.5 752,-68.5 752,-38.5 634,-38.5"/>
<text text-anchor="start" x="642" y="-56.5" font-family="Helvetica,sans-Serif" font-size="10.00">GUIWindow_MainMenu</text>
<text text-anchor="middle" x="693" y="-45.5" font-family="Helvetica,sans-Serif" font-size="10.00">::Loop</text>
</a>
</g>
</g>
<!-- Node4&#45;&gt;Node14 -->
<g id="edge15" class="edge"><title>Node4&#45;&gt;Node14</title>
<path fill="none" stroke="midnightblue" d="M1200.43,-156.536C1179.65,-135.186 1140.61,-99.3905 1099,-83.5 982.254,-38.9132 833.019,-41.6869 752.252,-47.6125"/>
<polygon fill="midnightblue" stroke="midnightblue" points="1198.04,-159.103 1207.46,-163.939 1203.11,-154.28 1198.04,-159.103"/>
</g>
<!-- Node15 -->
<g id="node15" class="node"><title>Node15</title>
<g id="a_node15"><a xlink:href="../../d2/d13/_u_i_save_load_8h.html#aaed2836e89ed0ad7f832e51d42551aed" target="_top" xlink:title=" ">
<polygon fill="white" stroke="black" points="316,-316 316,-335 425,-335 425,-316 316,-316"/>
<text text-anchor="middle" x="370.5" y="-323" font-family="Helvetica,sans-Serif" font-size="10.00">MainMenuLoad_Loop</text>
</a>
</g>
</g>
<!-- Node4&#45;&gt;Node15 -->
<g id="edge17" class="edge"><title>Node4&#45;&gt;Node15</title>
<path fill="none" stroke="midnightblue" d="M1206.02,-192.188C1188.76,-222.364 1150.2,-281.011 1099,-306.5 997.461,-357.05 957.926,-325.5 844.5,-325.5 844.5,-325.5 844.5,-325.5 692,-325.5 598.104,-325.5 488.733,-325.5 425.089,-325.5"/>
<polygon fill="midnightblue" stroke="midnightblue" points="1209.25,-193.576 1211.05,-183.134 1203.13,-190.179 1209.25,-193.576"/>
</g>
<!-- Node16 -->
<g id="node16" class="node"><title>Node16</title>
<g id="a_node16"><a xlink:href="../../de/da8/_u_i_party_creation_8cpp.html#a3989bc11e4d285e802baa8b00e9663ad" target="_top" xlink:title=" ">
<polygon fill="white" stroke="black" points="945.5,-278 945.5,-297 1088.5,-297 1088.5,-278 945.5,-278"/>
<text text-anchor="middle" x="1017" y="-285" font-family="Helvetica,sans-Serif" font-size="10.00">PartyCreationUI_LoopInternal</text>
</a>
</g>
</g>
<!-- Node4&#45;&gt;Node16 -->
<g id="edge20" class="edge"><title>Node4&#45;&gt;Node16</title>
<path fill="none" stroke="midnightblue" d="M1198.83,-190.041C1177.19,-210.062 1138.06,-243.564 1099,-263.5 1087.24,-269.5 1073.74,-274.248 1061.17,-277.882"/>
<polygon fill="midnightblue" stroke="midnightblue" points="1201.34,-192.483 1206.23,-183.084 1196.55,-187.382 1201.34,-192.483"/>
</g>
<!-- Node6 -->
<g id="node6" class="node"><title>Node6</title>
<g id="a_node6"><a xlink:href="../../df/dac/class_application_1_1_menu.html#aac9ec557a30f1ba7bf6746aa62f70764" target="_top" xlink:title=" ">
<polygon fill="white" stroke="black" points="793,-139.5 793,-169.5 894,-169.5 894,-139.5 793,-139.5"/>
<text text-anchor="start" x="801" y="-157.5" font-family="Helvetica,sans-Serif" font-size="10.00">Application::Menu::</text>
<text text-anchor="middle" x="843.5" y="-146.5" font-family="Helvetica,sans-Serif" font-size="10.00">EventLoop</text>
</a>
</g>
</g>
<!-- Node5&#45;&gt;Node6 -->
<g id="edge5" class="edge"><title>Node5&#45;&gt;Node6</title>
<path fill="none" stroke="midnightblue" d="M969.621,-140.638C946.271,-143.225 917.946,-146.363 894.155,-148.999"/>
<polygon fill="midnightblue" stroke="midnightblue" points="970.075,-144.109 979.629,-139.529 969.305,-137.152 970.075,-144.109"/>
</g>
<!-- Node6&#45;&gt;Node7 -->
<g id="edge6" class="edge"><title>Node6&#45;&gt;Node7</title>
<path fill="none" stroke="midnightblue" d="M789.036,-172.861C772.185,-178.648 753.782,-184.969 737.695,-190.494"/>
<polygon fill="midnightblue" stroke="midnightblue" points="790.427,-176.084 798.748,-169.526 788.154,-169.464 790.427,-176.084"/>
</g>
<!-- Node8 -->
<g id="node8" class="node"><title>Node8</title>
<g id="a_node8"><a xlink:href="../../d4/d06/class_application_1_1_game.html#a3f65e3f0ef1a9114fb3dea275e52442e" target="_top" xlink:title=" ">
<polygon fill="white" stroke="black" points="478,-190.5 478,-220.5 581,-220.5 581,-190.5 478,-190.5"/>
<text text-anchor="start" x="486" y="-208.5" font-family="Helvetica,sans-Serif" font-size="10.00">Application::Game::</text>
<text text-anchor="middle" x="529.5" y="-197.5" font-family="Helvetica,sans-Serif" font-size="10.00">EventLoop</text>
</a>
</g>
</g>
<!-- Node7&#45;&gt;Node8 -->
<g id="edge7" class="edge"><title>Node7&#45;&gt;Node8</title>
<path fill="none" stroke="midnightblue" d="M632.019,-205.5C615.315,-205.5 597.339,-205.5 581.223,-205.5"/>
<polygon fill="midnightblue" stroke="midnightblue" points="632.227,-209 642.227,-205.5 632.227,-202 632.227,-209"/>
</g>
<!-- Node8&#45;&gt;Node9 -->
<g id="edge8" class="edge"><title>Node8&#45;&gt;Node9</title>
<path fill="none" stroke="midnightblue" d="M467.721,-216.34C452.679,-219.022 436.72,-221.868 422.214,-224.455"/>
<polygon fill="midnightblue" stroke="midnightblue" points="468.73,-219.715 477.96,-214.514 467.501,-212.824 468.73,-219.715"/>
</g>
<!-- Node10 -->
<g id="node10" class="node"><title>Node10</title>
<g id="a_node10"><a xlink:href="../../d4/d06/class_application_1_1_game.html#a013ffd59e8fdf1c0a396da1dbe1681ca" target="_top" xlink:title=" ">
<polygon fill="white" stroke="black" points="156,-224 156,-243 280,-243 280,-224 156,-224"/>
<text text-anchor="middle" x="218" y="-231" font-family="Helvetica,sans-Serif" font-size="10.00">Application::Game::Loop</text>
</a>
</g>
</g>
<!-- Node9&#45;&gt;Node10 -->
<g id="edge9" class="edge"><title>Node9&#45;&gt;Node10</title>
<path fill="none" stroke="midnightblue" d="M308.846,-233.5C299.376,-233.5 289.584,-233.5 280.104,-233.5"/>
<polygon fill="midnightblue" stroke="midnightblue" points="308.967,-237 318.967,-233.5 308.967,-230 308.967,-237"/>
</g>
<!-- Node11 -->
<g id="node11" class="node"><title>Node11</title>
<g id="a_node11"><a xlink:href="../../d4/d06/class_application_1_1_game.html#a96341ca5b54d90adc3ecb3bf0bcd2312" target="_top" xlink:title=" ">
<polygon fill="white" stroke="black" points="0,-147 0,-166 120,-166 120,-147 0,-147"/>
<text text-anchor="middle" x="60" y="-154" font-family="Helvetica,sans-Serif" font-size="10.00">Application::Game::Run</text>
</a>
</g>
</g>
<!-- Node10&#45;&gt;Node11 -->
<g id="edge10" class="edge"><title>Node10&#45;&gt;Node11</title>
<path fill="none" stroke="midnightblue" d="M188.482,-219.424C157.225,-203.996 107.912,-179.655 80.6871,-166.217"/>
<polygon fill="midnightblue" stroke="midnightblue" points="187.042,-222.616 197.558,-223.904 190.14,-216.339 187.042,-222.616"/>
</g>
<!-- Node13&#45;&gt;Node10 -->
<g id="edge13" class="edge"><title>Node13&#45;&gt;Node10</title>
<path fill="none" stroke="midnightblue" d="M473.241,-173.174C430.281,-182.382 369.239,-195.756 316,-208.5 295.705,-213.358 273.123,-219.155 254.857,-223.943"/>
<polygon fill="midnightblue" stroke="midnightblue" points="474.164,-176.556 483.212,-171.042 472.701,-169.711 474.164,-176.556"/>
</g>
<!-- Node14&#45;&gt;Node11 -->
<g id="edge16" class="edge"><title>Node14&#45;&gt;Node11</title>
<path fill="none" stroke="midnightblue" d="M623.581,-64.6682C498.852,-85.0281 236.585,-127.839 119.549,-146.943"/>
<polygon fill="midnightblue" stroke="midnightblue" points="624.463,-68.0707 633.768,-63.0054 623.335,-61.1622 624.463,-68.0707"/>
</g>
<!-- Node15&#45;&gt;Node10 -->
<g id="edge18" class="edge"><title>Node15&#45;&gt;Node10</title>
<path fill="none" stroke="midnightblue" d="M336.44,-311.852C329.564,-308.687 322.451,-305.164 316,-301.5 283.811,-283.217 248.932,-257.026 231.06,-243.087"/>
<polygon fill="midnightblue" stroke="midnightblue" points="335.027,-315.054 345.585,-315.926 337.875,-308.659 335.027,-315.054"/>
</g>
<!-- Node17 -->
<g id="node17" class="node"><title>Node17</title>
<g id="a_node17"><a xlink:href="../../d6/d6a/_u_i_party_creation_8h.html#ae6fe5aec2826f251f3950e95fd588d79" target="_top" xlink:title=" ">
<polygon fill="white" stroke="black" points="788,-278 788,-297 899,-297 899,-278 788,-278"/>
<text text-anchor="middle" x="843.5" y="-285" font-family="Helvetica,sans-Serif" font-size="10.00">PartyCreationUI_Loop</text>
</a>
</g>
</g>
<!-- Node16&#45;&gt;Node17 -->
<g id="edge21" class="edge"><title>Node16&#45;&gt;Node17</title>
<path fill="none" stroke="midnightblue" d="M935.068,-287.5C922.879,-287.5 910.561,-287.5 899.101,-287.5"/>
<polygon fill="midnightblue" stroke="midnightblue" points="935.254,-291 945.254,-287.5 935.254,-284 935.254,-291"/>
</g>
<!-- Node17&#45;&gt;Node10 -->
<g id="edge22" class="edge"><title>Node17&#45;&gt;Node10</title>
<path fill="none" stroke="midnightblue" d="M777.748,-287.663C678.01,-287.049 481.035,-282.398 316,-257.5 294.043,-254.187 269.793,-248.187 251.032,-243.016"/>
<polygon fill="midnightblue" stroke="midnightblue" points="777.948,-291.164 787.965,-287.714 777.983,-284.164 777.948,-291.164"/>
</g>
<!-- Node19 -->
<g id="node19" class="node"><title>Node19</title>
<g id="a_node19"><a xlink:href="../../dc/d12/class_application_1_1_game_window_handler.html#a6bfa1a3236b3cfa93d8ac526f8bdf05e" target="_top" xlink:title=" ">
<polygon fill="white" stroke="black" points="935,-0.5 935,-30.5 1099,-30.5 1099,-0.5 935,-0.5"/>
<text text-anchor="start" x="943" y="-18.5" font-family="Helvetica,sans-Serif" font-size="10.00">Application::GameWindowHandler</text>
<text text-anchor="middle" x="1017" y="-7.5" font-family="Helvetica,sans-Serif" font-size="10.00">::OnMouseRightDoubleClick</text>
</a>
</g>
</g>
<!-- Node18&#45;&gt;Node19 -->
<g id="edge24" class="edge"><title>Node18&#45;&gt;Node19</title>
<path fill="none" stroke="midnightblue" d="M1154.02,-54.6562C1127.11,-46.9099 1095.94,-37.9367 1070.23,-30.5361"/>
<polygon fill="midnightblue" stroke="midnightblue" points="1153.14,-58.0463 1163.72,-57.4494 1155.08,-51.3194 1153.14,-58.0463"/>
</g>
</g>
</svg>
