<?xml version="1.0" encoding="UTF-8" standalone="no"?>
<!DOCTYPE svg PUBLIC "-//W3C//DTD SVG 1.1//EN"
 "http://www.w3.org/Graphics/SVG/1.1/DTD/svg11.dtd">
<!-- Generated by graphviz version 2.38.0 (20140413.2041)
 -->
<!-- Title: ItemGen::MerchandiseTest Pages: 1 -->
<svg width="321pt" height="104pt"
 viewBox="0.00 0.00 321.00 104.00" xmlns="http://www.w3.org/2000/svg" xmlns:xlink="http://www.w3.org/1999/xlink">
<g id="graph0" class="graph" transform="scale(1 1) rotate(0) translate(4 100)">
<title>ItemGen::MerchandiseTest</title>
<polygon fill="white" stroke="none" points="-4,4 -4,-100 317,-100 317,4 -4,4"/>
<!-- Node1 -->
<g id="node1" class="node"><title>Node1</title>
<g id="a_node1"><a xlink:title=" ">
<polygon fill="#bfbfbf" stroke="black" points="0,-38.5 0,-57.5 134,-57.5 134,-38.5 0,-38.5"/>
<text text-anchor="middle" x="67" y="-45.5" font-family="Helvetica,sans-Serif" font-size="10.00">ItemGen::MerchandiseTest</text>
</a>
</g>
</g>
<!-- Node2 -->
<g id="node2" class="node"><title>Node2</title>
<g id="a_node2"><a xlink:href="../../d7/d9c/struct_item_gen.html#a1aff2db2385ebf047a37787234f745a8" target="_top" xlink:title=" ">
<polygon fill="white" stroke="black" points="171.5,-76.5 171.5,-95.5 311.5,-95.5 311.5,-76.5 171.5,-76.5"/>
<text text-anchor="middle" x="241.5" y="-83.5" font-family="Helvetica,sans-Serif" font-size="10.00">ItemGen::GetItemEquipType</text>
</a>
</g>
</g>
<!-- Node1&#45;&gt;Node2 -->
<g id="edge1" class="edge"><title>Node1&#45;&gt;Node2</title>
<path fill="none" stroke="midnightblue" d="M111.529,-57.589C134.6,-62.6713 163.127,-68.9554 187.481,-74.3203"/>
<polygon fill="midnightblue" stroke="midnightblue" points="186.765,-77.7466 197.284,-76.4799 188.271,-70.9105 186.765,-77.7466"/>
</g>
<!-- Node3 -->
<g id="node3" class="node"><title>Node3</title>
<g id="a_node3"><a xlink:href="../../d7/d9c/struct_item_gen.html#a964851ef377a08ea081799810094b9a6" target="_top" xlink:title=" ">
<polygon fill="white" stroke="black" points="170,-38.5 170,-57.5 313,-57.5 313,-38.5 170,-38.5"/>
<text text-anchor="middle" x="241.5" y="-45.5" font-family="Helvetica,sans-Serif" font-size="10.00">ItemGen::GetPlayerSkillType</text>
</a>
</g>
</g>
<!-- Node1&#45;&gt;Node3 -->
<g id="edge2" class="edge"><title>Node1&#45;&gt;Node3</title>
<path fill="none" stroke="midnightblue" d="M134.2,-48C142.599,-48 151.267,-48 159.861,-48"/>
<polygon fill="midnightblue" stroke="midnightblue" points="159.894,-51.5001 169.894,-48 159.894,-44.5001 159.894,-51.5001"/>
</g>
<!-- Node4 -->
<g id="node4" class="node"><title>Node4</title>
<g id="a_node4"><a xlink:href="../../d7/d9c/struct_item_gen.html#a1204b21f198c2d727bae41fb6556a422" target="_top" xlink:title=" ">
<polygon fill="white" stroke="black" points="194,-0.5 194,-19.5 289,-19.5 289,-0.5 194,-0.5"/>
<text text-anchor="middle" x="241.5" y="-7.5" font-family="Helvetica,sans-Serif" font-size="10.00">ItemGen::IsStolen</text>
</a>
</g>
</g>
<!-- Node1&#45;&gt;Node4 -->
<g id="edge3" class="edge"><title>Node1&#45;&gt;Node4</title>
<path fill="none" stroke="midnightblue" d="M111.529,-38.411C134.6,-33.3287 163.127,-27.0446 187.481,-21.6797"/>
<polygon fill="midnightblue" stroke="midnightblue" points="188.271,-25.0895 197.284,-19.5201 186.765,-18.2534 188.271,-25.0895"/>
</g>
</g>
</svg>
