<?xml version="1.0" encoding="UTF-8" standalone="no"?>
<!DOCTYPE svg PUBLIC "-//W3C//DTD SVG 1.1//EN"
 "http://www.w3.org/Graphics/SVG/1.1/DTD/svg11.dtd">
<!-- Generated by graphviz version 2.38.0 (20140413.2041)
 -->
<!-- Title: sub_44FA4C_spawn_light_elemental Pages: 1 -->
<svg width="497pt" height="332pt"
 viewBox="0.00 0.00 497.00 332.00" xmlns="http://www.w3.org/2000/svg" xmlns:xlink="http://www.w3.org/1999/xlink">
<g id="graph0" class="graph" transform="scale(1 1) rotate(0) translate(4 328)">
<title>sub_44FA4C_spawn_light_elemental</title>
<polygon fill="white" stroke="none" points="-4,4 -4,-328 493,-328 493,4 -4,4"/>
<!-- Node1 -->
<g id="node1" class="node"><title>Node1</title>
<g id="a_node1"><a xlink:title=" ">
<polygon fill="#bfbfbf" stroke="black" points="0,-128 0,-158 129,-158 129,-128 0,-128"/>
<text text-anchor="start" x="8" y="-146" font-family="Helvetica,sans-Serif" font-size="10.00">sub_44FA4C_spawn_light</text>
<text text-anchor="middle" x="64.5" y="-135" font-family="Helvetica,sans-Serif" font-size="10.00">_elemental</text>
</a>
</g>
</g>
<!-- Node2 -->
<g id="node2" class="node"><title>Node2</title>
<g id="a_node2"><a xlink:href="../../d1/d4a/_indoor_8cpp.html#a9f015948918fdfd24b973465eca17c78" target="_top" xlink:title=" ">
<polygon fill="white" stroke="black" points="200.5,-266.5 200.5,-285.5 300.5,-285.5 300.5,-266.5 200.5,-266.5"/>
<text text-anchor="middle" x="250.5" y="-273.5" font-family="Helvetica,sans-Serif" font-size="10.00">BLV_GetFloorLevel</text>
</a>
</g>
</g>
<!-- Node1&#45;&gt;Node2 -->
<g id="edge1" class="edge"><title>Node1&#45;&gt;Node2</title>
<path fill="none" stroke="midnightblue" d="M74.3336,-158.301C89.5169,-183.146 123.02,-231.996 165,-257 172.697,-261.584 181.387,-265.064 190.193,-267.705"/>
<polygon fill="midnightblue" stroke="midnightblue" points="189.573,-271.161 200.136,-270.344 191.369,-264.395 189.573,-271.161"/>
</g>
<!-- Node6 -->
<g id="node6" class="node"><title>Node6</title>
<g id="a_node6"><a xlink:href="../../de/db6/_our_math_8cpp.html#abc4811d26f9864e00046c39c39d65680" target="_top" xlink:title=" ">
<polygon fill="white" stroke="black" points="396.5,-190.5 396.5,-209.5 464.5,-209.5 464.5,-190.5 396.5,-190.5"/>
<text text-anchor="middle" x="430.5" y="-197.5" font-family="Helvetica,sans-Serif" font-size="10.00">fixpoint_mul</text>
</a>
</g>
</g>
<!-- Node1&#45;&gt;Node6 -->
<g id="edge7" class="edge"><title>Node1&#45;&gt;Node6</title>
<path fill="none" stroke="midnightblue" d="M129.32,-152.994C203.101,-164.547 322.531,-183.249 386.232,-193.224"/>
<polygon fill="midnightblue" stroke="midnightblue" points="385.914,-196.717 396.335,-194.807 386.997,-189.802 385.914,-196.717"/>
</g>
<!-- Node7 -->
<g id="node7" class="node"><title>Node7</title>
<g id="a_node7"><a xlink:href="../../d6/d38/structstru193__math.html#a7a4a47e93ff200721e19681b71783c51" target="_top" xlink:title=" ">
<polygon fill="white" stroke="black" points="381,-133.5 381,-152.5 480,-152.5 480,-133.5 381,-133.5"/>
<text text-anchor="middle" x="430.5" y="-140.5" font-family="Helvetica,sans-Serif" font-size="10.00">stru193_math::Cos</text>
</a>
</g>
</g>
<!-- Node1&#45;&gt;Node7 -->
<g id="edge6" class="edge"><title>Node1&#45;&gt;Node7</title>
<path fill="none" stroke="midnightblue" d="M129.32,-143C197.447,-143 304.494,-143 370.65,-143"/>
<polygon fill="midnightblue" stroke="midnightblue" points="370.905,-146.5 380.905,-143 370.905,-139.5 370.905,-146.5"/>
</g>
<!-- Node8 -->
<g id="node8" class="node"><title>Node8</title>
<g id="a_node8"><a xlink:href="../../df/dc2/struct_game_time.html#a988d4e6b372bedab06913239264fd54c" target="_top" xlink:title=" ">
<polygon fill="white" stroke="black" points="185,-76.5 185,-95.5 316,-95.5 316,-76.5 185,-76.5"/>
<text text-anchor="middle" x="250.5" y="-83.5" font-family="Helvetica,sans-Serif" font-size="10.00">GameTime::FromSeconds</text>
</a>
</g>
</g>
<!-- Node1&#45;&gt;Node8 -->
<g id="edge8" class="edge"><title>Node1&#45;&gt;Node8</title>
<path fill="none" stroke="midnightblue" d="M101.456,-127.834C120.179,-120.305 143.579,-111.462 165,-105 173.472,-102.444 182.515,-100.059 191.418,-97.9019"/>
<polygon fill="midnightblue" stroke="midnightblue" points="192.436,-101.258 201.372,-95.5658 190.837,-94.4432 192.436,-101.258"/>
</g>
<!-- Node10 -->
<g id="node10" class="node"><title>Node10</title>
<g id="a_node10"><a xlink:href="../../d5/da3/struct_monster_list.html#a051d1f7284d296b9f50686ab1abce9d9" target="_top" xlink:title=" ">
<polygon fill="white" stroke="black" points="165,-38.5 165,-57.5 336,-57.5 336,-38.5 165,-38.5"/>
<text text-anchor="middle" x="250.5" y="-45.5" font-family="Helvetica,sans-Serif" font-size="10.00">MonsterList::GetMonsterIDByName</text>
</a>
</g>
</g>
<!-- Node1&#45;&gt;Node10 -->
<g id="edge10" class="edge"><title>Node1&#45;&gt;Node10</title>
<path fill="none" stroke="midnightblue" d="M80.9585,-127.708C99.3992,-110.35 131.91,-82.4464 165,-67 170.324,-64.5146 175.992,-62.3453 181.775,-60.4534"/>
<polygon fill="midnightblue" stroke="midnightblue" points="182.995,-63.7418 191.574,-57.5247 180.99,-57.0349 182.995,-63.7418"/>
</g>
<!-- Node11 -->
<g id="node11" class="node"><title>Node11</title>
<g id="a_node11"><a xlink:href="../../d0/d14/struct_party.html#a2e22e5307901cb1acb688185168b6161" target="_top" xlink:title=" ">
<polygon fill="white" stroke="black" points="193,-0.5 193,-19.5 308,-19.5 308,-0.5 193,-0.5"/>
<text text-anchor="middle" x="250.5" y="-7.5" font-family="Helvetica,sans-Serif" font-size="10.00">Party::GetPlayingTime</text>
</a>
</g>
</g>
<!-- Node1&#45;&gt;Node11 -->
<g id="edge11" class="edge"><title>Node1&#45;&gt;Node11</title>
<path fill="none" stroke="midnightblue" d="M74.3336,-127.699C89.5169,-102.854 123.02,-54.004 165,-29 170.511,-25.7178 176.531,-23.0019 182.738,-20.7547"/>
<polygon fill="midnightblue" stroke="midnightblue" points="184.144,-23.9795 192.599,-17.5951 182.008,-17.3133 184.144,-23.9795"/>
</g>
<!-- Node12 -->
<g id="node12" class="node"><title>Node12</title>
<g id="a_node12"><a xlink:href="../../d6/d9e/struct_indoor_location.html#aaaf5a1255bb773cc796685052c9abd29" target="_top" xlink:title=" ">
<polygon fill="white" stroke="black" points="185.5,-228.5 185.5,-247.5 315.5,-247.5 315.5,-228.5 185.5,-228.5"/>
<text text-anchor="middle" x="250.5" y="-235.5" font-family="Helvetica,sans-Serif" font-size="10.00">IndoorLocation::GetSector</text>
</a>
</g>
</g>
<!-- Node1&#45;&gt;Node12 -->
<g id="edge12" class="edge"><title>Node1&#45;&gt;Node12</title>
<path fill="none" stroke="midnightblue" d="M82.6629,-158.074C101.622,-174.02 133.636,-198.917 165,-214 174.478,-218.558 184.981,-222.402 195.27,-225.586"/>
<polygon fill="midnightblue" stroke="midnightblue" points="194.447,-228.992 205.028,-228.438 196.411,-222.273 194.447,-228.992"/>
</g>
<!-- Node13 -->
<g id="node13" class="node"><title>Node13</title>
<g id="a_node13"><a xlink:href="../../d6/d38/structstru193__math.html#a9bd57620c86e36d03d93f2306f8ab80a" target="_top" xlink:title=" ">
<polygon fill="white" stroke="black" points="202.5,-114.5 202.5,-133.5 298.5,-133.5 298.5,-114.5 202.5,-114.5"/>
<text text-anchor="middle" x="250.5" y="-121.5" font-family="Helvetica,sans-Serif" font-size="10.00">stru193_math::Sin</text>
</a>
</g>
</g>
<!-- Node1&#45;&gt;Node13 -->
<g id="edge15" class="edge"><title>Node1&#45;&gt;Node13</title>
<path fill="none" stroke="midnightblue" d="M129.08,-136.435C149.602,-134.316 172.216,-131.98 192.252,-129.911"/>
<polygon fill="midnightblue" stroke="midnightblue" points="192.882,-133.365 202.47,-128.856 192.163,-126.402 192.882,-133.365"/>
</g>
<!-- Node3 -->
<g id="node3" class="node"><title>Node3</title>
<g id="a_node3"><a xlink:href="../../d9/d30/_s_d_l__assert_8h.html#afedcea68cf85ee469ab1ea390bbe0abb" target="_top" xlink:title=" ">
<polygon fill="white" stroke="black" points="392,-304.5 392,-323.5 469,-323.5 469,-304.5 392,-304.5"/>
<text text-anchor="middle" x="430.5" y="-311.5" font-family="Helvetica,sans-Serif" font-size="10.00">__debugbreak</text>
</a>
</g>
</g>
<!-- Node2&#45;&gt;Node3 -->
<g id="edge2" class="edge"><title>Node2&#45;&gt;Node3</title>
<path fill="none" stroke="midnightblue" d="M296.417,-285.589C322.535,-291.165 355.43,-298.187 381.981,-303.855"/>
<polygon fill="midnightblue" stroke="midnightblue" points="381.308,-307.291 391.819,-305.956 382.77,-300.445 381.308,-307.291"/>
</g>
<!-- Node4 -->
<g id="node4" class="node"><title>Node4</title>
<g id="a_node4"><a xlink:href="../../d9/ded/struct_b_l_v_face.html#aa265acfdce5d21ef5d46c0a8b83fc719" target="_top" xlink:title=" ">
<polygon fill="white" stroke="black" points="381,-266.5 381,-285.5 480,-285.5 480,-266.5 381,-266.5"/>
<text text-anchor="middle" x="430.5" y="-273.5" font-family="Helvetica,sans-Serif" font-size="10.00">BLVFace::Ethereal</text>
</a>
</g>
</g>
<!-- Node2&#45;&gt;Node4 -->
<g id="edge3" class="edge"><title>Node2&#45;&gt;Node4</title>
<path fill="none" stroke="midnightblue" d="M300.61,-276C322.295,-276 347.963,-276 370.662,-276"/>
<polygon fill="midnightblue" stroke="midnightblue" points="370.858,-279.5 380.858,-276 370.858,-272.5 370.858,-279.5"/>
</g>
<!-- Node5 -->
<g id="node5" class="node"><title>Node5</title>
<g id="a_node5"><a xlink:href="../../de/db6/_our_math_8cpp.html#a26d802a4465483f7c2f89657b75c9ebe" target="_top" xlink:title=" ">
<polygon fill="white" stroke="black" points="398.5,-228.5 398.5,-247.5 462.5,-247.5 462.5,-228.5 398.5,-228.5"/>
<text text-anchor="middle" x="430.5" y="-235.5" font-family="Helvetica,sans-Serif" font-size="10.00">fixpoint_div</text>
</a>
</g>
</g>
<!-- Node2&#45;&gt;Node5 -->
<g id="edge4" class="edge"><title>Node2&#45;&gt;Node5</title>
<path fill="none" stroke="midnightblue" d="M296.417,-266.411C324.636,-260.387 360.765,-252.674 388.257,-246.805"/>
<polygon fill="midnightblue" stroke="midnightblue" points="389.287,-250.164 398.336,-244.653 387.825,-243.318 389.287,-250.164"/>
</g>
<!-- Node2&#45;&gt;Node6 -->
<g id="edge5" class="edge"><title>Node2&#45;&gt;Node6</title>
<path fill="none" stroke="midnightblue" d="M300.688,-270.043C312.758,-267.231 325.28,-263.092 336,-257 356.226,-245.505 352.361,-231.471 372,-219 376.604,-216.076 381.703,-213.557 386.908,-211.399"/>
<polygon fill="midnightblue" stroke="midnightblue" points="388.159,-214.668 396.306,-207.894 385.713,-208.109 388.159,-214.668"/>
</g>
<!-- Node9 -->
<g id="node9" class="node"><title>Node9</title>
<g id="a_node9"><a xlink:href="../../df/dc2/struct_game_time.html#ab3b7fbfbc2a94e223d349b3dd48f76d3" target="_top" xlink:title=" ">
<polygon fill="white" stroke="black" points="372,-76.5 372,-95.5 489,-95.5 489,-76.5 372,-76.5"/>
<text text-anchor="middle" x="430.5" y="-83.5" font-family="Helvetica,sans-Serif" font-size="10.00">GameTime::GameTime</text>
</a>
</g>
</g>
<!-- Node8&#45;&gt;Node9 -->
<g id="edge9" class="edge"><title>Node8&#45;&gt;Node9</title>
<path fill="none" stroke="midnightblue" d="M316.014,-86C330.888,-86 346.752,-86 361.759,-86"/>
<polygon fill="midnightblue" stroke="midnightblue" points="361.989,-89.5001 371.989,-86 361.989,-82.5001 361.989,-89.5001"/>
</g>
<!-- Node12&#45;&gt;Node5 -->
<g id="edge13" class="edge"><title>Node12&#45;&gt;Node5</title>
<path fill="none" stroke="midnightblue" d="M315.511,-238C339.665,-238 366.491,-238 388.049,-238"/>
<polygon fill="midnightblue" stroke="midnightblue" points="388.174,-241.5 398.174,-238 388.174,-234.5 388.174,-241.5"/>
</g>
<!-- Node12&#45;&gt;Node6 -->
<g id="edge14" class="edge"><title>Node12&#45;&gt;Node6</title>
<path fill="none" stroke="midnightblue" d="M296.417,-228.411C323.997,-222.523 359.132,-215.022 386.375,-209.206"/>
<polygon fill="midnightblue" stroke="midnightblue" points="387.349,-212.578 396.398,-207.067 385.887,-205.732 387.349,-212.578"/>
</g>
<!-- Node13&#45;&gt;Node7 -->
<g id="edge16" class="edge"><title>Node13&#45;&gt;Node7</title>
<path fill="none" stroke="midnightblue" d="M298.733,-129.042C320.804,-131.398 347.307,-134.227 370.665,-136.72"/>
<polygon fill="midnightblue" stroke="midnightblue" points="370.489,-140.221 380.804,-137.802 371.232,-133.26 370.489,-140.221"/>
</g>
</g>
</svg>
