<?xml version="1.0" encoding="UTF-8" standalone="no"?>
<!DOCTYPE svg PUBLIC "-//W3C//DTD SVG 1.1//EN"
 "http://www.w3.org/Graphics/SVG/1.1/DTD/svg11.dtd">
<!-- Generated by graphviz version 2.38.0 (20140413.2041)
 -->
<!-- Title: GameUI_StatusBar_Set Pages: 1 -->
<!--zoomable 99 -->
<svg id="main" version="1.1" xmlns="http://www.w3.org/2000/svg" xmlns:xlink="http://www.w3.org/1999/xlink" xml:space="preserve" onload="init(evt)">
<style type="text/css"><![CDATA[
.edge:hover path { stroke: red; }
.edge:hover polygon { stroke: red; fill: red; }
]]></style>
<script type="text/javascript"><![CDATA[
var edges = document.getElementsByTagName('g');
if (edges && edges.length) {
  for (var i=0;i<edges.length;i++) {
    if (edges[i].id.substr(0,4)=='edge') {
      edges[i].setAttribute('class','edge');
    }
  }
}
]]></script>
        <defs>
                <circle id="rim" cx="0" cy="0" r="7"/>
                <circle id="rim2" cx="0" cy="0" r="3.5"/>
                <g id="zoomPlus">
                        <use xlink:href="#rim" fill="#404040">
                                <set attributeName="fill" to="#808080" begin="zoomplus.mouseover" end="zoomplus.mouseout"/>
                        </use>
                        <path d="M-4,0h8M0,-4v8" fill="none" stroke="white" stroke-width="1.5" pointer-events="none"/>
                </g>
                <g id="zoomMin">
                        <use xlink:href="#rim" fill="#404040">
                                <set attributeName="fill" to="#808080" begin="zoomminus.mouseover" end="zoomminus.mouseout"/>
                        </use>
                        <path d="M-4,0h8" fill="none" stroke="white" stroke-width="1.5" pointer-events="none"/>
                </g>
                <g id="dirArrow">
                        <path fill="none" stroke="white" stroke-width="1.5" d="M0,-3.0v7 M-2.5,-0.5L0,-3.0L2.5,-0.5"/>
                </g>
               <g id="resetDef">
                       <use xlink:href="#rim2" fill="#404040">
                               <set attributeName="fill" to="#808080" begin="reset.mouseover" end="reset.mouseout"/>
                       </use>
               </g>
        </defs>

<script type="text/javascript">
var viewWidth = 1218;
var viewHeight = 99;
var sectionId = 'dynsection-4';
</script>
<script xlink:href="../../svgpan.js"/>
<svg id="graph" class="graph">
<g id="viewport">
<title>GameUI_StatusBar_Set</title>
<polygon fill="white" stroke="none" points="-4,4 -4,-94.7422 1214,-94.7422 1214,4 -4,4"/>
<!-- Node1 -->
<g id="node1" class="node"><title>Node1</title>
<g id="a_node1"><a xlink:title=" ">
<polygon fill="#bfbfbf" stroke="black" points="1089,-21.7422 1089,-40.7422 1210,-40.7422 1210,-21.7422 1089,-21.7422"/>
<text text-anchor="middle" x="1149.5" y="-28.7422" font-family="Helvetica,sans-Serif" font-size="10.00">GameUI_StatusBar_Set</text>
</a>
</g>
</g>
<!-- Node2 -->
<g id="node2" class="node"><title>Node2</title>
<g id="a_node2"><a xlink:href="../../db/d0a/struct_chest.html#afc09b9527a9960368cc4982e245b0924" target="_top" xlink:title=" ">
<polygon fill="white" stroke="black" points="909,-60.2422 909,-90.2422 1053,-90.2422 1053,-60.2422 909,-60.2422"/>
<text text-anchor="start" x="917" y="-78.2422" font-family="Helvetica,sans-Serif" font-size="10.00">Chest::ChestUI_WritePointed</text>
<text text-anchor="middle" x="981" y="-67.2422" font-family="Helvetica,sans-Serif" font-size="10.00">ObjectStatusString</text>
</a>
</g>
</g>
<!-- Node1&#45;&gt;Node2 -->
<g id="edge1" class="edge"><title>Node1&#45;&gt;Node2</title>
<path fill="none" stroke="midnightblue" d="M1102.45,-43.411C1082.82,-48.5996 1059.71,-54.7068 1039.01,-60.1769"/>
<polygon fill="midnightblue" stroke="midnightblue" points="1103.6,-46.7284 1112.37,-40.7896 1101.81,-39.9607 1103.6,-46.7284"/>
</g>
<!-- Node3 -->
<g id="node3" class="node"><title>Node3</title>
<g id="a_node3"><a xlink:href="../../d5/d09/_u_i_game_8h.html#a19b0f805a3fa3ae0a2fbde27e8df406a" target="_top" xlink:title=" ">
<polygon fill="white" stroke="black" points="731,-41.2422 731,-71.2422 873,-71.2422 873,-41.2422 731,-41.2422"/>
<text text-anchor="start" x="739" y="-59.2422" font-family="Helvetica,sans-Serif" font-size="10.00">GameUI_WritePointedObject</text>
<text text-anchor="middle" x="802" y="-48.2422" font-family="Helvetica,sans-Serif" font-size="10.00">StatusString</text>
</a>
</g>
</g>
<!-- Node1&#45;&gt;Node3 -->
<g id="edge10" class="edge"><title>Node1&#45;&gt;Node3</title>
<path fill="none" stroke="midnightblue" d="M1078.59,-36.3006C1018.73,-40.632 932.967,-46.838 873.061,-51.1727"/>
<polygon fill="midnightblue" stroke="midnightblue" points="1078.99,-39.781 1088.71,-35.5684 1078.49,-32.7993 1078.99,-39.781"/>
</g>
<!-- Node8 -->
<g id="node8" class="node"><title>Node8</title>
<g id="a_node8"><a xlink:href="../../d4/d06/class_application_1_1_game.html#a3f65e3f0ef1a9114fb3dea275e52442e" target="_top" xlink:title=" ">
<polygon fill="white" stroke="black" points="455,-22.2422 455,-52.2422 558,-52.2422 558,-22.2422 455,-22.2422"/>
<text text-anchor="start" x="463" y="-40.2422" font-family="Helvetica,sans-Serif" font-size="10.00">Application::Game::</text>
<text text-anchor="middle" x="506.5" y="-29.2422" font-family="Helvetica,sans-Serif" font-size="10.00">EventLoop</text>
</a>
</g>
</g>
<!-- Node1&#45;&gt;Node8 -->
<g id="edge9" class="edge"><title>Node1&#45;&gt;Node8</title>
<path fill="none" stroke="midnightblue" d="M1078.43,-21.0595C972.828,-7.46352 766.83,12.2323 594,-12.2422 579.606,-14.2806 564.254,-18.1373 550.541,-22.2222"/>
<polygon fill="midnightblue" stroke="midnightblue" points="1078.28,-24.5685 1088.64,-22.3955 1079.18,-17.6276 1078.28,-24.5685"/>
</g>
<!-- Node2&#45;&gt;Node3 -->
<g id="edge2" class="edge"><title>Node2&#45;&gt;Node3</title>
<path fill="none" stroke="midnightblue" d="M898.804,-66.5262C890.259,-65.6091 881.624,-64.6821 873.218,-63.7798"/>
<polygon fill="midnightblue" stroke="midnightblue" points="898.456,-70.0089 908.772,-67.5963 899.203,-63.0489 898.456,-70.0089"/>
</g>
<!-- Node4 -->
<g id="node4" class="node"><title>Node4</title>
<g id="a_node4"><a xlink:href="../../d4/d06/class_application_1_1_game.html#aaa0ff18388b32b4e6198835a35e000d3" target="_top" xlink:title=" ">
<polygon fill="white" stroke="black" points="316,-44.2422 316,-74.2422 419,-74.2422 419,-44.2422 316,-44.2422"/>
<text text-anchor="start" x="324" y="-62.2422" font-family="Helvetica,sans-Serif" font-size="10.00">Application::Game::</text>
<text text-anchor="middle" x="367.5" y="-51.2422" font-family="Helvetica,sans-Serif" font-size="10.00">GameLoop</text>
</a>
</g>
</g>
<!-- Node3&#45;&gt;Node4 -->
<g id="edge3" class="edge"><title>Node3&#45;&gt;Node4</title>
<path fill="none" stroke="midnightblue" d="M720.734,-61.2659C712.051,-61.6661 703.343,-62.0063 695,-62.2422 588.376,-65.2575 561.651,-64.0911 455,-62.2422 443.431,-62.0417 430.996,-61.6904 419.263,-61.2971"/>
<polygon fill="midnightblue" stroke="midnightblue" points="721.074,-64.7536 730.892,-60.7712 720.733,-57.7619 721.074,-64.7536"/>
</g>
<!-- Node7 -->
<g id="node7" class="node"><title>Node7</title>
<g id="a_node7"><a xlink:href="../../df/dac/class_application_1_1_menu.html#aaf253396760ddad4b41b2db8901e97ee" target="_top" xlink:title=" ">
<polygon fill="white" stroke="black" points="594,-22.2422 594,-52.2422 695,-52.2422 695,-22.2422 594,-22.2422"/>
<text text-anchor="start" x="602" y="-40.2422" font-family="Helvetica,sans-Serif" font-size="10.00">Application::Menu::</text>
<text text-anchor="middle" x="644.5" y="-29.2422" font-family="Helvetica,sans-Serif" font-size="10.00">MenuLoop</text>
</a>
</g>
</g>
<!-- Node3&#45;&gt;Node7 -->
<g id="edge6" class="edge"><title>Node3&#45;&gt;Node7</title>
<path fill="none" stroke="midnightblue" d="M721.032,-46.4712C712.211,-45.3934 703.427,-44.3202 695.137,-43.3072"/>
<polygon fill="midnightblue" stroke="midnightblue" points="720.633,-49.9484 730.983,-47.6871 721.482,-43 720.633,-49.9484"/>
</g>
<!-- Node5 -->
<g id="node5" class="node"><title>Node5</title>
<g id="a_node5"><a xlink:href="../../d4/d06/class_application_1_1_game.html#a013ffd59e8fdf1c0a396da1dbe1681ca" target="_top" xlink:title=" ">
<polygon fill="white" stroke="black" points="156,-49.7422 156,-68.7422 280,-68.7422 280,-49.7422 156,-49.7422"/>
<text text-anchor="middle" x="218" y="-56.7422" font-family="Helvetica,sans-Serif" font-size="10.00">Application::Game::Loop</text>
</a>
</g>
</g>
<!-- Node4&#45;&gt;Node5 -->
<g id="edge4" class="edge"><title>Node4&#45;&gt;Node5</title>
<path fill="none" stroke="midnightblue" d="M305.59,-59.2422C297.149,-59.2422 288.478,-59.2422 280.035,-59.2422"/>
<polygon fill="midnightblue" stroke="midnightblue" points="305.739,-62.7423 315.739,-59.2422 305.739,-55.7423 305.739,-62.7423"/>
</g>
<!-- Node6 -->
<g id="node6" class="node"><title>Node6</title>
<g id="a_node6"><a xlink:href="../../d4/d06/class_application_1_1_game.html#a96341ca5b54d90adc3ecb3bf0bcd2312" target="_top" xlink:title=" ">
<polygon fill="white" stroke="black" points="0,-49.7422 0,-68.7422 120,-68.7422 120,-49.7422 0,-49.7422"/>
<text text-anchor="middle" x="60" y="-56.7422" font-family="Helvetica,sans-Serif" font-size="10.00">Application::Game::Run</text>
</a>
</g>
</g>
<!-- Node5&#45;&gt;Node6 -->
<g id="edge5" class="edge"><title>Node5&#45;&gt;Node6</title>
<path fill="none" stroke="midnightblue" d="M145.546,-59.2422C137.081,-59.2422 128.513,-59.2422 120.244,-59.2422"/>
<polygon fill="midnightblue" stroke="midnightblue" points="145.792,-62.7423 155.792,-59.2422 145.792,-55.7423 145.792,-62.7423"/>
</g>
<!-- Node7&#45;&gt;Node8 -->
<g id="edge7" class="edge"><title>Node7&#45;&gt;Node8</title>
<path fill="none" stroke="midnightblue" d="M583.486,-37.2422C575.072,-37.2422 566.494,-37.2422 558.274,-37.2422"/>
<polygon fill="midnightblue" stroke="midnightblue" points="583.631,-40.7423 593.631,-37.2422 583.631,-33.7423 583.631,-40.7423"/>
</g>
<!-- Node8&#45;&gt;Node4 -->
<g id="edge8" class="edge"><title>Node8&#45;&gt;Node4</title>
<path fill="none" stroke="midnightblue" d="M444.958,-46.9643C436.417,-48.3358 427.709,-49.7343 419.374,-51.0727"/>
<polygon fill="midnightblue" stroke="midnightblue" points="445.557,-50.4131 454.875,-45.3717 444.447,-43.5016 445.557,-50.4131"/>
</g>
</g>
</svg>
        <g id="navigator" transform="translate(0 0)" fill="#404254">
                <rect fill="#f2f5e9" fill-opacity="0.5" stroke="#606060" stroke-width=".5" x="0" y="0" width="60" height="60"/>
                <use id="zoomplus" xlink:href="#zoomPlus" x="17" y="9" onmousedown="handleZoom(evt,'in')"/>
                <use id="zoomminus" xlink:href="#zoomMin" x="42" y="9" onmousedown="handleZoom(evt,'out')"/>
                <use id="reset" xlink:href="#resetDef" x="30" y="36" onmousedown="handleReset()"/>
                <g id="arrowUp" xlink:href="#dirArrow" transform="translate(30 24)" onmousedown="handlePan(0,-1)">
                  <use xlink:href="#rim" fill="#404040">
                        <set attributeName="fill" to="#808080" begin="arrowUp.mouseover" end="arrowUp.mouseout"/>
                  </use>
                  <path fill="none" stroke="white" stroke-width="1.5" d="M0,-3.0v7 M-2.5,-0.5L0,-3.0L2.5,-0.5"/>
                </g>
                <g id="arrowRight" xlink:href="#dirArrow" transform="rotate(90) translate(36 -43)" onmousedown="handlePan(1,0)">
                  <use xlink:href="#rim" fill="#404040">
                        <set attributeName="fill" to="#808080" begin="arrowRight.mouseover" end="arrowRight.mouseout"/>
                  </use>
                  <path fill="none" stroke="white" stroke-width="1.5" d="M0,-3.0v7 M-2.5,-0.5L0,-3.0L2.5,-0.5"/>
                </g>
                <g id="arrowDown" xlink:href="#dirArrow" transform="rotate(180) translate(-30 -48)" onmousedown="handlePan(0,1)">
                  <use xlink:href="#rim" fill="#404040">
                        <set attributeName="fill" to="#808080" begin="arrowDown.mouseover" end="arrowDown.mouseout"/>
                  </use>
                  <path fill="none" stroke="white" stroke-width="1.5" d="M0,-3.0v7 M-2.5,-0.5L0,-3.0L2.5,-0.5"/>
                </g>
                <g id="arrowLeft" xlink:href="#dirArrow" transform="rotate(270) translate(-36 17)" onmousedown="handlePan(-1,0)">
                  <use xlink:href="#rim" fill="#404040">
                        <set attributeName="fill" to="#808080" begin="arrowLeft.mouseover" end="arrowLeft.mouseout"/>
                  </use>
                  <path fill="none" stroke="white" stroke-width="1.5" d="M0,-3.0v7 M-2.5,-0.5L0,-3.0L2.5,-0.5"/>
                </g>
        </g>
        <svg viewBox="0 0 15 15" width="100%" height="30px" preserveAspectRatio="xMaxYMin meet">
         <g id="arrow_out" transform="scale(0.3 0.3)">
          <a xlink:href="_u_i_status_bar_8h_a8ad9e37393859e27c512528b4c1b4b2f_icgraph_org.svg" target="_base">
           <rect id="button" ry="5" rx="5" y="6" x="6" height="38" width="38"
                fill="#f2f5e9" fill-opacity="0.5" stroke="#606060" stroke-width="1.0"/>
           <path id="arrow"
             d="M 11.500037,31.436501 C 11.940474,20.09759 22.043105,11.32322 32.158766,21.979434 L 37.068811,17.246167 C 37.068811,17.246167 37.088388,32 37.088388,32 L 22.160133,31.978069 C 22.160133,31.978069 26.997745,27.140456 26.997745,27.140456 C 18.528582,18.264221 13.291696,25.230495 11.500037,31.436501 z"
             style="fill:#404040;"/>
          </a>
         </g>
        </svg>
</svg>
