<?xml version="1.0" encoding="UTF-8" standalone="no"?>
<!DOCTYPE svg PUBLIC "-//W3C//DTD SVG 1.1//EN"
 "http://www.w3.org/Graphics/SVG/1.1/DTD/svg11.dtd">
<!-- Generated by graphviz version 2.38.0 (20140413.2041)
 -->
<!-- Title: DecorationDesc_mm6::CanMoveThrough Pages: 1 -->
<svg width="1423pt" height="231pt"
 viewBox="0.00 0.00 1423.00 231.00" xmlns="http://www.w3.org/2000/svg" xmlns:xlink="http://www.w3.org/1999/xlink">
<g id="graph0" class="graph" transform="scale(1 1) rotate(0) translate(4 227)">
<title>DecorationDesc_mm6::CanMoveThrough</title>
<polygon fill="white" stroke="none" points="-4,4 -4,-227 1419,-227 1419,4 -4,4"/>
<!-- Node1 -->
<g id="node1" class="node"><title>Node1</title>
<g id="a_node1"><a xlink:title=" ">
<polygon fill="#bfbfbf" stroke="black" points="1302,-109 1302,-139 1415,-139 1415,-109 1302,-109"/>
<text text-anchor="start" x="1310" y="-127" font-family="Helvetica,sans-Serif" font-size="10.00">DecorationDesc_mm6</text>
<text text-anchor="middle" x="1358.5" y="-116" font-family="Helvetica,sans-Serif" font-size="10.00">::CanMoveThrough</text>
</a>
</g>
</g>
<!-- Node2 -->
<g id="node2" class="node"><title>Node2</title>
<g id="a_node2"><a xlink:href="../../da/d20/_i_render_8h.html#a09986b939821caaf4b0d6a63dd2c2aeb" target="_top" xlink:title=" ">
<polygon fill="white" stroke="black" points="1140,-145 1140,-175 1266,-175 1266,-145 1140,-145"/>
<text text-anchor="start" x="1148" y="-163" font-family="Helvetica,sans-Serif" font-size="10.00">_46E0B2_collide_against</text>
<text text-anchor="middle" x="1203" y="-152" font-family="Helvetica,sans-Serif" font-size="10.00">_decorations</text>
</a>
</g>
</g>
<!-- Node1&#45;&gt;Node2 -->
<g id="edge1" class="edge"><title>Node1&#45;&gt;Node2</title>
<path fill="none" stroke="midnightblue" d="M1291.75,-139.421C1283.22,-141.421 1274.51,-143.465 1266.04,-145.45"/>
<polygon fill="midnightblue" stroke="midnightblue" points="1292.71,-142.79 1301.65,-137.099 1291.11,-135.975 1292.71,-142.79"/>
</g>
<!-- Node13 -->
<g id="node13" class="node"><title>Node13</title>
<g id="a_node13"><a xlink:href="../../dd/d23/_sprites_8h.html#a98d48bfe3aa59b22d16d2120b2c1b9b2" target="_top" xlink:title=" ">
<polygon fill="white" stroke="black" points="1140,-52 1140,-82 1266,-82 1266,-52 1140,-52"/>
<text text-anchor="start" x="1148" y="-70" font-family="Helvetica,sans-Serif" font-size="10.00">_46E26D_collide_against</text>
<text text-anchor="middle" x="1203" y="-59" font-family="Helvetica,sans-Serif" font-size="10.00">_sprites</text>
</a>
</g>
</g>
<!-- Node1&#45;&gt;Node13 -->
<g id="edge15" class="edge"><title>Node1&#45;&gt;Node13</title>
<path fill="none" stroke="midnightblue" d="M1307.36,-105.38C1287.04,-97.8368 1263.89,-89.2397 1244.66,-82.097"/>
<polygon fill="midnightblue" stroke="midnightblue" points="1306.17,-108.675 1316.77,-108.875 1308.61,-102.112 1306.17,-108.675"/>
</g>
<!-- Node3 -->
<g id="node3" class="node"><title>Node3</title>
<g id="a_node3"><a xlink:href="../../da/dc7/_indoor_8h.html#a07b99aba77bf867821578ea0151a2f64" target="_top" xlink:title=" ">
<polygon fill="white" stroke="black" points="797,-203.5 797,-222.5 930,-222.5 930,-203.5 797,-203.5"/>
<text text-anchor="middle" x="863.5" y="-210.5" font-family="Helvetica,sans-Serif" font-size="10.00">BLV_ProcessPartyActions</text>
</a>
</g>
</g>
<!-- Node2&#45;&gt;Node3 -->
<g id="edge2" class="edge"><title>Node2&#45;&gt;Node3</title>
<path fill="none" stroke="midnightblue" d="M1163.87,-179.575C1146.14,-187.722 1124.49,-196.351 1104,-201 1046.25,-214.106 978.728,-216.352 930.128,-215.761"/>
<polygon fill="midnightblue" stroke="midnightblue" points="1165.74,-182.564 1173.29,-175.127 1162.75,-176.235 1165.74,-182.564"/>
</g>
<!-- Node9 -->
<g id="node9" class="node"><title>Node9</title>
<g id="a_node9"><a xlink:href="../../da/dc7/_indoor_8h.html#a91180cf18d91c79b7bc41c630c261cbd" target="_top" xlink:title=" ">
<polygon fill="white" stroke="black" points="986,-172.5 986,-191.5 1086,-191.5 1086,-172.5 986,-172.5"/>
<text text-anchor="middle" x="1036" y="-179.5" font-family="Helvetica,sans-Serif" font-size="10.00">UpdateActors_BLV</text>
</a>
</g>
</g>
<!-- Node2&#45;&gt;Node9 -->
<g id="edge8" class="edge"><title>Node2&#45;&gt;Node9</title>
<path fill="none" stroke="midnightblue" d="M1129.55,-169.66C1114.86,-171.618 1099.75,-173.634 1086.1,-175.454"/>
<polygon fill="midnightblue" stroke="midnightblue" points="1130.17,-173.108 1139.62,-168.317 1129.25,-166.17 1130.17,-173.108"/>
</g>
<!-- Node10 -->
<g id="node10" class="node"><title>Node10</title>
<g id="a_node10"><a xlink:href="../../d0/d5a/struct_sprite_object.html#a9e0d2e0c49fb02c2bf900de59aecff85" target="_top" xlink:title=" ">
<polygon fill="white" stroke="black" points="968,-123 968,-153 1104,-153 1104,-123 968,-123"/>
<text text-anchor="start" x="976" y="-141" font-family="Helvetica,sans-Serif" font-size="10.00">SpriteObject::UpdateObject</text>
<text text-anchor="middle" x="1036" y="-130" font-family="Helvetica,sans-Serif" font-size="10.00">_fn0_BLV</text>
</a>
</g>
</g>
<!-- Node2&#45;&gt;Node10 -->
<g id="edge10" class="edge"><title>Node2&#45;&gt;Node10</title>
<path fill="none" stroke="midnightblue" d="M1129.45,-150.327C1121.04,-149.205 1112.49,-148.065 1104.15,-146.953"/>
<polygon fill="midnightblue" stroke="midnightblue" points="1129.25,-153.83 1139.62,-151.683 1130.17,-146.892 1129.25,-153.83"/>
</g>
<!-- Node4 -->
<g id="node4" class="node"><title>Node4</title>
<g id="a_node4"><a xlink:href="../../da/dc7/_indoor_8h.html#a7d511837933d59eeeccfc25275a366d8" target="_top" xlink:title=" ">
<polygon fill="white" stroke="black" points="603,-86.5 603,-105.5 757,-105.5 757,-86.5 603,-86.5"/>
<text text-anchor="middle" x="680" y="-93.5" font-family="Helvetica,sans-Serif" font-size="10.00">BLV_UpdateUserInputAndOther</text>
</a>
</g>
</g>
<!-- Node3&#45;&gt;Node4 -->
<g id="edge3" class="edge"><title>Node3&#45;&gt;Node4</title>
<path fill="none" stroke="midnightblue" d="M838.791,-197.716C800.76,-173.2 727.213,-125.79 695.804,-105.543"/>
<polygon fill="midnightblue" stroke="midnightblue" points="837.346,-200.949 847.647,-203.425 841.138,-195.065 837.346,-200.949"/>
</g>
<!-- Node5 -->
<g id="node5" class="node"><title>Node5</title>
<g id="a_node5"><a xlink:href="../../de/dcf/_engine_8h.html#a73fe5e8d7dc6ec78e5cc180d1915341b" target="_top" xlink:title=" ">
<polygon fill="white" stroke="black" points="455,-61 455,-91 565,-91 565,-61 455,-61"/>
<text text-anchor="start" x="463" y="-79" font-family="Helvetica,sans-Serif" font-size="10.00">UpdateUserInput_and</text>
<text text-anchor="middle" x="510" y="-68" font-family="Helvetica,sans-Serif" font-size="10.00">_MapSpecificStuff</text>
</a>
</g>
</g>
<!-- Node4&#45;&gt;Node5 -->
<g id="edge4" class="edge"><title>Node4&#45;&gt;Node5</title>
<path fill="none" stroke="midnightblue" d="M592.735,-85.7303C583.393,-84.6182 574.088,-83.5105 565.284,-82.4624"/>
<polygon fill="midnightblue" stroke="midnightblue" points="592.521,-89.2295 602.865,-86.9363 593.349,-82.2786 592.521,-89.2295"/>
</g>
<!-- Node6 -->
<g id="node6" class="node"><title>Node6</title>
<g id="a_node6"><a xlink:href="../../d4/d06/class_application_1_1_game.html#aaa0ff18388b32b4e6198835a35e000d3" target="_top" xlink:title=" ">
<polygon fill="white" stroke="black" points="316,-61 316,-91 419,-91 419,-61 316,-61"/>
<text text-anchor="start" x="324" y="-79" font-family="Helvetica,sans-Serif" font-size="10.00">Application::Game::</text>
<text text-anchor="middle" x="367.5" y="-68" font-family="Helvetica,sans-Serif" font-size="10.00">GameLoop</text>
</a>
</g>
</g>
<!-- Node5&#45;&gt;Node6 -->
<g id="edge5" class="edge"><title>Node5&#45;&gt;Node6</title>
<path fill="none" stroke="midnightblue" d="M444.514,-76C436.109,-76 427.593,-76 419.452,-76"/>
<polygon fill="midnightblue" stroke="midnightblue" points="444.679,-79.5001 454.679,-76 444.679,-72.5001 444.679,-79.5001"/>
</g>
<!-- Node7 -->
<g id="node7" class="node"><title>Node7</title>
<g id="a_node7"><a xlink:href="../../d4/d06/class_application_1_1_game.html#a013ffd59e8fdf1c0a396da1dbe1681ca" target="_top" xlink:title=" ">
<polygon fill="white" stroke="black" points="156,-66.5 156,-85.5 280,-85.5 280,-66.5 156,-66.5"/>
<text text-anchor="middle" x="218" y="-73.5" font-family="Helvetica,sans-Serif" font-size="10.00">Application::Game::Loop</text>
</a>
</g>
</g>
<!-- Node6&#45;&gt;Node7 -->
<g id="edge6" class="edge"><title>Node6&#45;&gt;Node7</title>
<path fill="none" stroke="midnightblue" d="M305.59,-76C297.149,-76 288.478,-76 280.035,-76"/>
<polygon fill="midnightblue" stroke="midnightblue" points="305.739,-79.5001 315.739,-76 305.739,-72.5001 305.739,-79.5001"/>
</g>
<!-- Node8 -->
<g id="node8" class="node"><title>Node8</title>
<g id="a_node8"><a xlink:href="../../d4/d06/class_application_1_1_game.html#a96341ca5b54d90adc3ecb3bf0bcd2312" target="_top" xlink:title=" ">
<polygon fill="white" stroke="black" points="0,-66.5 0,-85.5 120,-85.5 120,-66.5 0,-66.5"/>
<text text-anchor="middle" x="60" y="-73.5" font-family="Helvetica,sans-Serif" font-size="10.00">Application::Game::Run</text>
</a>
</g>
</g>
<!-- Node7&#45;&gt;Node8 -->
<g id="edge7" class="edge"><title>Node7&#45;&gt;Node8</title>
<path fill="none" stroke="midnightblue" d="M145.546,-76C137.081,-76 128.513,-76 120.244,-76"/>
<polygon fill="midnightblue" stroke="midnightblue" points="145.792,-79.5001 155.792,-76 145.792,-72.5001 145.792,-79.5001"/>
</g>
<!-- Node9&#45;&gt;Node4 -->
<g id="edge9" class="edge"><title>Node9&#45;&gt;Node4</title>
<path fill="none" stroke="midnightblue" d="M985.726,-170.03C914.714,-152.778 785.022,-121.271 720.142,-105.509"/>
<polygon fill="midnightblue" stroke="midnightblue" points="985.22,-173.508 995.763,-172.468 986.872,-166.706 985.22,-173.508"/>
</g>
<!-- Node11 -->
<g id="node11" class="node"><title>Node11</title>
<g id="a_node11"><a xlink:href="../../da/d20/_i_render_8h.html#a522912d67446895b0a03d01837b75a99" target="_top" xlink:title=" ">
<polygon fill="white" stroke="black" points="823,-86.5 823,-105.5 904,-105.5 904,-86.5 823,-86.5"/>
<text text-anchor="middle" x="863.5" y="-93.5" font-family="Helvetica,sans-Serif" font-size="10.00">UpdateObjects</text>
</a>
</g>
</g>
<!-- Node10&#45;&gt;Node11 -->
<g id="edge11" class="edge"><title>Node10&#45;&gt;Node11</title>
<path fill="none" stroke="midnightblue" d="M964.116,-120.539C943.236,-115.395 921.171,-109.96 903.13,-105.516"/>
<polygon fill="midnightblue" stroke="midnightblue" points="963.38,-123.962 973.927,-122.956 965.055,-117.165 963.38,-123.962"/>
</g>
<!-- Node11&#45;&gt;Node4 -->
<g id="edge12" class="edge"><title>Node11&#45;&gt;Node4</title>
<path fill="none" stroke="midnightblue" d="M812.399,-96C795.359,-96 775.908,-96 757.29,-96"/>
<polygon fill="midnightblue" stroke="midnightblue" points="812.669,-99.5001 822.669,-96 812.669,-92.5001 812.669,-99.5001"/>
</g>
<!-- Node12 -->
<g id="node12" class="node"><title>Node12</title>
<g id="a_node12"><a xlink:href="../../dc/dfb/_outdoor_8h.html#aeedbd3470634fbb22ebda28d2f8006e4" target="_top" xlink:title=" ">
<polygon fill="white" stroke="black" points="601,-47.5 601,-66.5 759,-66.5 759,-47.5 601,-47.5"/>
<text text-anchor="middle" x="680" y="-54.5" font-family="Helvetica,sans-Serif" font-size="10.00">ODM_UpdateUserInputAndOther</text>
</a>
</g>
</g>
<!-- Node11&#45;&gt;Node12 -->
<g id="edge13" class="edge"><title>Node11&#45;&gt;Node12</title>
<path fill="none" stroke="midnightblue" d="M812.558,-85.2686C785.311,-79.414 751.867,-72.2275 725.517,-66.5656"/>
<polygon fill="midnightblue" stroke="midnightblue" points="812.157,-88.7623 822.669,-87.4413 813.628,-81.9185 812.157,-88.7623"/>
</g>
<!-- Node12&#45;&gt;Node5 -->
<g id="edge14" class="edge"><title>Node12&#45;&gt;Node5</title>
<path fill="none" stroke="midnightblue" d="M590.764,-66.9791C582.132,-67.9553 573.56,-68.9247 565.414,-69.846"/>
<polygon fill="midnightblue" stroke="midnightblue" points="591.359,-70.4342 600.902,-65.8325 590.572,-63.4786 591.359,-70.4342"/>
</g>
<!-- Node14 -->
<g id="node14" class="node"><title>Node14</title>
<g id="a_node14"><a xlink:href="../../dc/dfb/_outdoor_8h.html#a62e44d7fd493356cb340fe1dc8fe993b" target="_top" xlink:title=" ">
<polygon fill="white" stroke="black" points="795,-46.5 795,-65.5 932,-65.5 932,-46.5 795,-46.5"/>
<text text-anchor="middle" x="863.5" y="-53.5" font-family="Helvetica,sans-Serif" font-size="10.00">ODM_ProcessPartyActions</text>
</a>
</g>
</g>
<!-- Node13&#45;&gt;Node14 -->
<g id="edge16" class="edge"><title>Node13&#45;&gt;Node14</title>
<path fill="none" stroke="midnightblue" d="M1129.43,-64.6348C1070.96,-62.7292 989.366,-60.0697 932.225,-58.2073"/>
<polygon fill="midnightblue" stroke="midnightblue" points="1129.6,-68.1419 1139.7,-64.9696 1129.82,-61.1456 1129.6,-68.1419"/>
</g>
<!-- Node15 -->
<g id="node15" class="node"><title>Node15</title>
<g id="a_node15"><a xlink:href="../../dc/dfb/_outdoor_8h.html#ab3cc30c01fb2e9afa8ec291e6043bf99" target="_top" xlink:title=" ">
<polygon fill="white" stroke="black" points="811.5,-0.5 811.5,-19.5 915.5,-19.5 915.5,-0.5 811.5,-0.5"/>
<text text-anchor="middle" x="863.5" y="-7.5" font-family="Helvetica,sans-Serif" font-size="10.00">UpdateActors_ODM</text>
</a>
</g>
</g>
<!-- Node13&#45;&gt;Node15 -->
<g id="edge18" class="edge"><title>Node13&#45;&gt;Node15</title>
<path fill="none" stroke="midnightblue" d="M1129.62,-54.7759C1065.23,-43.9004 972.669,-28.2685 915.678,-18.6433"/>
<polygon fill="midnightblue" stroke="midnightblue" points="1129.26,-58.2646 1139.7,-56.4789 1130.43,-51.3624 1129.26,-58.2646"/>
</g>
<!-- Node16 -->
<g id="node16" class="node"><title>Node16</title>
<g id="a_node16"><a xlink:href="../../d0/d5a/struct_sprite_object.html#a950e5cedc1e8cfc98d77ba9b3f91071f" target="_top" xlink:title=" ">
<polygon fill="white" stroke="black" points="968,-74 968,-104 1104,-104 1104,-74 968,-74"/>
<text text-anchor="start" x="976" y="-92" font-family="Helvetica,sans-Serif" font-size="10.00">SpriteObject::UpdateObject</text>
<text text-anchor="middle" x="1036" y="-81" font-family="Helvetica,sans-Serif" font-size="10.00">_fn0_ODM</text>
</a>
</g>
</g>
<!-- Node13&#45;&gt;Node16 -->
<g id="edge20" class="edge"><title>Node13&#45;&gt;Node16</title>
<path fill="none" stroke="midnightblue" d="M1129.45,-76.673C1121.04,-77.7947 1112.49,-78.9351 1104.15,-80.0466"/>
<polygon fill="midnightblue" stroke="midnightblue" points="1130.17,-80.1083 1139.62,-75.3173 1129.25,-73.1697 1130.17,-80.1083"/>
</g>
<!-- Node14&#45;&gt;Node12 -->
<g id="edge17" class="edge"><title>Node14&#45;&gt;Node12</title>
<path fill="none" stroke="midnightblue" d="M784.66,-56.4289C776.173,-56.4756 767.532,-56.5232 759.042,-56.57"/>
<polygon fill="midnightblue" stroke="midnightblue" points="784.936,-59.9275 794.916,-56.3724 784.897,-52.9276 784.936,-59.9275"/>
</g>
<!-- Node15&#45;&gt;Node12 -->
<g id="edge19" class="edge"><title>Node15&#45;&gt;Node12</title>
<path fill="none" stroke="midnightblue" d="M815.817,-22.0888C785.396,-29.9664 746.25,-40.1033 717.986,-47.4224"/>
<polygon fill="midnightblue" stroke="midnightblue" points="816.967,-25.4063 825.771,-19.5112 815.213,-18.6298 816.967,-25.4063"/>
</g>
<!-- Node16&#45;&gt;Node11 -->
<g id="edge21" class="edge"><title>Node16&#45;&gt;Node11</title>
<path fill="none" stroke="midnightblue" d="M957.485,-92.1824C939.125,-92.9362 920.282,-93.7098 904.401,-94.3618"/>
<polygon fill="midnightblue" stroke="midnightblue" points="957.766,-95.6739 967.614,-91.7666 957.479,-88.6798 957.766,-95.6739"/>
</g>
</g>
</svg>
