<?xml version="1.0" encoding="UTF-8" standalone="no"?>
<!DOCTYPE svg PUBLIC "-//W3C//DTD SVG 1.1//EN"
 "http://www.w3.org/Graphics/SVG/1.1/DTD/svg11.dtd">
<!-- Generated by graphviz version 2.38.0 (20140413.2041)
 -->
<!-- Title: avformat_alloc_context Pages: 1 -->
<svg width="277pt" height="78pt"
 viewBox="0.00 0.00 277.00 77.50" xmlns="http://www.w3.org/2000/svg" xmlns:xlink="http://www.w3.org/1999/xlink">
<g id="graph0" class="graph" transform="scale(1 1) rotate(0) translate(4 73.5)">
<title>avformat_alloc_context</title>
<polygon fill="white" stroke="none" points="-4,4 -4,-73.5 273,-73.5 273,4 -4,4"/>
<!-- Node1 -->
<g id="node1" class="node"><title>Node1</title>
<g id="a_node1"><a xlink:title=" ">
<polygon fill="#bfbfbf" stroke="black" points="153,-28 153,-47 269,-47 269,-28 153,-28"/>
<text text-anchor="middle" x="211" y="-35" font-family="Helvetica,sans-Serif" font-size="10.00">avformat_alloc_context</text>
</a>
</g>
</g>
<!-- Node2 -->
<g id="node2" class="node"><title>Node2</title>
<g id="a_node2"><a xlink:href="../../de/d14/class_movie.html#ae528f4eacffa4317dd6404768ff563dc" target="_top" xlink:title=" ">
<polygon fill="white" stroke="black" points="3.5,-50 3.5,-69 113.5,-69 113.5,-50 3.5,-50"/>
<text text-anchor="middle" x="58.5" y="-57" font-family="Helvetica,sans-Serif" font-size="10.00">Movie::LoadFromLOD</text>
</a>
</g>
</g>
<!-- Node1&#45;&gt;Node2 -->
<g id="edge1" class="edge"><title>Node1&#45;&gt;Node2</title>
<path fill="none" stroke="midnightblue" d="M142.66,-47.3437C132.963,-48.7612 123.09,-50.2045 113.693,-51.5781"/>
<polygon fill="midnightblue" stroke="midnightblue" points="143.285,-50.7897 152.673,-45.88 142.272,-43.8633 143.285,-50.7897"/>
</g>
<!-- Node3 -->
<g id="node3" class="node"><title>Node3</title>
<g id="a_node3"><a xlink:href="../../d0/de5/class_audio_buffer_data_source.html#af3355c6bb925e3a5968e594668f8c6b6" target="_top" xlink:title=" ">
<polygon fill="white" stroke="black" points="0,-0.5 0,-30.5 117,-30.5 117,-0.5 0,-0.5"/>
<text text-anchor="start" x="8" y="-18.5" font-family="Helvetica,sans-Serif" font-size="10.00">AudioBufferDataSource</text>
<text text-anchor="middle" x="58.5" y="-7.5" font-family="Helvetica,sans-Serif" font-size="10.00">::Open</text>
</a>
</g>
</g>
<!-- Node1&#45;&gt;Node3 -->
<g id="edge2" class="edge"><title>Node1&#45;&gt;Node3</title>
<path fill="none" stroke="midnightblue" d="M142.743,-27.6685C134.208,-26.4207 125.533,-25.1527 117.166,-23.9296"/>
<polygon fill="midnightblue" stroke="midnightblue" points="142.272,-31.1367 152.673,-29.12 143.285,-24.2103 142.272,-31.1367"/>
</g>
</g>
</svg>
