<?xml version="1.0" encoding="UTF-8" standalone="no"?>
<!DOCTYPE svg PUBLIC "-//W3C//DTD SVG 1.1//EN"
 "http://www.w3.org/Graphics/SVG/1.1/DTD/svg11.dtd">
<!-- Generated by graphviz version 2.38.0 (20140413.2041)
 -->
<!-- Title: GUIButton::Release Pages: 1 -->
<svg width="973pt" height="386pt"
 viewBox="0.00 0.00 973.00 386.49" xmlns="http://www.w3.org/2000/svg" xmlns:xlink="http://www.w3.org/1999/xlink">
<g id="graph0" class="graph" transform="scale(1 1) rotate(0) translate(4 382.487)">
<title>GUIButton::Release</title>
<polygon fill="white" stroke="none" points="-4,4 -4,-382.487 969,-382.487 969,4 -4,4"/>
<!-- Node1 -->
<g id="node1" class="node"><title>Node1</title>
<g id="a_node1"><a xlink:title=" ">
<polygon fill="#bfbfbf" stroke="black" points="862,-130.719 862,-149.719 965,-149.719 965,-130.719 862,-130.719"/>
<text text-anchor="middle" x="913.5" y="-137.719" font-family="Helvetica,sans-Serif" font-size="10.00">GUIButton::Release</text>
</a>
</g>
</g>
<!-- Node2 -->
<g id="node2" class="node"><title>Node2</title>
<g id="a_node2"><a xlink:href="../../db/dd5/_u_i_character_8cpp.html#adb06c114747d5ebb5186805c0c71a2fe" target="_top" xlink:title=" ">
<polygon fill="white" stroke="black" points="682,-203.719 682,-222.719 824,-222.719 824,-203.719 682,-203.719"/>
<text text-anchor="middle" x="753" y="-210.719" font-family="Helvetica,sans-Serif" font-size="10.00">CharacterUI_ReleaseButtons</text>
</a>
</g>
</g>
<!-- Node1&#45;&gt;Node2 -->
<g id="edge1" class="edge"><title>Node1&#45;&gt;Node2</title>
<path fill="none" stroke="midnightblue" d="M882.595,-153.993C851.075,-168.51 802.257,-190.993 774.726,-203.673"/>
<polygon fill="midnightblue" stroke="midnightblue" points="884.16,-157.125 891.779,-149.763 881.232,-150.767 884.16,-157.125"/>
</g>
<!-- Node13 -->
<g id="node13" class="node"><title>Node13</title>
<g id="a_node13"><a xlink:href="../../d5/d0b/_g_u_i_window_8h.html#a1be680d09c7856adcc5a118749b5b22c" target="_top" xlink:title=" ">
<polygon fill="white" stroke="black" points="691,-130.719 691,-149.719 815,-149.719 815,-130.719 691,-130.719"/>
<text text-anchor="middle" x="753" y="-137.719" font-family="Helvetica,sans-Serif" font-size="10.00">ReleaseAwardsScrollBar</text>
</a>
</g>
</g>
<!-- Node1&#45;&gt;Node13 -->
<g id="edge14" class="edge"><title>Node1&#45;&gt;Node13</title>
<path fill="none" stroke="midnightblue" d="M851.605,-140.219C839.669,-140.219 827.145,-140.219 815.199,-140.219"/>
<polygon fill="midnightblue" stroke="midnightblue" points="851.914,-143.719 861.914,-140.219 851.914,-136.719 851.914,-143.719"/>
</g>
<!-- Node14 -->
<g id="node14" class="node"><title>Node14</title>
<g id="a_node14"><a xlink:href="../../de/d17/class_g_u_i_window___character_record.html#a5c5aeada06bdefd699e4082260995b26" target="_top" xlink:title=" ">
<polygon fill="white" stroke="black" points="680,-81.2192 680,-111.219 826,-111.219 826,-81.2192 680,-81.2192"/>
<text text-anchor="start" x="688" y="-99.2192" font-family="Helvetica,sans-Serif" font-size="10.00">GUIWindow_CharacterRecord</text>
<text text-anchor="middle" x="753" y="-88.2192" font-family="Helvetica,sans-Serif" font-size="10.00">::ToggleRingsOverlay</text>
</a>
</g>
</g>
<!-- Node1&#45;&gt;Node14 -->
<g id="edge21" class="edge"><title>Node1&#45;&gt;Node14</title>
<path fill="none" stroke="midnightblue" d="M868.408,-127.979C849.772,-122.806 827.884,-116.73 808.27,-111.285"/>
<polygon fill="midnightblue" stroke="midnightblue" points="867.536,-131.369 878.108,-130.672 869.408,-124.624 867.536,-131.369"/>
</g>
<!-- Node3 -->
<g id="node3" class="node"><title>Node3</title>
<g id="a_node3"><a xlink:href="../../de/d17/class_g_u_i_window___character_record.html#a4fcc9396b2eab21f14535caa930cdc23" target="_top" xlink:title=" ">
<polygon fill="white" stroke="black" points="498,-310.719 498,-351.719 644,-351.719 644,-310.719 498,-310.719"/>
<text text-anchor="start" x="506" y="-339.719" font-family="Helvetica,sans-Serif" font-size="10.00">GUIWindow_CharacterRecord</text>
<text text-anchor="start" x="506" y="-328.719" font-family="Helvetica,sans-Serif" font-size="10.00">::CharacterUI_SkillsTab</text>
<text text-anchor="middle" x="571" y="-317.719" font-family="Helvetica,sans-Serif" font-size="10.00">_CreateButtons</text>
</a>
</g>
</g>
<!-- Node2&#45;&gt;Node3 -->
<g id="edge2" class="edge"><title>Node2&#45;&gt;Node3</title>
<path fill="none" stroke="midnightblue" d="M733.43,-229.371C712.558,-247.068 677.232,-275.667 644,-296.219 635.844,-301.263 626.853,-306.131 618.072,-310.551"/>
<polygon fill="midnightblue" stroke="midnightblue" points="735.871,-231.889 741.191,-222.727 731.319,-226.572 735.871,-231.889"/>
</g>
<!-- Node4 -->
<g id="node4" class="node"><title>Node4</title>
<g id="a_node4"><a xlink:href="../../de/d17/class_g_u_i_window___character_record.html#a02f5d00780d997166c7fa32dad106e13" target="_top" xlink:title=" ">
<polygon fill="white" stroke="black" points="316,-316.219 316,-346.219 462,-346.219 462,-316.219 316,-316.219"/>
<text text-anchor="start" x="324" y="-334.219" font-family="Helvetica,sans-Serif" font-size="10.00">GUIWindow_CharacterRecord</text>
<text text-anchor="middle" x="389" y="-323.219" font-family="Helvetica,sans-Serif" font-size="10.00">::ShowSkillsTab</text>
</a>
</g>
</g>
<!-- Node2&#45;&gt;Node4 -->
<g id="edge11" class="edge"><title>Node2&#45;&gt;Node4</title>
<path fill="none" stroke="midnightblue" d="M744.799,-232.467C731.093,-265.941 697.733,-333.911 644,-361.219 571.757,-397.934 473.431,-367.055 422.925,-346.297"/>
<polygon fill="midnightblue" stroke="midnightblue" points="748.157,-233.493 748.56,-222.906 741.642,-230.931 748.157,-233.493"/>
</g>
<!-- Node5 -->
<g id="node5" class="node"><title>Node5</title>
<g id="a_node5"><a xlink:href="../../de/d17/class_g_u_i_window___character_record.html#a0f5495b3e77a5b936914a37270e9d2e2" target="_top" xlink:title=" ">
<polygon fill="white" stroke="black" points="316,-267.219 316,-297.219 462,-297.219 462,-267.219 316,-267.219"/>
<text text-anchor="start" x="324" y="-285.219" font-family="Helvetica,sans-Serif" font-size="10.00">GUIWindow_CharacterRecord</text>
<text text-anchor="middle" x="389" y="-274.219" font-family="Helvetica,sans-Serif" font-size="10.00">::Update</text>
</a>
</g>
</g>
<!-- Node2&#45;&gt;Node5 -->
<g id="edge13" class="edge"><title>Node2&#45;&gt;Node5</title>
<path fill="none" stroke="midnightblue" d="M727.224,-227.824C705.931,-239.596 674.002,-255.427 644,-263.219 583.973,-278.811 513.482,-283.021 462.009,-283.641"/>
<polygon fill="midnightblue" stroke="midnightblue" points="729.229,-230.711 736.214,-222.745 725.786,-224.617 729.229,-230.711"/>
</g>
<!-- Node6 -->
<g id="node6" class="node"><title>Node6</title>
<g id="a_node6"><a xlink:href="../../d4/d06/class_application_1_1_game.html#a3f65e3f0ef1a9114fb3dea275e52442e" target="_top" xlink:title=" ">
<polygon fill="white" stroke="black" points="519.5,-37.2192 519.5,-67.2192 622.5,-67.2192 622.5,-37.2192 519.5,-37.2192"/>
<text text-anchor="start" x="527.5" y="-55.2192" font-family="Helvetica,sans-Serif" font-size="10.00">Application::Game::</text>
<text text-anchor="middle" x="571" y="-44.2192" font-family="Helvetica,sans-Serif" font-size="10.00">EventLoop</text>
</a>
</g>
</g>
<!-- Node2&#45;&gt;Node6 -->
<g id="edge5" class="edge"><title>Node2&#45;&gt;Node6</title>
<path fill="none" stroke="midnightblue" d="M728.606,-197.835C713.942,-187.683 695.039,-173.636 680,-159.219 661.76,-141.734 661.568,-133.379 644,-115.219 627.139,-97.7904 606.091,-79.7502 591.117,-67.4648"/>
<polygon fill="midnightblue" stroke="midnightblue" points="726.878,-200.893 737.116,-203.621 730.814,-195.104 726.878,-200.893"/>
</g>
<!-- Node10 -->
<g id="node10" class="node"><title>Node10</title>
<g id="a_node10"><a xlink:href="../../de/d17/class_g_u_i_window___character_record.html#a5081921d4f8081c10577e3f81dc529a3" target="_top" xlink:title=" ">
<polygon fill="white" stroke="black" points="498,-125.219 498,-155.219 644,-155.219 644,-125.219 498,-125.219"/>
<text text-anchor="start" x="506" y="-143.219" font-family="Helvetica,sans-Serif" font-size="10.00">GUIWindow_CharacterRecord</text>
<text text-anchor="middle" x="571" y="-132.219" font-family="Helvetica,sans-Serif" font-size="10.00">::ShowAwardsTab</text>
</a>
</g>
</g>
<!-- Node2&#45;&gt;Node10 -->
<g id="edge9" class="edge"><title>Node2&#45;&gt;Node10</title>
<path fill="none" stroke="midnightblue" d="M722.649,-199.372C701.088,-189.397 670.975,-175.875 644,-165.219 635.385,-161.816 626.099,-158.405 617.151,-155.245"/>
<polygon fill="midnightblue" stroke="midnightblue" points="721.369,-202.637 731.912,-203.683 724.322,-196.29 721.369,-202.637"/>
</g>
<!-- Node11 -->
<g id="node11" class="node"><title>Node11</title>
<g id="a_node11"><a xlink:href="../../de/d17/class_g_u_i_window___character_record.html#a688b4b268e5643a541a8d593cae4f16a" target="_top" xlink:title=" ">
<polygon fill="white" stroke="black" points="498,-223.219 498,-253.219 644,-253.219 644,-223.219 498,-223.219"/>
<text text-anchor="start" x="506" y="-241.219" font-family="Helvetica,sans-Serif" font-size="10.00">GUIWindow_CharacterRecord</text>
<text text-anchor="middle" x="571" y="-230.219" font-family="Helvetica,sans-Serif" font-size="10.00">::ShowInventoryTab</text>
</a>
</g>
</g>
<!-- Node2&#45;&gt;Node11 -->
<g id="edge10" class="edge"><title>Node2&#45;&gt;Node11</title>
<path fill="none" stroke="midnightblue" d="M673.42,-224.133C663.728,-225.479 653.856,-226.85 644.264,-228.183"/>
<polygon fill="midnightblue" stroke="midnightblue" points="674.013,-227.584 683.436,-222.742 673.05,-220.651 674.013,-227.584"/>
</g>
<!-- Node12 -->
<g id="node12" class="node"><title>Node12</title>
<g id="a_node12"><a xlink:href="../../de/d17/class_g_u_i_window___character_record.html#ad23e4ee26b51e4189812b1e7e6342d8e" target="_top" xlink:title=" ">
<polygon fill="white" stroke="black" points="498,-174.219 498,-204.219 644,-204.219 644,-174.219 498,-174.219"/>
<text text-anchor="start" x="506" y="-192.219" font-family="Helvetica,sans-Serif" font-size="10.00">GUIWindow_CharacterRecord</text>
<text text-anchor="middle" x="571" y="-181.219" font-family="Helvetica,sans-Serif" font-size="10.00">::ShowStatsTab</text>
</a>
</g>
</g>
<!-- Node2&#45;&gt;Node12 -->
<g id="edge12" class="edge"><title>Node2&#45;&gt;Node12</title>
<path fill="none" stroke="midnightblue" d="M671.967,-202.548C662.752,-201.319 653.395,-200.072 644.291,-198.858"/>
<polygon fill="midnightblue" stroke="midnightblue" points="671.517,-206.019 681.892,-203.871 672.442,-199.08 671.517,-206.019"/>
</g>
<!-- Node3&#45;&gt;Node4 -->
<g id="edge3" class="edge"><title>Node3&#45;&gt;Node4</title>
<path fill="none" stroke="midnightblue" d="M487.561,-331.219C479.094,-331.219 470.536,-331.219 462.192,-331.219"/>
<polygon fill="midnightblue" stroke="midnightblue" points="487.824,-334.719 497.824,-331.219 487.824,-327.719 487.824,-334.719"/>
</g>
<!-- Node3&#45;&gt;Node5 -->
<g id="edge4" class="edge"><title>Node3&#45;&gt;Node5</title>
<path fill="none" stroke="midnightblue" d="M487.896,-308.869C473.465,-304.94 458.762,-300.938 445.285,-297.269"/>
<polygon fill="midnightblue" stroke="midnightblue" points="487.256,-312.322 497.824,-311.571 489.095,-305.568 487.256,-312.322"/>
</g>
<!-- Node7 -->
<g id="node7" class="node"><title>Node7</title>
<g id="a_node7"><a xlink:href="../../d4/d06/class_application_1_1_game.html#aaa0ff18388b32b4e6198835a35e000d3" target="_top" xlink:title=" ">
<polygon fill="white" stroke="black" points="337.5,-37.2192 337.5,-67.2192 440.5,-67.2192 440.5,-37.2192 337.5,-37.2192"/>
<text text-anchor="start" x="345.5" y="-55.2192" font-family="Helvetica,sans-Serif" font-size="10.00">Application::Game::</text>
<text text-anchor="middle" x="389" y="-44.2192" font-family="Helvetica,sans-Serif" font-size="10.00">GameLoop</text>
</a>
</g>
</g>
<!-- Node6&#45;&gt;Node7 -->
<g id="edge6" class="edge"><title>Node6&#45;&gt;Node7</title>
<path fill="none" stroke="midnightblue" d="M509.325,-52.2192C486.974,-52.2192 461.914,-52.2192 440.551,-52.2192"/>
<polygon fill="midnightblue" stroke="midnightblue" points="509.381,-55.7193 519.381,-52.2192 509.381,-48.7193 509.381,-55.7193"/>
</g>
<!-- Node8 -->
<g id="node8" class="node"><title>Node8</title>
<g id="a_node8"><a xlink:href="../../d4/d06/class_application_1_1_game.html#a013ffd59e8fdf1c0a396da1dbe1681ca" target="_top" xlink:title=" ">
<polygon fill="white" stroke="black" points="156,-42.7192 156,-61.7192 280,-61.7192 280,-42.7192 156,-42.7192"/>
<text text-anchor="middle" x="218" y="-49.7192" font-family="Helvetica,sans-Serif" font-size="10.00">Application::Game::Loop</text>
</a>
</g>
</g>
<!-- Node7&#45;&gt;Node8 -->
<g id="edge7" class="edge"><title>Node7&#45;&gt;Node8</title>
<path fill="none" stroke="midnightblue" d="M326.946,-52.2192C311.704,-52.2192 295.357,-52.2192 280.112,-52.2192"/>
<polygon fill="midnightblue" stroke="midnightblue" points="327.294,-55.7193 337.294,-52.2192 327.294,-48.7193 327.294,-55.7193"/>
</g>
<!-- Node9 -->
<g id="node9" class="node"><title>Node9</title>
<g id="a_node9"><a xlink:href="../../d4/d06/class_application_1_1_game.html#a96341ca5b54d90adc3ecb3bf0bcd2312" target="_top" xlink:title=" ">
<polygon fill="white" stroke="black" points="0,-42.7192 0,-61.7192 120,-61.7192 120,-42.7192 0,-42.7192"/>
<text text-anchor="middle" x="60" y="-49.7192" font-family="Helvetica,sans-Serif" font-size="10.00">Application::Game::Run</text>
</a>
</g>
</g>
<!-- Node8&#45;&gt;Node9 -->
<g id="edge8" class="edge"><title>Node8&#45;&gt;Node9</title>
<path fill="none" stroke="midnightblue" d="M145.546,-52.2192C137.081,-52.2192 128.513,-52.2192 120.244,-52.2192"/>
<polygon fill="midnightblue" stroke="midnightblue" points="145.792,-55.7193 155.792,-52.2192 145.792,-48.7193 145.792,-55.7193"/>
</g>
<!-- Node13&#45;&gt;Node4 -->
<g id="edge18" class="edge"><title>Node13&#45;&gt;Node4</title>
<path fill="none" stroke="midnightblue" d="M706.115,-128.151C641.64,-112.426 528.666,-89.7683 498,-115.219 431.191,-170.666 519.065,-241.787 462,-307.219 458.969,-310.695 455.421,-313.669 451.554,-316.213"/>
<polygon fill="midnightblue" stroke="midnightblue" points="705.478,-131.599 716.026,-130.607 707.162,-124.805 705.478,-131.599"/>
</g>
<!-- Node13&#45;&gt;Node5 -->
<g id="edge20" class="edge"><title>Node13&#45;&gt;Node5</title>
<path fill="none" stroke="midnightblue" d="M687.537,-125.911C684.86,-124.219 682.328,-122.329 680,-120.219 647.156,-90.4578 680.562,-52.2721 644,-27.2192 590.472,9.45896 552.096,8.61703 498,-27.2192 454.913,-55.7626 408.022,-216.223 394.108,-266.888"/>
<polygon fill="midnightblue" stroke="midnightblue" points="686.031,-129.074 696.504,-130.671 689.313,-122.891 686.031,-129.074"/>
</g>
<!-- Node13&#45;&gt;Node6 -->
<g id="edge15" class="edge"><title>Node13&#45;&gt;Node6</title>
<path fill="none" stroke="midnightblue" d="M694.075,-127.186C689.167,-125.177 684.403,-122.869 680,-120.219 660.066,-108.225 663.153,-95.4245 644,-82.2192 635.638,-76.4544 625.996,-71.4925 616.542,-67.3578"/>
<polygon fill="midnightblue" stroke="midnightblue" points="693.041,-130.535 703.634,-130.693 695.452,-123.963 693.041,-130.535"/>
</g>
<!-- Node13&#45;&gt;Node10 -->
<g id="edge16" class="edge"><title>Node13&#45;&gt;Node10</title>
<path fill="none" stroke="midnightblue" d="M680.465,-140.219C668.536,-140.219 656.155,-140.219 644.21,-140.219"/>
<polygon fill="midnightblue" stroke="midnightblue" points="680.809,-143.719 690.809,-140.219 680.809,-136.719 680.809,-143.719"/>
</g>
<!-- Node13&#45;&gt;Node11 -->
<g id="edge17" class="edge"><title>Node13&#45;&gt;Node11</title>
<path fill="none" stroke="midnightblue" d="M732.298,-156.233C711.411,-172.59 676.948,-197.845 644,-214.219 637.392,-217.503 630.23,-220.499 623.072,-223.175"/>
<polygon fill="midnightblue" stroke="midnightblue" points="734.72,-158.779 740.375,-149.82 730.367,-153.297 734.72,-158.779"/>
</g>
<!-- Node13&#45;&gt;Node12 -->
<g id="edge19" class="edge"><title>Node13&#45;&gt;Node12</title>
<path fill="none" stroke="midnightblue" d="M706.899,-152.497C682.742,-159.073 652.782,-167.228 627.238,-174.182"/>
<polygon fill="midnightblue" stroke="midnightblue" points="708.137,-155.787 716.867,-149.783 706.299,-149.033 708.137,-155.787"/>
</g>
</g>
</svg>
