<?xml version="1.0" encoding="UTF-8" standalone="no"?>
<!DOCTYPE svg PUBLIC "-//W3C//DTD SVG 1.1//EN"
 "http://www.w3.org/Graphics/SVG/1.1/DTD/svg11.dtd">
<!-- Generated by graphviz version 2.38.0 (20140413.2041)
 -->
<!-- Title: GUIButton::DrawLabel Pages: 1 -->
<svg width="723pt" height="104pt"
 viewBox="0.00 0.00 723.00 104.00" xmlns="http://www.w3.org/2000/svg" xmlns:xlink="http://www.w3.org/1999/xlink">
<g id="graph0" class="graph" transform="scale(1 1) rotate(0) translate(4 100)">
<title>GUIButton::DrawLabel</title>
<polygon fill="white" stroke="none" points="-4,4 -4,-100 719,-100 719,4 -4,4"/>
<!-- Node1 -->
<g id="node1" class="node"><title>Node1</title>
<g id="a_node1"><a xlink:title=" ">
<polygon fill="#bfbfbf" stroke="black" points="0,-38.5 0,-57.5 113,-57.5 113,-38.5 0,-38.5"/>
<text text-anchor="middle" x="56.5" y="-45.5" font-family="Helvetica,sans-Serif" font-size="10.00">GUIButton::DrawLabel</text>
</a>
</g>
</g>
<!-- Node2 -->
<g id="node2" class="node"><title>Node2</title>
<g id="a_node2"><a xlink:href="../../d4/d38/class_g_u_i_window.html#a009aad05d919c42979eebb93d8b4354c" target="_top" xlink:title=" ">
<polygon fill="white" stroke="black" points="149,-76.5 149,-95.5 263,-95.5 263,-76.5 149,-76.5"/>
<text text-anchor="middle" x="206" y="-83.5" font-family="Helvetica,sans-Serif" font-size="10.00">GUIWindow::DrawText</text>
</a>
</g>
</g>
<!-- Node1&#45;&gt;Node2 -->
<g id="edge1" class="edge"><title>Node1&#45;&gt;Node2</title>
<path fill="none" stroke="midnightblue" d="M94.7205,-57.589C114.009,-62.5583 137.758,-68.6767 158.271,-73.9613"/>
<polygon fill="midnightblue" stroke="midnightblue" points="157.49,-77.3744 168.047,-76.4799 159.237,-70.5957 157.49,-77.3744"/>
</g>
<!-- Node6 -->
<g id="node6" class="node"><title>Node6</title>
<g id="a_node6"><a xlink:href="../../d3/d39/class_g_u_i_font.html#abf5dc44bc1b328f80d5c7033279a4f8d" target="_top" xlink:title=" ">
<polygon fill="white" stroke="black" points="443.5,-38.5 443.5,-57.5 561.5,-57.5 561.5,-38.5 443.5,-38.5"/>
<text text-anchor="middle" x="502.5" y="-45.5" font-family="Helvetica,sans-Serif" font-size="10.00">GUIFont::GetLineWidth</text>
</a>
</g>
</g>
<!-- Node1&#45;&gt;Node6 -->
<g id="edge8" class="edge"><title>Node1&#45;&gt;Node6</title>
<path fill="none" stroke="midnightblue" d="M113.283,-48C194.609,-48 345.569,-48 433.36,-48"/>
<polygon fill="midnightblue" stroke="midnightblue" points="433.482,-51.5001 443.482,-48 433.482,-44.5001 433.482,-51.5001"/>
</g>
<!-- Node7 -->
<g id="node7" class="node"><title>Node7</title>
<g id="a_node7"><a xlink:href="../../d3/d39/class_g_u_i_font.html#a439cccf73db5fd93ffc18cbba51d07e0" target="_top" xlink:title=" ">
<polygon fill="white" stroke="black" points="155,-0.5 155,-19.5 257,-19.5 257,-0.5 155,-0.5"/>
<text text-anchor="middle" x="206" y="-7.5" font-family="Helvetica,sans-Serif" font-size="10.00">GUIFont::GetHeight</text>
</a>
</g>
</g>
<!-- Node1&#45;&gt;Node7 -->
<g id="edge7" class="edge"><title>Node1&#45;&gt;Node7</title>
<path fill="none" stroke="midnightblue" d="M94.7205,-38.411C114.009,-33.4417 137.758,-27.3233 158.271,-22.0387"/>
<polygon fill="midnightblue" stroke="midnightblue" points="159.237,-25.4043 168.047,-19.5201 157.49,-18.6256 159.237,-25.4043"/>
</g>
<!-- Node3 -->
<g id="node3" class="node"><title>Node3</title>
<g id="a_node3"><a xlink:href="../../d3/d39/class_g_u_i_font.html#abea1624c5890b044ef1368a7ca051b3e" target="_top" xlink:title=" ">
<polygon fill="white" stroke="black" points="299,-76.5 299,-95.5 398,-95.5 398,-76.5 299,-76.5"/>
<text text-anchor="middle" x="348.5" y="-83.5" font-family="Helvetica,sans-Serif" font-size="10.00">GUIFont::DrawText</text>
</a>
</g>
</g>
<!-- Node2&#45;&gt;Node3 -->
<g id="edge2" class="edge"><title>Node2&#45;&gt;Node3</title>
<path fill="none" stroke="midnightblue" d="M263.337,-86C271.696,-86 280.328,-86 288.735,-86"/>
<polygon fill="midnightblue" stroke="midnightblue" points="288.844,-89.5001 298.843,-86 288.843,-82.5001 288.844,-89.5001"/>
</g>
<!-- Node4 -->
<g id="node4" class="node"><title>Node4</title>
<g id="a_node4"><a xlink:href="../../d3/d39/class_g_u_i_font.html#acff82a6ae67e879bd76ddc52aa25fe02" target="_top" xlink:title=" ">
<polygon fill="white" stroke="black" points="434,-76.5 434,-95.5 571,-95.5 571,-76.5 434,-76.5"/>
<text text-anchor="middle" x="502.5" y="-83.5" font-family="Helvetica,sans-Serif" font-size="10.00">GUIFont::FitTextInAWindow</text>
</a>
</g>
</g>
<!-- Node3&#45;&gt;Node4 -->
<g id="edge3" class="edge"><title>Node3&#45;&gt;Node4</title>
<path fill="none" stroke="midnightblue" d="M398.012,-86C406.192,-86 414.864,-86 423.569,-86"/>
<polygon fill="midnightblue" stroke="midnightblue" points="423.777,-89.5001 433.777,-86 423.777,-82.5001 423.777,-89.5001"/>
</g>
<!-- Node3&#45;&gt;Node6 -->
<g id="edge5" class="edge"><title>Node3&#45;&gt;Node6</title>
<path fill="none" stroke="midnightblue" d="M387.856,-76.411C407.824,-71.4191 432.43,-65.2676 453.633,-59.9666"/>
<polygon fill="midnightblue" stroke="midnightblue" points="454.567,-63.341 463.42,-57.5201 452.869,-56.55 454.567,-63.341"/>
</g>
<!-- Node5 -->
<g id="node5" class="node"><title>Node5</title>
<g id="a_node5"><a xlink:href="../../d3/d39/class_g_u_i_font.html#adfbdd225f4c0eedcbf7e82eecd29e404" target="_top" xlink:title=" ">
<polygon fill="white" stroke="black" points="607,-57.5 607,-76.5 715,-76.5 715,-57.5 607,-57.5"/>
<text text-anchor="middle" x="661" y="-64.5" font-family="Helvetica,sans-Serif" font-size="10.00">GUIFont::IsCharValid</text>
</a>
</g>
</g>
<!-- Node4&#45;&gt;Node5 -->
<g id="edge4" class="edge"><title>Node4&#45;&gt;Node5</title>
<path fill="none" stroke="midnightblue" d="M571.233,-77.7768C579.69,-76.7501 588.314,-75.7031 596.7,-74.685"/>
<polygon fill="midnightblue" stroke="midnightblue" points="597.279,-78.1405 606.784,-73.4607 596.435,-71.1915 597.279,-78.1405"/>
</g>
<!-- Node6&#45;&gt;Node5 -->
<g id="edge6" class="edge"><title>Node6&#45;&gt;Node5</title>
<path fill="none" stroke="midnightblue" d="M561.775,-55.0749C573.201,-56.4622 585.237,-57.9233 596.815,-59.329"/>
<polygon fill="midnightblue" stroke="midnightblue" points="596.497,-62.8159 606.846,-60.5468 597.34,-55.867 596.497,-62.8159"/>
</g>
</g>
</svg>
