<?xml version="1.0" encoding="UTF-8" standalone="no"?>
<!DOCTYPE svg PUBLIC "-//W3C//DTD SVG 1.1//EN"
 "http://www.w3.org/Graphics/SVG/1.1/DTD/svg11.dtd">
<!-- Generated by graphviz version 2.38.0 (20140413.2041)
 -->
<!-- Title: CharacterUI_ReleaseButtons Pages: 1 -->
<!--zoomable 318 -->
<svg id="main" version="1.1" xmlns="http://www.w3.org/2000/svg" xmlns:xlink="http://www.w3.org/1999/xlink" xml:space="preserve" onload="init(evt)">
<style type="text/css"><![CDATA[
.edge:hover path { stroke: red; }
.edge:hover polygon { stroke: red; fill: red; }
]]></style>
<script type="text/javascript"><![CDATA[
var edges = document.getElementsByTagName('g');
if (edges && edges.length) {
  for (var i=0;i<edges.length;i++) {
    if (edges[i].id.substr(0,4)=='edge') {
      edges[i].setAttribute('class','edge');
    }
  }
}
]]></script>
        <defs>
                <circle id="rim" cx="0" cy="0" r="7"/>
                <circle id="rim2" cx="0" cy="0" r="3.5"/>
                <g id="zoomPlus">
                        <use xlink:href="#rim" fill="#404040">
                                <set attributeName="fill" to="#808080" begin="zoomplus.mouseover" end="zoomplus.mouseout"/>
                        </use>
                        <path d="M-4,0h8M0,-4v8" fill="none" stroke="white" stroke-width="1.5" pointer-events="none"/>
                </g>
                <g id="zoomMin">
                        <use xlink:href="#rim" fill="#404040">
                                <set attributeName="fill" to="#808080" begin="zoomminus.mouseover" end="zoomminus.mouseout"/>
                        </use>
                        <path d="M-4,0h8" fill="none" stroke="white" stroke-width="1.5" pointer-events="none"/>
                </g>
                <g id="dirArrow">
                        <path fill="none" stroke="white" stroke-width="1.5" d="M0,-3.0v7 M-2.5,-0.5L0,-3.0L2.5,-0.5"/>
                </g>
               <g id="resetDef">
                       <use xlink:href="#rim2" fill="#404040">
                               <set attributeName="fill" to="#808080" begin="reset.mouseover" end="reset.mouseout"/>
                       </use>
               </g>
        </defs>

<script type="text/javascript">
var viewWidth = 830;
var viewHeight = 318;
var sectionId = 'dynsection-25';
</script>
<script xlink:href="../../svgpan.js"/>
<svg id="graph" class="graph">
<g id="viewport">
<title>CharacterUI_ReleaseButtons</title>
<polygon fill="white" stroke="none" points="-4,4 -4,-313.657 826,-313.657 826,4 -4,4"/>
<!-- Node1 -->
<g id="node1" class="node"><title>Node1</title>
<g id="a_node1"><a xlink:title=" ">
<polygon fill="#bfbfbf" stroke="black" points="680,-153 680,-172 822,-172 822,-153 680,-153"/>
<text text-anchor="middle" x="751" y="-160" font-family="Helvetica,sans-Serif" font-size="10.00">CharacterUI_ReleaseButtons</text>
</a>
</g>
</g>
<!-- Node2 -->
<g id="node2" class="node"><title>Node2</title>
<g id="a_node2"><a xlink:href="../../de/d17/class_g_u_i_window___character_record.html#a4fcc9396b2eab21f14535caa930cdc23" target="_top" xlink:title=" ">
<polygon fill="white" stroke="black" points="498,-235 498,-276 644,-276 644,-235 498,-235"/>
<text text-anchor="start" x="506" y="-264" font-family="Helvetica,sans-Serif" font-size="10.00">GUIWindow_CharacterRecord</text>
<text text-anchor="start" x="506" y="-253" font-family="Helvetica,sans-Serif" font-size="10.00">::CharacterUI_SkillsTab</text>
<text text-anchor="middle" x="571" y="-242" font-family="Helvetica,sans-Serif" font-size="10.00">_CreateButtons</text>
</a>
</g>
</g>
<!-- Node1&#45;&gt;Node2 -->
<g id="edge1" class="edge"><title>Node1&#45;&gt;Node2</title>
<path fill="none" stroke="midnightblue" d="M724.088,-177.133C702.741,-189.078 671.603,-206.25 644,-220.5 634.738,-225.282 624.722,-230.266 615.191,-234.923"/>
<polygon fill="midnightblue" stroke="midnightblue" points="725.87,-180.146 732.878,-172.2 722.445,-174.042 725.87,-180.146"/>
</g>
<!-- Node3 -->
<g id="node3" class="node"><title>Node3</title>
<g id="a_node3"><a xlink:href="../../de/d17/class_g_u_i_window___character_record.html#a02f5d00780d997166c7fa32dad106e13" target="_top" xlink:title=" ">
<polygon fill="white" stroke="black" points="316,-278.5 316,-308.5 462,-308.5 462,-278.5 316,-278.5"/>
<text text-anchor="start" x="324" y="-296.5" font-family="Helvetica,sans-Serif" font-size="10.00">GUIWindow_CharacterRecord</text>
<text text-anchor="middle" x="389" y="-285.5" font-family="Helvetica,sans-Serif" font-size="10.00">::ShowSkillsTab</text>
</a>
</g>
</g>
<!-- Node1&#45;&gt;Node3 -->
<g id="edge10" class="edge"><title>Node1&#45;&gt;Node3</title>
<path fill="none" stroke="midnightblue" d="M740.511,-181.201C724.857,-209.748 690.649,-263.225 644,-285.5 587.266,-312.591 514.992,-312.001 462.056,-306.152"/>
<polygon fill="midnightblue" stroke="midnightblue" points="743.673,-182.71 745.264,-172.235 737.488,-179.431 743.673,-182.71"/>
</g>
<!-- Node4 -->
<g id="node4" class="node"><title>Node4</title>
<g id="a_node4"><a xlink:href="../../de/d17/class_g_u_i_window___character_record.html#a0f5495b3e77a5b936914a37270e9d2e2" target="_top" xlink:title=" ">
<polygon fill="white" stroke="black" points="316,-218.5 316,-248.5 462,-248.5 462,-218.5 316,-218.5"/>
<text text-anchor="start" x="324" y="-236.5" font-family="Helvetica,sans-Serif" font-size="10.00">GUIWindow_CharacterRecord</text>
<text text-anchor="middle" x="389" y="-225.5" font-family="Helvetica,sans-Serif" font-size="10.00">::Update</text>
</a>
</g>
</g>
<!-- Node1&#45;&gt;Node4 -->
<g id="edge12" class="edge"><title>Node1&#45;&gt;Node4</title>
<path fill="none" stroke="midnightblue" d="M702.067,-174.367C683.923,-178.711 663.054,-183.531 644,-187.5 582.907,-200.227 513.124,-212.719 462.181,-221.466"/>
<polygon fill="midnightblue" stroke="midnightblue" points="702.937,-177.758 711.838,-172.011 701.296,-170.953 702.937,-177.758"/>
</g>
<!-- Node5 -->
<g id="node5" class="node"><title>Node5</title>
<g id="a_node5"><a xlink:href="../../d4/d06/class_application_1_1_game.html#a3f65e3f0ef1a9114fb3dea275e52442e" target="_top" xlink:title=" ">
<polygon fill="white" stroke="black" points="519.5,-147.5 519.5,-177.5 622.5,-177.5 622.5,-147.5 519.5,-147.5"/>
<text text-anchor="start" x="527.5" y="-165.5" font-family="Helvetica,sans-Serif" font-size="10.00">Application::Game::</text>
<text text-anchor="middle" x="571" y="-154.5" font-family="Helvetica,sans-Serif" font-size="10.00">EventLoop</text>
</a>
</g>
</g>
<!-- Node1&#45;&gt;Node5 -->
<g id="edge4" class="edge"><title>Node1&#45;&gt;Node5</title>
<path fill="none" stroke="midnightblue" d="M669.477,-162.5C653.494,-162.5 637.143,-162.5 622.511,-162.5"/>
<polygon fill="midnightblue" stroke="midnightblue" points="669.905,-166 679.905,-162.5 669.905,-159 669.905,-166"/>
</g>
<!-- Node9 -->
<g id="node9" class="node"><title>Node9</title>
<g id="a_node9"><a xlink:href="../../de/d17/class_g_u_i_window___character_record.html#a5081921d4f8081c10577e3f81dc529a3" target="_top" xlink:title=" ">
<polygon fill="white" stroke="black" points="498,-98.5 498,-128.5 644,-128.5 644,-98.5 498,-98.5"/>
<text text-anchor="start" x="506" y="-116.5" font-family="Helvetica,sans-Serif" font-size="10.00">GUIWindow_CharacterRecord</text>
<text text-anchor="middle" x="571" y="-105.5" font-family="Helvetica,sans-Serif" font-size="10.00">::ShowAwardsTab</text>
</a>
</g>
</g>
<!-- Node1&#45;&gt;Node9 -->
<g id="edge8" class="edge"><title>Node1&#45;&gt;Node9</title>
<path fill="none" stroke="midnightblue" d="M705.4,-150.222C681.511,-143.646 651.885,-135.491 626.624,-128.537"/>
<polygon fill="midnightblue" stroke="midnightblue" points="704.687,-153.656 715.257,-152.936 706.545,-146.907 704.687,-153.656"/>
</g>
<!-- Node10 -->
<g id="node10" class="node"><title>Node10</title>
<g id="a_node10"><a xlink:href="../../de/d17/class_g_u_i_window___character_record.html#a688b4b268e5643a541a8d593cae4f16a" target="_top" xlink:title=" ">
<polygon fill="white" stroke="black" points="498,-49.5 498,-79.5 644,-79.5 644,-49.5 498,-49.5"/>
<text text-anchor="start" x="506" y="-67.5" font-family="Helvetica,sans-Serif" font-size="10.00">GUIWindow_CharacterRecord</text>
<text text-anchor="middle" x="571" y="-56.5" font-family="Helvetica,sans-Serif" font-size="10.00">::ShowInventoryTab</text>
</a>
</g>
</g>
<!-- Node1&#45;&gt;Node10 -->
<g id="edge9" class="edge"><title>Node1&#45;&gt;Node10</title>
<path fill="none" stroke="midnightblue" d="M730.302,-146.515C709.747,-130.433 676.096,-105.749 644,-89.5 636.799,-85.8543 628.941,-82.5265 621.149,-79.5722"/>
<polygon fill="midnightblue" stroke="midnightblue" points="728.257,-149.361 738.267,-152.832 732.606,-143.876 728.257,-149.361"/>
</g>
<!-- Node11 -->
<g id="node11" class="node"><title>Node11</title>
<g id="a_node11"><a xlink:href="../../de/d17/class_g_u_i_window___character_record.html#ad23e4ee26b51e4189812b1e7e6342d8e" target="_top" xlink:title=" ">
<polygon fill="white" stroke="black" points="498,-0.5 498,-30.5 644,-30.5 644,-0.5 498,-0.5"/>
<text text-anchor="start" x="506" y="-18.5" font-family="Helvetica,sans-Serif" font-size="10.00">GUIWindow_CharacterRecord</text>
<text text-anchor="middle" x="571" y="-7.5" font-family="Helvetica,sans-Serif" font-size="10.00">::ShowStatsTab</text>
</a>
</g>
</g>
<!-- Node1&#45;&gt;Node11 -->
<g id="edge11" class="edge"><title>Node1&#45;&gt;Node11</title>
<path fill="none" stroke="midnightblue" d="M738.553,-144.069C721.205,-117.568 685.809,-68.7867 644,-40.5 638.411,-36.7184 632.191,-33.4514 625.814,-30.6439"/>
<polygon fill="midnightblue" stroke="midnightblue" points="735.768,-146.209 744.107,-152.745 741.663,-142.435 735.768,-146.209"/>
</g>
<!-- Node2&#45;&gt;Node3 -->
<g id="edge2" class="edge"><title>Node2&#45;&gt;Node3</title>
<path fill="none" stroke="midnightblue" d="M487.875,-272.838C479.008,-274.71 470.037,-276.603 461.312,-278.445"/>
<polygon fill="midnightblue" stroke="midnightblue" points="488.763,-276.227 497.824,-270.737 487.317,-269.378 488.763,-276.227"/>
</g>
<!-- Node2&#45;&gt;Node4 -->
<g id="edge3" class="edge"><title>Node2&#45;&gt;Node4</title>
<path fill="none" stroke="midnightblue" d="M487.84,-245.458C479.282,-244.412 470.628,-243.355 462.192,-242.323"/>
<polygon fill="midnightblue" stroke="midnightblue" points="487.473,-248.939 497.824,-246.679 488.323,-241.991 487.473,-248.939"/>
</g>
<!-- Node6 -->
<g id="node6" class="node"><title>Node6</title>
<g id="a_node6"><a xlink:href="../../d4/d06/class_application_1_1_game.html#aaa0ff18388b32b4e6198835a35e000d3" target="_top" xlink:title=" ">
<polygon fill="white" stroke="black" points="337.5,-147.5 337.5,-177.5 440.5,-177.5 440.5,-147.5 337.5,-147.5"/>
<text text-anchor="start" x="345.5" y="-165.5" font-family="Helvetica,sans-Serif" font-size="10.00">Application::Game::</text>
<text text-anchor="middle" x="389" y="-154.5" font-family="Helvetica,sans-Serif" font-size="10.00">GameLoop</text>
</a>
</g>
</g>
<!-- Node5&#45;&gt;Node6 -->
<g id="edge5" class="edge"><title>Node5&#45;&gt;Node6</title>
<path fill="none" stroke="midnightblue" d="M509.325,-162.5C486.974,-162.5 461.914,-162.5 440.551,-162.5"/>
<polygon fill="midnightblue" stroke="midnightblue" points="509.381,-166 519.381,-162.5 509.381,-159 509.381,-166"/>
</g>
<!-- Node7 -->
<g id="node7" class="node"><title>Node7</title>
<g id="a_node7"><a xlink:href="../../d4/d06/class_application_1_1_game.html#a013ffd59e8fdf1c0a396da1dbe1681ca" target="_top" xlink:title=" ">
<polygon fill="white" stroke="black" points="156,-153 156,-172 280,-172 280,-153 156,-153"/>
<text text-anchor="middle" x="218" y="-160" font-family="Helvetica,sans-Serif" font-size="10.00">Application::Game::Loop</text>
</a>
</g>
</g>
<!-- Node6&#45;&gt;Node7 -->
<g id="edge6" class="edge"><title>Node6&#45;&gt;Node7</title>
<path fill="none" stroke="midnightblue" d="M326.946,-162.5C311.704,-162.5 295.357,-162.5 280.112,-162.5"/>
<polygon fill="midnightblue" stroke="midnightblue" points="327.294,-166 337.294,-162.5 327.294,-159 327.294,-166"/>
</g>
<!-- Node8 -->
<g id="node8" class="node"><title>Node8</title>
<g id="a_node8"><a xlink:href="../../d4/d06/class_application_1_1_game.html#a96341ca5b54d90adc3ecb3bf0bcd2312" target="_top" xlink:title=" ">
<polygon fill="white" stroke="black" points="0,-153 0,-172 120,-172 120,-153 0,-153"/>
<text text-anchor="middle" x="60" y="-160" font-family="Helvetica,sans-Serif" font-size="10.00">Application::Game::Run</text>
</a>
</g>
</g>
<!-- Node7&#45;&gt;Node8 -->
<g id="edge7" class="edge"><title>Node7&#45;&gt;Node8</title>
<path fill="none" stroke="midnightblue" d="M145.546,-162.5C137.081,-162.5 128.513,-162.5 120.244,-162.5"/>
<polygon fill="midnightblue" stroke="midnightblue" points="145.792,-166 155.792,-162.5 145.792,-159 145.792,-166"/>
</g>
</g>
</svg>
        <g id="navigator" transform="translate(0 0)" fill="#404254">
                <rect fill="#f2f5e9" fill-opacity="0.5" stroke="#606060" stroke-width=".5" x="0" y="0" width="60" height="60"/>
                <use id="zoomplus" xlink:href="#zoomPlus" x="17" y="9" onmousedown="handleZoom(evt,'in')"/>
                <use id="zoomminus" xlink:href="#zoomMin" x="42" y="9" onmousedown="handleZoom(evt,'out')"/>
                <use id="reset" xlink:href="#resetDef" x="30" y="36" onmousedown="handleReset()"/>
                <g id="arrowUp" xlink:href="#dirArrow" transform="translate(30 24)" onmousedown="handlePan(0,-1)">
                  <use xlink:href="#rim" fill="#404040">
                        <set attributeName="fill" to="#808080" begin="arrowUp.mouseover" end="arrowUp.mouseout"/>
                  </use>
                  <path fill="none" stroke="white" stroke-width="1.5" d="M0,-3.0v7 M-2.5,-0.5L0,-3.0L2.5,-0.5"/>
                </g>
                <g id="arrowRight" xlink:href="#dirArrow" transform="rotate(90) translate(36 -43)" onmousedown="handlePan(1,0)">
                  <use xlink:href="#rim" fill="#404040">
                        <set attributeName="fill" to="#808080" begin="arrowRight.mouseover" end="arrowRight.mouseout"/>
                  </use>
                  <path fill="none" stroke="white" stroke-width="1.5" d="M0,-3.0v7 M-2.5,-0.5L0,-3.0L2.5,-0.5"/>
                </g>
                <g id="arrowDown" xlink:href="#dirArrow" transform="rotate(180) translate(-30 -48)" onmousedown="handlePan(0,1)">
                  <use xlink:href="#rim" fill="#404040">
                        <set attributeName="fill" to="#808080" begin="arrowDown.mouseover" end="arrowDown.mouseout"/>
                  </use>
                  <path fill="none" stroke="white" stroke-width="1.5" d="M0,-3.0v7 M-2.5,-0.5L0,-3.0L2.5,-0.5"/>
                </g>
                <g id="arrowLeft" xlink:href="#dirArrow" transform="rotate(270) translate(-36 17)" onmousedown="handlePan(-1,0)">
                  <use xlink:href="#rim" fill="#404040">
                        <set attributeName="fill" to="#808080" begin="arrowLeft.mouseover" end="arrowLeft.mouseout"/>
                  </use>
                  <path fill="none" stroke="white" stroke-width="1.5" d="M0,-3.0v7 M-2.5,-0.5L0,-3.0L2.5,-0.5"/>
                </g>
        </g>
        <svg viewBox="0 0 15 15" width="100%" height="30px" preserveAspectRatio="xMaxYMin meet">
         <g id="arrow_out" transform="scale(0.3 0.3)">
          <a xlink:href="_u_i_character_8cpp_adb06c114747d5ebb5186805c0c71a2fe_icgraph_org.svg" target="_base">
           <rect id="button" ry="5" rx="5" y="6" x="6" height="38" width="38"
                fill="#f2f5e9" fill-opacity="0.5" stroke="#606060" stroke-width="1.0"/>
           <path id="arrow"
             d="M 11.500037,31.436501 C 11.940474,20.09759 22.043105,11.32322 32.158766,21.979434 L 37.068811,17.246167 C 37.068811,17.246167 37.088388,32 37.088388,32 L 22.160133,31.978069 C 22.160133,31.978069 26.997745,27.140456 26.997745,27.140456 C 18.528582,18.264221 13.291696,25.230495 11.500037,31.436501 z"
             style="fill:#404040;"/>
          </a>
         </g>
        </svg>
</svg>
