<?xml version="1.0" encoding="UTF-8" standalone="no"?>
<!DOCTYPE svg PUBLIC "-//W3C//DTD SVG 1.1//EN"
 "http://www.w3.org/Graphics/SVG/1.1/DTD/svg11.dtd">
<!-- Generated by graphviz version 2.38.0 (20140413.2041)
 -->
<!-- Title: FillAwardsData Pages: 1 -->
<svg width="866pt" height="88pt"
 viewBox="0.00 0.00 866.00 88.00" xmlns="http://www.w3.org/2000/svg" xmlns:xlink="http://www.w3.org/1999/xlink">
<g id="graph0" class="graph" transform="scale(1 1) rotate(0) translate(4 84)">
<title>FillAwardsData</title>
<polygon fill="white" stroke="none" points="-4,4 -4,-84 862,-84 862,4 -4,4"/>
<!-- Node1 -->
<g id="node1" class="node"><title>Node1</title>
<g id="a_node1"><a xlink:title=" ">
<polygon fill="#bfbfbf" stroke="black" points="776,-30 776,-49 858,-49 858,-30 776,-30"/>
<text text-anchor="middle" x="817" y="-37" font-family="Helvetica,sans-Serif" font-size="10.00">FillAwardsData</text>
</a>
</g>
</g>
<!-- Node2 -->
<g id="node2" class="node"><title>Node2</title>
<g id="a_node2"><a xlink:href="../../d5/d09/_u_i_game_8h.html#ae479cc6554179c2014b9ab9e262c4735" target="_top" xlink:title=" ">
<polygon fill="white" stroke="black" points="594.5,-49.5 594.5,-79.5 739.5,-79.5 739.5,-49.5 594.5,-49.5"/>
<text text-anchor="start" x="602.5" y="-67.5" font-family="Helvetica,sans-Serif" font-size="10.00">GameUI_OnPlayerPortraitLeft</text>
<text text-anchor="middle" x="667" y="-56.5" font-family="Helvetica,sans-Serif" font-size="10.00">Click</text>
</a>
</g>
</g>
<!-- Node1&#45;&gt;Node2 -->
<g id="edge1" class="edge"><title>Node1&#45;&gt;Node2</title>
<path fill="none" stroke="midnightblue" d="M765.925,-47.9586C757.49,-49.3834 748.591,-50.8866 739.735,-52.3826"/>
<polygon fill="midnightblue" stroke="midnightblue" points="766.672,-51.3821 775.949,-46.2654 765.506,-44.4799 766.672,-51.3821"/>
</g>
<!-- Node7 -->
<g id="node7" class="node"><title>Node7</title>
<g id="a_node7"><a xlink:href="../../de/d17/class_g_u_i_window___character_record.html#a5081921d4f8081c10577e3f81dc529a3" target="_top" xlink:title=" ">
<polygon fill="white" stroke="black" points="594,-0.5 594,-30.5 740,-30.5 740,-0.5 594,-0.5"/>
<text text-anchor="start" x="602" y="-18.5" font-family="Helvetica,sans-Serif" font-size="10.00">GUIWindow_CharacterRecord</text>
<text text-anchor="middle" x="667" y="-7.5" font-family="Helvetica,sans-Serif" font-size="10.00">::ShowAwardsTab</text>
</a>
</g>
</g>
<!-- Node1&#45;&gt;Node7 -->
<g id="edge6" class="edge"><title>Node1&#45;&gt;Node7</title>
<path fill="none" stroke="midnightblue" d="M766.004,-31.3925C757.636,-30.0356 748.81,-28.6043 740.02,-27.179"/>
<polygon fill="midnightblue" stroke="midnightblue" points="765.518,-34.8593 775.949,-33.0053 766.638,-27.9496 765.518,-34.8593"/>
</g>
<!-- Node3 -->
<g id="node3" class="node"><title>Node3</title>
<g id="a_node3"><a xlink:href="../../d4/d06/class_application_1_1_game.html#a3f65e3f0ef1a9114fb3dea275e52442e" target="_top" xlink:title=" ">
<polygon fill="white" stroke="black" points="455,-49.5 455,-79.5 558,-79.5 558,-49.5 455,-49.5"/>
<text text-anchor="start" x="463" y="-67.5" font-family="Helvetica,sans-Serif" font-size="10.00">Application::Game::</text>
<text text-anchor="middle" x="506.5" y="-56.5" font-family="Helvetica,sans-Serif" font-size="10.00">EventLoop</text>
</a>
</g>
</g>
<!-- Node2&#45;&gt;Node3 -->
<g id="edge2" class="edge"><title>Node2&#45;&gt;Node3</title>
<path fill="none" stroke="midnightblue" d="M583.912,-64.5C575.17,-64.5 566.474,-64.5 558.25,-64.5"/>
<polygon fill="midnightblue" stroke="midnightblue" points="584.17,-68.0001 594.17,-64.5 584.17,-61.0001 584.17,-68.0001"/>
</g>
<!-- Node4 -->
<g id="node4" class="node"><title>Node4</title>
<g id="a_node4"><a xlink:href="../../d4/d06/class_application_1_1_game.html#aaa0ff18388b32b4e6198835a35e000d3" target="_top" xlink:title=" ">
<polygon fill="white" stroke="black" points="316,-49.5 316,-79.5 419,-79.5 419,-49.5 316,-49.5"/>
<text text-anchor="start" x="324" y="-67.5" font-family="Helvetica,sans-Serif" font-size="10.00">Application::Game::</text>
<text text-anchor="middle" x="367.5" y="-56.5" font-family="Helvetica,sans-Serif" font-size="10.00">GameLoop</text>
</a>
</g>
</g>
<!-- Node3&#45;&gt;Node4 -->
<g id="edge3" class="edge"><title>Node3&#45;&gt;Node4</title>
<path fill="none" stroke="midnightblue" d="M444.68,-64.5C436.228,-64.5 427.618,-64.5 419.374,-64.5"/>
<polygon fill="midnightblue" stroke="midnightblue" points="444.876,-68.0001 454.875,-64.5 444.875,-61.0001 444.876,-68.0001"/>
</g>
<!-- Node5 -->
<g id="node5" class="node"><title>Node5</title>
<g id="a_node5"><a xlink:href="../../d4/d06/class_application_1_1_game.html#a013ffd59e8fdf1c0a396da1dbe1681ca" target="_top" xlink:title=" ">
<polygon fill="white" stroke="black" points="156,-55 156,-74 280,-74 280,-55 156,-55"/>
<text text-anchor="middle" x="218" y="-62" font-family="Helvetica,sans-Serif" font-size="10.00">Application::Game::Loop</text>
</a>
</g>
</g>
<!-- Node4&#45;&gt;Node5 -->
<g id="edge4" class="edge"><title>Node4&#45;&gt;Node5</title>
<path fill="none" stroke="midnightblue" d="M305.59,-64.5C297.149,-64.5 288.478,-64.5 280.035,-64.5"/>
<polygon fill="midnightblue" stroke="midnightblue" points="305.739,-68.0001 315.739,-64.5 305.739,-61.0001 305.739,-68.0001"/>
</g>
<!-- Node6 -->
<g id="node6" class="node"><title>Node6</title>
<g id="a_node6"><a xlink:href="../../d4/d06/class_application_1_1_game.html#a96341ca5b54d90adc3ecb3bf0bcd2312" target="_top" xlink:title=" ">
<polygon fill="white" stroke="black" points="0,-55 0,-74 120,-74 120,-55 0,-55"/>
<text text-anchor="middle" x="60" y="-62" font-family="Helvetica,sans-Serif" font-size="10.00">Application::Game::Run</text>
</a>
</g>
</g>
<!-- Node5&#45;&gt;Node6 -->
<g id="edge5" class="edge"><title>Node5&#45;&gt;Node6</title>
<path fill="none" stroke="midnightblue" d="M145.546,-64.5C137.081,-64.5 128.513,-64.5 120.244,-64.5"/>
<polygon fill="midnightblue" stroke="midnightblue" points="145.792,-68.0001 155.792,-64.5 145.792,-61.0001 145.792,-68.0001"/>
</g>
</g>
</svg>
