<?xml version="1.0" encoding="UTF-8" standalone="no"?>
<!DOCTYPE svg PUBLIC "-//W3C//DTD SVG 1.1//EN"
 "http://www.w3.org/Graphics/SVG/1.1/DTD/svg11.dtd">
<!-- Generated by graphviz version 2.38.0 (20140413.2041)
 -->
<!-- Title: MM_Main Pages: 1 -->
<svg width="165pt" height="66pt"
 viewBox="0.00 0.00 165.00 66.00" xmlns="http://www.w3.org/2000/svg" xmlns:xlink="http://www.w3.org/1999/xlink">
<g id="graph0" class="graph" transform="scale(1 1) rotate(0) translate(4 62)">
<title>MM_Main</title>
<polygon fill="white" stroke="none" points="-4,4 -4,-62 161,-62 161,4 -4,4"/>
<!-- Node1 -->
<g id="node1" class="node"><title>Node1</title>
<g id="a_node1"><a xlink:title=" ">
<polygon fill="#bfbfbf" stroke="black" points="98,-19.5 98,-38.5 157,-38.5 157,-19.5 98,-19.5"/>
<text text-anchor="middle" x="127.5" y="-26.5" font-family="Helvetica,sans-Serif" font-size="10.00">MM_Main</text>
</a>
</g>
</g>
<!-- Node2 -->
<g id="node2" class="node"><title>Node2</title>
<g id="a_node2"><a xlink:href="../../db/dce/_o_s_window_factory_8cpp.html#a0ddf1224851353fc92bfbff6f499fa97" target="_top" xlink:title=" ">
<polygon fill="white" stroke="black" points="12,-38.5 12,-57.5 50,-57.5 50,-38.5 12,-38.5"/>
<text text-anchor="middle" x="31" y="-45.5" font-family="Helvetica,sans-Serif" font-size="10.00">main</text>
</a>
</g>
</g>
<!-- Node1&#45;&gt;Node2 -->
<g id="edge1" class="edge"><title>Node1&#45;&gt;Node2</title>
<path fill="none" stroke="midnightblue" d="M87.7103,-36.799C74.6808,-39.4187 60.7639,-42.2168 50.0991,-44.361"/>
<polygon fill="midnightblue" stroke="midnightblue" points="88.7766,-40.1547 97.8904,-34.7522 87.3967,-33.2921 88.7766,-40.1547"/>
</g>
<!-- Node3 -->
<g id="node3" class="node"><title>Node3</title>
<g id="a_node3"><a xlink:href="../../d3/d32/_s_d_lmain_8cpp.html#a2c6a3150165fb0370f9c026e970ae090" target="_top" xlink:title=" ">
<polygon fill="white" stroke="black" points="0,-0.5 0,-19.5 62,-19.5 62,-0.5 0,-0.5"/>
<text text-anchor="middle" x="31" y="-7.5" font-family="Helvetica,sans-Serif" font-size="10.00">SDL_main</text>
</a>
</g>
</g>
<!-- Node1&#45;&gt;Node3 -->
<g id="edge2" class="edge"><title>Node1&#45;&gt;Node3</title>
<path fill="none" stroke="midnightblue" d="M88.0268,-21.2646C79.4048,-19.5311 70.3788,-17.7164 62.1521,-16.0623"/>
<polygon fill="midnightblue" stroke="midnightblue" points="87.3967,-24.7079 97.8904,-23.2478 88.7766,-17.8453 87.3967,-24.7079"/>
</g>
</g>
</svg>
