<?xml version="1.0" encoding="UTF-8" standalone="no"?>
<!DOCTYPE svg PUBLIC "-//W3C//DTD SVG 1.1//EN"
 "http://www.w3.org/Graphics/SVG/1.1/DTD/svg11.dtd">
<!-- Generated by graphviz version 2.38.0 (20140413.2041)
 -->
<!-- Title: stru319 Pages: 1 -->
<svg width="304pt" height="273pt"
 viewBox="0.00 0.00 304.00 273.00" xmlns="http://www.w3.org/2000/svg" xmlns:xlink="http://www.w3.org/1999/xlink">
<g id="graph0" class="graph" transform="scale(1 1) rotate(0) translate(4 269)">
<title>stru319</title>
<polygon fill="white" stroke="none" points="-4,4 -4,-269 300,-269 300,4 -4,4"/>
<!-- Node1 -->
<g id="node1" class="node"><title>Node1</title>
<g id="a_node1"><a xlink:title=" ">
<polygon fill="#bfbfbf" stroke="black" points="71.5,-0.5 71.5,-19.5 120.5,-19.5 120.5,-0.5 71.5,-0.5"/>
<text text-anchor="middle" x="96" y="-7.5" font-family="Helvetica,sans-Serif" font-size="10.00">stru319</text>
</a>
</g>
</g>
<!-- Node2 -->
<g id="node2" class="node"><title>Node2</title>
<g id="a_node2"><a xlink:href="../../d0/def/class_vis.html" target="_top" xlink:title=" ">
<polygon fill="white" stroke="black" points="80.5,-67.5 80.5,-86.5 111.5,-86.5 111.5,-67.5 80.5,-67.5"/>
<text text-anchor="middle" x="96" y="-74.5" font-family="Helvetica,sans-Serif" font-size="10.00">Vis</text>
</a>
</g>
</g>
<!-- Node2&#45;&gt;Node1 -->
<g id="edge1" class="edge"><title>Node2&#45;&gt;Node1</title>
<path fill="none" stroke="#9a32cd" stroke-dasharray="5,2" d="M96,-57.037C96,-44.6703 96,-29.1198 96,-19.6273"/>
<polygon fill="#9a32cd" stroke="#9a32cd" points="92.5001,-57.2338 96,-67.2338 99.5001,-57.2338 92.5001,-57.2338"/>
<text text-anchor="middle" x="103.5" y="-41" font-family="Helvetica,sans-Serif" font-size="10.00"> vis</text>
</g>
<!-- Node3 -->
<g id="node3" class="node"><title>Node3</title>
<g id="a_node3"><a xlink:href="../../d6/d70/class_log.html" target="_top" xlink:title=" ">
<polygon fill="white" stroke="black" points="0,-167.5 0,-186.5 32,-186.5 32,-167.5 0,-167.5"/>
<text text-anchor="middle" x="16" y="-174.5" font-family="Helvetica,sans-Serif" font-size="10.00">Log</text>
</a>
</g>
</g>
<!-- Node3&#45;&gt;Node2 -->
<g id="edge2" class="edge"><title>Node3&#45;&gt;Node2</title>
<path fill="none" stroke="#9a32cd" stroke-dasharray="5,2" d="M29.4528,-159.52C46.6424,-138.463 75.7569,-102.798 89.0307,-86.5374"/>
<polygon fill="#9a32cd" stroke="#9a32cd" points="26.7119,-157.343 23.0995,-167.303 32.1346,-161.77 26.7119,-157.343"/>
<text text-anchor="middle" x="81" y="-124.5" font-family="Helvetica,sans-Serif" font-size="10.00"> log</text>
</g>
<!-- Node4 -->
<g id="node4" class="node"><title>Node4</title>
<g id="a_node4"><a xlink:href="../../de/d0c/struct_vis___selection_list.html" target="_top" xlink:title=" ">
<polygon fill="white" stroke="black" points="50,-167.5 50,-186.5 142,-186.5 142,-167.5 50,-167.5"/>
<text text-anchor="middle" x="96" y="-174.5" font-family="Helvetica,sans-Serif" font-size="10.00">Vis_SelectionList</text>
</a>
</g>
</g>
<!-- Node4&#45;&gt;Node2 -->
<g id="edge3" class="edge"><title>Node4&#45;&gt;Node2</title>
<path fill="none" stroke="#9a32cd" stroke-dasharray="5,2" d="M96,-157.22C96,-135.951 96,-102.22 96,-86.5374"/>
<polygon fill="#9a32cd" stroke="#9a32cd" points="92.5001,-157.303 96,-167.303 99.5001,-157.303 92.5001,-157.303"/>
<text text-anchor="middle" x="121" y="-124.5" font-family="Helvetica,sans-Serif" font-size="10.00"> default_list</text>
</g>
<!-- Node5 -->
<g id="node5" class="node"><title>Node5</title>
<g id="a_node5"><a xlink:href="../../d1/d04/struct_vis___object_info.html" target="_top" xlink:title=" ">
<polygon fill="white" stroke="black" points="56,-245.5 56,-264.5 136,-264.5 136,-245.5 56,-245.5"/>
<text text-anchor="middle" x="96" y="-252.5" font-family="Helvetica,sans-Serif" font-size="10.00">Vis_ObjectInfo</text>
</a>
</g>
</g>
<!-- Node5&#45;&gt;Node4 -->
<g id="edge4" class="edge"><title>Node5&#45;&gt;Node4</title>
<path fill="none" stroke="#9a32cd" stroke-dasharray="5,2" d="M96,-235.224C96,-219.697 96,-198.358 96,-186.616"/>
<polygon fill="#9a32cd" stroke="#9a32cd" points="92.5001,-235.282 96,-245.282 99.5001,-235.282 92.5001,-235.282"/>
<text text-anchor="middle" x="129.5" y="-219" font-family="Helvetica,sans-Serif" font-size="10.00"> object_pool</text>
<text text-anchor="middle" x="129.5" y="-208" font-family="Helvetica,sans-Serif" font-size="10.00">object_pointers</text>
</g>
<!-- Node6 -->
<g id="node6" class="node"><title>Node6</title>
<g id="a_node6"><a xlink:href="../../db/d1a/struct_render_vertex_soft.html" target="_top" xlink:title=" ">
<polygon fill="white" stroke="black" points="160.5,-167.5 160.5,-186.5 253.5,-186.5 253.5,-167.5 160.5,-167.5"/>
<text text-anchor="middle" x="207" y="-174.5" font-family="Helvetica,sans-Serif" font-size="10.00">RenderVertexSoft</text>
</a>
</g>
</g>
<!-- Node6&#45;&gt;Node2 -->
<g id="edge5" class="edge"><title>Node6&#45;&gt;Node2</title>
<path fill="none" stroke="#9a32cd" stroke-dasharray="5,2" d="M196.093,-158.458C185.73,-142.885 168.948,-120.291 150,-105 138.417,-95.6528 123.07,-88.3678 111.697,-83.7332"/>
<polygon fill="#9a32cd" stroke="#9a32cd" points="193.317,-160.612 201.677,-167.119 199.2,-156.818 193.317,-160.612"/>
<text text-anchor="middle" x="214" y="-141" font-family="Helvetica,sans-Serif" font-size="10.00"> stru_209C</text>
<text text-anchor="middle" x="214" y="-130" font-family="Helvetica,sans-Serif" font-size="10.00">stru_206C</text>
<text text-anchor="middle" x="214" y="-119" font-family="Helvetica,sans-Serif" font-size="10.00">stru_200C</text>
<text text-anchor="middle" x="214" y="-108" font-family="Helvetica,sans-Serif" font-size="10.00">stru_203C</text>
</g>
<!-- Node7 -->
<g id="node7" class="node"><title>Node7</title>
<g id="a_node7"><a xlink:href="../../d5/d06/struct_vec3__float__.html" target="_top" xlink:title=" ">
<polygon fill="white" stroke="black" points="173,-245.5 173,-264.5 241,-264.5 241,-245.5 173,-245.5"/>
<text text-anchor="middle" x="207" y="-252.5" font-family="Helvetica,sans-Serif" font-size="10.00">Vec3_float_</text>
</a>
</g>
</g>
<!-- Node7&#45;&gt;Node6 -->
<g id="edge6" class="edge"><title>Node7&#45;&gt;Node6</title>
<path fill="none" stroke="#9a32cd" stroke-dasharray="5,2" d="M207,-235.224C207,-219.697 207,-198.358 207,-186.616"/>
<polygon fill="#9a32cd" stroke="#9a32cd" points="203.5,-235.282 207,-245.282 210.5,-235.282 203.5,-235.282"/>
<text text-anchor="middle" x="251.5" y="-219" font-family="Helvetica,sans-Serif" font-size="10.00"> vWorldViewPosition</text>
<text text-anchor="middle" x="251.5" y="-208" font-family="Helvetica,sans-Serif" font-size="10.00">vWorldPosition</text>
</g>
</g>
</svg>
