<?xml version="1.0" encoding="UTF-8" standalone="no"?>
<!DOCTYPE svg PUBLIC "-//W3C//DTD SVG 1.1//EN"
 "http://www.w3.org/Graphics/SVG/1.1/DTD/svg11.dtd">
<!-- Generated by graphviz version 2.38.0 (20140413.2041)
 -->
<!-- Title: Chest Pages: 1 -->
<svg width="101pt" height="162pt"
 viewBox="0.00 0.00 101.00 162.00" xmlns="http://www.w3.org/2000/svg" xmlns:xlink="http://www.w3.org/1999/xlink">
<g id="graph0" class="graph" transform="scale(1 1) rotate(0) translate(4 158)">
<title>Chest</title>
<polygon fill="white" stroke="none" points="-4,4 -4,-158 97,-158 97,4 -4,4"/>
<!-- Node1 -->
<g id="node1" class="node"><title>Node1</title>
<g id="a_node1"><a xlink:title=" ">
<polygon fill="#bfbfbf" stroke="black" points="11,-0.5 11,-19.5 53,-19.5 53,-0.5 11,-0.5"/>
<text text-anchor="middle" x="32" y="-7.5" font-family="Helvetica,sans-Serif" font-size="10.00">Chest</text>
</a>
</g>
</g>
<!-- Node2 -->
<g id="node2" class="node"><title>Node2</title>
<g id="a_node2"><a xlink:href="../../d7/d9c/struct_item_gen.html" target="_top" xlink:title=" ">
<polygon fill="white" stroke="black" points="5.5,-67.5 5.5,-86.5 58.5,-86.5 58.5,-67.5 5.5,-67.5"/>
<text text-anchor="middle" x="32" y="-74.5" font-family="Helvetica,sans-Serif" font-size="10.00">ItemGen</text>
</a>
</g>
</g>
<!-- Node2&#45;&gt;Node1 -->
<g id="edge1" class="edge"><title>Node2&#45;&gt;Node1</title>
<path fill="none" stroke="#9a32cd" stroke-dasharray="5,2" d="M32,-57.037C32,-44.6703 32,-29.1198 32,-19.6273"/>
<polygon fill="#9a32cd" stroke="#9a32cd" points="28.5001,-57.2338 32,-67.2338 35.5001,-57.2338 28.5001,-57.2338"/>
<text text-anchor="middle" x="62.5" y="-41" font-family="Helvetica,sans-Serif" font-size="10.00"> igChestItems</text>
</g>
<!-- Node3 -->
<g id="node3" class="node"><title>Node3</title>
<g id="a_node3"><a xlink:href="../../df/dc2/struct_game_time.html" target="_top" xlink:title=" ">
<polygon fill="white" stroke="black" points="0,-134.5 0,-153.5 64,-153.5 64,-134.5 0,-134.5"/>
<text text-anchor="middle" x="32" y="-141.5" font-family="Helvetica,sans-Serif" font-size="10.00">GameTime</text>
</a>
</g>
</g>
<!-- Node3&#45;&gt;Node2 -->
<g id="edge2" class="edge"><title>Node3&#45;&gt;Node2</title>
<path fill="none" stroke="#9a32cd" stroke-dasharray="5,2" d="M32,-124.037C32,-111.67 32,-96.1198 32,-86.6273"/>
<polygon fill="#9a32cd" stroke="#9a32cd" points="28.5001,-124.234 32,-134.234 35.5001,-124.234 28.5001,-124.234"/>
<text text-anchor="middle" x="60.5" y="-108" font-family="Helvetica,sans-Serif" font-size="10.00"> expirte_time</text>
</g>
</g>
</svg>
