<?xml version="1.0" encoding="UTF-8" standalone="no"?>
<!DOCTYPE svg PUBLIC "-//W3C//DTD SVG 1.1//EN"
 "http://www.w3.org/Graphics/SVG/1.1/DTD/svg11.dtd">
<!-- Generated by graphviz version 2.38.0 (20140413.2041)
 -->
<!-- Title: GUIWindow_Modal::GUIWindow_Modal Pages: 1 -->
<svg width="378pt" height="39pt"
 viewBox="0.00 0.00 378.00 39.00" xmlns="http://www.w3.org/2000/svg" xmlns:xlink="http://www.w3.org/1999/xlink">
<g id="graph0" class="graph" transform="scale(1 1) rotate(0) translate(4 35)">
<title>GUIWindow_Modal::GUIWindow_Modal</title>
<polygon fill="white" stroke="none" points="-4,4 -4,-35 374,-35 374,4 -4,4"/>
<!-- Node1 -->
<g id="node1" class="node"><title>Node1</title>
<g id="a_node1"><a xlink:title=" ">
<polygon fill="#bfbfbf" stroke="black" points="0,-0.5 0,-30.5 156,-30.5 156,-0.5 0,-0.5"/>
<text text-anchor="start" x="8" y="-18.5" font-family="Helvetica,sans-Serif" font-size="10.00">GUIWindow_Modal::GUIWindow</text>
<text text-anchor="middle" x="78" y="-7.5" font-family="Helvetica,sans-Serif" font-size="10.00">_Modal</text>
</a>
</g>
</g>
<!-- Node2 -->
<g id="node2" class="node"><title>Node2</title>
<g id="a_node2"><a xlink:href="../../d8/da1/struct_timer.html#a9b8c57bf9675da635a82d68d9b4d05e5" target="_top" xlink:title=" ">
<polygon fill="white" stroke="black" points="192,-6 192,-25 266,-25 266,-6 192,-6"/>
<text text-anchor="middle" x="229" y="-13" font-family="Helvetica,sans-Serif" font-size="10.00">Timer::Pause</text>
</a>
</g>
</g>
<!-- Node1&#45;&gt;Node2 -->
<g id="edge1" class="edge"><title>Node1&#45;&gt;Node2</title>
<path fill="none" stroke="midnightblue" d="M156.119,-15.5C164.906,-15.5 173.645,-15.5 181.845,-15.5"/>
<polygon fill="midnightblue" stroke="midnightblue" points="181.908,-19.0001 191.907,-15.5 181.907,-12.0001 181.908,-19.0001"/>
</g>
<!-- Node3 -->
<g id="node3" class="node"><title>Node3</title>
<g id="a_node3"><a xlink:href="../../d8/da1/struct_timer.html#af11deea7dde51d637aec54587820f92b" target="_top" xlink:title=" ">
<polygon fill="white" stroke="black" points="302,-6 302,-25 370,-25 370,-6 302,-6"/>
<text text-anchor="middle" x="336" y="-13" font-family="Helvetica,sans-Serif" font-size="10.00">Timer::Time</text>
</a>
</g>
</g>
<!-- Node2&#45;&gt;Node3 -->
<g id="edge2" class="edge"><title>Node2&#45;&gt;Node3</title>
<path fill="none" stroke="midnightblue" d="M266.135,-15.5C274.401,-15.5 283.269,-15.5 291.798,-15.5"/>
<polygon fill="midnightblue" stroke="midnightblue" points="291.971,-19.0001 301.971,-15.5 291.971,-12.0001 291.971,-19.0001"/>
</g>
</g>
</svg>
