<?xml version="1.0" encoding="UTF-8" standalone="no"?>
<!DOCTYPE svg PUBLIC "-//W3C//DTD SVG 1.1//EN"
 "http://www.w3.org/Graphics/SVG/1.1/DTD/svg11.dtd">
<!-- Generated by graphviz version 2.38.0 (20140413.2041)
 -->
<!-- Title: GUIWindow_Modal::Update Pages: 1 -->
<svg width="971pt" height="287pt"
 viewBox="0.00 0.00 971.00 286.50" xmlns="http://www.w3.org/2000/svg" xmlns:xlink="http://www.w3.org/1999/xlink">
<g id="graph0" class="graph" transform="scale(1 1) rotate(0) translate(4 282.5)">
<title>GUIWindow_Modal::Update</title>
<polygon fill="white" stroke="none" points="-4,4 -4,-282.5 967,-282.5 967,4 -4,4"/>
<!-- Node1 -->
<g id="node1" class="node"><title>Node1</title>
<g id="a_node1"><a xlink:title=" ">
<polygon fill="#bfbfbf" stroke="black" points="0,-38.5 0,-57.5 136,-57.5 136,-38.5 0,-38.5"/>
<text text-anchor="middle" x="68" y="-45.5" font-family="Helvetica,sans-Serif" font-size="10.00">GUIWindow_Modal::Update</text>
</a>
</g>
</g>
<!-- Node2 -->
<g id="node2" class="node"><title>Node2</title>
<g id="a_node2"><a xlink:href="../../d4/d38/class_g_u_i_window.html#ac0c28c954e40c6f2c7feb7022ece8052" target="_top" xlink:title=" ">
<polygon fill="white" stroke="black" points="172,-76.5 172,-95.5 324,-95.5 324,-76.5 172,-76.5"/>
<text text-anchor="middle" x="248" y="-83.5" font-family="Helvetica,sans-Serif" font-size="10.00">GUIWindow::DrawMessageBox</text>
</a>
</g>
</g>
<!-- Node1&#45;&gt;Node2 -->
<g id="edge1" class="edge"><title>Node1&#45;&gt;Node2</title>
<path fill="none" stroke="midnightblue" d="M113.917,-57.589C137.829,-62.6939 167.421,-69.0113 192.625,-74.3918"/>
<polygon fill="midnightblue" stroke="midnightblue" points="191.896,-77.815 202.406,-76.4799 193.357,-70.9692 191.896,-77.815"/>
</g>
<!-- Node18 -->
<g id="node18" class="node"><title>Node18</title>
<g id="a_node18"><a xlink:href="../../dd/d88/class_localization.html#a0eb0a17fdf90f6a420eeac65bf62436f" target="_top" xlink:title=" ">
<polygon fill="white" stroke="black" points="190,-38.5 190,-57.5 306,-57.5 306,-38.5 190,-38.5"/>
<text text-anchor="middle" x="248" y="-45.5" font-family="Helvetica,sans-Serif" font-size="10.00">Localization::GetString</text>
</a>
</g>
</g>
<!-- Node1&#45;&gt;Node18 -->
<g id="edge24" class="edge"><title>Node1&#45;&gt;Node18</title>
<path fill="none" stroke="midnightblue" d="M136.041,-48C150.315,-48 165.393,-48 179.678,-48"/>
<polygon fill="midnightblue" stroke="midnightblue" points="179.917,-51.5001 189.916,-48 179.916,-44.5001 179.917,-51.5001"/>
</g>
<!-- Node19 -->
<g id="node19" class="node"><title>Node19</title>
<g id="a_node19"><a xlink:href="../../d8/d44/_strings_8cpp.html#aebf99e80337d8db0a005aebe8a13fb7f" target="_top" xlink:title=" ">
<polygon fill="white" stroke="black" points="215.5,-0.5 215.5,-19.5 280.5,-19.5 280.5,-0.5 215.5,-0.5"/>
<text text-anchor="middle" x="248" y="-7.5" font-family="Helvetica,sans-Serif" font-size="10.00">StringPrintf</text>
</a>
</g>
</g>
<!-- Node1&#45;&gt;Node19 -->
<g id="edge25" class="edge"><title>Node1&#45;&gt;Node19</title>
<path fill="none" stroke="midnightblue" d="M113.917,-38.411C141.953,-32.4257 177.798,-24.7735 205.222,-18.919"/>
<polygon fill="midnightblue" stroke="midnightblue" points="206.237,-22.2811 215.286,-16.7704 204.776,-15.4354 206.237,-22.2811"/>
</g>
<!-- Node3 -->
<g id="node3" class="node"><title>Node3</title>
<g id="a_node3"><a xlink:href="../../d3/d39/class_g_u_i_font.html#a08b74df638b5c055d9f18f5ce4d8ee11" target="_top" xlink:title=" ">
<polygon fill="white" stroke="black" points="363.5,-95.5 363.5,-114.5 488.5,-114.5 488.5,-95.5 363.5,-95.5"/>
<text text-anchor="middle" x="426" y="-102.5" font-family="Helvetica,sans-Serif" font-size="10.00">GUIFont::CalcTextHeight</text>
</a>
</g>
</g>
<!-- Node2&#45;&gt;Node3 -->
<g id="edge2" class="edge"><title>Node2&#45;&gt;Node3</title>
<path fill="none" stroke="midnightblue" d="M324.15,-94.1128C333.756,-95.1498 343.571,-96.2093 353.123,-97.2405"/>
<polygon fill="midnightblue" stroke="midnightblue" points="353.045,-100.752 363.363,-98.346 353.796,-93.7928 353.045,-100.752"/>
</g>
<!-- Node6 -->
<g id="node6" class="node"><title>Node6</title>
<g id="a_node6"><a xlink:href="../../d5/d0b/_g_u_i_window_8h.html#ae63663fb59f9435405c4bbbb6cc18dfe" target="_top" xlink:title=" ">
<polygon fill="white" stroke="black" points="375.5,-57.5 375.5,-76.5 476.5,-76.5 476.5,-57.5 375.5,-57.5"/>
<text text-anchor="middle" x="426" y="-64.5" font-family="Helvetica,sans-Serif" font-size="10.00">DrawPopupWindow</text>
</a>
</g>
</g>
<!-- Node2&#45;&gt;Node6 -->
<g id="edge6" class="edge"><title>Node2&#45;&gt;Node6</title>
<path fill="none" stroke="midnightblue" d="M324.15,-77.8872C337.789,-76.4148 351.848,-74.897 364.98,-73.4794"/>
<polygon fill="midnightblue" stroke="midnightblue" points="365.72,-76.9199 375.287,-72.3668 364.969,-69.9604 365.72,-76.9199"/>
</g>
<!-- Node12 -->
<g id="node12" class="node"><title>Node12</title>
<g id="a_node12"><a xlink:href="../../d4/d38/class_g_u_i_window.html#aae805c92b9242bc94cf18c7a702433f7" target="_top" xlink:title=" ">
<polygon fill="white" stroke="black" points="360,-171.5 360,-190.5 492,-190.5 492,-171.5 360,-171.5"/>
<text text-anchor="middle" x="426" y="-178.5" font-family="Helvetica,sans-Serif" font-size="10.00">GUIWindow::DrawTitleText</text>
</a>
</g>
</g>
<!-- Node2&#45;&gt;Node12 -->
<g id="edge15" class="edge"><title>Node2&#45;&gt;Node12</title>
<path fill="none" stroke="midnightblue" d="M266.844,-95.6319C297.89,-112.39 361.995,-146.992 398.336,-166.608"/>
<polygon fill="midnightblue" stroke="midnightblue" points="396.908,-169.814 407.37,-171.484 400.233,-163.654 396.908,-169.814"/>
</g>
<!-- Node17 -->
<g id="node17" class="node"><title>Node17</title>
<g id="a_node17"><a xlink:href="../../d7/dc5/class_mouse.html#a8900246ba042b33090b8dc8e377fbb3a" target="_top" xlink:title=" ">
<polygon fill="white" stroke="black" points="369.5,-19.5 369.5,-38.5 482.5,-38.5 482.5,-19.5 369.5,-19.5"/>
<text text-anchor="middle" x="426" y="-26.5" font-family="Helvetica,sans-Serif" font-size="10.00">Mouse::GetCursorPos</text>
</a>
</g>
</g>
<!-- Node2&#45;&gt;Node17 -->
<g id="edge23" class="edge"><title>Node2&#45;&gt;Node17</title>
<path fill="none" stroke="midnightblue" d="M293.961,-76.4603C303.99,-73.8238 314.471,-70.6617 324,-67 340.888,-60.5106 343.233,-54.7946 360,-48 365.584,-45.7371 371.538,-43.6187 377.489,-41.6777"/>
<polygon fill="midnightblue" stroke="midnightblue" points="378.927,-44.8961 387.436,-38.5845 376.848,-38.2118 378.927,-44.8961"/>
</g>
<!-- Node4 -->
<g id="node4" class="node"><title>Node4</title>
<g id="a_node4"><a xlink:href="../../d3/d39/class_g_u_i_font.html#acff82a6ae67e879bd76ddc52aa25fe02" target="_top" xlink:title=" ">
<polygon fill="white" stroke="black" points="528,-133.5 528,-152.5 665,-152.5 665,-133.5 528,-133.5"/>
<text text-anchor="middle" x="596.5" y="-140.5" font-family="Helvetica,sans-Serif" font-size="10.00">GUIFont::FitTextInAWindow</text>
</a>
</g>
</g>
<!-- Node3&#45;&gt;Node4 -->
<g id="edge3" class="edge"><title>Node3&#45;&gt;Node4</title>
<path fill="none" stroke="midnightblue" d="M469.52,-114.589C491.955,-119.649 519.673,-125.9 543.393,-131.249"/>
<polygon fill="midnightblue" stroke="midnightblue" points="542.761,-134.694 553.286,-133.48 544.301,-127.866 542.761,-134.694"/>
</g>
<!-- Node5 -->
<g id="node5" class="node"><title>Node5</title>
<g id="a_node5"><a xlink:href="../../d3/d39/class_g_u_i_font.html#adfbdd225f4c0eedcbf7e82eecd29e404" target="_top" xlink:title=" ">
<polygon fill="white" stroke="black" points="855,-152.5 855,-171.5 963,-171.5 963,-152.5 855,-152.5"/>
<text text-anchor="middle" x="909" y="-159.5" font-family="Helvetica,sans-Serif" font-size="10.00">GUIFont::IsCharValid</text>
</a>
</g>
</g>
<!-- Node3&#45;&gt;Node5 -->
<g id="edge5" class="edge"><title>Node3&#45;&gt;Node5</title>
<path fill="none" stroke="midnightblue" d="M488.729,-108.978C536.826,-112.307 605.244,-117.546 665,-124 733.678,-131.418 750.828,-133.849 819,-145 829.235,-146.674 840.102,-148.614 850.595,-150.57"/>
<polygon fill="midnightblue" stroke="midnightblue" points="850.033,-154.026 860.509,-152.444 851.333,-147.148 850.033,-154.026"/>
</g>
<!-- Node4&#45;&gt;Node5 -->
<g id="edge4" class="edge"><title>Node4&#45;&gt;Node5</title>
<path fill="none" stroke="midnightblue" d="M665.257,-147.146C718.622,-150.412 792.464,-154.93 844.655,-158.124"/>
<polygon fill="midnightblue" stroke="midnightblue" points="844.597,-161.627 854.792,-158.744 845.025,-154.64 844.597,-161.627"/>
</g>
<!-- Node7 -->
<g id="node7" class="node"><title>Node7</title>
<g id="a_node7"><a xlink:href="../../de/d73/class_image.html#a5093fa64598a4d7e0c70d43fe67e35cd" target="_top" xlink:title=" ">
<polygon fill="white" stroke="black" points="550.5,-19.5 550.5,-38.5 642.5,-38.5 642.5,-19.5 550.5,-19.5"/>
<text text-anchor="middle" x="596.5" y="-26.5" font-family="Helvetica,sans-Serif" font-size="10.00">Image::GetHeight</text>
</a>
</g>
</g>
<!-- Node6&#45;&gt;Node7 -->
<g id="edge7" class="edge"><title>Node6&#45;&gt;Node7</title>
<path fill="none" stroke="midnightblue" d="M469.52,-57.411C491.955,-52.3513 519.673,-46.1004 543.393,-40.7512"/>
<polygon fill="midnightblue" stroke="midnightblue" points="544.301,-44.1343 553.286,-38.5201 542.761,-37.3058 544.301,-44.1343"/>
</g>
<!-- Node11 -->
<g id="node11" class="node"><title>Node11</title>
<g id="a_node11"><a xlink:href="../../de/d73/class_image.html#a9241b1c53141c78273e4060a91634d47" target="_top" xlink:title=" ">
<polygon fill="white" stroke="black" points="551.5,-57.5 551.5,-76.5 641.5,-76.5 641.5,-57.5 551.5,-57.5"/>
<text text-anchor="middle" x="596.5" y="-64.5" font-family="Helvetica,sans-Serif" font-size="10.00">Image::GetWidth</text>
</a>
</g>
</g>
<!-- Node6&#45;&gt;Node11 -->
<g id="edge12" class="edge"><title>Node6&#45;&gt;Node11</title>
<path fill="none" stroke="midnightblue" d="M476.644,-67C496.907,-67 520.403,-67 541.128,-67"/>
<polygon fill="midnightblue" stroke="midnightblue" points="541.366,-70.5001 551.366,-67 541.366,-63.5001 541.366,-70.5001"/>
</g>
<!-- Node8 -->
<g id="node8" class="node"><title>Node8</title>
<g id="a_node8"><a xlink:href="../../d9/d30/_s_d_l__assert_8h.html#afedcea68cf85ee469ab1ea390bbe0abb" target="_top" xlink:title=" ">
<polygon fill="white" stroke="black" points="870.5,-38.5 870.5,-57.5 947.5,-57.5 947.5,-38.5 870.5,-38.5"/>
<text text-anchor="middle" x="909" y="-45.5" font-family="Helvetica,sans-Serif" font-size="10.00">__debugbreak</text>
</a>
</g>
</g>
<!-- Node7&#45;&gt;Node8 -->
<g id="edge8" class="edge"><title>Node7&#45;&gt;Node8</title>
<path fill="none" stroke="midnightblue" d="M631.054,-19.4307C674.912,-8.43352 753.813,6.14674 819,-10 836.561,-14.3498 838.443,-21.7069 855,-29 859.688,-31.065 864.678,-33.0808 869.649,-34.9809"/>
<polygon fill="midnightblue" stroke="midnightblue" points="868.509,-38.2911 879.103,-38.4751 870.936,-31.7252 868.509,-38.2911"/>
</g>
<!-- Node9 -->
<g id="node9" class="node"><title>Node9</title>
<g id="a_node9"><a xlink:href="../../de/d73/class_image.html#a9b786ec61110907b38dda728bd281c73" target="_top" xlink:title=" ">
<polygon fill="white" stroke="black" points="702,-19.5 702,-38.5 818,-38.5 818,-19.5 702,-19.5"/>
<text text-anchor="middle" x="760" y="-26.5" font-family="Helvetica,sans-Serif" font-size="10.00">Image::LoadImageData</text>
</a>
</g>
</g>
<!-- Node7&#45;&gt;Node9 -->
<g id="edge9" class="edge"><title>Node7&#45;&gt;Node9</title>
<path fill="none" stroke="midnightblue" d="M642.917,-29C658.06,-29 675.268,-29 691.71,-29"/>
<polygon fill="midnightblue" stroke="midnightblue" points="691.823,-32.5001 701.823,-29 691.823,-25.5001 691.823,-32.5001"/>
</g>
<!-- Node9&#45;&gt;Node8 -->
<g id="edge10" class="edge"><title>Node9&#45;&gt;Node8</title>
<path fill="none" stroke="midnightblue" d="M818.255,-36.4003C832.131,-38.1938 846.82,-40.0924 860.207,-41.8227"/>
<polygon fill="midnightblue" stroke="midnightblue" points="859.79,-45.2978 870.156,-43.1086 860.687,-38.3555 859.79,-45.2978"/>
</g>
<!-- Node10 -->
<g id="node10" class="node"><title>Node10</title>
<g id="a_node10"><a xlink:href="../../d7/d42/class_image_loader.html#ad346c7973ae6f1d84a8c1fc655661319" target="_top" xlink:title=" ">
<polygon fill="white" stroke="black" points="859.5,-0.5 859.5,-19.5 958.5,-19.5 958.5,-0.5 859.5,-0.5"/>
<text text-anchor="middle" x="909" y="-7.5" font-family="Helvetica,sans-Serif" font-size="10.00">ImageLoader::Load</text>
</a>
</g>
</g>
<!-- Node9&#45;&gt;Node10 -->
<g id="edge11" class="edge"><title>Node9&#45;&gt;Node10</title>
<path fill="none" stroke="midnightblue" d="M818.255,-21.5997C828.413,-20.2868 839.006,-18.9176 849.205,-17.5993"/>
<polygon fill="midnightblue" stroke="midnightblue" points="849.774,-21.055 859.243,-16.302 848.876,-14.1128 849.774,-21.055"/>
</g>
<!-- Node11&#45;&gt;Node8 -->
<g id="edge13" class="edge"><title>Node11&#45;&gt;Node8</title>
<path fill="none" stroke="midnightblue" d="M641.657,-64.2979C699.465,-60.7606 800.428,-54.5825 860.053,-50.9339"/>
<polygon fill="midnightblue" stroke="midnightblue" points="860.56,-54.4096 870.328,-50.3052 860.133,-47.4226 860.56,-54.4096"/>
</g>
<!-- Node11&#45;&gt;Node9 -->
<g id="edge14" class="edge"><title>Node11&#45;&gt;Node9</title>
<path fill="none" stroke="midnightblue" d="M638.253,-57.411C659.661,-52.3739 686.086,-46.1562 708.753,-40.8229"/>
<polygon fill="midnightblue" stroke="midnightblue" points="709.607,-44.2175 718.54,-38.5201 708.004,-37.4036 709.607,-44.2175"/>
</g>
<!-- Node12&#45;&gt;Node4 -->
<g id="edge21" class="edge"><title>Node12&#45;&gt;Node4</title>
<path fill="none" stroke="midnightblue" d="M469.52,-171.411C491.955,-166.351 519.673,-160.1 543.393,-154.751"/>
<polygon fill="midnightblue" stroke="midnightblue" points="544.301,-158.134 553.286,-152.52 542.761,-151.306 544.301,-158.134"/>
</g>
<!-- Node13 -->
<g id="node13" class="node"><title>Node13</title>
<g id="a_node13"><a xlink:href="../../d3/d39/class_g_u_i_font.html#a9fa3825419fdf34ded3536e27bccbfdf" target="_top" xlink:title=" ">
<polygon fill="white" stroke="black" points="547,-248 547,-278 646,-278 646,-248 547,-248"/>
<text text-anchor="start" x="555" y="-266" font-family="Helvetica,sans-Serif" font-size="10.00">GUIFont::AlignText</text>
<text text-anchor="middle" x="596.5" y="-255" font-family="Helvetica,sans-Serif" font-size="10.00">_Center</text>
</a>
</g>
</g>
<!-- Node12&#45;&gt;Node13 -->
<g id="edge16" class="edge"><title>Node12&#45;&gt;Node13</title>
<path fill="none" stroke="midnightblue" d="M442.339,-190.677C461.79,-202.707 496.583,-223.43 528,-238 532.56,-240.115 537.352,-242.182 542.193,-244.164"/>
<polygon fill="midnightblue" stroke="midnightblue" points="540.925,-247.427 551.511,-247.863 543.507,-240.92 540.925,-247.427"/>
</g>
<!-- Node15 -->
<g id="node15" class="node"><title>Node15</title>
<g id="a_node15"><a xlink:href="../../d3/d39/class_g_u_i_font.html#af8449e36ee49ae96e21f4406b398a010" target="_top" xlink:title=" ">
<polygon fill="white" stroke="black" points="701.5,-171.5 701.5,-190.5 818.5,-190.5 818.5,-171.5 701.5,-171.5"/>
<text text-anchor="middle" x="760" y="-178.5" font-family="Helvetica,sans-Serif" font-size="10.00">GUIFont::DrawTextLine</text>
</a>
</g>
</g>
<!-- Node12&#45;&gt;Node15 -->
<g id="edge19" class="edge"><title>Node12&#45;&gt;Node15</title>
<path fill="none" stroke="midnightblue" d="M492.196,-181C549.649,-181 633.027,-181 691.235,-181"/>
<polygon fill="midnightblue" stroke="midnightblue" points="691.437,-184.5 701.437,-181 691.437,-177.5 691.437,-184.5"/>
</g>
<!-- Node16 -->
<g id="node16" class="node"><title>Node16</title>
<g id="a_node16"><a xlink:href="../../d3/d39/class_g_u_i_font.html#a439cccf73db5fd93ffc18cbba51d07e0" target="_top" xlink:title=" ">
<polygon fill="white" stroke="black" points="545.5,-209.5 545.5,-228.5 647.5,-228.5 647.5,-209.5 545.5,-209.5"/>
<text text-anchor="middle" x="596.5" y="-216.5" font-family="Helvetica,sans-Serif" font-size="10.00">GUIFont::GetHeight</text>
</a>
</g>
</g>
<!-- Node12&#45;&gt;Node16 -->
<g id="edge22" class="edge"><title>Node12&#45;&gt;Node16</title>
<path fill="none" stroke="midnightblue" d="M469.52,-190.589C491.955,-195.649 519.673,-201.9 543.393,-207.249"/>
<polygon fill="midnightblue" stroke="midnightblue" points="542.761,-210.694 553.286,-209.48 544.301,-203.866 542.761,-210.694"/>
</g>
<!-- Node14 -->
<g id="node14" class="node"><title>Node14</title>
<g id="a_node14"><a xlink:href="../../d3/d39/class_g_u_i_font.html#abf5dc44bc1b328f80d5c7033279a4f8d" target="_top" xlink:title=" ">
<polygon fill="white" stroke="black" points="701,-231.5 701,-250.5 819,-250.5 819,-231.5 701,-231.5"/>
<text text-anchor="middle" x="760" y="-238.5" font-family="Helvetica,sans-Serif" font-size="10.00">GUIFont::GetLineWidth</text>
</a>
</g>
</g>
<!-- Node13&#45;&gt;Node14 -->
<g id="edge17" class="edge"><title>Node13&#45;&gt;Node14</title>
<path fill="none" stroke="midnightblue" d="M646.394,-256.34C660.348,-254.439 675.815,-252.332 690.703,-250.304"/>
<polygon fill="midnightblue" stroke="midnightblue" points="691.456,-253.733 700.892,-248.916 690.511,-246.798 691.456,-253.733"/>
</g>
<!-- Node14&#45;&gt;Node5 -->
<g id="edge18" class="edge"><title>Node14&#45;&gt;Node5</title>
<path fill="none" stroke="midnightblue" d="M778.732,-231.471C804.227,-217.769 851.438,-192.397 881.204,-176.401"/>
<polygon fill="midnightblue" stroke="midnightblue" points="883.054,-179.38 890.205,-171.563 879.74,-173.214 883.054,-179.38"/>
</g>
<!-- Node15&#45;&gt;Node5 -->
<g id="edge20" class="edge"><title>Node15&#45;&gt;Node5</title>
<path fill="none" stroke="midnightblue" d="M818.676,-173.545C827.233,-172.439 836.089,-171.295 844.752,-170.175"/>
<polygon fill="midnightblue" stroke="midnightblue" points="845.334,-173.629 854.803,-168.876 844.437,-166.687 845.334,-173.629"/>
</g>
</g>
</svg>
