<?xml version="1.0" encoding="UTF-8" standalone="no"?>
<!DOCTYPE svg PUBLIC "-//W3C//DTD SVG 1.1//EN"
 "http://www.w3.org/Graphics/SVG/1.1/DTD/svg11.dtd">
<!-- Generated by graphviz version 2.38.0 (20140413.2041)
 -->
<!-- Title: RenderBase::TransformBillboard Pages: 1 -->
<!--zoomable 326 -->
<svg id="main" version="1.1" xmlns="http://www.w3.org/2000/svg" xmlns:xlink="http://www.w3.org/1999/xlink" xml:space="preserve" onload="init(evt)">
<style type="text/css"><![CDATA[
.edge:hover path { stroke: red; }
.edge:hover polygon { stroke: red; fill: red; }
]]></style>
<script type="text/javascript"><![CDATA[
var edges = document.getElementsByTagName('g');
if (edges && edges.length) {
  for (var i=0;i<edges.length;i++) {
    if (edges[i].id.substr(0,4)=='edge') {
      edges[i].setAttribute('class','edge');
    }
  }
}
]]></script>
        <defs>
                <circle id="rim" cx="0" cy="0" r="7"/>
                <circle id="rim2" cx="0" cy="0" r="3.5"/>
                <g id="zoomPlus">
                        <use xlink:href="#rim" fill="#404040">
                                <set attributeName="fill" to="#808080" begin="zoomplus.mouseover" end="zoomplus.mouseout"/>
                        </use>
                        <path d="M-4,0h8M0,-4v8" fill="none" stroke="white" stroke-width="1.5" pointer-events="none"/>
                </g>
                <g id="zoomMin">
                        <use xlink:href="#rim" fill="#404040">
                                <set attributeName="fill" to="#808080" begin="zoomminus.mouseover" end="zoomminus.mouseout"/>
                        </use>
                        <path d="M-4,0h8" fill="none" stroke="white" stroke-width="1.5" pointer-events="none"/>
                </g>
                <g id="dirArrow">
                        <path fill="none" stroke="white" stroke-width="1.5" d="M0,-3.0v7 M-2.5,-0.5L0,-3.0L2.5,-0.5"/>
                </g>
               <g id="resetDef">
                       <use xlink:href="#rim2" fill="#404040">
                               <set attributeName="fill" to="#808080" begin="reset.mouseover" end="reset.mouseout"/>
                       </use>
               </g>
        </defs>

<script type="text/javascript">
var viewWidth = 638;
var viewHeight = 326;
var sectionId = 'dynsection-10';
</script>
<script xlink:href="../../svgpan.js"/>
<svg id="graph" class="graph">
<g id="viewport">
<title>RenderBase::TransformBillboard</title>
<polygon fill="white" stroke="none" points="-4,4 -4,-322.147 634,-322.147 634,4 -4,4"/>
<!-- Node1 -->
<g id="node1" class="node"><title>Node1</title>
<g id="a_node1"><a xlink:title=" ">
<polygon fill="#bfbfbf" stroke="black" points="0,-150 0,-169 156,-169 156,-150 0,-150"/>
<text text-anchor="middle" x="78" y="-157" font-family="Helvetica,sans-Serif" font-size="10.00">RenderBase::TransformBillboard</text>
</a>
</g>
</g>
<!-- Node2 -->
<g id="node2" class="node"><title>Node2</title>
<g id="a_node2"><a xlink:href="../../d9/d30/_s_d_l__assert_8h.html#afedcea68cf85ee469ab1ea390bbe0abb" target="_top" xlink:title=" ">
<polygon fill="white" stroke="black" points="542,-262 542,-281 619,-281 619,-262 542,-262"/>
<text text-anchor="middle" x="580.5" y="-269" font-family="Helvetica,sans-Serif" font-size="10.00">__debugbreak</text>
</a>
</g>
</g>
<!-- Node1&#45;&gt;Node2 -->
<g id="edge1" class="edge"><title>Node1&#45;&gt;Node2</title>
<path fill="none" stroke="midnightblue" d="M83.6222,-169.215C96.4792,-194.938 135.474,-264.609 192,-290.5 310.192,-344.636 470.429,-306.342 542.129,-284.218"/>
<polygon fill="midnightblue" stroke="midnightblue" points="543.568,-287.434 552.05,-281.085 541.46,-280.759 543.568,-287.434"/>
</g>
<!-- Node3 -->
<g id="node3" class="node"><title>Node3</title>
<g id="a_node3"><a xlink:href="../../d9/d47/class_render_base.html#a18f94bfc431e24e140d93e7521bd270a" target="_top" xlink:title=" ">
<polygon fill="white" stroke="black" points="192,-164 192,-205 343,-205 343,-164 192,-164"/>
<text text-anchor="start" x="200" y="-193" font-family="Helvetica,sans-Serif" font-size="10.00">RenderBase::Billboard</text>
<text text-anchor="start" x="200" y="-182" font-family="Helvetica,sans-Serif" font-size="10.00">_ProbablyAddToListAndSortBy</text>
<text text-anchor="middle" x="267.5" y="-171" font-family="Helvetica,sans-Serif" font-size="10.00">ZOrder</text>
</a>
</g>
</g>
<!-- Node1&#45;&gt;Node3 -->
<g id="edge2" class="edge"><title>Node1&#45;&gt;Node3</title>
<path fill="none" stroke="midnightblue" d="M150.421,-169.023C160.695,-170.393 171.348,-171.813 181.848,-173.213"/>
<polygon fill="midnightblue" stroke="midnightblue" points="181.476,-176.694 191.851,-174.547 182.401,-169.756 181.476,-176.694"/>
</g>
<!-- Node4 -->
<g id="node4" class="node"><title>Node4</title>
<g id="a_node4"><a xlink:href="../../d4/d58/_render_base_8cpp.html#a99692fd7f5691c536b66eae01c931b01" target="_top" xlink:title=" ">
<polygon fill="white" stroke="black" points="233,-126 233,-145 302,-145 302,-126 233,-126"/>
<text text-anchor="middle" x="267.5" y="-133" font-family="Helvetica,sans-Serif" font-size="10.00">BlendColors</text>
</a>
</g>
</g>
<!-- Node1&#45;&gt;Node4 -->
<g id="edge3" class="edge"><title>Node1&#45;&gt;Node4</title>
<path fill="none" stroke="midnightblue" d="M153.374,-149.98C176.815,-146.98 201.946,-143.763 222.553,-141.125"/>
<polygon fill="midnightblue" stroke="midnightblue" points="223.106,-144.583 232.581,-139.842 222.217,-137.64 223.106,-144.583"/>
</g>
<!-- Node5 -->
<g id="node5" class="node"><title>Node5</title>
<g id="a_node5"><a xlink:href="../../d9/d20/class_i_render.html#a5e9e3a3f7029d57af9557e97605b83e5" target="_top" xlink:title=" ">
<polygon fill="white" stroke="black" points="201,-88 201,-107 334,-107 334,-88 201,-88"/>
<text text-anchor="middle" x="267.5" y="-95" font-family="Helvetica,sans-Serif" font-size="10.00">IRender::GetActorTintColor</text>
</a>
</g>
</g>
<!-- Node1&#45;&gt;Node5 -->
<g id="edge4" class="edge"><title>Node1&#45;&gt;Node5</title>
<path fill="none" stroke="midnightblue" d="M101.672,-149.997C124.298,-140.723 160.182,-126.575 192,-116.5 199.69,-114.065 207.901,-111.721 215.958,-109.56"/>
<polygon fill="midnightblue" stroke="midnightblue" points="216.875,-112.938 225.664,-107.022 215.104,-106.166 216.875,-112.938"/>
</g>
<!-- Node6 -->
<g id="node6" class="node"><title>Node6</title>
<g id="a_node6"><a xlink:href="../../d9/de5/struct_indoor_camera_d3_d.html#ae44ac296d0d5225048b313e14edf7da1" target="_top" xlink:title=" ">
<polygon fill="white" stroke="black" points="193.5,-50 193.5,-69 341.5,-69 341.5,-50 193.5,-50"/>
<text text-anchor="middle" x="267.5" y="-57" font-family="Helvetica,sans-Serif" font-size="10.00">IndoorCameraD3D::GetFarClip</text>
</a>
</g>
</g>
<!-- Node1&#45;&gt;Node6 -->
<g id="edge5" class="edge"><title>Node1&#45;&gt;Node6</title>
<path fill="none" stroke="midnightblue" d="M89.3696,-149.985C108.318,-133.101 150.425,-97.8604 192,-78.5 197.067,-76.1404 202.47,-74.0444 207.963,-72.1888"/>
<polygon fill="midnightblue" stroke="midnightblue" points="209.383,-75.4126 217.895,-69.1035 207.306,-68.7277 209.383,-75.4126"/>
</g>
<!-- Node7 -->
<g id="node7" class="node"><title>Node7</title>
<g id="a_node7"><a xlink:href="../../de/d73/class_image.html#a5093fa64598a4d7e0c70d43fe67e35cd" target="_top" xlink:title=" ">
<polygon fill="white" stroke="black" points="221.5,-224 221.5,-243 313.5,-243 313.5,-224 221.5,-224"/>
<text text-anchor="middle" x="267.5" y="-231" font-family="Helvetica,sans-Serif" font-size="10.00">Image::GetHeight</text>
</a>
</g>
</g>
<!-- Node1&#45;&gt;Node7 -->
<g id="edge6" class="edge"><title>Node1&#45;&gt;Node7</title>
<path fill="none" stroke="midnightblue" d="M96.1338,-169.207C117.867,-181.196 156.765,-201.585 192,-214.5 198.721,-216.963 205.895,-219.229 213.037,-221.27"/>
<polygon fill="midnightblue" stroke="midnightblue" points="212.143,-224.654 222.712,-223.914 213.988,-217.902 212.143,-224.654"/>
</g>
<!-- Node10 -->
<g id="node10" class="node"><title>Node10</title>
<g id="a_node10"><a xlink:href="../../de/d73/class_image.html#a9241b1c53141c78273e4060a91634d47" target="_top" xlink:title=" ">
<polygon fill="white" stroke="black" points="222.5,-262 222.5,-281 312.5,-281 312.5,-262 222.5,-262"/>
<text text-anchor="middle" x="267.5" y="-269" font-family="Helvetica,sans-Serif" font-size="10.00">Image::GetWidth</text>
</a>
</g>
</g>
<!-- Node1&#45;&gt;Node10 -->
<g id="edge11" class="edge"><title>Node1&#45;&gt;Node10</title>
<path fill="none" stroke="midnightblue" d="M87.6628,-169.009C105.376,-187.864 147.808,-230.099 192,-252.5 198.466,-255.778 205.542,-258.52 212.678,-260.806"/>
<polygon fill="midnightblue" stroke="midnightblue" points="211.813,-264.2 222.394,-263.649 213.779,-257.482 211.813,-264.2"/>
</g>
<!-- Node11 -->
<g id="node11" class="node"><title>Node11</title>
<g id="a_node11"><a xlink:href="../../d1/d03/_outdoor_8cpp.html#a84d5fb801638d6a02bb9ef829cf5b5b8" target="_top" xlink:title=" ">
<polygon fill="white" stroke="black" points="213,-0.5 213,-30.5 322,-30.5 322,-0.5 213,-0.5"/>
<text text-anchor="start" x="221" y="-18.5" font-family="Helvetica,sans-Serif" font-size="10.00">sub_47C3D7_get_fog</text>
<text text-anchor="middle" x="267.5" y="-7.5" font-family="Helvetica,sans-Serif" font-size="10.00">_specular</text>
</a>
</g>
</g>
<!-- Node1&#45;&gt;Node11 -->
<g id="edge14" class="edge"><title>Node1&#45;&gt;Node11</title>
<path fill="none" stroke="midnightblue" d="M85.4847,-149.979C101.171,-127.642 143.471,-71.4351 192,-40.5 195.624,-38.19 199.484,-36.0699 203.467,-34.128"/>
<polygon fill="midnightblue" stroke="midnightblue" points="205.219,-37.1792 212.931,-29.9148 202.372,-30.7842 205.219,-37.1792"/>
</g>
<!-- Node7&#45;&gt;Node2 -->
<g id="edge7" class="edge"><title>Node7&#45;&gt;Node2</title>
<path fill="none" stroke="midnightblue" d="M313.436,-223.988C333.412,-220.222 357.278,-216.354 379,-214.5 430.369,-210.116 447.64,-194.129 495,-214.5 516.371,-223.692 511.706,-239.501 531,-252.5 533.737,-254.344 536.68,-256.049 539.714,-257.616"/>
<polygon fill="midnightblue" stroke="midnightblue" points="538.43,-260.879 548.975,-261.909 541.374,-254.528 538.43,-260.879"/>
</g>
<!-- Node8 -->
<g id="node8" class="node"><title>Node8</title>
<g id="a_node8"><a xlink:href="../../de/d73/class_image.html#a9b786ec61110907b38dda728bd281c73" target="_top" xlink:title=" ">
<polygon fill="white" stroke="black" points="379,-224 379,-243 495,-243 495,-224 379,-224"/>
<text text-anchor="middle" x="437" y="-231" font-family="Helvetica,sans-Serif" font-size="10.00">Image::LoadImageData</text>
</a>
</g>
</g>
<!-- Node7&#45;&gt;Node8 -->
<g id="edge8" class="edge"><title>Node7&#45;&gt;Node8</title>
<path fill="none" stroke="midnightblue" d="M313.828,-233.5C330.75,-233.5 350.343,-233.5 368.817,-233.5"/>
<polygon fill="midnightblue" stroke="midnightblue" points="368.941,-237 378.941,-233.5 368.941,-230 368.941,-237"/>
</g>
<!-- Node8&#45;&gt;Node2 -->
<g id="edge9" class="edge"><title>Node8&#45;&gt;Node2</title>
<path fill="none" stroke="midnightblue" d="M473.706,-243.089C491.973,-247.994 514.408,-254.02 533.911,-259.257"/>
<polygon fill="midnightblue" stroke="midnightblue" points="533.239,-262.701 543.805,-261.914 535.055,-255.94 533.239,-262.701"/>
</g>
<!-- Node9 -->
<g id="node9" class="node"><title>Node9</title>
<g id="a_node9"><a xlink:href="../../d7/d42/class_image_loader.html#ad346c7973ae6f1d84a8c1fc655661319" target="_top" xlink:title=" ">
<polygon fill="white" stroke="black" points="531,-224 531,-243 630,-243 630,-224 531,-224"/>
<text text-anchor="middle" x="580.5" y="-231" font-family="Helvetica,sans-Serif" font-size="10.00">ImageLoader::Load</text>
</a>
</g>
</g>
<!-- Node8&#45;&gt;Node9 -->
<g id="edge10" class="edge"><title>Node8&#45;&gt;Node9</title>
<path fill="none" stroke="midnightblue" d="M495.146,-233.5C503.543,-233.5 512.207,-233.5 520.638,-233.5"/>
<polygon fill="midnightblue" stroke="midnightblue" points="520.774,-237 530.774,-233.5 520.774,-230 520.774,-237"/>
</g>
<!-- Node10&#45;&gt;Node2 -->
<g id="edge12" class="edge"><title>Node10&#45;&gt;Node2</title>
<path fill="none" stroke="midnightblue" d="M312.728,-271.5C370.63,-271.5 471.754,-271.5 531.476,-271.5"/>
<polygon fill="midnightblue" stroke="midnightblue" points="531.767,-275 541.767,-271.5 531.767,-268 531.767,-275"/>
</g>
<!-- Node10&#45;&gt;Node8 -->
<g id="edge13" class="edge"><title>Node10&#45;&gt;Node8</title>
<path fill="none" stroke="midnightblue" d="M310.767,-261.911C333.07,-256.851 360.623,-250.6 384.202,-245.251"/>
<polygon fill="midnightblue" stroke="midnightblue" points="385.059,-248.646 394.037,-243.02 383.51,-241.819 385.059,-248.646"/>
</g>
</g>
</svg>
        <g id="navigator" transform="translate(0 0)" fill="#404254">
                <rect fill="#f2f5e9" fill-opacity="0.5" stroke="#606060" stroke-width=".5" x="0" y="0" width="60" height="60"/>
                <use id="zoomplus" xlink:href="#zoomPlus" x="17" y="9" onmousedown="handleZoom(evt,'in')"/>
                <use id="zoomminus" xlink:href="#zoomMin" x="42" y="9" onmousedown="handleZoom(evt,'out')"/>
                <use id="reset" xlink:href="#resetDef" x="30" y="36" onmousedown="handleReset()"/>
                <g id="arrowUp" xlink:href="#dirArrow" transform="translate(30 24)" onmousedown="handlePan(0,-1)">
                  <use xlink:href="#rim" fill="#404040">
                        <set attributeName="fill" to="#808080" begin="arrowUp.mouseover" end="arrowUp.mouseout"/>
                  </use>
                  <path fill="none" stroke="white" stroke-width="1.5" d="M0,-3.0v7 M-2.5,-0.5L0,-3.0L2.5,-0.5"/>
                </g>
                <g id="arrowRight" xlink:href="#dirArrow" transform="rotate(90) translate(36 -43)" onmousedown="handlePan(1,0)">
                  <use xlink:href="#rim" fill="#404040">
                        <set attributeName="fill" to="#808080" begin="arrowRight.mouseover" end="arrowRight.mouseout"/>
                  </use>
                  <path fill="none" stroke="white" stroke-width="1.5" d="M0,-3.0v7 M-2.5,-0.5L0,-3.0L2.5,-0.5"/>
                </g>
                <g id="arrowDown" xlink:href="#dirArrow" transform="rotate(180) translate(-30 -48)" onmousedown="handlePan(0,1)">
                  <use xlink:href="#rim" fill="#404040">
                        <set attributeName="fill" to="#808080" begin="arrowDown.mouseover" end="arrowDown.mouseout"/>
                  </use>
                  <path fill="none" stroke="white" stroke-width="1.5" d="M0,-3.0v7 M-2.5,-0.5L0,-3.0L2.5,-0.5"/>
                </g>
                <g id="arrowLeft" xlink:href="#dirArrow" transform="rotate(270) translate(-36 17)" onmousedown="handlePan(-1,0)">
                  <use xlink:href="#rim" fill="#404040">
                        <set attributeName="fill" to="#808080" begin="arrowLeft.mouseover" end="arrowLeft.mouseout"/>
                  </use>
                  <path fill="none" stroke="white" stroke-width="1.5" d="M0,-3.0v7 M-2.5,-0.5L0,-3.0L2.5,-0.5"/>
                </g>
        </g>
        <svg viewBox="0 0 15 15" width="100%" height="30px" preserveAspectRatio="xMaxYMin meet">
         <g id="arrow_out" transform="scale(0.3 0.3)">
          <a xlink:href="class_render_base_a2fffe899daa2365ffd63e61e690b4427_cgraph_org.svg" target="_base">
           <rect id="button" ry="5" rx="5" y="6" x="6" height="38" width="38"
                fill="#f2f5e9" fill-opacity="0.5" stroke="#606060" stroke-width="1.0"/>
           <path id="arrow"
             d="M 11.500037,31.436501 C 11.940474,20.09759 22.043105,11.32322 32.158766,21.979434 L 37.068811,17.246167 C 37.068811,17.246167 37.088388,32 37.088388,32 L 22.160133,31.978069 C 22.160133,31.978069 26.997745,27.140456 26.997745,27.140456 C 18.528582,18.264221 13.291696,25.230495 11.500037,31.436501 z"
             style="fill:#404040;"/>
          </a>
         </g>
        </svg>
</svg>
