<?xml version="1.0" encoding="UTF-8" standalone="no"?>
<!DOCTYPE svg PUBLIC "-//W3C//DTD SVG 1.1//EN"
 "http://www.w3.org/Graphics/SVG/1.1/DTD/svg11.dtd">
<!-- Generated by graphviz version 2.38.0 (20140413.2041)
 -->
<!-- Title: InitializeTurnBasedAnimations Pages: 1 -->
<svg width="491pt" height="127pt"
 viewBox="0.00 0.00 491.00 127.00" xmlns="http://www.w3.org/2000/svg" xmlns:xlink="http://www.w3.org/1999/xlink">
<g id="graph0" class="graph" transform="scale(1 1) rotate(0) translate(4 123)">
<title>InitializeTurnBasedAnimations</title>
<polygon fill="white" stroke="none" points="-4,4 -4,-123 487,-123 487,4 -4,4"/>
<!-- Node1 -->
<g id="node1" class="node"><title>Node1</title>
<g id="a_node1"><a xlink:title=" ">
<polygon fill="#bfbfbf" stroke="black" points="0,-50 0,-69 147,-69 147,-50 0,-50"/>
<text text-anchor="middle" x="73.5" y="-57" font-family="Helvetica,sans-Serif" font-size="10.00">InitializeTurnBasedAnimations</text>
</a>
</g>
</g>
<!-- Node2 -->
<g id="node2" class="node"><title>Node2</title>
<g id="a_node2"><a xlink:href="../../de/da7/struct_sprite_frame_table.html#aa747f09694e5f633ee156ef8de5d07f5" target="_top" xlink:title=" ">
<polygon fill="white" stroke="black" points="183,-88.5 183,-118.5 320,-118.5 320,-88.5 183,-88.5"/>
<text text-anchor="start" x="191" y="-106.5" font-family="Helvetica,sans-Serif" font-size="10.00">SpriteFrameTable::FastFind</text>
<text text-anchor="middle" x="251.5" y="-95.5" font-family="Helvetica,sans-Serif" font-size="10.00">Sprite</text>
</a>
</g>
</g>
<!-- Node1&#45;&gt;Node2 -->
<g id="edge1" class="edge"><title>Node1&#45;&gt;Node2</title>
<path fill="none" stroke="midnightblue" d="M112.689,-69.0473C132.505,-74.0012 157.345,-80.2112 180.458,-85.9895"/>
<polygon fill="midnightblue" stroke="midnightblue" points="179.688,-89.4047 190.239,-88.4346 181.386,-82.6137 179.688,-89.4047"/>
</g>
<!-- Node4 -->
<g id="node4" class="node"><title>Node4</title>
<g id="a_node4"><a xlink:href="../../d8/dc5/struct_icon_frame_table.html#a54fe662106564367c584c401dd2e2b36" target="_top" xlink:title=" ">
<polygon fill="white" stroke="black" points="187.5,-50 187.5,-69 315.5,-69 315.5,-50 187.5,-50"/>
<text text-anchor="middle" x="251.5" y="-57" font-family="Helvetica,sans-Serif" font-size="10.00">IconFrameTable::FindIcon</text>
</a>
</g>
</g>
<!-- Node1&#45;&gt;Node4 -->
<g id="edge3" class="edge"><title>Node1&#45;&gt;Node4</title>
<path fill="none" stroke="midnightblue" d="M147.102,-59.5C157.011,-59.5 167.189,-59.5 177.112,-59.5"/>
<polygon fill="midnightblue" stroke="midnightblue" points="177.339,-63.0001 187.339,-59.5 177.339,-56.0001 177.339,-63.0001"/>
</g>
<!-- Node5 -->
<g id="node5" class="node"><title>Node5</title>
<g id="a_node5"><a xlink:href="../../d8/dc5/struct_icon_frame_table.html#acfb0219e8ff236adbcb5dd63fb3a6596" target="_top" xlink:title=" ">
<polygon fill="white" stroke="black" points="188,-0.5 188,-30.5 315,-30.5 315,-0.5 188,-0.5"/>
<text text-anchor="start" x="196" y="-18.5" font-family="Helvetica,sans-Serif" font-size="10.00">IconFrameTable::Initialize</text>
<text text-anchor="middle" x="251.5" y="-7.5" font-family="Helvetica,sans-Serif" font-size="10.00">Animation</text>
</a>
</g>
</g>
<!-- Node1&#45;&gt;Node5 -->
<g id="edge4" class="edge"><title>Node1&#45;&gt;Node5</title>
<path fill="none" stroke="midnightblue" d="M112.689,-49.9527C132.505,-44.9988 157.345,-38.7888 180.458,-33.0105"/>
<polygon fill="midnightblue" stroke="midnightblue" points="181.386,-36.3863 190.239,-30.5654 179.688,-29.5953 181.386,-36.3863"/>
</g>
<!-- Node3 -->
<g id="node3" class="node"><title>Node3</title>
<g id="a_node3"><a xlink:href="../../de/da7/struct_sprite_frame_table.html#a5097f4a92066463ac557b4b1928a2181" target="_top" xlink:title=" ">
<polygon fill="white" stroke="black" points="356,-88.5 356,-118.5 483,-118.5 483,-88.5 356,-88.5"/>
<text text-anchor="start" x="364" y="-106.5" font-family="Helvetica,sans-Serif" font-size="10.00">SpriteFrameTable::Binary</text>
<text text-anchor="middle" x="419.5" y="-95.5" font-family="Helvetica,sans-Serif" font-size="10.00">Search</text>
</a>
</g>
</g>
<!-- Node2&#45;&gt;Node3 -->
<g id="edge2" class="edge"><title>Node2&#45;&gt;Node3</title>
<path fill="none" stroke="midnightblue" d="M320.019,-103.5C328.442,-103.5 337.086,-103.5 345.587,-103.5"/>
<polygon fill="midnightblue" stroke="midnightblue" points="345.861,-107 355.861,-103.5 345.861,-100 345.861,-107"/>
</g>
</g>
</svg>
