<?xml version="1.0" encoding="UTF-8" standalone="no"?>
<!DOCTYPE svg PUBLIC "-//W3C//DTD SVG 1.1//EN"
 "http://www.w3.org/Graphics/SVG/1.1/DTD/svg11.dtd">
<!-- Generated by graphviz version 2.38.0 (20140413.2041)
 -->
<!-- Title: OnMapLeave Pages: 1 -->
<svg width="1423pt" height="797pt"
 viewBox="0.00 0.00 1423.00 796.57" xmlns="http://www.w3.org/2000/svg" xmlns:xlink="http://www.w3.org/1999/xlink">
<g id="graph0" class="graph" transform="scale(1 1) rotate(0) translate(4 792.573)">
<title>OnMapLeave</title>
<polygon fill="white" stroke="none" points="-4,4 -4,-792.573 1419,-792.573 1419,4 -4,4"/>
<!-- Node1 -->
<g id="node1" class="node"><title>Node1</title>
<g id="a_node1"><a xlink:title=" ">
<polygon fill="#bfbfbf" stroke="black" points="1342,-327.573 1342,-346.573 1415,-346.573 1415,-327.573 1342,-327.573"/>
<text text-anchor="middle" x="1378.5" y="-334.573" font-family="Helvetica,sans-Serif" font-size="10.00">OnMapLeave</text>
</a>
</g>
</g>
<!-- Node2 -->
<g id="node2" class="node"><title>Node2</title>
<g id="a_node2"><a xlink:href="../../d4/d06/class_application_1_1_game.html#a3f65e3f0ef1a9114fb3dea275e52442e" target="_top" xlink:title=" ">
<polygon fill="white" stroke="black" points="485.5,-407.073 485.5,-437.073 588.5,-437.073 588.5,-407.073 485.5,-407.073"/>
<text text-anchor="start" x="493.5" y="-425.073" font-family="Helvetica,sans-Serif" font-size="10.00">Application::Game::</text>
<text text-anchor="middle" x="537" y="-414.073" font-family="Helvetica,sans-Serif" font-size="10.00">EventLoop</text>
</a>
</g>
</g>
<!-- Node1&#45;&gt;Node2 -->
<g id="edge1" class="edge"><title>Node1&#45;&gt;Node2</title>
<path fill="none" stroke="midnightblue" d="M1374.28,-356.916C1360.1,-436.603 1295.72,-729.073 1114.5,-729.073 1114.5,-729.073 1114.5,-729.073 929.5,-729.073 843.671,-729.073 663.988,-629.101 655,-621.073 594.32,-566.88 556.305,-473.502 543.165,-437.161"/>
<polygon fill="midnightblue" stroke="midnightblue" points="1377.78,-357.21 1376.01,-346.763 1370.88,-356.03 1377.78,-357.21"/>
</g>
<!-- Node6 -->
<g id="node6" class="node"><title>Node6</title>
<g id="a_node6"><a xlink:href="../../df/d62/_events_8h.html#a0240e072af574434c2024a6f164a19d1" target="_top" xlink:title=" ">
<polygon fill="white" stroke="black" points="1221,-327.573 1221,-346.573 1306,-346.573 1306,-327.573 1221,-327.573"/>
<text text-anchor="middle" x="1263.5" y="-334.573" font-family="Helvetica,sans-Serif" font-size="10.00">EventProcessor</text>
</a>
</g>
</g>
<!-- Node1&#45;&gt;Node6 -->
<g id="edge5" class="edge"><title>Node1&#45;&gt;Node6</title>
<path fill="none" stroke="midnightblue" d="M1331.72,-330.432C1323.33,-330.259 1314.61,-330.292 1306.34,-330.529"/>
<polygon fill="midnightblue" stroke="midnightblue" points="1331.64,-333.931 1341.75,-330.745 1331.86,-326.935 1331.64,-333.931"/>
</g>
<!-- Node3 -->
<g id="node3" class="node"><title>Node3</title>
<g id="a_node3"><a xlink:href="../../d4/d06/class_application_1_1_game.html#aaa0ff18388b32b4e6198835a35e000d3" target="_top" xlink:title=" ">
<polygon fill="white" stroke="black" points="316,-246.073 316,-276.073 419,-276.073 419,-246.073 316,-246.073"/>
<text text-anchor="start" x="324" y="-264.073" font-family="Helvetica,sans-Serif" font-size="10.00">Application::Game::</text>
<text text-anchor="middle" x="367.5" y="-253.073" font-family="Helvetica,sans-Serif" font-size="10.00">GameLoop</text>
</a>
</g>
</g>
<!-- Node2&#45;&gt;Node3 -->
<g id="edge2" class="edge"><title>Node2&#45;&gt;Node3</title>
<path fill="none" stroke="midnightblue" d="M512.942,-399.909C478.392,-366.701 414.08,-304.884 384.338,-276.296"/>
<polygon fill="midnightblue" stroke="midnightblue" points="510.607,-402.52 520.242,-406.926 515.458,-397.473 510.607,-402.52"/>
</g>
<!-- Node4 -->
<g id="node4" class="node"><title>Node4</title>
<g id="a_node4"><a xlink:href="../../d4/d06/class_application_1_1_game.html#a013ffd59e8fdf1c0a396da1dbe1681ca" target="_top" xlink:title=" ">
<polygon fill="white" stroke="black" points="156,-251.573 156,-270.573 280,-270.573 280,-251.573 156,-251.573"/>
<text text-anchor="middle" x="218" y="-258.573" font-family="Helvetica,sans-Serif" font-size="10.00">Application::Game::Loop</text>
</a>
</g>
</g>
<!-- Node3&#45;&gt;Node4 -->
<g id="edge3" class="edge"><title>Node3&#45;&gt;Node4</title>
<path fill="none" stroke="midnightblue" d="M305.59,-261.073C297.149,-261.073 288.478,-261.073 280.035,-261.073"/>
<polygon fill="midnightblue" stroke="midnightblue" points="305.739,-264.573 315.739,-261.073 305.739,-257.573 305.739,-264.573"/>
</g>
<!-- Node5 -->
<g id="node5" class="node"><title>Node5</title>
<g id="a_node5"><a xlink:href="../../d4/d06/class_application_1_1_game.html#a96341ca5b54d90adc3ecb3bf0bcd2312" target="_top" xlink:title=" ">
<polygon fill="white" stroke="black" points="0,-251.573 0,-270.573 120,-270.573 120,-251.573 0,-251.573"/>
<text text-anchor="middle" x="60" y="-258.573" font-family="Helvetica,sans-Serif" font-size="10.00">Application::Game::Run</text>
</a>
</g>
</g>
<!-- Node4&#45;&gt;Node5 -->
<g id="edge4" class="edge"><title>Node4&#45;&gt;Node5</title>
<path fill="none" stroke="midnightblue" d="M145.546,-261.073C137.081,-261.073 128.513,-261.073 120.244,-261.073"/>
<polygon fill="midnightblue" stroke="midnightblue" points="145.792,-264.573 155.792,-261.073 145.792,-257.573 145.792,-264.573"/>
</g>
<!-- Node6&#45;&gt;Node1 -->
<g id="edge28" class="edge"><title>Node6&#45;&gt;Node1</title>
<path fill="none" stroke="midnightblue" d="M1316.6,-343.805C1325.1,-343.875 1333.75,-343.741 1341.75,-343.401"/>
<polygon fill="midnightblue" stroke="midnightblue" points="1316.4,-340.301 1306.34,-343.617 1316.27,-347.299 1316.4,-340.301"/>
</g>
<!-- Node6&#45;&gt;Node2 -->
<g id="edge24" class="edge"><title>Node6&#45;&gt;Node2</title>
<path fill="none" stroke="midnightblue" d="M1237.5,-322.5C1222.72,-314.562 1203.35,-305.315 1185,-300.073 1071.74,-267.707 761.151,-240.01 655,-291.073 601.965,-316.585 562.397,-378.087 546.134,-406.812"/>
<polygon fill="midnightblue" stroke="midnightblue" points="1236.05,-325.699 1246.5,-327.472 1239.44,-319.572 1236.05,-325.699"/>
</g>
<!-- Node7 -->
<g id="node7" class="node"><title>Node7</title>
<g id="a_node7"><a xlink:href="../../d8/d06/namespace_cast_spell_info_helpers.html#a6fa3b22b4867c28cad6c215c646dc4aa" target="_top" xlink:title=" ">
<polygon fill="white" stroke="black" points="682,-503.073 682,-533.073 792,-533.073 792,-503.073 682,-503.073"/>
<text text-anchor="start" x="690" y="-521.073" font-family="Helvetica,sans-Serif" font-size="10.00">CastSpellInfoHelpers</text>
<text text-anchor="middle" x="737" y="-510.073" font-family="Helvetica,sans-Serif" font-size="10.00">::_427E01_cast_spell</text>
</a>
</g>
</g>
<!-- Node6&#45;&gt;Node7 -->
<g id="edge6" class="edge"><title>Node6&#45;&gt;Node7</title>
<path fill="none" stroke="midnightblue" d="M1258.9,-356.857C1251.58,-390.797 1231.55,-459.592 1185,-492.073 1123,-535.331 897.184,-527.866 792.264,-521.782"/>
<polygon fill="midnightblue" stroke="midnightblue" points="1262.38,-357.278 1260.91,-346.786 1255.52,-355.906 1262.38,-357.278"/>
</g>
<!-- Node8 -->
<g id="node8" class="node"><title>Node8</title>
<g id="a_node8"><a xlink:href="../../da/dc7/_indoor_8h.html#a07b99aba77bf867821578ea0151a2f64" target="_top" xlink:title=" ">
<polygon fill="white" stroke="black" points="864,-27.573 864,-46.573 997,-46.573 997,-27.573 864,-27.573"/>
<text text-anchor="middle" x="930.5" y="-34.573" font-family="Helvetica,sans-Serif" font-size="10.00">BLV_ProcessPartyActions</text>
</a>
</g>
</g>
<!-- Node6&#45;&gt;Node8 -->
<g id="edge8" class="edge"><title>Node6&#45;&gt;Node8</title>
<path fill="none" stroke="midnightblue" d="M1260.62,-317.18C1254.26,-254.829 1231.36,-65.2152 1185,-29.073 1116.59,24.2579 1003.35,-9.22818 954.787,-27.4959"/>
<polygon fill="midnightblue" stroke="midnightblue" points="1257.15,-317.667 1261.61,-327.275 1264.11,-316.98 1257.15,-317.667"/>
</g>
<!-- Node11 -->
<g id="node11" class="node"><title>Node11</title>
<g id="a_node11"><a xlink:href="../../df/d62/_events_8h.html#a968ca1ccd91c32205a907ec6e9cb1e37" target="_top" xlink:title=" ">
<polygon fill="white" stroke="black" points="876.5,-169.573 876.5,-188.573 984.5,-188.573 984.5,-169.573 876.5,-169.573"/>
<text text-anchor="middle" x="930.5" y="-176.573" font-family="Helvetica,sans-Serif" font-size="10.00">check_event_triggers</text>
</a>
</g>
</g>
<!-- Node6&#45;&gt;Node11 -->
<g id="edge12" class="edge"><title>Node6&#45;&gt;Node11</title>
<path fill="none" stroke="midnightblue" d="M1257.3,-317.473C1248.19,-287.395 1226.26,-230.562 1185,-204.073 1124.71,-165.367 1039.21,-165.637 984.551,-171.054"/>
<polygon fill="midnightblue" stroke="midnightblue" points="1253.98,-318.584 1260.09,-327.238 1260.71,-316.661 1253.98,-318.584"/>
</g>
<!-- Node13 -->
<g id="node13" class="node"><title>Node13</title>
<g id="a_node13"><a xlink:href="../../d5/d0b/_g_u_i_window_8h.html#ac04235ad887bb855e27dc440036a112f" target="_top" xlink:title=" ">
<polygon fill="white" stroke="black" points="696,-457.573 696,-476.573 778,-476.573 778,-457.573 696,-457.573"/>
<text text-anchor="middle" x="737" y="-464.573" font-family="Helvetica,sans-Serif" font-size="10.00">ClickNPCTopic</text>
</a>
</g>
</g>
<!-- Node6&#45;&gt;Node13 -->
<g id="edge16" class="edge"><title>Node6&#45;&gt;Node13</title>
<path fill="none" stroke="midnightblue" d="M1256.33,-356.548C1246.35,-384.347 1223.77,-434.433 1185,-456.073 1049.43,-531.739 852.862,-495.891 773.349,-476.586"/>
<polygon fill="midnightblue" stroke="midnightblue" points="1259.74,-357.368 1259.64,-346.774 1253.11,-355.119 1259.74,-357.368"/>
</g>
<!-- Node14 -->
<g id="node14" class="node"><title>Node14</title>
<g id="a_node14"><a xlink:href="../../dd/da4/_viewport_8cpp.html#ad5fd167f78f03f865122445749988f17" target="_top" xlink:title=" ">
<polygon fill="white" stroke="black" points="1059.5,-403.573 1059.5,-422.573 1167.5,-422.573 1167.5,-403.573 1059.5,-403.573"/>
<text text-anchor="middle" x="1113.5" y="-410.573" font-family="Helvetica,sans-Serif" font-size="10.00">DecorationInteraction</text>
</a>
</g>
</g>
<!-- Node6&#45;&gt;Node14 -->
<g id="edge18" class="edge"><title>Node6&#45;&gt;Node14</title>
<path fill="none" stroke="midnightblue" d="M1242.38,-352.727C1227.24,-363.962 1205.64,-378.86 1185,-389.073 1173.53,-394.75 1160.39,-399.626 1148.58,-403.471"/>
<polygon fill="midnightblue" stroke="midnightblue" points="1244.63,-355.42 1250.5,-346.599 1240.41,-349.835 1244.63,-355.42"/>
</g>
<!-- Node15 -->
<g id="node15" class="node"><title>Node15</title>
<g id="a_node15"><a xlink:href="../../da/dc7/_indoor_8h.html#a610d890adaeca99c4a4e30e2d8c78d50" target="_top" xlink:title=" ">
<polygon fill="white" stroke="black" points="865,-407.073 865,-437.073 996,-437.073 996,-407.073 865,-407.073"/>
<text text-anchor="start" x="873" y="-425.073" font-family="Helvetica,sans-Serif" font-size="10.00">DoInteractionWithTopmost</text>
<text text-anchor="middle" x="930.5" y="-414.073" font-family="Helvetica,sans-Serif" font-size="10.00">ZObject</text>
</a>
</g>
</g>
<!-- Node6&#45;&gt;Node15 -->
<g id="edge23" class="edge"><title>Node6&#45;&gt;Node15</title>
<path fill="none" stroke="midnightblue" d="M1253.72,-355.784C1241.82,-378.677 1218.16,-416.328 1185,-432.073 1119.95,-462.958 1034.59,-450.313 981.392,-437.143"/>
<polygon fill="midnightblue" stroke="midnightblue" points="1256.92,-357.222 1258.23,-346.709 1250.65,-354.109 1256.92,-357.222"/>
</g>
<!-- Node17 -->
<g id="node17" class="node"><title>Node17</title>
<g id="a_node17"><a xlink:href="../../d6/d83/struct_engine.html#aa61c335333d4fc146a9d721c2a3de07f" target="_top" xlink:title=" ">
<polygon fill="white" stroke="black" points="855,-368.573 855,-387.573 1006,-387.573 1006,-368.573 855,-368.573"/>
<text text-anchor="middle" x="930.5" y="-375.573" font-family="Helvetica,sans-Serif" font-size="10.00">Engine::OnGameViewportClick</text>
</a>
</g>
</g>
<!-- Node6&#45;&gt;Node17 -->
<g id="edge27" class="edge"><title>Node6&#45;&gt;Node17</title>
<path fill="none" stroke="midnightblue" d="M1218.64,-349.07C1207.72,-351.712 1195.99,-354.26 1185,-356.073 1125.29,-365.924 1056.88,-371.532 1006.2,-374.617"/>
<polygon fill="midnightblue" stroke="midnightblue" points="1219.54,-352.452 1228.4,-346.635 1217.85,-345.66 1219.54,-352.452"/>
</g>
<!-- Node18 -->
<g id="node18" class="node"><title>Node18</title>
<g id="a_node18"><a xlink:href="../../dc/dfb/_outdoor_8h.html#a62e44d7fd493356cb340fe1dc8fe993b" target="_top" xlink:title=" ">
<polygon fill="white" stroke="black" points="1045,-213.573 1045,-232.573 1182,-232.573 1182,-213.573 1045,-213.573"/>
<text text-anchor="middle" x="1113.5" y="-220.573" font-family="Helvetica,sans-Serif" font-size="10.00">ODM_ProcessPartyActions</text>
</a>
</g>
</g>
<!-- Node6&#45;&gt;Node18 -->
<g id="edge25" class="edge"><title>Node6&#45;&gt;Node18</title>
<path fill="none" stroke="midnightblue" d="M1251.17,-318.85C1237.71,-298.623 1213.47,-266.301 1185,-247.073 1175.89,-240.922 1165.06,-236.21 1154.65,-232.659"/>
<polygon fill="midnightblue" stroke="midnightblue" points="1248.36,-320.95 1256.72,-327.451 1254.23,-317.152 1248.36,-320.95"/>
</g>
<!-- Node19 -->
<g id="node19" class="node"><title>Node19</title>
<g id="a_node19"><a xlink:href="../../de/dcf/_engine_8h.html#a509d2bef33e8d17041d5920e9f16cb36" target="_top" xlink:title=" ">
<polygon fill="white" stroke="black" points="896,-289.573 896,-308.573 965,-308.573 965,-289.573 896,-289.573"/>
<text text-anchor="middle" x="930.5" y="-296.573" font-family="Helvetica,sans-Serif" font-size="10.00">OnMapLoad</text>
</a>
</g>
</g>
<!-- Node6&#45;&gt;Node19 -->
<g id="edge29" class="edge"><title>Node6&#45;&gt;Node19</title>
<path fill="none" stroke="midnightblue" d="M1218.97,-325.06C1207.96,-322.393 1196.1,-319.838 1185,-318.073 1106.98,-305.673 1014.13,-301.324 965.33,-299.83"/>
<polygon fill="midnightblue" stroke="midnightblue" points="1218.24,-328.488 1228.8,-327.522 1219.95,-321.697 1218.24,-328.488"/>
</g>
<!-- Node22 -->
<g id="node22" class="node"><title>Node22</title>
<g id="a_node22"><a xlink:href="../../d6/d82/_u_i_dialogue_8h.html#a0213da862a4f9421ada12d4bfff8a710" target="_top" xlink:title=" ">
<polygon fill="white" stroke="black" points="1042,-327.573 1042,-346.573 1185,-346.573 1185,-327.573 1042,-327.573"/>
<text text-anchor="middle" x="1113.5" y="-334.573" font-family="Helvetica,sans-Serif" font-size="10.00">OnSelectNPCDialogueOption</text>
</a>
</g>
</g>
<!-- Node6&#45;&gt;Node22 -->
<g id="edge35" class="edge"><title>Node6&#45;&gt;Node22</title>
<path fill="none" stroke="midnightblue" d="M1210.69,-337.073C1202.46,-337.073 1193.81,-337.073 1185.23,-337.073"/>
<polygon fill="midnightblue" stroke="midnightblue" points="1210.88,-340.573 1220.88,-337.073 1210.88,-333.573 1210.88,-340.573"/>
</g>
<!-- Node23 -->
<g id="node23" class="node"><title>Node23</title>
<g id="a_node23"><a xlink:href="../../de/dcf/_engine_8h.html#aa23f204fc47791b8d9e7e554c349eb8d" target="_top" xlink:title=" ">
<polygon fill="white" stroke="black" points="1087,-555.573 1087,-574.573 1140,-574.573 1140,-555.573 1087,-555.573"/>
<text text-anchor="middle" x="1113.5" y="-562.573" font-family="Helvetica,sans-Serif" font-size="10.00">OnTimer</text>
</a>
</g>
</g>
<!-- Node6&#45;&gt;Node23 -->
<g id="edge37" class="edge"><title>Node6&#45;&gt;Node23</title>
<path fill="none" stroke="midnightblue" d="M1260.53,-356.874C1255.49,-397.215 1238.45,-489.463 1185,-541.073 1172.91,-552.749 1154.92,-558.755 1140.14,-561.839"/>
<polygon fill="midnightblue" stroke="midnightblue" points="1264.03,-357.071 1261.68,-346.741 1257.08,-356.283 1264.03,-357.071"/>
</g>
<!-- Node26 -->
<g id="node26" class="node"><title>Node26</title>
<g id="a_node26"><a xlink:href="../../de/dcf/_engine_8h.html#ae0618476a317b2f59ef0f5694f51e00b" target="_top" xlink:title=" ">
<polygon fill="white" stroke="black" points="1077.5,-653.573 1077.5,-672.573 1149.5,-672.573 1149.5,-653.573 1077.5,-653.573"/>
<text text-anchor="middle" x="1113.5" y="-660.573" font-family="Helvetica,sans-Serif" font-size="10.00">sub_4452BB</text>
</a>
</g>
</g>
<!-- Node6&#45;&gt;Node26 -->
<g id="edge41" class="edge"><title>Node6&#45;&gt;Node26</title>
<path fill="none" stroke="midnightblue" d="M1259.27,-356.658C1251.54,-399.972 1229.2,-506.217 1185,-584.073 1168.85,-612.528 1141.07,-639.606 1125.65,-653.465"/>
<polygon fill="midnightblue" stroke="midnightblue" points="1262.76,-357.068 1261,-346.619 1255.86,-355.879 1262.76,-357.068"/>
</g>
<!-- Node31 -->
<g id="node31" class="node"><title>Node31</title>
<g id="a_node31"><a xlink:href="../../da/dc7/_indoor_8h.html#a91180cf18d91c79b7bc41c630c261cbd" target="_top" xlink:title=" ">
<polygon fill="white" stroke="black" points="1063.5,-38.573 1063.5,-57.573 1163.5,-57.573 1163.5,-38.573 1063.5,-38.573"/>
<text text-anchor="middle" x="1113.5" y="-45.573" font-family="Helvetica,sans-Serif" font-size="10.00">UpdateActors_BLV</text>
</a>
</g>
</g>
<!-- Node6&#45;&gt;Node31 -->
<g id="edge47" class="edge"><title>Node6&#45;&gt;Node31</title>
<path fill="none" stroke="midnightblue" d="M1262.98,-317.252C1263.06,-267.633 1256.13,-137.05 1185,-67.073 1179.04,-61.2054 1171.46,-57.1004 1163.5,-54.2392"/>
<polygon fill="midnightblue" stroke="midnightblue" points="1259.48,-317.509 1262.86,-327.551 1266.48,-317.594 1259.48,-317.509"/>
</g>
<!-- Node32 -->
<g id="node32" class="node"><title>Node32</title>
<g id="a_node32"><a xlink:href="../../d0/d5a/struct_sprite_object.html#a9e0d2e0c49fb02c2bf900de59aecff85" target="_top" xlink:title=" ">
<polygon fill="white" stroke="black" points="1045.5,-77.073 1045.5,-107.073 1181.5,-107.073 1181.5,-77.073 1045.5,-77.073"/>
<text text-anchor="start" x="1053.5" y="-95.073" font-family="Helvetica,sans-Serif" font-size="10.00">SpriteObject::UpdateObject</text>
<text text-anchor="middle" x="1113.5" y="-84.073" font-family="Helvetica,sans-Serif" font-size="10.00">_fn0_BLV</text>
</a>
</g>
</g>
<!-- Node6&#45;&gt;Node32 -->
<g id="edge49" class="edge"><title>Node6&#45;&gt;Node32</title>
<path fill="none" stroke="midnightblue" d="M1261.22,-317.409C1257.39,-274.746 1242.41,-172.959 1185,-116.073 1181.51,-112.615 1177.5,-109.654 1173.21,-107.12"/>
<polygon fill="midnightblue" stroke="midnightblue" points="1257.75,-317.876 1262.02,-327.572 1264.72,-317.329 1257.75,-317.876"/>
</g>
<!-- Node34 -->
<g id="node34" class="node"><title>Node34</title>
<g id="a_node34"><a xlink:href="../../d0/d5a/struct_sprite_object.html#a950e5cedc1e8cfc98d77ba9b3f91071f" target="_top" xlink:title=" ">
<polygon fill="white" stroke="black" points="1045.5,-126.073 1045.5,-156.073 1181.5,-156.073 1181.5,-126.073 1045.5,-126.073"/>
<text text-anchor="start" x="1053.5" y="-144.073" font-family="Helvetica,sans-Serif" font-size="10.00">SpriteObject::UpdateObject</text>
<text text-anchor="middle" x="1113.5" y="-133.073" font-family="Helvetica,sans-Serif" font-size="10.00">_fn0_ODM</text>
</a>
</g>
</g>
<!-- Node6&#45;&gt;Node34 -->
<g id="edge53" class="edge"><title>Node6&#45;&gt;Node34</title>
<path fill="none" stroke="midnightblue" d="M1258.19,-317.318C1249.8,-283.17 1228.16,-212.768 1185,-171.073 1178.78,-165.066 1171.18,-160.175 1163.29,-156.221"/>
<polygon fill="midnightblue" stroke="midnightblue" points="1254.87,-318.47 1260.55,-327.415 1261.69,-316.882 1254.87,-318.47"/>
</g>
<!-- Node7&#45;&gt;Node2 -->
<g id="edge7" class="edge"><title>Node7&#45;&gt;Node2</title>
<path fill="none" stroke="midnightblue" d="M685.239,-499.14C675.123,-495.054 664.648,-490.596 655,-486.073 622.716,-470.938 586.934,-450.852 563.546,-437.249"/>
<polygon fill="midnightblue" stroke="midnightblue" points="684.202,-502.495 694.788,-502.934 686.786,-495.989 684.202,-502.495"/>
</g>
<!-- Node9 -->
<g id="node9" class="node"><title>Node9</title>
<g id="a_node9"><a xlink:href="../../da/dc7/_indoor_8h.html#a7d511837933d59eeeccfc25275a366d8" target="_top" xlink:title=" ">
<polygon fill="white" stroke="black" points="660,-131.573 660,-150.573 814,-150.573 814,-131.573 660,-131.573"/>
<text text-anchor="middle" x="737" y="-138.573" font-family="Helvetica,sans-Serif" font-size="10.00">BLV_UpdateUserInputAndOther</text>
</a>
</g>
</g>
<!-- Node8&#45;&gt;Node9 -->
<g id="edge9" class="edge"><title>Node8&#45;&gt;Node9</title>
<path fill="none" stroke="midnightblue" d="M882.977,-49.7735C873.52,-52.9859 863.784,-56.7677 855,-61.073 813.46,-81.4319 769.833,-115.033 749.587,-131.447"/>
<polygon fill="midnightblue" stroke="midnightblue" points="884.243,-53.0426 892.68,-46.634 882.088,-46.3826 884.243,-53.0426"/>
</g>
<!-- Node10 -->
<g id="node10" class="node"><title>Node10</title>
<g id="a_node10"><a xlink:href="../../de/dcf/_engine_8h.html#a73fe5e8d7dc6ec78e5cc180d1915341b" target="_top" xlink:title=" ">
<polygon fill="white" stroke="black" points="482,-164.073 482,-194.073 592,-194.073 592,-164.073 482,-164.073"/>
<text text-anchor="start" x="490" y="-182.073" font-family="Helvetica,sans-Serif" font-size="10.00">UpdateUserInput_and</text>
<text text-anchor="middle" x="537" y="-171.073" font-family="Helvetica,sans-Serif" font-size="10.00">_MapSpecificStuff</text>
</a>
</g>
</g>
<!-- Node9&#45;&gt;Node10 -->
<g id="edge10" class="edge"><title>Node9&#45;&gt;Node10</title>
<path fill="none" stroke="midnightblue" d="M676.295,-152.531C649.577,-157.659 618.299,-163.662 592.255,-168.66"/>
<polygon fill="midnightblue" stroke="midnightblue" points="677.131,-155.935 686.292,-150.613 675.811,-149.061 677.131,-155.935"/>
</g>
<!-- Node10&#45;&gt;Node3 -->
<g id="edge11" class="edge"><title>Node10&#45;&gt;Node3</title>
<path fill="none" stroke="midnightblue" d="M481.254,-197.761C472.361,-201.248 463.338,-205.066 455,-209.073 432.416,-219.926 408.072,-234.88 390.982,-245.966"/>
<polygon fill="midnightblue" stroke="midnightblue" points="482.72,-200.948 490.815,-194.114 480.225,-194.408 482.72,-200.948"/>
</g>
<!-- Node11&#45;&gt;Node9 -->
<g id="edge13" class="edge"><title>Node11&#45;&gt;Node9</title>
<path fill="none" stroke="midnightblue" d="M871.354,-167.535C844.041,-162.115 811.874,-155.732 785.976,-150.593"/>
<polygon fill="midnightblue" stroke="midnightblue" points="870.686,-170.971 881.176,-169.484 872.049,-164.104 870.686,-170.971"/>
</g>
<!-- Node12 -->
<g id="node12" class="node"><title>Node12</title>
<g id="a_node12"><a xlink:href="../../dc/dfb/_outdoor_8h.html#aeedbd3470634fbb22ebda28d2f8006e4" target="_top" xlink:title=" ">
<polygon fill="white" stroke="black" points="658,-169.573 658,-188.573 816,-188.573 816,-169.573 658,-169.573"/>
<text text-anchor="middle" x="737" y="-176.573" font-family="Helvetica,sans-Serif" font-size="10.00">ODM_UpdateUserInputAndOther</text>
</a>
</g>
</g>
<!-- Node11&#45;&gt;Node12 -->
<g id="edge14" class="edge"><title>Node11&#45;&gt;Node12</title>
<path fill="none" stroke="midnightblue" d="M866.147,-179.073C850.197,-179.073 832.887,-179.073 816.3,-179.073"/>
<polygon fill="midnightblue" stroke="midnightblue" points="866.411,-182.573 876.411,-179.073 866.411,-175.573 866.411,-182.573"/>
</g>
<!-- Node12&#45;&gt;Node10 -->
<g id="edge15" class="edge"><title>Node12&#45;&gt;Node10</title>
<path fill="none" stroke="midnightblue" d="M647.633,-179.073C628.756,-179.073 609.356,-179.073 592.223,-179.073"/>
<polygon fill="midnightblue" stroke="midnightblue" points="647.745,-182.573 657.745,-179.073 647.745,-175.573 647.745,-182.573"/>
</g>
<!-- Node13&#45;&gt;Node2 -->
<g id="edge17" class="edge"><title>Node13&#45;&gt;Node2</title>
<path fill="none" stroke="midnightblue" d="M686.147,-455.743C656.325,-448.965 618.531,-440.375 588.58,-433.568"/>
<polygon fill="midnightblue" stroke="midnightblue" points="685.405,-459.163 695.932,-457.967 686.956,-452.337 685.405,-459.163"/>
</g>
<!-- Node14&#45;&gt;Node15 -->
<g id="edge19" class="edge"><title>Node14&#45;&gt;Node15</title>
<path fill="none" stroke="midnightblue" d="M1048.78,-416.241C1031.77,-417.087 1013.37,-418.002 996.294,-418.851"/>
<polygon fill="midnightblue" stroke="midnightblue" points="1049.36,-419.717 1059.17,-415.725 1049.01,-412.726 1049.36,-419.717"/>
</g>
<!-- Node14&#45;&gt;Node17 -->
<g id="edge22" class="edge"><title>Node14&#45;&gt;Node17</title>
<path fill="none" stroke="midnightblue" d="M1052.91,-401.55C1029.58,-397.039 1003.14,-391.926 980.899,-387.625"/>
<polygon fill="midnightblue" stroke="midnightblue" points="1052.56,-405.047 1063.04,-403.509 1053.89,-398.174 1052.56,-405.047"/>
</g>
<!-- Node16 -->
<g id="node16" class="node"><title>Node16</title>
<g id="a_node16"><a xlink:href="../../d4/d06/class_application_1_1_game.html#abdee85389dd132c251e41e1b953b5ced" target="_top" xlink:title=" ">
<polygon fill="white" stroke="black" points="685.5,-407.073 685.5,-437.073 788.5,-437.073 788.5,-407.073 685.5,-407.073"/>
<text text-anchor="start" x="693.5" y="-425.073" font-family="Helvetica,sans-Serif" font-size="10.00">Application::Game::</text>
<text text-anchor="middle" x="737" y="-414.073" font-family="Helvetica,sans-Serif" font-size="10.00">OnPressSpace</text>
</a>
</g>
</g>
<!-- Node15&#45;&gt;Node16 -->
<g id="edge20" class="edge"><title>Node15&#45;&gt;Node16</title>
<path fill="none" stroke="midnightblue" d="M854.878,-422.073C832.709,-422.073 808.949,-422.073 788.68,-422.073"/>
<polygon fill="midnightblue" stroke="midnightblue" points="854.934,-425.573 864.934,-422.073 854.934,-418.573 854.934,-425.573"/>
</g>
<!-- Node16&#45;&gt;Node2 -->
<g id="edge21" class="edge"><title>Node16&#45;&gt;Node2</title>
<path fill="none" stroke="midnightblue" d="M674.909,-422.073C647.231,-422.073 614.895,-422.073 588.601,-422.073"/>
<polygon fill="midnightblue" stroke="midnightblue" points="675.267,-425.573 685.267,-422.073 675.267,-418.573 675.267,-425.573"/>
</g>
<!-- Node18&#45;&gt;Node12 -->
<g id="edge26" class="edge"><title>Node18&#45;&gt;Node12</title>
<path fill="none" stroke="midnightblue" d="M1034.87,-216.844C983.69,-212.415 915.237,-205.88 855,-198.073 834.388,-195.402 811.829,-191.881 792.067,-188.596"/>
<polygon fill="midnightblue" stroke="midnightblue" points="1034.6,-220.334 1044.87,-217.701 1035.2,-213.359 1034.6,-220.334"/>
</g>
<!-- Node19&#45;&gt;Node2 -->
<g id="edge34" class="edge"><title>Node19&#45;&gt;Node2</title>
<path fill="none" stroke="midnightblue" d="M885.631,-295.484C829.798,-292.619 731.428,-293.359 655,-325.073 610.645,-343.478 570.222,-384.74 550.558,-407.057"/>
<polygon fill="midnightblue" stroke="midnightblue" points="885.694,-298.993 895.879,-296.075 886.098,-292.005 885.694,-298.993"/>
</g>
<!-- Node20 -->
<g id="node20" class="node"><title>Node20</title>
<g id="a_node20"><a xlink:href="../../de/dcf/_engine_8h.html#a7ac85aa3f91f16b9f3007f4d7f1b419a" target="_top" xlink:title=" ">
<polygon fill="white" stroke="black" points="693,-213.573 693,-232.573 781,-232.573 781,-213.573 693,-213.573"/>
<text text-anchor="middle" x="737" y="-220.573" font-family="Helvetica,sans-Serif" font-size="10.00">DoPrepareWorld</text>
</a>
</g>
</g>
<!-- Node19&#45;&gt;Node20 -->
<g id="edge30" class="edge"><title>Node19&#45;&gt;Node20</title>
<path fill="none" stroke="midnightblue" d="M895.555,-285.601C857.207,-270.382 795.763,-245.997 762.057,-232.62"/>
<polygon fill="midnightblue" stroke="midnightblue" points="894.661,-289.012 905.246,-289.448 897.243,-282.505 894.661,-289.012"/>
</g>
<!-- Node20&#45;&gt;Node3 -->
<g id="edge31" class="edge"><title>Node20&#45;&gt;Node3</title>
<path fill="none" stroke="midnightblue" d="M682.786,-224.317C626.091,-226.19 533.834,-230.813 455,-242.073 443.28,-243.747 430.785,-246.133 419.041,-248.651"/>
<polygon fill="midnightblue" stroke="midnightblue" points="683.062,-227.81 692.947,-223.998 682.842,-220.813 683.062,-227.81"/>
</g>
<!-- Node21 -->
<g id="node21" class="node"><title>Node21</title>
<g id="a_node21"><a xlink:href="../../de/dcf/_engine_8h.html#a287d13406d42b0831d9eb7a64d368202" target="_top" xlink:title=" ">
<polygon fill="white" stroke="black" points="499,-251.573 499,-270.573 575,-270.573 575,-251.573 499,-251.573"/>
<text text-anchor="middle" x="537" y="-258.573" font-family="Helvetica,sans-Serif" font-size="10.00">PrepareWorld</text>
</a>
</g>
</g>
<!-- Node20&#45;&gt;Node21 -->
<g id="edge32" class="edge"><title>Node20&#45;&gt;Node21</title>
<path fill="none" stroke="midnightblue" d="M682.314,-233.376C648.321,-239.9 605.239,-248.169 575.031,-253.966"/>
<polygon fill="midnightblue" stroke="midnightblue" points="683.387,-236.734 692.548,-231.412 682.068,-229.86 683.387,-236.734"/>
</g>
<!-- Node21&#45;&gt;Node3 -->
<g id="edge33" class="edge"><title>Node21&#45;&gt;Node3</title>
<path fill="none" stroke="midnightblue" d="M488.557,-261.073C466.912,-261.073 441.255,-261.073 419.228,-261.073"/>
<polygon fill="midnightblue" stroke="midnightblue" points="488.826,-264.573 498.826,-261.073 488.826,-257.573 488.826,-264.573"/>
</g>
<!-- Node22&#45;&gt;Node2 -->
<g id="edge36" class="edge"><title>Node22&#45;&gt;Node2</title>
<path fill="none" stroke="midnightblue" d="M1031.52,-341.855C980.686,-345.385 913.843,-350.991 855,-359.073 765.362,-371.385 743.691,-379.174 655,-397.073 633.214,-401.47 609.2,-406.558 588.627,-410.993"/>
<polygon fill="midnightblue" stroke="midnightblue" points="1032.05,-345.327 1041.79,-341.155 1031.58,-338.343 1032.05,-345.327"/>
</g>
<!-- Node23&#45;&gt;Node3 -->
<g id="edge38" class="edge"><title>Node23&#45;&gt;Node3</title>
<path fill="none" stroke="midnightblue" d="M1077.09,-574.459C998.83,-593.521 806.085,-631.139 655,-584.073 551.892,-551.953 524.745,-528.527 455,-446.073 409.319,-392.068 382.304,-309.884 372.605,-276.238"/>
<polygon fill="midnightblue" stroke="midnightblue" points="1078.07,-577.823 1086.93,-572.013 1076.38,-571.03 1078.07,-577.823"/>
</g>
<!-- Node24 -->
<g id="node24" class="node"><title>Node24</title>
<g id="a_node24"><a xlink:href="../../d6/d83/struct_engine.html#ae384c8c86225ff402d4540706340f820" target="_top" xlink:title=" ">
<polygon fill="white" stroke="black" points="873,-555.573 873,-574.573 988,-574.573 988,-555.573 873,-555.573"/>
<text text-anchor="middle" x="930.5" y="-562.573" font-family="Helvetica,sans-Serif" font-size="10.00">Engine::MM7_Initialize</text>
</a>
</g>
</g>
<!-- Node23&#45;&gt;Node24 -->
<g id="edge39" class="edge"><title>Node23&#45;&gt;Node24</title>
<path fill="none" stroke="midnightblue" d="M1076.74,-565.073C1051.5,-565.073 1017.18,-565.073 988.232,-565.073"/>
<polygon fill="midnightblue" stroke="midnightblue" points="1076.95,-568.573 1086.95,-565.073 1076.95,-561.573 1076.95,-568.573"/>
</g>
<!-- Node25 -->
<g id="node25" class="node"><title>Node25</title>
<g id="a_node25"><a xlink:href="../../d6/d83/struct_engine.html#a4e6fbae6c087bbfa2b1e20f11c46460d" target="_top" xlink:title=" ">
<polygon fill="white" stroke="black" points="693,-555.573 693,-574.573 781,-574.573 781,-555.573 693,-555.573"/>
<text text-anchor="middle" x="737" y="-562.573" font-family="Helvetica,sans-Serif" font-size="10.00">Engine::Initialize</text>
</a>
</g>
</g>
<!-- Node24&#45;&gt;Node25 -->
<g id="edge40" class="edge"><title>Node24&#45;&gt;Node25</title>
<path fill="none" stroke="midnightblue" d="M862.644,-565.073C835.603,-565.073 805.17,-565.073 781.145,-565.073"/>
<polygon fill="midnightblue" stroke="midnightblue" points="862.821,-568.573 872.821,-565.073 862.821,-561.573 862.821,-568.573"/>
</g>
<!-- Node26&#45;&gt;Node2 -->
<g id="edge42" class="edge"><title>Node26&#45;&gt;Node2</title>
<path fill="none" stroke="midnightblue" d="M1067.21,-659.597C965.713,-651.124 723.592,-626.9 655,-584.073 596.438,-547.508 558.223,-469.9 544.108,-437.152"/>
<polygon fill="midnightblue" stroke="midnightblue" points="1067.19,-663.107 1077.44,-660.437 1067.76,-656.13 1067.19,-663.107"/>
</g>
<!-- Node27 -->
<g id="node27" class="node"><title>Node27</title>
<g id="a_node27"><a xlink:href="../../d7/dc5/class_mouse.html#ae90d9b5b37b0f4612f6225982e1da13e" target="_top" xlink:title=" ">
<polygon fill="white" stroke="black" points="857.5,-760.573 857.5,-779.573 1003.5,-779.573 1003.5,-760.573 857.5,-760.573"/>
<text text-anchor="middle" x="930.5" y="-767.573" font-family="Helvetica,sans-Serif" font-size="10.00">Mouse::UI_OnMouseLeftClick</text>
</a>
</g>
</g>
<!-- Node26&#45;&gt;Node27 -->
<g id="edge43" class="edge"><title>Node26&#45;&gt;Node27</title>
<path fill="none" stroke="midnightblue" d="M1087.26,-677.995C1049.49,-700.321 979.347,-741.788 947.714,-760.488"/>
<polygon fill="midnightblue" stroke="midnightblue" points="1089.29,-680.859 1096.12,-672.757 1085.73,-674.833 1089.29,-680.859"/>
</g>
<!-- Node30 -->
<g id="node30" class="node"><title>Node30</title>
<g id="a_node30"><a xlink:href="../../d9/d04/class_g_u_i_window___generic_dialogue.html#ab245a574a57ec2a498aa9d5823b37bc3" target="_top" xlink:title=" ">
<polygon fill="white" stroke="black" points="858.5,-670.073 858.5,-700.073 1002.5,-700.073 1002.5,-670.073 858.5,-670.073"/>
<text text-anchor="start" x="866.5" y="-688.073" font-family="Helvetica,sans-Serif" font-size="10.00">GUIWindow_GenericDialogue</text>
<text text-anchor="middle" x="930.5" y="-677.073" font-family="Helvetica,sans-Serif" font-size="10.00">::Update</text>
</a>
</g>
</g>
<!-- Node26&#45;&gt;Node30 -->
<g id="edge46" class="edge"><title>Node26&#45;&gt;Node30</title>
<path fill="none" stroke="midnightblue" d="M1067.06,-668.596C1047.58,-670.963 1024.36,-673.786 1002.69,-676.42"/>
<polygon fill="midnightblue" stroke="midnightblue" points="1067.67,-672.048 1077.17,-667.367 1066.82,-665.099 1067.67,-672.048"/>
</g>
<!-- Node28 -->
<g id="node28" class="node"><title>Node28</title>
<g id="a_node28"><a xlink:href="../../dc/d12/class_application_1_1_game_window_handler.html#af9a37c1601da3c213099e219685bdcd8" target="_top" xlink:title=" ">
<polygon fill="white" stroke="black" points="655,-758.073 655,-788.073 819,-788.073 819,-758.073 655,-758.073"/>
<text text-anchor="start" x="663" y="-776.073" font-family="Helvetica,sans-Serif" font-size="10.00">Application::GameWindowHandler</text>
<text text-anchor="middle" x="737" y="-765.073" font-family="Helvetica,sans-Serif" font-size="10.00">::OnMouseLeftClick</text>
</a>
</g>
</g>
<!-- Node27&#45;&gt;Node28 -->
<g id="edge44" class="edge"><title>Node27&#45;&gt;Node28</title>
<path fill="none" stroke="midnightblue" d="M847.301,-771.361C837.938,-771.507 828.398,-771.657 819.05,-771.803"/>
<polygon fill="midnightblue" stroke="midnightblue" points="847.431,-774.859 857.375,-771.203 847.321,-767.86 847.431,-774.859"/>
</g>
<!-- Node29 -->
<g id="node29" class="node"><title>Node29</title>
<g id="a_node29"><a xlink:href="../../dc/d12/class_application_1_1_game_window_handler.html#a2df0d1231e06d8ed14b7927e0ad21637" target="_top" xlink:title=" ">
<polygon fill="white" stroke="black" points="455,-758.073 455,-788.073 619,-788.073 619,-758.073 455,-758.073"/>
<text text-anchor="start" x="463" y="-776.073" font-family="Helvetica,sans-Serif" font-size="10.00">Application::GameWindowHandler</text>
<text text-anchor="middle" x="537" y="-765.073" font-family="Helvetica,sans-Serif" font-size="10.00">::OnMouseLeftDoubleClick</text>
</a>
</g>
</g>
<!-- Node28&#45;&gt;Node29 -->
<g id="edge45" class="edge"><title>Node28&#45;&gt;Node29</title>
<path fill="none" stroke="midnightblue" d="M644.637,-773.073C636.183,-773.073 627.654,-773.073 619.3,-773.073"/>
<polygon fill="midnightblue" stroke="midnightblue" points="644.895,-776.573 654.895,-773.073 644.894,-769.573 644.895,-776.573"/>
</g>
<!-- Node31&#45;&gt;Node9 -->
<g id="edge48" class="edge"><title>Node31&#45;&gt;Node9</title>
<path fill="none" stroke="midnightblue" d="M1064.47,-59.9991C989.215,-78.6885 845.002,-114.501 776.264,-131.571"/>
<polygon fill="midnightblue" stroke="midnightblue" points="1065.32,-63.3956 1074.18,-57.5885 1063.63,-56.6019 1065.32,-63.3956"/>
</g>
<!-- Node33 -->
<g id="node33" class="node"><title>Node33</title>
<g id="a_node33"><a xlink:href="../../da/d20/_i_render_8h.html#a522912d67446895b0a03d01837b75a99" target="_top" xlink:title=" ">
<polygon fill="white" stroke="black" points="890,-131.573 890,-150.573 971,-150.573 971,-131.573 890,-131.573"/>
<text text-anchor="middle" x="930.5" y="-138.573" font-family="Helvetica,sans-Serif" font-size="10.00">UpdateObjects</text>
</a>
</g>
</g>
<!-- Node32&#45;&gt;Node33 -->
<g id="edge50" class="edge"><title>Node32&#45;&gt;Node33</title>
<path fill="none" stroke="midnightblue" d="M1046.89,-109.836C1019.75,-117.183 989.37,-125.407 966.599,-131.571"/>
<polygon fill="midnightblue" stroke="midnightblue" points="1047.98,-113.166 1056.72,-107.174 1046.15,-106.409 1047.98,-113.166"/>
</g>
<!-- Node33&#45;&gt;Node9 -->
<g id="edge51" class="edge"><title>Node33&#45;&gt;Node9</title>
<path fill="none" stroke="midnightblue" d="M879.691,-141.073C859.654,-141.073 836.101,-141.073 814.013,-141.073"/>
<polygon fill="midnightblue" stroke="midnightblue" points="879.821,-144.573 889.821,-141.073 879.821,-137.573 879.821,-144.573"/>
</g>
<!-- Node33&#45;&gt;Node12 -->
<g id="edge52" class="edge"><title>Node33&#45;&gt;Node12</title>
<path fill="none" stroke="midnightblue" d="M879.932,-150.909C851.033,-156.643 814.754,-163.842 786.109,-169.526"/>
<polygon fill="midnightblue" stroke="midnightblue" points="880.694,-154.326 889.821,-148.947 879.331,-147.46 880.694,-154.326"/>
</g>
<!-- Node34&#45;&gt;Node33 -->
<g id="edge54" class="edge"><title>Node34&#45;&gt;Node33</title>
<path fill="none" stroke="midnightblue" d="M1035.3,-141.073C1013.21,-141.073 990.031,-141.073 971.197,-141.073"/>
<polygon fill="midnightblue" stroke="midnightblue" points="1035.36,-144.573 1045.36,-141.073 1035.36,-137.573 1035.36,-144.573"/>
</g>
</g>
</svg>
