<?xml version="1.0" encoding="UTF-8" standalone="no"?>
<!DOCTYPE svg PUBLIC "-//W3C//DTD SVG 1.1//EN"
 "http://www.w3.org/Graphics/SVG/1.1/DTD/svg11.dtd">
<!-- Generated by graphviz version 2.38.0 (20140413.2041)
 -->
<!-- Title: sub_4452BB Pages: 1 -->
<svg width="818pt" height="130pt"
 viewBox="0.00 0.00 818.00 130.00" xmlns="http://www.w3.org/2000/svg" xmlns:xlink="http://www.w3.org/1999/xlink">
<g id="graph0" class="graph" transform="scale(1 1) rotate(0) translate(4 126)">
<title>sub_4452BB</title>
<polygon fill="white" stroke="none" points="-4,4 -4,-126 814,-126 814,4 -4,4"/>
<!-- Node1 -->
<g id="node1" class="node"><title>Node1</title>
<g id="a_node1"><a xlink:title=" ">
<polygon fill="#bfbfbf" stroke="black" points="738,-50 738,-69 810,-69 810,-50 738,-50"/>
<text text-anchor="middle" x="774" y="-57" font-family="Helvetica,sans-Serif" font-size="10.00">sub_4452BB</text>
</a>
</g>
</g>
<!-- Node2 -->
<g id="node2" class="node"><title>Node2</title>
<g id="a_node2"><a xlink:href="../../d4/d06/class_application_1_1_game.html#a3f65e3f0ef1a9114fb3dea275e52442e" target="_top" xlink:title=" ">
<polygon fill="white" stroke="black" points="577.5,-89.5 577.5,-119.5 680.5,-119.5 680.5,-89.5 577.5,-89.5"/>
<text text-anchor="start" x="585.5" y="-107.5" font-family="Helvetica,sans-Serif" font-size="10.00">Application::Game::</text>
<text text-anchor="middle" x="629" y="-96.5" font-family="Helvetica,sans-Serif" font-size="10.00">EventLoop</text>
</a>
</g>
</g>
<!-- Node1&#45;&gt;Node2 -->
<g id="edge1" class="edge"><title>Node1&#45;&gt;Node2</title>
<path fill="none" stroke="midnightblue" d="M732.964,-72.0987C715.814,-77.4955 695.648,-83.8416 677.729,-89.4805"/>
<polygon fill="midnightblue" stroke="midnightblue" points="734.185,-75.3837 742.673,-69.0433 732.084,-68.7065 734.185,-75.3837"/>
</g>
<!-- Node6 -->
<g id="node6" class="node"><title>Node6</title>
<g id="a_node6"><a xlink:href="../../d7/dc5/class_mouse.html#ae90d9b5b37b0f4612f6225982e1da13e" target="_top" xlink:title=" ">
<polygon fill="white" stroke="black" points="556,-50 556,-69 702,-69 702,-50 556,-50"/>
<text text-anchor="middle" x="629" y="-57" font-family="Helvetica,sans-Serif" font-size="10.00">Mouse::UI_OnMouseLeftClick</text>
</a>
</g>
</g>
<!-- Node1&#45;&gt;Node6 -->
<g id="edge5" class="edge"><title>Node1&#45;&gt;Node6</title>
<path fill="none" stroke="midnightblue" d="M727.643,-59.5C719.489,-59.5 710.809,-59.5 702.117,-59.5"/>
<polygon fill="midnightblue" stroke="midnightblue" points="727.652,-63.0001 737.652,-59.5 727.652,-56.0001 727.652,-63.0001"/>
</g>
<!-- Node9 -->
<g id="node9" class="node"><title>Node9</title>
<g id="a_node9"><a xlink:href="../../d9/d04/class_g_u_i_window___generic_dialogue.html#ab245a574a57ec2a498aa9d5823b37bc3" target="_top" xlink:title=" ">
<polygon fill="white" stroke="black" points="557,-0.5 557,-30.5 701,-30.5 701,-0.5 557,-0.5"/>
<text text-anchor="start" x="565" y="-18.5" font-family="Helvetica,sans-Serif" font-size="10.00">GUIWindow_GenericDialogue</text>
<text text-anchor="middle" x="629" y="-7.5" font-family="Helvetica,sans-Serif" font-size="10.00">::Update</text>
</a>
</g>
</g>
<!-- Node1&#45;&gt;Node9 -->
<g id="edge8" class="edge"><title>Node1&#45;&gt;Node9</title>
<path fill="none" stroke="midnightblue" d="M732.053,-46.9008C715.497,-41.8069 696.251,-35.8849 678.962,-30.5654"/>
<polygon fill="midnightblue" stroke="midnightblue" points="731.384,-50.357 741.971,-49.9527 733.443,-43.6665 731.384,-50.357"/>
</g>
<!-- Node3 -->
<g id="node3" class="node"><title>Node3</title>
<g id="a_node3"><a xlink:href="../../d4/d06/class_application_1_1_game.html#aaa0ff18388b32b4e6198835a35e000d3" target="_top" xlink:title=" ">
<polygon fill="white" stroke="black" points="386.5,-91.5 386.5,-121.5 489.5,-121.5 489.5,-91.5 386.5,-91.5"/>
<text text-anchor="start" x="394.5" y="-109.5" font-family="Helvetica,sans-Serif" font-size="10.00">Application::Game::</text>
<text text-anchor="middle" x="438" y="-98.5" font-family="Helvetica,sans-Serif" font-size="10.00">GameLoop</text>
</a>
</g>
</g>
<!-- Node2&#45;&gt;Node3 -->
<g id="edge2" class="edge"><title>Node2&#45;&gt;Node3</title>
<path fill="none" stroke="midnightblue" d="M567.25,-105.143C542.258,-105.407 513.641,-105.71 489.788,-105.963"/>
<polygon fill="midnightblue" stroke="midnightblue" points="567.389,-108.642 577.351,-105.036 567.315,-101.642 567.389,-108.642"/>
</g>
<!-- Node4 -->
<g id="node4" class="node"><title>Node4</title>
<g id="a_node4"><a xlink:href="../../d4/d06/class_application_1_1_game.html#a013ffd59e8fdf1c0a396da1dbe1681ca" target="_top" xlink:title=" ">
<polygon fill="white" stroke="black" points="176,-97 176,-116 300,-116 300,-97 176,-97"/>
<text text-anchor="middle" x="238" y="-104" font-family="Helvetica,sans-Serif" font-size="10.00">Application::Game::Loop</text>
</a>
</g>
</g>
<!-- Node3&#45;&gt;Node4 -->
<g id="edge3" class="edge"><title>Node3&#45;&gt;Node4</title>
<path fill="none" stroke="midnightblue" d="M376.168,-106.5C352.044,-106.5 324.35,-106.5 300.191,-106.5"/>
<polygon fill="midnightblue" stroke="midnightblue" points="376.267,-110 386.267,-106.5 376.267,-103 376.267,-110"/>
</g>
<!-- Node5 -->
<g id="node5" class="node"><title>Node5</title>
<g id="a_node5"><a xlink:href="../../d4/d06/class_application_1_1_game.html#a96341ca5b54d90adc3ecb3bf0bcd2312" target="_top" xlink:title=" ">
<polygon fill="white" stroke="black" points="0,-97 0,-116 120,-116 120,-97 0,-97"/>
<text text-anchor="middle" x="60" y="-104" font-family="Helvetica,sans-Serif" font-size="10.00">Application::Game::Run</text>
</a>
</g>
</g>
<!-- Node4&#45;&gt;Node5 -->
<g id="edge4" class="edge"><title>Node4&#45;&gt;Node5</title>
<path fill="none" stroke="midnightblue" d="M165.62,-106.5C150.526,-106.5 134.756,-106.5 120.174,-106.5"/>
<polygon fill="midnightblue" stroke="midnightblue" points="165.938,-110 175.938,-106.5 165.938,-103 165.938,-110"/>
</g>
<!-- Node7 -->
<g id="node7" class="node"><title>Node7</title>
<g id="a_node7"><a xlink:href="../../dc/d12/class_application_1_1_game_window_handler.html#af9a37c1601da3c213099e219685bdcd8" target="_top" xlink:title=" ">
<polygon fill="white" stroke="black" points="356,-42.5 356,-72.5 520,-72.5 520,-42.5 356,-42.5"/>
<text text-anchor="start" x="364" y="-60.5" font-family="Helvetica,sans-Serif" font-size="10.00">Application::GameWindowHandler</text>
<text text-anchor="middle" x="438" y="-49.5" font-family="Helvetica,sans-Serif" font-size="10.00">::OnMouseLeftClick</text>
</a>
</g>
</g>
<!-- Node6&#45;&gt;Node7 -->
<g id="edge6" class="edge"><title>Node6&#45;&gt;Node7</title>
<path fill="none" stroke="midnightblue" d="M545.515,-58.6271C537.066,-58.5377 528.486,-58.4469 520.053,-58.3577"/>
<polygon fill="midnightblue" stroke="midnightblue" points="545.702,-62.1292 555.738,-58.7353 545.776,-55.1296 545.702,-62.1292"/>
</g>
<!-- Node8 -->
<g id="node8" class="node"><title>Node8</title>
<g id="a_node8"><a xlink:href="../../dc/d12/class_application_1_1_game_window_handler.html#a2df0d1231e06d8ed14b7927e0ad21637" target="_top" xlink:title=" ">
<polygon fill="white" stroke="black" points="156,-42.5 156,-72.5 320,-72.5 320,-42.5 156,-42.5"/>
<text text-anchor="start" x="164" y="-60.5" font-family="Helvetica,sans-Serif" font-size="10.00">Application::GameWindowHandler</text>
<text text-anchor="middle" x="238" y="-49.5" font-family="Helvetica,sans-Serif" font-size="10.00">::OnMouseLeftDoubleClick</text>
</a>
</g>
</g>
<!-- Node7&#45;&gt;Node8 -->
<g id="edge7" class="edge"><title>Node7&#45;&gt;Node8</title>
<path fill="none" stroke="midnightblue" d="M345.637,-57.5C337.183,-57.5 328.654,-57.5 320.3,-57.5"/>
<polygon fill="midnightblue" stroke="midnightblue" points="345.895,-61.0001 355.895,-57.5 345.894,-54.0001 345.895,-61.0001"/>
</g>
</g>
</svg>
