<?xml version="1.0" encoding="UTF-8" standalone="no"?>
<!DOCTYPE svg PUBLIC "-//W3C//DTD SVG 1.1//EN"
 "http://www.w3.org/Graphics/SVG/1.1/DTD/svg11.dtd">
<!-- Generated by graphviz version 2.38.0 (20140413.2041)
 -->
<!-- Title: LODSprite::_4AD2D1_overlays Pages: 1 -->
<svg width="649pt" height="39pt"
 viewBox="0.00 0.00 649.00 39.00" xmlns="http://www.w3.org/2000/svg" xmlns:xlink="http://www.w3.org/1999/xlink">
<g id="graph0" class="graph" transform="scale(1 1) rotate(0) translate(4 35)">
<title>LODSprite::_4AD2D1_overlays</title>
<polygon fill="white" stroke="none" points="-4,4 -4,-35 645,-35 645,4 -4,4"/>
<!-- Node1 -->
<g id="node1" class="node"><title>Node1</title>
<g id="a_node1"><a xlink:title=" ">
<polygon fill="#bfbfbf" stroke="black" points="532,-0.5 532,-30.5 641,-30.5 641,-0.5 532,-0.5"/>
<text text-anchor="start" x="540" y="-18.5" font-family="Helvetica,sans-Serif" font-size="10.00">LODSprite::_4AD2D1</text>
<text text-anchor="middle" x="586.5" y="-7.5" font-family="Helvetica,sans-Serif" font-size="10.00">_overlays</text>
</a>
</g>
</g>
<!-- Node2 -->
<g id="node2" class="node"><title>Node2</title>
<g id="a_node2"><a xlink:href="../../d5/d09/_u_i_game_8h.html#a18f00696a8e9c58cefbefd7c25d2a4ed" target="_top" xlink:title=" ">
<polygon fill="white" stroke="black" points="389,-0.5 389,-30.5 496,-30.5 496,-0.5 389,-0.5"/>
<text text-anchor="start" x="397" y="-18.5" font-family="Helvetica,sans-Serif" font-size="10.00">_441A4E_overlay_on</text>
<text text-anchor="middle" x="442.5" y="-7.5" font-family="Helvetica,sans-Serif" font-size="10.00">_portrait</text>
</a>
</g>
</g>
<!-- Node1&#45;&gt;Node2 -->
<g id="edge1" class="edge"><title>Node1&#45;&gt;Node2</title>
<path fill="none" stroke="midnightblue" d="M521.603,-15.5C513.149,-15.5 504.559,-15.5 496.319,-15.5"/>
<polygon fill="midnightblue" stroke="midnightblue" points="521.816,-19.0001 531.816,-15.5 521.816,-12.0001 521.816,-19.0001"/>
</g>
<!-- Node3 -->
<g id="node3" class="node"><title>Node3</title>
<g id="a_node3"><a xlink:href="../../da/db4/_u_i_game_8cpp.html#adab7fcb1f081fff744c6a22ffe79d017" target="_top" xlink:title=" ">
<polygon fill="white" stroke="black" points="237,-6 237,-25 353,-25 353,-6 237,-6"/>
<text text-anchor="middle" x="295" y="-13" font-family="Helvetica,sans-Serif" font-size="10.00">GameUI_DrawPortraits</text>
</a>
</g>
</g>
<!-- Node2&#45;&gt;Node3 -->
<g id="edge2" class="edge"><title>Node2&#45;&gt;Node3</title>
<path fill="none" stroke="midnightblue" d="M378.793,-15.5C370.349,-15.5 361.721,-15.5 353.375,-15.5"/>
<polygon fill="midnightblue" stroke="midnightblue" points="378.971,-19.0001 388.971,-15.5 378.971,-12.0001 378.971,-19.0001"/>
</g>
<!-- Node4 -->
<g id="node4" class="node"><title>Node4</title>
<g id="a_node4"><a xlink:href="../../d6/d83/struct_engine.html#a2a165eb0ca2f67c8ed9b9cbfde6d14e6" target="_top" xlink:title=" ">
<polygon fill="white" stroke="black" points="110,-6 110,-25 201,-25 201,-6 110,-6"/>
<text text-anchor="middle" x="155.5" y="-13" font-family="Helvetica,sans-Serif" font-size="10.00">Engine::DrawGUI</text>
</a>
</g>
</g>
<!-- Node3&#45;&gt;Node4 -->
<g id="edge3" class="edge"><title>Node3&#45;&gt;Node4</title>
<path fill="none" stroke="midnightblue" d="M226.715,-15.5C218.014,-15.5 209.282,-15.5 201.076,-15.5"/>
<polygon fill="midnightblue" stroke="midnightblue" points="226.882,-19.0001 236.882,-15.5 226.882,-12.0001 226.882,-19.0001"/>
</g>
<!-- Node5 -->
<g id="node5" class="node"><title>Node5</title>
<g id="a_node5"><a xlink:href="../../d6/d83/struct_engine.html#ac098ab29cbcd7352879d0101aaf4b827" target="_top" xlink:title=" ">
<polygon fill="white" stroke="black" points="0,-6 0,-25 74,-25 74,-6 0,-6"/>
<text text-anchor="middle" x="37" y="-13" font-family="Helvetica,sans-Serif" font-size="10.00">Engine::Draw</text>
</a>
</g>
</g>
<!-- Node4&#45;&gt;Node5 -->
<g id="edge4" class="edge"><title>Node4&#45;&gt;Node5</title>
<path fill="none" stroke="midnightblue" d="M99.6893,-15.5C91.0043,-15.5 82.217,-15.5 74.1033,-15.5"/>
<polygon fill="midnightblue" stroke="midnightblue" points="99.7913,-19.0001 109.791,-15.5 99.7912,-12.0001 99.7913,-19.0001"/>
</g>
</g>
</svg>
