<?xml version="1.0" encoding="UTF-8" standalone="no"?>
<!DOCTYPE svg PUBLIC "-//W3C//DTD SVG 1.1//EN"
 "http://www.w3.org/Graphics/SVG/1.1/DTD/svg11.dtd">
<!-- Generated by graphviz version 2.38.0 (20140413.2041)
 -->
<!-- Title: OverlayList::FromFileTxt Pages: 1 -->
<svg width="466pt" height="88pt"
 viewBox="0.00 0.00 466.00 88.00" xmlns="http://www.w3.org/2000/svg" xmlns:xlink="http://www.w3.org/1999/xlink">
<g id="graph0" class="graph" transform="scale(1 1) rotate(0) translate(4 84)">
<title>OverlayList::FromFileTxt</title>
<polygon fill="white" stroke="none" points="-4,4 -4,-84 462,-84 462,4 -4,4"/>
<!-- Node1 -->
<g id="node1" class="node"><title>Node1</title>
<g id="a_node1"><a xlink:title=" ">
<polygon fill="#bfbfbf" stroke="black" points="0,-30 0,-49 122,-49 122,-30 0,-30"/>
<text text-anchor="middle" x="61" y="-37" font-family="Helvetica,sans-Serif" font-size="10.00">OverlayList::FromFileTxt</text>
</a>
</g>
</g>
<!-- Node2 -->
<g id="node2" class="node"><title>Node2</title>
<g id="a_node2"><a xlink:href="../../de/da7/struct_sprite_frame_table.html#aa747f09694e5f633ee156ef8de5d07f5" target="_top" xlink:title=" ">
<polygon fill="white" stroke="black" points="158,-49.5 158,-79.5 295,-79.5 295,-49.5 158,-49.5"/>
<text text-anchor="start" x="166" y="-67.5" font-family="Helvetica,sans-Serif" font-size="10.00">SpriteFrameTable::FastFind</text>
<text text-anchor="middle" x="226.5" y="-56.5" font-family="Helvetica,sans-Serif" font-size="10.00">Sprite</text>
</a>
</g>
</g>
<!-- Node1&#45;&gt;Node2 -->
<g id="edge1" class="edge"><title>Node1&#45;&gt;Node2</title>
<path fill="none" stroke="midnightblue" d="M122.417,-48.738C130.72,-50.0077 139.34,-51.3256 147.898,-52.6343"/>
<polygon fill="midnightblue" stroke="midnightblue" points="147.481,-56.111 157.895,-54.1628 148.539,-49.1914 147.481,-56.111"/>
</g>
<!-- Node4 -->
<g id="node4" class="node"><title>Node4</title>
<g id="a_node4"><a xlink:href="../../d2/d6d/_frame_table_inc_8cpp.html#abf3b77a8a504ee496dbdf080705cdb1a" target="_top" xlink:title=" ">
<polygon fill="white" stroke="black" points="179,-0.5 179,-30.5 274,-30.5 274,-0.5 179,-0.5"/>
<text text-anchor="start" x="187" y="-18.5" font-family="Helvetica,sans-Serif" font-size="10.00">txt_file_frametable</text>
<text text-anchor="middle" x="226.5" y="-7.5" font-family="Helvetica,sans-Serif" font-size="10.00">_parser</text>
</a>
</g>
</g>
<!-- Node1&#45;&gt;Node4 -->
<g id="edge3" class="edge"><title>Node1&#45;&gt;Node4</title>
<path fill="none" stroke="midnightblue" d="M122.417,-30.6315C137.569,-28.4074 153.771,-26.029 168.738,-23.832"/>
<polygon fill="midnightblue" stroke="midnightblue" points="169.488,-27.2595 178.874,-22.3442 168.472,-20.3337 169.488,-27.2595"/>
</g>
<!-- Node3 -->
<g id="node3" class="node"><title>Node3</title>
<g id="a_node3"><a xlink:href="../../de/da7/struct_sprite_frame_table.html#a5097f4a92066463ac557b4b1928a2181" target="_top" xlink:title=" ">
<polygon fill="white" stroke="black" points="331,-49.5 331,-79.5 458,-79.5 458,-49.5 331,-49.5"/>
<text text-anchor="start" x="339" y="-67.5" font-family="Helvetica,sans-Serif" font-size="10.00">SpriteFrameTable::Binary</text>
<text text-anchor="middle" x="394.5" y="-56.5" font-family="Helvetica,sans-Serif" font-size="10.00">Search</text>
</a>
</g>
</g>
<!-- Node2&#45;&gt;Node3 -->
<g id="edge2" class="edge"><title>Node2&#45;&gt;Node3</title>
<path fill="none" stroke="midnightblue" d="M295.019,-64.5C303.442,-64.5 312.086,-64.5 320.587,-64.5"/>
<polygon fill="midnightblue" stroke="midnightblue" points="320.861,-68.0001 330.861,-64.5 320.861,-61.0001 320.861,-68.0001"/>
</g>
</g>
</svg>
