<?xml version="1.0" encoding="UTF-8" standalone="no"?>
<!DOCTYPE svg PUBLIC "-//W3C//DTD SVG 1.1//EN"
 "http://www.w3.org/Graphics/SVG/1.1/DTD/svg11.dtd">
<!-- Generated by graphviz version 2.38.0 (20140413.2041)
 -->
<!-- Title: OutdoorLocation::LoadActualSkyFrame Pages: 1 -->
<svg width="517pt" height="116pt"
 viewBox="0.00 0.00 517.00 115.50" xmlns="http://www.w3.org/2000/svg" xmlns:xlink="http://www.w3.org/1999/xlink">
<g id="graph0" class="graph" transform="scale(1 1) rotate(0) translate(4 111.5)">
<title>OutdoorLocation::LoadActualSkyFrame</title>
<polygon fill="white" stroke="none" points="-4,4 -4,-111.5 513,-111.5 513,4 -4,4"/>
<!-- Node1 -->
<g id="node1" class="node"><title>Node1</title>
<g id="a_node1"><a xlink:title=" ">
<polygon fill="#bfbfbf" stroke="black" points="0,-33 0,-63 143,-63 143,-33 0,-33"/>
<text text-anchor="start" x="8" y="-51" font-family="Helvetica,sans-Serif" font-size="10.00">OutdoorLocation::LoadActual</text>
<text text-anchor="middle" x="71.5" y="-40" font-family="Helvetica,sans-Serif" font-size="10.00">SkyFrame</text>
</a>
</g>
</g>
<!-- Node2 -->
<g id="node2" class="node"><title>Node2</title>
<g id="a_node2"><a xlink:href="../../db/dd6/class_assets_manager.html#ad4ab70fc004c8c5a54756f3d358a8383" target="_top" xlink:title=" ">
<polygon fill="white" stroke="black" points="179,-77 179,-107 312,-107 312,-77 179,-77"/>
<text text-anchor="start" x="187" y="-95" font-family="Helvetica,sans-Serif" font-size="10.00">AssetsManager::GetImage</text>
<text text-anchor="middle" x="245.5" y="-84" font-family="Helvetica,sans-Serif" font-size="10.00">_ColorKey</text>
</a>
</g>
</g>
<!-- Node1&#45;&gt;Node2 -->
<g id="edge1" class="edge"><title>Node1&#45;&gt;Node2</title>
<path fill="none" stroke="midnightblue" d="M131.212,-63.0192C145.523,-66.6804 160.96,-70.6294 175.695,-74.3987"/>
<polygon fill="midnightblue" stroke="midnightblue" points="175.206,-77.8862 185.761,-76.9738 176.941,-71.1046 175.206,-77.8862"/>
</g>
<!-- Node3 -->
<g id="node3" class="node"><title>Node3</title>
<g id="a_node3"><a xlink:href="../../de/d73/class_image.html#a79e0e96332914caa0816c7d34822b9bf" target="_top" xlink:title=" ">
<polygon fill="white" stroke="black" points="203.5,-38.5 203.5,-57.5 287.5,-57.5 287.5,-38.5 203.5,-38.5"/>
<text text-anchor="middle" x="245.5" y="-45.5" font-family="Helvetica,sans-Serif" font-size="10.00">Image::Release</text>
</a>
</g>
</g>
<!-- Node1&#45;&gt;Node3 -->
<g id="edge2" class="edge"><title>Node1&#45;&gt;Node3</title>
<path fill="none" stroke="midnightblue" d="M143.452,-48C159.993,-48 177.301,-48 192.824,-48"/>
<polygon fill="midnightblue" stroke="midnightblue" points="193.254,-51.5001 203.254,-48 193.254,-44.5001 193.254,-51.5001"/>
</g>
<!-- Node6 -->
<g id="node6" class="node"><title>Node6</title>
<g id="a_node6"><a xlink:href="../../d8/d44/_strings_8cpp.html#aebf99e80337d8db0a005aebe8a13fb7f" target="_top" xlink:title=" ">
<polygon fill="white" stroke="black" points="213,-0.5 213,-19.5 278,-19.5 278,-0.5 213,-0.5"/>
<text text-anchor="middle" x="245.5" y="-7.5" font-family="Helvetica,sans-Serif" font-size="10.00">StringPrintf</text>
</a>
</g>
</g>
<!-- Node1&#45;&gt;Node6 -->
<g id="edge5" class="edge"><title>Node1&#45;&gt;Node6</title>
<path fill="none" stroke="midnightblue" d="M140.479,-32.9814C161.554,-28.3253 184.14,-23.3353 202.863,-19.1988"/>
<polygon fill="midnightblue" stroke="midnightblue" points="203.824,-22.571 212.834,-16.9961 202.314,-15.7358 203.824,-22.571"/>
</g>
<!-- Node4 -->
<g id="node4" class="node"><title>Node4</title>
<g id="a_node4"><a xlink:href="../../d7/d42/class_image_loader.html#a18f2d859b812d0877891b4960ad48e53" target="_top" xlink:title=" ">
<polygon fill="white" stroke="black" points="348,-57.5 348,-76.5 509,-76.5 509,-57.5 348,-57.5"/>
<text text-anchor="middle" x="428.5" y="-64.5" font-family="Helvetica,sans-Serif" font-size="10.00">ImageLoader::GetResourceName</text>
</a>
</g>
</g>
<!-- Node3&#45;&gt;Node4 -->
<g id="edge3" class="edge"><title>Node3&#45;&gt;Node4</title>
<path fill="none" stroke="midnightblue" d="M287.572,-52.3114C302.481,-53.8765 319.972,-55.7126 337.442,-57.5464"/>
<polygon fill="midnightblue" stroke="midnightblue" points="337.395,-61.0606 347.705,-58.6238 338.125,-54.0988 337.395,-61.0606"/>
</g>
<!-- Node5 -->
<g id="node5" class="node"><title>Node5</title>
<g id="a_node5"><a xlink:href="../../db/dd6/class_assets_manager.html#a267f5a440cbd28f4a1a0d9527223bd08" target="_top" xlink:title=" ">
<polygon fill="white" stroke="black" points="352.5,-19.5 352.5,-38.5 504.5,-38.5 504.5,-19.5 352.5,-19.5"/>
<text text-anchor="middle" x="428.5" y="-26.5" font-family="Helvetica,sans-Serif" font-size="10.00">AssetsManager::ReleaseImage</text>
</a>
</g>
</g>
<!-- Node3&#45;&gt;Node5 -->
<g id="edge4" class="edge"><title>Node3&#45;&gt;Node5</title>
<path fill="none" stroke="midnightblue" d="M287.572,-43.6886C303.915,-41.9731 323.359,-39.9319 342.477,-37.925"/>
<polygon fill="midnightblue" stroke="midnightblue" points="342.847,-41.4056 352.427,-36.8806 342.116,-34.4438 342.847,-41.4056"/>
</g>
</g>
</svg>
