<?xml version="1.0" encoding="UTF-8" standalone="no"?>
<!DOCTYPE svg PUBLIC "-//W3C//DTD SVG 1.1//EN"
 "http://www.w3.org/Graphics/SVG/1.1/DTD/svg11.dtd">
<!-- Generated by graphviz version 2.38.0 (20140413.2041)
 -->
<!-- Title: OutdoorLocation::UpdateDiscoveredArea Pages: 1 -->
<!--zoomable 148 -->
<svg id="main" version="1.1" xmlns="http://www.w3.org/2000/svg" xmlns:xlink="http://www.w3.org/1999/xlink" xml:space="preserve" onload="init(evt)">
<style type="text/css"><![CDATA[
.edge:hover path { stroke: red; }
.edge:hover polygon { stroke: red; fill: red; }
]]></style>
<script type="text/javascript"><![CDATA[
var edges = document.getElementsByTagName('g');
if (edges && edges.length) {
  for (var i=0;i<edges.length;i++) {
    if (edges[i].id.substr(0,4)=='edge') {
      edges[i].setAttribute('class','edge');
    }
  }
}
]]></script>
        <defs>
                <circle id="rim" cx="0" cy="0" r="7"/>
                <circle id="rim2" cx="0" cy="0" r="3.5"/>
                <g id="zoomPlus">
                        <use xlink:href="#rim" fill="#404040">
                                <set attributeName="fill" to="#808080" begin="zoomplus.mouseover" end="zoomplus.mouseout"/>
                        </use>
                        <path d="M-4,0h8M0,-4v8" fill="none" stroke="white" stroke-width="1.5" pointer-events="none"/>
                </g>
                <g id="zoomMin">
                        <use xlink:href="#rim" fill="#404040">
                                <set attributeName="fill" to="#808080" begin="zoomminus.mouseover" end="zoomminus.mouseout"/>
                        </use>
                        <path d="M-4,0h8" fill="none" stroke="white" stroke-width="1.5" pointer-events="none"/>
                </g>
                <g id="dirArrow">
                        <path fill="none" stroke="white" stroke-width="1.5" d="M0,-3.0v7 M-2.5,-0.5L0,-3.0L2.5,-0.5"/>
                </g>
               <g id="resetDef">
                       <use xlink:href="#rim2" fill="#404040">
                               <set attributeName="fill" to="#808080" begin="reset.mouseover" end="reset.mouseout"/>
                       </use>
               </g>
        </defs>

<script type="text/javascript">
var viewWidth = 1462;
var viewHeight = 148;
var sectionId = 'dynsection-19';
</script>
<script xlink:href="../../svgpan.js"/>
<svg id="graph" class="graph">
<g id="viewport">
<title>OutdoorLocation::UpdateDiscoveredArea</title>
<polygon fill="white" stroke="none" points="-4,4 -4,-143.5 1458,-143.5 1458,4 -4,4"/>
<!-- Node1 -->
<g id="node1" class="node"><title>Node1</title>
<g id="a_node1"><a xlink:title=" ">
<polygon fill="#bfbfbf" stroke="black" points="1262,-76.5 1262,-95.5 1454,-95.5 1454,-76.5 1262,-76.5"/>
<text text-anchor="middle" x="1358" y="-83.5" font-family="Helvetica,sans-Serif" font-size="10.00">OutdoorLocation::UpdateDiscoveredArea</text>
</a>
</g>
</g>
<!-- Node2 -->
<g id="node2" class="node"><title>Node2</title>
<g id="a_node2"><a xlink:href="../../d1/d55/struct_outdoor_location.html#a8dc4afafe8c63b7094569dca00d57b36" target="_top" xlink:title=" ">
<polygon fill="white" stroke="black" points="1088,-76.5 1088,-95.5 1226,-95.5 1226,-76.5 1088,-76.5"/>
<text text-anchor="middle" x="1157" y="-83.5" font-family="Helvetica,sans-Serif" font-size="10.00">OutdoorLocation::ExecDraw</text>
</a>
</g>
</g>
<!-- Node1&#45;&gt;Node2 -->
<g id="edge1" class="edge"><title>Node1&#45;&gt;Node2</title>
<path fill="none" stroke="midnightblue" d="M1251.66,-86C1242.98,-86 1234.35,-86 1226.05,-86"/>
<polygon fill="midnightblue" stroke="midnightblue" points="1251.87,-89.5001 1261.87,-86 1251.87,-82.5001 1251.87,-89.5001"/>
</g>
<!-- Node3 -->
<g id="node3" class="node"><title>Node3</title>
<g id="a_node3"><a xlink:href="../../d1/d55/struct_outdoor_location.html#ab5c25fbf6207db3b6153f67347b172dd" target="_top" xlink:title=" ">
<polygon fill="white" stroke="black" points="936,-76.5 936,-95.5 1052,-95.5 1052,-76.5 936,-76.5"/>
<text text-anchor="middle" x="994" y="-83.5" font-family="Helvetica,sans-Serif" font-size="10.00">OutdoorLocation::Draw</text>
</a>
</g>
</g>
<!-- Node2&#45;&gt;Node3 -->
<g id="edge2" class="edge"><title>Node2&#45;&gt;Node3</title>
<path fill="none" stroke="midnightblue" d="M1077.68,-86C1069.09,-86 1060.47,-86 1052.21,-86"/>
<polygon fill="midnightblue" stroke="midnightblue" points="1077.72,-89.5001 1087.72,-86 1077.72,-82.5001 1077.72,-89.5001"/>
</g>
<!-- Node4 -->
<g id="node4" class="node"><title>Node4</title>
<g id="a_node4"><a xlink:href="../../d6/d11/_u_i_arena_8h.html#ad46b571b6ee5f3df6c7a39113d768cc4" target="_top" xlink:title=" ">
<polygon fill="white" stroke="black" points="804.5,-114.5 804.5,-133.5 868.5,-133.5 868.5,-114.5 804.5,-114.5"/>
<text text-anchor="middle" x="836.5" y="-121.5" font-family="Helvetica,sans-Serif" font-size="10.00">ArenaFight</text>
</a>
</g>
</g>
<!-- Node3&#45;&gt;Node4 -->
<g id="edge3" class="edge"><title>Node3&#45;&gt;Node4</title>
<path fill="none" stroke="midnightblue" d="M943.868,-98.0066C919.244,-104.024 890.17,-111.129 868.646,-116.389"/>
<polygon fill="midnightblue" stroke="midnightblue" points="944.878,-101.363 953.761,-95.589 943.216,-94.563 944.878,-101.363"/>
</g>
<!-- Node10 -->
<g id="node10" class="node"><title>Node10</title>
<g id="a_node10"><a xlink:href="../../d6/d83/struct_engine.html#ac098ab29cbcd7352879d0101aaf4b827" target="_top" xlink:title=" ">
<polygon fill="white" stroke="black" points="799.5,-76.5 799.5,-95.5 873.5,-95.5 873.5,-76.5 799.5,-76.5"/>
<text text-anchor="middle" x="836.5" y="-83.5" font-family="Helvetica,sans-Serif" font-size="10.00">Engine::Draw</text>
</a>
</g>
</g>
<!-- Node3&#45;&gt;Node10 -->
<g id="edge9" class="edge"><title>Node3&#45;&gt;Node10</title>
<path fill="none" stroke="midnightblue" d="M925.848,-86C907.944,-86 889.275,-86 873.737,-86"/>
<polygon fill="midnightblue" stroke="midnightblue" points="925.981,-89.5001 935.981,-86 925.98,-82.5001 925.981,-89.5001"/>
</g>
<!-- Node11 -->
<g id="node11" class="node"><title>Node11</title>
<g id="a_node11"><a xlink:href="../../da/d7f/class_render.html#a63751fa9863192dbf6cb82162e02dcb2" target="_top" xlink:title=" ">
<polygon fill="white" stroke="black" points="773,-38.5 773,-57.5 900,-57.5 900,-38.5 773,-38.5"/>
<text text-anchor="middle" x="836.5" y="-45.5" font-family="Helvetica,sans-Serif" font-size="10.00">Render::MakeScreenshot</text>
</a>
</g>
</g>
<!-- Node3&#45;&gt;Node11 -->
<g id="edge10" class="edge"><title>Node3&#45;&gt;Node11</title>
<path fill="none" stroke="midnightblue" d="M944.026,-74.032C922.235,-68.7069 896.933,-62.5238 876.457,-57.5201"/>
<polygon fill="midnightblue" stroke="midnightblue" points="943.216,-77.437 953.761,-76.411 944.878,-70.6371 943.216,-77.437"/>
</g>
<!-- Node5 -->
<g id="node5" class="node"><title>Node5</title>
<g id="a_node5"><a xlink:href="../../d6/d82/_u_i_dialogue_8h.html#a0213da862a4f9421ada12d4bfff8a710" target="_top" xlink:title=" ">
<polygon fill="white" stroke="black" points="594,-114.5 594,-133.5 737,-133.5 737,-114.5 594,-114.5"/>
<text text-anchor="middle" x="665.5" y="-121.5" font-family="Helvetica,sans-Serif" font-size="10.00">OnSelectNPCDialogueOption</text>
</a>
</g>
</g>
<!-- Node4&#45;&gt;Node5 -->
<g id="edge4" class="edge"><title>Node4&#45;&gt;Node5</title>
<path fill="none" stroke="midnightblue" d="M793.926,-124C776.853,-124 756.596,-124 737.315,-124"/>
<polygon fill="midnightblue" stroke="midnightblue" points="794.108,-127.5 804.108,-124 794.108,-120.5 794.108,-127.5"/>
</g>
<!-- Node6 -->
<g id="node6" class="node"><title>Node6</title>
<g id="a_node6"><a xlink:href="../../d4/d06/class_application_1_1_game.html#a3f65e3f0ef1a9114fb3dea275e52442e" target="_top" xlink:title=" ">
<polygon fill="white" stroke="black" points="455,-109 455,-139 558,-139 558,-109 455,-109"/>
<text text-anchor="start" x="463" y="-127" font-family="Helvetica,sans-Serif" font-size="10.00">Application::Game::</text>
<text text-anchor="middle" x="506.5" y="-116" font-family="Helvetica,sans-Serif" font-size="10.00">EventLoop</text>
</a>
</g>
</g>
<!-- Node5&#45;&gt;Node6 -->
<g id="edge5" class="edge"><title>Node5&#45;&gt;Node6</title>
<path fill="none" stroke="midnightblue" d="M583.611,-124C574.918,-124 566.265,-124 558.077,-124"/>
<polygon fill="midnightblue" stroke="midnightblue" points="583.808,-127.5 593.808,-124 583.808,-120.5 583.808,-127.5"/>
</g>
<!-- Node7 -->
<g id="node7" class="node"><title>Node7</title>
<g id="a_node7"><a xlink:href="../../d4/d06/class_application_1_1_game.html#aaa0ff18388b32b4e6198835a35e000d3" target="_top" xlink:title=" ">
<polygon fill="white" stroke="black" points="316,-109 316,-139 419,-139 419,-109 316,-109"/>
<text text-anchor="start" x="324" y="-127" font-family="Helvetica,sans-Serif" font-size="10.00">Application::Game::</text>
<text text-anchor="middle" x="367.5" y="-116" font-family="Helvetica,sans-Serif" font-size="10.00">GameLoop</text>
</a>
</g>
</g>
<!-- Node6&#45;&gt;Node7 -->
<g id="edge6" class="edge"><title>Node6&#45;&gt;Node7</title>
<path fill="none" stroke="midnightblue" d="M444.68,-124C436.228,-124 427.618,-124 419.374,-124"/>
<polygon fill="midnightblue" stroke="midnightblue" points="444.876,-127.5 454.875,-124 444.875,-120.5 444.876,-127.5"/>
</g>
<!-- Node8 -->
<g id="node8" class="node"><title>Node8</title>
<g id="a_node8"><a xlink:href="../../d4/d06/class_application_1_1_game.html#a013ffd59e8fdf1c0a396da1dbe1681ca" target="_top" xlink:title=" ">
<polygon fill="white" stroke="black" points="156,-114.5 156,-133.5 280,-133.5 280,-114.5 156,-114.5"/>
<text text-anchor="middle" x="218" y="-121.5" font-family="Helvetica,sans-Serif" font-size="10.00">Application::Game::Loop</text>
</a>
</g>
</g>
<!-- Node7&#45;&gt;Node8 -->
<g id="edge7" class="edge"><title>Node7&#45;&gt;Node8</title>
<path fill="none" stroke="midnightblue" d="M305.59,-124C297.149,-124 288.478,-124 280.035,-124"/>
<polygon fill="midnightblue" stroke="midnightblue" points="305.739,-127.5 315.739,-124 305.739,-120.5 305.739,-127.5"/>
</g>
<!-- Node9 -->
<g id="node9" class="node"><title>Node9</title>
<g id="a_node9"><a xlink:href="../../d4/d06/class_application_1_1_game.html#a96341ca5b54d90adc3ecb3bf0bcd2312" target="_top" xlink:title=" ">
<polygon fill="white" stroke="black" points="0,-114.5 0,-133.5 120,-133.5 120,-114.5 0,-114.5"/>
<text text-anchor="middle" x="60" y="-121.5" font-family="Helvetica,sans-Serif" font-size="10.00">Application::Game::Run</text>
</a>
</g>
</g>
<!-- Node8&#45;&gt;Node9 -->
<g id="edge8" class="edge"><title>Node8&#45;&gt;Node9</title>
<path fill="none" stroke="midnightblue" d="M145.546,-124C137.081,-124 128.513,-124 120.244,-124"/>
<polygon fill="midnightblue" stroke="midnightblue" points="145.792,-127.5 155.792,-124 145.792,-120.5 145.792,-127.5"/>
</g>
<!-- Node12 -->
<g id="node12" class="node"><title>Node12</title>
<g id="a_node12"><a xlink:href="../../da/d7f/class_render.html#af7b173c00dc50795552fbcabd3e59295" target="_top" xlink:title=" ">
<polygon fill="white" stroke="black" points="603,-76.5 603,-95.5 728,-95.5 728,-76.5 603,-76.5"/>
<text text-anchor="middle" x="665.5" y="-83.5" font-family="Helvetica,sans-Serif" font-size="10.00">Render::PackScreenshot</text>
</a>
</g>
</g>
<!-- Node11&#45;&gt;Node12 -->
<g id="edge11" class="edge"><title>Node11&#45;&gt;Node12</title>
<path fill="none" stroke="midnightblue" d="M782.913,-59.8243C759.087,-65.1816 731.293,-71.4311 708.839,-76.4799"/>
<polygon fill="midnightblue" stroke="midnightblue" points="783.866,-63.1976 792.854,-57.589 782.33,-56.3681 783.866,-63.1976"/>
</g>
<!-- Node13 -->
<g id="node13" class="node"><title>Node13</title>
<g id="a_node13"><a xlink:href="../../da/d7f/class_render.html#a88afa2691444045e4bcc2c91034d0dbb" target="_top" xlink:title=" ">
<polygon fill="white" stroke="black" points="603.5,-38.5 603.5,-57.5 727.5,-57.5 727.5,-38.5 603.5,-38.5"/>
<text text-anchor="middle" x="665.5" y="-45.5" font-family="Helvetica,sans-Serif" font-size="10.00">Render::SaveScreenshot</text>
</a>
</g>
</g>
<!-- Node11&#45;&gt;Node13 -->
<g id="edge12" class="edge"><title>Node11&#45;&gt;Node13</title>
<path fill="none" stroke="midnightblue" d="M762.435,-48C750.788,-48 738.846,-48 727.517,-48"/>
<polygon fill="midnightblue" stroke="midnightblue" points="762.571,-51.5001 772.571,-48 762.571,-44.5001 762.571,-51.5001"/>
</g>
<!-- Node14 -->
<g id="node14" class="node"><title>Node14</title>
<g id="a_node14"><a xlink:href="../../da/d7f/class_render.html#a72e0525411a241d2e40d63ef38fc1b6d" target="_top" xlink:title=" ">
<polygon fill="white" stroke="black" points="603.5,-0.5 603.5,-19.5 727.5,-19.5 727.5,-0.5 603.5,-0.5"/>
<text text-anchor="middle" x="665.5" y="-7.5" font-family="Helvetica,sans-Serif" font-size="10.00">Render::TakeScreenshot</text>
</a>
</g>
</g>
<!-- Node11&#45;&gt;Node14 -->
<g id="edge13" class="edge"><title>Node11&#45;&gt;Node14</title>
<path fill="none" stroke="midnightblue" d="M782.913,-36.1757C759.087,-30.8184 731.293,-24.5689 708.839,-19.5201"/>
<polygon fill="midnightblue" stroke="midnightblue" points="782.33,-39.6319 792.854,-38.411 783.866,-32.8024 782.33,-39.6319"/>
</g>
</g>
</svg>
        <g id="navigator" transform="translate(0 0)" fill="#404254">
                <rect fill="#f2f5e9" fill-opacity="0.5" stroke="#606060" stroke-width=".5" x="0" y="0" width="60" height="60"/>
                <use id="zoomplus" xlink:href="#zoomPlus" x="17" y="9" onmousedown="handleZoom(evt,'in')"/>
                <use id="zoomminus" xlink:href="#zoomMin" x="42" y="9" onmousedown="handleZoom(evt,'out')"/>
                <use id="reset" xlink:href="#resetDef" x="30" y="36" onmousedown="handleReset()"/>
                <g id="arrowUp" xlink:href="#dirArrow" transform="translate(30 24)" onmousedown="handlePan(0,-1)">
                  <use xlink:href="#rim" fill="#404040">
                        <set attributeName="fill" to="#808080" begin="arrowUp.mouseover" end="arrowUp.mouseout"/>
                  </use>
                  <path fill="none" stroke="white" stroke-width="1.5" d="M0,-3.0v7 M-2.5,-0.5L0,-3.0L2.5,-0.5"/>
                </g>
                <g id="arrowRight" xlink:href="#dirArrow" transform="rotate(90) translate(36 -43)" onmousedown="handlePan(1,0)">
                  <use xlink:href="#rim" fill="#404040">
                        <set attributeName="fill" to="#808080" begin="arrowRight.mouseover" end="arrowRight.mouseout"/>
                  </use>
                  <path fill="none" stroke="white" stroke-width="1.5" d="M0,-3.0v7 M-2.5,-0.5L0,-3.0L2.5,-0.5"/>
                </g>
                <g id="arrowDown" xlink:href="#dirArrow" transform="rotate(180) translate(-30 -48)" onmousedown="handlePan(0,1)">
                  <use xlink:href="#rim" fill="#404040">
                        <set attributeName="fill" to="#808080" begin="arrowDown.mouseover" end="arrowDown.mouseout"/>
                  </use>
                  <path fill="none" stroke="white" stroke-width="1.5" d="M0,-3.0v7 M-2.5,-0.5L0,-3.0L2.5,-0.5"/>
                </g>
                <g id="arrowLeft" xlink:href="#dirArrow" transform="rotate(270) translate(-36 17)" onmousedown="handlePan(-1,0)">
                  <use xlink:href="#rim" fill="#404040">
                        <set attributeName="fill" to="#808080" begin="arrowLeft.mouseover" end="arrowLeft.mouseout"/>
                  </use>
                  <path fill="none" stroke="white" stroke-width="1.5" d="M0,-3.0v7 M-2.5,-0.5L0,-3.0L2.5,-0.5"/>
                </g>
        </g>
        <svg viewBox="0 0 15 15" width="100%" height="30px" preserveAspectRatio="xMaxYMin meet">
         <g id="arrow_out" transform="scale(0.3 0.3)">
          <a xlink:href="struct_outdoor_location_a283af8098a7e7d04782721a68286776a_icgraph_org.svg" target="_base">
           <rect id="button" ry="5" rx="5" y="6" x="6" height="38" width="38"
                fill="#f2f5e9" fill-opacity="0.5" stroke="#606060" stroke-width="1.0"/>
           <path id="arrow"
             d="M 11.500037,31.436501 C 11.940474,20.09759 22.043105,11.32322 32.158766,21.979434 L 37.068811,17.246167 C 37.068811,17.246167 37.088388,32 37.088388,32 L 22.160133,31.978069 C 22.160133,31.978069 26.997745,27.140456 26.997745,27.140456 C 18.528582,18.264221 13.291696,25.230495 11.500037,31.436501 z"
             style="fill:#404040;"/>
          </a>
         </g>
        </svg>
</svg>
