<?xml version="1.0" encoding="UTF-8" standalone="no"?>
<!DOCTYPE svg PUBLIC "-//W3C//DTD SVG 1.1//EN"
 "http://www.w3.org/Graphics/SVG/1.1/DTD/svg11.dtd">
<!-- Generated by graphviz version 2.38.0 (20140413.2041)
 -->
<!-- Title: OutdoorLocation::LoadActualSkyFrame Pages: 1 -->
<svg width="529pt" height="66pt"
 viewBox="0.00 0.00 529.00 66.00" xmlns="http://www.w3.org/2000/svg" xmlns:xlink="http://www.w3.org/1999/xlink">
<g id="graph0" class="graph" transform="scale(1 1) rotate(0) translate(4 62)">
<title>OutdoorLocation::LoadActualSkyFrame</title>
<polygon fill="white" stroke="none" points="-4,4 -4,-62 525,-62 525,4 -4,4"/>
<!-- Node1 -->
<g id="node1" class="node"><title>Node1</title>
<g id="a_node1"><a xlink:title=" ">
<polygon fill="#bfbfbf" stroke="black" points="378,-14 378,-44 521,-44 521,-14 378,-14"/>
<text text-anchor="start" x="386" y="-32" font-family="Helvetica,sans-Serif" font-size="10.00">OutdoorLocation::LoadActual</text>
<text text-anchor="middle" x="449.5" y="-21" font-family="Helvetica,sans-Serif" font-size="10.00">SkyFrame</text>
</a>
</g>
</g>
<!-- Node2 -->
<g id="node2" class="node"><title>Node2</title>
<g id="a_node2"><a xlink:href="../../d2/d13/class_g_u_i_window___rest.html#a4a4b65ec70d1e30b9793d38a8ffc2643" target="_top" xlink:title=" ">
<polygon fill="white" stroke="black" points="166,-38.5 166,-57.5 342,-57.5 342,-38.5 166,-38.5"/>
<text text-anchor="middle" x="254" y="-45.5" font-family="Helvetica,sans-Serif" font-size="10.00">GUIWindow_Rest::GUIWindow_Rest</text>
</a>
</g>
</g>
<!-- Node1&#45;&gt;Node2 -->
<g id="edge1" class="edge"><title>Node1&#45;&gt;Node2</title>
<path fill="none" stroke="midnightblue" d="M367.686,-36.9352C359.297,-37.759 350.743,-38.5989 342.286,-39.4293"/>
<polygon fill="midnightblue" stroke="midnightblue" points="368.211,-40.4006 377.821,-35.9401 367.526,-33.4341 368.211,-40.4006"/>
</g>
<!-- Node3 -->
<g id="node3" class="node"><title>Node3</title>
<g id="a_node3"><a xlink:href="../../d0/d14/struct_party.html#a7e6c7262893463554672cab394812b00" target="_top" xlink:title=" ">
<polygon fill="white" stroke="black" points="203.5,-0.5 203.5,-19.5 304.5,-19.5 304.5,-0.5 203.5,-0.5"/>
<text text-anchor="middle" x="254" y="-7.5" font-family="Helvetica,sans-Serif" font-size="10.00">Party::Sleep8Hours</text>
</a>
</g>
</g>
<!-- Node1&#45;&gt;Node3 -->
<g id="edge2" class="edge"><title>Node1&#45;&gt;Node3</title>
<path fill="none" stroke="midnightblue" d="M367.742,-21.0703C346.322,-18.967 323.826,-16.7581 304.613,-14.8715"/>
<polygon fill="midnightblue" stroke="midnightblue" points="367.526,-24.5659 377.821,-22.0599 368.211,-17.5994 367.526,-24.5659"/>
</g>
<!-- Node4 -->
<g id="node4" class="node"><title>Node4</title>
<g id="a_node4"><a xlink:href="../../d2/d13/class_g_u_i_window___rest.html#a2fb35507e96666175f07fb9c0ed4c036" target="_top" xlink:title=" ">
<polygon fill="white" stroke="black" points="0,-0.5 0,-19.5 130,-19.5 130,-0.5 0,-0.5"/>
<text text-anchor="middle" x="65" y="-7.5" font-family="Helvetica,sans-Serif" font-size="10.00">GUIWindow_Rest::Update</text>
</a>
</g>
</g>
<!-- Node3&#45;&gt;Node4 -->
<g id="edge3" class="edge"><title>Node3&#45;&gt;Node4</title>
<path fill="none" stroke="midnightblue" d="M193.141,-10C173.104,-10 150.688,-10 130.325,-10"/>
<polygon fill="midnightblue" stroke="midnightblue" points="193.378,-13.5001 203.378,-10 193.378,-6.5001 193.378,-13.5001"/>
</g>
</g>
</svg>
