<?xml version="1.0" encoding="UTF-8" standalone="no"?>
<!DOCTYPE svg PUBLIC "-//W3C//DTD SVG 1.1//EN"
 "http://www.w3.org/Graphics/SVG/1.1/DTD/svg11.dtd">
<!-- Generated by graphviz version 2.38.0 (20140413.2041)
 -->
<!-- Title: OutdoorLocation::DoGetTile Pages: 1 -->
<svg width="349pt" height="104pt"
 viewBox="0.00 0.00 349.00 104.00" xmlns="http://www.w3.org/2000/svg" xmlns:xlink="http://www.w3.org/1999/xlink">
<g id="graph0" class="graph" transform="scale(1 1) rotate(0) translate(4 100)">
<title>OutdoorLocation::DoGetTile</title>
<polygon fill="white" stroke="none" points="-4,4 -4,-100 345,-100 345,4 -4,4"/>
<!-- Node1 -->
<g id="node1" class="node"><title>Node1</title>
<g id="a_node1"><a xlink:title=" ">
<polygon fill="#bfbfbf" stroke="black" points="204,-38.5 204,-57.5 341,-57.5 341,-38.5 204,-38.5"/>
<text text-anchor="middle" x="272.5" y="-45.5" font-family="Helvetica,sans-Serif" font-size="10.00">OutdoorLocation::DoGetTile</text>
</a>
</g>
</g>
<!-- Node2 -->
<g id="node2" class="node"><title>Node2</title>
<g id="a_node2"><a xlink:href="../../d1/d55/struct_outdoor_location.html#ac28a503a6a9bfe97390156d9aa49d061" target="_top" xlink:title=" ">
<polygon fill="white" stroke="black" points="21.5,-76.5 21.5,-95.5 146.5,-95.5 146.5,-76.5 21.5,-76.5"/>
<text text-anchor="middle" x="84" y="-83.5" font-family="Helvetica,sans-Serif" font-size="10.00">OutdoorLocation::GetTile</text>
</a>
</g>
</g>
<!-- Node1&#45;&gt;Node2 -->
<g id="edge1" class="edge"><title>Node1&#45;&gt;Node2</title>
<path fill="none" stroke="midnightblue" d="M214.522,-59.6095C187.997,-65.014 156.834,-71.3635 131.723,-76.4799"/>
<polygon fill="midnightblue" stroke="midnightblue" points="215.338,-63.0151 224.438,-57.589 213.941,-56.1561 215.338,-63.0151"/>
</g>
<!-- Node3 -->
<g id="node3" class="node"><title>Node3</title>
<g id="a_node3"><a xlink:href="../../d1/d2c/class_render_open_g_l.html#abf236e63625c1bc5204b19c19527a84e" target="_top" xlink:title=" ">
<polygon fill="white" stroke="black" points="0,-38.5 0,-57.5 168,-57.5 168,-38.5 0,-38.5"/>
<text text-anchor="middle" x="84" y="-45.5" font-family="Helvetica,sans-Serif" font-size="10.00">RenderOpenGL::RenderTerrainD3D</text>
</a>
</g>
</g>
<!-- Node1&#45;&gt;Node3 -->
<g id="edge2" class="edge"><title>Node1&#45;&gt;Node3</title>
<path fill="none" stroke="midnightblue" d="M193.747,-48C185.333,-48 176.745,-48 168.269,-48"/>
<polygon fill="midnightblue" stroke="midnightblue" points="193.906,-51.5001 203.906,-48 193.905,-44.5001 193.906,-51.5001"/>
</g>
<!-- Node4 -->
<g id="node4" class="node"><title>Node4</title>
<g id="a_node4"><a xlink:href="../../da/d7f/class_render.html#a669638f085b2e25a069c901801e79437" target="_top" xlink:title=" ">
<polygon fill="white" stroke="black" points="18,-0.5 18,-19.5 150,-19.5 150,-0.5 18,-0.5"/>
<text text-anchor="middle" x="84" y="-7.5" font-family="Helvetica,sans-Serif" font-size="10.00">Render::RenderTerrainD3D</text>
</a>
</g>
</g>
<!-- Node1&#45;&gt;Node4 -->
<g id="edge3" class="edge"><title>Node1&#45;&gt;Node4</title>
<path fill="none" stroke="midnightblue" d="M214.522,-36.3905C187.997,-30.986 156.834,-24.6365 131.723,-19.5201"/>
<polygon fill="midnightblue" stroke="midnightblue" points="213.941,-39.8439 224.438,-38.411 215.338,-32.9849 213.941,-39.8439"/>
</g>
</g>
</svg>
