<?xml version="1.0" encoding="UTF-8" standalone="no"?>
<!DOCTYPE svg PUBLIC "-//W3C//DTD SVG 1.1//EN"
 "http://www.w3.org/Graphics/SVG/1.1/DTD/svg11.dtd">
<!-- Generated by graphviz version 2.38.0 (20140413.2041)
 -->
<!-- Title: OutdoorLocation::ExecDraw Pages: 1 -->
<svg width="916pt" height="792pt"
 viewBox="0.00 0.00 916.00 792.00" xmlns="http://www.w3.org/2000/svg" xmlns:xlink="http://www.w3.org/1999/xlink">
<g id="graph0" class="graph" transform="scale(1 1) rotate(0) translate(4 788)">
<title>OutdoorLocation::ExecDraw</title>
<polygon fill="white" stroke="none" points="-4,4 -4,-788 912,-788 912,4 -4,4"/>
<!-- Node1 -->
<g id="node1" class="node"><title>Node1</title>
<g id="a_node1"><a xlink:title=" ">
<polygon fill="#bfbfbf" stroke="black" points="0,-126.5 0,-145.5 138,-145.5 138,-126.5 0,-126.5"/>
<text text-anchor="middle" x="69" y="-133.5" font-family="Helvetica,sans-Serif" font-size="10.00">OutdoorLocation::ExecDraw</text>
</a>
</g>
</g>
<!-- Node2 -->
<g id="node2" class="node"><title>Node2</title>
<g id="a_node2"><a xlink:href="../../da/d8e/struct_sky_billboard_struct.html#a47539cd1ae407975e25634a21de225a2" target="_top" xlink:title=" ">
<polygon fill="white" stroke="black" points="213.5,-721 213.5,-751 326.5,-751 326.5,-721 213.5,-721"/>
<text text-anchor="start" x="221.5" y="-739" font-family="Helvetica,sans-Serif" font-size="10.00">SkyBillboardStruct</text>
<text text-anchor="middle" x="270" y="-728" font-family="Helvetica,sans-Serif" font-size="10.00">::CalcSkyFrustumVec</text>
</a>
</g>
</g>
<!-- Node1&#45;&gt;Node2 -->
<g id="edge1" class="edge"><title>Node1&#45;&gt;Node2</title>
<path fill="none" stroke="midnightblue" d="M73.288,-145.914C95.7377,-213.601 226.569,-608.068 260.804,-711.289"/>
<polygon fill="midnightblue" stroke="midnightblue" points="257.511,-712.478 263.981,-720.868 264.155,-710.274 257.511,-712.478"/>
</g>
<!-- Node5 -->
<g id="node5" class="node"><title>Node5</title>
<g id="a_node5"><a xlink:href="../../d1/d55/struct_outdoor_location.html#ac5ac1e9b576a1975eeeca2cff64878ac" target="_top" xlink:title=" ">
<polygon fill="white" stroke="black" points="206,-386 206,-416 334,-416 334,-386 206,-386"/>
<text text-anchor="start" x="214" y="-404" font-family="Helvetica,sans-Serif" font-size="10.00">OutdoorLocation::Prepare</text>
<text text-anchor="middle" x="270" y="-393" font-family="Helvetica,sans-Serif" font-size="10.00">ActorsDrawList</text>
</a>
</g>
</g>
<!-- Node1&#45;&gt;Node5 -->
<g id="edge5" class="edge"><title>Node1&#45;&gt;Node5</title>
<path fill="none" stroke="midnightblue" d="M77.3185,-145.746C105.807,-183.682 209.772,-322.128 251.497,-377.692"/>
<polygon fill="midnightblue" stroke="midnightblue" points="248.835,-379.975 257.638,-385.87 254.432,-375.772 248.835,-379.975"/>
</g>
<!-- Node34 -->
<g id="node34" class="node"><title>Node34</title>
<g id="a_node34"><a xlink:href="../../d1/d55/struct_outdoor_location.html#a283af8098a7e7d04782721a68286776a" target="_top" xlink:title=" ">
<polygon fill="white" stroke="black" points="174,-164.5 174,-183.5 366,-183.5 366,-164.5 174,-164.5"/>
<text text-anchor="middle" x="270" y="-171.5" font-family="Helvetica,sans-Serif" font-size="10.00">OutdoorLocation::UpdateDiscoveredArea</text>
</a>
</g>
</g>
<!-- Node1&#45;&gt;Node34 -->
<g id="edge38" class="edge"><title>Node1&#45;&gt;Node34</title>
<path fill="none" stroke="midnightblue" d="M119.959,-145.54C147.045,-150.712 180.708,-157.14 209.183,-162.578"/>
<polygon fill="midnightblue" stroke="midnightblue" points="208.541,-166.018 219.02,-164.456 209.854,-159.142 208.541,-166.018"/>
</g>
<!-- Node35 -->
<g id="node35" class="node"><title>Node35</title>
<g id="a_node35"><a xlink:href="../../d1/d55/struct_outdoor_location.html#a0a6da39ca4fa6c668663e87a51d706a2" target="_top" xlink:title=" ">
<polygon fill="white" stroke="black" points="199.5,-126.5 199.5,-145.5 340.5,-145.5 340.5,-126.5 199.5,-126.5"/>
<text text-anchor="middle" x="270" y="-133.5" font-family="Helvetica,sans-Serif" font-size="10.00">OutdoorLocation::UpdateFog</text>
</a>
</g>
</g>
<!-- Node1&#45;&gt;Node35 -->
<g id="edge39" class="edge"><title>Node1&#45;&gt;Node35</title>
<path fill="none" stroke="midnightblue" d="M138.206,-136C154.512,-136 172.066,-136 188.855,-136"/>
<polygon fill="midnightblue" stroke="midnightblue" points="189.191,-139.5 199.191,-136 189.191,-132.5 189.191,-139.5"/>
</g>
<!-- Node37 -->
<g id="node37" class="node"><title>Node37</title>
<g id="a_node37"><a xlink:href="../../d1/d55/struct_outdoor_location.html#ad1464d7a2aad592f0aff9786e636496e" target="_top" xlink:title=" ">
<polygon fill="white" stroke="black" points="190,-77 190,-107 350,-107 350,-77 190,-77"/>
<text text-anchor="start" x="198" y="-95" font-family="Helvetica,sans-Serif" font-size="10.00">OutdoorLocation::UpdateSunlight</text>
<text text-anchor="middle" x="270" y="-84" font-family="Helvetica,sans-Serif" font-size="10.00">Vectors</text>
</a>
</g>
</g>
<!-- Node1&#45;&gt;Node37 -->
<g id="edge41" class="edge"><title>Node1&#45;&gt;Node37</title>
<path fill="none" stroke="midnightblue" d="M113.18,-126.453C135.885,-121.432 164.424,-115.122 190.854,-109.279"/>
<polygon fill="midnightblue" stroke="midnightblue" points="191.855,-112.642 200.863,-107.065 190.344,-105.807 191.855,-112.642"/>
</g>
<!-- Node40 -->
<g id="node40" class="node"><title>Node40</title>
<g id="a_node40"><a xlink:href="../../d1/d03/_outdoor_8cpp.html#a1fc6a9841260afdd3a49a96000d9157b" target="_top" xlink:title=" ">
<polygon fill="white" stroke="black" points="215,-38.5 215,-57.5 325,-57.5 325,-38.5 215,-38.5"/>
<text text-anchor="middle" x="270" y="-45.5" font-family="Helvetica,sans-Serif" font-size="10.00">WorldPosToGridCellX</text>
</a>
</g>
</g>
<!-- Node1&#45;&gt;Node40 -->
<g id="edge45" class="edge"><title>Node1&#45;&gt;Node40</title>
<path fill="none" stroke="midnightblue" d="M81.3073,-126.307C99.5446,-111.205 137.149,-82.2163 174,-67 183.661,-63.011 194.229,-59.839 204.695,-57.3225"/>
<polygon fill="midnightblue" stroke="midnightblue" points="205.663,-60.6928 214.665,-55.1053 204.143,-53.8597 205.663,-60.6928"/>
</g>
<!-- Node41 -->
<g id="node41" class="node"><title>Node41</title>
<g id="a_node41"><a xlink:href="../../d1/d03/_outdoor_8cpp.html#a7e25ed8503996c8f34bdc79af76b1189" target="_top" xlink:title=" ">
<polygon fill="white" stroke="black" points="215,-0.5 215,-19.5 325,-19.5 325,-0.5 215,-0.5"/>
<text text-anchor="middle" x="270" y="-7.5" font-family="Helvetica,sans-Serif" font-size="10.00">WorldPosToGridCellZ</text>
</a>
</g>
</g>
<!-- Node1&#45;&gt;Node41 -->
<g id="edge46" class="edge"><title>Node1&#45;&gt;Node41</title>
<path fill="none" stroke="midnightblue" d="M76.22,-126.436C90.6149,-105.145 128.495,-53.7714 174,-29 183.501,-23.8282 194.223,-20.0558 204.955,-17.306"/>
<polygon fill="midnightblue" stroke="midnightblue" points="205.811,-20.7007 214.777,-15.0575 204.249,-13.8772 205.811,-20.7007"/>
</g>
<!-- Node3 -->
<g id="node3" class="node"><title>Node3</title>
<g id="a_node3"><a xlink:href="../../de/db6/_our_math_8cpp.html#a58862672cc5cd743a746469cb57f63fb" target="_top" xlink:title=" ">
<polygon fill="white" stroke="black" points="451.5,-726.5 451.5,-745.5 517.5,-745.5 517.5,-726.5 451.5,-726.5"/>
<text text-anchor="middle" x="484.5" y="-733.5" font-family="Helvetica,sans-Serif" font-size="10.00">fixpoint_dot</text>
</a>
</g>
</g>
<!-- Node2&#45;&gt;Node3 -->
<g id="edge2" class="edge"><title>Node2&#45;&gt;Node3</title>
<path fill="none" stroke="midnightblue" d="M326.554,-736C362.395,-736 408.289,-736 441.176,-736"/>
<polygon fill="midnightblue" stroke="midnightblue" points="441.368,-739.5 451.368,-736 441.368,-732.5 441.368,-739.5"/>
</g>
<!-- Node4 -->
<g id="node4" class="node"><title>Node4</title>
<g id="a_node4"><a xlink:href="../../de/db6/_our_math_8cpp.html#abc4811d26f9864e00046c39c39d65680" target="_top" xlink:title=" ">
<polygon fill="white" stroke="black" points="651.5,-764.5 651.5,-783.5 719.5,-783.5 719.5,-764.5 651.5,-764.5"/>
<text text-anchor="middle" x="685.5" y="-771.5" font-family="Helvetica,sans-Serif" font-size="10.00">fixpoint_mul</text>
</a>
</g>
</g>
<!-- Node2&#45;&gt;Node4 -->
<g id="edge4" class="edge"><title>Node2&#45;&gt;Node4</title>
<path fill="none" stroke="midnightblue" d="M326.658,-745.037C349.895,-748.559 377.204,-752.372 402,-755 486.497,-763.956 585.687,-769.48 641.201,-772.123"/>
<polygon fill="midnightblue" stroke="midnightblue" points="641.223,-775.628 651.375,-772.599 641.549,-768.636 641.223,-775.628"/>
</g>
<!-- Node3&#45;&gt;Node4 -->
<g id="edge3" class="edge"><title>Node3&#45;&gt;Node4</title>
<path fill="none" stroke="midnightblue" d="M517.916,-742.19C551.539,-748.611 604.294,-758.684 641.41,-765.772"/>
<polygon fill="midnightblue" stroke="midnightblue" points="640.956,-769.248 651.435,-767.686 642.269,-762.372 640.956,-769.248"/>
</g>
<!-- Node6 -->
<g id="node6" class="node"><title>Node6</title>
<g id="a_node6"><a xlink:href="../../db/d64/struct_spell_fx_renderer.html#a003d0ba7d2245a178a30356d2e56e3f6" target="_top" xlink:title=" ">
<polygon fill="white" stroke="black" points="417.5,-574.5 417.5,-593.5 551.5,-593.5 551.5,-574.5 417.5,-574.5"/>
<text text-anchor="middle" x="484.5" y="-581.5" font-family="Helvetica,sans-Serif" font-size="10.00">SpellFxRenderer::_4A7F74</text>
</a>
</g>
</g>
<!-- Node5&#45;&gt;Node6 -->
<g id="edge6" class="edge"><title>Node5&#45;&gt;Node6</title>
<path fill="none" stroke="midnightblue" d="M278.47,-416.015C295.532,-448.668 340.673,-526.301 402,-565 405.36,-567.12 408.932,-569.004 412.632,-570.678"/>
<polygon fill="midnightblue" stroke="midnightblue" points="411.461,-573.979 422.047,-574.422 414.048,-567.474 411.461,-573.979"/>
</g>
<!-- Node9 -->
<g id="node9" class="node"><title>Node9</title>
<g id="a_node9"><a xlink:href="../../db/d64/struct_spell_fx_renderer.html#a4d2f47733abb1bfee11d42251fdd8d77" target="_top" xlink:title=" ">
<polygon fill="white" stroke="black" points="416,-487 416,-517 553,-517 553,-487 416,-487"/>
<text text-anchor="start" x="424" y="-505" font-family="Helvetica,sans-Serif" font-size="10.00">SpellFxRenderer::_4A806F</text>
<text text-anchor="middle" x="484.5" y="-494" font-family="Helvetica,sans-Serif" font-size="10.00">_get_mass_distortion_value</text>
</a>
</g>
</g>
<!-- Node5&#45;&gt;Node9 -->
<g id="edge9" class="edge"><title>Node5&#45;&gt;Node9</title>
<path fill="none" stroke="midnightblue" d="M293.357,-416.1C318.793,-432.764 362,-459.535 402,-477 407.3,-479.314 412.882,-481.504 418.535,-483.555"/>
<polygon fill="midnightblue" stroke="midnightblue" points="417.484,-486.895 428.079,-486.87 419.781,-480.282 417.484,-486.895"/>
</g>
<!-- Node13 -->
<g id="node13" class="node"><title>Node13</title>
<g id="a_node13"><a xlink:href="../../d9/d30/_s_d_l__assert_8h.html#afedcea68cf85ee469ab1ea390bbe0abb" target="_top" xlink:title=" ">
<polygon fill="white" stroke="black" points="817.5,-384.5 817.5,-403.5 894.5,-403.5 894.5,-384.5 817.5,-384.5"/>
<text text-anchor="middle" x="856" y="-391.5" font-family="Helvetica,sans-Serif" font-size="10.00">__debugbreak</text>
</a>
</g>
</g>
<!-- Node5&#45;&gt;Node13 -->
<g id="edge13" class="edge"><title>Node5&#45;&gt;Node13</title>
<path fill="none" stroke="midnightblue" d="M334.029,-400.238C400.81,-399.431 509.337,-398.122 603,-397 674.218,-396.147 756.759,-395.166 807.425,-394.564"/>
<polygon fill="midnightblue" stroke="midnightblue" points="807.471,-398.064 817.429,-394.446 807.388,-391.065 807.471,-398.064"/>
</g>
<!-- Node14 -->
<g id="node14" class="node"><title>Node14</title>
<g id="a_node14"><a xlink:href="../../d1/d36/struct_lights_stack___mobile_light__.html#adae73670ea3bd3fba19fe0c1c1509e46" target="_top" xlink:title=" ">
<polygon fill="white" stroke="black" points="423,-285 423,-315 546,-315 546,-285 423,-285"/>
<text text-anchor="start" x="431" y="-303" font-family="Helvetica,sans-Serif" font-size="10.00">LightsStack_MobileLight</text>
<text text-anchor="middle" x="484.5" y="-292" font-family="Helvetica,sans-Serif" font-size="10.00">_::AddLight</text>
</a>
</g>
</g>
<!-- Node5&#45;&gt;Node14 -->
<g id="edge14" class="edge"><title>Node5&#45;&gt;Node14</title>
<path fill="none" stroke="midnightblue" d="M293.357,-385.9C318.793,-369.236 362,-342.465 402,-325 407.3,-322.686 412.882,-320.496 418.535,-318.445"/>
<polygon fill="midnightblue" stroke="midnightblue" points="419.781,-321.718 428.079,-315.13 417.484,-315.105 419.781,-321.718"/>
</g>
<!-- Node16 -->
<g id="node16" class="node"><title>Node16</title>
<g id="a_node16"><a xlink:href="../../d6/d38/structstru193__math.html#ae5c580a8915049b2fe00949acf3ca728" target="_top" xlink:title=" ">
<polygon fill="white" stroke="black" points="431,-334.5 431,-353.5 538,-353.5 538,-334.5 431,-334.5"/>
<text text-anchor="middle" x="484.5" y="-341.5" font-family="Helvetica,sans-Serif" font-size="10.00">stru193_math::Atan2</text>
</a>
</g>
</g>
<!-- Node5&#45;&gt;Node16 -->
<g id="edge16" class="edge"><title>Node5&#45;&gt;Node16</title>
<path fill="none" stroke="midnightblue" d="M327.11,-385.949C361.766,-376.653 405.658,-364.88 438.115,-356.174"/>
<polygon fill="midnightblue" stroke="midnightblue" points="439.046,-359.548 447.798,-353.577 437.233,-352.787 439.046,-359.548"/>
</g>
<!-- Node17 -->
<g id="node17" class="node"><title>Node17</title>
<g id="a_node17"><a xlink:href="../../d6/dc9/structfixed.html#a5afca03668479a0abe9b6d9fcc2d3bd6" target="_top" xlink:title=" ">
<polygon fill="white" stroke="black" points="446.5,-536.5 446.5,-555.5 522.5,-555.5 522.5,-536.5 446.5,-536.5"/>
<text text-anchor="middle" x="484.5" y="-543.5" font-family="Helvetica,sans-Serif" font-size="10.00">fixed::FromInt</text>
</a>
</g>
</g>
<!-- Node5&#45;&gt;Node17 -->
<g id="edge17" class="edge"><title>Node5&#45;&gt;Node17</title>
<path fill="none" stroke="midnightblue" d="M282.126,-416.101C302.672,-442.841 349.312,-498.388 402,-527 412.467,-532.684 424.589,-536.676 436.232,-539.477"/>
<polygon fill="midnightblue" stroke="midnightblue" points="435.774,-542.959 446.287,-541.645 437.249,-536.116 435.774,-542.959"/>
</g>
<!-- Node20 -->
<g id="node20" class="node"><title>Node20</title>
<g id="a_node20"><a xlink:href="../../d6/dc9/structfixed.html#ad0fc6c247f74f41d4ffb6e7f6eef555d" target="_top" xlink:title=" ">
<polygon fill="white" stroke="black" points="444.5,-246.5 444.5,-265.5 524.5,-265.5 524.5,-246.5 444.5,-246.5"/>
<text text-anchor="middle" x="484.5" y="-253.5" font-family="Helvetica,sans-Serif" font-size="10.00">fixed::GetFloat</text>
</a>
</g>
</g>
<!-- Node5&#45;&gt;Node20 -->
<g id="edge20" class="edge"><title>Node5&#45;&gt;Node20</title>
<path fill="none" stroke="midnightblue" d="M282.126,-385.899C302.672,-359.159 349.312,-303.612 402,-275 411.873,-269.639 423.218,-265.782 434.244,-263.012"/>
<polygon fill="midnightblue" stroke="midnightblue" points="435.244,-266.374 444.23,-260.76 433.705,-259.545 435.244,-266.374"/>
</g>
<!-- Node23 -->
<g id="node23" class="node"><title>Node23</title>
<g id="a_node23"><a xlink:href="../../de/da7/struct_sprite_frame_table.html#a4bca0b7ce7055f69630c6bd3217047d7" target="_top" xlink:title=" ">
<polygon fill="white" stroke="black" points="413,-208.5 413,-227.5 556,-227.5 556,-208.5 413,-208.5"/>
<text text-anchor="middle" x="484.5" y="-215.5" font-family="Helvetica,sans-Serif" font-size="10.00">SpriteFrameTable::GetFrame</text>
</a>
</g>
</g>
<!-- Node5&#45;&gt;Node23 -->
<g id="edge23" class="edge"><title>Node5&#45;&gt;Node23</title>
<path fill="none" stroke="midnightblue" d="M278.47,-385.985C295.532,-353.332 340.673,-275.699 402,-237 405.36,-234.88 408.932,-232.996 412.632,-231.322"/>
<polygon fill="midnightblue" stroke="midnightblue" points="414.048,-234.526 422.047,-227.578 411.461,-228.021 414.048,-234.526"/>
</g>
<!-- Node24 -->
<g id="node24" class="node"><title>Node24</title>
<g id="a_node24"><a xlink:href="../../de/da7/struct_sprite_frame_table.html#a3d99b09a2d8e49dfa89eae43f6ddfe0a" target="_top" xlink:title=" ">
<polygon fill="white" stroke="black" points="402,-170.5 402,-189.5 567,-189.5 567,-170.5 402,-170.5"/>
<text text-anchor="middle" x="484.5" y="-177.5" font-family="Helvetica,sans-Serif" font-size="10.00">SpriteFrameTable::GetFrameBy_x</text>
</a>
</g>
</g>
<!-- Node5&#45;&gt;Node24 -->
<g id="edge24" class="edge"><title>Node5&#45;&gt;Node24</title>
<path fill="none" stroke="midnightblue" d="M276.279,-385.729C290.261,-347.667 332.049,-248.125 402,-199 404.735,-197.08 407.636,-195.351 410.651,-193.795"/>
<polygon fill="midnightblue" stroke="midnightblue" points="412.285,-196.899 419.99,-189.626 409.431,-190.507 412.285,-196.899"/>
</g>
<!-- Node25 -->
<g id="node25" class="node"><title>Node25</title>
<g id="a_node25"><a xlink:href="../../de/d73/class_image.html#a5093fa64598a4d7e0c70d43fe67e35cd" target="_top" xlink:title=" ">
<polygon fill="white" stroke="black" points="438.5,-410.5 438.5,-429.5 530.5,-429.5 530.5,-410.5 438.5,-410.5"/>
<text text-anchor="middle" x="484.5" y="-417.5" font-family="Helvetica,sans-Serif" font-size="10.00">Image::GetHeight</text>
</a>
</g>
</g>
<!-- Node5&#45;&gt;Node25 -->
<g id="edge25" class="edge"><title>Node5&#45;&gt;Node25</title>
<path fill="none" stroke="midnightblue" d="M334.182,-406.649C364.037,-409.319 399.353,-412.476 428.143,-415.05"/>
<polygon fill="midnightblue" stroke="midnightblue" points="428.16,-418.566 438.432,-415.97 428.784,-411.594 428.16,-418.566"/>
</g>
<!-- Node28 -->
<g id="node28" class="node"><title>Node28</title>
<g id="a_node28"><a xlink:href="../../de/d73/class_image.html#a9241b1c53141c78273e4060a91634d47" target="_top" xlink:title=" ">
<polygon fill="white" stroke="black" points="439.5,-448.5 439.5,-467.5 529.5,-467.5 529.5,-448.5 439.5,-448.5"/>
<text text-anchor="middle" x="484.5" y="-455.5" font-family="Helvetica,sans-Serif" font-size="10.00">Image::GetWidth</text>
</a>
</g>
</g>
<!-- Node5&#45;&gt;Node28 -->
<g id="edge30" class="edge"><title>Node5&#45;&gt;Node28</title>
<path fill="none" stroke="midnightblue" d="M320.592,-416.061C345.021,-423.307 374.965,-431.933 402,-439 411.285,-441.427 421.204,-443.867 430.813,-446.151"/>
<polygon fill="midnightblue" stroke="midnightblue" points="430.138,-449.587 440.674,-448.468 431.739,-442.773 430.138,-449.587"/>
</g>
<!-- Node29 -->
<g id="node29" class="node"><title>Node29</title>
<g id="a_node29"><a xlink:href="../../d9/de5/struct_indoor_camera_d3_d.html#a32190b521a23e986e5b0b13098e4b114" target="_top" xlink:title=" ">
<polygon fill="white" stroke="black" points="418.5,-688.5 418.5,-707.5 550.5,-707.5 550.5,-688.5 418.5,-688.5"/>
<text text-anchor="middle" x="484.5" y="-695.5" font-family="Helvetica,sans-Serif" font-size="10.00">IndoorCameraD3D::Project</text>
</a>
</g>
</g>
<!-- Node5&#45;&gt;Node29 -->
<g id="edge33" class="edge"><title>Node5&#45;&gt;Node29</title>
<path fill="none" stroke="midnightblue" d="M273.424,-416.179C281.77,-463.23 313.822,-607.732 402,-679 404.278,-680.841 406.702,-682.509 409.235,-684.022"/>
<polygon fill="midnightblue" stroke="midnightblue" points="407.716,-687.176 418.217,-688.584 410.886,-680.935 407.716,-687.176"/>
</g>
<!-- Node30 -->
<g id="node30" class="node"><title>Node30</title>
<g id="a_node30"><a xlink:href="../../d9/de5/struct_indoor_camera_d3_d.html#a4c237cb96e18e53a8d9a9f01df08165c" target="_top" xlink:title=" ">
<polygon fill="white" stroke="black" points="415,-650.5 415,-669.5 554,-669.5 554,-650.5 415,-650.5"/>
<text text-anchor="middle" x="484.5" y="-657.5" font-family="Helvetica,sans-Serif" font-size="10.00">IndoorCameraD3D::ViewClip</text>
</a>
</g>
</g>
<!-- Node5&#45;&gt;Node30 -->
<g id="edge34" class="edge"><title>Node5&#45;&gt;Node30</title>
<path fill="none" stroke="midnightblue" d="M278.199,-416.064C295.694,-451.607 343.35,-542.262 402,-603 418.192,-619.768 439.971,-634.702 456.941,-645.074"/>
<polygon fill="midnightblue" stroke="midnightblue" points="455.425,-648.244 465.809,-650.349 459.004,-642.228 455.425,-648.244"/>
</g>
<!-- Node7 -->
<g id="node7" class="node"><title>Node7</title>
<g id="a_node7"><a xlink:href="../../dd/d2d/class_particle_engine.html#aa0699c216edc3b210955899c8df6cb05" target="_top" xlink:title=" ">
<polygon fill="white" stroke="black" points="617.5,-612.5 617.5,-631.5 753.5,-631.5 753.5,-612.5 617.5,-612.5"/>
<text text-anchor="middle" x="685.5" y="-619.5" font-family="Helvetica,sans-Serif" font-size="10.00">ParticleEngine::AddParticle</text>
</a>
</g>
</g>
<!-- Node6&#45;&gt;Node7 -->
<g id="edge7" class="edge"><title>Node6&#45;&gt;Node7</title>
<path fill="none" stroke="midnightblue" d="M535.459,-593.54C562.545,-598.712 596.208,-605.14 624.683,-610.578"/>
<polygon fill="midnightblue" stroke="midnightblue" points="624.041,-614.018 634.52,-612.456 625.354,-607.142 624.041,-614.018"/>
</g>
<!-- Node8 -->
<g id="node8" class="node"><title>Node8</title>
<g id="a_node8"><a xlink:href="../../da/d64/struct_random.html#a294c8c2838aa96d54ff320ddc4462c49" target="_top" xlink:title=" ">
<polygon fill="white" stroke="black" points="630.5,-574.5 630.5,-593.5 740.5,-593.5 740.5,-574.5 630.5,-574.5"/>
<text text-anchor="middle" x="685.5" y="-581.5" font-family="Helvetica,sans-Serif" font-size="10.00">Random::GetRandom</text>
</a>
</g>
</g>
<!-- Node6&#45;&gt;Node8 -->
<g id="edge8" class="edge"><title>Node6&#45;&gt;Node8</title>
<path fill="none" stroke="midnightblue" d="M551.764,-584C573.823,-584 598.345,-584 620.249,-584"/>
<polygon fill="midnightblue" stroke="midnightblue" points="620.439,-587.5 630.439,-584 620.439,-580.5 620.439,-587.5"/>
</g>
<!-- Node10 -->
<g id="node10" class="node"><title>Node10</title>
<g id="a_node10"><a xlink:href="../../db/d1e/struct_spell_buff.html#a05bb78040b623168fa0fcc66764d1871" target="_top" xlink:title=" ">
<polygon fill="white" stroke="black" points="642.5,-498.5 642.5,-517.5 728.5,-517.5 728.5,-498.5 642.5,-498.5"/>
<text text-anchor="middle" x="685.5" y="-505.5" font-family="Helvetica,sans-Serif" font-size="10.00">SpellBuff::Reset</text>
</a>
</g>
</g>
<!-- Node9&#45;&gt;Node10 -->
<g id="edge10" class="edge"><title>Node9&#45;&gt;Node10</title>
<path fill="none" stroke="midnightblue" d="M553.15,-504.04C578.981,-504.819 608.014,-505.694 632.202,-506.423"/>
<polygon fill="midnightblue" stroke="midnightblue" points="632.148,-509.923 642.249,-506.726 632.359,-502.926 632.148,-509.923"/>
</g>
<!-- Node11 -->
<g id="node11" class="node"><title>Node11</title>
<g id="a_node11"><a xlink:href="../../db/dca/struct_other_overlay.html#a5398dc06bba4fa8c1bbfa026ace4cbb2" target="_top" xlink:title=" ">
<polygon fill="white" stroke="black" points="804,-498.5 804,-517.5 908,-517.5 908,-498.5 804,-498.5"/>
<text text-anchor="middle" x="856" y="-505.5" font-family="Helvetica,sans-Serif" font-size="10.00">OtherOverlay::Reset</text>
</a>
</g>
</g>
<!-- Node10&#45;&gt;Node11 -->
<g id="edge11" class="edge"><title>Node10&#45;&gt;Node11</title>
<path fill="none" stroke="midnightblue" d="M728.585,-508C748.276,-508 772.108,-508 793.748,-508"/>
<polygon fill="midnightblue" stroke="midnightblue" points="793.839,-511.5 803.839,-508 793.839,-504.5 793.839,-511.5"/>
</g>
<!-- Node12 -->
<g id="node12" class="node"><title>Node12</title>
<g id="a_node12"><a xlink:href="../../df/dc2/struct_game_time.html#ab85c95665b71cdbbfb8f0c3ee03d8f2d" target="_top" xlink:title=" ">
<polygon fill="white" stroke="black" points="808.5,-460.5 808.5,-479.5 903.5,-479.5 903.5,-460.5 808.5,-460.5"/>
<text text-anchor="middle" x="856" y="-467.5" font-family="Helvetica,sans-Serif" font-size="10.00">GameTime::Reset</text>
</a>
</g>
</g>
<!-- Node10&#45;&gt;Node12 -->
<g id="edge12" class="edge"><title>Node10&#45;&gt;Node12</title>
<path fill="none" stroke="midnightblue" d="M728.585,-498.509C751.102,-493.431 779.034,-487.132 802.911,-481.747"/>
<polygon fill="midnightblue" stroke="midnightblue" points="803.883,-485.116 812.868,-479.502 802.342,-478.287 803.883,-485.116"/>
</g>
<!-- Node15 -->
<g id="node15" class="node"><title>Node15</title>
<g id="a_node15"><a xlink:href="../../d6/d70/class_log.html#ac0de2621497ca3b2fbf208624c08bcdf" target="_top" xlink:title=" ">
<polygon fill="white" stroke="black" points="648.5,-290.5 648.5,-309.5 722.5,-309.5 722.5,-290.5 648.5,-290.5"/>
<text text-anchor="middle" x="685.5" y="-297.5" font-family="Helvetica,sans-Serif" font-size="10.00">Log::Warning</text>
</a>
</g>
</g>
<!-- Node14&#45;&gt;Node15 -->
<g id="edge15" class="edge"><title>Node14&#45;&gt;Node15</title>
<path fill="none" stroke="midnightblue" d="M546.017,-300C575.625,-300 610.702,-300 638.146,-300"/>
<polygon fill="midnightblue" stroke="midnightblue" points="638.262,-303.5 648.262,-300 638.262,-296.5 638.262,-303.5"/>
</g>
<!-- Node18 -->
<g id="node18" class="node"><title>Node18</title>
<g id="a_node18"><a xlink:href="../../d6/dc9/structfixed.html#a77864f1a61a82980108874fc3709d9ef" target="_top" xlink:title=" ">
<polygon fill="white" stroke="black" points="654.5,-536.5 654.5,-555.5 716.5,-555.5 716.5,-536.5 654.5,-536.5"/>
<text text-anchor="middle" x="685.5" y="-543.5" font-family="Helvetica,sans-Serif" font-size="10.00">fixed::Raw</text>
</a>
</g>
</g>
<!-- Node17&#45;&gt;Node18 -->
<g id="edge18" class="edge"><title>Node17&#45;&gt;Node18</title>
<path fill="none" stroke="midnightblue" d="M522.93,-546C557.566,-546 608.91,-546 644.379,-546"/>
<polygon fill="midnightblue" stroke="midnightblue" points="644.388,-549.5 654.388,-546 644.388,-542.5 644.388,-549.5"/>
</g>
<!-- Node19 -->
<g id="node19" class="node"><title>Node19</title>
<g id="a_node19"><a xlink:href="../../d6/dc9/structfixed.html#a35ab68b29d570ad4cdb6c752b344f7e2" target="_top" xlink:title=" ">
<polygon fill="white" stroke="black" points="824.5,-536.5 824.5,-555.5 887.5,-555.5 887.5,-536.5 824.5,-536.5"/>
<text text-anchor="middle" x="856" y="-543.5" font-family="Helvetica,sans-Serif" font-size="10.00">fixed::fixed</text>
</a>
</g>
</g>
<!-- Node18&#45;&gt;Node19 -->
<g id="edge19" class="edge"><title>Node18&#45;&gt;Node19</title>
<path fill="none" stroke="midnightblue" d="M716.624,-546C743.806,-546 784.022,-546 814.103,-546"/>
<polygon fill="midnightblue" stroke="midnightblue" points="814.283,-549.5 824.283,-546 814.283,-542.5 814.283,-549.5"/>
</g>
<!-- Node21 -->
<g id="node21" class="node"><title>Node21</title>
<g id="a_node21"><a xlink:href="../../d6/dc9/structfixed.html#ab6b771c1a2d676ba5512cbafc308ac7e" target="_top" xlink:title=" ">
<polygon fill="white" stroke="black" points="627.5,-249.5 627.5,-268.5 743.5,-268.5 743.5,-249.5 627.5,-249.5"/>
<text text-anchor="middle" x="685.5" y="-256.5" font-family="Helvetica,sans-Serif" font-size="10.00">fixed::GetFloatFraction</text>
</a>
</g>
</g>
<!-- Node20&#45;&gt;Node21 -->
<g id="edge21" class="edge"><title>Node20&#45;&gt;Node21</title>
<path fill="none" stroke="midnightblue" d="M524.816,-256.593C551.072,-256.989 586.283,-257.519 616.96,-257.982"/>
<polygon fill="midnightblue" stroke="midnightblue" points="617.119,-261.485 627.17,-258.136 617.224,-254.485 617.119,-261.485"/>
</g>
<!-- Node22 -->
<g id="node22" class="node"><title>Node22</title>
<g id="a_node22"><a xlink:href="../../d6/dc9/structfixed.html#a098a278109924408f9aa7a1773380751" target="_top" xlink:title=" ">
<polygon fill="white" stroke="black" points="651,-211.5 651,-230.5 720,-230.5 720,-211.5 651,-211.5"/>
<text text-anchor="middle" x="685.5" y="-218.5" font-family="Helvetica,sans-Serif" font-size="10.00">fixed::GetInt</text>
</a>
</g>
</g>
<!-- Node20&#45;&gt;Node22 -->
<g id="edge22" class="edge"><title>Node20&#45;&gt;Node22</title>
<path fill="none" stroke="midnightblue" d="M524.816,-249.085C558.178,-243.217 605.999,-234.807 640.604,-228.72"/>
<polygon fill="midnightblue" stroke="midnightblue" points="641.646,-232.091 650.888,-226.912 640.433,-225.197 641.646,-232.091"/>
</g>
<!-- Node25&#45;&gt;Node13 -->
<g id="edge26" class="edge"><title>Node25&#45;&gt;Node13</title>
<path fill="none" stroke="midnightblue" d="M530.808,-416.812C601.064,-411.868 735.639,-402.399 807.315,-397.355"/>
<polygon fill="midnightblue" stroke="midnightblue" points="807.689,-400.838 817.419,-396.644 807.198,-393.855 807.689,-400.838"/>
</g>
<!-- Node26 -->
<g id="node26" class="node"><title>Node26</title>
<g id="a_node26"><a xlink:href="../../de/d73/class_image.html#a9b786ec61110907b38dda728bd281c73" target="_top" xlink:title=" ">
<polygon fill="white" stroke="black" points="627.5,-422.5 627.5,-441.5 743.5,-441.5 743.5,-422.5 627.5,-422.5"/>
<text text-anchor="middle" x="685.5" y="-429.5" font-family="Helvetica,sans-Serif" font-size="10.00">Image::LoadImageData</text>
</a>
</g>
</g>
<!-- Node25&#45;&gt;Node26 -->
<g id="edge27" class="edge"><title>Node25&#45;&gt;Node26</title>
<path fill="none" stroke="midnightblue" d="M530.656,-422.723C556.189,-424.263 588.609,-426.218 617.098,-427.936"/>
<polygon fill="midnightblue" stroke="midnightblue" points="617.203,-431.448 627.395,-428.557 617.624,-424.461 617.203,-431.448"/>
</g>
<!-- Node26&#45;&gt;Node13 -->
<g id="edge28" class="edge"><title>Node26&#45;&gt;Node13</title>
<path fill="none" stroke="midnightblue" d="M729.02,-422.411C752.927,-417.02 782.831,-410.276 807.504,-404.711"/>
<polygon fill="midnightblue" stroke="midnightblue" points="808.39,-408.099 817.375,-402.485 806.85,-401.271 808.39,-408.099"/>
</g>
<!-- Node27 -->
<g id="node27" class="node"><title>Node27</title>
<g id="a_node27"><a xlink:href="../../d7/d42/class_image_loader.html#ad346c7973ae6f1d84a8c1fc655661319" target="_top" xlink:title=" ">
<polygon fill="white" stroke="black" points="806.5,-422.5 806.5,-441.5 905.5,-441.5 905.5,-422.5 806.5,-422.5"/>
<text text-anchor="middle" x="856" y="-429.5" font-family="Helvetica,sans-Serif" font-size="10.00">ImageLoader::Load</text>
</a>
</g>
</g>
<!-- Node26&#45;&gt;Node27 -->
<g id="edge29" class="edge"><title>Node26&#45;&gt;Node27</title>
<path fill="none" stroke="midnightblue" d="M743.546,-432C760.466,-432 779.026,-432 796.063,-432"/>
<polygon fill="midnightblue" stroke="midnightblue" points="796.447,-435.5 806.447,-432 796.446,-428.5 796.447,-435.5"/>
</g>
<!-- Node28&#45;&gt;Node13 -->
<g id="edge31" class="edge"><title>Node28&#45;&gt;Node13</title>
<path fill="none" stroke="midnightblue" d="M529.879,-466.986C587.527,-476.463 690.006,-485.699 768,-451 789.256,-441.544 784.598,-425.837 804,-413 806.925,-411.064 810.075,-409.291 813.322,-407.672"/>
<polygon fill="midnightblue" stroke="midnightblue" points="814.922,-410.791 822.626,-403.519 812.068,-404.399 814.922,-410.791"/>
</g>
<!-- Node28&#45;&gt;Node26 -->
<g id="edge32" class="edge"><title>Node28&#45;&gt;Node26</title>
<path fill="none" stroke="midnightblue" d="M529.665,-452.23C555.374,-448.871 588.311,-444.567 617.192,-440.794"/>
<polygon fill="midnightblue" stroke="midnightblue" points="617.758,-444.25 627.22,-439.484 616.851,-437.309 617.758,-444.25"/>
</g>
<!-- Node31 -->
<g id="node31" class="node"><title>Node31</title>
<g id="a_node31"><a xlink:href="../../d9/de5/struct_indoor_camera_d3_d.html#ae44ac296d0d5225048b313e14edf7da1" target="_top" xlink:title=" ">
<polygon fill="white" stroke="black" points="611.5,-688.5 611.5,-707.5 759.5,-707.5 759.5,-688.5 611.5,-688.5"/>
<text text-anchor="middle" x="685.5" y="-695.5" font-family="Helvetica,sans-Serif" font-size="10.00">IndoorCameraD3D::GetFarClip</text>
</a>
</g>
</g>
<!-- Node30&#45;&gt;Node31 -->
<g id="edge35" class="edge"><title>Node30&#45;&gt;Node31</title>
<path fill="none" stroke="midnightblue" d="M535.459,-669.54C562.545,-674.712 596.208,-681.14 624.683,-686.578"/>
<polygon fill="midnightblue" stroke="midnightblue" points="624.041,-690.018 634.52,-688.456 625.354,-683.142 624.041,-690.018"/>
</g>
<!-- Node32 -->
<g id="node32" class="node"><title>Node32</title>
<g id="a_node32"><a xlink:href="../../d9/de5/struct_indoor_camera_d3_d.html#a6ade9a050aa9009a83e21461c6c470c4" target="_top" xlink:title=" ">
<polygon fill="white" stroke="black" points="608.5,-650.5 608.5,-669.5 762.5,-669.5 762.5,-650.5 608.5,-650.5"/>
<text text-anchor="middle" x="685.5" y="-657.5" font-family="Helvetica,sans-Serif" font-size="10.00">IndoorCameraD3D::GetNearClip</text>
</a>
</g>
</g>
<!-- Node30&#45;&gt;Node32 -->
<g id="edge36" class="edge"><title>Node30&#45;&gt;Node32</title>
<path fill="none" stroke="midnightblue" d="M554.263,-660C568.411,-660 583.479,-660 598.158,-660"/>
<polygon fill="midnightblue" stroke="midnightblue" points="598.242,-663.5 608.242,-660 598.242,-656.5 598.242,-663.5"/>
</g>
<!-- Node33 -->
<g id="node33" class="node"><title>Node33</title>
<g id="a_node33"><a xlink:href="../../d9/de5/struct_indoor_camera_d3_d.html#a819c840787fde1b667c5477bafb21a62" target="_top" xlink:title=" ">
<polygon fill="white" stroke="black" points="603,-726.5 603,-745.5 768,-745.5 768,-726.5 603,-726.5"/>
<text text-anchor="middle" x="685.5" y="-733.5" font-family="Helvetica,sans-Serif" font-size="10.00">IndoorCameraD3D::ViewTransform</text>
</a>
</g>
</g>
<!-- Node30&#45;&gt;Node33 -->
<g id="edge37" class="edge"><title>Node30&#45;&gt;Node33</title>
<path fill="none" stroke="midnightblue" d="M544.939,-669.53C552.634,-671.995 560.194,-675.097 567,-679 587.181,-690.574 582.819,-705.426 603,-717 606.935,-719.257 611.121,-721.245 615.441,-722.998"/>
<polygon fill="midnightblue" stroke="midnightblue" points="614.467,-726.367 625.061,-726.47 616.843,-719.783 614.467,-726.367"/>
</g>
<!-- Node36 -->
<g id="node36" class="node"><title>Node36</title>
<g id="a_node36"><a xlink:href="../../d1/d55/struct_outdoor_location.html#af1c6fa80f7a45b9b846a8e0058889bf4" target="_top" xlink:title=" ">
<polygon fill="white" stroke="black" points="405,-121 405,-151 564,-151 564,-121 405,-121"/>
<text text-anchor="start" x="413" y="-139" font-family="Helvetica,sans-Serif" font-size="10.00">OutdoorLocation::GetFogDensity</text>
<text text-anchor="middle" x="484.5" y="-128" font-family="Helvetica,sans-Serif" font-size="10.00">ByTime</text>
</a>
</g>
</g>
<!-- Node35&#45;&gt;Node36 -->
<g id="edge40" class="edge"><title>Node35&#45;&gt;Node36</title>
<path fill="none" stroke="midnightblue" d="M340.58,-136C357.862,-136 376.619,-136 394.685,-136"/>
<polygon fill="midnightblue" stroke="midnightblue" points="394.929,-139.5 404.929,-136 394.929,-132.5 394.929,-139.5"/>
</g>
<!-- Node38 -->
<g id="node38" class="node"><title>Node38</title>
<g id="a_node38"><a xlink:href="../../d6/d38/structstru193__math.html#a7a4a47e93ff200721e19681b71783c51" target="_top" xlink:title=" ">
<polygon fill="white" stroke="black" points="636,-63.5 636,-82.5 735,-82.5 735,-63.5 636,-63.5"/>
<text text-anchor="middle" x="685.5" y="-70.5" font-family="Helvetica,sans-Serif" font-size="10.00">stru193_math::Cos</text>
</a>
</g>
</g>
<!-- Node37&#45;&gt;Node38 -->
<g id="edge42" class="edge"><title>Node37&#45;&gt;Node38</title>
<path fill="none" stroke="midnightblue" d="M350.238,-88.3591C430.702,-84.6618 553.442,-79.022 625.656,-75.7038"/>
<polygon fill="midnightblue" stroke="midnightblue" points="626.104,-79.187 635.933,-75.2316 625.783,-72.1944 626.104,-79.187"/>
</g>
<!-- Node39 -->
<g id="node39" class="node"><title>Node39</title>
<g id="a_node39"><a xlink:href="../../d6/d38/structstru193__math.html#a9bd57620c86e36d03d93f2306f8ab80a" target="_top" xlink:title=" ">
<polygon fill="white" stroke="black" points="436.5,-44.5 436.5,-63.5 532.5,-63.5 532.5,-44.5 436.5,-44.5"/>
<text text-anchor="middle" x="484.5" y="-51.5" font-family="Helvetica,sans-Serif" font-size="10.00">stru193_math::Sin</text>
</a>
</g>
</g>
<!-- Node37&#45;&gt;Node39 -->
<g id="edge43" class="edge"><title>Node37&#45;&gt;Node39</title>
<path fill="none" stroke="midnightblue" d="M350.127,-77.8502C375.414,-73.3284 402.897,-68.4138 426.308,-64.2273"/>
<polygon fill="midnightblue" stroke="midnightblue" points="427.186,-67.6259 436.414,-62.4202 425.954,-60.7352 427.186,-67.6259"/>
</g>
<!-- Node39&#45;&gt;Node38 -->
<g id="edge44" class="edge"><title>Node39&#45;&gt;Node38</title>
<path fill="none" stroke="midnightblue" d="M532.66,-58.5027C560.523,-61.163 596.04,-64.554 625.717,-67.3875"/>
<polygon fill="midnightblue" stroke="midnightblue" points="625.661,-70.898 635.948,-68.3644 626.326,-63.9297 625.661,-70.898"/>
</g>
</g>
</svg>
