<?xml version="1.0" encoding="UTF-8" standalone="no"?>
<!DOCTYPE svg PUBLIC "-//W3C//DTD SVG 1.1//EN"
 "http://www.w3.org/Graphics/SVG/1.1/DTD/svg11.dtd">
<!-- Generated by graphviz version 2.38.0 (20140413.2041)
 -->
<!-- Title: TileTable::GetTileId Pages: 1 -->
<!--zoomable 116 -->
<svg id="main" version="1.1" xmlns="http://www.w3.org/2000/svg" xmlns:xlink="http://www.w3.org/1999/xlink" xml:space="preserve" onload="init(evt)">
<style type="text/css"><![CDATA[
.edge:hover path { stroke: red; }
.edge:hover polygon { stroke: red; fill: red; }
]]></style>
<script type="text/javascript"><![CDATA[
var edges = document.getElementsByTagName('g');
if (edges && edges.length) {
  for (var i=0;i<edges.length;i++) {
    if (edges[i].id.substr(0,4)=='edge') {
      edges[i].setAttribute('class','edge');
    }
  }
}
]]></script>
        <defs>
                <circle id="rim" cx="0" cy="0" r="7"/>
                <circle id="rim2" cx="0" cy="0" r="3.5"/>
                <g id="zoomPlus">
                        <use xlink:href="#rim" fill="#404040">
                                <set attributeName="fill" to="#808080" begin="zoomplus.mouseover" end="zoomplus.mouseout"/>
                        </use>
                        <path d="M-4,0h8M0,-4v8" fill="none" stroke="white" stroke-width="1.5" pointer-events="none"/>
                </g>
                <g id="zoomMin">
                        <use xlink:href="#rim" fill="#404040">
                                <set attributeName="fill" to="#808080" begin="zoomminus.mouseover" end="zoomminus.mouseout"/>
                        </use>
                        <path d="M-4,0h8" fill="none" stroke="white" stroke-width="1.5" pointer-events="none"/>
                </g>
                <g id="dirArrow">
                        <path fill="none" stroke="white" stroke-width="1.5" d="M0,-3.0v7 M-2.5,-0.5L0,-3.0L2.5,-0.5"/>
                </g>
               <g id="resetDef">
                       <use xlink:href="#rim2" fill="#404040">
                               <set attributeName="fill" to="#808080" begin="reset.mouseover" end="reset.mouseout"/>
                       </use>
               </g>
        </defs>

<script type="text/javascript">
var viewWidth = 1835;
var viewHeight = 116;
var sectionId = 'dynsection-5';
</script>
<script xlink:href="../../svgpan.js"/>
<svg id="graph" class="graph">
<g id="viewport">
<title>TileTable::GetTileId</title>
<polygon fill="white" stroke="none" points="-4,4 -4,-111.5 1831,-111.5 1831,4 -4,4"/>
<!-- Node1 -->
<g id="node1" class="node"><title>Node1</title>
<g id="a_node1"><a xlink:title=" ">
<polygon fill="#bfbfbf" stroke="black" points="1728,-31 1728,-50 1827,-50 1827,-31 1728,-31"/>
<text text-anchor="middle" x="1777.5" y="-38" font-family="Helvetica,sans-Serif" font-size="10.00">TileTable::GetTileId</text>
</a>
</g>
</g>
<!-- Node2 -->
<g id="node2" class="node"><title>Node2</title>
<g id="a_node2"><a xlink:href="../../d2/d6c/struct_tile_table.html#a053dd6d106453acd749f57fc719d53dc" target="_top" xlink:title=" ">
<polygon fill="white" stroke="black" points="1536,-31 1536,-50 1692,-50 1692,-31 1536,-31"/>
<text text-anchor="middle" x="1614" y="-38" font-family="Helvetica,sans-Serif" font-size="10.00">TileTable::GetTileForTerrainType</text>
</a>
</g>
</g>
<!-- Node1&#45;&gt;Node2 -->
<g id="edge1" class="edge"><title>Node1&#45;&gt;Node2</title>
<path fill="none" stroke="midnightblue" d="M1717.37,-40.5C1709.13,-40.5 1700.57,-40.5 1692.06,-40.5"/>
<polygon fill="midnightblue" stroke="midnightblue" points="1717.61,-44.0001 1727.61,-40.5 1717.61,-37.0001 1717.61,-44.0001"/>
</g>
<!-- Node3 -->
<g id="node3" class="node"><title>Node3</title>
<g id="a_node3"><a xlink:href="../../d1/d55/struct_outdoor_location.html#adf4599c0a38473eab693b1dd45ca1958" target="_top" xlink:title=" ">
<polygon fill="white" stroke="black" points="1363,-50.5 1363,-80.5 1500,-80.5 1500,-50.5 1363,-50.5"/>
<text text-anchor="start" x="1371" y="-68.5" font-family="Helvetica,sans-Serif" font-size="10.00">OutdoorLocation::LoadRoad</text>
<text text-anchor="middle" x="1431.5" y="-57.5" font-family="Helvetica,sans-Serif" font-size="10.00">Tileset</text>
</a>
</g>
</g>
<!-- Node2&#45;&gt;Node3 -->
<g id="edge2" class="edge"><title>Node2&#45;&gt;Node3</title>
<path fill="none" stroke="midnightblue" d="M1534.33,-51.3967C1522.94,-52.9733 1511.31,-54.5845 1500.17,-56.1277"/>
<polygon fill="midnightblue" stroke="midnightblue" points="1534.82,-54.8617 1544.25,-50.0227 1533.86,-47.9279 1534.82,-54.8617"/>
</g>
<!-- Node15 -->
<g id="node15" class="node"><title>Node15</title>
<g id="a_node15"><a xlink:href="../../d1/d55/struct_outdoor_location.html#add12679c66469b774798c20d23a85540" target="_top" xlink:title=" ">
<polygon fill="white" stroke="black" points="1366.5,-1.5 1366.5,-31.5 1496.5,-31.5 1496.5,-1.5 1366.5,-1.5"/>
<text text-anchor="start" x="1374.5" y="-19.5" font-family="Helvetica,sans-Serif" font-size="10.00">OutdoorLocation::LoadTile</text>
<text text-anchor="middle" x="1431.5" y="-8.5" font-family="Helvetica,sans-Serif" font-size="10.00">GroupIds</text>
</a>
</g>
</g>
<!-- Node2&#45;&gt;Node15 -->
<g id="edge17" class="edge"><title>Node2&#45;&gt;Node15</title>
<path fill="none" stroke="midnightblue" d="M1531.28,-29.6341C1519.68,-28.0922 1507.9,-26.5251 1496.7,-25.0358"/>
<polygon fill="midnightblue" stroke="midnightblue" points="1531.03,-33.1314 1541.4,-30.9801 1531.95,-26.1925 1531.03,-33.1314"/>
</g>
<!-- Node4 -->
<g id="node4" class="node"><title>Node4</title>
<g id="a_node4"><a xlink:href="../../d1/d55/struct_outdoor_location.html#a606083bf6525582bfa219a32686ae00e" target="_top" xlink:title=" ">
<polygon fill="white" stroke="black" points="1177,-47.5 1177,-77.5 1327,-77.5 1327,-47.5 1177,-47.5"/>
<text text-anchor="start" x="1185" y="-65.5" font-family="Helvetica,sans-Serif" font-size="10.00">OutdoorLocation::CreateDebug</text>
<text text-anchor="middle" x="1252" y="-54.5" font-family="Helvetica,sans-Serif" font-size="10.00">Location</text>
</a>
</g>
</g>
<!-- Node3&#45;&gt;Node4 -->
<g id="edge3" class="edge"><title>Node3&#45;&gt;Node4</title>
<path fill="none" stroke="midnightblue" d="M1352.67,-64.1846C1344.22,-64.0418 1335.64,-63.8967 1327.23,-63.7546"/>
<polygon fill="midnightblue" stroke="midnightblue" points="1352.83,-67.6877 1362.89,-64.3573 1352.95,-60.6887 1352.83,-67.6877"/>
</g>
<!-- Node14 -->
<g id="node14" class="node"><title>Node14</title>
<g id="a_node14"><a xlink:href="../../d1/d55/struct_outdoor_location.html#afd894a20666dca822ffcf6186a216e62" target="_top" xlink:title=" ">
<polygon fill="white" stroke="black" points="1194.5,-9 1194.5,-28 1309.5,-28 1309.5,-9 1194.5,-9"/>
<text text-anchor="middle" x="1252" y="-16" font-family="Helvetica,sans-Serif" font-size="10.00">OutdoorLocation::Load</text>
</a>
</g>
</g>
<!-- Node3&#45;&gt;Node14 -->
<g id="edge15" class="edge"><title>Node3&#45;&gt;Node14</title>
<path fill="none" stroke="midnightblue" d="M1365.79,-47.8554C1352.94,-44.3923 1339.55,-40.8087 1327,-37.5 1315.2,-34.3892 1302.32,-31.0605 1290.67,-28.0722"/>
<polygon fill="midnightblue" stroke="midnightblue" points="1364.91,-51.2445 1375.48,-50.4737 1366.74,-44.4868 1364.91,-51.2445"/>
</g>
<!-- Node5 -->
<g id="node5" class="node"><title>Node5</title>
<g id="a_node5"><a xlink:href="../../d1/d55/struct_outdoor_location.html#a51ee85637b8d77dd09ac74de8b1f35a1" target="_top" xlink:title=" ">
<polygon fill="white" stroke="black" points="1012,-31 1012,-50 1141,-50 1141,-31 1012,-31"/>
<text text-anchor="middle" x="1076.5" y="-38" font-family="Helvetica,sans-Serif" font-size="10.00">OutdoorLocation::Initialize</text>
</a>
</g>
</g>
<!-- Node4&#45;&gt;Node5 -->
<g id="edge4" class="edge"><title>Node4&#45;&gt;Node5</title>
<path fill="none" stroke="midnightblue" d="M1166.84,-51.8279C1158.22,-50.735 1149.56,-49.6379 1141.22,-48.5796"/>
<polygon fill="midnightblue" stroke="midnightblue" points="1166.56,-55.3204 1176.92,-53.1062 1167.44,-48.376 1166.56,-55.3204"/>
</g>
<!-- Node6 -->
<g id="node6" class="node"><title>Node6</title>
<g id="a_node6"><a xlink:href="../../dc/dfb/_outdoor_8h.html#ad0b6920041533cc49817c0c848c6b3b5" target="_top" xlink:title=" ">
<polygon fill="white" stroke="black" points="858,-31 858,-50 976,-50 976,-31 858,-31"/>
<text text-anchor="middle" x="917" y="-38" font-family="Helvetica,sans-Serif" font-size="10.00">ODM_LoadAndInitialize</text>
</a>
</g>
</g>
<!-- Node5&#45;&gt;Node6 -->
<g id="edge5" class="edge"><title>Node5&#45;&gt;Node6</title>
<path fill="none" stroke="midnightblue" d="M1001.87,-40.5C993.27,-40.5 984.593,-40.5 976.247,-40.5"/>
<polygon fill="midnightblue" stroke="midnightblue" points="1001.89,-44.0001 1011.89,-40.5 1001.89,-37.0001 1001.89,-44.0001"/>
</g>
<!-- Node7 -->
<g id="node7" class="node"><title>Node7</title>
<g id="a_node7"><a xlink:href="../../de/dcf/_engine_8h.html#a5cf7667eb3b81f9acbc63bdf01528452" target="_top" xlink:title=" ">
<polygon fill="white" stroke="black" points="718,-31 718,-50 822,-50 822,-31 718,-31"/>
<text text-anchor="middle" x="770" y="-38" font-family="Helvetica,sans-Serif" font-size="10.00">PrepareToLoadODM</text>
</a>
</g>
</g>
<!-- Node6&#45;&gt;Node7 -->
<g id="edge6" class="edge"><title>Node6&#45;&gt;Node7</title>
<path fill="none" stroke="midnightblue" d="M847.79,-40.5C839.157,-40.5 830.442,-40.5 822.138,-40.5"/>
<polygon fill="midnightblue" stroke="midnightblue" points="847.858,-44.0001 857.858,-40.5 847.858,-37.0001 847.858,-44.0001"/>
</g>
<!-- Node8 -->
<g id="node8" class="node"><title>Node8</title>
<g id="a_node8"><a xlink:href="../../de/dcf/_engine_8h.html#a7ac85aa3f91f16b9f3007f4d7f1b419a" target="_top" xlink:title=" ">
<polygon fill="white" stroke="black" points="594,-50 594,-69 682,-69 682,-50 594,-50"/>
<text text-anchor="middle" x="638" y="-57" font-family="Helvetica,sans-Serif" font-size="10.00">DoPrepareWorld</text>
</a>
</g>
</g>
<!-- Node7&#45;&gt;Node8 -->
<g id="edge7" class="edge"><title>Node7&#45;&gt;Node8</title>
<path fill="none" stroke="midnightblue" d="M707.914,-49.428C699.26,-50.6928 690.513,-51.9712 682.29,-53.1731"/>
<polygon fill="midnightblue" stroke="midnightblue" points="708.605,-52.8642 717.994,-47.9548 707.593,-45.9378 708.605,-52.8642"/>
</g>
<!-- Node13 -->
<g id="node13" class="node"><title>Node13</title>
<g id="a_node13"><a xlink:href="../../d4/d06/class_application_1_1_game.html#a3f65e3f0ef1a9114fb3dea275e52442e" target="_top" xlink:title=" ">
<polygon fill="white" stroke="black" points="455,-0.5 455,-30.5 558,-30.5 558,-0.5 455,-0.5"/>
<text text-anchor="start" x="463" y="-18.5" font-family="Helvetica,sans-Serif" font-size="10.00">Application::Game::</text>
<text text-anchor="middle" x="506.5" y="-7.5" font-family="Helvetica,sans-Serif" font-size="10.00">EventLoop</text>
</a>
</g>
</g>
<!-- Node7&#45;&gt;Node13 -->
<g id="edge13" class="edge"><title>Node7&#45;&gt;Node13</title>
<path fill="none" stroke="midnightblue" d="M707.938,-34.6623C662.505,-30.3189 601.212,-24.4591 558.412,-20.3673"/>
<polygon fill="midnightblue" stroke="midnightblue" points="707.672,-38.1527 717.959,-35.6204 708.338,-31.1845 707.672,-38.1527"/>
</g>
<!-- Node9 -->
<g id="node9" class="node"><title>Node9</title>
<g id="a_node9"><a xlink:href="../../d4/d06/class_application_1_1_game.html#aaa0ff18388b32b4e6198835a35e000d3" target="_top" xlink:title=" ">
<polygon fill="white" stroke="black" points="316,-44.5 316,-74.5 419,-74.5 419,-44.5 316,-44.5"/>
<text text-anchor="start" x="324" y="-62.5" font-family="Helvetica,sans-Serif" font-size="10.00">Application::Game::</text>
<text text-anchor="middle" x="367.5" y="-51.5" font-family="Helvetica,sans-Serif" font-size="10.00">GameLoop</text>
</a>
</g>
</g>
<!-- Node8&#45;&gt;Node9 -->
<g id="edge8" class="edge"><title>Node8&#45;&gt;Node9</title>
<path fill="none" stroke="midnightblue" d="M583.714,-59.5C535.939,-59.5 466.326,-59.5 419.321,-59.5"/>
<polygon fill="midnightblue" stroke="midnightblue" points="583.861,-63.0001 593.861,-59.5 583.861,-56.0001 583.861,-63.0001"/>
</g>
<!-- Node12 -->
<g id="node12" class="node"><title>Node12</title>
<g id="a_node12"><a xlink:href="../../de/dcf/_engine_8h.html#a287d13406d42b0831d9eb7a64d368202" target="_top" xlink:title=" ">
<polygon fill="white" stroke="black" points="468.5,-88 468.5,-107 544.5,-107 544.5,-88 468.5,-88"/>
<text text-anchor="middle" x="506.5" y="-95" font-family="Helvetica,sans-Serif" font-size="10.00">PrepareWorld</text>
</a>
</g>
</g>
<!-- Node8&#45;&gt;Node12 -->
<g id="edge11" class="edge"><title>Node8&#45;&gt;Node12</title>
<path fill="none" stroke="midnightblue" d="M594.281,-72.0353C576.664,-77.2048 556.577,-83.0991 540.168,-87.9141"/>
<polygon fill="midnightblue" stroke="midnightblue" points="595.712,-75.2631 604.322,-69.089 593.741,-68.5463 595.712,-75.2631"/>
</g>
<!-- Node10 -->
<g id="node10" class="node"><title>Node10</title>
<g id="a_node10"><a xlink:href="../../d4/d06/class_application_1_1_game.html#a013ffd59e8fdf1c0a396da1dbe1681ca" target="_top" xlink:title=" ">
<polygon fill="white" stroke="black" points="156,-50 156,-69 280,-69 280,-50 156,-50"/>
<text text-anchor="middle" x="218" y="-57" font-family="Helvetica,sans-Serif" font-size="10.00">Application::Game::Loop</text>
</a>
</g>
</g>
<!-- Node9&#45;&gt;Node10 -->
<g id="edge9" class="edge"><title>Node9&#45;&gt;Node10</title>
<path fill="none" stroke="midnightblue" d="M305.59,-59.5C297.149,-59.5 288.478,-59.5 280.035,-59.5"/>
<polygon fill="midnightblue" stroke="midnightblue" points="305.739,-63.0001 315.739,-59.5 305.739,-56.0001 305.739,-63.0001"/>
</g>
<!-- Node11 -->
<g id="node11" class="node"><title>Node11</title>
<g id="a_node11"><a xlink:href="../../d4/d06/class_application_1_1_game.html#a96341ca5b54d90adc3ecb3bf0bcd2312" target="_top" xlink:title=" ">
<polygon fill="white" stroke="black" points="0,-50 0,-69 120,-69 120,-50 0,-50"/>
<text text-anchor="middle" x="60" y="-57" font-family="Helvetica,sans-Serif" font-size="10.00">Application::Game::Run</text>
</a>
</g>
</g>
<!-- Node10&#45;&gt;Node11 -->
<g id="edge10" class="edge"><title>Node10&#45;&gt;Node11</title>
<path fill="none" stroke="midnightblue" d="M145.546,-59.5C137.081,-59.5 128.513,-59.5 120.244,-59.5"/>
<polygon fill="midnightblue" stroke="midnightblue" points="145.792,-63.0001 155.792,-59.5 145.792,-56.0001 145.792,-63.0001"/>
</g>
<!-- Node12&#45;&gt;Node9 -->
<g id="edge12" class="edge"><title>Node12&#45;&gt;Node9</title>
<path fill="none" stroke="midnightblue" d="M461.012,-85.1602C447.634,-81.4494 432.856,-77.3507 419.112,-73.5385"/>
<polygon fill="midnightblue" stroke="midnightblue" points="460.357,-88.6108 470.929,-87.911 462.228,-81.8654 460.357,-88.6108"/>
</g>
<!-- Node13&#45;&gt;Node9 -->
<g id="edge14" class="edge"><title>Node13&#45;&gt;Node9</title>
<path fill="none" stroke="midnightblue" d="M449.076,-33.6215C437.92,-37.2044 426.323,-40.9291 415.519,-44.3991"/>
<polygon fill="midnightblue" stroke="midnightblue" points="450.285,-36.9095 458.736,-30.5192 448.144,-30.2448 450.285,-36.9095"/>
</g>
<!-- Node14&#45;&gt;Node5 -->
<g id="edge16" class="edge"><title>Node14&#45;&gt;Node5</title>
<path fill="none" stroke="midnightblue" d="M1184.05,-26.989C1169.92,-28.7811 1155.05,-30.6671 1141.04,-32.4427"/>
<polygon fill="midnightblue" stroke="midnightblue" points="1184.71,-30.4338 1194.19,-25.7036 1183.83,-23.4894 1184.71,-30.4338"/>
</g>
<!-- Node15&#45;&gt;Node4 -->
<g id="edge18" class="edge"><title>Node15&#45;&gt;Node4</title>
<path fill="none" stroke="midnightblue" d="M1362.51,-34.1197C1345.5,-38.5274 1327.42,-43.2144 1310.95,-47.4826"/>
<polygon fill="midnightblue" stroke="midnightblue" points="1363.58,-37.4589 1372.38,-31.5621 1361.82,-30.6828 1363.58,-37.4589"/>
</g>
<!-- Node15&#45;&gt;Node14 -->
<g id="edge19" class="edge"><title>Node15&#45;&gt;Node14</title>
<path fill="none" stroke="midnightblue" d="M1356.28,-17.3363C1340.68,-17.5121 1324.47,-17.6948 1309.63,-17.8619"/>
<polygon fill="midnightblue" stroke="midnightblue" points="1356.46,-20.8346 1366.42,-17.222 1356.38,-13.835 1356.46,-20.8346"/>
</g>
</g>
</svg>
        <g id="navigator" transform="translate(0 0)" fill="#404254">
                <rect fill="#f2f5e9" fill-opacity="0.5" stroke="#606060" stroke-width=".5" x="0" y="0" width="60" height="60"/>
                <use id="zoomplus" xlink:href="#zoomPlus" x="17" y="9" onmousedown="handleZoom(evt,'in')"/>
                <use id="zoomminus" xlink:href="#zoomMin" x="42" y="9" onmousedown="handleZoom(evt,'out')"/>
                <use id="reset" xlink:href="#resetDef" x="30" y="36" onmousedown="handleReset()"/>
                <g id="arrowUp" xlink:href="#dirArrow" transform="translate(30 24)" onmousedown="handlePan(0,-1)">
                  <use xlink:href="#rim" fill="#404040">
                        <set attributeName="fill" to="#808080" begin="arrowUp.mouseover" end="arrowUp.mouseout"/>
                  </use>
                  <path fill="none" stroke="white" stroke-width="1.5" d="M0,-3.0v7 M-2.5,-0.5L0,-3.0L2.5,-0.5"/>
                </g>
                <g id="arrowRight" xlink:href="#dirArrow" transform="rotate(90) translate(36 -43)" onmousedown="handlePan(1,0)">
                  <use xlink:href="#rim" fill="#404040">
                        <set attributeName="fill" to="#808080" begin="arrowRight.mouseover" end="arrowRight.mouseout"/>
                  </use>
                  <path fill="none" stroke="white" stroke-width="1.5" d="M0,-3.0v7 M-2.5,-0.5L0,-3.0L2.5,-0.5"/>
                </g>
                <g id="arrowDown" xlink:href="#dirArrow" transform="rotate(180) translate(-30 -48)" onmousedown="handlePan(0,1)">
                  <use xlink:href="#rim" fill="#404040">
                        <set attributeName="fill" to="#808080" begin="arrowDown.mouseover" end="arrowDown.mouseout"/>
                  </use>
                  <path fill="none" stroke="white" stroke-width="1.5" d="M0,-3.0v7 M-2.5,-0.5L0,-3.0L2.5,-0.5"/>
                </g>
                <g id="arrowLeft" xlink:href="#dirArrow" transform="rotate(270) translate(-36 17)" onmousedown="handlePan(-1,0)">
                  <use xlink:href="#rim" fill="#404040">
                        <set attributeName="fill" to="#808080" begin="arrowLeft.mouseover" end="arrowLeft.mouseout"/>
                  </use>
                  <path fill="none" stroke="white" stroke-width="1.5" d="M0,-3.0v7 M-2.5,-0.5L0,-3.0L2.5,-0.5"/>
                </g>
        </g>
        <svg viewBox="0 0 15 15" width="100%" height="30px" preserveAspectRatio="xMaxYMin meet">
         <g id="arrow_out" transform="scale(0.3 0.3)">
          <a xlink:href="struct_tile_table_a3a9751574273cef148a018b87295f87e_icgraph_org.svg" target="_base">
           <rect id="button" ry="5" rx="5" y="6" x="6" height="38" width="38"
                fill="#f2f5e9" fill-opacity="0.5" stroke="#606060" stroke-width="1.0"/>
           <path id="arrow"
             d="M 11.500037,31.436501 C 11.940474,20.09759 22.043105,11.32322 32.158766,21.979434 L 37.068811,17.246167 C 37.068811,17.246167 37.088388,32 37.088388,32 L 22.160133,31.978069 C 22.160133,31.978069 26.997745,27.140456 26.997745,27.140456 C 18.528582,18.264221 13.291696,25.230495 11.500037,31.436501 z"
             style="fill:#404040;"/>
          </a>
         </g>
        </svg>
</svg>
