<?xml version="1.0" encoding="UTF-8" standalone="no"?>
<!DOCTYPE svg PUBLIC "-//W3C//DTD SVG 1.1//EN"
 "http://www.w3.org/Graphics/SVG/1.1/DTD/svg11.dtd">
<!-- Generated by graphviz version 2.38.0 (20140413.2041)
 -->
<!-- Title: Engine::DrawParticles Pages: 1 -->
<svg width="1118pt" height="180pt"
 viewBox="0.00 0.00 1118.00 180.00" xmlns="http://www.w3.org/2000/svg" xmlns:xlink="http://www.w3.org/1999/xlink">
<g id="graph0" class="graph" transform="scale(1 1) rotate(0) translate(4 176)">
<title>Engine::DrawParticles</title>
<polygon fill="white" stroke="none" points="-4,4 -4,-176 1114,-176 1114,4 -4,4"/>
<!-- Node1 -->
<g id="node1" class="node"><title>Node1</title>
<g id="a_node1"><a xlink:title=" ">
<polygon fill="#bfbfbf" stroke="black" points="0,-95.5 0,-114.5 113,-114.5 113,-95.5 0,-95.5"/>
<text text-anchor="middle" x="56.5" y="-102.5" font-family="Helvetica,sans-Serif" font-size="10.00">Engine::DrawParticles</text>
</a>
</g>
</g>
<!-- Node2 -->
<g id="node2" class="node"><title>Node2</title>
<g id="a_node2"><a xlink:href="../../dd/d2d/class_particle_engine.html#a73c8076ecf6d3dcc50c56a7a755c4c58" target="_top" xlink:title=" ">
<polygon fill="white" stroke="black" points="149,-95.5 149,-114.5 256,-114.5 256,-95.5 149,-95.5"/>
<text text-anchor="middle" x="202.5" y="-102.5" font-family="Helvetica,sans-Serif" font-size="10.00">ParticleEngine::Draw</text>
</a>
</g>
</g>
<!-- Node1&#45;&gt;Node2 -->
<g id="edge1" class="edge"><title>Node1&#45;&gt;Node2</title>
<path fill="none" stroke="midnightblue" d="M113.174,-105C121.502,-105 130.137,-105 138.601,-105"/>
<polygon fill="midnightblue" stroke="midnightblue" points="138.809,-108.5 148.809,-105 138.809,-101.5 138.809,-108.5"/>
</g>
<!-- Node3 -->
<g id="node3" class="node"><title>Node3</title>
<g id="a_node3"><a xlink:href="../../dd/d2d/class_particle_engine.html#ac38c9e5bad552707f0c7f97d40c7aab9" target="_top" xlink:title=" ">
<polygon fill="white" stroke="black" points="292,-95.5 292,-114.5 462,-114.5 462,-95.5 292,-95.5"/>
<text text-anchor="middle" x="377" y="-102.5" font-family="Helvetica,sans-Serif" font-size="10.00">ParticleEngine::DrawParticles_BLV</text>
</a>
</g>
</g>
<!-- Node2&#45;&gt;Node3 -->
<g id="edge2" class="edge"><title>Node2&#45;&gt;Node3</title>
<path fill="none" stroke="midnightblue" d="M256.193,-105C264.311,-105 272.9,-105 281.6,-105"/>
<polygon fill="midnightblue" stroke="midnightblue" points="281.842,-108.5 291.842,-105 281.842,-101.5 281.842,-108.5"/>
</g>
<!-- Node4 -->
<g id="node4" class="node"><title>Node4</title>
<g id="a_node4"><a xlink:href="../../dd/d2d/class_particle_engine.html#ad63c7069319085019cf0c086e38cce06" target="_top" xlink:title=" ">
<polygon fill="white" stroke="black" points="498,-90 498,-120 635,-120 635,-90 498,-90"/>
<text text-anchor="start" x="506" y="-108" font-family="Helvetica,sans-Serif" font-size="10.00">ParticleEngine::ViewProject</text>
<text text-anchor="middle" x="566.5" y="-97" font-family="Helvetica,sans-Serif" font-size="10.00">_TrueIfStillVisible_BLV</text>
</a>
</g>
</g>
<!-- Node3&#45;&gt;Node4 -->
<g id="edge3" class="edge"><title>Node3&#45;&gt;Node4</title>
<path fill="none" stroke="midnightblue" d="M462.152,-105C470.665,-105 479.285,-105 487.727,-105"/>
<polygon fill="midnightblue" stroke="midnightblue" points="487.916,-108.5 497.916,-105 487.916,-101.5 487.916,-108.5"/>
</g>
<!-- Node5 -->
<g id="node5" class="node"><title>Node5</title>
<g id="a_node5"><a xlink:href="../../d6/dc9/structfixed.html#ad27ee11f1bd754c1dd01daf3f938cbbb" target="_top" xlink:title=" ">
<polygon fill="white" stroke="black" points="697,-152.5 697,-171.5 784,-171.5 784,-152.5 697,-152.5"/>
<text text-anchor="middle" x="740.5" y="-159.5" font-family="Helvetica,sans-Serif" font-size="10.00">fixed::FromFloat</text>
</a>
</g>
</g>
<!-- Node4&#45;&gt;Node5 -->
<g id="edge4" class="edge"><title>Node4&#45;&gt;Node5</title>
<path fill="none" stroke="midnightblue" d="M606.068,-120.008C625.427,-127.323 649.316,-136.025 671,-143 678.189,-145.312 685.854,-147.605 693.358,-149.755"/>
<polygon fill="midnightblue" stroke="midnightblue" points="692.501,-153.15 703.075,-152.489 694.397,-146.411 692.501,-153.15"/>
</g>
<!-- Node9 -->
<g id="node9" class="node"><title>Node9</title>
<g id="a_node9"><a xlink:href="../../d6/dc9/structfixed.html#a5afca03668479a0abe9b6d9fcc2d3bd6" target="_top" xlink:title=" ">
<polygon fill="white" stroke="black" points="702.5,-114.5 702.5,-133.5 778.5,-133.5 778.5,-114.5 702.5,-114.5"/>
<text text-anchor="middle" x="740.5" y="-121.5" font-family="Helvetica,sans-Serif" font-size="10.00">fixed::FromInt</text>
</a>
</g>
</g>
<!-- Node4&#45;&gt;Node9 -->
<g id="edge8" class="edge"><title>Node4&#45;&gt;Node9</title>
<path fill="none" stroke="midnightblue" d="M635.479,-112.509C654.475,-114.608 674.699,-116.842 692.215,-118.777"/>
<polygon fill="midnightblue" stroke="midnightblue" points="691.861,-122.259 702.185,-119.878 692.63,-115.301 691.861,-122.259"/>
</g>
<!-- Node10 -->
<g id="node10" class="node"><title>Node10</title>
<g id="a_node10"><a xlink:href="../../d9/de5/struct_indoor_camera_d3_d.html#a32190b521a23e986e5b0b13098e4b114" target="_top" xlink:title=" ">
<polygon fill="white" stroke="black" points="674.5,-76.5 674.5,-95.5 806.5,-95.5 806.5,-76.5 674.5,-76.5"/>
<text text-anchor="middle" x="740.5" y="-83.5" font-family="Helvetica,sans-Serif" font-size="10.00">IndoorCameraD3D::Project</text>
</a>
</g>
</g>
<!-- Node4&#45;&gt;Node10 -->
<g id="edge10" class="edge"><title>Node4&#45;&gt;Node10</title>
<path fill="none" stroke="midnightblue" d="M635.479,-97.4907C644.857,-96.4547 654.535,-95.3857 664.038,-94.3359"/>
<polygon fill="midnightblue" stroke="midnightblue" points="664.704,-97.7837 674.26,-93.2068 663.936,-90.826 664.704,-97.7837"/>
</g>
<!-- Node11 -->
<g id="node11" class="node"><title>Node11</title>
<g id="a_node11"><a xlink:href="../../d9/de5/struct_indoor_camera_d3_d.html#a4c237cb96e18e53a8d9a9f01df08165c" target="_top" xlink:title=" ">
<polygon fill="white" stroke="black" points="671,-38.5 671,-57.5 810,-57.5 810,-38.5 671,-38.5"/>
<text text-anchor="middle" x="740.5" y="-45.5" font-family="Helvetica,sans-Serif" font-size="10.00">IndoorCameraD3D::ViewClip</text>
</a>
</g>
</g>
<!-- Node4&#45;&gt;Node11 -->
<g id="edge11" class="edge"><title>Node4&#45;&gt;Node11</title>
<path fill="none" stroke="midnightblue" d="M606.068,-89.9924C625.427,-82.6767 649.316,-73.9752 671,-67 678.189,-64.6876 685.854,-62.3952 693.358,-60.2453"/>
<polygon fill="midnightblue" stroke="midnightblue" points="694.397,-63.5889 703.075,-57.5114 692.501,-56.8505 694.397,-63.5889"/>
</g>
<!-- Node6 -->
<g id="node6" class="node"><title>Node6</title>
<g id="a_node6"><a xlink:href="../../d0/dc0/_our_math_8h.html#a0291a2ad34d9448b49019f7be6a6e503" target="_top" xlink:title=" ">
<polygon fill="white" stroke="black" points="881,-152.5 881,-171.5 976,-171.5 976,-152.5 881,-152.5"/>
<text text-anchor="middle" x="928.5" y="-159.5" font-family="Helvetica,sans-Serif" font-size="10.00">fixpoint_from_float</text>
</a>
</g>
</g>
<!-- Node5&#45;&gt;Node6 -->
<g id="edge5" class="edge"><title>Node5&#45;&gt;Node6</title>
<path fill="none" stroke="midnightblue" d="M784.172,-162C809.868,-162 842.898,-162 870.773,-162"/>
<polygon fill="midnightblue" stroke="midnightblue" points="870.787,-165.5 880.787,-162 870.787,-158.5 870.787,-165.5"/>
</g>
<!-- Node7 -->
<g id="node7" class="node"><title>Node7</title>
<g id="a_node7"><a xlink:href="../../d6/dc9/structfixed.html#a77864f1a61a82980108874fc3709d9ef" target="_top" xlink:title=" ">
<polygon fill="white" stroke="black" points="897.5,-114.5 897.5,-133.5 959.5,-133.5 959.5,-114.5 897.5,-114.5"/>
<text text-anchor="middle" x="928.5" y="-121.5" font-family="Helvetica,sans-Serif" font-size="10.00">fixed::Raw</text>
</a>
</g>
</g>
<!-- Node5&#45;&gt;Node7 -->
<g id="edge6" class="edge"><title>Node5&#45;&gt;Node7</title>
<path fill="none" stroke="midnightblue" d="M784.172,-153.282C815.296,-146.923 857.183,-138.366 887.633,-132.145"/>
<polygon fill="midnightblue" stroke="midnightblue" points="888.392,-135.562 897.489,-130.131 886.991,-128.704 888.392,-135.562"/>
</g>
<!-- Node8 -->
<g id="node8" class="node"><title>Node8</title>
<g id="a_node8"><a xlink:href="../../d6/dc9/structfixed.html#a35ab68b29d570ad4cdb6c752b344f7e2" target="_top" xlink:title=" ">
<polygon fill="white" stroke="black" points="1047,-114.5 1047,-133.5 1110,-133.5 1110,-114.5 1047,-114.5"/>
<text text-anchor="middle" x="1078.5" y="-121.5" font-family="Helvetica,sans-Serif" font-size="10.00">fixed::fixed</text>
</a>
</g>
</g>
<!-- Node7&#45;&gt;Node8 -->
<g id="edge7" class="edge"><title>Node7&#45;&gt;Node8</title>
<path fill="none" stroke="midnightblue" d="M959.807,-124C982.081,-124 1012.58,-124 1036.95,-124"/>
<polygon fill="midnightblue" stroke="midnightblue" points="1036.98,-127.5 1046.98,-124 1036.98,-120.5 1036.98,-127.5"/>
</g>
<!-- Node9&#45;&gt;Node7 -->
<g id="edge9" class="edge"><title>Node9&#45;&gt;Node7</title>
<path fill="none" stroke="midnightblue" d="M778.693,-124C810.029,-124 854.78,-124 887.013,-124"/>
<polygon fill="midnightblue" stroke="midnightblue" points="887.426,-127.5 897.426,-124 887.426,-120.5 887.426,-127.5"/>
</g>
<!-- Node12 -->
<g id="node12" class="node"><title>Node12</title>
<g id="a_node12"><a xlink:href="../../d9/de5/struct_indoor_camera_d3_d.html#ae44ac296d0d5225048b313e14edf7da1" target="_top" xlink:title=" ">
<polygon fill="white" stroke="black" points="854.5,-76.5 854.5,-95.5 1002.5,-95.5 1002.5,-76.5 854.5,-76.5"/>
<text text-anchor="middle" x="928.5" y="-83.5" font-family="Helvetica,sans-Serif" font-size="10.00">IndoorCameraD3D::GetFarClip</text>
</a>
</g>
</g>
<!-- Node11&#45;&gt;Node12 -->
<g id="edge12" class="edge"><title>Node11&#45;&gt;Node12</title>
<path fill="none" stroke="midnightblue" d="M788.436,-57.589C813.533,-62.7165 844.619,-69.0672 871.03,-74.4632"/>
<polygon fill="midnightblue" stroke="midnightblue" points="870.404,-77.9074 880.902,-76.4799 871.805,-71.049 870.404,-77.9074"/>
</g>
<!-- Node13 -->
<g id="node13" class="node"><title>Node13</title>
<g id="a_node13"><a xlink:href="../../d9/de5/struct_indoor_camera_d3_d.html#a6ade9a050aa9009a83e21461c6c470c4" target="_top" xlink:title=" ">
<polygon fill="white" stroke="black" points="851.5,-38.5 851.5,-57.5 1005.5,-57.5 1005.5,-38.5 851.5,-38.5"/>
<text text-anchor="middle" x="928.5" y="-45.5" font-family="Helvetica,sans-Serif" font-size="10.00">IndoorCameraD3D::GetNearClip</text>
</a>
</g>
</g>
<!-- Node11&#45;&gt;Node13 -->
<g id="edge13" class="edge"><title>Node11&#45;&gt;Node13</title>
<path fill="none" stroke="midnightblue" d="M810.231,-48C820.243,-48 830.659,-48 840.968,-48"/>
<polygon fill="midnightblue" stroke="midnightblue" points="841.223,-51.5001 851.223,-48 841.223,-44.5001 841.223,-51.5001"/>
</g>
<!-- Node14 -->
<g id="node14" class="node"><title>Node14</title>
<g id="a_node14"><a xlink:href="../../d9/de5/struct_indoor_camera_d3_d.html#a819c840787fde1b667c5477bafb21a62" target="_top" xlink:title=" ">
<polygon fill="white" stroke="black" points="846,-0.5 846,-19.5 1011,-19.5 1011,-0.5 846,-0.5"/>
<text text-anchor="middle" x="928.5" y="-7.5" font-family="Helvetica,sans-Serif" font-size="10.00">IndoorCameraD3D::ViewTransform</text>
</a>
</g>
</g>
<!-- Node11&#45;&gt;Node14 -->
<g id="edge14" class="edge"><title>Node11&#45;&gt;Node14</title>
<path fill="none" stroke="midnightblue" d="M788.436,-38.411C813.533,-33.2835 844.619,-26.9328 871.03,-21.5368"/>
<polygon fill="midnightblue" stroke="midnightblue" points="871.805,-24.951 880.902,-19.5201 870.404,-18.0926 871.805,-24.951"/>
</g>
</g>
</svg>
