<?xml version="1.0" encoding="UTF-8" standalone="no"?>
<!DOCTYPE svg PUBLIC "-//W3C//DTD SVG 1.1//EN"
 "http://www.w3.org/Graphics/SVG/1.1/DTD/svg11.dtd">
<!-- Generated by graphviz version 2.38.0 (20140413.2041)
 -->
<!-- Title: Engine::AlterGamma_BLV Pages: 1 -->
<svg width="528pt" height="104pt"
 viewBox="0.00 0.00 528.00 104.00" xmlns="http://www.w3.org/2000/svg" xmlns:xlink="http://www.w3.org/1999/xlink">
<g id="graph0" class="graph" transform="scale(1 1) rotate(0) translate(4 100)">
<title>Engine::AlterGamma_BLV</title>
<polygon fill="white" stroke="none" points="-4,4 -4,-100 524,-100 524,4 -4,4"/>
<!-- Node1 -->
<g id="node1" class="node"><title>Node1</title>
<g id="a_node1"><a xlink:title=" ">
<polygon fill="#bfbfbf" stroke="black" points="0,-57.5 0,-76.5 131,-76.5 131,-57.5 0,-57.5"/>
<text text-anchor="middle" x="65.5" y="-64.5" font-family="Helvetica,sans-Serif" font-size="10.00">Engine::AlterGamma_BLV</text>
</a>
</g>
</g>
<!-- Node2 -->
<g id="node2" class="node"><title>Node2</title>
<g id="a_node2"><a xlink:href="../../d6/d83/struct_engine.html#a6c3428cd3819e3ed02d46c70c8c4cda7" target="_top" xlink:title=" ">
<polygon fill="white" stroke="black" points="167,-76.5 167,-95.5 301,-95.5 301,-76.5 167,-76.5"/>
<text text-anchor="middle" x="234" y="-83.5" font-family="Helvetica,sans-Serif" font-size="10.00">Engine::CanSaturateFaces</text>
</a>
</g>
</g>
<!-- Node1&#45;&gt;Node2 -->
<g id="edge1" class="edge"><title>Node1&#45;&gt;Node2</title>
<path fill="none" stroke="midnightblue" d="M131.35,-74.4003C139.75,-75.3589 148.414,-76.3475 156.975,-77.3245"/>
<polygon fill="midnightblue" stroke="midnightblue" points="156.623,-80.807 166.956,-78.4634 157.417,-73.8521 156.623,-80.807"/>
</g>
<!-- Node3 -->
<g id="node3" class="node"><title>Node3</title>
<g id="a_node3"><a xlink:href="../../dc/dc7/_palette_manager_8cpp.html#a954cd29aceea315bb4588c15a0d782a6" target="_top" xlink:title=" ">
<polygon fill="white" stroke="black" points="198,-38.5 198,-57.5 270,-57.5 270,-38.5 198,-38.5"/>
<text text-anchor="middle" x="234" y="-45.5" font-family="Helvetica,sans-Serif" font-size="10.00">ReplaceHSV</text>
</a>
</g>
</g>
<!-- Node1&#45;&gt;Node3 -->
<g id="edge2" class="edge"><title>Node1&#45;&gt;Node3</title>
<path fill="none" stroke="midnightblue" d="M131.35,-59.5997C150.103,-57.4598 170.167,-55.1702 187.472,-53.1953"/>
<polygon fill="midnightblue" stroke="midnightblue" points="188.316,-56.6218 197.855,-52.0105 187.523,-49.667 188.316,-56.6218"/>
</g>
<!-- Node4 -->
<g id="node4" class="node"><title>Node4</title>
<g id="a_node4"><a xlink:href="../../dc/dc7/_palette_manager_8cpp.html#ac3ff9b1524059bcbd44e6318120c1211" target="_top" xlink:title=" ">
<polygon fill="white" stroke="black" points="340.5,-76.5 340.5,-95.5 403.5,-95.5 403.5,-76.5 340.5,-76.5"/>
<text text-anchor="middle" x="372" y="-83.5" font-family="Helvetica,sans-Serif" font-size="10.00">HSV2RGB</text>
</a>
</g>
</g>
<!-- Node3&#45;&gt;Node4 -->
<g id="edge3" class="edge"><title>Node3&#45;&gt;Node4</title>
<path fill="none" stroke="midnightblue" d="M269.319,-57.589C287.947,-62.794 311.087,-69.2596 330.584,-74.7074"/>
<polygon fill="midnightblue" stroke="midnightblue" points="329.832,-78.1311 340.405,-77.4513 331.716,-71.3893 329.832,-78.1311"/>
</g>
<!-- Node6 -->
<g id="node6" class="node"><title>Node6</title>
<g id="a_node6"><a xlink:href="../../dc/dc7/_palette_manager_8cpp.html#aa590abf1c9bfcecac42541926c9d90f7" target="_top" xlink:title=" ">
<polygon fill="white" stroke="black" points="340.5,-38.5 340.5,-57.5 403.5,-57.5 403.5,-38.5 340.5,-38.5"/>
<text text-anchor="middle" x="372" y="-45.5" font-family="Helvetica,sans-Serif" font-size="10.00">RGB2HSV</text>
</a>
</g>
</g>
<!-- Node3&#45;&gt;Node6 -->
<g id="edge5" class="edge"><title>Node3&#45;&gt;Node6</title>
<path fill="none" stroke="midnightblue" d="M270.023,-48C288.351,-48 310.896,-48 330.031,-48"/>
<polygon fill="midnightblue" stroke="midnightblue" points="330.262,-51.5001 340.262,-48 330.262,-44.5001 330.262,-51.5001"/>
</g>
<!-- Node7 -->
<g id="node7" class="node"><title>Node7</title>
<g id="a_node7"><a xlink:href="../../d0/dc0/_our_math_8h.html#a50ee4d4946888926bdf5a920129a322a" target="_top" xlink:title=" ">
<polygon fill="white" stroke="black" points="337,-0.5 337,-19.5 407,-19.5 407,-0.5 337,-0.5"/>
<text text-anchor="middle" x="372" y="-7.5" font-family="Helvetica,sans-Serif" font-size="10.00">round_to_int</text>
</a>
</g>
</g>
<!-- Node3&#45;&gt;Node7 -->
<g id="edge7" class="edge"><title>Node3&#45;&gt;Node7</title>
<path fill="none" stroke="midnightblue" d="M269.319,-38.411C286.794,-33.5281 308.241,-27.5357 326.925,-22.315"/>
<polygon fill="midnightblue" stroke="midnightblue" points="328.003,-25.6479 336.692,-19.5859 326.119,-18.9062 328.003,-25.6479"/>
</g>
<!-- Node5 -->
<g id="node5" class="node"><title>Node5</title>
<g id="a_node5"><a xlink:href="../../d9/d30/_s_d_l__assert_8h.html#afedcea68cf85ee469ab1ea390bbe0abb" target="_top" xlink:title=" ">
<polygon fill="white" stroke="black" points="443,-57.5 443,-76.5 520,-76.5 520,-57.5 443,-57.5"/>
<text text-anchor="middle" x="481.5" y="-64.5" font-family="Helvetica,sans-Serif" font-size="10.00">__debugbreak</text>
</a>
</g>
</g>
<!-- Node4&#45;&gt;Node5 -->
<g id="edge4" class="edge"><title>Node4&#45;&gt;Node5</title>
<path fill="none" stroke="midnightblue" d="M403.518,-80.6062C412.547,-79.0102 422.66,-77.2228 432.512,-75.4816"/>
<polygon fill="midnightblue" stroke="midnightblue" points="433.39,-78.8808 442.628,-73.6937 432.171,-71.9876 433.39,-78.8808"/>
</g>
<!-- Node6&#45;&gt;Node5 -->
<g id="edge6" class="edge"><title>Node6&#45;&gt;Node5</title>
<path fill="none" stroke="midnightblue" d="M403.518,-53.3938C412.547,-54.9898 422.66,-56.7772 432.512,-58.5184"/>
<polygon fill="midnightblue" stroke="midnightblue" points="432.171,-62.0124 442.628,-60.3063 433.39,-55.1192 432.171,-62.0124"/>
</g>
</g>
</svg>
