<?xml version="1.0" encoding="UTF-8" standalone="no"?>
<!DOCTYPE svg PUBLIC "-//W3C//DTD SVG 1.1//EN"
 "http://www.w3.org/Graphics/SVG/1.1/DTD/svg11.dtd">
<!-- Generated by graphviz version 2.38.0 (20140413.2041)
 -->
<!-- Title: Engine::SetAllowSnow Pages: 1 -->
<svg width="453pt" height="78pt"
 viewBox="0.00 0.00 453.00 77.50" xmlns="http://www.w3.org/2000/svg" xmlns:xlink="http://www.w3.org/1999/xlink">
<g id="graph0" class="graph" transform="scale(1 1) rotate(0) translate(4 73.5)">
<title>Engine::SetAllowSnow</title>
<polygon fill="white" stroke="none" points="-4,4 -4,-73.5 449,-73.5 449,4 -4,4"/>
<!-- Node1 -->
<g id="node1" class="node"><title>Node1</title>
<g id="a_node1"><a xlink:title=" ">
<polygon fill="#bfbfbf" stroke="black" points="0,-28 0,-47 115,-47 115,-28 0,-28"/>
<text text-anchor="middle" x="57.5" y="-35" font-family="Helvetica,sans-Serif" font-size="10.00">Engine::SetAllowSnow</text>
</a>
</g>
</g>
<!-- Node2 -->
<g id="node2" class="node"><title>Node2</title>
<g id="a_node2"><a xlink:href="../../d6/d83/struct_engine.html#a067b450ab1f86ad4ace7f481892d664c" target="_top" xlink:title=" ">
<polygon fill="white" stroke="black" points="151,-28 151,-47 261,-47 261,-28 151,-28"/>
<text text-anchor="middle" x="206" y="-35" font-family="Helvetica,sans-Serif" font-size="10.00">Engine::MutateConfig</text>
</a>
</g>
</g>
<!-- Node1&#45;&gt;Node2 -->
<g id="edge1" class="edge"><title>Node1&#45;&gt;Node2</title>
<path fill="none" stroke="midnightblue" d="M115.141,-37.5C123.498,-37.5 132.16,-37.5 140.66,-37.5"/>
<polygon fill="midnightblue" stroke="midnightblue" points="140.915,-41.0001 150.915,-37.5 140.915,-34.0001 140.915,-41.0001"/>
</g>
<!-- Node3 -->
<g id="node3" class="node"><title>Node3</title>
<g id="a_node3"><a xlink:href="../../d6/d83/struct_engine.html#ac4da6fb23f523bc242c2ad71e3ed0cb4" target="_top" xlink:title=" ">
<polygon fill="white" stroke="black" points="324.5,-50 324.5,-69 417.5,-69 417.5,-50 324.5,-50"/>
<text text-anchor="middle" x="371" y="-57" font-family="Helvetica,sans-Serif" font-size="10.00">Engine::Configure</text>
</a>
</g>
</g>
<!-- Node2&#45;&gt;Node3 -->
<g id="edge2" class="edge"><title>Node2&#45;&gt;Node3</title>
<path fill="none" stroke="midnightblue" d="M261.277,-44.8257C278.226,-47.1133 296.95,-49.6405 314.014,-51.9436"/>
<polygon fill="midnightblue" stroke="midnightblue" points="314.016,-55.4755 324.394,-53.3446 314.952,-48.5384 314.016,-55.4755"/>
</g>
<!-- Node4 -->
<g id="node4" class="node"><title>Node4</title>
<g id="a_node4"><a xlink:href="../../d8/d01/class_engine___1_1_engine_config_factory.html#a3100a2d7d327a3d87ea2b173b3e36cef" target="_top" xlink:title=" ">
<polygon fill="white" stroke="black" points="297,-0.5 297,-30.5 445,-30.5 445,-0.5 297,-0.5"/>
<text text-anchor="start" x="305" y="-18.5" font-family="Helvetica,sans-Serif" font-size="10.00">Engine_::EngineConfigFactory</text>
<text text-anchor="middle" x="371" y="-7.5" font-family="Helvetica,sans-Serif" font-size="10.00">::Mutate</text>
</a>
</g>
</g>
<!-- Node2&#45;&gt;Node4 -->
<g id="edge3" class="edge"><title>Node2&#45;&gt;Node4</title>
<path fill="none" stroke="midnightblue" d="M261.277,-30.1743C269.464,-29.0693 278.066,-27.9083 286.694,-26.7438"/>
<polygon fill="midnightblue" stroke="midnightblue" points="287.37,-30.1843 296.812,-25.3781 286.434,-23.2472 287.37,-30.1843"/>
</g>
</g>
</svg>
