<?xml version="1.0" encoding="UTF-8" standalone="no"?>
<!DOCTYPE svg PUBLIC "-//W3C//DTD SVG 1.1//EN"
 "http://www.w3.org/Graphics/SVG/1.1/DTD/svg11.dtd">
<!-- Generated by graphviz version 2.38.0 (20140413.2041)
 -->
<!-- Title: Engine::OutlineSelection Pages: 1 -->
<svg width="411pt" height="66pt"
 viewBox="0.00 0.00 411.00 66.00" xmlns="http://www.w3.org/2000/svg" xmlns:xlink="http://www.w3.org/1999/xlink">
<g id="graph0" class="graph" transform="scale(1 1) rotate(0) translate(4 62)">
<title>Engine::OutlineSelection</title>
<polygon fill="white" stroke="none" points="-4,4 -4,-62 407,-62 407,4 -4,4"/>
<!-- Node1 -->
<g id="node1" class="node"><title>Node1</title>
<g id="a_node1"><a xlink:title=" ">
<polygon fill="#bfbfbf" stroke="black" points="279,-19.5 279,-38.5 403,-38.5 403,-19.5 279,-19.5"/>
<text text-anchor="middle" x="341" y="-26.5" font-family="Helvetica,sans-Serif" font-size="10.00">Engine::OutlineSelection</text>
</a>
</g>
</g>
<!-- Node2 -->
<g id="node2" class="node"><title>Node2</title>
<g id="a_node2"><a xlink:href="../../d6/d83/struct_engine.html#a4aae71d7d74d9a1f92a31c3e389694d3" target="_top" xlink:title=" ">
<polygon fill="white" stroke="black" points="130,-38.5 130,-57.5 243,-57.5 243,-38.5 130,-38.5"/>
<text text-anchor="middle" x="186.5" y="-45.5" font-family="Helvetica,sans-Serif" font-size="10.00">Engine::PickKeyboard</text>
</a>
</g>
</g>
<!-- Node1&#45;&gt;Node2 -->
<g id="edge1" class="edge"><title>Node1&#45;&gt;Node2</title>
<path fill="none" stroke="midnightblue" d="M268.831,-37.867C260.238,-38.9375 251.56,-40.0188 243.234,-41.0561"/>
<polygon fill="midnightblue" stroke="midnightblue" points="269.361,-41.3281 278.851,-36.6185 268.495,-34.3818 269.361,-41.3281"/>
</g>
<!-- Node3 -->
<g id="node3" class="node"><title>Node3</title>
<g id="a_node3"><a xlink:href="../../d6/d83/struct_engine.html#ac93695e7a2f919343d397d3754cc8406" target="_top" xlink:title=" ">
<polygon fill="white" stroke="black" points="136,-0.5 136,-19.5 237,-19.5 237,-0.5 136,-0.5"/>
<text text-anchor="middle" x="186.5" y="-7.5" font-family="Helvetica,sans-Serif" font-size="10.00">Engine::PickMouse</text>
</a>
</g>
</g>
<!-- Node1&#45;&gt;Node3 -->
<g id="edge2" class="edge"><title>Node1&#45;&gt;Node3</title>
<path fill="none" stroke="midnightblue" d="M268.764,-20.1246C258.173,-18.8051 247.452,-17.4695 237.424,-16.2201"/>
<polygon fill="midnightblue" stroke="midnightblue" points="268.495,-23.6182 278.851,-21.3815 269.361,-16.6719 268.495,-23.6182"/>
</g>
<!-- Node4 -->
<g id="node4" class="node"><title>Node4</title>
<g id="a_node4"><a xlink:href="../../d6/d83/struct_engine.html#ac20b2b88746c5280d1f91c00e0cc5e33" target="_top" xlink:title=" ">
<polygon fill="white" stroke="black" points="0,-0.5 0,-19.5 94,-19.5 94,-0.5 0,-0.5"/>
<text text-anchor="middle" x="47" y="-7.5" font-family="Helvetica,sans-Serif" font-size="10.00">Engine::_44EEA7</text>
</a>
</g>
</g>
<!-- Node3&#45;&gt;Node4 -->
<g id="edge3" class="edge"><title>Node3&#45;&gt;Node4</title>
<path fill="none" stroke="midnightblue" d="M125.541,-10C115.093,-10 104.371,-10 94.3595,-10"/>
<polygon fill="midnightblue" stroke="midnightblue" points="125.859,-13.5001 135.859,-10 125.859,-6.5001 125.859,-13.5001"/>
</g>
</g>
</svg>
