<?xml version="1.0" encoding="UTF-8" standalone="no"?>
<!DOCTYPE svg PUBLIC "-//W3C//DTD SVG 1.1//EN"
 "http://www.w3.org/Graphics/SVG/1.1/DTD/svg11.dtd">
<!-- Generated by graphviz version 2.38.0 (20140413.2041)
 -->
<!-- Title: OnPaperdollLeftClick Pages: 1 -->
<svg width="1185pt" height="531pt"
 viewBox="0.00 0.00 1185.00 531.00" xmlns="http://www.w3.org/2000/svg" xmlns:xlink="http://www.w3.org/1999/xlink">
<g id="graph0" class="graph" transform="scale(1 1) rotate(0) translate(4 527)">
<title>OnPaperdollLeftClick</title>
<polygon fill="white" stroke="none" points="-4,4 -4,-527 1181,-527 1181,4 -4,4"/>
<!-- Node1 -->
<g id="node1" class="node"><title>Node1</title>
<g id="a_node1"><a xlink:title=" ">
<polygon fill="#bfbfbf" stroke="black" points="0,-247.5 0,-266.5 107,-266.5 107,-247.5 0,-247.5"/>
<text text-anchor="middle" x="53.5" y="-254.5" font-family="Helvetica,sans-Serif" font-size="10.00">OnPaperdollLeftClick</text>
</a>
</g>
</g>
<!-- Node2 -->
<g id="node2" class="node"><title>Node2</title>
<g id="a_node2"><a xlink:href="../../db/dc9/struct_g_u_i_message_queue.html#abdb2a80987378b3f21ec585e119a5d15" target="_top" xlink:title=" ">
<polygon fill="white" stroke="black" points="149,-446.5 149,-465.5 280,-465.5 280,-446.5 149,-446.5"/>
<text text-anchor="middle" x="214.5" y="-453.5" font-family="Helvetica,sans-Serif" font-size="10.00">GUIMessageQueue::Flush</text>
</a>
</g>
</g>
<!-- Node1&#45;&gt;Node2 -->
<g id="edge1" class="edge"><title>Node1&#45;&gt;Node2</title>
<path fill="none" stroke="midnightblue" d="M57.8297,-266.665C67.3761,-293.215 97.1331,-368.386 143,-415 153.868,-426.045 168.328,-435.139 181.322,-441.932"/>
<polygon fill="midnightblue" stroke="midnightblue" points="179.94,-445.154 190.453,-446.467 183.054,-438.884 179.94,-445.154"/>
</g>
<!-- Node4 -->
<g id="node4" class="node"><title>Node4</title>
<g id="a_node4"><a xlink:href="../../d7/d9c/struct_item_gen.html#a1aff2db2385ebf047a37787234f745a8" target="_top" xlink:title=" ">
<polygon fill="white" stroke="black" points="144.5,-386.5 144.5,-405.5 284.5,-405.5 284.5,-386.5 144.5,-386.5"/>
<text text-anchor="middle" x="214.5" y="-393.5" font-family="Helvetica,sans-Serif" font-size="10.00">ItemGen::GetItemEquipType</text>
</a>
</g>
</g>
<!-- Node1&#45;&gt;Node4 -->
<g id="edge3" class="edge"><title>Node1&#45;&gt;Node4</title>
<path fill="none" stroke="midnightblue" d="M58.8885,-266.828C69.6825,-289.842 99.8222,-347.505 143,-377 145.914,-378.991 149.029,-380.773 152.265,-382.369"/>
<polygon fill="midnightblue" stroke="midnightblue" points="151.075,-385.667 161.645,-386.392 153.834,-379.234 151.075,-385.667"/>
</g>
<!-- Node5 -->
<g id="node5" class="node"><title>Node5</title>
<g id="a_node5"><a xlink:href="../../d7/d9c/struct_item_gen.html#a964851ef377a08ea081799810094b9a6" target="_top" xlink:title=" ">
<polygon fill="white" stroke="black" points="143,-348.5 143,-367.5 286,-367.5 286,-348.5 143,-348.5"/>
<text text-anchor="middle" x="214.5" y="-355.5" font-family="Helvetica,sans-Serif" font-size="10.00">ItemGen::GetPlayerSkillType</text>
</a>
</g>
</g>
<!-- Node1&#45;&gt;Node5 -->
<g id="edge4" class="edge"><title>Node1&#45;&gt;Node5</title>
<path fill="none" stroke="midnightblue" d="M62.1699,-266.699C76.2941,-283.898 108.175,-319.736 143,-339 147.149,-341.295 151.591,-343.325 156.152,-345.119"/>
<polygon fill="midnightblue" stroke="midnightblue" points="155.028,-348.434 165.623,-348.477 157.368,-341.836 155.028,-348.434"/>
</g>
<!-- Node6 -->
<g id="node6" class="node"><title>Node6</title>
<g id="a_node6"><a xlink:href="../../d7/dc2/class_audio_player.html#afa0c135f321bd87b4d4ad2dcad3833e3" target="_top" xlink:title=" ">
<polygon fill="white" stroke="black" points="153.5,-310.5 153.5,-329.5 275.5,-329.5 275.5,-310.5 153.5,-310.5"/>
<text text-anchor="middle" x="214.5" y="-317.5" font-family="Helvetica,sans-Serif" font-size="10.00">AudioPlayer::PlaySound</text>
</a>
</g>
</g>
<!-- Node1&#45;&gt;Node6 -->
<g id="edge5" class="edge"><title>Node1&#45;&gt;Node6</title>
<path fill="none" stroke="midnightblue" d="M78.6487,-266.568C105.693,-277.284 149.704,-294.722 180.051,-306.747"/>
<polygon fill="midnightblue" stroke="midnightblue" points="178.799,-310.015 189.385,-310.445 181.378,-303.507 178.799,-310.015"/>
</g>
<!-- Node17 -->
<g id="node17" class="node"><title>Node17</title>
<g id="a_node17"><a xlink:href="../../d7/dc5/class_mouse.html#a3e7df01835f0ec8a3459dcd2f9a4dfa3" target="_top" xlink:title=" ">
<polygon fill="white" stroke="black" points="511.5,-228.5 511.5,-247.5 648.5,-247.5 648.5,-228.5 511.5,-228.5"/>
<text text-anchor="middle" x="580" y="-235.5" font-family="Helvetica,sans-Serif" font-size="10.00">Mouse::RemoveHoldingItem</text>
</a>
</g>
</g>
<!-- Node1&#45;&gt;Node17 -->
<g id="edge17" class="edge"><title>Node1&#45;&gt;Node17</title>
<path fill="none" stroke="midnightblue" d="M107.193,-255.091C199.929,-251.732 392.71,-244.748 500.944,-240.828"/>
<polygon fill="midnightblue" stroke="midnightblue" points="501.282,-244.318 511.148,-240.458 501.028,-237.322 501.282,-244.318"/>
</g>
<!-- Node18 -->
<g id="node18" class="node"><title>Node18</title>
<g id="a_node18"><a xlink:href="../../d7/d9c/struct_item_gen.html#a1e9fb8b4d5efcc3dc012888383570b49" target="_top" xlink:title=" ">
<polygon fill="white" stroke="black" points="707.5,-247.5 707.5,-266.5 792.5,-266.5 792.5,-247.5 707.5,-247.5"/>
<text text-anchor="middle" x="750" y="-254.5" font-family="Helvetica,sans-Serif" font-size="10.00">ItemGen::Reset</text>
</a>
</g>
</g>
<!-- Node1&#45;&gt;Node18 -->
<g id="edge25" class="edge"><title>Node1&#45;&gt;Node18</title>
<path fill="none" stroke="midnightblue" d="M107.361,-260.476C119.09,-261.11 131.463,-261.674 143,-262 348.135,-267.79 592.473,-261.854 697.19,-258.7"/>
<polygon fill="midnightblue" stroke="midnightblue" points="697.589,-262.189 707.478,-258.385 697.375,-255.193 697.589,-262.189"/>
</g>
<!-- Node20 -->
<g id="node20" class="node"><title>Node20</title>
<g id="a_node20"><a xlink:href="../../d7/dc5/class_mouse.html#a6c1329c4dec99e3c72b20087d95ea91d" target="_top" xlink:title=" ">
<polygon fill="white" stroke="black" points="689,-171.5 689,-190.5 811,-190.5 811,-171.5 689,-171.5"/>
<text text-anchor="middle" x="750" y="-178.5" font-family="Helvetica,sans-Serif" font-size="10.00">Mouse::SetCursorImage</text>
</a>
</g>
</g>
<!-- Node1&#45;&gt;Node20 -->
<g id="edge26" class="edge"><title>Node1&#45;&gt;Node20</title>
<path fill="none" stroke="midnightblue" d="M107.349,-249.574C119.078,-247.998 131.455,-246.392 143,-245 336.521,-221.666 565.386,-198.768 678.476,-187.766"/>
<polygon fill="midnightblue" stroke="midnightblue" points="679.11,-191.221 688.724,-186.77 678.433,-184.253 679.11,-191.221"/>
</g>
<!-- Node25 -->
<g id="node25" class="node"><title>Node25</title>
<g id="a_node25"><a xlink:href="../../d0/d14/struct_party.html#a88da8d8d7640e1a24c482a7dd548f6f3" target="_top" xlink:title=" ">
<polygon fill="white" stroke="black" points="158.5,-146.5 158.5,-165.5 270.5,-165.5 270.5,-146.5 158.5,-146.5"/>
<text text-anchor="middle" x="214.5" y="-153.5" font-family="Helvetica,sans-Serif" font-size="10.00">Party::SetHoldingItem</text>
</a>
</g>
</g>
<!-- Node1&#45;&gt;Node25 -->
<g id="edge27" class="edge"><title>Node1&#45;&gt;Node25</title>
<path fill="none" stroke="midnightblue" d="M64.439,-247.488C80.1351,-232.837 112.067,-204.509 143,-186 153.506,-179.714 165.57,-174.07 176.714,-169.419"/>
<polygon fill="midnightblue" stroke="midnightblue" points="178.239,-172.578 186.209,-165.596 175.625,-166.085 178.239,-172.578"/>
</g>
<!-- Node33 -->
<g id="node33" class="node"><title>Node33</title>
<g id="a_node33"><a xlink:href="../../db/dd5/_u_i_character_8cpp.html#a2750510181a3547e09758419f0bf1ce8" target="_top" xlink:title=" ">
<polygon fill="white" stroke="black" points="183.5,-48.5 183.5,-67.5 245.5,-67.5 245.5,-48.5 183.5,-48.5"/>
<text text-anchor="middle" x="214.5" y="-55.5" font-family="Helvetica,sans-Serif" font-size="10.00">WetsuitOff</text>
</a>
</g>
</g>
<!-- Node1&#45;&gt;Node33 -->
<g id="edge38" class="edge"><title>Node1&#45;&gt;Node33</title>
<path fill="none" stroke="midnightblue" d="M57.0948,-247.16C65.0797,-218.675 91.8903,-135.172 143,-88 151.77,-79.9059 163.052,-73.8004 174.008,-69.2839"/>
<polygon fill="midnightblue" stroke="midnightblue" points="175.358,-72.5156 183.481,-65.7137 172.889,-65.9653 175.358,-72.5156"/>
</g>
<!-- Node36 -->
<g id="node36" class="node"><title>Node36</title>
<g id="a_node36"><a xlink:href="../../db/dd5/_u_i_character_8cpp.html#ad5c64f8a520c6a5e1aec82f3923ba9dc" target="_top" xlink:title=" ">
<polygon fill="white" stroke="black" points="183,-97.5 183,-116.5 246,-116.5 246,-97.5 183,-97.5"/>
<text text-anchor="middle" x="214.5" y="-104.5" font-family="Helvetica,sans-Serif" font-size="10.00">WetsuitOn</text>
</a>
</g>
</g>
<!-- Node1&#45;&gt;Node36 -->
<g id="edge41" class="edge"><title>Node1&#45;&gt;Node36</title>
<path fill="none" stroke="midnightblue" d="M59.347,-247.231C70.9021,-224.839 102.179,-169.263 143,-137 151.949,-129.927 162.812,-124.227 173.304,-119.773"/>
<polygon fill="midnightblue" stroke="midnightblue" points="174.758,-122.962 182.77,-116.029 172.183,-116.453 174.758,-122.962"/>
</g>
<!-- Node3 -->
<g id="node3" class="node"><title>Node3</title>
<g id="a_node3"><a xlink:href="../../db/dc9/struct_g_u_i_message_queue.html#aa81574871e535ec6e1fc905ef727c8dc" target="_top" xlink:title=" ">
<polygon fill="white" stroke="black" points="331.5,-468.5 331.5,-487.5 461.5,-487.5 461.5,-468.5 331.5,-468.5"/>
<text text-anchor="middle" x="396.5" y="-475.5" font-family="Helvetica,sans-Serif" font-size="10.00">GUIMessageQueue::Clear</text>
</a>
</g>
</g>
<!-- Node2&#45;&gt;Node3 -->
<g id="edge2" class="edge"><title>Node2&#45;&gt;Node3</title>
<path fill="none" stroke="midnightblue" d="M280.23,-463.911C293.482,-465.531 307.53,-467.248 321.09,-468.905"/>
<polygon fill="midnightblue" stroke="midnightblue" points="320.993,-472.42 331.344,-470.159 321.843,-465.471 320.993,-472.42"/>
</g>
<!-- Node7 -->
<g id="node7" class="node"><title>Node7</title>
<g id="a_node7"><a xlink:href="../../d4/db9/_open_a_l_sound_provider_8cpp.html#a0d61058bc8900801bc227bc7b47881d7" target="_top" xlink:title=" ">
<polygon fill="white" stroke="black" points="345,-430.5 345,-449.5 448,-449.5 448,-430.5 345,-430.5"/>
<text text-anchor="middle" x="396.5" y="-437.5" font-family="Helvetica,sans-Serif" font-size="10.00">CreateAudioSample</text>
</a>
</g>
</g>
<!-- Node6&#45;&gt;Node7 -->
<g id="edge6" class="edge"><title>Node6&#45;&gt;Node7</title>
<path fill="none" stroke="midnightblue" d="M270.711,-329.547C276.247,-332.017 281.482,-335.116 286,-339 316.18,-364.95 291.687,-395.206 322,-421 325.976,-424.383 330.481,-427.174 335.256,-429.476"/>
<polygon fill="midnightblue" stroke="midnightblue" points="334.123,-432.793 344.705,-433.324 336.764,-426.31 334.123,-432.793"/>
</g>
<!-- Node9 -->
<g id="node9" class="node"><title>Node9</title>
<g id="a_node9"><a xlink:href="../../d7/dc2/class_audio_player.html#ae30d2f6cbd73b8e316a47b4694fe8960" target="_top" xlink:title=" ">
<polygon fill="white" stroke="black" points="334.5,-392.5 334.5,-411.5 458.5,-411.5 458.5,-392.5 334.5,-392.5"/>
<text text-anchor="middle" x="396.5" y="-399.5" font-family="Helvetica,sans-Serif" font-size="10.00">AudioPlayer::LoadSound</text>
</a>
</g>
</g>
<!-- Node6&#45;&gt;Node9 -->
<g id="edge8" class="edge"><title>Node6&#45;&gt;Node9</title>
<path fill="none" stroke="midnightblue" d="M265.125,-329.557C272.408,-332.03 279.602,-335.127 286,-339 306.18,-351.215 302.147,-365.261 322,-378 328.827,-382.381 336.527,-386.031 344.306,-389.051"/>
<polygon fill="midnightblue" stroke="midnightblue" points="343.187,-392.367 353.782,-392.429 345.538,-385.774 343.187,-392.367"/>
</g>
<!-- Node14 -->
<g id="node14" class="node"><title>Node14</title>
<g id="a_node14"><a xlink:href="../../d6/d70/class_log.html#ac0de2621497ca3b2fbf208624c08bcdf" target="_top" xlink:title=" ">
<polygon fill="white" stroke="black" points="543,-351.5 543,-370.5 617,-370.5 617,-351.5 543,-351.5"/>
<text text-anchor="middle" x="580" y="-358.5" font-family="Helvetica,sans-Serif" font-size="10.00">Log::Warning</text>
</a>
</g>
</g>
<!-- Node6&#45;&gt;Node14 -->
<g id="edge16" class="edge"><title>Node6&#45;&gt;Node14</title>
<path fill="none" stroke="midnightblue" d="M251.227,-329.512C271.781,-334.616 298.178,-340.549 322,-344 395.074,-354.585 480.804,-358.588 532.461,-360.096"/>
<polygon fill="midnightblue" stroke="midnightblue" points="532.545,-363.599 542.637,-360.373 532.736,-356.602 532.545,-363.599"/>
</g>
<!-- Node15 -->
<g id="node15" class="node"><title>Node15</title>
<g id="a_node15"><a xlink:href="../../d9/d98/class_open_a_l_sound_provider.html#a25ac61cd13253bb659672a1cc29ef22c" target="_top" xlink:title=" ">
<polygon fill="white" stroke="black" points="339.5,-305 339.5,-335 453.5,-335 453.5,-305 339.5,-305"/>
<text text-anchor="start" x="347.5" y="-323" font-family="Helvetica,sans-Serif" font-size="10.00">OpenALSoundProvider</text>
<text text-anchor="middle" x="396.5" y="-312" font-family="Helvetica,sans-Serif" font-size="10.00">::SetListenerPosition</text>
</a>
</g>
</g>
<!-- Node6&#45;&gt;Node15 -->
<g id="edge14" class="edge"><title>Node6&#45;&gt;Node15</title>
<path fill="none" stroke="midnightblue" d="M275.688,-320C292.86,-320 311.665,-320 329.181,-320"/>
<polygon fill="midnightblue" stroke="midnightblue" points="329.323,-323.5 339.323,-320 329.323,-316.5 329.323,-323.5"/>
</g>
<!-- Node8 -->
<g id="node8" class="node"><title>Node8</title>
<g id="a_node8"><a xlink:href="../../da/def/_media_8h.html#ab508e4ee3c70ec5e60273ec99af30a2e" target="_top" xlink:title=" ">
<polygon fill="white" stroke="black" points="507,-503.5 507,-522.5 653,-522.5 653,-503.5 507,-503.5"/>
<text text-anchor="middle" x="580" y="-510.5" font-family="Helvetica,sans-Serif" font-size="10.00">CreateAudioBufferDataSource</text>
</a>
</g>
</g>
<!-- Node7&#45;&gt;Node8 -->
<g id="edge7" class="edge"><title>Node7&#45;&gt;Node8</title>
<path fill="none" stroke="midnightblue" d="M448.27,-449.42C456.15,-451.919 463.992,-455.06 471,-459 490.452,-469.936 487.575,-483.015 507,-494 510.969,-496.244 515.21,-498.231 519.574,-499.988"/>
<polygon fill="midnightblue" stroke="midnightblue" points="518.67,-503.382 529.264,-503.479 521.043,-496.797 518.67,-503.382"/>
</g>
<!-- Node10 -->
<g id="node10" class="node"><title>Node10</title>
<g id="a_node10"><a xlink:href="../../da/d6a/_mem_buffer_8cpp.html#a685632d9cd2b61b24a9bfc649d54937e" target="_top" xlink:title=" ">
<polygon fill="white" stroke="black" points="537.5,-465.5 537.5,-484.5 622.5,-484.5 622.5,-465.5 537.5,-465.5"/>
<text text-anchor="middle" x="580" y="-472.5" font-family="Helvetica,sans-Serif" font-size="10.00">AllocMemBuffer</text>
</a>
</g>
</g>
<!-- Node9&#45;&gt;Node10 -->
<g id="edge9" class="edge"><title>Node9&#45;&gt;Node10</title>
<path fill="none" stroke="midnightblue" d="M448.658,-411.543C456.407,-414.022 464.107,-417.125 471,-421 490.452,-431.936 487.575,-445.015 507,-456 513.344,-459.587 520.386,-462.516 527.51,-464.903"/>
<polygon fill="midnightblue" stroke="midnightblue" points="526.633,-468.294 537.218,-467.831 528.655,-461.592 526.633,-468.294"/>
</g>
<!-- Node11 -->
<g id="node11" class="node"><title>Node11</title>
<g id="a_node11"><a xlink:href="../../d7/dc2/class_audio_player.html#aac82d03b250711ed0ce64fa22dfe3a59" target="_top" xlink:title=" ">
<polygon fill="white" stroke="black" points="519,-427.5 519,-446.5 641,-446.5 641,-427.5 519,-427.5"/>
<text text-anchor="middle" x="580" y="-434.5" font-family="Helvetica,sans-Serif" font-size="10.00">AudioPlayer::FindSound</text>
</a>
</g>
</g>
<!-- Node9&#45;&gt;Node11 -->
<g id="edge10" class="edge"><title>Node9&#45;&gt;Node11</title>
<path fill="none" stroke="midnightblue" d="M447.096,-411.564C469.504,-415.885 496.16,-421.025 519.625,-425.55"/>
<polygon fill="midnightblue" stroke="midnightblue" points="518.982,-428.991 529.464,-427.448 520.308,-422.117 518.982,-428.991"/>
</g>
<!-- Node13 -->
<g id="node13" class="node"><title>Node13</title>
<g id="a_node13"><a xlink:href="../../d9/d3e/namespacezlib.html#ae552beaf4387a81c63a28b01a9cc7ab4" target="_top" xlink:title=" ">
<polygon fill="white" stroke="black" points="534,-389.5 534,-408.5 626,-408.5 626,-389.5 534,-389.5"/>
<text text-anchor="middle" x="580" y="-396.5" font-family="Helvetica,sans-Serif" font-size="10.00">zlib::Uncompress</text>
</a>
</g>
</g>
<!-- Node9&#45;&gt;Node13 -->
<g id="edge12" class="edge"><title>Node9&#45;&gt;Node13</title>
<path fill="none" stroke="midnightblue" d="M458.695,-400.989C479.736,-400.641 503.157,-400.254 523.701,-399.914"/>
<polygon fill="midnightblue" stroke="midnightblue" points="523.902,-403.411 533.843,-399.746 523.786,-396.412 523.902,-403.411"/>
</g>
<!-- Node9&#45;&gt;Node14 -->
<g id="edge13" class="edge"><title>Node9&#45;&gt;Node14</title>
<path fill="none" stroke="midnightblue" d="M439.596,-392.491C467.605,-386.164 504.393,-377.853 533.145,-371.359"/>
<polygon fill="midnightblue" stroke="midnightblue" points="533.969,-374.761 542.952,-369.143 532.426,-367.933 533.969,-374.761"/>
</g>
<!-- Node12 -->
<g id="node12" class="node"><title>Node12</title>
<g id="a_node12"><a xlink:href="../../d8/d44/_strings_8cpp.html#ae591bae1416df2b3638ae859ad4ede6f" target="_top" xlink:title=" ">
<polygon fill="white" stroke="black" points="717,-427.5 717,-446.5 783,-446.5 783,-427.5 717,-427.5"/>
<text text-anchor="middle" x="750" y="-434.5" font-family="Helvetica,sans-Serif" font-size="10.00">MakeLower</text>
</a>
</g>
</g>
<!-- Node11&#45;&gt;Node12 -->
<g id="edge11" class="edge"><title>Node11&#45;&gt;Node12</title>
<path fill="none" stroke="midnightblue" d="M641.177,-437C662.726,-437 686.554,-437 706.318,-437"/>
<polygon fill="midnightblue" stroke="midnightblue" points="706.544,-440.5 716.544,-437 706.544,-433.5 706.544,-440.5"/>
</g>
<!-- Node16 -->
<g id="node16" class="node"><title>Node16</title>
<g id="a_node16"><a xlink:href="../../d1/d20/al_8h.html#acb8f6904370d9946f4ea496e21729415" target="_top" xlink:title=" ">
<polygon fill="white" stroke="black" points="547,-310.5 547,-329.5 613,-329.5 613,-310.5 547,-310.5"/>
<text text-anchor="middle" x="580" y="-317.5" font-family="Helvetica,sans-Serif" font-size="10.00">alListener3f</text>
</a>
</g>
</g>
<!-- Node15&#45;&gt;Node16 -->
<g id="edge15" class="edge"><title>Node15&#45;&gt;Node16</title>
<path fill="none" stroke="midnightblue" d="M453.933,-320C480.703,-320 512.145,-320 536.806,-320"/>
<polygon fill="midnightblue" stroke="midnightblue" points="536.927,-323.5 546.927,-320 536.927,-316.5 536.927,-323.5"/>
</g>
<!-- Node17&#45;&gt;Node18 -->
<g id="edge18" class="edge"><title>Node17&#45;&gt;Node18</title>
<path fill="none" stroke="midnightblue" d="M648.848,-245.673C664.978,-247.498 681.934,-249.415 697.214,-251.143"/>
<polygon fill="midnightblue" stroke="midnightblue" points="697.164,-254.66 707.494,-252.306 697.951,-247.704 697.164,-254.66"/>
</g>
<!-- Node17&#45;&gt;Node20 -->
<g id="edge20" class="edge"><title>Node17&#45;&gt;Node20</title>
<path fill="none" stroke="midnightblue" d="M609.75,-228.485C622.938,-224.103 638.772,-218.817 653,-214 672.257,-207.481 693.653,-200.136 711.349,-194.033"/>
<polygon fill="midnightblue" stroke="midnightblue" points="712.986,-197.171 721.297,-190.6 710.702,-190.554 712.986,-197.171"/>
</g>
<!-- Node19 -->
<g id="node19" class="node"><title>Node19</title>
<g id="a_node19"><a xlink:href="../../df/dc2/struct_game_time.html#ab85c95665b71cdbbfb8f0c3ee03d8f2d" target="_top" xlink:title=" ">
<polygon fill="white" stroke="black" points="878.5,-247.5 878.5,-266.5 973.5,-266.5 973.5,-247.5 878.5,-247.5"/>
<text text-anchor="middle" x="926" y="-254.5" font-family="Helvetica,sans-Serif" font-size="10.00">GameTime::Reset</text>
</a>
</g>
</g>
<!-- Node18&#45;&gt;Node19 -->
<g id="edge19" class="edge"><title>Node18&#45;&gt;Node19</title>
<path fill="none" stroke="midnightblue" d="M792.677,-257C815.286,-257 843.561,-257 868.163,-257"/>
<polygon fill="midnightblue" stroke="midnightblue" points="868.454,-260.5 878.454,-257 868.454,-253.5 868.454,-260.5"/>
</g>
<!-- Node21 -->
<g id="node21" class="node"><title>Node21</title>
<g id="a_node21"><a xlink:href="../../d7/dc5/class_mouse.html#a34379441f427a47f1e767e0d93bf0ee8" target="_top" xlink:title=" ">
<polygon fill="white" stroke="black" points="847,-190.5 847,-209.5 1005,-209.5 1005,-190.5 847,-190.5"/>
<text text-anchor="middle" x="926" y="-197.5" font-family="Helvetica,sans-Serif" font-size="10.00">Mouse::AllocCursorSystemMem</text>
</a>
</g>
</g>
<!-- Node20&#45;&gt;Node21 -->
<g id="edge21" class="edge"><title>Node20&#45;&gt;Node21</title>
<path fill="none" stroke="midnightblue" d="M811.368,-187.592C819.623,-188.493 828.231,-189.433 836.854,-190.375"/>
<polygon fill="midnightblue" stroke="midnightblue" points="836.643,-193.873 846.963,-191.479 837.403,-186.914 836.643,-193.873"/>
</g>
<!-- Node23 -->
<g id="node23" class="node"><title>Node23</title>
<g id="a_node23"><a xlink:href="../../d7/dc5/class_mouse.html#a455021707dcb042f6e58821cef234311" target="_top" xlink:title=" ">
<polygon fill="white" stroke="black" points="874.5,-152.5 874.5,-171.5 977.5,-171.5 977.5,-152.5 874.5,-152.5"/>
<text text-anchor="middle" x="926" y="-159.5" font-family="Helvetica,sans-Serif" font-size="10.00">Mouse::ClearCursor</text>
</a>
</g>
</g>
<!-- Node20&#45;&gt;Node23 -->
<g id="edge23" class="edge"><title>Node20&#45;&gt;Node23</title>
<path fill="none" stroke="midnightblue" d="M811.368,-174.408C828.357,-172.553 846.845,-170.534 863.877,-168.674"/>
<polygon fill="midnightblue" stroke="midnightblue" points="864.706,-172.105 874.267,-167.54 863.946,-165.146 864.706,-172.105"/>
</g>
<!-- Node24 -->
<g id="node24" class="node"><title>Node24</title>
<g id="a_node24"><a xlink:href="../../db/dd6/class_assets_manager.html#ad4ab70fc004c8c5a54756f3d358a8383" target="_top" xlink:title=" ">
<polygon fill="white" stroke="black" points="859.5,-78 859.5,-108 992.5,-108 992.5,-78 859.5,-78"/>
<text text-anchor="start" x="867.5" y="-96" font-family="Helvetica,sans-Serif" font-size="10.00">AssetsManager::GetImage</text>
<text text-anchor="middle" x="926" y="-85" font-family="Helvetica,sans-Serif" font-size="10.00">_ColorKey</text>
</a>
</g>
</g>
<!-- Node20&#45;&gt;Node24 -->
<g id="edge24" class="edge"><title>Node20&#45;&gt;Node24</title>
<path fill="none" stroke="midnightblue" d="M771.067,-171.47C782.756,-165.876 797.756,-158.626 811,-152 836.635,-139.174 865.289,-124.343 887.456,-112.758"/>
<polygon fill="midnightblue" stroke="midnightblue" points="889.295,-115.746 896.532,-108.008 886.049,-109.545 889.295,-115.746"/>
</g>
<!-- Node22 -->
<g id="node22" class="node"><title>Node22</title>
<g id="a_node22"><a xlink:href="../../d7/dc5/class_mouse.html#a6f27132399a757994d0f9689f526d54d" target="_top" xlink:title=" ">
<polygon fill="white" stroke="black" points="1041,-190.5 1041,-209.5 1177,-209.5 1177,-190.5 1041,-190.5"/>
<text text-anchor="middle" x="1109" y="-197.5" font-family="Helvetica,sans-Serif" font-size="10.00">Mouse::DoAllocCursorMem</text>
</a>
</g>
</g>
<!-- Node21&#45;&gt;Node22 -->
<g id="edge22" class="edge"><title>Node21&#45;&gt;Node22</title>
<path fill="none" stroke="midnightblue" d="M1005.07,-200C1013.58,-200 1022.23,-200 1030.72,-200"/>
<polygon fill="midnightblue" stroke="midnightblue" points="1030.98,-203.5 1040.98,-200 1030.98,-196.5 1030.98,-203.5"/>
</g>
<!-- Node26 -->
<g id="node26" class="node"><title>Node26</title>
<g id="a_node26"><a xlink:href="../../d7/dc5/class_mouse.html#a344fc4dea2c59a9b57f7124b5ab6b0eb" target="_top" xlink:title=" ">
<polygon fill="white" stroke="black" points="322,-141 322,-171 471,-171 471,-141 322,-141"/>
<text text-anchor="start" x="330" y="-159" font-family="Helvetica,sans-Serif" font-size="10.00">Mouse::SetCursorBitmapFrom</text>
<text text-anchor="middle" x="396.5" y="-148" font-family="Helvetica,sans-Serif" font-size="10.00">ItemID</text>
</a>
</g>
</g>
<!-- Node25&#45;&gt;Node26 -->
<g id="edge28" class="edge"><title>Node25&#45;&gt;Node26</title>
<path fill="none" stroke="midnightblue" d="M270.975,-156C283.942,-156 298.036,-156 311.925,-156"/>
<polygon fill="midnightblue" stroke="midnightblue" points="311.983,-159.5 321.983,-156 311.983,-152.5 311.983,-159.5"/>
</g>
<!-- Node27 -->
<g id="node27" class="node"><title>Node27</title>
<g id="a_node27"><a xlink:href="../../d0/d14/struct_party.html#ac9e435d65b7d78122dddeef2c457a52a" target="_top" xlink:title=" ">
<polygon fill="white" stroke="black" points="325,-92 325,-122 468,-122 468,-92 325,-92"/>
<text text-anchor="start" x="333" y="-110" font-family="Helvetica,sans-Serif" font-size="10.00">Party::sub_421B2C_PlaceIn</text>
<text text-anchor="middle" x="396.5" y="-99" font-family="Helvetica,sans-Serif" font-size="10.00">Inventory_or_DropPickedItem</text>
</a>
</g>
</g>
<!-- Node25&#45;&gt;Node27 -->
<g id="edge30" class="edge"><title>Node25&#45;&gt;Node27</title>
<path fill="none" stroke="midnightblue" d="M250.633,-146.436C273.322,-140.26 303.534,-132.035 330.496,-124.696"/>
<polygon fill="midnightblue" stroke="midnightblue" points="331.533,-128.041 340.262,-122.037 329.694,-121.287 331.533,-128.041"/>
</g>
<!-- Node26&#45;&gt;Node20 -->
<g id="edge29" class="edge"><title>Node26&#45;&gt;Node20</title>
<path fill="none" stroke="midnightblue" d="M471.186,-161.241C532.273,-165.586 618.535,-171.721 678.674,-175.998"/>
<polygon fill="midnightblue" stroke="midnightblue" points="678.616,-179.503 688.839,-176.721 679.112,-172.52 678.616,-179.503"/>
</g>
<!-- Node27&#45;&gt;Node17 -->
<g id="edge37" class="edge"><title>Node27&#45;&gt;Node17</title>
<path fill="none" stroke="midnightblue" d="M453.326,-122.135C459.48,-124.7 465.501,-127.642 471,-131 510.55,-155.149 546.649,-196.502 565.429,-220.103"/>
<polygon fill="midnightblue" stroke="midnightblue" points="562.839,-222.473 571.749,-228.206 568.359,-218.168 562.839,-222.473"/>
</g>
<!-- Node27&#45;&gt;Node24 -->
<g id="edge32" class="edge"><title>Node27&#45;&gt;Node24</title>
<path fill="none" stroke="midnightblue" d="M443.542,-91.8675C452.68,-88.7159 462.174,-85.3354 471,-82 487.214,-75.8724 490.003,-70.3993 507,-67 625.013,-43.3974 765.164,-61.1855 849.491,-76.7075"/>
<polygon fill="midnightblue" stroke="midnightblue" points="849.018,-80.1799 859.492,-78.5863 850.31,-73.3002 849.018,-80.1799"/>
</g>
<!-- Node28 -->
<g id="node28" class="node"><title>Node28</title>
<g id="a_node28"><a xlink:href="../../d7/d9c/struct_item_gen.html#a670a9aa2c4150975e25bd86af446a89e" target="_top" xlink:title=" ">
<polygon fill="white" stroke="black" points="520.5,-0.5 520.5,-19.5 639.5,-19.5 639.5,-0.5 520.5,-0.5"/>
<text text-anchor="middle" x="580" y="-7.5" font-family="Helvetica,sans-Serif" font-size="10.00">ItemGen::GetIconName</text>
</a>
</g>
</g>
<!-- Node27&#45;&gt;Node28 -->
<g id="edge31" class="edge"><title>Node27&#45;&gt;Node28</title>
<path fill="none" stroke="midnightblue" d="M453.846,-91.8307C459.906,-89.0521 465.763,-85.7989 471,-82 492.585,-66.3417 485.367,-49.5923 507,-34 512.952,-29.7097 519.722,-26.1503 526.672,-23.2068"/>
<polygon fill="midnightblue" stroke="midnightblue" points="528.11,-26.4042 536.201,-19.5639 525.61,-19.8657 528.11,-26.4042"/>
</g>
<!-- Node29 -->
<g id="node29" class="node"><title>Node29</title>
<g id="a_node29"><a xlink:href="../../d6/d9e/struct_indoor_location.html#aaaf5a1255bb773cc796685052c9abd29" target="_top" xlink:title=" ">
<polygon fill="white" stroke="black" points="515,-114.5 515,-133.5 645,-133.5 645,-114.5 515,-114.5"/>
<text text-anchor="middle" x="580" y="-121.5" font-family="Helvetica,sans-Serif" font-size="10.00">IndoorLocation::GetSector</text>
</a>
</g>
</g>
<!-- Node27&#45;&gt;Node29 -->
<g id="edge33" class="edge"><title>Node27&#45;&gt;Node29</title>
<path fill="none" stroke="midnightblue" d="M468.192,-113.621C480.168,-114.743 492.634,-115.911 504.698,-117.041"/>
<polygon fill="midnightblue" stroke="midnightblue" points="504.436,-120.531 514.719,-117.979 505.089,-113.562 504.436,-120.531"/>
</g>
<!-- Node32 -->
<g id="node32" class="node"><title>Node32</title>
<g id="a_node32"><a xlink:href="../../dc/d41/class_object_list.html#a9b403a9566abade0fcb2161a1510756d" target="_top" xlink:title=" ">
<polygon fill="white" stroke="black" points="508,-76.5 508,-95.5 652,-95.5 652,-76.5 508,-76.5"/>
<text text-anchor="middle" x="580" y="-83.5" font-family="Helvetica,sans-Serif" font-size="10.00">ObjectList::ObjectIDByItemID</text>
</a>
</g>
</g>
<!-- Node27&#45;&gt;Node32 -->
<g id="edge36" class="edge"><title>Node27&#45;&gt;Node32</title>
<path fill="none" stroke="midnightblue" d="M468.192,-98.8207C477.87,-97.701 487.868,-96.5442 497.715,-95.4049"/>
<polygon fill="midnightblue" stroke="midnightblue" points="498.372,-98.8523 507.903,-94.2261 497.567,-91.8987 498.372,-98.8523"/>
</g>
<!-- Node30 -->
<g id="node30" class="node"><title>Node30</title>
<g id="a_node30"><a xlink:href="../../de/db6/_our_math_8cpp.html#a26d802a4465483f7c2f89657b75c9ebe" target="_top" xlink:title=" ">
<polygon fill="white" stroke="black" points="718,-85.5 718,-104.5 782,-104.5 782,-85.5 718,-85.5"/>
<text text-anchor="middle" x="750" y="-92.5" font-family="Helvetica,sans-Serif" font-size="10.00">fixpoint_div</text>
</a>
</g>
</g>
<!-- Node29&#45;&gt;Node30 -->
<g id="edge34" class="edge"><title>Node29&#45;&gt;Node30</title>
<path fill="none" stroke="midnightblue" d="M636.475,-114.424C659.637,-110.426 686.083,-105.861 707.514,-102.161"/>
<polygon fill="midnightblue" stroke="midnightblue" points="708.337,-105.571 717.596,-100.421 707.146,-98.673 708.337,-105.571"/>
</g>
<!-- Node31 -->
<g id="node31" class="node"><title>Node31</title>
<g id="a_node31"><a xlink:href="../../de/db6/_our_math_8cpp.html#abc4811d26f9864e00046c39c39d65680" target="_top" xlink:title=" ">
<polygon fill="white" stroke="black" points="716,-123.5 716,-142.5 784,-142.5 784,-123.5 716,-123.5"/>
<text text-anchor="middle" x="750" y="-130.5" font-family="Helvetica,sans-Serif" font-size="10.00">fixpoint_mul</text>
</a>
</g>
</g>
<!-- Node29&#45;&gt;Node31 -->
<g id="edge35" class="edge"><title>Node29&#45;&gt;Node31</title>
<path fill="none" stroke="midnightblue" d="M645.473,-127.454C665.678,-128.536 687.479,-129.704 705.84,-130.688"/>
<polygon fill="midnightblue" stroke="midnightblue" points="705.761,-134.189 715.934,-131.229 706.136,-127.199 705.761,-134.189"/>
</g>
<!-- Node34 -->
<g id="node34" class="node"><title>Node34</title>
<g id="a_node34"><a xlink:href="../../db/dd6/class_assets_manager.html#a1233dda64079e0eba19f8be51386d029" target="_top" xlink:title=" ">
<polygon fill="white" stroke="black" points="330,-43 330,-73 463,-73 463,-43 330,-43"/>
<text text-anchor="start" x="338" y="-61" font-family="Helvetica,sans-Serif" font-size="10.00">AssetsManager::GetImage</text>
<text text-anchor="middle" x="396.5" y="-50" font-family="Helvetica,sans-Serif" font-size="10.00">_Alpha</text>
</a>
</g>
</g>
<!-- Node33&#45;&gt;Node34 -->
<g id="edge39" class="edge"><title>Node33&#45;&gt;Node34</title>
<path fill="none" stroke="midnightblue" d="M245.628,-58C265.861,-58 293.482,-58 319.502,-58"/>
<polygon fill="midnightblue" stroke="midnightblue" points="319.759,-61.5001 329.759,-58 319.759,-54.5001 319.759,-61.5001"/>
</g>
<!-- Node35 -->
<g id="node35" class="node"><title>Node35</title>
<g id="a_node35"><a xlink:href="../../d8/d44/_strings_8cpp.html#aebf99e80337d8db0a005aebe8a13fb7f" target="_top" xlink:title=" ">
<polygon fill="white" stroke="black" points="364,-4.5 364,-23.5 429,-23.5 429,-4.5 364,-4.5"/>
<text text-anchor="middle" x="396.5" y="-11.5" font-family="Helvetica,sans-Serif" font-size="10.00">StringPrintf</text>
</a>
</g>
</g>
<!-- Node33&#45;&gt;Node35 -->
<g id="edge40" class="edge"><title>Node33&#45;&gt;Node35</title>
<path fill="none" stroke="midnightblue" d="M245.628,-50.6354C275.286,-43.3855 320.82,-32.255 353.917,-24.1648"/>
<polygon fill="midnightblue" stroke="midnightblue" points="354.874,-27.5338 363.757,-21.7593 353.212,-20.734 354.874,-27.5338"/>
</g>
<!-- Node36&#45;&gt;Node34 -->
<g id="edge42" class="edge"><title>Node36&#45;&gt;Node34</title>
<path fill="none" stroke="midnightblue" d="M246.035,-98.6878C269.094,-92.4107 301.579,-83.5674 330.377,-75.728"/>
<polygon fill="midnightblue" stroke="midnightblue" points="331.658,-79.0066 340.388,-73.0028 329.819,-72.2524 331.658,-79.0066"/>
</g>
</g>
</svg>
