<?xml version="1.0" encoding="UTF-8" standalone="no"?>
<!DOCTYPE svg PUBLIC "-//W3C//DTD SVG 1.1//EN"
 "http://www.w3.org/Graphics/SVG/1.1/DTD/svg11.dtd">
<!-- Generated by graphviz version 2.38.0 (20140413.2041)
 -->
<!-- Title: DrawJoinGuildWindow Pages: 1 -->
<svg width="572pt" height="199pt"
 viewBox="0.00 0.00 572.00 199.00" xmlns="http://www.w3.org/2000/svg" xmlns:xlink="http://www.w3.org/1999/xlink">
<g id="graph0" class="graph" transform="scale(1 1) rotate(0) translate(4 195)">
<title>DrawJoinGuildWindow</title>
<polygon fill="white" stroke="none" points="-4,4 -4,-195 568,-195 568,4 -4,4"/>
<!-- Node1 -->
<g id="node1" class="node"><title>Node1</title>
<g id="a_node1"><a xlink:title=" ">
<polygon fill="#bfbfbf" stroke="black" points="0,-95.5 0,-114.5 113,-114.5 113,-95.5 0,-95.5"/>
<text text-anchor="middle" x="56.5" y="-102.5" font-family="Helvetica,sans-Serif" font-size="10.00">DrawJoinGuildWindow</text>
</a>
</g>
</g>
<!-- Node2 -->
<g id="node2" class="node"><title>Node2</title>
<g id="a_node2"><a xlink:href="../../d1/d6c/_n_p_c_8cpp.html#a82f3f3f3f3bae57392d9db62be402d47" target="_top" xlink:title=" ">
<polygon fill="white" stroke="black" points="164.5,-152.5 164.5,-171.5 264.5,-171.5 264.5,-152.5 164.5,-152.5"/>
<text text-anchor="middle" x="214.5" y="-159.5" font-family="Helvetica,sans-Serif" font-size="10.00">ContractSelectText</text>
</a>
</g>
</g>
<!-- Node1&#45;&gt;Node2 -->
<g id="edge1" class="edge"><title>Node1&#45;&gt;Node2</title>
<path fill="none" stroke="midnightblue" d="M78.6939,-114.562C97.0795,-122.673 124.514,-134.337 149,-143 155.359,-145.25 162.133,-147.452 168.811,-149.513"/>
<polygon fill="midnightblue" stroke="midnightblue" points="167.883,-152.889 178.468,-152.422 169.902,-146.186 167.883,-152.889"/>
</g>
<!-- Node6 -->
<g id="node6" class="node"><title>Node6</title>
<g id="a_node6"><a xlink:href="../../d4/d38/class_g_u_i_window.html#a29f96468b54f142995e3b1890cb7e45e" target="_top" xlink:title=" ">
<polygon fill="white" stroke="black" points="149,-114.5 149,-133.5 280,-133.5 280,-114.5 149,-114.5"/>
<text text-anchor="middle" x="214.5" y="-121.5" font-family="Helvetica,sans-Serif" font-size="10.00">GUIWindow::CreateButton</text>
</a>
</g>
</g>
<!-- Node1&#45;&gt;Node6 -->
<g id="edge5" class="edge"><title>Node1&#45;&gt;Node6</title>
<path fill="none" stroke="midnightblue" d="M113.379,-111.806C121.674,-112.816 130.332,-113.871 138.935,-114.918"/>
<polygon fill="midnightblue" stroke="midnightblue" points="138.633,-118.407 148.983,-116.142 139.479,-111.459 138.633,-118.407"/>
</g>
<!-- Node7 -->
<g id="node7" class="node"><title>Node7</title>
<g id="a_node7"><a xlink:href="../../dd/d88/class_localization.html#a0eb0a17fdf90f6a420eeac65bf62436f" target="_top" xlink:title=" ">
<polygon fill="white" stroke="black" points="156.5,-76.5 156.5,-95.5 272.5,-95.5 272.5,-76.5 156.5,-76.5"/>
<text text-anchor="middle" x="214.5" y="-83.5" font-family="Helvetica,sans-Serif" font-size="10.00">Localization::GetString</text>
</a>
</g>
</g>
<!-- Node1&#45;&gt;Node7 -->
<g id="edge6" class="edge"><title>Node1&#45;&gt;Node7</title>
<path fill="none" stroke="midnightblue" d="M113.379,-98.1942C124.089,-96.8898 135.405,-95.5116 146.425,-94.1694"/>
<polygon fill="midnightblue" stroke="midnightblue" points="146.932,-97.6336 156.435,-92.9502 146.086,-90.685 146.932,-97.6336"/>
</g>
<!-- Node8 -->
<g id="node8" class="node"><title>Node8</title>
<g id="a_node8"><a xlink:href="../../d4/d38/class_g_u_i_window.html#aaf2e6a2022904abc2d253e9d4acd5d99" target="_top" xlink:title=" ">
<polygon fill="white" stroke="black" points="160,-38.5 160,-57.5 269,-57.5 269,-38.5 160,-38.5"/>
<text text-anchor="middle" x="214.5" y="-45.5" font-family="Helvetica,sans-Serif" font-size="10.00">GUIWindow::Release</text>
</a>
</g>
</g>
<!-- Node1&#45;&gt;Node8 -->
<g id="edge7" class="edge"><title>Node1&#45;&gt;Node8</title>
<path fill="none" stroke="midnightblue" d="M78.6939,-95.438C97.0795,-87.3271 124.514,-75.663 149,-67 155.359,-64.7503 162.133,-62.5481 168.811,-60.4868"/>
<polygon fill="midnightblue" stroke="midnightblue" points="169.902,-63.8137 178.468,-57.5782 167.883,-57.1112 169.902,-63.8137"/>
</g>
<!-- Node3 -->
<g id="node3" class="node"><title>Node3</title>
<g id="a_node3"><a xlink:href="../../da/db4/_party_8cpp.html#aa98e661066fa419e8f3b18a3fb7c1bb2" target="_top" xlink:title=" ">
<polygon fill="white" stroke="black" points="337.5,-171.5 337.5,-190.5 429.5,-190.5 429.5,-171.5 337.5,-171.5"/>
<text text-anchor="middle" x="383.5" y="-178.5" font-family="Helvetica,sans-Serif" font-size="10.00">_449B57_test_bit</text>
</a>
</g>
</g>
<!-- Node2&#45;&gt;Node3 -->
<g id="edge2" class="edge"><title>Node2&#45;&gt;Node3</title>
<path fill="none" stroke="midnightblue" d="M264.702,-167.598C284.374,-169.836 307.119,-172.424 327.346,-174.725"/>
<polygon fill="midnightblue" stroke="midnightblue" points="327.024,-178.211 337.356,-175.864 327.815,-171.256 327.024,-178.211"/>
</g>
<!-- Node4 -->
<g id="node4" class="node"><title>Node4</title>
<g id="a_node4"><a xlink:href="../../d0/d14/struct_party.html#ab12dc32d73ddaf11d93860fbf190b603" target="_top" xlink:title=" ">
<polygon fill="white" stroke="black" points="327,-133.5 327,-152.5 440,-152.5 440,-133.5 327,-133.5"/>
<text text-anchor="middle" x="383.5" y="-140.5" font-family="Helvetica,sans-Serif" font-size="10.00">Party::GetFirstCanAct</text>
</a>
</g>
</g>
<!-- Node2&#45;&gt;Node4 -->
<g id="edge3" class="edge"><title>Node2&#45;&gt;Node4</title>
<path fill="none" stroke="midnightblue" d="M264.702,-156.402C281.029,-154.545 299.473,-152.446 316.838,-150.471"/>
<polygon fill="midnightblue" stroke="midnightblue" points="317.373,-153.932 326.913,-149.324 316.582,-146.977 317.373,-153.932"/>
</g>
<!-- Node5 -->
<g id="node5" class="node"><title>Node5</title>
<g id="a_node5"><a xlink:href="../../d9/d30/_s_d_l__assert_8h.html#afedcea68cf85ee469ab1ea390bbe0abb" target="_top" xlink:title=" ">
<polygon fill="white" stroke="black" points="487,-133.5 487,-152.5 564,-152.5 564,-133.5 487,-133.5"/>
<text text-anchor="middle" x="525.5" y="-140.5" font-family="Helvetica,sans-Serif" font-size="10.00">__debugbreak</text>
</a>
</g>
</g>
<!-- Node4&#45;&gt;Node5 -->
<g id="edge4" class="edge"><title>Node4&#45;&gt;Node5</title>
<path fill="none" stroke="midnightblue" d="M440.234,-143C452.265,-143 464.884,-143 476.585,-143"/>
<polygon fill="midnightblue" stroke="midnightblue" points="476.594,-146.5 486.594,-143 476.594,-139.5 476.594,-146.5"/>
</g>
<!-- Node9 -->
<g id="node9" class="node"><title>Node9</title>
<g id="a_node9"><a xlink:href="../../d4/d38/class_g_u_i_window.html#a7c8bcc74ea8cc23cc666aa869e5a5d7d" target="_top" xlink:title=" ">
<polygon fill="white" stroke="black" points="316,-76.5 316,-95.5 451,-95.5 451,-76.5 316,-76.5"/>
<text text-anchor="middle" x="383.5" y="-83.5" font-family="Helvetica,sans-Serif" font-size="10.00">GUIWindow::DeleteButtons</text>
</a>
</g>
</g>
<!-- Node8&#45;&gt;Node9 -->
<g id="edge8" class="edge"><title>Node8&#45;&gt;Node9</title>
<path fill="none" stroke="midnightblue" d="M257.641,-57.589C279.877,-62.6487 307.348,-68.8996 330.856,-74.2488"/>
<polygon fill="midnightblue" stroke="midnightblue" points="330.135,-77.6739 340.662,-76.4799 331.688,-70.8484 330.135,-77.6739"/>
</g>
<!-- Node10 -->
<g id="node10" class="node"><title>Node10</title>
<g id="a_node10"><a xlink:href="../../d6/d70/class_log.html#a9962588a107d3b4aa927cf12284e0fc7" target="_top" xlink:title=" ">
<polygon fill="white" stroke="black" points="357,-38.5 357,-57.5 410,-57.5 410,-38.5 357,-38.5"/>
<text text-anchor="middle" x="383.5" y="-45.5" font-family="Helvetica,sans-Serif" font-size="10.00">Log::Info</text>
</a>
</g>
</g>
<!-- Node8&#45;&gt;Node10 -->
<g id="edge9" class="edge"><title>Node8&#45;&gt;Node10</title>
<path fill="none" stroke="midnightblue" d="M269.259,-48C294.612,-48 324.172,-48 346.733,-48"/>
<polygon fill="midnightblue" stroke="midnightblue" points="346.881,-51.5001 356.881,-48 346.88,-44.5001 346.881,-51.5001"/>
</g>
<!-- Node11 -->
<g id="node11" class="node"><title>Node11</title>
<g id="a_node11"><a xlink:href="../../d5/d0b/_g_u_i_window_8h.html#a2dd068506951f75670a9b118af013003" target="_top" xlink:title=" ">
<polygon fill="white" stroke="black" points="357,-0.5 357,-19.5 410,-19.5 410,-0.5 357,-0.5"/>
<text text-anchor="middle" x="383.5" y="-7.5" font-family="Helvetica,sans-Serif" font-size="10.00">ToString</text>
</a>
</g>
</g>
<!-- Node8&#45;&gt;Node11 -->
<g id="edge10" class="edge"><title>Node8&#45;&gt;Node11</title>
<path fill="none" stroke="midnightblue" d="M257.641,-38.411C285.109,-32.1609 320.564,-24.0932 346.671,-18.1528"/>
<polygon fill="midnightblue" stroke="midnightblue" points="347.558,-21.5404 356.532,-15.9088 346.005,-14.7149 347.558,-21.5404"/>
</g>
</g>
</svg>
