<?xml version="1.0" encoding="UTF-8" standalone="no"?>
<!DOCTYPE svg PUBLIC "-//W3C//DTD SVG 1.1//EN"
 "http://www.w3.org/Graphics/SVG/1.1/DTD/svg11.dtd">
<!-- Generated by graphviz version 2.38.0 (20140413.2041)
 -->
<!-- Title: CharacterUI_InventoryTab_Draw Pages: 1 -->
<svg width="857pt" height="318pt"
 viewBox="0.00 0.00 857.00 318.06" xmlns="http://www.w3.org/2000/svg" xmlns:xlink="http://www.w3.org/1999/xlink">
<g id="graph0" class="graph" transform="scale(1 1) rotate(0) translate(4 314.057)">
<title>CharacterUI_InventoryTab_Draw</title>
<polygon fill="white" stroke="none" points="-4,4 -4,-314.057 853,-314.057 853,4 -4,4"/>
<!-- Node1 -->
<g id="node1" class="node"><title>Node1</title>
<g id="a_node1"><a xlink:title=" ">
<polygon fill="#bfbfbf" stroke="black" points="695,-157 695,-176 849,-176 849,-157 695,-157"/>
<text text-anchor="middle" x="772" y="-164" font-family="Helvetica,sans-Serif" font-size="10.00">CharacterUI_InventoryTab_Draw</text>
</a>
</g>
</g>
<!-- Node2 -->
<g id="node2" class="node"><title>Node2</title>
<g id="a_node2"><a xlink:href="../../d4/d38/class_g_u_i_window.html#af4310ff80f340b9a9c9b3249564a0960" target="_top" xlink:title=" ">
<polygon fill="white" stroke="black" points="173,-214 173,-233 339,-233 339,-214 173,-214"/>
<text text-anchor="middle" x="256" y="-221" font-family="Helvetica,sans-Serif" font-size="10.00">GUIWindow::HouseDialogManager</text>
</a>
</g>
</g>
<!-- Node1&#45;&gt;Node2 -->
<g id="edge1" class="edge"><title>Node1&#45;&gt;Node2</title>
<path fill="none" stroke="midnightblue" d="M759.89,-184.856C742.363,-211.812 705.462,-261.014 659,-280.5 542.601,-329.319 498.041,-308.661 375,-280.5 335.08,-271.363 292.96,-246.895 271.47,-233.172"/>
<polygon fill="midnightblue" stroke="midnightblue" points="762.89,-186.66 765.265,-176.334 756.969,-182.925 762.89,-186.66"/>
</g>
<!-- Node4 -->
<g id="node4" class="node"><title>Node4</title>
<g id="a_node4"><a xlink:href="../../d9/d21/_u_i_shops_8cpp.html#a8c9338c42b60cb39edc4053538666149" target="_top" xlink:title=" ">
<polygon fill="white" stroke="black" points="524.5,-252 524.5,-271 647.5,-271 647.5,-252 524.5,-252"/>
<text text-anchor="middle" x="586" y="-259" font-family="Helvetica,sans-Serif" font-size="10.00">ShopDialogDisplayEquip</text>
</a>
</g>
</g>
<!-- Node1&#45;&gt;Node4 -->
<g id="edge3" class="edge"><title>Node1&#45;&gt;Node4</title>
<path fill="none" stroke="midnightblue" d="M751.731,-182.595C730.332,-199.72 694.152,-226.502 659,-242.5 650.763,-246.249 641.648,-249.368 632.75,-251.922"/>
<polygon fill="midnightblue" stroke="midnightblue" points="754.143,-185.145 759.693,-176.12 749.727,-179.714 754.143,-185.145"/>
</g>
<!-- Node9 -->
<g id="node9" class="node"><title>Node9</title>
<g id="a_node9"><a xlink:href="../../d9/d21/_u_i_shops_8cpp.html#a048694c0001d19ab6d2504855284aca1" target="_top" xlink:title=" ">
<polygon fill="white" stroke="black" points="537.5,-214 537.5,-233 634.5,-233 634.5,-214 537.5,-214"/>
<text text-anchor="middle" x="586" y="-221" font-family="Helvetica,sans-Serif" font-size="10.00">ShopDialogIdentify</text>
</a>
</g>
</g>
<!-- Node1&#45;&gt;Node9 -->
<g id="edge12" class="edge"><title>Node1&#45;&gt;Node9</title>
<path fill="none" stroke="midnightblue" d="M734.927,-179.446C713.076,-187.111 684.574,-196.797 659,-204.5 648.107,-207.781 636.195,-211.051 625.252,-213.931"/>
<polygon fill="midnightblue" stroke="midnightblue" points="736.198,-182.709 744.464,-176.081 733.869,-176.108 736.198,-182.709"/>
</g>
<!-- Node10 -->
<g id="node10" class="node"><title>Node10</title>
<g id="a_node10"><a xlink:href="../../d9/d21/_u_i_shops_8cpp.html#a346cf84eef33acc03ef4e3258334883b" target="_top" xlink:title=" ">
<polygon fill="white" stroke="black" points="539,-138 539,-157 633,-157 633,-138 539,-138"/>
<text text-anchor="middle" x="586" y="-145" font-family="Helvetica,sans-Serif" font-size="10.00">ShopDialogRepair</text>
</a>
</g>
</g>
<!-- Node1&#45;&gt;Node10 -->
<g id="edge17" class="edge"><title>Node1&#45;&gt;Node10</title>
<path fill="none" stroke="midnightblue" d="M684.445,-157.562C666.716,-155.731 648.716,-153.873 633.092,-152.259"/>
<polygon fill="midnightblue" stroke="midnightblue" points="684.525,-161.089 694.832,-158.635 685.244,-154.126 684.525,-161.089"/>
</g>
<!-- Node11 -->
<g id="node11" class="node"><title>Node11</title>
<g id="a_node11"><a xlink:href="../../d9/d21/_u_i_shops_8cpp.html#a1a84da1219d62a5288284ff157be4ff9" target="_top" xlink:title=" ">
<polygon fill="white" stroke="black" points="532.5,-176 532.5,-195 639.5,-195 639.5,-176 532.5,-176"/>
<text text-anchor="middle" x="586" y="-183" font-family="Helvetica,sans-Serif" font-size="10.00">ShopDialogSellEquip</text>
</a>
</g>
</g>
<!-- Node1&#45;&gt;Node11 -->
<g id="edge21" class="edge"><title>Node1&#45;&gt;Node11</title>
<path fill="none" stroke="midnightblue" d="M684.745,-175.407C669.319,-177 653.678,-178.615 639.563,-180.072"/>
<polygon fill="midnightblue" stroke="midnightblue" points="685.244,-178.874 694.832,-174.365 684.525,-171.911 685.244,-178.874"/>
</g>
<!-- Node12 -->
<g id="node12" class="node"><title>Node12</title>
<g id="a_node12"><a xlink:href="../../de/d17/class_g_u_i_window___character_record.html#a0f5495b3e77a5b936914a37270e9d2e2" target="_top" xlink:title=" ">
<polygon fill="white" stroke="black" points="513,-88.5 513,-118.5 659,-118.5 659,-88.5 513,-88.5"/>
<text text-anchor="start" x="521" y="-106.5" font-family="Helvetica,sans-Serif" font-size="10.00">GUIWindow_CharacterRecord</text>
<text text-anchor="middle" x="586" y="-95.5" font-family="Helvetica,sans-Serif" font-size="10.00">::Update</text>
</a>
</g>
</g>
<!-- Node1&#45;&gt;Node12 -->
<g id="edge26" class="edge"><title>Node1&#45;&gt;Node12</title>
<path fill="none" stroke="midnightblue" d="M733.47,-153.65C703.777,-143.484 662.255,-129.267 630.999,-118.565"/>
<polygon fill="midnightblue" stroke="midnightblue" points="732.46,-157.004 743.054,-156.932 734.727,-150.381 732.46,-157.004"/>
</g>
<!-- Node13 -->
<g id="node13" class="node"><title>Node13</title>
<g id="a_node13"><a xlink:href="../../d5/dcb/class_g_u_i_window___chest.html#aa308c7edcf6ab7091930a44f279529c5" target="_top" xlink:title=" ">
<polygon fill="white" stroke="black" points="518.5,-50 518.5,-69 653.5,-69 653.5,-50 518.5,-50"/>
<text text-anchor="middle" x="586" y="-57" font-family="Helvetica,sans-Serif" font-size="10.00">GUIWindow_Chest::Update</text>
</a>
</g>
</g>
<!-- Node1&#45;&gt;Node13 -->
<g id="edge27" class="edge"><title>Node1&#45;&gt;Node13</title>
<path fill="none" stroke="midnightblue" d="M754.453,-149.857C733.84,-130.043 696.716,-97.2799 659,-78.5 651.362,-74.6969 642.877,-71.5918 634.489,-69.0777"/>
<polygon fill="midnightblue" stroke="midnightblue" points="752.157,-152.507 761.752,-157 757.053,-147.504 752.157,-152.507"/>
</g>
<!-- Node14 -->
<g id="node14" class="node"><title>Node14</title>
<g id="a_node14"><a xlink:href="../../d0/d91/class_g_u_i_window___inventory___cast_spell.html#a373228c4a9230f499cf71796a185f581" target="_top" xlink:title=" ">
<polygon fill="white" stroke="black" points="530.5,-0.5 530.5,-30.5 641.5,-30.5 641.5,-0.5 530.5,-0.5"/>
<text text-anchor="start" x="538.5" y="-18.5" font-family="Helvetica,sans-Serif" font-size="10.00">GUIWindow_Inventory</text>
<text text-anchor="middle" x="586" y="-7.5" font-family="Helvetica,sans-Serif" font-size="10.00">_CastSpell::Update</text>
</a>
</g>
</g>
<!-- Node1&#45;&gt;Node14 -->
<g id="edge28" class="edge"><title>Node1&#45;&gt;Node14</title>
<path fill="none" stroke="midnightblue" d="M759.313,-148.238C741.041,-121.066 703.187,-70.0327 659,-40.5 653.279,-36.6766 646.912,-33.3749 640.397,-30.5408"/>
<polygon fill="midnightblue" stroke="midnightblue" points="756.515,-150.353 764.938,-156.78 762.361,-146.503 756.515,-150.353"/>
</g>
<!-- Node3 -->
<g id="node3" class="node"><title>Node3</title>
<g id="a_node3"><a xlink:href="../../d8/ddd/class_g_u_i_window___house.html#a27de5de37c96fb176d5d12465e59ccc7" target="_top" xlink:title=" ">
<polygon fill="white" stroke="black" points="0,-214 0,-233 137,-233 137,-214 0,-214"/>
<text text-anchor="middle" x="68.5" y="-221" font-family="Helvetica,sans-Serif" font-size="10.00">GUIWindow_House::Update</text>
</a>
</g>
</g>
<!-- Node2&#45;&gt;Node3 -->
<g id="edge2" class="edge"><title>Node2&#45;&gt;Node3</title>
<path fill="none" stroke="midnightblue" d="M162.731,-223.5C154.114,-223.5 145.491,-223.5 137.16,-223.5"/>
<polygon fill="midnightblue" stroke="midnightblue" points="162.827,-227 172.827,-223.5 162.827,-220 162.827,-227"/>
</g>
<!-- Node5 -->
<g id="node5" class="node"><title>Node5</title>
<g id="a_node5"><a xlink:href="../../d9/d21/_u_i_shops_8cpp.html#a9611aa004e0f31fd99be43d980eb28d5" target="_top" xlink:title=" ">
<polygon fill="white" stroke="black" points="382.5,-252 382.5,-271 469.5,-271 469.5,-252 382.5,-252"/>
<text text-anchor="middle" x="426" y="-259" font-family="Helvetica,sans-Serif" font-size="10.00">AlchemistDialog</text>
</a>
</g>
</g>
<!-- Node4&#45;&gt;Node5 -->
<g id="edge4" class="edge"><title>Node4&#45;&gt;Node5</title>
<path fill="none" stroke="midnightblue" d="M513.966,-261.5C498.815,-261.5 483.269,-261.5 469.588,-261.5"/>
<polygon fill="midnightblue" stroke="midnightblue" points="514.365,-265 524.365,-261.5 514.365,-258 514.365,-265"/>
</g>
<!-- Node6 -->
<g id="node6" class="node"><title>Node6</title>
<g id="a_node6"><a xlink:href="../../d9/d21/_u_i_shops_8cpp.html#ac6a6b5f0e1883960347080bc9e45f894" target="_top" xlink:title=" ">
<polygon fill="white" stroke="black" points="380,-214 380,-233 472,-233 472,-214 380,-214"/>
<text text-anchor="middle" x="426" y="-221" font-family="Helvetica,sans-Serif" font-size="10.00">ArmorShopDialog</text>
</a>
</g>
</g>
<!-- Node4&#45;&gt;Node6 -->
<g id="edge6" class="edge"><title>Node4&#45;&gt;Node6</title>
<path fill="none" stroke="midnightblue" d="M535.238,-249.532C513.097,-244.207 487.388,-238.024 466.583,-233.02"/>
<polygon fill="midnightblue" stroke="midnightblue" points="534.589,-252.976 545.13,-251.911 536.226,-246.17 534.589,-252.976"/>
</g>
<!-- Node7 -->
<g id="node7" class="node"><title>Node7</title>
<g id="a_node7"><a xlink:href="../../d9/d21/_u_i_shops_8cpp.html#ae4ce274e60dd3f8b559423cbb991361d" target="_top" xlink:title=" ">
<polygon fill="white" stroke="black" points="380,-176 380,-195 472,-195 472,-176 380,-176"/>
<text text-anchor="middle" x="426" y="-183" font-family="Helvetica,sans-Serif" font-size="10.00">MagicShopDialog</text>
</a>
</g>
</g>
<!-- Node4&#45;&gt;Node7 -->
<g id="edge8" class="edge"><title>Node4&#45;&gt;Node7</title>
<path fill="none" stroke="midnightblue" d="M524.703,-248.348C520.634,-246.628 516.69,-244.688 513,-242.5 492.989,-230.635 496.36,-217.401 477,-204.5 471.436,-200.792 465.047,-197.668 458.736,-195.091"/>
<polygon fill="midnightblue" stroke="midnightblue" points="523.774,-251.737 534.366,-251.973 526.233,-245.184 523.774,-251.737"/>
</g>
<!-- Node8 -->
<g id="node8" class="node"><title>Node8</title>
<g id="a_node8"><a xlink:href="../../d9/d21/_u_i_shops_8cpp.html#af61c121dc37dbb99e2b840b538ec6f1e" target="_top" xlink:title=" ">
<polygon fill="white" stroke="black" points="375,-138 375,-157 477,-157 477,-138 375,-138"/>
<text text-anchor="middle" x="426" y="-145" font-family="Helvetica,sans-Serif" font-size="10.00">WeaponShopDialog</text>
</a>
</g>
</g>
<!-- Node4&#45;&gt;Node8 -->
<g id="edge10" class="edge"><title>Node4&#45;&gt;Node8</title>
<path fill="none" stroke="midnightblue" d="M519.507,-247.158C517.226,-245.747 515.045,-244.199 513,-242.5 484.251,-218.616 504.454,-191.861 477,-166.5 472.839,-162.656 467.822,-159.566 462.594,-157.087"/>
<polygon fill="midnightblue" stroke="midnightblue" points="518.247,-250.448 528.735,-251.95 521.473,-244.235 518.247,-250.448"/>
</g>
<!-- Node5&#45;&gt;Node2 -->
<g id="edge5" class="edge"><title>Node5&#45;&gt;Node2</title>
<path fill="none" stroke="midnightblue" d="M372.724,-249.676C349.039,-244.318 321.41,-238.069 299.089,-233.02"/>
<polygon fill="midnightblue" stroke="midnightblue" points="372.081,-253.119 382.607,-251.911 373.625,-246.291 372.081,-253.119"/>
</g>
<!-- Node6&#45;&gt;Node2 -->
<g id="edge7" class="edge"><title>Node6&#45;&gt;Node2</title>
<path fill="none" stroke="midnightblue" d="M369.932,-223.5C360.054,-223.5 349.567,-223.5 339.12,-223.5"/>
<polygon fill="midnightblue" stroke="midnightblue" points="369.979,-227 379.979,-223.5 369.979,-220 369.979,-227"/>
</g>
<!-- Node7&#45;&gt;Node2 -->
<g id="edge9" class="edge"><title>Node7&#45;&gt;Node2</title>
<path fill="none" stroke="midnightblue" d="M372.724,-197.324C349.039,-202.682 321.41,-208.931 299.089,-213.98"/>
<polygon fill="midnightblue" stroke="midnightblue" points="373.625,-200.709 382.607,-195.089 372.081,-193.881 373.625,-200.709"/>
</g>
<!-- Node8&#45;&gt;Node2 -->
<g id="edge11" class="edge"><title>Node8&#45;&gt;Node2</title>
<path fill="none" stroke="midnightblue" d="M389.027,-160.739C384.284,-162.61 379.507,-164.559 375,-166.5 339.267,-181.885 298.622,-202.149 275.57,-213.909"/>
<polygon fill="midnightblue" stroke="midnightblue" points="390.551,-163.903 398.619,-157.035 388.029,-157.373 390.551,-163.903"/>
</g>
<!-- Node9&#45;&gt;Node5 -->
<g id="edge13" class="edge"><title>Node9&#45;&gt;Node5</title>
<path fill="none" stroke="midnightblue" d="M535.238,-235.468C513.097,-240.793 487.388,-246.976 466.583,-251.98"/>
<polygon fill="midnightblue" stroke="midnightblue" points="536.226,-238.83 545.13,-233.089 534.589,-232.024 536.226,-238.83"/>
</g>
<!-- Node9&#45;&gt;Node6 -->
<g id="edge14" class="edge"><title>Node9&#45;&gt;Node6</title>
<path fill="none" stroke="midnightblue" d="M527.029,-223.5C508.958,-223.5 489.303,-223.5 472.238,-223.5"/>
<polygon fill="midnightblue" stroke="midnightblue" points="527.166,-227 537.166,-223.5 527.166,-220 527.166,-227"/>
</g>
<!-- Node9&#45;&gt;Node7 -->
<g id="edge15" class="edge"><title>Node9&#45;&gt;Node7</title>
<path fill="none" stroke="midnightblue" d="M535.238,-211.532C513.097,-206.207 487.388,-200.024 466.583,-195.02"/>
<polygon fill="midnightblue" stroke="midnightblue" points="534.589,-214.976 545.13,-213.911 536.226,-208.17 534.589,-214.976"/>
</g>
<!-- Node9&#45;&gt;Node8 -->
<g id="edge16" class="edge"><title>Node9&#45;&gt;Node8</title>
<path fill="none" stroke="midnightblue" d="M527.922,-211.654C522.716,-209.627 517.657,-207.261 513,-204.5 492.989,-192.635 496.36,-179.401 477,-166.5 471.436,-162.792 465.047,-159.668 458.736,-157.091"/>
<polygon fill="midnightblue" stroke="midnightblue" points="526.802,-214.97 537.397,-214.947 529.1,-208.358 526.802,-214.97"/>
</g>
<!-- Node10&#45;&gt;Node6 -->
<g id="edge18" class="edge"><title>Node10&#45;&gt;Node6</title>
<path fill="none" stroke="midnightblue" d="M529.272,-158.83C523.591,-160.968 518.058,-163.501 513,-166.5 492.989,-178.365 496.36,-191.599 477,-204.5 471.436,-208.208 465.047,-211.332 458.736,-213.909"/>
<polygon fill="midnightblue" stroke="midnightblue" points="530.547,-162.094 538.912,-155.592 528.318,-155.458 530.547,-162.094"/>
</g>
<!-- Node10&#45;&gt;Node7 -->
<g id="edge19" class="edge"><title>Node10&#45;&gt;Node7</title>
<path fill="none" stroke="midnightblue" d="M535.238,-159.468C513.097,-164.793 487.388,-170.976 466.583,-175.98"/>
<polygon fill="midnightblue" stroke="midnightblue" points="536.226,-162.83 545.13,-157.089 534.589,-156.024 536.226,-162.83"/>
</g>
<!-- Node10&#45;&gt;Node8 -->
<g id="edge20" class="edge"><title>Node10&#45;&gt;Node8</title>
<path fill="none" stroke="midnightblue" d="M528.617,-147.5C511.781,-147.5 493.449,-147.5 477.049,-147.5"/>
<polygon fill="midnightblue" stroke="midnightblue" points="528.875,-151 538.875,-147.5 528.875,-144 528.875,-151"/>
</g>
<!-- Node11&#45;&gt;Node5 -->
<g id="edge22" class="edge"><title>Node11&#45;&gt;Node5</title>
<path fill="none" stroke="midnightblue" d="M524.703,-198.652C520.634,-200.372 516.69,-202.312 513,-204.5 492.989,-216.365 496.36,-229.599 477,-242.5 471.436,-246.208 465.047,-249.332 458.736,-251.909"/>
<polygon fill="midnightblue" stroke="midnightblue" points="526.233,-201.816 534.366,-195.027 523.774,-195.263 526.233,-201.816"/>
</g>
<!-- Node11&#45;&gt;Node6 -->
<g id="edge23" class="edge"><title>Node11&#45;&gt;Node6</title>
<path fill="none" stroke="midnightblue" d="M535.238,-197.468C513.097,-202.793 487.388,-208.976 466.583,-213.98"/>
<polygon fill="midnightblue" stroke="midnightblue" points="536.226,-200.83 545.13,-195.089 534.589,-194.024 536.226,-200.83"/>
</g>
<!-- Node11&#45;&gt;Node7 -->
<g id="edge24" class="edge"><title>Node11&#45;&gt;Node7</title>
<path fill="none" stroke="midnightblue" d="M522.158,-185.5C505.473,-185.5 487.784,-185.5 472.242,-185.5"/>
<polygon fill="midnightblue" stroke="midnightblue" points="522.388,-189 532.388,-185.5 522.388,-182 522.388,-189"/>
</g>
<!-- Node11&#45;&gt;Node8 -->
<g id="edge25" class="edge"><title>Node11&#45;&gt;Node8</title>
<path fill="none" stroke="midnightblue" d="M535.238,-173.532C513.097,-168.207 487.388,-162.024 466.583,-157.02"/>
<polygon fill="midnightblue" stroke="midnightblue" points="534.589,-176.976 545.13,-175.911 536.226,-170.17 534.589,-176.976"/>
</g>
</g>
</svg>
