<?xml version="1.0" encoding="UTF-8" standalone="no"?>
<!DOCTYPE svg PUBLIC "-//W3C//DTD SVG 1.1//EN"
 "http://www.w3.org/Graphics/SVG/1.1/DTD/svg11.dtd">
<!-- Generated by graphviz version 2.38.0 (20140413.2041)
 -->
<!-- Title: GUIWindow_Transition::Update Pages: 1 -->
<svg width="768pt" height="303pt"
 viewBox="0.00 0.00 768.00 302.66" xmlns="http://www.w3.org/2000/svg" xmlns:xlink="http://www.w3.org/1999/xlink">
<g id="graph0" class="graph" transform="scale(1 1) rotate(0) translate(4 298.659)">
<title>GUIWindow_Transition::Update</title>
<polygon fill="white" stroke="none" points="-4,4 -4,-298.659 764,-298.659 764,4 -4,4"/>
<!-- Node1 -->
<g id="node1" class="node"><title>Node1</title>
<g id="a_node1"><a xlink:title=" ">
<polygon fill="#bfbfbf" stroke="black" points="0,-96 0,-126 115,-126 115,-96 0,-96"/>
<text text-anchor="start" x="8" y="-114" font-family="Helvetica,sans-Serif" font-size="10.00">GUIWindow_Transition</text>
<text text-anchor="middle" x="57.5" y="-103" font-family="Helvetica,sans-Serif" font-size="10.00">::Update</text>
</a>
</g>
</g>
<!-- Node2 -->
<g id="node2" class="node"><title>Node2</title>
<g id="a_node2"><a xlink:href="../../d3/d39/class_g_u_i_font.html#a08b74df638b5c055d9f18f5ce4d8ee11" target="_top" xlink:title=" ">
<polygon fill="white" stroke="black" points="157.5,-259.5 157.5,-278.5 282.5,-278.5 282.5,-259.5 157.5,-259.5"/>
<text text-anchor="middle" x="220" y="-266.5" font-family="Helvetica,sans-Serif" font-size="10.00">GUIFont::CalcTextHeight</text>
</a>
</g>
</g>
<!-- Node1&#45;&gt;Node2 -->
<g id="edge1" class="edge"><title>Node1&#45;&gt;Node2</title>
<path fill="none" stroke="midnightblue" d="M71.3927,-126.295C88.7516,-146.596 120.939,-183.23 151,-212 166.299,-226.642 184.775,-241.995 198.605,-253.073"/>
<polygon fill="midnightblue" stroke="midnightblue" points="196.537,-255.9 206.546,-259.374 200.888,-250.417 196.537,-255.9"/>
</g>
<!-- Node5 -->
<g id="node5" class="node"><title>Node5</title>
<g id="a_node5"><a xlink:href="../../d4/d38/class_g_u_i_window.html#aae805c92b9242bc94cf18c7a702433f7" target="_top" xlink:title=" ">
<polygon fill="white" stroke="black" points="154,-183.5 154,-202.5 286,-202.5 286,-183.5 154,-183.5"/>
<text text-anchor="middle" x="220" y="-190.5" font-family="Helvetica,sans-Serif" font-size="10.00">GUIWindow::DrawTitleText</text>
</a>
</g>
</g>
<!-- Node1&#45;&gt;Node5 -->
<g id="edge5" class="edge"><title>Node1&#45;&gt;Node5</title>
<path fill="none" stroke="midnightblue" d="M87.9382,-126.04C117.371,-141.078 162.296,-164.03 191.154,-178.773"/>
<polygon fill="midnightblue" stroke="midnightblue" points="189.782,-182.003 200.279,-183.436 192.967,-175.769 189.782,-182.003"/>
</g>
<!-- Node10 -->
<g id="node10" class="node"><title>Node10</title>
<g id="a_node10"><a xlink:href="../../dd/d88/class_localization.html#aa585c1180dc1a338b5822de8e413d2d6" target="_top" xlink:title=" ">
<polygon fill="white" stroke="black" points="154.5,-101.5 154.5,-120.5 285.5,-120.5 285.5,-101.5 154.5,-101.5"/>
<text text-anchor="middle" x="220" y="-108.5" font-family="Helvetica,sans-Serif" font-size="10.00">Localization::FormatString</text>
</a>
</g>
</g>
<!-- Node1&#45;&gt;Node10 -->
<g id="edge13" class="edge"><title>Node1&#45;&gt;Node10</title>
<path fill="none" stroke="midnightblue" d="M115.086,-111C124.531,-111 134.456,-111 144.27,-111"/>
<polygon fill="midnightblue" stroke="midnightblue" points="144.433,-114.5 154.433,-111 144.433,-107.5 144.433,-114.5"/>
</g>
<!-- Node18 -->
<g id="node18" class="node"><title>Node18</title>
<g id="a_node18"><a xlink:href="../../d6/d9e/struct_indoor_location.html#a43e0ab2d9d8edc279b3f17ba4888d383" target="_top" xlink:title=" ">
<polygon fill="white" stroke="black" points="151,-52 151,-82 289,-82 289,-52 151,-52"/>
<text text-anchor="start" x="159" y="-70" font-family="Helvetica,sans-Serif" font-size="10.00">IndoorLocation::GetLocation</text>
<text text-anchor="middle" x="220" y="-59" font-family="Helvetica,sans-Serif" font-size="10.00">Index</text>
</a>
</g>
</g>
<!-- Node1&#45;&gt;Node18 -->
<g id="edge21" class="edge"><title>Node1&#45;&gt;Node18</title>
<path fill="none" stroke="midnightblue" d="M113.286,-95.9808C126.513,-92.3548 140.769,-88.4466 154.398,-84.7101"/>
<polygon fill="midnightblue" stroke="midnightblue" points="155.47,-88.0456 164.189,-82.0262 153.619,-81.2947 155.47,-88.0456"/>
</g>
<!-- Node19 -->
<g id="node19" class="node"><title>Node19</title>
<g id="a_node19"><a xlink:href="../../d0/d23/struct_map_stats.html#ad630f43cd5e7e239cd8a3c363ccdd605" target="_top" xlink:title=" ">
<polygon fill="white" stroke="black" points="163,-13.5 163,-32.5 277,-32.5 277,-13.5 163,-13.5"/>
<text text-anchor="middle" x="220" y="-20.5" font-family="Helvetica,sans-Serif" font-size="10.00">MapStats::GetMapInfo</text>
</a>
</g>
</g>
<!-- Node1&#45;&gt;Node19 -->
<g id="edge22" class="edge"><title>Node1&#45;&gt;Node19</title>
<path fill="none" stroke="midnightblue" d="M74.6486,-95.9993C92.2039,-80.4364 121.69,-56.4007 151,-42 155.693,-39.6943 160.71,-37.6294 165.812,-35.7892"/>
<polygon fill="midnightblue" stroke="midnightblue" points="167.277,-38.9911 175.668,-32.5229 165.075,-32.3465 167.277,-38.9911"/>
</g>
<!-- Node3 -->
<g id="node3" class="node"><title>Node3</title>
<g id="a_node3"><a xlink:href="../../d3/d39/class_g_u_i_font.html#acff82a6ae67e879bd76ddc52aa25fe02" target="_top" xlink:title=" ">
<polygon fill="white" stroke="black" points="325,-259.5 325,-278.5 462,-278.5 462,-259.5 325,-259.5"/>
<text text-anchor="middle" x="393.5" y="-266.5" font-family="Helvetica,sans-Serif" font-size="10.00">GUIFont::FitTextInAWindow</text>
</a>
</g>
</g>
<!-- Node2&#45;&gt;Node3 -->
<g id="edge2" class="edge"><title>Node2&#45;&gt;Node3</title>
<path fill="none" stroke="midnightblue" d="M282.915,-269C293.24,-269 304.065,-269 314.725,-269"/>
<polygon fill="midnightblue" stroke="midnightblue" points="314.873,-272.5 324.873,-269 314.873,-265.5 314.873,-272.5"/>
</g>
<!-- Node4 -->
<g id="node4" class="node"><title>Node4</title>
<g id="a_node4"><a xlink:href="../../d3/d39/class_g_u_i_font.html#adfbdd225f4c0eedcbf7e82eecd29e404" target="_top" xlink:title=" ">
<polygon fill="white" stroke="black" points="652,-240.5 652,-259.5 760,-259.5 760,-240.5 652,-240.5"/>
<text text-anchor="middle" x="706" y="-247.5" font-family="Helvetica,sans-Serif" font-size="10.00">GUIFont::IsCharValid</text>
</a>
</g>
</g>
<!-- Node2&#45;&gt;Node4 -->
<g id="edge4" class="edge"><title>Node2&#45;&gt;Node4</title>
<path fill="none" stroke="midnightblue" d="M263.266,-278.511C282.062,-282.277 304.527,-286.145 325,-288 453.977,-299.685 488.473,-295.547 616,-273 631.578,-270.246 648.436,-266.176 663.247,-262.223"/>
<polygon fill="midnightblue" stroke="midnightblue" points="664.408,-265.534 673.133,-259.522 662.564,-258.781 664.408,-265.534"/>
</g>
<!-- Node3&#45;&gt;Node4 -->
<g id="edge3" class="edge"><title>Node3&#45;&gt;Node4</title>
<path fill="none" stroke="midnightblue" d="M462.257,-264.854C515.622,-261.588 589.464,-257.07 641.655,-253.876"/>
<polygon fill="midnightblue" stroke="midnightblue" points="642.025,-257.36 651.792,-253.256 641.597,-250.373 642.025,-257.36"/>
</g>
<!-- Node5&#45;&gt;Node3 -->
<g id="edge11" class="edge"><title>Node5&#45;&gt;Node3</title>
<path fill="none" stroke="midnightblue" d="M238.724,-202.695C259.177,-213.686 293.984,-231.79 325,-245 334.172,-248.906 344.218,-252.719 353.691,-256.115"/>
<polygon fill="midnightblue" stroke="midnightblue" points="352.701,-259.476 363.296,-259.488 355.021,-252.872 352.701,-259.476"/>
</g>
<!-- Node6 -->
<g id="node6" class="node"><title>Node6</title>
<g id="a_node6"><a xlink:href="../../d3/d39/class_g_u_i_font.html#a9fa3825419fdf34ded3536e27bccbfdf" target="_top" xlink:title=" ">
<polygon fill="white" stroke="black" points="344,-134 344,-164 443,-164 443,-134 344,-134"/>
<text text-anchor="start" x="352" y="-152" font-family="Helvetica,sans-Serif" font-size="10.00">GUIFont::AlignText</text>
<text text-anchor="middle" x="393.5" y="-141" font-family="Helvetica,sans-Serif" font-size="10.00">_Center</text>
</a>
</g>
</g>
<!-- Node5&#45;&gt;Node6 -->
<g id="edge6" class="edge"><title>Node5&#45;&gt;Node6</title>
<path fill="none" stroke="midnightblue" d="M258.213,-183.453C280.39,-177.763 309.026,-170.416 334.154,-163.969"/>
<polygon fill="midnightblue" stroke="midnightblue" points="335.135,-167.331 343.951,-161.456 333.395,-160.551 335.135,-167.331"/>
</g>
<!-- Node8 -->
<g id="node8" class="node"><title>Node8</title>
<g id="a_node8"><a xlink:href="../../d3/d39/class_g_u_i_font.html#af8449e36ee49ae96e21f4406b398a010" target="_top" xlink:title=" ">
<polygon fill="white" stroke="black" points="498.5,-221.5 498.5,-240.5 615.5,-240.5 615.5,-221.5 498.5,-221.5"/>
<text text-anchor="middle" x="557" y="-228.5" font-family="Helvetica,sans-Serif" font-size="10.00">GUIFont::DrawTextLine</text>
</a>
</g>
</g>
<!-- Node5&#45;&gt;Node8 -->
<g id="edge9" class="edge"><title>Node5&#45;&gt;Node8</title>
<path fill="none" stroke="midnightblue" d="M267.698,-202.545C285.563,-205.929 306.167,-209.511 325,-212 379.705,-219.229 442.084,-224.165 488.22,-227.19"/>
<polygon fill="midnightblue" stroke="midnightblue" points="488.195,-230.696 498.399,-227.844 488.644,-223.71 488.195,-230.696"/>
</g>
<!-- Node9 -->
<g id="node9" class="node"><title>Node9</title>
<g id="a_node9"><a xlink:href="../../d3/d39/class_g_u_i_font.html#a439cccf73db5fd93ffc18cbba51d07e0" target="_top" xlink:title=" ">
<polygon fill="white" stroke="black" points="342.5,-183.5 342.5,-202.5 444.5,-202.5 444.5,-183.5 342.5,-183.5"/>
<text text-anchor="middle" x="393.5" y="-190.5" font-family="Helvetica,sans-Serif" font-size="10.00">GUIFont::GetHeight</text>
</a>
</g>
</g>
<!-- Node5&#45;&gt;Node9 -->
<g id="edge12" class="edge"><title>Node5&#45;&gt;Node9</title>
<path fill="none" stroke="midnightblue" d="M286.326,-193C301.401,-193 317.369,-193 332.218,-193"/>
<polygon fill="midnightblue" stroke="midnightblue" points="332.293,-196.5 342.293,-193 332.293,-189.5 332.293,-196.5"/>
</g>
<!-- Node7 -->
<g id="node7" class="node"><title>Node7</title>
<g id="a_node7"><a xlink:href="../../d3/d39/class_g_u_i_font.html#abf5dc44bc1b328f80d5c7033279a4f8d" target="_top" xlink:title=" ">
<polygon fill="white" stroke="black" points="498,-168.5 498,-187.5 616,-187.5 616,-168.5 498,-168.5"/>
<text text-anchor="middle" x="557" y="-175.5" font-family="Helvetica,sans-Serif" font-size="10.00">GUIFont::GetLineWidth</text>
</a>
</g>
</g>
<!-- Node6&#45;&gt;Node7 -->
<g id="edge7" class="edge"><title>Node6&#45;&gt;Node7</title>
<path fill="none" stroke="midnightblue" d="M443.394,-157.78C459.001,-160.582 476.499,-163.724 492.963,-166.681"/>
<polygon fill="midnightblue" stroke="midnightblue" points="492.594,-170.17 503.055,-168.493 493.831,-163.28 492.594,-170.17"/>
</g>
<!-- Node7&#45;&gt;Node4 -->
<g id="edge8" class="edge"><title>Node7&#45;&gt;Node4</title>
<path fill="none" stroke="midnightblue" d="M577.52,-187.561C602.781,-199.933 646.999,-221.591 676.142,-235.866"/>
<polygon fill="midnightblue" stroke="midnightblue" points="674.879,-239.144 685.399,-240.399 677.958,-232.857 674.879,-239.144"/>
</g>
<!-- Node8&#45;&gt;Node4 -->
<g id="edge10" class="edge"><title>Node8&#45;&gt;Node4</title>
<path fill="none" stroke="midnightblue" d="M615.676,-238.455C624.233,-239.561 633.089,-240.705 641.752,-241.825"/>
<polygon fill="midnightblue" stroke="midnightblue" points="641.437,-245.313 651.803,-243.124 642.334,-238.371 641.437,-245.313"/>
</g>
<!-- Node11 -->
<g id="node11" class="node"><title>Node11</title>
<g id="a_node11"><a xlink:href="../../dd/d88/class_localization.html#a0eb0a17fdf90f6a420eeac65bf62436f" target="_top" xlink:title=" ">
<polygon fill="white" stroke="black" points="335.5,-95.5 335.5,-114.5 451.5,-114.5 451.5,-95.5 335.5,-95.5"/>
<text text-anchor="middle" x="393.5" y="-102.5" font-family="Helvetica,sans-Serif" font-size="10.00">Localization::GetString</text>
</a>
</g>
</g>
<!-- Node10&#45;&gt;Node11 -->
<g id="edge14" class="edge"><title>Node10&#45;&gt;Node11</title>
<path fill="none" stroke="midnightblue" d="M285.837,-108.732C298.71,-108.281 312.254,-107.807 325.207,-107.354"/>
<polygon fill="midnightblue" stroke="midnightblue" points="325.574,-110.844 335.445,-106.996 325.329,-103.848 325.574,-110.844"/>
</g>
<!-- Node12 -->
<g id="node12" class="node"><title>Node12</title>
<g id="a_node12"><a xlink:href="../../d6/db8/mm7text__ru_8cpp.html#a53baf8844fdc6c4b8a7211d481c03a34" target="_top" xlink:title=" ">
<polygon fill="white" stroke="black" points="348.5,-57.5 348.5,-76.5 438.5,-76.5 438.5,-57.5 348.5,-57.5"/>
<text text-anchor="middle" x="393.5" y="-64.5" font-family="Helvetica,sans-Serif" font-size="10.00">sprintfex_internal</text>
</a>
</g>
</g>
<!-- Node10&#45;&gt;Node12 -->
<g id="edge15" class="edge"><title>Node10&#45;&gt;Node12</title>
<path fill="none" stroke="midnightblue" d="M258.213,-101.453C283.833,-94.8796 318.072,-86.0952 345.565,-79.0417"/>
<polygon fill="midnightblue" stroke="midnightblue" points="346.543,-82.4041 355.36,-76.5287 344.804,-75.6237 346.543,-82.4041"/>
</g>
<!-- Node13 -->
<g id="node13" class="node"><title>Node13</title>
<g id="a_node13"><a xlink:href="../../d6/db8/mm7text__ru_8cpp.html#a3b1651c73512b95aad130c9090a7cd3c" target="_top" xlink:title=" ">
<polygon fill="white" stroke="black" points="525,-114.5 525,-133.5 589,-133.5 589,-114.5 525,-114.5"/>
<text text-anchor="middle" x="557" y="-121.5" font-family="Helvetica,sans-Serif" font-size="10.00">GetGender</text>
</a>
</g>
</g>
<!-- Node12&#45;&gt;Node13 -->
<g id="edge16" class="edge"><title>Node12&#45;&gt;Node13</title>
<path fill="none" stroke="midnightblue" d="M433.874,-76.5725C443.221,-79.2576 453.069,-82.4326 462,-86 478.801,-92.7106 481.344,-97.9365 498,-105 503.499,-107.332 509.389,-109.559 515.231,-111.613"/>
<polygon fill="midnightblue" stroke="midnightblue" points="514.345,-115.008 524.94,-114.895 516.588,-108.377 514.345,-115.008"/>
</g>
<!-- Node15 -->
<g id="node15" class="node"><title>Node15</title>
<g id="a_node15"><a xlink:href="../../d6/db8/mm7text__ru_8cpp.html#aa84f8d3f36800bc6ca518198a70797d3" target="_top" xlink:title=" ">
<polygon fill="white" stroke="black" points="513.5,-76.5 513.5,-95.5 600.5,-95.5 600.5,-76.5 513.5,-76.5"/>
<text text-anchor="middle" x="557" y="-83.5" font-family="Helvetica,sans-Serif" font-size="10.00">GetSpecialCase</text>
</a>
</g>
</g>
<!-- Node12&#45;&gt;Node15 -->
<g id="edge18" class="edge"><title>Node12&#45;&gt;Node15</title>
<path fill="none" stroke="midnightblue" d="M438.631,-72.1918C458.615,-74.543 482.396,-77.3407 503.31,-79.8012"/>
<polygon fill="midnightblue" stroke="midnightblue" points="502.976,-83.286 513.317,-80.9785 503.794,-76.3339 502.976,-83.286"/>
</g>
<!-- Node16 -->
<g id="node16" class="node"><title>Node16</title>
<g id="a_node16"><a xlink:href="../../d6/db8/mm7text__ru_8cpp.html#a60e152118d795d22912d38e37a55dec9" target="_top" xlink:title=" ">
<polygon fill="white" stroke="black" points="509,-38.5 509,-57.5 605,-57.5 605,-38.5 509,-38.5"/>
<text text-anchor="middle" x="557" y="-45.5" font-family="Helvetica,sans-Serif" font-size="10.00">GetSpecialGender</text>
</a>
</g>
</g>
<!-- Node12&#45;&gt;Node16 -->
<g id="edge19" class="edge"><title>Node12&#45;&gt;Node16</title>
<path fill="none" stroke="midnightblue" d="M438.631,-61.8082C457.161,-59.6281 478.956,-57.064 498.702,-54.741"/>
<polygon fill="midnightblue" stroke="midnightblue" points="499.29,-58.196 508.813,-53.5515 498.472,-51.2439 499.29,-58.196"/>
</g>
<!-- Node17 -->
<g id="node17" class="node"><title>Node17</title>
<g id="a_node17"><a xlink:href="../../d6/db8/mm7text__ru_8cpp.html#a20fd879e0dfe9f113a87a611f353a725" target="_top" xlink:title=" ">
<polygon fill="white" stroke="black" points="516,-0.5 516,-19.5 598,-19.5 598,-0.5 516,-0.5"/>
<text text-anchor="middle" x="557" y="-7.5" font-family="Helvetica,sans-Serif" font-size="10.00">IsSpecialName</text>
</a>
</g>
</g>
<!-- Node12&#45;&gt;Node17 -->
<g id="edge20" class="edge"><title>Node12&#45;&gt;Node17</title>
<path fill="none" stroke="midnightblue" d="M420.191,-57.4495C445.797,-47.9522 483.353,-34.086 498,-29 503.978,-26.9243 510.323,-24.7831 516.538,-22.7198"/>
<polygon fill="midnightblue" stroke="midnightblue" points="517.724,-26.0143 526.128,-19.5625 515.535,-19.3654 517.724,-26.0143"/>
</g>
<!-- Node14 -->
<g id="node14" class="node"><title>Node14</title>
<g id="a_node14"><a xlink:href="../../d6/d70/class_log.html#ac0de2621497ca3b2fbf208624c08bcdf" target="_top" xlink:title=" ">
<polygon fill="white" stroke="black" points="669,-114.5 669,-133.5 743,-133.5 743,-114.5 669,-114.5"/>
<text text-anchor="middle" x="706" y="-121.5" font-family="Helvetica,sans-Serif" font-size="10.00">Log::Warning</text>
</a>
</g>
</g>
<!-- Node13&#45;&gt;Node14 -->
<g id="edge17" class="edge"><title>Node13&#45;&gt;Node14</title>
<path fill="none" stroke="midnightblue" d="M589.175,-124C609.42,-124 636.163,-124 658.851,-124"/>
<polygon fill="midnightblue" stroke="midnightblue" points="658.952,-127.5 668.952,-124 658.952,-120.5 658.952,-127.5"/>
</g>
<!-- Node20 -->
<g id="node20" class="node"><title>Node20</title>
<g id="a_node20"><a xlink:href="../../d8/d44/_strings_8cpp.html#ae591bae1416df2b3638ae859ad4ede6f" target="_top" xlink:title=" ">
<polygon fill="white" stroke="black" points="360.5,-13.5 360.5,-32.5 426.5,-32.5 426.5,-13.5 360.5,-13.5"/>
<text text-anchor="middle" x="393.5" y="-20.5" font-family="Helvetica,sans-Serif" font-size="10.00">MakeLower</text>
</a>
</g>
</g>
<!-- Node19&#45;&gt;Node20 -->
<g id="edge23" class="edge"><title>Node19&#45;&gt;Node20</title>
<path fill="none" stroke="midnightblue" d="M277.156,-23C300.937,-23 328.181,-23 350.217,-23"/>
<polygon fill="midnightblue" stroke="midnightblue" points="350.261,-26.5001 360.261,-23 350.261,-19.5001 350.261,-26.5001"/>
</g>
</g>
</svg>
