<?xml version="1.0" encoding="UTF-8" standalone="no"?>
<!DOCTYPE svg PUBLIC "-//W3C//DTD SVG 1.1//EN"
 "http://www.w3.org/Graphics/SVG/1.1/DTD/svg11.dtd">
<!-- Generated by graphviz version 2.38.0 (20140413.2041)
 -->
<!-- Title: GUIWindow_Transition::GUIWindow_Transition Pages: 1 -->
<svg width="710pt" height="355pt"
 viewBox="0.00 0.00 710.00 355.00" xmlns="http://www.w3.org/2000/svg" xmlns:xlink="http://www.w3.org/1999/xlink">
<g id="graph0" class="graph" transform="scale(1 1) rotate(0) translate(4 351)">
<title>GUIWindow_Transition::GUIWindow_Transition</title>
<polygon fill="white" stroke="none" points="-4,4 -4,-351 706,-351 706,4 -4,4"/>
<!-- Node1 -->
<g id="node1" class="node"><title>Node1</title>
<g id="a_node1"><a xlink:title=" ">
<polygon fill="#bfbfbf" stroke="black" points="0,-153 0,-183 121,-183 121,-153 0,-153"/>
<text text-anchor="start" x="8" y="-171" font-family="Helvetica,sans-Serif" font-size="10.00">GUIWindow_Transition</text>
<text text-anchor="middle" x="60.5" y="-160" font-family="Helvetica,sans-Serif" font-size="10.00">::GUIWindow_Transition</text>
</a>
</g>
</g>
<!-- Node2 -->
<g id="node2" class="node"><title>Node2</title>
<g id="a_node2"><a xlink:href="../../d4/d38/class_g_u_i_window.html#a29f96468b54f142995e3b1890cb7e45e" target="_top" xlink:title=" ">
<polygon fill="white" stroke="black" points="160.5,-327.5 160.5,-346.5 291.5,-346.5 291.5,-327.5 160.5,-327.5"/>
<text text-anchor="middle" x="226" y="-334.5" font-family="Helvetica,sans-Serif" font-size="10.00">GUIWindow::CreateButton</text>
</a>
</g>
</g>
<!-- Node1&#45;&gt;Node2 -->
<g id="edge1" class="edge"><title>Node1&#45;&gt;Node2</title>
<path fill="none" stroke="midnightblue" d="M67.4866,-183.055C79.8466,-212.277 110.941,-276.969 157,-313 162.366,-317.198 168.524,-320.696 174.894,-323.601"/>
<polygon fill="midnightblue" stroke="midnightblue" points="173.731,-326.907 184.312,-327.447 176.377,-320.426 173.731,-326.907"/>
</g>
<!-- Node3 -->
<g id="node3" class="node"><title>Node3</title>
<g id="a_node3"><a xlink:href="../../dd/d88/class_localization.html#aa585c1180dc1a338b5822de8e413d2d6" target="_top" xlink:title=" ">
<polygon fill="white" stroke="black" points="160.5,-251.5 160.5,-270.5 291.5,-270.5 291.5,-251.5 160.5,-251.5"/>
<text text-anchor="middle" x="226" y="-258.5" font-family="Helvetica,sans-Serif" font-size="10.00">Localization::FormatString</text>
</a>
</g>
</g>
<!-- Node1&#45;&gt;Node3 -->
<g id="edge2" class="edge"><title>Node1&#45;&gt;Node3</title>
<path fill="none" stroke="midnightblue" d="M77.4811,-183.211C95.4944,-199.602 126.29,-225.425 157,-241 162.273,-243.674 167.962,-246.049 173.725,-248.143"/>
<polygon fill="midnightblue" stroke="midnightblue" points="172.84,-251.538 183.434,-251.404 175.069,-244.902 172.84,-251.538"/>
</g>
<!-- Node4 -->
<g id="node4" class="node"><title>Node4</title>
<g id="a_node4"><a xlink:href="../../dd/d88/class_localization.html#a0eb0a17fdf90f6a420eeac65bf62436f" target="_top" xlink:title=" ">
<polygon fill="white" stroke="black" points="337.5,-289.5 337.5,-308.5 453.5,-308.5 453.5,-289.5 337.5,-289.5"/>
<text text-anchor="middle" x="395.5" y="-296.5" font-family="Helvetica,sans-Serif" font-size="10.00">Localization::GetString</text>
</a>
</g>
</g>
<!-- Node1&#45;&gt;Node4 -->
<g id="edge14" class="edge"><title>Node1&#45;&gt;Node4</title>
<path fill="none" stroke="midnightblue" d="M69.2992,-183.286C83.1035,-208.52 114.446,-258.261 157,-280 209.727,-306.935 277.741,-309.69 327.463,-306.883"/>
<polygon fill="midnightblue" stroke="midnightblue" points="327.717,-310.374 337.468,-306.23 327.261,-303.389 327.717,-310.374"/>
</g>
<!-- Node11 -->
<g id="node11" class="node"><title>Node11</title>
<g id="a_node11"><a xlink:href="../../db/dd6/class_assets_manager.html#aa6b54bf3eebb770dc30767d13c436ce0" target="_top" xlink:title=" ">
<polygon fill="white" stroke="black" points="159.5,-202 159.5,-232 292.5,-232 292.5,-202 159.5,-202"/>
<text text-anchor="start" x="167.5" y="-220" font-family="Helvetica,sans-Serif" font-size="10.00">AssetsManager::GetImage</text>
<text text-anchor="middle" x="226" y="-209" font-family="Helvetica,sans-Serif" font-size="10.00">_Solid</text>
</a>
</g>
</g>
<!-- Node1&#45;&gt;Node11 -->
<g id="edge10" class="edge"><title>Node1&#45;&gt;Node11</title>
<path fill="none" stroke="midnightblue" d="M111.889,-183.101C128.596,-188.108 147.362,-193.732 164.735,-198.939"/>
<polygon fill="midnightblue" stroke="midnightblue" points="164.193,-202.43 174.777,-201.948 166.203,-195.725 164.193,-202.43"/>
</g>
<!-- Node12 -->
<g id="node12" class="node"><title>Node12</title>
<g id="a_node12"><a xlink:href="../../d6/d9e/struct_indoor_location.html#a43e0ab2d9d8edc279b3f17ba4888d383" target="_top" xlink:title=" ">
<polygon fill="white" stroke="black" points="157,-153 157,-183 295,-183 295,-153 157,-153"/>
<text text-anchor="start" x="165" y="-171" font-family="Helvetica,sans-Serif" font-size="10.00">IndoorLocation::GetLocation</text>
<text text-anchor="middle" x="226" y="-160" font-family="Helvetica,sans-Serif" font-size="10.00">Index</text>
</a>
</g>
</g>
<!-- Node1&#45;&gt;Node12 -->
<g id="edge11" class="edge"><title>Node1&#45;&gt;Node12</title>
<path fill="none" stroke="midnightblue" d="M121.453,-168C129.617,-168 138.094,-168 146.524,-168"/>
<polygon fill="midnightblue" stroke="midnightblue" points="146.76,-171.5 156.76,-168 146.76,-164.5 146.76,-171.5"/>
</g>
<!-- Node13 -->
<g id="node13" class="node"><title>Node13</title>
<g id="a_node13"><a xlink:href="../../d0/d23/struct_map_stats.html#ad630f43cd5e7e239cd8a3c363ccdd605" target="_top" xlink:title=" ">
<polygon fill="white" stroke="black" points="169,-114.5 169,-133.5 283,-133.5 283,-114.5 169,-114.5"/>
<text text-anchor="middle" x="226" y="-121.5" font-family="Helvetica,sans-Serif" font-size="10.00">MapStats::GetMapInfo</text>
</a>
</g>
</g>
<!-- Node1&#45;&gt;Node13 -->
<g id="edge12" class="edge"><title>Node1&#45;&gt;Node13</title>
<path fill="none" stroke="midnightblue" d="M117.31,-152.981C137.635,-147.511 160.346,-141.399 179.653,-136.204"/>
<polygon fill="midnightblue" stroke="midnightblue" points="180.661,-139.557 189.408,-133.578 178.842,-132.797 180.661,-139.557"/>
</g>
<!-- Node15 -->
<g id="node15" class="node"><title>Node15</title>
<g id="a_node15"><a xlink:href="../../d0/db7/class_m_player.html#a72ca6e9e44d537123cc4faca5c4db72c" target="_top" xlink:title=" ">
<polygon fill="white" stroke="black" points="159,-76.5 159,-95.5 293,-95.5 293,-76.5 159,-76.5"/>
<text text-anchor="middle" x="226" y="-83.5" font-family="Helvetica,sans-Serif" font-size="10.00">MPlayer::OpenHouseMovie</text>
</a>
</g>
</g>
<!-- Node1&#45;&gt;Node15 -->
<g id="edge15" class="edge"><title>Node1&#45;&gt;Node15</title>
<path fill="none" stroke="midnightblue" d="M80.5701,-152.826C99.1358,-138.702 128.626,-117.938 157,-105 162.089,-102.68 167.523,-100.583 173.019,-98.7039"/>
<polygon fill="midnightblue" stroke="midnightblue" points="174.448,-101.922 182.916,-95.5551 172.325,-95.2518 174.448,-101.922"/>
</g>
<!-- Node20 -->
<g id="node20" class="node"><title>Node20</title>
<g id="a_node20"><a xlink:href="../../d8/da1/struct_timer.html#a9b8c57bf9675da635a82d68d9b4d05e5" target="_top" xlink:title=" ">
<polygon fill="white" stroke="black" points="358.5,-19.5 358.5,-38.5 432.5,-38.5 432.5,-19.5 358.5,-19.5"/>
<text text-anchor="middle" x="395.5" y="-26.5" font-family="Helvetica,sans-Serif" font-size="10.00">Timer::Pause</text>
</a>
</g>
</g>
<!-- Node1&#45;&gt;Node20 -->
<g id="edge22" class="edge"><title>Node1&#45;&gt;Node20</title>
<path fill="none" stroke="midnightblue" d="M71.0912,-152.704C86.2801,-129.909 118.166,-87.5156 157,-67 217.667,-34.9507 298.298,-28.3881 348.273,-27.7984"/>
<polygon fill="midnightblue" stroke="midnightblue" points="348.468,-31.2977 358.453,-27.7562 348.439,-24.2977 348.468,-31.2977"/>
</g>
<!-- Node22 -->
<g id="node22" class="node"><title>Node22</title>
<g id="a_node22"><a xlink:href="../../d7/dc2/class_audio_player.html#a222380497b8558ff7d16fa71f8680a46" target="_top" xlink:title=" ">
<polygon fill="white" stroke="black" points="158,-0.5 158,-19.5 294,-19.5 294,-0.5 158,-0.5"/>
<text text-anchor="middle" x="226" y="-7.5" font-family="Helvetica,sans-Serif" font-size="10.00">AudioPlayer::StopChannels</text>
</a>
</g>
</g>
<!-- Node1&#45;&gt;Node22 -->
<g id="edge23" class="edge"><title>Node1&#45;&gt;Node22</title>
<path fill="none" stroke="midnightblue" d="M68.4137,-152.819C81.7052,-125.26 113.413,-66.8233 157,-34 162.577,-29.8003 168.951,-26.2914 175.51,-23.3716"/>
<polygon fill="midnightblue" stroke="midnightblue" points="177.196,-26.4669 185.181,-19.5036 174.597,-19.9675 177.196,-26.4669"/>
</g>
<!-- Node3&#45;&gt;Node4 -->
<g id="edge3" class="edge"><title>Node3&#45;&gt;Node4</title>
<path fill="none" stroke="midnightblue" d="M269.267,-270.589C291.57,-275.649 319.123,-281.9 342.702,-287.249"/>
<polygon fill="midnightblue" stroke="midnightblue" points="342.01,-290.681 352.537,-289.48 343.559,-283.854 342.01,-290.681"/>
</g>
<!-- Node5 -->
<g id="node5" class="node"><title>Node5</title>
<g id="a_node5"><a xlink:href="../../d6/db8/mm7text__ru_8cpp.html#a53baf8844fdc6c4b8a7211d481c03a34" target="_top" xlink:title=" ">
<polygon fill="white" stroke="black" points="350.5,-251.5 350.5,-270.5 440.5,-270.5 440.5,-251.5 350.5,-251.5"/>
<text text-anchor="middle" x="395.5" y="-258.5" font-family="Helvetica,sans-Serif" font-size="10.00">sprintfex_internal</text>
</a>
</g>
</g>
<!-- Node3&#45;&gt;Node5 -->
<g id="edge4" class="edge"><title>Node3&#45;&gt;Node5</title>
<path fill="none" stroke="midnightblue" d="M291.76,-261C307.692,-261 324.592,-261 339.985,-261"/>
<polygon fill="midnightblue" stroke="midnightblue" points="340.371,-264.5 350.371,-261 340.371,-257.5 340.371,-264.5"/>
</g>
<!-- Node6 -->
<g id="node6" class="node"><title>Node6</title>
<g id="a_node6"><a xlink:href="../../d6/db8/mm7text__ru_8cpp.html#a3b1651c73512b95aad130c9090a7cd3c" target="_top" xlink:title=" ">
<polygon fill="white" stroke="black" points="512,-308.5 512,-327.5 576,-327.5 576,-308.5 512,-308.5"/>
<text text-anchor="middle" x="544" y="-315.5" font-family="Helvetica,sans-Serif" font-size="10.00">GetGender</text>
</a>
</g>
</g>
<!-- Node5&#45;&gt;Node6 -->
<g id="edge5" class="edge"><title>Node5&#45;&gt;Node6</title>
<path fill="none" stroke="midnightblue" d="M432.857,-270.551C441.848,-273.274 451.373,-276.472 460,-280 476.746,-286.848 479.592,-291.378 496,-299 500.061,-300.886 504.364,-302.774 508.652,-304.586"/>
<polygon fill="midnightblue" stroke="midnightblue" points="507.339,-307.831 517.918,-308.408 510.008,-301.359 507.339,-307.831"/>
</g>
<!-- Node8 -->
<g id="node8" class="node"><title>Node8</title>
<g id="a_node8"><a xlink:href="../../d6/db8/mm7text__ru_8cpp.html#aa84f8d3f36800bc6ca518198a70797d3" target="_top" xlink:title=" ">
<polygon fill="white" stroke="black" points="500.5,-270.5 500.5,-289.5 587.5,-289.5 587.5,-270.5 500.5,-270.5"/>
<text text-anchor="middle" x="544" y="-277.5" font-family="Helvetica,sans-Serif" font-size="10.00">GetSpecialCase</text>
</a>
</g>
</g>
<!-- Node5&#45;&gt;Node8 -->
<g id="edge7" class="edge"><title>Node5&#45;&gt;Node8</title>
<path fill="none" stroke="midnightblue" d="M440.852,-266.752C456.327,-268.759 473.851,-271.032 489.96,-273.121"/>
<polygon fill="midnightblue" stroke="midnightblue" points="489.939,-276.648 500.306,-274.463 490.839,-269.706 489.939,-276.648"/>
</g>
<!-- Node9 -->
<g id="node9" class="node"><title>Node9</title>
<g id="a_node9"><a xlink:href="../../d6/db8/mm7text__ru_8cpp.html#a60e152118d795d22912d38e37a55dec9" target="_top" xlink:title=" ">
<polygon fill="white" stroke="black" points="496,-232.5 496,-251.5 592,-251.5 592,-232.5 496,-232.5"/>
<text text-anchor="middle" x="544" y="-239.5" font-family="Helvetica,sans-Serif" font-size="10.00">GetSpecialGender</text>
</a>
</g>
</g>
<!-- Node5&#45;&gt;Node9 -->
<g id="edge8" class="edge"><title>Node5&#45;&gt;Node9</title>
<path fill="none" stroke="midnightblue" d="M440.852,-255.248C454.948,-253.42 470.744,-251.371 485.622,-249.441"/>
<polygon fill="midnightblue" stroke="midnightblue" points="486.277,-252.886 495.744,-248.129 485.377,-245.944 486.277,-252.886"/>
</g>
<!-- Node10 -->
<g id="node10" class="node"><title>Node10</title>
<g id="a_node10"><a xlink:href="../../d6/db8/mm7text__ru_8cpp.html#a20fd879e0dfe9f113a87a611f353a725" target="_top" xlink:title=" ">
<polygon fill="white" stroke="black" points="503,-194.5 503,-213.5 585,-213.5 585,-194.5 503,-194.5"/>
<text text-anchor="middle" x="544" y="-201.5" font-family="Helvetica,sans-Serif" font-size="10.00">IsSpecialName</text>
</a>
</g>
</g>
<!-- Node5&#45;&gt;Node10 -->
<g id="edge9" class="edge"><title>Node5&#45;&gt;Node10</title>
<path fill="none" stroke="midnightblue" d="M421.021,-251.459C445.106,-242.088 482.055,-227.712 508.977,-217.238"/>
<polygon fill="midnightblue" stroke="midnightblue" points="510.349,-220.46 518.399,-213.572 507.811,-213.936 510.349,-220.46"/>
</g>
<!-- Node7 -->
<g id="node7" class="node"><title>Node7</title>
<g id="a_node7"><a xlink:href="../../d6/d70/class_log.html#ac0de2621497ca3b2fbf208624c08bcdf" target="_top" xlink:title=" ">
<polygon fill="white" stroke="black" points="628,-308.5 628,-327.5 702,-327.5 702,-308.5 628,-308.5"/>
<text text-anchor="middle" x="665" y="-315.5" font-family="Helvetica,sans-Serif" font-size="10.00">Log::Warning</text>
</a>
</g>
</g>
<!-- Node6&#45;&gt;Node7 -->
<g id="edge6" class="edge"><title>Node6&#45;&gt;Node7</title>
<path fill="none" stroke="midnightblue" d="M576.266,-318C588.887,-318 603.715,-318 617.552,-318"/>
<polygon fill="midnightblue" stroke="midnightblue" points="617.887,-321.5 627.887,-318 617.887,-314.5 617.887,-321.5"/>
</g>
<!-- Node14 -->
<g id="node14" class="node"><title>Node14</title>
<g id="a_node14"><a xlink:href="../../d8/d44/_strings_8cpp.html#ae591bae1416df2b3638ae859ad4ede6f" target="_top" xlink:title=" ">
<polygon fill="white" stroke="black" points="362.5,-171.5 362.5,-190.5 428.5,-190.5 428.5,-171.5 362.5,-171.5"/>
<text text-anchor="middle" x="395.5" y="-178.5" font-family="Helvetica,sans-Serif" font-size="10.00">MakeLower</text>
</a>
</g>
</g>
<!-- Node13&#45;&gt;Node14 -->
<g id="edge13" class="edge"><title>Node13&#45;&gt;Node14</title>
<path fill="none" stroke="midnightblue" d="M266.668,-133.55C276.084,-136.236 286.004,-139.417 295,-143 311.808,-149.694 314.254,-155.152 331,-162 337.883,-164.815 345.338,-167.419 352.637,-169.74"/>
<polygon fill="midnightblue" stroke="midnightblue" points="351.839,-173.156 362.425,-172.722 353.879,-166.46 351.839,-173.156"/>
</g>
<!-- Node16 -->
<g id="node16" class="node"><title>Node16</title>
<g id="a_node16"><a xlink:href="../../d0/db7/class_m_player.html#af036106f96bbf78ce24b3f8b575423c3" target="_top" xlink:title=" ">
<polygon fill="white" stroke="black" points="334,-133.5 334,-152.5 457,-152.5 457,-133.5 334,-133.5"/>
<text text-anchor="middle" x="395.5" y="-140.5" font-family="Helvetica,sans-Serif" font-size="10.00">MPlayer::IsMoviePlaying</text>
</a>
</g>
</g>
<!-- Node15&#45;&gt;Node16 -->
<g id="edge16" class="edge"><title>Node15&#45;&gt;Node16</title>
<path fill="none" stroke="midnightblue" d="M266.668,-95.5498C276.084,-98.2357 286.004,-101.417 295,-105 311.808,-111.694 314.254,-117.152 331,-124 336.527,-126.26 342.422,-128.385 348.31,-130.336"/>
<polygon fill="midnightblue" stroke="midnightblue" points="347.553,-133.767 358.143,-133.449 349.666,-127.094 347.553,-133.767"/>
</g>
<!-- Node17 -->
<g id="node17" class="node"><title>Node17</title>
<g id="a_node17"><a xlink:href="../../d0/db7/class_m_player.html#a8b5309dbae4ad8e6db5fdbd6996963e2" target="_top" xlink:title=" ">
<polygon fill="white" stroke="black" points="343.5,-95.5 343.5,-114.5 447.5,-114.5 447.5,-95.5 343.5,-95.5"/>
<text text-anchor="middle" x="395.5" y="-102.5" font-family="Helvetica,sans-Serif" font-size="10.00">MPlayer::LoadMovie</text>
</a>
</g>
</g>
<!-- Node15&#45;&gt;Node17 -->
<g id="edge17" class="edge"><title>Node15&#45;&gt;Node17</title>
<path fill="none" stroke="midnightblue" d="M293.2,-93.5093C306.333,-94.9989 320.067,-96.5569 333.034,-98.0277"/>
<polygon fill="midnightblue" stroke="midnightblue" points="332.911,-101.536 343.242,-99.1856 333.7,-94.5807 332.911,-101.536"/>
</g>
<!-- Node19 -->
<g id="node19" class="node"><title>Node19</title>
<g id="a_node19"><a xlink:href="../../d7/dc2/class_audio_player.html#abd1a4b5a18c77c5ca2343b863a5a2883" target="_top" xlink:title=" ">
<polygon fill="white" stroke="black" points="331,-57.5 331,-76.5 460,-76.5 460,-57.5 331,-57.5"/>
<text text-anchor="middle" x="395.5" y="-64.5" font-family="Helvetica,sans-Serif" font-size="10.00">AudioPlayer::MusicPause</text>
</a>
</g>
</g>
<!-- Node15&#45;&gt;Node19 -->
<g id="edge19" class="edge"><title>Node15&#45;&gt;Node19</title>
<path fill="none" stroke="midnightblue" d="M293.2,-78.4907C302.333,-77.4547 311.758,-76.3857 321.013,-75.3359"/>
<polygon fill="midnightblue" stroke="midnightblue" points="321.425,-78.8117 330.966,-74.2068 320.636,-71.8563 321.425,-78.8117"/>
</g>
<!-- Node15&#45;&gt;Node20 -->
<g id="edge20" class="edge"><title>Node15&#45;&gt;Node20</title>
<path fill="none" stroke="midnightblue" d="M254.863,-76.3891C267.194,-72.0781 281.853,-66.875 295,-62 311.096,-56.0313 314.764,-53.5761 331,-48 337.435,-45.7901 344.284,-43.5875 351.014,-41.5067"/>
<polygon fill="midnightblue" stroke="midnightblue" points="352.173,-44.8125 360.725,-38.5586 350.14,-38.1144 352.173,-44.8125"/>
</g>
<!-- Node18 -->
<g id="node18" class="node"><title>Node18</title>
<g id="a_node18"><a xlink:href="../../d3/dfa/class_video_list.html#afc47f9160e5590a7c102b706306170d0" target="_top" xlink:title=" ">
<polygon fill="white" stroke="black" points="505,-95.5 505,-114.5 583,-114.5 583,-95.5 505,-95.5"/>
<text text-anchor="middle" x="544" y="-102.5" font-family="Helvetica,sans-Serif" font-size="10.00">VideoList::find</text>
</a>
</g>
</g>
<!-- Node17&#45;&gt;Node18 -->
<g id="edge18" class="edge"><title>Node17&#45;&gt;Node18</title>
<path fill="none" stroke="midnightblue" d="M447.739,-105C463.024,-105 479.719,-105 494.803,-105"/>
<polygon fill="midnightblue" stroke="midnightblue" points="494.951,-108.5 504.951,-105 494.951,-101.5 494.951,-108.5"/>
</g>
<!-- Node21 -->
<g id="node21" class="node"><title>Node21</title>
<g id="a_node21"><a xlink:href="../../d8/da1/struct_timer.html#af11deea7dde51d637aec54587820f92b" target="_top" xlink:title=" ">
<polygon fill="white" stroke="black" points="510,-19.5 510,-38.5 578,-38.5 578,-19.5 510,-19.5"/>
<text text-anchor="middle" x="544" y="-26.5" font-family="Helvetica,sans-Serif" font-size="10.00">Timer::Time</text>
</a>
</g>
</g>
<!-- Node20&#45;&gt;Node21 -->
<g id="edge21" class="edge"><title>Node20&#45;&gt;Node21</title>
<path fill="none" stroke="midnightblue" d="M432.713,-29C452.957,-29 478.321,-29 499.619,-29"/>
<polygon fill="midnightblue" stroke="midnightblue" points="499.708,-32.5001 509.708,-29 499.708,-25.5001 499.708,-32.5001"/>
</g>
</g>
</svg>
