<?xml version="1.0" encoding="UTF-8" standalone="no"?>
<!DOCTYPE svg PUBLIC "-//W3C//DTD SVG 1.1//EN"
 "http://www.w3.org/Graphics/SVG/1.1/DTD/svg11.dtd">
<!-- Generated by graphviz version 2.38.0 (20140413.2041)
 -->
<!-- Title: alSourceUnqueueBuffers Pages: 1 -->
<svg width="768pt" height="152pt"
 viewBox="0.00 0.00 768.00 152.00" xmlns="http://www.w3.org/2000/svg" xmlns:xlink="http://www.w3.org/1999/xlink">
<g id="graph0" class="graph" transform="scale(1 1) rotate(0) translate(4 148)">
<title>alSourceUnqueueBuffers</title>
<polygon fill="white" stroke="none" points="-4,4 -4,-148 764,-148 764,4 -4,4"/>
<!-- Node1 -->
<g id="node1" class="node"><title>Node1</title>
<g id="a_node1"><a xlink:title=" ">
<polygon fill="#bfbfbf" stroke="black" points="637,-44.5 637,-63.5 760,-63.5 760,-44.5 637,-44.5"/>
<text text-anchor="middle" x="698.5" y="-51.5" font-family="Helvetica,sans-Serif" font-size="10.00">alSourceUnqueueBuffers</text>
</a>
</g>
</g>
<!-- Node2 -->
<g id="node2" class="node"><title>Node2</title>
<g id="a_node2"><a xlink:href="../../d9/d98/class_open_a_l_sound_provider.html#a4fd17b245c58b1b7384ea18983bf8b22" target="_top" xlink:title=" ">
<polygon fill="white" stroke="black" points="471,-83 471,-113 590,-113 590,-83 471,-83"/>
<text text-anchor="start" x="479" y="-101" font-family="Helvetica,sans-Serif" font-size="10.00">OpenALSoundProvider</text>
<text text-anchor="middle" x="530.5" y="-90" font-family="Helvetica,sans-Serif" font-size="10.00">::DeleteStreamingTrack</text>
</a>
</g>
</g>
<!-- Node1&#45;&gt;Node2 -->
<g id="edge1" class="edge"><title>Node1&#45;&gt;Node2</title>
<path fill="none" stroke="midnightblue" d="M651.591,-66.1687C632.015,-71.3574 608.975,-77.4646 588.338,-82.9346"/>
<polygon fill="midnightblue" stroke="midnightblue" points="652.711,-69.4927 661.48,-63.5473 650.917,-62.7264 652.711,-69.4927"/>
</g>
<!-- Node8 -->
<g id="node8" class="node"><title>Node8</title>
<g id="a_node8"><a xlink:href="../../d3/dcc/class_audio_track_s16.html#af6efa1030e6dd0ad0699e42ac1782826" target="_top" xlink:title=" ">
<polygon fill="white" stroke="black" points="460,-3.5 460,-22.5 601,-22.5 601,-3.5 460,-3.5"/>
<text text-anchor="middle" x="530.5" y="-10.5" font-family="Helvetica,sans-Serif" font-size="10.00">AudioTrackS16::DrainBuffers</text>
</a>
</g>
</g>
<!-- Node1&#45;&gt;Node8 -->
<g id="edge7" class="edge"><title>Node1&#45;&gt;Node8</title>
<path fill="none" stroke="midnightblue" d="M649.273,-42.0884C624.086,-35.8677 593.685,-28.3589 570.079,-22.5286"/>
<polygon fill="midnightblue" stroke="midnightblue" points="648.451,-45.4907 658.999,-44.4907 650.13,-38.6949 648.451,-45.4907"/>
</g>
<!-- Node12 -->
<g id="node12" class="node"><title>Node12</title>
<g id="a_node12"><a xlink:href="../../d9/d98/class_open_a_l_sound_provider.html#ab3935fb475fe6b027403c526d8a07aca" target="_top" xlink:title=" ">
<polygon fill="white" stroke="black" points="307.5,-39 307.5,-69 421.5,-69 421.5,-39 307.5,-39"/>
<text text-anchor="start" x="315.5" y="-57" font-family="Helvetica,sans-Serif" font-size="10.00">OpenALSoundProvider</text>
<text text-anchor="middle" x="364.5" y="-46" font-family="Helvetica,sans-Serif" font-size="10.00">::Stream16</text>
</a>
</g>
</g>
<!-- Node1&#45;&gt;Node12 -->
<g id="edge11" class="edge"><title>Node1&#45;&gt;Node12</title>
<path fill="none" stroke="midnightblue" d="M626.644,-54C565.449,-54 478.211,-54 421.719,-54"/>
<polygon fill="midnightblue" stroke="midnightblue" points="626.992,-57.5001 636.992,-54 626.992,-50.5001 626.992,-57.5001"/>
</g>
<!-- Node3 -->
<g id="node3" class="node"><title>Node3</title>
<g id="a_node3"><a xlink:href="../../de/d14/class_movie.html#a92a659499a03cd3dbffa24fde86470a5" target="_top" xlink:title=" ">
<polygon fill="white" stroke="black" points="328.5,-88.5 328.5,-107.5 400.5,-107.5 400.5,-88.5 328.5,-88.5"/>
<text text-anchor="middle" x="364.5" y="-95.5" font-family="Helvetica,sans-Serif" font-size="10.00">Movie::Close</text>
</a>
</g>
</g>
<!-- Node2&#45;&gt;Node3 -->
<g id="edge2" class="edge"><title>Node2&#45;&gt;Node3</title>
<path fill="none" stroke="midnightblue" d="M460.487,-98C439.989,-98 418.381,-98 400.961,-98"/>
<polygon fill="midnightblue" stroke="midnightblue" points="460.755,-101.5 470.755,-98 460.755,-94.5001 460.755,-101.5"/>
</g>
<!-- Node4 -->
<g id="node4" class="node"><title>Node4</title>
<g id="a_node4"><a xlink:href="../../de/d14/class_movie.html#aa9f6ef7307d7a42b57db6d14de6e2cfe" target="_top" xlink:title=" ">
<polygon fill="white" stroke="black" points="169.5,-45.5 169.5,-64.5 260.5,-64.5 260.5,-45.5 169.5,-45.5"/>
<text text-anchor="middle" x="215" y="-52.5" font-family="Helvetica,sans-Serif" font-size="10.00">Movie::GetFrame</text>
</a>
</g>
</g>
<!-- Node3&#45;&gt;Node4 -->
<g id="edge3" class="edge"><title>Node3&#45;&gt;Node4</title>
<path fill="none" stroke="midnightblue" d="M320.911,-85.5841C297.894,-78.8743 269.917,-70.7181 248.644,-64.5164"/>
<polygon fill="midnightblue" stroke="midnightblue" points="320.185,-89.0182 330.765,-88.4569 322.144,-82.298 320.185,-89.0182"/>
</g>
<!-- Node5 -->
<g id="node5" class="node"><title>Node5</title>
<g id="a_node5"><a xlink:href="../../de/d14/class_movie.html#a5ff25439adbe3f75e945dd2b4bd8deaa" target="_top" xlink:title=" ">
<polygon fill="white" stroke="black" points="181,-124.5 181,-143.5 249,-143.5 249,-124.5 181,-124.5"/>
<text text-anchor="middle" x="215" y="-131.5" font-family="Helvetica,sans-Serif" font-size="10.00">Movie::Load</text>
</a>
</g>
</g>
<!-- Node3&#45;&gt;Node5 -->
<g id="edge4" class="edge"><title>Node3&#45;&gt;Node5</title>
<path fill="none" stroke="midnightblue" d="M318.231,-109.049C295.888,-114.502 269.424,-120.961 249.02,-125.941"/>
<polygon fill="midnightblue" stroke="midnightblue" points="319.285,-112.394 328.17,-106.623 317.625,-105.594 319.285,-112.394"/>
</g>
<!-- Node7 -->
<g id="node7" class="node"><title>Node7</title>
<g id="a_node7"><a xlink:href="../../de/d14/class_movie.html#abb2861f5e0f380ca942f68c05833ffe8" target="_top" xlink:title=" ">
<polygon fill="white" stroke="black" points="176,-86.5 176,-105.5 254,-105.5 254,-86.5 176,-86.5"/>
<text text-anchor="middle" x="215" y="-93.5" font-family="Helvetica,sans-Serif" font-size="10.00">Movie::~Movie</text>
</a>
</g>
</g>
<!-- Node3&#45;&gt;Node7 -->
<g id="edge6" class="edge"><title>Node3&#45;&gt;Node7</title>
<path fill="none" stroke="midnightblue" d="M318.117,-97.3846C297.627,-97.1068 273.689,-96.7822 254.142,-96.5172"/>
<polygon fill="midnightblue" stroke="midnightblue" points="318.124,-100.885 328.17,-97.521 318.218,-93.8856 318.124,-100.885"/>
</g>
<!-- Node6 -->
<g id="node6" class="node"><title>Node6</title>
<g id="a_node6"><a xlink:href="../../de/d14/class_movie.html#ae528f4eacffa4317dd6404768ff563dc" target="_top" xlink:title=" ">
<polygon fill="white" stroke="black" points="7.5,-124.5 7.5,-143.5 117.5,-143.5 117.5,-124.5 7.5,-124.5"/>
<text text-anchor="middle" x="62.5" y="-131.5" font-family="Helvetica,sans-Serif" font-size="10.00">Movie::LoadFromLOD</text>
</a>
</g>
</g>
<!-- Node5&#45;&gt;Node6 -->
<g id="edge5" class="edge"><title>Node5&#45;&gt;Node6</title>
<path fill="none" stroke="midnightblue" d="M170.545,-134C154.066,-134 135.094,-134 117.743,-134"/>
<polygon fill="midnightblue" stroke="midnightblue" points="170.972,-137.5 180.972,-134 170.972,-130.5 170.972,-137.5"/>
</g>
<!-- Node9 -->
<g id="node9" class="node"><title>Node9</title>
<g id="a_node9"><a xlink:href="../../d3/dcc/class_audio_track_s16.html#ae7f6226b7710a45a51e20d7a40d2e9f1" target="_top" xlink:title=" ">
<polygon fill="white" stroke="black" points="305,-0.5 305,-19.5 424,-19.5 424,-0.5 305,-0.5"/>
<text text-anchor="middle" x="364.5" y="-7.5" font-family="Helvetica,sans-Serif" font-size="10.00">AudioTrackS16::Update</text>
</a>
</g>
</g>
<!-- Node8&#45;&gt;Node9 -->
<g id="edge8" class="edge"><title>Node8&#45;&gt;Node9</title>
<path fill="none" stroke="midnightblue" d="M449.795,-11.542C441.112,-11.3832 432.395,-11.2237 424.033,-11.0707"/>
<polygon fill="midnightblue" stroke="midnightblue" points="449.887,-15.0442 459.949,-11.7277 450.015,-8.04532 449.887,-15.0442"/>
</g>
<!-- Node10 -->
<g id="node10" class="node"><title>Node10</title>
<g id="a_node10"><a xlink:href="../../d3/dcc/class_audio_track_s16.html#ae491ee7c32a1da4f27827ac18ea9e596" target="_top" xlink:title=" ">
<polygon fill="white" stroke="black" points="161,-0.5 161,-19.5 269,-19.5 269,-0.5 161,-0.5"/>
<text text-anchor="middle" x="215" y="-7.5" font-family="Helvetica,sans-Serif" font-size="10.00">AudioTrackS16::Play</text>
</a>
</g>
</g>
<!-- Node9&#45;&gt;Node10 -->
<g id="edge9" class="edge"><title>Node9&#45;&gt;Node10</title>
<path fill="none" stroke="midnightblue" d="M294.506,-10C286.024,-10 277.458,-10 269.259,-10"/>
<polygon fill="midnightblue" stroke="midnightblue" points="294.78,-13.5001 304.78,-10 294.78,-6.5001 294.78,-13.5001"/>
</g>
<!-- Node11 -->
<g id="node11" class="node"><title>Node11</title>
<g id="a_node11"><a xlink:href="../../d3/dcc/class_audio_track_s16.html#a56b4125e46925f41f0cc5959ead08ecc" target="_top" xlink:title=" ">
<polygon fill="white" stroke="black" points="0,-0.5 0,-19.5 125,-19.5 125,-0.5 0,-0.5"/>
<text text-anchor="middle" x="62.5" y="-7.5" font-family="Helvetica,sans-Serif" font-size="10.00">AudioTrackS16::Resume</text>
</a>
</g>
</g>
<!-- Node10&#45;&gt;Node11 -->
<g id="edge10" class="edge"><title>Node10&#45;&gt;Node11</title>
<path fill="none" stroke="midnightblue" d="M150.722,-10C142.236,-10 133.541,-10 125.085,-10"/>
<polygon fill="midnightblue" stroke="midnightblue" points="150.939,-13.5001 160.939,-10 150.939,-6.5001 150.939,-13.5001"/>
</g>
<!-- Node12&#45;&gt;Node4 -->
<g id="edge12" class="edge"><title>Node12&#45;&gt;Node4</title>
<path fill="none" stroke="midnightblue" d="M297.038,-54.4506C284.689,-54.5343 272.065,-54.6199 260.569,-54.6978"/>
<polygon fill="midnightblue" stroke="midnightblue" points="297.34,-57.9487 307.316,-54.3809 297.292,-50.9489 297.34,-57.9487"/>
</g>
</g>
</svg>
