<?xml version="1.0" encoding="UTF-8" standalone="no"?>
<!DOCTYPE svg PUBLIC "-//W3C//DTD SVG 1.1//EN"
 "http://www.w3.org/Graphics/SVG/1.1/DTD/svg11.dtd">
<!-- Generated by graphviz version 2.38.0 (20140413.2041)
 -->
<!-- Title: alSource3f Pages: 1 -->
<svg width="497pt" height="241pt"
 viewBox="0.00 0.00 497.00 240.50" xmlns="http://www.w3.org/2000/svg" xmlns:xlink="http://www.w3.org/1999/xlink">
<g id="graph0" class="graph" transform="scale(1 1) rotate(0) translate(4 236.5)">
<title>alSource3f</title>
<polygon fill="white" stroke="none" points="-4,4 -4,-236.5 493,-236.5 493,4 -4,4"/>
<!-- Node1 -->
<g id="node1" class="node"><title>Node1</title>
<g id="a_node1"><a xlink:title=" ">
<polygon fill="#bfbfbf" stroke="black" points="427,-95.5 427,-114.5 489,-114.5 489,-95.5 427,-95.5"/>
<text text-anchor="middle" x="458" y="-102.5" font-family="Helvetica,sans-Serif" font-size="10.00">alSource3f</text>
</a>
</g>
</g>
<!-- Node2 -->
<g id="node2" class="node"><title>Node2</title>
<g id="a_node2"><a xlink:href="../../d9/d98/class_open_a_l_sound_provider.html#aa7d5291e06841fdd103e29a3f296cb8f" target="_top" xlink:title=" ">
<polygon fill="white" stroke="black" points="255.5,-202 255.5,-232 385.5,-232 385.5,-202 255.5,-202"/>
<text text-anchor="start" x="263.5" y="-220" font-family="Helvetica,sans-Serif" font-size="10.00">OpenALSoundProvider</text>
<text text-anchor="middle" x="320.5" y="-209" font-family="Helvetica,sans-Serif" font-size="10.00">::CreateStreamingTrack16</text>
</a>
</g>
</g>
<!-- Node1&#45;&gt;Node2 -->
<g id="edge1" class="edge"><title>Node1&#45;&gt;Node2</title>
<path fill="none" stroke="midnightblue" d="M447.411,-123.688C436.338,-143.53 416.347,-174.523 391,-193 386.358,-196.384 381.201,-199.319 375.852,-201.86"/>
<polygon fill="midnightblue" stroke="midnightblue" points="450.591,-125.165 452.243,-114.7 444.425,-121.851 450.591,-125.165"/>
</g>
<!-- Node5 -->
<g id="node5" class="node"><title>Node5</title>
<g id="a_node5"><a xlink:href="../../d9/d98/class_open_a_l_sound_provider.html#a49aa919073483797eb84b7a0f446e188" target="_top" xlink:title=" ">
<polygon fill="white" stroke="black" points="263.5,-153 263.5,-183 377.5,-183 377.5,-153 263.5,-153"/>
<text text-anchor="start" x="271.5" y="-171" font-family="Helvetica,sans-Serif" font-size="10.00">OpenALSoundProvider</text>
<text text-anchor="middle" x="320.5" y="-160" font-family="Helvetica,sans-Serif" font-size="10.00">::CreateTrack16</text>
</a>
</g>
</g>
<!-- Node1&#45;&gt;Node5 -->
<g id="edge4" class="edge"><title>Node1&#45;&gt;Node5</title>
<path fill="none" stroke="midnightblue" d="M433.444,-119.923C421.087,-127.399 405.531,-136.268 391,-143 383.437,-146.504 375.235,-149.84 367.204,-152.868"/>
<polygon fill="midnightblue" stroke="midnightblue" points="435.518,-122.757 442.201,-114.536 431.85,-116.795 435.518,-122.757"/>
</g>
<!-- Node6 -->
<g id="node6" class="node"><title>Node6</title>
<g id="a_node6"><a xlink:href="../../d3/dcc/class_audio_track_s16.html#a95e33e5d363602266d49e00d01277760" target="_top" xlink:title=" ">
<polygon fill="white" stroke="black" points="264.5,-114.5 264.5,-133.5 376.5,-133.5 376.5,-114.5 264.5,-114.5"/>
<text text-anchor="middle" x="320.5" y="-121.5" font-family="Helvetica,sans-Serif" font-size="10.00">AudioTrackS16::Open</text>
</a>
</g>
</g>
<!-- Node1&#45;&gt;Node6 -->
<g id="edge5" class="edge"><title>Node1&#45;&gt;Node6</title>
<path fill="none" stroke="midnightblue" d="M416.749,-110.644C404.146,-112.411 390.013,-114.393 376.57,-116.278"/>
<polygon fill="midnightblue" stroke="midnightblue" points="417.511,-114.072 426.928,-109.217 416.539,-107.139 417.511,-114.072"/>
</g>
<!-- Node7 -->
<g id="node7" class="node"><title>Node7</title>
<g id="a_node7"><a xlink:href="../../d5/d2b/class_audio_sample16.html#a0d732ad654d85d5f1975c9700f15f3c6" target="_top" xlink:title=" ">
<polygon fill="white" stroke="black" points="263.5,-76.5 263.5,-95.5 377.5,-95.5 377.5,-76.5 263.5,-76.5"/>
<text text-anchor="middle" x="320.5" y="-83.5" font-family="Helvetica,sans-Serif" font-size="10.00">AudioSample16::Open</text>
</a>
</g>
</g>
<!-- Node1&#45;&gt;Node7 -->
<g id="edge6" class="edge"><title>Node1&#45;&gt;Node7</title>
<path fill="none" stroke="midnightblue" d="M416.972,-99.3872C404.651,-97.6596 390.853,-95.7247 377.658,-93.8746"/>
<polygon fill="midnightblue" stroke="midnightblue" points="416.539,-102.861 426.928,-100.783 417.511,-95.9285 416.539,-102.861"/>
</g>
<!-- Node8 -->
<g id="node8" class="node"><title>Node8</title>
<g id="a_node8"><a xlink:href="../../d5/d2b/class_audio_sample16.html#a3de370657edcaf1bdcc3a8559407a81f" target="_top" xlink:title=" ">
<polygon fill="white" stroke="black" points="265.5,-38.5 265.5,-57.5 375.5,-57.5 375.5,-38.5 265.5,-38.5"/>
<text text-anchor="middle" x="320.5" y="-45.5" font-family="Helvetica,sans-Serif" font-size="10.00">AudioSample16::Play</text>
</a>
</g>
</g>
<!-- Node1&#45;&gt;Node8 -->
<g id="edge7" class="edge"><title>Node1&#45;&gt;Node8</title>
<path fill="none" stroke="midnightblue" d="M434.139,-89.8975C421.763,-82.2279 405.979,-73.2383 391,-67 382.224,-63.345 372.533,-60.1856 363.245,-57.5497"/>
<polygon fill="midnightblue" stroke="midnightblue" points="432.55,-93.0344 442.868,-95.4378 436.301,-87.1241 432.55,-93.0344"/>
</g>
<!-- Node9 -->
<g id="node9" class="node"><title>Node9</title>
<g id="a_node9"><a xlink:href="../../d5/d2b/class_audio_sample16.html#ae4e155685e5abd1067088329e479daed" target="_top" xlink:title=" ">
<polygon fill="white" stroke="black" points="250,-0.5 250,-19.5 391,-19.5 391,-0.5 250,-0.5"/>
<text text-anchor="middle" x="320.5" y="-7.5" font-family="Helvetica,sans-Serif" font-size="10.00">AudioSample16::SetPosition</text>
</a>
</g>
</g>
<!-- Node1&#45;&gt;Node9 -->
<g id="edge8" class="edge"><title>Node1&#45;&gt;Node9</title>
<path fill="none" stroke="midnightblue" d="M445.803,-86.7817C434.193,-69.404 414.467,-43.7547 391,-29 384.858,-25.1383 377.932,-22.0512 370.892,-19.5859"/>
<polygon fill="midnightblue" stroke="midnightblue" points="443.036,-88.9487 451.391,-95.4633 448.922,-85.1602 443.036,-88.9487"/>
</g>
<!-- Node3 -->
<g id="node3" class="node"><title>Node3</title>
<g id="a_node3"><a xlink:href="../../de/d14/class_movie.html#a5ff25439adbe3f75e945dd2b4bd8deaa" target="_top" xlink:title=" ">
<polygon fill="white" stroke="black" points="146,-207.5 146,-226.5 214,-226.5 214,-207.5 146,-207.5"/>
<text text-anchor="middle" x="180" y="-214.5" font-family="Helvetica,sans-Serif" font-size="10.00">Movie::Load</text>
</a>
</g>
</g>
<!-- Node2&#45;&gt;Node3 -->
<g id="edge2" class="edge"><title>Node2&#45;&gt;Node3</title>
<path fill="none" stroke="midnightblue" d="M244.836,-217C234.135,-217 223.608,-217 214.284,-217"/>
<polygon fill="midnightblue" stroke="midnightblue" points="245.116,-220.5 255.116,-217 245.116,-213.5 245.116,-220.5"/>
</g>
<!-- Node4 -->
<g id="node4" class="node"><title>Node4</title>
<g id="a_node4"><a xlink:href="../../de/d14/class_movie.html#ae528f4eacffa4317dd6404768ff563dc" target="_top" xlink:title=" ">
<polygon fill="white" stroke="black" points="0,-207.5 0,-226.5 110,-226.5 110,-207.5 0,-207.5"/>
<text text-anchor="middle" x="55" y="-214.5" font-family="Helvetica,sans-Serif" font-size="10.00">Movie::LoadFromLOD</text>
</a>
</g>
</g>
<!-- Node3&#45;&gt;Node4 -->
<g id="edge3" class="edge"><title>Node3&#45;&gt;Node4</title>
<path fill="none" stroke="midnightblue" d="M135.603,-217C127.381,-217 118.684,-217 110.178,-217"/>
<polygon fill="midnightblue" stroke="midnightblue" points="135.714,-220.5 145.714,-217 135.714,-213.5 135.714,-220.5"/>
</g>
</g>
</svg>
