<?xml version="1.0" encoding="UTF-8" standalone="no"?>
<!DOCTYPE svg PUBLIC "-//W3C//DTD SVG 1.1//EN"
 "http://www.w3.org/Graphics/SVG/1.1/DTD/svg11.dtd">
<!-- Generated by graphviz version 2.38.0 (20140413.2041)
 -->
<!-- Title: alGetSourcei Pages: 1 -->
<!--zoomable 278 -->
<svg id="main" version="1.1" xmlns="http://www.w3.org/2000/svg" xmlns:xlink="http://www.w3.org/1999/xlink" xml:space="preserve" onload="init(evt)">
<style type="text/css"><![CDATA[
.edge:hover path { stroke: red; }
.edge:hover polygon { stroke: red; fill: red; }
]]></style>
<script type="text/javascript"><![CDATA[
var edges = document.getElementsByTagName('g');
if (edges && edges.length) {
  for (var i=0;i<edges.length;i++) {
    if (edges[i].id.substr(0,4)=='edge') {
      edges[i].setAttribute('class','edge');
    }
  }
}
]]></script>
        <defs>
                <circle id="rim" cx="0" cy="0" r="7"/>
                <circle id="rim2" cx="0" cy="0" r="3.5"/>
                <g id="zoomPlus">
                        <use xlink:href="#rim" fill="#404040">
                                <set attributeName="fill" to="#808080" begin="zoomplus.mouseover" end="zoomplus.mouseout"/>
                        </use>
                        <path d="M-4,0h8M0,-4v8" fill="none" stroke="white" stroke-width="1.5" pointer-events="none"/>
                </g>
                <g id="zoomMin">
                        <use xlink:href="#rim" fill="#404040">
                                <set attributeName="fill" to="#808080" begin="zoomminus.mouseover" end="zoomminus.mouseout"/>
                        </use>
                        <path d="M-4,0h8" fill="none" stroke="white" stroke-width="1.5" pointer-events="none"/>
                </g>
                <g id="dirArrow">
                        <path fill="none" stroke="white" stroke-width="1.5" d="M0,-3.0v7 M-2.5,-0.5L0,-3.0L2.5,-0.5"/>
                </g>
               <g id="resetDef">
                       <use xlink:href="#rim2" fill="#404040">
                               <set attributeName="fill" to="#808080" begin="reset.mouseover" end="reset.mouseout"/>
                       </use>
               </g>
        </defs>

<script type="text/javascript">
var viewWidth = 718;
var viewHeight = 278;
var sectionId = 'dynsection-13';
</script>
<script xlink:href="../../svgpan.js"/>
<svg id="graph" class="graph">
<g id="viewport">
<title>alGetSourcei</title>
<polygon fill="white" stroke="none" points="-4,4 -4,-274 714,-274 714,4 -4,4"/>
<!-- Node1 -->
<g id="node1" class="node"><title>Node1</title>
<g id="a_node1"><a xlink:title=" ">
<polygon fill="#bfbfbf" stroke="black" points="637,-107.5 637,-126.5 710,-126.5 710,-107.5 637,-107.5"/>
<text text-anchor="middle" x="673.5" y="-114.5" font-family="Helvetica,sans-Serif" font-size="10.00">alGetSourcei</text>
</a>
</g>
</g>
<!-- Node2 -->
<g id="node2" class="node"><title>Node2</title>
<g id="a_node2"><a xlink:href="../../d9/d98/class_open_a_l_sound_provider.html#a4fd17b245c58b1b7384ea18983bf8b22" target="_top" xlink:title=" ">
<polygon fill="white" stroke="black" points="471,-207 471,-237 590,-237 590,-207 471,-207"/>
<text text-anchor="start" x="479" y="-225" font-family="Helvetica,sans-Serif" font-size="10.00">OpenALSoundProvider</text>
<text text-anchor="middle" x="530.5" y="-214" font-family="Helvetica,sans-Serif" font-size="10.00">::DeleteStreamingTrack</text>
</a>
</g>
</g>
<!-- Node1&#45;&gt;Node2 -->
<g id="edge1" class="edge"><title>Node1&#45;&gt;Node2</title>
<path fill="none" stroke="midnightblue" d="M658.549,-134.969C645.176,-151.26 623.716,-175.087 601,-191 592.235,-197.14 582.059,-202.498 572.242,-206.954"/>
<polygon fill="midnightblue" stroke="midnightblue" points="661.579,-136.784 665.103,-126.793 656.117,-132.406 661.579,-136.784"/>
</g>
<!-- Node8 -->
<g id="node8" class="node"><title>Node8</title>
<g id="a_node8"><a xlink:href="../../d3/dcc/class_audio_track_s16.html#af6efa1030e6dd0ad0699e42ac1782826" target="_top" xlink:title=" ">
<polygon fill="white" stroke="black" points="460,-0.5 460,-19.5 601,-19.5 601,-0.5 460,-0.5"/>
<text text-anchor="middle" x="530.5" y="-7.5" font-family="Helvetica,sans-Serif" font-size="10.00">AudioTrackS16::DrainBuffers</text>
</a>
</g>
</g>
<!-- Node1&#45;&gt;Node8 -->
<g id="edge7" class="edge"><title>Node1&#45;&gt;Node8</title>
<path fill="none" stroke="midnightblue" d="M662.322,-98.5834C650.274,-78.4944 628.352,-46.829 601,-29 595.027,-25.1065 588.268,-22.0049 581.37,-19.5355"/>
<polygon fill="midnightblue" stroke="midnightblue" points="659.387,-100.5 667.423,-107.404 665.446,-96.9952 659.387,-100.5"/>
</g>
<!-- Node10 -->
<g id="node10" class="node"><title>Node10</title>
<g id="a_node10"><a xlink:href="../../d3/dcc/class_audio_track_s16.html#ae491ee7c32a1da4f27827ac18ea9e596" target="_top" xlink:title=" ">
<polygon fill="white" stroke="black" points="161,-85.5 161,-104.5 269,-104.5 269,-85.5 161,-85.5"/>
<text text-anchor="middle" x="215" y="-92.5" font-family="Helvetica,sans-Serif" font-size="10.00">AudioTrackS16::Play</text>
</a>
</g>
</g>
<!-- Node1&#45;&gt;Node10 -->
<g id="edge11" class="edge"><title>Node1&#45;&gt;Node10</title>
<path fill="none" stroke="midnightblue" d="M626.598,-118.189C583.542,-119.023 517.37,-119.581 460,-117 394.141,-114.037 318.584,-106.597 269.217,-101.188"/>
<polygon fill="midnightblue" stroke="midnightblue" points="626.834,-121.685 636.759,-117.979 626.689,-114.687 626.834,-121.685"/>
</g>
<!-- Node12 -->
<g id="node12" class="node"><title>Node12</title>
<g id="a_node12"><a xlink:href="../../d5/d2b/class_audio_sample16.html#a3de370657edcaf1bdcc3a8559407a81f" target="_top" xlink:title=" ">
<polygon fill="white" stroke="black" points="475.5,-88.5 475.5,-107.5 585.5,-107.5 585.5,-88.5 475.5,-88.5"/>
<text text-anchor="middle" x="530.5" y="-95.5" font-family="Helvetica,sans-Serif" font-size="10.00">AudioSample16::Play</text>
</a>
</g>
</g>
<!-- Node1&#45;&gt;Node12 -->
<g id="edge12" class="edge"><title>Node1&#45;&gt;Node12</title>
<path fill="none" stroke="midnightblue" d="M626.75,-110.835C613.669,-109.072 599.287,-107.134 585.75,-105.31"/>
<polygon fill="midnightblue" stroke="midnightblue" points="626.542,-114.339 636.92,-112.205 627.477,-107.401 626.542,-114.339"/>
</g>
<!-- Node13 -->
<g id="node13" class="node"><title>Node13</title>
<g id="a_node13"><a xlink:href="../../d9/d98/class_open_a_l_sound_provider.html#af4c6cd587fca7a1022757e1c79ceec4f" target="_top" xlink:title=" ">
<polygon fill="white" stroke="black" points="473.5,-39 473.5,-69 587.5,-69 587.5,-39 473.5,-39"/>
<text text-anchor="start" x="481.5" y="-57" font-family="Helvetica,sans-Serif" font-size="10.00">OpenALSoundProvider</text>
<text text-anchor="middle" x="530.5" y="-46" font-family="Helvetica,sans-Serif" font-size="10.00">::PlayTrack16</text>
</a>
</g>
</g>
<!-- Node1&#45;&gt;Node13 -->
<g id="edge13" class="edge"><title>Node1&#45;&gt;Node13</title>
<path fill="none" stroke="midnightblue" d="M647.355,-102.499C633.846,-95.0013 616.769,-85.9837 601,-79 593.145,-75.5211 584.64,-72.1508 576.365,-69.0705"/>
<polygon fill="midnightblue" stroke="midnightblue" points="645.645,-105.553 656.077,-107.404 649.076,-99.4518 645.645,-105.553"/>
</g>
<!-- Node14 -->
<g id="node14" class="node"><title>Node14</title>
<g id="a_node14"><a xlink:href="../../d9/d98/class_open_a_l_sound_provider.html#ab3935fb475fe6b027403c526d8a07aca" target="_top" xlink:title=" ">
<polygon fill="white" stroke="black" points="307.5,-165 307.5,-195 421.5,-195 421.5,-165 307.5,-165"/>
<text text-anchor="start" x="315.5" y="-183" font-family="Helvetica,sans-Serif" font-size="10.00">OpenALSoundProvider</text>
<text text-anchor="middle" x="364.5" y="-172" font-family="Helvetica,sans-Serif" font-size="10.00">::Stream16</text>
</a>
</g>
</g>
<!-- Node1&#45;&gt;Node14 -->
<g id="edge14" class="edge"><title>Node1&#45;&gt;Node14</title>
<path fill="none" stroke="midnightblue" d="M646.72,-131.229C633.437,-137.952 616.756,-145.477 601,-150 541.18,-167.173 469.995,-174.524 421.664,-177.666"/>
<polygon fill="midnightblue" stroke="midnightblue" points="648.482,-134.258 655.731,-126.53 645.245,-128.051 648.482,-134.258"/>
</g>
<!-- Node3 -->
<g id="node3" class="node"><title>Node3</title>
<g id="a_node3"><a xlink:href="../../de/d14/class_movie.html#a92a659499a03cd3dbffa24fde86470a5" target="_top" xlink:title=" ">
<polygon fill="white" stroke="black" points="328.5,-214.5 328.5,-233.5 400.5,-233.5 400.5,-214.5 328.5,-214.5"/>
<text text-anchor="middle" x="364.5" y="-221.5" font-family="Helvetica,sans-Serif" font-size="10.00">Movie::Close</text>
</a>
</g>
</g>
<!-- Node2&#45;&gt;Node3 -->
<g id="edge2" class="edge"><title>Node2&#45;&gt;Node3</title>
<path fill="none" stroke="midnightblue" d="M460.487,-222.842C439.989,-223.092 418.381,-223.355 400.961,-223.568"/>
<polygon fill="midnightblue" stroke="midnightblue" points="460.799,-226.338 470.755,-222.716 460.713,-219.339 460.799,-226.338"/>
</g>
<!-- Node4 -->
<g id="node4" class="node"><title>Node4</title>
<g id="a_node4"><a xlink:href="../../de/d14/class_movie.html#aa9f6ef7307d7a42b57db6d14de6e2cfe" target="_top" xlink:title=" ">
<polygon fill="white" stroke="black" points="169.5,-171.5 169.5,-190.5 260.5,-190.5 260.5,-171.5 169.5,-171.5"/>
<text text-anchor="middle" x="215" y="-178.5" font-family="Helvetica,sans-Serif" font-size="10.00">Movie::GetFrame</text>
</a>
</g>
</g>
<!-- Node3&#45;&gt;Node4 -->
<g id="edge3" class="edge"><title>Node3&#45;&gt;Node4</title>
<path fill="none" stroke="midnightblue" d="M320.911,-211.584C297.894,-204.874 269.917,-196.718 248.644,-190.516"/>
<polygon fill="midnightblue" stroke="midnightblue" points="320.185,-215.018 330.765,-214.457 322.144,-208.298 320.185,-215.018"/>
</g>
<!-- Node5 -->
<g id="node5" class="node"><title>Node5</title>
<g id="a_node5"><a xlink:href="../../de/d14/class_movie.html#a5ff25439adbe3f75e945dd2b4bd8deaa" target="_top" xlink:title=" ">
<polygon fill="white" stroke="black" points="181,-250.5 181,-269.5 249,-269.5 249,-250.5 181,-250.5"/>
<text text-anchor="middle" x="215" y="-257.5" font-family="Helvetica,sans-Serif" font-size="10.00">Movie::Load</text>
</a>
</g>
</g>
<!-- Node3&#45;&gt;Node5 -->
<g id="edge4" class="edge"><title>Node3&#45;&gt;Node5</title>
<path fill="none" stroke="midnightblue" d="M318.231,-235.049C295.888,-240.502 269.424,-246.961 249.02,-251.941"/>
<polygon fill="midnightblue" stroke="midnightblue" points="319.285,-238.394 328.17,-232.623 317.625,-231.594 319.285,-238.394"/>
</g>
<!-- Node7 -->
<g id="node7" class="node"><title>Node7</title>
<g id="a_node7"><a xlink:href="../../de/d14/class_movie.html#abb2861f5e0f380ca942f68c05833ffe8" target="_top" xlink:title=" ">
<polygon fill="white" stroke="black" points="176,-212.5 176,-231.5 254,-231.5 254,-212.5 176,-212.5"/>
<text text-anchor="middle" x="215" y="-219.5" font-family="Helvetica,sans-Serif" font-size="10.00">Movie::~Movie</text>
</a>
</g>
</g>
<!-- Node3&#45;&gt;Node7 -->
<g id="edge6" class="edge"><title>Node3&#45;&gt;Node7</title>
<path fill="none" stroke="midnightblue" d="M318.117,-223.385C297.627,-223.107 273.689,-222.782 254.142,-222.517"/>
<polygon fill="midnightblue" stroke="midnightblue" points="318.124,-226.885 328.17,-223.521 318.218,-219.886 318.124,-226.885"/>
</g>
<!-- Node6 -->
<g id="node6" class="node"><title>Node6</title>
<g id="a_node6"><a xlink:href="../../de/d14/class_movie.html#ae528f4eacffa4317dd6404768ff563dc" target="_top" xlink:title=" ">
<polygon fill="white" stroke="black" points="7.5,-250.5 7.5,-269.5 117.5,-269.5 117.5,-250.5 7.5,-250.5"/>
<text text-anchor="middle" x="62.5" y="-257.5" font-family="Helvetica,sans-Serif" font-size="10.00">Movie::LoadFromLOD</text>
</a>
</g>
</g>
<!-- Node5&#45;&gt;Node6 -->
<g id="edge5" class="edge"><title>Node5&#45;&gt;Node6</title>
<path fill="none" stroke="midnightblue" d="M170.545,-260C154.066,-260 135.094,-260 117.743,-260"/>
<polygon fill="midnightblue" stroke="midnightblue" points="170.972,-263.5 180.972,-260 170.972,-256.5 170.972,-263.5"/>
</g>
<!-- Node9 -->
<g id="node9" class="node"><title>Node9</title>
<g id="a_node9"><a xlink:href="../../d3/dcc/class_audio_track_s16.html#ae7f6226b7710a45a51e20d7a40d2e9f1" target="_top" xlink:title=" ">
<polygon fill="white" stroke="black" points="305,-44.5 305,-63.5 424,-63.5 424,-44.5 305,-44.5"/>
<text text-anchor="middle" x="364.5" y="-51.5" font-family="Helvetica,sans-Serif" font-size="10.00">AudioTrackS16::Update</text>
</a>
</g>
</g>
<!-- Node8&#45;&gt;Node9 -->
<g id="edge8" class="edge"><title>Node8&#45;&gt;Node9</title>
<path fill="none" stroke="midnightblue" d="M484.196,-22.1547C457.953,-29.1955 425.393,-37.9312 401.016,-44.4713"/>
<polygon fill="midnightblue" stroke="midnightblue" points="485.163,-25.5192 493.914,-19.5473 483.349,-18.7583 485.163,-25.5192"/>
</g>
<!-- Node9&#45;&gt;Node10 -->
<g id="edge9" class="edge"><title>Node9&#45;&gt;Node10</title>
<path fill="none" stroke="midnightblue" d="M319.455,-66.2431C297.314,-72.3976 270.883,-79.7443 250.28,-85.4714"/>
<polygon fill="midnightblue" stroke="midnightblue" points="320.592,-69.5596 329.29,-63.5093 318.718,-62.8153 320.592,-69.5596"/>
</g>
<!-- Node11 -->
<g id="node11" class="node"><title>Node11</title>
<g id="a_node11"><a xlink:href="../../d3/dcc/class_audio_track_s16.html#a56b4125e46925f41f0cc5959ead08ecc" target="_top" xlink:title=" ">
<polygon fill="white" stroke="black" points="0,-85.5 0,-104.5 125,-104.5 125,-85.5 0,-85.5"/>
<text text-anchor="middle" x="62.5" y="-92.5" font-family="Helvetica,sans-Serif" font-size="10.00">AudioTrackS16::Resume</text>
</a>
</g>
</g>
<!-- Node10&#45;&gt;Node11 -->
<g id="edge10" class="edge"><title>Node10&#45;&gt;Node11</title>
<path fill="none" stroke="midnightblue" d="M150.722,-95C142.236,-95 133.541,-95 125.085,-95"/>
<polygon fill="midnightblue" stroke="midnightblue" points="150.939,-98.5001 160.939,-95 150.939,-91.5001 150.939,-98.5001"/>
</g>
<!-- Node14&#45;&gt;Node4 -->
<g id="edge15" class="edge"><title>Node14&#45;&gt;Node4</title>
<path fill="none" stroke="midnightblue" d="M297.038,-180.451C284.689,-180.534 272.065,-180.62 260.569,-180.698"/>
<polygon fill="midnightblue" stroke="midnightblue" points="297.34,-183.949 307.316,-180.381 297.292,-176.949 297.34,-183.949"/>
</g>
</g>
</svg>
        <g id="navigator" transform="translate(0 0)" fill="#404254">
                <rect fill="#f2f5e9" fill-opacity="0.5" stroke="#606060" stroke-width=".5" x="0" y="0" width="60" height="60"/>
                <use id="zoomplus" xlink:href="#zoomPlus" x="17" y="9" onmousedown="handleZoom(evt,'in')"/>
                <use id="zoomminus" xlink:href="#zoomMin" x="42" y="9" onmousedown="handleZoom(evt,'out')"/>
                <use id="reset" xlink:href="#resetDef" x="30" y="36" onmousedown="handleReset()"/>
                <g id="arrowUp" xlink:href="#dirArrow" transform="translate(30 24)" onmousedown="handlePan(0,-1)">
                  <use xlink:href="#rim" fill="#404040">
                        <set attributeName="fill" to="#808080" begin="arrowUp.mouseover" end="arrowUp.mouseout"/>
                  </use>
                  <path fill="none" stroke="white" stroke-width="1.5" d="M0,-3.0v7 M-2.5,-0.5L0,-3.0L2.5,-0.5"/>
                </g>
                <g id="arrowRight" xlink:href="#dirArrow" transform="rotate(90) translate(36 -43)" onmousedown="handlePan(1,0)">
                  <use xlink:href="#rim" fill="#404040">
                        <set attributeName="fill" to="#808080" begin="arrowRight.mouseover" end="arrowRight.mouseout"/>
                  </use>
                  <path fill="none" stroke="white" stroke-width="1.5" d="M0,-3.0v7 M-2.5,-0.5L0,-3.0L2.5,-0.5"/>
                </g>
                <g id="arrowDown" xlink:href="#dirArrow" transform="rotate(180) translate(-30 -48)" onmousedown="handlePan(0,1)">
                  <use xlink:href="#rim" fill="#404040">
                        <set attributeName="fill" to="#808080" begin="arrowDown.mouseover" end="arrowDown.mouseout"/>
                  </use>
                  <path fill="none" stroke="white" stroke-width="1.5" d="M0,-3.0v7 M-2.5,-0.5L0,-3.0L2.5,-0.5"/>
                </g>
                <g id="arrowLeft" xlink:href="#dirArrow" transform="rotate(270) translate(-36 17)" onmousedown="handlePan(-1,0)">
                  <use xlink:href="#rim" fill="#404040">
                        <set attributeName="fill" to="#808080" begin="arrowLeft.mouseover" end="arrowLeft.mouseout"/>
                  </use>
                  <path fill="none" stroke="white" stroke-width="1.5" d="M0,-3.0v7 M-2.5,-0.5L0,-3.0L2.5,-0.5"/>
                </g>
        </g>
        <svg viewBox="0 0 15 15" width="100%" height="30px" preserveAspectRatio="xMaxYMin meet">
         <g id="arrow_out" transform="scale(0.3 0.3)">
          <a xlink:href="al_8h_a9ab43cbddc0f0a059f141c4cd96aafd7_icgraph_org.svg" target="_base">
           <rect id="button" ry="5" rx="5" y="6" x="6" height="38" width="38"
                fill="#f2f5e9" fill-opacity="0.5" stroke="#606060" stroke-width="1.0"/>
           <path id="arrow"
             d="M 11.500037,31.436501 C 11.940474,20.09759 22.043105,11.32322 32.158766,21.979434 L 37.068811,17.246167 C 37.068811,17.246167 37.088388,32 37.088388,32 L 22.160133,31.978069 C 22.160133,31.978069 26.997745,27.140456 26.997745,27.140456 C 18.528582,18.264221 13.291696,25.230495 11.500037,31.436501 z"
             style="fill:#404040;"/>
          </a>
         </g>
        </svg>
</svg>
