<?xml version="1.0" encoding="UTF-8" standalone="no"?>
<!DOCTYPE svg PUBLIC "-//W3C//DTD SVG 1.1//EN"
 "http://www.w3.org/Graphics/SVG/1.1/DTD/svg11.dtd">
<!-- Generated by graphviz version 2.38.0 (20140413.2041)
 -->
<!-- Title: alGenSources Pages: 1 -->
<svg width="502pt" height="165pt"
 viewBox="0.00 0.00 502.00 164.50" xmlns="http://www.w3.org/2000/svg" xmlns:xlink="http://www.w3.org/1999/xlink">
<g id="graph0" class="graph" transform="scale(1 1) rotate(0) translate(4 160.5)">
<title>alGenSources</title>
<polygon fill="white" stroke="none" points="-4,4 -4,-160.5 498,-160.5 498,4 -4,4"/>
<!-- Node1 -->
<g id="node1" class="node"><title>Node1</title>
<g id="a_node1"><a xlink:title=" ">
<polygon fill="#bfbfbf" stroke="black" points="416,-60.5 416,-79.5 494,-79.5 494,-60.5 416,-60.5"/>
<text text-anchor="middle" x="455" y="-67.5" font-family="Helvetica,sans-Serif" font-size="10.00">alGenSources</text>
</a>
</g>
</g>
<!-- Node2 -->
<g id="node2" class="node"><title>Node2</title>
<g id="a_node2"><a xlink:href="../../d9/d98/class_open_a_l_sound_provider.html#aa7d5291e06841fdd103e29a3f296cb8f" target="_top" xlink:title=" ">
<polygon fill="white" stroke="black" points="250,-126 250,-156 380,-156 380,-126 250,-126"/>
<text text-anchor="start" x="258" y="-144" font-family="Helvetica,sans-Serif" font-size="10.00">OpenALSoundProvider</text>
<text text-anchor="middle" x="315" y="-133" font-family="Helvetica,sans-Serif" font-size="10.00">::CreateStreamingTrack16</text>
</a>
</g>
</g>
<!-- Node1&#45;&gt;Node2 -->
<g id="edge1" class="edge"><title>Node1&#45;&gt;Node2</title>
<path fill="none" stroke="midnightblue" d="M432.616,-85.2551C418.198,-95.1154 398.5,-107.781 380,-117 373.627,-120.176 366.726,-123.181 359.895,-125.922"/>
<polygon fill="midnightblue" stroke="midnightblue" points="434.637,-88.1132 440.853,-79.534 430.643,-82.3639 434.637,-88.1132"/>
</g>
<!-- Node5 -->
<g id="node5" class="node"><title>Node5</title>
<g id="a_node5"><a xlink:href="../../d9/d98/class_open_a_l_sound_provider.html#a49aa919073483797eb84b7a0f446e188" target="_top" xlink:title=" ">
<polygon fill="white" stroke="black" points="258,-77 258,-107 372,-107 372,-77 258,-77"/>
<text text-anchor="start" x="266" y="-95" font-family="Helvetica,sans-Serif" font-size="10.00">OpenALSoundProvider</text>
<text text-anchor="middle" x="315" y="-84" font-family="Helvetica,sans-Serif" font-size="10.00">::CreateTrack16</text>
</a>
</g>
</g>
<!-- Node1&#45;&gt;Node5 -->
<g id="edge4" class="edge"><title>Node1&#45;&gt;Node5</title>
<path fill="none" stroke="midnightblue" d="M405.758,-77.6907C394.868,-79.4268 383.218,-81.2841 372.038,-83.0664"/>
<polygon fill="midnightblue" stroke="midnightblue" points="406.601,-81.1006 415.926,-76.0698 405.499,-74.1879 406.601,-81.1006"/>
</g>
<!-- Node6 -->
<g id="node6" class="node"><title>Node6</title>
<g id="a_node6"><a xlink:href="../../d3/dcc/class_audio_track_s16.html#a95e33e5d363602266d49e00d01277760" target="_top" xlink:title=" ">
<polygon fill="white" stroke="black" points="259,-38.5 259,-57.5 371,-57.5 371,-38.5 259,-38.5"/>
<text text-anchor="middle" x="315" y="-45.5" font-family="Helvetica,sans-Serif" font-size="10.00">AudioTrackS16::Open</text>
</a>
</g>
</g>
<!-- Node1&#45;&gt;Node6 -->
<g id="edge5" class="edge"><title>Node1&#45;&gt;Node6</title>
<path fill="none" stroke="midnightblue" d="M405.917,-62.3345C394.728,-60.5508 382.729,-58.6379 371.258,-56.8092"/>
<polygon fill="midnightblue" stroke="midnightblue" points="405.499,-65.8121 415.926,-63.9302 406.601,-58.8994 405.499,-65.8121"/>
</g>
<!-- Node7 -->
<g id="node7" class="node"><title>Node7</title>
<g id="a_node7"><a xlink:href="../../d5/d2b/class_audio_sample16.html#a0d732ad654d85d5f1975c9700f15f3c6" target="_top" xlink:title=" ">
<polygon fill="white" stroke="black" points="258,-0.5 258,-19.5 372,-19.5 372,-0.5 258,-0.5"/>
<text text-anchor="middle" x="315" y="-7.5" font-family="Helvetica,sans-Serif" font-size="10.00">AudioSample16::Open</text>
</a>
</g>
</g>
<!-- Node1&#45;&gt;Node7 -->
<g id="edge6" class="edge"><title>Node1&#45;&gt;Node7</title>
<path fill="none" stroke="midnightblue" d="M430.263,-55.111C416.064,-46.6502 397.443,-36.3185 380,-29 371.45,-25.4125 361.993,-22.2118 353.032,-19.5063"/>
<polygon fill="midnightblue" stroke="midnightblue" points="428.534,-58.1555 438.899,-60.3503 432.165,-52.1709 428.534,-58.1555"/>
</g>
<!-- Node3 -->
<g id="node3" class="node"><title>Node3</title>
<g id="a_node3"><a xlink:href="../../de/d14/class_movie.html#a5ff25439adbe3f75e945dd2b4bd8deaa" target="_top" xlink:title=" ">
<polygon fill="white" stroke="black" points="146,-131.5 146,-150.5 214,-150.5 214,-131.5 146,-131.5"/>
<text text-anchor="middle" x="180" y="-138.5" font-family="Helvetica,sans-Serif" font-size="10.00">Movie::Load</text>
</a>
</g>
</g>
<!-- Node2&#45;&gt;Node3 -->
<g id="edge2" class="edge"><title>Node2&#45;&gt;Node3</title>
<path fill="none" stroke="midnightblue" d="M239.713,-141C230.786,-141 222.049,-141 214.157,-141"/>
<polygon fill="midnightblue" stroke="midnightblue" points="239.837,-144.5 249.837,-141 239.837,-137.5 239.837,-144.5"/>
</g>
<!-- Node4 -->
<g id="node4" class="node"><title>Node4</title>
<g id="a_node4"><a xlink:href="../../de/d14/class_movie.html#ae528f4eacffa4317dd6404768ff563dc" target="_top" xlink:title=" ">
<polygon fill="white" stroke="black" points="0,-131.5 0,-150.5 110,-150.5 110,-131.5 0,-131.5"/>
<text text-anchor="middle" x="55" y="-138.5" font-family="Helvetica,sans-Serif" font-size="10.00">Movie::LoadFromLOD</text>
</a>
</g>
</g>
<!-- Node3&#45;&gt;Node4 -->
<g id="edge3" class="edge"><title>Node3&#45;&gt;Node4</title>
<path fill="none" stroke="midnightblue" d="M135.603,-141C127.381,-141 118.684,-141 110.178,-141"/>
<polygon fill="midnightblue" stroke="midnightblue" points="135.714,-144.5 145.714,-141 135.714,-137.5 135.714,-144.5"/>
</g>
</g>
</svg>
