<?xml version="1.0" encoding="UTF-8" standalone="no"?>
<!DOCTYPE svg PUBLIC "-//W3C//DTD SVG 1.1//EN"
 "http://www.w3.org/Graphics/SVG/1.1/DTD/svg11.dtd">
<!-- Generated by graphviz version 2.38.0 (20140413.2041)
 -->
<!-- Title: alSourcePlay Pages: 1 -->
<svg width="393pt" height="165pt"
 viewBox="0.00 0.00 393.00 164.50" xmlns="http://www.w3.org/2000/svg" xmlns:xlink="http://www.w3.org/1999/xlink">
<g id="graph0" class="graph" transform="scale(1 1) rotate(0) translate(4 160.5)">
<title>alSourcePlay</title>
<polygon fill="white" stroke="none" points="-4,4 -4,-160.5 389,-160.5 389,4 -4,4"/>
<!-- Node1 -->
<g id="node1" class="node"><title>Node1</title>
<g id="a_node1"><a xlink:title=" ">
<polygon fill="#bfbfbf" stroke="black" points="311,-77 311,-96 385,-96 385,-77 311,-77"/>
<text text-anchor="middle" x="348" y="-84" font-family="Helvetica,sans-Serif" font-size="10.00">alSourcePlay</text>
</a>
</g>
</g>
<!-- Node2 -->
<g id="node2" class="node"><title>Node2</title>
<g id="a_node2"><a xlink:href="../../d3/dcc/class_audio_track_s16.html#ae491ee7c32a1da4f27827ac18ea9e596" target="_top" xlink:title=" ">
<polygon fill="white" stroke="black" points="164,-137 164,-156 272,-156 272,-137 164,-137"/>
<text text-anchor="middle" x="218" y="-144" font-family="Helvetica,sans-Serif" font-size="10.00">AudioTrackS16::Play</text>
</a>
</g>
</g>
<!-- Node1&#45;&gt;Node2 -->
<g id="edge1" class="edge"><title>Node1&#45;&gt;Node2</title>
<path fill="none" stroke="midnightblue" d="M323.19,-101.585C309.443,-109.902 291.63,-120.026 275,-127.5 267.228,-130.993 258.609,-134.218 250.509,-136.982"/>
<polygon fill="midnightblue" stroke="midnightblue" points="325.31,-104.39 331.994,-96.1699 321.642,-98.4279 325.31,-104.39"/>
</g>
<!-- Node4 -->
<g id="node4" class="node"><title>Node4</title>
<g id="a_node4"><a xlink:href="../../d5/d2b/class_audio_sample16.html#a3de370657edcaf1bdcc3a8559407a81f" target="_top" xlink:title=" ">
<polygon fill="white" stroke="black" points="163,-99 163,-118 273,-118 273,-99 163,-99"/>
<text text-anchor="middle" x="218" y="-106" font-family="Helvetica,sans-Serif" font-size="10.00">AudioSample16::Play</text>
</a>
</g>
</g>
<!-- Node1&#45;&gt;Node4 -->
<g id="edge3" class="edge"><title>Node1&#45;&gt;Node4</title>
<path fill="none" stroke="midnightblue" d="M300.784,-94.4434C291.806,-95.9865 282.321,-97.6167 273.115,-99.1989"/>
<polygon fill="midnightblue" stroke="midnightblue" points="301.4,-97.8889 310.663,-92.7455 300.214,-90.99 301.4,-97.8889"/>
</g>
<!-- Node5 -->
<g id="node5" class="node"><title>Node5</title>
<g id="a_node5"><a xlink:href="../../d9/d98/class_open_a_l_sound_provider.html#af4c6cd587fca7a1022757e1c79ceec4f" target="_top" xlink:title=" ">
<polygon fill="white" stroke="black" points="161,-49.5 161,-79.5 275,-79.5 275,-49.5 161,-49.5"/>
<text text-anchor="start" x="169" y="-67.5" font-family="Helvetica,sans-Serif" font-size="10.00">OpenALSoundProvider</text>
<text text-anchor="middle" x="218" y="-56.5" font-family="Helvetica,sans-Serif" font-size="10.00">::PlayTrack16</text>
</a>
</g>
</g>
<!-- Node1&#45;&gt;Node5 -->
<g id="edge4" class="edge"><title>Node1&#45;&gt;Node5</title>
<path fill="none" stroke="midnightblue" d="M300.747,-78.5503C292.406,-77.1166 283.628,-75.6079 275.044,-74.1325"/>
<polygon fill="midnightblue" stroke="midnightblue" points="300.214,-82.01 310.663,-80.2545 301.4,-75.1111 300.214,-82.01"/>
</g>
<!-- Node6 -->
<g id="node6" class="node"><title>Node6</title>
<g id="a_node6"><a xlink:href="../../d9/d98/class_open_a_l_sound_provider.html#ab3935fb475fe6b027403c526d8a07aca" target="_top" xlink:title=" ">
<polygon fill="white" stroke="black" points="161,-0.5 161,-30.5 275,-30.5 275,-0.5 161,-0.5"/>
<text text-anchor="start" x="169" y="-18.5" font-family="Helvetica,sans-Serif" font-size="10.00">OpenALSoundProvider</text>
<text text-anchor="middle" x="218" y="-7.5" font-family="Helvetica,sans-Serif" font-size="10.00">::Stream16</text>
</a>
</g>
</g>
<!-- Node1&#45;&gt;Node6 -->
<g id="edge5" class="edge"><title>Node1&#45;&gt;Node6</title>
<path fill="none" stroke="midnightblue" d="M325.453,-71.0216C311.453,-61.3234 292.596,-48.9219 275,-39.5 269.219,-36.4043 262.953,-33.4004 256.777,-30.6254"/>
<polygon fill="midnightblue" stroke="midnightblue" points="323.695,-74.0636 333.89,-76.9459 327.718,-68.3348 323.695,-74.0636"/>
</g>
<!-- Node3 -->
<g id="node3" class="node"><title>Node3</title>
<g id="a_node3"><a xlink:href="../../d3/dcc/class_audio_track_s16.html#a56b4125e46925f41f0cc5959ead08ecc" target="_top" xlink:title=" ">
<polygon fill="white" stroke="black" points="0,-137 0,-156 125,-156 125,-137 0,-137"/>
<text text-anchor="middle" x="62.5" y="-144" font-family="Helvetica,sans-Serif" font-size="10.00">AudioTrackS16::Resume</text>
</a>
</g>
</g>
<!-- Node2&#45;&gt;Node3 -->
<g id="edge2" class="edge"><title>Node2&#45;&gt;Node3</title>
<path fill="none" stroke="midnightblue" d="M153.642,-146.5C144.206,-146.5 134.49,-146.5 125.091,-146.5"/>
<polygon fill="midnightblue" stroke="midnightblue" points="153.744,-150 163.744,-146.5 153.744,-143 153.744,-150"/>
</g>
<!-- Node7 -->
<g id="node7" class="node"><title>Node7</title>
<g id="a_node7"><a xlink:href="../../de/d14/class_movie.html#aa9f6ef7307d7a42b57db6d14de6e2cfe" target="_top" xlink:title=" ">
<polygon fill="white" stroke="black" points="17,-6 17,-25 108,-25 108,-6 17,-6"/>
<text text-anchor="middle" x="62.5" y="-13" font-family="Helvetica,sans-Serif" font-size="10.00">Movie::GetFrame</text>
</a>
</g>
</g>
<!-- Node6&#45;&gt;Node7 -->
<g id="edge6" class="edge"><title>Node6&#45;&gt;Node7</title>
<path fill="none" stroke="midnightblue" d="M150.444,-15.5C136.186,-15.5 121.449,-15.5 108.25,-15.5"/>
<polygon fill="midnightblue" stroke="midnightblue" points="150.714,-19.0001 160.714,-15.5 150.714,-12.0001 150.714,-19.0001"/>
</g>
</g>
</svg>
