<?xml version="1.0" encoding="UTF-8" standalone="no"?>
<!DOCTYPE svg PUBLIC "-//W3C//DTD SVG 1.1//EN"
 "http://www.w3.org/Graphics/SVG/1.1/DTD/svg11.dtd">
<!-- Generated by graphviz version 2.38.0 (20140413.2041)
 -->
<!-- Title: alSourcef Pages: 1 -->
<svg width="492pt" height="279pt"
 viewBox="0.00 0.00 492.00 278.50" xmlns="http://www.w3.org/2000/svg" xmlns:xlink="http://www.w3.org/1999/xlink">
<g id="graph0" class="graph" transform="scale(1 1) rotate(0) translate(4 274.5)">
<title>alSourcef</title>
<polygon fill="white" stroke="none" points="-4,4 -4,-274.5 488,-274.5 488,4 -4,4"/>
<!-- Node1 -->
<g id="node1" class="node"><title>Node1</title>
<g id="a_node1"><a xlink:title=" ">
<polygon fill="#bfbfbf" stroke="black" points="427,-114.5 427,-133.5 484,-133.5 484,-114.5 427,-114.5"/>
<text text-anchor="middle" x="455.5" y="-121.5" font-family="Helvetica,sans-Serif" font-size="10.00">alSourcef</text>
</a>
</g>
</g>
<!-- Node2 -->
<g id="node2" class="node"><title>Node2</title>
<g id="a_node2"><a xlink:href="../../d9/d98/class_open_a_l_sound_provider.html#aa7d5291e06841fdd103e29a3f296cb8f" target="_top" xlink:title=" ">
<polygon fill="white" stroke="black" points="255.5,-240 255.5,-270 385.5,-270 385.5,-240 255.5,-240"/>
<text text-anchor="start" x="263.5" y="-258" font-family="Helvetica,sans-Serif" font-size="10.00">OpenALSoundProvider</text>
<text text-anchor="middle" x="320.5" y="-247" font-family="Helvetica,sans-Serif" font-size="10.00">::CreateStreamingTrack16</text>
</a>
</g>
</g>
<!-- Node1&#45;&gt;Node2 -->
<g id="edge1" class="edge"><title>Node1&#45;&gt;Node2</title>
<path fill="none" stroke="midnightblue" d="M447.87,-143.182C438.689,-167.027 419.895,-207.449 391,-231 386.844,-234.387 382.181,-237.309 377.29,-239.827"/>
<polygon fill="midnightblue" stroke="midnightblue" points="451.259,-144.106 451.413,-133.512 444.686,-141.697 451.259,-144.106"/>
</g>
<!-- Node5 -->
<g id="node5" class="node"><title>Node5</title>
<g id="a_node5"><a xlink:href="../../d9/d98/class_open_a_l_sound_provider.html#a49aa919073483797eb84b7a0f446e188" target="_top" xlink:title=" ">
<polygon fill="white" stroke="black" points="263.5,-191 263.5,-221 377.5,-221 377.5,-191 263.5,-191"/>
<text text-anchor="start" x="271.5" y="-209" font-family="Helvetica,sans-Serif" font-size="10.00">OpenALSoundProvider</text>
<text text-anchor="middle" x="320.5" y="-198" font-family="Helvetica,sans-Serif" font-size="10.00">::CreateTrack16</text>
</a>
</g>
</g>
<!-- Node1&#45;&gt;Node5 -->
<g id="edge4" class="edge"><title>Node1&#45;&gt;Node5</title>
<path fill="none" stroke="midnightblue" d="M438.869,-141.233C426.804,-153.686 409.154,-170.158 391,-181 384.725,-184.748 377.799,-188.066 370.823,-190.96"/>
<polygon fill="midnightblue" stroke="midnightblue" points="441.629,-143.408 445.94,-133.73 436.535,-138.607 441.629,-143.408"/>
</g>
<!-- Node6 -->
<g id="node6" class="node"><title>Node6</title>
<g id="a_node6"><a xlink:href="../../d3/dcc/class_audio_track_s16.html#a95e33e5d363602266d49e00d01277760" target="_top" xlink:title=" ">
<polygon fill="white" stroke="black" points="264.5,-152.5 264.5,-171.5 376.5,-171.5 376.5,-152.5 264.5,-152.5"/>
<text text-anchor="middle" x="320.5" y="-159.5" font-family="Helvetica,sans-Serif" font-size="10.00">AudioTrackS16::Open</text>
</a>
</g>
</g>
<!-- Node1&#45;&gt;Node6 -->
<g id="edge5" class="edge"><title>Node1&#45;&gt;Node6</title>
<path fill="none" stroke="midnightblue" d="M417,-135.382C408.464,-137.928 399.429,-140.587 391,-143 379.936,-146.167 367.849,-149.512 356.902,-152.497"/>
<polygon fill="midnightblue" stroke="midnightblue" points="418.149,-138.692 426.723,-132.468 416.139,-131.986 418.149,-138.692"/>
</g>
<!-- Node7 -->
<g id="node7" class="node"><title>Node7</title>
<g id="a_node7"><a xlink:href="../../d5/d2b/class_audio_sample16.html#a0d732ad654d85d5f1975c9700f15f3c6" target="_top" xlink:title=" ">
<polygon fill="white" stroke="black" points="263.5,-114.5 263.5,-133.5 377.5,-133.5 377.5,-114.5 263.5,-114.5"/>
<text text-anchor="middle" x="320.5" y="-121.5" font-family="Helvetica,sans-Serif" font-size="10.00">AudioSample16::Open</text>
</a>
</g>
</g>
<!-- Node1&#45;&gt;Node7 -->
<g id="edge6" class="edge"><title>Node1&#45;&gt;Node7</title>
<path fill="none" stroke="midnightblue" d="M416.702,-124C404.523,-124 390.754,-124 377.549,-124"/>
<polygon fill="midnightblue" stroke="midnightblue" points="416.942,-127.5 426.942,-124 416.942,-120.5 416.942,-127.5"/>
</g>
<!-- Node8 -->
<g id="node8" class="node"><title>Node8</title>
<g id="a_node8"><a xlink:href="../../d5/d2b/class_audio_sample16.html#ae4e155685e5abd1067088329e479daed" target="_top" xlink:title=" ">
<polygon fill="white" stroke="black" points="250,-76.5 250,-95.5 391,-95.5 391,-76.5 250,-76.5"/>
<text text-anchor="middle" x="320.5" y="-83.5" font-family="Helvetica,sans-Serif" font-size="10.00">AudioSample16::SetPosition</text>
</a>
</g>
</g>
<!-- Node1&#45;&gt;Node8 -->
<g id="edge7" class="edge"><title>Node1&#45;&gt;Node8</title>
<path fill="none" stroke="midnightblue" d="M417,-112.618C408.464,-110.072 399.429,-107.413 391,-105 379.936,-101.833 367.849,-98.4884 356.902,-95.5029"/>
<polygon fill="midnightblue" stroke="midnightblue" points="416.139,-116.014 426.723,-115.532 418.149,-109.308 416.139,-116.014"/>
</g>
<!-- Node9 -->
<g id="node9" class="node"><title>Node9</title>
<g id="a_node9"><a xlink:href="../../d3/dcc/class_audio_track_s16.html#a3117148809f9c61fc6438f16b56c24ce" target="_top" xlink:title=" ">
<polygon fill="white" stroke="black" points="252,-38.5 252,-57.5 389,-57.5 389,-38.5 252,-38.5"/>
<text text-anchor="middle" x="320.5" y="-45.5" font-family="Helvetica,sans-Serif" font-size="10.00">AudioTrackS16::SetVolume</text>
</a>
</g>
</g>
<!-- Node1&#45;&gt;Node9 -->
<g id="edge8" class="edge"><title>Node1&#45;&gt;Node9</title>
<path fill="none" stroke="midnightblue" d="M439.52,-106.779C427.572,-94.0581 409.778,-77.2387 391,-67 383.971,-63.1676 376.113,-60.064 368.28,-57.5642"/>
<polygon fill="midnightblue" stroke="midnightblue" points="437.163,-109.39 446.479,-114.436 442.344,-104.682 437.163,-109.39"/>
</g>
<!-- Node10 -->
<g id="node10" class="node"><title>Node10</title>
<g id="a_node10"><a xlink:href="../../d5/d2b/class_audio_sample16.html#aa7614bd415a897007816f3ae79e1aed6" target="_top" xlink:title=" ">
<polygon fill="white" stroke="black" points="251,-0.5 251,-19.5 390,-19.5 390,-0.5 251,-0.5"/>
<text text-anchor="middle" x="320.5" y="-7.5" font-family="Helvetica,sans-Serif" font-size="10.00">AudioSample16::SetVolume</text>
</a>
</g>
</g>
<!-- Node1&#45;&gt;Node10 -->
<g id="edge9" class="edge"><title>Node1&#45;&gt;Node10</title>
<path fill="none" stroke="midnightblue" d="M446.661,-104.783C436.844,-83.1302 417.975,-48.4303 391,-29 385.621,-25.1252 379.49,-22.0405 373.149,-19.5847"/>
<polygon fill="midnightblue" stroke="midnightblue" points="443.568,-106.449 450.749,-114.24 449.994,-103.672 443.568,-106.449"/>
</g>
<!-- Node3 -->
<g id="node3" class="node"><title>Node3</title>
<g id="a_node3"><a xlink:href="../../de/d14/class_movie.html#a5ff25439adbe3f75e945dd2b4bd8deaa" target="_top" xlink:title=" ">
<polygon fill="white" stroke="black" points="146,-245.5 146,-264.5 214,-264.5 214,-245.5 146,-245.5"/>
<text text-anchor="middle" x="180" y="-252.5" font-family="Helvetica,sans-Serif" font-size="10.00">Movie::Load</text>
</a>
</g>
</g>
<!-- Node2&#45;&gt;Node3 -->
<g id="edge2" class="edge"><title>Node2&#45;&gt;Node3</title>
<path fill="none" stroke="midnightblue" d="M244.836,-255C234.135,-255 223.608,-255 214.284,-255"/>
<polygon fill="midnightblue" stroke="midnightblue" points="245.116,-258.5 255.116,-255 245.116,-251.5 245.116,-258.5"/>
</g>
<!-- Node4 -->
<g id="node4" class="node"><title>Node4</title>
<g id="a_node4"><a xlink:href="../../de/d14/class_movie.html#ae528f4eacffa4317dd6404768ff563dc" target="_top" xlink:title=" ">
<polygon fill="white" stroke="black" points="0,-245.5 0,-264.5 110,-264.5 110,-245.5 0,-245.5"/>
<text text-anchor="middle" x="55" y="-252.5" font-family="Helvetica,sans-Serif" font-size="10.00">Movie::LoadFromLOD</text>
</a>
</g>
</g>
<!-- Node3&#45;&gt;Node4 -->
<g id="edge3" class="edge"><title>Node3&#45;&gt;Node4</title>
<path fill="none" stroke="midnightblue" d="M135.603,-255C127.381,-255 118.684,-255 110.178,-255"/>
<polygon fill="midnightblue" stroke="midnightblue" points="135.714,-258.5 145.714,-255 135.714,-251.5 135.714,-258.5"/>
</g>
</g>
</svg>
