<?xml version="1.0" encoding="UTF-8" standalone="no"?>
<!DOCTYPE svg PUBLIC "-//W3C//DTD SVG 1.1//EN"
 "http://www.w3.org/Graphics/SVG/1.1/DTD/svg11.dtd">
<!-- Generated by graphviz version 2.38.0 (20140413.2041)
 -->
<!-- Title: ArcomageGame::MsgLoop Pages: 1 -->
<svg width="850pt" height="77pt"
 viewBox="0.00 0.00 850.00 77.23" xmlns="http://www.w3.org/2000/svg" xmlns:xlink="http://www.w3.org/1999/xlink">
<g id="graph0" class="graph" transform="scale(1 1) rotate(0) translate(4 73.2342)">
<title>ArcomageGame::MsgLoop</title>
<polygon fill="white" stroke="none" points="-4,4 -4,-73.2342 846,-73.2342 846,4 -4,4"/>
<!-- Node1 -->
<g id="node1" class="node"><title>Node1</title>
<g id="a_node1"><a xlink:title=" ">
<polygon fill="#bfbfbf" stroke="black" points="709,-38.5 709,-57.5 842,-57.5 842,-38.5 709,-38.5"/>
<text text-anchor="middle" x="775.5" y="-45.5" font-family="Helvetica,sans-Serif" font-size="10.00">ArcomageGame::MsgLoop</text>
</a>
</g>
</g>
<!-- Node2 -->
<g id="node2" class="node"><title>Node2</title>
<g id="a_node2"><a xlink:href="../../d1/d67/struct_arcomage_game.html#af5f4ef42b2a0d72d14621a54895afb58" target="_top" xlink:title=" ">
<polygon fill="white" stroke="black" points="455,-38.5 455,-57.5 569,-57.5 569,-38.5 455,-38.5"/>
<text text-anchor="middle" x="512" y="-45.5" font-family="Helvetica,sans-Serif" font-size="10.00">ArcomageGame::Loop</text>
</a>
</g>
</g>
<!-- Node1&#45;&gt;Node2 -->
<g id="edge1" class="edge"><title>Node1&#45;&gt;Node2</title>
<path fill="none" stroke="midnightblue" d="M723.059,-59.5384C707.102,-62.6015 689.401,-65.4782 673,-67 642.907,-69.7923 635.066,-70.0722 605,-67 586.828,-65.1432 566.947,-61.2743 550.331,-57.5094"/>
<polygon fill="midnightblue" stroke="midnightblue" points="724.136,-62.893 733.262,-57.511 722.771,-56.0273 724.136,-62.893"/>
</g>
<!-- Node6 -->
<g id="node6" class="node"><title>Node6</title>
<g id="a_node6"><a xlink:href="../../d3/d70/_arcomage_2_arcomage_8cpp.html#aa002c458365a310e9988b642add051cf" target="_top" xlink:title=" ">
<polygon fill="white" stroke="black" points="607.5,-38.5 607.5,-57.5 670.5,-57.5 670.5,-38.5 607.5,-38.5"/>
<text text-anchor="middle" x="639" y="-45.5" font-family="Helvetica,sans-Serif" font-size="10.00">PlayerTurn</text>
</a>
</g>
</g>
<!-- Node1&#45;&gt;Node6 -->
<g id="edge5" class="edge"><title>Node1&#45;&gt;Node6</title>
<path fill="none" stroke="midnightblue" d="M698.53,-48C688.704,-48 679.13,-48 670.667,-48"/>
<polygon fill="midnightblue" stroke="midnightblue" points="698.826,-51.5001 708.826,-48 698.826,-44.5001 698.826,-51.5001"/>
</g>
<!-- Node7 -->
<g id="node7" class="node"><title>Node7</title>
<g id="a_node7"><a xlink:href="../../d3/d70/_arcomage_2_arcomage_8cpp.html#a6f49937b945bf1f2ad47df3ca1cda84f" target="_top" xlink:title=" ">
<polygon fill="white" stroke="black" points="605,-0.5 605,-19.5 673,-19.5 673,-0.5 605,-0.5"/>
<text text-anchor="middle" x="639" y="-7.5" font-family="Helvetica,sans-Serif" font-size="10.00">TurnChange</text>
</a>
</g>
</g>
<!-- Node1&#45;&gt;Node7 -->
<g id="edge7" class="edge"><title>Node1&#45;&gt;Node7</title>
<path fill="none" stroke="midnightblue" d="M730.824,-35.6602C712.195,-30.3972 690.805,-24.3537 673.463,-19.4543"/>
<polygon fill="midnightblue" stroke="midnightblue" points="729.985,-39.0602 740.56,-38.411 731.888,-32.3239 729.985,-39.0602"/>
</g>
<!-- Node3 -->
<g id="node3" class="node"><title>Node3</title>
<g id="a_node3"><a xlink:href="../../d4/d06/class_application_1_1_game.html#aaa0ff18388b32b4e6198835a35e000d3" target="_top" xlink:title=" ">
<polygon fill="white" stroke="black" points="316,-33 316,-63 419,-63 419,-33 316,-33"/>
<text text-anchor="start" x="324" y="-51" font-family="Helvetica,sans-Serif" font-size="10.00">Application::Game::</text>
<text text-anchor="middle" x="367.5" y="-40" font-family="Helvetica,sans-Serif" font-size="10.00">GameLoop</text>
</a>
</g>
</g>
<!-- Node2&#45;&gt;Node3 -->
<g id="edge2" class="edge"><title>Node2&#45;&gt;Node3</title>
<path fill="none" stroke="midnightblue" d="M444.453,-48C436.006,-48 427.47,-48 419.323,-48"/>
<polygon fill="midnightblue" stroke="midnightblue" points="444.68,-51.5001 454.68,-48 444.68,-44.5001 444.68,-51.5001"/>
</g>
<!-- Node4 -->
<g id="node4" class="node"><title>Node4</title>
<g id="a_node4"><a xlink:href="../../d4/d06/class_application_1_1_game.html#a013ffd59e8fdf1c0a396da1dbe1681ca" target="_top" xlink:title=" ">
<polygon fill="white" stroke="black" points="156,-38.5 156,-57.5 280,-57.5 280,-38.5 156,-38.5"/>
<text text-anchor="middle" x="218" y="-45.5" font-family="Helvetica,sans-Serif" font-size="10.00">Application::Game::Loop</text>
</a>
</g>
</g>
<!-- Node3&#45;&gt;Node4 -->
<g id="edge3" class="edge"><title>Node3&#45;&gt;Node4</title>
<path fill="none" stroke="midnightblue" d="M305.59,-48C297.149,-48 288.478,-48 280.035,-48"/>
<polygon fill="midnightblue" stroke="midnightblue" points="305.739,-51.5001 315.739,-48 305.739,-44.5001 305.739,-51.5001"/>
</g>
<!-- Node5 -->
<g id="node5" class="node"><title>Node5</title>
<g id="a_node5"><a xlink:href="../../d4/d06/class_application_1_1_game.html#a96341ca5b54d90adc3ecb3bf0bcd2312" target="_top" xlink:title=" ">
<polygon fill="white" stroke="black" points="0,-38.5 0,-57.5 120,-57.5 120,-38.5 0,-38.5"/>
<text text-anchor="middle" x="60" y="-45.5" font-family="Helvetica,sans-Serif" font-size="10.00">Application::Game::Run</text>
</a>
</g>
</g>
<!-- Node4&#45;&gt;Node5 -->
<g id="edge4" class="edge"><title>Node4&#45;&gt;Node5</title>
<path fill="none" stroke="midnightblue" d="M145.546,-48C137.081,-48 128.513,-48 120.244,-48"/>
<polygon fill="midnightblue" stroke="midnightblue" points="145.792,-51.5001 155.792,-48 145.792,-44.5001 145.792,-51.5001"/>
</g>
<!-- Node6&#45;&gt;Node2 -->
<g id="edge6" class="edge"><title>Node6&#45;&gt;Node2</title>
<path fill="none" stroke="midnightblue" d="M597.244,-48C588.261,-48 578.594,-48 569.124,-48"/>
<polygon fill="midnightblue" stroke="midnightblue" points="597.422,-51.5001 607.422,-48 597.422,-44.5001 597.422,-51.5001"/>
</g>
<!-- Node7&#45;&gt;Node2 -->
<g id="edge8" class="edge"><title>Node7&#45;&gt;Node2</title>
<path fill="none" stroke="midnightblue" d="M596.765,-22.5353C579.761,-27.7048 560.371,-33.5991 544.533,-38.4141"/>
<polygon fill="midnightblue" stroke="midnightblue" points="597.908,-25.8463 606.457,-19.589 595.872,-19.149 597.908,-25.8463"/>
</g>
</g>
</svg>
