<?xml version="1.0" encoding="UTF-8" standalone="no"?>
<!DOCTYPE svg PUBLIC "-//W3C//DTD SVG 1.1//EN"
 "http://www.w3.org/Graphics/SVG/1.1/DTD/svg11.dtd">
<!-- Generated by graphviz version 2.38.0 (20140413.2041)
 -->
<!-- Title: Vis_SelectionList::AddObject Pages: 1 -->
<!--zoomable 288 -->
<svg id="main" version="1.1" xmlns="http://www.w3.org/2000/svg" xmlns:xlink="http://www.w3.org/1999/xlink" xml:space="preserve" onload="init(evt)">
<style type="text/css"><![CDATA[
.edge:hover path { stroke: red; }
.edge:hover polygon { stroke: red; fill: red; }
]]></style>
<script type="text/javascript"><![CDATA[
var edges = document.getElementsByTagName('g');
if (edges && edges.length) {
  for (var i=0;i<edges.length;i++) {
    if (edges[i].id.substr(0,4)=='edge') {
      edges[i].setAttribute('class','edge');
    }
  }
}
]]></script>
        <defs>
                <circle id="rim" cx="0" cy="0" r="7"/>
                <circle id="rim2" cx="0" cy="0" r="3.5"/>
                <g id="zoomPlus">
                        <use xlink:href="#rim" fill="#404040">
                                <set attributeName="fill" to="#808080" begin="zoomplus.mouseover" end="zoomplus.mouseout"/>
                        </use>
                        <path d="M-4,0h8M0,-4v8" fill="none" stroke="white" stroke-width="1.5" pointer-events="none"/>
                </g>
                <g id="zoomMin">
                        <use xlink:href="#rim" fill="#404040">
                                <set attributeName="fill" to="#808080" begin="zoomminus.mouseover" end="zoomminus.mouseout"/>
                        </use>
                        <path d="M-4,0h8" fill="none" stroke="white" stroke-width="1.5" pointer-events="none"/>
                </g>
                <g id="dirArrow">
                        <path fill="none" stroke="white" stroke-width="1.5" d="M0,-3.0v7 M-2.5,-0.5L0,-3.0L2.5,-0.5"/>
                </g>
               <g id="resetDef">
                       <use xlink:href="#rim2" fill="#404040">
                               <set attributeName="fill" to="#808080" begin="reset.mouseover" end="reset.mouseout"/>
                       </use>
               </g>
        </defs>

<script type="text/javascript">
var viewWidth = 1734;
var viewHeight = 288;
var sectionId = 'dynsection-4';
</script>
<script xlink:href="../../svgpan.js"/>
<svg id="graph" class="graph">
<g id="viewport">
<title>Vis_SelectionList::AddObject</title>
<polygon fill="white" stroke="none" points="-4,4 -4,-284 1730,-284 1730,4 -4,4"/>
<!-- Node1 -->
<g id="node1" class="node"><title>Node1</title>
<g id="a_node1"><a xlink:title=" ">
<polygon fill="#bfbfbf" stroke="black" points="1628,-93.5 1628,-123.5 1726,-123.5 1726,-93.5 1628,-93.5"/>
<text text-anchor="start" x="1636" y="-111.5" font-family="Helvetica,sans-Serif" font-size="10.00">Vis_SelectionList::</text>
<text text-anchor="middle" x="1677" y="-100.5" font-family="Helvetica,sans-Serif" font-size="10.00">AddObject</text>
</a>
</g>
</g>
<!-- Node2 -->
<g id="node2" class="node"><title>Node2</title>
<g id="a_node2"><a xlink:href="../../d0/def/class_vis.html#a9b45b6714b627310af4609d1bf5e250d" target="_top" xlink:title=" ">
<polygon fill="white" stroke="black" points="1125,-224.5 1125,-254.5 1224,-254.5 1224,-224.5 1125,-224.5"/>
<text text-anchor="start" x="1133" y="-242.5" font-family="Helvetica,sans-Serif" font-size="10.00">Vis::PickBillboards</text>
<text text-anchor="middle" x="1174.5" y="-231.5" font-family="Helvetica,sans-Serif" font-size="10.00">_Keyboard</text>
</a>
</g>
</g>
<!-- Node1&#45;&gt;Node2 -->
<g id="edge1" class="edge"><title>Node1&#45;&gt;Node2</title>
<path fill="none" stroke="midnightblue" d="M1648.53,-129.498C1632.77,-140.582 1612.15,-153.507 1592,-161.5 1465.15,-211.817 1303.45,-230.168 1224,-236.46"/>
<polygon fill="midnightblue" stroke="midnightblue" points="1650.69,-132.257 1656.76,-123.572 1646.6,-126.577 1650.69,-132.257"/>
</g>
<!-- Node13 -->
<g id="node13" class="node"><title>Node13</title>
<g id="a_node13"><a xlink:href="../../d0/def/class_vis.html#a0be64465d62f710858d956b0091d4bcf" target="_top" xlink:title=" ">
<polygon fill="white" stroke="black" points="1125,-175.5 1125,-205.5 1224,-205.5 1224,-175.5 1125,-175.5"/>
<text text-anchor="start" x="1133" y="-193.5" font-family="Helvetica,sans-Serif" font-size="10.00">Vis::PickBillboards</text>
<text text-anchor="middle" x="1174.5" y="-182.5" font-family="Helvetica,sans-Serif" font-size="10.00">_Mouse</text>
</a>
</g>
</g>
<!-- Node1&#45;&gt;Node13 -->
<g id="edge13" class="edge"><title>Node1&#45;&gt;Node13</title>
<path fill="none" stroke="midnightblue" d="M1617.99,-125.472C1609.3,-127.9 1600.43,-130.313 1592,-132.5 1523.97,-150.16 1507.43,-157.536 1438,-168.5 1363.92,-180.199 1277.02,-185.938 1224.14,-188.551"/>
<polygon fill="midnightblue" stroke="midnightblue" points="1619.02,-128.819 1627.69,-122.737 1617.12,-122.081 1619.02,-128.819"/>
</g>
<!-- Node17 -->
<g id="node17" class="node"><title>Node17</title>
<g id="a_node17"><a xlink:href="../../d0/def/class_vis.html#aecd975091f73e04120b1b6b2c0394239" target="_top" xlink:title=" ">
<polygon fill="white" stroke="black" points="1119.5,-49.5 1119.5,-79.5 1229.5,-79.5 1229.5,-49.5 1119.5,-49.5"/>
<text text-anchor="start" x="1127.5" y="-67.5" font-family="Helvetica,sans-Serif" font-size="10.00">Vis::PickIndoorFaces</text>
<text text-anchor="middle" x="1174.5" y="-56.5" font-family="Helvetica,sans-Serif" font-size="10.00">_Keyboard</text>
</a>
</g>
</g>
<!-- Node1&#45;&gt;Node17 -->
<g id="edge17" class="edge"><title>Node1&#45;&gt;Node17</title>
<path fill="none" stroke="midnightblue" d="M1618.06,-90.5633C1609.36,-88.0708 1600.47,-85.6359 1592,-83.5 1524.22,-66.4031 1507.54,-58.6486 1438,-51.5 1369.03,-44.41 1351.21,-47.2918 1282,-51.5 1264.89,-52.5401 1246.33,-54.5116 1229.56,-56.6107"/>
<polygon fill="midnightblue" stroke="midnightblue" points="1617.2,-93.9557 1627.78,-93.3889 1619.15,-87.2345 1617.2,-93.9557"/>
</g>
<!-- Node18 -->
<g id="node18" class="node"><title>Node18</title>
<g id="a_node18"><a xlink:href="../../d0/def/class_vis.html#a67d4ba179398e09641b9a0e2c96d8a54" target="_top" xlink:title=" ">
<polygon fill="white" stroke="black" points="1115.5,-0.5 1115.5,-30.5 1233.5,-30.5 1233.5,-0.5 1115.5,-0.5"/>
<text text-anchor="start" x="1123.5" y="-18.5" font-family="Helvetica,sans-Serif" font-size="10.00">Vis::PickOutdoorFaces</text>
<text text-anchor="middle" x="1174.5" y="-7.5" font-family="Helvetica,sans-Serif" font-size="10.00">_Keyboard</text>
</a>
</g>
</g>
<!-- Node1&#45;&gt;Node18 -->
<g id="edge19" class="edge"><title>Node1&#45;&gt;Node18</title>
<path fill="none" stroke="midnightblue" d="M1650.89,-86.8728C1635.08,-74.5572 1613.62,-60.1075 1592,-52.5 1469.94,-9.5544 1315.93,-8.47562 1233.64,-11.7817"/>
<polygon fill="midnightblue" stroke="midnightblue" points="1649.07,-89.9025 1659.06,-93.4383 1653.46,-84.446 1649.07,-89.9025"/>
</g>
<!-- Node19 -->
<g id="node19" class="node"><title>Node19</title>
<g id="a_node19"><a xlink:href="../../d0/def/class_vis.html#af1001095fa5d94588bc7b32a31587751" target="_top" xlink:title=" ">
<polygon fill="white" stroke="black" points="1474,-93.5 1474,-123.5 1592,-123.5 1592,-93.5 1474,-93.5"/>
<text text-anchor="start" x="1482" y="-111.5" font-family="Helvetica,sans-Serif" font-size="10.00">Vis::PickOutdoorFaces</text>
<text text-anchor="middle" x="1533" y="-100.5" font-family="Helvetica,sans-Serif" font-size="10.00">_Mouse</text>
</a>
</g>
</g>
<!-- Node1&#45;&gt;Node19 -->
<g id="edge21" class="edge"><title>Node1&#45;&gt;Node19</title>
<path fill="none" stroke="midnightblue" d="M1617.76,-108.5C1609.29,-108.5 1600.57,-108.5 1592.11,-108.5"/>
<polygon fill="midnightblue" stroke="midnightblue" points="1617.93,-112 1627.93,-108.5 1617.93,-105 1617.93,-112"/>
</g>
<!-- Node3 -->
<g id="node3" class="node"><title>Node3</title>
<g id="a_node3"><a xlink:href="../../d0/def/class_vis.html#a5393c5a6ff715f9a7f96fe51b4f7e06c" target="_top" xlink:title=" ">
<polygon fill="white" stroke="black" points="954,-230 954,-249 1067,-249 1067,-230 954,-230"/>
<text text-anchor="middle" x="1010.5" y="-237" font-family="Helvetica,sans-Serif" font-size="10.00">Vis::PickClosestActor</text>
</a>
</g>
</g>
<!-- Node2&#45;&gt;Node3 -->
<g id="edge2" class="edge"><title>Node2&#45;&gt;Node3</title>
<path fill="none" stroke="midnightblue" d="M1114.87,-239.5C1099.32,-239.5 1082.57,-239.5 1067.18,-239.5"/>
<polygon fill="midnightblue" stroke="midnightblue" points="1114.89,-243 1124.89,-239.5 1114.89,-236 1114.89,-243"/>
</g>
<!-- Node11 -->
<g id="node11" class="node"><title>Node11</title>
<g id="a_node11"><a xlink:href="../../d0/def/class_vis.html#ae5472f3071160bb897072436c76478a5" target="_top" xlink:title=" ">
<polygon fill="white" stroke="black" points="961.5,-55 961.5,-74 1059.5,-74 1059.5,-55 961.5,-55"/>
<text text-anchor="middle" x="1010.5" y="-62" font-family="Helvetica,sans-Serif" font-size="10.00">Vis::PickKeyboard</text>
</a>
</g>
</g>
<!-- Node2&#45;&gt;Node11 -->
<g id="edge11" class="edge"><title>Node2&#45;&gt;Node11</title>
<path fill="none" stroke="midnightblue" d="M1115.64,-223.93C1111.04,-221.265 1106.74,-218.147 1103,-214.5 1070.97,-183.264 1091.27,-158.083 1067,-120.5 1054.97,-101.871 1035.94,-84.3941 1023.59,-74.0711"/>
<polygon fill="midnightblue" stroke="midnightblue" points="1114.27,-227.159 1124.78,-228.518 1117.41,-220.903 1114.27,-227.159"/>
</g>
<!-- Node4 -->
<g id="node4" class="node"><title>Node4</title>
<g id="a_node4"><a xlink:href="../../db/d28/structstru319.html#af6b96639cdf8714890b74b92299446d9" target="_top" xlink:title=" ">
<polygon fill="white" stroke="black" points="788,-230 788,-249 918,-249 918,-230 788,-230"/>
<text text-anchor="middle" x="853" y="-237" font-family="Helvetica,sans-Serif" font-size="10.00">stru319::FindClosestActor</text>
</a>
</g>
</g>
<!-- Node3&#45;&gt;Node4 -->
<g id="edge3" class="edge"><title>Node3&#45;&gt;Node4</title>
<path fill="none" stroke="midnightblue" d="M943.598,-239.5C935.134,-239.5 926.477,-239.5 918.043,-239.5"/>
<polygon fill="midnightblue" stroke="midnightblue" points="943.8,-243 953.8,-239.5 943.8,-236 943.8,-243"/>
</g>
<!-- Node5 -->
<g id="node5" class="node"><title>Node5</title>
<g id="a_node5"><a xlink:href="../../d8/d06/namespace_cast_spell_info_helpers.html#a6fa3b22b4867c28cad6c215c646dc4aa" target="_top" xlink:title=" ">
<polygon fill="white" stroke="black" points="618,-249.5 618,-279.5 728,-279.5 728,-249.5 618,-249.5"/>
<text text-anchor="start" x="626" y="-267.5" font-family="Helvetica,sans-Serif" font-size="10.00">CastSpellInfoHelpers</text>
<text text-anchor="middle" x="673" y="-256.5" font-family="Helvetica,sans-Serif" font-size="10.00">::_427E01_cast_spell</text>
</a>
</g>
</g>
<!-- Node4&#45;&gt;Node5 -->
<g id="edge4" class="edge"><title>Node4&#45;&gt;Node5</title>
<path fill="none" stroke="midnightblue" d="M777.73,-249.931C761.072,-252.271 743.705,-254.71 728.053,-256.908"/>
<polygon fill="midnightblue" stroke="midnightblue" points="778.573,-253.347 787.989,-248.49 777.6,-246.415 778.573,-253.347"/>
</g>
<!-- Node10 -->
<g id="node10" class="node"><title>Node10</title>
<g id="a_node10"><a xlink:href="../../d3/db1/struct_player.html#adcd0e965260bb120a6e90b515cc748ac" target="_top" xlink:title=" ">
<polygon fill="white" stroke="black" points="594,-200.5 594,-230.5 752,-230.5 752,-200.5 594,-200.5"/>
<text text-anchor="start" x="602" y="-218.5" font-family="Helvetica,sans-Serif" font-size="10.00">Player::_42ECB5_PlayerAttacks</text>
<text text-anchor="middle" x="673" y="-207.5" font-family="Helvetica,sans-Serif" font-size="10.00">Actor</text>
</a>
</g>
</g>
<!-- Node4&#45;&gt;Node10 -->
<g id="edge9" class="edge"><title>Node4&#45;&gt;Node10</title>
<path fill="none" stroke="midnightblue" d="M778.022,-229.525C769.44,-228.368 760.665,-227.185 752.03,-226.021"/>
<polygon fill="midnightblue" stroke="midnightblue" points="777.611,-233.002 787.989,-230.869 778.547,-226.064 777.611,-233.002"/>
</g>
<!-- Node6 -->
<g id="node6" class="node"><title>Node6</title>
<g id="a_node6"><a xlink:href="../../d4/d06/class_application_1_1_game.html#a3f65e3f0ef1a9114fb3dea275e52442e" target="_top" xlink:title=" ">
<polygon fill="white" stroke="black" points="455,-224.5 455,-254.5 558,-254.5 558,-224.5 455,-224.5"/>
<text text-anchor="start" x="463" y="-242.5" font-family="Helvetica,sans-Serif" font-size="10.00">Application::Game::</text>
<text text-anchor="middle" x="506.5" y="-231.5" font-family="Helvetica,sans-Serif" font-size="10.00">EventLoop</text>
</a>
</g>
</g>
<!-- Node5&#45;&gt;Node6 -->
<g id="edge5" class="edge"><title>Node5&#45;&gt;Node6</title>
<path fill="none" stroke="midnightblue" d="M607.61,-254.714C591.188,-252.218 573.768,-249.571 558.142,-247.196"/>
<polygon fill="midnightblue" stroke="midnightblue" points="607.268,-258.202 617.681,-256.245 608.32,-251.282 607.268,-258.202"/>
</g>
<!-- Node7 -->
<g id="node7" class="node"><title>Node7</title>
<g id="a_node7"><a xlink:href="../../d4/d06/class_application_1_1_game.html#aaa0ff18388b32b4e6198835a35e000d3" target="_top" xlink:title=" ">
<polygon fill="white" stroke="black" points="316,-224.5 316,-254.5 419,-254.5 419,-224.5 316,-224.5"/>
<text text-anchor="start" x="324" y="-242.5" font-family="Helvetica,sans-Serif" font-size="10.00">Application::Game::</text>
<text text-anchor="middle" x="367.5" y="-231.5" font-family="Helvetica,sans-Serif" font-size="10.00">GameLoop</text>
</a>
</g>
</g>
<!-- Node6&#45;&gt;Node7 -->
<g id="edge6" class="edge"><title>Node6&#45;&gt;Node7</title>
<path fill="none" stroke="midnightblue" d="M444.68,-239.5C436.228,-239.5 427.618,-239.5 419.374,-239.5"/>
<polygon fill="midnightblue" stroke="midnightblue" points="444.876,-243 454.875,-239.5 444.875,-236 444.876,-243"/>
</g>
<!-- Node8 -->
<g id="node8" class="node"><title>Node8</title>
<g id="a_node8"><a xlink:href="../../d4/d06/class_application_1_1_game.html#a013ffd59e8fdf1c0a396da1dbe1681ca" target="_top" xlink:title=" ">
<polygon fill="white" stroke="black" points="156,-230 156,-249 280,-249 280,-230 156,-230"/>
<text text-anchor="middle" x="218" y="-237" font-family="Helvetica,sans-Serif" font-size="10.00">Application::Game::Loop</text>
</a>
</g>
</g>
<!-- Node7&#45;&gt;Node8 -->
<g id="edge7" class="edge"><title>Node7&#45;&gt;Node8</title>
<path fill="none" stroke="midnightblue" d="M305.59,-239.5C297.149,-239.5 288.478,-239.5 280.035,-239.5"/>
<polygon fill="midnightblue" stroke="midnightblue" points="305.739,-243 315.739,-239.5 305.739,-236 305.739,-243"/>
</g>
<!-- Node9 -->
<g id="node9" class="node"><title>Node9</title>
<g id="a_node9"><a xlink:href="../../d4/d06/class_application_1_1_game.html#a96341ca5b54d90adc3ecb3bf0bcd2312" target="_top" xlink:title=" ">
<polygon fill="white" stroke="black" points="0,-230 0,-249 120,-249 120,-230 0,-230"/>
<text text-anchor="middle" x="60" y="-237" font-family="Helvetica,sans-Serif" font-size="10.00">Application::Game::Run</text>
</a>
</g>
</g>
<!-- Node8&#45;&gt;Node9 -->
<g id="edge8" class="edge"><title>Node8&#45;&gt;Node9</title>
<path fill="none" stroke="midnightblue" d="M145.546,-239.5C137.081,-239.5 128.513,-239.5 120.244,-239.5"/>
<polygon fill="midnightblue" stroke="midnightblue" points="145.792,-243 155.792,-239.5 145.792,-236 145.792,-243"/>
</g>
<!-- Node10&#45;&gt;Node6 -->
<g id="edge10" class="edge"><title>Node10&#45;&gt;Node6</title>
<path fill="none" stroke="midnightblue" d="M583.69,-228.384C574.924,-229.663 566.251,-230.928 558.071,-232.122"/>
<polygon fill="midnightblue" stroke="midnightblue" points="584.214,-231.845 593.604,-226.938 583.204,-224.918 584.214,-231.845"/>
</g>
<!-- Node12 -->
<g id="node12" class="node"><title>Node12</title>
<g id="a_node12"><a xlink:href="../../d6/d83/struct_engine.html#a4aae71d7d74d9a1f92a31c3e389694d3" target="_top" xlink:title=" ">
<polygon fill="white" stroke="black" points="796.5,-55 796.5,-74 909.5,-74 909.5,-55 796.5,-55"/>
<text text-anchor="middle" x="853" y="-62" font-family="Helvetica,sans-Serif" font-size="10.00">Engine::PickKeyboard</text>
</a>
</g>
</g>
<!-- Node11&#45;&gt;Node12 -->
<g id="edge12" class="edge"><title>Node11&#45;&gt;Node12</title>
<path fill="none" stroke="midnightblue" d="M950.988,-64.5C937.447,-64.5 923.075,-64.5 909.66,-64.5"/>
<polygon fill="midnightblue" stroke="midnightblue" points="951.151,-68.0001 961.151,-64.5 951.151,-61.0001 951.151,-68.0001"/>
</g>
<!-- Node14 -->
<g id="node14" class="node"><title>Node14</title>
<g id="a_node14"><a xlink:href="../../d0/def/class_vis.html#aa61deb2f3270d912c9d054be95bd4d05" target="_top" xlink:title=" ">
<polygon fill="white" stroke="black" points="967.5,-130 967.5,-149 1053.5,-149 1053.5,-130 967.5,-130"/>
<text text-anchor="middle" x="1010.5" y="-137" font-family="Helvetica,sans-Serif" font-size="10.00">Vis::PickMouse</text>
</a>
</g>
</g>
<!-- Node13&#45;&gt;Node14 -->
<g id="edge14" class="edge"><title>Node13&#45;&gt;Node14</title>
<path fill="none" stroke="midnightblue" d="M1116.03,-172.409C1091.09,-164.555 1062.88,-155.674 1042.05,-149.119"/>
<polygon fill="midnightblue" stroke="midnightblue" points="1115.18,-175.81 1125.77,-175.474 1117.28,-169.133 1115.18,-175.81"/>
</g>
<!-- Node15 -->
<g id="node15" class="node"><title>Node15</title>
<g id="a_node15"><a xlink:href="../../d6/d83/struct_engine.html#ac93695e7a2f919343d397d3754cc8406" target="_top" xlink:title=" ">
<polygon fill="white" stroke="black" points="802.5,-130 802.5,-149 903.5,-149 903.5,-130 802.5,-130"/>
<text text-anchor="middle" x="853" y="-137" font-family="Helvetica,sans-Serif" font-size="10.00">Engine::PickMouse</text>
</a>
</g>
</g>
<!-- Node14&#45;&gt;Node15 -->
<g id="edge15" class="edge"><title>Node14&#45;&gt;Node15</title>
<path fill="none" stroke="midnightblue" d="M956.952,-139.5C939.7,-139.5 920.59,-139.5 903.566,-139.5"/>
<polygon fill="midnightblue" stroke="midnightblue" points="957.419,-143 967.419,-139.5 957.419,-136 957.419,-143"/>
</g>
<!-- Node16 -->
<g id="node16" class="node"><title>Node16</title>
<g id="a_node16"><a xlink:href="../../d6/d83/struct_engine.html#ac20b2b88746c5280d1f91c00e0cc5e33" target="_top" xlink:title=" ">
<polygon fill="white" stroke="black" points="626,-130 626,-149 720,-149 720,-130 626,-130"/>
<text text-anchor="middle" x="673" y="-137" font-family="Helvetica,sans-Serif" font-size="10.00">Engine::_44EEA7</text>
</a>
</g>
</g>
<!-- Node15&#45;&gt;Node16 -->
<g id="edge16" class="edge"><title>Node15&#45;&gt;Node16</title>
<path fill="none" stroke="midnightblue" d="M792.222,-139.5C768.751,-139.5 742.229,-139.5 720.263,-139.5"/>
<polygon fill="midnightblue" stroke="midnightblue" points="792.417,-143 802.417,-139.5 792.417,-136 792.417,-143"/>
</g>
<!-- Node17&#45;&gt;Node11 -->
<g id="edge18" class="edge"><title>Node17&#45;&gt;Node11</title>
<path fill="none" stroke="midnightblue" d="M1108.98,-64.5C1092.47,-64.5 1075.01,-64.5 1059.5,-64.5"/>
<polygon fill="midnightblue" stroke="midnightblue" points="1109.11,-68.0001 1119.11,-64.5 1109.11,-61.0001 1109.11,-68.0001"/>
</g>
<!-- Node18&#45;&gt;Node11 -->
<g id="edge20" class="edge"><title>Node18&#45;&gt;Node11</title>
<path fill="none" stroke="midnightblue" d="M1113.85,-33.543C1089.89,-40.7891 1063.25,-48.8467 1043.16,-54.9246"/>
<polygon fill="midnightblue" stroke="midnightblue" points="1115.01,-36.8468 1123.57,-30.6014 1112.99,-30.1466 1115.01,-36.8468"/>
</g>
<!-- Node19&#45;&gt;Node14 -->
<g id="edge29" class="edge"><title>Node19&#45;&gt;Node14</title>
<path fill="none" stroke="midnightblue" d="M1463.95,-109.706C1379.25,-111.623 1230.21,-116.362 1103,-127.5 1086.88,-128.911 1069.24,-131.077 1053.78,-133.182"/>
<polygon fill="midnightblue" stroke="midnightblue" points="1464.04,-113.205 1473.96,-109.486 1463.88,-106.207 1464.04,-113.205"/>
</g>
<!-- Node20 -->
<g id="node20" class="node"><title>Node20</title>
<g id="a_node20"><a xlink:href="../../d0/def/class_vis.html#af753604050dd8c033105bf7899ddf09a" target="_top" xlink:title=" ">
<polygon fill="white" stroke="black" points="1282,-61 1282,-80 1438,-80 1438,-61 1282,-61"/>
<text text-anchor="middle" x="1360" y="-68" font-family="Helvetica,sans-Serif" font-size="10.00">Vis::DetermineFacetIntersection</text>
</a>
</g>
</g>
<!-- Node19&#45;&gt;Node20 -->
<g id="edge22" class="edge"><title>Node19&#45;&gt;Node20</title>
<path fill="none" stroke="midnightblue" d="M1463.85,-93.3549C1443.66,-88.8679 1422.12,-84.0816 1404,-80.0545"/>
<polygon fill="midnightblue" stroke="midnightblue" points="1463.11,-96.7761 1473.63,-95.5288 1464.63,-89.9428 1463.11,-96.7761"/>
</g>
<!-- Node21 -->
<g id="node21" class="node"><title>Node21</title>
<g id="a_node21"><a xlink:href="../../d0/def/class_vis.html#ad4af37acceccfd227b3221caa6381385" target="_top" xlink:title=" ">
<polygon fill="white" stroke="black" points="1284,-140 1284,-159 1436,-159 1436,-140 1284,-140"/>
<text text-anchor="middle" x="1360" y="-147" font-family="Helvetica,sans-Serif" font-size="10.00">Vis::DoesRayIntersectBillboard</text>
</a>
</g>
</g>
<!-- Node19&#45;&gt;Node21 -->
<g id="edge25" class="edge"><title>Node19&#45;&gt;Node21</title>
<path fill="none" stroke="midnightblue" d="M1463.63,-124.892C1442.31,-130.005 1419.5,-135.473 1400.82,-139.954"/>
<polygon fill="midnightblue" stroke="midnightblue" points="1464.72,-128.23 1473.63,-122.495 1463.09,-121.423 1464.72,-128.23"/>
</g>
<!-- Node20&#45;&gt;Node17 -->
<g id="edge23" class="edge"><title>Node20&#45;&gt;Node17</title>
<path fill="none" stroke="midnightblue" d="M1271.63,-67.6431C1257.35,-67.1762 1242.93,-66.7047 1229.75,-66.274"/>
<polygon fill="midnightblue" stroke="midnightblue" points="1271.87,-71.1528 1281.98,-67.9815 1272.1,-64.1565 1271.87,-71.1528"/>
</g>
<!-- Node20&#45;&gt;Node18 -->
<g id="edge24" class="edge"><title>Node20&#45;&gt;Node18</title>
<path fill="none" stroke="midnightblue" d="M1317.43,-58.0406C1290.24,-49.8899 1254.55,-39.1933 1225.76,-30.5654"/>
<polygon fill="midnightblue" stroke="midnightblue" points="1316.45,-61.4012 1327.04,-60.9197 1318.46,-54.6959 1316.45,-61.4012"/>
</g>
<!-- Node21&#45;&gt;Node2 -->
<g id="edge27" class="edge"><title>Node21&#45;&gt;Node2</title>
<path fill="none" stroke="midnightblue" d="M1335.99,-164.391C1313.61,-178.474 1278.34,-199.612 1246,-214.5 1238.33,-218.03 1230.01,-221.378 1221.87,-224.411"/>
<polygon fill="midnightblue" stroke="midnightblue" points="1337.9,-167.323 1344.47,-159.007 1334.15,-161.414 1337.9,-167.323"/>
</g>
<!-- Node21&#45;&gt;Node13 -->
<g id="edge28" class="edge"><title>Node21&#45;&gt;Node13</title>
<path fill="none" stroke="midnightblue" d="M1306.44,-161.243C1280.59,-167.018 1249.64,-173.935 1224.31,-179.594"/>
<polygon fill="midnightblue" stroke="midnightblue" points="1307.44,-164.606 1316.44,-159.009 1305.92,-157.774 1307.44,-164.606"/>
</g>
<!-- Node22 -->
<g id="node22" class="node"><title>Node22</title>
<g id="a_node22"><a xlink:href="../../da/d7f/class_render.html#a80931c5b51341327352367c0df72e75f" target="_top" xlink:title=" ">
<polygon fill="white" stroke="black" points="1103,-137 1103,-156 1246,-156 1246,-137 1103,-137"/>
<text text-anchor="middle" x="1174.5" y="-144" font-family="Helvetica,sans-Serif" font-size="10.00">Render::GetActorsInViewport</text>
</a>
</g>
</g>
<!-- Node21&#45;&gt;Node22 -->
<g id="edge26" class="edge"><title>Node21&#45;&gt;Node22</title>
<path fill="none" stroke="midnightblue" d="M1273.82,-148.107C1264.55,-147.956 1255.19,-147.803 1246.12,-147.654"/>
<polygon fill="midnightblue" stroke="midnightblue" points="1273.78,-151.607 1283.83,-148.271 1273.89,-144.608 1273.78,-151.607"/>
</g>
</g>
</svg>
        <g id="navigator" transform="translate(0 0)" fill="#404254">
                <rect fill="#f2f5e9" fill-opacity="0.5" stroke="#606060" stroke-width=".5" x="0" y="0" width="60" height="60"/>
                <use id="zoomplus" xlink:href="#zoomPlus" x="17" y="9" onmousedown="handleZoom(evt,'in')"/>
                <use id="zoomminus" xlink:href="#zoomMin" x="42" y="9" onmousedown="handleZoom(evt,'out')"/>
                <use id="reset" xlink:href="#resetDef" x="30" y="36" onmousedown="handleReset()"/>
                <g id="arrowUp" xlink:href="#dirArrow" transform="translate(30 24)" onmousedown="handlePan(0,-1)">
                  <use xlink:href="#rim" fill="#404040">
                        <set attributeName="fill" to="#808080" begin="arrowUp.mouseover" end="arrowUp.mouseout"/>
                  </use>
                  <path fill="none" stroke="white" stroke-width="1.5" d="M0,-3.0v7 M-2.5,-0.5L0,-3.0L2.5,-0.5"/>
                </g>
                <g id="arrowRight" xlink:href="#dirArrow" transform="rotate(90) translate(36 -43)" onmousedown="handlePan(1,0)">
                  <use xlink:href="#rim" fill="#404040">
                        <set attributeName="fill" to="#808080" begin="arrowRight.mouseover" end="arrowRight.mouseout"/>
                  </use>
                  <path fill="none" stroke="white" stroke-width="1.5" d="M0,-3.0v7 M-2.5,-0.5L0,-3.0L2.5,-0.5"/>
                </g>
                <g id="arrowDown" xlink:href="#dirArrow" transform="rotate(180) translate(-30 -48)" onmousedown="handlePan(0,1)">
                  <use xlink:href="#rim" fill="#404040">
                        <set attributeName="fill" to="#808080" begin="arrowDown.mouseover" end="arrowDown.mouseout"/>
                  </use>
                  <path fill="none" stroke="white" stroke-width="1.5" d="M0,-3.0v7 M-2.5,-0.5L0,-3.0L2.5,-0.5"/>
                </g>
                <g id="arrowLeft" xlink:href="#dirArrow" transform="rotate(270) translate(-36 17)" onmousedown="handlePan(-1,0)">
                  <use xlink:href="#rim" fill="#404040">
                        <set attributeName="fill" to="#808080" begin="arrowLeft.mouseover" end="arrowLeft.mouseout"/>
                  </use>
                  <path fill="none" stroke="white" stroke-width="1.5" d="M0,-3.0v7 M-2.5,-0.5L0,-3.0L2.5,-0.5"/>
                </g>
        </g>
        <svg viewBox="0 0 15 15" width="100%" height="30px" preserveAspectRatio="xMaxYMin meet">
         <g id="arrow_out" transform="scale(0.3 0.3)">
          <a xlink:href="struct_vis___selection_list_a98a278dcbeb54ceca2c997f2dc7ea580_icgraph_org.svg" target="_base">
           <rect id="button" ry="5" rx="5" y="6" x="6" height="38" width="38"
                fill="#f2f5e9" fill-opacity="0.5" stroke="#606060" stroke-width="1.0"/>
           <path id="arrow"
             d="M 11.500037,31.436501 C 11.940474,20.09759 22.043105,11.32322 32.158766,21.979434 L 37.068811,17.246167 C 37.068811,17.246167 37.088388,32 37.088388,32 L 22.160133,31.978069 C 22.160133,31.978069 26.997745,27.140456 26.997745,27.140456 C 18.528582,18.264221 13.291696,25.230495 11.500037,31.436501 z"
             style="fill:#404040;"/>
          </a>
         </g>
        </svg>
</svg>
