<?xml version="1.0" encoding="UTF-8" standalone="no"?>
<!DOCTYPE svg PUBLIC "-//W3C//DTD SVG 1.1//EN"
 "http://www.w3.org/Graphics/SVG/1.1/DTD/svg11.dtd">
<!-- Generated by graphviz version 2.38.0 (20140413.2041)
 -->
<!-- Title: sub_448CF4_spawn_monsters Pages: 1 -->
<svg width="1515pt" height="797pt"
 viewBox="0.00 0.00 1515.00 797.00" xmlns="http://www.w3.org/2000/svg" xmlns:xlink="http://www.w3.org/1999/xlink">
<g id="graph0" class="graph" transform="scale(1 1) rotate(0) translate(4 793)">
<title>sub_448CF4_spawn_monsters</title>
<polygon fill="white" stroke="none" points="-4,4 -4,-793 1511,-793 1511,4 -4,4"/>
<!-- Node1 -->
<g id="node1" class="node"><title>Node1</title>
<g id="a_node1"><a xlink:title=" ">
<polygon fill="#bfbfbf" stroke="black" points="0,-731.5 0,-750.5 150,-750.5 150,-731.5 0,-731.5"/>
<text text-anchor="middle" x="75" y="-738.5" font-family="Helvetica,sans-Serif" font-size="10.00">sub_448CF4_spawn_monsters</text>
</a>
</g>
</g>
<!-- Node2 -->
<g id="node2" class="node"><title>Node2</title>
<g id="a_node2"><a xlink:href="../../da/d35/struct_actor.html#a1263c7717de137c127b39df0cf4593c0" target="_top" xlink:title=" ">
<polygon fill="white" stroke="black" points="186,-769.5 186,-788.5 301,-788.5 301,-769.5 186,-769.5"/>
<text text-anchor="middle" x="243.5" y="-776.5" font-family="Helvetica,sans-Serif" font-size="10.00">Actor::GetDirectionInfo</text>
</a>
</g>
</g>
<!-- Node1&#45;&gt;Node2 -->
<g id="edge1" class="edge"><title>Node1&#45;&gt;Node2</title>
<path fill="none" stroke="midnightblue" d="M118.015,-750.589C140.184,-755.649 167.573,-761.9 191.011,-767.249"/>
<polygon fill="midnightblue" stroke="midnightblue" points="190.259,-770.667 200.787,-769.48 191.817,-763.843 190.259,-770.667"/>
</g>
<!-- Node4 -->
<g id="node4" class="node"><title>Node4</title>
<g id="a_node4"><a xlink:href="../../d0/d23/struct_map_stats.html#ad630f43cd5e7e239cd8a3c363ccdd605" target="_top" xlink:title=" ">
<polygon fill="white" stroke="black" points="186.5,-731.5 186.5,-750.5 300.5,-750.5 300.5,-731.5 186.5,-731.5"/>
<text text-anchor="middle" x="243.5" y="-738.5" font-family="Helvetica,sans-Serif" font-size="10.00">MapStats::GetMapInfo</text>
</a>
</g>
</g>
<!-- Node1&#45;&gt;Node4 -->
<g id="edge3" class="edge"><title>Node1&#45;&gt;Node4</title>
<path fill="none" stroke="midnightblue" d="M150.484,-741C158.979,-741 167.597,-741 175.979,-741"/>
<polygon fill="midnightblue" stroke="midnightblue" points="176.062,-744.5 186.062,-741 176.062,-737.5 176.062,-744.5"/>
</g>
<!-- Node6 -->
<g id="node6" class="node"><title>Node6</title>
<g id="a_node6"><a xlink:href="../../d4/d59/_actor_8cpp.html#a3d61576804a4e75939248d3f8a1d152d" target="_top" xlink:title=" ">
<polygon fill="white" stroke="black" points="198.5,-535.5 198.5,-554.5 288.5,-554.5 288.5,-535.5 198.5,-535.5"/>
<text text-anchor="middle" x="243.5" y="-542.5" font-family="Helvetica,sans-Serif" font-size="10.00">SpawnEncounter</text>
</a>
</g>
</g>
<!-- Node1&#45;&gt;Node6 -->
<g id="edge5" class="edge"><title>Node1&#45;&gt;Node6</title>
<path fill="none" stroke="midnightblue" d="M84.2568,-731.28C110.721,-700.127 193.683,-602.466 227.712,-562.408"/>
<polygon fill="midnightblue" stroke="midnightblue" points="230.387,-564.666 234.193,-554.778 225.052,-560.134 230.387,-564.666"/>
</g>
<!-- Node3 -->
<g id="node3" class="node"><title>Node3</title>
<g id="a_node3"><a xlink:href="../../d6/d38/structstru193__math.html#ae5c580a8915049b2fe00949acf3ca728" target="_top" xlink:title=" ">
<polygon fill="white" stroke="black" points="369,-769.5 369,-788.5 476,-788.5 476,-769.5 369,-769.5"/>
<text text-anchor="middle" x="422.5" y="-776.5" font-family="Helvetica,sans-Serif" font-size="10.00">stru193_math::Atan2</text>
</a>
</g>
</g>
<!-- Node2&#45;&gt;Node3 -->
<g id="edge2" class="edge"><title>Node2&#45;&gt;Node3</title>
<path fill="none" stroke="midnightblue" d="M301.478,-779C319.726,-779 340.03,-779 358.671,-779"/>
<polygon fill="midnightblue" stroke="midnightblue" points="358.832,-782.5 368.832,-779 358.832,-775.5 358.832,-782.5"/>
</g>
<!-- Node5 -->
<g id="node5" class="node"><title>Node5</title>
<g id="a_node5"><a xlink:href="../../d8/d44/_strings_8cpp.html#ae591bae1416df2b3638ae859ad4ede6f" target="_top" xlink:title=" ">
<polygon fill="white" stroke="black" points="389.5,-731.5 389.5,-750.5 455.5,-750.5 455.5,-731.5 389.5,-731.5"/>
<text text-anchor="middle" x="422.5" y="-738.5" font-family="Helvetica,sans-Serif" font-size="10.00">MakeLower</text>
</a>
</g>
</g>
<!-- Node4&#45;&gt;Node5 -->
<g id="edge4" class="edge"><title>Node4&#45;&gt;Node5</title>
<path fill="none" stroke="midnightblue" d="M300.504,-741C326.001,-741 355.677,-741 379.258,-741"/>
<polygon fill="midnightblue" stroke="midnightblue" points="379.293,-744.5 389.293,-741 379.293,-737.5 379.293,-744.5"/>
</g>
<!-- Node7 -->
<g id="node7" class="node"><title>Node7</title>
<g id="a_node7"><a xlink:href="../../d1/d4a/_indoor_8cpp.html#a9f015948918fdfd24b973465eca17c78" target="_top" xlink:title=" ">
<polygon fill="white" stroke="black" points="372.5,-415.5 372.5,-434.5 472.5,-434.5 472.5,-415.5 372.5,-415.5"/>
<text text-anchor="middle" x="422.5" y="-422.5" font-family="Helvetica,sans-Serif" font-size="10.00">BLV_GetFloorLevel</text>
</a>
</g>
</g>
<!-- Node6&#45;&gt;Node7 -->
<g id="edge6" class="edge"><title>Node6&#45;&gt;Node7</title>
<path fill="none" stroke="midnightblue" d="M250.32,-535.431C263.209,-515.115 296.267,-467.606 337,-444 344.751,-439.508 353.471,-436.078 362.289,-433.459"/>
<polygon fill="midnightblue" stroke="midnightblue" points="363.464,-436.768 372.24,-430.832 361.678,-430 363.464,-436.768"/>
</g>
<!-- Node11 -->
<g id="node11" class="node"><title>Node11</title>
<g id="a_node11"><a xlink:href="../../de/db6/_our_math_8cpp.html#abc4811d26f9864e00046c39c39d65680" target="_top" xlink:title=" ">
<polygon fill="white" stroke="black" points="578.5,-491.5 578.5,-510.5 646.5,-510.5 646.5,-491.5 578.5,-491.5"/>
<text text-anchor="middle" x="612.5" y="-498.5" font-family="Helvetica,sans-Serif" font-size="10.00">fixpoint_mul</text>
</a>
</g>
</g>
<!-- Node6&#45;&gt;Node11 -->
<g id="edge14" class="edge"><title>Node6&#45;&gt;Node11</title>
<path fill="none" stroke="midnightblue" d="M254.227,-554.648C269.996,-569.531 302.835,-597.47 337,-608 409.629,-630.384 438.029,-637.667 508,-608 550.62,-589.93 584.268,-544.765 600.634,-519.266"/>
<polygon fill="midnightblue" stroke="midnightblue" points="603.742,-520.896 606.043,-510.554 597.795,-517.204 603.742,-520.896"/>
</g>
<!-- Node12 -->
<g id="node12" class="node"><title>Node12</title>
<g id="a_node12"><a xlink:href="../../d6/d38/structstru193__math.html#a7a4a47e93ff200721e19681b71783c51" target="_top" xlink:title=" ">
<polygon fill="white" stroke="black" points="563,-674.5 563,-693.5 662,-693.5 662,-674.5 563,-674.5"/>
<text text-anchor="middle" x="612.5" y="-681.5" font-family="Helvetica,sans-Serif" font-size="10.00">stru193_math::Cos</text>
</a>
</g>
</g>
<!-- Node6&#45;&gt;Node12 -->
<g id="edge11" class="edge"><title>Node6&#45;&gt;Node12</title>
<path fill="none" stroke="midnightblue" d="M247.431,-554.825C256.005,-581.561 283.853,-655.528 337,-684 410.313,-723.275 511.241,-709.001 568.06,-695.936"/>
<polygon fill="midnightblue" stroke="midnightblue" points="568.89,-699.336 577.802,-693.607 567.262,-692.528 568.89,-699.336"/>
</g>
<!-- Node13 -->
<g id="node13" class="node"><title>Node13</title>
<g id="a_node13"><a xlink:href="../../d4/d68/_engine_8cpp.html#a1cd3528b0bd43ba7c76cceb5ad5a568b" target="_top" xlink:title=" ">
<polygon fill="white" stroke="black" points="343,-579.5 343,-598.5 502,-598.5 502,-579.5 343,-579.5"/>
<text text-anchor="middle" x="422.5" y="-586.5" font-family="Helvetica,sans-Serif" font-size="10.00">Engine_DeinitializeAndTerminate</text>
</a>
</g>
</g>
<!-- Node6&#45;&gt;Node13 -->
<g id="edge12" class="edge"><title>Node6&#45;&gt;Node13</title>
<path fill="none" stroke="midnightblue" d="M280.476,-554.526C297.577,-559.005 318.321,-564.367 337,-569 347.755,-571.668 359.299,-574.452 370.294,-577.066"/>
<polygon fill="midnightblue" stroke="midnightblue" points="369.66,-580.513 380.197,-579.411 371.273,-573.701 369.66,-580.513"/>
</g>
<!-- Node14 -->
<g id="node14" class="node"><title>Node14</title>
<g id="a_node14"><a xlink:href="../../d3/df5/struct_monster_stats.html#a8d977d7a1cdf09210ab5f45c17688f8b" target="_top" xlink:title=" ">
<polygon fill="white" stroke="black" points="355,-530 355,-560 490,-560 490,-530 355,-530"/>
<text text-anchor="start" x="363" y="-548" font-family="Helvetica,sans-Serif" font-size="10.00">MonsterStats::FindMonster</text>
<text text-anchor="middle" x="422.5" y="-537" font-family="Helvetica,sans-Serif" font-size="10.00">ByTextureName</text>
</a>
</g>
</g>
<!-- Node6&#45;&gt;Node14 -->
<g id="edge13" class="edge"><title>Node6&#45;&gt;Node14</title>
<path fill="none" stroke="midnightblue" d="M288.708,-545C305.633,-545 325.47,-545 344.575,-545"/>
<polygon fill="midnightblue" stroke="midnightblue" points="344.784,-548.5 354.784,-545 344.784,-541.5 344.784,-548.5"/>
</g>
<!-- Node15 -->
<g id="node15" class="node"><title>Node15</title>
<g id="a_node15"><a xlink:href="../../d5/da3/struct_monster_list.html#a051d1f7284d296b9f50686ab1abce9d9" target="_top" xlink:title=" ">
<polygon fill="white" stroke="black" points="337,-491.5 337,-510.5 508,-510.5 508,-491.5 337,-491.5"/>
<text text-anchor="middle" x="422.5" y="-498.5" font-family="Helvetica,sans-Serif" font-size="10.00">MonsterList::GetMonsterIDByName</text>
</a>
</g>
</g>
<!-- Node6&#45;&gt;Node15 -->
<g id="edge15" class="edge"><title>Node6&#45;&gt;Node15</title>
<path fill="none" stroke="midnightblue" d="M278.673,-535.389C296.086,-530.588 317.622,-524.795 337,-520 346.852,-517.562 357.384,-515.089 367.551,-512.768"/>
<polygon fill="midnightblue" stroke="midnightblue" points="368.577,-516.125 377.559,-510.506 367.033,-509.297 368.577,-516.125"/>
</g>
<!-- Node16 -->
<g id="node16" class="node"><title>Node16</title>
<g id="a_node16"><a xlink:href="../../d6/d9e/struct_indoor_location.html#aaaf5a1255bb773cc796685052c9abd29" target="_top" xlink:title=" ">
<polygon fill="white" stroke="black" points="357.5,-453.5 357.5,-472.5 487.5,-472.5 487.5,-453.5 357.5,-453.5"/>
<text text-anchor="middle" x="422.5" y="-460.5" font-family="Helvetica,sans-Serif" font-size="10.00">IndoorLocation::GetSector</text>
</a>
</g>
</g>
<!-- Node6&#45;&gt;Node16 -->
<g id="edge16" class="edge"><title>Node6&#45;&gt;Node16</title>
<path fill="none" stroke="midnightblue" d="M255.634,-535.321C272.221,-521.415 304.918,-495.926 337,-482 342.793,-479.485 348.96,-477.284 355.221,-475.362"/>
<polygon fill="midnightblue" stroke="midnightblue" points="356.431,-478.657 365.099,-472.565 354.524,-471.922 356.431,-478.657"/>
</g>
<!-- Node17 -->
<g id="node17" class="node"><title>Node17</title>
<g id="a_node17"><a xlink:href="../../da/d35/struct_actor.html#ac3f39cb6143ea7882ed29dec01edb589" target="_top" xlink:title=" ">
<polygon fill="white" stroke="black" points="367.5,-323.5 367.5,-342.5 477.5,-342.5 477.5,-323.5 367.5,-323.5"/>
<text text-anchor="middle" x="422.5" y="-330.5" font-family="Helvetica,sans-Serif" font-size="10.00">Actor::PrepareSprites</text>
</a>
</g>
</g>
<!-- Node6&#45;&gt;Node17 -->
<g id="edge19" class="edge"><title>Node6&#45;&gt;Node17</title>
<path fill="none" stroke="midnightblue" d="M249.748,-535.268C262.72,-511.677 298.079,-450.133 337,-406 356.284,-384.133 382.073,-362.765 400.069,-348.856"/>
<polygon fill="midnightblue" stroke="midnightblue" points="402.376,-351.499 408.214,-342.658 398.137,-345.928 402.376,-351.499"/>
</g>
<!-- Node35 -->
<g id="node35" class="node"><title>Node35</title>
<g id="a_node35"><a xlink:href="../../d6/d70/class_log.html#ac0de2621497ca3b2fbf208624c08bcdf" target="_top" xlink:title=" ">
<polygon fill="white" stroke="black" points="751.5,-0.5 751.5,-19.5 825.5,-19.5 825.5,-0.5 751.5,-0.5"/>
<text text-anchor="middle" x="788.5" y="-7.5" font-family="Helvetica,sans-Serif" font-size="10.00">Log::Warning</text>
</a>
</g>
</g>
<!-- Node6&#45;&gt;Node35 -->
<g id="edge48" class="edge"><title>Node6&#45;&gt;Node35</title>
<path fill="none" stroke="midnightblue" d="M246.979,-535.125C255.61,-501.921 286.593,-392.012 337,-314 408.988,-202.588 433.184,-171.901 544,-99 606.397,-57.952 690.211,-32.7243 741.461,-20.0542"/>
<polygon fill="midnightblue" stroke="midnightblue" points="742.362,-23.4372 751.261,-17.6867 740.718,-16.633 742.362,-23.4372"/>
</g>
<!-- Node36 -->
<g id="node36" class="node"><title>Node36</title>
<g id="a_node36"><a xlink:href="../../d6/d38/structstru193__math.html#a9bd57620c86e36d03d93f2306f8ab80a" target="_top" xlink:title=" ">
<polygon fill="white" stroke="black" points="374.5,-655.5 374.5,-674.5 470.5,-674.5 470.5,-655.5 374.5,-655.5"/>
<text text-anchor="middle" x="422.5" y="-662.5" font-family="Helvetica,sans-Serif" font-size="10.00">stru193_math::Sin</text>
</a>
</g>
</g>
<!-- Node6&#45;&gt;Node36 -->
<g id="edge46" class="edge"><title>Node6&#45;&gt;Node36</title>
<path fill="none" stroke="midnightblue" d="M250.951,-554.503C264.544,-573.788 298.1,-617.663 337,-641 345.347,-646.008 354.785,-650.01 364.251,-653.197"/>
<polygon fill="midnightblue" stroke="midnightblue" points="363.493,-656.626 374.08,-656.232 365.557,-649.938 363.493,-656.626"/>
</g>
<!-- Node8 -->
<g id="node8" class="node"><title>Node8</title>
<g id="a_node8"><a xlink:href="../../d9/d30/_s_d_l__assert_8h.html#afedcea68cf85ee469ab1ea390bbe0abb" target="_top" xlink:title=" ">
<polygon fill="white" stroke="black" points="1430,-290.5 1430,-309.5 1507,-309.5 1507,-290.5 1430,-290.5"/>
<text text-anchor="middle" x="1468.5" y="-297.5" font-family="Helvetica,sans-Serif" font-size="10.00">__debugbreak</text>
</a>
</g>
</g>
<!-- Node7&#45;&gt;Node8 -->
<g id="edge7" class="edge"><title>Node7&#45;&gt;Node8</title>
<path fill="none" stroke="midnightblue" d="M472.661,-425C542.604,-425 674.856,-425 787.5,-425 787.5,-425 787.5,-425 1157.5,-425 1194.09,-425 1368.94,-372.087 1394,-359 1415.34,-347.857 1436.43,-330.035 1450.5,-316.891"/>
<polygon fill="midnightblue" stroke="midnightblue" points="1453.13,-319.223 1457.93,-309.779 1448.29,-314.167 1453.13,-319.223"/>
</g>
<!-- Node9 -->
<g id="node9" class="node"><title>Node9</title>
<g id="a_node9"><a xlink:href="../../d9/ded/struct_b_l_v_face.html#aa265acfdce5d21ef5d46c0a8b83fc719" target="_top" xlink:title=" ">
<polygon fill="white" stroke="black" points="563,-377.5 563,-396.5 662,-396.5 662,-377.5 563,-377.5"/>
<text text-anchor="middle" x="612.5" y="-384.5" font-family="Helvetica,sans-Serif" font-size="10.00">BLVFace::Ethereal</text>
</a>
</g>
</g>
<!-- Node7&#45;&gt;Node9 -->
<g id="edge8" class="edge"><title>Node7&#45;&gt;Node9</title>
<path fill="none" stroke="midnightblue" d="M470.94,-415.411C496.308,-410.284 527.727,-403.933 554.423,-398.537"/>
<polygon fill="midnightblue" stroke="midnightblue" points="555.292,-401.932 564.401,-396.52 553.906,-395.071 555.292,-401.932"/>
</g>
<!-- Node10 -->
<g id="node10" class="node"><title>Node10</title>
<g id="a_node10"><a xlink:href="../../de/db6/_our_math_8cpp.html#a26d802a4465483f7c2f89657b75c9ebe" target="_top" xlink:title=" ">
<polygon fill="white" stroke="black" points="580.5,-453.5 580.5,-472.5 644.5,-472.5 644.5,-453.5 580.5,-453.5"/>
<text text-anchor="middle" x="612.5" y="-460.5" font-family="Helvetica,sans-Serif" font-size="10.00">fixpoint_div</text>
</a>
</g>
</g>
<!-- Node7&#45;&gt;Node10 -->
<g id="edge9" class="edge"><title>Node7&#45;&gt;Node10</title>
<path fill="none" stroke="midnightblue" d="M470.94,-434.589C501.591,-440.784 541.078,-448.766 570.391,-454.691"/>
<polygon fill="midnightblue" stroke="midnightblue" points="569.809,-458.144 580.304,-456.694 571.196,-451.283 569.809,-458.144"/>
</g>
<!-- Node7&#45;&gt;Node11 -->
<g id="edge10" class="edge"><title>Node7&#45;&gt;Node11</title>
<path fill="none" stroke="midnightblue" d="M472.688,-430.957C484.758,-433.769 497.28,-437.908 508,-444 528.226,-455.495 524.087,-469.971 544,-482 551.49,-486.524 560.095,-490.006 568.598,-492.673"/>
<polygon fill="midnightblue" stroke="midnightblue" points="567.887,-496.109 578.461,-495.445 569.781,-489.37 567.887,-496.109"/>
</g>
<!-- Node16&#45;&gt;Node10 -->
<g id="edge17" class="edge"><title>Node16&#45;&gt;Node10</title>
<path fill="none" stroke="midnightblue" d="M487.673,-463C514.915,-463 545.885,-463 570.039,-463"/>
<polygon fill="midnightblue" stroke="midnightblue" points="570.279,-466.5 580.279,-463 570.279,-459.5 570.279,-466.5"/>
</g>
<!-- Node16&#45;&gt;Node11 -->
<g id="edge18" class="edge"><title>Node16&#45;&gt;Node11</title>
<path fill="none" stroke="midnightblue" d="M470.94,-472.589C500.91,-478.647 539.327,-486.412 568.422,-492.293"/>
<polygon fill="midnightblue" stroke="midnightblue" points="567.8,-495.738 578.295,-494.288 569.187,-488.876 567.8,-495.738"/>
</g>
<!-- Node18 -->
<g id="node18" class="node"><title>Node18</title>
<g id="a_node18"><a xlink:href="../../de/da7/struct_sprite_frame_table.html#aa747f09694e5f633ee156ef8de5d07f5" target="_top" xlink:title=" ">
<polygon fill="white" stroke="black" points="544,-318 544,-348 681,-348 681,-318 544,-318"/>
<text text-anchor="start" x="552" y="-336" font-family="Helvetica,sans-Serif" font-size="10.00">SpriteFrameTable::FastFind</text>
<text text-anchor="middle" x="612.5" y="-325" font-family="Helvetica,sans-Serif" font-size="10.00">Sprite</text>
</a>
</g>
</g>
<!-- Node17&#45;&gt;Node18 -->
<g id="edge20" class="edge"><title>Node17&#45;&gt;Node18</title>
<path fill="none" stroke="midnightblue" d="M477.625,-333C495.095,-333 514.822,-333 533.656,-333"/>
<polygon fill="midnightblue" stroke="midnightblue" points="533.706,-336.5 543.706,-333 533.705,-329.5 533.706,-336.5"/>
</g>
<!-- Node20 -->
<g id="node20" class="node"><title>Node20</title>
<g id="a_node20"><a xlink:href="../../de/da7/struct_sprite_frame_table.html#a1d390b4fbe5985c715439289d806b3c4" target="_top" xlink:title=" ">
<polygon fill="white" stroke="black" points="545.5,-109 545.5,-139 679.5,-139 679.5,-109 545.5,-109"/>
<text text-anchor="start" x="553.5" y="-127" font-family="Helvetica,sans-Serif" font-size="10.00">SpriteFrameTable::Initialize</text>
<text text-anchor="middle" x="612.5" y="-116" font-family="Helvetica,sans-Serif" font-size="10.00">Sprite</text>
</a>
</g>
</g>
<!-- Node17&#45;&gt;Node20 -->
<g id="edge22" class="edge"><title>Node17&#45;&gt;Node20</title>
<path fill="none" stroke="midnightblue" d="M432.066,-323.477C460.189,-292.213 550.214,-192.132 591.033,-146.753"/>
<polygon fill="midnightblue" stroke="midnightblue" points="593.744,-148.973 597.829,-139.198 588.539,-144.292 593.744,-148.973"/>
</g>
<!-- Node19 -->
<g id="node19" class="node"><title>Node19</title>
<g id="a_node19"><a xlink:href="../../de/da7/struct_sprite_frame_table.html#a5097f4a92066463ac557b4b1928a2181" target="_top" xlink:title=" ">
<polygon fill="white" stroke="black" points="725,-318 725,-348 852,-348 852,-318 725,-318"/>
<text text-anchor="start" x="733" y="-336" font-family="Helvetica,sans-Serif" font-size="10.00">SpriteFrameTable::Binary</text>
<text text-anchor="middle" x="788.5" y="-325" font-family="Helvetica,sans-Serif" font-size="10.00">Search</text>
</a>
</g>
</g>
<!-- Node18&#45;&gt;Node19 -->
<g id="edge21" class="edge"><title>Node18&#45;&gt;Node19</title>
<path fill="none" stroke="midnightblue" d="M681.271,-333C692.23,-333 703.617,-333 714.689,-333"/>
<polygon fill="midnightblue" stroke="midnightblue" points="714.747,-336.5 724.747,-333 714.747,-329.5 714.747,-336.5"/>
</g>
<!-- Node20&#45;&gt;Node8 -->
<g id="edge23" class="edge"><title>Node20&#45;&gt;Node8</title>
<path fill="none" stroke="midnightblue" d="M655.073,-108.985C720.222,-86.8361 850.745,-48 965,-48 965,-48 965,-48 1157.5,-48 1271.8,-48 1311.21,-70.2011 1394,-149 1433.29,-186.401 1454.3,-249.201 1462.84,-280.722"/>
<polygon fill="midnightblue" stroke="midnightblue" points="1459.47,-281.663 1465.35,-290.475 1466.25,-279.918 1459.47,-281.663"/>
</g>
<!-- Node21 -->
<g id="node21" class="node"><title>Node21</title>
<g id="a_node21"><a xlink:href="../../d3/db3/struct_palette_manager.html#ad6074b75afa72d582b5aa98816670e49" target="_top" xlink:title=" ">
<polygon fill="white" stroke="black" points="717,-260.5 717,-279.5 860,-279.5 860,-260.5 717,-260.5"/>
<text text-anchor="middle" x="788.5" y="-267.5" font-family="Helvetica,sans-Serif" font-size="10.00">PaletteManager::LoadPalette</text>
</a>
</g>
</g>
<!-- Node20&#45;&gt;Node21 -->
<g id="edge24" class="edge"><title>Node20&#45;&gt;Node21</title>
<path fill="none" stroke="midnightblue" d="M631.466,-139.075C664.445,-166.747 734.36,-225.411 768.263,-253.859"/>
<polygon fill="midnightblue" stroke="midnightblue" points="766.152,-256.656 776.062,-260.403 770.652,-251.294 766.152,-256.656"/>
</g>
<!-- Node29 -->
<g id="node29" class="node"><title>Node29</title>
<g id="a_node29"><a xlink:href="../../d4/d10/class_l_o_d_file___sprites.html#a9196ad3e3bbbfe3a18751a754aff5661" target="_top" xlink:title=" ">
<polygon fill="white" stroke="black" points="718.5,-114.5 718.5,-133.5 858.5,-133.5 858.5,-114.5 718.5,-114.5"/>
<text text-anchor="middle" x="788.5" y="-121.5" font-family="Helvetica,sans-Serif" font-size="10.00">LODFile_Sprites::LoadSprite</text>
</a>
</g>
</g>
<!-- Node20&#45;&gt;Node29 -->
<g id="edge37" class="edge"><title>Node20&#45;&gt;Node29</title>
<path fill="none" stroke="midnightblue" d="M679.778,-124C689.018,-124 698.588,-124 708.039,-124"/>
<polygon fill="midnightblue" stroke="midnightblue" points="708.226,-127.5 718.226,-124 708.226,-120.5 708.226,-127.5"/>
</g>
<!-- Node20&#45;&gt;Node35 -->
<g id="edge45" class="edge"><title>Node20&#45;&gt;Node35</title>
<path fill="none" stroke="midnightblue" d="M629.341,-108.869C653.34,-86.1852 698.113,-44.8626 717,-34 724.655,-29.5976 733.243,-25.836 741.722,-22.6866"/>
<polygon fill="midnightblue" stroke="midnightblue" points="742.899,-25.9828 751.192,-19.3895 740.597,-19.372 742.899,-25.9828"/>
</g>
<!-- Node22 -->
<g id="node22" class="node"><title>Node22</title>
<g id="a_node22"><a xlink:href="../../dc/dc7/_palette_manager_8cpp.html#ac3ff9b1524059bcbd44e6318120c1211" target="_top" xlink:title=" ">
<polygon fill="white" stroke="black" points="1304,-330.5 1304,-349.5 1367,-349.5 1367,-330.5 1304,-330.5"/>
<text text-anchor="middle" x="1335.5" y="-337.5" font-family="Helvetica,sans-Serif" font-size="10.00">HSV2RGB</text>
</a>
</g>
</g>
<!-- Node21&#45;&gt;Node22 -->
<g id="edge25" class="edge"><title>Node21&#45;&gt;Node22</title>
<path fill="none" stroke="midnightblue" d="M814.39,-279.518C828.906,-285.96 846.881,-295.565 860,-308 882.294,-329.132 869.213,-351.965 896,-367 1030.31,-442.386 1225.57,-382.043 1302.06,-353.192"/>
<polygon fill="midnightblue" stroke="midnightblue" points="1303.55,-356.368 1311.62,-349.511 1301.03,-349.835 1303.55,-356.368"/>
</g>
<!-- Node23 -->
<g id="node23" class="node"><title>Node23</title>
<g id="a_node23"><a xlink:href="../../d8/d81/class_l_o_d_file___icons_bitmaps.html#af1497f81fa4c1f6dff3eaf1b6a4144f5" target="_top" xlink:title=" ">
<polygon fill="white" stroke="black" points="907,-202 907,-232 1025,-232 1025,-202 907,-202"/>
<text text-anchor="start" x="915" y="-220" font-family="Helvetica,sans-Serif" font-size="10.00">LODFile_IconsBitmaps</text>
<text text-anchor="middle" x="966" y="-209" font-family="Helvetica,sans-Serif" font-size="10.00">::LoadTextureFromLOD</text>
</a>
</g>
</g>
<!-- Node21&#45;&gt;Node23 -->
<g id="edge27" class="edge"><title>Node21&#45;&gt;Node23</title>
<path fill="none" stroke="midnightblue" d="M821.282,-260.402C844.697,-253.331 877.238,-243.504 905.434,-234.988"/>
<polygon fill="midnightblue" stroke="midnightblue" points="906.644,-238.279 915.205,-232.038 904.62,-231.578 906.644,-238.279"/>
</g>
<!-- Node25 -->
<g id="node25" class="node"><title>Node25</title>
<g id="a_node25"><a xlink:href="../../d3/db3/struct_palette_manager.html#a538015d7dba26a0012f50bc68aee3101" target="_top" xlink:title=" ">
<polygon fill="white" stroke="black" points="897.5,-328 897.5,-358 1034.5,-358 1034.5,-328 897.5,-328"/>
<text text-anchor="start" x="905.5" y="-346" font-family="Helvetica,sans-Serif" font-size="10.00">PaletteManager::MakeBase</text>
<text text-anchor="middle" x="966" y="-335" font-family="Helvetica,sans-Serif" font-size="10.00">PaletteLut</text>
</a>
</g>
</g>
<!-- Node21&#45;&gt;Node25 -->
<g id="edge29" class="edge"><title>Node21&#45;&gt;Node25</title>
<path fill="none" stroke="midnightblue" d="M812.444,-279.543C839.451,-290.777 884.963,-309.708 919.264,-323.976"/>
<polygon fill="midnightblue" stroke="midnightblue" points="918.039,-327.257 928.616,-327.866 920.727,-320.794 918.039,-327.257"/>
</g>
<!-- Node27 -->
<g id="node27" class="node"><title>Node27</title>
<g id="a_node27"><a xlink:href="../../dc/dc7/_palette_manager_8cpp.html#aa590abf1c9bfcecac42541926c9d90f7" target="_top" xlink:title=" ">
<polygon fill="white" stroke="black" points="1304,-290.5 1304,-309.5 1367,-309.5 1367,-290.5 1304,-290.5"/>
<text text-anchor="middle" x="1335.5" y="-297.5" font-family="Helvetica,sans-Serif" font-size="10.00">RGB2HSV</text>
</a>
</g>
</g>
<!-- Node21&#45;&gt;Node27 -->
<g id="edge36" class="edge"><title>Node21&#45;&gt;Node27</title>
<path fill="none" stroke="midnightblue" d="M860.182,-278.678C872.124,-279.939 884.405,-281.11 896,-282 1042.02,-293.209 1215.97,-297.733 1293.59,-299.292"/>
<polygon fill="midnightblue" stroke="midnightblue" points="1293.82,-302.797 1303.89,-299.493 1293.96,-295.798 1293.82,-302.797"/>
</g>
<!-- Node28 -->
<g id="node28" class="node"><title>Node28</title>
<g id="a_node28"><a xlink:href="../../d0/ded/struct_texture___m_m7.html#a5d76b76e8d592e2cc382ca2723774b32" target="_top" xlink:title=" ">
<polygon fill="white" stroke="black" points="1277,-252.5 1277,-271.5 1394,-271.5 1394,-252.5 1277,-252.5"/>
<text text-anchor="middle" x="1335.5" y="-259.5" font-family="Helvetica,sans-Serif" font-size="10.00">Texture_MM7::Release</text>
</a>
</g>
</g>
<!-- Node21&#45;&gt;Node28 -->
<g id="edge34" class="edge"><title>Node21&#45;&gt;Node28</title>
<path fill="none" stroke="midnightblue" d="M860.191,-268.962C965.691,-267.414 1163.01,-264.517 1266.76,-262.994"/>
<polygon fill="midnightblue" stroke="midnightblue" points="1266.86,-266.493 1276.81,-262.847 1266.76,-259.494 1266.86,-266.493"/>
</g>
<!-- Node22&#45;&gt;Node8 -->
<g id="edge26" class="edge"><title>Node22&#45;&gt;Node8</title>
<path fill="none" stroke="midnightblue" d="M1367.21,-330.622C1384.86,-325.234 1407.25,-318.397 1426.39,-312.551"/>
<polygon fill="midnightblue" stroke="midnightblue" points="1427.53,-315.865 1436.07,-309.597 1425.48,-309.17 1427.53,-315.865"/>
</g>
<!-- Node24 -->
<g id="node24" class="node"><title>Node24</title>
<g id="a_node24"><a xlink:href="../../d9/d3e/namespacezlib.html#ae552beaf4387a81c63a28b01a9cc7ab4" target="_top" xlink:title=" ">
<polygon fill="white" stroke="black" points="1110.5,-202.5 1110.5,-221.5 1202.5,-221.5 1202.5,-202.5 1110.5,-202.5"/>
<text text-anchor="middle" x="1156.5" y="-209.5" font-family="Helvetica,sans-Serif" font-size="10.00">zlib::Uncompress</text>
</a>
</g>
</g>
<!-- Node23&#45;&gt;Node24 -->
<g id="edge28" class="edge"><title>Node23&#45;&gt;Node24</title>
<path fill="none" stroke="midnightblue" d="M1025.09,-215.459C1049.03,-214.824 1076.63,-214.092 1100.26,-213.465"/>
<polygon fill="midnightblue" stroke="midnightblue" points="1100.56,-216.959 1110.46,-213.195 1100.37,-209.961 1100.56,-216.959"/>
</g>
<!-- Node26 -->
<g id="node26" class="node"><title>Node26</title>
<g id="a_node26"><a xlink:href="../../d3/db3/struct_palette_manager.html#ae561cf64d07038ce806940d4a64d2088" target="_top" xlink:title=" ">
<polygon fill="white" stroke="black" points="1072,-330.5 1072,-349.5 1241,-349.5 1241,-330.5 1072,-330.5"/>
<text text-anchor="middle" x="1156.5" y="-337.5" font-family="Helvetica,sans-Serif" font-size="10.00">PaletteManager::CalcPalettes_LUT</text>
</a>
</g>
</g>
<!-- Node25&#45;&gt;Node26 -->
<g id="edge30" class="edge"><title>Node25&#45;&gt;Node26</title>
<path fill="none" stroke="midnightblue" d="M1034.52,-341.925C1043.27,-341.786 1052.36,-341.642 1061.44,-341.497"/>
<polygon fill="midnightblue" stroke="midnightblue" points="1061.73,-344.993 1071.67,-341.334 1061.62,-337.994 1061.73,-344.993"/>
</g>
<!-- Node26&#45;&gt;Node22 -->
<g id="edge31" class="edge"><title>Node26&#45;&gt;Node22</title>
<path fill="none" stroke="midnightblue" d="M1241.08,-340C1259.26,-340 1277.72,-340 1293.37,-340"/>
<polygon fill="midnightblue" stroke="midnightblue" points="1293.73,-343.5 1303.73,-340 1293.73,-336.5 1293.73,-343.5"/>
</g>
<!-- Node26&#45;&gt;Node27 -->
<g id="edge32" class="edge"><title>Node26&#45;&gt;Node27</title>
<path fill="none" stroke="midnightblue" d="M1199.9,-330.419C1228.41,-323.976 1265.77,-315.532 1293.9,-309.175"/>
<polygon fill="midnightblue" stroke="midnightblue" points="1294.83,-312.553 1303.81,-306.935 1293.29,-305.726 1294.83,-312.553"/>
</g>
<!-- Node27&#45;&gt;Node8 -->
<g id="edge33" class="edge"><title>Node27&#45;&gt;Node8</title>
<path fill="none" stroke="midnightblue" d="M1367.21,-300C1382.89,-300 1402.32,-300 1419.88,-300"/>
<polygon fill="midnightblue" stroke="midnightblue" points="1419.97,-303.5 1429.97,-300 1419.97,-296.5 1419.97,-303.5"/>
</g>
<!-- Node28&#45;&gt;Node8 -->
<g id="edge35" class="edge"><title>Node28&#45;&gt;Node8</title>
<path fill="none" stroke="midnightblue" d="M1369.56,-271.589C1386.31,-276.449 1406.86,-282.409 1424.8,-287.613"/>
<polygon fill="midnightblue" stroke="midnightblue" points="1423.87,-290.99 1434.45,-290.414 1425.82,-284.267 1423.87,-290.99"/>
</g>
<!-- Node30 -->
<g id="node30" class="node"><title>Node30</title>
<g id="a_node30"><a xlink:href="../../dd/da7/class_l_o_d_1_1_file.html#a3b042a1ac553b2cfdf5b3a1298ce9375" target="_top" xlink:title=" ">
<polygon fill="white" stroke="black" points="1094.5,-117.5 1094.5,-136.5 1218.5,-136.5 1218.5,-117.5 1094.5,-117.5"/>
<text text-anchor="middle" x="1156.5" y="-124.5" font-family="Helvetica,sans-Serif" font-size="10.00">LOD::File::FindContainer</text>
</a>
</g>
</g>
<!-- Node29&#45;&gt;Node30 -->
<g id="edge38" class="edge"><title>Node29&#45;&gt;Node30</title>
<path fill="none" stroke="midnightblue" d="M858.772,-124.568C923.295,-125.097 1019.07,-125.882 1084.23,-126.416"/>
<polygon fill="midnightblue" stroke="midnightblue" points="1084.39,-129.917 1094.41,-126.499 1084.44,-122.917 1084.39,-129.917"/>
</g>
<!-- Node31 -->
<g id="node31" class="node"><title>Node31</title>
<g id="a_node31"><a xlink:href="../../db/dd6/class_assets_manager.html#ae548bd58b748e70c6d31c96e07f2711a" target="_top" xlink:title=" ">
<polygon fill="white" stroke="black" points="900,-76.5 900,-95.5 1032,-95.5 1032,-76.5 900,-76.5"/>
<text text-anchor="middle" x="966" y="-83.5" font-family="Helvetica,sans-Serif" font-size="10.00">AssetsManager::GetSprite</text>
</a>
</g>
</g>
<!-- Node29&#45;&gt;Node31 -->
<g id="edge39" class="edge"><title>Node29&#45;&gt;Node31</title>
<path fill="none" stroke="midnightblue" d="M833.786,-114.411C857.258,-109.329 886.281,-103.045 911.058,-97.6797"/>
<polygon fill="midnightblue" stroke="midnightblue" points="912,-101.057 921.032,-95.5201 910.518,-94.2156 912,-101.057"/>
</g>
<!-- Node32 -->
<g id="node32" class="node"><title>Node32</title>
<g id="a_node32"><a xlink:href="../../d4/d10/class_l_o_d_file___sprites.html#a6704a668ef693d91d861553e1c4d0c49" target="_top" xlink:title=" ">
<polygon fill="white" stroke="black" points="896,-153 896,-183 1036,-183 1036,-153 896,-153"/>
<text text-anchor="start" x="904" y="-171" font-family="Helvetica,sans-Serif" font-size="10.00">LODFile_Sprites::LoadSprite</text>
<text text-anchor="middle" x="966" y="-160" font-family="Helvetica,sans-Serif" font-size="10.00">FromFile</text>
</a>
</g>
</g>
<!-- Node29&#45;&gt;Node32 -->
<g id="edge40" class="edge"><title>Node29&#45;&gt;Node32</title>
<path fill="none" stroke="midnightblue" d="M827.581,-133.547C847.34,-138.501 872.109,-144.711 895.157,-150.49"/>
<polygon fill="midnightblue" stroke="midnightblue" points="894.359,-153.898 904.91,-152.935 896.061,-147.108 894.359,-153.898"/>
</g>
<!-- Node32&#45;&gt;Node24 -->
<g id="edge44" class="edge"><title>Node32&#45;&gt;Node24</title>
<path fill="none" stroke="midnightblue" d="M1031.34,-183.019C1055.41,-188.636 1082.37,-194.93 1105.01,-200.214"/>
<polygon fill="midnightblue" stroke="midnightblue" points="1104.21,-203.623 1114.75,-202.488 1105.81,-196.806 1104.21,-203.623"/>
</g>
<!-- Node32&#45;&gt;Node30 -->
<g id="edge43" class="edge"><title>Node32&#45;&gt;Node30</title>
<path fill="none" stroke="midnightblue" d="M1036.12,-152.966C1057.69,-148.274 1081.16,-143.169 1101.54,-138.738"/>
<polygon fill="midnightblue" stroke="midnightblue" points="1102.55,-142.1 1111.57,-136.554 1101.06,-135.26 1102.55,-142.1"/>
</g>
<!-- Node33 -->
<g id="node33" class="node"><title>Node33</title>
<g id="a_node33"><a xlink:href="../../dd/da7/class_l_o_d_1_1_file.html#a9727a0a74fa79d7c2f968c677320b26f" target="_top" xlink:title=" ">
<polygon fill="white" stroke="black" points="1116.5,-158.5 1116.5,-177.5 1196.5,-177.5 1196.5,-158.5 1116.5,-158.5"/>
<text text-anchor="middle" x="1156.5" y="-165.5" font-family="Helvetica,sans-Serif" font-size="10.00">LOD::File::File</text>
</a>
</g>
</g>
<!-- Node32&#45;&gt;Node33 -->
<g id="edge41" class="edge"><title>Node32&#45;&gt;Node33</title>
<path fill="none" stroke="midnightblue" d="M1036.12,-168C1059.33,-168 1084.73,-168 1106.11,-168"/>
<polygon fill="midnightblue" stroke="midnightblue" points="1106.25,-171.5 1116.25,-168 1106.25,-164.5 1106.25,-171.5"/>
</g>
<!-- Node34 -->
<g id="node34" class="node"><title>Node34</title>
<g id="a_node34"><a xlink:href="../../dd/da7/class_l_o_d_1_1_file.html#ab71fc5e72e25e22a2712c317528db0d9" target="_top" xlink:title=" ">
<polygon fill="white" stroke="black" points="1291,-158.5 1291,-177.5 1380,-177.5 1380,-158.5 1291,-158.5"/>
<text text-anchor="middle" x="1335.5" y="-165.5" font-family="Helvetica,sans-Serif" font-size="10.00">LOD::File::Close</text>
</a>
</g>
</g>
<!-- Node33&#45;&gt;Node34 -->
<g id="edge42" class="edge"><title>Node33&#45;&gt;Node34</title>
<path fill="none" stroke="midnightblue" d="M1196.78,-168C1221.53,-168 1253.8,-168 1280.88,-168"/>
<polygon fill="midnightblue" stroke="midnightblue" points="1280.98,-171.5 1290.98,-168 1280.98,-164.5 1280.98,-171.5"/>
</g>
<!-- Node36&#45;&gt;Node12 -->
<g id="edge47" class="edge"><title>Node36&#45;&gt;Node12</title>
<path fill="none" stroke="midnightblue" d="M470.94,-669.795C495.716,-672.298 526.264,-675.386 552.547,-678.042"/>
<polygon fill="midnightblue" stroke="midnightblue" points="552.463,-681.551 562.764,-679.075 553.167,-674.587 552.463,-681.551"/>
</g>
</g>
</svg>
