<?xml version="1.0" encoding="UTF-8" standalone="no"?>
<!DOCTYPE svg PUBLIC "-//W3C//DTD SVG 1.1//EN"
 "http://www.w3.org/Graphics/SVG/1.1/DTD/svg11.dtd">
<!-- Generated by graphviz version 2.38.0 (20140413.2041)
 -->
<!-- Title: MainMenuLoad_EventLoop Pages: 1 -->
<!--zoomable 242 -->
<svg id="main" version="1.1" xmlns="http://www.w3.org/2000/svg" xmlns:xlink="http://www.w3.org/1999/xlink" xml:space="preserve" onload="init(evt)">
<style type="text/css"><![CDATA[
.edge:hover path { stroke: red; }
.edge:hover polygon { stroke: red; fill: red; }
]]></style>
<script type="text/javascript"><![CDATA[
var edges = document.getElementsByTagName('g');
if (edges && edges.length) {
  for (var i=0;i<edges.length;i++) {
    if (edges[i].id.substr(0,4)=='edge') {
      edges[i].setAttribute('class','edge');
    }
  }
}
]]></script>
        <defs>
                <circle id="rim" cx="0" cy="0" r="7"/>
                <circle id="rim2" cx="0" cy="0" r="3.5"/>
                <g id="zoomPlus">
                        <use xlink:href="#rim" fill="#404040">
                                <set attributeName="fill" to="#808080" begin="zoomplus.mouseover" end="zoomplus.mouseout"/>
                        </use>
                        <path d="M-4,0h8M0,-4v8" fill="none" stroke="white" stroke-width="1.5" pointer-events="none"/>
                </g>
                <g id="zoomMin">
                        <use xlink:href="#rim" fill="#404040">
                                <set attributeName="fill" to="#808080" begin="zoomminus.mouseover" end="zoomminus.mouseout"/>
                        </use>
                        <path d="M-4,0h8" fill="none" stroke="white" stroke-width="1.5" pointer-events="none"/>
                </g>
                <g id="dirArrow">
                        <path fill="none" stroke="white" stroke-width="1.5" d="M0,-3.0v7 M-2.5,-0.5L0,-3.0L2.5,-0.5"/>
                </g>
               <g id="resetDef">
                       <use xlink:href="#rim2" fill="#404040">
                               <set attributeName="fill" to="#808080" begin="reset.mouseover" end="reset.mouseout"/>
                       </use>
               </g>
        </defs>

<script type="text/javascript">
var viewWidth = 795;
var viewHeight = 242;
var sectionId = 'dynsection-2';
</script>
<script xlink:href="../../svgpan.js"/>
<svg id="graph" class="graph">
<g id="viewport">
<title>MainMenuLoad_EventLoop</title>
<polygon fill="white" stroke="none" points="-4,4 -4,-237.5 791,-237.5 791,4 -4,4"/>
<!-- Node1 -->
<g id="node1" class="node"><title>Node1</title>
<g id="a_node1"><a xlink:title=" ">
<polygon fill="#bfbfbf" stroke="black" points="0,-107 0,-126 133,-126 133,-107 0,-107"/>
<text text-anchor="middle" x="66.5" y="-114" font-family="Helvetica,sans-Serif" font-size="10.00">MainMenuLoad_EventLoop</text>
</a>
</g>
</g>
<!-- Node2 -->
<g id="node2" class="node"><title>Node2</title>
<g id="a_node2"><a xlink:href="../../db/dc9/struct_g_u_i_message_queue.html#a7c71ce717335eeb08baed38ddaf6f049" target="_top" xlink:title=" ">
<polygon fill="white" stroke="black" points="183,-214 183,-233 319,-233 319,-214 183,-214"/>
<text text-anchor="middle" x="251" y="-221" font-family="Helvetica,sans-Serif" font-size="10.00">GUIMessageQueue::Empty</text>
</a>
</g>
</g>
<!-- Node1&#45;&gt;Node2 -->
<g id="edge1" class="edge"><title>Node1&#45;&gt;Node2</title>
<path fill="none" stroke="midnightblue" d="M75.633,-126.145C91.5814,-144.403 128.917,-184.021 169,-204.5 173.625,-206.863 178.548,-208.937 183.595,-210.756"/>
<polygon fill="midnightblue" stroke="midnightblue" points="182.814,-214.183 193.406,-213.951 184.981,-207.527 182.814,-214.183"/>
</g>
<!-- Node3 -->
<g id="node3" class="node"><title>Node3</title>
<g id="a_node3"><a xlink:href="../../d3/d10/struct_keyboard_action_mapping.html#a917e9b1ad72a99ff31b4dd3843125b76" target="_top" xlink:title=" ">
<polygon fill="white" stroke="black" points="190,-164.5 190,-194.5 312,-194.5 312,-164.5 190,-164.5"/>
<text text-anchor="start" x="198" y="-182.5" font-family="Helvetica,sans-Serif" font-size="10.00">KeyboardActionMapping</text>
<text text-anchor="middle" x="251" y="-171.5" font-family="Helvetica,sans-Serif" font-size="10.00">::EnterText</text>
</a>
</g>
</g>
<!-- Node1&#45;&gt;Node3 -->
<g id="edge2" class="edge"><title>Node1&#45;&gt;Node3</title>
<path fill="none" stroke="midnightblue" d="M91.9665,-126.122C112.435,-134.059 142.466,-145.447 169,-154.5 175.799,-156.82 182.95,-159.164 190.072,-161.438"/>
<polygon fill="midnightblue" stroke="midnightblue" points="189.139,-164.814 199.729,-164.488 191.248,-158.139 189.139,-164.814"/>
</g>
<!-- Node4 -->
<g id="node4" class="node"><title>Node4</title>
<g id="a_node4"><a xlink:href="../../db/dc9/struct_g_u_i_message_queue.html#a489cd7d7b4d555652da03ff2b783ecdb" target="_top" xlink:title=" ">
<polygon fill="white" stroke="black" points="169,-126 169,-145 333,-145 333,-126 169,-126"/>
<text text-anchor="middle" x="251" y="-133" font-family="Helvetica,sans-Serif" font-size="10.00">GUIMessageQueue::PopMessage</text>
</a>
</g>
</g>
<!-- Node1&#45;&gt;Node4 -->
<g id="edge3" class="edge"><title>Node1&#45;&gt;Node4</title>
<path fill="none" stroke="midnightblue" d="M133.129,-123.333C141.429,-124.197 150.036,-125.093 158.645,-125.989"/>
<polygon fill="midnightblue" stroke="midnightblue" points="158.424,-129.485 168.733,-127.039 159.149,-122.523 158.424,-129.485"/>
</g>
<!-- Node5 -->
<g id="node5" class="node"><title>Node5</title>
<g id="a_node5"><a xlink:href="../../d8/da1/struct_timer.html#ad3b4e386f8ebb885fa2ef6fcac8d9ca3" target="_top" xlink:title=" ">
<polygon fill="white" stroke="black" points="209.5,-88 209.5,-107 292.5,-107 292.5,-88 209.5,-88"/>
<text text-anchor="middle" x="251" y="-95" font-family="Helvetica,sans-Serif" font-size="10.00">Timer::Resume</text>
</a>
</g>
</g>
<!-- Node1&#45;&gt;Node5 -->
<g id="edge4" class="edge"><title>Node1&#45;&gt;Node5</title>
<path fill="none" stroke="midnightblue" d="M133.129,-109.667C154.896,-107.401 178.781,-104.915 199.253,-102.783"/>
<polygon fill="midnightblue" stroke="midnightblue" points="199.726,-106.253 209.31,-101.736 199.001,-99.2906 199.726,-106.253"/>
</g>
<!-- Node10 -->
<g id="node10" class="node"><title>Node10</title>
<g id="a_node10"><a xlink:href="../../dc/dce/_g_u_i_window_8cpp.html#aca0ff8541e8260e43b99836c51395283" target="_top" xlink:title=" ">
<polygon fill="white" stroke="black" points="203,-50 203,-69 299,-69 299,-50 203,-50"/>
<text text-anchor="middle" x="251" y="-57" font-family="Helvetica,sans-Serif" font-size="10.00">SetCurrentMenuID</text>
</a>
</g>
</g>
<!-- Node1&#45;&gt;Node10 -->
<g id="edge9" class="edge"><title>Node1&#45;&gt;Node10</title>
<path fill="none" stroke="midnightblue" d="M90.5922,-106.889C110.979,-98.6374 141.629,-86.7965 169,-78.5 177.336,-75.9732 186.239,-73.5825 194.98,-71.4041"/>
<polygon fill="midnightblue" stroke="midnightblue" points="195.847,-74.7955 204.741,-69.0387 194.198,-67.9924 195.847,-74.7955"/>
</g>
<!-- Node13 -->
<g id="node13" class="node"><title>Node13</title>
<g id="a_node13"><a xlink:href="../../d3/d10/struct_keyboard_action_mapping.html#afe2b117e5c12ab2fad03629f9b696640" target="_top" xlink:title=" ">
<polygon fill="white" stroke="black" points="190,-0.5 190,-30.5 312,-30.5 312,-0.5 190,-0.5"/>
<text text-anchor="start" x="198" y="-18.5" font-family="Helvetica,sans-Serif" font-size="10.00">KeyboardActionMapping</text>
<text text-anchor="middle" x="251" y="-7.5" font-family="Helvetica,sans-Serif" font-size="10.00">::SetWindowInputStatus</text>
</a>
</g>
</g>
<!-- Node1&#45;&gt;Node13 -->
<g id="edge12" class="edge"><title>Node1&#45;&gt;Node13</title>
<path fill="none" stroke="midnightblue" d="M77.6514,-106.984C95.0668,-91.123 132.317,-59.1816 169,-40.5 173.475,-38.2209 178.197,-36.1051 183.019,-34.1497"/>
<polygon fill="midnightblue" stroke="midnightblue" points="184.279,-37.4152 192.38,-30.5861 181.789,-30.8732 184.279,-37.4152"/>
</g>
<!-- Node6 -->
<g id="node6" class="node"><title>Node6</title>
<g id="a_node6"><a xlink:href="../../d3/d10/struct_keyboard_action_mapping.html#ad6ae2db00bf12d5c2913a62b33e6eb87" target="_top" xlink:title=" ">
<polygon fill="white" stroke="black" points="370,-126.5 370,-156.5 492,-156.5 492,-126.5 370,-126.5"/>
<text text-anchor="start" x="378" y="-144.5" font-family="Helvetica,sans-Serif" font-size="10.00">KeyboardActionMapping</text>
<text text-anchor="middle" x="431" y="-133.5" font-family="Helvetica,sans-Serif" font-size="10.00">::ResetKeys</text>
</a>
</g>
</g>
<!-- Node5&#45;&gt;Node6 -->
<g id="edge5" class="edge"><title>Node5&#45;&gt;Node6</title>
<path fill="none" stroke="midnightblue" d="M292.833,-106.895C305.7,-109.904 319.956,-113.29 333,-116.5 342.625,-118.869 352.773,-121.422 362.734,-123.961"/>
<polygon fill="midnightblue" stroke="midnightblue" points="362.05,-127.399 372.606,-126.487 363.786,-120.617 362.05,-127.399"/>
</g>
<!-- Node9 -->
<g id="node9" class="node"><title>Node9</title>
<g id="a_node9"><a xlink:href="../../d8/da1/struct_timer.html#af11deea7dde51d637aec54587820f92b" target="_top" xlink:title=" ">
<polygon fill="white" stroke="black" points="397,-88 397,-107 465,-107 465,-88 397,-88"/>
<text text-anchor="middle" x="431" y="-95" font-family="Helvetica,sans-Serif" font-size="10.00">Timer::Time</text>
</a>
</g>
</g>
<!-- Node5&#45;&gt;Node9 -->
<g id="edge8" class="edge"><title>Node5&#45;&gt;Node9</title>
<path fill="none" stroke="midnightblue" d="M292.837,-97.5C320.901,-97.5 358.108,-97.5 386.689,-97.5"/>
<polygon fill="midnightblue" stroke="midnightblue" points="386.796,-101 396.796,-97.5 386.796,-94.0001 386.796,-101"/>
</g>
<!-- Node7 -->
<g id="node7" class="node"><title>Node7</title>
<g id="a_node7"><a xlink:href="../../d9/d5c/_keyboard_8cpp.html#a9a306ed3c0cd703601061b725374ecf1" target="_top" xlink:title=" ">
<polygon fill="white" stroke="black" points="529,-132 529,-151 630,-151 630,-132 529,-132"/>
<text text-anchor="middle" x="579.5" y="-139" font-family="Helvetica,sans-Serif" font-size="10.00">GetAsyncKeyState</text>
</a>
</g>
</g>
<!-- Node6&#45;&gt;Node7 -->
<g id="edge6" class="edge"><title>Node6&#45;&gt;Node7</title>
<path fill="none" stroke="midnightblue" d="M492.01,-141.5C500.756,-141.5 509.763,-141.5 518.509,-141.5"/>
<polygon fill="midnightblue" stroke="midnightblue" points="518.625,-145 528.625,-141.5 518.625,-138 518.625,-145"/>
</g>
<!-- Node8 -->
<g id="node8" class="node"><title>Node8</title>
<g id="a_node8"><a xlink:href="../../d3/d07/_s_d_l__keyboard_8h.html#a69e91052c1f268c9dd47f255e9f9084a" target="_top" xlink:title="Get a snapshot of the current state of the keyboard.">
<polygon fill="white" stroke="black" points="666,-132 666,-151 787,-151 787,-132 666,-132"/>
<text text-anchor="middle" x="726.5" y="-139" font-family="Helvetica,sans-Serif" font-size="10.00">SDL_GetKeyboardState</text>
</a>
</g>
</g>
<!-- Node7&#45;&gt;Node8 -->
<g id="edge7" class="edge"><title>Node7&#45;&gt;Node8</title>
<path fill="none" stroke="midnightblue" d="M630.401,-141.5C638.496,-141.5 647.009,-141.5 655.477,-141.5"/>
<polygon fill="midnightblue" stroke="midnightblue" points="655.753,-145 665.753,-141.5 655.753,-138 655.753,-145"/>
</g>
<!-- Node11 -->
<g id="node11" class="node"><title>Node11</title>
<g id="a_node11"><a xlink:href="../../dc/dce/_g_u_i_window_8cpp.html#a97e5722a048c30606bca02fc014bbda8" target="_top" xlink:title=" ">
<polygon fill="white" stroke="black" points="369,-50 369,-69 493,-69 493,-50 369,-50"/>
<text text-anchor="middle" x="431" y="-57" font-family="Helvetica,sans-Serif" font-size="10.00">MENU_STATE_to_string</text>
</a>
</g>
</g>
<!-- Node10&#45;&gt;Node11 -->
<g id="edge10" class="edge"><title>Node10&#45;&gt;Node11</title>
<path fill="none" stroke="midnightblue" d="M299.233,-59.5C317.472,-59.5 338.737,-59.5 358.753,-59.5"/>
<polygon fill="midnightblue" stroke="midnightblue" points="358.771,-63.0001 368.771,-59.5 358.771,-56.0001 358.771,-63.0001"/>
</g>
<!-- Node12 -->
<g id="node12" class="node"><title>Node12</title>
<g id="a_node12"><a xlink:href="../../d6/d70/class_log.html#ac0de2621497ca3b2fbf208624c08bcdf" target="_top" xlink:title=" ">
<polygon fill="white" stroke="black" points="394,-12 394,-31 468,-31 468,-12 394,-12"/>
<text text-anchor="middle" x="431" y="-19" font-family="Helvetica,sans-Serif" font-size="10.00">Log::Warning</text>
</a>
</g>
</g>
<!-- Node10&#45;&gt;Node12 -->
<g id="edge11" class="edge"><title>Node10&#45;&gt;Node12</title>
<path fill="none" stroke="midnightblue" d="M296.917,-49.911C323.492,-44.2377 357.083,-37.0666 383.868,-31.3485"/>
<polygon fill="midnightblue" stroke="midnightblue" points="384.722,-34.745 393.771,-29.2342 383.261,-27.8992 384.722,-34.745"/>
</g>
</g>
</svg>
        <g id="navigator" transform="translate(0 0)" fill="#404254">
                <rect fill="#f2f5e9" fill-opacity="0.5" stroke="#606060" stroke-width=".5" x="0" y="0" width="60" height="60"/>
                <use id="zoomplus" xlink:href="#zoomPlus" x="17" y="9" onmousedown="handleZoom(evt,'in')"/>
                <use id="zoomminus" xlink:href="#zoomMin" x="42" y="9" onmousedown="handleZoom(evt,'out')"/>
                <use id="reset" xlink:href="#resetDef" x="30" y="36" onmousedown="handleReset()"/>
                <g id="arrowUp" xlink:href="#dirArrow" transform="translate(30 24)" onmousedown="handlePan(0,-1)">
                  <use xlink:href="#rim" fill="#404040">
                        <set attributeName="fill" to="#808080" begin="arrowUp.mouseover" end="arrowUp.mouseout"/>
                  </use>
                  <path fill="none" stroke="white" stroke-width="1.5" d="M0,-3.0v7 M-2.5,-0.5L0,-3.0L2.5,-0.5"/>
                </g>
                <g id="arrowRight" xlink:href="#dirArrow" transform="rotate(90) translate(36 -43)" onmousedown="handlePan(1,0)">
                  <use xlink:href="#rim" fill="#404040">
                        <set attributeName="fill" to="#808080" begin="arrowRight.mouseover" end="arrowRight.mouseout"/>
                  </use>
                  <path fill="none" stroke="white" stroke-width="1.5" d="M0,-3.0v7 M-2.5,-0.5L0,-3.0L2.5,-0.5"/>
                </g>
                <g id="arrowDown" xlink:href="#dirArrow" transform="rotate(180) translate(-30 -48)" onmousedown="handlePan(0,1)">
                  <use xlink:href="#rim" fill="#404040">
                        <set attributeName="fill" to="#808080" begin="arrowDown.mouseover" end="arrowDown.mouseout"/>
                  </use>
                  <path fill="none" stroke="white" stroke-width="1.5" d="M0,-3.0v7 M-2.5,-0.5L0,-3.0L2.5,-0.5"/>
                </g>
                <g id="arrowLeft" xlink:href="#dirArrow" transform="rotate(270) translate(-36 17)" onmousedown="handlePan(-1,0)">
                  <use xlink:href="#rim" fill="#404040">
                        <set attributeName="fill" to="#808080" begin="arrowLeft.mouseover" end="arrowLeft.mouseout"/>
                  </use>
                  <path fill="none" stroke="white" stroke-width="1.5" d="M0,-3.0v7 M-2.5,-0.5L0,-3.0L2.5,-0.5"/>
                </g>
        </g>
        <svg viewBox="0 0 15 15" width="100%" height="30px" preserveAspectRatio="xMaxYMin meet">
         <g id="arrow_out" transform="scale(0.3 0.3)">
          <a xlink:href="_u_i_save_load_8h_abd4de24186d4c1e4bd57168122bfed9c_cgraph_org.svg" target="_base">
           <rect id="button" ry="5" rx="5" y="6" x="6" height="38" width="38"
                fill="#f2f5e9" fill-opacity="0.5" stroke="#606060" stroke-width="1.0"/>
           <path id="arrow"
             d="M 11.500037,31.436501 C 11.940474,20.09759 22.043105,11.32322 32.158766,21.979434 L 37.068811,17.246167 C 37.068811,17.246167 37.088388,32 37.088388,32 L 22.160133,31.978069 C 22.160133,31.978069 26.997745,27.140456 26.997745,27.140456 C 18.528582,18.264221 13.291696,25.230495 11.500037,31.436501 z"
             style="fill:#404040;"/>
          </a>
         </g>
        </svg>
</svg>
