<?xml version="1.0" encoding="UTF-8" standalone="no"?>
<!DOCTYPE svg PUBLIC "-//W3C//DTD SVG 1.1//EN"
 "http://www.w3.org/Graphics/SVG/1.1/DTD/svg11.dtd">
<!-- Generated by graphviz version 2.38.0 (20140413.2041)
 -->
<!-- Title: AVFrame Pages: 1 -->
<svg width="330pt" height="27pt"
 viewBox="0.00 0.00 330.00 27.00" xmlns="http://www.w3.org/2000/svg" xmlns:xlink="http://www.w3.org/1999/xlink">
<g id="graph0" class="graph" transform="scale(1 1) rotate(0) translate(4 23)">
<title>AVFrame</title>
<polygon fill="white" stroke="none" points="-4,4 -4,-23 326,-23 326,4 -4,4"/>
<!-- Node3 -->
<g id="node1" class="node"><title>Node3</title>
<g id="a_node1"><a xlink:href="../../df/d27/group__lavu__frame__flags.html" target="_top" xlink:title=" ">
<polygon fill="white" stroke="black" points="322,-19 215,-19 215,-0 322,-0 322,-19"/>
<text text-anchor="middle" x="268.5" y="-7" font-family="Helvetica,sans-Serif" font-size="10.00">AV_FRAME_FLAGS</text>
</a>
</g>
</g>
<!-- Node1 -->
<g id="node2" class="node"><title>Node1</title>
<g id="a_node2"><a xlink:title=" ">
<polygon fill="#bfbfbf" stroke="black" points="179,-19 121,-19 121,-0 179,-0 179,-19"/>
<text text-anchor="middle" x="150" y="-7" font-family="Helvetica,sans-Serif" font-size="10.00">AVFrame</text>
</a>
</g>
</g>
<!-- Node1&#45;&gt;Node3 -->
<g id="edge2" class="edge"><title>Node1&#45;&gt;Node3</title>
<path fill="none" stroke="black" d="M189.238,-9.5C197.464,-9.5 206.297,-9.5 214.959,-9.5"/>
<polygon fill="black" stroke="black" points="189.201,-6.0001 179.201,-9.5 189.201,-13.0001 189.201,-6.0001"/>
</g>
<!-- Node2 -->
<g id="node3" class="node"><title>Node2</title>
<g id="a_node3"><a xlink:href="../../d7/df5/group__lavu__data.html" target="_top" xlink:title=" ">
<polygon fill="white" stroke="black" points="85,-19 0,-19 0,-0 85,-0 85,-19"/>
<text text-anchor="middle" x="42.5" y="-7" font-family="Helvetica,sans-Serif" font-size="10.00">Data Structures</text>
</a>
</g>
</g>
<!-- Node2&#45;&gt;Node1 -->
<g id="edge1" class="edge"><title>Node2&#45;&gt;Node1</title>
<path fill="none" stroke="black" d="M95.4351,-9.5C104.218,-9.5 113.032,-9.5 120.901,-9.5"/>
<polygon fill="black" stroke="black" points="95.1964,-6.0001 85.1964,-9.5 95.1964,-13.0001 95.1964,-6.0001"/>
</g>
</g>
</svg>
