<?xml version="1.0" encoding="UTF-8" standalone="no"?>
<!DOCTYPE svg PUBLIC "-//W3C//DTD SVG 1.1//EN"
 "http://www.w3.org/Graphics/SVG/1.1/DTD/svg11.dtd">
<!-- Generated by graphviz version 2.38.0 (20140413.2041)
 -->
<!-- Title: ShopDialogDisplayEquip Pages: 1 -->
<!--zoomable 467 -->
<svg id="main" version="1.1" xmlns="http://www.w3.org/2000/svg" xmlns:xlink="http://www.w3.org/1999/xlink" xml:space="preserve" onload="init(evt)">
<style type="text/css"><![CDATA[
.edge:hover path { stroke: red; }
.edge:hover polygon { stroke: red; fill: red; }
]]></style>
<script type="text/javascript"><![CDATA[
var edges = document.getElementsByTagName('g');
if (edges && edges.length) {
  for (var i=0;i<edges.length;i++) {
    if (edges[i].id.substr(0,4)=='edge') {
      edges[i].setAttribute('class','edge');
    }
  }
}
]]></script>
        <defs>
                <circle id="rim" cx="0" cy="0" r="7"/>
                <circle id="rim2" cx="0" cy="0" r="3.5"/>
                <g id="zoomPlus">
                        <use xlink:href="#rim" fill="#404040">
                                <set attributeName="fill" to="#808080" begin="zoomplus.mouseover" end="zoomplus.mouseout"/>
                        </use>
                        <path d="M-4,0h8M0,-4v8" fill="none" stroke="white" stroke-width="1.5" pointer-events="none"/>
                </g>
                <g id="zoomMin">
                        <use xlink:href="#rim" fill="#404040">
                                <set attributeName="fill" to="#808080" begin="zoomminus.mouseover" end="zoomminus.mouseout"/>
                        </use>
                        <path d="M-4,0h8" fill="none" stroke="white" stroke-width="1.5" pointer-events="none"/>
                </g>
                <g id="dirArrow">
                        <path fill="none" stroke="white" stroke-width="1.5" d="M0,-3.0v7 M-2.5,-0.5L0,-3.0L2.5,-0.5"/>
                </g>
               <g id="resetDef">
                       <use xlink:href="#rim2" fill="#404040">
                               <set attributeName="fill" to="#808080" begin="reset.mouseover" end="reset.mouseout"/>
                       </use>
               </g>
        </defs>

<script type="text/javascript">
var viewWidth = 807;
var viewHeight = 467;
var sectionId = 'dynsection-2';
</script>
<script xlink:href="../../svgpan.js"/>
<svg id="graph" class="graph">
<g id="viewport">
<title>ShopDialogDisplayEquip</title>
<polygon fill="white" stroke="none" points="-4,4 -4,-462.667 803,-462.667 803,4 -4,4"/>
<!-- Node1 -->
<g id="node1" class="node"><title>Node1</title>
<g id="a_node1"><a xlink:title=" ">
<polygon fill="#bfbfbf" stroke="black" points="0,-123.5 0,-142.5 123,-142.5 123,-123.5 0,-123.5"/>
<text text-anchor="middle" x="61.5" y="-130.5" font-family="Helvetica,sans-Serif" font-size="10.00">ShopDialogDisplayEquip</text>
</a>
</g>
</g>
<!-- Node2 -->
<g id="node2" class="node"><title>Node2</title>
<g id="a_node2"><a xlink:href="../../d3/d39/class_g_u_i_font.html#a08b74df638b5c055d9f18f5ce4d8ee11" target="_top" xlink:title=" ">
<polygon fill="white" stroke="black" points="173.5,-423.5 173.5,-442.5 298.5,-442.5 298.5,-423.5 173.5,-423.5"/>
<text text-anchor="middle" x="236" y="-430.5" font-family="Helvetica,sans-Serif" font-size="10.00">GUIFont::CalcTextHeight</text>
</a>
</g>
</g>
<!-- Node1&#45;&gt;Node2 -->
<g id="edge1" class="edge"><title>Node1&#45;&gt;Node2</title>
<path fill="none" stroke="midnightblue" d="M64.8663,-142.539C73.3816,-175.58 104.86,-287.304 159,-364 173.966,-385.201 196.496,-404.608 213.143,-417.402"/>
<polygon fill="midnightblue" stroke="midnightblue" points="211.138,-420.274 221.241,-423.465 215.333,-414.67 211.138,-420.274"/>
</g>
<!-- Node5 -->
<g id="node5" class="node"><title>Node5</title>
<g id="a_node5"><a xlink:href="../../d5/d0b/_g_u_i_window_8h.html#a1a5d18a80c0288f110ddfef767f6aca1" target="_top" xlink:title=" ">
<polygon fill="white" stroke="black" points="159,-161.5 159,-180.5 313,-180.5 313,-161.5 159,-161.5"/>
<text text-anchor="middle" x="236" y="-168.5" font-family="Helvetica,sans-Serif" font-size="10.00">CharacterUI_InventoryTab_Draw</text>
</a>
</g>
</g>
<!-- Node1&#45;&gt;Node5 -->
<g id="edge5" class="edge"><title>Node1&#45;&gt;Node5</title>
<path fill="none" stroke="midnightblue" d="M106.029,-142.589C129.1,-147.671 157.627,-153.955 181.981,-159.32"/>
<polygon fill="midnightblue" stroke="midnightblue" points="181.265,-162.747 191.784,-161.48 182.771,-155.911 181.265,-162.747"/>
</g>
<!-- Node18 -->
<g id="node18" class="node"><title>Node18</title>
<g id="a_node18"><a xlink:href="../../d4/d68/_engine_8cpp.html#a08aa5a1574881457a84b6365c8899183" target="_top" xlink:title=" ">
<polygon fill="white" stroke="black" points="211,-123.5 211,-142.5 261,-142.5 261,-123.5 211,-123.5"/>
<text text-anchor="middle" x="236" y="-130.5" font-family="Helvetica,sans-Serif" font-size="10.00">Color16</text>
</a>
</g>
</g>
<!-- Node1&#45;&gt;Node18 -->
<g id="edge24" class="edge"><title>Node1&#45;&gt;Node18</title>
<path fill="none" stroke="midnightblue" d="M123.317,-133C149.158,-133 178.345,-133 200.399,-133"/>
<polygon fill="midnightblue" stroke="midnightblue" points="200.607,-136.5 210.607,-133 200.607,-129.5 200.607,-136.5"/>
</g>
<!-- Node19 -->
<g id="node19" class="node"><title>Node19</title>
<g id="a_node19"><a xlink:href="../../d5/d0b/_g_u_i_window_8h.html#af6151e5c72717e701f7f8a645e231cb7" target="_top" xlink:title=" ">
<polygon fill="white" stroke="black" points="200.5,-85.5 200.5,-104.5 271.5,-104.5 271.5,-85.5 200.5,-85.5"/>
<text text-anchor="middle" x="236" y="-92.5" font-family="Helvetica,sans-Serif" font-size="10.00">draw_leather</text>
</a>
</g>
</g>
<!-- Node1&#45;&gt;Node19 -->
<g id="edge25" class="edge"><title>Node1&#45;&gt;Node19</title>
<path fill="none" stroke="midnightblue" d="M106.029,-123.411C131.846,-117.724 164.494,-110.532 190.483,-104.807"/>
<polygon fill="midnightblue" stroke="midnightblue" points="191.436,-108.181 200.448,-102.611 189.93,-101.345 191.436,-108.181"/>
</g>
<!-- Node20 -->
<g id="node20" class="node"><title>Node20</title>
<g id="a_node20"><a xlink:href="../../d4/d38/class_g_u_i_window.html#aae805c92b9242bc94cf18c7a702433f7" target="_top" xlink:title=" ">
<polygon fill="white" stroke="black" points="170,-335.5 170,-354.5 302,-354.5 302,-335.5 170,-335.5"/>
<text text-anchor="middle" x="236" y="-342.5" font-family="Helvetica,sans-Serif" font-size="10.00">GUIWindow::DrawTitleText</text>
</a>
</g>
</g>
<!-- Node1&#45;&gt;Node20 -->
<g id="edge26" class="edge"><title>Node1&#45;&gt;Node20</title>
<path fill="none" stroke="midnightblue" d="M70.3602,-142.66C97.2449,-175.701 185.789,-284.52 220.683,-327.405"/>
<polygon fill="midnightblue" stroke="midnightblue" points="218.067,-329.736 227.094,-335.283 223.497,-325.317 218.067,-329.736"/>
</g>
<!-- Node25 -->
<g id="node25" class="node"><title>Node25</title>
<g id="a_node25"><a xlink:href="../../d4/d38/class_g_u_i_window.html#a0c0ea7873e9e250b3bce8f4bd5db60b3" target="_top" xlink:title=" ">
<polygon fill="white" stroke="black" points="176,-47.5 176,-66.5 296,-66.5 296,-47.5 176,-47.5"/>
<text text-anchor="middle" x="236" y="-54.5" font-family="Helvetica,sans-Serif" font-size="10.00">GUIWindow::GetControl</text>
</a>
</g>
</g>
<!-- Node1&#45;&gt;Node25 -->
<g id="edge34" class="edge"><title>Node1&#45;&gt;Node25</title>
<path fill="none" stroke="midnightblue" d="M75.9073,-123.373C93.9695,-110.814 127.496,-88.9224 159,-76 164.946,-73.5612 171.285,-71.3755 177.671,-69.4324"/>
<polygon fill="midnightblue" stroke="midnightblue" points="179.036,-72.683 187.695,-66.5772 177.118,-65.9508 179.036,-72.683"/>
</g>
<!-- Node26 -->
<g id="node26" class="node"><title>Node26</title>
<g id="a_node26"><a xlink:href="../../dd/d88/class_localization.html#a0eb0a17fdf90f6a420eeac65bf62436f" target="_top" xlink:title=" ">
<polygon fill="white" stroke="black" points="178,-9.5 178,-28.5 294,-28.5 294,-9.5 178,-9.5"/>
<text text-anchor="middle" x="236" y="-16.5" font-family="Helvetica,sans-Serif" font-size="10.00">Localization::GetString</text>
</a>
</g>
</g>
<!-- Node1&#45;&gt;Node26 -->
<g id="edge35" class="edge"><title>Node1&#45;&gt;Node26</title>
<path fill="none" stroke="midnightblue" d="M69.5159,-123.21C83.9556,-103.81 119.019,-60.4307 159,-38 162.977,-35.7686 167.216,-33.7959 171.581,-32.0522"/>
<polygon fill="midnightblue" stroke="midnightblue" points="173.04,-35.2475 181.282,-28.5895 170.687,-28.6549 173.04,-35.2475"/>
</g>
<!-- Node3 -->
<g id="node3" class="node"><title>Node3</title>
<g id="a_node3"><a xlink:href="../../d3/d39/class_g_u_i_font.html#acff82a6ae67e879bd76ddc52aa25fe02" target="_top" xlink:title=" ">
<polygon fill="white" stroke="black" points="349,-423.5 349,-442.5 486,-442.5 486,-423.5 349,-423.5"/>
<text text-anchor="middle" x="417.5" y="-430.5" font-family="Helvetica,sans-Serif" font-size="10.00">GUIFont::FitTextInAWindow</text>
</a>
</g>
</g>
<!-- Node2&#45;&gt;Node3 -->
<g id="edge2" class="edge"><title>Node2&#45;&gt;Node3</title>
<path fill="none" stroke="midnightblue" d="M298.523,-433C311.462,-433 325.273,-433 338.72,-433"/>
<polygon fill="midnightblue" stroke="midnightblue" points="338.911,-436.5 348.911,-433 338.91,-429.5 338.911,-436.5"/>
</g>
<!-- Node4 -->
<g id="node4" class="node"><title>Node4</title>
<g id="a_node4"><a xlink:href="../../d3/d39/class_g_u_i_font.html#adfbdd225f4c0eedcbf7e82eecd29e404" target="_top" xlink:title=" ">
<polygon fill="white" stroke="black" points="691,-404.5 691,-423.5 799,-423.5 799,-404.5 691,-404.5"/>
<text text-anchor="middle" x="745" y="-411.5" font-family="Helvetica,sans-Serif" font-size="10.00">GUIFont::IsCharValid</text>
</a>
</g>
</g>
<!-- Node2&#45;&gt;Node4 -->
<g id="edge4" class="edge"><title>Node2&#45;&gt;Node4</title>
<path fill="none" stroke="midnightblue" d="M282.552,-442.512C302.8,-446.278 326.989,-450.146 349,-452 484.683,-463.427 520.816,-460.132 655,-437 670.589,-434.313 687.45,-430.258 702.26,-426.298"/>
<polygon fill="midnightblue" stroke="midnightblue" points="703.425,-429.608 712.144,-423.589 701.575,-422.857 703.425,-429.608"/>
</g>
<!-- Node3&#45;&gt;Node4 -->
<g id="edge3" class="edge"><title>Node3&#45;&gt;Node4</title>
<path fill="none" stroke="midnightblue" d="M486.339,-429.04C543.608,-425.697 624.976,-420.948 680.869,-417.685"/>
<polygon fill="midnightblue" stroke="midnightblue" points="681.219,-421.171 690.998,-417.094 680.811,-414.183 681.219,-421.171"/>
</g>
<!-- Node6 -->
<g id="node6" class="node"><title>Node6</title>
<g id="a_node6"><a xlink:href="../../db/dd5/_u_i_character_8cpp.html#a4f6d9a3745f2f872c7a6a278a3af2c69" target="_top" xlink:title=" ">
<polygon fill="white" stroke="black" points="361,-183.5 361,-202.5 474,-202.5 474,-183.5 361,-183.5"/>
<text text-anchor="middle" x="417.5" y="-190.5" font-family="Helvetica,sans-Serif" font-size="10.00">CharacterUI_DrawItem</text>
</a>
</g>
</g>
<!-- Node5&#45;&gt;Node6 -->
<g id="edge6" class="edge"><title>Node5&#45;&gt;Node6</title>
<path fill="none" stroke="midnightblue" d="M313.124,-180.33C325.665,-181.867 338.57,-183.449 350.828,-184.951"/>
<polygon fill="midnightblue" stroke="midnightblue" points="350.598,-188.449 360.95,-186.192 351.45,-181.501 350.598,-188.449"/>
</g>
<!-- Node7 -->
<g id="node7" class="node"><title>Node7</title>
<g id="a_node7"><a xlink:href="../../d7/d9c/struct_item_gen.html#a670a9aa2c4150975e25bd86af446a89e" target="_top" xlink:title=" ">
<polygon fill="white" stroke="black" points="529,-95.5 529,-114.5 648,-114.5 648,-95.5 529,-95.5"/>
<text text-anchor="middle" x="588.5" y="-102.5" font-family="Helvetica,sans-Serif" font-size="10.00">ItemGen::GetIconName</text>
</a>
</g>
</g>
<!-- Node5&#45;&gt;Node7 -->
<g id="edge18" class="edge"><title>Node5&#45;&gt;Node7</title>
<path fill="none" stroke="midnightblue" d="M287.591,-161.474C350.884,-149.555 459.155,-129.168 526.834,-116.424"/>
<polygon fill="midnightblue" stroke="midnightblue" points="527.744,-119.814 536.924,-114.524 526.449,-112.935 527.744,-119.814"/>
</g>
<!-- Node8 -->
<g id="node8" class="node"><title>Node8</title>
<g id="a_node8"><a xlink:href="../../db/dd6/class_assets_manager.html#a1233dda64079e0eba19f8be51386d029" target="_top" xlink:title=" ">
<polygon fill="white" stroke="black" points="522,-298 522,-328 655,-328 655,-298 522,-298"/>
<text text-anchor="start" x="530" y="-316" font-family="Helvetica,sans-Serif" font-size="10.00">AssetsManager::GetImage</text>
<text text-anchor="middle" x="588.5" y="-305" font-family="Helvetica,sans-Serif" font-size="10.00">_Alpha</text>
</a>
</g>
</g>
<!-- Node5&#45;&gt;Node8 -->
<g id="edge19" class="edge"><title>Node5&#45;&gt;Node8</title>
<path fill="none" stroke="midnightblue" d="M259.826,-180.597C308.073,-200.832 424.035,-249.203 522,-288 527.163,-290.045 532.566,-292.155 537.96,-294.242"/>
<polygon fill="midnightblue" stroke="midnightblue" points="537.015,-297.628 547.605,-297.955 539.53,-291.096 537.015,-297.628"/>
</g>
<!-- Node9 -->
<g id="node9" class="node"><title>Node9</title>
<g id="a_node9"><a xlink:href="../../db/dd6/class_assets_manager.html#ad4ab70fc004c8c5a54756f3d358a8383" target="_top" xlink:title=" ">
<polygon fill="white" stroke="black" points="522,-134 522,-164 655,-164 655,-134 522,-134"/>
<text text-anchor="start" x="530" y="-152" font-family="Helvetica,sans-Serif" font-size="10.00">AssetsManager::GetImage</text>
<text text-anchor="middle" x="588.5" y="-141" font-family="Helvetica,sans-Serif" font-size="10.00">_ColorKey</text>
</a>
</g>
</g>
<!-- Node5&#45;&gt;Node9 -->
<g id="edge20" class="edge"><title>Node5&#45;&gt;Node9</title>
<path fill="none" stroke="midnightblue" d="M313.053,-166.226C371.838,-162.537 452.825,-157.453 511.577,-153.766"/>
<polygon fill="midnightblue" stroke="midnightblue" points="512.148,-157.237 521.909,-153.117 511.71,-150.25 512.148,-157.237"/>
</g>
<!-- Node13 -->
<g id="node13" class="node"><title>Node13</title>
<g id="a_node13"><a xlink:href="../../de/d73/class_image.html#a5093fa64598a4d7e0c70d43fe67e35cd" target="_top" xlink:title=" ">
<polygon fill="white" stroke="black" points="371.5,-57.5 371.5,-76.5 463.5,-76.5 463.5,-57.5 371.5,-57.5"/>
<text text-anchor="middle" x="417.5" y="-64.5" font-family="Helvetica,sans-Serif" font-size="10.00">Image::GetHeight</text>
</a>
</g>
</g>
<!-- Node5&#45;&gt;Node13 -->
<g id="edge13" class="edge"><title>Node5&#45;&gt;Node13</title>
<path fill="none" stroke="midnightblue" d="M295.122,-161.483C301.483,-159.013 307.6,-155.906 313,-152 337.277,-134.439 326.09,-114.311 349,-95 355.978,-89.1186 364.363,-84.3318 372.815,-80.4887"/>
<polygon fill="midnightblue" stroke="midnightblue" points="374.421,-83.6115 382.313,-76.5427 371.735,-77.1471 374.421,-83.6115"/>
</g>
<!-- Node17 -->
<g id="node17" class="node"><title>Node17</title>
<g id="a_node17"><a xlink:href="../../de/d73/class_image.html#a9241b1c53141c78273e4060a91634d47" target="_top" xlink:title=" ">
<polygon fill="white" stroke="black" points="372.5,-19.5 372.5,-38.5 462.5,-38.5 462.5,-19.5 372.5,-19.5"/>
<text text-anchor="middle" x="417.5" y="-26.5" font-family="Helvetica,sans-Serif" font-size="10.00">Image::GetWidth</text>
</a>
</g>
</g>
<!-- Node5&#45;&gt;Node17 -->
<g id="edge21" class="edge"><title>Node5&#45;&gt;Node17</title>
<path fill="none" stroke="midnightblue" d="M298.701,-161.452C303.91,-158.96 308.787,-155.857 313,-152 349.079,-118.973 313.41,-81.554 349,-48 353.041,-44.1897 357.786,-41.134 362.856,-38.6851"/>
<polygon fill="midnightblue" stroke="midnightblue" points="364.282,-41.8841 372.249,-34.9002 361.665,-35.3913 364.282,-41.8841"/>
</g>
<!-- Node6&#45;&gt;Node7 -->
<g id="edge7" class="edge"><title>Node6&#45;&gt;Node7</title>
<path fill="none" stroke="midnightblue" d="M430.206,-183.432C448.673,-168.761 486.163,-140.66 522,-124 526.966,-121.691 532.275,-119.597 537.642,-117.714"/>
<polygon fill="midnightblue" stroke="midnightblue" points="538.886,-120.99 547.302,-114.554 536.71,-114.337 538.886,-120.99"/>
</g>
<!-- Node6&#45;&gt;Node8 -->
<g id="edge8" class="edge"><title>Node6&#45;&gt;Node8</title>
<path fill="none" stroke="midnightblue" d="M437.677,-202.523C452.028,-210.255 471.583,-222.126 486,-236 506.253,-255.492 499.879,-270.656 522,-288 524.29,-289.795 526.723,-291.473 529.253,-293.04"/>
<polygon fill="midnightblue" stroke="midnightblue" points="527.713,-296.188 538.161,-297.949 531.092,-290.057 527.713,-296.188"/>
</g>
<!-- Node6&#45;&gt;Node9 -->
<g id="edge9" class="edge"><title>Node6&#45;&gt;Node9</title>
<path fill="none" stroke="midnightblue" d="M455.17,-183.453C474.113,-178.521 497.837,-172.344 519.947,-166.588"/>
<polygon fill="midnightblue" stroke="midnightblue" points="520.84,-169.972 529.635,-164.065 519.076,-163.198 520.84,-169.972"/>
</g>
<!-- Node10 -->
<g id="node10" class="node"><title>Node10</title>
<g id="a_node10"><a xlink:href="../../d7/d9c/struct_item_gen.html#a89f638c098ccb3134c25d57dd5159cbb" target="_top" xlink:title=" ">
<polygon fill="white" stroke="black" points="539.5,-221.5 539.5,-240.5 637.5,-240.5 637.5,-221.5 539.5,-221.5"/>
<text text-anchor="middle" x="588.5" y="-228.5" font-family="Helvetica,sans-Serif" font-size="10.00">ItemGen::IsBroken</text>
</a>
</g>
</g>
<!-- Node6&#45;&gt;Node10 -->
<g id="edge10" class="edge"><title>Node6&#45;&gt;Node10</title>
<path fill="none" stroke="midnightblue" d="M461.146,-202.589C483.648,-207.649 511.448,-213.9 535.238,-219.249"/>
<polygon fill="midnightblue" stroke="midnightblue" points="534.637,-222.701 545.161,-221.48 536.172,-215.871 534.637,-222.701"/>
</g>
<!-- Node11 -->
<g id="node11" class="node"><title>Node11</title>
<g id="a_node11"><a xlink:href="../../d7/d9c/struct_item_gen.html#ab283ca331d92c7e8980a5b9f0b61d677" target="_top" xlink:title=" ">
<polygon fill="white" stroke="black" points="536,-183.5 536,-202.5 641,-202.5 641,-183.5 536,-183.5"/>
<text text-anchor="middle" x="588.5" y="-190.5" font-family="Helvetica,sans-Serif" font-size="10.00">ItemGen::IsIdentified</text>
</a>
</g>
</g>
<!-- Node6&#45;&gt;Node11 -->
<g id="edge11" class="edge"><title>Node6&#45;&gt;Node11</title>
<path fill="none" stroke="midnightblue" d="M474.305,-193C490.707,-193 508.745,-193 525.509,-193"/>
<polygon fill="midnightblue" stroke="midnightblue" points="525.756,-196.5 535.756,-193 525.756,-189.5 525.756,-196.5"/>
</g>
<!-- Node12 -->
<g id="node12" class="node"><title>Node12</title>
<g id="a_node12"><a xlink:href="../../d4/ddd/_api_8h.html#ac0cda4967d55e3ade51d622720b64936" target="_top" xlink:title=" ">
<polygon fill="white" stroke="black" points="552,-259.5 552,-278.5 625,-278.5 625,-259.5 552,-259.5"/>
<text text-anchor="middle" x="588.5" y="-266.5" font-family="Helvetica,sans-Serif" font-size="10.00">OS_GetTime</text>
</a>
</g>
</g>
<!-- Node6&#45;&gt;Node12 -->
<g id="edge12" class="edge"><title>Node6&#45;&gt;Node12</title>
<path fill="none" stroke="midnightblue" d="M433.405,-202.592C453.061,-214.913 489.026,-236.335 522,-250 528.394,-252.65 535.283,-255.08 542.107,-257.253"/>
<polygon fill="midnightblue" stroke="midnightblue" points="541.409,-260.698 551.995,-260.248 543.439,-253.999 541.409,-260.698"/>
</g>
<!-- Node14 -->
<g id="node14" class="node"><title>Node14</title>
<g id="a_node14"><a xlink:href="../../d9/d30/_s_d_l__assert_8h.html#afedcea68cf85ee469ab1ea390bbe0abb" target="_top" xlink:title=" ">
<polygon fill="white" stroke="black" points="706.5,-38.5 706.5,-57.5 783.5,-57.5 783.5,-38.5 706.5,-38.5"/>
<text text-anchor="middle" x="745" y="-45.5" font-family="Helvetica,sans-Serif" font-size="10.00">__debugbreak</text>
</a>
</g>
</g>
<!-- Node13&#45;&gt;Node14 -->
<g id="edge14" class="edge"><title>Node13&#45;&gt;Node14</title>
<path fill="none" stroke="midnightblue" d="M463.759,-64.3581C524.984,-60.7843 633.709,-54.4379 696.211,-50.7895"/>
<polygon fill="midnightblue" stroke="midnightblue" points="696.425,-54.2831 706.204,-50.2062 696.017,-47.295 696.425,-54.2831"/>
</g>
<!-- Node15 -->
<g id="node15" class="node"><title>Node15</title>
<g id="a_node15"><a xlink:href="../../de/d73/class_image.html#a9b786ec61110907b38dda728bd281c73" target="_top" xlink:title=" ">
<polygon fill="white" stroke="black" points="530.5,-19.5 530.5,-38.5 646.5,-38.5 646.5,-19.5 530.5,-19.5"/>
<text text-anchor="middle" x="588.5" y="-26.5" font-family="Helvetica,sans-Serif" font-size="10.00">Image::LoadImageData</text>
</a>
</g>
</g>
<!-- Node13&#45;&gt;Node15 -->
<g id="edge15" class="edge"><title>Node13&#45;&gt;Node15</title>
<path fill="none" stroke="midnightblue" d="M461.146,-57.411C483.648,-52.3513 511.448,-46.1004 535.238,-40.7512"/>
<polygon fill="midnightblue" stroke="midnightblue" points="536.172,-44.1286 545.161,-38.5201 534.637,-37.2991 536.172,-44.1286"/>
</g>
<!-- Node15&#45;&gt;Node14 -->
<g id="edge16" class="edge"><title>Node15&#45;&gt;Node14</title>
<path fill="none" stroke="midnightblue" d="M646.591,-36.0209C662.95,-38.0327 680.606,-40.204 696.335,-42.1383"/>
<polygon fill="midnightblue" stroke="midnightblue" points="696.007,-45.6242 706.359,-43.3711 696.861,-38.6766 696.007,-45.6242"/>
</g>
<!-- Node16 -->
<g id="node16" class="node"><title>Node16</title>
<g id="a_node16"><a xlink:href="../../d7/d42/class_image_loader.html#ad346c7973ae6f1d84a8c1fc655661319" target="_top" xlink:title=" ">
<polygon fill="white" stroke="black" points="695.5,-0.5 695.5,-19.5 794.5,-19.5 794.5,-0.5 695.5,-0.5"/>
<text text-anchor="middle" x="745" y="-7.5" font-family="Helvetica,sans-Serif" font-size="10.00">ImageLoader::Load</text>
</a>
</g>
</g>
<!-- Node15&#45;&gt;Node16 -->
<g id="edge17" class="edge"><title>Node15&#45;&gt;Node16</title>
<path fill="none" stroke="midnightblue" d="M646.591,-21.9791C659.207,-20.4276 672.594,-18.7813 685.274,-17.222"/>
<polygon fill="midnightblue" stroke="midnightblue" points="685.765,-20.6881 695.263,-15.9936 684.91,-13.7404 685.765,-20.6881"/>
</g>
<!-- Node17&#45;&gt;Node14 -->
<g id="edge22" class="edge"><title>Node17&#45;&gt;Node14</title>
<path fill="none" stroke="midnightblue" d="M452.736,-19.4867C499.235,-8.08638 584.63,7.43054 655,-10 672.561,-14.3498 674.443,-21.7069 691,-29 695.688,-31.065 700.678,-33.0808 705.649,-34.9809"/>
<polygon fill="midnightblue" stroke="midnightblue" points="704.509,-38.2911 715.103,-38.4751 706.936,-31.7252 704.509,-38.2911"/>
</g>
<!-- Node17&#45;&gt;Node15 -->
<g id="edge23" class="edge"><title>Node17&#45;&gt;Node15</title>
<path fill="none" stroke="midnightblue" d="M462.903,-29C480.394,-29 500.87,-29 520.11,-29"/>
<polygon fill="midnightblue" stroke="midnightblue" points="520.34,-32.5001 530.34,-29 520.34,-25.5001 520.34,-32.5001"/>
</g>
<!-- Node20&#45;&gt;Node3 -->
<g id="edge32" class="edge"><title>Node20&#45;&gt;Node3</title>
<path fill="none" stroke="midnightblue" d="M249.791,-354.538C269.939,-369.168 310.724,-397.215 349,-414 354.357,-416.349 360.081,-418.486 365.845,-420.407"/>
<polygon fill="midnightblue" stroke="midnightblue" points="364.937,-423.79 375.526,-423.436 367.028,-417.11 364.937,-423.79"/>
</g>
<!-- Node21 -->
<g id="node21" class="node"><title>Node21</title>
<g id="a_node21"><a xlink:href="../../d3/d39/class_g_u_i_font.html#a9fa3825419fdf34ded3536e27bccbfdf" target="_top" xlink:title=" ">
<polygon fill="white" stroke="black" points="368,-374 368,-404 467,-404 467,-374 368,-374"/>
<text text-anchor="start" x="376" y="-392" font-family="Helvetica,sans-Serif" font-size="10.00">GUIFont::AlignText</text>
<text text-anchor="middle" x="417.5" y="-381" font-family="Helvetica,sans-Serif" font-size="10.00">_Center</text>
</a>
</g>
</g>
<!-- Node20&#45;&gt;Node21 -->
<g id="edge27" class="edge"><title>Node20&#45;&gt;Node21</title>
<path fill="none" stroke="midnightblue" d="M275.949,-354.547C299.812,-360.397 330.819,-367.998 357.637,-374.571"/>
<polygon fill="midnightblue" stroke="midnightblue" points="357.14,-378.053 367.686,-377.034 358.807,-371.254 357.14,-378.053"/>
</g>
<!-- Node23 -->
<g id="node23" class="node"><title>Node23</title>
<g id="a_node23"><a xlink:href="../../d3/d39/class_g_u_i_font.html#af8449e36ee49ae96e21f4406b398a010" target="_top" xlink:title=" ">
<polygon fill="white" stroke="black" points="359,-297.5 359,-316.5 476,-316.5 476,-297.5 359,-297.5"/>
<text text-anchor="middle" x="417.5" y="-304.5" font-family="Helvetica,sans-Serif" font-size="10.00">GUIFont::DrawTextLine</text>
</a>
</g>
</g>
<!-- Node20&#45;&gt;Node23 -->
<g id="edge30" class="edge"><title>Node20&#45;&gt;Node23</title>
<path fill="none" stroke="midnightblue" d="M282.295,-335.411C306.409,-330.306 336.251,-323.989 361.667,-318.608"/>
<polygon fill="midnightblue" stroke="midnightblue" points="362.472,-322.015 371.53,-316.52 361.022,-315.167 362.472,-322.015"/>
</g>
<!-- Node24 -->
<g id="node24" class="node"><title>Node24</title>
<g id="a_node24"><a xlink:href="../../d3/d39/class_g_u_i_font.html#a439cccf73db5fd93ffc18cbba51d07e0" target="_top" xlink:title=" ">
<polygon fill="white" stroke="black" points="366.5,-335.5 366.5,-354.5 468.5,-354.5 468.5,-335.5 366.5,-335.5"/>
<text text-anchor="middle" x="417.5" y="-342.5" font-family="Helvetica,sans-Serif" font-size="10.00">GUIFont::GetHeight</text>
</a>
</g>
</g>
<!-- Node20&#45;&gt;Node24 -->
<g id="edge33" class="edge"><title>Node20&#45;&gt;Node24</title>
<path fill="none" stroke="midnightblue" d="M302.057,-345C319.754,-345 338.84,-345 356.257,-345"/>
<polygon fill="midnightblue" stroke="midnightblue" points="356.297,-348.5 366.296,-345 356.296,-341.5 356.297,-348.5"/>
</g>
<!-- Node22 -->
<g id="node22" class="node"><title>Node22</title>
<g id="a_node22"><a xlink:href="../../d3/d39/class_g_u_i_font.html#abf5dc44bc1b328f80d5c7033279a4f8d" target="_top" xlink:title=" ">
<polygon fill="white" stroke="black" points="529.5,-385.5 529.5,-404.5 647.5,-404.5 647.5,-385.5 529.5,-385.5"/>
<text text-anchor="middle" x="588.5" y="-392.5" font-family="Helvetica,sans-Serif" font-size="10.00">GUIFont::GetLineWidth</text>
</a>
</g>
</g>
<!-- Node21&#45;&gt;Node22 -->
<g id="edge28" class="edge"><title>Node21&#45;&gt;Node22</title>
<path fill="none" stroke="midnightblue" d="M467.382,-390.735C483.599,-391.311 501.958,-391.963 519.355,-392.581"/>
<polygon fill="midnightblue" stroke="midnightblue" points="519.346,-396.082 529.464,-392.94 519.594,-389.087 519.346,-396.082"/>
</g>
<!-- Node22&#45;&gt;Node4 -->
<g id="edge29" class="edge"><title>Node22&#45;&gt;Node4</title>
<path fill="none" stroke="midnightblue" d="M647.91,-402.183C658.595,-403.497 669.792,-404.874 680.614,-406.205"/>
<polygon fill="midnightblue" stroke="midnightblue" points="680.493,-409.716 690.845,-407.463 681.347,-402.769 680.493,-409.716"/>
</g>
<!-- Node23&#45;&gt;Node4 -->
<g id="edge31" class="edge"><title>Node23&#45;&gt;Node4</title>
<path fill="none" stroke="midnightblue" d="M453.626,-316.547C464.074,-319.479 475.526,-322.782 486,-326 502.122,-330.953 505.888,-333.016 522,-338 580.73,-356.169 597.062,-355.445 655,-376 674.987,-383.091 696.901,-392.427 713.983,-400.072"/>
<polygon fill="midnightblue" stroke="midnightblue" points="712.878,-403.413 723.432,-404.347 715.764,-397.035 712.878,-403.413"/>
</g>
</g>
</svg>
        <g id="navigator" transform="translate(0 0)" fill="#404254">
                <rect fill="#f2f5e9" fill-opacity="0.5" stroke="#606060" stroke-width=".5" x="0" y="0" width="60" height="60"/>
                <use id="zoomplus" xlink:href="#zoomPlus" x="17" y="9" onmousedown="handleZoom(evt,'in')"/>
                <use id="zoomminus" xlink:href="#zoomMin" x="42" y="9" onmousedown="handleZoom(evt,'out')"/>
                <use id="reset" xlink:href="#resetDef" x="30" y="36" onmousedown="handleReset()"/>
                <g id="arrowUp" xlink:href="#dirArrow" transform="translate(30 24)" onmousedown="handlePan(0,-1)">
                  <use xlink:href="#rim" fill="#404040">
                        <set attributeName="fill" to="#808080" begin="arrowUp.mouseover" end="arrowUp.mouseout"/>
                  </use>
                  <path fill="none" stroke="white" stroke-width="1.5" d="M0,-3.0v7 M-2.5,-0.5L0,-3.0L2.5,-0.5"/>
                </g>
                <g id="arrowRight" xlink:href="#dirArrow" transform="rotate(90) translate(36 -43)" onmousedown="handlePan(1,0)">
                  <use xlink:href="#rim" fill="#404040">
                        <set attributeName="fill" to="#808080" begin="arrowRight.mouseover" end="arrowRight.mouseout"/>
                  </use>
                  <path fill="none" stroke="white" stroke-width="1.5" d="M0,-3.0v7 M-2.5,-0.5L0,-3.0L2.5,-0.5"/>
                </g>
                <g id="arrowDown" xlink:href="#dirArrow" transform="rotate(180) translate(-30 -48)" onmousedown="handlePan(0,1)">
                  <use xlink:href="#rim" fill="#404040">
                        <set attributeName="fill" to="#808080" begin="arrowDown.mouseover" end="arrowDown.mouseout"/>
                  </use>
                  <path fill="none" stroke="white" stroke-width="1.5" d="M0,-3.0v7 M-2.5,-0.5L0,-3.0L2.5,-0.5"/>
                </g>
                <g id="arrowLeft" xlink:href="#dirArrow" transform="rotate(270) translate(-36 17)" onmousedown="handlePan(-1,0)">
                  <use xlink:href="#rim" fill="#404040">
                        <set attributeName="fill" to="#808080" begin="arrowLeft.mouseover" end="arrowLeft.mouseout"/>
                  </use>
                  <path fill="none" stroke="white" stroke-width="1.5" d="M0,-3.0v7 M-2.5,-0.5L0,-3.0L2.5,-0.5"/>
                </g>
        </g>
        <svg viewBox="0 0 15 15" width="100%" height="30px" preserveAspectRatio="xMaxYMin meet">
         <g id="arrow_out" transform="scale(0.3 0.3)">
          <a xlink:href="_u_i_shops_8cpp_a8c9338c42b60cb39edc4053538666149_cgraph_org.svg" target="_base">
           <rect id="button" ry="5" rx="5" y="6" x="6" height="38" width="38"
                fill="#f2f5e9" fill-opacity="0.5" stroke="#606060" stroke-width="1.0"/>
           <path id="arrow"
             d="M 11.500037,31.436501 C 11.940474,20.09759 22.043105,11.32322 32.158766,21.979434 L 37.068811,17.246167 C 37.068811,17.246167 37.088388,32 37.088388,32 L 22.160133,31.978069 C 22.160133,31.978069 26.997745,27.140456 26.997745,27.140456 C 18.528582,18.264221 13.291696,25.230495 11.500037,31.436501 z"
             style="fill:#404040;"/>
          </a>
         </g>
        </svg>
</svg>
