<?xml version="1.0" encoding="UTF-8" standalone="no"?>
<!DOCTYPE svg PUBLIC "-//W3C//DTD SVG 1.1//EN"
 "http://www.w3.org/Graphics/SVG/1.1/DTD/svg11.dtd">
<!-- Generated by graphviz version 2.38.0 (20140413.2041)
 -->
<!-- Title: ShopDialogMain Pages: 1 -->
<svg width="608pt" height="142pt"
 viewBox="0.00 0.00 608.00 142.00" xmlns="http://www.w3.org/2000/svg" xmlns:xlink="http://www.w3.org/1999/xlink">
<g id="graph0" class="graph" transform="scale(1 1) rotate(0) translate(4 138)">
<title>ShopDialogMain</title>
<polygon fill="white" stroke="none" points="-4,4 -4,-138 604,-138 604,4 -4,4"/>
<!-- Node1 -->
<g id="node1" class="node"><title>Node1</title>
<g id="a_node1"><a xlink:title=" ">
<polygon fill="#bfbfbf" stroke="black" points="513,-57.5 513,-76.5 600,-76.5 600,-57.5 513,-57.5"/>
<text text-anchor="middle" x="556.5" y="-64.5" font-family="Helvetica,sans-Serif" font-size="10.00">ShopDialogMain</text>
</a>
</g>
</g>
<!-- Node2 -->
<g id="node2" class="node"><title>Node2</title>
<g id="a_node2"><a xlink:href="../../d9/d21/_u_i_shops_8cpp.html#a9611aa004e0f31fd99be43d980eb28d5" target="_top" xlink:title=" ">
<polygon fill="white" stroke="black" points="382.5,-114.5 382.5,-133.5 469.5,-133.5 469.5,-114.5 382.5,-114.5"/>
<text text-anchor="middle" x="426" y="-121.5" font-family="Helvetica,sans-Serif" font-size="10.00">AlchemistDialog</text>
</a>
</g>
</g>
<!-- Node1&#45;&gt;Node2 -->
<g id="edge1" class="edge"><title>Node1&#45;&gt;Node2</title>
<path fill="none" stroke="midnightblue" d="M527.817,-81.1347C512.907,-88.5607 494.109,-97.6251 477,-105 469.41,-108.272 461.055,-111.565 453.383,-114.469"/>
<polygon fill="midnightblue" stroke="midnightblue" points="529.631,-84.1406 536.997,-76.5256 526.49,-77.8848 529.631,-84.1406"/>
</g>
<!-- Node5 -->
<g id="node5" class="node"><title>Node5</title>
<g id="a_node5"><a xlink:href="../../d9/d21/_u_i_shops_8cpp.html#ac6a6b5f0e1883960347080bc9e45f894" target="_top" xlink:title=" ">
<polygon fill="white" stroke="black" points="380,-76.5 380,-95.5 472,-95.5 472,-76.5 380,-76.5"/>
<text text-anchor="middle" x="426" y="-83.5" font-family="Helvetica,sans-Serif" font-size="10.00">ArmorShopDialog</text>
</a>
</g>
</g>
<!-- Node1&#45;&gt;Node5 -->
<g id="edge4" class="edge"><title>Node1&#45;&gt;Node5</title>
<path fill="none" stroke="midnightblue" d="M502.755,-74.7988C492.629,-76.2961 482.109,-77.8516 472.245,-79.3101"/>
<polygon fill="midnightblue" stroke="midnightblue" points="503.331,-78.2519 512.711,-73.3267 502.307,-71.3271 503.331,-78.2519"/>
</g>
<!-- Node6 -->
<g id="node6" class="node"><title>Node6</title>
<g id="a_node6"><a xlink:href="../../d9/d21/_u_i_shops_8cpp.html#ae4ce274e60dd3f8b559423cbb991361d" target="_top" xlink:title=" ">
<polygon fill="white" stroke="black" points="380,-38.5 380,-57.5 472,-57.5 472,-38.5 380,-38.5"/>
<text text-anchor="middle" x="426" y="-45.5" font-family="Helvetica,sans-Serif" font-size="10.00">MagicShopDialog</text>
</a>
</g>
</g>
<!-- Node1&#45;&gt;Node6 -->
<g id="edge6" class="edge"><title>Node1&#45;&gt;Node6</title>
<path fill="none" stroke="midnightblue" d="M502.755,-59.2012C492.629,-57.7039 482.109,-56.1484 472.245,-54.6899"/>
<polygon fill="midnightblue" stroke="midnightblue" points="502.307,-62.6729 512.711,-60.6733 503.331,-55.7481 502.307,-62.6729"/>
</g>
<!-- Node7 -->
<g id="node7" class="node"><title>Node7</title>
<g id="a_node7"><a xlink:href="../../d9/d21/_u_i_shops_8cpp.html#af61c121dc37dbb99e2b840b538ec6f1e" target="_top" xlink:title=" ">
<polygon fill="white" stroke="black" points="375,-0.5 375,-19.5 477,-19.5 477,-0.5 375,-0.5"/>
<text text-anchor="middle" x="426" y="-7.5" font-family="Helvetica,sans-Serif" font-size="10.00">WeaponShopDialog</text>
</a>
</g>
</g>
<!-- Node1&#45;&gt;Node7 -->
<g id="edge8" class="edge"><title>Node1&#45;&gt;Node7</title>
<path fill="none" stroke="midnightblue" d="M527.817,-52.8653C512.907,-45.4393 494.109,-36.3749 477,-29 469.41,-25.7285 461.055,-22.4352 453.383,-19.5308"/>
<polygon fill="midnightblue" stroke="midnightblue" points="526.49,-56.1152 536.997,-57.4744 529.631,-49.8594 526.49,-56.1152"/>
</g>
<!-- Node3 -->
<g id="node3" class="node"><title>Node3</title>
<g id="a_node3"><a xlink:href="../../d4/d38/class_g_u_i_window.html#af4310ff80f340b9a9c9b3249564a0960" target="_top" xlink:title=" ">
<polygon fill="white" stroke="black" points="173,-57.5 173,-76.5 339,-76.5 339,-57.5 173,-57.5"/>
<text text-anchor="middle" x="256" y="-64.5" font-family="Helvetica,sans-Serif" font-size="10.00">GUIWindow::HouseDialogManager</text>
</a>
</g>
</g>
<!-- Node2&#45;&gt;Node3 -->
<g id="edge2" class="edge"><title>Node2&#45;&gt;Node3</title>
<path fill="none" stroke="midnightblue" d="M387.298,-111.208C356.356,-100.71 313.228,-86.0772 285.211,-76.5716"/>
<polygon fill="midnightblue" stroke="midnightblue" points="386.286,-114.561 396.881,-114.459 388.535,-107.932 386.286,-114.561"/>
</g>
<!-- Node4 -->
<g id="node4" class="node"><title>Node4</title>
<g id="a_node4"><a xlink:href="../../d8/ddd/class_g_u_i_window___house.html#a27de5de37c96fb176d5d12465e59ccc7" target="_top" xlink:title=" ">
<polygon fill="white" stroke="black" points="0,-57.5 0,-76.5 137,-76.5 137,-57.5 0,-57.5"/>
<text text-anchor="middle" x="68.5" y="-64.5" font-family="Helvetica,sans-Serif" font-size="10.00">GUIWindow_House::Update</text>
</a>
</g>
</g>
<!-- Node3&#45;&gt;Node4 -->
<g id="edge3" class="edge"><title>Node3&#45;&gt;Node4</title>
<path fill="none" stroke="midnightblue" d="M162.731,-67C154.114,-67 145.491,-67 137.16,-67"/>
<polygon fill="midnightblue" stroke="midnightblue" points="162.827,-70.5001 172.827,-67 162.827,-63.5001 162.827,-70.5001"/>
</g>
<!-- Node5&#45;&gt;Node3 -->
<g id="edge5" class="edge"><title>Node5&#45;&gt;Node3</title>
<path fill="none" stroke="midnightblue" d="M369.932,-79.7721C360.054,-78.6549 349.567,-77.4689 339.12,-76.2874"/>
<polygon fill="midnightblue" stroke="midnightblue" points="369.649,-83.2623 379.979,-80.9083 370.436,-76.3066 369.649,-83.2623"/>
</g>
<!-- Node6&#45;&gt;Node3 -->
<g id="edge7" class="edge"><title>Node6&#45;&gt;Node3</title>
<path fill="none" stroke="midnightblue" d="M369.932,-54.2279C360.054,-55.3451 349.567,-56.5311 339.12,-57.7126"/>
<polygon fill="midnightblue" stroke="midnightblue" points="370.436,-57.6934 379.979,-53.0917 369.649,-50.7377 370.436,-57.6934"/>
</g>
<!-- Node7&#45;&gt;Node3 -->
<g id="edge9" class="edge"><title>Node7&#45;&gt;Node3</title>
<path fill="none" stroke="midnightblue" d="M387.298,-22.7919C356.356,-33.2898 313.228,-47.9228 285.211,-57.4284"/>
<polygon fill="midnightblue" stroke="midnightblue" points="388.535,-26.068 396.881,-19.5405 386.286,-19.4391 388.535,-26.068"/>
</g>
</g>
</svg>
