<?xml version="1.0" encoding="UTF-8" standalone="no"?>
<!DOCTYPE svg PUBLIC "-//W3C//DTD SVG 1.1//EN"
 "http://www.w3.org/Graphics/SVG/1.1/DTD/svg11.dtd">
<!-- Generated by graphviz version 2.38.0 (20140413.2041)
 -->
<!-- Title: stru9::AreVectorsCollinear Pages: 1 -->
<svg width="455pt" height="75pt"
 viewBox="0.00 0.00 455.00 75.00" xmlns="http://www.w3.org/2000/svg" xmlns:xlink="http://www.w3.org/1999/xlink">
<g id="graph0" class="graph" transform="scale(1 1) rotate(0) translate(4 71)">
<title>stru9::AreVectorsCollinear</title>
<polygon fill="white" stroke="none" points="-4,4 -4,-71 451,-71 451,4 -4,4"/>
<!-- Node1 -->
<g id="node1" class="node"><title>Node1</title>
<g id="a_node1"><a xlink:title=" ">
<polygon fill="#bfbfbf" stroke="black" points="316,-28.5 316,-47.5 447,-47.5 447,-28.5 316,-28.5"/>
<text text-anchor="middle" x="381.5" y="-35.5" font-family="Helvetica,sans-Serif" font-size="10.00">stru9::AreVectorsCollinear</text>
</a>
</g>
</g>
<!-- Node2 -->
<g id="node2" class="node"><title>Node2</title>
<g id="a_node2"><a xlink:href="../../da/d1a/structstru9.html#a55b8e1592eecb724cfd6ecf6fcfb76cd" target="_top" xlink:title=" ">
<polygon fill="white" stroke="black" points="0,-47.5 0,-66.5 83,-66.5 83,-47.5 0,-47.5"/>
<text text-anchor="middle" x="41.5" y="-54.5" font-family="Helvetica,sans-Serif" font-size="10.00">stru9::_4980B9</text>
</a>
</g>
</g>
<!-- Node1&#45;&gt;Node2 -->
<g id="edge1" class="edge"><title>Node1&#45;&gt;Node2</title>
<path fill="none" stroke="midnightblue" d="M329.571,-49.5383C313.772,-52.6013 296.243,-55.4781 280,-57 211.237,-63.443 130.782,-61.4547 83.3727,-59.31"/>
<polygon fill="midnightblue" stroke="midnightblue" points="330.557,-52.9103 339.673,-47.5109 329.18,-46.0471 330.557,-52.9103"/>
</g>
<!-- Node3 -->
<g id="node3" class="node"><title>Node3</title>
<g id="a_node3"><a xlink:href="../../da/d1a/structstru9.html#a8163b4a03068ca4b9627a1550b1c30c4" target="_top" xlink:title=" ">
<polygon fill="white" stroke="black" points="1,-0.5 1,-19.5 82,-19.5 82,-0.5 1,-0.5"/>
<text text-anchor="middle" x="41.5" y="-7.5" font-family="Helvetica,sans-Serif" font-size="10.00">stru9::_498377</text>
</a>
</g>
</g>
<!-- Node1&#45;&gt;Node3 -->
<g id="edge2" class="edge"><title>Node1&#45;&gt;Node3</title>
<path fill="none" stroke="midnightblue" d="M327.832,-26.5145C312.481,-23.5825 295.632,-20.7639 280,-19 210.707,-11.181 129.398,-9.7633 82.1368,-9.70271"/>
<polygon fill="midnightblue" stroke="midnightblue" points="327.189,-29.9549 337.676,-28.4476 328.538,-23.0861 327.189,-29.9549"/>
</g>
<!-- Node4 -->
<g id="node4" class="node"><title>Node4</title>
<g id="a_node4"><a xlink:href="../../da/d1a/structstru9.html#a0f7deb8b6ff330a77c2a7ea9ebdf5fb9" target="_top" xlink:title=" ">
<polygon fill="white" stroke="black" points="119,-28.5 119,-47.5 280,-47.5 280,-28.5 119,-28.5"/>
<text text-anchor="middle" x="199.5" y="-35.5" font-family="Helvetica,sans-Serif" font-size="10.00">stru9::DoDecalVertsNeedClipping</text>
</a>
</g>
</g>
<!-- Node1&#45;&gt;Node4 -->
<g id="edge3" class="edge"><title>Node1&#45;&gt;Node4</title>
<path fill="none" stroke="midnightblue" d="M305.587,-38C297.148,-38 288.526,-38 280.03,-38"/>
<polygon fill="midnightblue" stroke="midnightblue" points="305.77,-41.5001 315.77,-38 305.77,-34.5001 305.77,-41.5001"/>
</g>
<!-- Node4&#45;&gt;Node2 -->
<g id="edge4" class="edge"><title>Node4&#45;&gt;Node2</title>
<path fill="none" stroke="midnightblue" d="M109.914,-48.7893C100.63,-49.92 91.5504,-51.0259 83.2134,-52.0413"/>
<polygon fill="midnightblue" stroke="midnightblue" points="110.54,-52.2391 120.043,-47.5557 109.693,-45.2904 110.54,-52.2391"/>
</g>
<!-- Node4&#45;&gt;Node3 -->
<g id="edge5" class="edge"><title>Node4&#45;&gt;Node3</title>
<path fill="none" stroke="midnightblue" d="M135.405,-26.6752C117.434,-23.4497 98.3673,-20.0275 82.2138,-17.1281"/>
<polygon fill="midnightblue" stroke="midnightblue" points="134.789,-30.1205 145.25,-28.4423 136.026,-23.2306 134.789,-30.1205"/>
</g>
</g>
</svg>
