<?xml version="1.0" encoding="UTF-8" standalone="no"?>
<!DOCTYPE svg PUBLIC "-//W3C//DTD SVG 1.1//EN"
 "http://www.w3.org/Graphics/SVG/1.1/DTD/svg11.dtd">
<!-- Generated by graphviz version 2.38.0 (20140413.2041)
 -->
<!-- Title: _43AFE3_calc_spell_damage Pages: 1 -->
<!--zoomable 502 -->
<svg id="main" version="1.1" xmlns="http://www.w3.org/2000/svg" xmlns:xlink="http://www.w3.org/1999/xlink" xml:space="preserve" onload="init(evt)">
<style type="text/css"><![CDATA[
.edge:hover path { stroke: red; }
.edge:hover polygon { stroke: red; fill: red; }
]]></style>
<script type="text/javascript"><![CDATA[
var edges = document.getElementsByTagName('g');
if (edges && edges.length) {
  for (var i=0;i<edges.length;i++) {
    if (edges[i].id.substr(0,4)=='edge') {
      edges[i].setAttribute('class','edge');
    }
  }
}
]]></script>
        <defs>
                <circle id="rim" cx="0" cy="0" r="7"/>
                <circle id="rim2" cx="0" cy="0" r="3.5"/>
                <g id="zoomPlus">
                        <use xlink:href="#rim" fill="#404040">
                                <set attributeName="fill" to="#808080" begin="zoomplus.mouseover" end="zoomplus.mouseout"/>
                        </use>
                        <path d="M-4,0h8M0,-4v8" fill="none" stroke="white" stroke-width="1.5" pointer-events="none"/>
                </g>
                <g id="zoomMin">
                        <use xlink:href="#rim" fill="#404040">
                                <set attributeName="fill" to="#808080" begin="zoomminus.mouseover" end="zoomminus.mouseout"/>
                        </use>
                        <path d="M-4,0h8" fill="none" stroke="white" stroke-width="1.5" pointer-events="none"/>
                </g>
                <g id="dirArrow">
                        <path fill="none" stroke="white" stroke-width="1.5" d="M0,-3.0v7 M-2.5,-0.5L0,-3.0L2.5,-0.5"/>
                </g>
               <g id="resetDef">
                       <use xlink:href="#rim2" fill="#404040">
                               <set attributeName="fill" to="#808080" begin="reset.mouseover" end="reset.mouseout"/>
                       </use>
               </g>
        </defs>

<script type="text/javascript">
var viewWidth = 2193;
var viewHeight = 502;
var sectionId = 'dynsection-4';
</script>
<script xlink:href="../../svgpan.js"/>
<svg id="graph" class="graph">
<g id="viewport">
<title>_43AFE3_calc_spell_damage</title>
<polygon fill="white" stroke="none" points="-4,4 -4,-497.5 2189,-497.5 2189,4 -4,4"/>
<!-- Node1 -->
<g id="node1" class="node"><title>Node1</title>
<g id="a_node1"><a xlink:title=" ">
<polygon fill="#bfbfbf" stroke="black" points="2079,-237.5 2079,-267.5 2185,-267.5 2185,-237.5 2079,-237.5"/>
<text text-anchor="start" x="2087" y="-255.5" font-family="Helvetica,sans-Serif" font-size="10.00">_43AFE3_calc_spell</text>
<text text-anchor="middle" x="2132" y="-244.5" font-family="Helvetica,sans-Serif" font-size="10.00">_damage</text>
</a>
</g>
</g>
<!-- Node2 -->
<g id="node2" class="node"><title>Node2</title>
<g id="a_node2"><a xlink:href="../../da/d35/struct_actor.html#acf6153d9933d1016328906c7d4f5d952" target="_top" xlink:title=" ">
<polygon fill="white" stroke="black" points="1897,-262 1897,-281 2043,-281 2043,-262 1897,-262"/>
<text text-anchor="middle" x="1970" y="-269" font-family="Helvetica,sans-Serif" font-size="10.00">Actor::_43B3E0_CalcDamage</text>
</a>
</g>
</g>
<!-- Node1&#45;&gt;Node2 -->
<g id="edge1" class="edge"><title>Node1&#45;&gt;Node2</title>
<path fill="none" stroke="midnightblue" d="M2068.63,-259.907C2060.31,-260.894 2051.73,-261.914 2043.26,-262.919"/>
<polygon fill="midnightblue" stroke="midnightblue" points="2069.09,-263.376 2078.61,-258.721 2068.27,-256.425 2069.09,-263.376"/>
</g>
<!-- Node3 -->
<g id="node3" class="node"><title>Node3</title>
<g id="a_node3"><a xlink:href="../../d1/d39/_player_8h.html#a296914f5ab9688709f8a797e52c4866b" target="_top" xlink:title=" ">
<polygon fill="white" stroke="black" points="1722,-260 1722,-279 1860,-279 1860,-260 1722,-260"/>
<text text-anchor="middle" x="1791" y="-267" font-family="Helvetica,sans-Serif" font-size="10.00">DamagePlayerFromMonster</text>
</a>
</g>
</g>
<!-- Node1&#45;&gt;Node3 -->
<g id="edge54" class="edge"><title>Node1&#45;&gt;Node3</title>
<path fill="none" stroke="midnightblue" d="M2068.79,-249.791C2021.57,-248.392 1955.1,-247.827 1897,-252.5 1878.41,-253.995 1858.14,-256.957 1840.42,-259.995"/>
<polygon fill="midnightblue" stroke="midnightblue" points="2068.75,-253.292 2078.86,-250.111 2068.97,-246.296 2068.75,-253.292"/>
</g>
<!-- Node21 -->
<g id="node21" class="node"><title>Node21</title>
<g id="a_node21"><a xlink:href="../../da/d35/struct_actor.html#a28c39c9980f6f643fa3e2d03d68ce4e4" target="_top" xlink:title=" ">
<polygon fill="white" stroke="black" points="1721,-180.5 1721,-210.5 1861,-210.5 1861,-180.5 1721,-180.5"/>
<text text-anchor="start" x="1729" y="-198.5" font-family="Helvetica,sans-Serif" font-size="10.00">Actor::DamageMonsterFrom</text>
<text text-anchor="middle" x="1791" y="-187.5" font-family="Helvetica,sans-Serif" font-size="10.00">Party</text>
</a>
</g>
</g>
<!-- Node1&#45;&gt;Node21 -->
<g id="edge27" class="edge"><title>Node1&#45;&gt;Node21</title>
<path fill="none" stroke="midnightblue" d="M2068.88,-242.054C2010.08,-232.168 1921.98,-217.355 1861.02,-207.105"/>
<polygon fill="midnightblue" stroke="midnightblue" points="2068.33,-245.512 2078.77,-243.719 2069.49,-238.609 2068.33,-245.512"/>
</g>
<!-- Node37 -->
<g id="node37" class="node"><title>Node37</title>
<g id="a_node37"><a xlink:href="../../de/deb/_actor_8h.html#a82d78c6ce98f5d4166408eff8839169d" target="_top" xlink:title=" ">
<polygon fill="white" stroke="black" points="1732.5,-300 1732.5,-319 1849.5,-319 1849.5,-300 1732.5,-300"/>
<text text-anchor="middle" x="1791" y="-307" font-family="Helvetica,sans-Serif" font-size="10.00">ItemDamageFromActor</text>
</a>
</g>
</g>
<!-- Node1&#45;&gt;Node37 -->
<g id="edge55" class="edge"><title>Node1&#45;&gt;Node37</title>
<path fill="none" stroke="midnightblue" d="M2093.41,-272.003C2078.16,-279.039 2060.13,-286.28 2043,-290.5 1978.08,-306.497 1901.1,-310.159 1849.67,-310.517"/>
<polygon fill="midnightblue" stroke="midnightblue" points="2094.98,-275.131 2102.51,-267.678 2091.98,-268.809 2094.98,-275.131"/>
</g>
<!-- Node2&#45;&gt;Node3 -->
<g id="edge2" class="edge"><title>Node2&#45;&gt;Node3</title>
<path fill="none" stroke="midnightblue" d="M1886.72,-270.57C1877.78,-270.469 1868.76,-270.367 1860.02,-270.269"/>
<polygon fill="midnightblue" stroke="midnightblue" points="1886.71,-274.07 1896.75,-270.684 1886.79,-267.071 1886.71,-274.07"/>
</g>
<!-- Node4 -->
<g id="node4" class="node"><title>Node4</title>
<g id="a_node4"><a xlink:href="../../de/deb/_actor_8h.html#aa9d9c1bc5e3c38f0827c69299622b850" target="_top" xlink:title=" ">
<polygon fill="white" stroke="black" points="1563,-297.5 1563,-327.5 1685,-327.5 1685,-297.5 1563,-297.5"/>
<text text-anchor="start" x="1571" y="-315.5" font-family="Helvetica,sans-Serif" font-size="10.00">area_of_effect__damage</text>
<text text-anchor="middle" x="1624" y="-304.5" font-family="Helvetica,sans-Serif" font-size="10.00">_evaluate</text>
</a>
</g>
</g>
<!-- Node3&#45;&gt;Node4 -->
<g id="edge3" class="edge"><title>Node3&#45;&gt;Node4</title>
<path fill="none" stroke="midnightblue" d="M1743.51,-281.615C1724.59,-286.547 1702.51,-292.3 1682.58,-297.494"/>
<polygon fill="midnightblue" stroke="midnightblue" points="1744.59,-284.952 1753.38,-279.043 1742.82,-278.178 1744.59,-284.952"/>
</g>
<!-- Node9 -->
<g id="node9" class="node"><title>Node9</title>
<g id="a_node9"><a xlink:href="../../d9/ded/_sprite_object_8cpp.html#acf99fe98d2a583eb9438b8e21bf7ee07" target="_top" xlink:title=" ">
<polygon fill="white" stroke="black" points="1588,-259 1588,-278 1660,-278 1660,-259 1588,-259"/>
<text text-anchor="middle" x="1624" y="-266" font-family="Helvetica,sans-Serif" font-size="10.00">sub_43A97E</text>
</a>
</g>
</g>
<!-- Node3&#45;&gt;Node9 -->
<g id="edge8" class="edge"><title>Node3&#45;&gt;Node9</title>
<path fill="none" stroke="midnightblue" d="M1711.71,-269.026C1693.74,-268.917 1675.5,-268.806 1660.42,-268.715"/>
<polygon fill="midnightblue" stroke="midnightblue" points="1711.91,-272.527 1721.94,-269.087 1711.96,-265.527 1711.91,-272.527"/>
</g>
<!-- Node5 -->
<g id="node5" class="node"><title>Node5</title>
<g id="a_node5"><a xlink:href="../../de/dcf/_engine_8h.html#a73fe5e8d7dc6ec78e5cc180d1915341b" target="_top" xlink:title=" ">
<polygon fill="white" stroke="black" points="479.5,-346.5 479.5,-376.5 589.5,-376.5 589.5,-346.5 479.5,-346.5"/>
<text text-anchor="start" x="487.5" y="-364.5" font-family="Helvetica,sans-Serif" font-size="10.00">UpdateUserInput_and</text>
<text text-anchor="middle" x="534.5" y="-353.5" font-family="Helvetica,sans-Serif" font-size="10.00">_MapSpecificStuff</text>
</a>
</g>
</g>
<!-- Node4&#45;&gt;Node5 -->
<g id="edge4" class="edge"><title>Node4&#45;&gt;Node5</title>
<path fill="none" stroke="midnightblue" d="M1599.36,-334.534C1545.01,-382.781 1405.13,-493.5 1266,-493.5 1266,-493.5 1266,-493.5 903.5,-493.5 784.549,-493.5 750.898,-484.36 642,-436.5 607.219,-421.214 572.222,-393.691 552.272,-376.575"/>
<polygon fill="midnightblue" stroke="midnightblue" points="1601.95,-336.912 1607.04,-327.621 1597.26,-331.708 1601.95,-336.912"/>
</g>
<!-- Node6 -->
<g id="node6" class="node"><title>Node6</title>
<g id="a_node6"><a xlink:href="../../d4/d06/class_application_1_1_game.html#aaa0ff18388b32b4e6198835a35e000d3" target="_top" xlink:title=" ">
<polygon fill="white" stroke="black" points="320,-219.5 320,-249.5 423,-249.5 423,-219.5 320,-219.5"/>
<text text-anchor="start" x="328" y="-237.5" font-family="Helvetica,sans-Serif" font-size="10.00">Application::Game::</text>
<text text-anchor="middle" x="371.5" y="-226.5" font-family="Helvetica,sans-Serif" font-size="10.00">GameLoop</text>
</a>
</g>
</g>
<!-- Node5&#45;&gt;Node6 -->
<g id="edge5" class="edge"><title>Node5&#45;&gt;Node6</title>
<path fill="none" stroke="midnightblue" d="M501.272,-340.739C489.055,-332.564 475.164,-322.896 463,-313.5 435.931,-292.591 406.403,-266.05 388.676,-249.674"/>
<polygon fill="midnightblue" stroke="midnightblue" points="499.554,-343.799 509.824,-346.402 503.419,-337.963 499.554,-343.799"/>
</g>
<!-- Node7 -->
<g id="node7" class="node"><title>Node7</title>
<g id="a_node7"><a xlink:href="../../d4/d06/class_application_1_1_game.html#a013ffd59e8fdf1c0a396da1dbe1681ca" target="_top" xlink:title=" ">
<polygon fill="white" stroke="black" points="156,-164 156,-183 280,-183 280,-164 156,-164"/>
<text text-anchor="middle" x="218" y="-171" font-family="Helvetica,sans-Serif" font-size="10.00">Application::Game::Loop</text>
</a>
</g>
</g>
<!-- Node6&#45;&gt;Node7 -->
<g id="edge6" class="edge"><title>Node6&#45;&gt;Node7</title>
<path fill="none" stroke="midnightblue" d="M323.478,-215.567C296.722,-204.794 264.354,-191.761 242.805,-183.085"/>
<polygon fill="midnightblue" stroke="midnightblue" points="322.467,-218.933 333.051,-219.421 325.082,-212.44 322.467,-218.933"/>
</g>
<!-- Node8 -->
<g id="node8" class="node"><title>Node8</title>
<g id="a_node8"><a xlink:href="../../d4/d06/class_application_1_1_game.html#a96341ca5b54d90adc3ecb3bf0bcd2312" target="_top" xlink:title=" ">
<polygon fill="white" stroke="black" points="0,-164 0,-183 120,-183 120,-164 0,-164"/>
<text text-anchor="middle" x="60" y="-171" font-family="Helvetica,sans-Serif" font-size="10.00">Application::Game::Run</text>
</a>
</g>
</g>
<!-- Node7&#45;&gt;Node8 -->
<g id="edge7" class="edge"><title>Node7&#45;&gt;Node8</title>
<path fill="none" stroke="midnightblue" d="M145.546,-173.5C137.081,-173.5 128.513,-173.5 120.244,-173.5"/>
<polygon fill="midnightblue" stroke="midnightblue" points="145.792,-177 155.792,-173.5 145.792,-170 145.792,-177"/>
</g>
<!-- Node10 -->
<g id="node10" class="node"><title>Node10</title>
<g id="a_node10"><a xlink:href="../../d9/ded/_sprite_object_8cpp.html#a457801379764f6519b638ea5b505967e" target="_top" xlink:title=" ">
<polygon fill="white" stroke="black" points="1382.5,-329 1382.5,-348 1513.5,-348 1513.5,-329 1382.5,-329"/>
<text text-anchor="middle" x="1448" y="-336" font-family="Helvetica,sans-Serif" font-size="10.00">_46BFFA_update_spell_fx</text>
</a>
</g>
</g>
<!-- Node9&#45;&gt;Node10 -->
<g id="edge9" class="edge"><title>Node9&#45;&gt;Node10</title>
<path fill="none" stroke="midnightblue" d="M1580.54,-281.282C1574.61,-283.259 1568.63,-285.359 1563,-287.5 1529.16,-300.38 1490.96,-318.159 1468.48,-328.964"/>
<polygon fill="midnightblue" stroke="midnightblue" points="1581.95,-284.503 1590.38,-278.086 1579.79,-277.845 1581.95,-284.503"/>
</g>
<!-- Node11 -->
<g id="node11" class="node"><title>Node11</title>
<g id="a_node11"><a xlink:href="../../da/d20/_i_render_8h.html#a2827fe354fe45bc8a3b7bddc1f2236dc" target="_top" xlink:title=" ">
<polygon fill="white" stroke="black" points="1228.5,-285 1228.5,-304 1301.5,-304 1301.5,-285 1228.5,-285"/>
<text text-anchor="middle" x="1265" y="-292" font-family="Helvetica,sans-Serif" font-size="10.00">sub_46DEF2</text>
</a>
</g>
</g>
<!-- Node10&#45;&gt;Node11 -->
<g id="edge10" class="edge"><title>Node10&#45;&gt;Node11</title>
<path fill="none" stroke="midnightblue" d="M1397.74,-326.525C1367.31,-319.128 1328.98,-309.809 1301.52,-303.134"/>
<polygon fill="midnightblue" stroke="midnightblue" points="1397.18,-329.991 1407.73,-328.953 1398.84,-323.189 1397.18,-329.991"/>
</g>
<!-- Node18 -->
<g id="node18" class="node"><title>Node18</title>
<g id="a_node18"><a xlink:href="../../d0/d5a/struct_sprite_object.html#a9e0d2e0c49fb02c2bf900de59aecff85" target="_top" xlink:title=" ">
<polygon fill="white" stroke="black" points="1197,-323.5 1197,-353.5 1333,-353.5 1333,-323.5 1197,-323.5"/>
<text text-anchor="start" x="1205" y="-341.5" font-family="Helvetica,sans-Serif" font-size="10.00">SpriteObject::UpdateObject</text>
<text text-anchor="middle" x="1265" y="-330.5" font-family="Helvetica,sans-Serif" font-size="10.00">_fn0_BLV</text>
</a>
</g>
</g>
<!-- Node10&#45;&gt;Node18 -->
<g id="edge20" class="edge"><title>Node10&#45;&gt;Node18</title>
<path fill="none" stroke="midnightblue" d="M1372.2,-338.5C1359.31,-338.5 1345.98,-338.5 1333.31,-338.5"/>
<polygon fill="midnightblue" stroke="midnightblue" points="1372.42,-342 1382.42,-338.5 1372.42,-335 1372.42,-342"/>
</g>
<!-- Node19 -->
<g id="node19" class="node"><title>Node19</title>
<g id="a_node19"><a xlink:href="../../da/d20/_i_render_8h.html#a522912d67446895b0a03d01837b75a99" target="_top" xlink:title=" ">
<polygon fill="white" stroke="black" points="1044.5,-378 1044.5,-397 1125.5,-397 1125.5,-378 1044.5,-378"/>
<text text-anchor="middle" x="1085" y="-385" font-family="Helvetica,sans-Serif" font-size="10.00">UpdateObjects</text>
</a>
</g>
</g>
<!-- Node10&#45;&gt;Node19 -->
<g id="edge26" class="edge"><title>Node10&#45;&gt;Node19</title>
<path fill="none" stroke="midnightblue" d="M1428.9,-354.839C1407.7,-372.77 1370.67,-400.474 1333,-411.5 1256.3,-433.953 1161.06,-411.266 1114.43,-397.067"/>
<polygon fill="midnightblue" stroke="midnightblue" points="1431.46,-357.25 1436.72,-348.053 1426.87,-351.963 1431.46,-357.25"/>
</g>
<!-- Node20 -->
<g id="node20" class="node"><title>Node20</title>
<g id="a_node20"><a xlink:href="../../d0/d5a/struct_sprite_object.html#a950e5cedc1e8cfc98d77ba9b3f91071f" target="_top" xlink:title=" ">
<polygon fill="white" stroke="black" points="1197,-372.5 1197,-402.5 1333,-402.5 1333,-372.5 1197,-372.5"/>
<text text-anchor="start" x="1205" y="-390.5" font-family="Helvetica,sans-Serif" font-size="10.00">SpriteObject::UpdateObject</text>
<text text-anchor="middle" x="1265" y="-379.5" font-family="Helvetica,sans-Serif" font-size="10.00">_fn0_ODM</text>
</a>
</g>
</g>
<!-- Node10&#45;&gt;Node20 -->
<g id="edge24" class="edge"><title>Node10&#45;&gt;Node20</title>
<path fill="none" stroke="midnightblue" d="M1401.97,-350.69C1377.63,-357.281 1347.35,-365.478 1321.54,-372.463"/>
<polygon fill="midnightblue" stroke="midnightblue" points="1402.93,-354.056 1411.67,-348.064 1401.1,-347.299 1402.93,-354.056"/>
</g>
<!-- Node12 -->
<g id="node12" class="node"><title>Node12</title>
<g id="a_node12"><a xlink:href="../../da/d20/_i_render_8h.html#a0e63804ace29468efe95593015c3747c" target="_top" xlink:title=" ">
<polygon fill="white" stroke="black" points="1021,-307.5 1021,-337.5 1149,-337.5 1149,-307.5 1021,-307.5"/>
<text text-anchor="start" x="1029" y="-325.5" font-family="Helvetica,sans-Serif" font-size="10.00">_46ED8A_collide_against</text>
<text text-anchor="middle" x="1085" y="-314.5" font-family="Helvetica,sans-Serif" font-size="10.00">_sprite_objects</text>
</a>
</g>
</g>
<!-- Node11&#45;&gt;Node12 -->
<g id="edge11" class="edge"><title>Node11&#45;&gt;Node12</title>
<path fill="none" stroke="midnightblue" d="M1218.46,-301.664C1197.43,-304.972 1172.11,-308.954 1149.27,-312.547"/>
<polygon fill="midnightblue" stroke="midnightblue" points="1219.07,-305.11 1228.41,-300.099 1217.98,-298.195 1219.07,-305.11"/>
</g>
<!-- Node13 -->
<g id="node13" class="node"><title>Node13</title>
<g id="a_node13"><a xlink:href="../../dc/dfb/_outdoor_8h.html#a62e44d7fd493356cb340fe1dc8fe993b" target="_top" xlink:title=" ">
<polygon fill="white" stroke="black" points="836,-332 836,-351 973,-351 973,-332 836,-332"/>
<text text-anchor="middle" x="904.5" y="-339" font-family="Helvetica,sans-Serif" font-size="10.00">ODM_ProcessPartyActions</text>
</a>
</g>
</g>
<!-- Node12&#45;&gt;Node13 -->
<g id="edge12" class="edge"><title>Node12&#45;&gt;Node13</title>
<path fill="none" stroke="midnightblue" d="M1010.54,-330.319C998.16,-331.637 985.363,-332.999 973.141,-334.3"/>
<polygon fill="midnightblue" stroke="midnightblue" points="1011.24,-333.764 1020.82,-329.225 1010.5,-326.804 1011.24,-333.764"/>
</g>
<!-- Node15 -->
<g id="node15" class="node"><title>Node15</title>
<g id="a_node15"><a xlink:href="../../da/dc7/_indoor_8h.html#a91180cf18d91c79b7bc41c630c261cbd" target="_top" xlink:title=" ">
<polygon fill="white" stroke="black" points="854.5,-408 854.5,-427 954.5,-427 954.5,-408 854.5,-408"/>
<text text-anchor="middle" x="904.5" y="-415" font-family="Helvetica,sans-Serif" font-size="10.00">UpdateActors_BLV</text>
</a>
</g>
</g>
<!-- Node12&#45;&gt;Node15 -->
<g id="edge15" class="edge"><title>Node12&#45;&gt;Node15</title>
<path fill="none" stroke="midnightblue" d="M1046.59,-342.409C1009,-362.416 952.628,-392.418 923.842,-407.738"/>
<polygon fill="midnightblue" stroke="midnightblue" points="1048.53,-345.341 1055.72,-337.553 1045.24,-339.162 1048.53,-345.341"/>
</g>
<!-- Node17 -->
<g id="node17" class="node"><title>Node17</title>
<g id="a_node17"><a xlink:href="../../dc/dfb/_outdoor_8h.html#ab3cc30c01fb2e9afa8ec291e6043bf99" target="_top" xlink:title=" ">
<polygon fill="white" stroke="black" points="852.5,-294 852.5,-313 956.5,-313 956.5,-294 852.5,-294"/>
<text text-anchor="middle" x="904.5" y="-301" font-family="Helvetica,sans-Serif" font-size="10.00">UpdateActors_ODM</text>
</a>
</g>
</g>
<!-- Node12&#45;&gt;Node17 -->
<g id="edge18" class="edge"><title>Node12&#45;&gt;Node17</title>
<path fill="none" stroke="midnightblue" d="M1010.81,-314.709C992.588,-312.77 973.443,-310.732 956.549,-308.934"/>
<polygon fill="midnightblue" stroke="midnightblue" points="1010.5,-318.196 1020.82,-315.775 1011.24,-311.236 1010.5,-318.196"/>
</g>
<!-- Node14 -->
<g id="node14" class="node"><title>Node14</title>
<g id="a_node14"><a xlink:href="../../dc/dfb/_outdoor_8h.html#aeedbd3470634fbb22ebda28d2f8006e4" target="_top" xlink:title=" ">
<polygon fill="white" stroke="black" points="642,-342 642,-361 800,-361 800,-342 642,-342"/>
<text text-anchor="middle" x="721" y="-349" font-family="Helvetica,sans-Serif" font-size="10.00">ODM_UpdateUserInputAndOther</text>
</a>
</g>
</g>
<!-- Node13&#45;&gt;Node14 -->
<g id="edge13" class="edge"><title>Node13&#45;&gt;Node14</title>
<path fill="none" stroke="midnightblue" d="M825.66,-345.789C817.173,-346.256 808.532,-346.732 800.042,-347.2"/>
<polygon fill="midnightblue" stroke="midnightblue" points="826.124,-349.269 835.916,-345.224 825.739,-342.279 826.124,-349.269"/>
</g>
<!-- Node14&#45;&gt;Node5 -->
<g id="edge14" class="edge"><title>Node14&#45;&gt;Node5</title>
<path fill="none" stroke="midnightblue" d="M631.395,-356.302C617.11,-357.077 602.71,-357.857 589.565,-358.57"/>
<polygon fill="midnightblue" stroke="midnightblue" points="631.96,-359.777 641.755,-355.741 631.581,-352.787 631.96,-359.777"/>
</g>
<!-- Node16 -->
<g id="node16" class="node"><title>Node16</title>
<g id="a_node16"><a xlink:href="../../da/dc7/_indoor_8h.html#a7d511837933d59eeeccfc25275a366d8" target="_top" xlink:title=" ">
<polygon fill="white" stroke="black" points="644,-408 644,-427 798,-427 798,-408 644,-408"/>
<text text-anchor="middle" x="721" y="-415" font-family="Helvetica,sans-Serif" font-size="10.00">BLV_UpdateUserInputAndOther</text>
</a>
</g>
</g>
<!-- Node15&#45;&gt;Node16 -->
<g id="edge16" class="edge"><title>Node15&#45;&gt;Node16</title>
<path fill="none" stroke="midnightblue" d="M843.964,-417.5C829.319,-417.5 813.439,-417.5 798.129,-417.5"/>
<polygon fill="midnightblue" stroke="midnightblue" points="844.384,-421 854.383,-417.5 844.383,-414 844.384,-421"/>
</g>
<!-- Node16&#45;&gt;Node5 -->
<g id="edge17" class="edge"><title>Node16&#45;&gt;Node5</title>
<path fill="none" stroke="midnightblue" d="M678.527,-404.912C650.878,-396.52 614.391,-385.445 585.19,-376.582"/>
<polygon fill="midnightblue" stroke="midnightblue" points="677.698,-408.318 688.283,-407.873 679.731,-401.62 677.698,-408.318"/>
</g>
<!-- Node17&#45;&gt;Node14 -->
<g id="edge19" class="edge"><title>Node17&#45;&gt;Node14</title>
<path fill="none" stroke="midnightblue" d="M857.157,-315.756C826.417,-323.886 786.654,-334.401 758.23,-341.918"/>
<polygon fill="midnightblue" stroke="midnightblue" points="858.434,-319.039 867.207,-313.098 856.644,-312.271 858.434,-319.039"/>
</g>
<!-- Node18&#45;&gt;Node19 -->
<g id="edge21" class="edge"><title>Node18&#45;&gt;Node19</title>
<path fill="none" stroke="midnightblue" d="M1199.47,-356.263C1172.78,-363.61 1142.91,-371.834 1120.52,-377.998"/>
<polygon fill="midnightblue" stroke="midnightblue" points="1200.43,-359.63 1209.14,-353.601 1198.57,-352.881 1200.43,-359.63"/>
</g>
<!-- Node19&#45;&gt;Node14 -->
<g id="edge23" class="edge"><title>Node19&#45;&gt;Node14</title>
<path fill="none" stroke="midnightblue" d="M1034.18,-382.545C973.756,-376.536 871.209,-366.338 800.217,-359.279"/>
<polygon fill="midnightblue" stroke="midnightblue" points="1033.93,-386.038 1044.22,-383.544 1034.62,-379.072 1033.93,-386.038"/>
</g>
<!-- Node19&#45;&gt;Node16 -->
<g id="edge22" class="edge"><title>Node19&#45;&gt;Node16</title>
<path fill="none" stroke="midnightblue" d="M1059.25,-402.02C1037.4,-413.948 1004.24,-429.911 973,-436.5 898.811,-452.147 809.892,-437.858 760.287,-427.023"/>
<polygon fill="midnightblue" stroke="midnightblue" points="1061.15,-404.969 1068.17,-397.033 1057.73,-398.86 1061.15,-404.969"/>
</g>
<!-- Node20&#45;&gt;Node19 -->
<g id="edge25" class="edge"><title>Node20&#45;&gt;Node19</title>
<path fill="none" stroke="midnightblue" d="M1186.7,-387.5C1165.61,-387.5 1143.64,-387.5 1125.61,-387.5"/>
<polygon fill="midnightblue" stroke="midnightblue" points="1186.96,-391 1196.96,-387.5 1186.96,-384 1186.96,-391"/>
</g>
<!-- Node21&#45;&gt;Node4 -->
<g id="edge52" class="edge"><title>Node21&#45;&gt;Node4</title>
<path fill="none" stroke="midnightblue" d="M1761.82,-216.666C1749.05,-226.582 1733.95,-238.773 1721,-250.5 1704,-265.903 1703.98,-274.603 1685,-287.5 1679.59,-291.179 1673.55,-294.474 1667.44,-297.371"/>
<polygon fill="midnightblue" stroke="midnightblue" points="1764.03,-219.377 1769.83,-210.506 1759.77,-213.828 1764.03,-219.377"/>
</g>
<!-- Node21&#45;&gt;Node9 -->
<g id="edge53" class="edge"><title>Node21&#45;&gt;Node9</title>
<path fill="none" stroke="midnightblue" d="M1746.6,-214.7C1714.39,-228.95 1671.84,-247.777 1646.55,-258.964"/>
<polygon fill="midnightblue" stroke="midnightblue" points="1748.08,-217.872 1755.81,-210.626 1745.25,-211.471 1748.08,-217.872"/>
</g>
<!-- Node22 -->
<g id="node22" class="node"><title>Node22</title>
<g id="a_node22"><a xlink:href="../../d8/d06/namespace_cast_spell_info_helpers.html#a6fa3b22b4867c28cad6c215c646dc4aa" target="_top" xlink:title=" ">
<polygon fill="white" stroke="black" points="1393,-39.5 1393,-69.5 1503,-69.5 1503,-39.5 1393,-39.5"/>
<text text-anchor="start" x="1401" y="-57.5" font-family="Helvetica,sans-Serif" font-size="10.00">CastSpellInfoHelpers</text>
<text text-anchor="middle" x="1448" y="-46.5" font-family="Helvetica,sans-Serif" font-size="10.00">::_427E01_cast_spell</text>
</a>
</g>
</g>
<!-- Node21&#45;&gt;Node22 -->
<g id="edge28" class="edge"><title>Node21&#45;&gt;Node22</title>
<path fill="none" stroke="midnightblue" d="M1744.25,-176.585C1675.8,-148.28 1548.09,-95.4714 1485.49,-69.5874"/>
<polygon fill="midnightblue" stroke="midnightblue" points="1742.93,-179.824 1753.51,-180.411 1745.6,-173.355 1742.93,-179.824"/>
</g>
<!-- Node24 -->
<g id="node24" class="node"><title>Node24</title>
<g id="a_node24"><a xlink:href="../../d3/db1/struct_player.html#adcd0e965260bb120a6e90b515cc748ac" target="_top" xlink:title=" ">
<polygon fill="white" stroke="black" points="1369,-120.5 1369,-150.5 1527,-150.5 1527,-120.5 1369,-120.5"/>
<text text-anchor="start" x="1377" y="-138.5" font-family="Helvetica,sans-Serif" font-size="10.00">Player::_42ECB5_PlayerAttacks</text>
<text text-anchor="middle" x="1448" y="-127.5" font-family="Helvetica,sans-Serif" font-size="10.00">Actor</text>
</a>
</g>
</g>
<!-- Node21&#45;&gt;Node24 -->
<g id="edge31" class="edge"><title>Node21&#45;&gt;Node24</title>
<path fill="none" stroke="midnightblue" d="M1710.97,-181.138C1702.21,-179.564 1693.42,-177.992 1685,-176.5 1632.38,-167.169 1573.13,-156.875 1527.15,-148.936"/>
<polygon fill="midnightblue" stroke="midnightblue" points="1710.36,-184.585 1720.82,-182.911 1711.6,-177.695 1710.36,-184.585"/>
</g>
<!-- Node25 -->
<g id="node25" class="node"><title>Node25</title>
<g id="a_node25"><a xlink:href="../../de/dcf/_engine_8h.html#ab2d2969c88180c354c33faf51cf43977" target="_top" xlink:title=" ">
<polygon fill="white" stroke="black" points="1572,-186 1572,-205 1676,-205 1676,-186 1572,-186"/>
<text text-anchor="middle" x="1624" y="-193" font-family="Helvetica,sans-Serif" font-size="10.00">_493938_regenerate</text>
</a>
</g>
</g>
<!-- Node21&#45;&gt;Node25 -->
<g id="edge33" class="edge"><title>Node21&#45;&gt;Node25</title>
<path fill="none" stroke="midnightblue" d="M1710.71,-195.5C1698.96,-195.5 1687.13,-195.5 1676.17,-195.5"/>
<polygon fill="midnightblue" stroke="midnightblue" points="1710.98,-199 1720.98,-195.5 1710.98,-192 1710.98,-199"/>
</g>
<!-- Node23 -->
<g id="node23" class="node"><title>Node23</title>
<g id="a_node23"><a xlink:href="../../d4/d06/class_application_1_1_game.html#a3f65e3f0ef1a9114fb3dea275e52442e" target="_top" xlink:title=" ">
<polygon fill="white" stroke="black" points="669.5,-0.5 669.5,-30.5 772.5,-30.5 772.5,-0.5 669.5,-0.5"/>
<text text-anchor="start" x="677.5" y="-18.5" font-family="Helvetica,sans-Serif" font-size="10.00">Application::Game::</text>
<text text-anchor="middle" x="721" y="-7.5" font-family="Helvetica,sans-Serif" font-size="10.00">EventLoop</text>
</a>
</g>
</g>
<!-- Node22&#45;&gt;Node23 -->
<g id="edge29" class="edge"><title>Node22&#45;&gt;Node23</title>
<path fill="none" stroke="midnightblue" d="M1382.94,-45.0246C1366.68,-42.9077 1349.22,-40.8831 1333,-39.5 1125.68,-21.8263 877.663,-17.1471 772.792,-15.9246"/>
<polygon fill="midnightblue" stroke="midnightblue" points="1382.52,-48.4985 1392.89,-46.3497 1383.44,-41.5598 1382.52,-48.4985"/>
</g>
<!-- Node23&#45;&gt;Node6 -->
<g id="edge30" class="edge"><title>Node23&#45;&gt;Node6</title>
<path fill="none" stroke="midnightblue" d="M659.289,-3.98781C602.284,3.1687 517.791,3.89286 463,-40.5 421.717,-73.9486 450.204,-106.702 427,-154.5 415.257,-178.689 396.904,-203.892 384.79,-219.392"/>
<polygon fill="midnightblue" stroke="midnightblue" points="658.868,-7.46264 669.248,-5.33807 659.809,-0.526111 658.868,-7.46264"/>
</g>
<!-- Node24&#45;&gt;Node23 -->
<g id="edge32" class="edge"><title>Node24&#45;&gt;Node23</title>
<path fill="none" stroke="midnightblue" d="M1358.4,-120.835C1204.97,-95.4398 894.559,-44.0615 772.719,-23.8949"/>
<polygon fill="midnightblue" stroke="midnightblue" points="1358.29,-124.364 1368.72,-122.544 1359.43,-117.458 1358.29,-124.364"/>
</g>
<!-- Node26 -->
<g id="node26" class="node"><title>Node26</title>
<g id="a_node26"><a xlink:href="../../de/dcf/_engine_8h.html#a79dc644d7866ee9c87c3774a8fab9af6" target="_top" xlink:title=" ">
<polygon fill="white" stroke="black" points="1009,-180.5 1009,-210.5 1161,-210.5 1161,-180.5 1009,-180.5"/>
<text text-anchor="start" x="1017" y="-198.5" font-family="Helvetica,sans-Serif" font-size="10.00">_494035_timed_effects</text>
<text text-anchor="middle" x="1085" y="-187.5" font-family="Helvetica,sans-Serif" font-size="10.00">__water_walking_damage__etc</text>
</a>
</g>
</g>
<!-- Node25&#45;&gt;Node26 -->
<g id="edge34" class="edge"><title>Node25&#45;&gt;Node26</title>
<path fill="none" stroke="midnightblue" d="M1561.88,-195.5C1463.09,-195.5 1268.6,-195.5 1161.38,-195.5"/>
<polygon fill="midnightblue" stroke="midnightblue" points="1562,-199 1572,-195.5 1562,-192 1562,-199"/>
</g>
<!-- Node26&#45;&gt;Node6 -->
<g id="edge35" class="edge"><title>Node26&#45;&gt;Node6</title>
<path fill="none" stroke="midnightblue" d="M1045.32,-215.047C1024.34,-225.009 997.721,-236.645 973,-244.5 898.237,-268.256 878.056,-271.683 800,-279.5 650.926,-294.429 609.326,-303.666 463,-271.5 441.78,-266.835 419.155,-257.585 401.835,-249.501"/>
<polygon fill="midnightblue" stroke="midnightblue" points="1047.04,-218.102 1054.53,-210.608 1044,-211.796 1047.04,-218.102"/>
</g>
<!-- Node27 -->
<g id="node27" class="node"><title>Node27</title>
<g id="a_node27"><a xlink:href="../../d1/d28/structstru262___turn_based.html#a3d510c1516767374020392bb323a3c06" target="_top" xlink:title=" ">
<polygon fill="white" stroke="black" points="851,-205.5 851,-235.5 958,-235.5 958,-205.5 851,-205.5"/>
<text text-anchor="start" x="859" y="-223.5" font-family="Helvetica,sans-Serif" font-size="10.00">stru262_TurnBased::</text>
<text text-anchor="middle" x="904.5" y="-212.5" font-family="Helvetica,sans-Serif" font-size="10.00">NextTurn</text>
</a>
</g>
</g>
<!-- Node26&#45;&gt;Node27 -->
<g id="edge36" class="edge"><title>Node26&#45;&gt;Node27</title>
<path fill="none" stroke="midnightblue" d="M998.763,-207.438C984.897,-209.38 970.902,-211.34 958.12,-213.13"/>
<polygon fill="midnightblue" stroke="midnightblue" points="999.399,-210.883 1008.82,-206.03 998.428,-203.951 999.399,-210.883"/>
</g>
<!-- Node30 -->
<g id="node30" class="node"><title>Node30</title>
<g id="a_node30"><a xlink:href="../../d0/d14/struct_party.html#aaa6686874ea698d79177b7ba5d67d8bd" target="_top" xlink:title=" ">
<polygon fill="white" stroke="black" points="869,-164 869,-183 940,-183 940,-164 869,-164"/>
<text text-anchor="middle" x="904.5" y="-171" font-family="Helvetica,sans-Serif" font-size="10.00">Party::Reset</text>
</a>
</g>
</g>
<!-- Node26&#45;&gt;Node30 -->
<g id="edge40" class="edge"><title>Node26&#45;&gt;Node30</title>
<path fill="none" stroke="midnightblue" d="M998.706,-184.988C978.024,-182.439 957.058,-179.855 940.262,-177.784"/>
<polygon fill="midnightblue" stroke="midnightblue" points="998.464,-188.484 1008.82,-186.234 999.321,-181.537 998.464,-188.484"/>
</g>
<!-- Node34 -->
<g id="node34" class="node"><title>Node34</title>
<g id="a_node34"><a xlink:href="../../db/d38/_party_8h.html#a6327fa16a015add5509d93cc738c035b" target="_top" xlink:title=" ">
<polygon fill="white" stroke="black" points="886,-82 886,-101 923,-101 923,-82 886,-82"/>
<text text-anchor="middle" x="904.5" y="-89" font-family="Helvetica,sans-Serif" font-size="10.00">Rest</text>
</a>
</g>
</g>
<!-- Node26&#45;&gt;Node34 -->
<g id="edge48" class="edge"><title>Node26&#45;&gt;Node34</title>
<path fill="none" stroke="midnightblue" d="M1049.26,-175.259C1010.87,-152.89 950.665,-117.815 921.887,-101.048"/>
<polygon fill="midnightblue" stroke="midnightblue" points="1047.64,-178.367 1058.04,-180.378 1051.17,-172.319 1047.64,-178.367"/>
</g>
<!-- Node28 -->
<g id="node28" class="node"><title>Node28</title>
<g id="a_node28"><a xlink:href="../../d1/d28/structstru262___turn_based.html#a594cf1020b0200b78abf16be8f3ab722" target="_top" xlink:title=" ">
<polygon fill="white" stroke="black" points="667.5,-240.5 667.5,-270.5 774.5,-270.5 774.5,-240.5 667.5,-240.5"/>
<text text-anchor="start" x="675.5" y="-258.5" font-family="Helvetica,sans-Serif" font-size="10.00">stru262_TurnBased::</text>
<text text-anchor="middle" x="721" y="-247.5" font-family="Helvetica,sans-Serif" font-size="10.00">AITurnBasedAction</text>
</a>
</g>
</g>
<!-- Node27&#45;&gt;Node28 -->
<g id="edge37" class="edge"><title>Node27&#45;&gt;Node28</title>
<path fill="none" stroke="midnightblue" d="M840.514,-232.646C819.056,-236.784 795.307,-241.364 774.737,-245.33"/>
<polygon fill="midnightblue" stroke="midnightblue" points="841.358,-236.048 850.515,-230.718 840.033,-229.174 841.358,-236.048"/>
</g>
<!-- Node29 -->
<g id="node29" class="node"><title>Node29</title>
<g id="a_node29"><a xlink:href="../../da/d35/struct_actor.html#a8ad58b6020b186e538e3e033f81c073a" target="_top" xlink:title=" ">
<polygon fill="white" stroke="black" points="480,-243 480,-262 589,-262 589,-243 480,-243"/>
<text text-anchor="middle" x="534.5" y="-250" font-family="Helvetica,sans-Serif" font-size="10.00">Actor::UpdateActorAI</text>
</a>
</g>
</g>
<!-- Node28&#45;&gt;Node29 -->
<g id="edge38" class="edge"><title>Node28&#45;&gt;Node29</title>
<path fill="none" stroke="midnightblue" d="M656.852,-254.473C634.779,-254.114 610.229,-253.715 589.018,-253.37"/>
<polygon fill="midnightblue" stroke="midnightblue" points="657.074,-257.977 667.13,-254.64 657.188,-250.978 657.074,-257.977"/>
</g>
<!-- Node29&#45;&gt;Node6 -->
<g id="edge39" class="edge"><title>Node29&#45;&gt;Node6</title>
<path fill="none" stroke="midnightblue" d="M469.85,-245.384C454.343,-243.65 437.962,-241.819 423.151,-240.163"/>
<polygon fill="midnightblue" stroke="midnightblue" points="469.562,-248.873 479.889,-246.506 470.34,-241.917 469.562,-248.873"/>
</g>
<!-- Node30&#45;&gt;Node6 -->
<g id="edge45" class="edge"><title>Node30&#45;&gt;Node6</title>
<path fill="none" stroke="midnightblue" d="M858.526,-179.832C840.363,-182.324 819.196,-185.147 800,-187.5 664.006,-204.171 503.324,-221.091 423.219,-229.338"/>
<polygon fill="midnightblue" stroke="midnightblue" points="859.128,-183.282 868.555,-178.448 858.171,-176.348 859.128,-183.282"/>
</g>
<!-- Node30&#45;&gt;Node7 -->
<g id="edge46" class="edge"><title>Node30&#45;&gt;Node7</title>
<path fill="none" stroke="midnightblue" d="M858.391,-173.5C739.194,-173.5 415.732,-173.5 280.122,-173.5"/>
<polygon fill="midnightblue" stroke="midnightblue" points="858.615,-177 868.614,-173.5 858.614,-170 858.615,-177"/>
</g>
<!-- Node31 -->
<g id="node31" class="node"><title>Node31</title>
<g id="a_node31"><a xlink:href="../../de/da8/_u_i_party_creation_8cpp.html#ab3e0a011d0b8257f92e7b2255996f08d" target="_top" xlink:title=" ">
<polygon fill="white" stroke="black" points="661.5,-126 661.5,-145 780.5,-145 780.5,-126 661.5,-126"/>
<text text-anchor="middle" x="721" y="-133" font-family="Helvetica,sans-Serif" font-size="10.00">CreateParty_EventLoop</text>
</a>
</g>
</g>
<!-- Node30&#45;&gt;Node31 -->
<g id="edge41" class="edge"><title>Node30&#45;&gt;Node31</title>
<path fill="none" stroke="midnightblue" d="M859.067,-164.197C831.23,-158.369 795.45,-150.878 767.427,-145.011"/>
<polygon fill="midnightblue" stroke="midnightblue" points="858.429,-167.639 868.934,-166.263 859.863,-160.788 858.429,-167.639"/>
</g>
<!-- Node33 -->
<g id="node33" class="node"><title>Node33</title>
<g id="a_node33"><a xlink:href="../../d6/d6a/_u_i_party_creation_8h.html#ae6fe5aec2826f251f3950e95fd588d79" target="_top" xlink:title=" ">
<polygon fill="white" stroke="black" points="316,-126 316,-145 427,-145 427,-126 316,-126"/>
<text text-anchor="middle" x="371.5" y="-133" font-family="Helvetica,sans-Serif" font-size="10.00">PartyCreationUI_Loop</text>
</a>
</g>
</g>
<!-- Node30&#45;&gt;Node33 -->
<g id="edge47" class="edge"><title>Node30&#45;&gt;Node33</title>
<path fill="none" stroke="midnightblue" d="M882.683,-157.876C862.685,-143.916 831.011,-124.475 800,-116.5 661.494,-80.8828 489.565,-109.574 412.794,-125.999"/>
<polygon fill="midnightblue" stroke="midnightblue" points="880.839,-160.861 891.006,-163.843 884.918,-155.172 880.839,-160.861"/>
</g>
<!-- Node32 -->
<g id="node32" class="node"><title>Node32</title>
<g id="a_node32"><a xlink:href="../../de/da8/_u_i_party_creation_8cpp.html#a3989bc11e4d285e802baa8b00e9663ad" target="_top" xlink:title=" ">
<polygon fill="white" stroke="black" points="463,-126 463,-145 606,-145 606,-126 463,-126"/>
<text text-anchor="middle" x="534.5" y="-133" font-family="Helvetica,sans-Serif" font-size="10.00">PartyCreationUI_LoopInternal</text>
</a>
</g>
</g>
<!-- Node31&#45;&gt;Node32 -->
<g id="edge42" class="edge"><title>Node31&#45;&gt;Node32</title>
<path fill="none" stroke="midnightblue" d="M651.34,-135.5C636.625,-135.5 621.051,-135.5 606.259,-135.5"/>
<polygon fill="midnightblue" stroke="midnightblue" points="651.37,-139 661.37,-135.5 651.37,-132 651.37,-139"/>
</g>
<!-- Node32&#45;&gt;Node33 -->
<g id="edge43" class="edge"><title>Node32&#45;&gt;Node33</title>
<path fill="none" stroke="midnightblue" d="M452.714,-135.5C444.032,-135.5 435.355,-135.5 427.086,-135.5"/>
<polygon fill="midnightblue" stroke="midnightblue" points="452.883,-139 462.883,-135.5 452.883,-132 452.883,-139"/>
</g>
<!-- Node33&#45;&gt;Node7 -->
<g id="edge44" class="edge"><title>Node33&#45;&gt;Node7</title>
<path fill="none" stroke="midnightblue" d="M322.498,-147.54C301.333,-152.849 276.814,-158.999 256.955,-163.98"/>
<polygon fill="midnightblue" stroke="midnightblue" points="323.422,-150.917 332.27,-145.089 321.719,-144.127 323.422,-150.917"/>
</g>
<!-- Node34&#45;&gt;Node23 -->
<g id="edge49" class="edge"><title>Node34&#45;&gt;Node23</title>
<path fill="none" stroke="midnightblue" d="M876.044,-83.8172C863.464,-79.7787 848.586,-74.2545 836,-67.5 818.377,-58.0424 817.769,-49.6794 800,-40.5 791.409,-36.0619 781.878,-32.2176 772.514,-28.9648"/>
<polygon fill="midnightblue" stroke="midnightblue" points="875.385,-87.2754 885.971,-86.8544 877.433,-80.5817 875.385,-87.2754"/>
</g>
<!-- Node35 -->
<g id="node35" class="node"><title>Node35</title>
<g id="a_node35"><a xlink:href="../../d0/d14/struct_party.html#a7e6c7262893463554672cab394812b00" target="_top" xlink:title=" ">
<polygon fill="white" stroke="black" points="670.5,-50 670.5,-69 771.5,-69 771.5,-50 670.5,-50"/>
<text text-anchor="middle" x="721" y="-57" font-family="Helvetica,sans-Serif" font-size="10.00">Party::Sleep8Hours</text>
</a>
</g>
</g>
<!-- Node34&#45;&gt;Node35 -->
<g id="edge50" class="edge"><title>Node34&#45;&gt;Node35</title>
<path fill="none" stroke="midnightblue" d="M875.621,-86.5847C847.966,-81.7089 804.993,-74.1324 771.523,-68.2313"/>
<polygon fill="midnightblue" stroke="midnightblue" points="875.311,-90.0839 885.767,-88.3734 876.526,-83.1902 875.311,-90.0839"/>
</g>
<!-- Node36 -->
<g id="node36" class="node"><title>Node36</title>
<g id="a_node36"><a xlink:href="../../d2/d13/class_g_u_i_window___rest.html#a2fb35507e96666175f07fb9c0ed4c036" target="_top" xlink:title=" ">
<polygon fill="white" stroke="black" points="469.5,-50 469.5,-69 599.5,-69 599.5,-50 469.5,-50"/>
<text text-anchor="middle" x="534.5" y="-57" font-family="Helvetica,sans-Serif" font-size="10.00">GUIWindow_Rest::Update</text>
</a>
</g>
</g>
<!-- Node35&#45;&gt;Node36 -->
<g id="edge51" class="edge"><title>Node35&#45;&gt;Node36</title>
<path fill="none" stroke="midnightblue" d="M659.917,-59.5C640.655,-59.5 619.255,-59.5 599.71,-59.5"/>
<polygon fill="midnightblue" stroke="midnightblue" points="660.072,-63.0001 670.072,-59.5 660.072,-56.0001 660.072,-63.0001"/>
</g>
<!-- Node37&#45;&gt;Node4 -->
<g id="edge56" class="edge"><title>Node37&#45;&gt;Node4</title>
<path fill="none" stroke="midnightblue" d="M1722.14,-310.734C1709.89,-310.957 1697.2,-311.187 1685.2,-311.406"/>
<polygon fill="midnightblue" stroke="midnightblue" points="1722.36,-314.231 1732.29,-310.549 1722.23,-307.232 1722.36,-314.231"/>
</g>
<!-- Node37&#45;&gt;Node9 -->
<g id="edge57" class="edge"><title>Node37&#45;&gt;Node9</title>
<path fill="none" stroke="midnightblue" d="M1742.02,-297.577C1715.87,-291.08 1684.09,-283.182 1660.24,-277.258"/>
<polygon fill="midnightblue" stroke="midnightblue" points="1741.18,-300.976 1751.73,-299.991 1742.87,-294.182 1741.18,-300.976"/>
</g>
</g>
</svg>
        <g id="navigator" transform="translate(0 0)" fill="#404254">
                <rect fill="#f2f5e9" fill-opacity="0.5" stroke="#606060" stroke-width=".5" x="0" y="0" width="60" height="60"/>
                <use id="zoomplus" xlink:href="#zoomPlus" x="17" y="9" onmousedown="handleZoom(evt,'in')"/>
                <use id="zoomminus" xlink:href="#zoomMin" x="42" y="9" onmousedown="handleZoom(evt,'out')"/>
                <use id="reset" xlink:href="#resetDef" x="30" y="36" onmousedown="handleReset()"/>
                <g id="arrowUp" xlink:href="#dirArrow" transform="translate(30 24)" onmousedown="handlePan(0,-1)">
                  <use xlink:href="#rim" fill="#404040">
                        <set attributeName="fill" to="#808080" begin="arrowUp.mouseover" end="arrowUp.mouseout"/>
                  </use>
                  <path fill="none" stroke="white" stroke-width="1.5" d="M0,-3.0v7 M-2.5,-0.5L0,-3.0L2.5,-0.5"/>
                </g>
                <g id="arrowRight" xlink:href="#dirArrow" transform="rotate(90) translate(36 -43)" onmousedown="handlePan(1,0)">
                  <use xlink:href="#rim" fill="#404040">
                        <set attributeName="fill" to="#808080" begin="arrowRight.mouseover" end="arrowRight.mouseout"/>
                  </use>
                  <path fill="none" stroke="white" stroke-width="1.5" d="M0,-3.0v7 M-2.5,-0.5L0,-3.0L2.5,-0.5"/>
                </g>
                <g id="arrowDown" xlink:href="#dirArrow" transform="rotate(180) translate(-30 -48)" onmousedown="handlePan(0,1)">
                  <use xlink:href="#rim" fill="#404040">
                        <set attributeName="fill" to="#808080" begin="arrowDown.mouseover" end="arrowDown.mouseout"/>
                  </use>
                  <path fill="none" stroke="white" stroke-width="1.5" d="M0,-3.0v7 M-2.5,-0.5L0,-3.0L2.5,-0.5"/>
                </g>
                <g id="arrowLeft" xlink:href="#dirArrow" transform="rotate(270) translate(-36 17)" onmousedown="handlePan(-1,0)">
                  <use xlink:href="#rim" fill="#404040">
                        <set attributeName="fill" to="#808080" begin="arrowLeft.mouseover" end="arrowLeft.mouseout"/>
                  </use>
                  <path fill="none" stroke="white" stroke-width="1.5" d="M0,-3.0v7 M-2.5,-0.5L0,-3.0L2.5,-0.5"/>
                </g>
        </g>
        <svg viewBox="0 0 15 15" width="100%" height="30px" preserveAspectRatio="xMaxYMin meet">
         <g id="arrow_out" transform="scale(0.3 0.3)">
          <a xlink:href="_spells_8cpp_a44fbb4b3786eae908c8906eea67fed90_icgraph_org.svg" target="_base">
           <rect id="button" ry="5" rx="5" y="6" x="6" height="38" width="38"
                fill="#f2f5e9" fill-opacity="0.5" stroke="#606060" stroke-width="1.0"/>
           <path id="arrow"
             d="M 11.500037,31.436501 C 11.940474,20.09759 22.043105,11.32322 32.158766,21.979434 L 37.068811,17.246167 C 37.068811,17.246167 37.088388,32 37.088388,32 L 22.160133,31.978069 C 22.160133,31.978069 26.997745,27.140456 26.997745,27.140456 C 18.528582,18.264221 13.291696,25.230495 11.500037,31.436501 z"
             style="fill:#404040;"/>
          </a>
         </g>
        </svg>
</svg>
