<?xml version="1.0" encoding="UTF-8" standalone="no"?>
<!DOCTYPE svg PUBLIC "-//W3C//DTD SVG 1.1//EN"
 "http://www.w3.org/Graphics/SVG/1.1/DTD/svg11.dtd">
<!-- Generated by graphviz version 2.38.0 (20140413.2041)
 -->
<!-- Title: GameUI_StatusBar_Draw Pages: 1 -->
<svg width="738pt" height="78pt"
 viewBox="0.00 0.00 738.00 77.50" xmlns="http://www.w3.org/2000/svg" xmlns:xlink="http://www.w3.org/1999/xlink">
<g id="graph0" class="graph" transform="scale(1 1) rotate(0) translate(4 73.5)">
<title>GameUI_StatusBar_Draw</title>
<polygon fill="white" stroke="none" points="-4,4 -4,-73.5 734,-73.5 734,4 -4,4"/>
<!-- Node1 -->
<g id="node1" class="node"><title>Node1</title>
<g id="a_node1"><a xlink:title=" ">
<polygon fill="#bfbfbf" stroke="black" points="0,-22.5 0,-41.5 128,-41.5 128,-22.5 0,-22.5"/>
<text text-anchor="middle" x="64" y="-29.5" font-family="Helvetica,sans-Serif" font-size="10.00">GameUI_StatusBar_Draw</text>
</a>
</g>
</g>
<!-- Node2 -->
<g id="node2" class="node"><title>Node2</title>
<g id="a_node2"><a xlink:href="../../d3/d39/class_g_u_i_font.html#a9fa3825419fdf34ded3536e27bccbfdf" target="_top" xlink:title=" ">
<polygon fill="white" stroke="black" points="314,-39 314,-69 413,-69 413,-39 314,-39"/>
<text text-anchor="start" x="322" y="-57" font-family="Helvetica,sans-Serif" font-size="10.00">GUIFont::AlignText</text>
<text text-anchor="middle" x="363.5" y="-46" font-family="Helvetica,sans-Serif" font-size="10.00">_Center</text>
</a>
</g>
</g>
<!-- Node1&#45;&gt;Node2 -->
<g id="edge1" class="edge"><title>Node1&#45;&gt;Node2</title>
<path fill="none" stroke="midnightblue" d="M128.092,-36.6656C179.952,-40.5007 252.884,-45.894 303.572,-49.6423"/>
<polygon fill="midnightblue" stroke="midnightblue" points="303.487,-53.1454 313.717,-50.3926 304.003,-46.1645 303.487,-53.1454"/>
</g>
<!-- Node5 -->
<g id="node5" class="node"><title>Node5</title>
<g id="a_node5"><a xlink:href="../../d4/d38/class_g_u_i_window.html#a009aad05d919c42979eebb93d8b4354c" target="_top" xlink:title=" ">
<polygon fill="white" stroke="black" points="164,-3.5 164,-22.5 278,-22.5 278,-3.5 164,-3.5"/>
<text text-anchor="middle" x="221" y="-10.5" font-family="Helvetica,sans-Serif" font-size="10.00">GUIWindow::DrawText</text>
</a>
</g>
</g>
<!-- Node1&#45;&gt;Node5 -->
<g id="edge4" class="edge"><title>Node1&#45;&gt;Node5</title>
<path fill="none" stroke="midnightblue" d="M128.044,-24.272C136.599,-23.2234 145.396,-22.1449 154.001,-21.0902"/>
<polygon fill="midnightblue" stroke="midnightblue" points="154.487,-24.5569 163.987,-19.8662 153.635,-17.6089 154.487,-24.5569"/>
</g>
<!-- Node3 -->
<g id="node3" class="node"><title>Node3</title>
<g id="a_node3"><a xlink:href="../../d3/d39/class_g_u_i_font.html#abf5dc44bc1b328f80d5c7033279a4f8d" target="_top" xlink:title=" ">
<polygon fill="white" stroke="black" points="458.5,-38.5 458.5,-57.5 576.5,-57.5 576.5,-38.5 458.5,-38.5"/>
<text text-anchor="middle" x="517.5" y="-45.5" font-family="Helvetica,sans-Serif" font-size="10.00">GUIFont::GetLineWidth</text>
</a>
</g>
</g>
<!-- Node2&#45;&gt;Node3 -->
<g id="edge2" class="edge"><title>Node2&#45;&gt;Node3</title>
<path fill="none" stroke="midnightblue" d="M413.012,-52.0851C424.167,-51.6447 436.235,-51.1684 448.056,-50.7017"/>
<polygon fill="midnightblue" stroke="midnightblue" points="448.498,-54.1871 458.352,-50.2953 448.222,-47.1925 448.498,-54.1871"/>
</g>
<!-- Node4 -->
<g id="node4" class="node"><title>Node4</title>
<g id="a_node4"><a xlink:href="../../d3/d39/class_g_u_i_font.html#adfbdd225f4c0eedcbf7e82eecd29e404" target="_top" xlink:title=" ">
<polygon fill="white" stroke="black" points="622,-19.5 622,-38.5 730,-38.5 730,-19.5 622,-19.5"/>
<text text-anchor="middle" x="676" y="-26.5" font-family="Helvetica,sans-Serif" font-size="10.00">GUIFont::IsCharValid</text>
</a>
</g>
</g>
<!-- Node3&#45;&gt;Node4 -->
<g id="edge3" class="edge"><title>Node3&#45;&gt;Node4</title>
<path fill="none" stroke="midnightblue" d="M576.775,-40.9251C588.201,-39.5378 600.237,-38.0767 611.815,-36.671"/>
<polygon fill="midnightblue" stroke="midnightblue" points="612.34,-40.133 621.846,-35.4532 611.497,-33.1841 612.34,-40.133"/>
</g>
<!-- Node6 -->
<g id="node6" class="node"><title>Node6</title>
<g id="a_node6"><a xlink:href="../../d3/d39/class_g_u_i_font.html#abea1624c5890b044ef1368a7ca051b3e" target="_top" xlink:title=" ">
<polygon fill="white" stroke="black" points="314,-0.5 314,-19.5 413,-19.5 413,-0.5 314,-0.5"/>
<text text-anchor="middle" x="363.5" y="-7.5" font-family="Helvetica,sans-Serif" font-size="10.00">GUIFont::DrawText</text>
</a>
</g>
</g>
<!-- Node5&#45;&gt;Node6 -->
<g id="edge5" class="edge"><title>Node5&#45;&gt;Node6</title>
<path fill="none" stroke="midnightblue" d="M278.337,-11.7971C286.696,-11.6186 295.328,-11.4343 303.735,-11.2548"/>
<polygon fill="midnightblue" stroke="midnightblue" points="303.92,-14.7517 313.843,-11.0389 303.771,-7.7533 303.92,-14.7517"/>
</g>
<!-- Node6&#45;&gt;Node3 -->
<g id="edge8" class="edge"><title>Node6&#45;&gt;Node3</title>
<path fill="none" stroke="midnightblue" d="M402.856,-19.589C422.824,-24.5809 447.43,-30.7324 468.633,-36.0334"/>
<polygon fill="midnightblue" stroke="midnightblue" points="467.869,-39.45 478.42,-38.4799 469.567,-32.659 467.869,-39.45"/>
</g>
<!-- Node7 -->
<g id="node7" class="node"><title>Node7</title>
<g id="a_node7"><a xlink:href="../../d3/d39/class_g_u_i_font.html#acff82a6ae67e879bd76ddc52aa25fe02" target="_top" xlink:title=" ">
<polygon fill="white" stroke="black" points="449,-0.5 449,-19.5 586,-19.5 586,-0.5 449,-0.5"/>
<text text-anchor="middle" x="517.5" y="-7.5" font-family="Helvetica,sans-Serif" font-size="10.00">GUIFont::FitTextInAWindow</text>
</a>
</g>
</g>
<!-- Node6&#45;&gt;Node7 -->
<g id="edge6" class="edge"><title>Node6&#45;&gt;Node7</title>
<path fill="none" stroke="midnightblue" d="M413.012,-10C421.192,-10 429.864,-10 438.569,-10"/>
<polygon fill="midnightblue" stroke="midnightblue" points="438.777,-13.5001 448.777,-10 438.777,-6.5001 438.777,-13.5001"/>
</g>
<!-- Node7&#45;&gt;Node4 -->
<g id="edge7" class="edge"><title>Node7&#45;&gt;Node4</title>
<path fill="none" stroke="midnightblue" d="M586.233,-18.2232C594.69,-19.2499 603.314,-20.2969 611.7,-21.315"/>
<polygon fill="midnightblue" stroke="midnightblue" points="611.435,-24.8085 621.784,-22.5393 612.279,-17.8595 611.435,-24.8085"/>
</g>
</g>
</svg>
