<?xml version="1.0" encoding="UTF-8" standalone="no"?>
<!DOCTYPE svg PUBLIC "-//W3C//DTD SVG 1.1//EN"
 "http://www.w3.org/Graphics/SVG/1.1/DTD/svg11.dtd">
<!-- Generated by graphviz version 2.38.0 (20140413.2041)
 -->
<!-- Title: _43F55F_get_billboard_light_level Pages: 1 -->
<svg width="1635pt" height="298pt"
 viewBox="0.00 0.00 1635.00 297.50" xmlns="http://www.w3.org/2000/svg" xmlns:xlink="http://www.w3.org/1999/xlink">
<g id="graph0" class="graph" transform="scale(1 1) rotate(0) translate(4 293.5)">
<title>_43F55F_get_billboard_light_level</title>
<polygon fill="white" stroke="none" points="-4,4 -4,-293.5 1631,-293.5 1631,4 -4,4"/>
<!-- Node1 -->
<g id="node1" class="node"><title>Node1</title>
<g id="a_node1"><a xlink:title=" ">
<polygon fill="#bfbfbf" stroke="black" points="1512,-120 1512,-150 1627,-150 1627,-120 1512,-120"/>
<text text-anchor="start" x="1520" y="-138" font-family="Helvetica,sans-Serif" font-size="10.00">_43F55F_get_billboard</text>
<text text-anchor="middle" x="1569.5" y="-127" font-family="Helvetica,sans-Serif" font-size="10.00">_light_level</text>
</a>
</g>
</g>
<!-- Node2 -->
<g id="node2" class="node"><title>Node2</title>
<g id="a_node2"><a xlink:href="../../da/dc7/_indoor_8h.html#ad10cfdae51ef0087519a5060919d2e6f" target="_top" xlink:title=" ">
<polygon fill="white" stroke="black" points="1326,-156.5 1326,-175.5 1476,-175.5 1476,-156.5 1326,-156.5"/>
<text text-anchor="middle" x="1401" y="-163.5" font-family="Helvetica,sans-Serif" font-size="10.00">FindBillboardsLightLevels_BLV</text>
</a>
</g>
</g>
<!-- Node1&#45;&gt;Node2 -->
<g id="edge1" class="edge"><title>Node1&#45;&gt;Node2</title>
<path fill="none" stroke="midnightblue" d="M1501.74,-147.429C1485.6,-150.436 1468.58,-153.603 1453.27,-156.454"/>
<polygon fill="midnightblue" stroke="midnightblue" points="1502.48,-150.853 1511.67,-145.582 1501.19,-143.971 1502.48,-150.853"/>
</g>
<!-- Node16 -->
<g id="node16" class="node"><title>Node16</title>
<g id="a_node16"><a xlink:href="../../da/d20/_i_render_8h.html#a8ad09cf5d07ced414fcbb37e37e843ba" target="_top" xlink:title=" ">
<polygon fill="white" stroke="black" points="1354,-94.5 1354,-113.5 1448,-113.5 1448,-94.5 1354,-94.5"/>
<text text-anchor="middle" x="1401" y="-101.5" font-family="Helvetica,sans-Serif" font-size="10.00">GetActorTintColor</text>
</a>
</g>
</g>
<!-- Node1&#45;&gt;Node16 -->
<g id="edge15" class="edge"><title>Node1&#45;&gt;Node16</title>
<path fill="none" stroke="midnightblue" d="M1501.79,-122.58C1483.79,-119.228 1464.7,-115.675 1448.1,-112.583"/>
<polygon fill="midnightblue" stroke="midnightblue" points="1501.19,-126.029 1511.67,-124.418 1502.48,-119.147 1501.19,-126.029"/>
</g>
<!-- Node3 -->
<g id="node3" class="node"><title>Node3</title>
<g id="a_node3"><a xlink:href="../../da/dc7/_indoor_8h.html#ab7663442878fb1d9ce8c4293f7206c0e" target="_top" xlink:title=" ">
<polygon fill="white" stroke="black" points="1166,-204.5 1166,-223.5 1283,-223.5 1283,-204.5 1166,-204.5"/>
<text text-anchor="middle" x="1224.5" y="-211.5" font-family="Helvetica,sans-Serif" font-size="10.00">PrepareDrawLists_BLV</text>
</a>
</g>
</g>
<!-- Node2&#45;&gt;Node3 -->
<g id="edge2" class="edge"><title>Node2&#45;&gt;Node3</title>
<path fill="none" stroke="midnightblue" d="M1355.44,-178.256C1325.89,-186.386 1287.66,-196.901 1260.33,-204.418"/>
<polygon fill="midnightblue" stroke="midnightblue" points="1356.39,-181.625 1365.11,-175.598 1354.54,-174.876 1356.39,-181.625"/>
</g>
<!-- Node4 -->
<g id="node4" class="node"><title>Node4</title>
<g id="a_node4"><a xlink:href="../../d6/d9e/struct_indoor_location.html#a9ae5b2800115059413e4baf166a91859" target="_top" xlink:title=" ">
<polygon fill="white" stroke="black" points="988.5,-210.5 988.5,-229.5 1095.5,-229.5 1095.5,-210.5 988.5,-210.5"/>
<text text-anchor="middle" x="1042" y="-217.5" font-family="Helvetica,sans-Serif" font-size="10.00">IndoorLocation::Draw</text>
</a>
</g>
</g>
<!-- Node3&#45;&gt;Node4 -->
<g id="edge3" class="edge"><title>Node3&#45;&gt;Node4</title>
<path fill="none" stroke="midnightblue" d="M1155.69,-216.254C1135.88,-216.913 1114.52,-217.623 1095.78,-218.246"/>
<polygon fill="midnightblue" stroke="midnightblue" points="1156.01,-219.745 1165.89,-215.915 1155.78,-212.749 1156.01,-219.745"/>
</g>
<!-- Node5 -->
<g id="node5" class="node"><title>Node5</title>
<g id="a_node5"><a xlink:href="../../d6/d11/_u_i_arena_8h.html#ad46b571b6ee5f3df6c7a39113d768cc4" target="_top" xlink:title=" ">
<polygon fill="white" stroke="black" points="817,-264.5 817,-283.5 881,-283.5 881,-264.5 817,-264.5"/>
<text text-anchor="middle" x="849" y="-271.5" font-family="Helvetica,sans-Serif" font-size="10.00">ArenaFight</text>
</a>
</g>
</g>
<!-- Node4&#45;&gt;Node5 -->
<g id="edge4" class="edge"><title>Node4&#45;&gt;Node5</title>
<path fill="none" stroke="midnightblue" d="M1000.8,-232.615C978.532,-239.479 950.313,-247.979 925,-255 910.633,-258.985 894.624,-263.087 881.099,-266.454"/>
<polygon fill="midnightblue" stroke="midnightblue" points="1002.06,-235.888 1010.58,-229.587 999.992,-229.201 1002.06,-235.888"/>
</g>
<!-- Node11 -->
<g id="node11" class="node"><title>Node11</title>
<g id="a_node11"><a xlink:href="../../d6/d83/struct_engine.html#ac098ab29cbcd7352879d0101aaf4b827" target="_top" xlink:title=" ">
<polygon fill="white" stroke="black" points="812,-226.5 812,-245.5 886,-245.5 886,-226.5 812,-226.5"/>
<text text-anchor="middle" x="849" y="-233.5" font-family="Helvetica,sans-Serif" font-size="10.00">Engine::Draw</text>
</a>
</g>
</g>
<!-- Node4&#45;&gt;Node11 -->
<g id="edge10" class="edge"><title>Node4&#45;&gt;Node11</title>
<path fill="none" stroke="midnightblue" d="M978.175,-225.263C947.678,-227.818 912.127,-230.796 886.212,-232.967"/>
<polygon fill="midnightblue" stroke="midnightblue" points="978.63,-228.737 988.303,-224.414 978.046,-221.762 978.63,-228.737"/>
</g>
<!-- Node12 -->
<g id="node12" class="node"><title>Node12</title>
<g id="a_node12"><a xlink:href="../../da/d7f/class_render.html#a63751fa9863192dbf6cb82162e02dcb2" target="_top" xlink:title=" ">
<polygon fill="white" stroke="black" points="785.5,-188.5 785.5,-207.5 912.5,-207.5 912.5,-188.5 785.5,-188.5"/>
<text text-anchor="middle" x="849" y="-195.5" font-family="Helvetica,sans-Serif" font-size="10.00">Render::MakeScreenshot</text>
</a>
</g>
</g>
<!-- Node4&#45;&gt;Node12 -->
<g id="edge11" class="edge"><title>Node4&#45;&gt;Node12</title>
<path fill="none" stroke="midnightblue" d="M978.192,-212.766C957.158,-210.343 933.718,-207.643 912.693,-205.221"/>
<polygon fill="midnightblue" stroke="midnightblue" points="977.968,-216.263 988.303,-213.93 978.769,-209.309 977.968,-216.263"/>
</g>
<!-- Node6 -->
<g id="node6" class="node"><title>Node6</title>
<g id="a_node6"><a xlink:href="../../d6/d82/_u_i_dialogue_8h.html#a0213da862a4f9421ada12d4bfff8a710" target="_top" xlink:title=" ">
<polygon fill="white" stroke="black" points="594,-264.5 594,-283.5 737,-283.5 737,-264.5 594,-264.5"/>
<text text-anchor="middle" x="665.5" y="-271.5" font-family="Helvetica,sans-Serif" font-size="10.00">OnSelectNPCDialogueOption</text>
</a>
</g>
</g>
<!-- Node5&#45;&gt;Node6 -->
<g id="edge5" class="edge"><title>Node5&#45;&gt;Node6</title>
<path fill="none" stroke="midnightblue" d="M806.538,-274C786.007,-274 760.644,-274 737.168,-274"/>
<polygon fill="midnightblue" stroke="midnightblue" points="806.799,-277.5 816.799,-274 806.799,-270.5 806.799,-277.5"/>
</g>
<!-- Node7 -->
<g id="node7" class="node"><title>Node7</title>
<g id="a_node7"><a xlink:href="../../d4/d06/class_application_1_1_game.html#a3f65e3f0ef1a9114fb3dea275e52442e" target="_top" xlink:title=" ">
<polygon fill="white" stroke="black" points="455,-259 455,-289 558,-289 558,-259 455,-259"/>
<text text-anchor="start" x="463" y="-277" font-family="Helvetica,sans-Serif" font-size="10.00">Application::Game::</text>
<text text-anchor="middle" x="506.5" y="-266" font-family="Helvetica,sans-Serif" font-size="10.00">EventLoop</text>
</a>
</g>
</g>
<!-- Node6&#45;&gt;Node7 -->
<g id="edge6" class="edge"><title>Node6&#45;&gt;Node7</title>
<path fill="none" stroke="midnightblue" d="M583.611,-274C574.918,-274 566.265,-274 558.077,-274"/>
<polygon fill="midnightblue" stroke="midnightblue" points="583.808,-277.5 593.808,-274 583.808,-270.5 583.808,-277.5"/>
</g>
<!-- Node8 -->
<g id="node8" class="node"><title>Node8</title>
<g id="a_node8"><a xlink:href="../../d4/d06/class_application_1_1_game.html#aaa0ff18388b32b4e6198835a35e000d3" target="_top" xlink:title=" ">
<polygon fill="white" stroke="black" points="316,-259 316,-289 419,-289 419,-259 316,-259"/>
<text text-anchor="start" x="324" y="-277" font-family="Helvetica,sans-Serif" font-size="10.00">Application::Game::</text>
<text text-anchor="middle" x="367.5" y="-266" font-family="Helvetica,sans-Serif" font-size="10.00">GameLoop</text>
</a>
</g>
</g>
<!-- Node7&#45;&gt;Node8 -->
<g id="edge7" class="edge"><title>Node7&#45;&gt;Node8</title>
<path fill="none" stroke="midnightblue" d="M444.68,-274C436.228,-274 427.618,-274 419.374,-274"/>
<polygon fill="midnightblue" stroke="midnightblue" points="444.876,-277.5 454.875,-274 444.875,-270.5 444.876,-277.5"/>
</g>
<!-- Node9 -->
<g id="node9" class="node"><title>Node9</title>
<g id="a_node9"><a xlink:href="../../d4/d06/class_application_1_1_game.html#a013ffd59e8fdf1c0a396da1dbe1681ca" target="_top" xlink:title=" ">
<polygon fill="white" stroke="black" points="156,-264.5 156,-283.5 280,-283.5 280,-264.5 156,-264.5"/>
<text text-anchor="middle" x="218" y="-271.5" font-family="Helvetica,sans-Serif" font-size="10.00">Application::Game::Loop</text>
</a>
</g>
</g>
<!-- Node8&#45;&gt;Node9 -->
<g id="edge8" class="edge"><title>Node8&#45;&gt;Node9</title>
<path fill="none" stroke="midnightblue" d="M305.59,-274C297.149,-274 288.478,-274 280.035,-274"/>
<polygon fill="midnightblue" stroke="midnightblue" points="305.739,-277.5 315.739,-274 305.739,-270.5 305.739,-277.5"/>
</g>
<!-- Node10 -->
<g id="node10" class="node"><title>Node10</title>
<g id="a_node10"><a xlink:href="../../d4/d06/class_application_1_1_game.html#a96341ca5b54d90adc3ecb3bf0bcd2312" target="_top" xlink:title=" ">
<polygon fill="white" stroke="black" points="0,-264.5 0,-283.5 120,-283.5 120,-264.5 0,-264.5"/>
<text text-anchor="middle" x="60" y="-271.5" font-family="Helvetica,sans-Serif" font-size="10.00">Application::Game::Run</text>
</a>
</g>
</g>
<!-- Node9&#45;&gt;Node10 -->
<g id="edge9" class="edge"><title>Node9&#45;&gt;Node10</title>
<path fill="none" stroke="midnightblue" d="M145.546,-274C137.081,-274 128.513,-274 120.244,-274"/>
<polygon fill="midnightblue" stroke="midnightblue" points="145.792,-277.5 155.792,-274 145.792,-270.5 145.792,-277.5"/>
</g>
<!-- Node13 -->
<g id="node13" class="node"><title>Node13</title>
<g id="a_node13"><a xlink:href="../../da/d7f/class_render.html#af7b173c00dc50795552fbcabd3e59295" target="_top" xlink:title=" ">
<polygon fill="white" stroke="black" points="603,-226.5 603,-245.5 728,-245.5 728,-226.5 603,-226.5"/>
<text text-anchor="middle" x="665.5" y="-233.5" font-family="Helvetica,sans-Serif" font-size="10.00">Render::PackScreenshot</text>
</a>
</g>
</g>
<!-- Node12&#45;&gt;Node13 -->
<g id="edge12" class="edge"><title>Node12&#45;&gt;Node13</title>
<path fill="none" stroke="midnightblue" d="M792.208,-209.681C766.469,-215.07 736.301,-221.386 711.971,-226.48"/>
<polygon fill="midnightblue" stroke="midnightblue" points="793.129,-213.064 802.2,-207.589 791.695,-206.213 793.129,-213.064"/>
</g>
<!-- Node14 -->
<g id="node14" class="node"><title>Node14</title>
<g id="a_node14"><a xlink:href="../../da/d7f/class_render.html#a88afa2691444045e4bcc2c91034d0dbb" target="_top" xlink:title=" ">
<polygon fill="white" stroke="black" points="603.5,-188.5 603.5,-207.5 727.5,-207.5 727.5,-188.5 603.5,-188.5"/>
<text text-anchor="middle" x="665.5" y="-195.5" font-family="Helvetica,sans-Serif" font-size="10.00">Render::SaveScreenshot</text>
</a>
</g>
</g>
<!-- Node12&#45;&gt;Node14 -->
<g id="edge13" class="edge"><title>Node12&#45;&gt;Node14</title>
<path fill="none" stroke="midnightblue" d="M775.082,-198C759.364,-198 742.902,-198 727.686,-198"/>
<polygon fill="midnightblue" stroke="midnightblue" points="775.284,-201.5 785.284,-198 775.284,-194.5 775.284,-201.5"/>
</g>
<!-- Node15 -->
<g id="node15" class="node"><title>Node15</title>
<g id="a_node15"><a xlink:href="../../da/d7f/class_render.html#a72e0525411a241d2e40d63ef38fc1b6d" target="_top" xlink:title=" ">
<polygon fill="white" stroke="black" points="603.5,-150.5 603.5,-169.5 727.5,-169.5 727.5,-150.5 603.5,-150.5"/>
<text text-anchor="middle" x="665.5" y="-157.5" font-family="Helvetica,sans-Serif" font-size="10.00">Render::TakeScreenshot</text>
</a>
</g>
</g>
<!-- Node12&#45;&gt;Node15 -->
<g id="edge14" class="edge"><title>Node12&#45;&gt;Node15</title>
<path fill="none" stroke="midnightblue" d="M792.208,-186.319C766.469,-180.93 736.301,-174.614 711.971,-169.52"/>
<polygon fill="midnightblue" stroke="midnightblue" points="791.695,-189.787 802.2,-188.411 793.129,-182.936 791.695,-189.787"/>
</g>
<!-- Node17 -->
<g id="node17" class="node"><title>Node17</title>
<g id="a_node17"><a xlink:href="../../da/d7f/class_render.html#a3fa28b49954a5e0bd04d6ecec33a20cf" target="_top" xlink:title=" ">
<polygon fill="white" stroke="black" points="1159,-82.5 1159,-101.5 1290,-101.5 1290,-82.5 1159,-82.5"/>
<text text-anchor="middle" x="1224.5" y="-89.5" font-family="Helvetica,sans-Serif" font-size="10.00">Render::GetActorTintColor</text>
</a>
</g>
</g>
<!-- Node16&#45;&gt;Node17 -->
<g id="edge16" class="edge"><title>Node16&#45;&gt;Node17</title>
<path fill="none" stroke="midnightblue" d="M1343.36,-100.105C1326.35,-98.9355 1307.57,-97.6437 1290.09,-96.4415"/>
<polygon fill="midnightblue" stroke="midnightblue" points="1343.48,-103.621 1353.7,-100.816 1343.96,-96.6378 1343.48,-103.621"/>
</g>
<!-- Node18 -->
<g id="node18" class="node"><title>Node18</title>
<g id="a_node18"><a xlink:href="../../da/d7f/class_render.html#ae7ef7fb54f5ba374efa6fecd46fa29c9" target="_top" xlink:title=" ">
<polygon fill="white" stroke="black" points="985.5,-153 985.5,-183 1098.5,-183 1098.5,-153 985.5,-153"/>
<text text-anchor="start" x="993.5" y="-171" font-family="Helvetica,sans-Serif" font-size="10.00">Render::DrawBillboard</text>
<text text-anchor="middle" x="1042" y="-160" font-family="Helvetica,sans-Serif" font-size="10.00">_Indoor</text>
</a>
</g>
</g>
<!-- Node17&#45;&gt;Node18 -->
<g id="edge17" class="edge"><title>Node17&#45;&gt;Node18</title>
<path fill="none" stroke="midnightblue" d="M1198.04,-106.415C1178.04,-117.364 1149.29,-132.31 1123,-143 1114.24,-146.563 1104.77,-149.928 1095.52,-152.967"/>
<polygon fill="midnightblue" stroke="midnightblue" points="1199.78,-109.452 1206.83,-101.546 1196.39,-103.327 1199.78,-109.452"/>
</g>
<!-- Node20 -->
<g id="node20" class="node"><title>Node20</title>
<g id="a_node20"><a xlink:href="../../da/d7f/class_render.html#a00592516644e9d3ca43a3c8a1b6dcafd" target="_top" xlink:title=" ">
<polygon fill="white" stroke="black" points="992,-114.5 992,-133.5 1092,-133.5 1092,-114.5 992,-114.5"/>
<text text-anchor="middle" x="1042" y="-121.5" font-family="Helvetica,sans-Serif" font-size="10.00">Render::DrawDecal</text>
</a>
</g>
</g>
<!-- Node17&#45;&gt;Node20 -->
<g id="edge19" class="edge"><title>Node17&#45;&gt;Node20</title>
<path fill="none" stroke="midnightblue" d="M1159.81,-103.291C1137.59,-107.231 1113.01,-111.589 1092.15,-115.287"/>
<polygon fill="midnightblue" stroke="midnightblue" points="1160.6,-106.706 1169.83,-101.514 1159.38,-99.8139 1160.6,-106.706"/>
</g>
<!-- Node21 -->
<g id="node21" class="node"><title>Node21</title>
<g id="a_node21"><a xlink:href="../../da/d7f/class_render.html#ae7ab22436103697eb832d25fe70933ec" target="_top" xlink:title=" ">
<polygon fill="white" stroke="black" points="961,-76.5 961,-95.5 1123,-95.5 1123,-76.5 961,-76.5"/>
<text text-anchor="middle" x="1042" y="-83.5" font-family="Helvetica,sans-Serif" font-size="10.00">Render::DrawOutdoorSkyPolygon</text>
</a>
</g>
</g>
<!-- Node17&#45;&gt;Node21 -->
<g id="edge20" class="edge"><title>Node17&#45;&gt;Node21</title>
<path fill="none" stroke="midnightblue" d="M1148.71,-89.514C1140.31,-89.2348 1131.73,-88.9495 1123.27,-88.6682"/>
<polygon fill="midnightblue" stroke="midnightblue" points="1148.73,-93.0166 1158.85,-89.8508 1148.97,-86.0204 1148.73,-93.0166"/>
</g>
<!-- Node23 -->
<g id="node23" class="node"><title>Node23</title>
<g id="a_node23"><a xlink:href="../../da/d7f/class_render.html#ae7126e41b3845627f862b288a5c3d3b4" target="_top" xlink:title=" ">
<polygon fill="white" stroke="black" points="987,-38.5 987,-57.5 1097,-57.5 1097,-38.5 987,-38.5"/>
<text text-anchor="middle" x="1042" y="-45.5" font-family="Helvetica,sans-Serif" font-size="10.00">Render::DrawPolygon</text>
</a>
</g>
</g>
<!-- Node17&#45;&gt;Node23 -->
<g id="edge22" class="edge"><title>Node17&#45;&gt;Node23</title>
<path fill="none" stroke="midnightblue" d="M1175.33,-79.9071C1158.75,-75.7752 1140.07,-71.1506 1123,-67 1110.24,-63.8974 1096.32,-60.571 1083.72,-57.5822"/>
<polygon fill="midnightblue" stroke="midnightblue" points="1174.8,-83.3809 1185.35,-82.4075 1176.49,-76.5894 1174.8,-83.3809"/>
</g>
<!-- Node24 -->
<g id="node24" class="node"><title>Node24</title>
<g id="a_node24"><a xlink:href="../../da/d7f/class_render.html#a052b5ec5bff39d79ce8fe279fdbe4dc2" target="_top" xlink:title=" ">
<polygon fill="white" stroke="black" points="972,-0.5 972,-19.5 1112,-19.5 1112,-0.5 972,-0.5"/>
<text text-anchor="middle" x="1042" y="-7.5" font-family="Helvetica,sans-Serif" font-size="10.00">Render::DrawTerrainPolygon</text>
</a>
</g>
</g>
<!-- Node17&#45;&gt;Node24 -->
<g id="edge23" class="edge"><title>Node17&#45;&gt;Node24</title>
<path fill="none" stroke="midnightblue" d="M1203.07,-76.3767C1183.51,-62.1129 1152.65,-41.4155 1123,-29 1113.91,-25.1955 1103.91,-22.0616 1094.15,-19.5131"/>
<polygon fill="midnightblue" stroke="midnightblue" points="1201.11,-79.2772 1211.23,-82.4248 1205.28,-73.6554 1201.11,-79.2772"/>
</g>
<!-- Node19 -->
<g id="node19" class="node"><title>Node19</title>
<g id="a_node19"><a xlink:href="../../da/d7f/class_render.html#af0ec31297483f0d979c33789997d150c" target="_top" xlink:title=" ">
<polygon fill="white" stroke="black" points="773,-150.5 773,-169.5 925,-169.5 925,-150.5 773,-150.5"/>
<text text-anchor="middle" x="849" y="-157.5" font-family="Helvetica,sans-Serif" font-size="10.00">Render::DrawBillboardList_BLV</text>
</a>
</g>
</g>
<!-- Node18&#45;&gt;Node19 -->
<g id="edge18" class="edge"><title>Node18&#45;&gt;Node19</title>
<path fill="none" stroke="midnightblue" d="M975.122,-165.241C959.025,-164.567 941.683,-163.84 925.188,-163.149"/>
<polygon fill="midnightblue" stroke="midnightblue" points="975.361,-168.754 985.498,-165.675 975.654,-161.76 975.361,-168.754"/>
</g>
<!-- Node22 -->
<g id="node22" class="node"><title>Node22</title>
<g id="a_node22"><a xlink:href="../../da/d7f/class_render.html#abfb3c9ce6265cbe9bfafc53fb222f825" target="_top" xlink:title=" ">
<polygon fill="white" stroke="black" points="776,-76.5 776,-95.5 922,-95.5 922,-76.5 776,-76.5"/>
<text text-anchor="middle" x="849" y="-83.5" font-family="Helvetica,sans-Serif" font-size="10.00">Render::DrawOutdoorSkyD3D</text>
</a>
</g>
</g>
<!-- Node21&#45;&gt;Node22 -->
<g id="edge21" class="edge"><title>Node21&#45;&gt;Node22</title>
<path fill="none" stroke="midnightblue" d="M950.821,-86C941.176,-86 931.458,-86 922.063,-86"/>
<polygon fill="midnightblue" stroke="midnightblue" points="950.829,-89.5001 960.829,-86 950.829,-82.5001 950.829,-89.5001"/>
</g>
<!-- Node25 -->
<g id="node25" class="node"><title>Node25</title>
<g id="a_node25"><a xlink:href="../../da/d7f/class_render.html#a564a06ea7b3e8d9d646c73e90bdd8286" target="_top" xlink:title=" ">
<polygon fill="white" stroke="black" points="787,-0.5 787,-19.5 911,-19.5 911,-0.5 787,-0.5"/>
<text text-anchor="middle" x="849" y="-7.5" font-family="Helvetica,sans-Serif" font-size="10.00">Render::DrawBorderTiles</text>
</a>
</g>
</g>
<!-- Node24&#45;&gt;Node25 -->
<g id="edge24" class="edge"><title>Node24&#45;&gt;Node25</title>
<path fill="none" stroke="midnightblue" d="M961.409,-10C944.591,-10 927.094,-10 911.087,-10"/>
<polygon fill="midnightblue" stroke="midnightblue" points="961.775,-13.5001 971.775,-10 961.775,-6.5001 961.775,-13.5001"/>
</g>
<!-- Node26 -->
<g id="node26" class="node"><title>Node26</title>
<g id="a_node26"><a xlink:href="../../da/d7f/class_render.html#a669638f085b2e25a069c901801e79437" target="_top" xlink:title=" ">
<polygon fill="white" stroke="black" points="599.5,-0.5 599.5,-19.5 731.5,-19.5 731.5,-0.5 599.5,-0.5"/>
<text text-anchor="middle" x="665.5" y="-7.5" font-family="Helvetica,sans-Serif" font-size="10.00">Render::RenderTerrainD3D</text>
</a>
</g>
</g>
<!-- Node25&#45;&gt;Node26 -->
<g id="edge25" class="edge"><title>Node25&#45;&gt;Node26</title>
<path fill="none" stroke="midnightblue" d="M776.692,-10C761.886,-10 746.356,-10 731.779,-10"/>
<polygon fill="midnightblue" stroke="midnightblue" points="776.805,-13.5001 786.805,-10 776.805,-6.5001 776.805,-13.5001"/>
</g>
</g>
</svg>
