<?xml version="1.0" encoding="UTF-8" standalone="no"?>
<!DOCTYPE svg PUBLIC "-//W3C//DTD SVG 1.1//EN"
 "http://www.w3.org/Graphics/SVG/1.1/DTD/svg11.dtd">
<!-- Generated by graphviz version 2.38.0 (20140413.2041)
 -->
<!-- Title: collide_against_floor Pages: 1 -->
<svg width="1212pt" height="89pt"
 viewBox="0.00 0.00 1212.00 88.61" xmlns="http://www.w3.org/2000/svg" xmlns:xlink="http://www.w3.org/1999/xlink">
<g id="graph0" class="graph" transform="scale(1 1) rotate(0) translate(4 84.6148)">
<title>collide_against_floor</title>
<polygon fill="white" stroke="none" points="-4,4 -4,-84.6148 1208,-84.6148 1208,4 -4,4"/>
<!-- Node1 -->
<g id="node1" class="node"><title>Node1</title>
<g id="a_node1"><a xlink:title=" ">
<polygon fill="#bfbfbf" stroke="black" points="1100,-41.5 1100,-60.5 1204,-60.5 1204,-41.5 1100,-41.5"/>
<text text-anchor="middle" x="1152" y="-48.5" font-family="Helvetica,sans-Serif" font-size="10.00">collide_against_floor</text>
</a>
</g>
</g>
<!-- Node2 -->
<g id="node2" class="node"><title>Node2</title>
<g id="a_node2"><a xlink:href="../../da/dc7/_indoor_8h.html#a07b99aba77bf867821578ea0151a2f64" target="_top" xlink:title=" ">
<polygon fill="white" stroke="black" points="791,-41.5 791,-60.5 924,-60.5 924,-41.5 791,-41.5"/>
<text text-anchor="middle" x="857.5" y="-48.5" font-family="Helvetica,sans-Serif" font-size="10.00">BLV_ProcessPartyActions</text>
</a>
</g>
</g>
<!-- Node1&#45;&gt;Node2 -->
<g id="edge1" class="edge"><title>Node1&#45;&gt;Node2</title>
<path fill="none" stroke="midnightblue" d="M1115.05,-63.7774C1099.56,-68.6415 1081.11,-73.591 1064,-76 1018.23,-82.4458 1005.89,-81.5677 960,-76 935.859,-73.0707 909.18,-66.3583 889.236,-60.6259"/>
<polygon fill="midnightblue" stroke="midnightblue" points="1116.34,-67.0412 1124.76,-60.6209 1114.17,-60.3842 1116.34,-67.0412"/>
</g>
<!-- Node8 -->
<g id="node8" class="node"><title>Node8</title>
<g id="a_node8"><a xlink:href="../../da/dc7/_indoor_8h.html#a02862fee029209b8ac54698a47d4e160" target="_top" xlink:title=" ">
<polygon fill="white" stroke="black" points="960,-36 960,-66 1064,-66 1064,-36 960,-36"/>
<text text-anchor="start" x="968" y="-54" font-family="Helvetica,sans-Serif" font-size="10.00">collide_against_floor</text>
<text text-anchor="middle" x="1012" y="-43" font-family="Helvetica,sans-Serif" font-size="10.00">_approximate</text>
</a>
</g>
</g>
<!-- Node1&#45;&gt;Node8 -->
<g id="edge7" class="edge"><title>Node1&#45;&gt;Node8</title>
<path fill="none" stroke="midnightblue" d="M1089.5,-51C1081.13,-51 1072.6,-51 1064.43,-51"/>
<polygon fill="midnightblue" stroke="midnightblue" points="1089.61,-54.5001 1099.61,-51 1089.61,-47.5001 1089.61,-54.5001"/>
</g>
<!-- Node9 -->
<g id="node9" class="node"><title>Node9</title>
<g id="a_node9"><a xlink:href="../../da/dc7/_indoor_8h.html#a91180cf18d91c79b7bc41c630c261cbd" target="_top" xlink:title=" ">
<polygon fill="white" stroke="black" points="807.5,-0.5 807.5,-19.5 907.5,-19.5 907.5,-0.5 807.5,-0.5"/>
<text text-anchor="middle" x="857.5" y="-7.5" font-family="Helvetica,sans-Serif" font-size="10.00">UpdateActors_BLV</text>
</a>
</g>
</g>
<!-- Node1&#45;&gt;Node9 -->
<g id="edge9" class="edge"><title>Node1&#45;&gt;Node9</title>
<path fill="none" stroke="midnightblue" d="M1113.55,-38.4433C1098.34,-33.8153 1080.49,-28.9799 1064,-26 1011.18,-16.4556 949.704,-12.6029 907.852,-11.0487"/>
<polygon fill="midnightblue" stroke="midnightblue" points="1112.54,-41.7937 1123.13,-41.433 1114.63,-35.1118 1112.54,-41.7937"/>
</g>
<!-- Node3 -->
<g id="node3" class="node"><title>Node3</title>
<g id="a_node3"><a xlink:href="../../da/dc7/_indoor_8h.html#a7d511837933d59eeeccfc25275a366d8" target="_top" xlink:title=" ">
<polygon fill="white" stroke="black" points="601,-22.5 601,-41.5 755,-41.5 755,-22.5 601,-22.5"/>
<text text-anchor="middle" x="678" y="-29.5" font-family="Helvetica,sans-Serif" font-size="10.00">BLV_UpdateUserInputAndOther</text>
</a>
</g>
</g>
<!-- Node2&#45;&gt;Node3 -->
<g id="edge2" class="edge"><title>Node2&#45;&gt;Node3</title>
<path fill="none" stroke="midnightblue" d="M780.961,-42.9142C772.404,-41.9982 763.679,-41.0643 755.115,-40.1475"/>
<polygon fill="midnightblue" stroke="midnightblue" points="780.594,-46.3948 790.91,-43.9791 781.339,-39.4345 780.594,-46.3948"/>
</g>
<!-- Node4 -->
<g id="node4" class="node"><title>Node4</title>
<g id="a_node4"><a xlink:href="../../de/dcf/_engine_8h.html#a73fe5e8d7dc6ec78e5cc180d1915341b" target="_top" xlink:title=" ">
<polygon fill="white" stroke="black" points="455,-17 455,-47 565,-47 565,-17 455,-17"/>
<text text-anchor="start" x="463" y="-35" font-family="Helvetica,sans-Serif" font-size="10.00">UpdateUserInput_and</text>
<text text-anchor="middle" x="510" y="-24" font-family="Helvetica,sans-Serif" font-size="10.00">_MapSpecificStuff</text>
</a>
</g>
</g>
<!-- Node3&#45;&gt;Node4 -->
<g id="edge3" class="edge"><title>Node3&#45;&gt;Node4</title>
<path fill="none" stroke="midnightblue" d="M590.711,-32C582.115,-32 573.566,-32 565.434,-32"/>
<polygon fill="midnightblue" stroke="midnightblue" points="590.802,-35.5001 600.802,-32 590.802,-28.5001 590.802,-35.5001"/>
</g>
<!-- Node5 -->
<g id="node5" class="node"><title>Node5</title>
<g id="a_node5"><a xlink:href="../../d4/d06/class_application_1_1_game.html#aaa0ff18388b32b4e6198835a35e000d3" target="_top" xlink:title=" ">
<polygon fill="white" stroke="black" points="316,-17 316,-47 419,-47 419,-17 316,-17"/>
<text text-anchor="start" x="324" y="-35" font-family="Helvetica,sans-Serif" font-size="10.00">Application::Game::</text>
<text text-anchor="middle" x="367.5" y="-24" font-family="Helvetica,sans-Serif" font-size="10.00">GameLoop</text>
</a>
</g>
</g>
<!-- Node4&#45;&gt;Node5 -->
<g id="edge4" class="edge"><title>Node4&#45;&gt;Node5</title>
<path fill="none" stroke="midnightblue" d="M444.514,-32C436.109,-32 427.593,-32 419.452,-32"/>
<polygon fill="midnightblue" stroke="midnightblue" points="444.679,-35.5001 454.679,-32 444.679,-28.5001 444.679,-35.5001"/>
</g>
<!-- Node6 -->
<g id="node6" class="node"><title>Node6</title>
<g id="a_node6"><a xlink:href="../../d4/d06/class_application_1_1_game.html#a013ffd59e8fdf1c0a396da1dbe1681ca" target="_top" xlink:title=" ">
<polygon fill="white" stroke="black" points="156,-22.5 156,-41.5 280,-41.5 280,-22.5 156,-22.5"/>
<text text-anchor="middle" x="218" y="-29.5" font-family="Helvetica,sans-Serif" font-size="10.00">Application::Game::Loop</text>
</a>
</g>
</g>
<!-- Node5&#45;&gt;Node6 -->
<g id="edge5" class="edge"><title>Node5&#45;&gt;Node6</title>
<path fill="none" stroke="midnightblue" d="M305.59,-32C297.149,-32 288.478,-32 280.035,-32"/>
<polygon fill="midnightblue" stroke="midnightblue" points="305.739,-35.5001 315.739,-32 305.739,-28.5001 305.739,-35.5001"/>
</g>
<!-- Node7 -->
<g id="node7" class="node"><title>Node7</title>
<g id="a_node7"><a xlink:href="../../d4/d06/class_application_1_1_game.html#a96341ca5b54d90adc3ecb3bf0bcd2312" target="_top" xlink:title=" ">
<polygon fill="white" stroke="black" points="0,-22.5 0,-41.5 120,-41.5 120,-22.5 0,-22.5"/>
<text text-anchor="middle" x="60" y="-29.5" font-family="Helvetica,sans-Serif" font-size="10.00">Application::Game::Run</text>
</a>
</g>
</g>
<!-- Node6&#45;&gt;Node7 -->
<g id="edge6" class="edge"><title>Node6&#45;&gt;Node7</title>
<path fill="none" stroke="midnightblue" d="M145.546,-32C137.081,-32 128.513,-32 120.244,-32"/>
<polygon fill="midnightblue" stroke="midnightblue" points="145.792,-35.5001 155.792,-32 145.792,-28.5001 145.792,-35.5001"/>
</g>
<!-- Node8&#45;&gt;Node2 -->
<g id="edge8" class="edge"><title>Node8&#45;&gt;Node2</title>
<path fill="none" stroke="midnightblue" d="M949.708,-51C941.312,-51 932.664,-51 924.194,-51"/>
<polygon fill="midnightblue" stroke="midnightblue" points="949.796,-54.5001 959.795,-51 949.795,-47.5001 949.796,-54.5001"/>
</g>
<!-- Node9&#45;&gt;Node3 -->
<g id="edge10" class="edge"><title>Node9&#45;&gt;Node3</title>
<path fill="none" stroke="midnightblue" d="M796.998,-17.3749C783.557,-19.0408 769.109,-20.8316 755.091,-22.569"/>
<polygon fill="midnightblue" stroke="midnightblue" points="797.563,-20.8318 807.056,-16.1282 796.702,-13.8849 797.563,-20.8318"/>
</g>
</g>
</svg>
