<?xml version="1.0" encoding="UTF-8" standalone="no"?>
<!DOCTYPE svg PUBLIC "-//W3C//DTD SVG 1.1//EN"
 "http://www.w3.org/Graphics/SVG/1.1/DTD/svg11.dtd">
<!-- Generated by graphviz version 2.38.0 (20140413.2041)
 -->
<!-- Title: LODFile_Sprites::LoadSprites Pages: 1 -->
<svg width="323pt" height="66pt"
 viewBox="0.00 0.00 323.00 66.00" xmlns="http://www.w3.org/2000/svg" xmlns:xlink="http://www.w3.org/1999/xlink">
<g id="graph0" class="graph" transform="scale(1 1) rotate(0) translate(4 62)">
<title>LODFile_Sprites::LoadSprites</title>
<polygon fill="white" stroke="none" points="-4,4 -4,-62 319,-62 319,4 -4,4"/>
<!-- Node1 -->
<g id="node1" class="node"><title>Node1</title>
<g id="a_node1"><a xlink:title=" ">
<polygon fill="#bfbfbf" stroke="black" points="0,-19.5 0,-38.5 146,-38.5 146,-19.5 0,-19.5"/>
<text text-anchor="middle" x="73" y="-26.5" font-family="Helvetica,sans-Serif" font-size="10.00">LODFile_Sprites::LoadSprites</text>
</a>
</g>
</g>
<!-- Node2 -->
<g id="node2" class="node"><title>Node2</title>
<g id="a_node2"><a xlink:href="../../dd/da7/class_l_o_d_1_1_file.html#a3272ae8caf1e5a3ffb1f2533e46a477b" target="_top" xlink:title=" ">
<polygon fill="white" stroke="black" points="182,-38.5 182,-57.5 315,-57.5 315,-38.5 182,-38.5"/>
<text text-anchor="middle" x="248.5" y="-45.5" font-family="Helvetica,sans-Serif" font-size="10.00">LOD::File::LoadSubIndices</text>
</a>
</g>
</g>
<!-- Node1&#45;&gt;Node2 -->
<g id="edge1" class="edge"><title>Node1&#45;&gt;Node2</title>
<path fill="none" stroke="midnightblue" d="M146.072,-36.8926C154.571,-37.8233 163.263,-38.7752 171.81,-39.7111"/>
<polygon fill="midnightblue" stroke="midnightblue" points="171.434,-43.1908 181.755,-40.8003 172.196,-36.2324 171.434,-43.1908"/>
</g>
<!-- Node3 -->
<g id="node3" class="node"><title>Node3</title>
<g id="a_node3"><a xlink:href="../../dd/da7/class_l_o_d_1_1_file.html#aa32d8447321690bead61de05f93352be" target="_top" xlink:title=" ">
<polygon fill="white" stroke="black" points="205,-0.5 205,-19.5 292,-19.5 292,-0.5 205,-0.5"/>
<text text-anchor="middle" x="248.5" y="-7.5" font-family="Helvetica,sans-Serif" font-size="10.00">LOD::File::Open</text>
</a>
</g>
</g>
<!-- Node1&#45;&gt;Node3 -->
<g id="edge2" class="edge"><title>Node1&#45;&gt;Node3</title>
<path fill="none" stroke="midnightblue" d="M146.072,-21.1074C162.261,-19.3346 179.151,-17.4849 194.4,-15.8149"/>
<polygon fill="midnightblue" stroke="midnightblue" points="195.107,-19.2586 204.666,-14.6907 194.345,-12.3002 195.107,-19.2586"/>
</g>
</g>
</svg>
