<?xml version="1.0" encoding="UTF-8" standalone="no"?>
<!DOCTYPE svg PUBLIC "-//W3C//DTD SVG 1.1//EN"
 "http://www.w3.org/Graphics/SVG/1.1/DTD/svg11.dtd">
<!-- Generated by graphviz version 2.38.0 (20140413.2041)
 -->
<!-- Title: BlendColors Pages: 1 -->
<svg width="466pt" height="88pt"
 viewBox="0.00 0.00 466.00 88.00" xmlns="http://www.w3.org/2000/svg" xmlns:xlink="http://www.w3.org/1999/xlink">
<g id="graph0" class="graph" transform="scale(1 1) rotate(0) translate(4 84)">
<title>BlendColors</title>
<polygon fill="white" stroke="none" points="-4,4 -4,-84 462,-84 462,4 -4,4"/>
<!-- Node1 -->
<g id="node1" class="node"><title>Node1</title>
<g id="a_node1"><a xlink:title=" ">
<polygon fill="#bfbfbf" stroke="black" points="389,-30 389,-49 458,-49 458,-30 389,-30"/>
<text text-anchor="middle" x="423.5" y="-37" font-family="Helvetica,sans-Serif" font-size="10.00">BlendColors</text>
</a>
</g>
</g>
<!-- Node2 -->
<g id="node2" class="node"><title>Node2</title>
<g id="a_node2"><a xlink:href="../../d1/d2c/class_render_open_g_l.html#a52fd9839f21eafc5950a594164084b33" target="_top" xlink:title=" ">
<polygon fill="white" stroke="black" points="200.5,-47.5 200.5,-77.5 349.5,-77.5 349.5,-47.5 200.5,-47.5"/>
<text text-anchor="start" x="208.5" y="-65.5" font-family="Helvetica,sans-Serif" font-size="10.00">RenderOpenGL::DrawBillboard</text>
<text text-anchor="middle" x="275" y="-54.5" font-family="Helvetica,sans-Serif" font-size="10.00">_Indoor</text>
</a>
</g>
</g>
<!-- Node1&#45;&gt;Node2 -->
<g id="edge1" class="edge"><title>Node1&#45;&gt;Node2</title>
<path fill="none" stroke="midnightblue" d="M378.861,-46.3512C369.661,-47.7956 359.712,-49.3575 349.75,-50.9214"/>
<polygon fill="midnightblue" stroke="midnightblue" points="379.554,-49.7854 388.89,-44.7767 378.468,-42.8701 379.554,-49.7854"/>
</g>
<!-- Node4 -->
<g id="node4" class="node"><title>Node4</title>
<g id="a_node4"><a xlink:href="../../d9/d47/class_render_base.html#a2fffe899daa2365ffd63e61e690b4427" target="_top" xlink:title=" ">
<polygon fill="white" stroke="black" points="197,-8 197,-27 353,-27 353,-8 197,-8"/>
<text text-anchor="middle" x="275" y="-15" font-family="Helvetica,sans-Serif" font-size="10.00">RenderBase::TransformBillboard</text>
</a>
</g>
</g>
<!-- Node1&#45;&gt;Node4 -->
<g id="edge3" class="edge"><title>Node1&#45;&gt;Node4</title>
<path fill="none" stroke="midnightblue" d="M378.846,-32.9444C366.462,-31.0847 352.721,-29.0212 339.42,-27.0238"/>
<polygon fill="midnightblue" stroke="midnightblue" points="378.481,-36.4288 388.89,-34.4528 379.521,-29.5064 378.481,-36.4288"/>
</g>
<!-- Node3 -->
<g id="node3" class="node"><title>Node3</title>
<g id="a_node3"><a xlink:href="../../d1/d2c/class_render_open_g_l.html#afe9bb1556ae0a7e5948ddc6939821265" target="_top" xlink:title=" ">
<polygon fill="white" stroke="black" points="6,-49.5 6,-79.5 155,-79.5 155,-49.5 6,-49.5"/>
<text text-anchor="start" x="14" y="-67.5" font-family="Helvetica,sans-Serif" font-size="10.00">RenderOpenGL::DrawBillboard</text>
<text text-anchor="middle" x="80.5" y="-56.5" font-family="Helvetica,sans-Serif" font-size="10.00">List_BLV</text>
</a>
</g>
</g>
<!-- Node2&#45;&gt;Node3 -->
<g id="edge2" class="edge"><title>Node2&#45;&gt;Node3</title>
<path fill="none" stroke="midnightblue" d="M190.2,-63.3706C178.501,-63.4922 166.551,-63.6164 155.059,-63.7357"/>
<polygon fill="midnightblue" stroke="midnightblue" points="190.437,-66.8685 200.4,-63.2647 190.364,-59.8689 190.437,-66.8685"/>
</g>
<!-- Node5 -->
<g id="node5" class="node"><title>Node5</title>
<g id="a_node5"><a xlink:href="../../d9/d47/class_render_base.html#a39aa6f285445bfd1843e50b00a8d00bd" target="_top" xlink:title=" ">
<polygon fill="white" stroke="black" points="0,-0.5 0,-30.5 161,-30.5 161,-0.5 0,-0.5"/>
<text text-anchor="start" x="8" y="-18.5" font-family="Helvetica,sans-Serif" font-size="10.00">RenderBase::TransformBillboards</text>
<text text-anchor="middle" x="80.5" y="-7.5" font-family="Helvetica,sans-Serif" font-size="10.00">AndSetPalettesODM</text>
</a>
</g>
</g>
<!-- Node4&#45;&gt;Node5 -->
<g id="edge4" class="edge"><title>Node4&#45;&gt;Node5</title>
<path fill="none" stroke="midnightblue" d="M186.572,-16.5917C178.126,-16.5039 169.588,-16.4152 161.221,-16.3283"/>
<polygon fill="midnightblue" stroke="midnightblue" points="186.776,-20.0939 196.812,-16.698 186.849,-13.0942 186.776,-20.0939"/>
</g>
</g>
</svg>
