<?xml version="1.0" encoding="UTF-8" standalone="no"?>
<!DOCTYPE svg PUBLIC "-//W3C//DTD SVG 1.1//EN"
 "http://www.w3.org/Graphics/SVG/1.1/DTD/svg11.dtd">
<!-- Generated by graphviz version 2.38.0 (20140413.2041)
 -->
<!-- Title: _set_3d_modelview_matrix Pages: 1 -->
<svg width="347pt" height="116pt"
 viewBox="0.00 0.00 347.00 116.00" xmlns="http://www.w3.org/2000/svg" xmlns:xlink="http://www.w3.org/1999/xlink">
<g id="graph0" class="graph" transform="scale(1 1) rotate(0) translate(4 112)">
<title>_set_3d_modelview_matrix</title>
<polygon fill="white" stroke="none" points="-4,4 -4,-112 343,-112 343,4 -4,4"/>
<!-- Node1 -->
<g id="node1" class="node"><title>Node1</title>
<g id="a_node1"><a xlink:title=" ">
<polygon fill="#bfbfbf" stroke="black" points="206,-44.5 206,-63.5 339,-63.5 339,-44.5 206,-44.5"/>
<text text-anchor="middle" x="272.5" y="-51.5" font-family="Helvetica,sans-Serif" font-size="10.00">_set_3d_modelview_matrix</text>
</a>
</g>
</g>
<!-- Node2 -->
<g id="node2" class="node"><title>Node2</title>
<g id="a_node2"><a xlink:href="../../d1/d2c/class_render_open_g_l.html#ac8b40cc63905732097b33b8f1d994503" target="_top" xlink:title=" ">
<polygon fill="white" stroke="black" points="0,-88.5 0,-107.5 170,-107.5 170,-88.5 0,-88.5"/>
<text text-anchor="middle" x="85" y="-95.5" font-family="Helvetica,sans-Serif" font-size="10.00">RenderOpenGL::DrawBuildingsD3D</text>
</a>
</g>
</g>
<!-- Node1&#45;&gt;Node2 -->
<g id="edge1" class="edge"><title>Node1&#45;&gt;Node2</title>
<path fill="none" stroke="midnightblue" d="M223.295,-66.0722C206.451,-70.2377 187.405,-74.8884 170,-79 156.613,-82.1624 141.999,-85.5057 128.769,-88.4914"/>
<polygon fill="midnightblue" stroke="midnightblue" points="224.601,-69.3545 233.464,-63.5504 222.916,-62.5603 224.601,-69.3545"/>
</g>
<!-- Node3 -->
<g id="node3" class="node"><title>Node3</title>
<g id="a_node3"><a xlink:href="../../d1/d2c/class_render_open_g_l.html#a4fccb42ef83fafb054dc2c6806accc56" target="_top" xlink:title=" ">
<polygon fill="white" stroke="black" points="16.5,-39 16.5,-69 153.5,-69 153.5,-39 16.5,-39"/>
<text text-anchor="start" x="24.5" y="-57" font-family="Helvetica,sans-Serif" font-size="10.00">RenderOpenGL::DrawIndoor</text>
<text text-anchor="middle" x="85" y="-46" font-family="Helvetica,sans-Serif" font-size="10.00">Polygon</text>
</a>
</g>
</g>
<!-- Node1&#45;&gt;Node3 -->
<g id="edge2" class="edge"><title>Node1&#45;&gt;Node3</title>
<path fill="none" stroke="midnightblue" d="M195.814,-54C181.892,-54 167.439,-54 153.768,-54"/>
<polygon fill="midnightblue" stroke="midnightblue" points="195.839,-57.5001 205.839,-54 195.839,-50.5001 195.839,-57.5001"/>
</g>
<!-- Node4 -->
<g id="node4" class="node"><title>Node4</title>
<g id="a_node4"><a xlink:href="../../d1/d2c/class_render_open_g_l.html#abf236e63625c1bc5204b19c19527a84e" target="_top" xlink:title=" ">
<polygon fill="white" stroke="black" points="1,-0.5 1,-19.5 169,-19.5 169,-0.5 1,-0.5"/>
<text text-anchor="middle" x="85" y="-7.5" font-family="Helvetica,sans-Serif" font-size="10.00">RenderOpenGL::RenderTerrainD3D</text>
</a>
</g>
</g>
<!-- Node1&#45;&gt;Node4 -->
<g id="edge3" class="edge"><title>Node1&#45;&gt;Node4</title>
<path fill="none" stroke="midnightblue" d="M221.43,-42.1236C191.549,-35.0358 154.109,-26.1552 126.172,-19.5287"/>
<polygon fill="midnightblue" stroke="midnightblue" points="220.711,-45.5502 231.249,-44.4527 222.327,-38.7391 220.711,-45.5502"/>
</g>
</g>
</svg>
