<?xml version="1.0" encoding="UTF-8" standalone="no"?>
<!DOCTYPE svg PUBLIC "-//W3C//DTD SVG 1.1//EN"
 "http://www.w3.org/Graphics/SVG/1.1/DTD/svg11.dtd">
<!-- Generated by graphviz version 2.38.0 (20140413.2041)
 -->
<!-- Title: _set_3d_modelview_matrix Pages: 1 -->
<svg width="254pt" height="104pt"
 viewBox="0.00 0.00 254.00 104.00" xmlns="http://www.w3.org/2000/svg" xmlns:xlink="http://www.w3.org/1999/xlink">
<g id="graph0" class="graph" transform="scale(1 1) rotate(0) translate(4 100)">
<title>_set_3d_modelview_matrix</title>
<polygon fill="white" stroke="none" points="-4,4 -4,-100 250,-100 250,4 -4,4"/>
<!-- Node1 -->
<g id="node1" class="node"><title>Node1</title>
<g id="a_node1"><a xlink:title=" ">
<polygon fill="#bfbfbf" stroke="black" points="0,-38.5 0,-57.5 133,-57.5 133,-38.5 0,-38.5"/>
<text text-anchor="middle" x="66.5" y="-45.5" font-family="Helvetica,sans-Serif" font-size="10.00">_set_3d_modelview_matrix</text>
</a>
</g>
</g>
<!-- Node2 -->
<g id="node2" class="node"><title>Node2</title>
<g id="a_node2"><a xlink:href="../../df/dc4/_s_d_l__opengl_8h.html#a6577472f85b23086331edadaf0311a49" target="_top" xlink:title=" ">
<polygon fill="white" stroke="black" points="169,-76.5 169,-95.5 246,-95.5 246,-76.5 169,-76.5"/>
<text text-anchor="middle" x="207.5" y="-83.5" font-family="Helvetica,sans-Serif" font-size="10.00">glLoadIdentity</text>
</a>
</g>
</g>
<!-- Node1&#45;&gt;Node2 -->
<g id="edge1" class="edge"><title>Node1&#45;&gt;Node2</title>
<path fill="none" stroke="midnightblue" d="M102.576,-57.589C120.519,-62.4944 142.558,-68.5196 161.717,-73.7571"/>
<polygon fill="midnightblue" stroke="midnightblue" points="160.867,-77.1531 171.436,-76.4141 162.713,-70.4008 160.867,-77.1531"/>
</g>
<!-- Node3 -->
<g id="node3" class="node"><title>Node3</title>
<g id="a_node3"><a xlink:href="../../df/dc4/_s_d_l__opengl_8h.html#af14e38e22806d0220680b52edbc3bcef" target="_top" xlink:title=" ">
<polygon fill="white" stroke="black" points="170,-38.5 170,-57.5 245,-57.5 245,-38.5 170,-38.5"/>
<text text-anchor="middle" x="207.5" y="-45.5" font-family="Helvetica,sans-Serif" font-size="10.00">glMatrixMode</text>
</a>
</g>
</g>
<!-- Node1&#45;&gt;Node3 -->
<g id="edge2" class="edge"><title>Node1&#45;&gt;Node3</title>
<path fill="none" stroke="midnightblue" d="M133.336,-48C142.216,-48 151.176,-48 159.634,-48"/>
<polygon fill="midnightblue" stroke="midnightblue" points="159.662,-51.5001 169.662,-48 159.662,-44.5001 159.662,-51.5001"/>
</g>
<!-- Node4 -->
<g id="node4" class="node"><title>Node4</title>
<g id="a_node4"><a xlink:href="../../df/dc4/_s_d_l__opengl_8h.html#a8fd928b1b75f4c7b75bd3b0fa06a3fd3" target="_top" xlink:title=" ">
<polygon fill="white" stroke="black" points="182,-0.5 182,-19.5 233,-19.5 233,-0.5 182,-0.5"/>
<text text-anchor="middle" x="207.5" y="-7.5" font-family="Helvetica,sans-Serif" font-size="10.00">glScalef</text>
</a>
</g>
</g>
<!-- Node1&#45;&gt;Node4 -->
<g id="edge3" class="edge"><title>Node1&#45;&gt;Node4</title>
<path fill="none" stroke="midnightblue" d="M102.576,-38.411C123.863,-32.5914 150.915,-25.1959 172.082,-19.4092"/>
<polygon fill="midnightblue" stroke="midnightblue" points="173.227,-22.7249 181.95,-16.7116 171.381,-15.9726 173.227,-22.7249"/>
</g>
</g>
</svg>
