<?xml version="1.0" encoding="UTF-8" standalone="no"?>
<!DOCTYPE svg PUBLIC "-//W3C//DTD SVG 1.1//EN"
 "http://www.w3.org/Graphics/SVG/1.1/DTD/svg11.dtd">
<!-- Generated by graphviz version 2.38.0 (20140413.2041)
 -->
<!-- Title: AudioFileDataSource::Open Pages: 1 -->
<!--zoomable 318 -->
<svg id="main" version="1.1" xmlns="http://www.w3.org/2000/svg" xmlns:xlink="http://www.w3.org/1999/xlink" xml:space="preserve" onload="init(evt)">
<style type="text/css"><![CDATA[
.edge:hover path { stroke: red; }
.edge:hover polygon { stroke: red; fill: red; }
]]></style>
<script type="text/javascript"><![CDATA[
var edges = document.getElementsByTagName('g');
if (edges && edges.length) {
  for (var i=0;i<edges.length;i++) {
    if (edges[i].id.substr(0,4)=='edge') {
      edges[i].setAttribute('class','edge');
    }
  }
}
]]></script>
        <defs>
                <circle id="rim" cx="0" cy="0" r="7"/>
                <circle id="rim2" cx="0" cy="0" r="3.5"/>
                <g id="zoomPlus">
                        <use xlink:href="#rim" fill="#404040">
                                <set attributeName="fill" to="#808080" begin="zoomplus.mouseover" end="zoomplus.mouseout"/>
                        </use>
                        <path d="M-4,0h8M0,-4v8" fill="none" stroke="white" stroke-width="1.5" pointer-events="none"/>
                </g>
                <g id="zoomMin">
                        <use xlink:href="#rim" fill="#404040">
                                <set attributeName="fill" to="#808080" begin="zoomminus.mouseover" end="zoomminus.mouseout"/>
                        </use>
                        <path d="M-4,0h8" fill="none" stroke="white" stroke-width="1.5" pointer-events="none"/>
                </g>
                <g id="dirArrow">
                        <path fill="none" stroke="white" stroke-width="1.5" d="M0,-3.0v7 M-2.5,-0.5L0,-3.0L2.5,-0.5"/>
                </g>
               <g id="resetDef">
                       <use xlink:href="#rim2" fill="#404040">
                               <set attributeName="fill" to="#808080" begin="reset.mouseover" end="reset.mouseout"/>
                       </use>
               </g>
        </defs>

<script type="text/javascript">
var viewWidth = 574;
var viewHeight = 318;
var sectionId = 'dynsection-2';
</script>
<script xlink:href="../../svgpan.js"/>
<svg id="graph" class="graph">
<g id="viewport">
<title>AudioFileDataSource::Open</title>
<polygon fill="white" stroke="none" points="-4,4 -4,-314 570,-314 570,4 -4,4"/>
<!-- Node1 -->
<g id="node1" class="node"><title>Node1</title>
<g id="a_node1"><a xlink:title=" ">
<polygon fill="#bfbfbf" stroke="black" points="0,-187 0,-217 108,-217 108,-187 0,-187"/>
<text text-anchor="start" x="8" y="-205" font-family="Helvetica,sans-Serif" font-size="10.00">AudioFileDataSource</text>
<text text-anchor="middle" x="54" y="-194" font-family="Helvetica,sans-Serif" font-size="10.00">::Open</text>
</a>
</g>
</g>
<!-- Node2 -->
<g id="node2" class="node"><title>Node2</title>
<g id="a_node2"><a xlink:href="../../d7/d44/group__lavf__misc.html#gae2645941f2dc779c307eb6314fd39f10" target="_top" xlink:title=" ">
<polygon fill="white" stroke="black" points="158,-230.5 158,-249.5 245,-249.5 245,-230.5 158,-230.5"/>
<text text-anchor="middle" x="201.5" y="-237.5" font-family="Helvetica,sans-Serif" font-size="10.00">av_dump_format</text>
</a>
</g>
</g>
<!-- Node1&#45;&gt;Node2 -->
<g id="edge1" class="edge"><title>Node1&#45;&gt;Node2</title>
<path fill="none" stroke="midnightblue" d="M108.353,-215.934C123.377,-219.858 139.593,-224.093 154.17,-227.9"/>
<polygon fill="midnightblue" stroke="midnightblue" points="153.406,-231.318 163.966,-230.459 155.175,-224.545 153.406,-231.318"/>
</g>
<!-- Node3 -->
<g id="node3" class="node"><title>Node3</title>
<g id="a_node3"><a xlink:href="../../dc/d2c/group__lavf__decoding.html#gaff468dcc45289542f4c30d311bc2a201" target="_top" xlink:title=" ">
<polygon fill="white" stroke="black" points="149,-192.5 149,-211.5 254,-211.5 254,-192.5 149,-192.5"/>
<text text-anchor="middle" x="201.5" y="-199.5" font-family="Helvetica,sans-Serif" font-size="10.00">avformat_open_input</text>
</a>
</g>
</g>
<!-- Node1&#45;&gt;Node3 -->
<g id="edge2" class="edge"><title>Node1&#45;&gt;Node3</title>
<path fill="none" stroke="midnightblue" d="M108.353,-202C118.104,-202 128.357,-202 138.339,-202"/>
<polygon fill="midnightblue" stroke="midnightblue" points="138.61,-205.5 148.61,-202 138.61,-198.5 138.61,-205.5"/>
</g>
<!-- Node4 -->
<g id="node4" class="node"><title>Node4</title>
<g id="a_node4"><a xlink:href="../../da/dfd/class_audio_base_data_source.html#a70c5309340c769cdb690e2afe79a3c74" target="_top" xlink:title=" ">
<polygon fill="white" stroke="black" points="144,-143 144,-173 259,-173 259,-143 144,-143"/>
<text text-anchor="start" x="152" y="-161" font-family="Helvetica,sans-Serif" font-size="10.00">AudioBaseDataSource</text>
<text text-anchor="middle" x="201.5" y="-150" font-family="Helvetica,sans-Serif" font-size="10.00">::Open</text>
</a>
</g>
</g>
<!-- Node1&#45;&gt;Node4 -->
<g id="edge3" class="edge"><title>Node1&#45;&gt;Node4</title>
<path fill="none" stroke="midnightblue" d="M104.666,-186.981C116.243,-183.48 128.69,-179.716 140.656,-176.097"/>
<polygon fill="midnightblue" stroke="midnightblue" points="142.005,-179.346 150.564,-173.101 139.979,-172.645 142.005,-179.346"/>
</g>
<!-- Node5 -->
<g id="node5" class="node"><title>Node5</title>
<g id="a_node5"><a xlink:href="../../dc/d2c/group__lavf__decoding.html#gaa6fa468c922ff5c60a6021dcac09aff9" target="_top" xlink:title=" ">
<polygon fill="white" stroke="black" points="306.5,-290.5 306.5,-309.5 411.5,-309.5 411.5,-290.5 306.5,-290.5"/>
<text text-anchor="middle" x="359" y="-297.5" font-family="Helvetica,sans-Serif" font-size="10.00">av_find_best_stream</text>
</a>
</g>
</g>
<!-- Node4&#45;&gt;Node5 -->
<g id="edge4" class="edge"><title>Node4&#45;&gt;Node5</title>
<path fill="none" stroke="midnightblue" d="M246.532,-173.082C251.117,-175.883 255.405,-179.166 259,-183 290.735,-216.852 261.234,-249.174 295,-281 296.655,-282.56 298.433,-283.992 300.306,-285.307"/>
<polygon fill="midnightblue" stroke="midnightblue" points="298.622,-288.376 309.031,-290.353 302.127,-282.316 298.622,-288.376"/>
</g>
<!-- Node6 -->
<g id="node6" class="node"><title>Node6</title>
<g id="a_node6"><a xlink:href="../../d5/d44/group__lavc__core.html#gae80afec6f26df6607eaacf39b561c315" target="_top" xlink:title=" ">
<polygon fill="white" stroke="black" points="299,-252.5 299,-271.5 419,-271.5 419,-252.5 299,-252.5"/>
<text text-anchor="middle" x="359" y="-259.5" font-family="Helvetica,sans-Serif" font-size="10.00">avcodec_alloc_context3</text>
</a>
</g>
</g>
<!-- Node4&#45;&gt;Node6 -->
<g id="edge5" class="edge"><title>Node4&#45;&gt;Node6</title>
<path fill="none" stroke="midnightblue" d="M244.7,-173.13C249.821,-175.96 254.739,-179.237 259,-183 282.308,-203.587 270.464,-223.893 295,-243 297.324,-244.81 299.818,-246.447 302.426,-247.93"/>
<polygon fill="midnightblue" stroke="midnightblue" points="301.117,-251.185 311.643,-252.394 304.168,-244.885 301.117,-251.185"/>
</g>
<!-- Node7 -->
<g id="node7" class="node"><title>Node7</title>
<g id="a_node7"><a xlink:href="../../d5/d44/group__lavc__core.html#ga11f785a188d7d9df71621001465b0f1d" target="_top" xlink:title=" ">
<polygon fill="white" stroke="black" points="317.5,-214.5 317.5,-233.5 400.5,-233.5 400.5,-214.5 317.5,-214.5"/>
<text text-anchor="middle" x="359" y="-221.5" font-family="Helvetica,sans-Serif" font-size="10.00">avcodec_open2</text>
</a>
</g>
</g>
<!-- Node4&#45;&gt;Node7 -->
<g id="edge6" class="edge"><title>Node4&#45;&gt;Node7</title>
<path fill="none" stroke="midnightblue" d="M238.404,-173.033C245.317,-176.166 252.444,-179.565 259,-183 275.61,-191.702 277.884,-197.342 295,-205 300.084,-207.275 305.516,-209.372 310.979,-211.277"/>
<polygon fill="midnightblue" stroke="midnightblue" points="310.186,-214.7 320.779,-214.495 312.37,-208.05 310.186,-214.7"/>
</g>
<!-- Node8 -->
<g id="node8" class="node"><title>Node8</title>
<g id="a_node8"><a xlink:href="../../d5/d44/group__lavc__core.html#gac7b282f51540ca7a99416a3ba6ee0d16" target="_top" xlink:title=" ">
<polygon fill="white" stroke="black" points="306,-165 306,-195 412,-195 412,-165 306,-165"/>
<text text-anchor="start" x="314" y="-183" font-family="Helvetica,sans-Serif" font-size="10.00">avcodec_parameters</text>
<text text-anchor="middle" x="359" y="-172" font-family="Helvetica,sans-Serif" font-size="10.00">_to_context</text>
</a>
</g>
</g>
<!-- Node4&#45;&gt;Node8 -->
<g id="edge7" class="edge"><title>Node4&#45;&gt;Node8</title>
<path fill="none" stroke="midnightblue" d="M259.079,-166.005C271.019,-167.694 283.681,-169.485 295.815,-171.202"/>
<polygon fill="midnightblue" stroke="midnightblue" points="295.464,-174.687 305.856,-172.623 296.445,-167.756 295.464,-174.687"/>
</g>
<!-- Node9 -->
<g id="node9" class="node"><title>Node9</title>
<g id="a_node9"><a xlink:href="../../dc/d2c/group__lavf__decoding.html#gad42172e27cddafb81096939783b157bb" target="_top" xlink:title=" ">
<polygon fill="white" stroke="black" points="295,-126.5 295,-145.5 423,-145.5 423,-126.5 295,-126.5"/>
<text text-anchor="middle" x="359" y="-133.5" font-family="Helvetica,sans-Serif" font-size="10.00">avformat_find_stream_info</text>
</a>
</g>
</g>
<!-- Node4&#45;&gt;Node9 -->
<g id="edge8" class="edge"><title>Node4&#45;&gt;Node9</title>
<path fill="none" stroke="midnightblue" d="M259.079,-149.995C267.443,-148.812 276.16,-147.579 284.802,-146.356"/>
<polygon fill="midnightblue" stroke="midnightblue" points="285.476,-149.796 294.887,-144.929 284.495,-142.865 285.476,-149.796"/>
</g>
<!-- Node10 -->
<g id="node10" class="node"><title>Node10</title>
<g id="a_node10"><a xlink:href="../../da/dfd/class_audio_base_data_source.html#ae810f4bf456410a7f34556dac7a72096" target="_top" xlink:title=" ">
<polygon fill="white" stroke="black" points="301.5,-77 301.5,-107 416.5,-107 416.5,-77 301.5,-77"/>
<text text-anchor="start" x="309.5" y="-95" font-family="Helvetica,sans-Serif" font-size="10.00">AudioBaseDataSource</text>
<text text-anchor="middle" x="359" y="-84" font-family="Helvetica,sans-Serif" font-size="10.00">::Close</text>
</a>
</g>
</g>
<!-- Node4&#45;&gt;Node10 -->
<g id="edge9" class="edge"><title>Node4&#45;&gt;Node10</title>
<path fill="none" stroke="midnightblue" d="M235.758,-142.879C253.306,-134.996 275.24,-125.296 295,-117 299.76,-115.001 304.739,-112.954 309.723,-110.932"/>
<polygon fill="midnightblue" stroke="midnightblue" points="311.283,-114.077 319.254,-107.097 308.67,-107.583 311.283,-114.077"/>
</g>
<!-- Node14 -->
<g id="node14" class="node"><title>Node14</title>
<g id="a_node14"><a xlink:href="../../df/dcb/group__lswr.html#gad7f29022726c871aadf935281a9813bc" target="_top" xlink:title=" ">
<polygon fill="white" stroke="black" points="309,-38.5 309,-57.5 409,-57.5 409,-38.5 309,-38.5"/>
<text text-anchor="middle" x="359" y="-45.5" font-family="Helvetica,sans-Serif" font-size="10.00">swr_alloc_set_opts</text>
</a>
</g>
</g>
<!-- Node4&#45;&gt;Node14 -->
<g id="edge13" class="edge"><title>Node4&#45;&gt;Node14</title>
<path fill="none" stroke="midnightblue" d="M214.318,-142.721C230.487,-122.805 261.36,-88.1444 295,-68 299.209,-65.4797 303.769,-63.2434 308.445,-61.2665"/>
<polygon fill="midnightblue" stroke="midnightblue" points="310.041,-64.4038 318.133,-57.5653 307.542,-57.8648 310.041,-64.4038"/>
</g>
<!-- Node15 -->
<g id="node15" class="node"><title>Node15</title>
<g id="a_node15"><a xlink:href="../../df/dcb/group__lswr.html#gae173e8ed91717700471a1dcd06f00f67" target="_top" xlink:title=" ">
<polygon fill="white" stroke="black" points="334,-0.5 334,-19.5 384,-19.5 384,-0.5 334,-0.5"/>
<text text-anchor="middle" x="359" y="-7.5" font-family="Helvetica,sans-Serif" font-size="10.00">swr_init</text>
</a>
</g>
</g>
<!-- Node4&#45;&gt;Node15 -->
<g id="edge14" class="edge"><title>Node4&#45;&gt;Node15</title>
<path fill="none" stroke="midnightblue" d="M209.282,-142.772C222.086,-115.764 252.409,-59.4583 295,-29 303.572,-22.8697 314.147,-18.6903 324.168,-15.8518"/>
<polygon fill="midnightblue" stroke="midnightblue" points="325.046,-19.2403 333.91,-13.4377 323.362,-12.4458 325.046,-19.2403"/>
</g>
<!-- Node11 -->
<g id="node11" class="node"><title>Node11</title>
<g id="a_node11"><a xlink:href="../../d5/d44/group__lavc__core.html#gaf4daa92361efb3523ef5afeb0b54077f" target="_top" xlink:title=" ">
<polygon fill="white" stroke="black" points="472.5,-120.5 472.5,-139.5 552.5,-139.5 552.5,-120.5 472.5,-120.5"/>
<text text-anchor="middle" x="512.5" y="-127.5" font-family="Helvetica,sans-Serif" font-size="10.00">avcodec_close</text>
</a>
</g>
</g>
<!-- Node10&#45;&gt;Node11 -->
<g id="edge10" class="edge"><title>Node10&#45;&gt;Node11</title>
<path fill="none" stroke="midnightblue" d="M416.844,-106.258C432.125,-110.091 448.503,-114.199 463.267,-117.902"/>
<polygon fill="midnightblue" stroke="midnightblue" points="462.646,-121.354 473.197,-120.393 464.349,-114.565 462.646,-121.354"/>
</g>
<!-- Node12 -->
<g id="node12" class="node"><title>Node12</title>
<g id="a_node12"><a xlink:href="../../dc/d2c/group__lavf__decoding.html#gae804b99aec044690162b8b9b110236a4" target="_top" xlink:title=" ">
<polygon fill="white" stroke="black" points="459,-82.5 459,-101.5 566,-101.5 566,-82.5 459,-82.5"/>
<text text-anchor="middle" x="512.5" y="-89.5" font-family="Helvetica,sans-Serif" font-size="10.00">avformat_close_input</text>
</a>
</g>
</g>
<!-- Node10&#45;&gt;Node12 -->
<g id="edge11" class="edge"><title>Node10&#45;&gt;Node12</title>
<path fill="none" stroke="midnightblue" d="M416.844,-92C427.279,-92 438.225,-92 448.82,-92"/>
<polygon fill="midnightblue" stroke="midnightblue" points="448.842,-95.5001 458.842,-92 448.842,-88.5001 448.842,-95.5001"/>
</g>
<!-- Node13 -->
<g id="node13" class="node"><title>Node13</title>
<g id="a_node13"><a xlink:href="../../df/dcb/group__lswr.html#ga818f7d78b1ad7d8d5b70de374b668c34" target="_top" xlink:title=" ">
<polygon fill="white" stroke="black" points="486,-44.5 486,-63.5 539,-63.5 539,-44.5 486,-44.5"/>
<text text-anchor="middle" x="512.5" y="-51.5" font-family="Helvetica,sans-Serif" font-size="10.00">swr_free</text>
</a>
</g>
</g>
<!-- Node10&#45;&gt;Node13 -->
<g id="edge12" class="edge"><title>Node10&#45;&gt;Node13</title>
<path fill="none" stroke="midnightblue" d="M416.844,-77.7421C436.637,-72.7776 458.269,-67.3516 475.852,-62.9415"/>
<polygon fill="midnightblue" stroke="midnightblue" points="476.843,-66.3012 485.691,-60.4734 475.14,-59.5116 476.843,-66.3012"/>
</g>
</g>
</svg>
        <g id="navigator" transform="translate(0 0)" fill="#404254">
                <rect fill="#f2f5e9" fill-opacity="0.5" stroke="#606060" stroke-width=".5" x="0" y="0" width="60" height="60"/>
                <use id="zoomplus" xlink:href="#zoomPlus" x="17" y="9" onmousedown="handleZoom(evt,'in')"/>
                <use id="zoomminus" xlink:href="#zoomMin" x="42" y="9" onmousedown="handleZoom(evt,'out')"/>
                <use id="reset" xlink:href="#resetDef" x="30" y="36" onmousedown="handleReset()"/>
                <g id="arrowUp" xlink:href="#dirArrow" transform="translate(30 24)" onmousedown="handlePan(0,-1)">
                  <use xlink:href="#rim" fill="#404040">
                        <set attributeName="fill" to="#808080" begin="arrowUp.mouseover" end="arrowUp.mouseout"/>
                  </use>
                  <path fill="none" stroke="white" stroke-width="1.5" d="M0,-3.0v7 M-2.5,-0.5L0,-3.0L2.5,-0.5"/>
                </g>
                <g id="arrowRight" xlink:href="#dirArrow" transform="rotate(90) translate(36 -43)" onmousedown="handlePan(1,0)">
                  <use xlink:href="#rim" fill="#404040">
                        <set attributeName="fill" to="#808080" begin="arrowRight.mouseover" end="arrowRight.mouseout"/>
                  </use>
                  <path fill="none" stroke="white" stroke-width="1.5" d="M0,-3.0v7 M-2.5,-0.5L0,-3.0L2.5,-0.5"/>
                </g>
                <g id="arrowDown" xlink:href="#dirArrow" transform="rotate(180) translate(-30 -48)" onmousedown="handlePan(0,1)">
                  <use xlink:href="#rim" fill="#404040">
                        <set attributeName="fill" to="#808080" begin="arrowDown.mouseover" end="arrowDown.mouseout"/>
                  </use>
                  <path fill="none" stroke="white" stroke-width="1.5" d="M0,-3.0v7 M-2.5,-0.5L0,-3.0L2.5,-0.5"/>
                </g>
                <g id="arrowLeft" xlink:href="#dirArrow" transform="rotate(270) translate(-36 17)" onmousedown="handlePan(-1,0)">
                  <use xlink:href="#rim" fill="#404040">
                        <set attributeName="fill" to="#808080" begin="arrowLeft.mouseover" end="arrowLeft.mouseout"/>
                  </use>
                  <path fill="none" stroke="white" stroke-width="1.5" d="M0,-3.0v7 M-2.5,-0.5L0,-3.0L2.5,-0.5"/>
                </g>
        </g>
        <svg viewBox="0 0 15 15" width="100%" height="30px" preserveAspectRatio="xMaxYMin meet">
         <g id="arrow_out" transform="scale(0.3 0.3)">
          <a xlink:href="class_audio_file_data_source_ac200a49a8fdc19da4e0d0a5c451e1fab_cgraph_org.svg" target="_base">
           <rect id="button" ry="5" rx="5" y="6" x="6" height="38" width="38"
                fill="#f2f5e9" fill-opacity="0.5" stroke="#606060" stroke-width="1.0"/>
           <path id="arrow"
             d="M 11.500037,31.436501 C 11.940474,20.09759 22.043105,11.32322 32.158766,21.979434 L 37.068811,17.246167 C 37.068811,17.246167 37.088388,32 37.088388,32 L 22.160133,31.978069 C 22.160133,31.978069 26.997745,27.140456 26.997745,27.140456 C 18.528582,18.264221 13.291696,25.230495 11.500037,31.436501 z"
             style="fill:#404040;"/>
          </a>
         </g>
        </svg>
</svg>
