<?xml version="1.0" encoding="UTF-8" standalone="no"?>
<!DOCTYPE svg PUBLIC "-//W3C//DTD SVG 1.1//EN"
 "http://www.w3.org/Graphics/SVG/1.1/DTD/svg11.dtd">
<!-- Generated by graphviz version 2.38.0 (20140413.2041)
 -->
<!-- Title: GUICredits::GUICredits Pages: 1 -->
<!--zoomable 301 -->
<svg id="main" version="1.1" xmlns="http://www.w3.org/2000/svg" xmlns:xlink="http://www.w3.org/1999/xlink" xml:space="preserve" onload="init(evt)">
<style type="text/css"><![CDATA[
.edge:hover path { stroke: red; }
.edge:hover polygon { stroke: red; fill: red; }
]]></style>
<script type="text/javascript"><![CDATA[
var edges = document.getElementsByTagName('g');
if (edges && edges.length) {
  for (var i=0;i<edges.length;i++) {
    if (edges[i].id.substr(0,4)=='edge') {
      edges[i].setAttribute('class','edge');
    }
  }
}
]]></script>
        <defs>
                <circle id="rim" cx="0" cy="0" r="7"/>
                <circle id="rim2" cx="0" cy="0" r="3.5"/>
                <g id="zoomPlus">
                        <use xlink:href="#rim" fill="#404040">
                                <set attributeName="fill" to="#808080" begin="zoomplus.mouseover" end="zoomplus.mouseout"/>
                        </use>
                        <path d="M-4,0h8M0,-4v8" fill="none" stroke="white" stroke-width="1.5" pointer-events="none"/>
                </g>
                <g id="zoomMin">
                        <use xlink:href="#rim" fill="#404040">
                                <set attributeName="fill" to="#808080" begin="zoomminus.mouseover" end="zoomminus.mouseout"/>
                        </use>
                        <path d="M-4,0h8" fill="none" stroke="white" stroke-width="1.5" pointer-events="none"/>
                </g>
                <g id="dirArrow">
                        <path fill="none" stroke="white" stroke-width="1.5" d="M0,-3.0v7 M-2.5,-0.5L0,-3.0L2.5,-0.5"/>
                </g>
               <g id="resetDef">
                       <use xlink:href="#rim2" fill="#404040">
                               <set attributeName="fill" to="#808080" begin="reset.mouseover" end="reset.mouseout"/>
                       </use>
               </g>
        </defs>

<script type="text/javascript">
var viewWidth = 705;
var viewHeight = 301;
var sectionId = 'dynsection-2';
</script>
<script xlink:href="../../svgpan.js"/>
<svg id="graph" class="graph">
<g id="viewport">
<title>GUICredits::GUICredits</title>
<polygon fill="white" stroke="none" points="-4,4 -4,-296.5 701,-296.5 701,4 -4,4"/>
<!-- Node1 -->
<g id="node1" class="node"><title>Node1</title>
<g id="a_node1"><a xlink:title=" ">
<polygon fill="#bfbfbf" stroke="black" points="0,-159 0,-178 117,-178 117,-159 0,-159"/>
<text text-anchor="middle" x="58.5" y="-166" font-family="Helvetica,sans-Serif" font-size="10.00">GUICredits::GUICredits</text>
</a>
</g>
</g>
<!-- Node2 -->
<g id="node2" class="node"><title>Node2</title>
<g id="a_node2"><a xlink:href="../../d4/d68/_engine_8cpp.html#a08aa5a1574881457a84b6365c8899183" target="_top" xlink:title=" ">
<polygon fill="white" stroke="black" points="195,-273 195,-292 245,-292 245,-273 195,-273"/>
<text text-anchor="middle" x="220" y="-280" font-family="Helvetica,sans-Serif" font-size="10.00">Color16</text>
</a>
</g>
</g>
<!-- Node1&#45;&gt;Node2 -->
<g id="edge1" class="edge"><title>Node1&#45;&gt;Node2</title>
<path fill="none" stroke="midnightblue" d="M66.2911,-178.18C80.2697,-197.382 114.222,-240.422 153,-263.5 162.706,-269.276 174.266,-273.379 184.978,-276.257"/>
<polygon fill="midnightblue" stroke="midnightblue" points="184.359,-279.708 194.902,-278.654 186.003,-272.903 184.359,-279.708"/>
</g>
<!-- Node3 -->
<g id="node3" class="node"><title>Node3</title>
<g id="a_node3"><a xlink:href="../../d4/d38/class_g_u_i_window.html#a29f96468b54f142995e3b1890cb7e45e" target="_top" xlink:title=" ">
<polygon fill="white" stroke="black" points="154.5,-235 154.5,-254 285.5,-254 285.5,-235 154.5,-235"/>
<text text-anchor="middle" x="220" y="-242" font-family="Helvetica,sans-Serif" font-size="10.00">GUIWindow::CreateButton</text>
</a>
</g>
</g>
<!-- Node1&#45;&gt;Node3 -->
<g id="edge2" class="edge"><title>Node1&#45;&gt;Node3</title>
<path fill="none" stroke="midnightblue" d="M72.8116,-178.203C90.4031,-190.645 122.714,-212.196 153,-225.5 158.315,-227.835 163.996,-229.969 169.711,-231.894"/>
<polygon fill="midnightblue" stroke="midnightblue" points="168.712,-235.249 179.302,-234.935 170.828,-228.576 168.712,-235.249"/>
</g>
<!-- Node4 -->
<g id="node4" class="node"><title>Node4</title>
<g id="a_node4"><a xlink:href="../../d3/d39/class_g_u_i_font.html#a9ea614ccc8e48327793341c01ff7e650" target="_top" xlink:title=" ">
<polygon fill="white" stroke="black" points="153,-159 153,-178 287,-178 287,-159 153,-159"/>
<text text-anchor="middle" x="220" y="-166" font-family="Helvetica,sans-Serif" font-size="10.00">GUIFont::DrawCreditsEntry</text>
</a>
</g>
</g>
<!-- Node1&#45;&gt;Node4 -->
<g id="edge3" class="edge"><title>Node1&#45;&gt;Node4</title>
<path fill="none" stroke="midnightblue" d="M117.083,-168.5C125.421,-168.5 134.11,-168.5 142.744,-168.5"/>
<polygon fill="midnightblue" stroke="midnightblue" points="142.83,-172 152.83,-168.5 142.83,-165 142.83,-172"/>
</g>
<!-- Node12 -->
<g id="node12" class="node"><title>Node12</title>
<g id="a_node12"><a xlink:href="../../db/dd6/class_assets_manager.html#a20f956b4c71c3e07404ca137d572b97f" target="_top" xlink:title=" ">
<polygon fill="white" stroke="black" points="153.5,-109.5 153.5,-139.5 286.5,-139.5 286.5,-109.5 153.5,-109.5"/>
<text text-anchor="start" x="161.5" y="-127.5" font-family="Helvetica,sans-Serif" font-size="10.00">AssetsManager::GetImage</text>
<text text-anchor="middle" x="220" y="-116.5" font-family="Helvetica,sans-Serif" font-size="10.00">_PCXFromIconsLOD</text>
</a>
</g>
</g>
<!-- Node1&#45;&gt;Node12 -->
<g id="edge14" class="edge"><title>Node1&#45;&gt;Node12</title>
<path fill="none" stroke="midnightblue" d="M94.1091,-158.953C111.826,-154.065 133.976,-147.955 154.682,-142.243"/>
<polygon fill="midnightblue" stroke="midnightblue" points="155.679,-145.599 164.388,-139.565 153.817,-138.851 155.679,-145.599"/>
</g>
<!-- Node13 -->
<g id="node13" class="node"><title>Node13</title>
<g id="a_node13"><a xlink:href="../../d3/d39/class_g_u_i_font.html#a1764d577b37f5600326ffb2271e3f59a" target="_top" xlink:title=" ">
<polygon fill="white" stroke="black" points="153.5,-197 153.5,-216 286.5,-216 286.5,-197 153.5,-197"/>
<text text-anchor="middle" x="220" y="-204" font-family="Helvetica,sans-Serif" font-size="10.00">GUIFont::GetStringHeight2</text>
</a>
</g>
</g>
<!-- Node1&#45;&gt;Node13 -->
<g id="edge15" class="edge"><title>Node1&#45;&gt;Node13</title>
<path fill="none" stroke="midnightblue" d="M99.7486,-178.089C120.796,-183.104 146.755,-189.288 169.073,-194.605"/>
<polygon fill="midnightblue" stroke="midnightblue" points="168.502,-198.067 179.041,-196.98 170.124,-191.258 168.502,-198.067"/>
</g>
<!-- Node14 -->
<g id="node14" class="node"><title>Node14</title>
<g id="a_node14"><a xlink:href="../../dd/da7/class_l_o_d_1_1_file.html#af2af972a90784bbcfa975ccd0346385d" target="_top" xlink:title=" ">
<polygon fill="white" stroke="black" points="325,-49.5 325,-79.5 465,-79.5 465,-49.5 325,-49.5"/>
<text text-anchor="start" x="333" y="-67.5" font-family="Helvetica,sans-Serif" font-size="10.00">LOD::File::LoadCompressed</text>
<text text-anchor="middle" x="395" y="-56.5" font-family="Helvetica,sans-Serif" font-size="10.00">Texture</text>
</a>
</g>
</g>
<!-- Node1&#45;&gt;Node14 -->
<g id="edge19" class="edge"><title>Node1&#45;&gt;Node14</title>
<path fill="none" stroke="midnightblue" d="M69.1209,-158.796C85.0235,-143.405 118.48,-113.689 153,-99.5 204.385,-78.3788 266.515,-69.7189 314.821,-66.2925"/>
<polygon fill="midnightblue" stroke="midnightblue" points="315.158,-69.7781 324.911,-65.6381 314.705,-62.7927 315.158,-69.7781"/>
</g>
<!-- Node16 -->
<g id="node16" class="node"><title>Node16</title>
<g id="a_node16"><a xlink:href="../../d3/d39/class_g_u_i_font.html#a60a9fdf52ee46948981d31ce14d2f005" target="_top" xlink:title=" ">
<polygon fill="white" stroke="black" points="170.5,-33 170.5,-52 269.5,-52 269.5,-33 170.5,-33"/>
<text text-anchor="middle" x="220" y="-40" font-family="Helvetica,sans-Serif" font-size="10.00">GUIFont::LoadFont</text>
</a>
</g>
</g>
<!-- Node1&#45;&gt;Node16 -->
<g id="edge21" class="edge"><title>Node1&#45;&gt;Node16</title>
<path fill="none" stroke="midnightblue" d="M65.8387,-158.932C79.4911,-139.017 113.645,-92.7827 153,-66.5 159.204,-62.3568 166.213,-58.8231 173.287,-55.8442"/>
<polygon fill="midnightblue" stroke="midnightblue" points="174.843,-58.995 182.905,-52.1209 172.316,-52.4671 174.843,-58.995"/>
</g>
<!-- Node5 -->
<g id="node5" class="node"><title>Node5</title>
<g id="a_node5"><a xlink:href="../../d3/d39/class_g_u_i_font.html#add9f655047a5db5765d0e83ee5f56386" target="_top" xlink:title=" ">
<polygon fill="white" stroke="black" points="323,-99 323,-118 467,-118 467,-99 323,-99"/>
<text text-anchor="middle" x="395" y="-106" font-family="Helvetica,sans-Serif" font-size="10.00">GUIFont::DrawTextLineToBuff</text>
</a>
</g>
</g>
<!-- Node4&#45;&gt;Node5 -->
<g id="edge4" class="edge"><title>Node4&#45;&gt;Node5</title>
<path fill="none" stroke="midnightblue" d="M257.861,-158.99C267.506,-156.055 277.781,-152.52 287,-148.5 303.98,-141.097 305.902,-134.624 323,-127.5 328.797,-125.085 334.99,-122.896 341.211,-120.935"/>
<polygon fill="midnightblue" stroke="midnightblue" points="342.368,-124.243 350.959,-118.043 340.377,-117.532 342.368,-124.243"/>
</g>
<!-- Node9 -->
<g id="node9" class="node"><title>Node9</title>
<g id="a_node9"><a xlink:href="../../d3/d39/class_g_u_i_font.html#a9e5d94c3391452a0fe7a7032685e31b7" target="_top" xlink:title=" ">
<polygon fill="white" stroke="black" points="329,-213.5 329,-243.5 461,-243.5 461,-213.5 329,-213.5"/>
<text text-anchor="start" x="337" y="-231.5" font-family="Helvetica,sans-Serif" font-size="10.00">GUIFont::FitTwoFontString</text>
<text text-anchor="middle" x="395" y="-220.5" font-family="Helvetica,sans-Serif" font-size="10.00">INWindow</text>
</a>
</g>
</g>
<!-- Node4&#45;&gt;Node9 -->
<g id="edge9" class="edge"><title>Node4&#45;&gt;Node9</title>
<path fill="none" stroke="midnightblue" d="M257.6,-178.064C267.248,-180.849 277.589,-184.073 287,-187.5 303.452,-193.492 306.73,-197.032 323,-203.5 328.446,-205.665 334.162,-207.839 339.887,-209.951"/>
<polygon fill="midnightblue" stroke="midnightblue" points="338.891,-213.313 349.485,-213.437 341.281,-206.733 338.891,-213.313"/>
</g>
<!-- Node10 -->
<g id="node10" class="node"><title>Node10</title>
<g id="a_node10"><a xlink:href="../../d3/d39/class_g_u_i_font.html#a439cccf73db5fd93ffc18cbba51d07e0" target="_top" xlink:title=" ">
<polygon fill="white" stroke="black" points="344,-175 344,-194 446,-194 446,-175 344,-175"/>
<text text-anchor="middle" x="395" y="-182" font-family="Helvetica,sans-Serif" font-size="10.00">GUIFont::GetHeight</text>
</a>
</g>
</g>
<!-- Node4&#45;&gt;Node10 -->
<g id="edge11" class="edge"><title>Node4&#45;&gt;Node10</title>
<path fill="none" stroke="midnightblue" d="M287.392,-174.64C302.643,-176.051 318.778,-177.543 333.753,-178.928"/>
<polygon fill="midnightblue" stroke="midnightblue" points="333.631,-182.432 343.91,-179.867 334.275,-175.461 333.631,-182.432"/>
</g>
<!-- Node11 -->
<g id="node11" class="node"><title>Node11</title>
<g id="a_node11"><a xlink:href="../../d3/d39/class_g_u_i_font.html#abf5dc44bc1b328f80d5c7033279a4f8d" target="_top" xlink:title=" ">
<polygon fill="white" stroke="black" points="336,-137 336,-156 454,-156 454,-137 336,-137"/>
<text text-anchor="middle" x="395" y="-144" font-family="Helvetica,sans-Serif" font-size="10.00">GUIFont::GetLineWidth</text>
</a>
</g>
</g>
<!-- Node4&#45;&gt;Node11 -->
<g id="edge12" class="edge"><title>Node4&#45;&gt;Node11</title>
<path fill="none" stroke="midnightblue" d="M287.392,-160.057C300.023,-158.451 313.26,-156.767 325.943,-155.155"/>
<polygon fill="midnightblue" stroke="midnightblue" points="326.494,-158.613 335.972,-153.879 325.611,-151.669 326.494,-158.613"/>
</g>
<!-- Node6 -->
<g id="node6" class="node"><title>Node6</title>
<g id="a_node6"><a xlink:href="../../d4/d5e/_g_u_i_font_8cpp.html#a414d822d07b11153807117aea62bc035" target="_top" xlink:title=" ">
<polygon fill="white" stroke="black" points="514,-99 514,-118 600,-118 600,-99 514,-99"/>
<text text-anchor="middle" x="557" y="-106" font-family="Helvetica,sans-Serif" font-size="10.00">DrawCharToBuff</text>
</a>
</g>
</g>
<!-- Node5&#45;&gt;Node6 -->
<g id="edge5" class="edge"><title>Node5&#45;&gt;Node6</title>
<path fill="none" stroke="midnightblue" d="M467.11,-108.5C479.251,-108.5 491.669,-108.5 503.225,-108.5"/>
<polygon fill="midnightblue" stroke="midnightblue" points="503.564,-112 513.564,-108.5 503.564,-105 503.564,-112"/>
</g>
<!-- Node8 -->
<g id="node8" class="node"><title>Node8</title>
<g id="a_node8"><a xlink:href="../../d3/d39/class_g_u_i_font.html#adfbdd225f4c0eedcbf7e82eecd29e404" target="_top" xlink:title=" ">
<polygon fill="white" stroke="black" points="503,-178 503,-197 611,-197 611,-178 503,-178"/>
<text text-anchor="middle" x="557" y="-185" font-family="Helvetica,sans-Serif" font-size="10.00">GUIFont::IsCharValid</text>
</a>
</g>
</g>
<!-- Node5&#45;&gt;Node8 -->
<g id="edge8" class="edge"><title>Node5&#45;&gt;Node8</title>
<path fill="none" stroke="midnightblue" d="M440.728,-118.044C449.622,-120.612 458.755,-123.745 467,-127.5 492.562,-139.14 518.876,-157.873 536.195,-171.311"/>
<polygon fill="midnightblue" stroke="midnightblue" points="534.367,-174.328 544.38,-177.79 538.712,-168.84 534.367,-174.328"/>
</g>
<!-- Node7 -->
<g id="node7" class="node"><title>Node7</title>
<g id="a_node7"><a xlink:href="../../d4/d68/_engine_8cpp.html#a3fa4621a9002451f0e3066f2e027bfd3" target="_top" xlink:title=" ">
<polygon fill="white" stroke="black" points="647,-99 647,-118 697,-118 697,-99 647,-99"/>
<text text-anchor="middle" x="672" y="-106" font-family="Helvetica,sans-Serif" font-size="10.00">Color32</text>
</a>
</g>
</g>
<!-- Node6&#45;&gt;Node7 -->
<g id="edge6" class="edge"><title>Node6&#45;&gt;Node7</title>
<path fill="none" stroke="midnightblue" d="M600.077,-108.5C612.184,-108.5 625.237,-108.5 636.805,-108.5"/>
<polygon fill="midnightblue" stroke="midnightblue" points="636.941,-112 646.941,-108.5 636.94,-105 636.941,-112"/>
</g>
<!-- Node7&#45;&gt;Node7 -->
<g id="edge7" class="edge"><title>Node7&#45;&gt;Node7</title>
<path fill="none" stroke="midnightblue" d="M654.429,-118.257C645.881,-127.065 651.738,-136.5 672,-136.5 684.664,-136.5 691.7,-132.815 693.11,-127.9"/>
<polygon fill="midnightblue" stroke="midnightblue" points="696.302,-126.439 689.571,-118.257 689.731,-128.851 696.302,-126.439"/>
</g>
<!-- Node9&#45;&gt;Node8 -->
<g id="edge10" class="edge"><title>Node9&#45;&gt;Node8</title>
<path fill="none" stroke="midnightblue" d="M454.67,-213.466C472.563,-208.881 491.992,-203.902 509.006,-199.542"/>
<polygon fill="midnightblue" stroke="midnightblue" points="509.896,-202.927 518.714,-197.054 508.158,-196.146 509.896,-202.927"/>
</g>
<!-- Node11&#45;&gt;Node8 -->
<g id="edge13" class="edge"><title>Node11&#45;&gt;Node8</title>
<path fill="none" stroke="midnightblue" d="M433.109,-156.009C455.747,-161.81 484.889,-169.278 509.113,-175.485"/>
<polygon fill="midnightblue" stroke="midnightblue" points="508.259,-178.879 518.815,-177.971 509.997,-172.099 508.259,-178.879"/>
</g>
<!-- Node13&#45;&gt;Node8 -->
<g id="edge18" class="edge"><title>Node13&#45;&gt;Node8</title>
<path fill="none" stroke="midnightblue" d="M263.114,-216.021C271.256,-218.579 279.561,-221.715 287,-225.5 305.066,-234.692 303.827,-246.922 323,-253.5 383.536,-274.27 406.23,-273.574 467,-253.5 496.196,-243.856 523.631,-220.524 540.121,-204.357"/>
<polygon fill="midnightblue" stroke="midnightblue" points="542.762,-206.664 547.297,-197.088 537.781,-201.746 542.762,-206.664"/>
</g>
<!-- Node13&#45;&gt;Node9 -->
<g id="edge16" class="edge"><title>Node13&#45;&gt;Node9</title>
<path fill="none" stroke="midnightblue" d="M286.897,-214.88C297.317,-216.205 308.161,-217.584 318.774,-218.934"/>
<polygon fill="midnightblue" stroke="midnightblue" points="318.496,-222.426 328.858,-220.216 319.379,-215.482 318.496,-222.426"/>
</g>
<!-- Node13&#45;&gt;Node10 -->
<g id="edge17" class="edge"><title>Node13&#45;&gt;Node10</title>
<path fill="none" stroke="midnightblue" d="M286.897,-198.12C302.259,-196.166 318.541,-194.096 333.648,-192.175"/>
<polygon fill="midnightblue" stroke="midnightblue" points="334.416,-195.605 343.894,-190.872 333.532,-188.661 334.416,-195.605"/>
</g>
<!-- Node15 -->
<g id="node15" class="node"><title>Node15</title>
<g id="a_node15"><a xlink:href="../../d9/d3e/namespacezlib.html#ae552beaf4387a81c63a28b01a9cc7ab4" target="_top" xlink:title=" ">
<polygon fill="white" stroke="black" points="511,-55 511,-74 603,-74 603,-55 511,-55"/>
<text text-anchor="middle" x="557" y="-62" font-family="Helvetica,sans-Serif" font-size="10.00">zlib::Uncompress</text>
</a>
</g>
</g>
<!-- Node14&#45;&gt;Node15 -->
<g id="edge20" class="edge"><title>Node14&#45;&gt;Node15</title>
<path fill="none" stroke="midnightblue" d="M465.248,-64.5C477.016,-64.5 489.101,-64.5 500.458,-64.5"/>
<polygon fill="midnightblue" stroke="midnightblue" points="500.654,-68.0001 510.654,-64.5 500.653,-61.0001 500.654,-68.0001"/>
</g>
<!-- Node16&#45;&gt;Node14 -->
<g id="edge22" class="edge"><title>Node16&#45;&gt;Node14</title>
<path fill="none" stroke="midnightblue" d="M269.651,-48.6868C283.669,-50.4695 299.34,-52.4624 314.706,-54.4164"/>
<polygon fill="midnightblue" stroke="midnightblue" points="314.377,-57.9027 324.739,-55.6922 315.26,-50.9586 314.377,-57.9027"/>
</g>
<!-- Node17 -->
<g id="node17" class="node"><title>Node17</title>
<g id="a_node17"><a xlink:href="../../d8/d81/class_l_o_d_file___icons_bitmaps.html#a91b62998b7a068b94e4e53dd1994b104" target="_top" xlink:title=" ">
<polygon fill="white" stroke="black" points="337,-0.5 337,-30.5 453,-30.5 453,-0.5 337,-0.5"/>
<text text-anchor="start" x="345" y="-18.5" font-family="Helvetica,sans-Serif" font-size="10.00">LODFile_IconsBitmaps</text>
<text text-anchor="middle" x="395" y="-7.5" font-family="Helvetica,sans-Serif" font-size="10.00">::LoadTexture</text>
</a>
</g>
</g>
<!-- Node16&#45;&gt;Node17 -->
<g id="edge23" class="edge"><title>Node16&#45;&gt;Node17</title>
<path fill="none" stroke="midnightblue" d="M269.651,-34.9071C287.356,-32.1439 307.697,-28.9693 326.729,-25.9989"/>
<polygon fill="midnightblue" stroke="midnightblue" points="327.5,-29.421 336.841,-24.4208 326.421,-22.5047 327.5,-29.421"/>
</g>
</g>
</svg>
        <g id="navigator" transform="translate(0 0)" fill="#404254">
                <rect fill="#f2f5e9" fill-opacity="0.5" stroke="#606060" stroke-width=".5" x="0" y="0" width="60" height="60"/>
                <use id="zoomplus" xlink:href="#zoomPlus" x="17" y="9" onmousedown="handleZoom(evt,'in')"/>
                <use id="zoomminus" xlink:href="#zoomMin" x="42" y="9" onmousedown="handleZoom(evt,'out')"/>
                <use id="reset" xlink:href="#resetDef" x="30" y="36" onmousedown="handleReset()"/>
                <g id="arrowUp" xlink:href="#dirArrow" transform="translate(30 24)" onmousedown="handlePan(0,-1)">
                  <use xlink:href="#rim" fill="#404040">
                        <set attributeName="fill" to="#808080" begin="arrowUp.mouseover" end="arrowUp.mouseout"/>
                  </use>
                  <path fill="none" stroke="white" stroke-width="1.5" d="M0,-3.0v7 M-2.5,-0.5L0,-3.0L2.5,-0.5"/>
                </g>
                <g id="arrowRight" xlink:href="#dirArrow" transform="rotate(90) translate(36 -43)" onmousedown="handlePan(1,0)">
                  <use xlink:href="#rim" fill="#404040">
                        <set attributeName="fill" to="#808080" begin="arrowRight.mouseover" end="arrowRight.mouseout"/>
                  </use>
                  <path fill="none" stroke="white" stroke-width="1.5" d="M0,-3.0v7 M-2.5,-0.5L0,-3.0L2.5,-0.5"/>
                </g>
                <g id="arrowDown" xlink:href="#dirArrow" transform="rotate(180) translate(-30 -48)" onmousedown="handlePan(0,1)">
                  <use xlink:href="#rim" fill="#404040">
                        <set attributeName="fill" to="#808080" begin="arrowDown.mouseover" end="arrowDown.mouseout"/>
                  </use>
                  <path fill="none" stroke="white" stroke-width="1.5" d="M0,-3.0v7 M-2.5,-0.5L0,-3.0L2.5,-0.5"/>
                </g>
                <g id="arrowLeft" xlink:href="#dirArrow" transform="rotate(270) translate(-36 17)" onmousedown="handlePan(-1,0)">
                  <use xlink:href="#rim" fill="#404040">
                        <set attributeName="fill" to="#808080" begin="arrowLeft.mouseover" end="arrowLeft.mouseout"/>
                  </use>
                  <path fill="none" stroke="white" stroke-width="1.5" d="M0,-3.0v7 M-2.5,-0.5L0,-3.0L2.5,-0.5"/>
                </g>
        </g>
        <svg viewBox="0 0 15 15" width="100%" height="30px" preserveAspectRatio="xMaxYMin meet">
         <g id="arrow_out" transform="scale(0.3 0.3)">
          <a xlink:href="class_g_u_i_credits_a72154ffe4ac1567fe635ee83e8b01906_cgraph_org.svg" target="_base">
           <rect id="button" ry="5" rx="5" y="6" x="6" height="38" width="38"
                fill="#f2f5e9" fill-opacity="0.5" stroke="#606060" stroke-width="1.0"/>
           <path id="arrow"
             d="M 11.500037,31.436501 C 11.940474,20.09759 22.043105,11.32322 32.158766,21.979434 L 37.068811,17.246167 C 37.068811,17.246167 37.088388,32 37.088388,32 L 22.160133,31.978069 C 22.160133,31.978069 26.997745,27.140456 26.997745,27.140456 C 18.528582,18.264221 13.291696,25.230495 11.500037,31.436501 z"
             style="fill:#404040;"/>
          </a>
         </g>
        </svg>
</svg>
