<?xml version="1.0" encoding="UTF-8" standalone="no"?>
<!DOCTYPE svg PUBLIC "-//W3C//DTD SVG 1.1//EN"
 "http://www.w3.org/Graphics/SVG/1.1/DTD/svg11.dtd">
<!-- Generated by graphviz version 2.38.0 (20140413.2041)
 -->
<!-- Title: GUICredits::~GUICredits Pages: 1 -->
<svg width="665pt" height="113pt"
 viewBox="0.00 0.00 665.00 112.50" xmlns="http://www.w3.org/2000/svg" xmlns:xlink="http://www.w3.org/1999/xlink">
<g id="graph0" class="graph" transform="scale(1 1) rotate(0) translate(4 108.5)">
<title>GUICredits::~GUICredits</title>
<polygon fill="white" stroke="none" points="-4,4 -4,-108.5 661,-108.5 661,4 -4,4"/>
<!-- Node1 -->
<g id="node1" class="node"><title>Node1</title>
<g id="a_node1"><a xlink:title=" ">
<polygon fill="#bfbfbf" stroke="black" points="0,-28 0,-47 123,-47 123,-28 0,-28"/>
<text text-anchor="middle" x="61.5" y="-35" font-family="Helvetica,sans-Serif" font-size="10.00">GUICredits::~GUICredits</text>
</a>
</g>
</g>
<!-- Node2 -->
<g id="node2" class="node"><title>Node2</title>
<g id="a_node2"><a xlink:href="../../de/d73/class_image.html#a79e0e96332914caa0816c7d34822b9bf" target="_top" xlink:title=" ">
<polygon fill="white" stroke="black" points="211,-50 211,-69 295,-69 295,-50 211,-50"/>
<text text-anchor="middle" x="253" y="-57" font-family="Helvetica,sans-Serif" font-size="10.00">Image::Release</text>
</a>
</g>
</g>
<!-- Node1&#45;&gt;Node2 -->
<g id="edge1" class="edge"><title>Node1&#45;&gt;Node2</title>
<path fill="none" stroke="midnightblue" d="M123.241,-44.5517C148.248,-47.455 176.9,-50.7813 200.818,-53.558"/>
<polygon fill="midnightblue" stroke="midnightblue" points="200.417,-57.0349 210.754,-54.7115 201.224,-50.0816 200.417,-57.0349"/>
</g>
<!-- Node5 -->
<g id="node5" class="node"><title>Node5</title>
<g id="a_node5"><a xlink:href="../../d8/d81/class_l_o_d_file___icons_bitmaps.html#afad002ef11dbfec35736f189487c3778" target="_top" xlink:title=" ">
<polygon fill="white" stroke="black" points="159,-0.5 159,-30.5 347,-30.5 347,-0.5 159,-0.5"/>
<text text-anchor="start" x="167" y="-18.5" font-family="Helvetica,sans-Serif" font-size="10.00">LODFile_IconsBitmaps</text>
<text text-anchor="middle" x="253" y="-7.5" font-family="Helvetica,sans-Serif" font-size="10.00">::RemoveTexturesPackFromTextureList</text>
</a>
</g>
</g>
<!-- Node1&#45;&gt;Node5 -->
<g id="edge4" class="edge"><title>Node1&#45;&gt;Node5</title>
<path fill="none" stroke="midnightblue" d="M123.241,-30.4483C131.411,-29.4998 139.97,-28.5061 148.626,-27.5012"/>
<polygon fill="midnightblue" stroke="midnightblue" points="149.284,-30.9484 158.814,-26.3184 148.477,-23.9951 149.284,-30.9484"/>
</g>
<!-- Node3 -->
<g id="node3" class="node"><title>Node3</title>
<g id="a_node3"><a xlink:href="../../d7/d42/class_image_loader.html#a18f2d859b812d0877891b4960ad48e53" target="_top" xlink:title=" ">
<polygon fill="white" stroke="black" points="383,-85 383,-104 544,-104 544,-85 383,-85"/>
<text text-anchor="middle" x="463.5" y="-92" font-family="Helvetica,sans-Serif" font-size="10.00">ImageLoader::GetResourceName</text>
</a>
</g>
</g>
<!-- Node2&#45;&gt;Node3 -->
<g id="edge2" class="edge"><title>Node2&#45;&gt;Node3</title>
<path fill="none" stroke="midnightblue" d="M295.193,-66.4149C323.802,-71.2173 362.559,-77.7234 395.567,-83.2642"/>
<polygon fill="midnightblue" stroke="midnightblue" points="395.167,-86.746 405.608,-84.9498 396.326,-79.8425 395.167,-86.746"/>
</g>
<!-- Node4 -->
<g id="node4" class="node"><title>Node4</title>
<g id="a_node4"><a xlink:href="../../db/dd6/class_assets_manager.html#a267f5a440cbd28f4a1a0d9527223bd08" target="_top" xlink:title=" ">
<polygon fill="white" stroke="black" points="387.5,-47 387.5,-66 539.5,-66 539.5,-47 387.5,-47"/>
<text text-anchor="middle" x="463.5" y="-54" font-family="Helvetica,sans-Serif" font-size="10.00">AssetsManager::ReleaseImage</text>
</a>
</g>
</g>
<!-- Node2&#45;&gt;Node4 -->
<g id="edge3" class="edge"><title>Node2&#45;&gt;Node4</title>
<path fill="none" stroke="midnightblue" d="M295.193,-58.9073C318.552,-58.5712 348.677,-58.1377 376.914,-57.7315"/>
<polygon fill="midnightblue" stroke="midnightblue" points="377.267,-61.2268 387.215,-57.5832 377.166,-54.2276 377.267,-61.2268"/>
</g>
<!-- Node6 -->
<g id="node6" class="node"><title>Node6</title>
<g id="a_node6"><a xlink:href="../../d0/ded/struct_texture___m_m7.html#a5d76b76e8d592e2cc382ca2723774b32" target="_top" xlink:title=" ">
<polygon fill="white" stroke="black" points="405,-6 405,-25 522,-25 522,-6 405,-6"/>
<text text-anchor="middle" x="463.5" y="-13" font-family="Helvetica,sans-Serif" font-size="10.00">Texture_MM7::Release</text>
</a>
</g>
</g>
<!-- Node5&#45;&gt;Node6 -->
<g id="edge5" class="edge"><title>Node5&#45;&gt;Node6</title>
<path fill="none" stroke="midnightblue" d="M347.273,-15.5C363.218,-15.5 379.51,-15.5 394.634,-15.5"/>
<polygon fill="midnightblue" stroke="midnightblue" points="394.899,-19.0001 404.899,-15.5 394.899,-12.0001 394.899,-19.0001"/>
</g>
<!-- Node7 -->
<g id="node7" class="node"><title>Node7</title>
<g id="a_node7"><a xlink:href="../../d9/d30/_s_d_l__assert_8h.html#afedcea68cf85ee469ab1ea390bbe0abb" target="_top" xlink:title=" ">
<polygon fill="white" stroke="black" points="580,-6 580,-25 657,-25 657,-6 580,-6"/>
<text text-anchor="middle" x="618.5" y="-13" font-family="Helvetica,sans-Serif" font-size="10.00">__debugbreak</text>
</a>
</g>
</g>
<!-- Node6&#45;&gt;Node7 -->
<g id="edge6" class="edge"><title>Node6&#45;&gt;Node7</title>
<path fill="none" stroke="midnightblue" d="M522.343,-15.5C538.019,-15.5 554.809,-15.5 569.854,-15.5"/>
<polygon fill="midnightblue" stroke="midnightblue" points="569.956,-19.0001 579.956,-15.5 569.956,-12.0001 569.956,-19.0001"/>
</g>
</g>
</svg>
