<?xml version="1.0" encoding="UTF-8" standalone="no"?>
<!DOCTYPE svg PUBLIC "-//W3C//DTD SVG 1.1//EN"
 "http://www.w3.org/Graphics/SVG/1.1/DTD/svg11.dtd">
<!-- Generated by graphviz version 2.38.0 (20140413.2041)
 -->
<!-- Title: AVPacket Pages: 1 -->
<svg width="196pt" height="95pt"
 viewBox="0.00 0.00 196.00 95.00" xmlns="http://www.w3.org/2000/svg" xmlns:xlink="http://www.w3.org/1999/xlink">
<g id="graph0" class="graph" transform="scale(1 1) rotate(0) translate(4 91)">
<title>AVPacket</title>
<polygon fill="white" stroke="none" points="-4,4 -4,-91 192,-91 192,4 -4,4"/>
<!-- Node1 -->
<g id="node1" class="node"><title>Node1</title>
<g id="a_node1"><a xlink:title=" ">
<polygon fill="#bfbfbf" stroke="black" points="55,-0.5 55,-19.5 116,-19.5 116,-0.5 55,-0.5"/>
<text text-anchor="middle" x="85.5" y="-7.5" font-family="Helvetica,sans-Serif" font-size="10.00">AVPacket</text>
</a>
</g>
</g>
<!-- Node2 -->
<g id="node2" class="node"><title>Node2</title>
<g id="a_node2"><a xlink:href="../../d0/dc0/struct_a_v_buffer_ref.html" target="_top" xlink:title=" ">
<polygon fill="white" stroke="black" points="0,-67.5 0,-86.5 69,-86.5 69,-67.5 0,-67.5"/>
<text text-anchor="middle" x="34.5" y="-74.5" font-family="Helvetica,sans-Serif" font-size="10.00">AVBufferRef</text>
</a>
</g>
</g>
<!-- Node2&#45;&gt;Node1 -->
<g id="edge1" class="edge"><title>Node2&#45;&gt;Node1</title>
<path fill="none" stroke="#9a32cd" stroke-dasharray="5,2" d="M47.6263,-59.2705C57.5699,-46.5972 70.8269,-29.701 78.7309,-19.6273"/>
<polygon fill="#9a32cd" stroke="#9a32cd" points="44.7974,-57.2059 41.3781,-67.2338 50.3046,-61.5269 44.7974,-57.2059"/>
<text text-anchor="middle" x="71.5" y="-41" font-family="Helvetica,sans-Serif" font-size="10.00"> buf</text>
</g>
<!-- Node3 -->
<g id="node3" class="node"><title>Node3</title>
<g id="a_node3"><a xlink:href="../../db/d23/struct_a_v_packet_side_data.html" target="_top" xlink:title=" ">
<polygon fill="white" stroke="black" points="87,-67.5 87,-86.5 188,-86.5 188,-67.5 87,-67.5"/>
<text text-anchor="middle" x="137.5" y="-74.5" font-family="Helvetica,sans-Serif" font-size="10.00">AVPacketSideData</text>
</a>
</g>
</g>
<!-- Node3&#45;&gt;Node1 -->
<g id="edge2" class="edge"><title>Node3&#45;&gt;Node1</title>
<path fill="none" stroke="#9a32cd" stroke-dasharray="5,2" d="M124.116,-59.2705C113.978,-46.5972 100.461,-29.701 92.4018,-19.6273"/>
<polygon fill="#9a32cd" stroke="#9a32cd" points="121.507,-61.6115 130.487,-67.2338 126.973,-57.2387 121.507,-61.6115"/>
<text text-anchor="middle" x="137.5" y="-41" font-family="Helvetica,sans-Serif" font-size="10.00"> side_data</text>
</g>
</g>
</svg>
