<?xml version="1.0" encoding="UTF-8" standalone="no"?>
<!DOCTYPE svg PUBLIC "-//W3C//DTD SVG 1.1//EN"
 "http://www.w3.org/Graphics/SVG/1.1/DTD/svg11.dtd">
<!-- Generated by graphviz version 2.38.0 (20140413.2041)
 -->
<!-- Title: Vis Pages: 1 -->
<svg width="304pt" height="206pt"
 viewBox="0.00 0.00 304.00 206.00" xmlns="http://www.w3.org/2000/svg" xmlns:xlink="http://www.w3.org/1999/xlink">
<g id="graph0" class="graph" transform="scale(1 1) rotate(0) translate(4 202)">
<title>Vis</title>
<polygon fill="white" stroke="none" points="-4,4 -4,-202 300,-202 300,4 -4,4"/>
<!-- Node1 -->
<g id="node1" class="node"><title>Node1</title>
<g id="a_node1"><a xlink:title=" ">
<polygon fill="#bfbfbf" stroke="black" points="80.5,-0.5 80.5,-19.5 111.5,-19.5 111.5,-0.5 80.5,-0.5"/>
<text text-anchor="middle" x="96" y="-7.5" font-family="Helvetica,sans-Serif" font-size="10.00">Vis</text>
</a>
</g>
</g>
<!-- Node2 -->
<g id="node2" class="node"><title>Node2</title>
<g id="a_node2"><a xlink:href="../../d6/d70/class_log.html" target="_top" xlink:title=" ">
<polygon fill="white" stroke="black" points="0,-100.5 0,-119.5 32,-119.5 32,-100.5 0,-100.5"/>
<text text-anchor="middle" x="16" y="-107.5" font-family="Helvetica,sans-Serif" font-size="10.00">Log</text>
</a>
</g>
</g>
<!-- Node2&#45;&gt;Node1 -->
<g id="edge1" class="edge"><title>Node2&#45;&gt;Node1</title>
<path fill="none" stroke="#9a32cd" stroke-dasharray="5,2" d="M29.4528,-92.5203C46.6424,-71.463 75.7569,-35.7978 89.0307,-19.5374"/>
<polygon fill="#9a32cd" stroke="#9a32cd" points="26.7119,-90.3432 23.0995,-100.303 32.1346,-94.7698 26.7119,-90.3432"/>
<text text-anchor="middle" x="81" y="-57.5" font-family="Helvetica,sans-Serif" font-size="10.00"> log</text>
</g>
<!-- Node3 -->
<g id="node3" class="node"><title>Node3</title>
<g id="a_node3"><a xlink:href="../../de/d0c/struct_vis___selection_list.html" target="_top" xlink:title=" ">
<polygon fill="white" stroke="black" points="50,-100.5 50,-119.5 142,-119.5 142,-100.5 50,-100.5"/>
<text text-anchor="middle" x="96" y="-107.5" font-family="Helvetica,sans-Serif" font-size="10.00">Vis_SelectionList</text>
</a>
</g>
</g>
<!-- Node3&#45;&gt;Node1 -->
<g id="edge2" class="edge"><title>Node3&#45;&gt;Node1</title>
<path fill="none" stroke="#9a32cd" stroke-dasharray="5,2" d="M96,-90.2203C96,-68.9514 96,-35.2197 96,-19.5374"/>
<polygon fill="#9a32cd" stroke="#9a32cd" points="92.5001,-90.3031 96,-100.303 99.5001,-90.3032 92.5001,-90.3031"/>
<text text-anchor="middle" x="121" y="-57.5" font-family="Helvetica,sans-Serif" font-size="10.00"> default_list</text>
</g>
<!-- Node4 -->
<g id="node4" class="node"><title>Node4</title>
<g id="a_node4"><a xlink:href="../../d1/d04/struct_vis___object_info.html" target="_top" xlink:title=" ">
<polygon fill="white" stroke="black" points="56,-178.5 56,-197.5 136,-197.5 136,-178.5 56,-178.5"/>
<text text-anchor="middle" x="96" y="-185.5" font-family="Helvetica,sans-Serif" font-size="10.00">Vis_ObjectInfo</text>
</a>
</g>
</g>
<!-- Node4&#45;&gt;Node3 -->
<g id="edge3" class="edge"><title>Node4&#45;&gt;Node3</title>
<path fill="none" stroke="#9a32cd" stroke-dasharray="5,2" d="M96,-168.224C96,-152.697 96,-131.358 96,-119.616"/>
<polygon fill="#9a32cd" stroke="#9a32cd" points="92.5001,-168.282 96,-178.282 99.5001,-168.282 92.5001,-168.282"/>
<text text-anchor="middle" x="129.5" y="-152" font-family="Helvetica,sans-Serif" font-size="10.00"> object_pool</text>
<text text-anchor="middle" x="129.5" y="-141" font-family="Helvetica,sans-Serif" font-size="10.00">object_pointers</text>
</g>
<!-- Node5 -->
<g id="node5" class="node"><title>Node5</title>
<g id="a_node5"><a xlink:href="../../db/d1a/struct_render_vertex_soft.html" target="_top" xlink:title=" ">
<polygon fill="white" stroke="black" points="160.5,-100.5 160.5,-119.5 253.5,-119.5 253.5,-100.5 160.5,-100.5"/>
<text text-anchor="middle" x="207" y="-107.5" font-family="Helvetica,sans-Serif" font-size="10.00">RenderVertexSoft</text>
</a>
</g>
</g>
<!-- Node5&#45;&gt;Node1 -->
<g id="edge4" class="edge"><title>Node5&#45;&gt;Node1</title>
<path fill="none" stroke="#9a32cd" stroke-dasharray="5,2" d="M196.093,-91.458C185.73,-75.8849 168.948,-53.2908 150,-38 138.417,-28.6528 123.07,-21.3678 111.697,-16.7332"/>
<polygon fill="#9a32cd" stroke="#9a32cd" points="193.317,-93.6116 201.677,-100.119 199.2,-89.8181 193.317,-93.6116"/>
<text text-anchor="middle" x="214" y="-74" font-family="Helvetica,sans-Serif" font-size="10.00"> stru_209C</text>
<text text-anchor="middle" x="214" y="-63" font-family="Helvetica,sans-Serif" font-size="10.00">stru_206C</text>
<text text-anchor="middle" x="214" y="-52" font-family="Helvetica,sans-Serif" font-size="10.00">stru_200C</text>
<text text-anchor="middle" x="214" y="-41" font-family="Helvetica,sans-Serif" font-size="10.00">stru_203C</text>
</g>
<!-- Node6 -->
<g id="node6" class="node"><title>Node6</title>
<g id="a_node6"><a xlink:href="../../d5/d06/struct_vec3__float__.html" target="_top" xlink:title=" ">
<polygon fill="white" stroke="black" points="173,-178.5 173,-197.5 241,-197.5 241,-178.5 173,-178.5"/>
<text text-anchor="middle" x="207" y="-185.5" font-family="Helvetica,sans-Serif" font-size="10.00">Vec3_float_</text>
</a>
</g>
</g>
<!-- Node6&#45;&gt;Node5 -->
<g id="edge5" class="edge"><title>Node6&#45;&gt;Node5</title>
<path fill="none" stroke="#9a32cd" stroke-dasharray="5,2" d="M207,-168.224C207,-152.697 207,-131.358 207,-119.616"/>
<polygon fill="#9a32cd" stroke="#9a32cd" points="203.5,-168.282 207,-178.282 210.5,-168.282 203.5,-168.282"/>
<text text-anchor="middle" x="251.5" y="-152" font-family="Helvetica,sans-Serif" font-size="10.00"> vWorldViewPosition</text>
<text text-anchor="middle" x="251.5" y="-141" font-family="Helvetica,sans-Serif" font-size="10.00">vWorldPosition</text>
</g>
</g>
</svg>
