<?xml version="1.0" encoding="UTF-8" standalone="no"?>
<!DOCTYPE svg PUBLIC "-//W3C//DTD SVG 1.1//EN"
 "http://www.w3.org/Graphics/SVG/1.1/DTD/svg11.dtd">
<!-- Generated by graphviz version 2.38.0 (20140413.2041)
 -->
<!-- Title: libavfilter Pages: 1 -->
<svg width="189pt" height="64pt"
 viewBox="0.00 0.00 189.00 64.00" xmlns="http://www.w3.org/2000/svg" xmlns:xlink="http://www.w3.org/1999/xlink">
<g id="graph0" class="graph" transform="scale(1 1) rotate(0) translate(4 60)">
<title>libavfilter</title>
<polygon fill="white" stroke="none" points="-4,4 -4,-60 185,-60 185,4 -4,4"/>
<!-- Node1 -->
<g id="node1" class="node"><title>Node1</title>
<g id="a_node1"><a xlink:title="Graph&#45;based frame editing library.">
<polygon fill="#bfbfbf" stroke="black" points="53,-37 0,-37 0,-18 53,-18 53,-37"/>
<text text-anchor="middle" x="26.5" y="-25" font-family="Helvetica,sans-Serif" font-size="10.00">libavfilter</text>
</a>
</g>
</g>
<!-- Node2 -->
<g id="node2" class="node"><title>Node2</title>
<g id="a_node2"><a xlink:href="../../d9/d34/group__lavfi__buffersink.html" target="_top" xlink:title=" ">
<polygon fill="white" stroke="black" points="175.5,-56 94.5,-56 94.5,-37 175.5,-37 175.5,-56"/>
<text text-anchor="middle" x="135" y="-44" font-family="Helvetica,sans-Serif" font-size="10.00">Buffer sink API</text>
</a>
</g>
</g>
<!-- Node1&#45;&gt;Node2 -->
<g id="edge1" class="edge"><title>Node1&#45;&gt;Node2</title>
<path fill="none" stroke="black" d="M63.0065,-33.8345C72.9923,-35.616 83.918,-37.5652 94.1398,-39.3888"/>
<polygon fill="black" stroke="black" points="63.4687,-30.3618 53.0094,-32.051 62.2392,-37.253 63.4687,-30.3618"/>
</g>
<!-- Node3 -->
<g id="node3" class="node"><title>Node3</title>
<g id="a_node3"><a xlink:href="../../dc/dbc/group__lavfi__buffersrc.html" target="_top" xlink:title=" ">
<polygon fill="white" stroke="black" points="181,-19 89,-19 89,-0 181,-0 181,-19"/>
<text text-anchor="middle" x="135" y="-7" font-family="Helvetica,sans-Serif" font-size="10.00">Buffer source API</text>
</a>
</g>
</g>
<!-- Node1&#45;&gt;Node3 -->
<g id="edge2" class="edge"><title>Node1&#45;&gt;Node3</title>
<path fill="none" stroke="black" d="M63.0254,-21.4957C71.2568,-20.1045 80.126,-18.6055 88.7126,-17.1542"/>
<polygon fill="black" stroke="black" points="62.2863,-18.0709 53.0094,-23.1886 63.4529,-24.973 62.2863,-18.0709"/>
</g>
</g>
</svg>
