<?xml version="1.0" encoding="UTF-8" standalone="no"?>
<!DOCTYPE svg PUBLIC "-//W3C//DTD SVG 1.1//EN"
 "http://www.w3.org/Graphics/SVG/1.1/DTD/svg11.dtd">
<!-- Generated by graphviz version 2.38.0 (20140413.2041)
 -->
<!-- Title: GUIWindow_CalendarBook::GUIWindow_CalendarBook Pages: 1 -->
<svg width="1138pt" height="438pt"
 viewBox="0.00 0.00 1138.00 437.50" xmlns="http://www.w3.org/2000/svg" xmlns:xlink="http://www.w3.org/1999/xlink">
<g id="graph0" class="graph" transform="scale(1 1) rotate(0) translate(4 433.5)">
<title>GUIWindow_CalendarBook::GUIWindow_CalendarBook</title>
<polygon fill="white" stroke="none" points="-4,4 -4,-433.5 1134,-433.5 1134,4 -4,4"/>
<!-- Node1 -->
<g id="node1" class="node"><title>Node1</title>
<g id="a_node1"><a xlink:title=" ">
<polygon fill="#bfbfbf" stroke="black" points="0,-61 0,-91 140,-91 140,-61 0,-61"/>
<text text-anchor="start" x="8" y="-79" font-family="Helvetica,sans-Serif" font-size="10.00">GUIWindow_CalendarBook</text>
<text text-anchor="middle" x="70" y="-68" font-family="Helvetica,sans-Serif" font-size="10.00">::GUIWindow_CalendarBook</text>
</a>
</g>
</g>
<!-- Node2 -->
<g id="node2" class="node"><title>Node2</title>
<g id="a_node2"><a xlink:href="../../d6/d37/class_g_u_i_window___book.html#ab1adfe3c80158dbd7a31930707d7cf95" target="_top" xlink:title=" ">
<polygon fill="white" stroke="black" points="176,-159 176,-189 325,-189 325,-159 176,-159"/>
<text text-anchor="start" x="184" y="-177" font-family="Helvetica,sans-Serif" font-size="10.00">GUIWindow_Book::BasicBook</text>
<text text-anchor="middle" x="250.5" y="-166" font-family="Helvetica,sans-Serif" font-size="10.00">Initialization</text>
</a>
</g>
</g>
<!-- Node1&#45;&gt;Node2 -->
<g id="edge1" class="edge"><title>Node1&#45;&gt;Node2</title>
<path fill="none" stroke="midnightblue" d="M98.4994,-91.0977C129.16,-107.931 178.892,-135.235 212.841,-153.874"/>
<polygon fill="midnightblue" stroke="midnightblue" points="211.519,-157.141 221.969,-158.885 214.888,-151.004 211.519,-157.141"/>
</g>
<!-- Node21 -->
<g id="node21" class="node"><title>Node21</title>
<g id="a_node21"><a xlink:href="../../d7/dc2/class_audio_player.html#a222380497b8558ff7d16fa71f8680a46" target="_top" xlink:title=" ">
<polygon fill="white" stroke="black" points="534,-183.5 534,-202.5 670,-202.5 670,-183.5 534,-183.5"/>
<text text-anchor="middle" x="602" y="-190.5" font-family="Helvetica,sans-Serif" font-size="10.00">AudioPlayer::StopChannels</text>
</a>
</g>
</g>
<!-- Node1&#45;&gt;Node21 -->
<g id="edge27" class="edge"><title>Node1&#45;&gt;Node21</title>
<path fill="none" stroke="midnightblue" d="M140.263,-78.1722C244.031,-82.1799 434.45,-92.6648 498,-117 532.502,-130.212 565.631,-158.316 584.619,-176.398"/>
<polygon fill="midnightblue" stroke="midnightblue" points="582.254,-178.98 591.854,-183.461 587.144,-173.971 582.254,-178.98"/>
</g>
<!-- Node22 -->
<g id="node22" class="node"><title>Node22</title>
<g id="a_node22"><a xlink:href="../../db/dd6/class_assets_manager.html#ad4ab70fc004c8c5a54756f3d358a8383" target="_top" xlink:title=" ">
<polygon fill="white" stroke="black" points="184,-39 184,-69 317,-69 317,-39 184,-39"/>
<text text-anchor="start" x="192" y="-57" font-family="Helvetica,sans-Serif" font-size="10.00">AssetsManager::GetImage</text>
<text text-anchor="middle" x="250.5" y="-46" font-family="Helvetica,sans-Serif" font-size="10.00">_ColorKey</text>
</a>
</g>
</g>
<!-- Node1&#45;&gt;Node22 -->
<g id="edge24" class="edge"><title>Node1&#45;&gt;Node22</title>
<path fill="none" stroke="midnightblue" d="M140.013,-67.4942C151.054,-66.1334 162.532,-64.7188 173.72,-63.3398"/>
<polygon fill="midnightblue" stroke="midnightblue" points="174.397,-66.783 183.894,-62.086 173.54,-59.8356 174.397,-66.783"/>
</g>
<!-- Node23 -->
<g id="node23" class="node"><title>Node23</title>
<g id="a_node23"><a xlink:href="../../d8/da1/struct_timer.html#a9b8c57bf9675da635a82d68d9b4d05e5" target="_top" xlink:title=" ">
<polygon fill="white" stroke="black" points="213.5,-0.5 213.5,-19.5 287.5,-19.5 287.5,-0.5 213.5,-0.5"/>
<text text-anchor="middle" x="250.5" y="-7.5" font-family="Helvetica,sans-Serif" font-size="10.00">Timer::Pause</text>
</a>
</g>
</g>
<!-- Node1&#45;&gt;Node23 -->
<g id="edge25" class="edge"><title>Node1&#45;&gt;Node23</title>
<path fill="none" stroke="midnightblue" d="M101.232,-60.8379C121.921,-50.8697 150.177,-38.0453 176,-29 184.769,-25.9283 194.283,-23.1075 203.466,-20.6323"/>
<polygon fill="midnightblue" stroke="midnightblue" points="204.453,-23.992 213.25,-18.0866 202.69,-17.2176 204.453,-23.992"/>
</g>
<!-- Node3 -->
<g id="node3" class="node"><title>Node3</title>
<g id="a_node3"><a xlink:href="../../d4/d38/class_g_u_i_window.html#a29f96468b54f142995e3b1890cb7e45e" target="_top" xlink:title=" ">
<polygon fill="white" stroke="black" points="364,-164.5 364,-183.5 495,-183.5 495,-164.5 364,-164.5"/>
<text text-anchor="middle" x="429.5" y="-171.5" font-family="Helvetica,sans-Serif" font-size="10.00">GUIWindow::CreateButton</text>
</a>
</g>
</g>
<!-- Node2&#45;&gt;Node3 -->
<g id="edge2" class="edge"><title>Node2&#45;&gt;Node3</title>
<path fill="none" stroke="midnightblue" d="M325.026,-174C334.513,-174 344.235,-174 353.741,-174"/>
<polygon fill="midnightblue" stroke="midnightblue" points="353.949,-177.5 363.949,-174 353.949,-170.5 353.949,-177.5"/>
</g>
<!-- Node4 -->
<g id="node4" class="node"><title>Node4</title>
<g id="a_node4"><a xlink:href="../../dd/d88/class_localization.html#a0eb0a17fdf90f6a420eeac65bf62436f" target="_top" xlink:title=" ">
<polygon fill="white" stroke="black" points="371.5,-126.5 371.5,-145.5 487.5,-145.5 487.5,-126.5 371.5,-126.5"/>
<text text-anchor="middle" x="429.5" y="-133.5" font-family="Helvetica,sans-Serif" font-size="10.00">Localization::GetString</text>
</a>
</g>
</g>
<!-- Node2&#45;&gt;Node4 -->
<g id="edge3" class="edge"><title>Node2&#45;&gt;Node4</title>
<path fill="none" stroke="midnightblue" d="M321.455,-158.981C338.98,-155.219 357.52,-151.239 374.158,-147.667"/>
<polygon fill="midnightblue" stroke="midnightblue" points="375.203,-151.022 384.246,-145.501 373.734,-144.178 375.203,-151.022"/>
</g>
<!-- Node5 -->
<g id="node5" class="node"><title>Node5</title>
<g id="a_node5"><a xlink:href="../../d6/d37/class_g_u_i_window___book.html#a3afad40ee1f7c4f3a96b54106dea73f3" target="_top" xlink:title=" ">
<polygon fill="white" stroke="black" points="361,-241 361,-271 498,-271 498,-241 361,-241"/>
<text text-anchor="start" x="369" y="-259" font-family="Helvetica,sans-Serif" font-size="10.00">GUIWindow_Book::Initialize</text>
<text text-anchor="middle" x="429.5" y="-248" font-family="Helvetica,sans-Serif" font-size="10.00">Fonts</text>
</a>
</g>
</g>
<!-- Node2&#45;&gt;Node5 -->
<g id="edge4" class="edge"><title>Node2&#45;&gt;Node5</title>
<path fill="none" stroke="midnightblue" d="M282.554,-189.002C304.422,-199.504 334.42,-213.784 361,-226 368.705,-229.541 376.933,-233.254 384.9,-236.815"/>
<polygon fill="midnightblue" stroke="midnightblue" points="383.527,-240.034 394.086,-240.905 386.374,-233.64 383.527,-240.034"/>
</g>
<!-- Node2&#45;&gt;Node21 -->
<g id="edge23" class="edge"><title>Node2&#45;&gt;Node21</title>
<path fill="none" stroke="midnightblue" d="M325.196,-188.566C337.121,-190.409 349.37,-191.998 361,-193 415.242,-197.671 476.636,-197.574 523.75,-196.359"/>
<polygon fill="midnightblue" stroke="midnightblue" points="523.984,-199.854 533.882,-196.075 523.788,-192.857 523.984,-199.854"/>
</g>
<!-- Node6 -->
<g id="node6" class="node"><title>Node6</title>
<g id="a_node6"><a xlink:href="../../db/dd6/class_assets_manager.html#a1233dda64079e0eba19f8be51386d029" target="_top" xlink:title=" ">
<polygon fill="white" stroke="black" points="535.5,-260 535.5,-290 668.5,-290 668.5,-260 535.5,-260"/>
<text text-anchor="start" x="543.5" y="-278" font-family="Helvetica,sans-Serif" font-size="10.00">AssetsManager::GetImage</text>
<text text-anchor="middle" x="602" y="-267" font-family="Helvetica,sans-Serif" font-size="10.00">_Alpha</text>
</a>
</g>
</g>
<!-- Node5&#45;&gt;Node6 -->
<g id="edge5" class="edge"><title>Node5&#45;&gt;Node6</title>
<path fill="none" stroke="midnightblue" d="M498.376,-263.564C507.215,-264.549 516.314,-265.563 525.271,-266.561"/>
<polygon fill="midnightblue" stroke="midnightblue" points="524.976,-270.05 535.302,-267.679 525.751,-263.093 524.976,-270.05"/>
</g>
<!-- Node7 -->
<g id="node7" class="node"><title>Node7</title>
<g id="a_node7"><a xlink:href="../../d3/d39/class_g_u_i_font.html#a60a9fdf52ee46948981d31ce14d2f005" target="_top" xlink:title=" ">
<polygon fill="white" stroke="black" points="552.5,-221.5 552.5,-240.5 651.5,-240.5 651.5,-221.5 552.5,-221.5"/>
<text text-anchor="middle" x="602" y="-228.5" font-family="Helvetica,sans-Serif" font-size="10.00">GUIFont::LoadFont</text>
</a>
</g>
</g>
<!-- Node5&#45;&gt;Node7 -->
<g id="edge6" class="edge"><title>Node5&#45;&gt;Node7</title>
<path fill="none" stroke="midnightblue" d="M498.376,-246.048C512.873,-243.922 528.07,-241.694 542.193,-239.623"/>
<polygon fill="midnightblue" stroke="midnightblue" points="542.875,-243.06 552.261,-238.146 541.859,-236.134 542.875,-243.06"/>
</g>
<!-- Node11 -->
<g id="node11" class="node"><title>Node11</title>
<g id="a_node11"><a xlink:href="../../d7/dc2/class_audio_player.html#afa0c135f321bd87b4d4ad2dcad3833e3" target="_top" xlink:title=" ">
<polygon fill="white" stroke="black" points="541,-322.5 541,-341.5 663,-341.5 663,-322.5 541,-322.5"/>
<text text-anchor="middle" x="602" y="-329.5" font-family="Helvetica,sans-Serif" font-size="10.00">AudioPlayer::PlaySound</text>
</a>
</g>
</g>
<!-- Node5&#45;&gt;Node11 -->
<g id="edge10" class="edge"><title>Node5&#45;&gt;Node11</title>
<path fill="none" stroke="midnightblue" d="M464.185,-271.015C494.877,-284.696 539.852,-304.743 569.755,-318.073"/>
<polygon fill="midnightblue" stroke="midnightblue" points="568.718,-321.442 579.276,-322.317 571.568,-315.048 568.718,-321.442"/>
</g>
<!-- Node5&#45;&gt;Node21 -->
<g id="edge22" class="edge"><title>Node5&#45;&gt;Node21</title>
<path fill="none" stroke="midnightblue" d="M464.728,-240.901C489.436,-230.107 520.697,-216.693 534,-212 540.512,-209.703 547.452,-207.485 554.306,-205.426"/>
<polygon fill="midnightblue" stroke="midnightblue" points="555.608,-208.692 564.227,-202.531 553.647,-201.972 555.608,-208.692"/>
</g>
<!-- Node8 -->
<g id="node8" class="node"><title>Node8</title>
<g id="a_node8"><a xlink:href="../../dd/da7/class_l_o_d_1_1_file.html#af2af972a90784bbcfa975ccd0346385d" target="_top" xlink:title=" ">
<polygon fill="white" stroke="black" points="706,-216 706,-246 846,-246 846,-216 706,-216"/>
<text text-anchor="start" x="714" y="-234" font-family="Helvetica,sans-Serif" font-size="10.00">LOD::File::LoadCompressed</text>
<text text-anchor="middle" x="776" y="-223" font-family="Helvetica,sans-Serif" font-size="10.00">Texture</text>
</a>
</g>
</g>
<!-- Node7&#45;&gt;Node8 -->
<g id="edge7" class="edge"><title>Node7&#45;&gt;Node8</title>
<path fill="none" stroke="midnightblue" d="M651.828,-231C665.466,-231 680.648,-231 695.565,-231"/>
<polygon fill="midnightblue" stroke="midnightblue" points="695.827,-234.5 705.827,-231 695.827,-227.5 695.827,-234.5"/>
</g>
<!-- Node10 -->
<g id="node10" class="node"><title>Node10</title>
<g id="a_node10"><a xlink:href="../../d8/d81/class_l_o_d_file___icons_bitmaps.html#a91b62998b7a068b94e4e53dd1994b104" target="_top" xlink:title=" ">
<polygon fill="white" stroke="black" points="718,-167 718,-197 834,-197 834,-167 718,-167"/>
<text text-anchor="start" x="726" y="-185" font-family="Helvetica,sans-Serif" font-size="10.00">LODFile_IconsBitmaps</text>
<text text-anchor="middle" x="776" y="-174" font-family="Helvetica,sans-Serif" font-size="10.00">::LoadTexture</text>
</a>
</g>
</g>
<!-- Node7&#45;&gt;Node10 -->
<g id="edge9" class="edge"><title>Node7&#45;&gt;Node10</title>
<path fill="none" stroke="midnightblue" d="M636.745,-221.445C647.386,-218.428 659.185,-215.078 670,-212 683.719,-208.095 698.444,-203.894 712.398,-199.908"/>
<polygon fill="midnightblue" stroke="midnightblue" points="713.743,-203.164 722.397,-197.051 711.82,-196.433 713.743,-203.164"/>
</g>
<!-- Node9 -->
<g id="node9" class="node"><title>Node9</title>
<g id="a_node9"><a xlink:href="../../d9/d3e/namespacezlib.html#ae552beaf4387a81c63a28b01a9cc7ab4" target="_top" xlink:title=" ">
<polygon fill="white" stroke="black" points="909,-208.5 909,-227.5 1001,-227.5 1001,-208.5 909,-208.5"/>
<text text-anchor="middle" x="955" y="-215.5" font-family="Helvetica,sans-Serif" font-size="10.00">zlib::Uncompress</text>
</a>
</g>
</g>
<!-- Node8&#45;&gt;Node9 -->
<g id="edge8" class="edge"><title>Node8&#45;&gt;Node9</title>
<path fill="none" stroke="midnightblue" d="M846.193,-225.918C863.617,-224.638 882.091,-223.281 898.731,-222.059"/>
<polygon fill="midnightblue" stroke="midnightblue" points="899.112,-225.541 908.829,-221.318 898.599,-218.56 899.112,-225.541"/>
</g>
<!-- Node12 -->
<g id="node12" class="node"><title>Node12</title>
<g id="a_node12"><a xlink:href="../../d4/db9/_open_a_l_sound_provider_8cpp.html#a0d61058bc8900801bc227bc7b47881d7" target="_top" xlink:title=" ">
<polygon fill="white" stroke="black" points="724.5,-360.5 724.5,-379.5 827.5,-379.5 827.5,-360.5 724.5,-360.5"/>
<text text-anchor="middle" x="776" y="-367.5" font-family="Helvetica,sans-Serif" font-size="10.00">CreateAudioSample</text>
</a>
</g>
</g>
<!-- Node11&#45;&gt;Node12 -->
<g id="edge11" class="edge"><title>Node11&#45;&gt;Node12</title>
<path fill="none" stroke="midnightblue" d="M646.403,-341.589C669.407,-346.671 697.851,-352.955 722.134,-358.32"/>
<polygon fill="midnightblue" stroke="midnightblue" points="721.39,-361.74 731.909,-360.48 722.9,-354.905 721.39,-361.74"/>
</g>
<!-- Node14 -->
<g id="node14" class="node"><title>Node14</title>
<g id="a_node14"><a xlink:href="../../d7/dc2/class_audio_player.html#ae30d2f6cbd73b8e316a47b4694fe8960" target="_top" xlink:title=" ">
<polygon fill="white" stroke="black" points="714,-284.5 714,-303.5 838,-303.5 838,-284.5 714,-284.5"/>
<text text-anchor="middle" x="776" y="-291.5" font-family="Helvetica,sans-Serif" font-size="10.00">AudioPlayer::LoadSound</text>
</a>
</g>
</g>
<!-- Node11&#45;&gt;Node14 -->
<g id="edge13" class="edge"><title>Node11&#45;&gt;Node14</title>
<path fill="none" stroke="midnightblue" d="M646.403,-322.411C669.407,-317.329 697.851,-311.045 722.134,-305.68"/>
<polygon fill="midnightblue" stroke="midnightblue" points="722.9,-309.095 731.909,-303.52 721.39,-302.26 722.9,-309.095"/>
</g>
<!-- Node18 -->
<g id="node18" class="node"><title>Node18</title>
<g id="a_node18"><a xlink:href="../../d6/d70/class_log.html#ac0de2621497ca3b2fbf208624c08bcdf" target="_top" xlink:title=" ">
<polygon fill="white" stroke="black" points="918,-322.5 918,-341.5 992,-341.5 992,-322.5 918,-322.5"/>
<text text-anchor="middle" x="955" y="-329.5" font-family="Helvetica,sans-Serif" font-size="10.00">Log::Warning</text>
</a>
</g>
</g>
<!-- Node11&#45;&gt;Node18 -->
<g id="edge21" class="edge"><title>Node11&#45;&gt;Node18</title>
<path fill="none" stroke="midnightblue" d="M663.339,-332C732.595,-332 844.687,-332 907.511,-332"/>
<polygon fill="midnightblue" stroke="midnightblue" points="907.529,-335.5 917.529,-332 907.529,-328.5 907.529,-335.5"/>
</g>
<!-- Node19 -->
<g id="node19" class="node"><title>Node19</title>
<g id="a_node19"><a xlink:href="../../d9/d98/class_open_a_l_sound_provider.html#a25ac61cd13253bb659672a1cc29ef22c" target="_top" xlink:title=" ">
<polygon fill="white" stroke="black" points="719,-399 719,-429 833,-429 833,-399 719,-399"/>
<text text-anchor="start" x="727" y="-417" font-family="Helvetica,sans-Serif" font-size="10.00">OpenALSoundProvider</text>
<text text-anchor="middle" x="776" y="-406" font-family="Helvetica,sans-Serif" font-size="10.00">::SetListenerPosition</text>
</a>
</g>
</g>
<!-- Node11&#45;&gt;Node19 -->
<g id="edge19" class="edge"><title>Node11&#45;&gt;Node19</title>
<path fill="none" stroke="midnightblue" d="M618.654,-341.686C638.502,-353.725 673.997,-374.457 706,-389 710.665,-391.12 715.568,-393.191 720.518,-395.176"/>
<polygon fill="midnightblue" stroke="midnightblue" points="719.457,-398.518 730.045,-398.877 721.992,-391.994 719.457,-398.518"/>
</g>
<!-- Node13 -->
<g id="node13" class="node"><title>Node13</title>
<g id="a_node13"><a xlink:href="../../da/def/_media_8h.html#ab508e4ee3c70ec5e60273ec99af30a2e" target="_top" xlink:title=" ">
<polygon fill="white" stroke="black" points="882,-360.5 882,-379.5 1028,-379.5 1028,-360.5 882,-360.5"/>
<text text-anchor="middle" x="955" y="-367.5" font-family="Helvetica,sans-Serif" font-size="10.00">CreateAudioBufferDataSource</text>
</a>
</g>
</g>
<!-- Node12&#45;&gt;Node13 -->
<g id="edge12" class="edge"><title>Node12&#45;&gt;Node13</title>
<path fill="none" stroke="midnightblue" d="M827.721,-370C841.416,-370 856.597,-370 871.547,-370"/>
<polygon fill="midnightblue" stroke="midnightblue" points="871.839,-373.5 881.839,-370 871.839,-366.5 871.839,-373.5"/>
</g>
<!-- Node14&#45;&gt;Node9 -->
<g id="edge17" class="edge"><title>Node14&#45;&gt;Node9</title>
<path fill="none" stroke="midnightblue" d="M794.248,-284.343C821.668,-269.035 873.035,-240.557 882,-237 887.993,-234.622 894.384,-232.45 900.79,-230.493"/>
<polygon fill="midnightblue" stroke="midnightblue" points="902.179,-233.735 910.815,-227.597 900.236,-227.01 902.179,-233.735"/>
</g>
<!-- Node15 -->
<g id="node15" class="node"><title>Node15</title>
<g id="a_node15"><a xlink:href="../../da/d6a/_mem_buffer_8cpp.html#a685632d9cd2b61b24a9bfc649d54937e" target="_top" xlink:title=" ">
<polygon fill="white" stroke="black" points="912.5,-284.5 912.5,-303.5 997.5,-303.5 997.5,-284.5 912.5,-284.5"/>
<text text-anchor="middle" x="955" y="-291.5" font-family="Helvetica,sans-Serif" font-size="10.00">AllocMemBuffer</text>
</a>
</g>
</g>
<!-- Node14&#45;&gt;Node15 -->
<g id="edge14" class="edge"><title>Node14&#45;&gt;Node15</title>
<path fill="none" stroke="midnightblue" d="M838.409,-294C859.241,-294 882.288,-294 902.287,-294"/>
<polygon fill="midnightblue" stroke="midnightblue" points="902.439,-297.5 912.439,-294 902.439,-290.5 902.439,-297.5"/>
</g>
<!-- Node16 -->
<g id="node16" class="node"><title>Node16</title>
<g id="a_node16"><a xlink:href="../../d7/dc2/class_audio_player.html#aac82d03b250711ed0ce64fa22dfe3a59" target="_top" xlink:title=" ">
<polygon fill="white" stroke="black" points="894,-246.5 894,-265.5 1016,-265.5 1016,-246.5 894,-246.5"/>
<text text-anchor="middle" x="955" y="-253.5" font-family="Helvetica,sans-Serif" font-size="10.00">AudioPlayer::FindSound</text>
</a>
</g>
</g>
<!-- Node14&#45;&gt;Node16 -->
<g id="edge15" class="edge"><title>Node14&#45;&gt;Node16</title>
<path fill="none" stroke="midnightblue" d="M821.665,-284.411C845.337,-279.329 874.608,-273.045 899.597,-267.68"/>
<polygon fill="midnightblue" stroke="midnightblue" points="900.614,-271.041 909.657,-265.52 899.145,-264.197 900.614,-271.041"/>
</g>
<!-- Node14&#45;&gt;Node18 -->
<g id="edge18" class="edge"><title>Node14&#45;&gt;Node18</title>
<path fill="none" stroke="midnightblue" d="M821.665,-303.589C848.09,-309.262 881.492,-316.433 908.127,-322.152"/>
<polygon fill="midnightblue" stroke="midnightblue" points="907.463,-325.589 917.975,-324.266 908.932,-318.745 907.463,-325.589"/>
</g>
<!-- Node17 -->
<g id="node17" class="node"><title>Node17</title>
<g id="a_node17"><a xlink:href="../../d8/d44/_strings_8cpp.html#ae591bae1416df2b3638ae859ad4ede6f" target="_top" xlink:title=" ">
<polygon fill="white" stroke="black" points="1064,-246.5 1064,-265.5 1130,-265.5 1130,-246.5 1064,-246.5"/>
<text text-anchor="middle" x="1097" y="-253.5" font-family="Helvetica,sans-Serif" font-size="10.00">MakeLower</text>
</a>
</g>
</g>
<!-- Node16&#45;&gt;Node17 -->
<g id="edge16" class="edge"><title>Node16&#45;&gt;Node17</title>
<path fill="none" stroke="midnightblue" d="M1016.19,-256C1028.8,-256 1041.84,-256 1053.64,-256"/>
<polygon fill="midnightblue" stroke="midnightblue" points="1053.64,-259.5 1063.64,-256 1053.64,-252.5 1053.64,-259.5"/>
</g>
<!-- Node20 -->
<g id="node20" class="node"><title>Node20</title>
<g id="a_node20"><a xlink:href="../../d1/d20/al_8h.html#acb8f6904370d9946f4ea496e21729415" target="_top" xlink:title=" ">
<polygon fill="white" stroke="black" points="922,-404.5 922,-423.5 988,-423.5 988,-404.5 922,-404.5"/>
<text text-anchor="middle" x="955" y="-411.5" font-family="Helvetica,sans-Serif" font-size="10.00">alListener3f</text>
</a>
</g>
</g>
<!-- Node19&#45;&gt;Node20 -->
<g id="edge20" class="edge"><title>Node19&#45;&gt;Node20</title>
<path fill="none" stroke="midnightblue" d="M833.004,-414C858.501,-414 888.177,-414 911.758,-414"/>
<polygon fill="midnightblue" stroke="midnightblue" points="911.793,-417.5 921.793,-414 911.793,-410.5 911.793,-417.5"/>
</g>
<!-- Node24 -->
<g id="node24" class="node"><title>Node24</title>
<g id="a_node24"><a xlink:href="../../d8/da1/struct_timer.html#af11deea7dde51d637aec54587820f92b" target="_top" xlink:title=" ">
<polygon fill="white" stroke="black" points="395.5,-0.5 395.5,-19.5 463.5,-19.5 463.5,-0.5 395.5,-0.5"/>
<text text-anchor="middle" x="429.5" y="-7.5" font-family="Helvetica,sans-Serif" font-size="10.00">Timer::Time</text>
</a>
</g>
</g>
<!-- Node23&#45;&gt;Node24 -->
<g id="edge26" class="edge"><title>Node23&#45;&gt;Node24</title>
<path fill="none" stroke="midnightblue" d="M287.746,-10C315.973,-10 355.25,-10 385.143,-10"/>
<polygon fill="midnightblue" stroke="midnightblue" points="385.292,-13.5001 395.292,-10 385.292,-6.5001 385.292,-13.5001"/>
</g>
</g>
</svg>
