<?xml version="1.0" encoding="UTF-8" standalone="no"?>
<!DOCTYPE svg PUBLIC "-//W3C//DTD SVG 1.1//EN"
 "http://www.w3.org/Graphics/SVG/1.1/DTD/svg11.dtd">
<!-- Generated by graphviz version 2.38.0 (20140413.2041)
 -->
<!-- Title: GUIWindow_CalendarBook::Update Pages: 1 -->
<svg width="814pt" height="477pt"
 viewBox="0.00 0.00 814.00 477.00" xmlns="http://www.w3.org/2000/svg" xmlns:xlink="http://www.w3.org/1999/xlink">
<g id="graph0" class="graph" transform="scale(1 1) rotate(0) translate(4 473)">
<title>GUIWindow_CalendarBook::Update</title>
<polygon fill="white" stroke="none" points="-4,4 -4,-473 810,-473 810,4 -4,4"/>
<!-- Node1 -->
<g id="node1" class="node"><title>Node1</title>
<g id="a_node1"><a xlink:title=" ">
<polygon fill="#bfbfbf" stroke="black" points="0,-185 0,-215 134,-215 134,-185 0,-185"/>
<text text-anchor="start" x="8" y="-203" font-family="Helvetica,sans-Serif" font-size="10.00">GUIWindow_CalendarBook</text>
<text text-anchor="middle" x="67" y="-192" font-family="Helvetica,sans-Serif" font-size="10.00">::Update</text>
</a>
</g>
</g>
<!-- Node2 -->
<g id="node2" class="node"><title>Node2</title>
<g id="a_node2"><a xlink:href="../../d4/d38/class_g_u_i_window.html#a009aad05d919c42979eebb93d8b4354c" target="_top" xlink:title=" ">
<polygon fill="white" stroke="black" points="196.5,-415.5 196.5,-434.5 310.5,-434.5 310.5,-415.5 196.5,-415.5"/>
<text text-anchor="middle" x="253.5" y="-422.5" font-family="Helvetica,sans-Serif" font-size="10.00">GUIWindow::DrawText</text>
</a>
</g>
</g>
<!-- Node1&#45;&gt;Node2 -->
<g id="edge1" class="edge"><title>Node1&#45;&gt;Node2</title>
<path fill="none" stroke="midnightblue" d="M74.2449,-215.23C87.8702,-247.084 122.862,-321.853 170,-371 185.497,-387.157 206.691,-400.899 223.717,-410.477"/>
<polygon fill="midnightblue" stroke="midnightblue" points="222.228,-413.651 232.685,-415.358 225.575,-407.503 222.228,-413.651"/>
</g>
<!-- Node7 -->
<g id="node7" class="node"><title>Node7</title>
<g id="a_node7"><a xlink:href="../../d4/d38/class_g_u_i_window.html#aae805c92b9242bc94cf18c7a702433f7" target="_top" xlink:title=" ">
<polygon fill="white" stroke="black" points="187.5,-342.5 187.5,-361.5 319.5,-361.5 319.5,-342.5 187.5,-342.5"/>
<text text-anchor="middle" x="253.5" y="-349.5" font-family="Helvetica,sans-Serif" font-size="10.00">GUIWindow::DrawTitleText</text>
</a>
</g>
</g>
<!-- Node1&#45;&gt;Node7 -->
<g id="edge7" class="edge"><title>Node1&#45;&gt;Node7</title>
<path fill="none" stroke="midnightblue" d="M75.901,-215.142C90.6907,-241.992 125.155,-297.939 170,-328 176.695,-332.488 184.239,-336.15 191.975,-339.136"/>
<polygon fill="midnightblue" stroke="midnightblue" points="190.868,-342.456 201.463,-342.452 193.177,-335.848 190.868,-342.456"/>
</g>
<!-- Node10 -->
<g id="node10" class="node"><title>Node10</title>
<g id="a_node10"><a xlink:href="../../d3/d39/class_g_u_i_font.html#a439cccf73db5fd93ffc18cbba51d07e0" target="_top" xlink:title=" ">
<polygon fill="white" stroke="black" points="380,-285.5 380,-304.5 482,-304.5 482,-285.5 380,-285.5"/>
<text text-anchor="middle" x="431" y="-292.5" font-family="Helvetica,sans-Serif" font-size="10.00">GUIFont::GetHeight</text>
</a>
</g>
</g>
<!-- Node1&#45;&gt;Node10 -->
<g id="edge19" class="edge"><title>Node1&#45;&gt;Node10</title>
<path fill="none" stroke="midnightblue" d="M78.3679,-215.182C94.7526,-237.659 129.017,-278.871 170,-295 237.082,-321.401 321.656,-314.861 375.789,-306.206"/>
<polygon fill="midnightblue" stroke="midnightblue" points="376.581,-309.622 385.863,-304.514 375.422,-302.719 376.581,-309.622"/>
</g>
<!-- Node11 -->
<g id="node11" class="node"><title>Node11</title>
<g id="a_node11"><a xlink:href="../../dd/d88/class_localization.html#a30e670a431c2bdad65fee687e79adbde" target="_top" xlink:title=" ">
<polygon fill="white" stroke="black" points="193.5,-190.5 193.5,-209.5 313.5,-209.5 313.5,-190.5 193.5,-190.5"/>
<text text-anchor="middle" x="253.5" y="-197.5" font-family="Helvetica,sans-Serif" font-size="10.00">Localization::GetAmPm</text>
</a>
</g>
</g>
<!-- Node1&#45;&gt;Node11 -->
<g id="edge14" class="edge"><title>Node1&#45;&gt;Node11</title>
<path fill="none" stroke="midnightblue" d="M134.088,-200C149.949,-200 166.935,-200 182.948,-200"/>
<polygon fill="midnightblue" stroke="midnightblue" points="183.309,-203.5 193.309,-200 183.309,-196.5 183.309,-203.5"/>
</g>
<!-- Node12 -->
<g id="node12" class="node"><title>Node12</title>
<g id="a_node12"><a xlink:href="../../dd/d88/class_localization.html#a0eb0a17fdf90f6a420eeac65bf62436f" target="_top" xlink:title=" ">
<polygon fill="white" stroke="black" points="373,-228.5 373,-247.5 489,-247.5 489,-228.5 373,-228.5"/>
<text text-anchor="middle" x="431" y="-235.5" font-family="Helvetica,sans-Serif" font-size="10.00">Localization::GetString</text>
</a>
</g>
</g>
<!-- Node1&#45;&gt;Node12 -->
<g id="edge24" class="edge"><title>Node1&#45;&gt;Node12</title>
<path fill="none" stroke="midnightblue" d="M134.221,-213.441C146.097,-215.535 158.388,-217.499 170,-219 235.119,-227.418 309.933,-232.397 362.539,-235.131"/>
<polygon fill="midnightblue" stroke="midnightblue" points="362.591,-238.638 372.755,-235.648 362.945,-231.647 362.591,-238.638"/>
</g>
<!-- Node13 -->
<g id="node13" class="node"><title>Node13</title>
<g id="a_node13"><a xlink:href="../../dd/d88/class_localization.html#ae5fd9ed93f90d4661cfa4487b41c6b3e" target="_top" xlink:title=" ">
<polygon fill="white" stroke="black" points="187,-152.5 187,-171.5 320,-171.5 320,-152.5 187,-152.5"/>
<text text-anchor="middle" x="253.5" y="-159.5" font-family="Helvetica,sans-Serif" font-size="10.00">Localization::GetDayName</text>
</a>
</g>
</g>
<!-- Node1&#45;&gt;Node13 -->
<g id="edge16" class="edge"><title>Node1&#45;&gt;Node13</title>
<path fill="none" stroke="midnightblue" d="M134.088,-186.388C154.427,-182.199 176.617,-177.629 196.232,-173.589"/>
<polygon fill="midnightblue" stroke="midnightblue" points="197.144,-176.975 206.232,-171.529 195.732,-170.119 197.144,-176.975"/>
</g>
<!-- Node14 -->
<g id="node14" class="node"><title>Node14</title>
<g id="a_node14"><a xlink:href="../../df/d8d/_calendar_book_8cpp.html#a939c959a221f048eb0ec4d15e6dfffe0" target="_top" xlink:title=" ">
<polygon fill="white" stroke="black" points="219.5,-266.5 219.5,-285.5 287.5,-285.5 287.5,-266.5 219.5,-266.5"/>
<text text-anchor="middle" x="253.5" y="-273.5" font-family="Helvetica,sans-Serif" font-size="10.00">GetDayPart</text>
</a>
</g>
</g>
<!-- Node1&#45;&gt;Node14 -->
<g id="edge17" class="edge"><title>Node1&#45;&gt;Node14</title>
<path fill="none" stroke="midnightblue" d="M94.2076,-215.096C114.443,-226.321 143.39,-241.456 170,-252 182.474,-256.943 196.368,-261.376 209.144,-265.046"/>
<polygon fill="midnightblue" stroke="midnightblue" points="208.529,-268.508 219.102,-267.821 210.409,-261.765 208.529,-268.508"/>
</g>
<!-- Node15 -->
<g id="node15" class="node"><title>Node15</title>
<g id="a_node15"><a xlink:href="../../d0/d23/struct_map_stats.html#ad630f43cd5e7e239cd8a3c363ccdd605" target="_top" xlink:title=" ">
<polygon fill="white" stroke="black" points="196.5,-114.5 196.5,-133.5 310.5,-133.5 310.5,-114.5 196.5,-114.5"/>
<text text-anchor="middle" x="253.5" y="-121.5" font-family="Helvetica,sans-Serif" font-size="10.00">MapStats::GetMapInfo</text>
</a>
</g>
</g>
<!-- Node1&#45;&gt;Node15 -->
<g id="edge20" class="edge"><title>Node1&#45;&gt;Node15</title>
<path fill="none" stroke="midnightblue" d="M90.5797,-184.913C110.665,-172.107 141.23,-154.092 170,-143 176.694,-140.419 183.835,-138.132 191.009,-136.12"/>
<polygon fill="midnightblue" stroke="midnightblue" points="191.995,-139.479 200.772,-133.545 190.21,-132.711 191.995,-139.479"/>
</g>
<!-- Node17 -->
<g id="node17" class="node"><title>Node17</title>
<g id="a_node17"><a xlink:href="../../dd/d88/class_localization.html#ad3e1bb37584d310faadc4849ffe4a1ec" target="_top" xlink:title=" ">
<polygon fill="white" stroke="black" points="182,-76.5 182,-95.5 325,-95.5 325,-76.5 182,-76.5"/>
<text text-anchor="middle" x="253.5" y="-83.5" font-family="Helvetica,sans-Serif" font-size="10.00">Localization::GetMonthName</text>
</a>
</g>
</g>
<!-- Node1&#45;&gt;Node17 -->
<g id="edge22" class="edge"><title>Node1&#45;&gt;Node17</title>
<path fill="none" stroke="midnightblue" d="M79.7489,-184.9C97.1169,-163.666 131.742,-125.314 170,-105 174.316,-102.708 178.903,-100.691 183.617,-98.9162"/>
<polygon fill="midnightblue" stroke="midnightblue" points="185.073,-102.119 193.427,-95.6024 182.833,-95.4869 185.073,-102.119"/>
</g>
<!-- Node18 -->
<g id="node18" class="node"><title>Node18</title>
<g id="a_node18"><a xlink:href="../../dd/d88/class_localization.html#a54b2d6e3e75f9fafa7df34e17ae70564" target="_top" xlink:title=" ">
<polygon fill="white" stroke="black" points="170,-38.5 170,-57.5 337,-57.5 337,-38.5 170,-38.5"/>
<text text-anchor="middle" x="253.5" y="-45.5" font-family="Helvetica,sans-Serif" font-size="10.00">Localization::GetMoonPhaseName</text>
</a>
</g>
</g>
<!-- Node1&#45;&gt;Node18 -->
<g id="edge23" class="edge"><title>Node1&#45;&gt;Node18</title>
<path fill="none" stroke="midnightblue" d="M75.1263,-184.885C89.1285,-156.921 123.007,-97.2176 170,-67 173.313,-64.8698 176.836,-62.9774 180.489,-61.2963"/>
<polygon fill="midnightblue" stroke="midnightblue" points="181.832,-64.5289 189.792,-57.5378 179.209,-58.0386 181.832,-64.5289"/>
</g>
<!-- Node19 -->
<g id="node19" class="node"><title>Node19</title>
<g id="a_node19"><a xlink:href="../../d8/d44/_strings_8cpp.html#aebf99e80337d8db0a005aebe8a13fb7f" target="_top" xlink:title=" ">
<polygon fill="white" stroke="black" points="221,-0.5 221,-19.5 286,-19.5 286,-0.5 221,-0.5"/>
<text text-anchor="middle" x="253.5" y="-7.5" font-family="Helvetica,sans-Serif" font-size="10.00">StringPrintf</text>
</a>
</g>
</g>
<!-- Node1&#45;&gt;Node19 -->
<g id="edge25" class="edge"><title>Node1&#45;&gt;Node19</title>
<path fill="none" stroke="midnightblue" d="M72.4857,-184.876C83.2978,-151.182 114.123,-69.7118 170,-29 181.758,-20.4335 196.756,-15.6509 210.731,-13.0069"/>
<polygon fill="midnightblue" stroke="midnightblue" points="211.335,-16.455 220.666,-11.4361 210.242,-9.54088 211.335,-16.455"/>
</g>
<!-- Node3 -->
<g id="node3" class="node"><title>Node3</title>
<g id="a_node3"><a xlink:href="../../d3/d39/class_g_u_i_font.html#abea1624c5890b044ef1368a7ca051b3e" target="_top" xlink:title=" ">
<polygon fill="white" stroke="black" points="381.5,-449.5 381.5,-468.5 480.5,-468.5 480.5,-449.5 381.5,-449.5"/>
<text text-anchor="middle" x="431" y="-456.5" font-family="Helvetica,sans-Serif" font-size="10.00">GUIFont::DrawText</text>
</a>
</g>
</g>
<!-- Node2&#45;&gt;Node3 -->
<g id="edge2" class="edge"><title>Node2&#45;&gt;Node3</title>
<path fill="none" stroke="midnightblue" d="M303.854,-434.561C324.866,-438.632 349.538,-443.412 371.463,-447.659"/>
<polygon fill="midnightblue" stroke="midnightblue" points="370.837,-451.103 381.32,-449.569 372.168,-444.231 370.837,-451.103"/>
</g>
<!-- Node4 -->
<g id="node4" class="node"><title>Node4</title>
<g id="a_node4"><a xlink:href="../../d3/d39/class_g_u_i_font.html#acff82a6ae67e879bd76ddc52aa25fe02" target="_top" xlink:title=" ">
<polygon fill="white" stroke="black" points="525,-411.5 525,-430.5 662,-430.5 662,-411.5 525,-411.5"/>
<text text-anchor="middle" x="593.5" y="-418.5" font-family="Helvetica,sans-Serif" font-size="10.00">GUIFont::FitTextInAWindow</text>
</a>
</g>
</g>
<!-- Node3&#45;&gt;Node4 -->
<g id="edge3" class="edge"><title>Node3&#45;&gt;Node4</title>
<path fill="none" stroke="midnightblue" d="M472.501,-449.411C493.681,-444.396 519.802,-438.212 542.26,-432.895"/>
<polygon fill="midnightblue" stroke="midnightblue" points="543.366,-436.23 552.29,-430.52 541.753,-429.418 543.366,-436.23"/>
</g>
<!-- Node6 -->
<g id="node6" class="node"><title>Node6</title>
<g id="a_node6"><a xlink:href="../../d3/d39/class_g_u_i_font.html#abf5dc44bc1b328f80d5c7033279a4f8d" target="_top" xlink:title=" ">
<polygon fill="white" stroke="black" points="534.5,-370.5 534.5,-389.5 652.5,-389.5 652.5,-370.5 534.5,-370.5"/>
<text text-anchor="middle" x="593.5" y="-377.5" font-family="Helvetica,sans-Serif" font-size="10.00">GUIFont::GetLineWidth</text>
</a>
</g>
</g>
<!-- Node3&#45;&gt;Node6 -->
<g id="edge5" class="edge"><title>Node3&#45;&gt;Node6</title>
<path fill="none" stroke="midnightblue" d="M445.304,-449.453C462.871,-437.18 495.083,-415.81 525,-402 532.399,-398.585 540.479,-395.466 548.394,-392.718"/>
<polygon fill="midnightblue" stroke="midnightblue" points="549.524,-396.031 557.91,-389.556 547.317,-389.388 549.524,-396.031"/>
</g>
<!-- Node5 -->
<g id="node5" class="node"><title>Node5</title>
<g id="a_node5"><a xlink:href="../../d3/d39/class_g_u_i_font.html#adfbdd225f4c0eedcbf7e82eecd29e404" target="_top" xlink:title=" ">
<polygon fill="white" stroke="black" points="698,-370.5 698,-389.5 806,-389.5 806,-370.5 698,-370.5"/>
<text text-anchor="middle" x="752" y="-377.5" font-family="Helvetica,sans-Serif" font-size="10.00">GUIFont::IsCharValid</text>
</a>
</g>
</g>
<!-- Node4&#45;&gt;Node5 -->
<g id="edge4" class="edge"><title>Node4&#45;&gt;Node5</title>
<path fill="none" stroke="midnightblue" d="M630.798,-411.491C652.841,-405.716 681.191,-398.289 704.822,-392.098"/>
<polygon fill="midnightblue" stroke="midnightblue" points="705.842,-395.449 714.628,-389.529 704.068,-388.677 705.842,-395.449"/>
</g>
<!-- Node6&#45;&gt;Node5 -->
<g id="edge6" class="edge"><title>Node6&#45;&gt;Node5</title>
<path fill="none" stroke="midnightblue" d="M652.775,-380C664.201,-380 676.237,-380 687.815,-380"/>
<polygon fill="midnightblue" stroke="midnightblue" points="687.846,-383.5 697.846,-380 687.846,-376.5 687.846,-383.5"/>
</g>
<!-- Node7&#45;&gt;Node4 -->
<g id="edge12" class="edge"><title>Node7&#45;&gt;Node4</title>
<path fill="none" stroke="midnightblue" d="M272.361,-361.635C295.042,-373.369 335.72,-392.766 373,-402 419.133,-413.427 472.194,-418.238 514.589,-420.162"/>
<polygon fill="midnightblue" stroke="midnightblue" points="514.714,-423.67 524.848,-420.582 515,-416.676 514.714,-423.67"/>
</g>
<!-- Node8 -->
<g id="node8" class="node"><title>Node8</title>
<g id="a_node8"><a xlink:href="../../d3/d39/class_g_u_i_font.html#a9fa3825419fdf34ded3536e27bccbfdf" target="_top" xlink:title=" ">
<polygon fill="white" stroke="black" points="381.5,-362 381.5,-392 480.5,-392 480.5,-362 381.5,-362"/>
<text text-anchor="start" x="389.5" y="-380" font-family="Helvetica,sans-Serif" font-size="10.00">GUIFont::AlignText</text>
<text text-anchor="middle" x="431" y="-369" font-family="Helvetica,sans-Serif" font-size="10.00">_Center</text>
</a>
</g>
</g>
<!-- Node7&#45;&gt;Node8 -->
<g id="edge8" class="edge"><title>Node7&#45;&gt;Node8</title>
<path fill="none" stroke="midnightblue" d="M319.85,-361.309C336.717,-363.712 354.768,-366.283 371.275,-368.635"/>
<polygon fill="midnightblue" stroke="midnightblue" points="370.935,-372.121 381.328,-370.067 371.922,-365.191 370.935,-372.121"/>
</g>
<!-- Node9 -->
<g id="node9" class="node"><title>Node9</title>
<g id="a_node9"><a xlink:href="../../d3/d39/class_g_u_i_font.html#af8449e36ee49ae96e21f4406b398a010" target="_top" xlink:title=" ">
<polygon fill="white" stroke="black" points="535,-329.5 535,-348.5 652,-348.5 652,-329.5 535,-329.5"/>
<text text-anchor="middle" x="593.5" y="-336.5" font-family="Helvetica,sans-Serif" font-size="10.00">GUIFont::DrawTextLine</text>
</a>
</g>
</g>
<!-- Node7&#45;&gt;Node9 -->
<g id="edge10" class="edge"><title>Node7&#45;&gt;Node9</title>
<path fill="none" stroke="midnightblue" d="M319.67,-349.493C378.606,-347.227 465.049,-343.902 524.766,-341.605"/>
<polygon fill="midnightblue" stroke="midnightblue" points="524.994,-345.099 534.852,-341.217 524.725,-338.104 524.994,-345.099"/>
</g>
<!-- Node7&#45;&gt;Node10 -->
<g id="edge13" class="edge"><title>Node7&#45;&gt;Node10</title>
<path fill="none" stroke="midnightblue" d="M289.156,-342.401C303.956,-338.177 321.384,-333.037 337,-328 356.218,-321.801 377.454,-314.314 394.776,-308.04"/>
<polygon fill="midnightblue" stroke="midnightblue" points="396.28,-311.218 404.478,-304.505 393.884,-304.641 396.28,-311.218"/>
</g>
<!-- Node8&#45;&gt;Node6 -->
<g id="edge9" class="edge"><title>Node8&#45;&gt;Node6</title>
<path fill="none" stroke="midnightblue" d="M480.591,-377.908C494.384,-378.166 509.664,-378.452 524.386,-378.727"/>
<polygon fill="midnightblue" stroke="midnightblue" points="524.4,-382.228 534.464,-378.915 524.531,-375.229 524.4,-382.228"/>
</g>
<!-- Node9&#45;&gt;Node5 -->
<g id="edge11" class="edge"><title>Node9&#45;&gt;Node5</title>
<path fill="none" stroke="midnightblue" d="M630.798,-348.509C652.841,-354.284 681.191,-361.711 704.822,-367.902"/>
<polygon fill="midnightblue" stroke="midnightblue" points="704.068,-371.323 714.628,-370.471 705.842,-364.551 704.068,-371.323"/>
</g>
<!-- Node11&#45;&gt;Node12 -->
<g id="edge15" class="edge"><title>Node11&#45;&gt;Node12</title>
<path fill="none" stroke="midnightblue" d="M298.786,-209.589C322.258,-214.671 351.281,-220.955 376.058,-226.32"/>
<polygon fill="midnightblue" stroke="midnightblue" points="375.518,-229.784 386.032,-228.48 377,-222.943 375.518,-229.784"/>
</g>
<!-- Node14&#45;&gt;Node12 -->
<g id="edge18" class="edge"><title>Node14&#45;&gt;Node12</title>
<path fill="none" stroke="midnightblue" d="M287.51,-268.852C312.38,-263.468 347.017,-255.968 375.914,-249.711"/>
<polygon fill="midnightblue" stroke="midnightblue" points="376.837,-253.092 385.87,-247.555 375.355,-246.251 376.837,-253.092"/>
</g>
<!-- Node16 -->
<g id="node16" class="node"><title>Node16</title>
<g id="a_node16"><a xlink:href="../../d8/d44/_strings_8cpp.html#ae591bae1416df2b3638ae859ad4ede6f" target="_top" xlink:title=" ">
<polygon fill="white" stroke="black" points="398,-114.5 398,-133.5 464,-133.5 464,-114.5 398,-114.5"/>
<text text-anchor="middle" x="431" y="-121.5" font-family="Helvetica,sans-Serif" font-size="10.00">MakeLower</text>
</a>
</g>
</g>
<!-- Node15&#45;&gt;Node16 -->
<g id="edge21" class="edge"><title>Node15&#45;&gt;Node16</title>
<path fill="none" stroke="midnightblue" d="M310.512,-124C335.565,-124 364.608,-124 387.787,-124"/>
<polygon fill="midnightblue" stroke="midnightblue" points="387.989,-127.5 397.989,-124 387.989,-120.5 387.989,-127.5"/>
</g>
</g>
</svg>
