<?xml version="1.0" encoding="UTF-8" standalone="no"?>
<!DOCTYPE svg PUBLIC "-//W3C//DTD SVG 1.1//EN"
 "http://www.w3.org/Graphics/SVG/1.1/DTD/svg11.dtd">
<!-- Generated by graphviz version 2.38.0 (20140413.2041)
 -->
<!-- Title: AudioBaseDataSource Pages: 1 -->
<svg width="1633pt" height="947pt"
 viewBox="0.00 0.00 1633.00 946.80" xmlns="http://www.w3.org/2000/svg" xmlns:xlink="http://www.w3.org/1999/xlink">
<g id="graph0" class="graph" transform="scale(1 1) rotate(0) translate(4 942.8)">
<title>AudioBaseDataSource</title>
<polygon fill="white" stroke="none" points="-4,4 -4,-942.8 1629,-942.8 1629,4 -4,4"/>
<!-- Node1 -->
<g id="node1" class="node"><title>Node1</title>
<g id="a_node1"><a xlink:title=" ">
<polygon fill="#bfbfbf" stroke="black" points="1510,-408.3 1510,-427.3 1625,-427.3 1625,-408.3 1510,-408.3"/>
<text text-anchor="middle" x="1567.5" y="-415.3" font-family="Helvetica,sans-Serif" font-size="10.00">AudioBaseDataSource</text>
</a>
</g>
</g>
<!-- Node2 -->
<g id="node2" class="node"><title>Node2</title>
<g id="a_node2"><a xlink:href="../../d0/df5/class_i_audio_data_source.html" target="_top" xlink:title=" ">
<polygon fill="white" stroke="black" points="1306,-446.3 1306,-465.3 1401,-465.3 1401,-446.3 1306,-446.3"/>
<text text-anchor="middle" x="1353.5" y="-453.3" font-family="Helvetica,sans-Serif" font-size="10.00">IAudioDataSource</text>
</a>
</g>
</g>
<!-- Node2&#45;&gt;Node1 -->
<g id="edge1" class="edge"><title>Node2&#45;&gt;Node1</title>
<path fill="none" stroke="midnightblue" d="M1411.27,-446.061C1436.07,-441.763 1465.49,-436.604 1492,-431.8 1499.9,-430.369 1508.26,-428.824 1516.42,-427.303"/>
<polygon fill="midnightblue" stroke="midnightblue" points="1410.56,-442.632 1401.3,-447.786 1411.75,-449.53 1410.56,-442.632"/>
</g>
<!-- Node3 -->
<g id="node3" class="node"><title>Node3</title>
<g id="a_node3"><a xlink:href="../../de/d85/struct_a_v_format_context.html" target="_top" xlink:title=" ">
<polygon fill="white" stroke="black" points="1306,-175.3 1306,-194.3 1401,-194.3 1401,-175.3 1306,-175.3"/>
<text text-anchor="middle" x="1353.5" y="-182.3" font-family="Helvetica,sans-Serif" font-size="10.00">AVFormatContext</text>
</a>
</g>
</g>
<!-- Node3&#45;&gt;Node1 -->
<g id="edge2" class="edge"><title>Node3&#45;&gt;Node1</title>
<path fill="none" stroke="#9a32cd" stroke-dasharray="5,2" d="M1370.3,-202.164C1412.19,-248.201 1525.1,-372.3 1557.62,-408.044"/>
<polygon fill="#9a32cd" stroke="#9a32cd" points="1372.66,-199.556 1363.34,-194.515 1367.48,-204.267 1372.66,-199.556"/>
<text text-anchor="middle" x="1455.5" y="-337.8" font-family="Helvetica,sans-Serif" font-size="10.00"> pFormatContext</text>
</g>
<!-- Node3&#45;&gt;Node3 -->
<g id="edge19" class="edge"><title>Node3&#45;&gt;Node3</title>
<path fill="none" stroke="#9a32cd" stroke-dasharray="5,2" d="M1334.61,-204.2C1335.87,-209.115 1342.17,-212.8 1353.5,-212.8 1371.63,-212.8 1376.87,-203.365 1369.22,-194.557"/>
<polygon fill="#9a32cd" stroke="#9a32cd" points="1337.98,-205.15 1337.78,-194.557 1331.33,-202.966 1337.98,-205.15"/>
<text text-anchor="middle" x="1353.5" y="-215.8" font-family="Helvetica,sans-Serif" font-size="10.00"> control_message_cb</text>
</g>
<!-- Node4 -->
<g id="node4" class="node"><title>Node4</title>
<g id="a_node4"><a xlink:href="../../d9/d35/struct_a_v_output_format.html" target="_top" xlink:title=" ">
<polygon fill="white" stroke="black" points="742,-103.3 742,-122.3 832,-122.3 832,-103.3 742,-103.3"/>
<text text-anchor="middle" x="787" y="-110.3" font-family="Helvetica,sans-Serif" font-size="10.00">AVOutputFormat</text>
</a>
</g>
</g>
<!-- Node4&#45;&gt;Node3 -->
<g id="edge3" class="edge"><title>Node4&#45;&gt;Node3</title>
<path fill="none" stroke="#9a32cd" stroke-dasharray="5,2" d="M842.223,-109.995C935.377,-106.714 1130.94,-106.594 1288,-151.8 1306.13,-157.019 1325.16,-167.451 1337.81,-175.196"/>
<polygon fill="#9a32cd" stroke="#9a32cd" points="842.046,-106.499 832.186,-110.375 842.311,-113.494 842.046,-106.499"/>
<text text-anchor="middle" x="1035.5" y="-117.8" font-family="Helvetica,sans-Serif" font-size="10.00"> oformat</text>
</g>
<!-- Node4&#45;&gt;Node4 -->
<g id="edge4" class="edge"><title>Node4&#45;&gt;Node4</title>
<path fill="none" stroke="#9a32cd" stroke-dasharray="5,2" d="M765.89,-132.2C767.3,-137.115 774.336,-140.8 787,-140.8 807.262,-140.8 813.119,-131.365 804.571,-122.557"/>
<polygon fill="#9a32cd" stroke="#9a32cd" points="769.269,-133.151 769.429,-122.557 762.698,-130.739 769.269,-133.151"/>
<text text-anchor="middle" x="787" y="-143.8" font-family="Helvetica,sans-Serif" font-size="10.00"> next</text>
</g>
<!-- Node5 -->
<g id="node5" class="node"><title>Node5</title>
<g id="a_node5"><a xlink:href="../../d2/de1/struct_a_v_class.html" target="_top" xlink:title=" ">
<polygon fill="white" stroke="black" points="400,-221.3 400,-240.3 455,-240.3 455,-221.3 400,-221.3"/>
<text text-anchor="middle" x="427.5" y="-228.3" font-family="Helvetica,sans-Serif" font-size="10.00">AVClass</text>
</a>
</g>
</g>
<!-- Node5&#45;&gt;Node3 -->
<g id="edge9" class="edge"><title>Node5&#45;&gt;Node3</title>
<path fill="none" stroke="#9a32cd" stroke-dasharray="5,2" d="M433.895,-211.367C442.349,-184.961 461.438,-138.548 496,-116.8 543.578,-86.8625 565.933,-109.845 622,-105.8 776.373,-94.6632 815.401,-85.4383 970,-92.8002 1068.11,-97.4721 1092.53,-101.698 1190,-113.8 1233.73,-119.229 1248.01,-110.294 1288,-128.8 1311.69,-139.762 1333.29,-162.12 1344.48,-175.023"/>
<polygon fill="#9a32cd" stroke="#9a32cd" points="430.519,-210.442 430.994,-221.026 437.223,-212.456 430.519,-210.442"/>
<text text-anchor="middle" x="910" y="-95.8002" font-family="Helvetica,sans-Serif" font-size="10.00"> av_class</text>
</g>
<!-- Node5&#45;&gt;Node4 -->
<g id="edge5" class="edge"><title>Node5&#45;&gt;Node4</title>
<path fill="none" stroke="#9a32cd" stroke-dasharray="5,2" d="M439.81,-212.47C451.579,-195.105 471.674,-169.805 496,-156.8 575.04,-114.546 682.47,-109.594 741.895,-110.626"/>
<polygon fill="#9a32cd" stroke="#9a32cd" points="436.669,-210.881 434.155,-221.173 442.539,-214.695 436.669,-210.881"/>
<text text-anchor="middle" x="550" y="-159.8" font-family="Helvetica,sans-Serif" font-size="10.00"> priv_class</text>
</g>
<!-- Node5&#45;&gt;Node5 -->
<g id="edge6" class="edge"><title>Node5&#45;&gt;Node5</title>
<path fill="none" stroke="#9a32cd" stroke-dasharray="5,2" d="M406.02,-250.2C407.454,-255.115 414.614,-258.8 427.5,-258.8 448.117,-258.8 454.077,-249.365 445.379,-240.557"/>
<polygon fill="#9a32cd" stroke="#9a32cd" points="409.401,-251.15 409.621,-240.557 402.843,-248.701 409.401,-251.15"/>
<text text-anchor="middle" x="427.5" y="-261.8" font-family="Helvetica,sans-Serif" font-size="10.00"> child_class_next</text>
</g>
<!-- Node9 -->
<g id="node9" class="node"><title>Node9</title>
<g id="a_node9"><a xlink:href="../../d7/dcc/struct_a_v_i_o_context.html" target="_top" xlink:title=" ">
<polygon fill="white" stroke="black" points="998.5,-274.3 998.5,-293.3 1072.5,-293.3 1072.5,-274.3 998.5,-274.3"/>
<text text-anchor="middle" x="1035.5" y="-281.3" font-family="Helvetica,sans-Serif" font-size="10.00">AVIOContext</text>
</a>
</g>
</g>
<!-- Node5&#45;&gt;Node9 -->
<g id="edge12" class="edge"><title>Node5&#45;&gt;Node9</title>
<path fill="none" stroke="#9a32cd" stroke-dasharray="5,2" d="M465.074,-237.871C475.075,-239.649 485.933,-241.437 496,-242.8 684.147,-268.276 911.582,-279.102 998.426,-282.515"/>
<polygon fill="#9a32cd" stroke="#9a32cd" points="465.495,-234.39 455.03,-236.04 464.24,-241.277 465.495,-234.39"/>
<text text-anchor="middle" x="673" y="-268.8" font-family="Helvetica,sans-Serif" font-size="10.00"> av_class</text>
</g>
<!-- Node10 -->
<g id="node10" class="node"><title>Node10</title>
<g id="a_node10"><a xlink:href="../../d8/dcc/struct_a_v_input_format.html" target="_top" xlink:title=" ">
<polygon fill="white" stroke="black" points="746,-216.3 746,-235.3 828,-235.3 828,-216.3 746,-216.3"/>
<text text-anchor="middle" x="787" y="-223.3" font-family="Helvetica,sans-Serif" font-size="10.00">AVInputFormat</text>
</a>
</g>
</g>
<!-- Node5&#45;&gt;Node10 -->
<g id="edge14" class="edge"><title>Node5&#45;&gt;Node10</title>
<path fill="none" stroke="#9a32cd" stroke-dasharray="5,2" d="M465.241,-230.286C532.757,-229.342 676.031,-227.338 745.945,-226.36"/>
<polygon fill="#9a32cd" stroke="#9a32cd" points="465.029,-226.789 455.079,-230.428 465.127,-233.788 465.029,-226.789"/>
<text text-anchor="middle" x="550" y="-232.8" font-family="Helvetica,sans-Serif" font-size="10.00"> priv_class</text>
</g>
<!-- Node23 -->
<g id="node23" class="node"><title>Node23</title>
<g id="a_node23"><a xlink:href="../../de/d1f/struct_a_v_codec_context.html" target="_top" xlink:title=" ">
<polygon fill="white" stroke="black" points="864,-431.3 864,-450.3 956,-450.3 956,-431.3 864,-431.3"/>
<text text-anchor="middle" x="910" y="-438.3" font-family="Helvetica,sans-Serif" font-size="10.00">AVCodecContext</text>
</a>
</g>
</g>
<!-- Node5&#45;&gt;Node23 -->
<g id="edge38" class="edge"><title>Node5&#45;&gt;Node23</title>
<path fill="none" stroke="#9a32cd" stroke-dasharray="5,2" d="M445.705,-247.573C455.369,-257.143 467.55,-269.459 478,-280.8 486.33,-289.841 485.23,-295.875 496,-301.8 585.71,-351.153 624.274,-311.601 724,-334.8 773.145,-346.233 788.443,-344.33 832,-369.8 860.882,-386.689 888.025,-415.979 901.008,-431.119"/>
<polygon fill="#9a32cd" stroke="#9a32cd" points="448.158,-245.076 438.575,-240.557 443.248,-250.066 448.158,-245.076"/>
<text text-anchor="middle" x="673" y="-337.8" font-family="Helvetica,sans-Serif" font-size="10.00"> av_class</text>
</g>
<!-- Node30 -->
<g id="node30" class="node"><title>Node30</title>
<g id="a_node30"><a xlink:href="../../df/d2a/struct_a_v_codec.html" target="_top" xlink:title=" ">
<polygon fill="white" stroke="black" points="644,-154.3 644,-173.3 702,-173.3 702,-154.3 644,-154.3"/>
<text text-anchor="middle" x="673" y="-161.3" font-family="Helvetica,sans-Serif" font-size="10.00">AVCodec</text>
</a>
</g>
</g>
<!-- Node5&#45;&gt;Node30 -->
<g id="edge52" class="edge"><title>Node5&#45;&gt;Node30</title>
<path fill="none" stroke="#9a32cd" stroke-dasharray="5,2" d="M453.744,-216.484C466.146,-209.968 481.509,-202.647 496,-197.8 546.763,-180.821 608.762,-171.31 643.984,-166.896"/>
<polygon fill="#9a32cd" stroke="#9a32cd" points="452.039,-213.426 444.9,-221.255 455.363,-219.587 452.039,-213.426"/>
<text text-anchor="middle" x="550" y="-200.8" font-family="Helvetica,sans-Serif" font-size="10.00"> priv_class</text>
</g>
<!-- Node6 -->
<g id="node6" class="node"><title>Node6</title>
<g id="a_node6"><a xlink:href="../../d3/ded/struct_a_v_option.html" target="_top" xlink:title=" ">
<polygon fill="white" stroke="black" points="167.5,-274.3 167.5,-293.3 226.5,-293.3 226.5,-274.3 167.5,-274.3"/>
<text text-anchor="middle" x="197" y="-281.3" font-family="Helvetica,sans-Serif" font-size="10.00">AVOption</text>
</a>
</g>
</g>
<!-- Node6&#45;&gt;Node5 -->
<g id="edge7" class="edge"><title>Node6&#45;&gt;Node5</title>
<path fill="none" stroke="#9a32cd" stroke-dasharray="5,2" d="M236.934,-274.77C283.374,-263.998 359.755,-246.282 399.918,-236.966"/>
<polygon fill="#9a32cd" stroke="#9a32cd" points="235.89,-271.419 226.94,-277.088 237.472,-278.238 235.89,-271.419"/>
<text text-anchor="middle" x="310.5" y="-270.8" font-family="Helvetica,sans-Serif" font-size="10.00"> option</text>
</g>
<!-- Node7 -->
<g id="node7" class="node"><title>Node7</title>
<g id="a_node7"><a xlink:href="../../d7/d28/struct_a_v_rational.html" target="_top" xlink:title=" ">
<polygon fill="white" stroke="black" points="0,-329.3 0,-348.3 65,-348.3 65,-329.3 0,-329.3"/>
<text text-anchor="middle" x="32.5" y="-336.3" font-family="Helvetica,sans-Serif" font-size="10.00">AVRational</text>
</a>
</g>
</g>
<!-- Node7&#45;&gt;Node6 -->
<g id="edge8" class="edge"><title>Node7&#45;&gt;Node6</title>
<path fill="none" stroke="#9a32cd" stroke-dasharray="5,2" d="M59.4517,-324.419C66.9116,-320.637 75.1547,-316.785 83,-313.8 110.887,-303.189 144.007,-294.872 167.155,-289.714"/>
<polygon fill="#9a32cd" stroke="#9a32cd" points="57.7456,-321.361 50.5103,-329.101 60.9928,-327.562 57.7456,-321.361"/>
<text text-anchor="middle" x="107.5" y="-316.8" font-family="Helvetica,sans-Serif" font-size="10.00"> q</text>
</g>
<!-- Node11 -->
<g id="node11" class="node"><title>Node11</title>
<g id="a_node11"><a xlink:href="../../d0/d87/struct_a_v_chapter.html" target="_top" xlink:title=" ">
<polygon fill="white" stroke="black" points="278.5,-7.30019 278.5,-26.3002 342.5,-26.3002 342.5,-7.30019 278.5,-7.30019"/>
<text text-anchor="middle" x="310.5" y="-14.3002" font-family="Helvetica,sans-Serif" font-size="10.00">AVChapter</text>
</a>
</g>
</g>
<!-- Node7&#45;&gt;Node11 -->
<g id="edge17" class="edge"><title>Node7&#45;&gt;Node11</title>
<path fill="none" stroke="#9a32cd" stroke-dasharray="5,2" d="M33.7392,-318.846C34.9149,-257.92 41.8692,-76.1273 83,-37.8002 136.161,11.7375 229.914,0.913391 278.444,-9.09368"/>
<polygon fill="#9a32cd" stroke="#9a32cd" points="30.2365,-318.994 33.5763,-329.049 37.2356,-319.106 30.2365,-318.994"/>
<text text-anchor="middle" x="107.5" y="-40.8002" font-family="Helvetica,sans-Serif" font-size="10.00"> time_base</text>
</g>
<!-- Node13 -->
<g id="node13" class="node"><title>Node13</title>
<g id="a_node13"><a xlink:href="../../d4/d6c/struct_a_v_stream.html" target="_top" xlink:title=" ">
<polygon fill="white" stroke="black" points="1114.5,-688.3 1114.5,-707.3 1176.5,-707.3 1176.5,-688.3 1114.5,-688.3"/>
<text text-anchor="middle" x="1145.5" y="-695.3" font-family="Helvetica,sans-Serif" font-size="10.00">AVStream</text>
</a>
</g>
</g>
<!-- Node7&#45;&gt;Node13 -->
<g id="edge24" class="edge"><title>Node7&#45;&gt;Node13</title>
<path fill="none" stroke="#9a32cd" stroke-dasharray="5,2" d="M34.4099,-358.909C36.9506,-395.182 46.5749,-472.638 83,-524.8 103.825,-554.623 116.37,-557.94 150,-571.8 244.644,-610.808 275.003,-602.102 377,-610.8 421.727,-614.614 433.264,-614.503 478,-610.8 486.083,-610.131 487.917,-608.469 496,-607.8 633.805,-596.395 931.632,-623.293 970,-629.8 1021.46,-638.528 1034.98,-641.34 1083,-661.8 1100.07,-669.074 1118.25,-680.184 1130.38,-688.137"/>
<polygon fill="#9a32cd" stroke="#9a32cd" points="37.8885,-358.441 33.8089,-348.663 30.9005,-358.851 37.8885,-358.441"/>
<text text-anchor="middle" x="550" y="-654.8" font-family="Helvetica,sans-Serif" font-size="10.00"> r_frame_rate</text>
<text text-anchor="middle" x="550" y="-643.8" font-family="Helvetica,sans-Serif" font-size="10.00">sample_aspect_ratio</text>
<text text-anchor="middle" x="550" y="-632.8" font-family="Helvetica,sans-Serif" font-size="10.00">avg_frame_rate</text>
<text text-anchor="middle" x="550" y="-621.8" font-family="Helvetica,sans-Serif" font-size="10.00">display_aspect_ratio</text>
<text text-anchor="middle" x="550" y="-610.8" font-family="Helvetica,sans-Serif" font-size="10.00">time_base</text>
</g>
<!-- Node21 -->
<g id="node21" class="node"><title>Node21</title>
<g id="a_node21"><a xlink:href="../../dc/d7f/struct_a_v_codec_parameters.html" target="_top" xlink:title=" ">
<polygon fill="white" stroke="black" points="496,-858.3 496,-877.3 604,-877.3 604,-858.3 496,-858.3"/>
<text text-anchor="middle" x="550" y="-865.3" font-family="Helvetica,sans-Serif" font-size="10.00">AVCodecParameters</text>
</a>
</g>
</g>
<!-- Node7&#45;&gt;Node21 -->
<g id="edge34" class="edge"><title>Node7&#45;&gt;Node21</title>
<path fill="none" stroke="#9a32cd" stroke-dasharray="5,2" d="M34.294,-358.76C37.0825,-419.79 48.2205,-602.563 83,-648.8 186.306,-786.139 397.259,-840.71 495.918,-859.372"/>
<polygon fill="#9a32cd" stroke="#9a32cd" points="37.7813,-358.387 33.8548,-348.546 30.7877,-358.687 37.7813,-358.387"/>
<text text-anchor="middle" x="197" y="-776.8" font-family="Helvetica,sans-Serif" font-size="10.00"> sample_aspect_ratio</text>
</g>
<!-- Node7&#45;&gt;Node23 -->
<g id="edge37" class="edge"><title>Node7&#45;&gt;Node23</title>
<path fill="none" stroke="#9a32cd" stroke-dasharray="5,2" d="M37.6624,-358.238C50.5798,-412.695 95.3172,-562.8 196,-562.8 196,-562.8 196,-562.8 674,-562.8 771.454,-562.8 868.661,-479.134 899.197,-450.373"/>
<polygon fill="#9a32cd" stroke="#9a32cd" points="41.0621,-357.404 35.4378,-348.425 34.2354,-358.952 41.0621,-357.404"/>
<text text-anchor="middle" x="427.5" y="-598.8" font-family="Helvetica,sans-Serif" font-size="10.00"> sample_aspect_ratio</text>
<text text-anchor="middle" x="427.5" y="-587.8" font-family="Helvetica,sans-Serif" font-size="10.00">pkt_timebase</text>
<text text-anchor="middle" x="427.5" y="-576.8" font-family="Helvetica,sans-Serif" font-size="10.00">framerate</text>
<text text-anchor="middle" x="427.5" y="-565.8" font-family="Helvetica,sans-Serif" font-size="10.00">time_base</text>
</g>
<!-- Node25 -->
<g id="node25" class="node"><title>Node25</title>
<g id="a_node25"><a xlink:href="../../d6/d03/struct_a_v_frame.html" target="_top" xlink:title=" ">
<polygon fill="white" stroke="black" points="644,-355.3 644,-374.3 702,-374.3 702,-355.3 644,-355.3"/>
<text text-anchor="middle" x="673" y="-362.3" font-family="Helvetica,sans-Serif" font-size="10.00">AVFrame</text>
</a>
</g>
</g>
<!-- Node7&#45;&gt;Node25 -->
<g id="edge43" class="edge"><title>Node7&#45;&gt;Node25</title>
<path fill="none" stroke="#9a32cd" stroke-dasharray="5,2" d="M75.3978,-338.287C169.899,-337.499 406.779,-337.594 604,-354.8 617.195,-355.951 631.732,-357.984 643.966,-359.918"/>
<polygon fill="#9a32cd" stroke="#9a32cd" points="75.0841,-334.79 65.1166,-338.381 75.1483,-341.79 75.0841,-334.79"/>
<text text-anchor="middle" x="310.5" y="-343.8" font-family="Helvetica,sans-Serif" font-size="10.00"> sample_aspect_ratio</text>
</g>
<!-- Node7&#45;&gt;Node30 -->
<g id="edge53" class="edge"><title>Node7&#45;&gt;Node30</title>
<path fill="none" stroke="#9a32cd" stroke-dasharray="5,2" d="M49.4725,-321.759C58.6573,-312.638 70.7734,-301.692 83,-293.8 110.262,-276.204 120.195,-277.625 150,-264.8 303.636,-198.692 332.149,-150.372 496,-116.8 543.023,-107.165 558.178,-102.506 604,-116.8 627.29,-124.066 649.634,-142.408 662.019,-153.911"/>
<polygon fill="#9a32cd" stroke="#9a32cd" points="46.7076,-319.581 42.2265,-329.181 51.7165,-324.47 46.7076,-319.581"/>
<text text-anchor="middle" x="310.5" y="-210.8" font-family="Helvetica,sans-Serif" font-size="10.00"> supported_framerates</text>
</g>
<!-- Node8 -->
<g id="node8" class="node"><title>Node8</title>
<g id="a_node8"><a xlink:href="../../da/dc9/struct_a_v_i_o_interrupt_c_b.html" target="_top" xlink:title=" ">
<polygon fill="white" stroke="black" points="1101,-194.3 1101,-213.3 1190,-213.3 1190,-194.3 1101,-194.3"/>
<text text-anchor="middle" x="1145.5" y="-201.3" font-family="Helvetica,sans-Serif" font-size="10.00">AVIOInterruptCB</text>
</a>
</g>
</g>
<!-- Node8&#45;&gt;Node3 -->
<g id="edge10" class="edge"><title>Node8&#45;&gt;Node3</title>
<path fill="none" stroke="#9a32cd" stroke-dasharray="5,2" d="M1200.47,-198.823C1233.13,-195.81 1274.37,-192.007 1305.65,-189.121"/>
<polygon fill="#9a32cd" stroke="#9a32cd" points="1199.82,-195.367 1190.19,-199.771 1200.47,-202.337 1199.82,-195.367"/>
<text text-anchor="middle" x="1248" y="-199.8" font-family="Helvetica,sans-Serif" font-size="10.00"> interrupt_callback</text>
</g>
<!-- Node9&#45;&gt;Node3 -->
<g id="edge11" class="edge"><title>Node9&#45;&gt;Node3</title>
<path fill="none" stroke="#9a32cd" stroke-dasharray="5,2" d="M1082.98,-288.105C1135.67,-290.912 1222.71,-289.14 1288,-255.8 1315.74,-241.638 1337.37,-210.281 1347.01,-194.407"/>
<polygon fill="#9a32cd" stroke="#9a32cd" points="1083.11,-284.606 1072.92,-287.49 1082.69,-291.593 1083.11,-284.606"/>
<text text-anchor="middle" x="1145.5" y="-291.8" font-family="Helvetica,sans-Serif" font-size="10.00"> pb</text>
</g>
<!-- Node10&#45;&gt;Node3 -->
<g id="edge13" class="edge"><title>Node10&#45;&gt;Node3</title>
<path fill="none" stroke="#9a32cd" stroke-dasharray="5,2" d="M838.539,-227.111C914.783,-228.706 1063.74,-230.337 1190,-222.8 1233.75,-220.189 1245.58,-222.818 1288,-211.8 1303.98,-207.65 1321.18,-200.289 1333.8,-194.3"/>
<polygon fill="#9a32cd" stroke="#9a32cd" points="838.347,-223.606 828.273,-226.887 838.194,-230.604 838.347,-223.606"/>
<text text-anchor="middle" x="1035.5" y="-230.8" font-family="Helvetica,sans-Serif" font-size="10.00"> iformat</text>
</g>
<!-- Node10&#45;&gt;Node10 -->
<g id="edge15" class="edge"><title>Node10&#45;&gt;Node10</title>
<path fill="none" stroke="#9a32cd" stroke-dasharray="5,2" d="M765.89,-245.2C767.3,-250.115 774.336,-253.8 787,-253.8 807.262,-253.8 813.119,-244.365 804.571,-235.557"/>
<polygon fill="#9a32cd" stroke="#9a32cd" points="769.269,-246.151 769.429,-235.557 762.698,-243.739 769.269,-246.151"/>
<text text-anchor="middle" x="787" y="-256.8" font-family="Helvetica,sans-Serif" font-size="10.00"> next</text>
</g>
<!-- Node11&#45;&gt;Node3 -->
<g id="edge16" class="edge"><title>Node11&#45;&gt;Node3</title>
<path fill="none" stroke="#9a32cd" stroke-dasharray="5,2" d="M352.79,-15.9626C400.165,-15.075 480.186,-13.8002 549,-13.8002 549,-13.8002 549,-13.8002 1146.5,-13.8002 1210.52,-13.8002 1237.78,-1.08709 1288,-40.8002 1332.69,-76.1431 1347.34,-149.116 1351.26,-175.239"/>
<polygon fill="#9a32cd" stroke="#9a32cd" points="352.552,-12.4664 342.621,-16.1566 352.686,-19.4651 352.552,-12.4664"/>
<text text-anchor="middle" x="787" y="-16.8002" font-family="Helvetica,sans-Serif" font-size="10.00"> chapters</text>
</g>
<!-- Node12 -->
<g id="node12" class="node"><title>Node12</title>
<g id="a_node12"><a xlink:href="../../d0/d56/struct_a_v_program.html" target="_top" xlink:title=" ">
<polygon fill="white" stroke="black" points="1112,-42.3002 1112,-61.3002 1179,-61.3002 1179,-42.3002 1112,-42.3002"/>
<text text-anchor="middle" x="1145.5" y="-49.3002" font-family="Helvetica,sans-Serif" font-size="10.00">AVProgram</text>
</a>
</g>
</g>
<!-- Node12&#45;&gt;Node3 -->
<g id="edge18" class="edge"><title>Node12&#45;&gt;Node3</title>
<path fill="none" stroke="#9a32cd" stroke-dasharray="5,2" d="M1189.31,-45.6675C1219.33,-43.6259 1259.11,-45.68 1288,-64.8002 1328.24,-91.4282 1345.3,-151.819 1350.58,-175.254"/>
<polygon fill="#9a32cd" stroke="#9a32cd" points="1188.79,-42.1987 1179.13,-46.5392 1189.39,-49.1732 1188.79,-42.1987"/>
<text text-anchor="middle" x="1248" y="-67.8002" font-family="Helvetica,sans-Serif" font-size="10.00"> programs</text>
</g>
<!-- Node13&#45;&gt;Node3 -->
<g id="edge20" class="edge"><title>Node13&#45;&gt;Node3</title>
<path fill="none" stroke="#9a32cd" stroke-dasharray="5,2" d="M1146.59,-678.166C1147.58,-626.89 1155.29,-485.927 1208,-384.8 1231.68,-339.367 1257.59,-343.035 1288,-301.8 1315.26,-264.838 1338.94,-215.062 1348.27,-194.404"/>
<polygon fill="#9a32cd" stroke="#9a32cd" points="1143.09,-678.161 1146.46,-688.205 1150.09,-678.25 1143.09,-678.161"/>
<text text-anchor="middle" x="1248" y="-387.8" font-family="Helvetica,sans-Serif" font-size="10.00"> streams</text>
</g>
<!-- Node14 -->
<g id="node14" class="node"><title>Node14</title>
<g id="a_node14"><a xlink:href="../../d4/d31/struct_a_v_packet.html" target="_top" xlink:title=" ">
<polygon fill="white" stroke="black" points="642.5,-661.3 642.5,-680.3 703.5,-680.3 703.5,-661.3 642.5,-661.3"/>
<text text-anchor="middle" x="673" y="-668.3" font-family="Helvetica,sans-Serif" font-size="10.00">AVPacket</text>
</a>
</g>
</g>
<!-- Node14&#45;&gt;Node13 -->
<g id="edge21" class="edge"><title>Node14&#45;&gt;Node13</title>
<path fill="none" stroke="#9a32cd" stroke-dasharray="5,2" d="M713.736,-678.204C749.296,-684.463 802.925,-692.999 850,-696.8 953.223,-705.136 979.444,-699.642 1083,-698.8 1093.25,-698.717 1104.46,-698.555 1114.47,-698.386"/>
<polygon fill="#9a32cd" stroke="#9a32cd" points="714.217,-674.735 703.758,-676.424 712.988,-681.626 714.217,-674.735"/>
<text text-anchor="middle" x="910" y="-703.8" font-family="Helvetica,sans-Serif" font-size="10.00"> attached_pic</text>
</g>
<!-- Node18 -->
<g id="node18" class="node"><title>Node18</title>
<g id="a_node18"><a xlink:href="../../de/d7b/struct_a_v_packet_list.html" target="_top" xlink:title=" ">
<polygon fill="white" stroke="black" points="871.5,-639.3 871.5,-658.3 948.5,-658.3 948.5,-639.3 871.5,-639.3"/>
<text text-anchor="middle" x="910" y="-646.3" font-family="Helvetica,sans-Serif" font-size="10.00">AVPacketList</text>
</a>
</g>
</g>
<!-- Node14&#45;&gt;Node18 -->
<g id="edge27" class="edge"><title>Node14&#45;&gt;Node18</title>
<path fill="none" stroke="#9a32cd" stroke-dasharray="5,2" d="M713.814,-667.073C757.831,-662.952 828.204,-656.364 871.339,-652.326"/>
<polygon fill="#9a32cd" stroke="#9a32cd" points="713.393,-663.597 703.763,-668.014 714.046,-670.566 713.393,-663.597"/>
<text text-anchor="middle" x="787" y="-666.8" font-family="Helvetica,sans-Serif" font-size="10.00"> pkt</text>
</g>
<!-- Node15 -->
<g id="node15" class="node"><title>Node15</title>
<g id="a_node15"><a xlink:href="../../d0/dc0/struct_a_v_buffer_ref.html" target="_top" xlink:title=" ">
<polygon fill="white" stroke="black" points="162.5,-491.3 162.5,-510.3 231.5,-510.3 231.5,-491.3 162.5,-491.3"/>
<text text-anchor="middle" x="197" y="-498.3" font-family="Helvetica,sans-Serif" font-size="10.00">AVBufferRef</text>
</a>
</g>
</g>
<!-- Node15&#45;&gt;Node14 -->
<g id="edge22" class="edge"><title>Node15&#45;&gt;Node14</title>
<path fill="none" stroke="#9a32cd" stroke-dasharray="5,2" d="M217.281,-516.693C262.456,-552.705 380.11,-639.508 496,-666.8 546.277,-678.64 606.874,-676.591 642.255,-673.831"/>
<polygon fill="#9a32cd" stroke="#9a32cd" points="219.451,-513.946 209.47,-510.393 215.057,-519.395 219.451,-513.946"/>
<text text-anchor="middle" x="427.5" y="-663.8" font-family="Helvetica,sans-Serif" font-size="10.00"> buf</text>
</g>
<!-- Node15&#45;&gt;Node23 -->
<g id="edge45" class="edge"><title>Node15&#45;&gt;Node23</title>
<path fill="none" stroke="#9a32cd" stroke-dasharray="5,2" d="M241.73,-502.485C332.002,-505.537 545.475,-510.551 724,-497.8 772.279,-494.352 786.042,-498.985 832,-483.8 855.843,-475.923 880.738,-460.491 895.552,-450.417"/>
<polygon fill="#9a32cd" stroke="#9a32cd" points="241.712,-498.982 231.597,-502.133 241.469,-505.978 241.712,-498.982"/>
<text text-anchor="middle" x="550" y="-519.8" font-family="Helvetica,sans-Serif" font-size="10.00"> hw_frames_ctx</text>
<text text-anchor="middle" x="550" y="-508.8" font-family="Helvetica,sans-Serif" font-size="10.00">hw_device_ctx</text>
</g>
<!-- Node15&#45;&gt;Node25 -->
<g id="edge44" class="edge"><title>Node15&#45;&gt;Node25</title>
<path fill="none" stroke="#9a32cd" stroke-dasharray="5,2" d="M217.026,-484.905C248.139,-460.012 312.885,-412.724 377,-393.8 473.822,-365.223 504.459,-402.619 604,-385.8 618.498,-383.351 634.211,-378.641 646.876,-374.301"/>
<polygon fill="#9a32cd" stroke="#9a32cd" points="214.723,-482.266 209.171,-491.289 219.138,-487.698 214.723,-482.266"/>
<text text-anchor="middle" x="427.5" y="-451.8" font-family="Helvetica,sans-Serif" font-size="10.00"> private_ref</text>
<text text-anchor="middle" x="427.5" y="-440.8" font-family="Helvetica,sans-Serif" font-size="10.00">hw_frames_ctx</text>
<text text-anchor="middle" x="427.5" y="-429.8" font-family="Helvetica,sans-Serif" font-size="10.00">qp_table_buf</text>
<text text-anchor="middle" x="427.5" y="-418.8" font-family="Helvetica,sans-Serif" font-size="10.00">extended_buf</text>
<text text-anchor="middle" x="427.5" y="-407.8" font-family="Helvetica,sans-Serif" font-size="10.00">opaque_ref</text>
<text text-anchor="middle" x="427.5" y="-396.8" font-family="Helvetica,sans-Serif" font-size="10.00">buf</text>
</g>
<!-- Node26 -->
<g id="node26" class="node"><title>Node26</title>
<g id="a_node26"><a xlink:href="../../d5/d95/struct_a_v_frame_side_data.html" target="_top" xlink:title=" ">
<polygon fill="white" stroke="black" points="378.5,-469.3 378.5,-488.3 476.5,-488.3 476.5,-469.3 378.5,-469.3"/>
<text text-anchor="middle" x="427.5" y="-476.3" font-family="Helvetica,sans-Serif" font-size="10.00">AVFrameSideData</text>
</a>
</g>
</g>
<!-- Node15&#45;&gt;Node26 -->
<g id="edge42" class="edge"><title>Node15&#45;&gt;Node26</title>
<path fill="none" stroke="#9a32cd" stroke-dasharray="5,2" d="M242.11,-494.239C248.767,-493.353 255.559,-492.507 262,-491.8 301.014,-487.519 345.382,-484.097 378.201,-481.841"/>
<polygon fill="#9a32cd" stroke="#9a32cd" points="241.261,-490.823 231.831,-495.651 242.214,-497.758 241.261,-490.823"/>
<text text-anchor="middle" x="310.5" y="-494.8" font-family="Helvetica,sans-Serif" font-size="10.00"> buf</text>
</g>
<!-- Node16 -->
<g id="node16" class="node"><title>Node16</title>
<g id="a_node16"><a xlink:href="../../db/d23/struct_a_v_packet_side_data.html" target="_top" xlink:title=" ">
<polygon fill="white" stroke="black" points="377,-730.3 377,-749.3 478,-749.3 478,-730.3 377,-730.3"/>
<text text-anchor="middle" x="427.5" y="-737.3" font-family="Helvetica,sans-Serif" font-size="10.00">AVPacketSideData</text>
</a>
</g>
</g>
<!-- Node16&#45;&gt;Node13 -->
<g id="edge29" class="edge"><title>Node16&#45;&gt;Node13</title>
<path fill="none" stroke="#9a32cd" stroke-dasharray="5,2" d="M459.046,-753.298C496.551,-769.067 562.515,-794.218 622,-803.8 753.862,-825.041 1026.45,-802.604 1083,-772.8 1111.15,-757.961 1131.26,-724.154 1139.85,-707.474"/>
<polygon fill="#9a32cd" stroke="#9a32cd" points="460.27,-750.015 449.699,-749.313 457.525,-756.454 460.27,-750.015"/>
<text text-anchor="middle" x="787" y="-814.8" font-family="Helvetica,sans-Serif" font-size="10.00"> side_data</text>
</g>
<!-- Node16&#45;&gt;Node14 -->
<g id="edge23" class="edge"><title>Node16&#45;&gt;Node14</title>
<path fill="none" stroke="#9a32cd" stroke-dasharray="5,2" d="M461.242,-726.588C472.182,-722.466 484.514,-718.131 496,-714.8 543.134,-701.131 556.507,-704.164 604,-691.8 616.914,-688.438 631.034,-684.175 643.045,-680.37"/>
<polygon fill="#9a32cd" stroke="#9a32cd" points="459.726,-723.421 451.651,-730.279 462.241,-729.954 459.726,-723.421"/>
<text text-anchor="middle" x="550" y="-717.8" font-family="Helvetica,sans-Serif" font-size="10.00"> side_data</text>
</g>
<!-- Node16&#45;&gt;Node23 -->
<g id="edge48" class="edge"><title>Node16&#45;&gt;Node23</title>
<path fill="none" stroke="#9a32cd" stroke-dasharray="5,2" d="M488.316,-738.168C522.443,-736.455 565.885,-732.954 604,-725.8 658.726,-715.529 676.522,-718.892 724,-689.8 783.236,-653.504 790.569,-632.565 832,-576.8 864.686,-532.805 893.731,-473.564 904.53,-450.529"/>
<polygon fill="#9a32cd" stroke="#9a32cd" points="487.868,-734.685 478.04,-738.644 488.192,-741.677 487.868,-734.685"/>
<text text-anchor="middle" x="673" y="-724.8" font-family="Helvetica,sans-Serif" font-size="10.00"> coded_side_data</text>
</g>
<!-- Node17 -->
<g id="node17" class="node"><title>Node17</title>
<g id="a_node17"><a xlink:href="../../da/d91/struct_a_v_probe_data.html" target="_top" xlink:title=" ">
<polygon fill="white" stroke="black" points="872,-563.3 872,-582.3 948,-582.3 948,-563.3 872,-563.3"/>
<text text-anchor="middle" x="910" y="-570.3" font-family="Helvetica,sans-Serif" font-size="10.00">AVProbeData</text>
</a>
</g>
</g>
<!-- Node17&#45;&gt;Node13 -->
<g id="edge25" class="edge"><title>Node17&#45;&gt;Node13</title>
<path fill="none" stroke="#9a32cd" stroke-dasharray="5,2" d="M958.083,-564.881C994.972,-561.224 1046.06,-562.017 1083,-585.8 1120.68,-610.058 1137.19,-665.767 1142.47,-688.19"/>
<polygon fill="#9a32cd" stroke="#9a32cd" points="957.62,-561.411 948.078,-566.015 958.409,-568.366 957.62,-561.411"/>
<text text-anchor="middle" x="1035.5" y="-588.8" font-family="Helvetica,sans-Serif" font-size="10.00"> probe_data</text>
</g>
<!-- Node18&#45;&gt;Node13 -->
<g id="edge26" class="edge"><title>Node18&#45;&gt;Node13</title>
<path fill="none" stroke="#9a32cd" stroke-dasharray="5,2" d="M958.369,-658.741C1004.92,-668.51 1074.57,-683.125 1114.14,-691.43"/>
<polygon fill="#9a32cd" stroke="#9a32cd" points="959.021,-655.301 948.516,-656.673 957.584,-662.152 959.021,-655.301"/>
<text text-anchor="middle" x="1035.5" y="-686.8" font-family="Helvetica,sans-Serif" font-size="10.00"> last_in_packet_buffer</text>
</g>
<!-- Node18&#45;&gt;Node18 -->
<g id="edge28" class="edge"><title>Node18&#45;&gt;Node18</title>
<path fill="none" stroke="#9a32cd" stroke-dasharray="5,2" d="M887.307,-667.829C888.544,-672.928 896.109,-676.8 910,-676.8 931.684,-676.8 937.952,-667.365 928.804,-658.557"/>
<polygon fill="#9a32cd" stroke="#9a32cd" points="890.555,-669.133 891.196,-658.557 884.1,-666.425 890.555,-669.133"/>
<text text-anchor="middle" x="910" y="-679.8" font-family="Helvetica,sans-Serif" font-size="10.00"> next</text>
</g>
<!-- Node19 -->
<g id="node19" class="node"><title>Node19</title>
<g id="a_node19"><a xlink:href="../../d7/da5/struct_a_v_codec_parser_context.html" target="_top" xlink:title=" ">
<polygon fill="white" stroke="black" points="850,-753.3 850,-772.3 970,-772.3 970,-753.3 850,-753.3"/>
<text text-anchor="middle" x="910" y="-760.3" font-family="Helvetica,sans-Serif" font-size="10.00">AVCodecParserContext</text>
</a>
</g>
</g>
<!-- Node19&#45;&gt;Node13 -->
<g id="edge30" class="edge"><title>Node19&#45;&gt;Node13</title>
<path fill="none" stroke="#9a32cd" stroke-dasharray="5,2" d="M980.465,-759.546C1012.49,-756.334 1050.52,-750.046 1083,-737.8 1102.07,-730.612 1121.33,-716.784 1133.09,-707.424"/>
<polygon fill="#9a32cd" stroke="#9a32cd" points="979.929,-756.081 970.293,-760.485 980.572,-763.051 979.929,-756.081"/>
<text text-anchor="middle" x="1035.5" y="-760.8" font-family="Helvetica,sans-Serif" font-size="10.00"> parser</text>
</g>
<!-- Node20 -->
<g id="node20" class="node"><title>Node20</title>
<g id="a_node20"><a xlink:href="../../d6/d65/struct_a_v_codec_parser.html" target="_top" xlink:title=" ">
<polygon fill="white" stroke="black" points="630,-746.3 630,-765.3 716,-765.3 716,-746.3 630,-746.3"/>
<text text-anchor="middle" x="673" y="-753.3" font-family="Helvetica,sans-Serif" font-size="10.00">AVCodecParser</text>
</a>
</g>
</g>
<!-- Node20&#45;&gt;Node19 -->
<g id="edge31" class="edge"><title>Node20&#45;&gt;Node19</title>
<path fill="none" stroke="#9a32cd" stroke-dasharray="5,2" d="M726.45,-757.363C762.978,-758.451 811.752,-759.903 849.695,-761.034"/>
<polygon fill="#9a32cd" stroke="#9a32cd" points="726.113,-753.851 716.013,-757.052 725.905,-760.848 726.113,-753.851"/>
<text text-anchor="middle" x="787" y="-762.8" font-family="Helvetica,sans-Serif" font-size="10.00"> parser</text>
</g>
<!-- Node20&#45;&gt;Node20 -->
<g id="edge32" class="edge"><title>Node20&#45;&gt;Node20</title>
<path fill="none" stroke="#9a32cd" stroke-dasharray="5,2" d="M651.89,-775.2C653.3,-780.115 660.336,-783.8 673,-783.8 693.262,-783.8 699.119,-774.365 690.571,-765.557"/>
<polygon fill="#9a32cd" stroke="#9a32cd" points="655.269,-776.151 655.429,-765.557 648.698,-773.739 655.269,-776.151"/>
<text text-anchor="middle" x="673" y="-786.8" font-family="Helvetica,sans-Serif" font-size="10.00"> next</text>
</g>
<!-- Node21&#45;&gt;Node13 -->
<g id="edge33" class="edge"><title>Node21&#45;&gt;Node13</title>
<path fill="none" stroke="#9a32cd" stroke-dasharray="5,2" d="M586.752,-880.625C678.822,-911.195 927.697,-977.987 1083,-868.8 1137.97,-830.151 1144.04,-737.437 1144.53,-707.382"/>
<polygon fill="#9a32cd" stroke="#9a32cd" points="587.667,-877.24 577.072,-877.351 585.424,-883.871 587.667,-877.24"/>
<text text-anchor="middle" x="787" y="-930.8" font-family="Helvetica,sans-Serif" font-size="10.00"> codecpar</text>
</g>
<!-- Node22 -->
<g id="node22" class="node"><title>Node22</title>
<g id="a_node22"><a xlink:href="../../d2/dc6/struct_a_v_index_entry.html" target="_top" xlink:title=" ">
<polygon fill="white" stroke="black" points="871.5,-840.3 871.5,-859.3 948.5,-859.3 948.5,-840.3 871.5,-840.3"/>
<text text-anchor="middle" x="910" y="-847.3" font-family="Helvetica,sans-Serif" font-size="10.00">AVIndexEntry</text>
</a>
</g>
</g>
<!-- Node22&#45;&gt;Node13 -->
<g id="edge35" class="edge"><title>Node22&#45;&gt;Node13</title>
<path fill="none" stroke="#9a32cd" stroke-dasharray="5,2" d="M958.749,-854.676C996.012,-855.956 1047.28,-851.887 1083,-825.8 1123.82,-795.993 1138.7,-731.844 1143.01,-707.467"/>
<polygon fill="#9a32cd" stroke="#9a32cd" points="958.792,-851.174 948.635,-854.187 958.454,-858.166 958.792,-851.174"/>
<text text-anchor="middle" x="1035.5" y="-856.8" font-family="Helvetica,sans-Serif" font-size="10.00"> index_entries</text>
</g>
<!-- Node23&#45;&gt;Node1 -->
<g id="edge56" class="edge"><title>Node23&#45;&gt;Node1</title>
<path fill="none" stroke="#9a32cd" stroke-dasharray="5,2" d="M966.378,-438.857C1089.57,-434.535 1385.2,-424.162 1509.7,-419.793"/>
<polygon fill="#9a32cd" stroke="#9a32cd" points="965.926,-435.371 956.055,-439.219 966.172,-442.366 965.926,-435.371"/>
<text text-anchor="middle" x="1248" y="-432.8" font-family="Helvetica,sans-Serif" font-size="10.00"> pCodecContext</text>
</g>
<!-- Node23&#45;&gt;Node13 -->
<g id="edge36" class="edge"><title>Node23&#45;&gt;Node13</title>
<path fill="none" stroke="#9a32cd" stroke-dasharray="5,2" d="M945.433,-454.459C983.732,-471.226 1045.18,-503.049 1083,-547.8 1120.43,-592.082 1137.44,-662.226 1142.66,-687.937"/>
<polygon fill="#9a32cd" stroke="#9a32cd" points="946.325,-451.034 935.753,-450.326 943.576,-457.471 946.325,-451.034"/>
<text text-anchor="middle" x="1035.5" y="-550.8" font-family="Helvetica,sans-Serif" font-size="10.00"> codec</text>
</g>
<!-- Node24 -->
<g id="node24" class="node"><title>Node24</title>
<g id="a_node24"><a xlink:href="../../d2/d58/struct_a_v_h_w_accel.html" target="_top" xlink:title=" ">
<polygon fill="white" stroke="black" points="637.5,-393.3 637.5,-412.3 708.5,-412.3 708.5,-393.3 637.5,-393.3"/>
<text text-anchor="middle" x="673" y="-400.3" font-family="Helvetica,sans-Serif" font-size="10.00">AVHWAccel</text>
</a>
</g>
</g>
<!-- Node24&#45;&gt;Node23 -->
<g id="edge39" class="edge"><title>Node24&#45;&gt;Node23</title>
<path fill="none" stroke="#9a32cd" stroke-dasharray="5,2" d="M718.863,-408.749C750.538,-413.091 793.945,-419.327 832,-425.8 842.338,-427.559 853.424,-429.616 863.871,-431.634"/>
<polygon fill="#9a32cd" stroke="#9a32cd" points="718.976,-405.232 708.595,-407.351 718.032,-412.168 718.976,-405.232"/>
<text text-anchor="middle" x="787" y="-428.8" font-family="Helvetica,sans-Serif" font-size="10.00"> hwaccel</text>
</g>
<!-- Node25&#45;&gt;Node23 -->
<g id="edge40" class="edge"><title>Node25&#45;&gt;Node23</title>
<path fill="none" stroke="#9a32cd" stroke-dasharray="5,2" d="M712.171,-369.058C744.774,-373.506 792.521,-381.963 832,-396.8 855.636,-405.683 880.59,-421.242 895.472,-431.278"/>
<polygon fill="#9a32cd" stroke="#9a32cd" points="712.516,-365.574 702.148,-367.752 711.612,-372.515 712.516,-365.574"/>
<text text-anchor="middle" x="787" y="-399.8" font-family="Helvetica,sans-Serif" font-size="10.00"> coded_frame</text>
</g>
<!-- Node26&#45;&gt;Node25 -->
<g id="edge41" class="edge"><title>Node26&#45;&gt;Node25</title>
<path fill="none" stroke="#9a32cd" stroke-dasharray="5,2" d="M486.953,-467.601C523.723,-458.196 570.4,-441.675 604,-413.8 615.967,-403.872 610.075,-393.779 622,-383.8 628.267,-378.556 636.134,-374.672 643.76,-371.833"/>
<polygon fill="#9a32cd" stroke="#9a32cd" points="485.745,-464.293 476.863,-470.069 487.409,-471.093 485.745,-464.293"/>
<text text-anchor="middle" x="550" y="-467.8" font-family="Helvetica,sans-Serif" font-size="10.00"> side_data</text>
</g>
<!-- Node27 -->
<g id="node27" class="node"><title>Node27</title>
<g id="a_node27"><a xlink:href="../../db/dcc/struct_a_v_codec_descriptor.html" target="_top" xlink:title=" ">
<polygon fill="white" stroke="black" points="622,-469.3 622,-488.3 724,-488.3 724,-469.3 622,-469.3"/>
<text text-anchor="middle" x="673" y="-476.3" font-family="Helvetica,sans-Serif" font-size="10.00">AVCodecDescriptor</text>
</a>
</g>
</g>
<!-- Node27&#45;&gt;Node23 -->
<g id="edge46" class="edge"><title>Node27&#45;&gt;Node23</title>
<path fill="none" stroke="#9a32cd" stroke-dasharray="5,2" d="M734.364,-470.052C763.841,-465.673 799.808,-460.171 832,-454.8 842.32,-453.079 853.397,-451.126 863.844,-449.237"/>
<polygon fill="#9a32cd" stroke="#9a32cd" points="733.606,-466.626 724.226,-471.552 734.63,-473.551 733.606,-466.626"/>
<text text-anchor="middle" x="787" y="-471.8" font-family="Helvetica,sans-Serif" font-size="10.00"> codec_descriptor</text>
</g>
<!-- Node28 -->
<g id="node28" class="node"><title>Node28</title>
<g id="a_node28"><a xlink:href="../../d7/dc6/struct_a_v_profile.html" target="_top" xlink:title=" ">
<polygon fill="white" stroke="black" points="399,-290.3 399,-309.3 456,-309.3 456,-290.3 399,-290.3"/>
<text text-anchor="middle" x="427.5" y="-297.3" font-family="Helvetica,sans-Serif" font-size="10.00">AVProfile</text>
</a>
</g>
</g>
<!-- Node28&#45;&gt;Node27 -->
<g id="edge47" class="edge"><title>Node28&#45;&gt;Node27</title>
<path fill="none" stroke="#9a32cd" stroke-dasharray="5,2" d="M459.291,-313.703C504.13,-334.504 584.216,-373.934 604,-398.8 621.599,-420.92 602.788,-439.066 622,-459.8 625.597,-463.683 630.072,-466.778 634.854,-469.245"/>
<polygon fill="#9a32cd" stroke="#9a32cd" points="460.575,-310.441 450.028,-309.438 457.647,-316.8 460.575,-310.441"/>
<text text-anchor="middle" x="550" y="-401.8" font-family="Helvetica,sans-Serif" font-size="10.00"> profiles</text>
</g>
<!-- Node28&#45;&gt;Node30 -->
<g id="edge51" class="edge"><title>Node28&#45;&gt;Node30</title>
<path fill="none" stroke="#9a32cd" stroke-dasharray="5,2" d="M466.158,-294.654C503.654,-288.122 561.585,-274.106 604,-245.8 633.228,-226.295 656.528,-190.574 666.599,-173.451"/>
<polygon fill="#9a32cd" stroke="#9a32cd" points="465.452,-291.223 456.154,-296.304 466.591,-298.13 465.452,-291.223"/>
<text text-anchor="middle" x="550" y="-289.8" font-family="Helvetica,sans-Serif" font-size="10.00"> profiles</text>
</g>
<!-- Node29 -->
<g id="node29" class="node"><title>Node29</title>
<g id="a_node29"><a xlink:href="../../d7/de1/struct_rc_override.html" target="_top" xlink:title=" ">
<polygon fill="white" stroke="black" points="641,-431.3 641,-450.3 705,-450.3 705,-431.3 641,-431.3"/>
<text text-anchor="middle" x="673" y="-438.3" font-family="Helvetica,sans-Serif" font-size="10.00">RcOverride</text>
</a>
</g>
</g>
<!-- Node29&#45;&gt;Node23 -->
<g id="edge49" class="edge"><title>Node29&#45;&gt;Node23</title>
<path fill="none" stroke="#9a32cd" stroke-dasharray="5,2" d="M715.283,-440.8C756.927,-440.8 821.037,-440.8 863.97,-440.8"/>
<polygon fill="#9a32cd" stroke="#9a32cd" points="715.206,-437.3 705.206,-440.8 715.206,-444.3 715.206,-437.3"/>
<text text-anchor="middle" x="787" y="-443.8" font-family="Helvetica,sans-Serif" font-size="10.00"> rc_override</text>
</g>
<!-- Node30&#45;&gt;Node3 -->
<g id="edge55" class="edge"><title>Node30&#45;&gt;Node3</title>
<path fill="none" stroke="#9a32cd" stroke-dasharray="5,2" d="M712.532,-164.993C829.303,-168.607 1179,-179.43 1305.87,-183.357"/>
<polygon fill="#9a32cd" stroke="#9a32cd" points="712.394,-161.487 702.29,-164.676 712.177,-168.484 712.394,-161.487"/>
<text text-anchor="middle" x="1035.5" y="-211.8" font-family="Helvetica,sans-Serif" font-size="10.00"> audio_codec</text>
<text text-anchor="middle" x="1035.5" y="-200.8" font-family="Helvetica,sans-Serif" font-size="10.00">data_codec</text>
<text text-anchor="middle" x="1035.5" y="-189.8" font-family="Helvetica,sans-Serif" font-size="10.00">subtitle_codec</text>
<text text-anchor="middle" x="1035.5" y="-178.8" font-family="Helvetica,sans-Serif" font-size="10.00">video_codec</text>
</g>
<!-- Node30&#45;&gt;Node23 -->
<g id="edge50" class="edge"><title>Node30&#45;&gt;Node23</title>
<path fill="none" stroke="#9a32cd" stroke-dasharray="5,2" d="M712.041,-171.741C758.071,-181.419 829.752,-196.746 832,-198.8 903.279,-263.933 908.955,-394.73 909.106,-431.178"/>
<polygon fill="#9a32cd" stroke="#9a32cd" points="712.584,-168.279 702.078,-169.65 711.146,-175.129 712.584,-168.279"/>
<text text-anchor="middle" x="787" y="-201.8" font-family="Helvetica,sans-Serif" font-size="10.00"> codec</text>
</g>
<!-- Node30&#45;&gt;Node30 -->
<g id="edge54" class="edge"><title>Node30&#45;&gt;Node30</title>
<path fill="none" stroke="#9a32cd" stroke-dasharray="5,2" d="M651.89,-183.2C653.3,-188.115 660.336,-191.8 673,-191.8 693.262,-191.8 699.119,-182.365 690.571,-173.557"/>
<polygon fill="#9a32cd" stroke="#9a32cd" points="655.269,-184.151 655.429,-173.557 648.698,-181.739 655.269,-184.151"/>
<text text-anchor="middle" x="673" y="-194.8" font-family="Helvetica,sans-Serif" font-size="10.00"> next</text>
</g>
</g>
</svg>
