<?xml version="1.0" encoding="UTF-8" standalone="no"?>
<!DOCTYPE svg PUBLIC "-//W3C//DTD SVG 1.1//EN"
 "http://www.w3.org/Graphics/SVG/1.1/DTD/svg11.dtd">
<!-- Generated by graphviz version 2.38.0 (20140413.2041)
 -->
<!-- Title: sub_475665 Pages: 1 -->
<svg width="1430pt" height="116pt"
 viewBox="0.00 0.00 1430.00 115.50" xmlns="http://www.w3.org/2000/svg" xmlns:xlink="http://www.w3.org/1999/xlink">
<g id="graph0" class="graph" transform="scale(1 1) rotate(0) translate(4 111.5)">
<title>sub_475665</title>
<polygon fill="white" stroke="none" points="-4,4 -4,-111.5 1426,-111.5 1426,4 -4,4"/>
<!-- Node1 -->
<g id="node1" class="node"><title>Node1</title>
<g id="a_node1"><a xlink:title=" ">
<polygon fill="#bfbfbf" stroke="black" points="1353,-52 1353,-71 1422,-71 1422,-52 1353,-52"/>
<text text-anchor="middle" x="1387.5" y="-59" font-family="Helvetica,sans-Serif" font-size="10.00">sub_475665</text>
</a>
</g>
</g>
<!-- Node2 -->
<g id="node2" class="node"><title>Node2</title>
<g id="a_node2"><a xlink:href="../../da/d20/_i_render_8h.html#ac2ed4d746cf5d78ae2d1e34936a75697" target="_top" xlink:title=" ">
<polygon fill="white" stroke="black" points="1246,-71 1246,-90 1317,-90 1317,-71 1246,-71"/>
<text text-anchor="middle" x="1281.5" y="-78" font-family="Helvetica,sans-Serif" font-size="10.00">sub_47531C</text>
</a>
</g>
</g>
<!-- Node1&#45;&gt;Node2 -->
<g id="edge1" class="edge"><title>Node1&#45;&gt;Node2</title>
<path fill="none" stroke="midnightblue" d="M1342.87,-69.4715C1334.29,-71.0384 1325.4,-72.6624 1317.17,-74.1667"/>
<polygon fill="midnightblue" stroke="midnightblue" points="1343.53,-72.909 1352.73,-67.6688 1342.27,-66.023 1343.53,-72.909"/>
</g>
<!-- Node14 -->
<g id="node14" class="node"><title>Node14</title>
<g id="a_node14"><a xlink:href="../../da/d20/_i_render_8h.html#ab969b177dd12c1b39b0b111f7a144434" target="_top" xlink:title=" ">
<polygon fill="white" stroke="black" points="1246,-33 1246,-52 1317,-52 1317,-33 1246,-33"/>
<text text-anchor="middle" x="1281.5" y="-40" font-family="Helvetica,sans-Serif" font-size="10.00">sub_475D85</text>
</a>
</g>
</g>
<!-- Node1&#45;&gt;Node14 -->
<g id="edge16" class="edge"><title>Node1&#45;&gt;Node14</title>
<path fill="none" stroke="midnightblue" d="M1342.87,-53.5285C1334.29,-51.9616 1325.4,-50.3376 1317.17,-48.8333"/>
<polygon fill="midnightblue" stroke="midnightblue" points="1342.27,-56.977 1352.73,-55.3312 1343.53,-50.091 1342.27,-56.977"/>
</g>
<!-- Node3 -->
<g id="node3" class="node"><title>Node3</title>
<g id="a_node3"><a xlink:href="../../da/d20/_i_render_8h.html#aa3ed3e9bf9970b88eebd9b7e1147d3d1" target="_top" xlink:title=" ">
<polygon fill="white" stroke="black" points="1084,-65.5 1084,-95.5 1210,-95.5 1210,-65.5 1084,-65.5"/>
<text text-anchor="start" x="1092" y="-83.5" font-family="Helvetica,sans-Serif" font-size="10.00">_46E44E_collide_against</text>
<text text-anchor="middle" x="1147" y="-72.5" font-family="Helvetica,sans-Serif" font-size="10.00">_faces_and_portals</text>
</a>
</g>
</g>
<!-- Node2&#45;&gt;Node3 -->
<g id="edge2" class="edge"><title>Node2&#45;&gt;Node3</title>
<path fill="none" stroke="midnightblue" d="M1235.64,-80.5C1227.48,-80.5 1218.82,-80.5 1210.26,-80.5"/>
<polygon fill="midnightblue" stroke="midnightblue" points="1235.69,-84.0001 1245.69,-80.5 1235.69,-77.0001 1235.69,-84.0001"/>
</g>
<!-- Node4 -->
<g id="node4" class="node"><title>Node4</title>
<g id="a_node4"><a xlink:href="../../da/dc7/_indoor_8h.html#a07b99aba77bf867821578ea0151a2f64" target="_top" xlink:title=" ">
<polygon fill="white" stroke="black" points="913.5,-50 913.5,-69 1046.5,-69 1046.5,-50 913.5,-50"/>
<text text-anchor="middle" x="980" y="-57" font-family="Helvetica,sans-Serif" font-size="10.00">BLV_ProcessPartyActions</text>
</a>
</g>
</g>
<!-- Node3&#45;&gt;Node4 -->
<g id="edge3" class="edge"><title>Node3&#45;&gt;Node4</title>
<path fill="none" stroke="midnightblue" d="M1073.62,-71.2886C1064.69,-70.1516 1055.6,-68.994 1046.77,-67.8705"/>
<polygon fill="midnightblue" stroke="midnightblue" points="1073.26,-74.7702 1083.62,-72.5608 1074.14,-67.8262 1073.26,-74.7702"/>
</g>
<!-- Node10 -->
<g id="node10" class="node"><title>Node10</title>
<g id="a_node10"><a xlink:href="../../da/dc7/_indoor_8h.html#a91180cf18d91c79b7bc41c630c261cbd" target="_top" xlink:title=" ">
<polygon fill="white" stroke="black" points="930,-88 930,-107 1030,-107 1030,-88 930,-88"/>
<text text-anchor="middle" x="980" y="-95" font-family="Helvetica,sans-Serif" font-size="10.00">UpdateActors_BLV</text>
</a>
</g>
</g>
<!-- Node3&#45;&gt;Node10 -->
<g id="edge9" class="edge"><title>Node3&#45;&gt;Node10</title>
<path fill="none" stroke="midnightblue" d="M1073.55,-87.9649C1058.86,-89.4779 1043.75,-91.0353 1030.1,-92.4415"/>
<polygon fill="midnightblue" stroke="midnightblue" points="1074.03,-91.4335 1083.62,-86.927 1073.31,-84.4704 1074.03,-91.4335"/>
</g>
<!-- Node11 -->
<g id="node11" class="node"><title>Node11</title>
<g id="a_node11"><a xlink:href="../../d0/d5a/struct_sprite_object.html#a9e0d2e0c49fb02c2bf900de59aecff85" target="_top" xlink:title=" ">
<polygon fill="white" stroke="black" points="912,-0.5 912,-30.5 1048,-30.5 1048,-0.5 912,-0.5"/>
<text text-anchor="start" x="920" y="-18.5" font-family="Helvetica,sans-Serif" font-size="10.00">SpriteObject::UpdateObject</text>
<text text-anchor="middle" x="980" y="-7.5" font-family="Helvetica,sans-Serif" font-size="10.00">_fn0_BLV</text>
</a>
</g>
</g>
<!-- Node3&#45;&gt;Node11 -->
<g id="edge11" class="edge"><title>Node3&#45;&gt;Node11</title>
<path fill="none" stroke="midnightblue" d="M1098.95,-61.5959C1093.9,-59.5465 1088.84,-57.4851 1084,-55.5 1067.96,-48.9255 1064.12,-46.8642 1048,-40.5 1039.69,-37.2179 1030.75,-33.8044 1022.2,-30.5931"/>
<polygon fill="midnightblue" stroke="midnightblue" points="1098.01,-64.991 1108.6,-65.4986 1100.64,-58.5024 1098.01,-64.991"/>
</g>
<!-- Node5 -->
<g id="node5" class="node"><title>Node5</title>
<g id="a_node5"><a xlink:href="../../da/dc7/_indoor_8h.html#a7d511837933d59eeeccfc25275a366d8" target="_top" xlink:title=" ">
<polygon fill="white" stroke="black" points="603,-50 603,-69 757,-69 757,-50 603,-50"/>
<text text-anchor="middle" x="680" y="-57" font-family="Helvetica,sans-Serif" font-size="10.00">BLV_UpdateUserInputAndOther</text>
</a>
</g>
</g>
<!-- Node4&#45;&gt;Node5 -->
<g id="edge4" class="edge"><title>Node4&#45;&gt;Node5</title>
<path fill="none" stroke="midnightblue" d="M903.004,-59.5C858.27,-59.5 801.877,-59.5 757.122,-59.5"/>
<polygon fill="midnightblue" stroke="midnightblue" points="903.234,-63.0001 913.234,-59.5 903.234,-56.0001 903.234,-63.0001"/>
</g>
<!-- Node6 -->
<g id="node6" class="node"><title>Node6</title>
<g id="a_node6"><a xlink:href="../../de/dcf/_engine_8h.html#a73fe5e8d7dc6ec78e5cc180d1915341b" target="_top" xlink:title=" ">
<polygon fill="white" stroke="black" points="455,-25.5 455,-55.5 565,-55.5 565,-25.5 455,-25.5"/>
<text text-anchor="start" x="463" y="-43.5" font-family="Helvetica,sans-Serif" font-size="10.00">UpdateUserInput_and</text>
<text text-anchor="middle" x="510" y="-32.5" font-family="Helvetica,sans-Serif" font-size="10.00">_MapSpecificStuff</text>
</a>
</g>
</g>
<!-- Node5&#45;&gt;Node6 -->
<g id="edge5" class="edge"><title>Node5&#45;&gt;Node6</title>
<path fill="none" stroke="midnightblue" d="M592.735,-49.7438C583.393,-48.6873 574.088,-47.635 565.284,-46.6392"/>
<polygon fill="midnightblue" stroke="midnightblue" points="592.535,-53.2434 602.865,-50.8895 593.321,-46.2878 592.535,-53.2434"/>
</g>
<!-- Node7 -->
<g id="node7" class="node"><title>Node7</title>
<g id="a_node7"><a xlink:href="../../d4/d06/class_application_1_1_game.html#aaa0ff18388b32b4e6198835a35e000d3" target="_top" xlink:title=" ">
<polygon fill="white" stroke="black" points="316,-25.5 316,-55.5 419,-55.5 419,-25.5 316,-25.5"/>
<text text-anchor="start" x="324" y="-43.5" font-family="Helvetica,sans-Serif" font-size="10.00">Application::Game::</text>
<text text-anchor="middle" x="367.5" y="-32.5" font-family="Helvetica,sans-Serif" font-size="10.00">GameLoop</text>
</a>
</g>
</g>
<!-- Node6&#45;&gt;Node7 -->
<g id="edge6" class="edge"><title>Node6&#45;&gt;Node7</title>
<path fill="none" stroke="midnightblue" d="M444.514,-40.5C436.109,-40.5 427.593,-40.5 419.452,-40.5"/>
<polygon fill="midnightblue" stroke="midnightblue" points="444.679,-44.0001 454.679,-40.5 444.679,-37.0001 444.679,-44.0001"/>
</g>
<!-- Node8 -->
<g id="node8" class="node"><title>Node8</title>
<g id="a_node8"><a xlink:href="../../d4/d06/class_application_1_1_game.html#a013ffd59e8fdf1c0a396da1dbe1681ca" target="_top" xlink:title=" ">
<polygon fill="white" stroke="black" points="156,-31 156,-50 280,-50 280,-31 156,-31"/>
<text text-anchor="middle" x="218" y="-38" font-family="Helvetica,sans-Serif" font-size="10.00">Application::Game::Loop</text>
</a>
</g>
</g>
<!-- Node7&#45;&gt;Node8 -->
<g id="edge7" class="edge"><title>Node7&#45;&gt;Node8</title>
<path fill="none" stroke="midnightblue" d="M305.59,-40.5C297.149,-40.5 288.478,-40.5 280.035,-40.5"/>
<polygon fill="midnightblue" stroke="midnightblue" points="305.739,-44.0001 315.739,-40.5 305.739,-37.0001 305.739,-44.0001"/>
</g>
<!-- Node9 -->
<g id="node9" class="node"><title>Node9</title>
<g id="a_node9"><a xlink:href="../../d4/d06/class_application_1_1_game.html#a96341ca5b54d90adc3ecb3bf0bcd2312" target="_top" xlink:title=" ">
<polygon fill="white" stroke="black" points="0,-31 0,-50 120,-50 120,-31 0,-31"/>
<text text-anchor="middle" x="60" y="-38" font-family="Helvetica,sans-Serif" font-size="10.00">Application::Game::Run</text>
</a>
</g>
</g>
<!-- Node8&#45;&gt;Node9 -->
<g id="edge8" class="edge"><title>Node8&#45;&gt;Node9</title>
<path fill="none" stroke="midnightblue" d="M145.546,-40.5C137.081,-40.5 128.513,-40.5 120.244,-40.5"/>
<polygon fill="midnightblue" stroke="midnightblue" points="145.792,-44.0001 155.792,-40.5 145.792,-37.0001 145.792,-44.0001"/>
</g>
<!-- Node10&#45;&gt;Node5 -->
<g id="edge10" class="edge"><title>Node10&#45;&gt;Node5</title>
<path fill="none" stroke="midnightblue" d="M919.743,-89.9437C872.633,-83.9364 806.448,-75.4967 755.708,-69.0266"/>
<polygon fill="midnightblue" stroke="midnightblue" points="919.429,-93.4319 929.791,-91.2251 920.314,-86.4882 919.429,-93.4319"/>
</g>
<!-- Node12 -->
<g id="node12" class="node"><title>Node12</title>
<g id="a_node12"><a xlink:href="../../da/d20/_i_render_8h.html#a522912d67446895b0a03d01837b75a99" target="_top" xlink:title=" ">
<polygon fill="white" stroke="black" points="795,-12 795,-31 876,-31 876,-12 795,-12"/>
<text text-anchor="middle" x="835.5" y="-19" font-family="Helvetica,sans-Serif" font-size="10.00">UpdateObjects</text>
</a>
</g>
</g>
<!-- Node11&#45;&gt;Node12 -->
<g id="edge12" class="edge"><title>Node11&#45;&gt;Node12</title>
<path fill="none" stroke="midnightblue" d="M901.849,-18.7485C892.946,-19.1233 884.167,-19.493 876.073,-19.8338"/>
<polygon fill="midnightblue" stroke="midnightblue" points="902.079,-22.242 911.923,-18.3243 901.784,-15.2482 902.079,-22.242"/>
</g>
<!-- Node12&#45;&gt;Node5 -->
<g id="edge13" class="edge"><title>Node12&#45;&gt;Node5</title>
<path fill="none" stroke="midnightblue" d="M787.002,-33.5117C777.719,-35.8426 768.057,-38.2573 759,-40.5 746.418,-43.6155 732.684,-46.9749 720.295,-49.9898"/>
<polygon fill="midnightblue" stroke="midnightblue" points="788.035,-36.861 796.879,-31.0274 786.327,-30.0724 788.035,-36.861"/>
</g>
<!-- Node13 -->
<g id="node13" class="node"><title>Node13</title>
<g id="a_node13"><a xlink:href="../../dc/dfb/_outdoor_8h.html#aeedbd3470634fbb22ebda28d2f8006e4" target="_top" xlink:title=" ">
<polygon fill="white" stroke="black" points="601,-12 601,-31 759,-31 759,-12 601,-12"/>
<text text-anchor="middle" x="680" y="-19" font-family="Helvetica,sans-Serif" font-size="10.00">ODM_UpdateUserInputAndOther</text>
</a>
</g>
</g>
<!-- Node12&#45;&gt;Node13 -->
<g id="edge14" class="edge"><title>Node12&#45;&gt;Node13</title>
<path fill="none" stroke="midnightblue" d="M784.837,-21.5C776.609,-21.5 767.905,-21.5 759.176,-21.5"/>
<polygon fill="midnightblue" stroke="midnightblue" points="784.97,-25.0001 794.97,-21.5 784.97,-18.0001 784.97,-25.0001"/>
</g>
<!-- Node13&#45;&gt;Node6 -->
<g id="edge15" class="edge"><title>Node13&#45;&gt;Node6</title>
<path fill="none" stroke="midnightblue" d="M590.764,-31.4791C582.132,-32.4553 573.56,-33.4247 565.414,-34.346"/>
<polygon fill="midnightblue" stroke="midnightblue" points="591.359,-34.9342 600.902,-30.3325 590.572,-27.9786 591.359,-34.9342"/>
</g>
<!-- Node14&#45;&gt;Node3 -->
<g id="edge17" class="edge"><title>Node14&#45;&gt;Node3</title>
<path fill="none" stroke="midnightblue" d="M1237.11,-54.9435C1225.42,-58.2969 1212.64,-61.9609 1200.51,-65.4405"/>
<polygon fill="midnightblue" stroke="midnightblue" points="1238.42,-58.2102 1247.06,-52.089 1236.49,-51.4815 1238.42,-58.2102"/>
</g>
<!-- Node15 -->
<g id="node15" class="node"><title>Node15</title>
<g id="a_node15"><a xlink:href="../../da/d20/_i_render_8h.html#a6c0d044beced4f6c106ba10e4949a539" target="_top" xlink:title=" ">
<polygon fill="white" stroke="black" points="1084.5,-16.5 1084.5,-46.5 1209.5,-46.5 1209.5,-16.5 1084.5,-16.5"/>
<text text-anchor="start" x="1092.5" y="-34.5" font-family="Helvetica,sans-Serif" font-size="10.00">_46F04E_collide_against</text>
<text text-anchor="middle" x="1147" y="-23.5" font-family="Helvetica,sans-Serif" font-size="10.00">_portals</text>
</a>
</g>
</g>
<!-- Node14&#45;&gt;Node15 -->
<g id="edge18" class="edge"><title>Node14&#45;&gt;Node15</title>
<path fill="none" stroke="midnightblue" d="M1235.5,-38.764C1227.21,-38.0758 1218.42,-37.3464 1209.74,-36.6256"/>
<polygon fill="midnightblue" stroke="midnightblue" points="1235.43,-42.2704 1245.69,-39.6099 1236.01,-35.2944 1235.43,-42.2704"/>
</g>
<!-- Node15&#45;&gt;Node4 -->
<g id="edge19" class="edge"><title>Node15&#45;&gt;Node4</title>
<path fill="none" stroke="midnightblue" d="M1074.2,-43.6849C1061.74,-45.7984 1048.96,-47.9679 1037,-49.9965"/>
<polygon fill="midnightblue" stroke="midnightblue" points="1074.82,-47.1296 1084.09,-42.0058 1073.65,-40.2283 1074.82,-47.1296"/>
</g>
<!-- Node15&#45;&gt;Node10 -->
<g id="edge20" class="edge"><title>Node15&#45;&gt;Node10</title>
<path fill="none" stroke="midnightblue" d="M1094.37,-50.5751C1090.82,-52.1626 1087.34,-53.8096 1084,-55.5 1067.06,-64.0807 1065.32,-70.716 1048,-78.5 1039.84,-82.1681 1030.8,-85.3031 1022.07,-87.9068"/>
<polygon fill="midnightblue" stroke="midnightblue" points="1096,-53.6805 1103.82,-46.5228 1093.25,-47.2469 1096,-53.6805"/>
</g>
<!-- Node15&#45;&gt;Node11 -->
<g id="edge21" class="edge"><title>Node15&#45;&gt;Node11</title>
<path fill="none" stroke="midnightblue" d="M1074.1,-24.5276C1065.5,-23.6943 1056.75,-22.8459 1048.23,-22.0193"/>
<polygon fill="midnightblue" stroke="midnightblue" points="1073.8,-28.0151 1084.09,-25.4967 1074.48,-21.0477 1073.8,-28.0151"/>
</g>
</g>
</svg>
