<?xml version="1.0" encoding="UTF-8" standalone="no"?>
<!DOCTYPE svg PUBLIC "-//W3C//DTD SVG 1.1//EN"
 "http://www.w3.org/Graphics/SVG/1.1/DTD/svg11.dtd">
<!-- Generated by graphviz version 2.38.0 (20140413.2041)
 -->
<!-- Title: _46E0B2_collide_against_decorations Pages: 1 -->
<svg width="1270pt" height="116pt"
 viewBox="0.00 0.00 1270.00 115.50" xmlns="http://www.w3.org/2000/svg" xmlns:xlink="http://www.w3.org/1999/xlink">
<g id="graph0" class="graph" transform="scale(1 1) rotate(0) translate(4 111.5)">
<title>_46E0B2_collide_against_decorations</title>
<polygon fill="white" stroke="none" points="-4,4 -4,-111.5 1266,-111.5 1266,4 -4,4"/>
<!-- Node1 -->
<g id="node1" class="node"><title>Node1</title>
<g id="a_node1"><a xlink:title=" ">
<polygon fill="#bfbfbf" stroke="black" points="1136,-44.5 1136,-74.5 1262,-74.5 1262,-44.5 1136,-44.5"/>
<text text-anchor="start" x="1144" y="-62.5" font-family="Helvetica,sans-Serif" font-size="10.00">_46E0B2_collide_against</text>
<text text-anchor="middle" x="1199" y="-51.5" font-family="Helvetica,sans-Serif" font-size="10.00">_decorations</text>
</a>
</g>
</g>
<!-- Node2 -->
<g id="node2" class="node"><title>Node2</title>
<g id="a_node2"><a xlink:href="../../da/dc7/_indoor_8h.html#a07b99aba77bf867821578ea0151a2f64" target="_top" xlink:title=" ">
<polygon fill="white" stroke="black" points="795,-88 795,-107 928,-107 928,-88 795,-88"/>
<text text-anchor="middle" x="861.5" y="-95" font-family="Helvetica,sans-Serif" font-size="10.00">BLV_ProcessPartyActions</text>
</a>
</g>
</g>
<!-- Node1&#45;&gt;Node2 -->
<g id="edge1" class="edge"><title>Node1&#45;&gt;Node2</title>
<path fill="none" stroke="midnightblue" d="M1126.12,-74.3875C1117.34,-75.9232 1108.48,-77.3419 1100,-78.5 1042.21,-86.3883 976.033,-91.351 928.237,-94.2178"/>
<polygon fill="midnightblue" stroke="midnightblue" points="1126.74,-77.8313 1135.96,-72.6116 1125.5,-70.9424 1126.74,-77.8313"/>
</g>
<!-- Node8 -->
<g id="node8" class="node"><title>Node8</title>
<g id="a_node8"><a xlink:href="../../da/dc7/_indoor_8h.html#a91180cf18d91c79b7bc41c630c261cbd" target="_top" xlink:title=" ">
<polygon fill="white" stroke="black" points="982,-50 982,-69 1082,-69 1082,-50 982,-50"/>
<text text-anchor="middle" x="1032" y="-57" font-family="Helvetica,sans-Serif" font-size="10.00">UpdateActors_BLV</text>
</a>
</g>
</g>
<!-- Node1&#45;&gt;Node8 -->
<g id="edge7" class="edge"><title>Node1&#45;&gt;Node8</title>
<path fill="none" stroke="midnightblue" d="M1125.55,-59.5C1110.86,-59.5 1095.75,-59.5 1082.1,-59.5"/>
<polygon fill="midnightblue" stroke="midnightblue" points="1125.62,-63.0001 1135.62,-59.5 1125.62,-56.0001 1125.62,-63.0001"/>
</g>
<!-- Node9 -->
<g id="node9" class="node"><title>Node9</title>
<g id="a_node9"><a xlink:href="../../d0/d5a/struct_sprite_object.html#a9e0d2e0c49fb02c2bf900de59aecff85" target="_top" xlink:title=" ">
<polygon fill="white" stroke="black" points="964,-0.5 964,-30.5 1100,-30.5 1100,-0.5 964,-0.5"/>
<text text-anchor="start" x="972" y="-18.5" font-family="Helvetica,sans-Serif" font-size="10.00">SpriteObject::UpdateObject</text>
<text text-anchor="middle" x="1032" y="-7.5" font-family="Helvetica,sans-Serif" font-size="10.00">_fn0_BLV</text>
</a>
</g>
</g>
<!-- Node1&#45;&gt;Node9 -->
<g id="edge9" class="edge"><title>Node1&#45;&gt;Node9</title>
<path fill="none" stroke="midnightblue" d="M1131.61,-41.7971C1117.6,-38.0608 1102.95,-34.1525 1089.35,-30.5262"/>
<polygon fill="midnightblue" stroke="midnightblue" points="1131.11,-45.2859 1141.68,-44.4808 1132.92,-38.5222 1131.11,-45.2859"/>
</g>
<!-- Node3 -->
<g id="node3" class="node"><title>Node3</title>
<g id="a_node3"><a xlink:href="../../da/dc7/_indoor_8h.html#a7d511837933d59eeeccfc25275a366d8" target="_top" xlink:title=" ">
<polygon fill="white" stroke="black" points="603,-50 603,-69 757,-69 757,-50 603,-50"/>
<text text-anchor="middle" x="680" y="-57" font-family="Helvetica,sans-Serif" font-size="10.00">BLV_UpdateUserInputAndOther</text>
</a>
</g>
</g>
<!-- Node2&#45;&gt;Node3 -->
<g id="edge2" class="edge"><title>Node2&#45;&gt;Node3</title>
<path fill="none" stroke="midnightblue" d="M805.323,-85.819C779.867,-80.4301 750.032,-74.1139 725.97,-69.0201"/>
<polygon fill="midnightblue" stroke="midnightblue" points="804.696,-89.2639 815.205,-87.911 806.146,-82.4157 804.696,-89.2639"/>
</g>
<!-- Node4 -->
<g id="node4" class="node"><title>Node4</title>
<g id="a_node4"><a xlink:href="../../de/dcf/_engine_8h.html#a73fe5e8d7dc6ec78e5cc180d1915341b" target="_top" xlink:title=" ">
<polygon fill="white" stroke="black" points="455,-25.5 455,-55.5 565,-55.5 565,-25.5 455,-25.5"/>
<text text-anchor="start" x="463" y="-43.5" font-family="Helvetica,sans-Serif" font-size="10.00">UpdateUserInput_and</text>
<text text-anchor="middle" x="510" y="-32.5" font-family="Helvetica,sans-Serif" font-size="10.00">_MapSpecificStuff</text>
</a>
</g>
</g>
<!-- Node3&#45;&gt;Node4 -->
<g id="edge3" class="edge"><title>Node3&#45;&gt;Node4</title>
<path fill="none" stroke="midnightblue" d="M592.735,-49.7438C583.393,-48.6873 574.088,-47.635 565.284,-46.6392"/>
<polygon fill="midnightblue" stroke="midnightblue" points="592.535,-53.2434 602.865,-50.8895 593.321,-46.2878 592.535,-53.2434"/>
</g>
<!-- Node5 -->
<g id="node5" class="node"><title>Node5</title>
<g id="a_node5"><a xlink:href="../../d4/d06/class_application_1_1_game.html#aaa0ff18388b32b4e6198835a35e000d3" target="_top" xlink:title=" ">
<polygon fill="white" stroke="black" points="316,-25.5 316,-55.5 419,-55.5 419,-25.5 316,-25.5"/>
<text text-anchor="start" x="324" y="-43.5" font-family="Helvetica,sans-Serif" font-size="10.00">Application::Game::</text>
<text text-anchor="middle" x="367.5" y="-32.5" font-family="Helvetica,sans-Serif" font-size="10.00">GameLoop</text>
</a>
</g>
</g>
<!-- Node4&#45;&gt;Node5 -->
<g id="edge4" class="edge"><title>Node4&#45;&gt;Node5</title>
<path fill="none" stroke="midnightblue" d="M444.514,-40.5C436.109,-40.5 427.593,-40.5 419.452,-40.5"/>
<polygon fill="midnightblue" stroke="midnightblue" points="444.679,-44.0001 454.679,-40.5 444.679,-37.0001 444.679,-44.0001"/>
</g>
<!-- Node6 -->
<g id="node6" class="node"><title>Node6</title>
<g id="a_node6"><a xlink:href="../../d4/d06/class_application_1_1_game.html#a013ffd59e8fdf1c0a396da1dbe1681ca" target="_top" xlink:title=" ">
<polygon fill="white" stroke="black" points="156,-31 156,-50 280,-50 280,-31 156,-31"/>
<text text-anchor="middle" x="218" y="-38" font-family="Helvetica,sans-Serif" font-size="10.00">Application::Game::Loop</text>
</a>
</g>
</g>
<!-- Node5&#45;&gt;Node6 -->
<g id="edge5" class="edge"><title>Node5&#45;&gt;Node6</title>
<path fill="none" stroke="midnightblue" d="M305.59,-40.5C297.149,-40.5 288.478,-40.5 280.035,-40.5"/>
<polygon fill="midnightblue" stroke="midnightblue" points="305.739,-44.0001 315.739,-40.5 305.739,-37.0001 305.739,-44.0001"/>
</g>
<!-- Node7 -->
<g id="node7" class="node"><title>Node7</title>
<g id="a_node7"><a xlink:href="../../d4/d06/class_application_1_1_game.html#a96341ca5b54d90adc3ecb3bf0bcd2312" target="_top" xlink:title=" ">
<polygon fill="white" stroke="black" points="0,-31 0,-50 120,-50 120,-31 0,-31"/>
<text text-anchor="middle" x="60" y="-38" font-family="Helvetica,sans-Serif" font-size="10.00">Application::Game::Run</text>
</a>
</g>
</g>
<!-- Node6&#45;&gt;Node7 -->
<g id="edge6" class="edge"><title>Node6&#45;&gt;Node7</title>
<path fill="none" stroke="midnightblue" d="M145.546,-40.5C137.081,-40.5 128.513,-40.5 120.244,-40.5"/>
<polygon fill="midnightblue" stroke="midnightblue" points="145.792,-44.0001 155.792,-40.5 145.792,-37.0001 145.792,-44.0001"/>
</g>
<!-- Node8&#45;&gt;Node3 -->
<g id="edge8" class="edge"><title>Node8&#45;&gt;Node3</title>
<path fill="none" stroke="midnightblue" d="M971.669,-59.5C912.516,-59.5 821.43,-59.5 757.011,-59.5"/>
<polygon fill="midnightblue" stroke="midnightblue" points="971.966,-63.0001 981.965,-59.5 971.965,-56.0001 971.966,-63.0001"/>
</g>
<!-- Node10 -->
<g id="node10" class="node"><title>Node10</title>
<g id="a_node10"><a xlink:href="../../da/d20/_i_render_8h.html#a522912d67446895b0a03d01837b75a99" target="_top" xlink:title=" ">
<polygon fill="white" stroke="black" points="821,-12 821,-31 902,-31 902,-12 821,-12"/>
<text text-anchor="middle" x="861.5" y="-19" font-family="Helvetica,sans-Serif" font-size="10.00">UpdateObjects</text>
</a>
</g>
</g>
<!-- Node9&#45;&gt;Node10 -->
<g id="edge10" class="edge"><title>Node9&#45;&gt;Node10</title>
<path fill="none" stroke="midnightblue" d="M953.526,-18.2587C935.752,-18.8916 917.574,-19.5389 902.182,-20.087"/>
<polygon fill="midnightblue" stroke="midnightblue" points="954.051,-21.7423 963.92,-17.8886 953.802,-14.7468 954.051,-21.7423"/>
</g>
<!-- Node10&#45;&gt;Node3 -->
<g id="edge11" class="edge"><title>Node10&#45;&gt;Node3</title>
<path fill="none" stroke="midnightblue" d="M810.811,-32.0191C784.287,-37.6342 751.89,-44.4926 726.096,-49.9532"/>
<polygon fill="midnightblue" stroke="midnightblue" points="811.605,-35.4287 820.663,-29.9334 810.155,-28.5805 811.605,-35.4287"/>
</g>
<!-- Node11 -->
<g id="node11" class="node"><title>Node11</title>
<g id="a_node11"><a xlink:href="../../dc/dfb/_outdoor_8h.html#aeedbd3470634fbb22ebda28d2f8006e4" target="_top" xlink:title=" ">
<polygon fill="white" stroke="black" points="601,-12 601,-31 759,-31 759,-12 601,-12"/>
<text text-anchor="middle" x="680" y="-19" font-family="Helvetica,sans-Serif" font-size="10.00">ODM_UpdateUserInputAndOther</text>
</a>
</g>
</g>
<!-- Node10&#45;&gt;Node11 -->
<g id="edge12" class="edge"><title>Node10&#45;&gt;Node11</title>
<path fill="none" stroke="midnightblue" d="M810.504,-21.5C794.542,-21.5 776.476,-21.5 759.013,-21.5"/>
<polygon fill="midnightblue" stroke="midnightblue" points="810.663,-25.0001 820.663,-21.5 810.663,-18.0001 810.663,-25.0001"/>
</g>
<!-- Node11&#45;&gt;Node4 -->
<g id="edge13" class="edge"><title>Node11&#45;&gt;Node4</title>
<path fill="none" stroke="midnightblue" d="M590.764,-31.4791C582.132,-32.4553 573.56,-33.4247 565.414,-34.346"/>
<polygon fill="midnightblue" stroke="midnightblue" points="591.359,-34.9342 600.902,-30.3325 590.572,-27.9786 591.359,-34.9342"/>
</g>
</g>
</svg>
