<?xml version="1.0" encoding="UTF-8" standalone="no"?>
<!DOCTYPE svg PUBLIC "-//W3C//DTD SVG 1.1//EN"
 "http://www.w3.org/Graphics/SVG/1.1/DTD/svg11.dtd">
<!-- Generated by graphviz version 2.38.0 (20140413.2041)
 -->
<!-- Title: _43F55F_get_billboard_light_level Pages: 1 -->
<svg width="427pt" height="50pt"
 viewBox="0.00 0.00 427.00 50.00" xmlns="http://www.w3.org/2000/svg" xmlns:xlink="http://www.w3.org/1999/xlink">
<g id="graph0" class="graph" transform="scale(1 1) rotate(0) translate(4 46)">
<title>_43F55F_get_billboard_light_level</title>
<polygon fill="white" stroke="none" points="-4,4 -4,-46 423,-46 423,4 -4,4"/>
<!-- Node1 -->
<g id="node1" class="node"><title>Node1</title>
<g id="a_node1"><a xlink:title=" ">
<polygon fill="#bfbfbf" stroke="black" points="0,-6 0,-36 115,-36 115,-6 0,-6"/>
<text text-anchor="start" x="8" y="-24" font-family="Helvetica,sans-Serif" font-size="10.00">_43F55F_get_billboard</text>
<text text-anchor="middle" x="57.5" y="-13" font-family="Helvetica,sans-Serif" font-size="10.00">_light_level</text>
</a>
</g>
</g>
<!-- Node2 -->
<g id="node2" class="node"><title>Node2</title>
<g id="a_node2"><a xlink:href="../../d2/dc7/_render_8cpp.html#aa7459c3126d3e1bcf791c83d4862603c" target="_top" xlink:title=" ">
<polygon fill="white" stroke="black" points="151,-0.5 151,-41.5 275,-41.5 275,-0.5 151,-0.5"/>
<text text-anchor="start" x="159" y="-29.5" font-family="Helvetica,sans-Serif" font-size="10.00">_43F5C8_get_point_light</text>
<text text-anchor="start" x="159" y="-18.5" font-family="Helvetica,sans-Serif" font-size="10.00">_level_with_respect_to</text>
<text text-anchor="middle" x="213" y="-7.5" font-family="Helvetica,sans-Serif" font-size="10.00">_lights</text>
</a>
</g>
</g>
<!-- Node1&#45;&gt;Node2 -->
<g id="edge1" class="edge"><title>Node1&#45;&gt;Node2</title>
<path fill="none" stroke="midnightblue" d="M115.222,-21C123.57,-21 132.258,-21 140.852,-21"/>
<polygon fill="midnightblue" stroke="midnightblue" points="140.871,-24.5001 150.871,-21 140.871,-17.5001 140.871,-24.5001"/>
</g>
<!-- Node3 -->
<g id="node3" class="node"><title>Node3</title>
<g id="a_node3"><a xlink:href="../../d5/d2e/_vector_types_8cpp.html#a5eb2b4017143261b8e3f12f6c796a11c" target="_top" xlink:title=" ">
<polygon fill="white" stroke="black" points="311,-11.5 311,-30.5 419,-30.5 419,-11.5 311,-11.5"/>
<text text-anchor="middle" x="365" y="-18.5" font-family="Helvetica,sans-Serif" font-size="10.00">int_get_vector_length</text>
</a>
</g>
</g>
<!-- Node2&#45;&gt;Node3 -->
<g id="edge2" class="edge"><title>Node2&#45;&gt;Node3</title>
<path fill="none" stroke="midnightblue" d="M275.011,-21C283.43,-21 292.092,-21 300.554,-21"/>
<polygon fill="midnightblue" stroke="midnightblue" points="300.746,-24.5001 310.746,-21 300.746,-17.5001 300.746,-24.5001"/>
</g>
</g>
</svg>
