<?xml version="1.0" encoding="UTF-8" standalone="no"?>
<!DOCTYPE svg PUBLIC "-//W3C//DTD SVG 1.1//EN"
 "http://www.w3.org/Graphics/SVG/1.1/DTD/svg11.dtd">
<!-- Generated by graphviz version 2.38.0 (20140413.2041)
 -->
<!-- Title: GUIWindow_House::Release Pages: 1 -->
<svg width="492pt" height="180pt"
 viewBox="0.00 0.00 492.00 180.00" xmlns="http://www.w3.org/2000/svg" xmlns:xlink="http://www.w3.org/1999/xlink">
<g id="graph0" class="graph" transform="scale(1 1) rotate(0) translate(4 176)">
<title>GUIWindow_House::Release</title>
<polygon fill="white" stroke="none" points="-4,4 -4,-176 488,-176 488,4 -4,4"/>
<!-- Node1 -->
<g id="node1" class="node"><title>Node1</title>
<g id="a_node1"><a xlink:title=" ">
<polygon fill="#bfbfbf" stroke="black" points="0,-95.5 0,-114.5 142,-114.5 142,-95.5 0,-95.5"/>
<text text-anchor="middle" x="71" y="-102.5" font-family="Helvetica,sans-Serif" font-size="10.00">GUIWindow_House::Release</text>
</a>
</g>
</g>
<!-- Node2 -->
<g id="node2" class="node"><title>Node2</title>
<g id="a_node2"><a xlink:href="../../de/d73/class_image.html#a79e0e96332914caa0816c7d34822b9bf" target="_top" xlink:title=" ">
<polygon fill="white" stroke="black" points="190.5,-114.5 190.5,-133.5 274.5,-133.5 274.5,-114.5 190.5,-114.5"/>
<text text-anchor="middle" x="232.5" y="-121.5" font-family="Helvetica,sans-Serif" font-size="10.00">Image::Release</text>
</a>
</g>
</g>
<!-- Node1&#45;&gt;Node2 -->
<g id="edge1" class="edge"><title>Node1&#45;&gt;Node2</title>
<path fill="none" stroke="midnightblue" d="M142.423,-113.389C155.074,-114.896 168.043,-116.441 180.031,-117.869"/>
<polygon fill="midnightblue" stroke="midnightblue" points="179.938,-121.383 190.282,-119.09 180.766,-114.432 179.938,-121.383"/>
</g>
<!-- Node5 -->
<g id="node5" class="node"><title>Node5</title>
<g id="a_node5"><a xlink:href="../../d4/d38/class_g_u_i_window.html#aaf2e6a2022904abc2d253e9d4acd5d99" target="_top" xlink:title=" ">
<polygon fill="white" stroke="black" points="178,-57.5 178,-76.5 287,-76.5 287,-57.5 178,-57.5"/>
<text text-anchor="middle" x="232.5" y="-64.5" font-family="Helvetica,sans-Serif" font-size="10.00">GUIWindow::Release</text>
</a>
</g>
</g>
<!-- Node1&#45;&gt;Node5 -->
<g id="edge4" class="edge"><title>Node1&#45;&gt;Node5</title>
<path fill="none" stroke="midnightblue" d="M112.249,-95.411C133.296,-90.3965 159.255,-84.2119 181.573,-78.8947"/>
<polygon fill="midnightblue" stroke="midnightblue" points="182.624,-82.2424 191.541,-76.5201 181.002,-75.433 182.624,-82.2424"/>
</g>
<!-- Node3 -->
<g id="node3" class="node"><title>Node3</title>
<g id="a_node3"><a xlink:href="../../d7/d42/class_image_loader.html#a18f2d859b812d0877891b4960ad48e53" target="_top" xlink:title=" ">
<polygon fill="white" stroke="black" points="323,-152.5 323,-171.5 484,-171.5 484,-152.5 323,-152.5"/>
<text text-anchor="middle" x="403.5" y="-159.5" font-family="Helvetica,sans-Serif" font-size="10.00">ImageLoader::GetResourceName</text>
</a>
</g>
</g>
<!-- Node2&#45;&gt;Node3 -->
<g id="edge2" class="edge"><title>Node2&#45;&gt;Node3</title>
<path fill="none" stroke="midnightblue" d="M274.842,-133.296C297.602,-138.413 326.072,-144.815 350.347,-150.273"/>
<polygon fill="midnightblue" stroke="midnightblue" points="349.591,-153.691 360.116,-152.47 351.127,-146.861 349.591,-153.691"/>
</g>
<!-- Node4 -->
<g id="node4" class="node"><title>Node4</title>
<g id="a_node4"><a xlink:href="../../db/dd6/class_assets_manager.html#a267f5a440cbd28f4a1a0d9527223bd08" target="_top" xlink:title=" ">
<polygon fill="white" stroke="black" points="327.5,-114.5 327.5,-133.5 479.5,-133.5 479.5,-114.5 327.5,-114.5"/>
<text text-anchor="middle" x="403.5" y="-121.5" font-family="Helvetica,sans-Serif" font-size="10.00">AssetsManager::ReleaseImage</text>
</a>
</g>
</g>
<!-- Node2&#45;&gt;Node4 -->
<g id="edge3" class="edge"><title>Node2&#45;&gt;Node4</title>
<path fill="none" stroke="midnightblue" d="M274.842,-124C287.704,-124 302.39,-124 317.112,-124"/>
<polygon fill="midnightblue" stroke="midnightblue" points="317.288,-127.5 327.288,-124 317.288,-120.5 317.288,-127.5"/>
</g>
<!-- Node6 -->
<g id="node6" class="node"><title>Node6</title>
<g id="a_node6"><a xlink:href="../../d4/d38/class_g_u_i_window.html#a7c8bcc74ea8cc23cc666aa869e5a5d7d" target="_top" xlink:title=" ">
<polygon fill="white" stroke="black" points="336,-76.5 336,-95.5 471,-95.5 471,-76.5 336,-76.5"/>
<text text-anchor="middle" x="403.5" y="-83.5" font-family="Helvetica,sans-Serif" font-size="10.00">GUIWindow::DeleteButtons</text>
</a>
</g>
</g>
<!-- Node5&#45;&gt;Node6 -->
<g id="edge5" class="edge"><title>Node5&#45;&gt;Node6</title>
<path fill="none" stroke="midnightblue" d="M287.437,-73.064C299.557,-74.4265 312.646,-75.898 325.501,-77.3433"/>
<polygon fill="midnightblue" stroke="midnightblue" points="325.41,-80.855 335.738,-78.4942 326.192,-73.8988 325.41,-80.855"/>
</g>
<!-- Node7 -->
<g id="node7" class="node"><title>Node7</title>
<g id="a_node7"><a xlink:href="../../d6/d70/class_log.html#a9962588a107d3b4aa927cf12284e0fc7" target="_top" xlink:title=" ">
<polygon fill="white" stroke="black" points="377,-38.5 377,-57.5 430,-57.5 430,-38.5 377,-38.5"/>
<text text-anchor="middle" x="403.5" y="-45.5" font-family="Helvetica,sans-Serif" font-size="10.00">Log::Info</text>
</a>
</g>
</g>
<!-- Node5&#45;&gt;Node7 -->
<g id="edge6" class="edge"><title>Node5&#45;&gt;Node7</title>
<path fill="none" stroke="midnightblue" d="M287.437,-60.936C313.406,-58.0165 343.826,-54.5965 366.863,-52.0065"/>
<polygon fill="midnightblue" stroke="midnightblue" points="367.339,-55.4751 376.886,-50.8797 366.557,-48.5189 367.339,-55.4751"/>
</g>
<!-- Node8 -->
<g id="node8" class="node"><title>Node8</title>
<g id="a_node8"><a xlink:href="../../d5/d0b/_g_u_i_window_8h.html#a2dd068506951f75670a9b118af013003" target="_top" xlink:title=" ">
<polygon fill="white" stroke="black" points="377,-0.5 377,-19.5 430,-19.5 430,-0.5 377,-0.5"/>
<text text-anchor="middle" x="403.5" y="-7.5" font-family="Helvetica,sans-Serif" font-size="10.00">ToString</text>
</a>
</g>
</g>
<!-- Node5&#45;&gt;Node8 -->
<g id="edge7" class="edge"><title>Node5&#45;&gt;Node8</title>
<path fill="none" stroke="midnightblue" d="M253.393,-57.418C271.291,-49.0726 298.468,-37.0768 323,-29 337.071,-24.3674 352.886,-20.3536 366.682,-17.2242"/>
<polygon fill="midnightblue" stroke="midnightblue" points="367.76,-20.571 376.777,-15.008 366.259,-13.7339 367.76,-20.571"/>
</g>
</g>
</svg>
