<?xml version="1.0" encoding="UTF-8" standalone="no"?>
<!DOCTYPE svg PUBLIC "-//W3C//DTD SVG 1.1//EN"
 "http://www.w3.org/Graphics/SVG/1.1/DTD/svg11.dtd">
<!-- Generated by graphviz version 2.38.0 (20140413.2041)
 -->
<!-- Title: IndoorCameraD3D::CalcPortalShape Pages: 1 -->
<svg width="2639pt" height="325pt"
 viewBox="0.00 0.00 2639.00 325.00" xmlns="http://www.w3.org/2000/svg" xmlns:xlink="http://www.w3.org/1999/xlink">
<g id="graph0" class="graph" transform="scale(1 1) rotate(0) translate(4 321)">
<title>IndoorCameraD3D::CalcPortalShape</title>
<polygon fill="white" stroke="none" points="-4,4 -4,-321 2635,-321 2635,4 -4,4"/>
<!-- Node1 -->
<g id="node1" class="node"><title>Node1</title>
<g id="a_node1"><a xlink:title=" ">
<polygon fill="#bfbfbf" stroke="black" points="2485,-121 2485,-151 2631,-151 2631,-121 2485,-121"/>
<text text-anchor="start" x="2493" y="-139" font-family="Helvetica,sans-Serif" font-size="10.00">IndoorCameraD3D::CalcPortal</text>
<text text-anchor="middle" x="2558" y="-128" font-family="Helvetica,sans-Serif" font-size="10.00">Shape</text>
</a>
</g>
</g>
<!-- Node2 -->
<g id="node2" class="node"><title>Node2</title>
<g id="a_node2"><a xlink:href="../../d9/de5/struct_indoor_camera_d3_d.html#a7850c74be45649af30c064359b13ff0b" target="_top" xlink:title=" ">
<polygon fill="white" stroke="black" points="2309,-204.5 2309,-223.5 2449,-223.5 2449,-204.5 2309,-204.5"/>
<text text-anchor="middle" x="2379" y="-211.5" font-family="Helvetica,sans-Serif" font-size="10.00">IndoorCameraD3D::_4371C3</text>
</a>
</g>
</g>
<!-- Node1&#45;&gt;Node2 -->
<g id="edge1" class="edge"><title>Node1&#45;&gt;Node2</title>
<path fill="none" stroke="midnightblue" d="M2523.62,-156.298C2502.72,-168.402 2474.92,-183.422 2449,-194 2439.3,-197.959 2428.54,-201.473 2418.45,-204.408"/>
<polygon fill="midnightblue" stroke="midnightblue" points="2525.56,-159.217 2532.41,-151.139 2522.02,-153.178 2525.56,-159.217"/>
</g>
<!-- Node3 -->
<g id="node3" class="node"><title>Node3</title>
<g id="a_node3"><a xlink:href="../../da/deb/struct_bsp_renderer.html#a49298426a968ea0402430fef302b5244" target="_top" xlink:title=" ">
<polygon fill="white" stroke="black" points="1739,-96 1739,-126 1898,-126 1898,-96 1739,-96"/>
<text text-anchor="start" x="1747" y="-114" font-family="Helvetica,sans-Serif" font-size="10.00">BspRenderer::AddFaceToRender</text>
<text text-anchor="middle" x="1818.5" y="-103" font-family="Helvetica,sans-Serif" font-size="10.00">List_d3d</text>
</a>
</g>
</g>
<!-- Node1&#45;&gt;Node3 -->
<g id="edge2" class="edge"><title>Node1&#45;&gt;Node3</title>
<path fill="none" stroke="midnightblue" d="M2474.91,-133.217C2331.88,-128.369 2038.86,-118.436 1898.22,-113.669"/>
<polygon fill="midnightblue" stroke="midnightblue" points="2474.83,-136.716 2484.94,-133.557 2475.07,-129.721 2474.83,-136.716"/>
</g>
<!-- Node20 -->
<g id="node20" class="node"><title>Node20</title>
<g id="a_node20"><a xlink:href="../../d9/de5/struct_indoor_camera_d3_d.html#a492282eb1b8ac7ed510b9fb049a6ce35" target="_top" xlink:title=" ">
<polygon fill="white" stroke="black" points="2323,-155 2323,-185 2435,-185 2435,-155 2323,-155"/>
<text text-anchor="start" x="2331" y="-173" font-family="Helvetica,sans-Serif" font-size="10.00">IndoorCameraD3D::do</text>
<text text-anchor="middle" x="2379" y="-162" font-family="Helvetica,sans-Serif" font-size="10.00">_draw_debug_line_sw</text>
</a>
</g>
</g>
<!-- Node1&#45;&gt;Node20 -->
<g id="edge22" class="edge"><title>Node1&#45;&gt;Node20</title>
<path fill="none" stroke="midnightblue" d="M2474.6,-151.829C2461.25,-154.394 2447.71,-156.994 2435.21,-159.395"/>
<polygon fill="midnightblue" stroke="midnightblue" points="2475.59,-155.202 2484.75,-149.878 2474.27,-148.327 2475.59,-155.202"/>
</g>
<!-- Node29 -->
<g id="node29" class="node"><title>Node29</title>
<g id="a_node29"><a xlink:href="../../d6/d9e/struct_indoor_location.html#ae4bbb8d9c7bf0ba0363691cf7f54e80a" target="_top" xlink:title=" ">
<polygon fill="white" stroke="black" points="2122,-54.5 2122,-73.5 2273,-73.5 2273,-54.5 2122,-54.5"/>
<text text-anchor="middle" x="2197.5" y="-61.5" font-family="Helvetica,sans-Serif" font-size="10.00">IndoorLocation::ExecDraw_d3d</text>
</a>
</g>
</g>
<!-- Node1&#45;&gt;Node29 -->
<g id="edge34" class="edge"><title>Node1&#45;&gt;Node29</title>
<path fill="none" stroke="midnightblue" d="M2520.53,-116.245C2500.08,-106.09 2473.78,-94.5095 2449,-88 2391.11,-72.7939 2323.44,-66.9897 2273.04,-64.8793"/>
<polygon fill="midnightblue" stroke="midnightblue" points="2518.98,-119.384 2529.48,-120.787 2522.15,-113.141 2518.98,-119.384"/>
</g>
<!-- Node4 -->
<g id="node4" class="node"><title>Node4</title>
<g id="a_node4"><a xlink:href="../../da/dc7/_indoor_8h.html#a534cdbc98d19d62d4851f971866fb86c" target="_top" xlink:title=" ">
<polygon fill="white" stroke="black" points="1406,-101.5 1406,-120.5 1537,-120.5 1537,-101.5 1406,-101.5"/>
<text text-anchor="middle" x="1471.5" y="-108.5" font-family="Helvetica,sans-Serif" font-size="10.00">AddBspNodeToRenderList</text>
</a>
</g>
</g>
<!-- Node3&#45;&gt;Node4 -->
<g id="edge3" class="edge"><title>Node3&#45;&gt;Node4</title>
<path fill="none" stroke="midnightblue" d="M1728.57,-105.01C1668.67,-103.828 1591.03,-104.025 1537.02,-105.599"/>
<polygon fill="midnightblue" stroke="midnightblue" points="1728.71,-108.514 1738.78,-105.229 1728.86,-101.515 1728.71,-108.514"/>
</g>
<!-- Node19 -->
<g id="node19" class="node"><title>Node19</title>
<g id="a_node19"><a xlink:href="../../da/dc7/_indoor_8h.html#ae2667035ea8706bfcff7d3238e367296" target="_top" xlink:title=" ">
<polygon fill="white" stroke="black" points="1602,-148.5 1602,-167.5 1674,-167.5 1674,-148.5 1602,-148.5"/>
<text text-anchor="middle" x="1638" y="-155.5" font-family="Helvetica,sans-Serif" font-size="10.00">sub_4406BC</text>
</a>
</g>
</g>
<!-- Node3&#45;&gt;Node19 -->
<g id="edge19" class="edge"><title>Node3&#45;&gt;Node19</title>
<path fill="none" stroke="midnightblue" d="M1750.72,-128.584C1724.71,-135.431 1695.99,-142.995 1674.18,-148.738"/>
<polygon fill="midnightblue" stroke="midnightblue" points="1751.75,-131.931 1760.53,-126 1749.97,-125.162 1751.75,-131.931"/>
</g>
<!-- Node4&#45;&gt;Node3 -->
<g id="edge4" class="edge"><title>Node4&#45;&gt;Node3</title>
<path fill="none" stroke="midnightblue" d="M1547.32,-116.678C1603.87,-118.076 1681.31,-118.107 1738.78,-116.771"/>
<polygon fill="midnightblue" stroke="midnightblue" points="1547.11,-113.171 1537.02,-116.401 1546.92,-120.168 1547.11,-113.171"/>
</g>
<!-- Node5 -->
<g id="node5" class="node"><title>Node5</title>
<g id="a_node5"><a xlink:href="../../da/dc7/_indoor_8h.html#a0073e365c3163911ee4db4a32c7de350" target="_top" xlink:title=" ">
<polygon fill="white" stroke="black" points="1232,-97.5 1232,-116.5 1370,-116.5 1370,-97.5 1232,-97.5"/>
<text text-anchor="middle" x="1301" y="-104.5" font-family="Helvetica,sans-Serif" font-size="10.00">PrepareBspRenderList_BLV</text>
</a>
</g>
</g>
<!-- Node4&#45;&gt;Node5 -->
<g id="edge5" class="edge"><title>Node4&#45;&gt;Node5</title>
<path fill="none" stroke="midnightblue" d="M1395.58,-109.222C1387.11,-109.02 1378.51,-108.816 1370.13,-108.617"/>
<polygon fill="midnightblue" stroke="midnightblue" points="1395.76,-112.727 1405.84,-109.465 1395.92,-105.729 1395.76,-112.727"/>
</g>
<!-- Node6 -->
<g id="node6" class="node"><title>Node6</title>
<g id="a_node6"><a xlink:href="../../da/dc7/_indoor_8h.html#ab7663442878fb1d9ce8c4293f7206c0e" target="_top" xlink:title=" ">
<polygon fill="white" stroke="black" points="1079,-96.5 1079,-115.5 1196,-115.5 1196,-96.5 1079,-96.5"/>
<text text-anchor="middle" x="1137.5" y="-103.5" font-family="Helvetica,sans-Serif" font-size="10.00">PrepareDrawLists_BLV</text>
</a>
</g>
</g>
<!-- Node5&#45;&gt;Node6 -->
<g id="edge6" class="edge"><title>Node5&#45;&gt;Node6</title>
<path fill="none" stroke="midnightblue" d="M1221.87,-106.516C1213.23,-106.463 1204.55,-106.409 1196.22,-106.357"/>
<polygon fill="midnightblue" stroke="midnightblue" points="1221.96,-110.017 1231.98,-106.579 1222,-103.017 1221.96,-110.017"/>
</g>
<!-- Node7 -->
<g id="node7" class="node"><title>Node7</title>
<g id="a_node7"><a xlink:href="../../d6/d9e/struct_indoor_location.html#a9ae5b2800115059413e4baf166a91859" target="_top" xlink:title=" ">
<polygon fill="white" stroke="black" points="936,-76.5 936,-95.5 1043,-95.5 1043,-76.5 936,-76.5"/>
<text text-anchor="middle" x="989.5" y="-83.5" font-family="Helvetica,sans-Serif" font-size="10.00">IndoorLocation::Draw</text>
</a>
</g>
</g>
<!-- Node6&#45;&gt;Node7 -->
<g id="edge7" class="edge"><title>Node6&#45;&gt;Node7</title>
<path fill="none" stroke="midnightblue" d="M1068.74,-96.7179C1060.11,-95.5357 1051.38,-94.34 1043.04,-93.1975"/>
<polygon fill="midnightblue" stroke="midnightblue" points="1068.41,-100.206 1078.8,-98.0955 1069.36,-93.2706 1068.41,-100.206"/>
</g>
<!-- Node8 -->
<g id="node8" class="node"><title>Node8</title>
<g id="a_node8"><a xlink:href="../../d6/d11/_u_i_arena_8h.html#ad46b571b6ee5f3df6c7a39113d768cc4" target="_top" xlink:title=" ">
<polygon fill="white" stroke="black" points="804.5,-114.5 804.5,-133.5 868.5,-133.5 868.5,-114.5 804.5,-114.5"/>
<text text-anchor="middle" x="836.5" y="-121.5" font-family="Helvetica,sans-Serif" font-size="10.00">ArenaFight</text>
</a>
</g>
</g>
<!-- Node7&#45;&gt;Node8 -->
<g id="edge8" class="edge"><title>Node7&#45;&gt;Node8</title>
<path fill="none" stroke="midnightblue" d="M940.645,-98.043C917.229,-103.936 889.697,-110.864 868.971,-116.08"/>
<polygon fill="midnightblue" stroke="midnightblue" points="941.553,-101.424 950.396,-95.589 939.844,-94.6354 941.553,-101.424"/>
</g>
<!-- Node14 -->
<g id="node14" class="node"><title>Node14</title>
<g id="a_node14"><a xlink:href="../../d6/d83/struct_engine.html#ac098ab29cbcd7352879d0101aaf4b827" target="_top" xlink:title=" ">
<polygon fill="white" stroke="black" points="799.5,-76.5 799.5,-95.5 873.5,-95.5 873.5,-76.5 799.5,-76.5"/>
<text text-anchor="middle" x="836.5" y="-83.5" font-family="Helvetica,sans-Serif" font-size="10.00">Engine::Draw</text>
</a>
</g>
</g>
<!-- Node7&#45;&gt;Node14 -->
<g id="edge14" class="edge"><title>Node7&#45;&gt;Node14</title>
<path fill="none" stroke="midnightblue" d="M925.474,-86C907.895,-86 889.388,-86 873.909,-86"/>
<polygon fill="midnightblue" stroke="midnightblue" points="925.688,-89.5001 935.688,-86 925.687,-82.5001 925.688,-89.5001"/>
</g>
<!-- Node15 -->
<g id="node15" class="node"><title>Node15</title>
<g id="a_node15"><a xlink:href="../../da/d7f/class_render.html#a63751fa9863192dbf6cb82162e02dcb2" target="_top" xlink:title=" ">
<polygon fill="white" stroke="black" points="773,-38.5 773,-57.5 900,-57.5 900,-38.5 773,-38.5"/>
<text text-anchor="middle" x="836.5" y="-45.5" font-family="Helvetica,sans-Serif" font-size="10.00">Render::MakeScreenshot</text>
</a>
</g>
</g>
<!-- Node7&#45;&gt;Node15 -->
<g id="edge15" class="edge"><title>Node7&#45;&gt;Node15</title>
<path fill="none" stroke="midnightblue" d="M940.657,-73.96C919.561,-68.6512 895.123,-62.5012 875.33,-57.5201"/>
<polygon fill="midnightblue" stroke="midnightblue" points="939.844,-77.3646 950.396,-76.411 941.553,-70.5763 939.844,-77.3646"/>
</g>
<!-- Node9 -->
<g id="node9" class="node"><title>Node9</title>
<g id="a_node9"><a xlink:href="../../d6/d82/_u_i_dialogue_8h.html#a0213da862a4f9421ada12d4bfff8a710" target="_top" xlink:title=" ">
<polygon fill="white" stroke="black" points="594,-114.5 594,-133.5 737,-133.5 737,-114.5 594,-114.5"/>
<text text-anchor="middle" x="665.5" y="-121.5" font-family="Helvetica,sans-Serif" font-size="10.00">OnSelectNPCDialogueOption</text>
</a>
</g>
</g>
<!-- Node8&#45;&gt;Node9 -->
<g id="edge9" class="edge"><title>Node8&#45;&gt;Node9</title>
<path fill="none" stroke="midnightblue" d="M793.926,-124C776.853,-124 756.596,-124 737.315,-124"/>
<polygon fill="midnightblue" stroke="midnightblue" points="794.108,-127.5 804.108,-124 794.108,-120.5 794.108,-127.5"/>
</g>
<!-- Node10 -->
<g id="node10" class="node"><title>Node10</title>
<g id="a_node10"><a xlink:href="../../d4/d06/class_application_1_1_game.html#a3f65e3f0ef1a9114fb3dea275e52442e" target="_top" xlink:title=" ">
<polygon fill="white" stroke="black" points="455,-109 455,-139 558,-139 558,-109 455,-109"/>
<text text-anchor="start" x="463" y="-127" font-family="Helvetica,sans-Serif" font-size="10.00">Application::Game::</text>
<text text-anchor="middle" x="506.5" y="-116" font-family="Helvetica,sans-Serif" font-size="10.00">EventLoop</text>
</a>
</g>
</g>
<!-- Node9&#45;&gt;Node10 -->
<g id="edge10" class="edge"><title>Node9&#45;&gt;Node10</title>
<path fill="none" stroke="midnightblue" d="M583.611,-124C574.918,-124 566.265,-124 558.077,-124"/>
<polygon fill="midnightblue" stroke="midnightblue" points="583.808,-127.5 593.808,-124 583.808,-120.5 583.808,-127.5"/>
</g>
<!-- Node11 -->
<g id="node11" class="node"><title>Node11</title>
<g id="a_node11"><a xlink:href="../../d4/d06/class_application_1_1_game.html#aaa0ff18388b32b4e6198835a35e000d3" target="_top" xlink:title=" ">
<polygon fill="white" stroke="black" points="316,-109 316,-139 419,-139 419,-109 316,-109"/>
<text text-anchor="start" x="324" y="-127" font-family="Helvetica,sans-Serif" font-size="10.00">Application::Game::</text>
<text text-anchor="middle" x="367.5" y="-116" font-family="Helvetica,sans-Serif" font-size="10.00">GameLoop</text>
</a>
</g>
</g>
<!-- Node10&#45;&gt;Node11 -->
<g id="edge11" class="edge"><title>Node10&#45;&gt;Node11</title>
<path fill="none" stroke="midnightblue" d="M444.68,-124C436.228,-124 427.618,-124 419.374,-124"/>
<polygon fill="midnightblue" stroke="midnightblue" points="444.876,-127.5 454.875,-124 444.875,-120.5 444.876,-127.5"/>
</g>
<!-- Node12 -->
<g id="node12" class="node"><title>Node12</title>
<g id="a_node12"><a xlink:href="../../d4/d06/class_application_1_1_game.html#a013ffd59e8fdf1c0a396da1dbe1681ca" target="_top" xlink:title=" ">
<polygon fill="white" stroke="black" points="156,-114.5 156,-133.5 280,-133.5 280,-114.5 156,-114.5"/>
<text text-anchor="middle" x="218" y="-121.5" font-family="Helvetica,sans-Serif" font-size="10.00">Application::Game::Loop</text>
</a>
</g>
</g>
<!-- Node11&#45;&gt;Node12 -->
<g id="edge12" class="edge"><title>Node11&#45;&gt;Node12</title>
<path fill="none" stroke="midnightblue" d="M305.59,-124C297.149,-124 288.478,-124 280.035,-124"/>
<polygon fill="midnightblue" stroke="midnightblue" points="305.739,-127.5 315.739,-124 305.739,-120.5 305.739,-127.5"/>
</g>
<!-- Node13 -->
<g id="node13" class="node"><title>Node13</title>
<g id="a_node13"><a xlink:href="../../d4/d06/class_application_1_1_game.html#a96341ca5b54d90adc3ecb3bf0bcd2312" target="_top" xlink:title=" ">
<polygon fill="white" stroke="black" points="0,-114.5 0,-133.5 120,-133.5 120,-114.5 0,-114.5"/>
<text text-anchor="middle" x="60" y="-121.5" font-family="Helvetica,sans-Serif" font-size="10.00">Application::Game::Run</text>
</a>
</g>
</g>
<!-- Node12&#45;&gt;Node13 -->
<g id="edge13" class="edge"><title>Node12&#45;&gt;Node13</title>
<path fill="none" stroke="midnightblue" d="M145.546,-124C137.081,-124 128.513,-124 120.244,-124"/>
<polygon fill="midnightblue" stroke="midnightblue" points="145.792,-127.5 155.792,-124 145.792,-120.5 145.792,-127.5"/>
</g>
<!-- Node16 -->
<g id="node16" class="node"><title>Node16</title>
<g id="a_node16"><a xlink:href="../../da/d7f/class_render.html#af7b173c00dc50795552fbcabd3e59295" target="_top" xlink:title=" ">
<polygon fill="white" stroke="black" points="603,-0.5 603,-19.5 728,-19.5 728,-0.5 603,-0.5"/>
<text text-anchor="middle" x="665.5" y="-7.5" font-family="Helvetica,sans-Serif" font-size="10.00">Render::PackScreenshot</text>
</a>
</g>
</g>
<!-- Node15&#45;&gt;Node16 -->
<g id="edge16" class="edge"><title>Node15&#45;&gt;Node16</title>
<path fill="none" stroke="midnightblue" d="M782.913,-36.1757C759.087,-30.8184 731.293,-24.5689 708.839,-19.5201"/>
<polygon fill="midnightblue" stroke="midnightblue" points="782.33,-39.6319 792.854,-38.411 783.866,-32.8024 782.33,-39.6319"/>
</g>
<!-- Node17 -->
<g id="node17" class="node"><title>Node17</title>
<g id="a_node17"><a xlink:href="../../da/d7f/class_render.html#a88afa2691444045e4bcc2c91034d0dbb" target="_top" xlink:title=" ">
<polygon fill="white" stroke="black" points="603.5,-76.5 603.5,-95.5 727.5,-95.5 727.5,-76.5 603.5,-76.5"/>
<text text-anchor="middle" x="665.5" y="-83.5" font-family="Helvetica,sans-Serif" font-size="10.00">Render::SaveScreenshot</text>
</a>
</g>
</g>
<!-- Node15&#45;&gt;Node17 -->
<g id="edge17" class="edge"><title>Node15&#45;&gt;Node17</title>
<path fill="none" stroke="midnightblue" d="M782.913,-59.8243C759.087,-65.1816 731.293,-71.4311 708.839,-76.4799"/>
<polygon fill="midnightblue" stroke="midnightblue" points="783.866,-63.1976 792.854,-57.589 782.33,-56.3681 783.866,-63.1976"/>
</g>
<!-- Node18 -->
<g id="node18" class="node"><title>Node18</title>
<g id="a_node18"><a xlink:href="../../da/d7f/class_render.html#a72e0525411a241d2e40d63ef38fc1b6d" target="_top" xlink:title=" ">
<polygon fill="white" stroke="black" points="603.5,-38.5 603.5,-57.5 727.5,-57.5 727.5,-38.5 603.5,-38.5"/>
<text text-anchor="middle" x="665.5" y="-45.5" font-family="Helvetica,sans-Serif" font-size="10.00">Render::TakeScreenshot</text>
</a>
</g>
</g>
<!-- Node15&#45;&gt;Node18 -->
<g id="edge18" class="edge"><title>Node15&#45;&gt;Node18</title>
<path fill="none" stroke="midnightblue" d="M762.435,-48C750.788,-48 738.846,-48 727.517,-48"/>
<polygon fill="midnightblue" stroke="midnightblue" points="762.571,-51.5001 772.571,-48 762.571,-44.5001 762.571,-51.5001"/>
</g>
<!-- Node19&#45;&gt;Node4 -->
<g id="edge20" class="edge"><title>Node19&#45;&gt;Node4</title>
<path fill="none" stroke="midnightblue" d="M1593.97,-145.705C1566.5,-137.857 1531.42,-127.833 1506.02,-120.578"/>
<polygon fill="midnightblue" stroke="midnightblue" points="1593.13,-149.107 1603.71,-148.489 1595.06,-142.376 1593.13,-149.107"/>
</g>
<!-- Node19&#45;&gt;Node19 -->
<g id="edge21" class="edge"><title>Node19&#45;&gt;Node19</title>
<path fill="none" stroke="midnightblue" d="M1669.06,-176.275C1668.18,-181.741 1657.82,-186 1638,-186 1608.5,-186 1599.97,-176.565 1612.41,-167.757"/>
<polygon fill="midnightblue" stroke="midnightblue" points="1671.94,-174.275 1663.59,-167.757 1666.05,-178.061 1671.94,-174.275"/>
</g>
<!-- Node21 -->
<g id="node21" class="node"><title>Node21</title>
<g id="a_node21"><a xlink:href="../../d0/da9/structstru10.html#a094fe8f00c5e38adcd8c5eb49bfb89c9" target="_top" xlink:title=" ">
<polygon fill="white" stroke="black" points="1944.5,-278.5 1944.5,-297.5 2075.5,-297.5 2075.5,-278.5 1944.5,-278.5"/>
<text text-anchor="middle" x="2010" y="-285.5" font-family="Helvetica,sans-Serif" font-size="10.00">stru10::CalcFaceBounding</text>
</a>
</g>
</g>
<!-- Node20&#45;&gt;Node21 -->
<g id="edge23" class="edge"><title>Node20&#45;&gt;Node21</title>
<path fill="none" stroke="midnightblue" d="M2322.29,-188.854C2317.74,-190.796 2313.25,-192.851 2309,-195 2291.84,-203.671 2290.54,-211.111 2273,-219 2205.98,-249.153 2123.17,-268.203 2068.81,-278.47"/>
<polygon fill="midnightblue" stroke="midnightblue" points="2323.75,-192.04 2331.7,-185.031 2321.11,-185.555 2323.75,-192.04"/>
</g>
<!-- Node24 -->
<g id="node24" class="node"><title>Node24</title>
<g id="a_node24"><a xlink:href="../../d9/de5/struct_indoor_camera_d3_d.html#abd36d14d321f50e9a10ea7ecc41b685d" target="_top" xlink:title=" ">
<polygon fill="white" stroke="black" points="2133.5,-180 2133.5,-210 2261.5,-210 2261.5,-180 2133.5,-180"/>
<text text-anchor="start" x="2141.5" y="-198" font-family="Helvetica,sans-Serif" font-size="10.00">IndoorCameraD3D::debug</text>
<text text-anchor="middle" x="2197.5" y="-187" font-family="Helvetica,sans-Serif" font-size="10.00">_outline_sw</text>
</a>
</g>
</g>
<!-- Node20&#45;&gt;Node24 -->
<g id="edge26" class="edge"><title>Node20&#45;&gt;Node24</title>
<path fill="none" stroke="midnightblue" d="M2312.55,-179.116C2295.99,-181.422 2278.25,-183.893 2261.8,-186.184"/>
<polygon fill="midnightblue" stroke="midnightblue" points="2313.26,-182.551 2322.68,-177.705 2312.29,-175.618 2313.26,-182.551"/>
</g>
<!-- Node22 -->
<g id="node22" class="node"><title>Node22</title>
<g id="a_node22"><a xlink:href="../../d0/da9/structstru10.html#ad0f015a8c888fbecbbf95a0e52e90dbf" target="_top" xlink:title=" ">
<polygon fill="white" stroke="black" points="1773,-297.5 1773,-316.5 1864,-316.5 1864,-297.5 1773,-297.5"/>
<text text-anchor="middle" x="1818.5" y="-304.5" font-family="Helvetica,sans-Serif" font-size="10.00">stru10::_49C5DA</text>
</a>
</g>
</g>
<!-- Node21&#45;&gt;Node22 -->
<g id="edge24" class="edge"><title>Node21&#45;&gt;Node22</title>
<path fill="none" stroke="midnightblue" d="M1934.28,-295.492C1910.57,-297.869 1885.11,-300.422 1864.2,-302.518"/>
<polygon fill="midnightblue" stroke="midnightblue" points="1934.71,-298.966 1944.31,-294.486 1934.02,-292.001 1934.71,-298.966"/>
</g>
<!-- Node23 -->
<g id="node23" class="node"><title>Node23</title>
<g id="a_node23"><a xlink:href="../../d0/da9/structstru10.html#aeb7dc7356430a339e07a67f28b4bb9fb" target="_top" xlink:title=" ">
<polygon fill="white" stroke="black" points="1757.5,-259.5 1757.5,-278.5 1879.5,-278.5 1879.5,-259.5 1757.5,-259.5"/>
<text text-anchor="middle" x="1818.5" y="-266.5" font-family="Helvetica,sans-Serif" font-size="10.00">stru10::CalcPortalShape</text>
</a>
</g>
</g>
<!-- Node21&#45;&gt;Node23 -->
<g id="edge25" class="edge"><title>Node21&#45;&gt;Node23</title>
<path fill="none" stroke="midnightblue" d="M1934.12,-280.492C1916.08,-278.683 1897.03,-276.773 1879.75,-275.041"/>
<polygon fill="midnightblue" stroke="midnightblue" points="1934.02,-283.999 1944.31,-281.514 1934.71,-277.034 1934.02,-283.999"/>
</g>
<!-- Node24&#45;&gt;Node21 -->
<g id="edge27" class="edge"><title>Node24&#45;&gt;Node21</title>
<path fill="none" stroke="midnightblue" d="M2169.64,-216.344C2148.11,-232.535 2116.55,-254.276 2086,-268 2076.66,-272.197 2066.25,-275.664 2056.24,-278.466"/>
<polygon fill="midnightblue" stroke="midnightblue" points="2171.83,-219.073 2177.66,-210.222 2167.59,-213.509 2171.83,-219.073"/>
</g>
<!-- Node25 -->
<g id="node25" class="node"><title>Node25</title>
<g id="a_node25"><a xlink:href="../../d8/d95/class_lightmap_builder.html#aef2fb3ebafd32bb64a6361d676deb21d" target="_top" xlink:title=" ">
<polygon fill="white" stroke="black" points="1939,-180 1939,-210 2081,-210 2081,-180 1939,-180"/>
<text text-anchor="start" x="1947" y="-198" font-family="Helvetica,sans-Serif" font-size="10.00">LightmapBuilder::DrawDebug</text>
<text text-anchor="middle" x="2010" y="-187" font-family="Helvetica,sans-Serif" font-size="10.00">Outlines</text>
</a>
</g>
</g>
<!-- Node24&#45;&gt;Node25 -->
<g id="edge28" class="edge"><title>Node24&#45;&gt;Node25</title>
<path fill="none" stroke="midnightblue" d="M2123.04,-195C2109.26,-195 2094.89,-195 2081.21,-195"/>
<polygon fill="midnightblue" stroke="midnightblue" points="2123.44,-198.5 2133.44,-195 2123.44,-191.5 2123.44,-198.5"/>
</g>
<!-- Node27 -->
<g id="node27" class="node"><title>Node27</title>
<g id="a_node27"><a xlink:href="../../d9/d57/struct_decal_builder.html#a8e0f0fb01b607f76b0515ff059832cb9" target="_top" xlink:title=" ">
<polygon fill="white" stroke="black" points="1934,-229 1934,-259 2086,-259 2086,-229 1934,-229"/>
<text text-anchor="start" x="1942" y="-247" font-family="Helvetica,sans-Serif" font-size="10.00">DecalBuilder::DrawDecalDebug</text>
<text text-anchor="middle" x="2010" y="-236" font-family="Helvetica,sans-Serif" font-size="10.00">Outlines</text>
</a>
</g>
</g>
<!-- Node24&#45;&gt;Node27 -->
<g id="edge30" class="edge"><title>Node24&#45;&gt;Node27</title>
<path fill="none" stroke="midnightblue" d="M2129.78,-212.623C2109.49,-217.984 2087.39,-223.823 2067.81,-228.994"/>
<polygon fill="midnightblue" stroke="midnightblue" points="2130.81,-215.973 2139.58,-210.035 2129.02,-209.205 2130.81,-215.973"/>
</g>
<!-- Node28 -->
<g id="node28" class="node"><title>Node28</title>
<g id="a_node28"><a xlink:href="../../d9/de5/struct_indoor_camera_d3_d.html#a134a720abb12b3a8df61a8424f9a3a43" target="_top" xlink:title=" ">
<polygon fill="white" stroke="black" points="1942.5,-131 1942.5,-161 2077.5,-161 2077.5,-131 1942.5,-131"/>
<text text-anchor="start" x="1950.5" y="-149" font-family="Helvetica,sans-Serif" font-size="10.00">IndoorCameraD3D::Prepare</text>
<text text-anchor="middle" x="2010" y="-138" font-family="Helvetica,sans-Serif" font-size="10.00">AndDrawDebugOutline</text>
</a>
</g>
</g>
<!-- Node24&#45;&gt;Node28 -->
<g id="edge32" class="edge"><title>Node24&#45;&gt;Node28</title>
<path fill="none" stroke="midnightblue" d="M2129.78,-177.377C2109.49,-172.016 2087.39,-166.177 2067.81,-161.006"/>
<polygon fill="midnightblue" stroke="midnightblue" points="2129.02,-180.795 2139.58,-179.965 2130.81,-174.027 2129.02,-180.795"/>
</g>
<!-- Node26 -->
<g id="node26" class="node"><title>Node26</title>
<g id="a_node26"><a xlink:href="../../d6/d83/struct_engine.html#ace24d17cf16e22312b6ed05f17f82774" target="_top" xlink:title=" ">
<polygon fill="white" stroke="black" points="1766.5,-195 1766.5,-225 1870.5,-225 1870.5,-195 1766.5,-195"/>
<text text-anchor="start" x="1774.5" y="-213" font-family="Helvetica,sans-Serif" font-size="10.00">Engine::draw_debug</text>
<text text-anchor="middle" x="1818.5" y="-202" font-family="Helvetica,sans-Serif" font-size="10.00">_outlines</text>
</a>
</g>
</g>
<!-- Node25&#45;&gt;Node26 -->
<g id="edge29" class="edge"><title>Node25&#45;&gt;Node26</title>
<path fill="none" stroke="midnightblue" d="M1928.77,-201.351C1909.06,-202.911 1888.49,-204.539 1870.58,-205.956"/>
<polygon fill="midnightblue" stroke="midnightblue" points="1929.28,-204.821 1938.98,-200.543 1928.73,-197.843 1929.28,-204.821"/>
</g>
<!-- Node27&#45;&gt;Node26 -->
<g id="edge31" class="edge"><title>Node27&#45;&gt;Node26</title>
<path fill="none" stroke="midnightblue" d="M1923.82,-228.717C1905.68,-225.462 1887.06,-222.122 1870.67,-219.182"/>
<polygon fill="midnightblue" stroke="midnightblue" points="1923.37,-232.192 1933.83,-230.513 1924.61,-225.302 1923.37,-232.192"/>
</g>
<!-- Node28&#45;&gt;Node3 -->
<g id="edge33" class="edge"><title>Node28&#45;&gt;Node3</title>
<path fill="none" stroke="midnightblue" d="M1932.61,-131.892C1921.29,-129.8 1909.6,-127.642 1898.23,-125.541"/>
<polygon fill="midnightblue" stroke="midnightblue" points="1931.99,-135.335 1942.46,-133.71 1933.26,-128.451 1931.99,-135.335"/>
</g>
<!-- Node30 -->
<g id="node30" class="node"><title>Node30</title>
<g id="a_node30"><a xlink:href="../../d6/d9e/struct_indoor_location.html#a516e1c27dd9a52514320f2fe824166e1" target="_top" xlink:title=" ">
<polygon fill="white" stroke="black" points="1573,-54.5 1573,-73.5 1703,-73.5 1703,-54.5 1573,-54.5"/>
<text text-anchor="middle" x="1638" y="-61.5" font-family="Helvetica,sans-Serif" font-size="10.00">IndoorLocation::ExecDraw</text>
</a>
</g>
</g>
<!-- Node29&#45;&gt;Node30 -->
<g id="edge35" class="edge"><title>Node29&#45;&gt;Node30</title>
<path fill="none" stroke="midnightblue" d="M2111.63,-64C1999.38,-64 1804.02,-64 1703.23,-64"/>
<polygon fill="midnightblue" stroke="midnightblue" points="2111.89,-67.5001 2121.89,-64 2111.89,-60.5001 2111.89,-67.5001"/>
</g>
<!-- Node30&#45;&gt;Node7 -->
<g id="edge36" class="edge"><title>Node30&#45;&gt;Node7</title>
<path fill="none" stroke="midnightblue" d="M1562.92,-66.521C1430.87,-71.0145 1157.93,-80.3025 1043.16,-84.208"/>
<polygon fill="midnightblue" stroke="midnightblue" points="1563.07,-70.0179 1572.94,-66.1798 1562.83,-63.022 1563.07,-70.0179"/>
</g>
</g>
</svg>
