<?xml version="1.0" encoding="UTF-8" standalone="no"?>
<!DOCTYPE svg PUBLIC "-//W3C//DTD SVG 1.1//EN"
 "http://www.w3.org/Graphics/SVG/1.1/DTD/svg11.dtd">
<!-- Generated by graphviz version 2.38.0 (20140413.2041)
 -->
<!-- Title: _calc_fov Pages: 1 -->
<svg width="1464pt" height="218pt"
 viewBox="0.00 0.00 1464.00 218.00" xmlns="http://www.w3.org/2000/svg" xmlns:xlink="http://www.w3.org/1999/xlink">
<g id="graph0" class="graph" transform="scale(1 1) rotate(0) translate(4 214)">
<title>_calc_fov</title>
<polygon fill="white" stroke="none" points="-4,4 -4,-214 1460,-214 1460,4 -4,4"/>
<!-- Node1 -->
<g id="node1" class="node"><title>Node1</title>
<g id="a_node1"><a xlink:title=" ">
<polygon fill="#bfbfbf" stroke="black" points="1400,-145.5 1400,-164.5 1456,-164.5 1456,-145.5 1400,-145.5"/>
<text text-anchor="middle" x="1428" y="-152.5" font-family="Helvetica,sans-Serif" font-size="10.00">_calc_fov</text>
</a>
</g>
</g>
<!-- Node2 -->
<g id="node2" class="node"><title>Node2</title>
<g id="a_node2"><a xlink:href="../../da/d7f/class_render.html#a57d2d7f050fddc07ddeae91113ce420d" target="_top" xlink:title=" ">
<polygon fill="white" stroke="black" points="1239,-183.5 1239,-202.5 1358,-202.5 1358,-183.5 1239,-183.5"/>
<text text-anchor="middle" x="1298.5" y="-190.5" font-family="Helvetica,sans-Serif" font-size="10.00">Render::DrawIndoorSky</text>
</a>
</g>
</g>
<!-- Node1&#45;&gt;Node2 -->
<g id="edge1" class="edge"><title>Node1&#45;&gt;Node2</title>
<path fill="none" stroke="midnightblue" d="M1390.34,-165.925C1371.74,-171.47 1349.35,-178.142 1331.46,-183.475"/>
<polygon fill="midnightblue" stroke="midnightblue" points="1391.38,-169.269 1399.96,-163.059 1389.38,-162.561 1391.38,-169.269"/>
</g>
<!-- Node3 -->
<g id="node3" class="node"><title>Node3</title>
<g id="a_node3"><a xlink:href="../../dc/dfb/_outdoor_8h.html#ad0b6920041533cc49817c0c848c6b3b5" target="_top" xlink:title=" ">
<polygon fill="white" stroke="black" points="1079,-150.5 1079,-169.5 1197,-169.5 1197,-150.5 1079,-150.5"/>
<text text-anchor="middle" x="1138" y="-157.5" font-family="Helvetica,sans-Serif" font-size="10.00">ODM_LoadAndInitialize</text>
</a>
</g>
</g>
<!-- Node1&#45;&gt;Node3 -->
<g id="edge2" class="edge"><title>Node1&#45;&gt;Node3</title>
<path fill="none" stroke="midnightblue" d="M1389.79,-155.646C1340.96,-156.494 1254.74,-157.991 1197.23,-158.989"/>
<polygon fill="midnightblue" stroke="midnightblue" points="1389.97,-159.144 1399.91,-155.47 1389.85,-152.145 1389.97,-159.144"/>
</g>
<!-- Node11 -->
<g id="node11" class="node"><title>Node11</title>
<g id="a_node11"><a xlink:href="../../d4/d1d/struct_b_l_v_render_params.html#a6bf33fd531d6d4020ebc74f813c07e2e" target="_top" xlink:title=" ">
<polygon fill="white" stroke="black" points="1233,-98.5 1233,-117.5 1364,-117.5 1364,-98.5 1233,-98.5"/>
<text text-anchor="middle" x="1298.5" y="-105.5" font-family="Helvetica,sans-Serif" font-size="10.00">BLVRenderParams::Reset</text>
</a>
</g>
</g>
<!-- Node1&#45;&gt;Node11 -->
<g id="edge12" class="edge"><title>Node1&#45;&gt;Node11</title>
<path fill="none" stroke="midnightblue" d="M1391.7,-141.989C1370.8,-134.284 1344.77,-124.688 1325.7,-117.658"/>
<polygon fill="midnightblue" stroke="midnightblue" points="1390.61,-145.314 1401.2,-145.489 1393.03,-138.746 1390.61,-145.314"/>
</g>
<!-- Node4 -->
<g id="node4" class="node"><title>Node4</title>
<g id="a_node4"><a xlink:href="../../de/dcf/_engine_8h.html#a5cf7667eb3b81f9acbc63bdf01528452" target="_top" xlink:title=" ">
<polygon fill="white" stroke="black" points="784.5,-152.5 784.5,-171.5 888.5,-171.5 888.5,-152.5 784.5,-152.5"/>
<text text-anchor="middle" x="836.5" y="-159.5" font-family="Helvetica,sans-Serif" font-size="10.00">PrepareToLoadODM</text>
</a>
</g>
</g>
<!-- Node3&#45;&gt;Node4 -->
<g id="edge3" class="edge"><title>Node3&#45;&gt;Node4</title>
<path fill="none" stroke="midnightblue" d="M1068.6,-160.457C1013.96,-160.822 938.557,-161.325 888.946,-161.656"/>
<polygon fill="midnightblue" stroke="midnightblue" points="1068.92,-163.955 1078.9,-160.388 1068.88,-156.955 1068.92,-163.955"/>
</g>
<!-- Node5 -->
<g id="node5" class="node"><title>Node5</title>
<g id="a_node5"><a xlink:href="../../de/dcf/_engine_8h.html#a7ac85aa3f91f16b9f3007f4d7f1b419a" target="_top" xlink:title=" ">
<polygon fill="white" stroke="black" points="621.5,-190.5 621.5,-209.5 709.5,-209.5 709.5,-190.5 621.5,-190.5"/>
<text text-anchor="middle" x="665.5" y="-197.5" font-family="Helvetica,sans-Serif" font-size="10.00">DoPrepareWorld</text>
</a>
</g>
</g>
<!-- Node4&#45;&gt;Node5 -->
<g id="edge4" class="edge"><title>Node4&#45;&gt;Node5</title>
<path fill="none" stroke="midnightblue" d="M782.913,-173.824C759.087,-179.182 731.293,-185.431 708.839,-190.48"/>
<polygon fill="midnightblue" stroke="midnightblue" points="783.866,-177.198 792.854,-171.589 782.33,-170.368 783.866,-177.198"/>
</g>
<!-- Node10 -->
<g id="node10" class="node"><title>Node10</title>
<g id="a_node10"><a xlink:href="../../d4/d06/class_application_1_1_game.html#a3f65e3f0ef1a9114fb3dea275e52442e" target="_top" xlink:title=" ">
<polygon fill="white" stroke="black" points="455,-125 455,-155 558,-155 558,-125 455,-125"/>
<text text-anchor="start" x="463" y="-143" font-family="Helvetica,sans-Serif" font-size="10.00">Application::Game::</text>
<text text-anchor="middle" x="506.5" y="-132" font-family="Helvetica,sans-Serif" font-size="10.00">EventLoop</text>
</a>
</g>
</g>
<!-- Node4&#45;&gt;Node10 -->
<g id="edge10" class="edge"><title>Node4&#45;&gt;Node10</title>
<path fill="none" stroke="midnightblue" d="M774.155,-157.885C711.793,-153.703 616.309,-147.298 558.121,-143.395"/>
<polygon fill="midnightblue" stroke="midnightblue" points="774.038,-161.385 784.25,-158.563 774.507,-154.401 774.038,-161.385"/>
</g>
<!-- Node6 -->
<g id="node6" class="node"><title>Node6</title>
<g id="a_node6"><a xlink:href="../../d4/d06/class_application_1_1_game.html#aaa0ff18388b32b4e6198835a35e000d3" target="_top" xlink:title=" ">
<polygon fill="white" stroke="black" points="316,-169 316,-199 419,-199 419,-169 316,-169"/>
<text text-anchor="start" x="324" y="-187" font-family="Helvetica,sans-Serif" font-size="10.00">Application::Game::</text>
<text text-anchor="middle" x="367.5" y="-176" font-family="Helvetica,sans-Serif" font-size="10.00">GameLoop</text>
</a>
</g>
</g>
<!-- Node5&#45;&gt;Node6 -->
<g id="edge5" class="edge"><title>Node5&#45;&gt;Node6</title>
<path fill="none" stroke="midnightblue" d="M611.316,-204.337C568.869,-206.938 507.952,-208.747 455,-203 443.383,-201.739 431.04,-199.552 419.426,-197.101"/>
<polygon fill="midnightblue" stroke="midnightblue" points="611.672,-207.821 621.424,-203.681 611.218,-200.836 611.672,-207.821"/>
</g>
<!-- Node9 -->
<g id="node9" class="node"><title>Node9</title>
<g id="a_node9"><a xlink:href="../../de/dcf/_engine_8h.html#a287d13406d42b0831d9eb7a64d368202" target="_top" xlink:title=" ">
<polygon fill="white" stroke="black" points="468.5,-174.5 468.5,-193.5 544.5,-193.5 544.5,-174.5 468.5,-174.5"/>
<text text-anchor="middle" x="506.5" y="-181.5" font-family="Helvetica,sans-Serif" font-size="10.00">PrepareWorld</text>
</a>
</g>
</g>
<!-- Node5&#45;&gt;Node9 -->
<g id="edge8" class="edge"><title>Node5&#45;&gt;Node9</title>
<path fill="none" stroke="midnightblue" d="M611.038,-194.552C589.159,-192.322 564.382,-189.797 544.552,-187.776"/>
<polygon fill="midnightblue" stroke="midnightblue" points="610.88,-198.054 621.183,-195.586 611.59,-191.09 610.88,-198.054"/>
</g>
<!-- Node7 -->
<g id="node7" class="node"><title>Node7</title>
<g id="a_node7"><a xlink:href="../../d4/d06/class_application_1_1_game.html#a013ffd59e8fdf1c0a396da1dbe1681ca" target="_top" xlink:title=" ">
<polygon fill="white" stroke="black" points="156,-174.5 156,-193.5 280,-193.5 280,-174.5 156,-174.5"/>
<text text-anchor="middle" x="218" y="-181.5" font-family="Helvetica,sans-Serif" font-size="10.00">Application::Game::Loop</text>
</a>
</g>
</g>
<!-- Node6&#45;&gt;Node7 -->
<g id="edge6" class="edge"><title>Node6&#45;&gt;Node7</title>
<path fill="none" stroke="midnightblue" d="M305.59,-184C297.149,-184 288.478,-184 280.035,-184"/>
<polygon fill="midnightblue" stroke="midnightblue" points="305.739,-187.5 315.739,-184 305.739,-180.5 305.739,-187.5"/>
</g>
<!-- Node8 -->
<g id="node8" class="node"><title>Node8</title>
<g id="a_node8"><a xlink:href="../../d4/d06/class_application_1_1_game.html#a96341ca5b54d90adc3ecb3bf0bcd2312" target="_top" xlink:title=" ">
<polygon fill="white" stroke="black" points="0,-174.5 0,-193.5 120,-193.5 120,-174.5 0,-174.5"/>
<text text-anchor="middle" x="60" y="-181.5" font-family="Helvetica,sans-Serif" font-size="10.00">Application::Game::Run</text>
</a>
</g>
</g>
<!-- Node7&#45;&gt;Node8 -->
<g id="edge7" class="edge"><title>Node7&#45;&gt;Node8</title>
<path fill="none" stroke="midnightblue" d="M145.546,-184C137.081,-184 128.513,-184 120.244,-184"/>
<polygon fill="midnightblue" stroke="midnightblue" points="145.792,-187.5 155.792,-184 145.792,-180.5 145.792,-187.5"/>
</g>
<!-- Node9&#45;&gt;Node6 -->
<g id="edge9" class="edge"><title>Node9&#45;&gt;Node6</title>
<path fill="none" stroke="midnightblue" d="M458.16,-184C445.594,-184 431.974,-184 419.235,-184"/>
<polygon fill="midnightblue" stroke="midnightblue" points="458.426,-187.5 468.426,-184 458.426,-180.5 458.426,-187.5"/>
</g>
<!-- Node10&#45;&gt;Node6 -->
<g id="edge11" class="edge"><title>Node10&#45;&gt;Node6</title>
<path fill="none" stroke="midnightblue" d="M449.076,-158.121C437.92,-161.704 426.323,-165.429 415.519,-168.899"/>
<polygon fill="midnightblue" stroke="midnightblue" points="450.285,-161.41 458.736,-155.019 448.144,-154.745 450.285,-161.41"/>
</g>
<!-- Node12 -->
<g id="node12" class="node"><title>Node12</title>
<g id="a_node12"><a xlink:href="../../da/dc7/_indoor_8h.html#ab7663442878fb1d9ce8c4293f7206c0e" target="_top" xlink:title=" ">
<polygon fill="white" stroke="black" points="1079.5,-79.5 1079.5,-98.5 1196.5,-98.5 1196.5,-79.5 1079.5,-79.5"/>
<text text-anchor="middle" x="1138" y="-86.5" font-family="Helvetica,sans-Serif" font-size="10.00">PrepareDrawLists_BLV</text>
</a>
</g>
</g>
<!-- Node11&#45;&gt;Node12 -->
<g id="edge13" class="edge"><title>Node11&#45;&gt;Node12</title>
<path fill="none" stroke="midnightblue" d="M1222.47,-99.0056C1213.81,-97.9678 1205.09,-96.9219 1196.71,-95.9177"/>
<polygon fill="midnightblue" stroke="midnightblue" points="1222.23,-102.502 1232.57,-100.217 1223.06,-95.5517 1222.23,-102.502"/>
</g>
<!-- Node13 -->
<g id="node13" class="node"><title>Node13</title>
<g id="a_node13"><a xlink:href="../../d6/d9e/struct_indoor_location.html#a9ae5b2800115059413e4baf166a91859" target="_top" xlink:title=" ">
<polygon fill="white" stroke="black" points="936,-77.5 936,-96.5 1043,-96.5 1043,-77.5 936,-77.5"/>
<text text-anchor="middle" x="989.5" y="-84.5" font-family="Helvetica,sans-Serif" font-size="10.00">IndoorLocation::Draw</text>
</a>
</g>
</g>
<!-- Node12&#45;&gt;Node13 -->
<g id="edge14" class="edge"><title>Node12&#45;&gt;Node13</title>
<path fill="none" stroke="midnightblue" d="M1069.01,-88.0718C1060.35,-87.9536 1051.59,-87.834 1043.22,-87.7197"/>
<polygon fill="midnightblue" stroke="midnightblue" points="1069.05,-91.5726 1079.1,-88.2095 1069.15,-84.5733 1069.05,-91.5726"/>
</g>
<!-- Node14 -->
<g id="node14" class="node"><title>Node14</title>
<g id="a_node14"><a xlink:href="../../d6/d11/_u_i_arena_8h.html#ad46b571b6ee5f3df6c7a39113d768cc4" target="_top" xlink:title=" ">
<polygon fill="white" stroke="black" points="804.5,-114.5 804.5,-133.5 868.5,-133.5 868.5,-114.5 804.5,-114.5"/>
<text text-anchor="middle" x="836.5" y="-121.5" font-family="Helvetica,sans-Serif" font-size="10.00">ArenaFight</text>
</a>
</g>
</g>
<!-- Node13&#45;&gt;Node14 -->
<g id="edge15" class="edge"><title>Node13&#45;&gt;Node14</title>
<path fill="none" stroke="midnightblue" d="M939.872,-98.9155C916.504,-104.641 889.186,-111.335 868.65,-116.367"/>
<polygon fill="midnightblue" stroke="midnightblue" points="940.734,-102.308 949.614,-96.5284 939.068,-95.509 940.734,-102.308"/>
</g>
<!-- Node16 -->
<g id="node16" class="node"><title>Node16</title>
<g id="a_node16"><a xlink:href="../../d6/d83/struct_engine.html#ac098ab29cbcd7352879d0101aaf4b827" target="_top" xlink:title=" ">
<polygon fill="white" stroke="black" points="799.5,-76.5 799.5,-95.5 873.5,-95.5 873.5,-76.5 799.5,-76.5"/>
<text text-anchor="middle" x="836.5" y="-83.5" font-family="Helvetica,sans-Serif" font-size="10.00">Engine::Draw</text>
</a>
</g>
</g>
<!-- Node13&#45;&gt;Node16 -->
<g id="edge18" class="edge"><title>Node13&#45;&gt;Node16</title>
<path fill="none" stroke="midnightblue" d="M925.474,-86.5826C907.895,-86.4662 889.388,-86.3436 873.909,-86.2411"/>
<polygon fill="midnightblue" stroke="midnightblue" points="925.665,-90.0839 935.688,-86.6502 925.711,-83.084 925.665,-90.0839"/>
</g>
<!-- Node17 -->
<g id="node17" class="node"><title>Node17</title>
<g id="a_node17"><a xlink:href="../../da/d7f/class_render.html#a63751fa9863192dbf6cb82162e02dcb2" target="_top" xlink:title=" ">
<polygon fill="white" stroke="black" points="773,-38.5 773,-57.5 900,-57.5 900,-38.5 773,-38.5"/>
<text text-anchor="middle" x="836.5" y="-45.5" font-family="Helvetica,sans-Serif" font-size="10.00">Render::MakeScreenshot</text>
</a>
</g>
</g>
<!-- Node13&#45;&gt;Node17 -->
<g id="edge19" class="edge"><title>Node13&#45;&gt;Node17</title>
<path fill="none" stroke="midnightblue" d="M941.875,-74.9578C920.149,-69.3463 894.666,-62.7647 874.319,-57.5095"/>
<polygon fill="midnightblue" stroke="midnightblue" points="941.004,-78.3475 951.561,-77.4595 942.754,-71.5699 941.004,-78.3475"/>
</g>
<!-- Node15 -->
<g id="node15" class="node"><title>Node15</title>
<g id="a_node15"><a xlink:href="../../d6/d82/_u_i_dialogue_8h.html#a0213da862a4f9421ada12d4bfff8a710" target="_top" xlink:title=" ">
<polygon fill="white" stroke="black" points="594,-114.5 594,-133.5 737,-133.5 737,-114.5 594,-114.5"/>
<text text-anchor="middle" x="665.5" y="-121.5" font-family="Helvetica,sans-Serif" font-size="10.00">OnSelectNPCDialogueOption</text>
</a>
</g>
</g>
<!-- Node14&#45;&gt;Node15 -->
<g id="edge16" class="edge"><title>Node14&#45;&gt;Node15</title>
<path fill="none" stroke="midnightblue" d="M793.926,-124C776.853,-124 756.596,-124 737.315,-124"/>
<polygon fill="midnightblue" stroke="midnightblue" points="794.108,-127.5 804.108,-124 794.108,-120.5 794.108,-127.5"/>
</g>
<!-- Node15&#45;&gt;Node10 -->
<g id="edge17" class="edge"><title>Node15&#45;&gt;Node10</title>
<path fill="none" stroke="midnightblue" d="M583.611,-132.243C574.918,-133.129 566.265,-134.011 558.077,-134.846"/>
<polygon fill="midnightblue" stroke="midnightblue" points="584.214,-135.7 593.808,-131.204 583.504,-128.736 584.214,-135.7"/>
</g>
<!-- Node18 -->
<g id="node18" class="node"><title>Node18</title>
<g id="a_node18"><a xlink:href="../../da/d7f/class_render.html#af7b173c00dc50795552fbcabd3e59295" target="_top" xlink:title=" ">
<polygon fill="white" stroke="black" points="603,-76.5 603,-95.5 728,-95.5 728,-76.5 603,-76.5"/>
<text text-anchor="middle" x="665.5" y="-83.5" font-family="Helvetica,sans-Serif" font-size="10.00">Render::PackScreenshot</text>
</a>
</g>
</g>
<!-- Node17&#45;&gt;Node18 -->
<g id="edge20" class="edge"><title>Node17&#45;&gt;Node18</title>
<path fill="none" stroke="midnightblue" d="M782.913,-59.8243C759.087,-65.1816 731.293,-71.4311 708.839,-76.4799"/>
<polygon fill="midnightblue" stroke="midnightblue" points="783.866,-63.1976 792.854,-57.589 782.33,-56.3681 783.866,-63.1976"/>
</g>
<!-- Node19 -->
<g id="node19" class="node"><title>Node19</title>
<g id="a_node19"><a xlink:href="../../da/d7f/class_render.html#a88afa2691444045e4bcc2c91034d0dbb" target="_top" xlink:title=" ">
<polygon fill="white" stroke="black" points="603.5,-38.5 603.5,-57.5 727.5,-57.5 727.5,-38.5 603.5,-38.5"/>
<text text-anchor="middle" x="665.5" y="-45.5" font-family="Helvetica,sans-Serif" font-size="10.00">Render::SaveScreenshot</text>
</a>
</g>
</g>
<!-- Node17&#45;&gt;Node19 -->
<g id="edge21" class="edge"><title>Node17&#45;&gt;Node19</title>
<path fill="none" stroke="midnightblue" d="M762.435,-48C750.788,-48 738.846,-48 727.517,-48"/>
<polygon fill="midnightblue" stroke="midnightblue" points="762.571,-51.5001 772.571,-48 762.571,-44.5001 762.571,-51.5001"/>
</g>
<!-- Node20 -->
<g id="node20" class="node"><title>Node20</title>
<g id="a_node20"><a xlink:href="../../da/d7f/class_render.html#a72e0525411a241d2e40d63ef38fc1b6d" target="_top" xlink:title=" ">
<polygon fill="white" stroke="black" points="603.5,-0.5 603.5,-19.5 727.5,-19.5 727.5,-0.5 603.5,-0.5"/>
<text text-anchor="middle" x="665.5" y="-7.5" font-family="Helvetica,sans-Serif" font-size="10.00">Render::TakeScreenshot</text>
</a>
</g>
</g>
<!-- Node17&#45;&gt;Node20 -->
<g id="edge22" class="edge"><title>Node17&#45;&gt;Node20</title>
<path fill="none" stroke="midnightblue" d="M782.913,-36.1757C759.087,-30.8184 731.293,-24.5689 708.839,-19.5201"/>
<polygon fill="midnightblue" stroke="midnightblue" points="782.33,-39.6319 792.854,-38.411 783.866,-32.8024 782.33,-39.6319"/>
</g>
</g>
</svg>
