<?xml version="1.0" encoding="UTF-8" standalone="no"?>
<!DOCTYPE svg PUBLIC "-//W3C//DTD SVG 1.1//EN"
 "http://www.w3.org/Graphics/SVG/1.1/DTD/svg11.dtd">
<!-- Generated by graphviz version 2.38.0 (20140413.2041)
 -->
<!-- Title: ParseSpecialAttack Pages: 1 -->
<svg width="590pt" height="28pt"
 viewBox="0.00 0.00 590.00 28.00" xmlns="http://www.w3.org/2000/svg" xmlns:xlink="http://www.w3.org/1999/xlink">
<g id="graph0" class="graph" transform="scale(1 1) rotate(0) translate(4 24)">
<title>ParseSpecialAttack</title>
<polygon fill="white" stroke="none" points="-4,4 -4,-24 586,-24 586,4 -4,4"/>
<!-- Node1 -->
<g id="node1" class="node"><title>Node1</title>
<g id="a_node1"><a xlink:title=" ">
<polygon fill="#bfbfbf" stroke="black" points="479,-0.5 479,-19.5 582,-19.5 582,-0.5 479,-0.5"/>
<text text-anchor="middle" x="530.5" y="-7.5" font-family="Helvetica,sans-Serif" font-size="10.00">ParseSpecialAttack</text>
</a>
</g>
</g>
<!-- Node2 -->
<g id="node2" class="node"><title>Node2</title>
<g id="a_node2"><a xlink:href="../../d3/df5/struct_monster_stats.html#ada5d123ee7311388eec7ad71ade75502" target="_top" xlink:title=" ">
<polygon fill="white" stroke="black" points="327,-0.5 327,-19.5 443,-19.5 443,-0.5 327,-0.5"/>
<text text-anchor="middle" x="385" y="-7.5" font-family="Helvetica,sans-Serif" font-size="10.00">MonsterStats::Initialize</text>
</a>
</g>
</g>
<!-- Node1&#45;&gt;Node2 -->
<g id="edge1" class="edge"><title>Node1&#45;&gt;Node2</title>
<path fill="none" stroke="midnightblue" d="M468.804,-10C460.412,-10 451.812,-10 443.48,-10"/>
<polygon fill="midnightblue" stroke="midnightblue" points="468.907,-13.5001 478.907,-10 468.907,-6.5001 468.907,-13.5001"/>
</g>
<!-- Node3 -->
<g id="node3" class="node"><title>Node3</title>
<g id="a_node3"><a xlink:href="../../db/d39/struct_items_table.html#af507af2013932cb2f645c67507a11820" target="_top" xlink:title=" ">
<polygon fill="white" stroke="black" points="186,-0.5 186,-19.5 291,-19.5 291,-0.5 186,-0.5"/>
<text text-anchor="middle" x="238.5" y="-7.5" font-family="Helvetica,sans-Serif" font-size="10.00">ItemsTable::Initialize</text>
</a>
</g>
</g>
<!-- Node2&#45;&gt;Node3 -->
<g id="edge2" class="edge"><title>Node2&#45;&gt;Node3</title>
<path fill="none" stroke="midnightblue" d="M316.801,-10C308.143,-10 299.388,-10 291.037,-10"/>
<polygon fill="midnightblue" stroke="midnightblue" points="316.89,-13.5001 326.89,-10 316.89,-6.5001 316.89,-13.5001"/>
</g>
<!-- Node4 -->
<g id="node4" class="node"><title>Node4</title>
<g id="a_node4"><a xlink:href="../../d6/d83/struct_engine.html#af028add00f4a849c60d0afa42da04a08" target="_top" xlink:title=" ">
<polygon fill="white" stroke="black" points="0,-0.5 0,-19.5 150,-19.5 150,-0.5 0,-0.5"/>
<text text-anchor="middle" x="75" y="-7.5" font-family="Helvetica,sans-Serif" font-size="10.00">Engine::SecondaryInitialization</text>
</a>
</g>
</g>
<!-- Node3&#45;&gt;Node4 -->
<g id="edge3" class="edge"><title>Node3&#45;&gt;Node4</title>
<path fill="none" stroke="midnightblue" d="M175.83,-10C167.386,-10 158.647,-10 150.011,-10"/>
<polygon fill="midnightblue" stroke="midnightblue" points="175.956,-13.5001 185.956,-10 175.956,-6.5001 175.956,-13.5001"/>
</g>
</g>
</svg>
