<?xml version="1.0" encoding="UTF-8" standalone="no"?>
<!DOCTYPE svg PUBLIC "-//W3C//DTD SVG 1.1//EN"
 "http://www.w3.org/Graphics/SVG/1.1/DTD/svg11.dtd">
<!-- Generated by graphviz version 2.38.0 (20140413.2041)
 -->
<!-- Title: ParseSpellType Pages: 1 -->
<svg width="203pt" height="66pt"
 viewBox="0.00 0.00 203.00 66.00" xmlns="http://www.w3.org/2000/svg" xmlns:xlink="http://www.w3.org/1999/xlink">
<g id="graph0" class="graph" transform="scale(1 1) rotate(0) translate(4 62)">
<title>ParseSpellType</title>
<polygon fill="white" stroke="none" points="-4,4 -4,-62 199,-62 199,4 -4,4"/>
<!-- Node1 -->
<g id="node1" class="node"><title>Node1</title>
<g id="a_node1"><a xlink:title=" ">
<polygon fill="#bfbfbf" stroke="black" points="0,-19.5 0,-38.5 85,-38.5 85,-19.5 0,-19.5"/>
<text text-anchor="middle" x="42.5" y="-26.5" font-family="Helvetica,sans-Serif" font-size="10.00">ParseSpellType</text>
</a>
</g>
</g>
<!-- Node2 -->
<g id="node2" class="node"><title>Node2</title>
<g id="a_node2"><a xlink:href="../../d8/d44/_strings_8cpp.html#aebf99e80337d8db0a005aebe8a13fb7f" target="_top" xlink:title=" ">
<polygon fill="white" stroke="black" points="125.5,-38.5 125.5,-57.5 190.5,-57.5 190.5,-38.5 125.5,-38.5"/>
<text text-anchor="middle" x="158" y="-45.5" font-family="Helvetica,sans-Serif" font-size="10.00">StringPrintf</text>
</a>
</g>
</g>
<!-- Node1&#45;&gt;Node2 -->
<g id="edge1" class="edge"><title>Node1&#45;&gt;Node2</title>
<path fill="none" stroke="midnightblue" d="M85.1187,-35.967C94.9795,-37.6177 105.498,-39.3785 115.36,-41.0294"/>
<polygon fill="midnightblue" stroke="midnightblue" points="114.903,-44.5016 125.344,-42.7007 116.059,-37.5976 114.903,-44.5016"/>
</g>
<!-- Node3 -->
<g id="node3" class="node"><title>Node3</title>
<g id="a_node3"><a xlink:href="../../d6/d70/class_log.html#ac0de2621497ca3b2fbf208624c08bcdf" target="_top" xlink:title=" ">
<polygon fill="white" stroke="black" points="121,-0.5 121,-19.5 195,-19.5 195,-0.5 121,-0.5"/>
<text text-anchor="middle" x="158" y="-7.5" font-family="Helvetica,sans-Serif" font-size="10.00">Log::Warning</text>
</a>
</g>
</g>
<!-- Node1&#45;&gt;Node3 -->
<g id="edge2" class="edge"><title>Node1&#45;&gt;Node3</title>
<path fill="none" stroke="midnightblue" d="M85.1187,-22.033C93.5768,-20.6171 102.519,-19.1202 111.115,-17.6812"/>
<polygon fill="midnightblue" stroke="midnightblue" points="111.713,-21.1299 120.998,-16.0268 110.557,-14.226 111.713,-21.1299"/>
</g>
</g>
</svg>
