<?xml version="1.0" encoding="UTF-8" standalone="no"?>
<!DOCTYPE svg PUBLIC "-//W3C//DTD SVG 1.1//EN"
 "http://www.w3.org/Graphics/SVG/1.1/DTD/svg11.dtd">
<!-- Generated by graphviz version 2.38.0 (20140413.2041)
 -->
<!-- Title: BspRenderer Pages: 1 -->
<svg width="421pt" height="240pt"
 viewBox="0.00 0.00 421.00 240.00" xmlns="http://www.w3.org/2000/svg" xmlns:xlink="http://www.w3.org/1999/xlink">
<g id="graph0" class="graph" transform="scale(1 1) rotate(0) translate(4 236)">
<title>BspRenderer</title>
<polygon fill="white" stroke="none" points="-4,4 -4,-236 417,-236 417,4 -4,4"/>
<!-- Node1 -->
<g id="node1" class="node"><title>Node1</title>
<g id="a_node1"><a xlink:title=" ">
<polygon fill="#bfbfbf" stroke="black" points="91,-0.5 91,-19.5 164,-19.5 164,-0.5 91,-0.5"/>
<text text-anchor="middle" x="127.5" y="-7.5" font-family="Helvetica,sans-Serif" font-size="10.00">BspRenderer</text>
</a>
</g>
</g>
<!-- Node2 -->
<g id="node2" class="node"><title>Node2</title>
<g id="a_node2"><a xlink:href="../../d2/db2/struct_bsp_face.html" target="_top" xlink:title=" ">
<polygon fill="white" stroke="black" points="63.5,-67.5 63.5,-86.5 119.5,-86.5 119.5,-67.5 63.5,-67.5"/>
<text text-anchor="middle" x="91.5" y="-74.5" font-family="Helvetica,sans-Serif" font-size="10.00">BspFace</text>
</a>
</g>
</g>
<!-- Node2&#45;&gt;Node1 -->
<g id="edge1" class="edge"><title>Node2&#45;&gt;Node1</title>
<path fill="none" stroke="#9a32cd" stroke-dasharray="5,2" d="M101.379,-58.1635C108.321,-45.6281 117.303,-29.4104 122.722,-19.6273"/>
<polygon fill="#9a32cd" stroke="#9a32cd" points="98.1384,-56.7901 96.3551,-67.2338 104.262,-60.1817 98.1384,-56.7901"/>
<text text-anchor="middle" x="126" y="-41" font-family="Helvetica,sans-Serif" font-size="10.00"> faces</text>
</g>
<!-- Node3 -->
<g id="node3" class="node"><title>Node3</title>
<g id="a_node3"><a xlink:href="../../d5/de2/struct_bsp_renderer__stru0.html" target="_top" xlink:title=" ">
<polygon fill="white" stroke="black" points="137.5,-67.5 137.5,-86.5 237.5,-86.5 237.5,-67.5 137.5,-67.5"/>
<text text-anchor="middle" x="187.5" y="-74.5" font-family="Helvetica,sans-Serif" font-size="10.00">BspRenderer_stru0</text>
</a>
</g>
</g>
<!-- Node3&#45;&gt;Node1 -->
<g id="edge2" class="edge"><title>Node3&#45;&gt;Node1</title>
<path fill="none" stroke="#9a32cd" stroke-dasharray="5,2" d="M172.394,-59.6348C160.659,-46.9228 144.852,-29.7978 135.464,-19.6273"/>
<polygon fill="#9a32cd" stroke="#9a32cd" points="170.053,-62.2597 179.408,-67.2338 175.197,-57.5118 170.053,-62.2597"/>
<text text-anchor="middle" x="176.5" y="-41" font-family="Helvetica,sans-Serif" font-size="10.00"> nodes</text>
</g>
<!-- Node4 -->
<g id="node4" class="node"><title>Node4</title>
<g id="a_node4"><a xlink:href="../../da/d76/struct_indoor_camera_d3_d___vec4.html" target="_top" xlink:title=" ">
<polygon fill="white" stroke="black" points="0,-134.5 0,-153.5 123,-153.5 123,-134.5 0,-134.5"/>
<text text-anchor="middle" x="61.5" y="-141.5" font-family="Helvetica,sans-Serif" font-size="10.00">IndoorCameraD3D_Vec4</text>
</a>
</g>
</g>
<!-- Node4&#45;&gt;Node3 -->
<g id="edge3" class="edge"><title>Node4&#45;&gt;Node3</title>
<path fill="none" stroke="#9a32cd" stroke-dasharray="5,2" d="M71.1507,-125.773C76.0694,-118.407 82.6726,-110.3 90.5,-105 104.395,-95.5911 121.51,-89.442 137.475,-85.431"/>
<polygon fill="#9a32cd" stroke="#9a32cd" points="68.0819,-124.083 65.8557,-134.441 74.0556,-127.732 68.0819,-124.083"/>
<text text-anchor="middle" x="137" y="-108" font-family="Helvetica,sans-Serif" font-size="10.00"> std__vector_0007AC</text>
</g>
<!-- Node5 -->
<g id="node5" class="node"><title>Node5</title>
<g id="a_node5"><a xlink:href="../../d8/deb/struct_indoor_camera_d3_d___vec3.html" target="_top" xlink:title=" ">
<polygon fill="white" stroke="black" points="0,-212.5 0,-231.5 123,-231.5 123,-212.5 0,-212.5"/>
<text text-anchor="middle" x="61.5" y="-219.5" font-family="Helvetica,sans-Serif" font-size="10.00">IndoorCameraD3D_Vec3</text>
</a>
</g>
</g>
<!-- Node5&#45;&gt;Node4 -->
<g id="edge4" class="edge"><title>Node5&#45;&gt;Node4</title>
<path fill="none" stroke="midnightblue" d="M61.5,-202.224C61.5,-186.697 61.5,-165.358 61.5,-153.616"/>
<polygon fill="midnightblue" stroke="midnightblue" points="58.0001,-202.282 61.5,-212.282 65.0001,-202.282 58.0001,-202.282"/>
</g>
<!-- Node6 -->
<g id="node6" class="node"><title>Node6</title>
<g id="a_node6"><a xlink:href="../../db/d1a/struct_render_vertex_soft.html" target="_top" xlink:title=" ">
<polygon fill="white" stroke="black" points="141,-134.5 141,-153.5 234,-153.5 234,-134.5 141,-134.5"/>
<text text-anchor="middle" x="187.5" y="-141.5" font-family="Helvetica,sans-Serif" font-size="10.00">RenderVertexSoft</text>
</a>
</g>
</g>
<!-- Node6&#45;&gt;Node3 -->
<g id="edge5" class="edge"><title>Node6&#45;&gt;Node3</title>
<path fill="none" stroke="#9a32cd" stroke-dasharray="5,2" d="M187.5,-124.037C187.5,-111.67 187.5,-96.1198 187.5,-86.6273"/>
<polygon fill="#9a32cd" stroke="#9a32cd" points="184,-124.234 187.5,-134.234 191,-124.234 184,-124.234"/>
<text text-anchor="middle" x="225" y="-108" font-family="Helvetica,sans-Serif" font-size="10.00"> pPortalBounding</text>
</g>
<!-- Node7 -->
<g id="node7" class="node"><title>Node7</title>
<g id="a_node7"><a xlink:href="../../d5/d06/struct_vec3__float__.html" target="_top" xlink:title=" ">
<polygon fill="white" stroke="black" points="153.5,-212.5 153.5,-231.5 221.5,-231.5 221.5,-212.5 153.5,-212.5"/>
<text text-anchor="middle" x="187.5" y="-219.5" font-family="Helvetica,sans-Serif" font-size="10.00">Vec3_float_</text>
</a>
</g>
</g>
<!-- Node7&#45;&gt;Node6 -->
<g id="edge6" class="edge"><title>Node7&#45;&gt;Node6</title>
<path fill="none" stroke="#9a32cd" stroke-dasharray="5,2" d="M187.5,-202.224C187.5,-186.697 187.5,-165.358 187.5,-153.616"/>
<polygon fill="#9a32cd" stroke="#9a32cd" points="184,-202.282 187.5,-212.282 191,-202.282 184,-202.282"/>
<text text-anchor="middle" x="232" y="-186" font-family="Helvetica,sans-Serif" font-size="10.00"> vWorldViewPosition</text>
<text text-anchor="middle" x="232" y="-175" font-family="Helvetica,sans-Serif" font-size="10.00">vWorldPosition</text>
</g>
<!-- Node8 -->
<g id="node8" class="node"><title>Node8</title>
<g id="a_node8"><a xlink:href="../../df/d62/struct_bsp_renderer___portal_viewport_data.html" target="_top" xlink:title=" ">
<polygon fill="white" stroke="black" points="252,-134.5 252,-153.5 413,-153.5 413,-134.5 252,-134.5"/>
<text text-anchor="middle" x="332.5" y="-141.5" font-family="Helvetica,sans-Serif" font-size="10.00">BspRenderer_PortalViewportData</text>
</a>
</g>
</g>
<!-- Node8&#45;&gt;Node3 -->
<g id="edge7" class="edge"><title>Node8&#45;&gt;Node3</title>
<path fill="none" stroke="#9a32cd" stroke-dasharray="5,2" d="M310.436,-128.862C297.873,-121.181 281.66,-111.877 266.5,-105 250.528,-97.7549 232.006,-91.3268 216.912,-86.5619"/>
<polygon fill="#9a32cd" stroke="#9a32cd" points="308.914,-132.037 319.253,-134.351 312.614,-126.095 308.914,-132.037"/>
<text text-anchor="middle" x="327.5" y="-108" font-family="Helvetica,sans-Serif" font-size="10.00"> PortalScreenData</text>
</g>
</g>
</svg>
