<?xml version="1.0" encoding="UTF-8" standalone="no"?>
<!DOCTYPE svg PUBLIC "-//W3C//DTD SVG 1.1//EN"
 "http://www.w3.org/Graphics/SVG/1.1/DTD/svg11.dtd">
<!-- Generated by graphviz version 2.38.0 (20140413.2041)
 -->
<!-- Title: GetPortalScreenCoord Pages: 1 -->
<svg width="736pt" height="332pt"
 viewBox="0.00 0.00 736.00 332.00" xmlns="http://www.w3.org/2000/svg" xmlns:xlink="http://www.w3.org/1999/xlink">
<g id="graph0" class="graph" transform="scale(1 1) rotate(0) translate(4 328)">
<title>GetPortalScreenCoord</title>
<polygon fill="white" stroke="none" points="-4,4 -4,-328 732,-328 732,4 -4,4"/>
<!-- Node1 -->
<g id="node1" class="node"><title>Node1</title>
<g id="a_node1"><a xlink:title=" ">
<polygon fill="#bfbfbf" stroke="black" points="0,-95.5 0,-114.5 114,-114.5 114,-95.5 0,-95.5"/>
<text text-anchor="middle" x="57" y="-102.5" font-family="Helvetica,sans-Serif" font-size="10.00">GetPortalScreenCoord</text>
</a>
</g>
</g>
<!-- Node2 -->
<g id="node2" class="node"><title>Node2</title>
<g id="a_node2"><a xlink:href="../../d9/de5/struct_indoor_camera_d3_d.html#af04075096c589252a652649d3e2bb443" target="_top" xlink:title=" ">
<polygon fill="white" stroke="black" points="150,-202 150,-232 308,-232 308,-202 150,-202"/>
<text text-anchor="start" x="158" y="-220" font-family="Helvetica,sans-Serif" font-size="10.00">IndoorCameraD3D::ApplyView</text>
<text text-anchor="middle" x="229" y="-209" font-family="Helvetica,sans-Serif" font-size="10.00">Transform_TrueIfStillVisible_BLV</text>
</a>
</g>
</g>
<!-- Node1&#45;&gt;Node2 -->
<g id="edge1" class="edge"><title>Node1&#45;&gt;Node2</title>
<path fill="none" stroke="midnightblue" d="M72.4941,-114.549C99.8494,-132.571 159.652,-171.971 196.609,-196.319"/>
<polygon fill="midnightblue" stroke="midnightblue" points="194.753,-199.287 205.029,-201.866 198.604,-193.442 194.753,-199.287"/>
</g>
<!-- Node3 -->
<g id="node3" class="node"><title>Node3</title>
<g id="a_node3"><a xlink:href="../../de/db6/_our_math_8cpp.html#abc4811d26f9864e00046c39c39d65680" target="_top" xlink:title=" ">
<polygon fill="white" stroke="black" points="387,-304.5 387,-323.5 455,-323.5 455,-304.5 387,-304.5"/>
<text text-anchor="middle" x="421" y="-311.5" font-family="Helvetica,sans-Serif" font-size="10.00">fixpoint_mul</text>
</a>
</g>
</g>
<!-- Node1&#45;&gt;Node3 -->
<g id="edge11" class="edge"><title>Node1&#45;&gt;Node3</title>
<path fill="none" stroke="midnightblue" d="M61.6726,-114.696C71.7056,-139.837 102.071,-207.561 150,-242 218.985,-291.569 319.918,-307.013 376.82,-311.824"/>
<polygon fill="midnightblue" stroke="midnightblue" points="376.675,-315.323 386.915,-312.605 377.214,-308.344 376.675,-315.323"/>
</g>
<!-- Node6 -->
<g id="node6" class="node"><title>Node6</title>
<g id="a_node6"><a xlink:href="../../d6/dc9/structfixed.html#a77864f1a61a82980108874fc3709d9ef" target="_top" xlink:title=" ">
<polygon fill="white" stroke="black" points="550.5,-171.5 550.5,-190.5 612.5,-190.5 612.5,-171.5 550.5,-171.5"/>
<text text-anchor="middle" x="581.5" y="-178.5" font-family="Helvetica,sans-Serif" font-size="10.00">fixed::Raw</text>
</a>
</g>
</g>
<!-- Node1&#45;&gt;Node6 -->
<g id="edge15" class="edge"><title>Node1&#45;&gt;Node6</title>
<path fill="none" stroke="midnightblue" d="M114.204,-107.442C216.026,-112.265 427.032,-124.205 498,-143 517.945,-148.282 539.054,-158.092 554.926,-166.421"/>
<polygon fill="midnightblue" stroke="midnightblue" points="553.613,-169.689 564.075,-171.362 556.939,-163.53 553.613,-169.689"/>
</g>
<!-- Node10 -->
<g id="node10" class="node"><title>Node10</title>
<g id="a_node10"><a xlink:href="../../de/db6/_our_math_8cpp.html#a26d802a4465483f7c2f89657b75c9ebe" target="_top" xlink:title=" ">
<polygon fill="white" stroke="black" points="197,-76.5 197,-95.5 261,-95.5 261,-76.5 197,-76.5"/>
<text text-anchor="middle" x="229" y="-83.5" font-family="Helvetica,sans-Serif" font-size="10.00">fixpoint_div</text>
</a>
</g>
</g>
<!-- Node1&#45;&gt;Node10 -->
<g id="edge10" class="edge"><title>Node1&#45;&gt;Node10</title>
<path fill="none" stroke="midnightblue" d="M114.135,-98.726C137.74,-96.0879 164.714,-93.0732 186.481,-90.6404"/>
<polygon fill="midnightblue" stroke="midnightblue" points="187.162,-94.0862 196.711,-89.497 186.384,-87.1295 187.162,-94.0862"/>
</g>
<!-- Node11 -->
<g id="node11" class="node"><title>Node11</title>
<g id="a_node11"><a xlink:href="../../d6/dc9/structfixed.html#a5afca03668479a0abe9b6d9fcc2d3bd6" target="_top" xlink:title=" ">
<polygon fill="white" stroke="black" points="191,-38.5 191,-57.5 267,-57.5 267,-38.5 191,-38.5"/>
<text text-anchor="middle" x="229" y="-45.5" font-family="Helvetica,sans-Serif" font-size="10.00">fixed::FromInt</text>
</a>
</g>
</g>
<!-- Node1&#45;&gt;Node11 -->
<g id="edge12" class="edge"><title>Node1&#45;&gt;Node11</title>
<path fill="none" stroke="midnightblue" d="M78.4875,-95.4777C96.9112,-87.1714 124.864,-75.1996 150,-67 159.838,-63.7907 170.531,-60.8447 180.756,-58.2792"/>
<polygon fill="midnightblue" stroke="midnightblue" points="181.883,-61.6071 190.774,-55.845 180.231,-54.805 181.883,-61.6071"/>
</g>
<!-- Node12 -->
<g id="node12" class="node"><title>Node12</title>
<g id="a_node12"><a xlink:href="../../d9/ded/struct_b_l_v_face.html#a844dd21df457421f6e527684d67a35db" target="_top" xlink:title=" ">
<polygon fill="white" stroke="black" points="184.5,-0.5 184.5,-19.5 273.5,-19.5 273.5,-0.5 184.5,-0.5"/>
<text text-anchor="middle" x="229" y="-7.5" font-family="Helvetica,sans-Serif" font-size="10.00">BLVFace::Portal</text>
</a>
</g>
</g>
<!-- Node1&#45;&gt;Node12 -->
<g id="edge14" class="edge"><title>Node1&#45;&gt;Node12</title>
<path fill="none" stroke="midnightblue" d="M66.6552,-95.4564C81.8865,-79.2601 115.182,-46.4546 150,-29 157.612,-25.184 166.033,-22.1073 174.444,-19.6343"/>
<polygon fill="midnightblue" stroke="midnightblue" points="175.511,-22.9718 184.263,-17.0004 173.698,-16.2108 175.511,-22.9718"/>
</g>
<!-- Node2&#45;&gt;Node3 -->
<g id="edge2" class="edge"><title>Node2&#45;&gt;Node3</title>
<path fill="none" stroke="midnightblue" d="M247.743,-232.145C269.194,-249.712 307.036,-278.381 344,-295 354.352,-299.654 366.031,-303.293 377.072,-306.084"/>
<polygon fill="midnightblue" stroke="midnightblue" points="376.44,-309.531 386.976,-308.413 378.043,-302.717 376.44,-309.531"/>
</g>
<!-- Node4 -->
<g id="node4" class="node"><title>Node4</title>
<g id="a_node4"><a xlink:href="../../d6/dc9/structfixed.html#ad27ee11f1bd754c1dd01daf3f938cbbb" target="_top" xlink:title=" ">
<polygon fill="white" stroke="black" points="377.5,-266.5 377.5,-285.5 464.5,-285.5 464.5,-266.5 377.5,-266.5"/>
<text text-anchor="middle" x="421" y="-273.5" font-family="Helvetica,sans-Serif" font-size="10.00">fixed::FromFloat</text>
</a>
</g>
</g>
<!-- Node2&#45;&gt;Node4 -->
<g id="edge3" class="edge"><title>Node2&#45;&gt;Node4</title>
<path fill="none" stroke="midnightblue" d="M278.437,-232.041C309.75,-241.764 350.03,-254.272 379.611,-263.458"/>
<polygon fill="midnightblue" stroke="midnightblue" points="378.617,-266.814 389.205,-266.437 380.693,-260.129 378.617,-266.814"/>
</g>
<!-- Node2&#45;&gt;Node6 -->
<g id="edge9" class="edge"><title>Node2&#45;&gt;Node6</title>
<path fill="none" stroke="midnightblue" d="M308.058,-226.623C362.037,-231.089 435.166,-232.775 498,-219 518.537,-214.498 540.06,-204.378 555.971,-195.713"/>
<polygon fill="midnightblue" stroke="midnightblue" points="558.102,-198.529 565.094,-190.569 554.664,-192.432 558.102,-198.529"/>
</g>
<!-- Node8 -->
<g id="node8" class="node"><title>Node8</title>
<g id="a_node8"><a xlink:href="../../d9/de5/struct_indoor_camera_d3_d.html#ae44ac296d0d5225048b313e14edf7da1" target="_top" xlink:title=" ">
<polygon fill="white" stroke="black" points="347,-190.5 347,-209.5 495,-209.5 495,-190.5 347,-190.5"/>
<text text-anchor="middle" x="421" y="-197.5" font-family="Helvetica,sans-Serif" font-size="10.00">IndoorCameraD3D::GetFarClip</text>
</a>
</g>
</g>
<!-- Node2&#45;&gt;Node8 -->
<g id="edge7" class="edge"><title>Node2&#45;&gt;Node8</title>
<path fill="none" stroke="midnightblue" d="M308.103,-210.012C317.498,-209.171 327.122,-208.31 336.59,-207.463"/>
<polygon fill="midnightblue" stroke="midnightblue" points="337.135,-210.928 346.784,-206.551 336.511,-203.956 337.135,-210.928"/>
</g>
<!-- Node9 -->
<g id="node9" class="node"><title>Node9</title>
<g id="a_node9"><a xlink:href="../../d9/de5/struct_indoor_camera_d3_d.html#a6ade9a050aa9009a83e21461c6c470c4" target="_top" xlink:title=" ">
<polygon fill="white" stroke="black" points="344,-152.5 344,-171.5 498,-171.5 498,-152.5 344,-152.5"/>
<text text-anchor="middle" x="421" y="-159.5" font-family="Helvetica,sans-Serif" font-size="10.00">IndoorCameraD3D::GetNearClip</text>
</a>
</g>
</g>
<!-- Node2&#45;&gt;Node9 -->
<g id="edge8" class="edge"><title>Node2&#45;&gt;Node9</title>
<path fill="none" stroke="midnightblue" d="M275.298,-201.998C296.134,-195.277 321.231,-187.435 344,-181 352.463,-178.608 361.5,-176.212 370.281,-173.967"/>
<polygon fill="midnightblue" stroke="midnightblue" points="371.201,-177.345 380.041,-171.505 369.489,-170.558 371.201,-177.345"/>
</g>
<!-- Node5 -->
<g id="node5" class="node"><title>Node5</title>
<g id="a_node5"><a xlink:href="../../d0/dc0/_our_math_8h.html#a0291a2ad34d9448b49019f7be6a6e503" target="_top" xlink:title=" ">
<polygon fill="white" stroke="black" points="534,-266.5 534,-285.5 629,-285.5 629,-266.5 534,-266.5"/>
<text text-anchor="middle" x="581.5" y="-273.5" font-family="Helvetica,sans-Serif" font-size="10.00">fixpoint_from_float</text>
</a>
</g>
</g>
<!-- Node4&#45;&gt;Node5 -->
<g id="edge4" class="edge"><title>Node4&#45;&gt;Node5</title>
<path fill="none" stroke="midnightblue" d="M464.892,-276C483,-276 504.34,-276 523.725,-276"/>
<polygon fill="midnightblue" stroke="midnightblue" points="523.957,-279.5 533.956,-276 523.956,-272.5 523.957,-279.5"/>
</g>
<!-- Node4&#45;&gt;Node6 -->
<g id="edge5" class="edge"><title>Node4&#45;&gt;Node6</title>
<path fill="none" stroke="midnightblue" d="M462.702,-266.458C474.498,-262.826 487.121,-258.06 498,-252 523.866,-237.591 548.975,-214.222 564.564,-198.26"/>
<polygon fill="midnightblue" stroke="midnightblue" points="567.43,-200.325 571.801,-190.674 562.366,-195.493 567.43,-200.325"/>
</g>
<!-- Node7 -->
<g id="node7" class="node"><title>Node7</title>
<g id="a_node7"><a xlink:href="../../d6/dc9/structfixed.html#a35ab68b29d570ad4cdb6c752b344f7e2" target="_top" xlink:title=" ">
<polygon fill="white" stroke="black" points="665,-171.5 665,-190.5 728,-190.5 728,-171.5 665,-171.5"/>
<text text-anchor="middle" x="696.5" y="-178.5" font-family="Helvetica,sans-Serif" font-size="10.00">fixed::fixed</text>
</a>
</g>
</g>
<!-- Node6&#45;&gt;Node7 -->
<g id="edge6" class="edge"><title>Node6&#45;&gt;Node7</title>
<path fill="none" stroke="midnightblue" d="M612.782,-181C625.597,-181 640.725,-181 654.516,-181"/>
<polygon fill="midnightblue" stroke="midnightblue" points="654.741,-184.5 664.741,-181 654.741,-177.5 654.741,-184.5"/>
</g>
<!-- Node11&#45;&gt;Node6 -->
<g id="edge13" class="edge"><title>Node11&#45;&gt;Node6</title>
<path fill="none" stroke="midnightblue" d="M267.007,-50.921C320.539,-56.362 421.532,-71.255 498,-110 524.412,-123.383 549.398,-146.981 564.81,-163.277"/>
<polygon fill="midnightblue" stroke="midnightblue" points="562.607,-166.051 571.953,-171.04 567.758,-161.311 562.607,-166.051"/>
</g>
</g>
</svg>
