<?xml version="1.0" encoding="UTF-8" standalone="no"?>
<!DOCTYPE svg PUBLIC "-//W3C//DTD SVG 1.1//EN"
 "http://www.w3.org/Graphics/SVG/1.1/DTD/svg11.dtd">
<!-- Generated by graphviz version 2.38.0 (20140413.2041)
 -->
<!-- Title: sub_450521_ProllyDropItemAt Pages: 1 -->
<svg width="652pt" height="313pt"
 viewBox="0.00 0.00 652.00 313.00" xmlns="http://www.w3.org/2000/svg" xmlns:xlink="http://www.w3.org/1999/xlink">
<g id="graph0" class="graph" transform="scale(1 1) rotate(0) translate(4 309)">
<title>sub_450521_ProllyDropItemAt</title>
<polygon fill="white" stroke="none" points="-4,4 -4,-309 648,-309 648,4 -4,4"/>
<!-- Node1 -->
<g id="node1" class="node"><title>Node1</title>
<g id="a_node1"><a xlink:title=" ">
<polygon fill="#bfbfbf" stroke="black" points="0,-152.5 0,-171.5 148,-171.5 148,-152.5 0,-152.5"/>
<text text-anchor="middle" x="74" y="-159.5" font-family="Helvetica,sans-Serif" font-size="10.00">sub_450521_ProllyDropItemAt</text>
</a>
</g>
</g>
<!-- Node2 -->
<g id="node2" class="node"><title>Node2</title>
<g id="a_node2"><a xlink:href="../../d0/d5a/struct_sprite_object.html#acc34bdc1ca30537412a1509a39f98168" target="_top" xlink:title=" ">
<polygon fill="white" stroke="black" points="203.5,-247.5 203.5,-266.5 308.5,-266.5 308.5,-247.5 203.5,-247.5"/>
<text text-anchor="middle" x="256" y="-254.5" font-family="Helvetica,sans-Serif" font-size="10.00">SpriteObject::Create</text>
</a>
</g>
</g>
<!-- Node1&#45;&gt;Node2 -->
<g id="edge1" class="edge"><title>Node1&#45;&gt;Node2</title>
<path fill="none" stroke="midnightblue" d="M93.2499,-171.632C125.002,-188.39 190.563,-222.992 227.73,-242.608"/>
<polygon fill="midnightblue" stroke="midnightblue" points="226.492,-245.912 236.969,-247.484 229.759,-239.721 226.492,-245.912"/>
</g>
<!-- Node6 -->
<g id="node6" class="node"><title>Node6</title>
<g id="a_node6"><a xlink:href="../../db/d39/struct_items_table.html#a10efd092fd52f066de1e4b40cb8f5384" target="_top" xlink:title=" ">
<polygon fill="white" stroke="black" points="192,-114.5 192,-133.5 320,-133.5 320,-114.5 192,-114.5"/>
<text text-anchor="middle" x="256" y="-121.5" font-family="Helvetica,sans-Serif" font-size="10.00">ItemsTable::GenerateItem</text>
</a>
</g>
</g>
<!-- Node1&#45;&gt;Node6 -->
<g id="edge6" class="edge"><title>Node1&#45;&gt;Node6</title>
<path fill="none" stroke="midnightblue" d="M120.422,-152.411C144.603,-147.306 174.527,-140.989 200.014,-135.608"/>
<polygon fill="midnightblue" stroke="midnightblue" points="200.844,-139.01 209.905,-133.52 199.398,-132.161 200.844,-139.01"/>
</g>
<!-- Node12 -->
<g id="node12" class="node"><title>Node12</title>
<g id="a_node12"><a xlink:href="../../d6/d9e/struct_indoor_location.html#aaaf5a1255bb773cc796685052c9abd29" target="_top" xlink:title=" ">
<polygon fill="white" stroke="black" points="191,-190.5 191,-209.5 321,-209.5 321,-190.5 191,-190.5"/>
<text text-anchor="middle" x="256" y="-197.5" font-family="Helvetica,sans-Serif" font-size="10.00">IndoorLocation::GetSector</text>
</a>
</g>
</g>
<!-- Node1&#45;&gt;Node12 -->
<g id="edge12" class="edge"><title>Node1&#45;&gt;Node12</title>
<path fill="none" stroke="midnightblue" d="M120.422,-171.589C144.603,-176.694 174.527,-183.011 200.014,-188.392"/>
<polygon fill="midnightblue" stroke="midnightblue" points="199.398,-191.839 209.905,-190.48 200.844,-184.99 199.398,-191.839"/>
</g>
<!-- Node14 -->
<g id="node14" class="node"><title>Node14</title>
<g id="a_node14"><a xlink:href="../../dc/d41/class_object_list.html#a9b403a9566abade0fcb2161a1510756d" target="_top" xlink:title=" ">
<polygon fill="white" stroke="black" points="184,-76.5 184,-95.5 328,-95.5 328,-76.5 184,-76.5"/>
<text text-anchor="middle" x="256" y="-83.5" font-family="Helvetica,sans-Serif" font-size="10.00">ObjectList::ObjectIDByItemID</text>
</a>
</g>
</g>
<!-- Node1&#45;&gt;Node14 -->
<g id="edge15" class="edge"><title>Node1&#45;&gt;Node14</title>
<path fill="none" stroke="midnightblue" d="M90.7296,-152.355C111.466,-139.977 149.379,-118.494 184,-105 190.231,-102.572 196.886,-100.341 203.53,-98.3294"/>
<polygon fill="midnightblue" stroke="midnightblue" points="204.567,-101.673 213.207,-95.541 202.629,-94.9467 204.567,-101.673"/>
</g>
<!-- Node3 -->
<g id="node3" class="node"><title>Node3</title>
<g id="a_node3"><a xlink:href="../../d6/d38/structstru193__math.html#a7a4a47e93ff200721e19681b71783c51" target="_top" xlink:title=" ">
<polygon fill="white" stroke="black" points="545,-285.5 545,-304.5 644,-304.5 644,-285.5 545,-285.5"/>
<text text-anchor="middle" x="594.5" y="-292.5" font-family="Helvetica,sans-Serif" font-size="10.00">stru193_math::Cos</text>
</a>
</g>
</g>
<!-- Node2&#45;&gt;Node3 -->
<g id="edge2" class="edge"><title>Node2&#45;&gt;Node3</title>
<path fill="none" stroke="midnightblue" d="M277.347,-266.589C298.465,-275.97 332.723,-289.611 364,-295 421.312,-304.875 487.876,-303.489 534.511,-300.473"/>
<polygon fill="midnightblue" stroke="midnightblue" points="535.003,-303.948 544.738,-299.765 534.52,-296.965 535.003,-303.948"/>
</g>
<!-- Node4 -->
<g id="node4" class="node"><title>Node4</title>
<g id="a_node4"><a xlink:href="../../de/db6/_our_math_8cpp.html#abc4811d26f9864e00046c39c39d65680" target="_top" xlink:title=" ">
<polygon fill="white" stroke="black" points="402.5,-228.5 402.5,-247.5 470.5,-247.5 470.5,-228.5 402.5,-228.5"/>
<text text-anchor="middle" x="436.5" y="-235.5" font-family="Helvetica,sans-Serif" font-size="10.00">fixpoint_mul</text>
</a>
</g>
</g>
<!-- Node2&#45;&gt;Node4 -->
<g id="edge3" class="edge"><title>Node2&#45;&gt;Node4</title>
<path fill="none" stroke="midnightblue" d="M308.63,-251.504C335.145,-248.682 367.083,-245.282 392.281,-242.6"/>
<polygon fill="midnightblue" stroke="midnightblue" points="392.707,-246.075 402.28,-241.536 391.966,-239.114 392.707,-246.075"/>
</g>
<!-- Node5 -->
<g id="node5" class="node"><title>Node5</title>
<g id="a_node5"><a xlink:href="../../d6/d38/structstru193__math.html#a9bd57620c86e36d03d93f2306f8ab80a" target="_top" xlink:title=" ">
<polygon fill="white" stroke="black" points="388.5,-266.5 388.5,-285.5 484.5,-285.5 484.5,-266.5 388.5,-266.5"/>
<text text-anchor="middle" x="436.5" y="-273.5" font-family="Helvetica,sans-Serif" font-size="10.00">stru193_math::Sin</text>
</a>
</g>
</g>
<!-- Node2&#45;&gt;Node5 -->
<g id="edge4" class="edge"><title>Node2&#45;&gt;Node5</title>
<path fill="none" stroke="midnightblue" d="M308.63,-262.496C330.416,-264.815 355.864,-267.523 378.225,-269.904"/>
<polygon fill="midnightblue" stroke="midnightblue" points="377.944,-273.393 388.258,-270.971 378.685,-266.433 377.944,-273.393"/>
</g>
<!-- Node5&#45;&gt;Node3 -->
<g id="edge5" class="edge"><title>Node5&#45;&gt;Node3</title>
<path fill="none" stroke="midnightblue" d="M484.728,-281.752C500.472,-283.67 518.208,-285.83 534.719,-287.841"/>
<polygon fill="midnightblue" stroke="midnightblue" points="534.463,-291.335 544.812,-289.07 535.309,-284.387 534.463,-291.335"/>
</g>
<!-- Node7 -->
<g id="node7" class="node"><title>Node7</title>
<g id="a_node7"><a xlink:href="../../da/db4/_party_8cpp.html#aa98e661066fa419e8f3b18a3fb7c1bb2" target="_top" xlink:title=" ">
<polygon fill="white" stroke="black" points="390.5,-152.5 390.5,-171.5 482.5,-171.5 482.5,-152.5 390.5,-152.5"/>
<text text-anchor="middle" x="436.5" y="-159.5" font-family="Helvetica,sans-Serif" font-size="10.00">_449B57_test_bit</text>
</a>
</g>
</g>
<!-- Node6&#45;&gt;Node7 -->
<g id="edge7" class="edge"><title>Node6&#45;&gt;Node7</title>
<path fill="none" stroke="midnightblue" d="M302.043,-133.589C326.023,-138.694 355.698,-145.011 380.972,-150.392"/>
<polygon fill="midnightblue" stroke="midnightblue" points="380.271,-153.821 390.781,-152.48 381.729,-146.974 380.271,-153.821"/>
</g>
<!-- Node8 -->
<g id="node8" class="node"><title>Node8</title>
<g id="a_node8"><a xlink:href="../../d9/d30/_s_d_l__assert_8h.html#afedcea68cf85ee469ab1ea390bbe0abb" target="_top" xlink:title=" ">
<polygon fill="white" stroke="black" points="398,-114.5 398,-133.5 475,-133.5 475,-114.5 398,-114.5"/>
<text text-anchor="middle" x="436.5" y="-121.5" font-family="Helvetica,sans-Serif" font-size="10.00">__debugbreak</text>
</a>
</g>
</g>
<!-- Node6&#45;&gt;Node8 -->
<g id="edge8" class="edge"><title>Node6&#45;&gt;Node8</title>
<path fill="none" stroke="midnightblue" d="M320.184,-124C342.405,-124 366.989,-124 387.73,-124"/>
<polygon fill="midnightblue" stroke="midnightblue" points="387.883,-127.5 397.883,-124 387.883,-120.5 387.883,-127.5"/>
</g>
<!-- Node9 -->
<g id="node9" class="node"><title>Node9</title>
<g id="a_node9"><a xlink:href="../../d7/d9c/struct_item_gen.html#a32503e9f2824cb00a91b88d859def49a" target="_top" xlink:title=" ">
<polygon fill="white" stroke="black" points="371.5,-76.5 371.5,-95.5 501.5,-95.5 501.5,-76.5 371.5,-76.5"/>
<text text-anchor="middle" x="436.5" y="-83.5" font-family="Helvetica,sans-Serif" font-size="10.00">ItemGen::GetDamageMod</text>
</a>
</g>
</g>
<!-- Node6&#45;&gt;Node9 -->
<g id="edge9" class="edge"><title>Node6&#45;&gt;Node9</title>
<path fill="none" stroke="midnightblue" d="M302.043,-114.411C326.023,-109.306 355.698,-102.989 380.972,-97.6082"/>
<polygon fill="midnightblue" stroke="midnightblue" points="381.729,-101.026 390.781,-95.5201 380.271,-94.179 381.729,-101.026"/>
</g>
<!-- Node10 -->
<g id="node10" class="node"><title>Node10</title>
<g id="a_node10"><a xlink:href="../../d7/d9c/struct_item_gen.html#a1aff2db2385ebf047a37787234f745a8" target="_top" xlink:title=" ">
<polygon fill="white" stroke="black" points="366.5,-38.5 366.5,-57.5 506.5,-57.5 506.5,-38.5 366.5,-38.5"/>
<text text-anchor="middle" x="436.5" y="-45.5" font-family="Helvetica,sans-Serif" font-size="10.00">ItemGen::GetItemEquipType</text>
</a>
</g>
</g>
<!-- Node6&#45;&gt;Node10 -->
<g id="edge10" class="edge"><title>Node6&#45;&gt;Node10</title>
<path fill="none" stroke="midnightblue" d="M306.932,-114.404C314.273,-111.936 321.531,-108.851 328,-105 347.991,-93.0999 343.999,-78.8827 364,-67 367.665,-64.8228 371.581,-62.8908 375.622,-61.177"/>
<polygon fill="midnightblue" stroke="midnightblue" points="377.093,-64.3628 385.217,-57.5614 374.625,-57.8124 377.093,-64.3628"/>
</g>
<!-- Node11 -->
<g id="node11" class="node"><title>Node11</title>
<g id="a_node11"><a xlink:href="../../db/d39/struct_items_table.html#a97d26cf40f69f28c8999adcbe5ab9879" target="_top" xlink:title=" ">
<polygon fill="white" stroke="black" points="364,-0.5 364,-19.5 509,-19.5 509,-0.5 364,-0.5"/>
<text text-anchor="middle" x="436.5" y="-7.5" font-family="Helvetica,sans-Serif" font-size="10.00">ItemsTable::SetSpecialBonus</text>
</a>
</g>
</g>
<!-- Node6&#45;&gt;Node11 -->
<g id="edge11" class="edge"><title>Node6&#45;&gt;Node11</title>
<path fill="none" stroke="midnightblue" d="M312.488,-114.365C318.085,-111.911 323.394,-108.84 328,-105 356.708,-81.0666 335.271,-52.9083 364,-29 366.03,-27.3106 368.195,-25.77 370.461,-24.3652"/>
<polygon fill="midnightblue" stroke="midnightblue" points="372.371,-27.3165 379.623,-19.5925 369.137,-21.1082 372.371,-27.3165"/>
</g>
<!-- Node12&#45;&gt;Node4 -->
<g id="edge14" class="edge"><title>Node12&#45;&gt;Node4</title>
<path fill="none" stroke="midnightblue" d="M302.043,-209.589C329.7,-215.477 364.934,-222.978 392.254,-228.794"/>
<polygon fill="midnightblue" stroke="midnightblue" points="391.795,-232.274 402.305,-230.933 393.253,-225.428 391.795,-232.274"/>
</g>
<!-- Node13 -->
<g id="node13" class="node"><title>Node13</title>
<g id="a_node13"><a xlink:href="../../de/db6/_our_math_8cpp.html#a26d802a4465483f7c2f89657b75c9ebe" target="_top" xlink:title=" ">
<polygon fill="white" stroke="black" points="404.5,-190.5 404.5,-209.5 468.5,-209.5 468.5,-190.5 404.5,-190.5"/>
<text text-anchor="middle" x="436.5" y="-197.5" font-family="Helvetica,sans-Serif" font-size="10.00">fixpoint_div</text>
</a>
</g>
</g>
<!-- Node12&#45;&gt;Node13 -->
<g id="edge13" class="edge"><title>Node12&#45;&gt;Node13</title>
<path fill="none" stroke="midnightblue" d="M321.19,-200C345.413,-200 372.315,-200 393.933,-200"/>
<polygon fill="midnightblue" stroke="midnightblue" points="394.086,-203.5 404.086,-200 394.086,-196.5 394.086,-203.5"/>
</g>
</g>
</svg>
