<?xml version="1.0" encoding="UTF-8" standalone="no"?>
<!DOCTYPE svg PUBLIC "-//W3C//DTD SVG 1.1//EN"
 "http://www.w3.org/Graphics/SVG/1.1/DTD/svg11.dtd">
<!-- Generated by graphviz version 2.38.0 (20140413.2041)
 -->
<!-- Title: stru262_TurnBased::ActorMove Pages: 1 -->
<svg width="1401pt" height="1088pt"
 viewBox="0.00 0.00 1401.00 1087.92" xmlns="http://www.w3.org/2000/svg" xmlns:xlink="http://www.w3.org/1999/xlink">
<g id="graph0" class="graph" transform="scale(1 1) rotate(0) translate(4 1083.92)">
<title>stru262_TurnBased::ActorMove</title>
<polygon fill="white" stroke="none" points="-4,4 -4,-1083.92 1397,-1083.92 1397,4 -4,4"/>
<!-- Node1 -->
<g id="node1" class="node"><title>Node1</title>
<g id="a_node1"><a xlink:title=" ">
<polygon fill="#bfbfbf" stroke="black" points="0,-296 0,-326 107,-326 107,-296 0,-296"/>
<text text-anchor="start" x="8" y="-314" font-family="Helvetica,sans-Serif" font-size="10.00">stru262_TurnBased::</text>
<text text-anchor="middle" x="53.5" y="-303" font-family="Helvetica,sans-Serif" font-size="10.00">ActorMove</text>
</a>
</g>
</g>
<!-- Node2 -->
<g id="node2" class="node"><title>Node2</title>
<g id="a_node2"><a xlink:href="../../da/d35/struct_actor.html#a49b223a6e46a50fd3688168173eb172e" target="_top" xlink:title=" ">
<polygon fill="white" stroke="black" points="149.5,-852.5 149.5,-871.5 255.5,-871.5 255.5,-852.5 149.5,-852.5"/>
<text text-anchor="middle" x="202.5" y="-859.5" font-family="Helvetica,sans-Serif" font-size="10.00">Actor::_SelectTarget</text>
</a>
</g>
</g>
<!-- Node1&#45;&gt;Node2 -->
<g id="edge1" class="edge"><title>Node1&#45;&gt;Node2</title>
<path fill="none" stroke="midnightblue" d="M58.5081,-326.024C79.1159,-403.268 173.075,-755.456 196.298,-842.502"/>
<polygon fill="midnightblue" stroke="midnightblue" points="192.919,-843.414 198.878,-852.174 199.682,-841.609 192.919,-843.414"/>
</g>
<!-- Node15 -->
<g id="node15" class="node"><title>Node15</title>
<g id="a_node15"><a xlink:href="../../da/d35/struct_actor.html#aee352bba5bd18c6302f22c3c92fcf1df" target="_top" xlink:title=" ">
<polygon fill="white" stroke="black" points="163,-567.5 163,-586.5 242,-586.5 242,-567.5 163,-567.5"/>
<text text-anchor="middle" x="202.5" y="-574.5" font-family="Helvetica,sans-Serif" font-size="10.00">Actor::AI_Flee</text>
</a>
</g>
</g>
<!-- Node1&#45;&gt;Node15 -->
<g id="edge21" class="edge"><title>Node1&#45;&gt;Node15</title>
<path fill="none" stroke="midnightblue" d="M61.9403,-326.299C76.7113,-356.457 111.072,-425.554 143,-482 158.418,-509.259 177.696,-539.98 189.808,-558.917"/>
<polygon fill="midnightblue" stroke="midnightblue" points="186.929,-560.912 195.28,-567.432 192.818,-557.127 186.929,-560.912"/>
</g>
<!-- Node18 -->
<g id="node18" class="node"><title>Node18</title>
<g id="a_node18"><a xlink:href="../../da/d35/struct_actor.html#a29eeb19ef703b8a1b9b31e5fbaa7b5e3" target="_top" xlink:title=" ">
<polygon fill="white" stroke="black" points="688,-306.5 688,-325.5 774,-325.5 774,-306.5 688,-306.5"/>
<text text-anchor="middle" x="731" y="-313.5" font-family="Helvetica,sans-Serif" font-size="10.00">Actor::AI_Stand</text>
</a>
</g>
</g>
<!-- Node1&#45;&gt;Node18 -->
<g id="edge73" class="edge"><title>Node1&#45;&gt;Node18</title>
<path fill="none" stroke="midnightblue" d="M71.4736,-295.754C89.0555,-280.123 117.48,-255.295 143,-235 209.93,-181.772 216.748,-147.662 298,-121 370.212,-97.3042 396.878,-97.0331 469,-121 577.971,-157.212 678.248,-258.623 715.09,-299.051"/>
<polygon fill="midnightblue" stroke="midnightblue" points="712.495,-301.4 721.783,-306.497 717.701,-296.72 712.495,-301.4"/>
</g>
<!-- Node19 -->
<g id="node19" class="node"><title>Node19</title>
<g id="a_node19"><a xlink:href="../../da/d35/struct_actor.html#a1263c7717de137c127b39df0cf4593c0" target="_top" xlink:title=" ">
<polygon fill="white" stroke="black" points="830.5,-372.5 830.5,-391.5 945.5,-391.5 945.5,-372.5 830.5,-372.5"/>
<text text-anchor="middle" x="888" y="-379.5" font-family="Helvetica,sans-Serif" font-size="10.00">Actor::GetDirectionInfo</text>
</a>
</g>
</g>
<!-- Node1&#45;&gt;Node19 -->
<g id="edge74" class="edge"><title>Node1&#45;&gt;Node19</title>
<path fill="none" stroke="midnightblue" d="M58.1659,-295.938C67.0838,-262.242 92.9427,-179.974 143,-132 227.04,-51.4573 266.096,-26 382.5,-26 382.5,-26 382.5,-26 571,-26 674.448,-26 717.936,-28.7665 791,-102 865.416,-176.589 882.211,-311.303 885.949,-361.991"/>
<polygon fill="midnightblue" stroke="midnightblue" points="882.473,-362.483 886.605,-372.238 889.458,-362.035 882.473,-362.483"/>
</g>
<!-- Node37 -->
<g id="node37" class="node"><title>Node37</title>
<g id="a_node37"><a xlink:href="../../da/d35/struct_actor.html#a14bc969ce90ad3a344c199f17bd28cdc" target="_top" xlink:title=" ">
<polygon fill="white" stroke="black" points="154.5,-453.5 154.5,-472.5 250.5,-472.5 250.5,-453.5 154.5,-453.5"/>
<text text-anchor="middle" x="202.5" y="-460.5" font-family="Helvetica,sans-Serif" font-size="10.00">Actor::AI_Pursue1</text>
</a>
</g>
</g>
<!-- Node1&#45;&gt;Node37 -->
<g id="edge50" class="edge"><title>Node1&#45;&gt;Node37</title>
<path fill="none" stroke="midnightblue" d="M69.1323,-326.13C96.7311,-354.668 156.287,-416.25 185.154,-446.098"/>
<polygon fill="midnightblue" stroke="midnightblue" points="182.645,-448.538 192.112,-453.293 187.676,-443.672 182.645,-448.538"/>
</g>
<!-- Node40 -->
<g id="node40" class="node"><title>Node40</title>
<g id="a_node40"><a xlink:href="../../da/d35/struct_actor.html#af3d789f7a1e1208a1213ca42b7c3c601" target="_top" xlink:title=" ">
<polygon fill="white" stroke="black" points="154.5,-301.5 154.5,-320.5 250.5,-320.5 250.5,-301.5 154.5,-301.5"/>
<text text-anchor="middle" x="202.5" y="-308.5" font-family="Helvetica,sans-Serif" font-size="10.00">Actor::AI_Pursue2</text>
</a>
</g>
</g>
<!-- Node1&#45;&gt;Node40 -->
<g id="edge61" class="edge"><title>Node1&#45;&gt;Node40</title>
<path fill="none" stroke="midnightblue" d="M107.155,-311C119.126,-311 131.902,-311 144.061,-311"/>
<polygon fill="midnightblue" stroke="midnightblue" points="144.098,-314.5 154.098,-311 144.098,-307.5 144.098,-314.5"/>
</g>
<!-- Node41 -->
<g id="node41" class="node"><title>Node41</title>
<g id="a_node41"><a xlink:href="../../da/d35/struct_actor.html#a76bea9682e1f9d1e6cd2e8f0569f524c" target="_top" xlink:title=" ">
<polygon fill="white" stroke="black" points="143,-244.5 143,-263.5 262,-263.5 262,-244.5 143,-244.5"/>
<text text-anchor="middle" x="202.5" y="-251.5" font-family="Helvetica,sans-Serif" font-size="10.00">Actor::AI_RandomMove</text>
</a>
</g>
</g>
<!-- Node1&#45;&gt;Node41 -->
<g id="edge66" class="edge"><title>Node1&#45;&gt;Node41</title>
<path fill="none" stroke="midnightblue" d="M93.5074,-295.875C116.373,-287.008 144.999,-275.909 167.033,-267.365"/>
<polygon fill="midnightblue" stroke="midnightblue" points="168.59,-270.515 176.648,-263.637 166.059,-263.989 168.59,-270.515"/>
</g>
<!-- Node3 -->
<g id="node3" class="node"><title>Node3</title>
<g id="a_node3"><a xlink:href="../../db/d1e/struct_spell_buff.html#aa8120188fb27f4eac35052ee945cce00" target="_top" xlink:title=" ">
<polygon fill="white" stroke="black" points="526.5,-795.5 526.5,-814.5 613.5,-814.5 613.5,-795.5 526.5,-795.5"/>
<text text-anchor="middle" x="570" y="-802.5" font-family="Helvetica,sans-Serif" font-size="10.00">SpellBuff::Active</text>
</a>
</g>
</g>
<!-- Node2&#45;&gt;Node3 -->
<g id="edge2" class="edge"><title>Node2&#45;&gt;Node3</title>
<path fill="none" stroke="midnightblue" d="M255.534,-862.722C309.532,-862.44 396.123,-859.09 469,-843 493.513,-837.588 520.018,-827.298 539.578,-818.789"/>
<polygon fill="midnightblue" stroke="midnightblue" points="541.14,-821.925 548.854,-814.661 538.294,-815.529 541.14,-821.925"/>
</g>
<!-- Node4 -->
<g id="node4" class="node"><title>Node4</title>
<g id="a_node4"><a xlink:href="../../da/d35/struct_actor.html#ac7a68814dfa687a291d0970cff0ed150" target="_top" xlink:title=" ">
<polygon fill="white" stroke="black" points="520,-890.5 520,-909.5 620,-909.5 620,-890.5 520,-890.5"/>
<text text-anchor="middle" x="570" y="-897.5" font-family="Helvetica,sans-Serif" font-size="10.00">Actor::ActorEnemy</text>
</a>
</g>
</g>
<!-- Node2&#45;&gt;Node4 -->
<g id="edge3" class="edge"><title>Node2&#45;&gt;Node4</title>
<path fill="none" stroke="midnightblue" d="M214.756,-871.644C231.553,-885.331 264.775,-909.755 298,-919 375.904,-940.676 471.012,-924.796 525.337,-911.942"/>
<polygon fill="midnightblue" stroke="midnightblue" points="526.433,-915.277 535.317,-909.505 524.772,-908.477 526.433,-915.277"/>
</g>
<!-- Node5 -->
<g id="node5" class="node"><title>Node5</title>
<g id="a_node5"><a xlink:href="../../da/d35/struct_actor.html#a78b581fc4547721206d858d3681aa8de" target="_top" xlink:title=" ">
<polygon fill="white" stroke="black" points="321,-890.5 321,-909.5 446,-909.5 446,-890.5 321,-890.5"/>
<text text-anchor="middle" x="383.5" y="-897.5" font-family="Helvetica,sans-Serif" font-size="10.00">Actor::GetActorsRelation</text>
</a>
</g>
</g>
<!-- Node2&#45;&gt;Node5 -->
<g id="edge4" class="edge"><title>Node2&#45;&gt;Node5</title>
<path fill="none" stroke="midnightblue" d="M248.669,-871.589C272.716,-876.694 302.474,-883.011 327.819,-888.392"/>
<polygon fill="midnightblue" stroke="midnightblue" points="327.147,-891.827 337.656,-890.48 328.6,-884.98 327.147,-891.827"/>
</g>
<!-- Node7 -->
<g id="node7" class="node"><title>Node7</title>
<g id="a_node7"><a xlink:href="../../d0/d14/struct_party.html#a478ae1a0a2f7eef10d6d3860b6c64218" target="_top" xlink:title=" ">
<polygon fill="white" stroke="black" points="343.5,-814.5 343.5,-833.5 423.5,-833.5 423.5,-814.5 343.5,-814.5"/>
<text text-anchor="middle" x="383.5" y="-821.5" font-family="Helvetica,sans-Serif" font-size="10.00">Party::Invisible</text>
</a>
</g>
</g>
<!-- Node2&#45;&gt;Node7 -->
<g id="edge8" class="edge"><title>Node2&#45;&gt;Node7</title>
<path fill="none" stroke="midnightblue" d="M248.669,-852.411C274.567,-846.913 307.09,-840.009 333.59,-834.383"/>
<polygon fill="midnightblue" stroke="midnightblue" points="334.37,-837.796 343.425,-832.295 332.916,-830.948 334.37,-837.796"/>
</g>
<!-- Node8 -->
<g id="node8" class="node"><title>Node8</title>
<g id="a_node8"><a xlink:href="../../da/d35/struct_actor.html#a0fa5723dae12c3ba3d1cfdcc2832ce8e" target="_top" xlink:title=" ">
<polygon fill="white" stroke="black" points="339,-776.5 339,-795.5 428,-795.5 428,-776.5 339,-776.5"/>
<text text-anchor="middle" x="383.5" y="-783.5" font-family="Helvetica,sans-Serif" font-size="10.00">Actor::IsNotAlive</text>
</a>
</g>
</g>
<!-- Node2&#45;&gt;Node8 -->
<g id="edge9" class="edge"><title>Node2&#45;&gt;Node8</title>
<path fill="none" stroke="midnightblue" d="M216.25,-852.462C233.777,-839.797 266.709,-817.569 298,-805 307.728,-801.092 318.424,-797.904 328.84,-795.333"/>
<polygon fill="midnightblue" stroke="midnightblue" points="329.745,-798.716 338.7,-793.054 328.169,-791.896 329.745,-798.716"/>
</g>
<!-- Node9 -->
<g id="node9" class="node"><title>Node9</title>
<g id="a_node9"><a xlink:href="../../d4/d59/_actor_8cpp.html#a46ac772ee98951ce6cbd66208321011c" target="_top" xlink:title=" ">
<polygon fill="white" stroke="black" points="317.5,-983 317.5,-1013 449.5,-1013 449.5,-983 317.5,-983"/>
<text text-anchor="start" x="325.5" y="-1001" font-family="Helvetica,sans-Serif" font-size="10.00">sub_4070EF_prolly_detect</text>
<text text-anchor="middle" x="383.5" y="-990" font-family="Helvetica,sans-Serif" font-size="10.00">_player</text>
</a>
</g>
</g>
<!-- Node2&#45;&gt;Node9 -->
<g id="edge11" class="edge"><title>Node2&#45;&gt;Node9</title>
<path fill="none" stroke="midnightblue" d="M211.919,-871.531C227.637,-888.959 263.028,-926.514 298,-952 311.288,-961.684 326.851,-970.722 340.974,-978.179"/>
<polygon fill="midnightblue" stroke="midnightblue" points="339.518,-981.365 350.009,-982.841 342.728,-975.145 339.518,-981.365"/>
</g>
<!-- Node5&#45;&gt;Node3 -->
<g id="edge5" class="edge"><title>Node5&#45;&gt;Node3</title>
<path fill="none" stroke="midnightblue" d="M432.972,-890.388C445.181,-886.865 457.949,-882.172 469,-876 487.95,-865.417 487.576,-855.943 505,-843 516.541,-834.427 530.139,-826.128 541.826,-819.485"/>
<polygon fill="midnightblue" stroke="midnightblue" points="543.678,-822.46 550.713,-814.538 540.273,-816.344 543.678,-822.46"/>
</g>
<!-- Node5&#45;&gt;Node4 -->
<g id="edge6" class="edge"><title>Node5&#45;&gt;Node4</title>
<path fill="none" stroke="midnightblue" d="M446.192,-900C466.714,-900 489.511,-900 509.837,-900"/>
<polygon fill="midnightblue" stroke="midnightblue" points="509.905,-903.5 519.905,-900 509.905,-896.5 509.905,-903.5"/>
</g>
<!-- Node6 -->
<g id="node6" class="node"><title>Node6</title>
<g id="a_node6"><a xlink:href="../../da/d35/struct_actor.html#ae8407cb4f5c805dd5fae0f3714c1623a" target="_top" xlink:title=" ">
<polygon fill="white" stroke="black" points="522,-852.5 522,-871.5 618,-871.5 618,-852.5 522,-852.5"/>
<text text-anchor="middle" x="570" y="-859.5" font-family="Helvetica,sans-Serif" font-size="10.00">Actor::ActorFriend</text>
</a>
</g>
</g>
<!-- Node5&#45;&gt;Node6 -->
<g id="edge7" class="edge"><title>Node5&#45;&gt;Node6</title>
<path fill="none" stroke="midnightblue" d="M431.057,-890.411C455.843,-885.306 486.515,-878.989 512.639,-873.608"/>
<polygon fill="midnightblue" stroke="midnightblue" points="513.689,-876.965 522.778,-871.52 512.277,-870.109 513.689,-876.965"/>
</g>
<!-- Node8&#45;&gt;Node3 -->
<g id="edge10" class="edge"><title>Node8&#45;&gt;Node3</title>
<path fill="none" stroke="midnightblue" d="M428.224,-790.503C454.608,-793.22 488.395,-796.699 516.255,-799.568"/>
<polygon fill="midnightblue" stroke="midnightblue" points="515.92,-803.052 526.226,-800.595 516.638,-796.089 515.92,-803.052"/>
</g>
<!-- Node10 -->
<g id="node10" class="node"><title>Node10</title>
<g id="a_node10"><a xlink:href="../../de/db6/_our_math_8cpp.html#a26d802a4465483f7c2f89657b75c9ebe" target="_top" xlink:title=" ">
<polygon fill="white" stroke="black" points="699,-1042.5 699,-1061.5 763,-1061.5 763,-1042.5 699,-1042.5"/>
<text text-anchor="middle" x="731" y="-1049.5" font-family="Helvetica,sans-Serif" font-size="10.00">fixpoint_div</text>
</a>
</g>
</g>
<!-- Node9&#45;&gt;Node10 -->
<g id="edge12" class="edge"><title>Node9&#45;&gt;Node10</title>
<path fill="none" stroke="midnightblue" d="M402.208,-1013.08C424.484,-1030.96 464.716,-1059.75 505,-1071 567.481,-1088.45 643.203,-1075.4 688.939,-1063.99"/>
<polygon fill="midnightblue" stroke="midnightblue" points="689.978,-1067.34 698.783,-1061.44 688.225,-1060.56 689.978,-1067.34"/>
</g>
<!-- Node11 -->
<g id="node11" class="node"><title>Node11</title>
<g id="a_node11"><a xlink:href="../../de/db6/_our_math_8cpp.html#abc4811d26f9864e00046c39c39d65680" target="_top" xlink:title=" ">
<polygon fill="white" stroke="black" points="697,-966.5 697,-985.5 765,-985.5 765,-966.5 697,-966.5"/>
<text text-anchor="middle" x="731" y="-973.5" font-family="Helvetica,sans-Serif" font-size="10.00">fixpoint_mul</text>
</a>
</g>
</g>
<!-- Node9&#45;&gt;Node11 -->
<g id="edge13" class="edge"><title>Node9&#45;&gt;Node11</title>
<path fill="none" stroke="midnightblue" d="M418.785,-982.966C442.485,-973.42 475.023,-961.96 505,-957 562.003,-947.568 577.503,-951.307 635,-957 652.026,-958.686 670.52,-962.032 686.627,-965.452"/>
<polygon fill="midnightblue" stroke="midnightblue" points="686.31,-968.966 696.828,-967.694 687.813,-962.129 686.31,-968.966"/>
</g>
<!-- Node12 -->
<g id="node12" class="node"><title>Node12</title>
<g id="a_node12"><a xlink:href="../../d6/d9e/struct_indoor_location.html#aaaf5a1255bb773cc796685052c9abd29" target="_top" xlink:title=" ">
<polygon fill="white" stroke="black" points="505,-1042.5 505,-1061.5 635,-1061.5 635,-1042.5 505,-1042.5"/>
<text text-anchor="middle" x="570" y="-1049.5" font-family="Helvetica,sans-Serif" font-size="10.00">IndoorLocation::GetSector</text>
</a>
</g>
</g>
<!-- Node9&#45;&gt;Node12 -->
<g id="edge14" class="edge"><title>Node9&#45;&gt;Node12</title>
<path fill="none" stroke="midnightblue" d="M435.894,-1013.04C464.447,-1021.4 499.544,-1031.67 526.529,-1039.57"/>
<polygon fill="midnightblue" stroke="midnightblue" points="525.863,-1043.02 536.443,-1042.47 527.829,-1036.3 525.863,-1043.02"/>
</g>
<!-- Node13 -->
<g id="node13" class="node"><title>Node13</title>
<g id="a_node13"><a xlink:href="../../de/db6/_our_math_8cpp.html#aac6e421d654d85d401b67bcb0da79680" target="_top" xlink:title=" ">
<polygon fill="white" stroke="black" points="536,-966.5 536,-985.5 604,-985.5 604,-966.5 536,-966.5"/>
<text text-anchor="middle" x="570" y="-973.5" font-family="Helvetica,sans-Serif" font-size="10.00">integer_sqrt</text>
</a>
</g>
</g>
<!-- Node9&#45;&gt;Node13 -->
<g id="edge17" class="edge"><title>Node9&#45;&gt;Node13</title>
<path fill="none" stroke="midnightblue" d="M449.548,-990.244C474.829,-987.229 503.103,-983.858 525.795,-981.152"/>
<polygon fill="midnightblue" stroke="midnightblue" points="526.283,-984.619 535.798,-979.959 525.454,-977.668 526.283,-984.619"/>
</g>
<!-- Node14 -->
<g id="node14" class="node"><title>Node14</title>
<g id="a_node14"><a xlink:href="../../d1/d4a/_indoor_8cpp.html#af5b0723b6267a46a0c9d296be7a9f0f8" target="_top" xlink:title=" ">
<polygon fill="white" stroke="black" points="534,-1004.5 534,-1023.5 606,-1023.5 606,-1004.5 534,-1004.5"/>
<text text-anchor="middle" x="570" y="-1011.5" font-family="Helvetica,sans-Serif" font-size="10.00">sub_4075DB</text>
</a>
</g>
</g>
<!-- Node9&#45;&gt;Node14 -->
<g id="edge18" class="edge"><title>Node9&#45;&gt;Node14</title>
<path fill="none" stroke="midnightblue" d="M449.548,-1003.64C474.088,-1005.77 501.449,-1008.14 523.786,-1010.08"/>
<polygon fill="midnightblue" stroke="midnightblue" points="523.725,-1013.59 533.99,-1010.96 524.33,-1006.61 523.725,-1013.59"/>
</g>
<!-- Node12&#45;&gt;Node10 -->
<g id="edge15" class="edge"><title>Node12&#45;&gt;Node10</title>
<path fill="none" stroke="midnightblue" d="M635.213,-1052C653.171,-1052 672.211,-1052 688.478,-1052"/>
<polygon fill="midnightblue" stroke="midnightblue" points="688.728,-1055.5 698.728,-1052 688.728,-1048.5 688.728,-1055.5"/>
</g>
<!-- Node12&#45;&gt;Node11 -->
<g id="edge16" class="edge"><title>Node12&#45;&gt;Node11</title>
<path fill="none" stroke="midnightblue" d="M608.795,-1042.5C617.551,-1039.83 626.725,-1036.64 635,-1033 661.325,-1021.42 689.309,-1003.92 708.032,-991.366"/>
<polygon fill="midnightblue" stroke="midnightblue" points="710.134,-994.169 716.432,-985.649 706.196,-988.383 710.134,-994.169"/>
</g>
<!-- Node14&#45;&gt;Node10 -->
<g id="edge19" class="edge"><title>Node14&#45;&gt;Node10</title>
<path fill="none" stroke="midnightblue" d="M606.287,-1022.43C630.76,-1028.28 663.429,-1036.09 689.05,-1042.21"/>
<polygon fill="midnightblue" stroke="midnightblue" points="688.305,-1045.63 698.845,-1044.55 689.932,-1038.83 688.305,-1045.63"/>
</g>
<!-- Node14&#45;&gt;Node11 -->
<g id="edge20" class="edge"><title>Node14&#45;&gt;Node11</title>
<path fill="none" stroke="midnightblue" d="M606.287,-1005.57C630.089,-999.878 661.643,-992.337 686.926,-986.294"/>
<polygon fill="midnightblue" stroke="midnightblue" points="688.07,-989.62 696.983,-983.891 686.443,-982.811 688.07,-989.62"/>
</g>
<!-- Node16 -->
<g id="node16" class="node"><title>Node16</title>
<g id="a_node16"><a xlink:href="../../da/d35/struct_actor.html#a6e012ac29ba0000e4a99caf2433cfb7d" target="_top" xlink:title=" ">
<polygon fill="white" stroke="black" points="322.5,-282.5 322.5,-301.5 444.5,-301.5 444.5,-282.5 322.5,-282.5"/>
<text text-anchor="middle" x="383.5" y="-289.5" font-family="Helvetica,sans-Serif" font-size="10.00">Actor::AI_StandOrBored</text>
</a>
</g>
</g>
<!-- Node15&#45;&gt;Node16 -->
<g id="edge22" class="edge"><title>Node15&#45;&gt;Node16</title>
<path fill="none" stroke="midnightblue" d="M210.825,-567.261C223.036,-550.612 247.624,-515.245 262,-482 286.306,-425.792 262.376,-398.81 298,-349 311.412,-330.247 333.06,-315.818 351.086,-306.169"/>
<polygon fill="midnightblue" stroke="midnightblue" points="352.801,-309.223 360.119,-301.562 349.621,-302.987 352.801,-309.223"/>
</g>
<!-- Node15&#45;&gt;Node19 -->
<g id="edge48" class="edge"><title>Node15&#45;&gt;Node19</title>
<path fill="none" stroke="midnightblue" d="M230.799,-586.609C249.458,-592.653 274.898,-599.88 298,-603 446.619,-623.072 489.737,-623.269 635,-586 707.921,-567.291 732.539,-567.432 791,-520 812.659,-502.427 855.49,-434.169 875.804,-400.706"/>
<polygon fill="midnightblue" stroke="midnightblue" points="878.951,-402.266 881.12,-391.896 872.957,-398.65 878.951,-402.266"/>
</g>
<!-- Node33 -->
<g id="node33" class="node"><title>Node33</title>
<g id="a_node33"><a xlink:href="../../da/d35/struct_actor.html#a170108c8e9216a25fe72026bd0ad55b8" target="_top" xlink:title=" ">
<polygon fill="white" stroke="black" points="671,-491.5 671,-510.5 791,-510.5 791,-491.5 671,-491.5"/>
<text text-anchor="middle" x="731" y="-498.5" font-family="Helvetica,sans-Serif" font-size="10.00">Actor::UpdateAnimation</text>
</a>
</g>
</g>
<!-- Node15&#45;&gt;Node33 -->
<g id="edge49" class="edge"><title>Node15&#45;&gt;Node33</title>
<path fill="none" stroke="midnightblue" d="M242.085,-581.721C318.876,-589.756 495.463,-601.386 635,-559 663.601,-550.312 692.324,-530.947 710.579,-516.98"/>
<polygon fill="midnightblue" stroke="midnightblue" points="712.958,-519.561 718.653,-510.627 708.629,-514.06 712.958,-519.561"/>
</g>
<!-- Node35 -->
<g id="node35" class="node"><title>Node35</title>
<g id="a_node35"><a xlink:href="../../d3/df5/struct_monster_stats.html#af740f33299fb75dc1dafe63bf58ef858" target="_top" xlink:title=" ">
<polygon fill="white" stroke="black" points="298,-358.5 298,-377.5 469,-377.5 469,-358.5 298,-358.5"/>
<text text-anchor="middle" x="383.5" y="-365.5" font-family="Helvetica,sans-Serif" font-size="10.00">MonsterStats::BelongsToSupertype</text>
</a>
</g>
</g>
<!-- Node15&#45;&gt;Node35 -->
<g id="edge45" class="edge"><title>Node15&#45;&gt;Node35</title>
<path fill="none" stroke="midnightblue" d="M211.656,-567.477C239.554,-534.903 331.434,-427.624 367.644,-385.346"/>
<polygon fill="midnightblue" stroke="midnightblue" points="370.449,-387.451 374.296,-377.579 365.132,-382.898 370.449,-387.451"/>
</g>
<!-- Node36 -->
<g id="node36" class="node"><title>Node36</title>
<g id="a_node36"><a xlink:href="../../da/d35/struct_actor.html#a77ae756013f17fc041403c5a03e67e56" target="_top" xlink:title=" ">
<polygon fill="white" stroke="black" points="344.5,-738.5 344.5,-757.5 422.5,-757.5 422.5,-738.5 344.5,-738.5"/>
<text text-anchor="middle" x="383.5" y="-745.5" font-family="Helvetica,sans-Serif" font-size="10.00">Actor::CanAct</text>
</a>
</g>
</g>
<!-- Node15&#45;&gt;Node36 -->
<g id="edge46" class="edge"><title>Node15&#45;&gt;Node36</title>
<path fill="none" stroke="midnightblue" d="M206.875,-586.601C216.607,-612.861 247.311,-686.41 298,-724 308.536,-731.813 321.53,-737.085 334.141,-740.642"/>
<polygon fill="midnightblue" stroke="midnightblue" points="333.569,-744.107 344.119,-743.142 335.27,-737.317 333.569,-744.107"/>
</g>
<!-- Node17 -->
<g id="node17" class="node"><title>Node17</title>
<g id="a_node17"><a xlink:href="../../da/d35/struct_actor.html#a1b076465dc64fee3b7845c1c4134fb68" target="_top" xlink:title=" ">
<polygon fill="white" stroke="black" points="527,-372.5 527,-391.5 613,-391.5 613,-372.5 527,-372.5"/>
<text text-anchor="middle" x="570" y="-379.5" font-family="Helvetica,sans-Serif" font-size="10.00">Actor::AI_Bored</text>
</a>
</g>
</g>
<!-- Node16&#45;&gt;Node17 -->
<g id="edge23" class="edge"><title>Node16&#45;&gt;Node17</title>
<path fill="none" stroke="midnightblue" d="M427.968,-301.607C441.432,-305.303 456.109,-310.087 469,-316 498.677,-329.613 529.555,-351.344 549.005,-366.121"/>
<polygon fill="midnightblue" stroke="midnightblue" points="547.038,-369.024 557.092,-372.367 551.317,-363.484 547.038,-369.024"/>
</g>
<!-- Node16&#45;&gt;Node18 -->
<g id="edge44" class="edge"><title>Node16&#45;&gt;Node18</title>
<path fill="none" stroke="midnightblue" d="M444.682,-296.18C510.612,-300.76 615.289,-308.032 677.851,-312.378"/>
<polygon fill="midnightblue" stroke="midnightblue" points="677.676,-315.874 687.894,-313.075 678.161,-308.89 677.676,-315.874"/>
</g>
<!-- Node17&#45;&gt;Node18 -->
<g id="edge24" class="edge"><title>Node17&#45;&gt;Node18</title>
<path fill="none" stroke="midnightblue" d="M597.6,-372.414C609.153,-368.151 622.805,-362.978 635,-358 657.037,-349.005 681.604,-338.121 700.234,-329.686"/>
<polygon fill="midnightblue" stroke="midnightblue" points="701.737,-332.848 709.391,-325.522 698.839,-326.476 701.737,-332.848"/>
</g>
<!-- Node17&#45;&gt;Node19 -->
<g id="edge28" class="edge"><title>Node17&#45;&gt;Node19</title>
<path fill="none" stroke="midnightblue" d="M613.289,-382C666.26,-382 757.639,-382 820.126,-382"/>
<polygon fill="midnightblue" stroke="midnightblue" points="820.282,-385.5 830.282,-382 820.282,-378.5 820.282,-385.5"/>
</g>
<!-- Node20 -->
<g id="node20" class="node"><title>Node20</title>
<g id="a_node20"><a xlink:href="../../d6/d38/structstru193__math.html#ae5c580a8915049b2fe00949acf3ca728" target="_top" xlink:title=" ">
<polygon fill="white" stroke="black" points="993.5,-410.5 993.5,-429.5 1100.5,-429.5 1100.5,-410.5 993.5,-410.5"/>
<text text-anchor="middle" x="1047" y="-417.5" font-family="Helvetica,sans-Serif" font-size="10.00">stru193_math::Atan2</text>
</a>
</g>
</g>
<!-- Node17&#45;&gt;Node20 -->
<g id="edge27" class="edge"><title>Node17&#45;&gt;Node20</title>
<path fill="none" stroke="midnightblue" d="M613.247,-388.632C631.039,-391.238 651.99,-394.064 671,-396 780.56,-407.159 908.69,-414.037 983.259,-417.428"/>
<polygon fill="midnightblue" stroke="midnightblue" points="983.271,-420.932 993.418,-417.883 983.585,-413.939 983.271,-420.932"/>
</g>
<!-- Node21 -->
<g id="node21" class="node"><title>Node21</title>
<g id="a_node21"><a xlink:href="../../da/d35/struct_actor.html#a6645c1dfb2912ca41e535d36e811f17c" target="_top" xlink:title=" ">
<polygon fill="white" stroke="black" points="684.5,-111.5 684.5,-130.5 777.5,-130.5 777.5,-111.5 684.5,-111.5"/>
<text text-anchor="middle" x="731" y="-118.5" font-family="Helvetica,sans-Serif" font-size="10.00">Actor::PlaySound</text>
</a>
</g>
</g>
<!-- Node17&#45;&gt;Node21 -->
<g id="edge29" class="edge"><title>Node17&#45;&gt;Node21</title>
<path fill="none" stroke="midnightblue" d="M576.847,-372.401C600.27,-333.953 687.549,-190.683 718.79,-139.402"/>
<polygon fill="midnightblue" stroke="midnightblue" points="721.886,-141.047 724.099,-130.686 715.908,-137.405 721.886,-141.047"/>
</g>
<!-- Node17&#45;&gt;Node33 -->
<g id="edge42" class="edge"><title>Node17&#45;&gt;Node33</title>
<path fill="none" stroke="midnightblue" d="M581.124,-391.771C602.501,-412.29 651.848,-459.042 671,-472 679.192,-477.542 688.598,-482.655 697.458,-486.995"/>
<polygon fill="midnightblue" stroke="midnightblue" points="696.236,-490.288 706.774,-491.383 699.219,-483.956 696.236,-490.288"/>
</g>
<!-- Node18&#45;&gt;Node19 -->
<g id="edge25" class="edge"><title>Node18&#45;&gt;Node19</title>
<path fill="none" stroke="midnightblue" d="M754.538,-325.597C781.016,-336.871 825.128,-355.654 855.107,-368.42"/>
<polygon fill="midnightblue" stroke="midnightblue" points="854.114,-371.801 864.686,-372.499 856.857,-365.361 854.114,-371.801"/>
</g>
<!-- Node19&#45;&gt;Node20 -->
<g id="edge26" class="edge"><title>Node19&#45;&gt;Node20</title>
<path fill="none" stroke="midnightblue" d="M928.618,-391.589C949.336,-396.604 974.888,-402.788 996.856,-408.105"/>
<polygon fill="midnightblue" stroke="midnightblue" points="996.124,-411.529 1006.67,-410.48 997.771,-404.726 996.124,-411.529"/>
</g>
<!-- Node22 -->
<g id="node22" class="node"><title>Node22</title>
<g id="a_node22"><a xlink:href="../../d7/dc2/class_audio_player.html#afa0c135f321bd87b4d4ad2dcad3833e3" target="_top" xlink:title=" ">
<polygon fill="white" stroke="black" points="827,-111.5 827,-130.5 949,-130.5 949,-111.5 827,-111.5"/>
<text text-anchor="middle" x="888" y="-118.5" font-family="Helvetica,sans-Serif" font-size="10.00">AudioPlayer::PlaySound</text>
</a>
</g>
</g>
<!-- Node21&#45;&gt;Node22 -->
<g id="edge30" class="edge"><title>Node21&#45;&gt;Node22</title>
<path fill="none" stroke="midnightblue" d="M777.667,-121C789.977,-121 803.585,-121 816.899,-121"/>
<polygon fill="midnightblue" stroke="midnightblue" points="816.997,-124.5 826.997,-121 816.997,-117.5 816.997,-124.5"/>
</g>
<!-- Node23 -->
<g id="node23" class="node"><title>Node23</title>
<g id="a_node23"><a xlink:href="../../d4/db9/_open_a_l_sound_provider_8cpp.html#a0d61058bc8900801bc227bc7b47881d7" target="_top" xlink:title=" ">
<polygon fill="white" stroke="black" points="995.5,-122.5 995.5,-141.5 1098.5,-141.5 1098.5,-122.5 995.5,-122.5"/>
<text text-anchor="middle" x="1047" y="-129.5" font-family="Helvetica,sans-Serif" font-size="10.00">CreateAudioSample</text>
</a>
</g>
</g>
<!-- Node22&#45;&gt;Node23 -->
<g id="edge31" class="edge"><title>Node22&#45;&gt;Node23</title>
<path fill="none" stroke="midnightblue" d="M949.251,-125.221C961.023,-126.046 973.373,-126.912 985.164,-127.738"/>
<polygon fill="midnightblue" stroke="midnightblue" points="985.132,-131.244 995.352,-128.451 985.621,-124.261 985.132,-131.244"/>
</g>
<!-- Node25 -->
<g id="node25" class="node"><title>Node25</title>
<g id="a_node25"><a xlink:href="../../d7/dc2/class_audio_player.html#ae30d2f6cbd73b8e316a47b4694fe8960" target="_top" xlink:title=" ">
<polygon fill="white" stroke="black" points="985,-76.5 985,-95.5 1109,-95.5 1109,-76.5 985,-76.5"/>
<text text-anchor="middle" x="1047" y="-83.5" font-family="Helvetica,sans-Serif" font-size="10.00">AudioPlayer::LoadSound</text>
</a>
</g>
</g>
<!-- Node22&#45;&gt;Node25 -->
<g id="edge33" class="edge"><title>Node22&#45;&gt;Node25</title>
<path fill="none" stroke="midnightblue" d="M931.901,-111.436C950.852,-107.211 973.315,-102.204 993.277,-97.7536"/>
<polygon fill="midnightblue" stroke="midnightblue" points="994.152,-101.144 1003.15,-95.5523 992.629,-94.3122 994.152,-101.144"/>
</g>
<!-- Node30 -->
<g id="node30" class="node"><title>Node30</title>
<g id="a_node30"><a xlink:href="../../d6/d70/class_log.html#ac0de2621497ca3b2fbf208624c08bcdf" target="_top" xlink:title=" ">
<polygon fill="white" stroke="black" points="1181,-0.5 1181,-19.5 1255,-19.5 1255,-0.5 1181,-0.5"/>
<text text-anchor="middle" x="1218" y="-7.5" font-family="Helvetica,sans-Serif" font-size="10.00">Log::Warning</text>
</a>
</g>
</g>
<!-- Node22&#45;&gt;Node30 -->
<g id="edge41" class="edge"><title>Node22&#45;&gt;Node30</title>
<path fill="none" stroke="midnightblue" d="M903.029,-111.489C921.211,-99.5508 954.237,-79.1679 985,-67 1047.16,-42.4126 1123.01,-26.1914 1170.67,-17.5479"/>
<polygon fill="midnightblue" stroke="midnightblue" points="1171.46,-20.963 1180.69,-15.7673 1170.23,-14.071 1171.46,-20.963"/>
</g>
<!-- Node31 -->
<g id="node31" class="node"><title>Node31</title>
<g id="a_node31"><a xlink:href="../../d9/d98/class_open_a_l_sound_provider.html#a25ac61cd13253bb659672a1cc29ef22c" target="_top" xlink:title=" ">
<polygon fill="white" stroke="black" points="990,-177 990,-207 1104,-207 1104,-177 990,-177"/>
<text text-anchor="start" x="998" y="-195" font-family="Helvetica,sans-Serif" font-size="10.00">OpenALSoundProvider</text>
<text text-anchor="middle" x="1047" y="-184" font-family="Helvetica,sans-Serif" font-size="10.00">::SetListenerPosition</text>
</a>
</g>
</g>
<!-- Node22&#45;&gt;Node31 -->
<g id="edge39" class="edge"><title>Node22&#45;&gt;Node31</title>
<path fill="none" stroke="midnightblue" d="M910.174,-130.575C933.889,-141.3 972.952,-158.966 1003.11,-172.606"/>
<polygon fill="midnightblue" stroke="midnightblue" points="1002.01,-175.947 1012.56,-176.879 1004.89,-169.569 1002.01,-175.947"/>
</g>
<!-- Node24 -->
<g id="node24" class="node"><title>Node24</title>
<g id="a_node24"><a xlink:href="../../da/def/_media_8h.html#ab508e4ee3c70ec5e60273ec99af30a2e" target="_top" xlink:title=" ">
<polygon fill="white" stroke="black" points="1145,-152.5 1145,-171.5 1291,-171.5 1291,-152.5 1145,-152.5"/>
<text text-anchor="middle" x="1218" y="-159.5" font-family="Helvetica,sans-Serif" font-size="10.00">CreateAudioBufferDataSource</text>
</a>
</g>
</g>
<!-- Node23&#45;&gt;Node24 -->
<g id="edge32" class="edge"><title>Node23&#45;&gt;Node24</title>
<path fill="none" stroke="midnightblue" d="M1098.71,-141.001C1115.93,-144.059 1135.4,-147.515 1153.5,-150.728"/>
<polygon fill="midnightblue" stroke="midnightblue" points="1152.94,-154.182 1163.39,-152.484 1154.16,-147.29 1152.94,-154.182"/>
</g>
<!-- Node26 -->
<g id="node26" class="node"><title>Node26</title>
<g id="a_node26"><a xlink:href="../../da/d6a/_mem_buffer_8cpp.html#a685632d9cd2b61b24a9bfc649d54937e" target="_top" xlink:title=" ">
<polygon fill="white" stroke="black" points="1175.5,-38.5 1175.5,-57.5 1260.5,-57.5 1260.5,-38.5 1175.5,-38.5"/>
<text text-anchor="middle" x="1218" y="-45.5" font-family="Helvetica,sans-Serif" font-size="10.00">AllocMemBuffer</text>
</a>
</g>
</g>
<!-- Node25&#45;&gt;Node26 -->
<g id="edge34" class="edge"><title>Node25&#45;&gt;Node26</title>
<path fill="none" stroke="midnightblue" d="M1090.65,-76.411C1113.32,-71.3128 1141.37,-65.0053 1165.28,-59.6294"/>
<polygon fill="midnightblue" stroke="midnightblue" points="1166.26,-62.9973 1175.25,-57.3887 1164.72,-56.1678 1166.26,-62.9973"/>
</g>
<!-- Node27 -->
<g id="node27" class="node"><title>Node27</title>
<g id="a_node27"><a xlink:href="../../d7/dc2/class_audio_player.html#aac82d03b250711ed0ce64fa22dfe3a59" target="_top" xlink:title=" ">
<polygon fill="white" stroke="black" points="1157,-114.5 1157,-133.5 1279,-133.5 1279,-114.5 1157,-114.5"/>
<text text-anchor="middle" x="1218" y="-121.5" font-family="Helvetica,sans-Serif" font-size="10.00">AudioPlayer::FindSound</text>
</a>
</g>
</g>
<!-- Node25&#45;&gt;Node27 -->
<g id="edge35" class="edge"><title>Node25&#45;&gt;Node27</title>
<path fill="none" stroke="midnightblue" d="M1090.65,-95.589C1113.15,-100.649 1140.95,-106.9 1164.74,-112.249"/>
<polygon fill="midnightblue" stroke="midnightblue" points="1164.14,-115.701 1174.66,-114.48 1165.67,-108.871 1164.14,-115.701"/>
</g>
<!-- Node29 -->
<g id="node29" class="node"><title>Node29</title>
<g id="a_node29"><a xlink:href="../../d9/d3e/namespacezlib.html#ae552beaf4387a81c63a28b01a9cc7ab4" target="_top" xlink:title=" ">
<polygon fill="white" stroke="black" points="1172,-76.5 1172,-95.5 1264,-95.5 1264,-76.5 1172,-76.5"/>
<text text-anchor="middle" x="1218" y="-83.5" font-family="Helvetica,sans-Serif" font-size="10.00">zlib::Uncompress</text>
</a>
</g>
</g>
<!-- Node25&#45;&gt;Node29 -->
<g id="edge37" class="edge"><title>Node25&#45;&gt;Node29</title>
<path fill="none" stroke="midnightblue" d="M1109.01,-86C1126.24,-86 1144.88,-86 1161.74,-86"/>
<polygon fill="midnightblue" stroke="midnightblue" points="1161.99,-89.5001 1171.99,-86 1161.99,-82.5001 1161.99,-89.5001"/>
</g>
<!-- Node25&#45;&gt;Node30 -->
<g id="edge38" class="edge"><title>Node25&#45;&gt;Node30</title>
<path fill="none" stroke="midnightblue" d="M1061.51,-76.4389C1079.7,-63.9527 1113.45,-42.1422 1145,-29 1153.24,-25.5692 1162.27,-22.6072 1171.06,-20.1106"/>
<polygon fill="midnightblue" stroke="midnightblue" points="1172.09,-23.4598 1180.84,-17.4895 1170.27,-16.6985 1172.09,-23.4598"/>
</g>
<!-- Node28 -->
<g id="node28" class="node"><title>Node28</title>
<g id="a_node28"><a xlink:href="../../d8/d44/_strings_8cpp.html#ae591bae1416df2b3638ae859ad4ede6f" target="_top" xlink:title=" ">
<polygon fill="white" stroke="black" points="1327,-114.5 1327,-133.5 1393,-133.5 1393,-114.5 1327,-114.5"/>
<text text-anchor="middle" x="1360" y="-121.5" font-family="Helvetica,sans-Serif" font-size="10.00">MakeLower</text>
</a>
</g>
</g>
<!-- Node27&#45;&gt;Node28 -->
<g id="edge36" class="edge"><title>Node27&#45;&gt;Node28</title>
<path fill="none" stroke="midnightblue" d="M1279.19,-124C1291.8,-124 1304.84,-124 1316.64,-124"/>
<polygon fill="midnightblue" stroke="midnightblue" points="1316.64,-127.5 1326.64,-124 1316.64,-120.5 1316.64,-127.5"/>
</g>
<!-- Node32 -->
<g id="node32" class="node"><title>Node32</title>
<g id="a_node32"><a xlink:href="../../d1/d20/al_8h.html#acb8f6904370d9946f4ea496e21729415" target="_top" xlink:title=" ">
<polygon fill="white" stroke="black" points="1185,-190.5 1185,-209.5 1251,-209.5 1251,-190.5 1185,-190.5"/>
<text text-anchor="middle" x="1218" y="-197.5" font-family="Helvetica,sans-Serif" font-size="10.00">alListener3f</text>
</a>
</g>
</g>
<!-- Node31&#45;&gt;Node32 -->
<g id="edge40" class="edge"><title>Node31&#45;&gt;Node32</title>
<path fill="none" stroke="midnightblue" d="M1104.27,-194.664C1127.21,-195.75 1153.29,-196.984 1174.58,-197.992"/>
<polygon fill="midnightblue" stroke="midnightblue" points="1174.46,-201.49 1184.61,-198.467 1174.79,-194.498 1174.46,-201.49"/>
</g>
<!-- Node34 -->
<g id="node34" class="node"><title>Node34</title>
<g id="a_node34"><a xlink:href="../../da/d35/struct_actor.html#a331a8ef3ae56428b66738fd06c9a3158" target="_top" xlink:title=" ">
<polygon fill="white" stroke="black" points="830.5,-491.5 830.5,-510.5 945.5,-510.5 945.5,-491.5 830.5,-491.5"/>
<text text-anchor="middle" x="888" y="-498.5" font-family="Helvetica,sans-Serif" font-size="10.00">Actor::ResetAnimation</text>
</a>
</g>
</g>
<!-- Node33&#45;&gt;Node34 -->
<g id="edge43" class="edge"><title>Node33&#45;&gt;Node34</title>
<path fill="none" stroke="midnightblue" d="M791.041,-501C800.629,-501 810.617,-501 820.371,-501"/>
<polygon fill="midnightblue" stroke="midnightblue" points="820.424,-504.5 830.424,-501 820.424,-497.5 820.424,-504.5"/>
</g>
<!-- Node36&#45;&gt;Node3 -->
<g id="edge47" class="edge"><title>Node36&#45;&gt;Node3</title>
<path fill="none" stroke="midnightblue" d="M422.656,-755.377C437.271,-758.516 454.025,-762.496 469,-767 492.279,-774.001 517.894,-783.777 537.371,-791.66"/>
<polygon fill="midnightblue" stroke="midnightblue" points="536.097,-794.92 546.677,-795.47 538.749,-788.442 536.097,-794.92"/>
</g>
<!-- Node37&#45;&gt;Node11 -->
<g id="edge56" class="edge"><title>Node37&#45;&gt;Node11</title>
<path fill="none" stroke="midnightblue" d="M209.532,-472.681C229.418,-504.554 291.981,-604.5 298,-610 422.739,-723.984 516.576,-665.468 635,-786 684.892,-836.78 713.557,-919.007 724.64,-956.386"/>
<polygon fill="midnightblue" stroke="midnightblue" points="721.406,-957.808 727.519,-966.462 728.137,-955.885 721.406,-957.808"/>
</g>
<!-- Node37&#45;&gt;Node16 -->
<g id="edge52" class="edge"><title>Node37&#45;&gt;Node16</title>
<path fill="none" stroke="midnightblue" d="M210.045,-453.359C224.376,-432.68 260.276,-383.173 298,-349 315.926,-332.761 338.8,-317.613 356.226,-307.021"/>
<polygon fill="midnightblue" stroke="midnightblue" points="358.482,-309.752 365.282,-301.627 354.899,-303.738 358.482,-309.752"/>
</g>
<!-- Node37&#45;&gt;Node18 -->
<g id="edge51" class="edge"><title>Node37&#45;&gt;Node18</title>
<path fill="none" stroke="midnightblue" d="M228.967,-453.41C247.872,-446.462 274.362,-437.084 298,-430 373.068,-407.504 397.355,-418.753 469,-387 486.58,-379.209 487.266,-370.435 505,-363 561.454,-339.333 631.04,-327.154 677.75,-321.192"/>
<polygon fill="midnightblue" stroke="midnightblue" points="678.439,-324.634 687.94,-319.944 677.588,-317.686 678.439,-324.634"/>
</g>
<!-- Node37&#45;&gt;Node19 -->
<g id="edge57" class="edge"><title>Node37&#45;&gt;Node19</title>
<path fill="none" stroke="midnightblue" d="M250.776,-458.116C350.654,-447.685 590.45,-422.053 791,-396 800.483,-394.768 810.482,-393.394 820.302,-392.001"/>
<polygon fill="midnightblue" stroke="midnightblue" points="821.038,-395.432 830.44,-390.548 820.045,-388.502 821.038,-395.432"/>
</g>
<!-- Node37&#45;&gt;Node20 -->
<g id="edge53" class="edge"><title>Node37&#45;&gt;Node20</title>
<path fill="none" stroke="midnightblue" d="M209.126,-472.585C221.906,-493.368 255.354,-542.44 298,-564 406.235,-618.719 447.719,-596 569,-596 569,-596 569,-596 732,-596 834.188,-596 862.899,-575.037 949,-520 984.106,-497.56 1015.89,-460.039 1032.92,-437.895"/>
<polygon fill="midnightblue" stroke="midnightblue" points="1035.88,-439.791 1039.1,-429.697 1030.28,-435.581 1035.88,-439.791"/>
</g>
<!-- Node37&#45;&gt;Node33 -->
<g id="edge60" class="edge"><title>Node37&#45;&gt;Node33</title>
<path fill="none" stroke="midnightblue" d="M211.347,-472.627C226.135,-489.91 260.071,-525.641 298,-539 438.341,-588.432 619.453,-538.897 694.75,-513.737"/>
<polygon fill="midnightblue" stroke="midnightblue" points="695.901,-517.042 704.239,-510.506 693.645,-510.416 695.901,-517.042"/>
</g>
<!-- Node37&#45;&gt;Node35 -->
<g id="edge54" class="edge"><title>Node37&#45;&gt;Node35</title>
<path fill="none" stroke="midnightblue" d="M213.694,-453.293C230.155,-438.118 264.176,-408.781 298,-392 307.119,-387.476 317.227,-383.679 327.189,-380.538"/>
<polygon fill="midnightblue" stroke="midnightblue" points="328.467,-383.81 337.06,-377.614 326.478,-377.099 328.467,-383.81"/>
</g>
<!-- Node38 -->
<g id="node38" class="node"><title>Node38</title>
<g id="a_node38"><a xlink:href="../../d6/d38/structstru193__math.html#a7a4a47e93ff200721e19681b71783c51" target="_top" xlink:title=" ">
<polygon fill="white" stroke="black" points="520.5,-491.5 520.5,-510.5 619.5,-510.5 619.5,-491.5 520.5,-491.5"/>
<text text-anchor="middle" x="570" y="-498.5" font-family="Helvetica,sans-Serif" font-size="10.00">stru193_math::Cos</text>
</a>
</g>
</g>
<!-- Node37&#45;&gt;Node38 -->
<g id="edge55" class="edge"><title>Node37&#45;&gt;Node38</title>
<path fill="none" stroke="midnightblue" d="M250.534,-467.89C316.874,-474.787 437.875,-487.367 510.11,-494.877"/>
<polygon fill="midnightblue" stroke="midnightblue" points="510.093,-498.394 520.401,-495.947 510.817,-491.432 510.093,-498.394"/>
</g>
<!-- Node39 -->
<g id="node39" class="node"><title>Node39</title>
<g id="a_node39"><a xlink:href="../../d6/d38/structstru193__math.html#a9bd57620c86e36d03d93f2306f8ab80a" target="_top" xlink:title=" ">
<polygon fill="white" stroke="black" points="335.5,-510.5 335.5,-529.5 431.5,-529.5 431.5,-510.5 335.5,-510.5"/>
<text text-anchor="middle" x="383.5" y="-517.5" font-family="Helvetica,sans-Serif" font-size="10.00">stru193_math::Sin</text>
</a>
</g>
</g>
<!-- Node37&#45;&gt;Node39 -->
<g id="edge58" class="edge"><title>Node37&#45;&gt;Node39</title>
<path fill="none" stroke="midnightblue" d="M229.433,-472.521C248.343,-479.35 274.638,-488.61 298,-496 310.621,-499.992 324.397,-504.036 337.094,-507.638"/>
<polygon fill="midnightblue" stroke="midnightblue" points="336.429,-511.086 347.003,-510.422 338.323,-504.347 336.429,-511.086"/>
</g>
<!-- Node39&#45;&gt;Node38 -->
<g id="edge59" class="edge"><title>Node39&#45;&gt;Node38</title>
<path fill="none" stroke="midnightblue" d="M431.535,-515.156C455.462,-512.692 484.782,-509.673 510.189,-507.056"/>
<polygon fill="midnightblue" stroke="midnightblue" points="510.854,-510.507 520.443,-506 510.137,-503.543 510.854,-510.507"/>
</g>
<!-- Node40&#45;&gt;Node16 -->
<g id="edge62" class="edge"><title>Node40&#45;&gt;Node16</title>
<path fill="none" stroke="midnightblue" d="M250.53,-306.008C269.402,-304.005 291.553,-301.654 312.26,-299.456"/>
<polygon fill="midnightblue" stroke="midnightblue" points="312.714,-302.927 322.289,-298.391 311.975,-295.966 312.714,-302.927"/>
</g>
<!-- Node40&#45;&gt;Node19 -->
<g id="edge64" class="edge"><title>Node40&#45;&gt;Node19</title>
<path fill="none" stroke="midnightblue" d="M221.335,-301.42C239.878,-292.045 270.049,-278.409 298,-273 401.695,-252.932 790.421,-296.756 791,-297 825.812,-311.7 856.667,-344.278 873.506,-364.562"/>
<polygon fill="midnightblue" stroke="midnightblue" points="870.835,-366.825 879.836,-372.414 876.285,-362.432 870.835,-366.825"/>
</g>
<!-- Node40&#45;&gt;Node33 -->
<g id="edge65" class="edge"><title>Node40&#45;&gt;Node33</title>
<path fill="none" stroke="midnightblue" d="M250.657,-313.249C316.901,-317.157 433.404,-326.994 469,-349 492.909,-363.781 483.352,-383.07 505,-401 558.59,-445.387 635.004,-473.759 683.546,-488.535"/>
<polygon fill="midnightblue" stroke="midnightblue" points="682.582,-491.9 693.165,-491.396 684.578,-485.191 682.582,-491.9"/>
</g>
<!-- Node40&#45;&gt;Node35 -->
<g id="edge63" class="edge"><title>Node40&#45;&gt;Node35</title>
<path fill="none" stroke="midnightblue" d="M229.433,-320.521C248.343,-327.35 274.638,-336.61 298,-344 310.621,-347.992 324.397,-352.036 337.094,-355.638"/>
<polygon fill="midnightblue" stroke="midnightblue" points="336.429,-359.086 347.003,-358.422 338.323,-352.347 336.429,-359.086"/>
</g>
<!-- Node41&#45;&gt;Node16 -->
<g id="edge68" class="edge"><title>Node41&#45;&gt;Node16</title>
<path fill="none" stroke="midnightblue" d="M248.669,-263.589C272.716,-268.694 302.474,-275.011 327.819,-280.392"/>
<polygon fill="midnightblue" stroke="midnightblue" points="327.147,-283.827 337.656,-282.48 328.6,-276.98 327.147,-283.827"/>
</g>
<!-- Node41&#45;&gt;Node18 -->
<g id="edge67" class="edge"><title>Node41&#45;&gt;Node18</title>
<path fill="none" stroke="midnightblue" d="M262.138,-256.979C316.008,-260.004 398.015,-265.339 469,-273 543.114,-280.999 561.536,-284.352 635,-297 648.872,-299.388 663.827,-302.245 677.674,-305.01"/>
<polygon fill="midnightblue" stroke="midnightblue" points="677.035,-308.451 687.529,-306.998 678.419,-301.59 677.035,-308.451"/>
</g>
<!-- Node41&#45;&gt;Node20 -->
<g id="edge69" class="edge"><title>Node41&#45;&gt;Node20</title>
<path fill="none" stroke="midnightblue" d="M230.609,-244.375C290.707,-223.924 440.024,-178 569,-178 569,-178 569,-178 732,-178 878.388,-178 998.279,-345.052 1034.65,-401.568"/>
<polygon fill="midnightblue" stroke="midnightblue" points="1031.81,-403.63 1040.11,-410.214 1037.73,-399.89 1031.81,-403.63"/>
</g>
<!-- Node41&#45;&gt;Node21 -->
<g id="edge71" class="edge"><title>Node41&#45;&gt;Node21</title>
<path fill="none" stroke="midnightblue" d="M206.835,-244.203C216.269,-218.254 245.898,-147.895 298,-121 426.621,-54.6061 606.837,-88.3195 687.752,-108.935"/>
<polygon fill="midnightblue" stroke="midnightblue" points="687.018,-112.361 697.578,-111.5 688.786,-105.588 687.018,-112.361"/>
</g>
<!-- Node41&#45;&gt;Node35 -->
<g id="edge70" class="edge"><title>Node41&#45;&gt;Node35</title>
<path fill="none" stroke="midnightblue" d="M218.454,-263.523C249.438,-283.256 320.884,-328.758 358.438,-352.675"/>
<polygon fill="midnightblue" stroke="midnightblue" points="356.895,-355.842 367.21,-358.262 360.655,-349.938 356.895,-355.842"/>
</g>
<!-- Node42 -->
<g id="node42" class="node"><title>Node42</title>
<g id="a_node42"><a xlink:href="../../da/d35/struct_actor.html#abcdcd09bde265d5b55d08ad248f5c473" target="_top" xlink:title=" ">
<polygon fill="white" stroke="black" points="333.5,-130.5 333.5,-149.5 433.5,-149.5 433.5,-130.5 333.5,-130.5"/>
<text text-anchor="middle" x="383.5" y="-137.5" font-family="Helvetica,sans-Serif" font-size="10.00">Actor::StandAwhile</text>
</a>
</g>
</g>
<!-- Node41&#45;&gt;Node42 -->
<g id="edge72" class="edge"><title>Node41&#45;&gt;Node42</title>
<path fill="none" stroke="midnightblue" d="M210.954,-244.271C225.6,-225.826 260.029,-185.684 298,-164 305.975,-159.446 314.873,-155.706 323.82,-152.65"/>
<polygon fill="midnightblue" stroke="midnightblue" points="325.021,-155.941 333.505,-149.596 322.916,-149.265 325.021,-155.941"/>
</g>
</g>
</svg>
