<?xml version="1.0" encoding="UTF-8" standalone="no"?>
<!DOCTYPE svg PUBLIC "-//W3C//DTD SVG 1.1//EN"
 "http://www.w3.org/Graphics/SVG/1.1/DTD/svg11.dtd">
<!-- Generated by graphviz version 2.38.0 (20140413.2041)
 -->
<!-- Title: stru262_TurnBased::End Pages: 1 -->
<svg width="777pt" height="53pt"
 viewBox="0.00 0.00 777.00 52.50" xmlns="http://www.w3.org/2000/svg" xmlns:xlink="http://www.w3.org/1999/xlink">
<g id="graph0" class="graph" transform="scale(1 1) rotate(0) translate(4 48.5)">
<title>stru262_TurnBased::End</title>
<polygon fill="white" stroke="none" points="-4,4 -4,-48.5 773,-48.5 773,4 -4,4"/>
<!-- Node1 -->
<g id="node1" class="node"><title>Node1</title>
<g id="a_node1"><a xlink:title=" ">
<polygon fill="#bfbfbf" stroke="black" points="645,-19.5 645,-38.5 769,-38.5 769,-19.5 645,-19.5"/>
<text text-anchor="middle" x="707" y="-26.5" font-family="Helvetica,sans-Serif" font-size="10.00">stru262_TurnBased::End</text>
</a>
</g>
</g>
<!-- Node2 -->
<g id="node2" class="node"><title>Node2</title>
<g id="a_node2"><a xlink:href="../../d4/d06/class_application_1_1_game.html#aaa0ff18388b32b4e6198835a35e000d3" target="_top" xlink:title=" ">
<polygon fill="white" stroke="black" points="316,-14 316,-44 419,-44 419,-14 316,-14"/>
<text text-anchor="start" x="324" y="-32" font-family="Helvetica,sans-Serif" font-size="10.00">Application::Game::</text>
<text text-anchor="middle" x="367.5" y="-21" font-family="Helvetica,sans-Serif" font-size="10.00">GameLoop</text>
</a>
</g>
</g>
<!-- Node1&#45;&gt;Node2 -->
<g id="edge1" class="edge"><title>Node1&#45;&gt;Node2</title>
<path fill="none" stroke="midnightblue" d="M634.773,-29C570.174,-29 476.544,-29 419.25,-29"/>
<polygon fill="midnightblue" stroke="midnightblue" points="634.881,-32.5001 644.881,-29 634.881,-25.5001 634.881,-32.5001"/>
</g>
<!-- Node5 -->
<g id="node5" class="node"><title>Node5</title>
<g id="a_node5"><a xlink:href="../../d6/d7e/class_keyboard.html#a145eaffd0a9728ad95e3c37ac8313b6d" target="_top" xlink:title=" ">
<polygon fill="white" stroke="black" points="455,-0.5 455,-19.5 609,-19.5 609,-0.5 455,-0.5"/>
<text text-anchor="middle" x="532" y="-7.5" font-family="Helvetica,sans-Serif" font-size="10.00">Keyboard::ProcessInputActions</text>
</a>
</g>
</g>
<!-- Node1&#45;&gt;Node5 -->
<g id="edge4" class="edge"><title>Node1&#45;&gt;Node5</title>
<path fill="none" stroke="midnightblue" d="M634.443,-21.1411C626.085,-20.2233 617.536,-19.2843 609.12,-18.36"/>
<polygon fill="midnightblue" stroke="midnightblue" points="634.197,-24.6351 644.52,-22.2478 634.961,-17.6769 634.197,-24.6351"/>
</g>
<!-- Node3 -->
<g id="node3" class="node"><title>Node3</title>
<g id="a_node3"><a xlink:href="../../d4/d06/class_application_1_1_game.html#a013ffd59e8fdf1c0a396da1dbe1681ca" target="_top" xlink:title=" ">
<polygon fill="white" stroke="black" points="156,-19.5 156,-38.5 280,-38.5 280,-19.5 156,-19.5"/>
<text text-anchor="middle" x="218" y="-26.5" font-family="Helvetica,sans-Serif" font-size="10.00">Application::Game::Loop</text>
</a>
</g>
</g>
<!-- Node2&#45;&gt;Node3 -->
<g id="edge2" class="edge"><title>Node2&#45;&gt;Node3</title>
<path fill="none" stroke="midnightblue" d="M305.59,-29C297.149,-29 288.478,-29 280.035,-29"/>
<polygon fill="midnightblue" stroke="midnightblue" points="305.739,-32.5001 315.739,-29 305.739,-25.5001 305.739,-32.5001"/>
</g>
<!-- Node4 -->
<g id="node4" class="node"><title>Node4</title>
<g id="a_node4"><a xlink:href="../../d4/d06/class_application_1_1_game.html#a96341ca5b54d90adc3ecb3bf0bcd2312" target="_top" xlink:title=" ">
<polygon fill="white" stroke="black" points="0,-19.5 0,-38.5 120,-38.5 120,-19.5 0,-19.5"/>
<text text-anchor="middle" x="60" y="-26.5" font-family="Helvetica,sans-Serif" font-size="10.00">Application::Game::Run</text>
</a>
</g>
</g>
<!-- Node3&#45;&gt;Node4 -->
<g id="edge3" class="edge"><title>Node3&#45;&gt;Node4</title>
<path fill="none" stroke="midnightblue" d="M145.546,-29C137.081,-29 128.513,-29 120.244,-29"/>
<polygon fill="midnightblue" stroke="midnightblue" points="145.792,-32.5001 155.792,-29 145.792,-25.5001 145.792,-32.5001"/>
</g>
<!-- Node5&#45;&gt;Node2 -->
<g id="edge5" class="edge"><title>Node5&#45;&gt;Node2</title>
<path fill="none" stroke="midnightblue" d="M444.795,-20.0793C436.125,-21.093 427.531,-22.0979 419.409,-23.0475"/>
<polygon fill="midnightblue" stroke="midnightblue" points="445.458,-23.5258 454.984,-18.8881 444.645,-16.5732 445.458,-23.5258"/>
</g>
</g>
</svg>
