<?xml version="1.0" encoding="UTF-8" standalone="no"?>
<!DOCTYPE svg PUBLIC "-//W3C//DTD SVG 1.1//EN"
 "http://www.w3.org/Graphics/SVG/1.1/DTD/svg11.dtd">
<!-- Generated by graphviz version 2.38.0 (20140413.2041)
 -->
<!-- Title: stru262_TurnBased::SortTurnQueue Pages: 1 -->
<!--zoomable 349 -->
<svg id="main" version="1.1" xmlns="http://www.w3.org/2000/svg" xmlns:xlink="http://www.w3.org/1999/xlink" xml:space="preserve" onload="init(evt)">
<style type="text/css"><![CDATA[
.edge:hover path { stroke: red; }
.edge:hover polygon { stroke: red; fill: red; }
]]></style>
<script type="text/javascript"><![CDATA[
var edges = document.getElementsByTagName('g');
if (edges && edges.length) {
  for (var i=0;i<edges.length;i++) {
    if (edges[i].id.substr(0,4)=='edge') {
      edges[i].setAttribute('class','edge');
    }
  }
}
]]></script>
        <defs>
                <circle id="rim" cx="0" cy="0" r="7"/>
                <circle id="rim2" cx="0" cy="0" r="3.5"/>
                <g id="zoomPlus">
                        <use xlink:href="#rim" fill="#404040">
                                <set attributeName="fill" to="#808080" begin="zoomplus.mouseover" end="zoomplus.mouseout"/>
                        </use>
                        <path d="M-4,0h8M0,-4v8" fill="none" stroke="white" stroke-width="1.5" pointer-events="none"/>
                </g>
                <g id="zoomMin">
                        <use xlink:href="#rim" fill="#404040">
                                <set attributeName="fill" to="#808080" begin="zoomminus.mouseover" end="zoomminus.mouseout"/>
                        </use>
                        <path d="M-4,0h8" fill="none" stroke="white" stroke-width="1.5" pointer-events="none"/>
                </g>
                <g id="dirArrow">
                        <path fill="none" stroke="white" stroke-width="1.5" d="M0,-3.0v7 M-2.5,-0.5L0,-3.0L2.5,-0.5"/>
                </g>
               <g id="resetDef">
                       <use xlink:href="#rim2" fill="#404040">
                               <set attributeName="fill" to="#808080" begin="reset.mouseover" end="reset.mouseout"/>
                       </use>
               </g>
        </defs>

<script type="text/javascript">
var viewWidth = 1198;
var viewHeight = 349;
var sectionId = 'dynsection-1';
</script>
<script xlink:href="../../svgpan.js"/>
<svg id="graph" class="graph">
<g id="viewport">
<title>stru262_TurnBased::SortTurnQueue</title>
<polygon fill="white" stroke="none" points="-4,4 -4,-345 1194,-345 1194,4 -4,4"/>
<!-- Node1 -->
<g id="node1" class="node"><title>Node1</title>
<g id="a_node1"><a xlink:title=" ">
<polygon fill="#bfbfbf" stroke="black" points="1083,-96.5 1083,-126.5 1190,-126.5 1190,-96.5 1083,-96.5"/>
<text text-anchor="start" x="1091" y="-114.5" font-family="Helvetica,sans-Serif" font-size="10.00">stru262_TurnBased::</text>
<text text-anchor="middle" x="1136.5" y="-103.5" font-family="Helvetica,sans-Serif" font-size="10.00">SortTurnQueue</text>
</a>
</g>
</g>
<!-- Node2 -->
<g id="node2" class="node"><title>Node2</title>
<g id="a_node2"><a xlink:href="../../d1/d28/structstru262___turn_based.html#acc5ba3b83209d0bd9fc96cbed166c415" target="_top" xlink:title=" ">
<polygon fill="white" stroke="black" points="940,-188.5 940,-218.5 1047,-218.5 1047,-188.5 940,-188.5"/>
<text text-anchor="start" x="948" y="-206.5" font-family="Helvetica,sans-Serif" font-size="10.00">stru262_TurnBased::</text>
<text text-anchor="middle" x="993.5" y="-195.5" font-family="Helvetica,sans-Serif" font-size="10.00">_406457</text>
</a>
</g>
</g>
<!-- Node1&#45;&gt;Node2 -->
<g id="edge1" class="edge"><title>Node1&#45;&gt;Node2</title>
<path fill="none" stroke="midnightblue" d="M1103.79,-132.187C1077.7,-149.215 1041.3,-172.962 1017.82,-188.286"/>
<polygon fill="midnightblue" stroke="midnightblue" points="1105.75,-135.088 1112.22,-126.692 1101.93,-129.225 1105.75,-135.088"/>
</g>
<!-- Node13 -->
<g id="node13" class="node"><title>Node13</title>
<g id="a_node13"><a xlink:href="../../d1/d28/structstru262___turn_based.html#a1dde7742f9c5b02777ab10742a6e7b5e" target="_top" xlink:title=" ">
<polygon fill="white" stroke="black" points="797,-92.5 797,-122.5 904,-122.5 904,-92.5 797,-92.5"/>
<text text-anchor="start" x="805" y="-110.5" font-family="Helvetica,sans-Serif" font-size="10.00">stru262_TurnBased::</text>
<text text-anchor="middle" x="850.5" y="-99.5" font-family="Helvetica,sans-Serif" font-size="10.00">_4065B0</text>
</a>
</g>
</g>
<!-- Node1&#45;&gt;Node13 -->
<g id="edge16" class="edge"><title>Node1&#45;&gt;Node13</title>
<path fill="none" stroke="midnightblue" d="M1072.61,-110.614C1022.14,-109.903 952.087,-108.917 904.451,-108.246"/>
<polygon fill="midnightblue" stroke="midnightblue" points="1072.7,-114.116 1082.75,-110.757 1072.8,-107.116 1072.7,-114.116"/>
</g>
<!-- Node16 -->
<g id="node16" class="node"><title>Node16</title>
<g id="a_node16"><a xlink:href="../../d1/d28/structstru262___turn_based.html#a3d510c1516767374020392bb323a3c06" target="_top" xlink:title=" ">
<polygon fill="white" stroke="black" points="940,-0.5 940,-30.5 1047,-30.5 1047,-0.5 940,-0.5"/>
<text text-anchor="start" x="948" y="-18.5" font-family="Helvetica,sans-Serif" font-size="10.00">stru262_TurnBased::</text>
<text text-anchor="middle" x="993.5" y="-7.5" font-family="Helvetica,sans-Serif" font-size="10.00">NextTurn</text>
</a>
</g>
</g>
<!-- Node1&#45;&gt;Node16 -->
<g id="edge20" class="edge"><title>Node1&#45;&gt;Node16</title>
<path fill="none" stroke="midnightblue" d="M1110.35,-89.8365C1093.13,-75.5244 1069.43,-56.8345 1047,-42.5 1040.44,-38.3056 1033.14,-34.2221 1026.13,-30.5531"/>
<polygon fill="midnightblue" stroke="midnightblue" points="1108.35,-92.7208 1118.25,-96.4725 1112.85,-87.3607 1108.35,-92.7208"/>
</g>
<!-- Node17 -->
<g id="node17" class="node"><title>Node17</title>
<g id="a_node17"><a xlink:href="../../d1/d28/structstru262___turn_based.html#adce7b0d24a6f44d9ff1e77a621c29989" target="_top" xlink:title=" ">
<polygon fill="white" stroke="black" points="797,-141.5 797,-171.5 904,-171.5 904,-141.5 797,-141.5"/>
<text text-anchor="start" x="805" y="-159.5" font-family="Helvetica,sans-Serif" font-size="10.00">stru262_TurnBased::</text>
<text text-anchor="middle" x="850.5" y="-148.5" font-family="Helvetica,sans-Serif" font-size="10.00">Start</text>
</a>
</g>
</g>
<!-- Node1&#45;&gt;Node17 -->
<g id="edge22" class="edge"><title>Node1&#45;&gt;Node17</title>
<path fill="none" stroke="midnightblue" d="M1072.61,-121.465C1022.14,-129.462 952.087,-140.562 904.451,-148.11"/>
<polygon fill="midnightblue" stroke="midnightblue" points="1073.42,-124.881 1082.75,-119.859 1072.32,-117.967 1073.42,-124.881"/>
</g>
<!-- Node18 -->
<g id="node18" class="node"><title>Node18</title>
<g id="a_node18"><a xlink:href="../../d1/d28/structstru262___turn_based.html#a32b51ac7d759a3128faa707dd5343aba" target="_top" xlink:title=" ">
<polygon fill="white" stroke="black" points="940,-52.5 940,-82.5 1047,-82.5 1047,-52.5 940,-52.5"/>
<text text-anchor="start" x="948" y="-70.5" font-family="Helvetica,sans-Serif" font-size="10.00">stru262_TurnBased::</text>
<text text-anchor="middle" x="993.5" y="-59.5" font-family="Helvetica,sans-Serif" font-size="10.00">StepTurnQueue</text>
</a>
</g>
</g>
<!-- Node1&#45;&gt;Node18 -->
<g id="edge24" class="edge"><title>Node1&#45;&gt;Node18</title>
<path fill="none" stroke="midnightblue" d="M1077.78,-93.4871C1066.19,-89.8708 1054.12,-86.1059 1042.89,-82.6009"/>
<polygon fill="midnightblue" stroke="midnightblue" points="1076.78,-96.8429 1087.37,-96.4808 1078.87,-90.1607 1076.78,-96.8429"/>
</g>
<!-- Node3 -->
<g id="node3" class="node"><title>Node3</title>
<g id="a_node3"><a xlink:href="../../d1/d28/structstru262___turn_based.html#ab2352a59c8ec5c9fa0392015065b77f6" target="_top" xlink:title=" ">
<polygon fill="white" stroke="black" points="797,-190.5 797,-220.5 904,-220.5 904,-190.5 797,-190.5"/>
<text text-anchor="start" x="805" y="-208.5" font-family="Helvetica,sans-Serif" font-size="10.00">stru262_TurnBased::</text>
<text text-anchor="middle" x="850.5" y="-197.5" font-family="Helvetica,sans-Serif" font-size="10.00">ApplyPlayerAction</text>
</a>
</g>
</g>
<!-- Node2&#45;&gt;Node3 -->
<g id="edge2" class="edge"><title>Node2&#45;&gt;Node3</title>
<path fill="none" stroke="midnightblue" d="M929.95,-204.387C921.3,-204.51 912.49,-204.635 904.047,-204.755"/>
<polygon fill="midnightblue" stroke="midnightblue" points="930.047,-207.886 939.997,-204.245 929.948,-200.887 930.047,-207.886"/>
</g>
<!-- Node4 -->
<g id="node4" class="node"><title>Node4</title>
<g id="a_node4"><a xlink:href="../../d8/d06/namespace_cast_spell_info_helpers.html#a6fa3b22b4867c28cad6c215c646dc4aa" target="_top" xlink:title=" ">
<polygon fill="white" stroke="black" points="625.5,-310.5 625.5,-340.5 735.5,-340.5 735.5,-310.5 625.5,-310.5"/>
<text text-anchor="start" x="633.5" y="-328.5" font-family="Helvetica,sans-Serif" font-size="10.00">CastSpellInfoHelpers</text>
<text text-anchor="middle" x="680.5" y="-317.5" font-family="Helvetica,sans-Serif" font-size="10.00">::_427E01_cast_spell</text>
</a>
</g>
</g>
<!-- Node3&#45;&gt;Node4 -->
<g id="edge3" class="edge"><title>Node3&#45;&gt;Node4</title>
<path fill="none" stroke="midnightblue" d="M833.29,-228.891C817.249,-250.389 790.826,-281.686 761,-300.5 753.29,-305.363 744.561,-309.346 735.78,-312.589"/>
<polygon fill="midnightblue" stroke="midnightblue" points="836.254,-230.766 839.31,-220.622 830.595,-226.646 836.254,-230.766"/>
</g>
<!-- Node5 -->
<g id="node5" class="node"><title>Node5</title>
<g id="a_node5"><a xlink:href="../../d4/d06/class_application_1_1_game.html#a3f65e3f0ef1a9114fb3dea275e52442e" target="_top" xlink:title=" ">
<polygon fill="white" stroke="black" points="458,-184.5 458,-214.5 561,-214.5 561,-184.5 458,-184.5"/>
<text text-anchor="start" x="466" y="-202.5" font-family="Helvetica,sans-Serif" font-size="10.00">Application::Game::</text>
<text text-anchor="middle" x="509.5" y="-191.5" font-family="Helvetica,sans-Serif" font-size="10.00">EventLoop</text>
</a>
</g>
</g>
<!-- Node3&#45;&gt;Node5 -->
<g id="edge10" class="edge"><title>Node3&#45;&gt;Node5</title>
<path fill="none" stroke="midnightblue" d="M786.842,-219.859C778.202,-221.365 769.41,-222.653 761,-223.5 689.804,-230.667 670.942,-232.847 600,-223.5 585.965,-221.651 571.003,-218.237 557.41,-214.553"/>
<polygon fill="midnightblue" stroke="midnightblue" points="787.686,-223.262 796.884,-218.004 786.414,-216.379 787.686,-223.262"/>
</g>
<!-- Node9 -->
<g id="node9" class="node"><title>Node9</title>
<g id="a_node9"><a xlink:href="../../d3/db1/struct_player.html#adcd0e965260bb120a6e90b515cc748ac" target="_top" xlink:title=" ">
<polygon fill="white" stroke="black" points="601.5,-184.5 601.5,-214.5 759.5,-214.5 759.5,-184.5 601.5,-184.5"/>
<text text-anchor="start" x="609.5" y="-202.5" font-family="Helvetica,sans-Serif" font-size="10.00">Player::_42ECB5_PlayerAttacks</text>
<text text-anchor="middle" x="680.5" y="-191.5" font-family="Helvetica,sans-Serif" font-size="10.00">Actor</text>
</a>
</g>
</g>
<!-- Node3&#45;&gt;Node9 -->
<g id="edge8" class="edge"><title>Node3&#45;&gt;Node9</title>
<path fill="none" stroke="midnightblue" d="M786.614,-203.254C777.781,-202.939 768.615,-202.611 759.541,-202.287"/>
<polygon fill="midnightblue" stroke="midnightblue" points="786.686,-206.759 796.805,-203.618 786.936,-199.763 786.686,-206.759"/>
</g>
<!-- Node10 -->
<g id="node10" class="node"><title>Node10</title>
<g id="a_node10"><a xlink:href="../../d6/d7e/class_keyboard.html#a145eaffd0a9728ad95e3c37ac8313b6d" target="_top" xlink:title=" ">
<polygon fill="white" stroke="black" points="603.5,-108 603.5,-127 757.5,-127 757.5,-108 603.5,-108"/>
<text text-anchor="middle" x="680.5" y="-115" font-family="Helvetica,sans-Serif" font-size="10.00">Keyboard::ProcessInputActions</text>
</a>
</g>
</g>
<!-- Node3&#45;&gt;Node10 -->
<g id="edge11" class="edge"><title>Node3&#45;&gt;Node10</title>
<path fill="none" stroke="midnightblue" d="M803.468,-185.11C801.222,-183.645 799.051,-182.107 797,-180.5 777.113,-164.914 782.41,-149.918 761,-136.5 754.747,-132.581 747.755,-129.471 740.58,-127.001"/>
<polygon fill="midnightblue" stroke="midnightblue" points="802.02,-188.32 812.409,-190.399 805.584,-182.295 802.02,-188.32"/>
</g>
<!-- Node11 -->
<g id="node11" class="node"><title>Node11</title>
<g id="a_node11"><a xlink:href="../../da/d35/struct_actor.html#a4d67f03cd45a4619eccf79838f9eb3a7" target="_top" xlink:title=" ">
<polygon fill="white" stroke="black" points="635,-146 635,-165 726,-165 726,-146 635,-146"/>
<text text-anchor="middle" x="680.5" y="-153" font-family="Helvetica,sans-Serif" font-size="10.00">Actor::StealFrom</text>
</a>
</g>
</g>
<!-- Node3&#45;&gt;Node11 -->
<g id="edge13" class="edge"><title>Node3&#45;&gt;Node11</title>
<path fill="none" stroke="midnightblue" d="M799.47,-186.974C786.986,-182.629 773.571,-178.194 761,-174.5 749.427,-171.1 736.775,-167.863 725.036,-165.056"/>
<polygon fill="midnightblue" stroke="midnightblue" points="798.655,-190.398 809.249,-190.424 800.983,-183.796 798.655,-190.398"/>
</g>
<!-- Node12 -->
<g id="node12" class="node"><title>Node12</title>
<g id="a_node12"><a xlink:href="../../d3/db1/struct_player.html#a3de138c2c484a5eced6fade1b560fd87" target="_top" xlink:title=" ">
<polygon fill="white" stroke="black" points="600,-272 600,-291 761,-291 761,-272 600,-272"/>
<text text-anchor="middle" x="680.5" y="-279" font-family="Helvetica,sans-Serif" font-size="10.00">Player::UseItem_DrinkPotion_etc</text>
</a>
</g>
</g>
<!-- Node3&#45;&gt;Node12 -->
<g id="edge15" class="edge"><title>Node3&#45;&gt;Node12</title>
<path fill="none" stroke="midnightblue" d="M818.654,-226.079C802.072,-236.503 780.976,-248.765 761,-257.5 747.922,-263.218 733.07,-268.103 719.772,-271.944"/>
<polygon fill="midnightblue" stroke="midnightblue" points="820.825,-228.846 827.367,-220.512 817.056,-222.947 820.825,-228.846"/>
</g>
<!-- Node4&#45;&gt;Node5 -->
<g id="edge4" class="edge"><title>Node4&#45;&gt;Node5</title>
<path fill="none" stroke="midnightblue" d="M615.735,-308.93C610.231,-306.473 604.9,-303.677 600,-300.5 564.614,-277.559 534.742,-236.946 520.124,-214.854"/>
<polygon fill="midnightblue" stroke="midnightblue" points="614.534,-312.22 625.116,-312.752 617.175,-305.738 614.534,-312.22"/>
</g>
<!-- Node6 -->
<g id="node6" class="node"><title>Node6</title>
<g id="a_node6"><a xlink:href="../../d4/d06/class_application_1_1_game.html#aaa0ff18388b32b4e6198835a35e000d3" target="_top" xlink:title=" ">
<polygon fill="white" stroke="black" points="316,-102.5 316,-132.5 419,-132.5 419,-102.5 316,-102.5"/>
<text text-anchor="start" x="324" y="-120.5" font-family="Helvetica,sans-Serif" font-size="10.00">Application::Game::</text>
<text text-anchor="middle" x="367.5" y="-109.5" font-family="Helvetica,sans-Serif" font-size="10.00">GameLoop</text>
</a>
</g>
</g>
<!-- Node5&#45;&gt;Node6 -->
<g id="edge5" class="edge"><title>Node5&#45;&gt;Node6</title>
<path fill="none" stroke="midnightblue" d="M474.155,-179.384C449.555,-164.975 416.941,-145.873 394.489,-132.722"/>
<polygon fill="midnightblue" stroke="midnightblue" points="472.424,-182.426 482.822,-184.46 475.962,-176.386 472.424,-182.426"/>
</g>
<!-- Node7 -->
<g id="node7" class="node"><title>Node7</title>
<g id="a_node7"><a xlink:href="../../d4/d06/class_application_1_1_game.html#a013ffd59e8fdf1c0a396da1dbe1681ca" target="_top" xlink:title=" ">
<polygon fill="white" stroke="black" points="156,-108 156,-127 280,-127 280,-108 156,-108"/>
<text text-anchor="middle" x="218" y="-115" font-family="Helvetica,sans-Serif" font-size="10.00">Application::Game::Loop</text>
</a>
</g>
</g>
<!-- Node6&#45;&gt;Node7 -->
<g id="edge6" class="edge"><title>Node6&#45;&gt;Node7</title>
<path fill="none" stroke="midnightblue" d="M305.59,-117.5C297.149,-117.5 288.478,-117.5 280.035,-117.5"/>
<polygon fill="midnightblue" stroke="midnightblue" points="305.739,-121 315.739,-117.5 305.739,-114 305.739,-121"/>
</g>
<!-- Node8 -->
<g id="node8" class="node"><title>Node8</title>
<g id="a_node8"><a xlink:href="../../d4/d06/class_application_1_1_game.html#a96341ca5b54d90adc3ecb3bf0bcd2312" target="_top" xlink:title=" ">
<polygon fill="white" stroke="black" points="0,-108 0,-127 120,-127 120,-108 0,-108"/>
<text text-anchor="middle" x="60" y="-115" font-family="Helvetica,sans-Serif" font-size="10.00">Application::Game::Run</text>
</a>
</g>
</g>
<!-- Node7&#45;&gt;Node8 -->
<g id="edge7" class="edge"><title>Node7&#45;&gt;Node8</title>
<path fill="none" stroke="midnightblue" d="M145.546,-117.5C137.081,-117.5 128.513,-117.5 120.244,-117.5"/>
<polygon fill="midnightblue" stroke="midnightblue" points="145.792,-121 155.792,-117.5 145.792,-114 145.792,-121"/>
</g>
<!-- Node9&#45;&gt;Node5 -->
<g id="edge9" class="edge"><title>Node9&#45;&gt;Node5</title>
<path fill="none" stroke="midnightblue" d="M591.163,-199.5C580.897,-199.5 570.707,-199.5 561.2,-199.5"/>
<polygon fill="midnightblue" stroke="midnightblue" points="591.431,-203 601.431,-199.5 591.431,-196 591.431,-203"/>
</g>
<!-- Node10&#45;&gt;Node6 -->
<g id="edge12" class="edge"><title>Node10&#45;&gt;Node6</title>
<path fill="none" stroke="midnightblue" d="M593.144,-117.5C537.117,-117.5 466.053,-117.5 419.023,-117.5"/>
<polygon fill="midnightblue" stroke="midnightblue" points="593.421,-121 603.421,-117.5 593.421,-114 593.421,-121"/>
</g>
<!-- Node11&#45;&gt;Node5 -->
<g id="edge14" class="edge"><title>Node11&#45;&gt;Node5</title>
<path fill="none" stroke="midnightblue" d="M628.151,-167.471C618.77,-169.744 609.079,-172.148 600,-174.5 587.35,-177.777 573.745,-181.483 561.056,-185.019"/>
<polygon fill="midnightblue" stroke="midnightblue" points="629.259,-170.805 638.164,-165.066 627.624,-163.998 629.259,-170.805"/>
</g>
<!-- Node14 -->
<g id="node14" class="node"><title>Node14</title>
<g id="a_node14"><a xlink:href="../../d1/d28/structstru262___turn_based.html#a594cf1020b0200b78abf16be8f3ab722" target="_top" xlink:title=" ">
<polygon fill="white" stroke="black" points="627,-48.5 627,-78.5 734,-78.5 734,-48.5 627,-48.5"/>
<text text-anchor="start" x="635" y="-66.5" font-family="Helvetica,sans-Serif" font-size="10.00">stru262_TurnBased::</text>
<text text-anchor="middle" x="680.5" y="-55.5" font-family="Helvetica,sans-Serif" font-size="10.00">AITurnBasedAction</text>
</a>
</g>
</g>
<!-- Node13&#45;&gt;Node14 -->
<g id="edge17" class="edge"><title>Node13&#45;&gt;Node14</title>
<path fill="none" stroke="midnightblue" d="M786.754,-91.0666C769.389,-86.5184 750.726,-81.6305 734.008,-77.2522"/>
<polygon fill="midnightblue" stroke="midnightblue" points="786.244,-94.551 796.805,-93.6988 788.018,-87.7794 786.244,-94.551"/>
</g>
<!-- Node15 -->
<g id="node15" class="node"><title>Node15</title>
<g id="a_node15"><a xlink:href="../../da/d35/struct_actor.html#a8ad58b6020b186e538e3e033f81c073a" target="_top" xlink:title=" ">
<polygon fill="white" stroke="black" points="455,-62 455,-81 564,-81 564,-62 455,-62"/>
<text text-anchor="middle" x="509.5" y="-69" font-family="Helvetica,sans-Serif" font-size="10.00">Actor::UpdateActorAI</text>
</a>
</g>
</g>
<!-- Node14&#45;&gt;Node15 -->
<g id="edge18" class="edge"><title>Node14&#45;&gt;Node15</title>
<path fill="none" stroke="midnightblue" d="M616.928,-66.462C599.601,-67.2822 580.952,-68.165 564.179,-68.959"/>
<polygon fill="midnightblue" stroke="midnightblue" points="617.13,-69.9564 626.954,-65.9874 616.799,-62.9643 617.13,-69.9564"/>
</g>
<!-- Node15&#45;&gt;Node6 -->
<g id="edge19" class="edge"><title>Node15&#45;&gt;Node6</title>
<path fill="none" stroke="midnightblue" d="M469.777,-84.2231C452.585,-89.8722 432.223,-96.5624 414.282,-102.457"/>
<polygon fill="midnightblue" stroke="midnightblue" points="471.084,-87.4779 479.492,-81.0312 468.899,-80.8277 471.084,-87.4779"/>
</g>
<!-- Node16&#45;&gt;Node14 -->
<g id="edge21" class="edge"><title>Node16&#45;&gt;Node14</title>
<path fill="none" stroke="midnightblue" d="M929.884,-18.6711C891.353,-21.2633 841.075,-25.7995 797,-33.5 775.469,-37.2617 752.069,-43.018 731.996,-48.486"/>
<polygon fill="midnightblue" stroke="midnightblue" points="930.166,-22.1603 939.919,-18.0219 929.714,-15.1749 930.166,-22.1603"/>
</g>
<!-- Node17&#45;&gt;Node10 -->
<g id="edge23" class="edge"><title>Node17&#45;&gt;Node10</title>
<path fill="none" stroke="midnightblue" d="M786.779,-141.94C765.312,-136.956 741.859,-131.512 722.55,-127.029"/>
<polygon fill="midnightblue" stroke="midnightblue" points="786.272,-145.415 796.805,-144.267 787.855,-138.596 786.272,-145.415"/>
</g>
<!-- Node18&#45;&gt;Node13 -->
<g id="edge25" class="edge"><title>Node18&#45;&gt;Node13</title>
<path fill="none" stroke="midnightblue" d="M930.232,-85.1648C921.492,-87.6441 912.582,-90.1719 904.047,-92.593"/>
<polygon fill="midnightblue" stroke="midnightblue" points="931.332,-88.4909 939.997,-82.3945 929.421,-81.7566 931.332,-88.4909"/>
</g>
<!-- Node19 -->
<g id="node19" class="node"><title>Node19</title>
<g id="a_node19"><a xlink:href="../../d1/d28/structstru262___turn_based.html#a9248876f397ec7a74c8f54a072bf2ca0" target="_top" xlink:title=" ">
<polygon fill="white" stroke="black" points="797,-43.5 797,-73.5 904,-73.5 904,-43.5 797,-43.5"/>
<text text-anchor="start" x="805" y="-61.5" font-family="Helvetica,sans-Serif" font-size="10.00">stru262_TurnBased::</text>
<text text-anchor="middle" x="850.5" y="-50.5" font-family="Helvetica,sans-Serif" font-size="10.00">StartTurn</text>
</a>
</g>
</g>
<!-- Node18&#45;&gt;Node19 -->
<g id="edge26" class="edge"><title>Node18&#45;&gt;Node19</title>
<path fill="none" stroke="midnightblue" d="M929.95,-63.5074C921.3,-62.9554 912.49,-62.393 904.047,-61.8541"/>
<polygon fill="midnightblue" stroke="midnightblue" points="929.794,-67.0045 939.997,-64.1487 930.24,-60.0187 929.794,-67.0045"/>
</g>
<!-- Node19&#45;&gt;Node14 -->
<g id="edge27" class="edge"><title>Node19&#45;&gt;Node14</title>
<path fill="none" stroke="midnightblue" d="M786.754,-60.3674C769.389,-60.8843 750.726,-61.4397 734.008,-61.9373"/>
<polygon fill="midnightblue" stroke="midnightblue" points="786.913,-63.8643 796.805,-60.0683 786.705,-56.8674 786.913,-63.8643"/>
</g>
</g>
</svg>
        <g id="navigator" transform="translate(0 0)" fill="#404254">
                <rect fill="#f2f5e9" fill-opacity="0.5" stroke="#606060" stroke-width=".5" x="0" y="0" width="60" height="60"/>
                <use id="zoomplus" xlink:href="#zoomPlus" x="17" y="9" onmousedown="handleZoom(evt,'in')"/>
                <use id="zoomminus" xlink:href="#zoomMin" x="42" y="9" onmousedown="handleZoom(evt,'out')"/>
                <use id="reset" xlink:href="#resetDef" x="30" y="36" onmousedown="handleReset()"/>
                <g id="arrowUp" xlink:href="#dirArrow" transform="translate(30 24)" onmousedown="handlePan(0,-1)">
                  <use xlink:href="#rim" fill="#404040">
                        <set attributeName="fill" to="#808080" begin="arrowUp.mouseover" end="arrowUp.mouseout"/>
                  </use>
                  <path fill="none" stroke="white" stroke-width="1.5" d="M0,-3.0v7 M-2.5,-0.5L0,-3.0L2.5,-0.5"/>
                </g>
                <g id="arrowRight" xlink:href="#dirArrow" transform="rotate(90) translate(36 -43)" onmousedown="handlePan(1,0)">
                  <use xlink:href="#rim" fill="#404040">
                        <set attributeName="fill" to="#808080" begin="arrowRight.mouseover" end="arrowRight.mouseout"/>
                  </use>
                  <path fill="none" stroke="white" stroke-width="1.5" d="M0,-3.0v7 M-2.5,-0.5L0,-3.0L2.5,-0.5"/>
                </g>
                <g id="arrowDown" xlink:href="#dirArrow" transform="rotate(180) translate(-30 -48)" onmousedown="handlePan(0,1)">
                  <use xlink:href="#rim" fill="#404040">
                        <set attributeName="fill" to="#808080" begin="arrowDown.mouseover" end="arrowDown.mouseout"/>
                  </use>
                  <path fill="none" stroke="white" stroke-width="1.5" d="M0,-3.0v7 M-2.5,-0.5L0,-3.0L2.5,-0.5"/>
                </g>
                <g id="arrowLeft" xlink:href="#dirArrow" transform="rotate(270) translate(-36 17)" onmousedown="handlePan(-1,0)">
                  <use xlink:href="#rim" fill="#404040">
                        <set attributeName="fill" to="#808080" begin="arrowLeft.mouseover" end="arrowLeft.mouseout"/>
                  </use>
                  <path fill="none" stroke="white" stroke-width="1.5" d="M0,-3.0v7 M-2.5,-0.5L0,-3.0L2.5,-0.5"/>
                </g>
        </g>
        <svg viewBox="0 0 15 15" width="100%" height="30px" preserveAspectRatio="xMaxYMin meet">
         <g id="arrow_out" transform="scale(0.3 0.3)">
          <a xlink:href="structstru262___turn_based_a6976f75a21f712909feebb0bcb786ffe_icgraph_org.svg" target="_base">
           <rect id="button" ry="5" rx="5" y="6" x="6" height="38" width="38"
                fill="#f2f5e9" fill-opacity="0.5" stroke="#606060" stroke-width="1.0"/>
           <path id="arrow"
             d="M 11.500037,31.436501 C 11.940474,20.09759 22.043105,11.32322 32.158766,21.979434 L 37.068811,17.246167 C 37.068811,17.246167 37.088388,32 37.088388,32 L 22.160133,31.978069 C 22.160133,31.978069 26.997745,27.140456 26.997745,27.140456 C 18.528582,18.264221 13.291696,25.230495 11.500037,31.436501 z"
             style="fill:#404040;"/>
          </a>
         </g>
        </svg>
</svg>
