<?xml version="1.0" encoding="UTF-8" standalone="no"?>
<!DOCTYPE svg PUBLIC "-//W3C//DTD SVG 1.1//EN"
 "http://www.w3.org/Graphics/SVG/1.1/DTD/svg11.dtd">
<!-- Generated by graphviz version 2.38.0 (20140413.2041)
 -->
<!-- Title: stru262_TurnBased::Start Pages: 1 -->
<svg width="1167pt" height="456pt"
 viewBox="0.00 0.00 1167.00 456.39" xmlns="http://www.w3.org/2000/svg" xmlns:xlink="http://www.w3.org/1999/xlink">
<g id="graph0" class="graph" transform="scale(1 1) rotate(0) translate(4 452.387)">
<title>stru262_TurnBased::Start</title>
<polygon fill="white" stroke="none" points="-4,4 -4,-452.387 1163,-452.387 1163,4 -4,4"/>
<!-- Node1 -->
<g id="node1" class="node"><title>Node1</title>
<g id="a_node1"><a xlink:title=" ">
<polygon fill="#bfbfbf" stroke="black" points="0,-140 0,-170 107,-170 107,-140 0,-140"/>
<text text-anchor="start" x="8" y="-158" font-family="Helvetica,sans-Serif" font-size="10.00">stru262_TurnBased::</text>
<text text-anchor="middle" x="53.5" y="-147" font-family="Helvetica,sans-Serif" font-size="10.00">Start</text>
</a>
</g>
</g>
<!-- Node2 -->
<g id="node2" class="node"><title>Node2</title>
<g id="a_node2"><a xlink:href="../../da/d35/struct_actor.html#a6e012ac29ba0000e4a99caf2433cfb7d" target="_top" xlink:title=" ">
<polygon fill="white" stroke="black" points="150,-316.5 150,-335.5 272,-335.5 272,-316.5 150,-316.5"/>
<text text-anchor="middle" x="211" y="-323.5" font-family="Helvetica,sans-Serif" font-size="10.00">Actor::AI_StandOrBored</text>
</a>
</g>
</g>
<!-- Node1&#45;&gt;Node2 -->
<g id="edge1" class="edge"><title>Node1&#45;&gt;Node2</title>
<path fill="none" stroke="midnightblue" d="M68.2996,-170.175C97.2161,-201.974 163.998,-275.413 194.409,-308.855"/>
<polygon fill="midnightblue" stroke="midnightblue" points="191.994,-311.402 201.312,-316.446 197.173,-306.692 191.994,-311.402"/>
</g>
<!-- Node5 -->
<g id="node5" class="node"><title>Node5</title>
<g id="a_node5"><a xlink:href="../../da/d35/struct_actor.html#a1263c7717de137c127b39df0cf4593c0" target="_top" xlink:title=" ">
<polygon fill="white" stroke="black" points="596.5,-360.5 596.5,-379.5 711.5,-379.5 711.5,-360.5 596.5,-360.5"/>
<text text-anchor="middle" x="654" y="-367.5" font-family="Helvetica,sans-Serif" font-size="10.00">Actor::GetDirectionInfo</text>
</a>
</g>
</g>
<!-- Node1&#45;&gt;Node5 -->
<g id="edge25" class="edge"><title>Node1&#45;&gt;Node5</title>
<path fill="none" stroke="midnightblue" d="M57.058,-170.251C63.9485,-206.418 86.3534,-297.872 143,-345 286.812,-464.646 375.474,-466.225 557,-421 584.541,-414.139 612.854,-397.738 631.527,-385.374"/>
<polygon fill="midnightblue" stroke="midnightblue" points="633.58,-388.211 639.874,-379.688 629.639,-382.425 633.58,-388.211"/>
</g>
<!-- Node8 -->
<g id="node8" class="node"><title>Node8</title>
<g id="a_node8"><a xlink:href="../../d7/dc2/class_audio_player.html#afa0c135f321bd87b4d4ad2dcad3833e3" target="_top" xlink:title=" ">
<polygon fill="white" stroke="black" points="593,-206.5 593,-225.5 715,-225.5 715,-206.5 593,-206.5"/>
<text text-anchor="middle" x="654" y="-213.5" font-family="Helvetica,sans-Serif" font-size="10.00">AudioPlayer::PlaySound</text>
</a>
</g>
</g>
<!-- Node1&#45;&gt;Node8 -->
<g id="edge27" class="edge"><title>Node1&#45;&gt;Node8</title>
<path fill="none" stroke="midnightblue" d="M82.3148,-170.025C99.3213,-178.42 121.812,-188.143 143,-193 296.735,-228.238 483.172,-225.6 582.562,-220.716"/>
<polygon fill="midnightblue" stroke="midnightblue" points="582.975,-224.2 592.782,-220.191 582.615,-217.209 582.975,-224.2"/>
</g>
<!-- Node21 -->
<g id="node21" class="node"><title>Node21</title>
<g id="a_node21"><a xlink:href="../../db/d60/class_icon.html#a725397bfa1ff9e1666855d210653b379" target="_top" xlink:title=" ">
<polygon fill="white" stroke="black" points="157,-164.5 157,-183.5 265,-183.5 265,-164.5 157,-164.5"/>
<text text-anchor="middle" x="211" y="-171.5" font-family="Helvetica,sans-Serif" font-size="10.00">Icon::GetAnimLength</text>
</a>
</g>
</g>
<!-- Node1&#45;&gt;Node21 -->
<g id="edge24" class="edge"><title>Node1&#45;&gt;Node21</title>
<path fill="none" stroke="midnightblue" d="M107.145,-161.433C119.924,-162.994 133.716,-164.679 146.922,-166.293"/>
<polygon fill="midnightblue" stroke="midnightblue" points="146.529,-169.771 156.88,-167.509 147.378,-162.822 146.529,-169.771"/>
</g>
<!-- Node22 -->
<g id="node22" class="node"><title>Node22</title>
<g id="a_node22"><a xlink:href="../../d8/dc5/struct_icon_frame_table.html#a731446052ef2802faf67a4a838626e8a" target="_top" xlink:title=" ">
<polygon fill="white" stroke="black" points="148.5,-126.5 148.5,-145.5 273.5,-145.5 273.5,-126.5 148.5,-126.5"/>
<text text-anchor="middle" x="211" y="-133.5" font-family="Helvetica,sans-Serif" font-size="10.00">IconFrameTable::GetIcon</text>
</a>
</g>
</g>
<!-- Node1&#45;&gt;Node22 -->
<g id="edge26" class="edge"><title>Node1&#45;&gt;Node22</title>
<path fill="none" stroke="midnightblue" d="M107.145,-148.567C117.161,-147.344 127.799,-146.044 138.289,-144.762"/>
<polygon fill="midnightblue" stroke="midnightblue" points="138.775,-148.229 148.277,-143.542 137.926,-141.28 138.775,-148.229"/>
</g>
<!-- Node23 -->
<g id="node23" class="node"><title>Node23</title>
<g id="a_node23"><a xlink:href="../../d1/d28/structstru262___turn_based.html#a6976f75a21f712909feebb0bcb786ffe" target="_top" xlink:title=" ">
<polygon fill="white" stroke="black" points="157.5,-77 157.5,-107 264.5,-107 264.5,-77 157.5,-77"/>
<text text-anchor="start" x="165.5" y="-95" font-family="Helvetica,sans-Serif" font-size="10.00">stru262_TurnBased::</text>
<text text-anchor="middle" x="211" y="-84" font-family="Helvetica,sans-Serif" font-size="10.00">SortTurnQueue</text>
</a>
</g>
</g>
<!-- Node1&#45;&gt;Node23 -->
<g id="edge28" class="edge"><title>Node1&#45;&gt;Node23</title>
<path fill="none" stroke="midnightblue" d="M88.3801,-139.997C104.796,-132.844 124.842,-124.281 143,-117 148.186,-114.921 153.618,-112.8 159.051,-110.716"/>
<polygon fill="midnightblue" stroke="midnightblue" points="160.67,-113.846 168.777,-107.024 158.186,-107.301 160.67,-113.846"/>
</g>
<!-- Node24 -->
<g id="node24" class="node"><title>Node24</title>
<g id="a_node24"><a xlink:href="../../d7/dc2/class_audio_player.html#a222380497b8558ff7d16fa71f8680a46" target="_top" xlink:title=" ">
<polygon fill="white" stroke="black" points="143,-38.5 143,-57.5 279,-57.5 279,-38.5 143,-38.5"/>
<text text-anchor="middle" x="211" y="-45.5" font-family="Helvetica,sans-Serif" font-size="10.00">AudioPlayer::StopChannels</text>
</a>
</g>
</g>
<!-- Node1&#45;&gt;Node24 -->
<g id="edge29" class="edge"><title>Node1&#45;&gt;Node24</title>
<path fill="none" stroke="midnightblue" d="M65.6442,-139.897C80.9341,-120.241 110.273,-86.1508 143,-67 146.698,-64.836 150.656,-62.9071 154.731,-61.1896"/>
<polygon fill="midnightblue" stroke="midnightblue" points="156.26,-64.3538 164.386,-57.5546 153.794,-57.8027 156.26,-64.3538"/>
</g>
<!-- Node25 -->
<g id="node25" class="node"><title>Node25</title>
<g id="a_node25"><a xlink:href="../../d8/da1/struct_timer.html#a4fe85f11146f340c53db4daa08077ae4" target="_top" xlink:title=" ">
<polygon fill="white" stroke="black" points="152,-0.5 152,-19.5 270,-19.5 270,-0.5 152,-0.5"/>
<text text-anchor="middle" x="211" y="-7.5" font-family="Helvetica,sans-Serif" font-size="10.00">Timer::TrackGameTime</text>
</a>
</g>
</g>
<!-- Node1&#45;&gt;Node25 -->
<g id="edge30" class="edge"><title>Node1&#45;&gt;Node25</title>
<path fill="none" stroke="midnightblue" d="M61.0475,-139.636C73.1989,-112.987 101.804,-58.2487 143,-29 145.711,-27.0751 148.613,-25.3446 151.633,-23.7888"/>
<polygon fill="midnightblue" stroke="midnightblue" points="153.267,-26.8928 160.977,-19.6261 150.418,-20.4986 153.267,-26.8928"/>
</g>
<!-- Node3 -->
<g id="node3" class="node"><title>Node3</title>
<g id="a_node3"><a xlink:href="../../da/d35/struct_actor.html#a1b076465dc64fee3b7845c1c4134fb68" target="_top" xlink:title=" ">
<polygon fill="white" stroke="black" points="315,-316.5 315,-335.5 401,-335.5 401,-316.5 315,-316.5"/>
<text text-anchor="middle" x="358" y="-323.5" font-family="Helvetica,sans-Serif" font-size="10.00">Actor::AI_Bored</text>
</a>
</g>
</g>
<!-- Node2&#45;&gt;Node3 -->
<g id="edge2" class="edge"><title>Node2&#45;&gt;Node3</title>
<path fill="none" stroke="midnightblue" d="M272.233,-326C282.971,-326 294.079,-326 304.576,-326"/>
<polygon fill="midnightblue" stroke="midnightblue" points="304.835,-329.5 314.835,-326 304.835,-322.5 304.835,-329.5"/>
</g>
<!-- Node4 -->
<g id="node4" class="node"><title>Node4</title>
<g id="a_node4"><a xlink:href="../../da/d35/struct_actor.html#a29eeb19ef703b8a1b9b31e5fbaa7b5e3" target="_top" xlink:title=" ">
<polygon fill="white" stroke="black" points="454,-392.5 454,-411.5 540,-411.5 540,-392.5 454,-392.5"/>
<text text-anchor="middle" x="497" y="-399.5" font-family="Helvetica,sans-Serif" font-size="10.00">Actor::AI_Stand</text>
</a>
</g>
</g>
<!-- Node2&#45;&gt;Node4 -->
<g id="edge23" class="edge"><title>Node2&#45;&gt;Node4</title>
<path fill="none" stroke="midnightblue" d="M247.681,-335.548C299.119,-349.313 394.106,-374.733 450.516,-389.828"/>
<polygon fill="midnightblue" stroke="midnightblue" points="449.676,-393.227 460.241,-392.431 451.486,-386.465 449.676,-393.227"/>
</g>
<!-- Node3&#45;&gt;Node4 -->
<g id="edge3" class="edge"><title>Node3&#45;&gt;Node4</title>
<path fill="none" stroke="midnightblue" d="M371.749,-335.672C386.797,-346.806 412.839,-365.2 437,-378 444.214,-381.822 452.174,-385.435 459.85,-388.643"/>
<polygon fill="midnightblue" stroke="midnightblue" points="458.76,-391.977 469.343,-392.474 461.38,-385.486 458.76,-391.977"/>
</g>
<!-- Node3&#45;&gt;Node5 -->
<g id="edge7" class="edge"><title>Node3&#45;&gt;Node5</title>
<path fill="none" stroke="midnightblue" d="M394.138,-335.538C407.482,-338.901 422.869,-342.471 437,-345 486.711,-353.896 543.451,-360.321 586.299,-364.429"/>
<polygon fill="midnightblue" stroke="midnightblue" points="586.042,-367.92 596.326,-365.372 586.698,-360.951 586.042,-367.92"/>
</g>
<!-- Node6 -->
<g id="node6" class="node"><title>Node6</title>
<g id="a_node6"><a xlink:href="../../d6/d38/structstru193__math.html#ae5c580a8915049b2fe00949acf3ca728" target="_top" xlink:title=" ">
<polygon fill="white" stroke="black" points="759.5,-344.5 759.5,-363.5 866.5,-363.5 866.5,-344.5 759.5,-344.5"/>
<text text-anchor="middle" x="813" y="-351.5" font-family="Helvetica,sans-Serif" font-size="10.00">stru193_math::Atan2</text>
</a>
</g>
</g>
<!-- Node3&#45;&gt;Node6 -->
<g id="edge6" class="edge"><title>Node3&#45;&gt;Node6</title>
<path fill="none" stroke="midnightblue" d="M393.109,-316.436C457.674,-300.004 601.448,-271.439 715,-307 733.589,-312.822 733.691,-323.064 751,-332 757.251,-335.227 764.084,-338.189 770.843,-340.824"/>
<polygon fill="midnightblue" stroke="midnightblue" points="770.024,-344.253 780.617,-344.442 772.454,-337.688 770.024,-344.253"/>
</g>
<!-- Node7 -->
<g id="node7" class="node"><title>Node7</title>
<g id="a_node7"><a xlink:href="../../da/d35/struct_actor.html#a6645c1dfb2912ca41e535d36e811f17c" target="_top" xlink:title=" ">
<polygon fill="white" stroke="black" points="450.5,-240.5 450.5,-259.5 543.5,-259.5 543.5,-240.5 450.5,-240.5"/>
<text text-anchor="middle" x="497" y="-247.5" font-family="Helvetica,sans-Serif" font-size="10.00">Actor::PlaySound</text>
</a>
</g>
</g>
<!-- Node3&#45;&gt;Node7 -->
<g id="edge8" class="edge"><title>Node3&#45;&gt;Node7</title>
<path fill="none" stroke="midnightblue" d="M371.749,-316.328C386.797,-305.194 412.839,-286.8 437,-274 444.214,-270.178 452.174,-266.565 459.85,-263.357"/>
<polygon fill="midnightblue" stroke="midnightblue" points="461.38,-266.514 469.343,-259.526 458.76,-260.023 461.38,-266.514"/>
</g>
<!-- Node19 -->
<g id="node19" class="node"><title>Node19</title>
<g id="a_node19"><a xlink:href="../../da/d35/struct_actor.html#a170108c8e9216a25fe72026bd0ad55b8" target="_top" xlink:title=" ">
<polygon fill="white" stroke="black" points="437,-316.5 437,-335.5 557,-335.5 557,-316.5 437,-316.5"/>
<text text-anchor="middle" x="497" y="-323.5" font-family="Helvetica,sans-Serif" font-size="10.00">Actor::UpdateAnimation</text>
</a>
</g>
</g>
<!-- Node3&#45;&gt;Node19 -->
<g id="edge21" class="edge"><title>Node3&#45;&gt;Node19</title>
<path fill="none" stroke="midnightblue" d="M401.222,-326C409.303,-326 417.959,-326 426.633,-326"/>
<polygon fill="midnightblue" stroke="midnightblue" points="426.791,-329.5 436.791,-326 426.791,-322.5 426.791,-329.5"/>
</g>
<!-- Node4&#45;&gt;Node5 -->
<g id="edge4" class="edge"><title>Node4&#45;&gt;Node5</title>
<path fill="none" stroke="midnightblue" d="M540.354,-393.256C557.83,-389.648 578.329,-385.416 597.017,-381.558"/>
<polygon fill="midnightblue" stroke="midnightblue" points="597.803,-384.969 606.888,-379.52 596.387,-378.114 597.803,-384.969"/>
</g>
<!-- Node5&#45;&gt;Node6 -->
<g id="edge5" class="edge"><title>Node5&#45;&gt;Node6</title>
<path fill="none" stroke="midnightblue" d="M711.681,-364.224C723.826,-362.986 736.729,-361.671 749.094,-360.411"/>
<polygon fill="midnightblue" stroke="midnightblue" points="749.732,-363.864 759.325,-359.368 749.022,-356.9 749.732,-363.864"/>
</g>
<!-- Node7&#45;&gt;Node8 -->
<g id="edge9" class="edge"><title>Node7&#45;&gt;Node8</title>
<path fill="none" stroke="midnightblue" d="M541.589,-240.439C559.577,-236.493 580.602,-231.881 599.51,-227.733"/>
<polygon fill="midnightblue" stroke="midnightblue" points="600.452,-231.11 609.47,-225.548 598.953,-224.272 600.452,-231.11"/>
</g>
<!-- Node9 -->
<g id="node9" class="node"><title>Node9</title>
<g id="a_node9"><a xlink:href="../../d4/db9/_open_a_l_sound_provider_8cpp.html#a0d61058bc8900801bc227bc7b47881d7" target="_top" xlink:title=" ">
<polygon fill="white" stroke="black" points="761.5,-246.5 761.5,-265.5 864.5,-265.5 864.5,-246.5 761.5,-246.5"/>
<text text-anchor="middle" x="813" y="-253.5" font-family="Helvetica,sans-Serif" font-size="10.00">CreateAudioSample</text>
</a>
</g>
</g>
<!-- Node8&#45;&gt;Node9 -->
<g id="edge10" class="edge"><title>Node8&#45;&gt;Node9</title>
<path fill="none" stroke="midnightblue" d="M692.605,-225.581C714.258,-231.098 741.669,-238.081 764.764,-243.965"/>
<polygon fill="midnightblue" stroke="midnightblue" points="764.147,-247.42 774.701,-246.497 765.875,-240.637 764.147,-247.42"/>
</g>
<!-- Node11 -->
<g id="node11" class="node"><title>Node11</title>
<g id="a_node11"><a xlink:href="../../d7/dc2/class_audio_player.html#ae30d2f6cbd73b8e316a47b4694fe8960" target="_top" xlink:title=" ">
<polygon fill="white" stroke="black" points="751,-195.5 751,-214.5 875,-214.5 875,-195.5 751,-195.5"/>
<text text-anchor="middle" x="813" y="-202.5" font-family="Helvetica,sans-Serif" font-size="10.00">AudioPlayer::LoadSound</text>
</a>
</g>
</g>
<!-- Node8&#45;&gt;Node11 -->
<g id="edge12" class="edge"><title>Node8&#45;&gt;Node11</title>
<path fill="none" stroke="midnightblue" d="M715.251,-211.779C723.642,-211.191 732.327,-210.582 740.894,-209.982"/>
<polygon fill="midnightblue" stroke="midnightblue" points="741.14,-213.473 750.871,-209.283 740.651,-206.49 741.14,-213.473"/>
</g>
<!-- Node16 -->
<g id="node16" class="node"><title>Node16</title>
<g id="a_node16"><a xlink:href="../../d6/d70/class_log.html#ac0de2621497ca3b2fbf208624c08bcdf" target="_top" xlink:title=" ">
<polygon fill="white" stroke="black" points="947,-119.5 947,-138.5 1021,-138.5 1021,-119.5 947,-119.5"/>
<text text-anchor="middle" x="984" y="-126.5" font-family="Helvetica,sans-Serif" font-size="10.00">Log::Warning</text>
</a>
</g>
</g>
<!-- Node8&#45;&gt;Node16 -->
<g id="edge20" class="edge"><title>Node8&#45;&gt;Node16</title>
<path fill="none" stroke="midnightblue" d="M683.848,-206.472C702.838,-200.327 728.293,-192.331 751,-186 815.02,-168.151 889.793,-150.314 936.774,-139.467"/>
<polygon fill="midnightblue" stroke="midnightblue" points="937.691,-142.848 946.652,-137.195 936.122,-136.026 937.691,-142.848"/>
</g>
<!-- Node17 -->
<g id="node17" class="node"><title>Node17</title>
<g id="a_node17"><a xlink:href="../../d9/d98/class_open_a_l_sound_provider.html#a25ac61cd13253bb659672a1cc29ef22c" target="_top" xlink:title=" ">
<polygon fill="white" stroke="black" points="756,-292 756,-322 870,-322 870,-292 756,-292"/>
<text text-anchor="start" x="764" y="-310" font-family="Helvetica,sans-Serif" font-size="10.00">OpenALSoundProvider</text>
<text text-anchor="middle" x="813" y="-299" font-family="Helvetica,sans-Serif" font-size="10.00">::SetListenerPosition</text>
</a>
</g>
</g>
<!-- Node8&#45;&gt;Node17 -->
<g id="edge18" class="edge"><title>Node8&#45;&gt;Node17</title>
<path fill="none" stroke="midnightblue" d="M669.778,-225.515C688.47,-237.45 721.751,-258.366 751,-275 758.09,-279.032 765.732,-283.187 773.128,-287.113"/>
<polygon fill="midnightblue" stroke="midnightblue" points="771.826,-290.383 782.306,-291.938 775.083,-284.187 771.826,-290.383"/>
</g>
<!-- Node10 -->
<g id="node10" class="node"><title>Node10</title>
<g id="a_node10"><a xlink:href="../../da/def/_media_8h.html#ab508e4ee3c70ec5e60273ec99af30a2e" target="_top" xlink:title=" ">
<polygon fill="white" stroke="black" points="911,-271.5 911,-290.5 1057,-290.5 1057,-271.5 911,-271.5"/>
<text text-anchor="middle" x="984" y="-278.5" font-family="Helvetica,sans-Serif" font-size="10.00">CreateAudioBufferDataSource</text>
</a>
</g>
</g>
<!-- Node9&#45;&gt;Node10 -->
<g id="edge11" class="edge"><title>Node9&#45;&gt;Node10</title>
<path fill="none" stroke="midnightblue" d="M864.706,-263.501C878.451,-265.534 893.625,-267.779 908.39,-269.963"/>
<polygon fill="midnightblue" stroke="midnightblue" points="908.12,-273.461 918.524,-271.462 909.144,-266.536 908.12,-273.461"/>
</g>
<!-- Node12 -->
<g id="node12" class="node"><title>Node12</title>
<g id="a_node12"><a xlink:href="../../da/d6a/_mem_buffer_8cpp.html#a685632d9cd2b61b24a9bfc649d54937e" target="_top" xlink:title=" ">
<polygon fill="white" stroke="black" points="941.5,-157.5 941.5,-176.5 1026.5,-176.5 1026.5,-157.5 941.5,-157.5"/>
<text text-anchor="middle" x="984" y="-164.5" font-family="Helvetica,sans-Serif" font-size="10.00">AllocMemBuffer</text>
</a>
</g>
</g>
<!-- Node11&#45;&gt;Node12 -->
<g id="edge13" class="edge"><title>Node11&#45;&gt;Node12</title>
<path fill="none" stroke="midnightblue" d="M856.646,-195.411C879.319,-190.313 907.371,-184.005 931.28,-178.629"/>
<polygon fill="midnightblue" stroke="midnightblue" points="932.256,-181.997 941.245,-176.389 930.721,-175.168 932.256,-181.997"/>
</g>
<!-- Node13 -->
<g id="node13" class="node"><title>Node13</title>
<g id="a_node13"><a xlink:href="../../d7/dc2/class_audio_player.html#aac82d03b250711ed0ce64fa22dfe3a59" target="_top" xlink:title=" ">
<polygon fill="white" stroke="black" points="923,-233.5 923,-252.5 1045,-252.5 1045,-233.5 923,-233.5"/>
<text text-anchor="middle" x="984" y="-240.5" font-family="Helvetica,sans-Serif" font-size="10.00">AudioPlayer::FindSound</text>
</a>
</g>
</g>
<!-- Node11&#45;&gt;Node13 -->
<g id="edge14" class="edge"><title>Node11&#45;&gt;Node13</title>
<path fill="none" stroke="midnightblue" d="M856.646,-214.589C879.148,-219.649 906.948,-225.9 930.738,-231.249"/>
<polygon fill="midnightblue" stroke="midnightblue" points="930.137,-234.701 940.661,-233.48 931.672,-227.871 930.137,-234.701"/>
</g>
<!-- Node15 -->
<g id="node15" class="node"><title>Node15</title>
<g id="a_node15"><a xlink:href="../../d9/d3e/namespacezlib.html#ae552beaf4387a81c63a28b01a9cc7ab4" target="_top" xlink:title=" ">
<polygon fill="white" stroke="black" points="938,-195.5 938,-214.5 1030,-214.5 1030,-195.5 938,-195.5"/>
<text text-anchor="middle" x="984" y="-202.5" font-family="Helvetica,sans-Serif" font-size="10.00">zlib::Uncompress</text>
</a>
</g>
</g>
<!-- Node11&#45;&gt;Node15 -->
<g id="edge16" class="edge"><title>Node11&#45;&gt;Node15</title>
<path fill="none" stroke="midnightblue" d="M875.013,-205C892.238,-205 910.878,-205 927.744,-205"/>
<polygon fill="midnightblue" stroke="midnightblue" points="927.989,-208.5 937.989,-205 927.989,-201.5 927.989,-208.5"/>
</g>
<!-- Node11&#45;&gt;Node16 -->
<g id="edge17" class="edge"><title>Node11&#45;&gt;Node16</title>
<path fill="none" stroke="midnightblue" d="M827.511,-195.439C845.704,-182.953 879.445,-161.142 911,-148 919.237,-144.569 928.267,-141.607 937.063,-139.111"/>
<polygon fill="midnightblue" stroke="midnightblue" points="938.087,-142.46 946.839,-136.49 936.274,-135.699 938.087,-142.46"/>
</g>
<!-- Node14 -->
<g id="node14" class="node"><title>Node14</title>
<g id="a_node14"><a xlink:href="../../d8/d44/_strings_8cpp.html#ae591bae1416df2b3638ae859ad4ede6f" target="_top" xlink:title=" ">
<polygon fill="white" stroke="black" points="1093,-233.5 1093,-252.5 1159,-252.5 1159,-233.5 1093,-233.5"/>
<text text-anchor="middle" x="1126" y="-240.5" font-family="Helvetica,sans-Serif" font-size="10.00">MakeLower</text>
</a>
</g>
</g>
<!-- Node13&#45;&gt;Node14 -->
<g id="edge15" class="edge"><title>Node13&#45;&gt;Node14</title>
<path fill="none" stroke="midnightblue" d="M1045.19,-243C1057.8,-243 1070.84,-243 1082.64,-243"/>
<polygon fill="midnightblue" stroke="midnightblue" points="1082.64,-246.5 1092.64,-243 1082.64,-239.5 1082.64,-246.5"/>
</g>
<!-- Node18 -->
<g id="node18" class="node"><title>Node18</title>
<g id="a_node18"><a xlink:href="../../d1/d20/al_8h.html#acb8f6904370d9946f4ea496e21729415" target="_top" xlink:title=" ">
<polygon fill="white" stroke="black" points="951,-309.5 951,-328.5 1017,-328.5 1017,-309.5 951,-309.5"/>
<text text-anchor="middle" x="984" y="-316.5" font-family="Helvetica,sans-Serif" font-size="10.00">alListener3f</text>
</a>
</g>
</g>
<!-- Node17&#45;&gt;Node18 -->
<g id="edge19" class="edge"><title>Node17&#45;&gt;Node18</title>
<path fill="none" stroke="midnightblue" d="M870.275,-310.996C893.214,-312.625 919.29,-314.476 940.58,-315.988"/>
<polygon fill="midnightblue" stroke="midnightblue" points="940.389,-319.483 950.612,-316.7 940.885,-312.501 940.389,-319.483"/>
</g>
<!-- Node20 -->
<g id="node20" class="node"><title>Node20</title>
<g id="a_node20"><a xlink:href="../../da/d35/struct_actor.html#a331a8ef3ae56428b66738fd06c9a3158" target="_top" xlink:title=" ">
<polygon fill="white" stroke="black" points="596.5,-316.5 596.5,-335.5 711.5,-335.5 711.5,-316.5 596.5,-316.5"/>
<text text-anchor="middle" x="654" y="-323.5" font-family="Helvetica,sans-Serif" font-size="10.00">Actor::ResetAnimation</text>
</a>
</g>
</g>
<!-- Node19&#45;&gt;Node20 -->
<g id="edge22" class="edge"><title>Node19&#45;&gt;Node20</title>
<path fill="none" stroke="midnightblue" d="M557.041,-326C566.629,-326 576.617,-326 586.371,-326"/>
<polygon fill="midnightblue" stroke="midnightblue" points="586.424,-329.5 596.424,-326 586.424,-322.5 586.424,-329.5"/>
</g>
<!-- Node26 -->
<g id="node26" class="node"><title>Node26</title>
<g id="a_node26"><a xlink:href="../../d8/da1/struct_timer.html#af11deea7dde51d637aec54587820f92b" target="_top" xlink:title=" ">
<polygon fill="white" stroke="black" points="324,-0.5 324,-19.5 392,-19.5 392,-0.5 324,-0.5"/>
<text text-anchor="middle" x="358" y="-7.5" font-family="Helvetica,sans-Serif" font-size="10.00">Timer::Time</text>
</a>
</g>
</g>
<!-- Node25&#45;&gt;Node26 -->
<g id="edge31" class="edge"><title>Node25&#45;&gt;Node26</title>
<path fill="none" stroke="midnightblue" d="M270.142,-10C284.708,-10 300.079,-10 313.776,-10"/>
<polygon fill="midnightblue" stroke="midnightblue" points="313.882,-13.5001 323.882,-10 313.882,-6.5001 313.882,-13.5001"/>
</g>
</g>
</svg>
