<?xml version="1.0" encoding="UTF-8" standalone="no"?>
<!DOCTYPE svg PUBLIC "-//W3C//DTD SVG 1.1//EN"
 "http://www.w3.org/Graphics/SVG/1.1/DTD/svg11.dtd">
<!-- Generated by graphviz version 2.38.0 (20140413.2041)
 -->
<!-- Title: AudioSample16::IsValid Pages: 1 -->
<svg width="305pt" height="142pt"
 viewBox="0.00 0.00 305.00 142.00" xmlns="http://www.w3.org/2000/svg" xmlns:xlink="http://www.w3.org/1999/xlink">
<g id="graph0" class="graph" transform="scale(1 1) rotate(0) translate(4 138)">
<title>AudioSample16::IsValid</title>
<polygon fill="white" stroke="none" points="-4,4 -4,-138 301,-138 301,4 -4,4"/>
<!-- Node1 -->
<g id="node1" class="node"><title>Node1</title>
<g id="a_node1"><a xlink:title=" ">
<polygon fill="#bfbfbf" stroke="black" points="177,-57.5 177,-76.5 297,-76.5 297,-57.5 177,-57.5"/>
<text text-anchor="middle" x="237" y="-64.5" font-family="Helvetica,sans-Serif" font-size="10.00">AudioSample16::IsValid</text>
</a>
</g>
</g>
<!-- Node2 -->
<g id="node2" class="node"><title>Node2</title>
<g id="a_node2"><a xlink:href="../../d5/d2b/class_audio_sample16.html#a3de370657edcaf1bdcc3a8559407a81f" target="_top" xlink:title=" ">
<polygon fill="white" stroke="black" points="15.5,-114.5 15.5,-133.5 125.5,-133.5 125.5,-114.5 15.5,-114.5"/>
<text text-anchor="middle" x="70.5" y="-121.5" font-family="Helvetica,sans-Serif" font-size="10.00">AudioSample16::Play</text>
</a>
</g>
</g>
<!-- Node1&#45;&gt;Node2 -->
<g id="edge1" class="edge"><title>Node1&#45;&gt;Node2</title>
<path fill="none" stroke="midnightblue" d="M204.666,-80.5768C186.305,-88.2687 162.556,-97.7684 141,-105 130.92,-108.382 119.871,-111.612 109.609,-114.42"/>
<polygon fill="midnightblue" stroke="midnightblue" points="206.153,-83.748 213.999,-76.6284 203.426,-77.3012 206.153,-83.748"/>
</g>
<!-- Node3 -->
<g id="node3" class="node"><title>Node3</title>
<g id="a_node3"><a xlink:href="../../d5/d2b/class_audio_sample16.html#ae4e155685e5abd1067088329e479daed" target="_top" xlink:title=" ">
<polygon fill="white" stroke="black" points="0,-76.5 0,-95.5 141,-95.5 141,-76.5 0,-76.5"/>
<text text-anchor="middle" x="70.5" y="-83.5" font-family="Helvetica,sans-Serif" font-size="10.00">AudioSample16::SetPosition</text>
</a>
</g>
</g>
<!-- Node1&#45;&gt;Node3 -->
<g id="edge2" class="edge"><title>Node1&#45;&gt;Node3</title>
<path fill="none" stroke="midnightblue" d="M166.498,-75.0276C158.112,-75.9961 149.546,-76.9856 141.158,-77.9543"/>
<polygon fill="midnightblue" stroke="midnightblue" points="167.079,-78.4838 176.612,-73.8594 166.276,-71.53 167.079,-78.4838"/>
</g>
<!-- Node4 -->
<g id="node4" class="node"><title>Node4</title>
<g id="a_node4"><a xlink:href="../../d5/d2b/class_audio_sample16.html#aa7614bd415a897007816f3ae79e1aed6" target="_top" xlink:title=" ">
<polygon fill="white" stroke="black" points="1,-38.5 1,-57.5 140,-57.5 140,-38.5 1,-38.5"/>
<text text-anchor="middle" x="70.5" y="-45.5" font-family="Helvetica,sans-Serif" font-size="10.00">AudioSample16::SetVolume</text>
</a>
</g>
</g>
<!-- Node1&#45;&gt;Node4 -->
<g id="edge3" class="edge"><title>Node1&#45;&gt;Node4</title>
<path fill="none" stroke="midnightblue" d="M166.456,-58.9675C157.706,-57.957 148.76,-56.9237 140.027,-55.915"/>
<polygon fill="midnightblue" stroke="midnightblue" points="166.276,-62.47 176.612,-60.1406 167.079,-55.5162 166.276,-62.47"/>
</g>
<!-- Node5 -->
<g id="node5" class="node"><title>Node5</title>
<g id="a_node5"><a xlink:href="../../d5/d2b/class_audio_sample16.html#a0d93242f671d4a3e1e357680dfdf1735" target="_top" xlink:title=" ">
<polygon fill="white" stroke="black" points="15,-0.5 15,-19.5 126,-19.5 126,-0.5 15,-0.5"/>
<text text-anchor="middle" x="70.5" y="-7.5" font-family="Helvetica,sans-Serif" font-size="10.00">AudioSample16::Stop</text>
</a>
</g>
</g>
<!-- Node1&#45;&gt;Node5 -->
<g id="edge4" class="edge"><title>Node1&#45;&gt;Node5</title>
<path fill="none" stroke="midnightblue" d="M204.666,-53.4232C186.305,-45.7313 162.556,-36.2316 141,-29 130.92,-25.6182 119.871,-22.3875 109.609,-19.5804"/>
<polygon fill="midnightblue" stroke="midnightblue" points="203.426,-56.6988 213.999,-57.3716 206.153,-50.252 203.426,-56.6988"/>
</g>
</g>
</svg>
