<?xml version="1.0" encoding="UTF-8" standalone="no"?>
<!DOCTYPE svg PUBLIC "-//W3C//DTD SVG 1.1//EN"
 "http://www.w3.org/Graphics/SVG/1.1/DTD/svg11.dtd">
<!-- Generated by graphviz version 2.38.0 (20140413.2041)
 -->
<!-- Title: AudioSample16::Stop Pages: 1 -->
<svg width="376pt" height="142pt"
 viewBox="0.00 0.00 376.00 142.00" xmlns="http://www.w3.org/2000/svg" xmlns:xlink="http://www.w3.org/1999/xlink">
<g id="graph0" class="graph" transform="scale(1 1) rotate(0) translate(4 138)">
<title>AudioSample16::Stop</title>
<polygon fill="white" stroke="none" points="-4,4 -4,-138 372,-138 372,4 -4,4"/>
<!-- Node1 -->
<g id="node1" class="node"><title>Node1</title>
<g id="a_node1"><a xlink:title=" ">
<polygon fill="#bfbfbf" stroke="black" points="0,-66.5 0,-85.5 111,-85.5 111,-66.5 0,-66.5"/>
<text text-anchor="middle" x="55.5" y="-73.5" font-family="Helvetica,sans-Serif" font-size="10.00">AudioSample16::Stop</text>
</a>
</g>
</g>
<!-- Node2 -->
<g id="node2" class="node"><title>Node2</title>
<g id="a_node2"><a xlink:href="../../d1/d20/al_8h.html#a0fde805f9ad65434ba18063220534e71" target="_top" xlink:title=" ">
<polygon fill="white" stroke="black" points="169.5,-104.5 169.5,-123.5 244.5,-123.5 244.5,-104.5 169.5,-104.5"/>
<text text-anchor="middle" x="207" y="-111.5" font-family="Helvetica,sans-Serif" font-size="10.00">alSourceStop</text>
</a>
</g>
</g>
<!-- Node1&#45;&gt;Node2 -->
<g id="edge1" class="edge"><title>Node1&#45;&gt;Node2</title>
<path fill="none" stroke="midnightblue" d="M94.2252,-85.589C113.999,-90.615 138.396,-96.8165 159.348,-102.142"/>
<polygon fill="midnightblue" stroke="midnightblue" points="158.766,-105.605 169.321,-104.677 160.491,-98.8211 158.766,-105.605"/>
</g>
<!-- Node3 -->
<g id="node3" class="node"><title>Node3</title>
<g id="a_node3"><a xlink:href="../../d4/db9/_open_a_l_sound_provider_8cpp.html#aece65ae279d5009406167c5949cdf6e1" target="_top" xlink:title=" ">
<polygon fill="white" stroke="black" points="174.5,-66.5 174.5,-85.5 239.5,-85.5 239.5,-66.5 174.5,-66.5"/>
<text text-anchor="middle" x="207" y="-73.5" font-family="Helvetica,sans-Serif" font-size="10.00">CheckError</text>
</a>
</g>
</g>
<!-- Node1&#45;&gt;Node3 -->
<g id="edge2" class="edge"><title>Node1&#45;&gt;Node3</title>
<path fill="none" stroke="midnightblue" d="M111.319,-76C128.683,-76 147.594,-76 163.918,-76"/>
<polygon fill="midnightblue" stroke="midnightblue" points="164.229,-79.5001 174.229,-76 164.229,-72.5001 164.229,-79.5001"/>
</g>
<!-- Node7 -->
<g id="node7" class="node"><title>Node7</title>
<g id="a_node7"><a xlink:href="../../d5/d2b/class_audio_sample16.html#a10e3069302d48b9264dff3f5bbfe184f" target="_top" xlink:title=" ">
<polygon fill="white" stroke="black" points="147,-19.5 147,-38.5 267,-38.5 267,-19.5 147,-19.5"/>
<text text-anchor="middle" x="207" y="-26.5" font-family="Helvetica,sans-Serif" font-size="10.00">AudioSample16::IsValid</text>
</a>
</g>
</g>
<!-- Node1&#45;&gt;Node7 -->
<g id="edge6" class="edge"><title>Node1&#45;&gt;Node7</title>
<path fill="none" stroke="midnightblue" d="M86.7536,-66.4888C109.475,-59.3456 140.821,-49.491 165.673,-41.6782"/>
<polygon fill="midnightblue" stroke="midnightblue" points="167.045,-44.9156 175.535,-38.5776 164.946,-38.2378 167.045,-44.9156"/>
</g>
<!-- Node4 -->
<g id="node4" class="node"><title>Node4</title>
<g id="a_node4"><a xlink:href="../../d1/d20/al_8h.html#a4186472fc50616acf52fd0b41232e044" target="_top" xlink:title=" ">
<polygon fill="white" stroke="black" points="305,-114.5 305,-133.5 366,-133.5 366,-114.5 305,-114.5"/>
<text text-anchor="middle" x="335.5" y="-121.5" font-family="Helvetica,sans-Serif" font-size="10.00">alGetError</text>
</a>
</g>
</g>
<!-- Node3&#45;&gt;Node4 -->
<g id="edge3" class="edge"><title>Node3&#45;&gt;Node4</title>
<path fill="none" stroke="midnightblue" d="M239.422,-85.5134C248.39,-88.392 258.133,-91.6759 267,-95 279.409,-99.652 292.865,-105.305 304.474,-110.38"/>
<polygon fill="midnightblue" stroke="midnightblue" points="303.166,-113.629 313.727,-114.473 305.997,-107.227 303.166,-113.629"/>
</g>
<!-- Node5 -->
<g id="node5" class="node"><title>Node5</title>
<g id="a_node5"><a xlink:href="../../d1/d20/al_8h.html#afff97eeab77b7d7ca32af121f1f7c76b" target="_top" xlink:title=" ">
<polygon fill="white" stroke="black" points="303,-76.5 303,-95.5 368,-95.5 368,-76.5 303,-76.5"/>
<text text-anchor="middle" x="335.5" y="-83.5" font-family="Helvetica,sans-Serif" font-size="10.00">alGetString</text>
</a>
</g>
</g>
<!-- Node3&#45;&gt;Node5 -->
<g id="edge4" class="edge"><title>Node3&#45;&gt;Node5</title>
<path fill="none" stroke="midnightblue" d="M239.595,-78.4976C255.594,-79.7624 275.234,-81.3149 292.488,-82.6789"/>
<polygon fill="midnightblue" stroke="midnightblue" points="292.625,-86.2005 302.869,-83.4996 293.176,-79.2223 292.625,-86.2005"/>
</g>
<!-- Node6 -->
<g id="node6" class="node"><title>Node6</title>
<g id="a_node6"><a xlink:href="../../d4/db9/_open_a_l_sound_provider_8cpp.html#a5ed8e2adc6340d877478a62cc1d448c9" target="_top" xlink:title=" ">
<polygon fill="white" stroke="black" points="321,-38.5 321,-57.5 350,-57.5 350,-38.5 321,-38.5"/>
<text text-anchor="middle" x="335.5" y="-45.5" font-family="Helvetica,sans-Serif" font-size="10.00">log</text>
</a>
</g>
</g>
<!-- Node3&#45;&gt;Node6 -->
<g id="edge5" class="edge"><title>Node3&#45;&gt;Node6</title>
<path fill="none" stroke="midnightblue" d="M239.595,-69.0066C261.678,-64.1186 290.698,-57.6953 310.807,-53.2444"/>
<polygon fill="midnightblue" stroke="midnightblue" points="311.686,-56.6346 320.693,-51.0561 310.173,-49.8 311.686,-56.6346"/>
</g>
<!-- Node8 -->
<g id="node8" class="node"><title>Node8</title>
<g id="a_node8"><a xlink:href="../../d1/d20/al_8h.html#ad5b5342f195467d9bf26ad6176297f2e" target="_top" xlink:title=" ">
<polygon fill="white" stroke="black" points="304.5,-0.5 304.5,-19.5 366.5,-19.5 366.5,-0.5 304.5,-0.5"/>
<text text-anchor="middle" x="335.5" y="-7.5" font-family="Helvetica,sans-Serif" font-size="10.00">alIsSource</text>
</a>
</g>
</g>
<!-- Node7&#45;&gt;Node8 -->
<g id="edge7" class="edge"><title>Node7&#45;&gt;Node8</title>
<path fill="none" stroke="midnightblue" d="M267.176,-20.1119C276.319,-18.7387 285.576,-17.3483 294.179,-16.0562"/>
<polygon fill="midnightblue" stroke="midnightblue" points="294.926,-19.4832 304.296,-14.5366 293.887,-12.5609 294.926,-19.4832"/>
</g>
</g>
</svg>
