<?xml version="1.0" encoding="UTF-8" standalone="no"?>
<!DOCTYPE svg PUBLIC "-//W3C//DTD SVG 1.1//EN"
 "http://www.w3.org/Graphics/SVG/1.1/DTD/svg11.dtd">
<!-- Generated by graphviz version 2.38.0 (20140413.2041)
 -->
<!-- Title: AudioSample16::Close Pages: 1 -->
<svg width="325pt" height="66pt"
 viewBox="0.00 0.00 325.00 66.00" xmlns="http://www.w3.org/2000/svg" xmlns:xlink="http://www.w3.org/1999/xlink">
<g id="graph0" class="graph" transform="scale(1 1) rotate(0) translate(4 62)">
<title>AudioSample16::Close</title>
<polygon fill="white" stroke="none" points="-4,4 -4,-62 321,-62 321,4 -4,4"/>
<!-- Node1 -->
<g id="node1" class="node"><title>Node1</title>
<g id="a_node1"><a xlink:title=" ">
<polygon fill="#bfbfbf" stroke="black" points="201,-19.5 201,-38.5 317,-38.5 317,-19.5 201,-19.5"/>
<text text-anchor="middle" x="259" y="-26.5" font-family="Helvetica,sans-Serif" font-size="10.00">AudioSample16::Close</text>
</a>
</g>
</g>
<!-- Node2 -->
<g id="node2" class="node"><title>Node2</title>
<g id="a_node2"><a xlink:href="../../d5/d2b/class_audio_sample16.html#a0d732ad654d85d5f1975c9700f15f3c6" target="_top" xlink:title=" ">
<polygon fill="white" stroke="black" points="25.5,-38.5 25.5,-57.5 139.5,-57.5 139.5,-38.5 25.5,-38.5"/>
<text text-anchor="middle" x="82.5" y="-45.5" font-family="Helvetica,sans-Serif" font-size="10.00">AudioSample16::Open</text>
</a>
</g>
</g>
<!-- Node1&#45;&gt;Node2 -->
<g id="edge1" class="edge"><title>Node1&#45;&gt;Node2</title>
<path fill="none" stroke="midnightblue" d="M190.532,-36.3461C173.687,-38.1802 155.803,-40.1275 139.576,-41.8943"/>
<polygon fill="midnightblue" stroke="midnightblue" points="191.3,-39.7833 200.862,-35.2213 190.542,-32.8244 191.3,-39.7833"/>
</g>
<!-- Node3 -->
<g id="node3" class="node"><title>Node3</title>
<g id="a_node3"><a xlink:href="../../d5/d2b/class_audio_sample16.html#a3e0649fe6a83d4459613f921c6773627" target="_top" xlink:title=" ">
<polygon fill="white" stroke="black" points="0,-0.5 0,-19.5 165,-19.5 165,-0.5 0,-0.5"/>
<text text-anchor="middle" x="82.5" y="-7.5" font-family="Helvetica,sans-Serif" font-size="10.00">AudioSample16::~AudioSample16</text>
</a>
</g>
</g>
<!-- Node1&#45;&gt;Node3 -->
<g id="edge2" class="edge"><title>Node1&#45;&gt;Node3</title>
<path fill="none" stroke="midnightblue" d="M190.775,-21.6804C182.381,-20.7664 173.725,-19.8239 165.142,-18.8894"/>
<polygon fill="midnightblue" stroke="midnightblue" points="190.542,-25.1756 200.862,-22.7787 191.3,-18.2167 190.542,-25.1756"/>
</g>
</g>
</svg>
