<?xml version="1.0" encoding="UTF-8" standalone="no"?>
<!DOCTYPE svg PUBLIC "-//W3C//DTD SVG 1.1//EN"
 "http://www.w3.org/Graphics/SVG/1.1/DTD/svg11.dtd">
<!-- Generated by graphviz version 2.38.0 (20140413.2041)
 -->
<!-- Title: ConditionProcessor::IsPlayerAffected Pages: 1 -->
<!--zoomable 85 -->
<svg id="main" version="1.1" xmlns="http://www.w3.org/2000/svg" xmlns:xlink="http://www.w3.org/1999/xlink" xml:space="preserve" onload="init(evt)">
<style type="text/css"><![CDATA[
.edge:hover path { stroke: red; }
.edge:hover polygon { stroke: red; fill: red; }
]]></style>
<script type="text/javascript"><![CDATA[
var edges = document.getElementsByTagName('g');
if (edges && edges.length) {
  for (var i=0;i<edges.length;i++) {
    if (edges[i].id.substr(0,4)=='edge') {
      edges[i].setAttribute('class','edge');
    }
  }
}
]]></script>
        <defs>
                <circle id="rim" cx="0" cy="0" r="7"/>
                <circle id="rim2" cx="0" cy="0" r="3.5"/>
                <g id="zoomPlus">
                        <use xlink:href="#rim" fill="#404040">
                                <set attributeName="fill" to="#808080" begin="zoomplus.mouseover" end="zoomplus.mouseout"/>
                        </use>
                        <path d="M-4,0h8M0,-4v8" fill="none" stroke="white" stroke-width="1.5" pointer-events="none"/>
                </g>
                <g id="zoomMin">
                        <use xlink:href="#rim" fill="#404040">
                                <set attributeName="fill" to="#808080" begin="zoomminus.mouseover" end="zoomminus.mouseout"/>
                        </use>
                        <path d="M-4,0h8" fill="none" stroke="white" stroke-width="1.5" pointer-events="none"/>
                </g>
                <g id="dirArrow">
                        <path fill="none" stroke="white" stroke-width="1.5" d="M0,-3.0v7 M-2.5,-0.5L0,-3.0L2.5,-0.5"/>
                </g>
               <g id="resetDef">
                       <use xlink:href="#rim2" fill="#404040">
                               <set attributeName="fill" to="#808080" begin="reset.mouseover" end="reset.mouseout"/>
                       </use>
               </g>
        </defs>

<script type="text/javascript">
var viewWidth = 657;
var viewHeight = 85;
var sectionId = 'dynsection-0';
</script>
<script xlink:href="../../svgpan.js"/>
<svg id="graph" class="graph">
<g id="viewport">
<title>ConditionProcessor::IsPlayerAffected</title>
<polygon fill="white" stroke="none" points="-4,4 -4,-80.9788 653,-80.9788 653,4 -4,4"/>
<!-- Node1 -->
<g id="node1" class="node"><title>Node1</title>
<g id="a_node1"><a xlink:title=" ">
<polygon fill="#bfbfbf" stroke="black" points="0,-8.47881 0,-38.4788 101,-38.4788 101,-8.47881 0,-8.47881"/>
<text text-anchor="start" x="8" y="-26.4788" font-family="Helvetica,sans-Serif" font-size="10.00">ConditionProcessor</text>
<text text-anchor="middle" x="50.5" y="-15.4788" font-family="Helvetica,sans-Serif" font-size="10.00">::IsPlayerAffected</text>
</a>
</g>
</g>
<!-- Node2 -->
<g id="node2" class="node"><title>Node2</title>
<g id="a_node2"><a xlink:href="../../d3/db1/struct_player.html#ad1457d0afb7d7ecfd97452b6e8baaf79" target="_top" xlink:title=" ">
<polygon fill="white" stroke="black" points="316,-46.4788 316,-76.4788 449,-76.4788 449,-46.4788 316,-46.4788"/>
<text text-anchor="start" x="324" y="-64.4788" font-family="Helvetica,sans-Serif" font-size="10.00">Player::HasEnchantedItem</text>
<text text-anchor="middle" x="382.5" y="-53.4788" font-family="Helvetica,sans-Serif" font-size="10.00">Equipped</text>
</a>
</g>
</g>
<!-- Node1&#45;&gt;Node2 -->
<g id="edge1" class="edge"><title>Node1&#45;&gt;Node2</title>
<path fill="none" stroke="midnightblue" d="M101.011,-35.7235C112.75,-38.281 125.269,-40.7285 137,-42.4788 193.218,-50.8668 257.295,-55.6734 305.746,-58.3528"/>
<polygon fill="midnightblue" stroke="midnightblue" points="305.666,-61.8534 315.839,-58.8928 306.04,-54.8634 305.666,-61.8534"/>
</g>
<!-- Node5 -->
<g id="node5" class="node"><title>Node5</title>
<g id="a_node5"><a xlink:href="../../d3/db1/struct_player.html#ae5a4e8dde773ee3b913a9096b5f57a86" target="_top" xlink:title=" ">
<polygon fill="white" stroke="black" points="333.5,-7.97881 333.5,-26.9788 431.5,-26.9788 431.5,-7.97881 333.5,-7.97881"/>
<text text-anchor="middle" x="382.5" y="-14.9788" font-family="Helvetica,sans-Serif" font-size="10.00">Player::WearsItem</text>
</a>
</g>
</g>
<!-- Node1&#45;&gt;Node5 -->
<g id="edge4" class="edge"><title>Node1&#45;&gt;Node5</title>
<path fill="none" stroke="midnightblue" d="M101.377,-10.4754C112.989,-7.98436 125.361,-5.7564 137,-4.47881 200.176,2.45617 216.573,-0.433525 280,-4.47881 294.053,-5.37507 309.133,-6.96255 323.259,-8.7273"/>
<polygon fill="midnightblue" stroke="midnightblue" points="322.979,-12.2203 333.347,-10.0363 323.88,-5.27852 322.979,-12.2203"/>
</g>
<!-- Node6 -->
<g id="node6" class="node"><title>Node6</title>
<g id="a_node6"><a xlink:href="../../d3/db1/struct_player.html#a2568cdd8027bdcebfc628e0d837b82cc" target="_top" xlink:title=" ">
<polygon fill="white" stroke="black" points="137,-13.9788 137,-32.9788 280,-32.9788 280,-13.9788 137,-13.9788"/>
<text text-anchor="middle" x="208.5" y="-20.9788" font-family="Helvetica,sans-Serif" font-size="10.00">Player::WearsItemAnyWhere</text>
</a>
</g>
</g>
<!-- Node1&#45;&gt;Node6 -->
<g id="edge7" class="edge"><title>Node1&#45;&gt;Node6</title>
<path fill="none" stroke="midnightblue" d="M101.288,-23.4788C109.428,-23.4788 118.041,-23.4788 126.7,-23.4788"/>
<polygon fill="midnightblue" stroke="midnightblue" points="126.861,-26.9789 136.861,-23.4788 126.861,-19.9789 126.861,-26.9789"/>
</g>
<!-- Node3 -->
<g id="node3" class="node"><title>Node3</title>
<g id="a_node3"><a xlink:href="../../d3/db1/struct_player.html#a6809c4b1b0d9d0f1de56f97c7dd2fc68" target="_top" xlink:title=" ">
<polygon fill="white" stroke="black" points="485,-49.9788 485,-68.9788 649,-68.9788 649,-49.9788 485,-49.9788"/>
<text text-anchor="middle" x="567" y="-56.9788" font-family="Helvetica,sans-Serif" font-size="10.00">Player::GetNthEquippedIndexItem</text>
</a>
</g>
</g>
<!-- Node2&#45;&gt;Node3 -->
<g id="edge2" class="edge"><title>Node2&#45;&gt;Node3</title>
<path fill="none" stroke="midnightblue" d="M449.129,-60.7596C457.429,-60.6686 466.036,-60.5743 474.645,-60.48"/>
<polygon fill="midnightblue" stroke="midnightblue" points="474.772,-63.9789 484.733,-60.3694 474.695,-56.9793 474.772,-63.9789"/>
</g>
<!-- Node4 -->
<g id="node4" class="node"><title>Node4</title>
<g id="a_node4"><a xlink:href="../../d3/db1/struct_player.html#afde75b389a2678ebac44730041d4c94b" target="_top" xlink:title=" ">
<polygon fill="white" stroke="black" points="503.5,-10.9788 503.5,-29.9788 630.5,-29.9788 630.5,-10.9788 503.5,-10.9788"/>
<text text-anchor="middle" x="567" y="-17.9788" font-family="Helvetica,sans-Serif" font-size="10.00">Player::HasItemEquipped</text>
</a>
</g>
</g>
<!-- Node2&#45;&gt;Node4 -->
<g id="edge3" class="edge"><title>Node2&#45;&gt;Node4</title>
<path fill="none" stroke="midnightblue" d="M449.129,-46.7348C470.372,-41.9624 493.631,-36.7371 513.767,-32.2134"/>
<polygon fill="midnightblue" stroke="midnightblue" points="514.691,-35.5931 523.681,-29.9862 513.157,-28.7633 514.691,-35.5931"/>
</g>
<!-- Node5&#45;&gt;Node3 -->
<g id="edge5" class="edge"><title>Node5&#45;&gt;Node3</title>
<path fill="none" stroke="midnightblue" d="M424.912,-27.0093C451.419,-33.1095 486.019,-41.0723 514.321,-47.5856"/>
<polygon fill="midnightblue" stroke="midnightblue" points="513.906,-51.0815 524.436,-49.9135 515.476,-44.2598 513.906,-51.0815"/>
</g>
<!-- Node5&#45;&gt;Node4 -->
<g id="edge6" class="edge"><title>Node5&#45;&gt;Node4</title>
<path fill="none" stroke="midnightblue" d="M431.928,-18.2749C450.627,-18.5823 472.43,-18.9407 492.952,-19.278"/>
<polygon fill="midnightblue" stroke="midnightblue" points="493.167,-22.7819 503.223,-19.4469 493.282,-15.7829 493.167,-22.7819"/>
</g>
<!-- Node6&#45;&gt;Node5 -->
<g id="edge8" class="edge"><title>Node6&#45;&gt;Node5</title>
<path fill="none" stroke="midnightblue" d="M280.452,-21.0037C294.61,-20.5098 309.33,-19.9964 323.012,-19.5191"/>
<polygon fill="midnightblue" stroke="midnightblue" points="323.373,-23.0087 333.245,-19.1621 323.129,-16.013 323.373,-23.0087"/>
</g>
</g>
</svg>
        <g id="navigator" transform="translate(0 0)" fill="#404254">
                <rect fill="#f2f5e9" fill-opacity="0.5" stroke="#606060" stroke-width=".5" x="0" y="0" width="60" height="60"/>
                <use id="zoomplus" xlink:href="#zoomPlus" x="17" y="9" onmousedown="handleZoom(evt,'in')"/>
                <use id="zoomminus" xlink:href="#zoomMin" x="42" y="9" onmousedown="handleZoom(evt,'out')"/>
                <use id="reset" xlink:href="#resetDef" x="30" y="36" onmousedown="handleReset()"/>
                <g id="arrowUp" xlink:href="#dirArrow" transform="translate(30 24)" onmousedown="handlePan(0,-1)">
                  <use xlink:href="#rim" fill="#404040">
                        <set attributeName="fill" to="#808080" begin="arrowUp.mouseover" end="arrowUp.mouseout"/>
                  </use>
                  <path fill="none" stroke="white" stroke-width="1.5" d="M0,-3.0v7 M-2.5,-0.5L0,-3.0L2.5,-0.5"/>
                </g>
                <g id="arrowRight" xlink:href="#dirArrow" transform="rotate(90) translate(36 -43)" onmousedown="handlePan(1,0)">
                  <use xlink:href="#rim" fill="#404040">
                        <set attributeName="fill" to="#808080" begin="arrowRight.mouseover" end="arrowRight.mouseout"/>
                  </use>
                  <path fill="none" stroke="white" stroke-width="1.5" d="M0,-3.0v7 M-2.5,-0.5L0,-3.0L2.5,-0.5"/>
                </g>
                <g id="arrowDown" xlink:href="#dirArrow" transform="rotate(180) translate(-30 -48)" onmousedown="handlePan(0,1)">
                  <use xlink:href="#rim" fill="#404040">
                        <set attributeName="fill" to="#808080" begin="arrowDown.mouseover" end="arrowDown.mouseout"/>
                  </use>
                  <path fill="none" stroke="white" stroke-width="1.5" d="M0,-3.0v7 M-2.5,-0.5L0,-3.0L2.5,-0.5"/>
                </g>
                <g id="arrowLeft" xlink:href="#dirArrow" transform="rotate(270) translate(-36 17)" onmousedown="handlePan(-1,0)">
                  <use xlink:href="#rim" fill="#404040">
                        <set attributeName="fill" to="#808080" begin="arrowLeft.mouseover" end="arrowLeft.mouseout"/>
                  </use>
                  <path fill="none" stroke="white" stroke-width="1.5" d="M0,-3.0v7 M-2.5,-0.5L0,-3.0L2.5,-0.5"/>
                </g>
        </g>
        <svg viewBox="0 0 15 15" width="100%" height="30px" preserveAspectRatio="xMaxYMin meet">
         <g id="arrow_out" transform="scale(0.3 0.3)">
          <a xlink:href="class_condition_processor_abc82bc6580a2bdc56a2b180603b76626_cgraph_org.svg" target="_base">
           <rect id="button" ry="5" rx="5" y="6" x="6" height="38" width="38"
                fill="#f2f5e9" fill-opacity="0.5" stroke="#606060" stroke-width="1.0"/>
           <path id="arrow"
             d="M 11.500037,31.436501 C 11.940474,20.09759 22.043105,11.32322 32.158766,21.979434 L 37.068811,17.246167 C 37.068811,17.246167 37.088388,32 37.088388,32 L 22.160133,31.978069 C 22.160133,31.978069 26.997745,27.140456 26.997745,27.140456 C 18.528582,18.264221 13.291696,25.230495 11.500037,31.436501 z"
             style="fill:#404040;"/>
          </a>
         </g>
        </svg>
</svg>
