<?xml version="1.0" encoding="UTF-8" standalone="no"?>
<!DOCTYPE svg PUBLIC "-//W3C//DTD SVG 1.1//EN"
 "http://www.w3.org/Graphics/SVG/1.1/DTD/svg11.dtd">
<!-- Generated by graphviz version 2.38.0 (20140413.2041)
 -->
<!-- Title: Application::Menu::EventLoop Pages: 1 -->
<svg width="840pt" height="39pt"
 viewBox="0.00 0.00 840.00 39.00" xmlns="http://www.w3.org/2000/svg" xmlns:xlink="http://www.w3.org/1999/xlink">
<g id="graph0" class="graph" transform="scale(1 1) rotate(0) translate(4 35)">
<title>Application::Menu::EventLoop</title>
<polygon fill="white" stroke="none" points="-4,4 -4,-35 836,-35 836,4 -4,4"/>
<!-- Node1 -->
<g id="node1" class="node"><title>Node1</title>
<g id="a_node1"><a xlink:title=" ">
<polygon fill="#bfbfbf" stroke="black" points="731,-0.5 731,-30.5 832,-30.5 832,-0.5 731,-0.5"/>
<text text-anchor="start" x="739" y="-18.5" font-family="Helvetica,sans-Serif" font-size="10.00">Application::Menu::</text>
<text text-anchor="middle" x="781.5" y="-7.5" font-family="Helvetica,sans-Serif" font-size="10.00">EventLoop</text>
</a>
</g>
</g>
<!-- Node2 -->
<g id="node2" class="node"><title>Node2</title>
<g id="a_node2"><a xlink:href="../../df/dac/class_application_1_1_menu.html#aaf253396760ddad4b41b2db8901e97ee" target="_top" xlink:title=" ">
<polygon fill="white" stroke="black" points="594,-0.5 594,-30.5 695,-30.5 695,-0.5 594,-0.5"/>
<text text-anchor="start" x="602" y="-18.5" font-family="Helvetica,sans-Serif" font-size="10.00">Application::Menu::</text>
<text text-anchor="middle" x="644.5" y="-7.5" font-family="Helvetica,sans-Serif" font-size="10.00">MenuLoop</text>
</a>
</g>
</g>
<!-- Node1&#45;&gt;Node2 -->
<g id="edge1" class="edge"><title>Node1&#45;&gt;Node2</title>
<path fill="none" stroke="midnightblue" d="M720.793,-15.5C712.33,-15.5 703.701,-15.5 695.448,-15.5"/>
<polygon fill="midnightblue" stroke="midnightblue" points="720.998,-19.0001 730.998,-15.5 720.998,-12.0001 720.998,-19.0001"/>
</g>
<!-- Node3 -->
<g id="node3" class="node"><title>Node3</title>
<g id="a_node3"><a xlink:href="../../d4/d06/class_application_1_1_game.html#a3f65e3f0ef1a9114fb3dea275e52442e" target="_top" xlink:title=" ">
<polygon fill="white" stroke="black" points="455,-0.5 455,-30.5 558,-30.5 558,-0.5 455,-0.5"/>
<text text-anchor="start" x="463" y="-18.5" font-family="Helvetica,sans-Serif" font-size="10.00">Application::Game::</text>
<text text-anchor="middle" x="506.5" y="-7.5" font-family="Helvetica,sans-Serif" font-size="10.00">EventLoop</text>
</a>
</g>
</g>
<!-- Node2&#45;&gt;Node3 -->
<g id="edge2" class="edge"><title>Node2&#45;&gt;Node3</title>
<path fill="none" stroke="midnightblue" d="M583.486,-15.5C575.072,-15.5 566.494,-15.5 558.274,-15.5"/>
<polygon fill="midnightblue" stroke="midnightblue" points="583.631,-19.0001 593.631,-15.5 583.631,-12.0001 583.631,-19.0001"/>
</g>
<!-- Node4 -->
<g id="node4" class="node"><title>Node4</title>
<g id="a_node4"><a xlink:href="../../d4/d06/class_application_1_1_game.html#aaa0ff18388b32b4e6198835a35e000d3" target="_top" xlink:title=" ">
<polygon fill="white" stroke="black" points="316,-0.5 316,-30.5 419,-30.5 419,-0.5 316,-0.5"/>
<text text-anchor="start" x="324" y="-18.5" font-family="Helvetica,sans-Serif" font-size="10.00">Application::Game::</text>
<text text-anchor="middle" x="367.5" y="-7.5" font-family="Helvetica,sans-Serif" font-size="10.00">GameLoop</text>
</a>
</g>
</g>
<!-- Node3&#45;&gt;Node4 -->
<g id="edge3" class="edge"><title>Node3&#45;&gt;Node4</title>
<path fill="none" stroke="midnightblue" d="M444.68,-15.5C436.228,-15.5 427.618,-15.5 419.374,-15.5"/>
<polygon fill="midnightblue" stroke="midnightblue" points="444.876,-19.0001 454.875,-15.5 444.875,-12.0001 444.876,-19.0001"/>
</g>
<!-- Node5 -->
<g id="node5" class="node"><title>Node5</title>
<g id="a_node5"><a xlink:href="../../d4/d06/class_application_1_1_game.html#a013ffd59e8fdf1c0a396da1dbe1681ca" target="_top" xlink:title=" ">
<polygon fill="white" stroke="black" points="156,-6 156,-25 280,-25 280,-6 156,-6"/>
<text text-anchor="middle" x="218" y="-13" font-family="Helvetica,sans-Serif" font-size="10.00">Application::Game::Loop</text>
</a>
</g>
</g>
<!-- Node4&#45;&gt;Node5 -->
<g id="edge4" class="edge"><title>Node4&#45;&gt;Node5</title>
<path fill="none" stroke="midnightblue" d="M305.59,-15.5C297.149,-15.5 288.478,-15.5 280.035,-15.5"/>
<polygon fill="midnightblue" stroke="midnightblue" points="305.739,-19.0001 315.739,-15.5 305.739,-12.0001 305.739,-19.0001"/>
</g>
<!-- Node6 -->
<g id="node6" class="node"><title>Node6</title>
<g id="a_node6"><a xlink:href="../../d4/d06/class_application_1_1_game.html#a96341ca5b54d90adc3ecb3bf0bcd2312" target="_top" xlink:title=" ">
<polygon fill="white" stroke="black" points="0,-6 0,-25 120,-25 120,-6 0,-6"/>
<text text-anchor="middle" x="60" y="-13" font-family="Helvetica,sans-Serif" font-size="10.00">Application::Game::Run</text>
</a>
</g>
</g>
<!-- Node5&#45;&gt;Node6 -->
<g id="edge5" class="edge"><title>Node5&#45;&gt;Node6</title>
<path fill="none" stroke="midnightblue" d="M145.546,-15.5C137.081,-15.5 128.513,-15.5 120.244,-15.5"/>
<polygon fill="midnightblue" stroke="midnightblue" points="145.792,-19.0001 155.792,-15.5 145.792,-12.0001 145.792,-19.0001"/>
</g>
</g>
</svg>
