<?xml version="1.0" encoding="UTF-8" standalone="no"?>
<!DOCTYPE svg PUBLIC "-//W3C//DTD SVG 1.1//EN"
 "http://www.w3.org/Graphics/SVG/1.1/DTD/svg11.dtd">
<!-- Generated by graphviz version 2.38.0 (20140413.2041)
 -->
<!-- Title: AVDynamicHDRPlus Pages: 1 -->
<!--zoomable 451 -->
<svg id="main" version="1.1" xmlns="http://www.w3.org/2000/svg" xmlns:xlink="http://www.w3.org/1999/xlink" xml:space="preserve" onload="init(evt)">
<style type="text/css"><![CDATA[
.edge:hover path { stroke: red; }
.edge:hover polygon { stroke: red; fill: red; }
]]></style>
<script type="text/javascript"><![CDATA[
var edges = document.getElementsByTagName('g');
if (edges && edges.length) {
  for (var i=0;i<edges.length;i++) {
    if (edges[i].id.substr(0,4)=='edge') {
      edges[i].setAttribute('class','edge');
    }
  }
}
]]></script>
        <defs>
                <circle id="rim" cx="0" cy="0" r="7"/>
                <circle id="rim2" cx="0" cy="0" r="3.5"/>
                <g id="zoomPlus">
                        <use xlink:href="#rim" fill="#404040">
                                <set attributeName="fill" to="#808080" begin="zoomplus.mouseover" end="zoomplus.mouseout"/>
                        </use>
                        <path d="M-4,0h8M0,-4v8" fill="none" stroke="white" stroke-width="1.5" pointer-events="none"/>
                </g>
                <g id="zoomMin">
                        <use xlink:href="#rim" fill="#404040">
                                <set attributeName="fill" to="#808080" begin="zoomminus.mouseover" end="zoomminus.mouseout"/>
                        </use>
                        <path d="M-4,0h8" fill="none" stroke="white" stroke-width="1.5" pointer-events="none"/>
                </g>
                <g id="dirArrow">
                        <path fill="none" stroke="white" stroke-width="1.5" d="M0,-3.0v7 M-2.5,-0.5L0,-3.0L2.5,-0.5"/>
                </g>
               <g id="resetDef">
                       <use xlink:href="#rim2" fill="#404040">
                               <set attributeName="fill" to="#808080" begin="reset.mouseover" end="reset.mouseout"/>
                       </use>
               </g>
        </defs>

<script type="text/javascript">
var viewWidth = 367;
var viewHeight = 451;
var sectionId = 'dynsection-0';
</script>
<script xlink:href="../../svgpan.js"/>
<svg id="graph" class="graph">
<g id="viewport">
<title>AVDynamicHDRPlus</title>
<polygon fill="white" stroke="none" points="-4,4 -4,-447 362.5,-447 362.5,4 -4,4"/>
<!-- Node1 -->
<g id="node1" class="node"><title>Node1</title>
<g id="a_node1"><a xlink:title=" ">
<polygon fill="#bfbfbf" stroke="black" points="0,-0.5 0,-19.5 108,-19.5 108,-0.5 0,-0.5"/>
<text text-anchor="middle" x="54" y="-7.5" font-family="Helvetica,sans-Serif" font-size="10.00">AVDynamicHDRPlus</text>
</a>
</g>
</g>
<!-- Node2 -->
<g id="node2" class="node"><title>Node2</title>
<g id="a_node2"><a xlink:href="../../d7/d28/struct_a_v_rational.html" target="_top" xlink:title=" ">
<polygon fill="white" stroke="black" points="110.5,-423.5 110.5,-442.5 175.5,-442.5 175.5,-423.5 110.5,-423.5"/>
<text text-anchor="middle" x="143" y="-430.5" font-family="Helvetica,sans-Serif" font-size="10.00">AVRational</text>
</a>
</g>
</g>
<!-- Node2&#45;&gt;Node1 -->
<g id="edge1" class="edge"><title>Node2&#45;&gt;Node1</title>
<path fill="none" stroke="#9a32cd" stroke-dasharray="5,2" d="M132.064,-414.804C107.032,-374.296 46.1027,-268.902 25,-171 12.6272,-113.599 39.5047,-43.8497 50.0188,-19.7116"/>
<polygon fill="#9a32cd" stroke="#9a32cd" points="129.21,-416.84 137.482,-423.46 135.143,-413.126 129.21,-416.84"/>
<text text-anchor="start" x="25" y="-163" font-family="Helvetica,sans-Serif" font-size="10.00"> mastering_display_actual</text>
<text text-anchor="middle" x="82" y="-152" font-family="Helvetica,sans-Serif" font-size="10.00">_peak_luminance</text>
<text text-anchor="start" x="25" y="-141" font-family="Helvetica,sans-Serif" font-size="10.00">targeted_system_display</text>
<text text-anchor="middle" x="82" y="-130" font-family="Helvetica,sans-Serif" font-size="10.00">_actual_peak_luminance</text>
<text text-anchor="start" x="25" y="-119" font-family="Helvetica,sans-Serif" font-size="10.00">targeted_system_display</text>
<text text-anchor="middle" x="82" y="-108" font-family="Helvetica,sans-Serif" font-size="10.00">_maximum_luminance</text>
</g>
<!-- Node3 -->
<g id="node3" class="node"><title>Node3</title>
<g id="a_node3"><a xlink:href="../../d7/d46/struct_a_v_h_d_r_plus_color_transform_params.html" target="_top" xlink:title=" ">
<polygon fill="white" stroke="black" points="58.5,-67.5 58.5,-86.5 227.5,-86.5 227.5,-67.5 58.5,-67.5"/>
<text text-anchor="middle" x="143" y="-74.5" font-family="Helvetica,sans-Serif" font-size="10.00">AVHDRPlusColorTransformParams</text>
</a>
</g>
</g>
<!-- Node2&#45;&gt;Node3 -->
<g id="edge3" class="edge"><title>Node2&#45;&gt;Node3</title>
<path fill="none" stroke="#9a32cd" stroke-dasharray="5,2" d="M143,-413.187C143,-347.946 143,-132.891 143,-86.7616"/>
<polygon fill="#9a32cd" stroke="#9a32cd" points="139.5,-413.249 143,-423.249 146.5,-413.249 139.5,-413.249"/>
<text text-anchor="middle" x="185" y="-368" font-family="Helvetica,sans-Serif" font-size="10.00"> knee_point_x</text>
<text text-anchor="middle" x="185" y="-357" font-family="Helvetica,sans-Serif" font-size="10.00">knee_point_y</text>
<text text-anchor="start" x="143" y="-346" font-family="Helvetica,sans-Serif" font-size="10.00">color_saturation</text>
<text text-anchor="middle" x="185" y="-335" font-family="Helvetica,sans-Serif" font-size="10.00">_weight</text>
<text text-anchor="start" x="143" y="-324" font-family="Helvetica,sans-Serif" font-size="10.00">fraction_bright</text>
<text text-anchor="middle" x="185" y="-313" font-family="Helvetica,sans-Serif" font-size="10.00">_pixels</text>
<text text-anchor="middle" x="185" y="-302" font-family="Helvetica,sans-Serif" font-size="10.00">maxscl</text>
<text text-anchor="start" x="143" y="-291" font-family="Helvetica,sans-Serif" font-size="10.00">bezier_curve</text>
<text text-anchor="middle" x="185" y="-280" font-family="Helvetica,sans-Serif" font-size="10.00">_anchors</text>
<text text-anchor="start" x="143" y="-269" font-family="Helvetica,sans-Serif" font-size="10.00">window_lower</text>
<text text-anchor="middle" x="185" y="-258" font-family="Helvetica,sans-Serif" font-size="10.00">_right_corner_x</text>
<text text-anchor="start" x="143" y="-247" font-family="Helvetica,sans-Serif" font-size="10.00">window_lower_right</text>
<text text-anchor="middle" x="185" y="-236" font-family="Helvetica,sans-Serif" font-size="10.00">_corner_y</text>
<text text-anchor="middle" x="185" y="-225" font-family="Helvetica,sans-Serif" font-size="10.00">average_maxrgb</text>
<text text-anchor="start" x="143" y="-214" font-family="Helvetica,sans-Serif" font-size="10.00">window_upper_left</text>
<text text-anchor="middle" x="185" y="-203" font-family="Helvetica,sans-Serif" font-size="10.00">_corner_x</text>
<text text-anchor="middle" x="185" y="-192" font-family="Helvetica,sans-Serif" font-size="10.00">...</text>
</g>
<!-- Node4 -->
<g id="node4" class="node"><title>Node4</title>
<g id="a_node4"><a xlink:href="../../d9/d11/struct_a_v_h_d_r_plus_percentile.html" target="_top" xlink:title=" ">
<polygon fill="white" stroke="black" points="245.5,-273 245.5,-292 358.5,-292 358.5,-273 245.5,-273"/>
<text text-anchor="middle" x="302" y="-280" font-family="Helvetica,sans-Serif" font-size="10.00">AVHDRPlusPercentile</text>
</a>
</g>
</g>
<!-- Node2&#45;&gt;Node4 -->
<g id="edge5" class="edge"><title>Node2&#45;&gt;Node4</title>
<path fill="none" stroke="#9a32cd" stroke-dasharray="5,2" d="M169.113,-418.583C187.559,-408.374 212.235,-393.184 231,-376 260.114,-349.34 286.07,-309.625 296.786,-292.212"/>
<polygon fill="#9a32cd" stroke="#9a32cd" points="167.235,-415.62 160.1,-423.452 170.562,-421.779 167.235,-415.62"/>
<text text-anchor="middle" x="230" y="-397" font-family="Helvetica,sans-Serif" font-size="10.00"> percentile</text>
</g>
<!-- Node3&#45;&gt;Node1 -->
<g id="edge2" class="edge"><title>Node3&#45;&gt;Node1</title>
<path fill="none" stroke="#9a32cd" stroke-dasharray="5,2" d="M122.554,-61.0678C104.987,-48.2376 80.2691,-30.1853 65.8128,-19.6273"/>
<polygon fill="#9a32cd" stroke="#9a32cd" points="120.857,-64.1623 130.997,-67.2338 124.986,-58.5094 120.857,-64.1623"/>
<text text-anchor="middle" x="122" y="-41" font-family="Helvetica,sans-Serif" font-size="10.00"> params</text>
</g>
<!-- Node4&#45;&gt;Node3 -->
<g id="edge4" class="edge"><title>Node4&#45;&gt;Node3</title>
<path fill="none" stroke="#9a32cd" stroke-dasharray="5,2" d="M289.252,-264.729C275.102,-246.15 251.546,-215.337 231,-189 201.05,-150.608 164.787,-105.203 149.892,-86.5992"/>
<polygon fill="#9a32cd" stroke="#9a32cd" points="286.548,-266.955 295.389,-272.793 292.118,-262.716 286.548,-266.955"/>
<text text-anchor="middle" x="261" y="-135.5" font-family="Helvetica,sans-Serif" font-size="10.00"> distribution_maxrgb</text>
</g>
</g>
</svg>
        <g id="navigator" transform="translate(0 0)" fill="#404254">
                <rect fill="#f2f5e9" fill-opacity="0.5" stroke="#606060" stroke-width=".5" x="0" y="0" width="60" height="60"/>
                <use id="zoomplus" xlink:href="#zoomPlus" x="17" y="9" onmousedown="handleZoom(evt,'in')"/>
                <use id="zoomminus" xlink:href="#zoomMin" x="42" y="9" onmousedown="handleZoom(evt,'out')"/>
                <use id="reset" xlink:href="#resetDef" x="30" y="36" onmousedown="handleReset()"/>
                <g id="arrowUp" xlink:href="#dirArrow" transform="translate(30 24)" onmousedown="handlePan(0,-1)">
                  <use xlink:href="#rim" fill="#404040">
                        <set attributeName="fill" to="#808080" begin="arrowUp.mouseover" end="arrowUp.mouseout"/>
                  </use>
                  <path fill="none" stroke="white" stroke-width="1.5" d="M0,-3.0v7 M-2.5,-0.5L0,-3.0L2.5,-0.5"/>
                </g>
                <g id="arrowRight" xlink:href="#dirArrow" transform="rotate(90) translate(36 -43)" onmousedown="handlePan(1,0)">
                  <use xlink:href="#rim" fill="#404040">
                        <set attributeName="fill" to="#808080" begin="arrowRight.mouseover" end="arrowRight.mouseout"/>
                  </use>
                  <path fill="none" stroke="white" stroke-width="1.5" d="M0,-3.0v7 M-2.5,-0.5L0,-3.0L2.5,-0.5"/>
                </g>
                <g id="arrowDown" xlink:href="#dirArrow" transform="rotate(180) translate(-30 -48)" onmousedown="handlePan(0,1)">
                  <use xlink:href="#rim" fill="#404040">
                        <set attributeName="fill" to="#808080" begin="arrowDown.mouseover" end="arrowDown.mouseout"/>
                  </use>
                  <path fill="none" stroke="white" stroke-width="1.5" d="M0,-3.0v7 M-2.5,-0.5L0,-3.0L2.5,-0.5"/>
                </g>
                <g id="arrowLeft" xlink:href="#dirArrow" transform="rotate(270) translate(-36 17)" onmousedown="handlePan(-1,0)">
                  <use xlink:href="#rim" fill="#404040">
                        <set attributeName="fill" to="#808080" begin="arrowLeft.mouseover" end="arrowLeft.mouseout"/>
                  </use>
                  <path fill="none" stroke="white" stroke-width="1.5" d="M0,-3.0v7 M-2.5,-0.5L0,-3.0L2.5,-0.5"/>
                </g>
        </g>
        <svg viewBox="0 0 15 15" width="100%" height="30px" preserveAspectRatio="xMaxYMin meet">
         <g id="arrow_out" transform="scale(0.3 0.3)">
          <a xlink:href="struct_a_v_dynamic_h_d_r_plus__coll__graph_org.svg" target="_base">
           <rect id="button" ry="5" rx="5" y="6" x="6" height="38" width="38"
                fill="#f2f5e9" fill-opacity="0.5" stroke="#606060" stroke-width="1.0"/>
           <path id="arrow"
             d="M 11.500037,31.436501 C 11.940474,20.09759 22.043105,11.32322 32.158766,21.979434 L 37.068811,17.246167 C 37.068811,17.246167 37.088388,32 37.088388,32 L 22.160133,31.978069 C 22.160133,31.978069 26.997745,27.140456 26.997745,27.140456 C 18.528582,18.264221 13.291696,25.230495 11.500037,31.436501 z"
             style="fill:#404040;"/>
          </a>
         </g>
        </svg>
</svg>
