<?xml version="1.0" encoding="UTF-8" standalone="no"?>
<!DOCTYPE svg PUBLIC "-//W3C//DTD SVG 1.1//EN"
 "http://www.w3.org/Graphics/SVG/1.1/DTD/svg11.dtd">
<!-- Generated by graphviz version 2.38.0 (20140413.2041)
 -->
<!-- Title: RenderBillboard Pages: 1 -->
<svg width="192pt" height="420pt"
 viewBox="0.00 0.00 191.50 420.00" xmlns="http://www.w3.org/2000/svg" xmlns:xlink="http://www.w3.org/1999/xlink">
<g id="graph0" class="graph" transform="scale(1 1) rotate(0) translate(4 416)">
<title>RenderBillboard</title>
<polygon fill="white" stroke="none" points="-4,4 -4,-416 187.5,-416 187.5,4 -4,4"/>
<!-- Node1 -->
<g id="node1" class="node"><title>Node1</title>
<g id="a_node1"><a xlink:title=" ">
<polygon fill="#bfbfbf" stroke="black" points="52,-0.5 52,-19.5 137,-19.5 137,-0.5 52,-0.5"/>
<text text-anchor="middle" x="94.5" y="-7.5" font-family="Helvetica,sans-Serif" font-size="10.00">RenderBillboard</text>
</a>
</g>
</g>
<!-- Node2 -->
<g id="node2" class="node"><title>Node2</title>
<g id="a_node2"><a xlink:href="../../d7/dbf/class_sprite.html" target="_top" xlink:title=" ">
<polygon fill="white" stroke="black" points="83.5,-134.5 83.5,-153.5 125.5,-153.5 125.5,-134.5 83.5,-134.5"/>
<text text-anchor="middle" x="104.5" y="-141.5" font-family="Helvetica,sans-Serif" font-size="10.00">Sprite</text>
</a>
</g>
</g>
<!-- Node2&#45;&gt;Node1 -->
<g id="edge1" class="edge"><title>Node2&#45;&gt;Node1</title>
<path fill="none" stroke="#9a32cd" stroke-dasharray="5,2" d="M115.85,-125.529C117.356,-122.461 118.666,-119.218 119.5,-116 128.196,-82.4417 132.148,-70.2769 119.5,-38 116.703,-30.8625 111.035,-24.4838 105.802,-19.7208"/>
<polygon fill="#9a32cd" stroke="#9a32cd" points="112.653,-124.068 110.709,-134.483 118.723,-127.554 112.653,-124.068"/>
<text text-anchor="middle" x="148.5" y="-74.5" font-family="Helvetica,sans-Serif" font-size="10.00"> hwsprite</text>
</g>
<!-- Node9 -->
<g id="node9" class="node"><title>Node9</title>
<g id="a_node9"><a xlink:href="../../dc/df9/class_sprite_frame.html" target="_top" xlink:title=" ">
<polygon fill="white" stroke="black" points="21.5,-67.5 21.5,-86.5 91.5,-86.5 91.5,-67.5 21.5,-67.5"/>
<text text-anchor="middle" x="56.5" y="-74.5" font-family="Helvetica,sans-Serif" font-size="10.00">SpriteFrame</text>
</a>
</g>
</g>
<!-- Node2&#45;&gt;Node9 -->
<g id="edge9" class="edge"><title>Node2&#45;&gt;Node9</title>
<path fill="none" stroke="#9a32cd" stroke-dasharray="5,2" d="M81.2187,-128.153C76.8836,-124.582 72.7138,-120.486 69.5,-116 63.0839,-107.044 59.6357,-94.6684 57.9359,-86.5054"/>
<polygon fill="#9a32cd" stroke="#9a32cd" points="79.4354,-131.188 89.5511,-134.339 83.6078,-125.568 79.4354,-131.188"/>
<text text-anchor="middle" x="94.5" y="-108" font-family="Helvetica,sans-Serif" font-size="10.00"> hw_sprites</text>
</g>
<!-- Node3 -->
<g id="node3" class="node"><title>Node3</title>
<g id="a_node3"><a xlink:href="../../d5/d3a/struct_l_o_d_sprite.html" target="_top" xlink:title=" ">
<polygon fill="white" stroke="black" points="30.5,-201.5 30.5,-220.5 92.5,-220.5 92.5,-201.5 30.5,-201.5"/>
<text text-anchor="middle" x="61.5" y="-208.5" font-family="Helvetica,sans-Serif" font-size="10.00">LODSprite</text>
</a>
</g>
</g>
<!-- Node3&#45;&gt;Node2 -->
<g id="edge2" class="edge"><title>Node3&#45;&gt;Node2</title>
<path fill="none" stroke="#9a32cd" stroke-dasharray="5,2" d="M55.8508,-191.251C54.9505,-184.789 55.2138,-177.739 58.5,-172 63.8375,-162.678 73.7827,-156.261 83.064,-152.029"/>
<polygon fill="#9a32cd" stroke="#9a32cd" points="52.4932,-192.269 58.1361,-201.236 59.3168,-190.707 52.4932,-192.269"/>
<text text-anchor="middle" x="89.5" y="-175" font-family="Helvetica,sans-Serif" font-size="10.00"> sprite_header</text>
</g>
<!-- Node4 -->
<g id="node4" class="node"><title>Node4</title>
<g id="a_node4"><a xlink:href="../../d3/ddd/struct_l_o_d_sprite_header.html" target="_top" xlink:title=" ">
<polygon fill="white" stroke="black" points="15.5,-258.5 15.5,-277.5 107.5,-277.5 107.5,-258.5 15.5,-258.5"/>
<text text-anchor="middle" x="61.5" y="-265.5" font-family="Helvetica,sans-Serif" font-size="10.00">LODSpriteHeader</text>
</a>
</g>
</g>
<!-- Node4&#45;&gt;Node3 -->
<g id="edge3" class="edge"><title>Node4&#45;&gt;Node3</title>
<path fill="none" stroke="midnightblue" d="M61.5,-248.117C61.5,-238.817 61.5,-228.056 61.5,-220.715"/>
<polygon fill="midnightblue" stroke="midnightblue" points="58.0001,-248.406 61.5,-258.406 65.0001,-248.406 58.0001,-248.406"/>
</g>
<!-- Node5 -->
<g id="node5" class="node"><title>Node5</title>
<g id="a_node5"><a xlink:href="../../d2/d7f/class_texture.html" target="_top" xlink:title=" ">
<polygon fill="white" stroke="black" points="122,-201.5 122,-220.5 171,-220.5 171,-201.5 122,-201.5"/>
<text text-anchor="middle" x="146.5" y="-208.5" font-family="Helvetica,sans-Serif" font-size="10.00">Texture</text>
</a>
</g>
</g>
<!-- Node5&#45;&gt;Node2 -->
<g id="edge4" class="edge"><title>Node5&#45;&gt;Node2</title>
<path fill="none" stroke="#9a32cd" stroke-dasharray="5,2" d="M136.988,-192.626C133.254,-186.064 128.83,-178.593 124.5,-172 120.401,-165.759 115.401,-159.009 111.426,-153.819"/>
<polygon fill="#9a32cd" stroke="#9a32cd" points="133.946,-194.356 141.875,-201.383 140.058,-190.945 133.946,-194.356"/>
<text text-anchor="middle" x="148.5" y="-175" font-family="Helvetica,sans-Serif" font-size="10.00"> texture</text>
</g>
<!-- Node6 -->
<g id="node6" class="node"><title>Node6</title>
<g id="a_node6"><a xlink:href="../../de/d73/class_image.html" target="_top" xlink:title=" ">
<polygon fill="white" stroke="black" points="126,-258.5 126,-277.5 169,-277.5 169,-258.5 126,-258.5"/>
<text text-anchor="middle" x="147.5" y="-265.5" font-family="Helvetica,sans-Serif" font-size="10.00">Image</text>
</a>
</g>
</g>
<!-- Node6&#45;&gt;Node5 -->
<g id="edge5" class="edge"><title>Node6&#45;&gt;Node5</title>
<path fill="none" stroke="midnightblue" d="M147.157,-248.117C146.988,-238.817 146.792,-228.056 146.658,-220.715"/>
<polygon fill="midnightblue" stroke="midnightblue" points="143.662,-248.472 147.344,-258.406 150.661,-248.344 143.662,-248.472"/>
</g>
<!-- Node7 -->
<g id="node7" class="node"><title>Node7</title>
<g id="a_node7"><a xlink:href="../../d7/d42/class_image_loader.html" target="_top" xlink:title=" ">
<polygon fill="white" stroke="black" points="111.5,-325.5 111.5,-344.5 183.5,-344.5 183.5,-325.5 111.5,-325.5"/>
<text text-anchor="middle" x="147.5" y="-332.5" font-family="Helvetica,sans-Serif" font-size="10.00">ImageLoader</text>
</a>
</g>
</g>
<!-- Node7&#45;&gt;Node6 -->
<g id="edge6" class="edge"><title>Node7&#45;&gt;Node6</title>
<path fill="none" stroke="#9a32cd" stroke-dasharray="5,2" d="M147.5,-315.037C147.5,-302.67 147.5,-287.12 147.5,-277.627"/>
<polygon fill="#9a32cd" stroke="#9a32cd" points="144,-315.234 147.5,-325.234 151,-315.234 144,-315.234"/>
<text text-anchor="middle" x="162.5" y="-299" font-family="Helvetica,sans-Serif" font-size="10.00"> loader</text>
</g>
<!-- Node8 -->
<g id="node8" class="node"><title>Node8</title>
<g id="a_node8"><a xlink:href="../../d6/d70/class_log.html" target="_top" xlink:title=" ">
<polygon fill="white" stroke="black" points="131.5,-392.5 131.5,-411.5 163.5,-411.5 163.5,-392.5 131.5,-392.5"/>
<text text-anchor="middle" x="147.5" y="-399.5" font-family="Helvetica,sans-Serif" font-size="10.00">Log</text>
</a>
</g>
</g>
<!-- Node8&#45;&gt;Node7 -->
<g id="edge7" class="edge"><title>Node8&#45;&gt;Node7</title>
<path fill="none" stroke="#9a32cd" stroke-dasharray="5,2" d="M147.5,-382.037C147.5,-369.67 147.5,-354.12 147.5,-344.627"/>
<polygon fill="#9a32cd" stroke="#9a32cd" points="144,-382.234 147.5,-392.234 151,-382.234 144,-382.234"/>
<text text-anchor="middle" x="155.5" y="-366" font-family="Helvetica,sans-Serif" font-size="10.00"> log</text>
</g>
<!-- Node9&#45;&gt;Node1 -->
<g id="edge8" class="edge"><title>Node9&#45;&gt;Node1</title>
<path fill="none" stroke="#9a32cd" stroke-dasharray="5,2" d="M53.7363,-56.8895C53.6519,-50.567 54.5096,-43.6974 57.5,-38 61.6392,-30.114 69.2386,-23.9602 76.4783,-19.5325"/>
<polygon fill="#9a32cd" stroke="#9a32cd" points="50.2895,-57.6512 54.6483,-67.3078 57.2628,-57.0407 50.2895,-57.6512"/>
<text text-anchor="middle" x="88.5" y="-41" font-family="Helvetica,sans-Serif" font-size="10.00"> pSpriteFrame</text>
</g>
<!-- Node10 -->
<g id="node10" class="node"><title>Node10</title>
<g id="a_node10"><a xlink:href="../../d6/dc9/structfixed.html" target="_top" xlink:title=" ">
<polygon fill="white" stroke="black" points="0,-134.5 0,-153.5 37,-153.5 37,-134.5 0,-134.5"/>
<text text-anchor="middle" x="18.5" y="-141.5" font-family="Helvetica,sans-Serif" font-size="10.00">fixed</text>
</a>
</g>
</g>
<!-- Node10&#45;&gt;Node9 -->
<g id="edge10" class="edge"><title>Node10&#45;&gt;Node9</title>
<path fill="none" stroke="#9a32cd" stroke-dasharray="5,2" d="M15.7363,-123.89C15.6519,-117.567 16.5096,-110.697 19.5,-105 23.6392,-97.114 31.2386,-90.9602 38.4783,-86.5325"/>
<polygon fill="#9a32cd" stroke="#9a32cd" points="12.2895,-124.651 16.6483,-134.308 19.2628,-124.041 12.2895,-124.651"/>
<text text-anchor="middle" x="33" y="-108" font-family="Helvetica,sans-Serif" font-size="10.00"> scale</text>
</g>
</g>
</svg>
