<?xml version="1.0" encoding="UTF-8" standalone="no"?>
<!DOCTYPE svg PUBLIC "-//W3C//DTD SVG 1.1//EN"
 "http://www.w3.org/Graphics/SVG/1.1/DTD/svg11.dtd">
<!-- Generated by graphviz version 2.38.0 (20140413.2041)
 -->
<!-- Title: LoadPartyBuffIcons Pages: 1 -->
<svg width="278pt" height="116pt"
 viewBox="0.00 0.00 278.00 116.00" xmlns="http://www.w3.org/2000/svg" xmlns:xlink="http://www.w3.org/1999/xlink">
<g id="graph0" class="graph" transform="scale(1 1) rotate(0) translate(4 112)">
<title>LoadPartyBuffIcons</title>
<polygon fill="white" stroke="none" points="-4,4 -4,-112 274,-112 274,4 -4,4"/>
<!-- Node1 -->
<g id="node1" class="node"><title>Node1</title>
<g id="a_node1"><a xlink:title=" ">
<polygon fill="#bfbfbf" stroke="black" points="0,-44.5 0,-63.5 101,-63.5 101,-44.5 0,-44.5"/>
<text text-anchor="middle" x="50.5" y="-51.5" font-family="Helvetica,sans-Serif" font-size="10.00">LoadPartyBuffIcons</text>
</a>
</g>
</g>
<!-- Node2 -->
<g id="node2" class="node"><title>Node2</title>
<g id="a_node2"><a xlink:href="../../d8/dc5/struct_icon_frame_table.html#a54fe662106564367c584c401dd2e2b36" target="_top" xlink:title=" ">
<polygon fill="white" stroke="black" points="139.5,-88.5 139.5,-107.5 267.5,-107.5 267.5,-88.5 139.5,-88.5"/>
<text text-anchor="middle" x="203.5" y="-95.5" font-family="Helvetica,sans-Serif" font-size="10.00">IconFrameTable::FindIcon</text>
</a>
</g>
</g>
<!-- Node1&#45;&gt;Node2 -->
<g id="edge1" class="edge"><title>Node1&#45;&gt;Node2</title>
<path fill="none" stroke="midnightblue" d="M83.9753,-63.5134C99.9445,-68.187 119.479,-73.8972 137,-79 144.351,-81.1409 152.168,-83.4125 159.745,-85.6122"/>
<polygon fill="midnightblue" stroke="midnightblue" points="158.931,-89.0202 169.51,-88.4454 160.882,-82.2975 158.931,-89.0202"/>
</g>
<!-- Node3 -->
<g id="node3" class="node"><title>Node3</title>
<g id="a_node3"><a xlink:href="../../db/dd6/class_assets_manager.html#ad4ab70fc004c8c5a54756f3d358a8383" target="_top" xlink:title=" ">
<polygon fill="white" stroke="black" points="137,-39 137,-69 270,-69 270,-39 137,-39"/>
<text text-anchor="start" x="145" y="-57" font-family="Helvetica,sans-Serif" font-size="10.00">AssetsManager::GetImage</text>
<text text-anchor="middle" x="203.5" y="-46" font-family="Helvetica,sans-Serif" font-size="10.00">_ColorKey</text>
</a>
</g>
</g>
<!-- Node1&#45;&gt;Node3 -->
<g id="edge2" class="edge"><title>Node1&#45;&gt;Node3</title>
<path fill="none" stroke="midnightblue" d="M101.362,-54C109.512,-54 118.114,-54 126.721,-54"/>
<polygon fill="midnightblue" stroke="midnightblue" points="126.801,-57.5001 136.801,-54 126.801,-50.5001 126.801,-57.5001"/>
</g>
<!-- Node4 -->
<g id="node4" class="node"><title>Node4</title>
<g id="a_node4"><a xlink:href="../../d8/d44/_strings_8cpp.html#aebf99e80337d8db0a005aebe8a13fb7f" target="_top" xlink:title=" ">
<polygon fill="white" stroke="black" points="171,-0.5 171,-19.5 236,-19.5 236,-0.5 171,-0.5"/>
<text text-anchor="middle" x="203.5" y="-7.5" font-family="Helvetica,sans-Serif" font-size="10.00">StringPrintf</text>
</a>
</g>
</g>
<!-- Node1&#45;&gt;Node4 -->
<g id="edge3" class="edge"><title>Node1&#45;&gt;Node4</title>
<path fill="none" stroke="midnightblue" d="M84.2648,-44.4527C106.83,-37.8772 136.99,-29.0889 161.201,-22.0341"/>
<polygon fill="midnightblue" stroke="midnightblue" points="162.212,-25.3851 170.834,-19.2272 160.254,-18.6646 162.212,-25.3851"/>
</g>
</g>
</svg>
