<?xml version="1.0" encoding="UTF-8" standalone="no"?>
<!DOCTYPE svg PUBLIC "-//W3C//DTD SVG 1.1//EN"
 "http://www.w3.org/Graphics/SVG/1.1/DTD/svg11.dtd">
<!-- Generated by graphviz version 2.38.0 (20140413.2041)
 -->
<!-- Title: Utility functions Pages: 1 -->
<svg width="301pt" height="64pt"
 viewBox="0.00 0.00 301.00 64.00" xmlns="http://www.w3.org/2000/svg" xmlns:xlink="http://www.w3.org/1999/xlink">
<g id="graph0" class="graph" transform="scale(1 1) rotate(0) translate(4 60)">
<title>Utility functions</title>
<polygon fill="white" stroke="none" points="-4,4 -4,-60 297,-60 297,4 -4,4"/>
<!-- Node4 -->
<g id="node1" class="node"><title>Node4</title>
<g id="a_node1"><a xlink:href="../../d4/d96/group__lavc__fft.html" target="_top" xlink:title=" ">
<polygon fill="white" stroke="black" points="293,-56 217,-56 217,-37 293,-37 293,-56"/>
<text text-anchor="middle" x="255" y="-44" font-family="Helvetica,sans-Serif" font-size="10.00">FFT functions</text>
</a>
</g>
</g>
<!-- Node1 -->
<g id="node2" class="node"><title>Node1</title>
<g id="a_node2"><a xlink:title=" ">
<polygon fill="#bfbfbf" stroke="black" points="181,-37 98,-37 98,-18 181,-18 181,-37"/>
<text text-anchor="middle" x="139.5" y="-25" font-family="Helvetica,sans-Serif" font-size="10.00">Utility functions</text>
</a>
</g>
</g>
<!-- Node1&#45;&gt;Node4 -->
<g id="edge3" class="edge"><title>Node1&#45;&gt;Node4</title>
<path fill="none" stroke="black" d="M191.107,-35.9716C199.699,-37.4099 208.481,-38.8801 216.653,-40.2481"/>
<polygon fill="black" stroke="black" points="191.596,-32.5049 181.156,-34.3058 190.44,-39.4089 191.596,-32.5049"/>
</g>
<!-- Node3 -->
<g id="node4" class="node"><title>Node3</title>
<g id="a_node4"><a xlink:href="../../da/d48/group__lavc__misc__pixfmt.html" target="_top" xlink:title="Functions for working with pixel formats.">
<polygon fill="white" stroke="black" points="292,-19 218,-19 218,-0 292,-0 292,-19"/>
<text text-anchor="middle" x="255" y="-7" font-family="Helvetica,sans-Serif" font-size="10.00">Pixel formats</text>
</a>
</g>
</g>
<!-- Node1&#45;&gt;Node3 -->
<g id="edge2" class="edge"><title>Node1&#45;&gt;Node3</title>
<path fill="none" stroke="black" d="M191.15,-19.4674C200.122,-18.0445 209.3,-16.5889 217.773,-15.2452"/>
<polygon fill="black" stroke="black" points="190.484,-16.0292 181.156,-21.0524 191.58,-22.9428 190.484,-16.0292"/>
</g>
<!-- Node2 -->
<g id="node3" class="node"><title>Node2</title>
<g id="a_node3"><a xlink:href="../../d5/de3/group__libavc.html" target="_top" xlink:title="Encoding/Decoding Library.">
<polygon fill="white" stroke="black" points="62,-37 0,-37 0,-18 62,-18 62,-37"/>
<text text-anchor="middle" x="31" y="-25" font-family="Helvetica,sans-Serif" font-size="10.00">libavcodec</text>
</a>
</g>
</g>
<!-- Node2&#45;&gt;Node1 -->
<g id="edge1" class="edge"><title>Node2&#45;&gt;Node1</title>
<path fill="none" stroke="black" d="M72.4608,-27.5C80.7735,-27.5 89.5281,-27.5 97.8476,-27.5"/>
<polygon fill="black" stroke="black" points="72.2338,-24.0001 62.2338,-27.5 72.2337,-31.0001 72.2338,-24.0001"/>
</g>
</g>
</svg>
