<?xml version="1.0" encoding="UTF-8" standalone="no"?>
<!DOCTYPE svg PUBLIC "-//W3C//DTD SVG 1.1//EN"
 "http://www.w3.org/Graphics/SVG/1.1/DTD/svg11.dtd">
<!-- Generated by graphviz version 2.38.0 (20140413.2041)
 -->
<!-- Title: HWLContainer::Open Pages: 1 -->
<svg width="425pt" height="66pt"
 viewBox="0.00 0.00 425.00 66.00" xmlns="http://www.w3.org/2000/svg" xmlns:xlink="http://www.w3.org/1999/xlink">
<g id="graph0" class="graph" transform="scale(1 1) rotate(0) translate(4 62)">
<title>HWLContainer::Open</title>
<polygon fill="white" stroke="none" points="-4,4 -4,-62 421,-62 421,4 -4,4"/>
<!-- Node1 -->
<g id="node1" class="node"><title>Node1</title>
<g id="a_node1"><a xlink:title=" ">
<polygon fill="#bfbfbf" stroke="black" points="308,-19.5 308,-38.5 417,-38.5 417,-19.5 308,-19.5"/>
<text text-anchor="middle" x="362.5" y="-26.5" font-family="Helvetica,sans-Serif" font-size="10.00">HWLContainer::Open</text>
</a>
</g>
</g>
<!-- Node2 -->
<g id="node2" class="node"><title>Node2</title>
<g id="a_node2"><a xlink:href="../../d9/d47/class_render_base.html#aef1916dcf1e87a912dc416f07e58f139" target="_top" xlink:title=" ">
<polygon fill="white" stroke="black" points="161,-19.5 161,-38.5 272,-38.5 272,-19.5 161,-19.5"/>
<text text-anchor="middle" x="216.5" y="-26.5" font-family="Helvetica,sans-Serif" font-size="10.00">RenderBase::Initialize</text>
</a>
</g>
</g>
<!-- Node1&#45;&gt;Node2 -->
<g id="edge1" class="edge"><title>Node1&#45;&gt;Node2</title>
<path fill="none" stroke="midnightblue" d="M297.615,-29C289.111,-29 280.454,-29 272.126,-29"/>
<polygon fill="midnightblue" stroke="midnightblue" points="297.88,-32.5001 307.88,-29 297.88,-25.5001 297.88,-32.5001"/>
</g>
<!-- Node3 -->
<g id="node3" class="node"><title>Node3</title>
<g id="a_node3"><a xlink:href="../../d1/d2c/class_render_open_g_l.html#af9678acf4f34b5adf8acdb6717d76bf0" target="_top" xlink:title=" ">
<polygon fill="white" stroke="black" points="0,-38.5 0,-57.5 125,-57.5 125,-38.5 0,-38.5"/>
<text text-anchor="middle" x="62.5" y="-45.5" font-family="Helvetica,sans-Serif" font-size="10.00">RenderOpenGL::Initialize</text>
</a>
</g>
</g>
<!-- Node2&#45;&gt;Node3 -->
<g id="edge2" class="edge"><title>Node2&#45;&gt;Node3</title>
<path fill="none" stroke="midnightblue" d="M150.522,-37.1222C142.143,-38.1696 133.581,-39.2399 125.256,-40.2805"/>
<polygon fill="midnightblue" stroke="midnightblue" points="151.136,-40.5728 160.625,-35.8594 150.268,-33.6269 151.136,-40.5728"/>
</g>
<!-- Node4 -->
<g id="node4" class="node"><title>Node4</title>
<g id="a_node4"><a xlink:href="../../da/d7f/class_render.html#a37caadc159880c770d5edd8a0c9f8f37" target="_top" xlink:title=" ">
<polygon fill="white" stroke="black" points="18,-0.5 18,-19.5 107,-19.5 107,-0.5 18,-0.5"/>
<text text-anchor="middle" x="62.5" y="-7.5" font-family="Helvetica,sans-Serif" font-size="10.00">Render::Initialize</text>
</a>
</g>
</g>
<!-- Node2&#45;&gt;Node4 -->
<g id="edge3" class="edge"><title>Node2&#45;&gt;Node4</title>
<path fill="none" stroke="midnightblue" d="M150.627,-20.8908C136.017,-19.0646 120.846,-17.1682 107.337,-15.4797"/>
<polygon fill="midnightblue" stroke="midnightblue" points="150.268,-24.3731 160.625,-22.1406 151.136,-17.4272 150.268,-24.3731"/>
</g>
</g>
</svg>
