<?xml version="1.0" encoding="UTF-8" standalone="no"?>
<!DOCTYPE svg PUBLIC "-//W3C//DTD SVG 1.1//EN"
 "http://www.w3.org/Graphics/SVG/1.1/DTD/svg11.dtd">
<!-- Generated by graphviz version 2.38.0 (20140413.2041)
 -->
<!-- Title: Chest::ChestUI_WritePointedObjectStatusString Pages: 1 -->
<svg width="1066pt" height="192pt"
 viewBox="0.00 0.00 1066.00 192.00" xmlns="http://www.w3.org/2000/svg" xmlns:xlink="http://www.w3.org/1999/xlink">
<g id="graph0" class="graph" transform="scale(1 1) rotate(0) translate(4 188)">
<title>Chest::ChestUI_WritePointedObjectStatusString</title>
<polygon fill="white" stroke="none" points="-4,4 -4,-188 1062,-188 1062,4 -4,4"/>
<!-- Node1 -->
<g id="node1" class="node"><title>Node1</title>
<g id="a_node1"><a xlink:title=" ">
<polygon fill="#bfbfbf" stroke="black" points="0,-80 0,-110 144,-110 144,-80 0,-80"/>
<text text-anchor="start" x="8" y="-98" font-family="Helvetica,sans-Serif" font-size="10.00">Chest::ChestUI_WritePointed</text>
<text text-anchor="middle" x="72" y="-87" font-family="Helvetica,sans-Serif" font-size="10.00">ObjectStatusString</text>
</a>
</g>
</g>
<!-- Node2 -->
<g id="node2" class="node"><title>Node2</title>
<g id="a_node2"><a xlink:href="../../d4/dca/_u_i_status_bar_8cpp.html#a8ad9e37393859e27c512528b4c1b4b2f" target="_top" xlink:title=" ">
<polygon fill="white" stroke="black" points="186,-123.5 186,-142.5 307,-142.5 307,-123.5 186,-123.5"/>
<text text-anchor="middle" x="246.5" y="-130.5" font-family="Helvetica,sans-Serif" font-size="10.00">GameUI_StatusBar_Set</text>
</a>
</g>
</g>
<!-- Node1&#45;&gt;Node2 -->
<g id="edge1" class="edge"><title>Node1&#45;&gt;Node2</title>
<path fill="none" stroke="midnightblue" d="M141.177,-110.019C158.256,-113.781 176.325,-117.761 192.54,-121.333"/>
<polygon fill="midnightblue" stroke="midnightblue" points="191.852,-124.766 202.371,-123.499 193.358,-117.93 191.852,-124.766"/>
</g>
<!-- Node3 -->
<g id="node3" class="node"><title>Node3</title>
<g id="a_node3"><a xlink:href="../../d7/dc5/class_mouse.html#a8900246ba042b33090b8dc8e377fbb3a" target="_top" xlink:title=" ">
<polygon fill="white" stroke="black" points="190,-85.5 190,-104.5 303,-104.5 303,-85.5 190,-85.5"/>
<text text-anchor="middle" x="246.5" y="-92.5" font-family="Helvetica,sans-Serif" font-size="10.00">Mouse::GetCursorPos</text>
</a>
</g>
</g>
<!-- Node1&#45;&gt;Node3 -->
<g id="edge2" class="edge"><title>Node1&#45;&gt;Node3</title>
<path fill="none" stroke="midnightblue" d="M144.158,-95C155.93,-95 168.089,-95 179.721,-95"/>
<polygon fill="midnightblue" stroke="midnightblue" points="179.785,-98.5001 189.784,-95 179.784,-91.5001 179.785,-98.5001"/>
</g>
<!-- Node4 -->
<g id="node4" class="node"><title>Node4</title>
<g id="a_node4"><a xlink:href="../../d7/d9c/struct_item_gen.html#a40adeb3145d484fb01be0642117d30ff" target="_top" xlink:title=" ">
<polygon fill="white" stroke="black" points="180,-47.5 180,-66.5 313,-66.5 313,-47.5 180,-47.5"/>
<text text-anchor="middle" x="246.5" y="-54.5" font-family="Helvetica,sans-Serif" font-size="10.00">ItemGen::GetDisplayName</text>
</a>
</g>
</g>
<!-- Node1&#45;&gt;Node4 -->
<g id="edge3" class="edge"><title>Node1&#45;&gt;Node4</title>
<path fill="none" stroke="midnightblue" d="M141.177,-79.9814C158.256,-76.219 176.325,-72.2386 192.54,-68.6666"/>
<polygon fill="midnightblue" stroke="midnightblue" points="193.358,-72.0704 202.371,-66.5009 191.852,-65.2343 193.358,-72.0704"/>
</g>
<!-- Node5 -->
<g id="node5" class="node"><title>Node5</title>
<g id="a_node5"><a xlink:href="../../d7/d9c/struct_item_gen.html#acba6d882353a4d14939af8e848872bdf" target="_top" xlink:title=" ">
<polygon fill="white" stroke="black" points="349,-66.5 349,-85.5 488,-85.5 488,-66.5 349,-66.5"/>
<text text-anchor="middle" x="418.5" y="-73.5" font-family="Helvetica,sans-Serif" font-size="10.00">ItemGen::GetIdentifiedName</text>
</a>
</g>
</g>
<!-- Node4&#45;&gt;Node5 -->
<g id="edge4" class="edge"><title>Node4&#45;&gt;Node5</title>
<path fill="none" stroke="midnightblue" d="M313.226,-64.3459C321.621,-65.2841 330.28,-66.2519 338.853,-67.21"/>
<polygon fill="midnightblue" stroke="midnightblue" points="338.528,-70.6954 348.855,-68.3279 339.306,-63.7388 338.528,-70.6954"/>
</g>
<!-- Node17 -->
<g id="node17" class="node"><title>Node17</title>
<g id="a_node17"><a xlink:href="../../d7/d9c/struct_item_gen.html#ab283ca331d92c7e8980a5b9f0b61d677" target="_top" xlink:title=" ">
<polygon fill="white" stroke="black" points="366,-28.5 366,-47.5 471,-47.5 471,-28.5 366,-28.5"/>
<text text-anchor="middle" x="418.5" y="-35.5" font-family="Helvetica,sans-Serif" font-size="10.00">ItemGen::IsIdentified</text>
</a>
</g>
</g>
<!-- Node4&#45;&gt;Node17 -->
<g id="edge16" class="edge"><title>Node4&#45;&gt;Node17</title>
<path fill="none" stroke="midnightblue" d="M313.226,-49.6541C327.149,-48.098 341.801,-46.4605 355.577,-44.9208"/>
<polygon fill="midnightblue" stroke="midnightblue" points="356.366,-48.3546 365.915,-43.7654 355.588,-41.3979 356.366,-48.3546"/>
</g>
<!-- Node6 -->
<g id="node6" class="node"><title>Node6</title>
<g id="a_node6"><a xlink:href="../../dd/d88/class_localization.html#aa585c1180dc1a338b5822de8e413d2d6" target="_top" xlink:title=" ">
<polygon fill="white" stroke="black" points="528.5,-126.5 528.5,-145.5 659.5,-145.5 659.5,-126.5 528.5,-126.5"/>
<text text-anchor="middle" x="594" y="-133.5" font-family="Helvetica,sans-Serif" font-size="10.00">Localization::FormatString</text>
</a>
</g>
</g>
<!-- Node5&#45;&gt;Node6 -->
<g id="edge5" class="edge"><title>Node5&#45;&gt;Node6</title>
<path fill="none" stroke="midnightblue" d="M442.079,-85.6553C463.075,-94.4425 495.338,-107.461 524,-117 530.97,-119.32 538.402,-121.582 545.709,-123.689"/>
<polygon fill="midnightblue" stroke="midnightblue" points="544.968,-127.116 555.542,-126.456 546.864,-120.378 544.968,-127.116"/>
</g>
<!-- Node14 -->
<g id="node14" class="node"><title>Node14</title>
<g id="a_node14"><a xlink:href="../../d7/d9c/struct_item_gen.html#a1aff2db2385ebf047a37787234f745a8" target="_top" xlink:title=" ">
<polygon fill="white" stroke="black" points="524,-88.5 524,-107.5 664,-107.5 664,-88.5 524,-88.5"/>
<text text-anchor="middle" x="594" y="-95.5" font-family="Helvetica,sans-Serif" font-size="10.00">ItemGen::GetItemEquipType</text>
</a>
</g>
</g>
<!-- Node5&#45;&gt;Node14 -->
<g id="edge13" class="edge"><title>Node5&#45;&gt;Node14</title>
<path fill="none" stroke="midnightblue" d="M488.072,-84.695C496.514,-85.7654 505.196,-86.8663 513.779,-87.9547"/>
<polygon fill="midnightblue" stroke="midnightblue" points="513.428,-91.4382 523.789,-89.224 514.309,-84.4938 513.428,-91.4382"/>
</g>
<!-- Node15 -->
<g id="node15" class="node"><title>Node15</title>
<g id="a_node15"><a xlink:href="../../db/d39/struct_items_table.html#a9ce59bdb78130973f350ac3f2bcf0312" target="_top" xlink:title=" ">
<polygon fill="white" stroke="black" points="529.5,-39 529.5,-69 658.5,-69 658.5,-39 529.5,-39"/>
<text text-anchor="start" x="537.5" y="-57" font-family="Helvetica,sans-Serif" font-size="10.00">ItemsTable::IsMaterialNon</text>
<text text-anchor="middle" x="594" y="-46" font-family="Helvetica,sans-Serif" font-size="10.00">Common</text>
</a>
</g>
</g>
<!-- Node5&#45;&gt;Node15 -->
<g id="edge14" class="edge"><title>Node5&#45;&gt;Node15</title>
<path fill="none" stroke="midnightblue" d="M488.072,-67.305C498.301,-66.0079 508.884,-64.666 519.216,-63.3559"/>
<polygon fill="midnightblue" stroke="midnightblue" points="519.961,-66.7895 529.442,-62.0593 519.081,-59.8451 519.961,-66.7895"/>
</g>
<!-- Node16 -->
<g id="node16" class="node"><title>Node16</title>
<g id="a_node16"><a xlink:href="../../d8/d44/_strings_8cpp.html#aebf99e80337d8db0a005aebe8a13fb7f" target="_top" xlink:title=" ">
<polygon fill="white" stroke="black" points="561.5,-0.5 561.5,-19.5 626.5,-19.5 626.5,-0.5 561.5,-0.5"/>
<text text-anchor="middle" x="594" y="-7.5" font-family="Helvetica,sans-Serif" font-size="10.00">StringPrintf</text>
</a>
</g>
</g>
<!-- Node5&#45;&gt;Node16 -->
<g id="edge15" class="edge"><title>Node5&#45;&gt;Node16</title>
<path fill="none" stroke="midnightblue" d="M463.521,-66.4122C471.86,-63.8702 480.358,-60.7578 488,-57 505.947,-48.1742 506.104,-38.9293 524,-30 532.524,-25.7471 542.103,-22.2517 551.349,-19.4403"/>
<polygon fill="midnightblue" stroke="midnightblue" points="552.518,-22.747 561.186,-16.6547 550.611,-16.0119 552.518,-22.747"/>
</g>
<!-- Node7 -->
<g id="node7" class="node"><title>Node7</title>
<g id="a_node7"><a xlink:href="../../dd/d88/class_localization.html#a0eb0a17fdf90f6a420eeac65bf62436f" target="_top" xlink:title=" ">
<polygon fill="white" stroke="black" points="700,-145.5 700,-164.5 816,-164.5 816,-145.5 700,-145.5"/>
<text text-anchor="middle" x="758" y="-152.5" font-family="Helvetica,sans-Serif" font-size="10.00">Localization::GetString</text>
</a>
</g>
</g>
<!-- Node6&#45;&gt;Node7 -->
<g id="edge6" class="edge"><title>Node6&#45;&gt;Node7</title>
<path fill="none" stroke="midnightblue" d="M659.958,-143.619C669.758,-144.768 679.884,-145.956 689.731,-147.11"/>
<polygon fill="midnightblue" stroke="midnightblue" points="689.527,-150.61 699.867,-148.299 690.343,-143.658 689.527,-150.61"/>
</g>
<!-- Node8 -->
<g id="node8" class="node"><title>Node8</title>
<g id="a_node8"><a xlink:href="../../d6/db8/mm7text__ru_8cpp.html#a53baf8844fdc6c4b8a7211d481c03a34" target="_top" xlink:title=" ">
<polygon fill="white" stroke="black" points="713,-107.5 713,-126.5 803,-126.5 803,-107.5 713,-107.5"/>
<text text-anchor="middle" x="758" y="-114.5" font-family="Helvetica,sans-Serif" font-size="10.00">sprintfex_internal</text>
</a>
</g>
</g>
<!-- Node6&#45;&gt;Node8 -->
<g id="edge7" class="edge"><title>Node6&#45;&gt;Node8</title>
<path fill="none" stroke="midnightblue" d="M659.958,-128.381C674.128,-126.72 688.98,-124.978 702.684,-123.37"/>
<polygon fill="midnightblue" stroke="midnightblue" points="703.386,-126.812 712.91,-122.171 702.57,-119.86 703.386,-126.812"/>
</g>
<!-- Node9 -->
<g id="node9" class="node"><title>Node9</title>
<g id="a_node9"><a xlink:href="../../d6/db8/mm7text__ru_8cpp.html#a3b1651c73512b95aad130c9090a7cd3c" target="_top" xlink:title=" ">
<polygon fill="white" stroke="black" points="868,-164.5 868,-183.5 932,-183.5 932,-164.5 868,-164.5"/>
<text text-anchor="middle" x="900" y="-171.5" font-family="Helvetica,sans-Serif" font-size="10.00">GetGender</text>
</a>
</g>
</g>
<!-- Node8&#45;&gt;Node9 -->
<g id="edge8" class="edge"><title>Node8&#45;&gt;Node9</title>
<path fill="none" stroke="midnightblue" d="M790.704,-126.544C799.035,-129.329 807.942,-132.558 816,-136 832.637,-143.107 835.592,-147.378 852,-155 856.061,-156.886 860.364,-158.774 864.652,-160.586"/>
<polygon fill="midnightblue" stroke="midnightblue" points="863.339,-163.831 873.918,-164.408 866.008,-157.359 863.339,-163.831"/>
</g>
<!-- Node11 -->
<g id="node11" class="node"><title>Node11</title>
<g id="a_node11"><a xlink:href="../../d6/db8/mm7text__ru_8cpp.html#aa84f8d3f36800bc6ca518198a70797d3" target="_top" xlink:title=" ">
<polygon fill="white" stroke="black" points="856.5,-126.5 856.5,-145.5 943.5,-145.5 943.5,-126.5 856.5,-126.5"/>
<text text-anchor="middle" x="900" y="-133.5" font-family="Helvetica,sans-Serif" font-size="10.00">GetSpecialCase</text>
</a>
</g>
</g>
<!-- Node8&#45;&gt;Node11 -->
<g id="edge10" class="edge"><title>Node8&#45;&gt;Node11</title>
<path fill="none" stroke="midnightblue" d="M803.297,-123.012C816.963,-124.866 832.147,-126.927 846.32,-128.851"/>
<polygon fill="midnightblue" stroke="midnightblue" points="846.045,-132.345 856.425,-130.222 846.987,-125.409 846.045,-132.345"/>
</g>
<!-- Node12 -->
<g id="node12" class="node"><title>Node12</title>
<g id="a_node12"><a xlink:href="../../d6/db8/mm7text__ru_8cpp.html#a60e152118d795d22912d38e37a55dec9" target="_top" xlink:title=" ">
<polygon fill="white" stroke="black" points="852,-88.5 852,-107.5 948,-107.5 948,-88.5 852,-88.5"/>
<text text-anchor="middle" x="900" y="-95.5" font-family="Helvetica,sans-Serif" font-size="10.00">GetSpecialGender</text>
</a>
</g>
</g>
<!-- Node8&#45;&gt;Node12 -->
<g id="edge11" class="edge"><title>Node8&#45;&gt;Node12</title>
<path fill="none" stroke="midnightblue" d="M803.297,-110.988C815.433,-109.341 828.767,-107.532 841.526,-105.8"/>
<polygon fill="midnightblue" stroke="midnightblue" points="842.164,-109.246 851.602,-104.433 841.223,-102.309 842.164,-109.246"/>
</g>
<!-- Node13 -->
<g id="node13" class="node"><title>Node13</title>
<g id="a_node13"><a xlink:href="../../d6/db8/mm7text__ru_8cpp.html#a20fd879e0dfe9f113a87a611f353a725" target="_top" xlink:title=" ">
<polygon fill="white" stroke="black" points="859,-50.5 859,-69.5 941,-69.5 941,-50.5 859,-50.5"/>
<text text-anchor="middle" x="900" y="-57.5" font-family="Helvetica,sans-Serif" font-size="10.00">IsSpecialName</text>
</a>
</g>
</g>
<!-- Node8&#45;&gt;Node13 -->
<g id="edge12" class="edge"><title>Node8&#45;&gt;Node13</title>
<path fill="none" stroke="midnightblue" d="M782.304,-107.45C801.109,-99.7503 828.248,-88.6536 852,-79 856.454,-77.1898 861.147,-75.2871 865.774,-73.4137"/>
<polygon fill="midnightblue" stroke="midnightblue" points="867.125,-76.6429 875.083,-69.6486 864.5,-70.1537 867.125,-76.6429"/>
</g>
<!-- Node10 -->
<g id="node10" class="node"><title>Node10</title>
<g id="a_node10"><a xlink:href="../../d6/d70/class_log.html#ac0de2621497ca3b2fbf208624c08bcdf" target="_top" xlink:title=" ">
<polygon fill="white" stroke="black" points="984,-164.5 984,-183.5 1058,-183.5 1058,-164.5 984,-164.5"/>
<text text-anchor="middle" x="1021" y="-171.5" font-family="Helvetica,sans-Serif" font-size="10.00">Log::Warning</text>
</a>
</g>
</g>
<!-- Node9&#45;&gt;Node10 -->
<g id="edge9" class="edge"><title>Node9&#45;&gt;Node10</title>
<path fill="none" stroke="midnightblue" d="M932.266,-174C944.887,-174 959.715,-174 973.552,-174"/>
<polygon fill="midnightblue" stroke="midnightblue" points="973.887,-177.5 983.887,-174 973.887,-170.5 973.887,-177.5"/>
</g>
</g>
</svg>
