<?xml version="1.0" encoding="UTF-8" standalone="no"?>
<!DOCTYPE svg PUBLIC "-//W3C//DTD SVG 1.1//EN"
 "http://www.w3.org/Graphics/SVG/1.1/DTD/svg11.dtd">
<!-- Generated by graphviz version 2.38.0 (20140413.2041)
 -->
<!-- Title: TextureOpenGL::LoadImageData Pages: 1 -->
<svg width="301pt" height="66pt"
 viewBox="0.00 0.00 301.00 66.00" xmlns="http://www.w3.org/2000/svg" xmlns:xlink="http://www.w3.org/1999/xlink">
<g id="graph0" class="graph" transform="scale(1 1) rotate(0) translate(4 62)">
<title>TextureOpenGL::LoadImageData</title>
<polygon fill="white" stroke="none" points="-4,4 -4,-62 297,-62 297,4 -4,4"/>
<!-- Node1 -->
<g id="node1" class="node"><title>Node1</title>
<g id="a_node1"><a xlink:title=" ">
<polygon fill="#bfbfbf" stroke="black" points="0,-19.5 0,-38.5 158,-38.5 158,-19.5 0,-19.5"/>
<text text-anchor="middle" x="79" y="-26.5" font-family="Helvetica,sans-Serif" font-size="10.00">TextureOpenGL::LoadImageData</text>
</a>
</g>
</g>
<!-- Node2 -->
<g id="node2" class="node"><title>Node2</title>
<g id="a_node2"><a xlink:href="../../d9/d30/_s_d_l__assert_8h.html#afedcea68cf85ee469ab1ea390bbe0abb" target="_top" xlink:title=" ">
<polygon fill="white" stroke="black" points="205,-38.5 205,-57.5 282,-57.5 282,-38.5 205,-38.5"/>
<text text-anchor="middle" x="243.5" y="-45.5" font-family="Helvetica,sans-Serif" font-size="10.00">__debugbreak</text>
</a>
</g>
</g>
<!-- Node1&#45;&gt;Node2 -->
<g id="edge1" class="edge"><title>Node1&#45;&gt;Node2</title>
<path fill="none" stroke="midnightblue" d="M158.394,-38.1661C170.822,-39.6192 183.339,-41.0827 194.78,-42.4204"/>
<polygon fill="midnightblue" stroke="midnightblue" points="194.613,-45.9246 204.951,-43.6097 195.425,-38.972 194.613,-45.9246"/>
</g>
<!-- Node3 -->
<g id="node3" class="node"><title>Node3</title>
<g id="a_node3"><a xlink:href="../../d7/d42/class_image_loader.html#ad346c7973ae6f1d84a8c1fc655661319" target="_top" xlink:title=" ">
<polygon fill="white" stroke="black" points="194,-0.5 194,-19.5 293,-19.5 293,-0.5 194,-0.5"/>
<text text-anchor="middle" x="243.5" y="-7.5" font-family="Helvetica,sans-Serif" font-size="10.00">ImageLoader::Load</text>
</a>
</g>
</g>
<!-- Node1&#45;&gt;Node3 -->
<g id="edge2" class="edge"><title>Node1&#45;&gt;Node3</title>
<path fill="none" stroke="midnightblue" d="M158.394,-19.8339C166.84,-18.8464 175.327,-17.8541 183.489,-16.8997"/>
<polygon fill="midnightblue" stroke="midnightblue" points="184.102,-20.352 193.628,-15.7143 183.289,-13.3994 184.102,-20.352"/>
</g>
</g>
</svg>
