<?xml version="1.0" encoding="UTF-8" standalone="no"?>
<!DOCTYPE svg PUBLIC "-//W3C//DTD SVG 1.1//EN"
 "http://www.w3.org/Graphics/SVG/1.1/DTD/svg11.dtd">
<!-- Generated by graphviz version 2.38.0 (20140413.2041)
 -->
<!-- Title: Vis::PickBillboards_Mouse Pages: 1 -->
<!--zoomable 505 -->
<svg id="main" version="1.1" xmlns="http://www.w3.org/2000/svg" xmlns:xlink="http://www.w3.org/1999/xlink" xml:space="preserve" onload="init(evt)">
<style type="text/css"><![CDATA[
.edge:hover path { stroke: red; }
.edge:hover polygon { stroke: red; fill: red; }
]]></style>
<script type="text/javascript"><![CDATA[
var edges = document.getElementsByTagName('g');
if (edges && edges.length) {
  for (var i=0;i<edges.length;i++) {
    if (edges[i].id.substr(0,4)=='edge') {
      edges[i].setAttribute('class','edge');
    }
  }
}
]]></script>
        <defs>
                <circle id="rim" cx="0" cy="0" r="7"/>
                <circle id="rim2" cx="0" cy="0" r="3.5"/>
                <g id="zoomPlus">
                        <use xlink:href="#rim" fill="#404040">
                                <set attributeName="fill" to="#808080" begin="zoomplus.mouseover" end="zoomplus.mouseout"/>
                        </use>
                        <path d="M-4,0h8M0,-4v8" fill="none" stroke="white" stroke-width="1.5" pointer-events="none"/>
                </g>
                <g id="zoomMin">
                        <use xlink:href="#rim" fill="#404040">
                                <set attributeName="fill" to="#808080" begin="zoomminus.mouseover" end="zoomminus.mouseout"/>
                        </use>
                        <path d="M-4,0h8" fill="none" stroke="white" stroke-width="1.5" pointer-events="none"/>
                </g>
                <g id="dirArrow">
                        <path fill="none" stroke="white" stroke-width="1.5" d="M0,-3.0v7 M-2.5,-0.5L0,-3.0L2.5,-0.5"/>
                </g>
               <g id="resetDef">
                       <use xlink:href="#rim2" fill="#404040">
                               <set attributeName="fill" to="#808080" begin="reset.mouseover" end="reset.mouseout"/>
                       </use>
               </g>
        </defs>

<script type="text/javascript">
var viewWidth = 1031;
var viewHeight = 505;
var sectionId = 'dynsection-12';
</script>
<script xlink:href="../../svgpan.js"/>
<svg id="graph" class="graph">
<g id="viewport">
<title>Vis::PickBillboards_Mouse</title>
<polygon fill="white" stroke="none" points="-4,4 -4,-501 1027,-501 1027,4 -4,4"/>
<!-- Node1 -->
<g id="node1" class="node"><title>Node1</title>
<g id="a_node1"><a xlink:title=" ">
<polygon fill="#bfbfbf" stroke="black" points="0,-185 0,-215 99,-215 99,-185 0,-185"/>
<text text-anchor="start" x="8" y="-203" font-family="Helvetica,sans-Serif" font-size="10.00">Vis::PickBillboards</text>
<text text-anchor="middle" x="49.5" y="-192" font-family="Helvetica,sans-Serif" font-size="10.00">_Mouse</text>
</a>
</g>
</g>
<!-- Node2 -->
<g id="node2" class="node"><title>Node2</title>
<g id="a_node2"><a xlink:href="../../de/d0c/struct_vis___selection_list.html#a98a278dcbeb54ceca2c997f2dc7ea580" target="_top" xlink:title=" ">
<polygon fill="white" stroke="black" points="517.5,-390 517.5,-420 615.5,-420 615.5,-390 517.5,-390"/>
<text text-anchor="start" x="525.5" y="-408" font-family="Helvetica,sans-Serif" font-size="10.00">Vis_SelectionList::</text>
<text text-anchor="middle" x="566.5" y="-397" font-family="Helvetica,sans-Serif" font-size="10.00">AddObject</text>
</a>
</g>
</g>
<!-- Node1&#45;&gt;Node2 -->
<g id="edge1" class="edge"><title>Node1&#45;&gt;Node2</title>
<path fill="none" stroke="midnightblue" d="M67.8541,-215.27C84.4155,-229.417 110.416,-250.545 135,-266 213.92,-315.615 234.613,-329.373 323,-359 384.198,-379.513 457.33,-391.812 507.168,-398.461"/>
<polygon fill="midnightblue" stroke="midnightblue" points="506.757,-401.937 517.125,-399.756 507.66,-394.996 506.757,-401.937"/>
</g>
<!-- Node3 -->
<g id="node3" class="node"><title>Node3</title>
<g id="a_node3"><a xlink:href="../../d0/def/class_vis.html#ad4af37acceccfd227b3221caa6381385" target="_top" xlink:title=" ">
<polygon fill="white" stroke="black" points="135,-237.5 135,-256.5 287,-256.5 287,-237.5 135,-237.5"/>
<text text-anchor="middle" x="211" y="-244.5" font-family="Helvetica,sans-Serif" font-size="10.00">Vis::DoesRayIntersectBillboard</text>
</a>
</g>
</g>
<!-- Node1&#45;&gt;Node3 -->
<g id="edge2" class="edge"><title>Node1&#45;&gt;Node3</title>
<path fill="none" stroke="midnightblue" d="M99.2219,-214.357C121.208,-220.836 146.923,-228.413 168.039,-234.635"/>
<polygon fill="midnightblue" stroke="midnightblue" points="167.111,-238.011 177.693,-237.48 169.09,-231.296 167.111,-238.011"/>
</g>
<!-- Node23 -->
<g id="node23" class="node"><title>Node23</title>
<g id="a_node23"><a xlink:href="../../d0/def/class_vis.html#ae343e0a8b4ada6a717b217b15fc975ea" target="_top" xlink:title=" ">
<polygon fill="white" stroke="black" points="505,-152.5 505,-171.5 628,-171.5 628,-152.5 505,-152.5"/>
<text text-anchor="middle" x="566.5" y="-159.5" font-family="Helvetica,sans-Serif" font-size="10.00">Vis::is_part_of_selection</text>
</a>
</g>
</g>
<!-- Node1&#45;&gt;Node23 -->
<g id="edge43" class="edge"><title>Node1&#45;&gt;Node23</title>
<path fill="none" stroke="midnightblue" d="M99.1655,-194.386C153.626,-188.289 244.524,-178.664 323,-173 380.786,-168.83 446.439,-165.966 494.846,-164.209"/>
<polygon fill="midnightblue" stroke="midnightblue" points="495.036,-167.704 504.905,-163.85 494.787,-160.709 495.036,-167.704"/>
</g>
<!-- Node35 -->
<g id="node35" class="node"><title>Node35</title>
<g id="a_node35"><a xlink:href="../../d0/def/class_vis.html#ae6237de913fa3fa9775fbcad7d1a4d40" target="_top" xlink:title=" ">
<polygon fill="white" stroke="black" points="136.5,-106.5 136.5,-125.5 285.5,-125.5 285.5,-106.5 136.5,-106.5"/>
<text text-anchor="middle" x="211" y="-113.5" font-family="Helvetica,sans-Serif" font-size="10.00">Vis::IsPointInsideD3DBillboard</text>
</a>
</g>
</g>
<!-- Node1&#45;&gt;Node35 -->
<g id="edge44" class="edge"><title>Node1&#45;&gt;Node35</title>
<path fill="none" stroke="midnightblue" d="M68.2506,-184.916C84.6718,-171.586 110.216,-152.39 135,-140 143.713,-135.644 153.385,-131.854 162.808,-128.652"/>
<polygon fill="midnightblue" stroke="midnightblue" points="164.045,-131.931 172.487,-125.529 161.896,-125.269 164.045,-131.931"/>
</g>
<!-- Node4 -->
<g id="node4" class="node"><title>Node4</title>
<g id="a_node4"><a xlink:href="../../d0/def/class_vis.html#ab8b15bdf51a2c5a6cdd7b1e18369f974" target="_top" xlink:title=" ">
<polygon fill="white" stroke="black" points="338.5,-57.5 338.5,-76.5 432.5,-76.5 432.5,-57.5 338.5,-57.5"/>
<text text-anchor="middle" x="385.5" y="-64.5" font-family="Helvetica,sans-Serif" font-size="10.00">Vis::CastPickRay</text>
</a>
</g>
</g>
<!-- Node3&#45;&gt;Node4 -->
<g id="edge3" class="edge"><title>Node3&#45;&gt;Node4</title>
<path fill="none" stroke="midnightblue" d="M221.274,-237.322C249.12,-208.266 332.269,-121.502 367.945,-84.2753"/>
<polygon fill="midnightblue" stroke="midnightblue" points="370.788,-86.367 375.18,-76.7254 365.734,-81.5237 370.788,-86.367"/>
</g>
<!-- Node9 -->
<g id="node9" class="node"><title>Node9</title>
<g id="a_node9"><a xlink:href="../../de/d0c/struct_vis___selection_list.html#add61fa6d164124008c5c8cdec8e6b637" target="_top" xlink:title=" ">
<polygon fill="white" stroke="black" points="328,-183 328,-213 443,-213 443,-183 328,-183"/>
<text text-anchor="start" x="336" y="-201" font-family="Helvetica,sans-Serif" font-size="10.00">Vis_SelectionList::</text>
<text text-anchor="middle" x="385.5" y="-190" font-family="Helvetica,sans-Serif" font-size="10.00">create_object_pointers</text>
</a>
</g>
</g>
<!-- Node3&#45;&gt;Node9 -->
<g id="edge9" class="edge"><title>Node3&#45;&gt;Node9</title>
<path fill="none" stroke="midnightblue" d="M245.669,-237.436C267.318,-231.287 296.112,-223.107 321.864,-215.792"/>
<polygon fill="midnightblue" stroke="midnightblue" points="322.901,-219.136 331.564,-213.037 320.988,-212.403 322.901,-219.136"/>
</g>
<!-- Node11 -->
<g id="node11" class="node"><title>Node11</title>
<g id="a_node11"><a xlink:href="../../d0/def/class_vis.html#a076a53e422b5d120765e31efc8d241ed" target="_top" xlink:title=" ">
<polygon fill="white" stroke="black" points="327.5,-439.5 327.5,-458.5 443.5,-458.5 443.5,-439.5 327.5,-439.5"/>
<text text-anchor="middle" x="385.5" y="-446.5" font-family="Helvetica,sans-Serif" font-size="10.00">Vis::GetPolygonCenter</text>
</a>
</g>
</g>
<!-- Node3&#45;&gt;Node11 -->
<g id="edge11" class="edge"><title>Node3&#45;&gt;Node11</title>
<path fill="none" stroke="midnightblue" d="M220.32,-256.743C247.589,-288.675 334.518,-390.47 369.604,-431.556"/>
<polygon fill="midnightblue" stroke="midnightblue" points="367.108,-434.023 376.263,-439.355 372.431,-429.477 367.108,-434.023"/>
</g>
<!-- Node14 -->
<g id="node14" class="node"><title>Node14</title>
<g id="a_node14"><a xlink:href="../../d0/def/class_vis.html#ad9141000db2ce36fd1675c317929b46b" target="_top" xlink:title=" ">
<polygon fill="white" stroke="black" points="330.5,-232 330.5,-262 440.5,-262 440.5,-232 330.5,-232"/>
<text text-anchor="start" x="338.5" y="-250" font-family="Helvetica,sans-Serif" font-size="10.00">Vis::PickIndoorFaces</text>
<text text-anchor="middle" x="385.5" y="-239" font-family="Helvetica,sans-Serif" font-size="10.00">_Mouse</text>
</a>
</g>
</g>
<!-- Node3&#45;&gt;Node14 -->
<g id="edge14" class="edge"><title>Node3&#45;&gt;Node14</title>
<path fill="none" stroke="midnightblue" d="M287.159,-247C298.168,-247 309.421,-247 320.186,-247"/>
<polygon fill="midnightblue" stroke="midnightblue" points="320.334,-250.5 330.334,-247 320.334,-243.5 320.334,-250.5"/>
</g>
<!-- Node28 -->
<g id="node28" class="node"><title>Node28</title>
<g id="a_node28"><a xlink:href="../../d0/def/class_vis.html#af1001095fa5d94588bc7b32a31587751" target="_top" xlink:title=" ">
<polygon fill="white" stroke="black" points="326.5,-281 326.5,-311 444.5,-311 444.5,-281 326.5,-281"/>
<text text-anchor="start" x="334.5" y="-299" font-family="Helvetica,sans-Serif" font-size="10.00">Vis::PickOutdoorFaces</text>
<text text-anchor="middle" x="385.5" y="-288" font-family="Helvetica,sans-Serif" font-size="10.00">_Mouse</text>
</a>
</g>
</g>
<!-- Node3&#45;&gt;Node28 -->
<g id="edge30" class="edge"><title>Node3&#45;&gt;Node28</title>
<path fill="none" stroke="midnightblue" d="M245.669,-256.564C267.318,-262.713 296.112,-270.893 321.864,-278.208"/>
<polygon fill="midnightblue" stroke="midnightblue" points="320.988,-281.597 331.564,-280.963 322.901,-274.864 320.988,-281.597"/>
</g>
<!-- Node34 -->
<g id="node34" class="node"><title>Node34</title>
<g id="a_node34"><a xlink:href="../../d0/def/class_vis.html#a2a559e751ca0e277d34f09efb1b157c8" target="_top" xlink:title=" ">
<polygon fill="white" stroke="black" points="323,-330.5 323,-349.5 448,-349.5 448,-330.5 323,-330.5"/>
<text text-anchor="middle" x="385.5" y="-337.5" font-family="Helvetica,sans-Serif" font-size="10.00">Vis::sort_object_pointers</text>
</a>
</g>
</g>
<!-- Node3&#45;&gt;Node34 -->
<g id="edge42" class="edge"><title>Node3&#45;&gt;Node34</title>
<path fill="none" stroke="midnightblue" d="M224.325,-256.712C244.142,-271.946 284.75,-301.614 323,-320 328.381,-322.586 334.179,-324.961 339.99,-327.101"/>
<polygon fill="midnightblue" stroke="midnightblue" points="339.114,-330.501 349.709,-330.475 341.41,-323.889 339.114,-330.501"/>
</g>
<!-- Node5 -->
<g id="node5" class="node"><title>Node5</title>
<g id="a_node5"><a xlink:href="../../de/db6/_our_math_8cpp.html#a60e23493341fe2f31d154b9f2a14f1bd" target="_top" xlink:title=" ">
<polygon fill="white" stroke="black" points="519,-0.5 519,-19.5 614,-19.5 614,-0.5 519,-0.5"/>
<text text-anchor="middle" x="566.5" y="-7.5" font-family="Helvetica,sans-Serif" font-size="10.00">fixpoint_from_float</text>
</a>
</g>
</g>
<!-- Node4&#45;&gt;Node5 -->
<g id="edge4" class="edge"><title>Node4&#45;&gt;Node5</title>
<path fill="none" stroke="midnightblue" d="M408.255,-57.4891C427.808,-49.1904 457.448,-37.2232 484,-29 492.18,-26.4668 500.913,-24.0929 509.511,-21.9393"/>
<polygon fill="midnightblue" stroke="midnightblue" points="510.608,-25.2747 519.501,-19.5159 508.958,-18.472 510.608,-25.2747"/>
</g>
<!-- Node6 -->
<g id="node6" class="node"><title>Node6</title>
<g id="a_node6"><a xlink:href="../../de/dd4/_vis_8cpp.html#a4cb23e12d16fd52723821bd1bc5a5d5a" target="_top" xlink:title=" ">
<polygon fill="white" stroke="black" points="535,-38.5 535,-57.5 598,-57.5 598,-38.5 535,-38.5"/>
<text text-anchor="middle" x="566.5" y="-45.5" font-family="Helvetica,sans-Serif" font-size="10.00">UnprojectX</text>
</a>
</g>
</g>
<!-- Node4&#45;&gt;Node6 -->
<g id="edge5" class="edge"><title>Node4&#45;&gt;Node6</title>
<path fill="none" stroke="midnightblue" d="M432.597,-62.107C461.071,-59.0846 497.279,-55.2413 524.709,-52.3298"/>
<polygon fill="midnightblue" stroke="midnightblue" points="525.183,-55.7992 534.757,-51.2632 524.444,-48.8383 525.183,-55.7992"/>
</g>
<!-- Node8 -->
<g id="node8" class="node"><title>Node8</title>
<g id="a_node8"><a xlink:href="../../de/dd4/_vis_8cpp.html#a71cda59bdbaef4739403550c80397f02" target="_top" xlink:title=" ">
<polygon fill="white" stroke="black" points="534,-76.5 534,-95.5 599,-95.5 599,-76.5 534,-76.5"/>
<text text-anchor="middle" x="566.5" y="-83.5" font-family="Helvetica,sans-Serif" font-size="10.00">UnprojectY</text>
</a>
</g>
</g>
<!-- Node4&#45;&gt;Node8 -->
<g id="edge7" class="edge"><title>Node4&#45;&gt;Node8</title>
<path fill="none" stroke="midnightblue" d="M432.597,-71.893C460.796,-74.8861 496.579,-78.6844 523.91,-81.5854"/>
<polygon fill="midnightblue" stroke="midnightblue" points="523.624,-85.0747 533.938,-82.6498 524.363,-78.1138 523.624,-85.0747"/>
</g>
<!-- Node7 -->
<g id="node7" class="node"><title>Node7</title>
<g id="a_node7"><a xlink:href="../../d6/d38/structstru193__math.html#ae5c580a8915049b2fe00949acf3ca728" target="_top" xlink:title=" ">
<polygon fill="white" stroke="black" points="717,-56.5 717,-75.5 824,-75.5 824,-56.5 717,-56.5"/>
<text text-anchor="middle" x="770.5" y="-63.5" font-family="Helvetica,sans-Serif" font-size="10.00">stru193_math::Atan2</text>
</a>
</g>
</g>
<!-- Node6&#45;&gt;Node7 -->
<g id="edge6" class="edge"><title>Node6&#45;&gt;Node7</title>
<path fill="none" stroke="midnightblue" d="M598.179,-50.7338C626.931,-53.2959 670.777,-57.2029 706.913,-60.423"/>
<polygon fill="midnightblue" stroke="midnightblue" points="706.611,-63.9098 716.882,-61.3113 707.232,-56.9374 706.611,-63.9098"/>
</g>
<!-- Node8&#45;&gt;Node7 -->
<g id="edge8" class="edge"><title>Node8&#45;&gt;Node7</title>
<path fill="none" stroke="midnightblue" d="M599.063,-82.875C627.744,-80.0352 670.906,-75.7617 706.618,-72.226"/>
<polygon fill="midnightblue" stroke="midnightblue" points="707.348,-75.6709 716.954,-71.2026 706.658,-68.705 707.348,-75.6709"/>
</g>
<!-- Node10 -->
<g id="node10" class="node"><title>Node10</title>
<g id="a_node10"><a xlink:href="../../d6/d70/class_log.html#ac0de2621497ca3b2fbf208624c08bcdf" target="_top" xlink:title=" ">
<polygon fill="white" stroke="black" points="733.5,-111.5 733.5,-130.5 807.5,-130.5 807.5,-111.5 733.5,-111.5"/>
<text text-anchor="middle" x="770.5" y="-118.5" font-family="Helvetica,sans-Serif" font-size="10.00">Log::Warning</text>
</a>
</g>
</g>
<!-- Node9&#45;&gt;Node10 -->
<g id="edge10" class="edge"><title>Node9&#45;&gt;Node10</title>
<path fill="none" stroke="midnightblue" d="M406.964,-182.911C425.899,-169.843 455.366,-151.709 484,-143 565.49,-118.215 665.787,-116.752 723.214,-118.495"/>
<polygon fill="midnightblue" stroke="midnightblue" points="723.307,-122 733.424,-118.852 723.552,-115.004 723.307,-122"/>
</g>
<!-- Node12 -->
<g id="node12" class="node"><title>Node12</title>
<g id="a_node12"><a xlink:href="../../d0/def/class_vis.html#ace5cf06e96e881f9d2720c0a4b5d64db" target="_top" xlink:title=" ">
<polygon fill="white" stroke="black" points="512.5,-439.5 512.5,-458.5 620.5,-458.5 620.5,-439.5 512.5,-439.5"/>
<text text-anchor="middle" x="566.5" y="-446.5" font-family="Helvetica,sans-Serif" font-size="10.00">Vis::SortVerticesByX</text>
</a>
</g>
</g>
<!-- Node11&#45;&gt;Node12 -->
<g id="edge12" class="edge"><title>Node11&#45;&gt;Node12</title>
<path fill="none" stroke="midnightblue" d="M443.629,-449C462.275,-449 483.089,-449 502.164,-449"/>
<polygon fill="midnightblue" stroke="midnightblue" points="502.257,-452.5 512.257,-449 502.257,-445.5 502.257,-452.5"/>
</g>
<!-- Node13 -->
<g id="node13" class="node"><title>Node13</title>
<g id="a_node13"><a xlink:href="../../d0/def/class_vis.html#a25ef6f206dd8423a8304eecca4800532" target="_top" xlink:title=" ">
<polygon fill="white" stroke="black" points="511.5,-477.5 511.5,-496.5 621.5,-496.5 621.5,-477.5 511.5,-477.5"/>
<text text-anchor="middle" x="566.5" y="-484.5" font-family="Helvetica,sans-Serif" font-size="10.00">Vis::SortVerticesByY</text>
</a>
</g>
</g>
<!-- Node11&#45;&gt;Node13 -->
<g id="edge13" class="edge"><title>Node11&#45;&gt;Node13</title>
<path fill="none" stroke="midnightblue" d="M431.669,-458.589C455.716,-463.694 485.474,-470.011 510.819,-475.392"/>
<polygon fill="midnightblue" stroke="midnightblue" points="510.147,-478.827 520.656,-477.48 511.6,-471.98 510.147,-478.827"/>
</g>
<!-- Node15 -->
<g id="node15" class="node"><title>Node15</title>
<g id="a_node15"><a xlink:href="../../d0/def/class_vis.html#a8bf4d88639d359d6925eb3c9ee8d3e8a" target="_top" xlink:title=" ">
<polygon fill="white" stroke="black" points="504.5,-275.5 504.5,-294.5 628.5,-294.5 628.5,-275.5 504.5,-275.5"/>
<text text-anchor="middle" x="566.5" y="-282.5" font-family="Helvetica,sans-Serif" font-size="10.00">Vis::Intersect_Ray_Face</text>
</a>
</g>
</g>
<!-- Node14&#45;&gt;Node15 -->
<g id="edge15" class="edge"><title>Node14&#45;&gt;Node15</title>
<path fill="none" stroke="midnightblue" d="M440.692,-258.504C462.821,-263.202 488.381,-268.628 510.585,-273.342"/>
<polygon fill="midnightblue" stroke="midnightblue" points="510.017,-276.799 520.526,-275.452 511.471,-269.952 510.017,-276.799"/>
</g>
<!-- Node14&#45;&gt;Node23 -->
<g id="edge23" class="edge"><title>Node14&#45;&gt;Node23</title>
<path fill="none" stroke="midnightblue" d="M429.592,-231.979C435.972,-229.052 442.307,-225.719 448,-222 466.682,-209.795 464.797,-198.367 484,-187 492.318,-182.076 501.697,-178.037 511.053,-174.753"/>
<polygon fill="midnightblue" stroke="midnightblue" points="512.324,-178.02 520.75,-171.597 510.158,-171.363 512.324,-178.02"/>
</g>
<!-- Node25 -->
<g id="node25" class="node"><title>Node25</title>
<g id="a_node25"><a xlink:href="../../d9/de5/struct_indoor_camera_d3_d.html#ae05240c16f6b9c546984fff706e9ef24" target="_top" xlink:title=" ">
<polygon fill="white" stroke="black" points="498.5,-196.5 498.5,-215.5 634.5,-215.5 634.5,-196.5 498.5,-196.5"/>
<text text-anchor="middle" x="566.5" y="-203.5" font-family="Helvetica,sans-Serif" font-size="10.00">IndoorCameraD3D::IsCulled</text>
</a>
</g>
</g>
<!-- Node14&#45;&gt;Node25 -->
<g id="edge26" class="edge"><title>Node14&#45;&gt;Node25</title>
<path fill="none" stroke="midnightblue" d="M440.692,-234.587C463.997,-229.249 491.106,-223.04 514.093,-217.775"/>
<polygon fill="midnightblue" stroke="midnightblue" points="515.035,-221.15 524.001,-215.505 513.472,-214.326 515.035,-221.15"/>
</g>
<!-- Node27 -->
<g id="node27" class="node"><title>Node27</title>
<g id="a_node27"><a xlink:href="../../d9/de5/struct_indoor_camera_d3_d.html#a819c840787fde1b667c5477bafb21a62" target="_top" xlink:title=" ">
<polygon fill="white" stroke="black" points="484,-237.5 484,-256.5 649,-256.5 649,-237.5 484,-237.5"/>
<text text-anchor="middle" x="566.5" y="-244.5" font-family="Helvetica,sans-Serif" font-size="10.00">IndoorCameraD3D::ViewTransform</text>
</a>
</g>
</g>
<!-- Node14&#45;&gt;Node27 -->
<g id="edge29" class="edge"><title>Node14&#45;&gt;Node27</title>
<path fill="none" stroke="midnightblue" d="M440.692,-247C451.091,-247 462.248,-247 473.457,-247"/>
<polygon fill="midnightblue" stroke="midnightblue" points="473.747,-250.5 483.747,-247 473.747,-243.5 473.747,-250.5"/>
</g>
<!-- Node16 -->
<g id="node16" class="node"><title>Node16</title>
<g id="a_node16"><a xlink:href="../../d0/def/class_vis.html#a9dfa58c3c4c1a6cb597d11e174dbe138" target="_top" xlink:title=" ">
<polygon fill="white" stroke="black" points="703,-313.5 703,-332.5 838,-332.5 838,-313.5 703,-313.5"/>
<text text-anchor="middle" x="770.5" y="-320.5" font-family="Helvetica,sans-Serif" font-size="10.00">Vis::CheckIntersectBModel</text>
</a>
</g>
</g>
<!-- Node15&#45;&gt;Node16 -->
<g id="edge16" class="edge"><title>Node15&#45;&gt;Node16</title>
<path fill="none" stroke="midnightblue" d="M618.212,-294.54C645.707,-299.712 679.876,-306.14 708.782,-311.578"/>
<polygon fill="midnightblue" stroke="midnightblue" points="708.292,-315.047 718.767,-313.456 709.586,-308.168 708.292,-315.047"/>
</g>
<!-- Node21 -->
<g id="node21" class="node"><title>Node21</title>
<g id="a_node21"><a xlink:href="../../d9/ded/struct_b_l_v_face.html#aa4153fa3c2f23af1deb82914497d35e9" target="_top" xlink:title=" ">
<polygon fill="white" stroke="black" points="722,-275.5 722,-294.5 819,-294.5 819,-275.5 722,-275.5"/>
<text text-anchor="middle" x="770.5" y="-282.5" font-family="Helvetica,sans-Serif" font-size="10.00">BLVFace::Invisible</text>
</a>
</g>
</g>
<!-- Node15&#45;&gt;Node21 -->
<g id="edge21" class="edge"><title>Node15&#45;&gt;Node21</title>
<path fill="none" stroke="midnightblue" d="M628.655,-285C655.001,-285 685.654,-285 711.624,-285"/>
<polygon fill="midnightblue" stroke="midnightblue" points="711.698,-288.5 721.698,-285 711.698,-281.5 711.698,-288.5"/>
</g>
<!-- Node22 -->
<g id="node22" class="node"><title>Node22</title>
<g id="a_node22"><a xlink:href="../../d9/ded/struct_b_l_v_face.html#a844dd21df457421f6e527684d67a35db" target="_top" xlink:title=" ">
<polygon fill="white" stroke="black" points="913,-193.5 913,-212.5 1002,-212.5 1002,-193.5 913,-193.5"/>
<text text-anchor="middle" x="957.5" y="-200.5" font-family="Helvetica,sans-Serif" font-size="10.00">BLVFace::Portal</text>
</a>
</g>
</g>
<!-- Node15&#45;&gt;Node22 -->
<g id="edge22" class="edge"><title>Node15&#45;&gt;Node22</title>
<path fill="none" stroke="midnightblue" d="M617.649,-275.486C675.289,-264.42 772.671,-245.32 856,-227 872.975,-223.268 891.497,-218.923 907.964,-214.964"/>
<polygon fill="midnightblue" stroke="midnightblue" points="909.021,-218.309 917.918,-212.557 907.376,-211.505 909.021,-218.309"/>
</g>
<!-- Node17 -->
<g id="node17" class="node"><title>Node17</title>
<g id="a_node17"><a xlink:href="../../d0/def/class_vis.html#a48c1670f37f2e4930cafde40afdebe32" target="_top" xlink:title=" ">
<polygon fill="white" stroke="black" points="894,-270 894,-300 1021,-300 1021,-270 894,-270"/>
<text text-anchor="start" x="902" y="-288" font-family="Helvetica,sans-Serif" font-size="10.00">Vis::BLV_CreateIntersect</text>
<text text-anchor="middle" x="957.5" y="-277" font-family="Helvetica,sans-Serif" font-size="10.00">FacesVertexCoordList</text>
</a>
</g>
</g>
<!-- Node16&#45;&gt;Node17 -->
<g id="edge17" class="edge"><title>Node16&#45;&gt;Node17</title>
<path fill="none" stroke="midnightblue" d="M818.183,-313.411C838.048,-309.331 861.683,-304.476 883.747,-299.944"/>
<polygon fill="midnightblue" stroke="midnightblue" points="884.663,-303.329 893.755,-297.888 883.255,-296.472 884.663,-303.329"/>
</g>
<!-- Node18 -->
<g id="node18" class="node"><title>Node18</title>
<g id="a_node18"><a xlink:href="../../de/db6/_our_math_8cpp.html#a26d802a4465483f7c2f89657b75c9ebe" target="_top" xlink:title=" ">
<polygon fill="white" stroke="black" points="925.5,-231.5 925.5,-250.5 989.5,-250.5 989.5,-231.5 925.5,-231.5"/>
<text text-anchor="middle" x="957.5" y="-238.5" font-family="Helvetica,sans-Serif" font-size="10.00">fixpoint_div</text>
</a>
</g>
</g>
<!-- Node16&#45;&gt;Node18 -->
<g id="edge18" class="edge"><title>Node16&#45;&gt;Node18</title>
<path fill="none" stroke="midnightblue" d="M835.601,-313.414C842.766,-310.956 849.731,-307.871 856,-304 877.499,-290.726 870.945,-273.969 892,-260 899.054,-255.32 907.287,-251.767 915.465,-249.078"/>
<polygon fill="midnightblue" stroke="midnightblue" points="916.706,-252.362 925.331,-246.208 914.751,-245.64 916.706,-252.362"/>
</g>
<!-- Node19 -->
<g id="node19" class="node"><title>Node19</title>
<g id="a_node19"><a xlink:href="../../de/db6/_our_math_8cpp.html#abc4811d26f9864e00046c39c39d65680" target="_top" xlink:title=" ">
<polygon fill="white" stroke="black" points="923.5,-368.5 923.5,-387.5 991.5,-387.5 991.5,-368.5 923.5,-368.5"/>
<text text-anchor="middle" x="957.5" y="-375.5" font-family="Helvetica,sans-Serif" font-size="10.00">fixpoint_mul</text>
</a>
</g>
</g>
<!-- Node16&#45;&gt;Node19 -->
<g id="edge19" class="edge"><title>Node16&#45;&gt;Node19</title>
<path fill="none" stroke="midnightblue" d="M805.676,-332.518C821.076,-336.856 839.477,-342.106 856,-347 862.028,-348.785 890.655,-357.621 915.822,-365.405"/>
<polygon fill="midnightblue" stroke="midnightblue" points="915.013,-368.819 925.601,-368.431 917.082,-362.131 915.013,-368.819"/>
</g>
<!-- Node20 -->
<g id="node20" class="node"><title>Node20</title>
<g id="a_node20"><a xlink:href="../../d0/def/class_vis.html#a5f83bab17764d31ea2c12a1f925acec7" target="_top" xlink:title=" ">
<polygon fill="white" stroke="black" points="892,-319 892,-349 1023,-349 1023,-319 892,-319"/>
<text text-anchor="start" x="900" y="-337" font-family="Helvetica,sans-Serif" font-size="10.00">Vis::ODM_CreateIntersect</text>
<text text-anchor="middle" x="957.5" y="-326" font-family="Helvetica,sans-Serif" font-size="10.00">FacesVertexCoordList</text>
</a>
</g>
</g>
<!-- Node16&#45;&gt;Node20 -->
<g id="edge20" class="edge"><title>Node16&#45;&gt;Node20</title>
<path fill="none" stroke="midnightblue" d="M838.028,-326.956C852.115,-327.793 867.077,-328.683 881.455,-329.538"/>
<polygon fill="midnightblue" stroke="midnightblue" points="881.61,-333.053 891.801,-330.153 882.026,-326.066 881.61,-333.053"/>
</g>
<!-- Node23&#45;&gt;Node10 -->
<g id="edge25" class="edge"><title>Node23&#45;&gt;Node10</title>
<path fill="none" stroke="midnightblue" d="M614.351,-152.491C647.057,-145.852 690.52,-137.031 723.123,-130.413"/>
<polygon fill="midnightblue" stroke="midnightblue" points="724.195,-133.767 733.299,-128.348 722.803,-126.907 724.195,-133.767"/>
</g>
<!-- Node24 -->
<g id="node24" class="node"><title>Node24</title>
<g id="a_node24"><a xlink:href="../../d3/df5/struct_monster_stats.html#af740f33299fb75dc1dafe63bf58ef858" target="_top" xlink:title=" ">
<polygon fill="white" stroke="black" points="685,-149.5 685,-168.5 856,-168.5 856,-149.5 685,-149.5"/>
<text text-anchor="middle" x="770.5" y="-156.5" font-family="Helvetica,sans-Serif" font-size="10.00">MonsterStats::BelongsToSupertype</text>
</a>
</g>
</g>
<!-- Node23&#45;&gt;Node24 -->
<g id="edge24" class="edge"><title>Node23&#45;&gt;Node24</title>
<path fill="none" stroke="midnightblue" d="M628.107,-161.1C642.692,-160.883 658.623,-160.647 674.364,-160.413"/>
<polygon fill="midnightblue" stroke="midnightblue" points="674.717,-163.908 684.664,-160.26 674.613,-156.909 674.717,-163.908"/>
</g>
<!-- Node26 -->
<g id="node26" class="node"><title>Node26</title>
<g id="a_node26"><a xlink:href="../../d9/de5/struct_indoor_camera_d3_d.html#a1face139f0fdf27b7a9d9c1e0cbd210d" target="_top" xlink:title=" ">
<polygon fill="white" stroke="black" points="711,-188 711,-218 830,-218 830,-188 711,-188"/>
<text text-anchor="start" x="719" y="-206" font-family="Helvetica,sans-Serif" font-size="10.00">IndoorCameraD3D::is</text>
<text text-anchor="middle" x="770.5" y="-195" font-family="Helvetica,sans-Serif" font-size="10.00">_face_faced_to_camera</text>
</a>
</g>
</g>
<!-- Node25&#45;&gt;Node26 -->
<g id="edge27" class="edge"><title>Node25&#45;&gt;Node26</title>
<path fill="none" stroke="midnightblue" d="M634.763,-205.001C655.969,-204.686 679.416,-204.338 700.725,-204.021"/>
<polygon fill="midnightblue" stroke="midnightblue" points="701.048,-207.517 710.995,-203.869 700.944,-200.518 701.048,-207.517"/>
</g>
<!-- Node26&#45;&gt;Node22 -->
<g id="edge28" class="edge"><title>Node26&#45;&gt;Node22</title>
<path fill="none" stroke="midnightblue" d="M830.035,-203C853.26,-203 879.803,-203 902.555,-203"/>
<polygon fill="midnightblue" stroke="midnightblue" points="902.716,-206.5 912.716,-203 902.716,-199.5 902.716,-206.5"/>
</g>
<!-- Node28&#45;&gt;Node2 -->
<g id="edge31" class="edge"><title>Node28&#45;&gt;Node2</title>
<path fill="none" stroke="midnightblue" d="M433.034,-311.095C438.386,-313.911 443.521,-317.193 448,-321 471.405,-340.895 459.738,-361.159 484,-380 491.049,-385.474 499.3,-389.757 507.795,-393.105"/>
<polygon fill="midnightblue" stroke="midnightblue" points="506.844,-396.481 517.438,-396.502 509.169,-389.878 506.844,-396.481"/>
</g>
<!-- Node28&#45;&gt;Node15 -->
<g id="edge33" class="edge"><title>Node28&#45;&gt;Node15</title>
<path fill="none" stroke="midnightblue" d="M444.616,-292.429C460.425,-291.457 477.729,-290.394 494.178,-289.383"/>
<polygon fill="midnightblue" stroke="midnightblue" points="494.522,-292.868 504.289,-288.762 494.093,-285.882 494.522,-292.868"/>
</g>
<!-- Node28&#45;&gt;Node23 -->
<g id="edge34" class="edge"><title>Node28&#45;&gt;Node23</title>
<path fill="none" stroke="midnightblue" d="M434.505,-280.981C439.422,-278.176 444.052,-274.875 448,-271 476.989,-242.55 453.781,-214.14 484,-187 489.105,-182.415 495.033,-178.671 501.32,-175.614"/>
<polygon fill="midnightblue" stroke="midnightblue" points="502.902,-178.744 510.733,-171.608 500.161,-172.304 502.902,-178.744"/>
</g>
<!-- Node28&#45;&gt;Node27 -->
<g id="edge41" class="edge"><title>Node28&#45;&gt;Node27</title>
<path fill="none" stroke="midnightblue" d="M432.927,-280.994C449.029,-275.982 467.244,-270.525 484,-266 493.161,-263.526 502.952,-261.078 512.456,-258.803"/>
<polygon fill="midnightblue" stroke="midnightblue" points="513.287,-262.203 522.217,-256.501 511.681,-255.39 513.287,-262.203"/>
</g>
<!-- Node29 -->
<g id="node29" class="node"><title>Node29</title>
<g id="a_node29"><a xlink:href="../../d9/ded/struct_b_l_v_face.html#ae4ff9cc8b3facb6b57845e28ca725468" target="_top" xlink:title=" ">
<polygon fill="white" stroke="black" points="512.5,-351.5 512.5,-370.5 620.5,-370.5 620.5,-351.5 512.5,-351.5"/>
<text text-anchor="middle" x="566.5" y="-358.5" font-family="Helvetica,sans-Serif" font-size="10.00">BLVFace::FromODM</text>
</a>
</g>
</g>
<!-- Node28&#45;&gt;Node29 -->
<g id="edge32" class="edge"><title>Node28&#45;&gt;Node29</title>
<path fill="none" stroke="midnightblue" d="M425.909,-311.049C433.331,-314.156 440.967,-317.541 448,-321 464.622,-329.175 466.788,-335.154 484,-342 490.349,-344.525 497.116,-346.764 503.933,-348.736"/>
<polygon fill="midnightblue" stroke="midnightblue" points="503.347,-352.203 513.914,-351.437 505.176,-345.447 503.347,-352.203"/>
</g>
<!-- Node30 -->
<g id="node30" class="node"><title>Node30</title>
<g id="a_node30"><a xlink:href="../../d2/dc7/_render_8cpp.html#a3d3bec0d1bb72234c6bacb63367b7c63" target="_top" xlink:title=" ">
<polygon fill="white" stroke="black" points="523.5,-313.5 523.5,-332.5 609.5,-332.5 609.5,-313.5 523.5,-313.5"/>
<text text-anchor="middle" x="566.5" y="-320.5" font-family="Helvetica,sans-Serif" font-size="10.00">IsBModelVisible</text>
</a>
</g>
</g>
<!-- Node28&#45;&gt;Node30 -->
<g id="edge35" class="edge"><title>Node28&#45;&gt;Node30</title>
<path fill="none" stroke="midnightblue" d="M444.616,-304.766C466.736,-308.103 491.784,-311.881 513.321,-315.129"/>
<polygon fill="midnightblue" stroke="midnightblue" points="512.853,-318.598 523.263,-316.629 513.897,-311.677 512.853,-318.598"/>
</g>
<!-- Node30&#45;&gt;Node19 -->
<g id="edge37" class="edge"><title>Node30&#45;&gt;Node19</title>
<path fill="none" stroke="midnightblue" d="M609.602,-330.106C631.975,-333.807 659.956,-338.316 685,-342 765.485,-353.841 859.66,-365.935 913.275,-372.654"/>
<polygon fill="midnightblue" stroke="midnightblue" points="913.084,-376.158 923.441,-373.925 913.952,-369.212 913.084,-376.158"/>
</g>
<!-- Node31 -->
<g id="node31" class="node"><title>Node31</title>
<g id="a_node31"><a xlink:href="../../d6/d38/structstru193__math.html#a7a4a47e93ff200721e19681b71783c51" target="_top" xlink:title=" ">
<polygon fill="white" stroke="black" points="908,-446.5 908,-465.5 1007,-465.5 1007,-446.5 908,-446.5"/>
<text text-anchor="middle" x="957.5" y="-453.5" font-family="Helvetica,sans-Serif" font-size="10.00">stru193_math::Cos</text>
</a>
</g>
</g>
<!-- Node30&#45;&gt;Node31 -->
<g id="edge36" class="edge"><title>Node30&#45;&gt;Node31</title>
<path fill="none" stroke="midnightblue" d="M609.649,-325.564C623.377,-328.182 637.917,-333.061 649,-342 678.092,-365.465 654.882,-395.868 685,-418 717.786,-442.093 827.88,-450.954 897.395,-454.182"/>
<polygon fill="midnightblue" stroke="midnightblue" points="897.62,-457.695 907.763,-454.636 897.926,-450.702 897.62,-457.695"/>
</g>
<!-- Node32 -->
<g id="node32" class="node"><title>Node32</title>
<g id="a_node32"><a xlink:href="../../d5/d2e/_vector_types_8cpp.html#a5eb2b4017143261b8e3f12f6c796a11c" target="_top" xlink:title=" ">
<polygon fill="white" stroke="black" points="716.5,-389.5 716.5,-408.5 824.5,-408.5 824.5,-389.5 716.5,-389.5"/>
<text text-anchor="middle" x="770.5" y="-396.5" font-family="Helvetica,sans-Serif" font-size="10.00">int_get_vector_length</text>
</a>
</g>
</g>
<!-- Node30&#45;&gt;Node32 -->
<g id="edge38" class="edge"><title>Node30&#45;&gt;Node32</title>
<path fill="none" stroke="midnightblue" d="M609.593,-328.54C622.724,-331.373 636.921,-335.627 649,-342 668.197,-352.129 666.05,-364.417 685,-375 693.116,-379.533 702.157,-383.267 711.223,-386.327"/>
<polygon fill="midnightblue" stroke="midnightblue" points="710.439,-389.749 721.028,-389.388 712.526,-383.067 710.439,-389.749"/>
</g>
<!-- Node33 -->
<g id="node33" class="node"><title>Node33</title>
<g id="a_node33"><a xlink:href="../../d6/d38/structstru193__math.html#a9bd57620c86e36d03d93f2306f8ab80a" target="_top" xlink:title=" ">
<polygon fill="white" stroke="black" points="722.5,-465.5 722.5,-484.5 818.5,-484.5 818.5,-465.5 722.5,-465.5"/>
<text text-anchor="middle" x="770.5" y="-472.5" font-family="Helvetica,sans-Serif" font-size="10.00">stru193_math::Sin</text>
</a>
</g>
</g>
<!-- Node30&#45;&gt;Node33 -->
<g id="edge39" class="edge"><title>Node30&#45;&gt;Node33</title>
<path fill="none" stroke="midnightblue" d="M609.881,-324.725C623.788,-327.257 638.382,-332.297 649,-342 686.661,-376.417 648.17,-415.695 685,-451 692.675,-458.358 702.437,-463.488 712.58,-467.058"/>
<polygon fill="midnightblue" stroke="midnightblue" points="711.78,-470.473 722.366,-470.025 713.811,-463.774 711.78,-470.473"/>
</g>
<!-- Node33&#45;&gt;Node31 -->
<g id="edge40" class="edge"><title>Node33&#45;&gt;Node31</title>
<path fill="none" stroke="midnightblue" d="M818.662,-470.156C842.655,-467.692 872.054,-464.673 897.529,-462.056"/>
<polygon fill="midnightblue" stroke="midnightblue" points="898.221,-465.504 907.811,-461 897.506,-458.541 898.221,-465.504"/>
</g>
</g>
</svg>
        <g id="navigator" transform="translate(0 0)" fill="#404254">
                <rect fill="#f2f5e9" fill-opacity="0.5" stroke="#606060" stroke-width=".5" x="0" y="0" width="60" height="60"/>
                <use id="zoomplus" xlink:href="#zoomPlus" x="17" y="9" onmousedown="handleZoom(evt,'in')"/>
                <use id="zoomminus" xlink:href="#zoomMin" x="42" y="9" onmousedown="handleZoom(evt,'out')"/>
                <use id="reset" xlink:href="#resetDef" x="30" y="36" onmousedown="handleReset()"/>
                <g id="arrowUp" xlink:href="#dirArrow" transform="translate(30 24)" onmousedown="handlePan(0,-1)">
                  <use xlink:href="#rim" fill="#404040">
                        <set attributeName="fill" to="#808080" begin="arrowUp.mouseover" end="arrowUp.mouseout"/>
                  </use>
                  <path fill="none" stroke="white" stroke-width="1.5" d="M0,-3.0v7 M-2.5,-0.5L0,-3.0L2.5,-0.5"/>
                </g>
                <g id="arrowRight" xlink:href="#dirArrow" transform="rotate(90) translate(36 -43)" onmousedown="handlePan(1,0)">
                  <use xlink:href="#rim" fill="#404040">
                        <set attributeName="fill" to="#808080" begin="arrowRight.mouseover" end="arrowRight.mouseout"/>
                  </use>
                  <path fill="none" stroke="white" stroke-width="1.5" d="M0,-3.0v7 M-2.5,-0.5L0,-3.0L2.5,-0.5"/>
                </g>
                <g id="arrowDown" xlink:href="#dirArrow" transform="rotate(180) translate(-30 -48)" onmousedown="handlePan(0,1)">
                  <use xlink:href="#rim" fill="#404040">
                        <set attributeName="fill" to="#808080" begin="arrowDown.mouseover" end="arrowDown.mouseout"/>
                  </use>
                  <path fill="none" stroke="white" stroke-width="1.5" d="M0,-3.0v7 M-2.5,-0.5L0,-3.0L2.5,-0.5"/>
                </g>
                <g id="arrowLeft" xlink:href="#dirArrow" transform="rotate(270) translate(-36 17)" onmousedown="handlePan(-1,0)">
                  <use xlink:href="#rim" fill="#404040">
                        <set attributeName="fill" to="#808080" begin="arrowLeft.mouseover" end="arrowLeft.mouseout"/>
                  </use>
                  <path fill="none" stroke="white" stroke-width="1.5" d="M0,-3.0v7 M-2.5,-0.5L0,-3.0L2.5,-0.5"/>
                </g>
        </g>
        <svg viewBox="0 0 15 15" width="100%" height="30px" preserveAspectRatio="xMaxYMin meet">
         <g id="arrow_out" transform="scale(0.3 0.3)">
          <a xlink:href="class_vis_a0be64465d62f710858d956b0091d4bcf_cgraph_org.svg" target="_base">
           <rect id="button" ry="5" rx="5" y="6" x="6" height="38" width="38"
                fill="#f2f5e9" fill-opacity="0.5" stroke="#606060" stroke-width="1.0"/>
           <path id="arrow"
             d="M 11.500037,31.436501 C 11.940474,20.09759 22.043105,11.32322 32.158766,21.979434 L 37.068811,17.246167 C 37.068811,17.246167 37.088388,32 37.088388,32 L 22.160133,31.978069 C 22.160133,31.978069 26.997745,27.140456 26.997745,27.140456 C 18.528582,18.264221 13.291696,25.230495 11.500037,31.436501 z"
             style="fill:#404040;"/>
          </a>
         </g>
        </svg>
</svg>
