<?xml version="1.0" encoding="UTF-8" standalone="no"?>
<!DOCTYPE svg PUBLIC "-//W3C//DTD SVG 1.1//EN"
 "http://www.w3.org/Graphics/SVG/1.1/DTD/svg11.dtd">
<!-- Generated by graphviz version 2.38.0 (20140413.2041)
 -->
<!-- Title: Vis::PickOutdoorFaces_Keyboard Pages: 1 -->
<!--zoomable 663 -->
<svg id="main" version="1.1" xmlns="http://www.w3.org/2000/svg" xmlns:xlink="http://www.w3.org/1999/xlink" xml:space="preserve" onload="init(evt)">
<style type="text/css"><![CDATA[
.edge:hover path { stroke: red; }
.edge:hover polygon { stroke: red; fill: red; }
]]></style>
<script type="text/javascript"><![CDATA[
var edges = document.getElementsByTagName('g');
if (edges && edges.length) {
  for (var i=0;i<edges.length;i++) {
    if (edges[i].id.substr(0,4)=='edge') {
      edges[i].setAttribute('class','edge');
    }
  }
}
]]></script>
        <defs>
                <circle id="rim" cx="0" cy="0" r="7"/>
                <circle id="rim2" cx="0" cy="0" r="3.5"/>
                <g id="zoomPlus">
                        <use xlink:href="#rim" fill="#404040">
                                <set attributeName="fill" to="#808080" begin="zoomplus.mouseover" end="zoomplus.mouseout"/>
                        </use>
                        <path d="M-4,0h8M0,-4v8" fill="none" stroke="white" stroke-width="1.5" pointer-events="none"/>
                </g>
                <g id="zoomMin">
                        <use xlink:href="#rim" fill="#404040">
                                <set attributeName="fill" to="#808080" begin="zoomminus.mouseover" end="zoomminus.mouseout"/>
                        </use>
                        <path d="M-4,0h8" fill="none" stroke="white" stroke-width="1.5" pointer-events="none"/>
                </g>
                <g id="dirArrow">
                        <path fill="none" stroke="white" stroke-width="1.5" d="M0,-3.0v7 M-2.5,-0.5L0,-3.0L2.5,-0.5"/>
                </g>
               <g id="resetDef">
                       <use xlink:href="#rim2" fill="#404040">
                               <set attributeName="fill" to="#808080" begin="reset.mouseover" end="reset.mouseout"/>
                       </use>
               </g>
        </defs>

<script type="text/javascript">
var viewWidth = 1075;
var viewHeight = 663;
var sectionId = 'dynsection-8';
</script>
<script xlink:href="../../svgpan.js"/>
<svg id="graph" class="graph">
<g id="viewport">
<title>Vis::PickOutdoorFaces_Keyboard</title>
<polygon fill="white" stroke="none" points="-4,4 -4,-658.542 1071,-658.542 1071,4 -4,4"/>
<!-- Node1 -->
<g id="node1" class="node"><title>Node1</title>
<g id="a_node1"><a xlink:title=" ">
<polygon fill="#bfbfbf" stroke="black" points="0,-567 0,-597 118,-597 118,-567 0,-567"/>
<text text-anchor="start" x="8" y="-585" font-family="Helvetica,sans-Serif" font-size="10.00">Vis::PickOutdoorFaces</text>
<text text-anchor="middle" x="59" y="-574" font-family="Helvetica,sans-Serif" font-size="10.00">_Keyboard</text>
</a>
</g>
</g>
<!-- Node2 -->
<g id="node2" class="node"><title>Node2</title>
<g id="a_node2"><a xlink:href="../../de/d0c/struct_vis___selection_list.html#a98a278dcbeb54ceca2c997f2dc7ea580" target="_top" xlink:title=" ">
<polygon fill="white" stroke="black" points="561.5,-610 561.5,-640 659.5,-640 659.5,-610 561.5,-610"/>
<text text-anchor="start" x="569.5" y="-628" font-family="Helvetica,sans-Serif" font-size="10.00">Vis_SelectionList::</text>
<text text-anchor="middle" x="610.5" y="-617" font-family="Helvetica,sans-Serif" font-size="10.00">AddObject</text>
</a>
</g>
</g>
<!-- Node1&#45;&gt;Node2 -->
<g id="edge1" class="edge"><title>Node1&#45;&gt;Node2</title>
<path fill="none" stroke="midnightblue" d="M79.9879,-597.016C98.1913,-609.686 126.371,-626.867 154,-634 292.863,-669.849 463.526,-650.401 551.28,-636.003"/>
<polygon fill="midnightblue" stroke="midnightblue" points="552.023,-639.427 561.306,-634.32 550.865,-632.524 552.023,-639.427"/>
</g>
<!-- Node3 -->
<g id="node3" class="node"><title>Node3</title>
<g id="a_node3"><a xlink:href="../../d0/def/class_vis.html#af753604050dd8c033105bf7899ddf09a" target="_top" xlink:title=" ">
<polygon fill="white" stroke="black" points="154,-329.5 154,-348.5 310,-348.5 310,-329.5 154,-329.5"/>
<text text-anchor="middle" x="232" y="-336.5" font-family="Helvetica,sans-Serif" font-size="10.00">Vis::DetermineFacetIntersection</text>
</a>
</g>
</g>
<!-- Node1&#45;&gt;Node3 -->
<g id="edge2" class="edge"><title>Node1&#45;&gt;Node3</title>
<path fill="none" stroke="midnightblue" d="M70.6968,-566.799C100.795,-524.028 186.115,-402.784 218.406,-356.896"/>
<polygon fill="midnightblue" stroke="midnightblue" points="221.397,-358.728 224.29,-348.535 215.673,-354.699 221.397,-358.728"/>
</g>
<!-- Node25 -->
<g id="node25" class="node"><title>Node25</title>
<g id="a_node25"><a xlink:href="../../d0/def/class_vis.html#ae343e0a8b4ada6a717b217b15fc975ea" target="_top" xlink:title=" ">
<polygon fill="white" stroke="black" points="549,-386.5 549,-405.5 672,-405.5 672,-386.5 549,-386.5"/>
<text text-anchor="middle" x="610.5" y="-393.5" font-family="Helvetica,sans-Serif" font-size="10.00">Vis::is_part_of_selection</text>
</a>
</g>
</g>
<!-- Node1&#45;&gt;Node25 -->
<g id="edge50" class="edge"><title>Node1&#45;&gt;Node25</title>
<path fill="none" stroke="midnightblue" d="M118.107,-585.749C220.83,-591.354 429.56,-597.848 492,-563 516.865,-549.123 511.718,-533.362 528,-510 551.841,-475.791 580.289,-436.291 596.489,-413.918"/>
<polygon fill="midnightblue" stroke="midnightblue" points="599.408,-415.854 602.444,-405.704 593.74,-411.746 599.408,-415.854"/>
</g>
<!-- Node31 -->
<g id="node31" class="node"><title>Node31</title>
<g id="a_node31"><a xlink:href="../../d9/ded/struct_b_l_v_face.html#ae4ff9cc8b3facb6b57845e28ca725468" target="_top" xlink:title=" ">
<polygon fill="white" stroke="black" points="556.5,-228.5 556.5,-247.5 664.5,-247.5 664.5,-228.5 556.5,-228.5"/>
<text text-anchor="middle" x="610.5" y="-235.5" font-family="Helvetica,sans-Serif" font-size="10.00">BLVFace::FromODM</text>
</a>
</g>
</g>
<!-- Node1&#45;&gt;Node31 -->
<g id="edge49" class="edge"><title>Node1&#45;&gt;Node31</title>
<path fill="none" stroke="midnightblue" d="M61.4129,-566.945C66.2536,-523.325 85.8465,-395.192 154,-320 253.645,-210.064 446.537,-216.061 546.307,-227.942"/>
<polygon fill="midnightblue" stroke="midnightblue" points="545.893,-231.417 556.25,-229.182 546.76,-224.471 545.893,-231.417"/>
</g>
<!-- Node32 -->
<g id="node32" class="node"><title>Node32</title>
<g id="a_node32"><a xlink:href="../../d2/dc7/_render_8cpp.html#a3d3bec0d1bb72234c6bacb63367b7c63" target="_top" xlink:title=" ">
<polygon fill="white" stroke="black" points="567.5,-519.5 567.5,-538.5 653.5,-538.5 653.5,-519.5 567.5,-519.5"/>
<text text-anchor="middle" x="610.5" y="-526.5" font-family="Helvetica,sans-Serif" font-size="10.00">IsBModelVisible</text>
</a>
</g>
</g>
<!-- Node1&#45;&gt;Node32 -->
<g id="edge51" class="edge"><title>Node1&#45;&gt;Node32</title>
<path fill="none" stroke="midnightblue" d="M118.147,-594.314C202.242,-609.801 361.982,-630.464 492,-596 529.472,-586.067 567.478,-561.083 589.746,-544.59"/>
<polygon fill="midnightblue" stroke="midnightblue" points="591.89,-547.357 597.744,-538.526 587.661,-541.779 591.89,-547.357"/>
</g>
<!-- Node4 -->
<g id="node4" class="node"><title>Node4</title>
<g id="a_node4"><a xlink:href="../../d0/def/class_vis.html#ab8b15bdf51a2c5a6cdd7b1e18369f974" target="_top" xlink:title=" ">
<polygon fill="white" stroke="black" points="372,-146.5 372,-165.5 466,-165.5 466,-146.5 372,-146.5"/>
<text text-anchor="middle" x="419" y="-153.5" font-family="Helvetica,sans-Serif" font-size="10.00">Vis::CastPickRay</text>
</a>
</g>
</g>
<!-- Node3&#45;&gt;Node4 -->
<g id="edge3" class="edge"><title>Node3&#45;&gt;Node4</title>
<path fill="none" stroke="midnightblue" d="M241.452,-329.252C259.804,-308.246 304.955,-257.423 346,-218 363.006,-201.666 383.469,-184.242 398.226,-172.038"/>
<polygon fill="midnightblue" stroke="midnightblue" points="400.678,-174.554 406.187,-165.504 396.237,-169.144 400.678,-174.554"/>
</g>
<!-- Node9 -->
<g id="node9" class="node"><title>Node9</title>
<g id="a_node9"><a xlink:href="../../de/d0c/struct_vis___selection_list.html#add61fa6d164124008c5c8cdec8e6b637" target="_top" xlink:title=" ">
<polygon fill="white" stroke="black" points="361.5,-397 361.5,-427 476.5,-427 476.5,-397 361.5,-397"/>
<text text-anchor="start" x="369.5" y="-415" font-family="Helvetica,sans-Serif" font-size="10.00">Vis_SelectionList::</text>
<text text-anchor="middle" x="419" y="-404" font-family="Helvetica,sans-Serif" font-size="10.00">create_object_pointers</text>
</a>
</g>
</g>
<!-- Node3&#45;&gt;Node9 -->
<g id="edge9" class="edge"><title>Node3&#45;&gt;Node9</title>
<path fill="none" stroke="midnightblue" d="M254.486,-348.639C277.088,-358.657 313.781,-374.58 346,-387 351.753,-389.218 357.796,-391.456 363.835,-393.635"/>
<polygon fill="midnightblue" stroke="midnightblue" points="362.682,-396.939 373.276,-396.997 365.03,-390.345 362.682,-396.939"/>
</g>
<!-- Node11 -->
<g id="node11" class="node"><title>Node11</title>
<g id="a_node11"><a xlink:href="../../d0/def/class_vis.html#ae7954e70b4aa1f2e6fe2aea110b2282e" target="_top" xlink:title=" ">
<polygon fill="white" stroke="black" points="346,-71 346,-101 492,-101 492,-71 346,-71"/>
<text text-anchor="start" x="354" y="-89" font-family="Helvetica,sans-Serif" font-size="10.00">Vis::GetPolygonScreenSpace</text>
<text text-anchor="middle" x="419" y="-78" font-family="Helvetica,sans-Serif" font-size="10.00">Center</text>
</a>
</g>
</g>
<!-- Node3&#45;&gt;Node11 -->
<g id="edge11" class="edge"><title>Node3&#45;&gt;Node11</title>
<path fill="none" stroke="midnightblue" d="M236.65,-329.205C248.55,-298.222 288.777,-200.651 346,-137 356.401,-125.43 369.882,-115.014 382.361,-106.656"/>
<polygon fill="midnightblue" stroke="midnightblue" points="384.291,-109.577 390.791,-101.21 380.492,-103.697 384.291,-109.577"/>
</g>
<!-- Node14 -->
<g id="node14" class="node"><title>Node14</title>
<g id="a_node14"><a xlink:href="../../d0/def/class_vis.html#aa8f2eb865108c7215a0812d12b2c7916" target="_top" xlink:title=" ">
<polygon fill="white" stroke="black" points="352.5,-8 352.5,-38 485.5,-38 485.5,-8 352.5,-8"/>
<text text-anchor="start" x="360.5" y="-26" font-family="Helvetica,sans-Serif" font-size="10.00">Vis::IsPolygonOccludedBy</text>
<text text-anchor="middle" x="419" y="-15" font-family="Helvetica,sans-Serif" font-size="10.00">Billboard</text>
</a>
</g>
</g>
<!-- Node3&#45;&gt;Node14 -->
<g id="edge14" class="edge"><title>Node3&#45;&gt;Node14</title>
<path fill="none" stroke="midnightblue" d="M234.469,-329.358C240.787,-290.866 268.911,-146.172 346,-61 352.406,-53.9224 360.443,-47.9344 368.805,-42.9537"/>
<polygon fill="midnightblue" stroke="midnightblue" points="370.508,-46.0116 377.582,-38.1244 367.133,-39.8787 370.508,-46.0116"/>
</g>
<!-- Node16 -->
<g id="node16" class="node"><title>Node16</title>
<g id="a_node16"><a xlink:href="../../d0/def/class_vis.html#ad9141000db2ce36fd1675c317929b46b" target="_top" xlink:title=" ">
<polygon fill="white" stroke="black" points="364,-299 364,-329 474,-329 474,-299 364,-299"/>
<text text-anchor="start" x="372" y="-317" font-family="Helvetica,sans-Serif" font-size="10.00">Vis::PickIndoorFaces</text>
<text text-anchor="middle" x="419" y="-306" font-family="Helvetica,sans-Serif" font-size="10.00">_Mouse</text>
</a>
</g>
</g>
<!-- Node3&#45;&gt;Node16 -->
<g id="edge16" class="edge"><title>Node3&#45;&gt;Node16</title>
<path fill="none" stroke="midnightblue" d="M303.468,-329.477C320.042,-327.238 337.618,-324.862 353.895,-322.663"/>
<polygon fill="midnightblue" stroke="midnightblue" points="354.4,-326.126 363.841,-321.319 353.463,-319.19 354.4,-326.126"/>
</g>
<!-- Node29 -->
<g id="node29" class="node"><title>Node29</title>
<g id="a_node29"><a xlink:href="../../d9/de5/struct_indoor_camera_d3_d.html#a819c840787fde1b667c5477bafb21a62" target="_top" xlink:title=" ">
<polygon fill="white" stroke="black" points="528,-304.5 528,-323.5 693,-323.5 693,-304.5 528,-304.5"/>
<text text-anchor="middle" x="610.5" y="-311.5" font-family="Helvetica,sans-Serif" font-size="10.00">IndoorCameraD3D::ViewTransform</text>
</a>
</g>
</g>
<!-- Node3&#45;&gt;Node29 -->
<g id="edge48" class="edge"><title>Node3&#45;&gt;Node29</title>
<path fill="none" stroke="midnightblue" d="M241.116,-329.373C258.155,-310.005 299.907,-266.831 346,-251 407.37,-229.922 433.362,-223.213 492,-251 514.833,-261.82 506.553,-281.642 528,-295 531.44,-297.142 535.097,-299.043 538.884,-300.73"/>
<polygon fill="midnightblue" stroke="midnightblue" points="537.926,-304.114 548.514,-304.498 540.477,-297.595 537.926,-304.114"/>
</g>
<!-- Node30 -->
<g id="node30" class="node"><title>Node30</title>
<g id="a_node30"><a xlink:href="../../d0/def/class_vis.html#af1001095fa5d94588bc7b32a31587751" target="_top" xlink:title=" ">
<polygon fill="white" stroke="black" points="360,-348 360,-378 478,-378 478,-348 360,-348"/>
<text text-anchor="start" x="368" y="-366" font-family="Helvetica,sans-Serif" font-size="10.00">Vis::PickOutdoorFaces</text>
<text text-anchor="middle" x="419" y="-355" font-family="Helvetica,sans-Serif" font-size="10.00">_Mouse</text>
</a>
</g>
</g>
<!-- Node3&#45;&gt;Node30 -->
<g id="edge32" class="edge"><title>Node3&#45;&gt;Node30</title>
<path fill="none" stroke="midnightblue" d="M306.383,-348.52C320.67,-350.373 335.593,-352.309 349.708,-354.14"/>
<polygon fill="midnightblue" stroke="midnightblue" points="349.455,-357.637 359.822,-355.453 350.355,-350.695 349.455,-357.637"/>
</g>
<!-- Node36 -->
<g id="node36" class="node"><title>Node36</title>
<g id="a_node36"><a xlink:href="../../d9/de5/struct_indoor_camera_d3_d.html#a32190b521a23e986e5b0b13098e4b114" target="_top" xlink:title=" ">
<polygon fill="white" stroke="black" points="353,-534.5 353,-553.5 485,-553.5 485,-534.5 353,-534.5"/>
<text text-anchor="middle" x="419" y="-541.5" font-family="Helvetica,sans-Serif" font-size="10.00">IndoorCameraD3D::Project</text>
</a>
</g>
</g>
<!-- Node3&#45;&gt;Node36 -->
<g id="edge44" class="edge"><title>Node3&#45;&gt;Node36</title>
<path fill="none" stroke="midnightblue" d="M236.078,-348.817C246.281,-379.702 282.023,-475.696 346,-524 349.171,-526.394 352.613,-528.501 356.217,-530.357"/>
<polygon fill="midnightblue" stroke="midnightblue" points="354.886,-533.595 365.445,-534.468 357.735,-527.201 354.886,-533.595"/>
</g>
<!-- Node37 -->
<g id="node37" class="node"><title>Node37</title>
<g id="a_node37"><a xlink:href="../../de/d0c/struct_vis___selection_list.html#a2c08c5ed82599ad479d58ca2ff8bd146" target="_top" xlink:title=" ">
<polygon fill="white" stroke="black" points="370,-485 370,-515 468,-515 468,-485 370,-485"/>
<text text-anchor="start" x="378" y="-503" font-family="Helvetica,sans-Serif" font-size="10.00">Vis_SelectionList::</text>
<text text-anchor="middle" x="419" y="-492" font-family="Helvetica,sans-Serif" font-size="10.00">SelectionPointers</text>
</a>
</g>
</g>
<!-- Node3&#45;&gt;Node37 -->
<g id="edge45" class="edge"><title>Node3&#45;&gt;Node37</title>
<path fill="none" stroke="midnightblue" d="M238.508,-348.775C252.928,-373.511 294.27,-439.163 346,-475 350.487,-478.108 355.397,-480.864 360.478,-483.3"/>
<polygon fill="midnightblue" stroke="midnightblue" points="359.187,-486.555 369.753,-487.347 361.987,-480.14 359.187,-486.555"/>
</g>
<!-- Node38 -->
<g id="node38" class="node"><title>Node38</title>
<g id="a_node38"><a xlink:href="../../d0/def/class_vis.html#a2a559e751ca0e277d34f09efb1b157c8" target="_top" xlink:title=" ">
<polygon fill="white" stroke="black" points="356.5,-446.5 356.5,-465.5 481.5,-465.5 481.5,-446.5 356.5,-446.5"/>
<text text-anchor="middle" x="419" y="-453.5" font-family="Helvetica,sans-Serif" font-size="10.00">Vis::sort_object_pointers</text>
</a>
</g>
</g>
<!-- Node3&#45;&gt;Node38 -->
<g id="edge46" class="edge"><title>Node3&#45;&gt;Node38</title>
<path fill="none" stroke="midnightblue" d="M241.344,-348.556C258.804,-367.958 301.291,-412.144 346,-436 351.133,-438.739 356.677,-441.132 362.33,-443.216"/>
<polygon fill="midnightblue" stroke="midnightblue" points="361.3,-446.562 371.894,-446.439 363.536,-439.929 361.3,-446.562"/>
</g>
<!-- Node39 -->
<g id="node39" class="node"><title>Node39</title>
<g id="a_node39"><a xlink:href="../../d0/def/class_vis.html#a4fb1cca299c071eade4041f08c210865" target="_top" xlink:title=" ">
<polygon fill="white" stroke="black" points="369.5,-260.5 369.5,-279.5 468.5,-279.5 468.5,-260.5 369.5,-260.5"/>
<text text-anchor="middle" x="419" y="-267.5" font-family="Helvetica,sans-Serif" font-size="10.00">Vis::SortVectors_x</text>
</a>
</g>
</g>
<!-- Node3&#45;&gt;Node39 -->
<g id="edge47" class="edge"><title>Node3&#45;&gt;Node39</title>
<path fill="none" stroke="midnightblue" d="M252.218,-329.371C274.406,-318.521 312.193,-300.856 346,-289 352.877,-286.588 360.217,-284.317 367.483,-282.242"/>
<polygon fill="midnightblue" stroke="midnightblue" points="368.583,-285.569 377.293,-279.539 366.723,-278.821 368.583,-285.569"/>
</g>
<!-- Node5 -->
<g id="node5" class="node"><title>Node5</title>
<g id="a_node5"><a xlink:href="../../de/db6/_our_math_8cpp.html#a60e23493341fe2f31d154b9f2a14f1bd" target="_top" xlink:title=" ">
<polygon fill="white" stroke="black" points="563,-152.5 563,-171.5 658,-171.5 658,-152.5 563,-152.5"/>
<text text-anchor="middle" x="610.5" y="-159.5" font-family="Helvetica,sans-Serif" font-size="10.00">fixpoint_from_float</text>
</a>
</g>
</g>
<!-- Node4&#45;&gt;Node5 -->
<g id="edge4" class="edge"><title>Node4&#45;&gt;Node5</title>
<path fill="none" stroke="midnightblue" d="M466.357,-157.468C492.396,-158.292 525.1,-159.328 552.673,-160.201"/>
<polygon fill="midnightblue" stroke="midnightblue" points="552.859,-163.708 562.965,-160.527 553.081,-156.712 552.859,-163.708"/>
</g>
<!-- Node6 -->
<g id="node6" class="node"><title>Node6</title>
<g id="a_node6"><a xlink:href="../../de/dd4/_vis_8cpp.html#a4cb23e12d16fd52723821bd1bc5a5d5a" target="_top" xlink:title=" ">
<polygon fill="white" stroke="black" points="579,-114.5 579,-133.5 642,-133.5 642,-114.5 579,-114.5"/>
<text text-anchor="middle" x="610.5" y="-121.5" font-family="Helvetica,sans-Serif" font-size="10.00">UnprojectX</text>
</a>
</g>
</g>
<!-- Node4&#45;&gt;Node6 -->
<g id="edge5" class="edge"><title>Node4&#45;&gt;Node6</title>
<path fill="none" stroke="midnightblue" d="M466.357,-148.172C497.624,-142.892 538.502,-135.989 568.566,-130.912"/>
<polygon fill="midnightblue" stroke="midnightblue" points="569.438,-134.315 578.715,-129.198 568.272,-127.413 569.438,-134.315"/>
</g>
<!-- Node8 -->
<g id="node8" class="node"><title>Node8</title>
<g id="a_node8"><a xlink:href="../../de/dd4/_vis_8cpp.html#a71cda59bdbaef4739403550c80397f02" target="_top" xlink:title=" ">
<polygon fill="white" stroke="black" points="578,-190.5 578,-209.5 643,-209.5 643,-190.5 578,-190.5"/>
<text text-anchor="middle" x="610.5" y="-197.5" font-family="Helvetica,sans-Serif" font-size="10.00">UnprojectY</text>
</a>
</g>
</g>
<!-- Node4&#45;&gt;Node8 -->
<g id="edge7" class="edge"><title>Node4&#45;&gt;Node8</title>
<path fill="none" stroke="midnightblue" d="M461.119,-165.547C492.747,-172.891 536.263,-182.995 567.989,-190.362"/>
<polygon fill="midnightblue" stroke="midnightblue" points="567.313,-193.798 577.845,-192.65 568.896,-186.979 567.313,-193.798"/>
</g>
<!-- Node7 -->
<g id="node7" class="node"><title>Node7</title>
<g id="a_node7"><a xlink:href="../../d6/d38/structstru193__math.html#ae5c580a8915049b2fe00949acf3ca728" target="_top" xlink:title=" ">
<polygon fill="white" stroke="black" points="761,-149.5 761,-168.5 868,-168.5 868,-149.5 761,-149.5"/>
<text text-anchor="middle" x="814.5" y="-156.5" font-family="Helvetica,sans-Serif" font-size="10.00">stru193_math::Atan2</text>
</a>
</g>
</g>
<!-- Node6&#45;&gt;Node7 -->
<g id="edge6" class="edge"><title>Node6&#45;&gt;Node7</title>
<path fill="none" stroke="midnightblue" d="M642.179,-129.316C670.931,-134.298 714.777,-141.895 750.913,-148.156"/>
<polygon fill="midnightblue" stroke="midnightblue" points="750.431,-151.624 760.882,-149.883 751.627,-144.727 750.431,-151.624"/>
</g>
<!-- Node8&#45;&gt;Node7 -->
<g id="edge8" class="edge"><title>Node8&#45;&gt;Node7</title>
<path fill="none" stroke="midnightblue" d="M643.063,-193.594C673.287,-187.459 719.593,-178.06 756.313,-170.607"/>
<polygon fill="midnightblue" stroke="midnightblue" points="757.291,-173.98 766.395,-168.561 755.899,-167.12 757.291,-173.98"/>
</g>
<!-- Node10 -->
<g id="node10" class="node"><title>Node10</title>
<g id="a_node10"><a xlink:href="../../d6/d70/class_log.html#ac0de2621497ca3b2fbf208624c08bcdf" target="_top" xlink:title=" ">
<polygon fill="white" stroke="black" points="777.5,-424.5 777.5,-443.5 851.5,-443.5 851.5,-424.5 777.5,-424.5"/>
<text text-anchor="middle" x="814.5" y="-431.5" font-family="Helvetica,sans-Serif" font-size="10.00">Log::Warning</text>
</a>
</g>
</g>
<!-- Node9&#45;&gt;Node10 -->
<g id="edge10" class="edge"><title>Node9&#45;&gt;Node10</title>
<path fill="none" stroke="midnightblue" d="M476.798,-415.175C555.102,-419.553 694.725,-427.359 767.112,-431.407"/>
<polygon fill="midnightblue" stroke="midnightblue" points="767.109,-434.912 777.289,-431.975 767.5,-427.923 767.109,-434.912"/>
</g>
<!-- Node12 -->
<g id="node12" class="node"><title>Node12</title>
<g id="a_node12"><a xlink:href="../../d0/def/class_vis.html#a50886ca212a10a278c7b1cf5b9bd9315" target="_top" xlink:title=" ">
<polygon fill="white" stroke="black" points="545,-38.5 545,-57.5 676,-57.5 676,-38.5 545,-38.5"/>
<text text-anchor="middle" x="610.5" y="-45.5" font-family="Helvetica,sans-Serif" font-size="10.00">Vis::SortByScreenSpaceX</text>
</a>
</g>
</g>
<!-- Node11&#45;&gt;Node12 -->
<g id="edge12" class="edge"><title>Node11&#45;&gt;Node12</title>
<path fill="none" stroke="midnightblue" d="M492.182,-71.5254C511.954,-67.5607 533.117,-63.3169 551.95,-59.5405"/>
<polygon fill="midnightblue" stroke="midnightblue" points="552.739,-62.9518 561.856,-57.5539 551.363,-56.0885 552.739,-62.9518"/>
</g>
<!-- Node13 -->
<g id="node13" class="node"><title>Node13</title>
<g id="a_node13"><a xlink:href="../../d0/def/class_vis.html#ae73bb8680cc08a50925d4dcb2ccc7c68" target="_top" xlink:title=" ">
<polygon fill="white" stroke="black" points="544.5,-76.5 544.5,-95.5 676.5,-95.5 676.5,-76.5 544.5,-76.5"/>
<text text-anchor="middle" x="610.5" y="-83.5" font-family="Helvetica,sans-Serif" font-size="10.00">Vis::SortByScreenSpaceY</text>
</a>
</g>
</g>
<!-- Node11&#45;&gt;Node13 -->
<g id="edge13" class="edge"><title>Node11&#45;&gt;Node13</title>
<path fill="none" stroke="midnightblue" d="M492.182,-86C505.852,-86 520.186,-86 533.956,-86"/>
<polygon fill="midnightblue" stroke="midnightblue" points="534.355,-89.5001 544.355,-86 534.355,-82.5001 534.355,-89.5001"/>
</g>
<!-- Node15 -->
<g id="node15" class="node"><title>Node15</title>
<g id="a_node15"><a xlink:href="../../d0/def/class_vis.html#ae6237de913fa3fa9775fbcad7d1a4d40" target="_top" xlink:title=" ">
<polygon fill="white" stroke="black" points="536,-0.5 536,-19.5 685,-19.5 685,-0.5 536,-0.5"/>
<text text-anchor="middle" x="610.5" y="-7.5" font-family="Helvetica,sans-Serif" font-size="10.00">Vis::IsPointInsideD3DBillboard</text>
</a>
</g>
</g>
<!-- Node14&#45;&gt;Node15 -->
<g id="edge15" class="edge"><title>Node14&#45;&gt;Node15</title>
<path fill="none" stroke="midnightblue" d="M485.746,-18.4897C498.609,-17.6073 512.261,-16.6707 525.621,-15.7542"/>
<polygon fill="midnightblue" stroke="midnightblue" points="526.026,-19.2348 535.763,-15.0585 525.547,-12.2512 526.026,-19.2348"/>
</g>
<!-- Node17 -->
<g id="node17" class="node"><title>Node17</title>
<g id="a_node17"><a xlink:href="../../d0/def/class_vis.html#a8bf4d88639d359d6925eb3c9ee8d3e8a" target="_top" xlink:title=" ">
<polygon fill="white" stroke="black" points="548.5,-342.5 548.5,-361.5 672.5,-361.5 672.5,-342.5 548.5,-342.5"/>
<text text-anchor="middle" x="610.5" y="-349.5" font-family="Helvetica,sans-Serif" font-size="10.00">Vis::Intersect_Ray_Face</text>
</a>
</g>
</g>
<!-- Node16&#45;&gt;Node17 -->
<g id="edge17" class="edge"><title>Node16&#45;&gt;Node17</title>
<path fill="none" stroke="midnightblue" d="M474.049,-324.838C498.375,-329.716 527.12,-335.481 551.857,-340.441"/>
<polygon fill="midnightblue" stroke="midnightblue" points="551.339,-343.907 561.832,-342.441 552.715,-337.043 551.339,-343.907"/>
</g>
<!-- Node16&#45;&gt;Node25 -->
<g id="edge25" class="edge"><title>Node16&#45;&gt;Node25</title>
<path fill="none" stroke="midnightblue" d="M473.803,-329.121C480.115,-331.708 486.322,-334.659 492,-338 510.707,-349.007 509.162,-360.219 528,-371 536.671,-375.962 546.435,-380.045 556.113,-383.369"/>
<polygon fill="midnightblue" stroke="midnightblue" points="555.129,-386.728 565.72,-386.443 557.262,-380.061 555.129,-386.728"/>
</g>
<!-- Node27 -->
<g id="node27" class="node"><title>Node27</title>
<g id="a_node27"><a xlink:href="../../d9/de5/struct_indoor_camera_d3_d.html#ae05240c16f6b9c546984fff706e9ef24" target="_top" xlink:title=" ">
<polygon fill="white" stroke="black" points="542.5,-266.5 542.5,-285.5 678.5,-285.5 678.5,-266.5 542.5,-266.5"/>
<text text-anchor="middle" x="610.5" y="-273.5" font-family="Helvetica,sans-Serif" font-size="10.00">IndoorCameraD3D::IsCulled</text>
</a>
</g>
</g>
<!-- Node16&#45;&gt;Node27 -->
<g id="edge28" class="edge"><title>Node16&#45;&gt;Node27</title>
<path fill="none" stroke="midnightblue" d="M474.049,-303.162C498.375,-298.284 527.12,-292.519 551.857,-287.559"/>
<polygon fill="midnightblue" stroke="midnightblue" points="552.715,-290.957 561.832,-285.559 551.339,-284.093 552.715,-290.957"/>
</g>
<!-- Node16&#45;&gt;Node29 -->
<g id="edge31" class="edge"><title>Node16&#45;&gt;Node29</title>
<path fill="none" stroke="midnightblue" d="M474.049,-314C487.649,-314 502.629,-314 517.519,-314"/>
<polygon fill="midnightblue" stroke="midnightblue" points="517.794,-317.5 527.794,-314 517.794,-310.5 517.794,-317.5"/>
</g>
<!-- Node18 -->
<g id="node18" class="node"><title>Node18</title>
<g id="a_node18"><a xlink:href="../../d0/def/class_vis.html#a9dfa58c3c4c1a6cb597d11e174dbe138" target="_top" xlink:title=" ">
<polygon fill="white" stroke="black" points="747,-348.5 747,-367.5 882,-367.5 882,-348.5 747,-348.5"/>
<text text-anchor="middle" x="814.5" y="-355.5" font-family="Helvetica,sans-Serif" font-size="10.00">Vis::CheckIntersectBModel</text>
</a>
</g>
</g>
<!-- Node17&#45;&gt;Node18 -->
<g id="edge18" class="edge"><title>Node17&#45;&gt;Node18</title>
<path fill="none" stroke="midnightblue" d="M672.655,-353.816C692.813,-354.415 715.492,-355.089 736.667,-355.718"/>
<polygon fill="midnightblue" stroke="midnightblue" points="736.823,-359.224 746.923,-356.022 737.031,-352.227 736.823,-359.224"/>
</g>
<!-- Node23 -->
<g id="node23" class="node"><title>Node23</title>
<g id="a_node23"><a xlink:href="../../d9/ded/struct_b_l_v_face.html#aa4153fa3c2f23af1deb82914497d35e9" target="_top" xlink:title=" ">
<polygon fill="white" stroke="black" points="766,-310.5 766,-329.5 863,-329.5 863,-310.5 766,-310.5"/>
<text text-anchor="middle" x="814.5" y="-317.5" font-family="Helvetica,sans-Serif" font-size="10.00">BLVFace::Invisible</text>
</a>
</g>
</g>
<!-- Node17&#45;&gt;Node23 -->
<g id="edge23" class="edge"><title>Node17&#45;&gt;Node23</title>
<path fill="none" stroke="midnightblue" d="M671.56,-342.486C698.151,-338.273 729.299,-333.339 755.632,-329.167"/>
<polygon fill="midnightblue" stroke="midnightblue" points="756.512,-332.571 765.842,-327.55 755.417,-325.658 756.512,-332.571"/>
</g>
<!-- Node24 -->
<g id="node24" class="node"><title>Node24</title>
<g id="a_node24"><a xlink:href="../../d9/ded/struct_b_l_v_face.html#a844dd21df457421f6e527684d67a35db" target="_top" xlink:title=" ">
<polygon fill="white" stroke="black" points="957,-247.5 957,-266.5 1046,-266.5 1046,-247.5 957,-247.5"/>
<text text-anchor="middle" x="1001.5" y="-254.5" font-family="Helvetica,sans-Serif" font-size="10.00">BLVFace::Portal</text>
</a>
</g>
</g>
<!-- Node17&#45;&gt;Node24 -->
<g id="edge24" class="edge"><title>Node17&#45;&gt;Node24</title>
<path fill="none" stroke="midnightblue" d="M668.917,-342.438C677.242,-339.97 685.517,-336.875 693,-333 712.009,-323.156 709.665,-310.189 729,-301 766.586,-283.137 878.852,-269.201 946.68,-262.126"/>
<polygon fill="midnightblue" stroke="midnightblue" points="947.168,-265.594 956.758,-261.091 946.453,-258.631 947.168,-265.594"/>
</g>
<!-- Node19 -->
<g id="node19" class="node"><title>Node19</title>
<g id="a_node19"><a xlink:href="../../d0/def/class_vis.html#a48c1670f37f2e4930cafde40afdebe32" target="_top" xlink:title=" ">
<polygon fill="white" stroke="black" points="938,-343 938,-373 1065,-373 1065,-343 938,-343"/>
<text text-anchor="start" x="946" y="-361" font-family="Helvetica,sans-Serif" font-size="10.00">Vis::BLV_CreateIntersect</text>
<text text-anchor="middle" x="1001.5" y="-350" font-family="Helvetica,sans-Serif" font-size="10.00">FacesVertexCoordList</text>
</a>
</g>
</g>
<!-- Node18&#45;&gt;Node19 -->
<g id="edge19" class="edge"><title>Node18&#45;&gt;Node19</title>
<path fill="none" stroke="midnightblue" d="M882.028,-358C896.841,-358 912.621,-358 927.673,-358"/>
<polygon fill="midnightblue" stroke="midnightblue" points="927.956,-361.5 937.956,-358 927.956,-354.5 927.956,-361.5"/>
</g>
<!-- Node20 -->
<g id="node20" class="node"><title>Node20</title>
<g id="a_node20"><a xlink:href="../../de/db6/_our_math_8cpp.html#a26d802a4465483f7c2f89657b75c9ebe" target="_top" xlink:title=" ">
<polygon fill="white" stroke="black" points="969.5,-304.5 969.5,-323.5 1033.5,-323.5 1033.5,-304.5 969.5,-304.5"/>
<text text-anchor="middle" x="1001.5" y="-311.5" font-family="Helvetica,sans-Serif" font-size="10.00">fixpoint_div</text>
</a>
</g>
</g>
<!-- Node18&#45;&gt;Node20 -->
<g id="edge20" class="edge"><title>Node18&#45;&gt;Node20</title>
<path fill="none" stroke="midnightblue" d="M858.965,-348.425C872.159,-345.465 886.685,-342.153 900,-339 919.634,-334.351 941.366,-328.974 959.584,-324.401"/>
<polygon fill="midnightblue" stroke="midnightblue" points="960.466,-327.788 969.308,-321.952 958.756,-321 960.466,-327.788"/>
</g>
<!-- Node21 -->
<g id="node21" class="node"><title>Node21</title>
<g id="a_node21"><a xlink:href="../../de/db6/_our_math_8cpp.html#abc4811d26f9864e00046c39c39d65680" target="_top" xlink:title=" ">
<polygon fill="white" stroke="black" points="967.5,-452.5 967.5,-471.5 1035.5,-471.5 1035.5,-452.5 967.5,-452.5"/>
<text text-anchor="middle" x="1001.5" y="-459.5" font-family="Helvetica,sans-Serif" font-size="10.00">fixpoint_mul</text>
</a>
</g>
</g>
<!-- Node18&#45;&gt;Node21 -->
<g id="edge21" class="edge"><title>Node18&#45;&gt;Node21</title>
<path fill="none" stroke="midnightblue" d="M881.719,-367.636C888.196,-370.097 894.423,-373.168 900,-377 923.774,-393.334 914.228,-412.08 936,-431 943.948,-437.907 953.702,-443.638 963.196,-448.215"/>
<polygon fill="midnightblue" stroke="midnightblue" points="961.971,-451.501 972.527,-452.408 964.84,-445.116 961.971,-451.501"/>
</g>
<!-- Node22 -->
<g id="node22" class="node"><title>Node22</title>
<g id="a_node22"><a xlink:href="../../d0/def/class_vis.html#a5f83bab17764d31ea2c12a1f925acec7" target="_top" xlink:title=" ">
<polygon fill="white" stroke="black" points="936,-392 936,-422 1067,-422 1067,-392 936,-392"/>
<text text-anchor="start" x="944" y="-410" font-family="Helvetica,sans-Serif" font-size="10.00">Vis::ODM_CreateIntersect</text>
<text text-anchor="middle" x="1001.5" y="-399" font-family="Helvetica,sans-Serif" font-size="10.00">FacesVertexCoordList</text>
</a>
</g>
</g>
<!-- Node18&#45;&gt;Node22 -->
<g id="edge22" class="edge"><title>Node18&#45;&gt;Node22</title>
<path fill="none" stroke="midnightblue" d="M860.808,-367.584C873.53,-370.438 887.343,-373.692 900,-377 913.893,-380.631 928.763,-384.871 942.69,-389.002"/>
<polygon fill="midnightblue" stroke="midnightblue" points="942.053,-392.464 952.637,-391.979 944.061,-385.759 942.053,-392.464"/>
</g>
<!-- Node25&#45;&gt;Node10 -->
<g id="edge27" class="edge"><title>Node25&#45;&gt;Node10</title>
<path fill="none" stroke="midnightblue" d="M662.212,-405.54C694.447,-411.604 735.856,-419.394 767.201,-425.29"/>
<polygon fill="midnightblue" stroke="midnightblue" points="766.942,-428.803 777.417,-427.212 768.236,-421.924 766.942,-428.803"/>
</g>
<!-- Node26 -->
<g id="node26" class="node"><title>Node26</title>
<g id="a_node26"><a xlink:href="../../d3/df5/struct_monster_stats.html#af740f33299fb75dc1dafe63bf58ef858" target="_top" xlink:title=" ">
<polygon fill="white" stroke="black" points="729,-386.5 729,-405.5 900,-405.5 900,-386.5 729,-386.5"/>
<text text-anchor="middle" x="814.5" y="-393.5" font-family="Helvetica,sans-Serif" font-size="10.00">MonsterStats::BelongsToSupertype</text>
</a>
</g>
</g>
<!-- Node25&#45;&gt;Node26 -->
<g id="edge26" class="edge"><title>Node25&#45;&gt;Node26</title>
<path fill="none" stroke="midnightblue" d="M672.107,-396C686.692,-396 702.623,-396 718.364,-396"/>
<polygon fill="midnightblue" stroke="midnightblue" points="718.664,-399.5 728.664,-396 718.664,-392.5 718.664,-399.5"/>
</g>
<!-- Node28 -->
<g id="node28" class="node"><title>Node28</title>
<g id="a_node28"><a xlink:href="../../d9/de5/struct_indoor_camera_d3_d.html#a1face139f0fdf27b7a9d9c1e0cbd210d" target="_top" xlink:title=" ">
<polygon fill="white" stroke="black" points="755,-223 755,-253 874,-253 874,-223 755,-223"/>
<text text-anchor="start" x="763" y="-241" font-family="Helvetica,sans-Serif" font-size="10.00">IndoorCameraD3D::is</text>
<text text-anchor="middle" x="814.5" y="-230" font-family="Helvetica,sans-Serif" font-size="10.00">_face_faced_to_camera</text>
</a>
</g>
</g>
<!-- Node27&#45;&gt;Node28 -->
<g id="edge29" class="edge"><title>Node27&#45;&gt;Node28</title>
<path fill="none" stroke="midnightblue" d="M662.212,-266.46C687.187,-261.762 717.669,-256.028 744.71,-250.941"/>
<polygon fill="midnightblue" stroke="midnightblue" points="745.707,-254.315 754.887,-249.026 744.413,-247.435 745.707,-254.315"/>
</g>
<!-- Node28&#45;&gt;Node24 -->
<g id="edge30" class="edge"><title>Node28&#45;&gt;Node24</title>
<path fill="none" stroke="midnightblue" d="M874.035,-244.012C897.26,-246.397 923.803,-249.123 946.555,-251.46"/>
<polygon fill="midnightblue" stroke="midnightblue" points="946.411,-254.963 956.716,-252.503 947.126,-248 946.411,-254.963"/>
</g>
<!-- Node30&#45;&gt;Node2 -->
<g id="edge33" class="edge"><title>Node30&#45;&gt;Node2</title>
<path fill="none" stroke="midnightblue" d="M478.009,-376.068C483.224,-379.005 488.026,-382.6 492,-387 541.143,-441.417 491.766,-484.256 528,-548 540.565,-570.105 561.527,-589.7 579.045,-603.59"/>
<polygon fill="midnightblue" stroke="midnightblue" points="577.252,-606.626 587.316,-609.937 581.513,-601.072 577.252,-606.626"/>
</g>
<!-- Node30&#45;&gt;Node17 -->
<g id="edge35" class="edge"><title>Node30&#45;&gt;Node17</title>
<path fill="none" stroke="midnightblue" d="M478.144,-359.625C497.044,-358.528 518.241,-357.297 538,-356.15"/>
<polygon fill="midnightblue" stroke="midnightblue" points="538.401,-359.633 548.181,-355.559 537.995,-352.645 538.401,-359.633"/>
</g>
<!-- Node30&#45;&gt;Node25 -->
<g id="edge36" class="edge"><title>Node30&#45;&gt;Node25</title>
<path fill="none" stroke="midnightblue" d="M478.144,-373.125C499.183,-376.789 523.067,-380.948 544.646,-384.706"/>
<polygon fill="midnightblue" stroke="midnightblue" points="544.252,-388.19 554.705,-386.458 545.453,-381.294 544.252,-388.19"/>
</g>
<!-- Node30&#45;&gt;Node29 -->
<g id="edge43" class="edge"><title>Node30&#45;&gt;Node29</title>
<path fill="none" stroke="midnightblue" d="M472.342,-347.985C489.981,-343.052 509.805,-337.646 528,-333 537.403,-330.599 547.448,-328.158 557.159,-325.86"/>
<polygon fill="midnightblue" stroke="midnightblue" points="558.181,-329.216 567.118,-323.526 556.583,-322.4 558.181,-329.216"/>
</g>
<!-- Node30&#45;&gt;Node31 -->
<g id="edge34" class="edge"><title>Node30&#45;&gt;Node31</title>
<path fill="none" stroke="midnightblue" d="M477.889,-347.876C482.998,-345.113 487.811,-341.851 492,-338 521.002,-311.338 497.637,-282.101 528,-257 533.417,-252.522 539.697,-249.058 546.32,-246.384"/>
<polygon fill="midnightblue" stroke="midnightblue" points="547.877,-249.551 556.209,-243.007 545.615,-242.927 547.877,-249.551"/>
</g>
<!-- Node30&#45;&gt;Node32 -->
<g id="edge37" class="edge"><title>Node30&#45;&gt;Node32</title>
<path fill="none" stroke="midnightblue" d="M475.767,-378.039C481.472,-380.605 487,-383.574 492,-387 541.094,-420.633 580.869,-480.341 598.955,-510.489"/>
<polygon fill="midnightblue" stroke="midnightblue" points="596.161,-512.643 604.239,-519.499 602.2,-509.102 596.161,-512.643"/>
</g>
<!-- Node32&#45;&gt;Node21 -->
<g id="edge39" class="edge"><title>Node32&#45;&gt;Node21</title>
<path fill="none" stroke="midnightblue" d="M635.855,-519.489C659.342,-510.709 696.077,-498.004 729,-491 808.329,-474.125 902.893,-466.853 956.893,-463.885"/>
<polygon fill="midnightblue" stroke="midnightblue" points="957.333,-467.367 967.136,-463.348 956.966,-460.377 957.333,-467.367"/>
</g>
<!-- Node33 -->
<g id="node33" class="node"><title>Node33</title>
<g id="a_node33"><a xlink:href="../../d6/d38/structstru193__math.html#a7a4a47e93ff200721e19681b71783c51" target="_top" xlink:title=" ">
<polygon fill="white" stroke="black" points="952,-557.5 952,-576.5 1051,-576.5 1051,-557.5 952,-557.5"/>
<text text-anchor="middle" x="1001.5" y="-564.5" font-family="Helvetica,sans-Serif" font-size="10.00">stru193_math::Cos</text>
</a>
</g>
</g>
<!-- Node32&#45;&gt;Node33 -->
<g id="edge38" class="edge"><title>Node32&#45;&gt;Node33</title>
<path fill="none" stroke="midnightblue" d="M653.87,-533.139C723.504,-539.941 862.301,-553.5 941.506,-561.237"/>
<polygon fill="midnightblue" stroke="midnightblue" points="941.51,-564.754 951.803,-562.243 942.19,-557.787 941.51,-564.754"/>
</g>
<!-- Node34 -->
<g id="node34" class="node"><title>Node34</title>
<g id="a_node34"><a xlink:href="../../d5/d2e/_vector_types_8cpp.html#a5eb2b4017143261b8e3f12f6c796a11c" target="_top" xlink:title=" ">
<polygon fill="white" stroke="black" points="760.5,-500.5 760.5,-519.5 868.5,-519.5 868.5,-500.5 760.5,-500.5"/>
<text text-anchor="middle" x="814.5" y="-507.5" font-family="Helvetica,sans-Serif" font-size="10.00">int_get_vector_length</text>
</a>
</g>
</g>
<!-- Node32&#45;&gt;Node34 -->
<g id="edge40" class="edge"><title>Node32&#45;&gt;Node34</title>
<path fill="none" stroke="midnightblue" d="M653.846,-525.017C681.823,-522.385 718.988,-518.89 750.421,-515.933"/>
<polygon fill="midnightblue" stroke="midnightblue" points="750.778,-519.415 760.406,-514.994 750.122,-512.446 750.778,-519.415"/>
</g>
<!-- Node35 -->
<g id="node35" class="node"><title>Node35</title>
<g id="a_node35"><a xlink:href="../../d6/d38/structstru193__math.html#a9bd57620c86e36d03d93f2306f8ab80a" target="_top" xlink:title=" ">
<polygon fill="white" stroke="black" points="766.5,-576.5 766.5,-595.5 862.5,-595.5 862.5,-576.5 766.5,-576.5"/>
<text text-anchor="middle" x="814.5" y="-583.5" font-family="Helvetica,sans-Serif" font-size="10.00">stru193_math::Sin</text>
</a>
</g>
</g>
<!-- Node32&#45;&gt;Node35 -->
<g id="edge41" class="edge"><title>Node32&#45;&gt;Node35</title>
<path fill="none" stroke="midnightblue" d="M645.31,-538.541C679.394,-548.158 732.16,-563.048 769.489,-573.581"/>
<polygon fill="midnightblue" stroke="midnightblue" points="769.005,-577.081 779.579,-576.428 770.906,-570.344 769.005,-577.081"/>
</g>
<!-- Node35&#45;&gt;Node33 -->
<g id="edge42" class="edge"><title>Node35&#45;&gt;Node33</title>
<path fill="none" stroke="midnightblue" d="M862.662,-581.156C886.655,-578.692 916.054,-575.673 941.529,-573.056"/>
<polygon fill="midnightblue" stroke="midnightblue" points="942.221,-576.504 951.811,-572 941.506,-569.541 942.221,-576.504"/>
</g>
</g>
</svg>
        <g id="navigator" transform="translate(0 0)" fill="#404254">
                <rect fill="#f2f5e9" fill-opacity="0.5" stroke="#606060" stroke-width=".5" x="0" y="0" width="60" height="60"/>
                <use id="zoomplus" xlink:href="#zoomPlus" x="17" y="9" onmousedown="handleZoom(evt,'in')"/>
                <use id="zoomminus" xlink:href="#zoomMin" x="42" y="9" onmousedown="handleZoom(evt,'out')"/>
                <use id="reset" xlink:href="#resetDef" x="30" y="36" onmousedown="handleReset()"/>
                <g id="arrowUp" xlink:href="#dirArrow" transform="translate(30 24)" onmousedown="handlePan(0,-1)">
                  <use xlink:href="#rim" fill="#404040">
                        <set attributeName="fill" to="#808080" begin="arrowUp.mouseover" end="arrowUp.mouseout"/>
                  </use>
                  <path fill="none" stroke="white" stroke-width="1.5" d="M0,-3.0v7 M-2.5,-0.5L0,-3.0L2.5,-0.5"/>
                </g>
                <g id="arrowRight" xlink:href="#dirArrow" transform="rotate(90) translate(36 -43)" onmousedown="handlePan(1,0)">
                  <use xlink:href="#rim" fill="#404040">
                        <set attributeName="fill" to="#808080" begin="arrowRight.mouseover" end="arrowRight.mouseout"/>
                  </use>
                  <path fill="none" stroke="white" stroke-width="1.5" d="M0,-3.0v7 M-2.5,-0.5L0,-3.0L2.5,-0.5"/>
                </g>
                <g id="arrowDown" xlink:href="#dirArrow" transform="rotate(180) translate(-30 -48)" onmousedown="handlePan(0,1)">
                  <use xlink:href="#rim" fill="#404040">
                        <set attributeName="fill" to="#808080" begin="arrowDown.mouseover" end="arrowDown.mouseout"/>
                  </use>
                  <path fill="none" stroke="white" stroke-width="1.5" d="M0,-3.0v7 M-2.5,-0.5L0,-3.0L2.5,-0.5"/>
                </g>
                <g id="arrowLeft" xlink:href="#dirArrow" transform="rotate(270) translate(-36 17)" onmousedown="handlePan(-1,0)">
                  <use xlink:href="#rim" fill="#404040">
                        <set attributeName="fill" to="#808080" begin="arrowLeft.mouseover" end="arrowLeft.mouseout"/>
                  </use>
                  <path fill="none" stroke="white" stroke-width="1.5" d="M0,-3.0v7 M-2.5,-0.5L0,-3.0L2.5,-0.5"/>
                </g>
        </g>
        <svg viewBox="0 0 15 15" width="100%" height="30px" preserveAspectRatio="xMaxYMin meet">
         <g id="arrow_out" transform="scale(0.3 0.3)">
          <a xlink:href="class_vis_a67d4ba179398e09641b9a0e2c96d8a54_cgraph_org.svg" target="_base">
           <rect id="button" ry="5" rx="5" y="6" x="6" height="38" width="38"
                fill="#f2f5e9" fill-opacity="0.5" stroke="#606060" stroke-width="1.0"/>
           <path id="arrow"
             d="M 11.500037,31.436501 C 11.940474,20.09759 22.043105,11.32322 32.158766,21.979434 L 37.068811,17.246167 C 37.068811,17.246167 37.088388,32 37.088388,32 L 22.160133,31.978069 C 22.160133,31.978069 26.997745,27.140456 26.997745,27.140456 C 18.528582,18.264221 13.291696,25.230495 11.500037,31.436501 z"
             style="fill:#404040;"/>
          </a>
         </g>
        </svg>
</svg>
