<?xml version="1.0" encoding="UTF-8" standalone="no"?>
<!DOCTYPE svg PUBLIC "-//W3C//DTD SVG 1.1//EN"
 "http://www.w3.org/Graphics/SVG/1.1/DTD/svg11.dtd">
<!-- Generated by graphviz version 2.38.0 (20140413.2041)
 -->
<!-- Title: Vis::PickKeyboard Pages: 1 -->
<svg width="1209pt" height="874pt"
 viewBox="0.00 0.00 1209.00 873.50" xmlns="http://www.w3.org/2000/svg" xmlns:xlink="http://www.w3.org/1999/xlink">
<g id="graph0" class="graph" transform="scale(1 1) rotate(0) translate(4 869.5)">
<title>Vis::PickKeyboard</title>
<polygon fill="white" stroke="none" points="-4,4 -4,-869.5 1205,-869.5 1205,4 -4,4"/>
<!-- Node1 -->
<g id="node1" class="node"><title>Node1</title>
<g id="a_node1"><a xlink:title=" ">
<polygon fill="#bfbfbf" stroke="black" points="0,-582 0,-601 98,-601 98,-582 0,-582"/>
<text text-anchor="middle" x="49" y="-589" font-family="Helvetica,sans-Serif" font-size="10.00">Vis::PickKeyboard</text>
</a>
</g>
</g>
<!-- Node2 -->
<g id="node2" class="node"><title>Node2</title>
<g id="a_node2"><a xlink:href="../../de/d0c/struct_vis___selection_list.html#add61fa6d164124008c5c8cdec8e6b637" target="_top" xlink:title=" ">
<polygon fill="white" stroke="black" points="495.5,-666.5 495.5,-696.5 610.5,-696.5 610.5,-666.5 495.5,-666.5"/>
<text text-anchor="start" x="503.5" y="-684.5" font-family="Helvetica,sans-Serif" font-size="10.00">Vis_SelectionList::</text>
<text text-anchor="middle" x="553" y="-673.5" font-family="Helvetica,sans-Serif" font-size="10.00">create_object_pointers</text>
</a>
</g>
</g>
<!-- Node1&#45;&gt;Node2 -->
<g id="edge1" class="edge"><title>Node1&#45;&gt;Node2</title>
<path fill="none" stroke="midnightblue" d="M78.5048,-601.081C94.6421,-606.227 115.283,-612.348 134,-616.5 269.981,-646.664 306.509,-640.209 444,-662.5 457.459,-664.682 471.84,-667.13 485.573,-669.525"/>
<polygon fill="midnightblue" stroke="midnightblue" points="484.982,-672.974 495.437,-671.254 486.191,-666.08 484.982,-672.974"/>
</g>
<!-- Node4 -->
<g id="node4" class="node"><title>Node4</title>
<g id="a_node4"><a xlink:href="../../d0/def/class_vis.html#a9b45b6714b627310af4609d1bf5e250d" target="_top" xlink:title=" ">
<polygon fill="white" stroke="black" points="143.5,-576.5 143.5,-606.5 242.5,-606.5 242.5,-576.5 143.5,-576.5"/>
<text text-anchor="start" x="151.5" y="-594.5" font-family="Helvetica,sans-Serif" font-size="10.00">Vis::PickBillboards</text>
<text text-anchor="middle" x="193" y="-583.5" font-family="Helvetica,sans-Serif" font-size="10.00">_Keyboard</text>
</a>
</g>
</g>
<!-- Node1&#45;&gt;Node4 -->
<g id="edge3" class="edge"><title>Node1&#45;&gt;Node4</title>
<path fill="none" stroke="midnightblue" d="M98.0747,-591.5C109.401,-591.5 121.598,-591.5 133.333,-591.5"/>
<polygon fill="midnightblue" stroke="midnightblue" points="133.492,-595 143.492,-591.5 133.492,-588 133.492,-595"/>
</g>
<!-- Node35 -->
<g id="node35" class="node"><title>Node35</title>
<g id="a_node35"><a xlink:href="../../d0/def/class_vis.html#a2a559e751ca0e277d34f09efb1b157c8" target="_top" xlink:title=" ">
<polygon fill="white" stroke="black" points="490.5,-754 490.5,-773 615.5,-773 615.5,-754 490.5,-754"/>
<text text-anchor="middle" x="553" y="-761" font-family="Helvetica,sans-Serif" font-size="10.00">Vis::sort_object_pointers</text>
</a>
</g>
</g>
<!-- Node1&#45;&gt;Node35 -->
<g id="edge71" class="edge"><title>Node1&#45;&gt;Node35</title>
<path fill="none" stroke="midnightblue" d="M64.7867,-601.082C81.2698,-611.534 108.914,-628.388 134,-640.5 200.15,-672.437 217.888,-678.59 288,-700.5 357.505,-722.22 439.3,-740.675 493.218,-751.892"/>
<polygon fill="midnightblue" stroke="midnightblue" points="492.784,-755.376 503.285,-753.969 494.199,-748.52 492.784,-755.376"/>
</g>
<!-- Node36 -->
<g id="node36" class="node"><title>Node36</title>
<g id="a_node36"><a xlink:href="../../d0/def/class_vis.html#aecd975091f73e04120b1b6b2c0394239" target="_top" xlink:title=" ">
<polygon fill="white" stroke="black" points="138,-527.5 138,-557.5 248,-557.5 248,-527.5 138,-527.5"/>
<text text-anchor="start" x="146" y="-545.5" font-family="Helvetica,sans-Serif" font-size="10.00">Vis::PickIndoorFaces</text>
<text text-anchor="middle" x="193" y="-534.5" font-family="Helvetica,sans-Serif" font-size="10.00">_Keyboard</text>
</a>
</g>
</g>
<!-- Node1&#45;&gt;Node36 -->
<g id="edge46" class="edge"><title>Node1&#45;&gt;Node36</title>
<path fill="none" stroke="midnightblue" d="M77.7161,-581.936C95.0658,-575.949 117.991,-568.038 138.753,-560.874"/>
<polygon fill="midnightblue" stroke="midnightblue" points="140.112,-564.108 148.423,-557.537 137.829,-557.49 140.112,-564.108"/>
</g>
<!-- Node46 -->
<g id="node46" class="node"><title>Node46</title>
<g id="a_node46"><a xlink:href="../../d0/def/class_vis.html#a67d4ba179398e09641b9a0e2c96d8a54" target="_top" xlink:title=" ">
<polygon fill="white" stroke="black" points="134,-207.5 134,-237.5 252,-237.5 252,-207.5 134,-207.5"/>
<text text-anchor="start" x="142" y="-225.5" font-family="Helvetica,sans-Serif" font-size="10.00">Vis::PickOutdoorFaces</text>
<text text-anchor="middle" x="193" y="-214.5" font-family="Helvetica,sans-Serif" font-size="10.00">_Keyboard</text>
</a>
</g>
</g>
<!-- Node1&#45;&gt;Node46 -->
<g id="edge65" class="edge"><title>Node1&#45;&gt;Node46</title>
<path fill="none" stroke="midnightblue" d="M53.7982,-581.63C72.421,-533.237 154.318,-320.42 182.463,-247.284"/>
<polygon fill="midnightblue" stroke="midnightblue" points="185.886,-248.133 186.211,-237.543 179.353,-245.619 185.886,-248.133"/>
</g>
<!-- Node3 -->
<g id="node3" class="node"><title>Node3</title>
<g id="a_node3"><a xlink:href="../../d6/d70/class_log.html#ac0de2621497ca3b2fbf208624c08bcdf" target="_top" xlink:title=" ">
<polygon fill="white" stroke="black" points="911.5,-522 911.5,-541 985.5,-541 985.5,-522 911.5,-522"/>
<text text-anchor="middle" x="948.5" y="-529" font-family="Helvetica,sans-Serif" font-size="10.00">Log::Warning</text>
</a>
</g>
</g>
<!-- Node2&#45;&gt;Node3 -->
<g id="edge2" class="edge"><title>Node2&#45;&gt;Node3</title>
<path fill="none" stroke="midnightblue" d="M610.568,-668.09C616.189,-665.217 621.478,-661.731 626,-657.5 656.858,-628.63 628.55,-595.322 662,-569.5 698.453,-541.36 830.247,-534.042 901.316,-532.15"/>
<polygon fill="midnightblue" stroke="midnightblue" points="901.43,-535.648 911.342,-531.909 901.261,-528.651 901.43,-535.648"/>
</g>
<!-- Node5 -->
<g id="node5" class="node"><title>Node5</title>
<g id="a_node5"><a xlink:href="../../de/d0c/struct_vis___selection_list.html#a98a278dcbeb54ceca2c997f2dc7ea580" target="_top" xlink:title=" ">
<polygon fill="white" stroke="black" points="695.5,-283.5 695.5,-313.5 793.5,-313.5 793.5,-283.5 695.5,-283.5"/>
<text text-anchor="start" x="703.5" y="-301.5" font-family="Helvetica,sans-Serif" font-size="10.00">Vis_SelectionList::</text>
<text text-anchor="middle" x="744.5" y="-290.5" font-family="Helvetica,sans-Serif" font-size="10.00">AddObject</text>
</a>
</g>
</g>
<!-- Node4&#45;&gt;Node5 -->
<g id="edge4" class="edge"><title>Node4&#45;&gt;Node5</title>
<path fill="none" stroke="midnightblue" d="M239.972,-576.389C244.426,-573.607 248.559,-570.336 252,-566.5 288.329,-526 255.793,-493.349 288,-449.5 349.301,-366.039 382.275,-351.754 480,-317.5 547.5,-293.84 630.545,-291.956 685.147,-294.096"/>
<polygon fill="midnightblue" stroke="midnightblue" points="685.19,-297.602 695.338,-294.556 685.505,-290.609 685.19,-297.602"/>
</g>
<!-- Node6 -->
<g id="node6" class="node"><title>Node6</title>
<g id="a_node6"><a xlink:href="../../d0/def/class_vis.html#ad4af37acceccfd227b3221caa6381385" target="_top" xlink:title=" ">
<polygon fill="white" stroke="black" points="290,-672 290,-691 442,-691 442,-672 290,-672"/>
<text text-anchor="middle" x="366" y="-679" font-family="Helvetica,sans-Serif" font-size="10.00">Vis::DoesRayIntersectBillboard</text>
</a>
</g>
</g>
<!-- Node4&#45;&gt;Node6 -->
<g id="edge5" class="edge"><title>Node4&#45;&gt;Node6</title>
<path fill="none" stroke="midnightblue" d="M222.622,-606.564C254.674,-623.434 306.246,-650.577 337.735,-667.15"/>
<polygon fill="midnightblue" stroke="midnightblue" points="336.34,-670.371 346.819,-671.931 339.6,-664.176 336.34,-670.371"/>
</g>
<!-- Node24 -->
<g id="node24" class="node"><title>Node24</title>
<g id="a_node24"><a xlink:href="../../d0/def/class_vis.html#ae343e0a8b4ada6a717b217b15fc975ea" target="_top" xlink:title=" ">
<polygon fill="white" stroke="black" points="683,-465 683,-484 806,-484 806,-465 683,-465"/>
<text text-anchor="middle" x="744.5" y="-472" font-family="Helvetica,sans-Serif" font-size="10.00">Vis::is_part_of_selection</text>
</a>
</g>
</g>
<!-- Node4&#45;&gt;Node24 -->
<g id="edge45" class="edge"><title>Node4&#45;&gt;Node24</title>
<path fill="none" stroke="midnightblue" d="M242.639,-589.296C324.408,-584.239 493.473,-567.934 626,-516.5 643.7,-509.63 644.503,-500.872 662,-493.5 667.887,-491.02 674.156,-488.831 680.502,-486.906"/>
<polygon fill="midnightblue" stroke="midnightblue" points="681.815,-490.173 690.494,-484.096 679.919,-483.434 681.815,-490.173"/>
</g>
<!-- Node6&#45;&gt;Node2 -->
<g id="edge12" class="edge"><title>Node6&#45;&gt;Node2</title>
<path fill="none" stroke="midnightblue" d="M442.247,-681.5C456.356,-681.5 471.021,-681.5 484.865,-681.5"/>
<polygon fill="midnightblue" stroke="midnightblue" points="485.268,-685 495.268,-681.5 485.268,-678 485.268,-685"/>
</g>
<!-- Node7 -->
<g id="node7" class="node"><title>Node7</title>
<g id="a_node7"><a xlink:href="../../d0/def/class_vis.html#ab8b15bdf51a2c5a6cdd7b1e18369f974" target="_top" xlink:title=" ">
<polygon fill="white" stroke="black" points="506,-716 506,-735 600,-735 600,-716 506,-716"/>
<text text-anchor="middle" x="553" y="-723" font-family="Helvetica,sans-Serif" font-size="10.00">Vis::CastPickRay</text>
</a>
</g>
</g>
<!-- Node6&#45;&gt;Node7 -->
<g id="edge6" class="edge"><title>Node6&#45;&gt;Node7</title>
<path fill="none" stroke="midnightblue" d="M407.142,-691.047C435.021,-697.678 472.362,-706.559 502.149,-713.643"/>
<polygon fill="midnightblue" stroke="midnightblue" points="501.398,-717.062 511.936,-715.971 503.017,-710.252 501.398,-717.062"/>
</g>
<!-- Node12 -->
<g id="node12" class="node"><title>Node12</title>
<g id="a_node12"><a xlink:href="../../d0/def/class_vis.html#a076a53e422b5d120765e31efc8d241ed" target="_top" xlink:title=" ">
<polygon fill="white" stroke="black" points="495,-830 495,-849 611,-849 611,-830 495,-830"/>
<text text-anchor="middle" x="553" y="-837" font-family="Helvetica,sans-Serif" font-size="10.00">Vis::GetPolygonCenter</text>
</a>
</g>
</g>
<!-- Node6&#45;&gt;Node12 -->
<g id="edge13" class="edge"><title>Node6&#45;&gt;Node12</title>
<path fill="none" stroke="midnightblue" d="M377.408,-691.183C397.11,-709.424 441.345,-749.973 480,-782.5 496.871,-796.696 516.526,-812.189 531.034,-823.434"/>
<polygon fill="midnightblue" stroke="midnightblue" points="529.276,-826.499 539.331,-829.838 533.553,-820.957 529.276,-826.499"/>
</g>
<!-- Node15 -->
<g id="node15" class="node"><title>Node15</title>
<g id="a_node15"><a xlink:href="../../d0/def/class_vis.html#ad9141000db2ce36fd1675c317929b46b" target="_top" xlink:title=" ">
<polygon fill="white" stroke="black" points="498,-617.5 498,-647.5 608,-647.5 608,-617.5 498,-617.5"/>
<text text-anchor="start" x="506" y="-635.5" font-family="Helvetica,sans-Serif" font-size="10.00">Vis::PickIndoorFaces</text>
<text text-anchor="middle" x="553" y="-624.5" font-family="Helvetica,sans-Serif" font-size="10.00">_Mouse</text>
</a>
</g>
</g>
<!-- Node6&#45;&gt;Node15 -->
<g id="edge16" class="edge"><title>Node6&#45;&gt;Node15</title>
<path fill="none" stroke="midnightblue" d="M403.109,-671.936C427.189,-665.558 459.514,-656.996 487.891,-649.48"/>
<polygon fill="midnightblue" stroke="midnightblue" points="488.973,-652.814 497.744,-646.871 487.181,-646.048 488.973,-652.814"/>
</g>
<!-- Node29 -->
<g id="node29" class="node"><title>Node29</title>
<g id="a_node29"><a xlink:href="../../d0/def/class_vis.html#af1001095fa5d94588bc7b32a31587751" target="_top" xlink:title=" ">
<polygon fill="white" stroke="black" points="494,-453.5 494,-483.5 612,-483.5 612,-453.5 494,-453.5"/>
<text text-anchor="start" x="502" y="-471.5" font-family="Helvetica,sans-Serif" font-size="10.00">Vis::PickOutdoorFaces</text>
<text text-anchor="middle" x="553" y="-460.5" font-family="Helvetica,sans-Serif" font-size="10.00">_Mouse</text>
</a>
</g>
</g>
<!-- Node6&#45;&gt;Node29 -->
<g id="edge32" class="edge"><title>Node6&#45;&gt;Node29</title>
<path fill="none" stroke="midnightblue" d="M375.43,-671.794C403.17,-639.856 492.119,-537.444 532.149,-491.355"/>
<polygon fill="midnightblue" stroke="midnightblue" points="534.892,-493.535 538.807,-483.69 529.607,-488.945 534.892,-493.535"/>
</g>
<!-- Node6&#45;&gt;Node35 -->
<g id="edge44" class="edge"><title>Node6&#45;&gt;Node35</title>
<path fill="none" stroke="midnightblue" d="M382.957,-691.051C409.206,-706.65 460.523,-736.646 480,-744.5 485.98,-746.911 492.363,-749.104 498.764,-751.072"/>
<polygon fill="midnightblue" stroke="midnightblue" points="498.205,-754.554 508.784,-753.979 500.155,-747.832 498.205,-754.554"/>
</g>
<!-- Node8 -->
<g id="node8" class="node"><title>Node8</title>
<g id="a_node8"><a xlink:href="../../de/db6/_our_math_8cpp.html#a60e23493341fe2f31d154b9f2a14f1bd" target="_top" xlink:title=" ">
<polygon fill="white" stroke="black" points="697,-759 697,-778 792,-778 792,-759 697,-759"/>
<text text-anchor="middle" x="744.5" y="-766" font-family="Helvetica,sans-Serif" font-size="10.00">fixpoint_from_float</text>
</a>
</g>
</g>
<!-- Node7&#45;&gt;Node8 -->
<g id="edge7" class="edge"><title>Node7&#45;&gt;Node8</title>
<path fill="none" stroke="midnightblue" d="M596.056,-735.043C624.27,-741.445 661.624,-749.921 691.674,-756.74"/>
<polygon fill="midnightblue" stroke="midnightblue" points="691.035,-760.184 701.561,-758.984 692.584,-753.357 691.035,-760.184"/>
</g>
<!-- Node9 -->
<g id="node9" class="node"><title>Node9</title>
<g id="a_node9"><a xlink:href="../../de/dd4/_vis_8cpp.html#a4cb23e12d16fd52723821bd1bc5a5d5a" target="_top" xlink:title=" ">
<polygon fill="white" stroke="black" points="713,-617 713,-636 776,-636 776,-617 713,-617"/>
<text text-anchor="middle" x="744.5" y="-624" font-family="Helvetica,sans-Serif" font-size="10.00">UnprojectX</text>
</a>
</g>
</g>
<!-- Node7&#45;&gt;Node9 -->
<g id="edge8" class="edge"><title>Node7&#45;&gt;Node9</title>
<path fill="none" stroke="midnightblue" d="M600.239,-718.984C609.386,-716.187 618.475,-712.195 626,-706.5 651.102,-687.503 636.625,-664.131 662,-645.5 673.78,-636.851 688.885,-632.065 702.883,-629.442"/>
<polygon fill="midnightblue" stroke="midnightblue" points="703.477,-632.892 712.817,-627.89 702.397,-625.976 703.477,-632.892"/>
</g>
<!-- Node11 -->
<g id="node11" class="node"><title>Node11</title>
<g id="a_node11"><a xlink:href="../../de/dd4/_vis_8cpp.html#a71cda59bdbaef4739403550c80397f02" target="_top" xlink:title=" ">
<polygon fill="white" stroke="black" points="712,-579 712,-598 777,-598 777,-579 712,-579"/>
<text text-anchor="middle" x="744.5" y="-586" font-family="Helvetica,sans-Serif" font-size="10.00">UnprojectY</text>
</a>
</g>
</g>
<!-- Node7&#45;&gt;Node11 -->
<g id="edge10" class="edge"><title>Node7&#45;&gt;Node11</title>
<path fill="none" stroke="midnightblue" d="M600.344,-720.242C609.695,-717.376 618.84,-713.038 626,-706.5 660.574,-674.93 626.973,-638.566 662,-607.5 672.933,-597.803 687.857,-592.793 701.947,-590.284"/>
<polygon fill="midnightblue" stroke="midnightblue" points="702.578,-593.73 711.991,-588.868 701.6,-586.798 702.578,-593.73"/>
</g>
<!-- Node10 -->
<g id="node10" class="node"><title>Node10</title>
<g id="a_node10"><a xlink:href="../../d6/d38/structstru193__math.html#ae5c580a8915049b2fe00949acf3ca728" target="_top" xlink:title=" ">
<polygon fill="white" stroke="black" points="895,-579 895,-598 1002,-598 1002,-579 895,-579"/>
<text text-anchor="middle" x="948.5" y="-586" font-family="Helvetica,sans-Serif" font-size="10.00">stru193_math::Atan2</text>
</a>
</g>
</g>
<!-- Node9&#45;&gt;Node10 -->
<g id="edge9" class="edge"><title>Node9&#45;&gt;Node10</title>
<path fill="none" stroke="midnightblue" d="M776.179,-620.729C805.436,-615.225 850.32,-606.781 886.808,-599.917"/>
<polygon fill="midnightblue" stroke="midnightblue" points="887.676,-603.315 896.857,-598.027 886.382,-596.436 887.676,-603.315"/>
</g>
<!-- Node11&#45;&gt;Node10 -->
<g id="edge11" class="edge"><title>Node11&#45;&gt;Node10</title>
<path fill="none" stroke="midnightblue" d="M777.063,-588.5C805.744,-588.5 848.906,-588.5 884.618,-588.5"/>
<polygon fill="midnightblue" stroke="midnightblue" points="884.954,-592 894.954,-588.5 884.954,-585 884.954,-592"/>
</g>
<!-- Node13 -->
<g id="node13" class="node"><title>Node13</title>
<g id="a_node13"><a xlink:href="../../d0/def/class_vis.html#ace5cf06e96e881f9d2720c0a4b5d64db" target="_top" xlink:title=" ">
<polygon fill="white" stroke="black" points="690.5,-846 690.5,-865 798.5,-865 798.5,-846 690.5,-846"/>
<text text-anchor="middle" x="744.5" y="-853" font-family="Helvetica,sans-Serif" font-size="10.00">Vis::SortVerticesByX</text>
</a>
</g>
</g>
<!-- Node12&#45;&gt;Node13 -->
<g id="edge14" class="edge"><title>Node12&#45;&gt;Node13</title>
<path fill="none" stroke="midnightblue" d="M611.113,-844.322C632.944,-846.165 657.957,-848.277 680.321,-850.166"/>
<polygon fill="midnightblue" stroke="midnightblue" points="680.13,-853.662 690.389,-851.016 680.719,-846.687 680.13,-853.662"/>
</g>
<!-- Node14 -->
<g id="node14" class="node"><title>Node14</title>
<g id="a_node14"><a xlink:href="../../d0/def/class_vis.html#a25ef6f206dd8423a8304eecca4800532" target="_top" xlink:title=" ">
<polygon fill="white" stroke="black" points="689.5,-808 689.5,-827 799.5,-827 799.5,-808 689.5,-808"/>
<text text-anchor="middle" x="744.5" y="-815" font-family="Helvetica,sans-Serif" font-size="10.00">Vis::SortVerticesByY</text>
</a>
</g>
</g>
<!-- Node12&#45;&gt;Node14 -->
<g id="edge15" class="edge"><title>Node12&#45;&gt;Node14</title>
<path fill="none" stroke="midnightblue" d="M611.113,-832.869C632.66,-830.368 657.308,-827.506 679.449,-824.936"/>
<polygon fill="midnightblue" stroke="midnightblue" points="679.895,-828.408 689.425,-823.778 679.088,-821.455 679.895,-828.408"/>
</g>
<!-- Node16 -->
<g id="node16" class="node"><title>Node16</title>
<g id="a_node16"><a xlink:href="../../d0/def/class_vis.html#a8bf4d88639d359d6925eb3c9ee8d3e8a" target="_top" xlink:title=" ">
<polygon fill="white" stroke="black" points="682.5,-655 682.5,-674 806.5,-674 806.5,-655 682.5,-655"/>
<text text-anchor="middle" x="744.5" y="-662" font-family="Helvetica,sans-Serif" font-size="10.00">Vis::Intersect_Ray_Face</text>
</a>
</g>
</g>
<!-- Node15&#45;&gt;Node16 -->
<g id="edge17" class="edge"><title>Node15&#45;&gt;Node16</title>
<path fill="none" stroke="midnightblue" d="M608.049,-641.627C629.586,-645.264 654.586,-649.486 677.203,-653.305"/>
<polygon fill="midnightblue" stroke="midnightblue" points="676.625,-656.757 687.068,-654.971 677.79,-649.854 676.625,-656.757"/>
</g>
<!-- Node15&#45;&gt;Node24 -->
<g id="edge25" class="edge"><title>Node15&#45;&gt;Node24</title>
<path fill="none" stroke="midnightblue" d="M605.91,-617.343C613.357,-613.432 620.385,-608.558 626,-602.5 660.683,-565.084 624.339,-527.917 662,-493.5 665.566,-490.241 669.581,-487.508 673.867,-485.22"/>
<polygon fill="midnightblue" stroke="midnightblue" points="675.304,-488.411 682.991,-481.12 672.435,-482.026 675.304,-488.411"/>
</g>
<!-- Node26 -->
<g id="node26" class="node"><title>Node26</title>
<g id="a_node26"><a xlink:href="../../d9/de5/struct_indoor_camera_d3_d.html#ae05240c16f6b9c546984fff706e9ef24" target="_top" xlink:title=" ">
<polygon fill="white" stroke="black" points="676.5,-721 676.5,-740 812.5,-740 812.5,-721 676.5,-721"/>
<text text-anchor="middle" x="744.5" y="-728" font-family="Helvetica,sans-Serif" font-size="10.00">IndoorCameraD3D::IsCulled</text>
</a>
</g>
</g>
<!-- Node15&#45;&gt;Node26 -->
<g id="edge28" class="edge"><title>Node15&#45;&gt;Node26</title>
<path fill="none" stroke="midnightblue" d="M603.604,-647.579C611.261,-650.515 618.957,-653.835 626,-657.5 643.508,-666.611 645.43,-672.778 662,-683.5 679.883,-695.071 700.695,-707.049 716.812,-716.018"/>
<polygon fill="midnightblue" stroke="midnightblue" points="715.254,-719.156 725.701,-720.924 718.637,-713.027 715.254,-719.156"/>
</g>
<!-- Node28 -->
<g id="node28" class="node"><title>Node28</title>
<g id="a_node28"><a xlink:href="../../d9/de5/struct_indoor_camera_d3_d.html#a819c840787fde1b667c5477bafb21a62" target="_top" xlink:title=" ">
<polygon fill="white" stroke="black" points="662,-503 662,-522 827,-522 827,-503 662,-503"/>
<text text-anchor="middle" x="744.5" y="-510" font-family="Helvetica,sans-Serif" font-size="10.00">IndoorCameraD3D::ViewTransform</text>
</a>
</g>
</g>
<!-- Node15&#45;&gt;Node28 -->
<g id="edge31" class="edge"><title>Node15&#45;&gt;Node28</title>
<path fill="none" stroke="midnightblue" d="M603.136,-617.337C611.356,-613.372 619.359,-608.481 626,-602.5 650.829,-580.14 635.996,-557.482 662,-536.5 667.245,-532.268 673.213,-528.783 679.48,-525.911"/>
<polygon fill="midnightblue" stroke="midnightblue" points="680.869,-529.125 688.826,-522.129 678.243,-522.636 680.869,-529.125"/>
</g>
<!-- Node17 -->
<g id="node17" class="node"><title>Node17</title>
<g id="a_node17"><a xlink:href="../../d0/def/class_vis.html#a9dfa58c3c4c1a6cb597d11e174dbe138" target="_top" xlink:title=" ">
<polygon fill="white" stroke="black" points="881,-655 881,-674 1016,-674 1016,-655 881,-655"/>
<text text-anchor="middle" x="948.5" y="-662" font-family="Helvetica,sans-Serif" font-size="10.00">Vis::CheckIntersectBModel</text>
</a>
</g>
</g>
<!-- Node16&#45;&gt;Node17 -->
<g id="edge18" class="edge"><title>Node16&#45;&gt;Node17</title>
<path fill="none" stroke="midnightblue" d="M806.655,-664.5C826.813,-664.5 849.492,-664.5 870.667,-664.5"/>
<polygon fill="midnightblue" stroke="midnightblue" points="870.923,-668 880.923,-664.5 870.923,-661 870.923,-668"/>
</g>
<!-- Node22 -->
<g id="node22" class="node"><title>Node22</title>
<g id="a_node22"><a xlink:href="../../d9/ded/struct_b_l_v_face.html#aa4153fa3c2f23af1deb82914497d35e9" target="_top" xlink:title=" ">
<polygon fill="white" stroke="black" points="900,-617 900,-636 997,-636 997,-617 900,-617"/>
<text text-anchor="middle" x="948.5" y="-624" font-family="Helvetica,sans-Serif" font-size="10.00">BLVFace::Invisible</text>
</a>
</g>
</g>
<!-- Node16&#45;&gt;Node22 -->
<g id="edge23" class="edge"><title>Node16&#45;&gt;Node22</title>
<path fill="none" stroke="midnightblue" d="M796.212,-654.96C824.648,-649.611 860.223,-642.918 889.73,-637.368"/>
<polygon fill="midnightblue" stroke="midnightblue" points="890.712,-640.744 899.893,-635.456 889.418,-633.865 890.712,-640.744"/>
</g>
<!-- Node23 -->
<g id="node23" class="node"><title>Node23</title>
<g id="a_node23"><a xlink:href="../../d9/ded/struct_b_l_v_face.html#a844dd21df457421f6e527684d67a35db" target="_top" xlink:title=" ">
<polygon fill="white" stroke="black" points="1091,-737 1091,-756 1180,-756 1180,-737 1091,-737"/>
<text text-anchor="middle" x="1135.5" y="-744" font-family="Helvetica,sans-Serif" font-size="10.00">BLVFace::Portal</text>
</a>
</g>
</g>
<!-- Node16&#45;&gt;Node23 -->
<g id="edge24" class="edge"><title>Node16&#45;&gt;Node23</title>
<path fill="none" stroke="midnightblue" d="M795.649,-674.014C853.289,-685.08 950.671,-704.18 1034,-722.5 1050.98,-726.232 1069.5,-730.577 1085.96,-734.536"/>
<polygon fill="midnightblue" stroke="midnightblue" points="1085.38,-737.995 1095.92,-736.943 1087.02,-731.191 1085.38,-737.995"/>
</g>
<!-- Node18 -->
<g id="node18" class="node"><title>Node18</title>
<g id="a_node18"><a xlink:href="../../d0/def/class_vis.html#a48c1670f37f2e4930cafde40afdebe32" target="_top" xlink:title=" ">
<polygon fill="white" stroke="black" points="1072,-600.5 1072,-630.5 1199,-630.5 1199,-600.5 1072,-600.5"/>
<text text-anchor="start" x="1080" y="-618.5" font-family="Helvetica,sans-Serif" font-size="10.00">Vis::BLV_CreateIntersect</text>
<text text-anchor="middle" x="1135.5" y="-607.5" font-family="Helvetica,sans-Serif" font-size="10.00">FacesVertexCoordList</text>
</a>
</g>
</g>
<!-- Node17&#45;&gt;Node18 -->
<g id="edge19" class="edge"><title>Node17&#45;&gt;Node18</title>
<path fill="none" stroke="midnightblue" d="M994.808,-654.916C1007.53,-652.062 1021.34,-648.808 1034,-645.5 1047.89,-641.869 1062.76,-637.629 1076.69,-633.498"/>
<polygon fill="midnightblue" stroke="midnightblue" points="1078.06,-636.741 1086.64,-630.521 1076.05,-630.036 1078.06,-636.741"/>
</g>
<!-- Node19 -->
<g id="node19" class="node"><title>Node19</title>
<g id="a_node19"><a xlink:href="../../de/db6/_our_math_8cpp.html#a26d802a4465483f7c2f89657b75c9ebe" target="_top" xlink:title=" ">
<polygon fill="white" stroke="black" points="1103.5,-699 1103.5,-718 1167.5,-718 1167.5,-699 1103.5,-699"/>
<text text-anchor="middle" x="1135.5" y="-706" font-family="Helvetica,sans-Serif" font-size="10.00">fixpoint_div</text>
</a>
</g>
</g>
<!-- Node17&#45;&gt;Node19 -->
<g id="edge20" class="edge"><title>Node17&#45;&gt;Node19</title>
<path fill="none" stroke="midnightblue" d="M989.642,-674.047C1020.29,-681.337 1062.37,-691.345 1093.28,-698.697"/>
<polygon fill="midnightblue" stroke="midnightblue" points="1092.77,-702.172 1103.31,-701.081 1094.39,-695.362 1092.77,-702.172"/>
</g>
<!-- Node20 -->
<g id="node20" class="node"><title>Node20</title>
<g id="a_node20"><a xlink:href="../../de/db6/_our_math_8cpp.html#abc4811d26f9864e00046c39c39d65680" target="_top" xlink:title=" ">
<polygon fill="white" stroke="black" points="1101.5,-468 1101.5,-487 1169.5,-487 1169.5,-468 1101.5,-468"/>
<text text-anchor="middle" x="1135.5" y="-475" font-family="Helvetica,sans-Serif" font-size="10.00">fixpoint_mul</text>
</a>
</g>
</g>
<!-- Node17&#45;&gt;Node20 -->
<g id="edge21" class="edge"><title>Node17&#45;&gt;Node20</title>
<path fill="none" stroke="midnightblue" d="M1016.34,-654.971C1022.63,-652.485 1028.64,-649.379 1034,-645.5 1040.96,-640.463 1099.65,-538.529 1123.99,-495.944"/>
<polygon fill="midnightblue" stroke="midnightblue" points="1127.09,-497.567 1129.01,-487.147 1121.01,-494.097 1127.09,-497.567"/>
</g>
<!-- Node21 -->
<g id="node21" class="node"><title>Node21</title>
<g id="a_node21"><a xlink:href="../../d0/def/class_vis.html#a5f83bab17764d31ea2c12a1f925acec7" target="_top" xlink:title=" ">
<polygon fill="white" stroke="black" points="1070,-649.5 1070,-679.5 1201,-679.5 1201,-649.5 1070,-649.5"/>
<text text-anchor="start" x="1078" y="-667.5" font-family="Helvetica,sans-Serif" font-size="10.00">Vis::ODM_CreateIntersect</text>
<text text-anchor="middle" x="1135.5" y="-656.5" font-family="Helvetica,sans-Serif" font-size="10.00">FacesVertexCoordList</text>
</a>
</g>
</g>
<!-- Node17&#45;&gt;Node21 -->
<g id="edge22" class="edge"><title>Node17&#45;&gt;Node21</title>
<path fill="none" stroke="midnightblue" d="M1016.03,-664.5C1030.12,-664.5 1045.08,-664.5 1059.46,-664.5"/>
<polygon fill="midnightblue" stroke="midnightblue" points="1059.8,-668 1069.8,-664.5 1059.8,-661 1059.8,-668"/>
</g>
<!-- Node24&#45;&gt;Node3 -->
<g id="edge27" class="edge"><title>Node24&#45;&gt;Node3</title>
<path fill="none" stroke="midnightblue" d="M789.22,-484.044C801.491,-486.898 814.809,-490.162 827,-493.5 854.954,-501.154 886.151,-511.03 909.797,-518.795"/>
<polygon fill="midnightblue" stroke="midnightblue" points="908.844,-522.166 919.438,-521.981 911.041,-515.519 908.844,-522.166"/>
</g>
<!-- Node25 -->
<g id="node25" class="node"><title>Node25</title>
<g id="a_node25"><a xlink:href="../../d3/df5/struct_monster_stats.html#af740f33299fb75dc1dafe63bf58ef858" target="_top" xlink:title=" ">
<polygon fill="white" stroke="black" points="863,-465 863,-484 1034,-484 1034,-465 863,-465"/>
<text text-anchor="middle" x="948.5" y="-472" font-family="Helvetica,sans-Serif" font-size="10.00">MonsterStats::BelongsToSupertype</text>
</a>
</g>
</g>
<!-- Node24&#45;&gt;Node25 -->
<g id="edge26" class="edge"><title>Node24&#45;&gt;Node25</title>
<path fill="none" stroke="midnightblue" d="M806.107,-474.5C820.692,-474.5 836.623,-474.5 852.364,-474.5"/>
<polygon fill="midnightblue" stroke="midnightblue" points="852.664,-478 862.664,-474.5 852.664,-471 852.664,-478"/>
</g>
<!-- Node27 -->
<g id="node27" class="node"><title>Node27</title>
<g id="a_node27"><a xlink:href="../../d9/de5/struct_indoor_camera_d3_d.html#a1face139f0fdf27b7a9d9c1e0cbd210d" target="_top" xlink:title=" ">
<polygon fill="white" stroke="black" points="889,-731.5 889,-761.5 1008,-761.5 1008,-731.5 889,-731.5"/>
<text text-anchor="start" x="897" y="-749.5" font-family="Helvetica,sans-Serif" font-size="10.00">IndoorCameraD3D::is</text>
<text text-anchor="middle" x="948.5" y="-738.5" font-family="Helvetica,sans-Serif" font-size="10.00">_face_faced_to_camera</text>
</a>
</g>
</g>
<!-- Node26&#45;&gt;Node27 -->
<g id="edge29" class="edge"><title>Node26&#45;&gt;Node27</title>
<path fill="none" stroke="midnightblue" d="M812.763,-735.828C834.065,-737.515 857.629,-739.381 879.015,-741.075"/>
<polygon fill="midnightblue" stroke="midnightblue" points="878.75,-744.565 888.995,-741.866 879.302,-737.587 878.75,-744.565"/>
</g>
<!-- Node27&#45;&gt;Node23 -->
<g id="edge30" class="edge"><title>Node27&#45;&gt;Node23</title>
<path fill="none" stroke="midnightblue" d="M1008.04,-746.5C1031.26,-746.5 1057.8,-746.5 1080.55,-746.5"/>
<polygon fill="midnightblue" stroke="midnightblue" points="1080.72,-750 1090.72,-746.5 1080.72,-743 1080.72,-750"/>
</g>
<!-- Node29&#45;&gt;Node5 -->
<g id="edge33" class="edge"><title>Node29&#45;&gt;Node5</title>
<path fill="none" stroke="midnightblue" d="M608.314,-453.372C614.538,-450.571 620.585,-447.301 626,-443.5 672.828,-410.632 710.956,-354.124 730.109,-322.222"/>
<polygon fill="midnightblue" stroke="midnightblue" points="733.162,-323.935 735.216,-313.541 727.129,-320.385 733.162,-323.935"/>
</g>
<!-- Node29&#45;&gt;Node16 -->
<g id="edge35" class="edge"><title>Node29&#45;&gt;Node16</title>
<path fill="none" stroke="midnightblue" d="M561.312,-483.632C580.33,-522.403 631.953,-623.776 662,-645.5 665.444,-647.99 669.165,-650.159 673.054,-652.048"/>
<polygon fill="midnightblue" stroke="midnightblue" points="671.81,-655.321 682.385,-655.966 674.52,-648.867 671.81,-655.321"/>
</g>
<!-- Node29&#45;&gt;Node24 -->
<g id="edge36" class="edge"><title>Node29&#45;&gt;Node24</title>
<path fill="none" stroke="midnightblue" d="M612.144,-470.341C631.23,-470.945 652.657,-471.624 672.58,-472.255"/>
<polygon fill="midnightblue" stroke="midnightblue" points="672.736,-475.761 682.842,-472.579 672.957,-468.765 672.736,-475.761"/>
</g>
<!-- Node29&#45;&gt;Node28 -->
<g id="edge43" class="edge"><title>Node29&#45;&gt;Node28</title>
<path fill="none" stroke="midnightblue" d="M612.144,-482C637.771,-487.951 667.62,-494.881 692.382,-500.631"/>
<polygon fill="midnightblue" stroke="midnightblue" points="691.77,-504.082 702.303,-502.934 693.354,-497.263 691.77,-504.082"/>
</g>
<!-- Node30 -->
<g id="node30" class="node"><title>Node30</title>
<g id="a_node30"><a xlink:href="../../d9/ded/struct_b_l_v_face.html#ae4ff9cc8b3facb6b57845e28ca725468" target="_top" xlink:title=" ">
<polygon fill="white" stroke="black" points="690.5,-169 690.5,-188 798.5,-188 798.5,-169 690.5,-169"/>
<text text-anchor="middle" x="744.5" y="-176" font-family="Helvetica,sans-Serif" font-size="10.00">BLVFace::FromODM</text>
</a>
</g>
</g>
<!-- Node29&#45;&gt;Node30 -->
<g id="edge34" class="edge"><title>Node29&#45;&gt;Node30</title>
<path fill="none" stroke="midnightblue" d="M612.253,-454.796C617.422,-451.755 622.146,-448.039 626,-443.5 686.725,-371.985 611.694,-314.692 662,-235.5 673.874,-216.808 694.305,-202.539 711.74,-192.952"/>
<polygon fill="midnightblue" stroke="midnightblue" points="713.79,-195.831 721.044,-188.11 710.558,-189.622 713.79,-195.831"/>
</g>
<!-- Node31 -->
<g id="node31" class="node"><title>Node31</title>
<g id="a_node31"><a xlink:href="../../d2/dc7/_render_8cpp.html#a3d3bec0d1bb72234c6bacb63367b7c63" target="_top" xlink:title=" ">
<polygon fill="white" stroke="black" points="701.5,-245 701.5,-264 787.5,-264 787.5,-245 701.5,-245"/>
<text text-anchor="middle" x="744.5" y="-252" font-family="Helvetica,sans-Serif" font-size="10.00">IsBModelVisible</text>
</a>
</g>
</g>
<!-- Node29&#45;&gt;Node31 -->
<g id="edge37" class="edge"><title>Node29&#45;&gt;Node31</title>
<path fill="none" stroke="midnightblue" d="M612.082,-454.648C617.284,-451.635 622.062,-447.966 626,-443.5 677.078,-385.572 607.948,-328.664 662,-273.5 669.863,-265.475 680.412,-260.565 691.307,-257.62"/>
<polygon fill="midnightblue" stroke="midnightblue" points="692.316,-260.982 701.342,-255.434 690.827,-254.142 692.316,-260.982"/>
</g>
<!-- Node31&#45;&gt;Node20 -->
<g id="edge39" class="edge"><title>Node31&#45;&gt;Node20</title>
<path fill="none" stroke="midnightblue" d="M787.872,-259.534C801.018,-262.339 815.153,-266.705 827,-273.5 847.181,-285.074 844.919,-296.861 863,-311.5 944.484,-377.473 1054.35,-436.854 1105.75,-463.164"/>
<polygon fill="midnightblue" stroke="midnightblue" points="1104.43,-466.421 1114.93,-467.832 1107.6,-460.181 1104.43,-466.421"/>
</g>
<!-- Node32 -->
<g id="node32" class="node"><title>Node32</title>
<g id="a_node32"><a xlink:href="../../d6/d38/structstru193__math.html#a7a4a47e93ff200721e19681b71783c51" target="_top" xlink:title=" ">
<polygon fill="white" stroke="black" points="1086,-226 1086,-245 1185,-245 1185,-226 1086,-226"/>
<text text-anchor="middle" x="1135.5" y="-233" font-family="Helvetica,sans-Serif" font-size="10.00">stru193_math::Cos</text>
</a>
</g>
</g>
<!-- Node31&#45;&gt;Node32 -->
<g id="edge38" class="edge"><title>Node31&#45;&gt;Node32</title>
<path fill="none" stroke="midnightblue" d="M787.87,-252.43C857.504,-249.029 996.301,-242.25 1075.51,-238.381"/>
<polygon fill="midnightblue" stroke="midnightblue" points="1075.99,-241.862 1085.8,-237.879 1075.64,-234.871 1075.99,-241.862"/>
</g>
<!-- Node33 -->
<g id="node33" class="node"><title>Node33</title>
<g id="a_node33"><a xlink:href="../../d5/d2e/_vector_types_8cpp.html#a5eb2b4017143261b8e3f12f6c796a11c" target="_top" xlink:title=" ">
<polygon fill="white" stroke="black" points="894.5,-283 894.5,-302 1002.5,-302 1002.5,-283 894.5,-283"/>
<text text-anchor="middle" x="948.5" y="-290" font-family="Helvetica,sans-Serif" font-size="10.00">int_get_vector_length</text>
</a>
</g>
</g>
<!-- Node31&#45;&gt;Node33 -->
<g id="edge40" class="edge"><title>Node31&#45;&gt;Node33</title>
<path fill="none" stroke="midnightblue" d="M787.846,-262.466C816.553,-267.866 854.936,-275.087 886.872,-281.095"/>
<polygon fill="midnightblue" stroke="midnightblue" points="886.519,-284.59 896.994,-282.999 887.814,-277.71 886.519,-284.59"/>
</g>
<!-- Node34 -->
<g id="node34" class="node"><title>Node34</title>
<g id="a_node34"><a xlink:href="../../d6/d38/structstru193__math.html#a9bd57620c86e36d03d93f2306f8ab80a" target="_top" xlink:title=" ">
<polygon fill="white" stroke="black" points="900.5,-207 900.5,-226 996.5,-226 996.5,-207 900.5,-207"/>
<text text-anchor="middle" x="948.5" y="-214" font-family="Helvetica,sans-Serif" font-size="10.00">stru193_math::Sin</text>
</a>
</g>
</g>
<!-- Node31&#45;&gt;Node34 -->
<g id="edge41" class="edge"><title>Node31&#45;&gt;Node34</title>
<path fill="none" stroke="midnightblue" d="M787.846,-246.534C817.621,-240.933 857.805,-233.373 890.408,-227.24"/>
<polygon fill="midnightblue" stroke="midnightblue" points="891.083,-230.675 900.264,-225.386 889.789,-223.795 891.083,-230.675"/>
</g>
<!-- Node34&#45;&gt;Node32 -->
<g id="edge42" class="edge"><title>Node34&#45;&gt;Node32</title>
<path fill="none" stroke="midnightblue" d="M996.662,-221.344C1020.65,-223.808 1050.05,-226.827 1075.53,-229.444"/>
<polygon fill="midnightblue" stroke="midnightblue" points="1075.51,-232.959 1085.81,-230.5 1076.22,-225.996 1075.51,-232.959"/>
</g>
<!-- Node36&#45;&gt;Node5 -->
<g id="edge47" class="edge"><title>Node36&#45;&gt;Node5</title>
<path fill="none" stroke="midnightblue" d="M194.038,-527.391C195.074,-481.356 205.203,-342.455 288,-284.5 350.477,-240.768 577.165,-270.84 685.316,-288.36"/>
<polygon fill="midnightblue" stroke="midnightblue" points="684.968,-291.849 695.402,-290.013 686.1,-284.941 684.968,-291.849"/>
</g>
<!-- Node36&#45;&gt;Node24 -->
<g id="edge63" class="edge"><title>Node36&#45;&gt;Node24</title>
<path fill="none" stroke="midnightblue" d="M248.297,-536.864C330.246,-528.21 490.375,-510.731 626,-492.5 641.52,-490.414 658.162,-487.983 673.898,-485.595"/>
<polygon fill="midnightblue" stroke="midnightblue" points="674.732,-489.008 684.087,-484.036 673.673,-482.089 674.732,-489.008"/>
</g>
<!-- Node36&#45;&gt;Node26 -->
<g id="edge64" class="edge"><title>Node36&#45;&gt;Node26</title>
<path fill="none" stroke="midnightblue" d="M241.499,-557.563C245.391,-560.103 248.98,-563.06 252,-566.5 292.684,-612.843 247.579,-653.928 288,-700.5 348.821,-770.577 389.093,-763.9 480,-782.5 543.572,-795.507 565.525,-806.024 626,-782.5 646.229,-774.631 642.803,-759.629 662,-749.5 666.463,-747.145 671.216,-745.079 676.097,-743.268"/>
<polygon fill="midnightblue" stroke="midnightblue" points="677.227,-746.581 685.6,-740.088 675.006,-739.942 677.227,-746.581"/>
</g>
<!-- Node37 -->
<g id="node37" class="node"><title>Node37</title>
<g id="a_node37"><a xlink:href="../../d0/def/class_vis.html#af753604050dd8c033105bf7899ddf09a" target="_top" xlink:title=" ">
<polygon fill="white" stroke="black" points="288,-459 288,-478 444,-478 444,-459 288,-459"/>
<text text-anchor="middle" x="366" y="-466" font-family="Helvetica,sans-Serif" font-size="10.00">Vis::DetermineFacetIntersection</text>
</a>
</g>
</g>
<!-- Node36&#45;&gt;Node37 -->
<g id="edge48" class="edge"><title>Node36&#45;&gt;Node37</title>
<path fill="none" stroke="midnightblue" d="M229.017,-527.346C259.743,-514.05 304.02,-494.889 333.613,-482.083"/>
<polygon fill="midnightblue" stroke="midnightblue" points="335.258,-485.185 343.045,-478.001 332.478,-478.76 335.258,-485.185"/>
</g>
<!-- Node37&#45;&gt;Node2 -->
<g id="edge50" class="edge"><title>Node37&#45;&gt;Node2</title>
<path fill="none" stroke="midnightblue" d="M370.12,-478.389C380.448,-509.526 416.521,-606.498 480,-657.5 482.022,-659.125 484.159,-660.642 486.381,-662.057"/>
<polygon fill="midnightblue" stroke="midnightblue" points="484.873,-665.223 495.312,-667.033 488.28,-659.108 484.873,-665.223"/>
</g>
<!-- Node37&#45;&gt;Node7 -->
<g id="edge49" class="edge"><title>Node37&#45;&gt;Node7</title>
<path fill="none" stroke="midnightblue" d="M370.383,-478.263C384.645,-518.907 440.932,-674.074 480,-706.5 484.831,-710.51 490.42,-713.682 496.306,-716.19"/>
<polygon fill="midnightblue" stroke="midnightblue" points="495.138,-719.489 505.732,-719.609 497.525,-712.909 495.138,-719.489"/>
</g>
<!-- Node37&#45;&gt;Node15 -->
<g id="edge56" class="edge"><title>Node37&#45;&gt;Node15</title>
<path fill="none" stroke="midnightblue" d="M377.746,-478.026C406.665,-503.662 486.699,-574.612 527.46,-610.745"/>
<polygon fill="midnightblue" stroke="midnightblue" points="525.256,-613.469 535.061,-617.484 529.9,-608.231 525.256,-613.469"/>
</g>
<!-- Node37&#45;&gt;Node28 -->
<g id="edge62" class="edge"><title>Node37&#45;&gt;Node28</title>
<path fill="none" stroke="midnightblue" d="M405.473,-478.004C427.221,-483.041 454.986,-488.911 480,-492.5 536.719,-500.639 600.813,-505.596 651.585,-508.54"/>
<polygon fill="midnightblue" stroke="midnightblue" points="651.702,-512.052 661.883,-509.12 652.095,-505.063 651.702,-512.052"/>
</g>
<!-- Node37&#45;&gt;Node29 -->
<g id="edge57" class="edge"><title>Node37&#45;&gt;Node29</title>
<path fill="none" stroke="midnightblue" d="M444.117,-468.5C457.26,-468.5 470.829,-468.5 483.723,-468.5"/>
<polygon fill="midnightblue" stroke="midnightblue" points="483.897,-472 493.897,-468.5 483.897,-465 483.897,-472"/>
</g>
<!-- Node37&#45;&gt;Node35 -->
<g id="edge60" class="edge"><title>Node37&#45;&gt;Node35</title>
<path fill="none" stroke="midnightblue" d="M370.809,-478.136C389.9,-526.392 474.478,-739.656 480,-744.5 481.777,-746.059 483.667,-747.491 485.645,-748.809"/>
<polygon fill="midnightblue" stroke="midnightblue" points="484.36,-752.097 494.805,-753.874 487.747,-745.972 484.36,-752.097"/>
</g>
<!-- Node38 -->
<g id="node38" class="node"><title>Node38</title>
<g id="a_node38"><a xlink:href="../../d0/def/class_vis.html#ae7954e70b4aa1f2e6fe2aea110b2282e" target="_top" xlink:title=" ">
<polygon fill="white" stroke="black" points="480,-49.5 480,-79.5 626,-79.5 626,-49.5 480,-49.5"/>
<text text-anchor="start" x="488" y="-67.5" font-family="Helvetica,sans-Serif" font-size="10.00">Vis::GetPolygonScreenSpace</text>
<text text-anchor="middle" x="553" y="-56.5" font-family="Helvetica,sans-Serif" font-size="10.00">Center</text>
</a>
</g>
</g>
<!-- Node37&#45;&gt;Node38 -->
<g id="edge51" class="edge"><title>Node37&#45;&gt;Node38</title>
<path fill="none" stroke="midnightblue" d="M371.391,-458.912C394.746,-407.909 504.683,-167.83 540.61,-89.3737"/>
<polygon fill="midnightblue" stroke="midnightblue" points="544.006,-90.3646 544.987,-79.8153 537.641,-87.4501 544.006,-90.3646"/>
</g>
<!-- Node41 -->
<g id="node41" class="node"><title>Node41</title>
<g id="a_node41"><a xlink:href="../../d0/def/class_vis.html#aa8f2eb865108c7215a0812d12b2c7916" target="_top" xlink:title=" ">
<polygon fill="white" stroke="black" points="486.5,-0.5 486.5,-30.5 619.5,-30.5 619.5,-0.5 486.5,-0.5"/>
<text text-anchor="start" x="494.5" y="-18.5" font-family="Helvetica,sans-Serif" font-size="10.00">Vis::IsPolygonOccludedBy</text>
<text text-anchor="middle" x="553" y="-7.5" font-family="Helvetica,sans-Serif" font-size="10.00">Billboard</text>
</a>
</g>
</g>
<!-- Node37&#45;&gt;Node41 -->
<g id="edge54" class="edge"><title>Node37&#45;&gt;Node41</title>
<path fill="none" stroke="midnightblue" d="M368.282,-458.882C376.108,-401.476 419.149,-104.389 480,-39.5 480.913,-38.5269 481.866,-37.5932 482.854,-36.6973"/>
<polygon fill="midnightblue" stroke="midnightblue" points="485.16,-39.3435 491.06,-30.5437 480.96,-33.7433 485.16,-39.3435"/>
</g>
<!-- Node43 -->
<g id="node43" class="node"><title>Node43</title>
<g id="a_node43"><a xlink:href="../../d9/de5/struct_indoor_camera_d3_d.html#a32190b521a23e986e5b0b13098e4b114" target="_top" xlink:title=" ">
<polygon fill="white" stroke="black" points="487,-415 487,-434 619,-434 619,-415 487,-415"/>
<text text-anchor="middle" x="553" y="-422" font-family="Helvetica,sans-Serif" font-size="10.00">IndoorCameraD3D::Project</text>
</a>
</g>
</g>
<!-- Node37&#45;&gt;Node43 -->
<g id="edge58" class="edge"><title>Node37&#45;&gt;Node43</title>
<path fill="none" stroke="midnightblue" d="M407.142,-458.953C435.021,-452.322 472.362,-443.441 502.149,-436.357"/>
<polygon fill="midnightblue" stroke="midnightblue" points="503.017,-439.748 511.936,-434.029 501.398,-432.938 503.017,-439.748"/>
</g>
<!-- Node44 -->
<g id="node44" class="node"><title>Node44</title>
<g id="a_node44"><a xlink:href="../../de/d0c/struct_vis___selection_list.html#a2c08c5ed82599ad479d58ca2ff8bd146" target="_top" xlink:title=" ">
<polygon fill="white" stroke="black" points="504,-365.5 504,-395.5 602,-395.5 602,-365.5 504,-365.5"/>
<text text-anchor="start" x="512" y="-383.5" font-family="Helvetica,sans-Serif" font-size="10.00">Vis_SelectionList::</text>
<text text-anchor="middle" x="553" y="-372.5" font-family="Helvetica,sans-Serif" font-size="10.00">SelectionPointers</text>
</a>
</g>
</g>
<!-- Node37&#45;&gt;Node44 -->
<g id="edge59" class="edge"><title>Node37&#45;&gt;Node44</title>
<path fill="none" stroke="midnightblue" d="M382.277,-458.85C403.591,-445.653 443.722,-421.762 480,-405.5 484.905,-403.301 490.067,-401.171 495.28,-399.142"/>
<polygon fill="midnightblue" stroke="midnightblue" points="496.547,-402.405 504.675,-395.608 494.083,-395.853 496.547,-402.405"/>
</g>
<!-- Node45 -->
<g id="node45" class="node"><title>Node45</title>
<g id="a_node45"><a xlink:href="../../d0/def/class_vis.html#a4fb1cca299c071eade4041f08c210865" target="_top" xlink:title=" ">
<polygon fill="white" stroke="black" points="503.5,-327 503.5,-346 602.5,-346 602.5,-327 503.5,-327"/>
<text text-anchor="middle" x="553" y="-334" font-family="Helvetica,sans-Serif" font-size="10.00">Vis::SortVectors_x</text>
</a>
</g>
</g>
<!-- Node37&#45;&gt;Node45 -->
<g id="edge61" class="edge"><title>Node37&#45;&gt;Node45</title>
<path fill="none" stroke="midnightblue" d="M373.712,-458.942C389.565,-437.103 431.653,-383.291 480,-355.5 484.259,-353.052 488.84,-350.912 493.554,-349.042"/>
<polygon fill="midnightblue" stroke="midnightblue" points="495.096,-352.209 503.355,-345.573 492.76,-345.611 495.096,-352.209"/>
</g>
<!-- Node39 -->
<g id="node39" class="node"><title>Node39</title>
<g id="a_node39"><a xlink:href="../../d0/def/class_vis.html#a50886ca212a10a278c7b1cf5b9bd9315" target="_top" xlink:title=" ">
<polygon fill="white" stroke="black" points="679,-88 679,-107 810,-107 810,-88 679,-88"/>
<text text-anchor="middle" x="744.5" y="-95" font-family="Helvetica,sans-Serif" font-size="10.00">Vis::SortByScreenSpaceX</text>
</a>
</g>
</g>
<!-- Node38&#45;&gt;Node39 -->
<g id="edge52" class="edge"><title>Node38&#45;&gt;Node39</title>
<path fill="none" stroke="midnightblue" d="M626.182,-77.07C643.419,-80.0717 661.714,-83.2576 678.6,-86.1982"/>
<polygon fill="midnightblue" stroke="midnightblue" points="678.458,-89.726 688.91,-87.9936 679.659,-82.8298 678.458,-89.726"/>
</g>
<!-- Node40 -->
<g id="node40" class="node"><title>Node40</title>
<g id="a_node40"><a xlink:href="../../d0/def/class_vis.html#ae73bb8680cc08a50925d4dcb2ccc7c68" target="_top" xlink:title=" ">
<polygon fill="white" stroke="black" points="678.5,-50 678.5,-69 810.5,-69 810.5,-50 678.5,-50"/>
<text text-anchor="middle" x="744.5" y="-57" font-family="Helvetica,sans-Serif" font-size="10.00">Vis::SortByScreenSpaceY</text>
</a>
</g>
</g>
<!-- Node38&#45;&gt;Node40 -->
<g id="edge53" class="edge"><title>Node38&#45;&gt;Node40</title>
<path fill="none" stroke="midnightblue" d="M626.182,-62.5955C639.852,-62.2348 654.186,-61.8566 667.956,-61.4932"/>
<polygon fill="midnightblue" stroke="midnightblue" points="668.451,-64.9815 678.355,-61.2189 668.266,-57.9839 668.451,-64.9815"/>
</g>
<!-- Node42 -->
<g id="node42" class="node"><title>Node42</title>
<g id="a_node42"><a xlink:href="../../d0/def/class_vis.html#ae6237de913fa3fa9775fbcad7d1a4d40" target="_top" xlink:title=" ">
<polygon fill="white" stroke="black" points="670,-6 670,-25 819,-25 819,-6 670,-6"/>
<text text-anchor="middle" x="744.5" y="-13" font-family="Helvetica,sans-Serif" font-size="10.00">Vis::IsPointInsideD3DBillboard</text>
</a>
</g>
</g>
<!-- Node41&#45;&gt;Node42 -->
<g id="edge55" class="edge"><title>Node41&#45;&gt;Node42</title>
<path fill="none" stroke="midnightblue" d="M619.746,-15.5C632.609,-15.5 646.261,-15.5 659.621,-15.5"/>
<polygon fill="midnightblue" stroke="midnightblue" points="659.763,-19.0001 669.763,-15.5 659.763,-12.0001 659.763,-19.0001"/>
</g>
<!-- Node46&#45;&gt;Node5 -->
<g id="edge66" class="edge"><title>Node46&#45;&gt;Node5</title>
<path fill="none" stroke="midnightblue" d="M252.276,-213.093C355.271,-197.684 564.421,-172.213 626,-208.5 654.451,-225.266 636.349,-252.701 662,-273.5 668.933,-279.121 677.121,-283.481 685.59,-286.863"/>
<polygon fill="midnightblue" stroke="midnightblue" points="684.624,-290.233 695.218,-290.279 686.965,-283.637 684.624,-290.233"/>
</g>
<!-- Node46&#45;&gt;Node24 -->
<g id="edge69" class="edge"><title>Node46&#45;&gt;Node24</title>
<path fill="none" stroke="midnightblue" d="M252.334,-222.761C340.196,-225.764 508.676,-241.903 626,-317.5 680.465,-352.594 718.888,-422.277 735.019,-455.726"/>
<polygon fill="midnightblue" stroke="midnightblue" points="731.89,-457.296 739.303,-464.865 738.228,-454.325 731.89,-457.296"/>
</g>
<!-- Node46&#45;&gt;Node30 -->
<g id="edge68" class="edge"><title>Node46&#45;&gt;Node30</title>
<path fill="none" stroke="midnightblue" d="M204.598,-207.213C220.097,-186.359 251.146,-149.937 288,-135.5 427.872,-80.7054 478.083,-109.284 626,-135.5 657.255,-141.039 691.112,-154.265 714.418,-164.597"/>
<polygon fill="midnightblue" stroke="midnightblue" points="713.169,-167.874 723.721,-168.818 716.06,-161.499 713.169,-167.874"/>
</g>
<!-- Node46&#45;&gt;Node31 -->
<g id="edge70" class="edge"><title>Node46&#45;&gt;Node31</title>
<path fill="none" stroke="midnightblue" d="M213.988,-207.484C232.191,-194.814 260.371,-177.633 288,-170.5 433.453,-132.95 483.487,-122.996 626,-170.5 644.974,-176.825 645.803,-185.767 662,-197.5 681.821,-211.858 704.679,-227.792 721.134,-239.154"/>
<polygon fill="midnightblue" stroke="midnightblue" points="719.337,-242.166 729.557,-244.957 723.308,-236.401 719.337,-242.166"/>
</g>
<!-- Node46&#45;&gt;Node37 -->
<g id="edge67" class="edge"><title>Node46&#45;&gt;Node37</title>
<path fill="none" stroke="midnightblue" d="M204.439,-237.518C234.289,-280.459 319.926,-403.657 352.352,-450.305"/>
<polygon fill="midnightblue" stroke="midnightblue" points="349.679,-452.591 358.26,-458.804 355.427,-448.596 349.679,-452.591"/>
</g>
</g>
</svg>
