<?xml version="1.0" encoding="UTF-8" standalone="no"?>
<!DOCTYPE svg PUBLIC "-//W3C//DTD SVG 1.1//EN"
 "http://www.w3.org/Graphics/SVG/1.1/DTD/svg11.dtd">
<!-- Generated by graphviz version 2.38.0 (20140413.2041)
 -->
<!-- Title: Vis::PickOutdoorFaces_Mouse Pages: 1 -->
<!--zoomable 382 -->
<svg id="main" version="1.1" xmlns="http://www.w3.org/2000/svg" xmlns:xlink="http://www.w3.org/1999/xlink" xml:space="preserve" onload="init(evt)">
<style type="text/css"><![CDATA[
.edge:hover path { stroke: red; }
.edge:hover polygon { stroke: red; fill: red; }
]]></style>
<script type="text/javascript"><![CDATA[
var edges = document.getElementsByTagName('g');
if (edges && edges.length) {
  for (var i=0;i<edges.length;i++) {
    if (edges[i].id.substr(0,4)=='edge') {
      edges[i].setAttribute('class','edge');
    }
  }
}
]]></script>
        <defs>
                <circle id="rim" cx="0" cy="0" r="7"/>
                <circle id="rim2" cx="0" cy="0" r="3.5"/>
                <g id="zoomPlus">
                        <use xlink:href="#rim" fill="#404040">
                                <set attributeName="fill" to="#808080" begin="zoomplus.mouseover" end="zoomplus.mouseout"/>
                        </use>
                        <path d="M-4,0h8M0,-4v8" fill="none" stroke="white" stroke-width="1.5" pointer-events="none"/>
                </g>
                <g id="zoomMin">
                        <use xlink:href="#rim" fill="#404040">
                                <set attributeName="fill" to="#808080" begin="zoomminus.mouseover" end="zoomminus.mouseout"/>
                        </use>
                        <path d="M-4,0h8" fill="none" stroke="white" stroke-width="1.5" pointer-events="none"/>
                </g>
                <g id="dirArrow">
                        <path fill="none" stroke="white" stroke-width="1.5" d="M0,-3.0v7 M-2.5,-0.5L0,-3.0L2.5,-0.5"/>
                </g>
               <g id="resetDef">
                       <use xlink:href="#rim2" fill="#404040">
                               <set attributeName="fill" to="#808080" begin="reset.mouseover" end="reset.mouseout"/>
                       </use>
               </g>
        </defs>

<script type="text/javascript">
var viewWidth = 701;
var viewHeight = 382;
var sectionId = 'dynsection-16';
</script>
<script xlink:href="../../svgpan.js"/>
<svg id="graph" class="graph">
<g id="viewport">
<title>Vis::PickOutdoorFaces_Mouse</title>
<polygon fill="white" stroke="none" points="-4,4 -4,-377.5 697,-377.5 697,4 -4,4"/>
<!-- Node1 -->
<g id="node1" class="node"><title>Node1</title>
<g id="a_node1"><a xlink:title=" ">
<polygon fill="#bfbfbf" stroke="black" points="0,-204 0,-234 118,-234 118,-204 0,-204"/>
<text text-anchor="start" x="8" y="-222" font-family="Helvetica,sans-Serif" font-size="10.00">Vis::PickOutdoorFaces</text>
<text text-anchor="middle" x="59" y="-211" font-family="Helvetica,sans-Serif" font-size="10.00">_Mouse</text>
</a>
</g>
</g>
<!-- Node2 -->
<g id="node2" class="node"><title>Node2</title>
<g id="a_node2"><a xlink:href="../../de/d0c/struct_vis___selection_list.html#a98a278dcbeb54ceca2c997f2dc7ea580" target="_top" xlink:title=" ">
<polygon fill="white" stroke="black" points="187.5,-305 187.5,-335 285.5,-335 285.5,-305 187.5,-305"/>
<text text-anchor="start" x="195.5" y="-323" font-family="Helvetica,sans-Serif" font-size="10.00">Vis_SelectionList::</text>
<text text-anchor="middle" x="236.5" y="-312" font-family="Helvetica,sans-Serif" font-size="10.00">AddObject</text>
</a>
</g>
</g>
<!-- Node1&#45;&gt;Node2 -->
<g id="edge1" class="edge"><title>Node1&#45;&gt;Node2</title>
<path fill="none" stroke="midnightblue" d="M74.9644,-234.203C92.4829,-251.216 123.057,-278.544 154,-295 161.42,-298.946 169.557,-302.371 177.73,-305.313"/>
<polygon fill="midnightblue" stroke="midnightblue" points="176.704,-308.661 187.298,-308.546 178.945,-302.029 176.704,-308.661"/>
</g>
<!-- Node3 -->
<g id="node3" class="node"><title>Node3</title>
<g id="a_node3"><a xlink:href="../../d9/ded/struct_b_l_v_face.html#ae4ff9cc8b3facb6b57845e28ca725468" target="_top" xlink:title=" ">
<polygon fill="white" stroke="black" points="182.5,-266.5 182.5,-285.5 290.5,-285.5 290.5,-266.5 182.5,-266.5"/>
<text text-anchor="middle" x="236.5" y="-273.5" font-family="Helvetica,sans-Serif" font-size="10.00">BLVFace::FromODM</text>
</a>
</g>
</g>
<!-- Node1&#45;&gt;Node3 -->
<g id="edge2" class="edge"><title>Node1&#45;&gt;Node3</title>
<path fill="none" stroke="midnightblue" d="M93.4738,-234.007C111.218,-241.584 133.526,-250.518 154,-257 162.064,-259.553 170.675,-261.927 179.168,-264.072"/>
<polygon fill="midnightblue" stroke="midnightblue" points="178.498,-267.512 189.043,-266.482 180.158,-260.711 178.498,-267.512"/>
</g>
<!-- Node4 -->
<g id="node4" class="node"><title>Node4</title>
<g id="a_node4"><a xlink:href="../../d0/def/class_vis.html#a8bf4d88639d359d6925eb3c9ee8d3e8a" target="_top" xlink:title=" ">
<polygon fill="white" stroke="black" points="174.5,-228.5 174.5,-247.5 298.5,-247.5 298.5,-228.5 174.5,-228.5"/>
<text text-anchor="middle" x="236.5" y="-235.5" font-family="Helvetica,sans-Serif" font-size="10.00">Vis::Intersect_Ray_Face</text>
</a>
</g>
</g>
<!-- Node1&#45;&gt;Node4 -->
<g id="edge3" class="edge"><title>Node1&#45;&gt;Node4</title>
<path fill="none" stroke="midnightblue" d="M118.439,-225.327C133.022,-226.906 148.825,-228.616 163.962,-230.255"/>
<polygon fill="midnightblue" stroke="midnightblue" points="163.992,-233.779 174.311,-231.376 164.746,-226.819 163.992,-233.779"/>
</g>
<!-- Node12 -->
<g id="node12" class="node"><title>Node12</title>
<g id="a_node12"><a xlink:href="../../d0/def/class_vis.html#ae343e0a8b4ada6a717b217b15fc975ea" target="_top" xlink:title=" ">
<polygon fill="white" stroke="black" points="175,-190.5 175,-209.5 298,-209.5 298,-190.5 175,-190.5"/>
<text text-anchor="middle" x="236.5" y="-197.5" font-family="Helvetica,sans-Serif" font-size="10.00">Vis::is_part_of_selection</text>
</a>
</g>
</g>
<!-- Node1&#45;&gt;Node12 -->
<g id="edge11" class="edge"><title>Node1&#45;&gt;Node12</title>
<path fill="none" stroke="midnightblue" d="M118.439,-212.673C133.326,-211.062 149.484,-209.312 164.907,-207.643"/>
<polygon fill="midnightblue" stroke="midnightblue" points="165.35,-211.115 174.915,-206.559 164.596,-204.156 165.35,-211.115"/>
</g>
<!-- Node15 -->
<g id="node15" class="node"><title>Node15</title>
<g id="a_node15"><a xlink:href="../../d2/dc7/_render_8cpp.html#a3d3bec0d1bb72234c6bacb63367b7c63" target="_top" xlink:title=" ">
<polygon fill="white" stroke="black" points="193.5,-95.5 193.5,-114.5 279.5,-114.5 279.5,-95.5 193.5,-95.5"/>
<text text-anchor="middle" x="236.5" y="-102.5" font-family="Helvetica,sans-Serif" font-size="10.00">IsBModelVisible</text>
</a>
</g>
</g>
<!-- Node1&#45;&gt;Node15 -->
<g id="edge14" class="edge"><title>Node1&#45;&gt;Node15</title>
<path fill="none" stroke="midnightblue" d="M83.305,-203.862C116.885,-182.049 178.526,-142.009 212.138,-120.175"/>
<polygon fill="midnightblue" stroke="midnightblue" points="214.349,-122.913 220.828,-114.53 210.536,-117.043 214.349,-122.913"/>
</g>
<!-- Node19 -->
<g id="node19" class="node"><title>Node19</title>
<g id="a_node19"><a xlink:href="../../d9/de5/struct_indoor_camera_d3_d.html#a819c840787fde1b667c5477bafb21a62" target="_top" xlink:title=" ">
<polygon fill="white" stroke="black" points="154,-57.5 154,-76.5 319,-76.5 319,-57.5 154,-57.5"/>
<text text-anchor="middle" x="236.5" y="-64.5" font-family="Helvetica,sans-Serif" font-size="10.00">IndoorCameraD3D::ViewTransform</text>
</a>
</g>
</g>
<!-- Node1&#45;&gt;Node19 -->
<g id="edge20" class="edge"><title>Node1&#45;&gt;Node19</title>
<path fill="none" stroke="midnightblue" d="M66.2423,-203.901C78.6045,-175.966 108.959,-116.307 154,-86 157.074,-83.9317 160.344,-82.087 163.741,-80.4418"/>
<polygon fill="midnightblue" stroke="midnightblue" points="165.132,-83.6536 172.98,-76.5362 162.406,-77.2059 165.132,-83.6536"/>
</g>
<!-- Node5 -->
<g id="node5" class="node"><title>Node5</title>
<g id="a_node5"><a xlink:href="../../d0/def/class_vis.html#a9dfa58c3c4c1a6cb597d11e174dbe138" target="_top" xlink:title=" ">
<polygon fill="white" stroke="black" points="373,-304.5 373,-323.5 508,-323.5 508,-304.5 373,-304.5"/>
<text text-anchor="middle" x="440.5" y="-311.5" font-family="Helvetica,sans-Serif" font-size="10.00">Vis::CheckIntersectBModel</text>
</a>
</g>
</g>
<!-- Node4&#45;&gt;Node5 -->
<g id="edge4" class="edge"><title>Node4&#45;&gt;Node5</title>
<path fill="none" stroke="midnightblue" d="M296.939,-247.53C304.634,-249.995 312.194,-253.097 319,-257 339.181,-268.574 334.774,-283.505 355,-295 358.93,-297.233 363.102,-299.204 367.406,-300.944"/>
<polygon fill="midnightblue" stroke="midnightblue" points="366.399,-304.301 376.993,-304.393 368.768,-297.714 366.399,-304.301"/>
</g>
<!-- Node10 -->
<g id="node10" class="node"><title>Node10</title>
<g id="a_node10"><a xlink:href="../../d9/ded/struct_b_l_v_face.html#aa4153fa3c2f23af1deb82914497d35e9" target="_top" xlink:title=" ">
<polygon fill="white" stroke="black" points="392,-266.5 392,-285.5 489,-285.5 489,-266.5 392,-266.5"/>
<text text-anchor="middle" x="440.5" y="-273.5" font-family="Helvetica,sans-Serif" font-size="10.00">BLVFace::Invisible</text>
</a>
</g>
</g>
<!-- Node4&#45;&gt;Node10 -->
<g id="edge9" class="edge"><title>Node4&#45;&gt;Node10</title>
<path fill="none" stroke="midnightblue" d="M288.212,-247.54C316.648,-252.889 352.223,-259.582 381.73,-265.132"/>
<polygon fill="midnightblue" stroke="midnightblue" points="381.418,-268.635 391.893,-267.044 382.712,-261.756 381.418,-268.635"/>
</g>
<!-- Node11 -->
<g id="node11" class="node"><title>Node11</title>
<g id="a_node11"><a xlink:href="../../d9/ded/struct_b_l_v_face.html#a844dd21df457421f6e527684d67a35db" target="_top" xlink:title=" ">
<polygon fill="white" stroke="black" points="396,-228.5 396,-247.5 485,-247.5 485,-228.5 396,-228.5"/>
<text text-anchor="middle" x="440.5" y="-235.5" font-family="Helvetica,sans-Serif" font-size="10.00">BLVFace::Portal</text>
</a>
</g>
</g>
<!-- Node4&#45;&gt;Node11 -->
<g id="edge10" class="edge"><title>Node4&#45;&gt;Node11</title>
<path fill="none" stroke="midnightblue" d="M298.655,-238C326.333,-238 358.766,-238 385.528,-238"/>
<polygon fill="midnightblue" stroke="midnightblue" points="385.861,-241.5 395.861,-238 385.861,-234.5 385.861,-241.5"/>
</g>
<!-- Node6 -->
<g id="node6" class="node"><title>Node6</title>
<g id="a_node6"><a xlink:href="../../d0/def/class_vis.html#a48c1670f37f2e4930cafde40afdebe32" target="_top" xlink:title=" ">
<polygon fill="white" stroke="black" points="564,-343 564,-373 691,-373 691,-343 564,-343"/>
<text text-anchor="start" x="572" y="-361" font-family="Helvetica,sans-Serif" font-size="10.00">Vis::BLV_CreateIntersect</text>
<text text-anchor="middle" x="627.5" y="-350" font-family="Helvetica,sans-Serif" font-size="10.00">FacesVertexCoordList</text>
</a>
</g>
</g>
<!-- Node5&#45;&gt;Node6 -->
<g id="edge5" class="edge"><title>Node5&#45;&gt;Node6</title>
<path fill="none" stroke="midnightblue" d="M481.642,-323.547C502.751,-328.568 529.283,-334.878 553.855,-340.722"/>
<polygon fill="midnightblue" stroke="midnightblue" points="553.341,-344.198 563.88,-343.106 554.961,-337.388 553.341,-344.198"/>
</g>
<!-- Node7 -->
<g id="node7" class="node"><title>Node7</title>
<g id="a_node7"><a xlink:href="../../de/db6/_our_math_8cpp.html#a26d802a4465483f7c2f89657b75c9ebe" target="_top" xlink:title=" ">
<polygon fill="white" stroke="black" points="595.5,-304.5 595.5,-323.5 659.5,-323.5 659.5,-304.5 595.5,-304.5"/>
<text text-anchor="middle" x="627.5" y="-311.5" font-family="Helvetica,sans-Serif" font-size="10.00">fixpoint_div</text>
</a>
</g>
</g>
<!-- Node5&#45;&gt;Node7 -->
<g id="edge6" class="edge"><title>Node5&#45;&gt;Node7</title>
<path fill="none" stroke="midnightblue" d="M508.028,-314C533.783,-314 562.461,-314 585.15,-314"/>
<polygon fill="midnightblue" stroke="midnightblue" points="585.444,-317.5 595.444,-314 585.444,-310.5 585.444,-317.5"/>
</g>
<!-- Node8 -->
<g id="node8" class="node"><title>Node8</title>
<g id="a_node8"><a xlink:href="../../de/db6/_our_math_8cpp.html#abc4811d26f9864e00046c39c39d65680" target="_top" xlink:title=" ">
<polygon fill="white" stroke="black" points="593.5,-133.5 593.5,-152.5 661.5,-152.5 661.5,-133.5 593.5,-133.5"/>
<text text-anchor="middle" x="627.5" y="-140.5" font-family="Helvetica,sans-Serif" font-size="10.00">fixpoint_mul</text>
</a>
</g>
</g>
<!-- Node5&#45;&gt;Node8 -->
<g id="edge7" class="edge"><title>Node5&#45;&gt;Node8</title>
<path fill="none" stroke="midnightblue" d="M507.734,-304.385C514.208,-301.921 520.43,-298.842 526,-295 532.482,-290.529 589.685,-201.05 614.782,-161.512"/>
<polygon fill="midnightblue" stroke="midnightblue" points="618.022,-162.938 620.421,-152.618 612.11,-159.19 618.022,-162.938"/>
</g>
<!-- Node9 -->
<g id="node9" class="node"><title>Node9</title>
<g id="a_node9"><a xlink:href="../../d0/def/class_vis.html#a5f83bab17764d31ea2c12a1f925acec7" target="_top" xlink:title=" ">
<polygon fill="white" stroke="black" points="562,-255 562,-285 693,-285 693,-255 562,-255"/>
<text text-anchor="start" x="570" y="-273" font-family="Helvetica,sans-Serif" font-size="10.00">Vis::ODM_CreateIntersect</text>
<text text-anchor="middle" x="627.5" y="-262" font-family="Helvetica,sans-Serif" font-size="10.00">FacesVertexCoordList</text>
</a>
</g>
</g>
<!-- Node5&#45;&gt;Node9 -->
<g id="edge8" class="edge"><title>Node5&#45;&gt;Node9</title>
<path fill="none" stroke="midnightblue" d="M484.965,-304.425C498.159,-301.465 512.685,-298.153 526,-295 536.077,-292.614 546.706,-290.036 557.129,-287.474"/>
<polygon fill="midnightblue" stroke="midnightblue" points="558.165,-290.823 567.035,-285.029 556.487,-284.027 558.165,-290.823"/>
</g>
<!-- Node13 -->
<g id="node13" class="node"><title>Node13</title>
<g id="a_node13"><a xlink:href="../../d3/df5/struct_monster_stats.html#af740f33299fb75dc1dafe63bf58ef858" target="_top" xlink:title=" ">
<polygon fill="white" stroke="black" points="355,-190.5 355,-209.5 526,-209.5 526,-190.5 355,-190.5"/>
<text text-anchor="middle" x="440.5" y="-197.5" font-family="Helvetica,sans-Serif" font-size="10.00">MonsterStats::BelongsToSupertype</text>
</a>
</g>
</g>
<!-- Node12&#45;&gt;Node13 -->
<g id="edge12" class="edge"><title>Node12&#45;&gt;Node13</title>
<path fill="none" stroke="midnightblue" d="M298.107,-200C312.692,-200 328.623,-200 344.364,-200"/>
<polygon fill="midnightblue" stroke="midnightblue" points="344.664,-203.5 354.664,-200 344.664,-196.5 344.664,-203.5"/>
</g>
<!-- Node14 -->
<g id="node14" class="node"><title>Node14</title>
<g id="a_node14"><a xlink:href="../../d6/d70/class_log.html#ac0de2621497ca3b2fbf208624c08bcdf" target="_top" xlink:title=" ">
<polygon fill="white" stroke="black" points="403.5,-152.5 403.5,-171.5 477.5,-171.5 477.5,-152.5 403.5,-152.5"/>
<text text-anchor="middle" x="440.5" y="-159.5" font-family="Helvetica,sans-Serif" font-size="10.00">Log::Warning</text>
</a>
</g>
</g>
<!-- Node12&#45;&gt;Node14 -->
<g id="edge13" class="edge"><title>Node12&#45;&gt;Node14</title>
<path fill="none" stroke="midnightblue" d="M288.212,-190.46C320.447,-184.396 361.856,-176.606 393.201,-170.71"/>
<polygon fill="midnightblue" stroke="midnightblue" points="394.236,-174.076 403.417,-168.788 392.942,-167.197 394.236,-174.076"/>
</g>
<!-- Node15&#45;&gt;Node8 -->
<g id="edge16" class="edge"><title>Node15&#45;&gt;Node8</title>
<path fill="none" stroke="midnightblue" d="M279.87,-109.139C354.44,-116.423 508.325,-131.456 583.405,-138.79"/>
<polygon fill="midnightblue" stroke="midnightblue" points="583.166,-142.283 593.459,-139.772 583.847,-135.317 583.166,-142.283"/>
</g>
<!-- Node16 -->
<g id="node16" class="node"><title>Node16</title>
<g id="a_node16"><a xlink:href="../../d6/d38/structstru193__math.html#a7a4a47e93ff200721e19681b71783c51" target="_top" xlink:title=" ">
<polygon fill="white" stroke="black" points="578,-57.5 578,-76.5 677,-76.5 677,-57.5 578,-57.5"/>
<text text-anchor="middle" x="627.5" y="-64.5" font-family="Helvetica,sans-Serif" font-size="10.00">stru193_math::Cos</text>
</a>
</g>
</g>
<!-- Node15&#45;&gt;Node16 -->
<g id="edge15" class="edge"><title>Node15&#45;&gt;Node16</title>
<path fill="none" stroke="midnightblue" d="M279.87,-100.861C349.504,-94.0587 488.301,-80.5002 567.506,-72.7629"/>
<polygon fill="midnightblue" stroke="midnightblue" points="568.19,-76.2128 577.803,-71.7571 567.51,-69.246 568.19,-76.2128"/>
</g>
<!-- Node17 -->
<g id="node17" class="node"><title>Node17</title>
<g id="a_node17"><a xlink:href="../../d5/d2e/_vector_types_8cpp.html#a5eb2b4017143261b8e3f12f6c796a11c" target="_top" xlink:title=" ">
<polygon fill="white" stroke="black" points="386.5,-38.5 386.5,-57.5 494.5,-57.5 494.5,-38.5 386.5,-38.5"/>
<text text-anchor="middle" x="440.5" y="-45.5" font-family="Helvetica,sans-Serif" font-size="10.00">int_get_vector_length</text>
</a>
</g>
</g>
<!-- Node15&#45;&gt;Node17 -->
<g id="edge17" class="edge"><title>Node15&#45;&gt;Node17</title>
<path fill="none" stroke="midnightblue" d="M279.686,-96.3643C292.42,-93.4367 306.369,-89.9067 319,-86 335.401,-80.9273 338.725,-77.4624 355,-72 367.321,-67.8648 380.802,-63.8232 393.307,-60.2711"/>
<polygon fill="midnightblue" stroke="midnightblue" points="394.398,-63.6003 403.085,-57.5349 392.511,-56.8593 394.398,-63.6003"/>
</g>
<!-- Node18 -->
<g id="node18" class="node"><title>Node18</title>
<g id="a_node18"><a xlink:href="../../d6/d38/structstru193__math.html#a9bd57620c86e36d03d93f2306f8ab80a" target="_top" xlink:title=" ">
<polygon fill="white" stroke="black" points="392.5,-0.5 392.5,-19.5 488.5,-19.5 488.5,-0.5 392.5,-0.5"/>
<text text-anchor="middle" x="440.5" y="-7.5" font-family="Helvetica,sans-Serif" font-size="10.00">stru193_math::Sin</text>
</a>
</g>
</g>
<!-- Node15&#45;&gt;Node18 -->
<g id="edge18" class="edge"><title>Node15&#45;&gt;Node18</title>
<path fill="none" stroke="midnightblue" d="M279.894,-101.485C293.332,-98.7772 307.634,-94.0843 319,-86 343.416,-68.633 330.515,-46.2709 355,-29 363.202,-23.2147 372.871,-19.1546 382.685,-16.3134"/>
<polygon fill="midnightblue" stroke="midnightblue" points="383.647,-19.6809 392.499,-13.8596 381.949,-12.8899 383.647,-19.6809"/>
</g>
<!-- Node18&#45;&gt;Node16 -->
<g id="edge19" class="edge"><title>Node18&#45;&gt;Node16</title>
<path fill="none" stroke="midnightblue" d="M488.734,-19.3922C500.961,-22.1578 514.046,-25.4153 526,-29 549.386,-36.0127 575.13,-45.7879 594.707,-53.6676"/>
<polygon fill="midnightblue" stroke="midnightblue" points="593.479,-56.9466 604.061,-57.4767 596.119,-50.4635 593.479,-56.9466"/>
</g>
</g>
</svg>
        <g id="navigator" transform="translate(0 0)" fill="#404254">
                <rect fill="#f2f5e9" fill-opacity="0.5" stroke="#606060" stroke-width=".5" x="0" y="0" width="60" height="60"/>
                <use id="zoomplus" xlink:href="#zoomPlus" x="17" y="9" onmousedown="handleZoom(evt,'in')"/>
                <use id="zoomminus" xlink:href="#zoomMin" x="42" y="9" onmousedown="handleZoom(evt,'out')"/>
                <use id="reset" xlink:href="#resetDef" x="30" y="36" onmousedown="handleReset()"/>
                <g id="arrowUp" xlink:href="#dirArrow" transform="translate(30 24)" onmousedown="handlePan(0,-1)">
                  <use xlink:href="#rim" fill="#404040">
                        <set attributeName="fill" to="#808080" begin="arrowUp.mouseover" end="arrowUp.mouseout"/>
                  </use>
                  <path fill="none" stroke="white" stroke-width="1.5" d="M0,-3.0v7 M-2.5,-0.5L0,-3.0L2.5,-0.5"/>
                </g>
                <g id="arrowRight" xlink:href="#dirArrow" transform="rotate(90) translate(36 -43)" onmousedown="handlePan(1,0)">
                  <use xlink:href="#rim" fill="#404040">
                        <set attributeName="fill" to="#808080" begin="arrowRight.mouseover" end="arrowRight.mouseout"/>
                  </use>
                  <path fill="none" stroke="white" stroke-width="1.5" d="M0,-3.0v7 M-2.5,-0.5L0,-3.0L2.5,-0.5"/>
                </g>
                <g id="arrowDown" xlink:href="#dirArrow" transform="rotate(180) translate(-30 -48)" onmousedown="handlePan(0,1)">
                  <use xlink:href="#rim" fill="#404040">
                        <set attributeName="fill" to="#808080" begin="arrowDown.mouseover" end="arrowDown.mouseout"/>
                  </use>
                  <path fill="none" stroke="white" stroke-width="1.5" d="M0,-3.0v7 M-2.5,-0.5L0,-3.0L2.5,-0.5"/>
                </g>
                <g id="arrowLeft" xlink:href="#dirArrow" transform="rotate(270) translate(-36 17)" onmousedown="handlePan(-1,0)">
                  <use xlink:href="#rim" fill="#404040">
                        <set attributeName="fill" to="#808080" begin="arrowLeft.mouseover" end="arrowLeft.mouseout"/>
                  </use>
                  <path fill="none" stroke="white" stroke-width="1.5" d="M0,-3.0v7 M-2.5,-0.5L0,-3.0L2.5,-0.5"/>
                </g>
        </g>
        <svg viewBox="0 0 15 15" width="100%" height="30px" preserveAspectRatio="xMaxYMin meet">
         <g id="arrow_out" transform="scale(0.3 0.3)">
          <a xlink:href="class_vis_af1001095fa5d94588bc7b32a31587751_cgraph_org.svg" target="_base">
           <rect id="button" ry="5" rx="5" y="6" x="6" height="38" width="38"
                fill="#f2f5e9" fill-opacity="0.5" stroke="#606060" stroke-width="1.0"/>
           <path id="arrow"
             d="M 11.500037,31.436501 C 11.940474,20.09759 22.043105,11.32322 32.158766,21.979434 L 37.068811,17.246167 C 37.068811,17.246167 37.088388,32 37.088388,32 L 22.160133,31.978069 C 22.160133,31.978069 26.997745,27.140456 26.997745,27.140456 C 18.528582,18.264221 13.291696,25.230495 11.500037,31.436501 z"
             style="fill:#404040;"/>
          </a>
         </g>
        </svg>
</svg>
