<?xml version="1.0" encoding="UTF-8" standalone="no"?>
<!DOCTYPE svg PUBLIC "-//W3C//DTD SVG 1.1//EN"
 "http://www.w3.org/Graphics/SVG/1.1/DTD/svg11.dtd">
<!-- Generated by graphviz version 2.38.0 (20140413.2041)
 -->
<!-- Title: Vis::PickBillboards_Keyboard Pages: 1 -->
<!--zoomable 96 -->
<svg id="main" version="1.1" xmlns="http://www.w3.org/2000/svg" xmlns:xlink="http://www.w3.org/1999/xlink" xml:space="preserve" onload="init(evt)">
<style type="text/css"><![CDATA[
.edge:hover path { stroke: red; }
.edge:hover polygon { stroke: red; fill: red; }
]]></style>
<script type="text/javascript"><![CDATA[
var edges = document.getElementsByTagName('g');
if (edges && edges.length) {
  for (var i=0;i<edges.length;i++) {
    if (edges[i].id.substr(0,4)=='edge') {
      edges[i].setAttribute('class','edge');
    }
  }
}
]]></script>
        <defs>
                <circle id="rim" cx="0" cy="0" r="7"/>
                <circle id="rim2" cx="0" cy="0" r="3.5"/>
                <g id="zoomPlus">
                        <use xlink:href="#rim" fill="#404040">
                                <set attributeName="fill" to="#808080" begin="zoomplus.mouseover" end="zoomplus.mouseout"/>
                        </use>
                        <path d="M-4,0h8M0,-4v8" fill="none" stroke="white" stroke-width="1.5" pointer-events="none"/>
                </g>
                <g id="zoomMin">
                        <use xlink:href="#rim" fill="#404040">
                                <set attributeName="fill" to="#808080" begin="zoomminus.mouseover" end="zoomminus.mouseout"/>
                        </use>
                        <path d="M-4,0h8" fill="none" stroke="white" stroke-width="1.5" pointer-events="none"/>
                </g>
                <g id="dirArrow">
                        <path fill="none" stroke="white" stroke-width="1.5" d="M0,-3.0v7 M-2.5,-0.5L0,-3.0L2.5,-0.5"/>
                </g>
               <g id="resetDef">
                       <use xlink:href="#rim2" fill="#404040">
                               <set attributeName="fill" to="#808080" begin="reset.mouseover" end="reset.mouseout"/>
                       </use>
               </g>
        </defs>

<script type="text/javascript">
var viewWidth = 1210;
var viewHeight = 96;
var sectionId = 'dynsection-5';
</script>
<script xlink:href="../../svgpan.js"/>
<svg id="graph" class="graph">
<g id="viewport">
<title>Vis::PickBillboards_Keyboard</title>
<polygon fill="white" stroke="none" points="-4,4 -4,-91.5 1206,-91.5 1206,4 -4,4"/>
<!-- Node1 -->
<g id="node1" class="node"><title>Node1</title>
<g id="a_node1"><a xlink:title=" ">
<polygon fill="#bfbfbf" stroke="black" points="1103,-14 1103,-44 1202,-44 1202,-14 1103,-14"/>
<text text-anchor="start" x="1111" y="-32" font-family="Helvetica,sans-Serif" font-size="10.00">Vis::PickBillboards</text>
<text text-anchor="middle" x="1152.5" y="-21" font-family="Helvetica,sans-Serif" font-size="10.00">_Keyboard</text>
</a>
</g>
</g>
<!-- Node2 -->
<g id="node2" class="node"><title>Node2</title>
<g id="a_node2"><a xlink:href="../../d0/def/class_vis.html#a5393c5a6ff715f9a7f96fe51b4f7e06c" target="_top" xlink:title=" ">
<polygon fill="white" stroke="black" points="954,-38.5 954,-57.5 1067,-57.5 1067,-38.5 954,-38.5"/>
<text text-anchor="middle" x="1010.5" y="-45.5" font-family="Helvetica,sans-Serif" font-size="10.00">Vis::PickClosestActor</text>
</a>
</g>
</g>
<!-- Node1&#45;&gt;Node2 -->
<g id="edge1" class="edge"><title>Node1&#45;&gt;Node2</title>
<path fill="none" stroke="midnightblue" d="M1092.75,-36.9735C1084.28,-38.1224 1075.59,-39.3018 1067.19,-40.4423"/>
<polygon fill="midnightblue" stroke="midnightblue" points="1093.49,-40.4051 1102.93,-35.592 1092.55,-33.4686 1093.49,-40.4051"/>
</g>
<!-- Node10 -->
<g id="node10" class="node"><title>Node10</title>
<g id="a_node10"><a xlink:href="../../d0/def/class_vis.html#ae5472f3071160bb897072436c76478a5" target="_top" xlink:title=" ">
<polygon fill="white" stroke="black" points="961.5,-0.5 961.5,-19.5 1059.5,-19.5 1059.5,-0.5 961.5,-0.5"/>
<text text-anchor="middle" x="1010.5" y="-7.5" font-family="Helvetica,sans-Serif" font-size="10.00">Vis::PickKeyboard</text>
</a>
</g>
</g>
<!-- Node1&#45;&gt;Node10 -->
<g id="edge10" class="edge"><title>Node1&#45;&gt;Node10</title>
<path fill="none" stroke="midnightblue" d="M1092.87,-21.0426C1081.75,-19.5345 1070.25,-17.9732 1059.51,-16.5161"/>
<polygon fill="midnightblue" stroke="midnightblue" points="1092.55,-24.5314 1102.93,-22.408 1093.49,-17.5949 1092.55,-24.5314"/>
</g>
<!-- Node3 -->
<g id="node3" class="node"><title>Node3</title>
<g id="a_node3"><a xlink:href="../../db/d28/structstru319.html#af6b96639cdf8714890b74b92299446d9" target="_top" xlink:title=" ">
<polygon fill="white" stroke="black" points="788,-38.5 788,-57.5 918,-57.5 918,-38.5 788,-38.5"/>
<text text-anchor="middle" x="853" y="-45.5" font-family="Helvetica,sans-Serif" font-size="10.00">stru319::FindClosestActor</text>
</a>
</g>
</g>
<!-- Node2&#45;&gt;Node3 -->
<g id="edge2" class="edge"><title>Node2&#45;&gt;Node3</title>
<path fill="none" stroke="midnightblue" d="M943.598,-48C935.134,-48 926.477,-48 918.043,-48"/>
<polygon fill="midnightblue" stroke="midnightblue" points="943.8,-51.5001 953.8,-48 943.8,-44.5001 943.8,-51.5001"/>
</g>
<!-- Node4 -->
<g id="node4" class="node"><title>Node4</title>
<g id="a_node4"><a xlink:href="../../d8/d06/namespace_cast_spell_info_helpers.html#a6fa3b22b4867c28cad6c215c646dc4aa" target="_top" xlink:title=" ">
<polygon fill="white" stroke="black" points="618,-57 618,-87 728,-87 728,-57 618,-57"/>
<text text-anchor="start" x="626" y="-75" font-family="Helvetica,sans-Serif" font-size="10.00">CastSpellInfoHelpers</text>
<text text-anchor="middle" x="673" y="-64" font-family="Helvetica,sans-Serif" font-size="10.00">::_427E01_cast_spell</text>
</a>
</g>
</g>
<!-- Node3&#45;&gt;Node4 -->
<g id="edge3" class="edge"><title>Node3&#45;&gt;Node4</title>
<path fill="none" stroke="midnightblue" d="M777.73,-58.0139C761.072,-60.26 743.705,-62.6016 728.053,-64.712"/>
<polygon fill="midnightblue" stroke="midnightblue" points="778.547,-61.4356 787.989,-56.6306 777.611,-54.4983 778.547,-61.4356"/>
</g>
<!-- Node9 -->
<g id="node9" class="node"><title>Node9</title>
<g id="a_node9"><a xlink:href="../../d3/db1/struct_player.html#adcd0e965260bb120a6e90b515cc748ac" target="_top" xlink:title=" ">
<polygon fill="white" stroke="black" points="594,-8 594,-38 752,-38 752,-8 594,-8"/>
<text text-anchor="start" x="602" y="-26" font-family="Helvetica,sans-Serif" font-size="10.00">Player::_42ECB5_PlayerAttacks</text>
<text text-anchor="middle" x="673" y="-15" font-family="Helvetica,sans-Serif" font-size="10.00">Actor</text>
</a>
</g>
</g>
<!-- Node3&#45;&gt;Node9 -->
<g id="edge8" class="edge"><title>Node3&#45;&gt;Node9</title>
<path fill="none" stroke="midnightblue" d="M778.022,-37.6099C769.44,-36.4044 760.665,-35.1721 752.03,-33.9593"/>
<polygon fill="midnightblue" stroke="midnightblue" points="777.6,-41.0848 787.989,-39.0097 778.573,-34.1528 777.6,-41.0848"/>
</g>
<!-- Node5 -->
<g id="node5" class="node"><title>Node5</title>
<g id="a_node5"><a xlink:href="../../d4/d06/class_application_1_1_game.html#a3f65e3f0ef1a9114fb3dea275e52442e" target="_top" xlink:title=" ">
<polygon fill="white" stroke="black" points="455,-32 455,-62 558,-62 558,-32 455,-32"/>
<text text-anchor="start" x="463" y="-50" font-family="Helvetica,sans-Serif" font-size="10.00">Application::Game::</text>
<text text-anchor="middle" x="506.5" y="-39" font-family="Helvetica,sans-Serif" font-size="10.00">EventLoop</text>
</a>
</g>
</g>
<!-- Node4&#45;&gt;Node5 -->
<g id="edge4" class="edge"><title>Node4&#45;&gt;Node5</title>
<path fill="none" stroke="midnightblue" d="M607.61,-62.2142C591.188,-59.7185 573.768,-57.0711 558.142,-54.6964"/>
<polygon fill="midnightblue" stroke="midnightblue" points="607.268,-65.7025 617.681,-63.7448 608.32,-58.7819 607.268,-65.7025"/>
</g>
<!-- Node6 -->
<g id="node6" class="node"><title>Node6</title>
<g id="a_node6"><a xlink:href="../../d4/d06/class_application_1_1_game.html#aaa0ff18388b32b4e6198835a35e000d3" target="_top" xlink:title=" ">
<polygon fill="white" stroke="black" points="316,-32 316,-62 419,-62 419,-32 316,-32"/>
<text text-anchor="start" x="324" y="-50" font-family="Helvetica,sans-Serif" font-size="10.00">Application::Game::</text>
<text text-anchor="middle" x="367.5" y="-39" font-family="Helvetica,sans-Serif" font-size="10.00">GameLoop</text>
</a>
</g>
</g>
<!-- Node5&#45;&gt;Node6 -->
<g id="edge5" class="edge"><title>Node5&#45;&gt;Node6</title>
<path fill="none" stroke="midnightblue" d="M444.68,-47C436.228,-47 427.618,-47 419.374,-47"/>
<polygon fill="midnightblue" stroke="midnightblue" points="444.876,-50.5001 454.875,-47 444.875,-43.5001 444.876,-50.5001"/>
</g>
<!-- Node7 -->
<g id="node7" class="node"><title>Node7</title>
<g id="a_node7"><a xlink:href="../../d4/d06/class_application_1_1_game.html#a013ffd59e8fdf1c0a396da1dbe1681ca" target="_top" xlink:title=" ">
<polygon fill="white" stroke="black" points="156,-37.5 156,-56.5 280,-56.5 280,-37.5 156,-37.5"/>
<text text-anchor="middle" x="218" y="-44.5" font-family="Helvetica,sans-Serif" font-size="10.00">Application::Game::Loop</text>
</a>
</g>
</g>
<!-- Node6&#45;&gt;Node7 -->
<g id="edge6" class="edge"><title>Node6&#45;&gt;Node7</title>
<path fill="none" stroke="midnightblue" d="M305.59,-47C297.149,-47 288.478,-47 280.035,-47"/>
<polygon fill="midnightblue" stroke="midnightblue" points="305.739,-50.5001 315.739,-47 305.739,-43.5001 305.739,-50.5001"/>
</g>
<!-- Node8 -->
<g id="node8" class="node"><title>Node8</title>
<g id="a_node8"><a xlink:href="../../d4/d06/class_application_1_1_game.html#a96341ca5b54d90adc3ecb3bf0bcd2312" target="_top" xlink:title=" ">
<polygon fill="white" stroke="black" points="0,-37.5 0,-56.5 120,-56.5 120,-37.5 0,-37.5"/>
<text text-anchor="middle" x="60" y="-44.5" font-family="Helvetica,sans-Serif" font-size="10.00">Application::Game::Run</text>
</a>
</g>
</g>
<!-- Node7&#45;&gt;Node8 -->
<g id="edge7" class="edge"><title>Node7&#45;&gt;Node8</title>
<path fill="none" stroke="midnightblue" d="M145.546,-47C137.081,-47 128.513,-47 120.244,-47"/>
<polygon fill="midnightblue" stroke="midnightblue" points="145.792,-50.5001 155.792,-47 145.792,-43.5001 145.792,-50.5001"/>
</g>
<!-- Node9&#45;&gt;Node5 -->
<g id="edge9" class="edge"><title>Node9&#45;&gt;Node5</title>
<path fill="none" stroke="midnightblue" d="M583.69,-35.8842C574.924,-37.163 566.251,-38.4284 558.071,-39.6218"/>
<polygon fill="midnightblue" stroke="midnightblue" points="584.214,-39.3448 593.604,-34.4377 583.204,-32.4181 584.214,-39.3448"/>
</g>
<!-- Node11 -->
<g id="node11" class="node"><title>Node11</title>
<g id="a_node11"><a xlink:href="../../d6/d83/struct_engine.html#a4aae71d7d74d9a1f92a31c3e389694d3" target="_top" xlink:title=" ">
<polygon fill="white" stroke="black" points="796.5,-0.5 796.5,-19.5 909.5,-19.5 909.5,-0.5 796.5,-0.5"/>
<text text-anchor="middle" x="853" y="-7.5" font-family="Helvetica,sans-Serif" font-size="10.00">Engine::PickKeyboard</text>
</a>
</g>
</g>
<!-- Node10&#45;&gt;Node11 -->
<g id="edge11" class="edge"><title>Node10&#45;&gt;Node11</title>
<path fill="none" stroke="midnightblue" d="M950.988,-10C937.447,-10 923.075,-10 909.66,-10"/>
<polygon fill="midnightblue" stroke="midnightblue" points="951.151,-13.5001 961.151,-10 951.151,-6.5001 951.151,-13.5001"/>
</g>
</g>
</svg>
        <g id="navigator" transform="translate(0 0)" fill="#404254">
                <rect fill="#f2f5e9" fill-opacity="0.5" stroke="#606060" stroke-width=".5" x="0" y="0" width="60" height="60"/>
                <use id="zoomplus" xlink:href="#zoomPlus" x="17" y="9" onmousedown="handleZoom(evt,'in')"/>
                <use id="zoomminus" xlink:href="#zoomMin" x="42" y="9" onmousedown="handleZoom(evt,'out')"/>
                <use id="reset" xlink:href="#resetDef" x="30" y="36" onmousedown="handleReset()"/>
                <g id="arrowUp" xlink:href="#dirArrow" transform="translate(30 24)" onmousedown="handlePan(0,-1)">
                  <use xlink:href="#rim" fill="#404040">
                        <set attributeName="fill" to="#808080" begin="arrowUp.mouseover" end="arrowUp.mouseout"/>
                  </use>
                  <path fill="none" stroke="white" stroke-width="1.5" d="M0,-3.0v7 M-2.5,-0.5L0,-3.0L2.5,-0.5"/>
                </g>
                <g id="arrowRight" xlink:href="#dirArrow" transform="rotate(90) translate(36 -43)" onmousedown="handlePan(1,0)">
                  <use xlink:href="#rim" fill="#404040">
                        <set attributeName="fill" to="#808080" begin="arrowRight.mouseover" end="arrowRight.mouseout"/>
                  </use>
                  <path fill="none" stroke="white" stroke-width="1.5" d="M0,-3.0v7 M-2.5,-0.5L0,-3.0L2.5,-0.5"/>
                </g>
                <g id="arrowDown" xlink:href="#dirArrow" transform="rotate(180) translate(-30 -48)" onmousedown="handlePan(0,1)">
                  <use xlink:href="#rim" fill="#404040">
                        <set attributeName="fill" to="#808080" begin="arrowDown.mouseover" end="arrowDown.mouseout"/>
                  </use>
                  <path fill="none" stroke="white" stroke-width="1.5" d="M0,-3.0v7 M-2.5,-0.5L0,-3.0L2.5,-0.5"/>
                </g>
                <g id="arrowLeft" xlink:href="#dirArrow" transform="rotate(270) translate(-36 17)" onmousedown="handlePan(-1,0)">
                  <use xlink:href="#rim" fill="#404040">
                        <set attributeName="fill" to="#808080" begin="arrowLeft.mouseover" end="arrowLeft.mouseout"/>
                  </use>
                  <path fill="none" stroke="white" stroke-width="1.5" d="M0,-3.0v7 M-2.5,-0.5L0,-3.0L2.5,-0.5"/>
                </g>
        </g>
        <svg viewBox="0 0 15 15" width="100%" height="30px" preserveAspectRatio="xMaxYMin meet">
         <g id="arrow_out" transform="scale(0.3 0.3)">
          <a xlink:href="class_vis_a9b45b6714b627310af4609d1bf5e250d_icgraph_org.svg" target="_base">
           <rect id="button" ry="5" rx="5" y="6" x="6" height="38" width="38"
                fill="#f2f5e9" fill-opacity="0.5" stroke="#606060" stroke-width="1.0"/>
           <path id="arrow"
             d="M 11.500037,31.436501 C 11.940474,20.09759 22.043105,11.32322 32.158766,21.979434 L 37.068811,17.246167 C 37.068811,17.246167 37.088388,32 37.088388,32 L 22.160133,31.978069 C 22.160133,31.978069 26.997745,27.140456 26.997745,27.140456 C 18.528582,18.264221 13.291696,25.230495 11.500037,31.436501 z"
             style="fill:#404040;"/>
          </a>
         </g>
        </svg>
</svg>
