<?xml version="1.0" encoding="UTF-8" standalone="no"?>
<!DOCTYPE svg PUBLIC "-//W3C//DTD SVG 1.1//EN"
 "http://www.w3.org/Graphics/SVG/1.1/DTD/svg11.dtd">
<!-- Generated by graphviz version 2.38.0 (20140413.2041)
 -->
<!-- Title: Vis::DetermineFacetIntersection Pages: 1 -->
<svg width="601pt" height="88pt"
 viewBox="0.00 0.00 601.00 88.00" xmlns="http://www.w3.org/2000/svg" xmlns:xlink="http://www.w3.org/1999/xlink">
<g id="graph0" class="graph" transform="scale(1 1) rotate(0) translate(4 84)">
<title>Vis::DetermineFacetIntersection</title>
<polygon fill="white" stroke="none" points="-4,4 -4,-84 597,-84 597,4 -4,4"/>
<!-- Node1 -->
<g id="node1" class="node"><title>Node1</title>
<g id="a_node1"><a xlink:title=" ">
<polygon fill="#bfbfbf" stroke="black" points="437,-30 437,-49 593,-49 593,-30 437,-30"/>
<text text-anchor="middle" x="515" y="-37" font-family="Helvetica,sans-Serif" font-size="10.00">Vis::DetermineFacetIntersection</text>
</a>
</g>
</g>
<!-- Node2 -->
<g id="node2" class="node"><title>Node2</title>
<g id="a_node2"><a xlink:href="../../d0/def/class_vis.html#aecd975091f73e04120b1b6b2c0394239" target="_top" xlink:title=" ">
<polygon fill="white" stroke="black" points="287,-49.5 287,-79.5 397,-79.5 397,-49.5 287,-49.5"/>
<text text-anchor="start" x="295" y="-67.5" font-family="Helvetica,sans-Serif" font-size="10.00">Vis::PickIndoorFaces</text>
<text text-anchor="middle" x="342" y="-56.5" font-family="Helvetica,sans-Serif" font-size="10.00">_Keyboard</text>
</a>
</g>
</g>
<!-- Node1&#45;&gt;Node2 -->
<g id="edge1" class="edge"><title>Node1&#45;&gt;Node2</title>
<path fill="none" stroke="midnightblue" d="M438.745,-50.5022C424.726,-52.5517 410.335,-54.6557 397.108,-56.5894"/>
<polygon fill="midnightblue" stroke="midnightblue" points="439.476,-53.9326 448.864,-49.0227 438.463,-47.0063 439.476,-53.9326"/>
</g>
<!-- Node5 -->
<g id="node5" class="node"><title>Node5</title>
<g id="a_node5"><a xlink:href="../../d0/def/class_vis.html#a67d4ba179398e09641b9a0e2c96d8a54" target="_top" xlink:title=" ">
<polygon fill="white" stroke="black" points="283,-0.5 283,-30.5 401,-30.5 401,-0.5 283,-0.5"/>
<text text-anchor="start" x="291" y="-18.5" font-family="Helvetica,sans-Serif" font-size="10.00">Vis::PickOutdoorFaces</text>
<text text-anchor="middle" x="342" y="-7.5" font-family="Helvetica,sans-Serif" font-size="10.00">_Keyboard</text>
</a>
</g>
</g>
<!-- Node1&#45;&gt;Node5 -->
<g id="edge4" class="edge"><title>Node1&#45;&gt;Node5</title>
<path fill="none" stroke="midnightblue" d="M435.769,-28.5202C424.135,-26.8874 412.32,-25.2291 401.194,-23.6676"/>
<polygon fill="midnightblue" stroke="midnightblue" points="435.535,-32.0217 445.925,-29.9456 436.508,-25.0896 435.535,-32.0217"/>
</g>
<!-- Node3 -->
<g id="node3" class="node"><title>Node3</title>
<g id="a_node3"><a xlink:href="../../d0/def/class_vis.html#ae5472f3071160bb897072436c76478a5" target="_top" xlink:title=" ">
<polygon fill="white" stroke="black" points="149,-30 149,-49 247,-49 247,-30 149,-30"/>
<text text-anchor="middle" x="198" y="-37" font-family="Helvetica,sans-Serif" font-size="10.00">Vis::PickKeyboard</text>
</a>
</g>
</g>
<!-- Node2&#45;&gt;Node3 -->
<g id="edge2" class="edge"><title>Node2&#45;&gt;Node3</title>
<path fill="none" stroke="midnightblue" d="M277.032,-53.2379C267.06,-51.4825 256.903,-49.6941 247.355,-48.0132"/>
<polygon fill="midnightblue" stroke="midnightblue" points="276.455,-56.6903 286.911,-54.9773 277.669,-49.7963 276.455,-56.6903"/>
</g>
<!-- Node4 -->
<g id="node4" class="node"><title>Node4</title>
<g id="a_node4"><a xlink:href="../../d6/d83/struct_engine.html#a4aae71d7d74d9a1f92a31c3e389694d3" target="_top" xlink:title=" ">
<polygon fill="white" stroke="black" points="0,-30 0,-49 113,-49 113,-30 0,-30"/>
<text text-anchor="middle" x="56.5" y="-37" font-family="Helvetica,sans-Serif" font-size="10.00">Engine::PickKeyboard</text>
</a>
</g>
</g>
<!-- Node3&#45;&gt;Node4 -->
<g id="edge3" class="edge"><title>Node3&#45;&gt;Node4</title>
<path fill="none" stroke="midnightblue" d="M138.828,-39.5C130.373,-39.5 121.683,-39.5 113.276,-39.5"/>
<polygon fill="midnightblue" stroke="midnightblue" points="138.992,-43.0001 148.992,-39.5 138.992,-36.0001 138.992,-43.0001"/>
</g>
<!-- Node5&#45;&gt;Node3 -->
<g id="edge5" class="edge"><title>Node5&#45;&gt;Node3</title>
<path fill="none" stroke="midnightblue" d="M272.796,-27.0275C264.197,-28.4807 255.545,-29.9431 247.343,-31.3294"/>
<polygon fill="midnightblue" stroke="midnightblue" points="273.557,-30.4486 282.833,-25.331 272.39,-23.5465 273.557,-30.4486"/>
</g>
</g>
</svg>
