<?xml version="1.0" encoding="UTF-8" standalone="no"?>
<!DOCTYPE svg PUBLIC "-//W3C//DTD SVG 1.1//EN"
 "http://www.w3.org/Graphics/SVG/1.1/DTD/svg11.dtd">
<!-- Generated by graphviz version 2.38.0 (20140413.2041)
 -->
<!-- Title: Vis::is_part_of_selection Pages: 1 -->
<svg width="1759pt" height="276pt"
 viewBox="0.00 0.00 1759.00 276.43" xmlns="http://www.w3.org/2000/svg" xmlns:xlink="http://www.w3.org/1999/xlink">
<g id="graph0" class="graph" transform="scale(1 1) rotate(0) translate(4 272.429)">
<title>Vis::is_part_of_selection</title>
<polygon fill="white" stroke="none" points="-4,4 -4,-272.429 1755,-272.429 1755,4 -4,4"/>
<!-- Node1 -->
<g id="node1" class="node"><title>Node1</title>
<g id="a_node1"><a xlink:title=" ">
<polygon fill="#bfbfbf" stroke="black" points="1628,-129 1628,-148 1751,-148 1751,-129 1628,-129"/>
<text text-anchor="middle" x="1689.5" y="-136" font-family="Helvetica,sans-Serif" font-size="10.00">Vis::is_part_of_selection</text>
</a>
</g>
</g>
<!-- Node2 -->
<g id="node2" class="node"><title>Node2</title>
<g id="a_node2"><a xlink:href="../../d0/def/class_vis.html#a9b45b6714b627310af4609d1bf5e250d" target="_top" xlink:title=" ">
<polygon fill="white" stroke="black" points="1125,-98.5 1125,-128.5 1224,-128.5 1224,-98.5 1125,-98.5"/>
<text text-anchor="start" x="1133" y="-116.5" font-family="Helvetica,sans-Serif" font-size="10.00">Vis::PickBillboards</text>
<text text-anchor="middle" x="1174.5" y="-105.5" font-family="Helvetica,sans-Serif" font-size="10.00">_Keyboard</text>
</a>
</g>
</g>
<!-- Node1&#45;&gt;Node2 -->
<g id="edge1" class="edge"><title>Node1&#45;&gt;Node2</title>
<path fill="none" stroke="midnightblue" d="M1617.63,-135.046C1511.81,-129.889 1315.23,-120.309 1224.15,-115.871"/>
<polygon fill="midnightblue" stroke="midnightblue" points="1617.73,-138.555 1627.89,-135.546 1618.07,-131.564 1617.73,-138.555"/>
</g>
<!-- Node13 -->
<g id="node13" class="node"><title>Node13</title>
<g id="a_node13"><a xlink:href="../../d0/def/class_vis.html#a0be64465d62f710858d956b0091d4bcf" target="_top" xlink:title=" ">
<polygon fill="white" stroke="black" points="1125,-224.5 1125,-254.5 1224,-254.5 1224,-224.5 1125,-224.5"/>
<text text-anchor="start" x="1133" y="-242.5" font-family="Helvetica,sans-Serif" font-size="10.00">Vis::PickBillboards</text>
<text text-anchor="middle" x="1174.5" y="-231.5" font-family="Helvetica,sans-Serif" font-size="10.00">_Mouse</text>
</a>
</g>
</g>
<!-- Node1&#45;&gt;Node13 -->
<g id="edge13" class="edge"><title>Node1&#45;&gt;Node13</title>
<path fill="none" stroke="midnightblue" d="M1676.76,-156.631C1660.77,-179.494 1629.75,-217.719 1592,-233.5 1467.9,-285.382 1304.27,-265.041 1224.06,-250.037"/>
<polygon fill="midnightblue" stroke="midnightblue" points="1679.79,-158.399 1682.5,-148.155 1674,-154.476 1679.79,-158.399"/>
</g>
<!-- Node17 -->
<g id="node17" class="node"><title>Node17</title>
<g id="a_node17"><a xlink:href="../../d0/def/class_vis.html#aecd975091f73e04120b1b6b2c0394239" target="_top" xlink:title=" ">
<polygon fill="white" stroke="black" points="1119.5,-49.5 1119.5,-79.5 1229.5,-79.5 1229.5,-49.5 1119.5,-49.5"/>
<text text-anchor="start" x="1127.5" y="-67.5" font-family="Helvetica,sans-Serif" font-size="10.00">Vis::PickIndoorFaces</text>
<text text-anchor="middle" x="1174.5" y="-56.5" font-family="Helvetica,sans-Serif" font-size="10.00">_Keyboard</text>
</a>
</g>
</g>
<!-- Node1&#45;&gt;Node17 -->
<g id="edge17" class="edge"><title>Node1&#45;&gt;Node17</title>
<path fill="none" stroke="midnightblue" d="M1656.97,-125.107C1610.2,-106.041 1519.21,-72.0019 1438,-59.5 1369.47,-48.9506 1351.31,-57.8738 1282,-59.5 1264.98,-59.8994 1246.43,-60.6575 1229.66,-61.4649"/>
<polygon fill="midnightblue" stroke="midnightblue" points="1655.68,-128.361 1666.26,-128.935 1658.35,-121.889 1655.68,-128.361"/>
</g>
<!-- Node18 -->
<g id="node18" class="node"><title>Node18</title>
<g id="a_node18"><a xlink:href="../../d0/def/class_vis.html#ad9141000db2ce36fd1675c317929b46b" target="_top" xlink:title=" ">
<polygon fill="white" stroke="black" points="1478,-194.5 1478,-224.5 1588,-224.5 1588,-194.5 1478,-194.5"/>
<text text-anchor="start" x="1486" y="-212.5" font-family="Helvetica,sans-Serif" font-size="10.00">Vis::PickIndoorFaces</text>
<text text-anchor="middle" x="1533" y="-201.5" font-family="Helvetica,sans-Serif" font-size="10.00">_Mouse</text>
</a>
</g>
</g>
<!-- Node1&#45;&gt;Node18 -->
<g id="edge19" class="edge"><title>Node1&#45;&gt;Node18</title>
<path fill="none" stroke="midnightblue" d="M1659.93,-152.469C1640.79,-161.738 1614.99,-174.071 1592,-184.5 1584.81,-187.762 1577.08,-191.166 1569.67,-194.375"/>
<polygon fill="midnightblue" stroke="midnightblue" points="1661.54,-155.574 1669.01,-148.057 1658.49,-149.278 1661.54,-155.574"/>
</g>
<!-- Node20 -->
<g id="node20" class="node"><title>Node20</title>
<g id="a_node20"><a xlink:href="../../d0/def/class_vis.html#a67d4ba179398e09641b9a0e2c96d8a54" target="_top" xlink:title=" ">
<polygon fill="white" stroke="black" points="1115.5,-0.5 1115.5,-30.5 1233.5,-30.5 1233.5,-0.5 1115.5,-0.5"/>
<text text-anchor="start" x="1123.5" y="-18.5" font-family="Helvetica,sans-Serif" font-size="10.00">Vis::PickOutdoorFaces</text>
<text text-anchor="middle" x="1174.5" y="-7.5" font-family="Helvetica,sans-Serif" font-size="10.00">_Keyboard</text>
</a>
</g>
</g>
<!-- Node1&#45;&gt;Node20 -->
<g id="edge29" class="edge"><title>Node1&#45;&gt;Node20</title>
<path fill="none" stroke="midnightblue" d="M1672.52,-121.468C1654.72,-103.703 1624.2,-76.6481 1592,-63.5 1471.72,-14.3787 1316.68,-10.422 1233.83,-12.5282"/>
<polygon fill="midnightblue" stroke="midnightblue" points="1670.27,-124.177 1679.76,-128.893 1675.28,-119.29 1670.27,-124.177"/>
</g>
<!-- Node23 -->
<g id="node23" class="node"><title>Node23</title>
<g id="a_node23"><a xlink:href="../../d0/def/class_vis.html#af1001095fa5d94588bc7b32a31587751" target="_top" xlink:title=" ">
<polygon fill="white" stroke="black" points="1474,-145.5 1474,-175.5 1592,-175.5 1592,-145.5 1474,-145.5"/>
<text text-anchor="start" x="1482" y="-163.5" font-family="Helvetica,sans-Serif" font-size="10.00">Vis::PickOutdoorFaces</text>
<text text-anchor="middle" x="1533" y="-152.5" font-family="Helvetica,sans-Serif" font-size="10.00">_Mouse</text>
</a>
</g>
</g>
<!-- Node1&#45;&gt;Node23 -->
<g id="edge30" class="edge"><title>Node1&#45;&gt;Node23</title>
<path fill="none" stroke="midnightblue" d="M1617.86,-148.558C1609.27,-149.783 1600.56,-151.023 1592.17,-152.217"/>
<polygon fill="midnightblue" stroke="midnightblue" points="1618.47,-152.007 1627.88,-147.132 1617.49,-145.077 1618.47,-152.007"/>
</g>
<!-- Node3 -->
<g id="node3" class="node"><title>Node3</title>
<g id="a_node3"><a xlink:href="../../d0/def/class_vis.html#a5393c5a6ff715f9a7f96fe51b4f7e06c" target="_top" xlink:title=" ">
<polygon fill="white" stroke="black" points="954,-104 954,-123 1067,-123 1067,-104 954,-104"/>
<text text-anchor="middle" x="1010.5" y="-111" font-family="Helvetica,sans-Serif" font-size="10.00">Vis::PickClosestActor</text>
</a>
</g>
</g>
<!-- Node2&#45;&gt;Node3 -->
<g id="edge2" class="edge"><title>Node2&#45;&gt;Node3</title>
<path fill="none" stroke="midnightblue" d="M1114.87,-113.5C1099.32,-113.5 1082.57,-113.5 1067.18,-113.5"/>
<polygon fill="midnightblue" stroke="midnightblue" points="1114.89,-117 1124.89,-113.5 1114.89,-110 1114.89,-117"/>
</g>
<!-- Node11 -->
<g id="node11" class="node"><title>Node11</title>
<g id="a_node11"><a xlink:href="../../d0/def/class_vis.html#ae5472f3071160bb897072436c76478a5" target="_top" xlink:title=" ">
<polygon fill="white" stroke="black" points="961.5,-55 961.5,-74 1059.5,-74 1059.5,-55 961.5,-55"/>
<text text-anchor="middle" x="1010.5" y="-62" font-family="Helvetica,sans-Serif" font-size="10.00">Vis::PickKeyboard</text>
</a>
</g>
</g>
<!-- Node2&#45;&gt;Node11 -->
<g id="edge11" class="edge"><title>Node2&#45;&gt;Node11</title>
<path fill="none" stroke="midnightblue" d="M1115.06,-95.8241C1090.81,-88.4875 1063.62,-80.2638 1043.19,-74.0841"/>
<polygon fill="midnightblue" stroke="midnightblue" points="1114.31,-99.2533 1124.89,-98.7984 1116.34,-92.5531 1114.31,-99.2533"/>
</g>
<!-- Node4 -->
<g id="node4" class="node"><title>Node4</title>
<g id="a_node4"><a xlink:href="../../db/d28/structstru319.html#af6b96639cdf8714890b74b92299446d9" target="_top" xlink:title=" ">
<polygon fill="white" stroke="black" points="788,-104 788,-123 918,-123 918,-104 788,-104"/>
<text text-anchor="middle" x="853" y="-111" font-family="Helvetica,sans-Serif" font-size="10.00">stru319::FindClosestActor</text>
</a>
</g>
</g>
<!-- Node3&#45;&gt;Node4 -->
<g id="edge3" class="edge"><title>Node3&#45;&gt;Node4</title>
<path fill="none" stroke="midnightblue" d="M943.598,-113.5C935.134,-113.5 926.477,-113.5 918.043,-113.5"/>
<polygon fill="midnightblue" stroke="midnightblue" points="943.8,-117 953.8,-113.5 943.8,-110 943.8,-117"/>
</g>
<!-- Node5 -->
<g id="node5" class="node"><title>Node5</title>
<g id="a_node5"><a xlink:href="../../d8/d06/namespace_cast_spell_info_helpers.html#a6fa3b22b4867c28cad6c215c646dc4aa" target="_top" xlink:title=" ">
<polygon fill="white" stroke="black" points="618,-123.5 618,-153.5 728,-153.5 728,-123.5 618,-123.5"/>
<text text-anchor="start" x="626" y="-141.5" font-family="Helvetica,sans-Serif" font-size="10.00">CastSpellInfoHelpers</text>
<text text-anchor="middle" x="673" y="-130.5" font-family="Helvetica,sans-Serif" font-size="10.00">::_427E01_cast_spell</text>
</a>
</g>
</g>
<!-- Node4&#45;&gt;Node5 -->
<g id="edge4" class="edge"><title>Node4&#45;&gt;Node5</title>
<path fill="none" stroke="midnightblue" d="M777.73,-123.931C761.072,-126.271 743.705,-128.71 728.053,-130.908"/>
<polygon fill="midnightblue" stroke="midnightblue" points="778.573,-127.347 787.989,-122.49 777.6,-120.415 778.573,-127.347"/>
</g>
<!-- Node10 -->
<g id="node10" class="node"><title>Node10</title>
<g id="a_node10"><a xlink:href="../../d3/db1/struct_player.html#adcd0e965260bb120a6e90b515cc748ac" target="_top" xlink:title=" ">
<polygon fill="white" stroke="black" points="594,-74.5 594,-104.5 752,-104.5 752,-74.5 594,-74.5"/>
<text text-anchor="start" x="602" y="-92.5" font-family="Helvetica,sans-Serif" font-size="10.00">Player::_42ECB5_PlayerAttacks</text>
<text text-anchor="middle" x="673" y="-81.5" font-family="Helvetica,sans-Serif" font-size="10.00">Actor</text>
</a>
</g>
</g>
<!-- Node4&#45;&gt;Node10 -->
<g id="edge9" class="edge"><title>Node4&#45;&gt;Node10</title>
<path fill="none" stroke="midnightblue" d="M778.022,-103.525C769.44,-102.368 760.665,-101.185 752.03,-100.021"/>
<polygon fill="midnightblue" stroke="midnightblue" points="777.611,-107.002 787.989,-104.869 778.547,-100.064 777.611,-107.002"/>
</g>
<!-- Node6 -->
<g id="node6" class="node"><title>Node6</title>
<g id="a_node6"><a xlink:href="../../d4/d06/class_application_1_1_game.html#a3f65e3f0ef1a9114fb3dea275e52442e" target="_top" xlink:title=" ">
<polygon fill="white" stroke="black" points="455,-98.5 455,-128.5 558,-128.5 558,-98.5 455,-98.5"/>
<text text-anchor="start" x="463" y="-116.5" font-family="Helvetica,sans-Serif" font-size="10.00">Application::Game::</text>
<text text-anchor="middle" x="506.5" y="-105.5" font-family="Helvetica,sans-Serif" font-size="10.00">EventLoop</text>
</a>
</g>
</g>
<!-- Node5&#45;&gt;Node6 -->
<g id="edge5" class="edge"><title>Node5&#45;&gt;Node6</title>
<path fill="none" stroke="midnightblue" d="M607.61,-128.714C591.188,-126.218 573.768,-123.571 558.142,-121.196"/>
<polygon fill="midnightblue" stroke="midnightblue" points="607.268,-132.202 617.681,-130.245 608.32,-125.282 607.268,-132.202"/>
</g>
<!-- Node7 -->
<g id="node7" class="node"><title>Node7</title>
<g id="a_node7"><a xlink:href="../../d4/d06/class_application_1_1_game.html#aaa0ff18388b32b4e6198835a35e000d3" target="_top" xlink:title=" ">
<polygon fill="white" stroke="black" points="316,-98.5 316,-128.5 419,-128.5 419,-98.5 316,-98.5"/>
<text text-anchor="start" x="324" y="-116.5" font-family="Helvetica,sans-Serif" font-size="10.00">Application::Game::</text>
<text text-anchor="middle" x="367.5" y="-105.5" font-family="Helvetica,sans-Serif" font-size="10.00">GameLoop</text>
</a>
</g>
</g>
<!-- Node6&#45;&gt;Node7 -->
<g id="edge6" class="edge"><title>Node6&#45;&gt;Node7</title>
<path fill="none" stroke="midnightblue" d="M444.68,-113.5C436.228,-113.5 427.618,-113.5 419.374,-113.5"/>
<polygon fill="midnightblue" stroke="midnightblue" points="444.876,-117 454.875,-113.5 444.875,-110 444.876,-117"/>
</g>
<!-- Node8 -->
<g id="node8" class="node"><title>Node8</title>
<g id="a_node8"><a xlink:href="../../d4/d06/class_application_1_1_game.html#a013ffd59e8fdf1c0a396da1dbe1681ca" target="_top" xlink:title=" ">
<polygon fill="white" stroke="black" points="156,-104 156,-123 280,-123 280,-104 156,-104"/>
<text text-anchor="middle" x="218" y="-111" font-family="Helvetica,sans-Serif" font-size="10.00">Application::Game::Loop</text>
</a>
</g>
</g>
<!-- Node7&#45;&gt;Node8 -->
<g id="edge7" class="edge"><title>Node7&#45;&gt;Node8</title>
<path fill="none" stroke="midnightblue" d="M305.59,-113.5C297.149,-113.5 288.478,-113.5 280.035,-113.5"/>
<polygon fill="midnightblue" stroke="midnightblue" points="305.739,-117 315.739,-113.5 305.739,-110 305.739,-117"/>
</g>
<!-- Node9 -->
<g id="node9" class="node"><title>Node9</title>
<g id="a_node9"><a xlink:href="../../d4/d06/class_application_1_1_game.html#a96341ca5b54d90adc3ecb3bf0bcd2312" target="_top" xlink:title=" ">
<polygon fill="white" stroke="black" points="0,-104 0,-123 120,-123 120,-104 0,-104"/>
<text text-anchor="middle" x="60" y="-111" font-family="Helvetica,sans-Serif" font-size="10.00">Application::Game::Run</text>
</a>
</g>
</g>
<!-- Node8&#45;&gt;Node9 -->
<g id="edge8" class="edge"><title>Node8&#45;&gt;Node9</title>
<path fill="none" stroke="midnightblue" d="M145.546,-113.5C137.081,-113.5 128.513,-113.5 120.244,-113.5"/>
<polygon fill="midnightblue" stroke="midnightblue" points="145.792,-117 155.792,-113.5 145.792,-110 145.792,-117"/>
</g>
<!-- Node10&#45;&gt;Node6 -->
<g id="edge10" class="edge"><title>Node10&#45;&gt;Node6</title>
<path fill="none" stroke="midnightblue" d="M583.69,-102.384C574.924,-103.663 566.251,-104.928 558.071,-106.122"/>
<polygon fill="midnightblue" stroke="midnightblue" points="584.214,-105.845 593.604,-100.938 583.204,-98.9181 584.214,-105.845"/>
</g>
<!-- Node12 -->
<g id="node12" class="node"><title>Node12</title>
<g id="a_node12"><a xlink:href="../../d6/d83/struct_engine.html#a4aae71d7d74d9a1f92a31c3e389694d3" target="_top" xlink:title=" ">
<polygon fill="white" stroke="black" points="796.5,-55 796.5,-74 909.5,-74 909.5,-55 796.5,-55"/>
<text text-anchor="middle" x="853" y="-62" font-family="Helvetica,sans-Serif" font-size="10.00">Engine::PickKeyboard</text>
</a>
</g>
</g>
<!-- Node11&#45;&gt;Node12 -->
<g id="edge12" class="edge"><title>Node11&#45;&gt;Node12</title>
<path fill="none" stroke="midnightblue" d="M950.988,-64.5C937.447,-64.5 923.075,-64.5 909.66,-64.5"/>
<polygon fill="midnightblue" stroke="midnightblue" points="951.151,-68.0001 961.151,-64.5 951.151,-61.0001 951.151,-68.0001"/>
</g>
<!-- Node14 -->
<g id="node14" class="node"><title>Node14</title>
<g id="a_node14"><a xlink:href="../../d0/def/class_vis.html#aa61deb2f3270d912c9d054be95bd4d05" target="_top" xlink:title=" ">
<polygon fill="white" stroke="black" points="967.5,-230 967.5,-249 1053.5,-249 1053.5,-230 967.5,-230"/>
<text text-anchor="middle" x="1010.5" y="-237" font-family="Helvetica,sans-Serif" font-size="10.00">Vis::PickMouse</text>
</a>
</g>
</g>
<!-- Node13&#45;&gt;Node14 -->
<g id="edge14" class="edge"><title>Node13&#45;&gt;Node14</title>
<path fill="none" stroke="midnightblue" d="M1114.85,-239.5C1094.63,-239.5 1072.4,-239.5 1053.76,-239.5"/>
<polygon fill="midnightblue" stroke="midnightblue" points="1114.89,-243 1124.89,-239.5 1114.89,-236 1114.89,-243"/>
</g>
<!-- Node15 -->
<g id="node15" class="node"><title>Node15</title>
<g id="a_node15"><a xlink:href="../../d6/d83/struct_engine.html#ac93695e7a2f919343d397d3754cc8406" target="_top" xlink:title=" ">
<polygon fill="white" stroke="black" points="802.5,-230 802.5,-249 903.5,-249 903.5,-230 802.5,-230"/>
<text text-anchor="middle" x="853" y="-237" font-family="Helvetica,sans-Serif" font-size="10.00">Engine::PickMouse</text>
</a>
</g>
</g>
<!-- Node14&#45;&gt;Node15 -->
<g id="edge15" class="edge"><title>Node14&#45;&gt;Node15</title>
<path fill="none" stroke="midnightblue" d="M956.952,-239.5C939.7,-239.5 920.59,-239.5 903.566,-239.5"/>
<polygon fill="midnightblue" stroke="midnightblue" points="957.419,-243 967.419,-239.5 957.419,-236 957.419,-243"/>
</g>
<!-- Node16 -->
<g id="node16" class="node"><title>Node16</title>
<g id="a_node16"><a xlink:href="../../d6/d83/struct_engine.html#ac20b2b88746c5280d1f91c00e0cc5e33" target="_top" xlink:title=" ">
<polygon fill="white" stroke="black" points="626,-230 626,-249 720,-249 720,-230 626,-230"/>
<text text-anchor="middle" x="673" y="-237" font-family="Helvetica,sans-Serif" font-size="10.00">Engine::_44EEA7</text>
</a>
</g>
</g>
<!-- Node15&#45;&gt;Node16 -->
<g id="edge16" class="edge"><title>Node15&#45;&gt;Node16</title>
<path fill="none" stroke="midnightblue" d="M792.222,-239.5C768.751,-239.5 742.229,-239.5 720.263,-239.5"/>
<polygon fill="midnightblue" stroke="midnightblue" points="792.417,-243 802.417,-239.5 792.417,-236 792.417,-243"/>
</g>
<!-- Node17&#45;&gt;Node11 -->
<g id="edge18" class="edge"><title>Node17&#45;&gt;Node11</title>
<path fill="none" stroke="midnightblue" d="M1108.98,-64.5C1092.47,-64.5 1075.01,-64.5 1059.5,-64.5"/>
<polygon fill="midnightblue" stroke="midnightblue" points="1109.11,-68.0001 1119.11,-64.5 1109.11,-61.0001 1109.11,-68.0001"/>
</g>
<!-- Node18&#45;&gt;Node14 -->
<g id="edge28" class="edge"><title>Node18&#45;&gt;Node14</title>
<path fill="none" stroke="midnightblue" d="M1470.34,-227.118C1386.99,-248.679 1233.74,-280.361 1103,-263.5 1081.66,-260.748 1058.2,-254.528 1040.38,-249.11"/>
<polygon fill="midnightblue" stroke="midnightblue" points="1471.36,-230.467 1480.15,-224.543 1469.59,-223.696 1471.36,-230.467"/>
</g>
<!-- Node19 -->
<g id="node19" class="node"><title>Node19</title>
<g id="a_node19"><a xlink:href="../../d0/def/class_vis.html#af753604050dd8c033105bf7899ddf09a" target="_top" xlink:title=" ">
<polygon fill="white" stroke="black" points="1282,-69 1282,-88 1438,-88 1438,-69 1282,-69"/>
<text text-anchor="middle" x="1360" y="-76" font-family="Helvetica,sans-Serif" font-size="10.00">Vis::DetermineFacetIntersection</text>
</a>
</g>
</g>
<!-- Node18&#45;&gt;Node19 -->
<g id="edge20" class="edge"><title>Node18&#45;&gt;Node19</title>
<path fill="none" stroke="midnightblue" d="M1483.07,-189.903C1479.94,-188.194 1476.88,-186.391 1474,-184.5 1429.68,-155.451 1386.66,-108.339 1369.18,-88.1667"/>
<polygon fill="midnightblue" stroke="midnightblue" points="1481.55,-193.055 1492.05,-194.464 1484.72,-186.815 1481.55,-193.055"/>
</g>
<!-- Node21 -->
<g id="node21" class="node"><title>Node21</title>
<g id="a_node21"><a xlink:href="../../d0/def/class_vis.html#ad4af37acceccfd227b3221caa6381385" target="_top" xlink:title=" ">
<polygon fill="white" stroke="black" points="1284,-186 1284,-205 1436,-205 1436,-186 1284,-186"/>
<text text-anchor="middle" x="1360" y="-193" font-family="Helvetica,sans-Serif" font-size="10.00">Vis::DoesRayIntersectBillboard</text>
</a>
</g>
</g>
<!-- Node18&#45;&gt;Node21 -->
<g id="edge24" class="edge"><title>Node18&#45;&gt;Node21</title>
<path fill="none" stroke="midnightblue" d="M1467.72,-204.237C1457.37,-203.39 1446.58,-202.506 1436,-201.641"/>
<polygon fill="midnightblue" stroke="midnightblue" points="1467.64,-207.743 1477.89,-205.07 1468.21,-200.766 1467.64,-207.743"/>
</g>
<!-- Node19&#45;&gt;Node17 -->
<g id="edge21" class="edge"><title>Node19&#45;&gt;Node17</title>
<path fill="none" stroke="midnightblue" d="M1271.63,-71.8338C1257.35,-70.7445 1242.93,-69.6444 1229.75,-68.6393"/>
<polygon fill="midnightblue" stroke="midnightblue" points="1271.74,-75.3526 1281.98,-72.6236 1272.27,-68.3729 1271.74,-75.3526"/>
</g>
<!-- Node19&#45;&gt;Node20 -->
<g id="edge22" class="edge"><title>Node19&#45;&gt;Node20</title>
<path fill="none" stroke="midnightblue" d="M1321.52,-65.5215C1299.53,-57.9161 1271.2,-48.1369 1246,-39.5 1237.56,-36.6072 1228.55,-33.5303 1219.89,-30.5787"/>
<polygon fill="midnightblue" stroke="midnightblue" points="1320.55,-68.8893 1331.15,-68.8509 1322.84,-62.2739 1320.55,-68.8893"/>
</g>
<!-- Node20&#45;&gt;Node11 -->
<g id="edge23" class="edge"><title>Node20&#45;&gt;Node11</title>
<path fill="none" stroke="midnightblue" d="M1113.85,-33.543C1089.89,-40.7891 1063.25,-48.8467 1043.16,-54.9246"/>
<polygon fill="midnightblue" stroke="midnightblue" points="1115.01,-36.8468 1123.57,-30.6014 1112.99,-30.1466 1115.01,-36.8468"/>
</g>
<!-- Node21&#45;&gt;Node2 -->
<g id="edge26" class="edge"><title>Node21&#45;&gt;Node2</title>
<path fill="none" stroke="midnightblue" d="M1328.44,-181.845C1295.53,-167.135 1243.29,-143.794 1209.2,-128.56"/>
<polygon fill="midnightblue" stroke="midnightblue" points="1327.03,-185.049 1337.59,-185.933 1329.89,-178.658 1327.03,-185.049"/>
</g>
<!-- Node21&#45;&gt;Node13 -->
<g id="edge27" class="edge"><title>Node21&#45;&gt;Node13</title>
<path fill="none" stroke="midnightblue" d="M1309.35,-207.406C1282.85,-213.759 1250.38,-221.546 1224.05,-227.858"/>
<polygon fill="midnightblue" stroke="midnightblue" points="1310.28,-210.783 1319.18,-205.047 1308.64,-203.976 1310.28,-210.783"/>
</g>
<!-- Node22 -->
<g id="node22" class="node"><title>Node22</title>
<g id="a_node22"><a xlink:href="../../da/d7f/class_render.html#a80931c5b51341327352367c0df72e75f" target="_top" xlink:title=" ">
<polygon fill="white" stroke="black" points="1103,-186 1103,-205 1246,-205 1246,-186 1103,-186"/>
<text text-anchor="middle" x="1174.5" y="-193" font-family="Helvetica,sans-Serif" font-size="10.00">Render::GetActorsInViewport</text>
</a>
</g>
</g>
<!-- Node21&#45;&gt;Node22 -->
<g id="edge25" class="edge"><title>Node21&#45;&gt;Node22</title>
<path fill="none" stroke="midnightblue" d="M1273.82,-195.5C1264.55,-195.5 1255.19,-195.5 1246.12,-195.5"/>
<polygon fill="midnightblue" stroke="midnightblue" points="1273.83,-199 1283.83,-195.5 1273.83,-192 1273.83,-199"/>
</g>
<!-- Node23&#45;&gt;Node14 -->
<g id="edge33" class="edge"><title>Node23&#45;&gt;Node14</title>
<path fill="none" stroke="midnightblue" d="M1463.78,-151.582C1377.37,-142.842 1225.03,-136.044 1103,-176.5 1069.5,-187.607 1037.14,-215.027 1021.41,-229.763"/>
<polygon fill="midnightblue" stroke="midnightblue" points="1463.68,-155.09 1473.99,-152.654 1464.41,-148.128 1463.68,-155.09"/>
</g>
<!-- Node23&#45;&gt;Node19 -->
<g id="edge31" class="edge"><title>Node23&#45;&gt;Node19</title>
<path fill="none" stroke="midnightblue" d="M1491.21,-140.942C1456.41,-124.252 1407.85,-100.967 1380.95,-88.0644"/>
<polygon fill="midnightblue" stroke="midnightblue" points="1490.11,-144.292 1500.64,-145.46 1493.13,-137.98 1490.11,-144.292"/>
</g>
<!-- Node23&#45;&gt;Node21 -->
<g id="edge32" class="edge"><title>Node23&#45;&gt;Node21</title>
<path fill="none" stroke="midnightblue" d="M1463.61,-174.497C1444.78,-178.351 1424.8,-182.441 1407.52,-185.978"/>
<polygon fill="midnightblue" stroke="midnightblue" points="1464.53,-177.881 1473.63,-172.447 1463.13,-171.023 1464.53,-177.881"/>
</g>
</g>
</svg>
