<?xml version="1.0" encoding="UTF-8" standalone="no"?>
<!DOCTYPE svg PUBLIC "-//W3C//DTD SVG 1.1//EN"
 "http://www.w3.org/Graphics/SVG/1.1/DTD/svg11.dtd">
<!-- Generated by graphviz version 2.38.0 (20140413.2041)
 -->
<!-- Title: GetTravelTime Pages: 1 -->
<svg width="711pt" height="78pt"
 viewBox="0.00 0.00 711.00 77.50" xmlns="http://www.w3.org/2000/svg" xmlns:xlink="http://www.w3.org/1999/xlink">
<g id="graph0" class="graph" transform="scale(1 1) rotate(0) translate(4 73.5)">
<title>GetTravelTime</title>
<polygon fill="white" stroke="none" points="-4,4 -4,-73.5 707,-73.5 707,4 -4,4"/>
<!-- Node1 -->
<g id="node1" class="node"><title>Node1</title>
<g id="a_node1"><a xlink:title=" ">
<polygon fill="#bfbfbf" stroke="black" points="625,-22.5 625,-41.5 703,-41.5 703,-22.5 625,-22.5"/>
<text text-anchor="middle" x="664" y="-29.5" font-family="Helvetica,sans-Serif" font-size="10.00">GetTravelTime</text>
</a>
</g>
</g>
<!-- Node2 -->
<g id="node2" class="node"><title>Node2</title>
<g id="a_node2"><a xlink:href="../../d4/d06/class_application_1_1_game.html#a3f65e3f0ef1a9114fb3dea275e52442e" target="_top" xlink:title=" ">
<polygon fill="white" stroke="black" points="470.5,-39 470.5,-69 573.5,-69 573.5,-39 470.5,-39"/>
<text text-anchor="start" x="478.5" y="-57" font-family="Helvetica,sans-Serif" font-size="10.00">Application::Game::</text>
<text text-anchor="middle" x="522" y="-46" font-family="Helvetica,sans-Serif" font-size="10.00">EventLoop</text>
</a>
</g>
</g>
<!-- Node1&#45;&gt;Node2 -->
<g id="edge1" class="edge"><title>Node1&#45;&gt;Node2</title>
<path fill="none" stroke="midnightblue" d="M614.822,-39.5708C601.501,-41.6641 587.008,-43.9416 573.556,-46.0556"/>
<polygon fill="midnightblue" stroke="midnightblue" points="615.409,-43.0216 624.744,-38.0116 614.322,-36.1065 615.409,-43.0216"/>
</g>
<!-- Node6 -->
<g id="node6" class="node"><title>Node6</title>
<g id="a_node6"><a xlink:href="../../de/d21/class_g_u_i_window___travel.html#ad6e5a74f3b8b4cd62b7af51d40e28a90" target="_top" xlink:title=" ">
<polygon fill="white" stroke="black" points="455,-0.5 455,-19.5 589,-19.5 589,-0.5 455,-0.5"/>
<text text-anchor="middle" x="522" y="-7.5" font-family="Helvetica,sans-Serif" font-size="10.00">GUIWindow_Travel::Update</text>
</a>
</g>
</g>
<!-- Node1&#45;&gt;Node6 -->
<g id="edge5" class="edge"><title>Node1&#45;&gt;Node6</title>
<path fill="none" stroke="midnightblue" d="M614.599,-24.3942C604.6,-22.8229 593.949,-21.1491 583.579,-19.5196"/>
<polygon fill="midnightblue" stroke="midnightblue" points="614.322,-27.8935 624.744,-25.9884 615.409,-20.9784 614.322,-27.8935"/>
</g>
<!-- Node3 -->
<g id="node3" class="node"><title>Node3</title>
<g id="a_node3"><a xlink:href="../../d4/d06/class_application_1_1_game.html#aaa0ff18388b32b4e6198835a35e000d3" target="_top" xlink:title=" ">
<polygon fill="white" stroke="black" points="316,-39 316,-69 419,-69 419,-39 316,-39"/>
<text text-anchor="start" x="324" y="-57" font-family="Helvetica,sans-Serif" font-size="10.00">Application::Game::</text>
<text text-anchor="middle" x="367.5" y="-46" font-family="Helvetica,sans-Serif" font-size="10.00">GameLoop</text>
</a>
</g>
</g>
<!-- Node2&#45;&gt;Node3 -->
<g id="edge2" class="edge"><title>Node2&#45;&gt;Node3</title>
<path fill="none" stroke="midnightblue" d="M459.996,-54C446.417,-54 432.164,-54 419.059,-54"/>
<polygon fill="midnightblue" stroke="midnightblue" points="460.22,-57.5001 470.22,-54 460.22,-50.5001 460.22,-57.5001"/>
</g>
<!-- Node4 -->
<g id="node4" class="node"><title>Node4</title>
<g id="a_node4"><a xlink:href="../../d4/d06/class_application_1_1_game.html#a013ffd59e8fdf1c0a396da1dbe1681ca" target="_top" xlink:title=" ">
<polygon fill="white" stroke="black" points="156,-44.5 156,-63.5 280,-63.5 280,-44.5 156,-44.5"/>
<text text-anchor="middle" x="218" y="-51.5" font-family="Helvetica,sans-Serif" font-size="10.00">Application::Game::Loop</text>
</a>
</g>
</g>
<!-- Node3&#45;&gt;Node4 -->
<g id="edge3" class="edge"><title>Node3&#45;&gt;Node4</title>
<path fill="none" stroke="midnightblue" d="M305.59,-54C297.149,-54 288.478,-54 280.035,-54"/>
<polygon fill="midnightblue" stroke="midnightblue" points="305.739,-57.5001 315.739,-54 305.739,-50.5001 305.739,-57.5001"/>
</g>
<!-- Node5 -->
<g id="node5" class="node"><title>Node5</title>
<g id="a_node5"><a xlink:href="../../d4/d06/class_application_1_1_game.html#a96341ca5b54d90adc3ecb3bf0bcd2312" target="_top" xlink:title=" ">
<polygon fill="white" stroke="black" points="0,-44.5 0,-63.5 120,-63.5 120,-44.5 0,-44.5"/>
<text text-anchor="middle" x="60" y="-51.5" font-family="Helvetica,sans-Serif" font-size="10.00">Application::Game::Run</text>
</a>
</g>
</g>
<!-- Node4&#45;&gt;Node5 -->
<g id="edge4" class="edge"><title>Node4&#45;&gt;Node5</title>
<path fill="none" stroke="midnightblue" d="M145.546,-54C137.081,-54 128.513,-54 120.244,-54"/>
<polygon fill="midnightblue" stroke="midnightblue" points="145.792,-57.5001 155.792,-54 145.792,-50.5001 145.792,-57.5001"/>
</g>
</g>
</svg>
