<?xml version="1.0" encoding="UTF-8" standalone="no"?>
<!DOCTYPE svg PUBLIC "-//W3C//DTD SVG 1.1//EN"
 "http://www.w3.org/Graphics/SVG/1.1/DTD/svg11.dtd">
<!-- Generated by graphviz version 2.38.0 (20140413.2041)
 -->
<!-- Title: SpellFxRenderer::RenderAsSprite Pages: 1 -->
<svg width="919pt" height="628pt"
 viewBox="0.00 0.00 919.00 628.00" xmlns="http://www.w3.org/2000/svg" xmlns:xlink="http://www.w3.org/1999/xlink">
<g id="graph0" class="graph" transform="scale(1 1) rotate(0) translate(4 624)">
<title>SpellFxRenderer::RenderAsSprite</title>
<polygon fill="white" stroke="none" points="-4,4 -4,-624 915,-624 915,4 -4,4"/>
<!-- Node1 -->
<g id="node1" class="node"><title>Node1</title>
<g id="a_node1"><a xlink:title=" ">
<polygon fill="#bfbfbf" stroke="black" points="0,-251 0,-281 137,-281 137,-251 0,-251"/>
<text text-anchor="start" x="8" y="-269" font-family="Helvetica,sans-Serif" font-size="10.00">SpellFxRenderer::RenderAs</text>
<text text-anchor="middle" x="68.5" y="-258" font-family="Helvetica,sans-Serif" font-size="10.00">Sprite</text>
</a>
</g>
</g>
<!-- Node2 -->
<g id="node2" class="node"><title>Node2</title>
<g id="a_node2"><a xlink:href="../../db/d64/struct_spell_fx_renderer.html#ae75781f32c8bd81c4dc6cf24484956ea" target="_top" xlink:title=" ">
<polygon fill="white" stroke="black" points="173,-578.5 173,-619.5 331,-619.5 331,-578.5 173,-578.5"/>
<text text-anchor="start" x="181" y="-607.5" font-family="Helvetica,sans-Serif" font-size="10.00">SpellFxRenderer::_4A73AA</text>
<text text-anchor="start" x="181" y="-596.5" font-family="Helvetica,sans-Serif" font-size="10.00">_hanging_trace_particles</text>
<text text-anchor="middle" x="252" y="-585.5" font-family="Helvetica,sans-Serif" font-size="10.00">___like_fire_strike_ice_blast_etc</text>
</a>
</g>
</g>
<!-- Node1&#45;&gt;Node2 -->
<g id="edge1" class="edge"><title>Node1&#45;&gt;Node2</title>
<path fill="none" stroke="midnightblue" d="M70.3049,-281.211C73.6831,-329.866 90.6899,-483.5 173,-569 174.069,-570.111 175.184,-571.181 176.339,-572.212"/>
<polygon fill="midnightblue" stroke="midnightblue" points="174.418,-575.149 184.48,-578.464 178.681,-569.598 174.418,-575.149"/>
</g>
<!-- Node4 -->
<g id="node4" class="node"><title>Node4</title>
<g id="a_node4"><a xlink:href="../../db/d64/struct_spell_fx_renderer.html#a44108f9211faba1a7ecf1ad27ae07ea1" target="_top" xlink:title=" ">
<polygon fill="white" stroke="black" points="184,-518.5 184,-559.5 320,-559.5 320,-518.5 184,-518.5"/>
<text text-anchor="start" x="192" y="-547.5" font-family="Helvetica,sans-Serif" font-size="10.00">SpellFxRenderer::_4A75CC</text>
<text text-anchor="start" x="192" y="-536.5" font-family="Helvetica,sans-Serif" font-size="10.00">_single_spell_collision</text>
<text text-anchor="middle" x="252" y="-525.5" font-family="Helvetica,sans-Serif" font-size="10.00">_particle</text>
</a>
</g>
</g>
<!-- Node1&#45;&gt;Node4 -->
<g id="edge3" class="edge"><title>Node1&#45;&gt;Node4</title>
<path fill="none" stroke="midnightblue" d="M71.7623,-281.136C78.8162,-323.171 104.207,-442.605 173,-509 174.256,-510.212 175.566,-511.377 176.923,-512.495"/>
<polygon fill="midnightblue" stroke="midnightblue" points="174.984,-515.412 185.144,-518.413 179.073,-509.731 174.984,-515.412"/>
</g>
<!-- Node5 -->
<g id="node5" class="node"><title>Node5</title>
<g id="a_node5"><a xlink:href="../../db/d64/struct_spell_fx_renderer.html#a1236fb1a7189c7ecb93413e393aa6d63" target="_top" xlink:title=" ">
<polygon fill="white" stroke="black" points="185.5,-398 185.5,-428 318.5,-428 318.5,-398 185.5,-398"/>
<text text-anchor="start" x="193.5" y="-416" font-family="Helvetica,sans-Serif" font-size="10.00">SpellFxRenderer::_4A7688</text>
<text text-anchor="middle" x="252" y="-405" font-family="Helvetica,sans-Serif" font-size="10.00">_fireball_collision_particle</text>
</a>
</g>
</g>
<!-- Node1&#45;&gt;Node5 -->
<g id="edge5" class="edge"><title>Node1&#45;&gt;Node5</title>
<path fill="none" stroke="midnightblue" d="M78.336,-281.113C94.1107,-306.8 129.572,-359.004 173,-388 176.079,-390.056 179.338,-391.951 182.708,-393.699"/>
<polygon fill="midnightblue" stroke="midnightblue" points="181.306,-396.907 191.846,-397.986 184.279,-390.57 181.306,-396.907"/>
</g>
<!-- Node19 -->
<g id="node19" class="node"><title>Node19</title>
<g id="a_node19"><a xlink:href="../../db/d64/struct_spell_fx_renderer.html#a4809c5d5e850f54a01698dd7ff42cf67" target="_top" xlink:title=" ">
<polygon fill="white" stroke="black" points="184.5,-251 184.5,-281 319.5,-281 319.5,-251 184.5,-251"/>
<text text-anchor="start" x="192.5" y="-269" font-family="Helvetica,sans-Serif" font-size="10.00">SpellFxRenderer::_4A77FD</text>
<text text-anchor="middle" x="252" y="-258" font-family="Helvetica,sans-Serif" font-size="10.00">_implosion_particle_d3d</text>
</a>
</g>
</g>
<!-- Node1&#45;&gt;Node19 -->
<g id="edge20" class="edge"><title>Node1&#45;&gt;Node19</title>
<path fill="none" stroke="midnightblue" d="M137.084,-266C149.131,-266 161.762,-266 174.048,-266"/>
<polygon fill="midnightblue" stroke="midnightblue" points="174.266,-269.5 184.266,-266 174.266,-262.5 174.266,-269.5"/>
</g>
<!-- Node20 -->
<g id="node20" class="node"><title>Node20</title>
<g id="a_node20"><a xlink:href="../../db/d64/struct_spell_fx_renderer.html#a29a610804798407c41ddddcc1ed165f6" target="_top" xlink:title=" ">
<polygon fill="white" stroke="black" points="184,-349 184,-379 320,-379 320,-349 184,-349"/>
<text text-anchor="start" x="192" y="-367" font-family="Helvetica,sans-Serif" font-size="10.00">SpellFxRenderer::_4A78AE</text>
<text text-anchor="middle" x="252" y="-356" font-family="Helvetica,sans-Serif" font-size="10.00">_sparks_spell</text>
</a>
</g>
</g>
<!-- Node1&#45;&gt;Node20 -->
<g id="edge24" class="edge"><title>Node1&#45;&gt;Node20</title>
<path fill="none" stroke="midnightblue" d="M87.4878,-281.277C107.324,-297.482 140.723,-322.919 173,-339 177.499,-341.241 182.242,-343.34 187.076,-345.293"/>
<polygon fill="midnightblue" stroke="midnightblue" points="185.855,-348.573 196.445,-348.869 188.351,-342.033 185.855,-348.573"/>
</g>
<!-- Node23 -->
<g id="node23" class="node"><title>Node23</title>
<g id="a_node23"><a xlink:href="../../db/d64/struct_spell_fx_renderer.html#a02d5c26c97072d8ea49872764d7fa001" target="_top" xlink:title=" ">
<polygon fill="white" stroke="black" points="185.5,-300 185.5,-330 318.5,-330 318.5,-300 185.5,-300"/>
<text text-anchor="start" x="193.5" y="-318" font-family="Helvetica,sans-Serif" font-size="10.00">SpellFxRenderer::_4A7948</text>
<text text-anchor="middle" x="252" y="-307" font-family="Helvetica,sans-Serif" font-size="10.00">_mind_blast_after_effect</text>
</a>
</g>
</g>
<!-- Node1&#45;&gt;Node23 -->
<g id="edge28" class="edge"><title>Node1&#45;&gt;Node23</title>
<path fill="none" stroke="midnightblue" d="M125.437,-281.101C144.416,-286.225 165.79,-291.996 185.45,-297.303"/>
<polygon fill="midnightblue" stroke="midnightblue" points="184.681,-300.721 195.248,-299.948 186.506,-293.963 184.681,-300.721"/>
</g>
<!-- Node24 -->
<g id="node24" class="node"><title>Node24</title>
<g id="a_node24"><a xlink:href="../../db/d64/struct_spell_fx_renderer.html#a81029ec0fd884b4efaa78cc5c0c850a8" target="_top" xlink:title=" ">
<polygon fill="white" stroke="black" points="179.5,-447 179.5,-499 324.5,-499 324.5,-447 179.5,-447"/>
<text text-anchor="start" x="187.5" y="-487" font-family="Helvetica,sans-Serif" font-size="10.00">SpellFxRenderer::_4A7A66</text>
<text text-anchor="start" x="187.5" y="-476" font-family="Helvetica,sans-Serif" font-size="10.00">_miltiple_spell_collision</text>
<text text-anchor="start" x="187.5" y="-465" font-family="Helvetica,sans-Serif" font-size="10.00">_partifles___like_after_sparks</text>
<text text-anchor="middle" x="252" y="-454" font-family="Helvetica,sans-Serif" font-size="10.00">_or_lightning</text>
</a>
</g>
</g>
<!-- Node1&#45;&gt;Node24 -->
<g id="edge31" class="edge"><title>Node1&#45;&gt;Node24</title>
<path fill="none" stroke="midnightblue" d="M75.0803,-281.436C87.6912,-314.364 121.371,-392.218 173,-438 174.145,-439.016 175.325,-440.006 176.534,-440.972"/>
<polygon fill="midnightblue" stroke="midnightblue" points="174.736,-443.99 184.897,-446.992 178.826,-438.309 174.736,-443.99"/>
</g>
<!-- Node25 -->
<g id="node25" class="node"><title>Node25</title>
<g id="a_node25"><a xlink:href="../../db/d64/struct_spell_fx_renderer.html#aa3347d545ef33a03e121ea468eb45201" target="_top" xlink:title=" ">
<polygon fill="white" stroke="black" points="185,-202 185,-232 319,-232 319,-202 185,-202"/>
<text text-anchor="start" x="193" y="-220" font-family="Helvetica,sans-Serif" font-size="10.00">SpellFxRenderer::_4A7C07</text>
<text text-anchor="middle" x="252" y="-209" font-family="Helvetica,sans-Serif" font-size="10.00">_stun_spell_fx</text>
</a>
</g>
</g>
<!-- Node1&#45;&gt;Node25 -->
<g id="edge33" class="edge"><title>Node1&#45;&gt;Node25</title>
<path fill="none" stroke="midnightblue" d="M125.437,-250.899C144.416,-245.775 165.79,-240.004 185.45,-234.697"/>
<polygon fill="midnightblue" stroke="midnightblue" points="186.506,-238.037 195.248,-232.052 184.681,-231.279 186.506,-238.037"/>
</g>
<!-- Node27 -->
<g id="node27" class="node"><title>Node27</title>
<g id="a_node27"><a xlink:href="../../db/d64/struct_spell_fx_renderer.html#a7bddf5a98d826d6232db55e2cd716e89" target="_top" xlink:title=" ">
<polygon fill="white" stroke="black" points="182,-153 182,-183 322,-183 322,-153 182,-153"/>
<text text-anchor="start" x="190" y="-171" font-family="Helvetica,sans-Serif" font-size="10.00">SpellFxRenderer::AddMobile</text>
<text text-anchor="middle" x="252" y="-160" font-family="Helvetica,sans-Serif" font-size="10.00">Light</text>
</a>
</g>
</g>
<!-- Node1&#45;&gt;Node27 -->
<g id="edge37" class="edge"><title>Node1&#45;&gt;Node27</title>
<path fill="none" stroke="midnightblue" d="M87.0541,-250.725C106.781,-234.235 140.335,-208.168 173,-192 176.786,-190.126 180.747,-188.364 184.793,-186.711"/>
<polygon fill="midnightblue" stroke="midnightblue" points="186.253,-189.9 194.341,-183.056 183.75,-183.363 186.253,-189.9"/>
</g>
<!-- Node30 -->
<g id="node30" class="node"><title>Node30</title>
<g id="a_node30"><a xlink:href="../../db/d64/struct_spell_fx_renderer.html#afac1129a98a1f48dbdd0d8d2aea2363b" target="_top" xlink:title=" ">
<polygon fill="white" stroke="black" points="176,-114.5 176,-133.5 328,-133.5 328,-114.5 176,-114.5"/>
<text text-anchor="middle" x="252" y="-121.5" font-family="Helvetica,sans-Serif" font-size="10.00">SpellFxRenderer::AddProjectile</text>
</a>
</g>
</g>
<!-- Node1&#45;&gt;Node30 -->
<g id="edge40" class="edge"><title>Node1&#45;&gt;Node30</title>
<path fill="none" stroke="midnightblue" d="M77.846,-250.847C93.1225,-224.594 128.173,-170.799 173,-143 176.433,-140.871 180.089,-138.98 183.872,-137.302"/>
<polygon fill="midnightblue" stroke="midnightblue" points="185.444,-140.446 193.488,-133.55 182.899,-133.924 185.444,-140.446"/>
</g>
<!-- Node32 -->
<g id="node32" class="node"><title>Node32</title>
<g id="a_node32"><a xlink:href="../../db/dd6/class_assets_manager.html#a10437426fdfa6c1e8e6d6a2ece0c532f" target="_top" xlink:title=" ">
<polygon fill="white" stroke="black" points="183.5,-76.5 183.5,-95.5 320.5,-95.5 320.5,-76.5 183.5,-76.5"/>
<text text-anchor="middle" x="252" y="-83.5" font-family="Helvetica,sans-Serif" font-size="10.00">AssetsManager::GetBitmap</text>
</a>
</g>
</g>
<!-- Node1&#45;&gt;Node32 -->
<g id="edge42" class="edge"><title>Node1&#45;&gt;Node32</title>
<path fill="none" stroke="midnightblue" d="M74.7802,-250.832C86.8081,-218.614 119.422,-143.185 173,-105 175.724,-103.059 178.623,-101.314 181.64,-99.747"/>
<polygon fill="midnightblue" stroke="midnightblue" points="183.294,-102.841 190.988,-95.5568 180.431,-96.4533 183.294,-102.841"/>
</g>
<!-- Node33 -->
<g id="node33" class="node"><title>Node33</title>
<g id="a_node33"><a xlink:href="../../da/d64/struct_random.html#ab99272957b87a70f54684885d4fbaf91" target="_top" xlink:title=" ">
<polygon fill="white" stroke="black" points="197,-38.5 197,-57.5 307,-57.5 307,-38.5 197,-38.5"/>
<text text-anchor="middle" x="252" y="-45.5" font-family="Helvetica,sans-Serif" font-size="10.00">Random::GetInRange</text>
</a>
</g>
</g>
<!-- Node1&#45;&gt;Node33 -->
<g id="edge43" class="edge"><title>Node1&#45;&gt;Node33</title>
<path fill="none" stroke="midnightblue" d="M72.8388,-250.772C81.8815,-213.283 110.489,-116.024 173,-67 177.318,-63.6133 182.154,-60.819 187.244,-58.5148"/>
<polygon fill="midnightblue" stroke="midnightblue" points="188.571,-61.7546 196.628,-54.8748 186.039,-55.2284 188.571,-61.7546"/>
</g>
<!-- Node36 -->
<g id="node36" class="node"><title>Node36</title>
<g id="a_node36"><a xlink:href="../../da/d64/struct_random.html#a4b6de44788d045c0b2a4b569b44f8600" target="_top" xlink:title=" ">
<polygon fill="white" stroke="black" points="201.5,-0.5 201.5,-19.5 302.5,-19.5 302.5,-0.5 201.5,-0.5"/>
<text text-anchor="middle" x="252" y="-7.5" font-family="Helvetica,sans-Serif" font-size="10.00">Random::SetRange</text>
</a>
</g>
</g>
<!-- Node1&#45;&gt;Node36 -->
<g id="edge46" class="edge"><title>Node1&#45;&gt;Node36</title>
<path fill="none" stroke="midnightblue" d="M71.4662,-250.771C77.7524,-208.563 101.34,-89.235 173,-29 178.376,-24.4809 184.658,-21.0047 191.281,-18.3359"/>
<polygon fill="midnightblue" stroke="midnightblue" points="192.821,-21.5091 201.162,-14.9762 190.567,-14.8818 192.821,-21.5091"/>
</g>
<!-- Node3 -->
<g id="node3" class="node"><title>Node3</title>
<g id="a_node3"><a xlink:href="../../dd/d2d/class_particle_engine.html#aa0699c216edc3b210955899c8df6cb05" target="_top" xlink:title=" ">
<polygon fill="white" stroke="black" points="381,-428.5 381,-447.5 517,-447.5 517,-428.5 381,-428.5"/>
<text text-anchor="middle" x="449" y="-435.5" font-family="Helvetica,sans-Serif" font-size="10.00">ParticleEngine::AddParticle</text>
</a>
</g>
</g>
<!-- Node2&#45;&gt;Node3 -->
<g id="edge2" class="edge"><title>Node2&#45;&gt;Node3</title>
<path fill="none" stroke="midnightblue" d="M314.88,-578.418C320.518,-575.598 325.986,-572.463 331,-569 376.985,-537.237 417.096,-483.808 436.173,-456.017"/>
<polygon fill="midnightblue" stroke="midnightblue" points="439.13,-457.892 441.814,-447.643 433.324,-453.981 439.13,-457.892"/>
</g>
<!-- Node4&#45;&gt;Node3 -->
<g id="edge4" class="edge"><title>Node4&#45;&gt;Node3</title>
<path fill="none" stroke="midnightblue" d="M310.168,-518.37C317.266,-515.412 324.358,-512.26 331,-509 365.27,-492.179 402.61,-468.504 425.668,-453.206"/>
<polygon fill="midnightblue" stroke="midnightblue" points="427.691,-456.063 434.054,-447.592 423.797,-450.246 427.691,-456.063"/>
</g>
<!-- Node5&#45;&gt;Node3 -->
<g id="edge17" class="edge"><title>Node5&#45;&gt;Node3</title>
<path fill="none" stroke="midnightblue" d="M318.746,-421.429C335.476,-423.574 353.605,-425.898 370.846,-428.109"/>
<polygon fill="midnightblue" stroke="midnightblue" points="370.514,-431.594 380.878,-429.395 371.404,-424.651 370.514,-431.594"/>
</g>
<!-- Node6 -->
<g id="node6" class="node"><title>Node6</title>
<g id="a_node6"><a xlink:href="../../d2/d83/struct_spell_f_x___billboard.html#ad74e3f52655a26d6c10c415480b4e365" target="_top" xlink:title=" ">
<polygon fill="white" stroke="black" points="386.5,-379 386.5,-409 511.5,-409 511.5,-379 386.5,-379"/>
<text text-anchor="start" x="394.5" y="-397" font-family="Helvetica,sans-Serif" font-size="10.00">SpellFX_Billboard::</text>
<text text-anchor="middle" x="449" y="-386" font-family="Helvetica,sans-Serif" font-size="10.00">_47829F_sphere_particle</text>
</a>
</g>
</g>
<!-- Node5&#45;&gt;Node6 -->
<g id="edge6" class="edge"><title>Node5&#45;&gt;Node6</title>
<path fill="none" stroke="midnightblue" d="M318.746,-406.594C337.303,-404.786 357.583,-402.81 376.463,-400.97"/>
<polygon fill="midnightblue" stroke="midnightblue" points="376.875,-404.447 386.488,-399.993 376.196,-397.48 376.875,-404.447"/>
</g>
<!-- Node17 -->
<g id="node17" class="node"><title>Node17</title>
<g id="a_node17"><a xlink:href="../../d0/d5a/struct_sprite_object.html#ad532b4986fb8b77ef0b67bb05913ef50" target="_top" xlink:title=" ">
<polygon fill="white" stroke="black" points="386,-340.5 386,-359.5 512,-359.5 512,-340.5 386,-340.5"/>
<text text-anchor="middle" x="449" y="-347.5" font-family="Helvetica,sans-Serif" font-size="10.00">SpriteObject::GetLifetime</text>
</a>
</g>
</g>
<!-- Node5&#45;&gt;Node17 -->
<g id="edge18" class="edge"><title>Node5&#45;&gt;Node17</title>
<path fill="none" stroke="midnightblue" d="M304.238,-397.998C313.256,-394.956 322.479,-391.582 331,-388 347.678,-380.99 350.055,-375.34 367,-369 373.79,-366.46 381.03,-364.185 388.284,-362.17"/>
<polygon fill="midnightblue" stroke="midnightblue" points="389.359,-365.507 398.142,-359.582 387.581,-358.736 389.359,-365.507"/>
</g>
<!-- Node18 -->
<g id="node18" class="node"><title>Node18</title>
<g id="a_node18"><a xlink:href="../../de/d6c/_spell_fx_renderer_8cpp.html#a53b9e5af222a3fbc8bd7c5a297b1dcde" target="_top" xlink:title=" ">
<polygon fill="white" stroke="black" points="409.5,-302.5 409.5,-321.5 488.5,-321.5 488.5,-302.5 409.5,-302.5"/>
<text text-anchor="middle" x="449" y="-309.5" font-family="Helvetica,sans-Serif" font-size="10.00">ModulateColor</text>
</a>
</g>
</g>
<!-- Node5&#45;&gt;Node18 -->
<g id="edge19" class="edge"><title>Node5&#45;&gt;Node18</title>
<path fill="none" stroke="midnightblue" d="M314.701,-397.842C320.502,-395.083 326.053,-391.83 331,-388 354.692,-369.657 342.595,-348.384 367,-331 376.463,-324.259 387.977,-319.879 399.317,-317.041"/>
<polygon fill="midnightblue" stroke="midnightblue" points="400.14,-320.444 409.183,-314.923 398.671,-313.6 400.14,-320.444"/>
</g>
<!-- Node7 -->
<g id="node7" class="node"><title>Node7</title>
<g id="a_node7"><a xlink:href="../../d2/d83/struct_spell_f_x___billboard.html#a36eba36345cd8f99f162b30888c205e8" target="_top" xlink:title=" ">
<polygon fill="white" stroke="black" points="589.5,-494 589.5,-524 687.5,-524 687.5,-494 589.5,-494"/>
<text text-anchor="start" x="597.5" y="-512" font-family="Helvetica,sans-Serif" font-size="10.00">SpellFX_Billboard::</text>
<text text-anchor="middle" x="638.5" y="-501" font-family="Helvetica,sans-Serif" font-size="10.00">SpellFXProject</text>
</a>
</g>
</g>
<!-- Node6&#45;&gt;Node7 -->
<g id="edge7" class="edge"><title>Node6&#45;&gt;Node7</title>
<path fill="none" stroke="midnightblue" d="M508.685,-409.009C516.393,-411.869 524.028,-415.186 531,-419 563.957,-437.026 596.09,-466.267 616.29,-486.504"/>
<polygon fill="midnightblue" stroke="midnightblue" points="613.922,-489.089 623.424,-493.777 618.92,-484.187 613.922,-489.089"/>
</g>
<!-- Node10 -->
<g id="node10" class="node"><title>Node10</title>
<g id="a_node10"><a xlink:href="../../d2/d83/struct_spell_f_x___billboard.html#a872ab9258a829aac498197a498752357" target="_top" xlink:title=" ">
<polygon fill="white" stroke="black" points="589.5,-379 589.5,-409 687.5,-409 687.5,-379 589.5,-379"/>
<text text-anchor="start" x="597.5" y="-397" font-family="Helvetica,sans-Serif" font-size="10.00">SpellFX_Billboard::</text>
<text text-anchor="middle" x="638.5" y="-386" font-family="Helvetica,sans-Serif" font-size="10.00">SpellFXViewClip</text>
</a>
</g>
</g>
<!-- Node6&#45;&gt;Node10 -->
<g id="edge10" class="edge"><title>Node6&#45;&gt;Node10</title>
<path fill="none" stroke="midnightblue" d="M511.654,-394C533.393,-394 557.751,-394 579.204,-394"/>
<polygon fill="midnightblue" stroke="midnightblue" points="579.478,-397.5 589.478,-394 579.478,-390.5 579.478,-397.5"/>
</g>
<!-- Node15 -->
<g id="node15" class="node"><title>Node15</title>
<g id="a_node15"><a xlink:href="../../d2/d83/struct_spell_f_x___billboard.html#a96fd9635aad32c6c98a91065ddb2a8ea" target="_top" xlink:title=" ">
<polygon fill="white" stroke="black" points="582,-316 582,-346 695,-346 695,-316 582,-316"/>
<text text-anchor="start" x="590" y="-334" font-family="Helvetica,sans-Serif" font-size="10.00">SpellFX_Billboard::</text>
<text text-anchor="middle" x="638.5" y="-323" font-family="Helvetica,sans-Serif" font-size="10.00">SpellFXViewTransform</text>
</a>
</g>
</g>
<!-- Node6&#45;&gt;Node15 -->
<g id="edge15" class="edge"><title>Node6&#45;&gt;Node15</title>
<path fill="none" stroke="midnightblue" d="M500.23,-378.868C510.439,-375.689 521.085,-372.297 531,-369 549.39,-362.885 569.433,-355.835 587.121,-349.481"/>
<polygon fill="midnightblue" stroke="midnightblue" points="588.46,-352.718 596.679,-346.033 586.085,-346.134 588.46,-352.718"/>
</g>
<!-- Node8 -->
<g id="node8" class="node"><title>Node8</title>
<g id="a_node8"><a xlink:href="../../d9/de5/struct_indoor_camera_d3_d.html#a32190b521a23e986e5b0b13098e4b114" target="_top" xlink:title=" ">
<polygon fill="white" stroke="black" points="762.5,-537.5 762.5,-556.5 894.5,-556.5 894.5,-537.5 762.5,-537.5"/>
<text text-anchor="middle" x="828.5" y="-544.5" font-family="Helvetica,sans-Serif" font-size="10.00">IndoorCameraD3D::Project</text>
</a>
</g>
</g>
<!-- Node7&#45;&gt;Node8 -->
<g id="edge8" class="edge"><title>Node7&#45;&gt;Node8</title>
<path fill="none" stroke="midnightblue" d="M687.915,-518.786C713.094,-523.875 744.03,-530.128 770.374,-535.453"/>
<polygon fill="midnightblue" stroke="midnightblue" points="769.729,-538.894 780.225,-537.444 771.116,-532.032 769.729,-538.894"/>
</g>
<!-- Node9 -->
<g id="node9" class="node"><title>Node9</title>
<g id="a_node9"><a xlink:href="../../d0/dc0/_our_math_8h.html#a50ee4d4946888926bdf5a920129a322a" target="_top" xlink:title=" ">
<polygon fill="white" stroke="black" points="793.5,-499.5 793.5,-518.5 863.5,-518.5 863.5,-499.5 793.5,-499.5"/>
<text text-anchor="middle" x="828.5" y="-506.5" font-family="Helvetica,sans-Serif" font-size="10.00">round_to_int</text>
</a>
</g>
</g>
<!-- Node7&#45;&gt;Node9 -->
<g id="edge9" class="edge"><title>Node7&#45;&gt;Node9</title>
<path fill="none" stroke="midnightblue" d="M687.915,-509C717.371,-509 754.707,-509 783.352,-509"/>
<polygon fill="midnightblue" stroke="midnightblue" points="783.482,-512.5 793.482,-509 783.482,-505.5 783.482,-512.5"/>
</g>
<!-- Node11 -->
<g id="node11" class="node"><title>Node11</title>
<g id="a_node11"><a xlink:href="../../d9/de5/struct_indoor_camera_d3_d.html#ae44ac296d0d5225048b313e14edf7da1" target="_top" xlink:title=" ">
<polygon fill="white" stroke="black" points="754.5,-362.5 754.5,-381.5 902.5,-381.5 902.5,-362.5 754.5,-362.5"/>
<text text-anchor="middle" x="828.5" y="-369.5" font-family="Helvetica,sans-Serif" font-size="10.00">IndoorCameraD3D::GetFarClip</text>
</a>
</g>
</g>
<!-- Node10&#45;&gt;Node11 -->
<g id="edge11" class="edge"><title>Node10&#45;&gt;Node11</title>
<path fill="none" stroke="midnightblue" d="M687.915,-388.334C705.147,-386.318 725.076,-383.986 744.384,-381.726"/>
<polygon fill="midnightblue" stroke="midnightblue" points="744.881,-385.192 754.406,-380.554 744.067,-378.24 744.881,-385.192"/>
</g>
<!-- Node12 -->
<g id="node12" class="node"><title>Node12</title>
<g id="a_node12"><a xlink:href="../../d9/de5/struct_indoor_camera_d3_d.html#a6ade9a050aa9009a83e21461c6c470c4" target="_top" xlink:title=" ">
<polygon fill="white" stroke="black" points="751.5,-324.5 751.5,-343.5 905.5,-343.5 905.5,-324.5 751.5,-324.5"/>
<text text-anchor="middle" x="828.5" y="-331.5" font-family="Helvetica,sans-Serif" font-size="10.00">IndoorCameraD3D::GetNearClip</text>
</a>
</g>
</g>
<!-- Node10&#45;&gt;Node12 -->
<g id="edge12" class="edge"><title>Node10&#45;&gt;Node12</title>
<path fill="none" stroke="midnightblue" d="M675.053,-378.892C695.551,-370.542 721.949,-360.394 746,-353 754.185,-350.484 762.921,-348.119 771.52,-345.969"/>
<polygon fill="midnightblue" stroke="midnightblue" points="772.617,-349.305 781.511,-343.549 770.968,-342.502 772.617,-349.305"/>
</g>
<!-- Node13 -->
<g id="node13" class="node"><title>Node13</title>
<g id="a_node13"><a xlink:href="../../d2/d83/struct_spell_f_x___billboard.html#ae3003bbeba0eba0c486d72fdf5001073" target="_top" xlink:title=" ">
<polygon fill="white" stroke="black" points="774.5,-450 774.5,-480 882.5,-480 882.5,-450 774.5,-450"/>
<text text-anchor="start" x="782.5" y="-468" font-family="Helvetica,sans-Serif" font-size="10.00">SpellFX_Billboard::</text>
<text text-anchor="middle" x="828.5" y="-457" font-family="Helvetica,sans-Serif" font-size="10.00">SpellFXFarClipAdjust</text>
</a>
</g>
</g>
<!-- Node10&#45;&gt;Node13 -->
<g id="edge13" class="edge"><title>Node10&#45;&gt;Node13</title>
<path fill="none" stroke="midnightblue" d="M670.751,-409.07C691.746,-418.876 720.19,-431.55 746,-441 751.908,-443.163 758.11,-445.272 764.344,-447.284"/>
<polygon fill="midnightblue" stroke="midnightblue" points="763.54,-450.7 774.129,-450.361 765.639,-444.023 763.54,-450.7"/>
</g>
<!-- Node14 -->
<g id="node14" class="node"><title>Node14</title>
<g id="a_node14"><a xlink:href="../../d2/d83/struct_spell_f_x___billboard.html#a27303b67c1a6f05b9003efc399a4b082" target="_top" xlink:title=" ">
<polygon fill="white" stroke="black" points="771.5,-401 771.5,-431 885.5,-431 885.5,-401 771.5,-401"/>
<text text-anchor="start" x="779.5" y="-419" font-family="Helvetica,sans-Serif" font-size="10.00">SpellFX_Billboard::</text>
<text text-anchor="middle" x="828.5" y="-408" font-family="Helvetica,sans-Serif" font-size="10.00">SpellFXNearClipAdjust</text>
</a>
</g>
</g>
<!-- Node10&#45;&gt;Node14 -->
<g id="edge14" class="edge"><title>Node10&#45;&gt;Node14</title>
<path fill="none" stroke="midnightblue" d="M687.915,-399.666C710.19,-402.272 736.973,-405.406 761.095,-408.229"/>
<polygon fill="midnightblue" stroke="midnightblue" points="760.91,-411.731 771.249,-409.417 761.724,-404.779 760.91,-411.731"/>
</g>
<!-- Node16 -->
<g id="node16" class="node"><title>Node16</title>
<g id="a_node16"><a xlink:href="../../d9/de5/struct_indoor_camera_d3_d.html#a819c840787fde1b667c5477bafb21a62" target="_top" xlink:title=" ">
<polygon fill="white" stroke="black" points="746,-286.5 746,-305.5 911,-305.5 911,-286.5 746,-286.5"/>
<text text-anchor="middle" x="828.5" y="-293.5" font-family="Helvetica,sans-Serif" font-size="10.00">IndoorCameraD3D::ViewTransform</text>
</a>
</g>
</g>
<!-- Node15&#45;&gt;Node16 -->
<g id="edge16" class="edge"><title>Node15&#45;&gt;Node16</title>
<path fill="none" stroke="midnightblue" d="M695.143,-320.641C717.496,-316.479 743.343,-311.668 766.23,-307.407"/>
<polygon fill="midnightblue" stroke="midnightblue" points="766.986,-310.826 776.176,-305.555 765.705,-303.944 766.986,-310.826"/>
</g>
<!-- Node19&#45;&gt;Node6 -->
<g id="edge21" class="edge"><title>Node19&#45;&gt;Node6</title>
<path fill="none" stroke="midnightblue" d="M317.937,-281.044C322.633,-283.579 327.062,-286.54 331,-290 359.986,-315.467 338.025,-343.52 367,-369 370.17,-371.788 373.648,-374.265 377.323,-376.466"/>
<polygon fill="midnightblue" stroke="midnightblue" points="375.724,-379.579 386.206,-381.116 378.97,-373.378 375.724,-379.579"/>
</g>
<!-- Node19&#45;&gt;Node17 -->
<g id="edge22" class="edge"><title>Node19&#45;&gt;Node17</title>
<path fill="none" stroke="midnightblue" d="M314.112,-281.148C320.028,-283.681 325.766,-286.613 331,-290 351.358,-303.175 346.205,-318.526 367,-331 370.623,-333.173 374.476,-335.098 378.458,-336.803"/>
<polygon fill="midnightblue" stroke="midnightblue" points="377.347,-340.125 387.939,-340.394 379.827,-333.578 377.347,-340.125"/>
</g>
<!-- Node19&#45;&gt;Node18 -->
<g id="edge23" class="edge"><title>Node19&#45;&gt;Node18</title>
<path fill="none" stroke="midnightblue" d="M316.309,-281.02C332.809,-284.927 350.569,-289.127 367,-293 377.441,-295.461 388.641,-298.093 399.281,-300.59"/>
<polygon fill="midnightblue" stroke="midnightblue" points="398.732,-304.056 409.267,-302.932 400.331,-297.241 398.732,-304.056"/>
</g>
<!-- Node20&#45;&gt;Node3 -->
<g id="edge25" class="edge"><title>Node20&#45;&gt;Node3</title>
<path fill="none" stroke="midnightblue" d="M311.602,-379.114C318.315,-381.692 324.923,-384.643 331,-388 349.482,-398.21 348.181,-409.425 367,-419 371.628,-421.355 376.555,-423.423 381.603,-425.239"/>
<polygon fill="midnightblue" stroke="midnightblue" points="380.825,-428.666 391.418,-428.428 382.989,-422.009 380.825,-428.666"/>
</g>
<!-- Node21 -->
<g id="node21" class="node"><title>Node21</title>
<g id="a_node21"><a xlink:href="../../d0/d5a/struct_sprite_object.html#a780ddaa205d9a7657aa4461cdbdfeebc" target="_top" xlink:title=" ">
<polygon fill="white" stroke="black" points="376,-264.5 376,-283.5 522,-283.5 522,-264.5 376,-264.5"/>
<text text-anchor="middle" x="449" y="-271.5" font-family="Helvetica,sans-Serif" font-size="10.00">SpriteObject::GetSpriteFrame</text>
</a>
</g>
</g>
<!-- Node20&#45;&gt;Node21 -->
<g id="edge26" class="edge"><title>Node20&#45;&gt;Node21</title>
<path fill="none" stroke="midnightblue" d="M313.112,-348.858C319.417,-346.081 325.516,-342.82 331,-339 352.302,-324.161 345.123,-306.978 367,-293 370.328,-290.873 373.87,-288.984 377.54,-287.306"/>
<polygon fill="midnightblue" stroke="midnightblue" points="378.909,-290.529 386.885,-283.555 376.301,-284.033 378.909,-290.529"/>
</g>
<!-- Node22 -->
<g id="node22" class="node"><title>Node22</title>
<g id="a_node22"><a xlink:href="../../de/da7/struct_sprite_frame_table.html#a4bca0b7ce7055f69630c6bd3217047d7" target="_top" xlink:title=" ">
<polygon fill="white" stroke="black" points="567,-264.5 567,-283.5 710,-283.5 710,-264.5 567,-264.5"/>
<text text-anchor="middle" x="638.5" y="-271.5" font-family="Helvetica,sans-Serif" font-size="10.00">SpriteFrameTable::GetFrame</text>
</a>
</g>
</g>
<!-- Node21&#45;&gt;Node22 -->
<g id="edge27" class="edge"><title>Node21&#45;&gt;Node22</title>
<path fill="none" stroke="midnightblue" d="M522.224,-274C533.554,-274 545.328,-274 556.834,-274"/>
<polygon fill="midnightblue" stroke="midnightblue" points="556.858,-277.5 566.857,-274 556.857,-270.5 556.858,-277.5"/>
</g>
<!-- Node23&#45;&gt;Node3 -->
<g id="edge29" class="edge"><title>Node23&#45;&gt;Node3</title>
<path fill="none" stroke="midnightblue" d="M317.955,-330.024C322.647,-332.563 327.07,-335.531 331,-339 360.23,-364.803 336.909,-394.206 367,-419 369.048,-420.688 371.22,-422.231 373.487,-423.642"/>
<polygon fill="midnightblue" stroke="midnightblue" points="372.16,-426.899 382.641,-428.454 375.417,-420.703 372.16,-426.899"/>
</g>
<!-- Node23&#45;&gt;Node21 -->
<g id="edge30" class="edge"><title>Node23&#45;&gt;Node21</title>
<path fill="none" stroke="midnightblue" d="M318.746,-301.176C342.825,-296.114 369.804,-290.441 392.86,-285.593"/>
<polygon fill="midnightblue" stroke="midnightblue" points="393.75,-288.983 402.816,-283.5 392.31,-282.133 393.75,-288.983"/>
</g>
<!-- Node24&#45;&gt;Node3 -->
<g id="edge32" class="edge"><title>Node24&#45;&gt;Node3</title>
<path fill="none" stroke="midnightblue" d="M324.504,-460.166C344.312,-456.611 365.665,-452.778 384.953,-449.316"/>
<polygon fill="midnightblue" stroke="midnightblue" points="385.608,-452.755 394.832,-447.543 384.371,-445.865 385.608,-452.755"/>
</g>
<!-- Node25&#45;&gt;Node3 -->
<g id="edge35" class="edge"><title>Node25&#45;&gt;Node3</title>
<path fill="none" stroke="midnightblue" d="M319.221,-231.334C323.573,-234.028 327.576,-237.219 331,-241 385.18,-300.825 310.814,-361.054 367,-419 368.634,-420.685 370.387,-422.233 372.237,-423.654"/>
<polygon fill="midnightblue" stroke="midnightblue" points="370.576,-426.744 380.904,-429.106 374.303,-420.819 370.576,-426.744"/>
</g>
<!-- Node25&#45;&gt;Node21 -->
<g id="edge36" class="edge"><title>Node25&#45;&gt;Node21</title>
<path fill="none" stroke="midnightblue" d="M304.489,-232.051C336.017,-241.267 375.874,-252.917 405.58,-261.6"/>
<polygon fill="midnightblue" stroke="midnightblue" points="404.658,-264.977 415.238,-264.423 406.622,-258.258 404.658,-264.977"/>
</g>
<!-- Node26 -->
<g id="node26" class="node"><title>Node26</title>
<g id="a_node26"><a xlink:href="../../d9/d30/_s_d_l__assert_8h.html#afedcea68cf85ee469ab1ea390bbe0abb" target="_top" xlink:title=" ">
<polygon fill="white" stroke="black" points="410.5,-207.5 410.5,-226.5 487.5,-226.5 487.5,-207.5 410.5,-207.5"/>
<text text-anchor="middle" x="449" y="-214.5" font-family="Helvetica,sans-Serif" font-size="10.00">__debugbreak</text>
</a>
</g>
</g>
<!-- Node25&#45;&gt;Node26 -->
<g id="edge34" class="edge"><title>Node25&#45;&gt;Node26</title>
<path fill="none" stroke="midnightblue" d="M319.018,-217C345.701,-217 375.909,-217 400.379,-217"/>
<polygon fill="midnightblue" stroke="midnightblue" points="400.489,-220.5 410.489,-217 400.489,-213.5 400.489,-220.5"/>
</g>
<!-- Node28 -->
<g id="node28" class="node"><title>Node28</title>
<g id="a_node28"><a xlink:href="../../d1/d36/struct_lights_stack___mobile_light__.html#adae73670ea3bd3fba19fe0c1c1509e46" target="_top" xlink:title=" ">
<polygon fill="white" stroke="black" points="387.5,-153 387.5,-183 510.5,-183 510.5,-153 387.5,-153"/>
<text text-anchor="start" x="395.5" y="-171" font-family="Helvetica,sans-Serif" font-size="10.00">LightsStack_MobileLight</text>
<text text-anchor="middle" x="449" y="-160" font-family="Helvetica,sans-Serif" font-size="10.00">_::AddLight</text>
</a>
</g>
</g>
<!-- Node27&#45;&gt;Node28 -->
<g id="edge38" class="edge"><title>Node27&#45;&gt;Node28</title>
<path fill="none" stroke="midnightblue" d="M322.024,-168C339.967,-168 359.32,-168 377.346,-168"/>
<polygon fill="midnightblue" stroke="midnightblue" points="377.494,-171.5 387.494,-168 377.494,-164.5 377.494,-171.5"/>
</g>
<!-- Node29 -->
<g id="node29" class="node"><title>Node29</title>
<g id="a_node29"><a xlink:href="../../d6/d70/class_log.html#ac0de2621497ca3b2fbf208624c08bcdf" target="_top" xlink:title=" ">
<polygon fill="white" stroke="black" points="601.5,-158.5 601.5,-177.5 675.5,-177.5 675.5,-158.5 601.5,-158.5"/>
<text text-anchor="middle" x="638.5" y="-165.5" font-family="Helvetica,sans-Serif" font-size="10.00">Log::Warning</text>
</a>
</g>
</g>
<!-- Node28&#45;&gt;Node29 -->
<g id="edge39" class="edge"><title>Node28&#45;&gt;Node29</title>
<path fill="none" stroke="midnightblue" d="M510.617,-168C536.83,-168 567.01,-168 591.358,-168"/>
<polygon fill="midnightblue" stroke="midnightblue" points="591.407,-171.5 601.407,-168 591.407,-164.5 591.407,-171.5"/>
</g>
<!-- Node31 -->
<g id="node31" class="node"><title>Node31</title>
<g id="a_node31"><a xlink:href="../../db/d64/struct_spell_fx_renderer.html#af7f90c8669062892d2d1d77f61fcf412" target="_top" xlink:title=" ">
<polygon fill="white" stroke="black" points="367,-114.5 367,-133.5 531,-133.5 531,-114.5 367,-114.5"/>
<text text-anchor="middle" x="449" y="-121.5" font-family="Helvetica,sans-Serif" font-size="10.00">SpellFxRenderer::DoAddProjectile</text>
</a>
</g>
</g>
<!-- Node30&#45;&gt;Node31 -->
<g id="edge41" class="edge"><title>Node30&#45;&gt;Node31</title>
<path fill="none" stroke="midnightblue" d="M328.113,-124C337.41,-124 346.995,-124 356.503,-124"/>
<polygon fill="midnightblue" stroke="midnightblue" points="356.773,-127.5 366.773,-124 356.773,-120.5 356.773,-127.5"/>
</g>
<!-- Node34 -->
<g id="node34" class="node"><title>Node34</title>
<g id="a_node34"><a xlink:href="../../d0/dc0/_our_math_8h.html#ab2a1e13f594afe4778ee046c1a6763a5" target="_top" xlink:title=" ">
<polygon fill="white" stroke="black" points="403,-57.5 403,-76.5 495,-76.5 495,-57.5 403,-57.5"/>
<text text-anchor="middle" x="449" y="-64.5" font-family="Helvetica,sans-Serif" font-size="10.00">bankersRounding</text>
</a>
</g>
</g>
<!-- Node33&#45;&gt;Node34 -->
<g id="edge44" class="edge"><title>Node33&#45;&gt;Node34</title>
<path fill="none" stroke="midnightblue" d="M307.059,-53.2673C333.745,-55.8674 365.887,-58.9993 392.734,-61.6151"/>
<polygon fill="midnightblue" stroke="midnightblue" points="392.449,-65.1039 402.742,-62.5902 393.128,-58.1369 392.449,-65.1039"/>
</g>
<!-- Node35 -->
<g id="node35" class="node"><title>Node35</title>
<g id="a_node35"><a xlink:href="../../da/d64/struct_random.html#a294c8c2838aa96d54ff320ddc4462c49" target="_top" xlink:title=" ">
<polygon fill="white" stroke="black" points="394,-19.5 394,-38.5 504,-38.5 504,-19.5 394,-19.5"/>
<text text-anchor="middle" x="449" y="-26.5" font-family="Helvetica,sans-Serif" font-size="10.00">Random::GetRandom</text>
</a>
</g>
</g>
<!-- Node33&#45;&gt;Node35 -->
<g id="edge45" class="edge"><title>Node33&#45;&gt;Node35</title>
<path fill="none" stroke="midnightblue" d="M307.059,-42.7327C330.835,-40.4161 358.942,-37.6774 383.777,-35.2576"/>
<polygon fill="midnightblue" stroke="midnightblue" points="384.222,-38.7309 393.835,-34.2776 383.543,-31.7639 384.222,-38.7309"/>
</g>
</g>
</svg>
