<?xml version="1.0" encoding="UTF-8" standalone="no"?>
<!DOCTYPE svg PUBLIC "-//W3C//DTD SVG 1.1//EN"
 "http://www.w3.org/Graphics/SVG/1.1/DTD/svg11.dtd">
<!-- Generated by graphviz version 2.38.0 (20140413.2041)
 -->
<!-- Title: SpellFxRenderer::_4A77FD_implosion_particle_d3d Pages: 1 -->
<svg width="655pt" height="279pt"
 viewBox="0.00 0.00 655.00 279.00" xmlns="http://www.w3.org/2000/svg" xmlns:xlink="http://www.w3.org/1999/xlink">
<g id="graph0" class="graph" transform="scale(1 1) rotate(0) translate(4 275)">
<title>SpellFxRenderer::_4A77FD_implosion_particle_d3d</title>
<polygon fill="white" stroke="none" points="-4,4 -4,-275 651,-275 651,4 -4,4"/>
<!-- Node1 -->
<g id="node1" class="node"><title>Node1</title>
<g id="a_node1"><a xlink:title=" ">
<polygon fill="#bfbfbf" stroke="black" points="0,-66 0,-96 135,-96 135,-66 0,-66"/>
<text text-anchor="start" x="8" y="-84" font-family="Helvetica,sans-Serif" font-size="10.00">SpellFxRenderer::_4A77FD</text>
<text text-anchor="middle" x="67.5" y="-73" font-family="Helvetica,sans-Serif" font-size="10.00">_implosion_particle_d3d</text>
</a>
</g>
</g>
<!-- Node2 -->
<g id="node2" class="node"><title>Node2</title>
<g id="a_node2"><a xlink:href="../../d2/d83/struct_spell_f_x___billboard.html#ad74e3f52655a26d6c10c415480b4e365" target="_top" xlink:title=" ">
<polygon fill="white" stroke="black" points="171.5,-110 171.5,-140 296.5,-140 296.5,-110 171.5,-110"/>
<text text-anchor="start" x="179.5" y="-128" font-family="Helvetica,sans-Serif" font-size="10.00">SpellFX_Billboard::</text>
<text text-anchor="middle" x="234" y="-117" font-family="Helvetica,sans-Serif" font-size="10.00">_47829F_sphere_particle</text>
</a>
</g>
</g>
<!-- Node1&#45;&gt;Node2 -->
<g id="edge1" class="edge"><title>Node1&#45;&gt;Node2</title>
<path fill="none" stroke="midnightblue" d="M124.651,-96.0192C138.208,-99.6452 152.819,-103.553 166.788,-107.29"/>
<polygon fill="midnightblue" stroke="midnightblue" points="166.258,-110.771 176.822,-109.974 168.066,-104.009 166.258,-110.771"/>
</g>
<!-- Node13 -->
<g id="node13" class="node"><title>Node13</title>
<g id="a_node13"><a xlink:href="../../d0/d5a/struct_sprite_object.html#ad532b4986fb8b77ef0b67bb05913ef50" target="_top" xlink:title=" ">
<polygon fill="white" stroke="black" points="171,-71.5 171,-90.5 297,-90.5 297,-71.5 171,-71.5"/>
<text text-anchor="middle" x="234" y="-78.5" font-family="Helvetica,sans-Serif" font-size="10.00">SpriteObject::GetLifetime</text>
</a>
</g>
</g>
<!-- Node1&#45;&gt;Node13 -->
<g id="edge12" class="edge"><title>Node1&#45;&gt;Node13</title>
<path fill="none" stroke="midnightblue" d="M135.408,-81C143.756,-81 152.322,-81 160.746,-81"/>
<polygon fill="midnightblue" stroke="midnightblue" points="160.927,-84.5001 170.927,-81 160.927,-77.5001 160.927,-84.5001"/>
</g>
<!-- Node14 -->
<g id="node14" class="node"><title>Node14</title>
<g id="a_node14"><a xlink:href="../../de/d6c/_spell_fx_renderer_8cpp.html#a53b9e5af222a3fbc8bd7c5a297b1dcde" target="_top" xlink:title=" ">
<polygon fill="white" stroke="black" points="194.5,-33.5 194.5,-52.5 273.5,-52.5 273.5,-33.5 194.5,-33.5"/>
<text text-anchor="middle" x="234" y="-40.5" font-family="Helvetica,sans-Serif" font-size="10.00">ModulateColor</text>
</a>
</g>
</g>
<!-- Node1&#45;&gt;Node14 -->
<g id="edge13" class="edge"><title>Node1&#45;&gt;Node14</title>
<path fill="none" stroke="midnightblue" d="M133.515,-65.9814C150.311,-62.1014 168.112,-57.9894 183.941,-54.3327"/>
<polygon fill="midnightblue" stroke="midnightblue" points="185.073,-57.6635 194.029,-52.0025 183.498,-50.8431 185.073,-57.6635"/>
</g>
<!-- Node3 -->
<g id="node3" class="node"><title>Node3</title>
<g id="a_node3"><a xlink:href="../../d2/d83/struct_spell_f_x___billboard.html#a36eba36345cd8f99f162b30888c205e8" target="_top" xlink:title=" ">
<polygon fill="white" stroke="black" points="340.5,-208 340.5,-238 438.5,-238 438.5,-208 340.5,-208"/>
<text text-anchor="start" x="348.5" y="-226" font-family="Helvetica,sans-Serif" font-size="10.00">SpellFX_Billboard::</text>
<text text-anchor="middle" x="389.5" y="-215" font-family="Helvetica,sans-Serif" font-size="10.00">SpellFXProject</text>
</a>
</g>
</g>
<!-- Node2&#45;&gt;Node3 -->
<g id="edge2" class="edge"><title>Node2&#45;&gt;Node3</title>
<path fill="none" stroke="midnightblue" d="M258.648,-140.098C284.789,-156.787 327.051,-183.769 356.224,-202.394"/>
<polygon fill="midnightblue" stroke="midnightblue" points="354.513,-205.454 364.825,-207.885 358.28,-199.554 354.513,-205.454"/>
</g>
<!-- Node6 -->
<g id="node6" class="node"><title>Node6</title>
<g id="a_node6"><a xlink:href="../../d2/d83/struct_spell_f_x___billboard.html#a872ab9258a829aac498197a498752357" target="_top" xlink:title=" ">
<polygon fill="white" stroke="black" points="340.5,-110 340.5,-140 438.5,-140 438.5,-110 340.5,-110"/>
<text text-anchor="start" x="348.5" y="-128" font-family="Helvetica,sans-Serif" font-size="10.00">SpellFX_Billboard::</text>
<text text-anchor="middle" x="389.5" y="-117" font-family="Helvetica,sans-Serif" font-size="10.00">SpellFXViewClip</text>
</a>
</g>
</g>
<!-- Node2&#45;&gt;Node6 -->
<g id="edge5" class="edge"><title>Node2&#45;&gt;Node6</title>
<path fill="none" stroke="midnightblue" d="M296.55,-125C307.548,-125 318.98,-125 329.893,-125"/>
<polygon fill="midnightblue" stroke="midnightblue" points="330.165,-128.5 340.165,-125 330.165,-121.5 330.165,-128.5"/>
</g>
<!-- Node11 -->
<g id="node11" class="node"><title>Node11</title>
<g id="a_node11"><a xlink:href="../../d2/d83/struct_spell_f_x___billboard.html#a96fd9635aad32c6c98a91065ddb2a8ea" target="_top" xlink:title=" ">
<polygon fill="white" stroke="black" points="333,-39 333,-69 446,-69 446,-39 333,-39"/>
<text text-anchor="start" x="341" y="-57" font-family="Helvetica,sans-Serif" font-size="10.00">SpellFX_Billboard::</text>
<text text-anchor="middle" x="389.5" y="-46" font-family="Helvetica,sans-Serif" font-size="10.00">SpellFXViewTransform</text>
</a>
</g>
</g>
<!-- Node2&#45;&gt;Node11 -->
<g id="edge10" class="edge"><title>Node2&#45;&gt;Node11</title>
<path fill="none" stroke="midnightblue" d="M273.904,-109.885C281.607,-106.732 289.597,-103.347 297,-100 314.877,-91.9186 334.343,-82.2576 350.706,-73.8802"/>
<polygon fill="midnightblue" stroke="midnightblue" points="352.661,-76.8102 359.946,-69.1177 349.454,-70.588 352.661,-76.8102"/>
</g>
<!-- Node4 -->
<g id="node4" class="node"><title>Node4</title>
<g id="a_node4"><a xlink:href="../../d9/de5/struct_indoor_camera_d3_d.html#a32190b521a23e986e5b0b13098e4b114" target="_top" xlink:title=" ">
<polygon fill="white" stroke="black" points="498.5,-251.5 498.5,-270.5 630.5,-270.5 630.5,-251.5 498.5,-251.5"/>
<text text-anchor="middle" x="564.5" y="-258.5" font-family="Helvetica,sans-Serif" font-size="10.00">IndoorCameraD3D::Project</text>
</a>
</g>
</g>
<!-- Node3&#45;&gt;Node4 -->
<g id="edge3" class="edge"><title>Node3&#45;&gt;Node4</title>
<path fill="none" stroke="midnightblue" d="M438.69,-233.585C460.898,-238.463 487.329,-244.269 510.138,-249.279"/>
<polygon fill="midnightblue" stroke="midnightblue" points="509.482,-252.718 520,-251.445 510.984,-245.881 509.482,-252.718"/>
</g>
<!-- Node5 -->
<g id="node5" class="node"><title>Node5</title>
<g id="a_node5"><a xlink:href="../../d0/dc0/_our_math_8h.html#a50ee4d4946888926bdf5a920129a322a" target="_top" xlink:title=" ">
<polygon fill="white" stroke="black" points="529.5,-213.5 529.5,-232.5 599.5,-232.5 599.5,-213.5 529.5,-213.5"/>
<text text-anchor="middle" x="564.5" y="-220.5" font-family="Helvetica,sans-Serif" font-size="10.00">round_to_int</text>
</a>
</g>
</g>
<!-- Node3&#45;&gt;Node5 -->
<g id="edge4" class="edge"><title>Node3&#45;&gt;Node5</title>
<path fill="none" stroke="midnightblue" d="M438.69,-223C463.885,-223 494.514,-223 519.124,-223"/>
<polygon fill="midnightblue" stroke="midnightblue" points="519.269,-226.5 529.269,-223 519.269,-219.5 519.269,-226.5"/>
</g>
<!-- Node7 -->
<g id="node7" class="node"><title>Node7</title>
<g id="a_node7"><a xlink:href="../../d9/de5/struct_indoor_camera_d3_d.html#ae44ac296d0d5225048b313e14edf7da1" target="_top" xlink:title=" ">
<polygon fill="white" stroke="black" points="490.5,-175.5 490.5,-194.5 638.5,-194.5 638.5,-175.5 490.5,-175.5"/>
<text text-anchor="middle" x="564.5" y="-182.5" font-family="Helvetica,sans-Serif" font-size="10.00">IndoorCameraD3D::GetFarClip</text>
</a>
</g>
</g>
<!-- Node6&#45;&gt;Node7 -->
<g id="edge6" class="edge"><title>Node6&#45;&gt;Node7</title>
<path fill="none" stroke="midnightblue" d="M420.415,-140.162C438.011,-148.632 460.886,-158.882 482,-166 489.634,-168.574 497.786,-170.924 505.871,-173.027"/>
<polygon fill="midnightblue" stroke="midnightblue" points="505.113,-176.445 515.663,-175.467 506.806,-169.652 505.113,-176.445"/>
</g>
<!-- Node8 -->
<g id="node8" class="node"><title>Node8</title>
<g id="a_node8"><a xlink:href="../../d9/de5/struct_indoor_camera_d3_d.html#a6ade9a050aa9009a83e21461c6c470c4" target="_top" xlink:title=" ">
<polygon fill="white" stroke="black" points="487.5,-137.5 487.5,-156.5 641.5,-156.5 641.5,-137.5 487.5,-137.5"/>
<text text-anchor="middle" x="564.5" y="-144.5" font-family="Helvetica,sans-Serif" font-size="10.00">IndoorCameraD3D::GetNearClip</text>
</a>
</g>
</g>
<!-- Node6&#45;&gt;Node8 -->
<g id="edge7" class="edge"><title>Node6&#45;&gt;Node8</title>
<path fill="none" stroke="midnightblue" d="M438.69,-131.128C451.16,-132.714 464.961,-134.469 478.705,-136.217"/>
<polygon fill="midnightblue" stroke="midnightblue" points="478.321,-139.696 488.683,-137.486 479.204,-132.752 478.321,-139.696"/>
</g>
<!-- Node9 -->
<g id="node9" class="node"><title>Node9</title>
<g id="a_node9"><a xlink:href="../../d2/d83/struct_spell_f_x___billboard.html#ae3003bbeba0eba0c486d72fdf5001073" target="_top" xlink:title=" ">
<polygon fill="white" stroke="black" points="510.5,-88 510.5,-118 618.5,-118 618.5,-88 510.5,-88"/>
<text text-anchor="start" x="518.5" y="-106" font-family="Helvetica,sans-Serif" font-size="10.00">SpellFX_Billboard::</text>
<text text-anchor="middle" x="564.5" y="-95" font-family="Helvetica,sans-Serif" font-size="10.00">SpellFXFarClipAdjust</text>
</a>
</g>
</g>
<!-- Node6&#45;&gt;Node9 -->
<g id="edge8" class="edge"><title>Node6&#45;&gt;Node9</title>
<path fill="none" stroke="midnightblue" d="M438.69,-118.872C457.763,-116.446 479.95,-113.625 500.283,-111.039"/>
<polygon fill="midnightblue" stroke="midnightblue" points="500.927,-114.486 510.406,-109.752 500.044,-107.541 500.927,-114.486"/>
</g>
<!-- Node10 -->
<g id="node10" class="node"><title>Node10</title>
<g id="a_node10"><a xlink:href="../../d2/d83/struct_spell_f_x___billboard.html#a27303b67c1a6f05b9003efc399a4b082" target="_top" xlink:title=" ">
<polygon fill="white" stroke="black" points="507.5,-39 507.5,-69 621.5,-69 621.5,-39 507.5,-39"/>
<text text-anchor="start" x="515.5" y="-57" font-family="Helvetica,sans-Serif" font-size="10.00">SpellFX_Billboard::</text>
<text text-anchor="middle" x="564.5" y="-46" font-family="Helvetica,sans-Serif" font-size="10.00">SpellFXNearClipAdjust</text>
</a>
</g>
</g>
<!-- Node6&#45;&gt;Node10 -->
<g id="edge9" class="edge"><title>Node6&#45;&gt;Node10</title>
<path fill="none" stroke="midnightblue" d="M417.572,-109.878C435.498,-100.245 459.725,-87.9418 482,-79 487.769,-76.6843 493.838,-74.4556 499.954,-72.3476"/>
<polygon fill="midnightblue" stroke="midnightblue" points="501.19,-75.625 509.568,-69.1392 498.974,-68.985 501.19,-75.625"/>
</g>
<!-- Node12 -->
<g id="node12" class="node"><title>Node12</title>
<g id="a_node12"><a xlink:href="../../d9/de5/struct_indoor_camera_d3_d.html#a819c840787fde1b667c5477bafb21a62" target="_top" xlink:title=" ">
<polygon fill="white" stroke="black" points="482,-0.5 482,-19.5 647,-19.5 647,-0.5 482,-0.5"/>
<text text-anchor="middle" x="564.5" y="-7.5" font-family="Helvetica,sans-Serif" font-size="10.00">IndoorCameraD3D::ViewTransform</text>
</a>
</g>
</g>
<!-- Node11&#45;&gt;Node12 -->
<g id="edge11" class="edge"><title>Node11&#45;&gt;Node12</title>
<path fill="none" stroke="midnightblue" d="M446.109,-39.2633C457.947,-36.1685 470.38,-32.9495 482,-30 492.38,-27.3652 503.519,-24.5945 514.125,-21.9832"/>
<polygon fill="midnightblue" stroke="midnightblue" points="515.21,-25.3208 524.088,-19.5381 513.542,-18.5225 515.21,-25.3208"/>
</g>
</g>
</svg>
