<?xml version="1.0" encoding="UTF-8" standalone="no"?>
<!DOCTYPE svg PUBLIC "-//W3C//DTD SVG 1.1//EN"
 "http://www.w3.org/Graphics/SVG/1.1/DTD/svg11.dtd">
<!-- Generated by graphviz version 2.38.0 (20140413.2041)
 -->
<!-- Title: SpellFxRenderer::_4A75CC_single_spell_collision_particle Pages: 1 -->
<svg width="316pt" height="50pt"
 viewBox="0.00 0.00 316.00 50.00" xmlns="http://www.w3.org/2000/svg" xmlns:xlink="http://www.w3.org/1999/xlink">
<g id="graph0" class="graph" transform="scale(1 1) rotate(0) translate(4 46)">
<title>SpellFxRenderer::_4A75CC_single_spell_collision_particle</title>
<polygon fill="white" stroke="none" points="-4,4 -4,-46 312,-46 312,4 -4,4"/>
<!-- Node1 -->
<g id="node1" class="node"><title>Node1</title>
<g id="a_node1"><a xlink:title=" ">
<polygon fill="#bfbfbf" stroke="black" points="0,-0.5 0,-41.5 136,-41.5 136,-0.5 0,-0.5"/>
<text text-anchor="start" x="8" y="-29.5" font-family="Helvetica,sans-Serif" font-size="10.00">SpellFxRenderer::_4A75CC</text>
<text text-anchor="start" x="8" y="-18.5" font-family="Helvetica,sans-Serif" font-size="10.00">_single_spell_collision</text>
<text text-anchor="middle" x="68" y="-7.5" font-family="Helvetica,sans-Serif" font-size="10.00">_particle</text>
</a>
</g>
</g>
<!-- Node2 -->
<g id="node2" class="node"><title>Node2</title>
<g id="a_node2"><a xlink:href="../../dd/d2d/class_particle_engine.html#aa0699c216edc3b210955899c8df6cb05" target="_top" xlink:title=" ">
<polygon fill="white" stroke="black" points="172,-11.5 172,-30.5 308,-30.5 308,-11.5 172,-11.5"/>
<text text-anchor="middle" x="240" y="-18.5" font-family="Helvetica,sans-Serif" font-size="10.00">ParticleEngine::AddParticle</text>
</a>
</g>
</g>
<!-- Node1&#45;&gt;Node2 -->
<g id="edge1" class="edge"><title>Node1&#45;&gt;Node2</title>
<path fill="none" stroke="midnightblue" d="M136.189,-21C144.502,-21 153.054,-21 161.506,-21"/>
<polygon fill="midnightblue" stroke="midnightblue" points="161.743,-24.5001 171.743,-21 161.743,-17.5001 161.743,-24.5001"/>
</g>
</g>
</svg>
