<?xml version="1.0" encoding="UTF-8" standalone="no"?>
<!DOCTYPE svg PUBLIC "-//W3C//DTD SVG 1.1//EN"
 "http://www.w3.org/Graphics/SVG/1.1/DTD/svg11.dtd">
<!-- Generated by graphviz version 2.38.0 (20140413.2041)
 -->
<!-- Title: OutdoorLocationTerrain::Release Pages: 1 -->
<!--zoomable 122 -->
<svg id="main" version="1.1" xmlns="http://www.w3.org/2000/svg" xmlns:xlink="http://www.w3.org/1999/xlink" xml:space="preserve" onload="init(evt)">
<style type="text/css"><![CDATA[
.edge:hover path { stroke: red; }
.edge:hover polygon { stroke: red; fill: red; }
]]></style>
<script type="text/javascript"><![CDATA[
var edges = document.getElementsByTagName('g');
if (edges && edges.length) {
  for (var i=0;i<edges.length;i++) {
    if (edges[i].id.substr(0,4)=='edge') {
      edges[i].setAttribute('class','edge');
    }
  }
}
]]></script>
        <defs>
                <circle id="rim" cx="0" cy="0" r="7"/>
                <circle id="rim2" cx="0" cy="0" r="3.5"/>
                <g id="zoomPlus">
                        <use xlink:href="#rim" fill="#404040">
                                <set attributeName="fill" to="#808080" begin="zoomplus.mouseover" end="zoomplus.mouseout"/>
                        </use>
                        <path d="M-4,0h8M0,-4v8" fill="none" stroke="white" stroke-width="1.5" pointer-events="none"/>
                </g>
                <g id="zoomMin">
                        <use xlink:href="#rim" fill="#404040">
                                <set attributeName="fill" to="#808080" begin="zoomminus.mouseover" end="zoomminus.mouseout"/>
                        </use>
                        <path d="M-4,0h8" fill="none" stroke="white" stroke-width="1.5" pointer-events="none"/>
                </g>
                <g id="dirArrow">
                        <path fill="none" stroke="white" stroke-width="1.5" d="M0,-3.0v7 M-2.5,-0.5L0,-3.0L2.5,-0.5"/>
                </g>
               <g id="resetDef">
                       <use xlink:href="#rim2" fill="#404040">
                               <set attributeName="fill" to="#808080" begin="reset.mouseover" end="reset.mouseout"/>
                       </use>
               </g>
        </defs>

<script type="text/javascript">
var viewWidth = 1467;
var viewHeight = 122;
var sectionId = 'dynsection-3';
</script>
<script xlink:href="../../svgpan.js"/>
<svg id="graph" class="graph">
<g id="viewport">
<title>OutdoorLocationTerrain::Release</title>
<polygon fill="white" stroke="none" points="-4,4 -4,-117.93 1463,-117.93 1463,4 -4,4"/>
<!-- Node1 -->
<g id="node1" class="node"><title>Node1</title>
<g id="a_node1"><a xlink:title=" ">
<polygon fill="#bfbfbf" stroke="black" points="1342,-30 1342,-60 1459,-60 1459,-30 1342,-30"/>
<text text-anchor="start" x="1350" y="-48" font-family="Helvetica,sans-Serif" font-size="10.00">OutdoorLocationTerrain</text>
<text text-anchor="middle" x="1400.5" y="-37" font-family="Helvetica,sans-Serif" font-size="10.00">::Release</text>
</a>
</g>
</g>
<!-- Node2 -->
<g id="node2" class="node"><title>Node2</title>
<g id="a_node2"><a xlink:href="../../d1/d55/struct_outdoor_location.html#a44239dc5856aabbae27ec8f191447dd1" target="_top" xlink:title=" ">
<polygon fill="white" stroke="black" points="1177,-35.5 1177,-54.5 1306,-54.5 1306,-35.5 1177,-35.5"/>
<text text-anchor="middle" x="1241.5" y="-42.5" font-family="Helvetica,sans-Serif" font-size="10.00">OutdoorLocation::Release</text>
</a>
</g>
</g>
<!-- Node1&#45;&gt;Node2 -->
<g id="edge1" class="edge"><title>Node1&#45;&gt;Node2</title>
<path fill="none" stroke="midnightblue" d="M1331.7,-45C1323.22,-45 1314.57,-45 1306.15,-45"/>
<polygon fill="midnightblue" stroke="midnightblue" points="1331.93,-48.5001 1341.93,-45 1331.93,-41.5001 1331.93,-48.5001"/>
</g>
<!-- Node3 -->
<g id="node3" class="node"><title>Node3</title>
<g id="a_node3"><a xlink:href="../../d1/d55/struct_outdoor_location.html#a51ee85637b8d77dd09ac74de8b1f35a1" target="_top" xlink:title=" ">
<polygon fill="white" stroke="black" points="1012,-60.5 1012,-79.5 1141,-79.5 1141,-60.5 1012,-60.5"/>
<text text-anchor="middle" x="1076.5" y="-67.5" font-family="Helvetica,sans-Serif" font-size="10.00">OutdoorLocation::Initialize</text>
</a>
</g>
</g>
<!-- Node2&#45;&gt;Node3 -->
<g id="edge2" class="edge"><title>Node2&#45;&gt;Node3</title>
<path fill="none" stroke="midnightblue" d="M1168.49,-56.0445C1158.89,-57.5175 1149.1,-59.0179 1139.69,-60.4623"/>
<polygon fill="midnightblue" stroke="midnightblue" points="1169.06,-59.4984 1178.41,-54.5227 1168,-52.5793 1169.06,-59.4984"/>
</g>
<!-- Node12 -->
<g id="node12" class="node"><title>Node12</title>
<g id="a_node12"><a xlink:href="../../d6/d83/struct_engine.html#a7ac6c1e7625f17b3764da03e8cec6255" target="_top" xlink:title=" ">
<polygon fill="white" stroke="black" points="1019,-0.5 1019,-41.5 1134,-41.5 1134,-0.5 1019,-0.5"/>
<text text-anchor="start" x="1027" y="-29.5" font-family="Helvetica,sans-Serif" font-size="10.00">Engine::ResetCursor</text>
<text text-anchor="start" x="1027" y="-18.5" font-family="Helvetica,sans-Serif" font-size="10.00">_Palettes_LODs_Level</text>
<text text-anchor="middle" x="1076.5" y="-7.5" font-family="Helvetica,sans-Serif" font-size="10.00">_Audio_SFT_Windows</text>
</a>
</g>
</g>
<!-- Node2&#45;&gt;Node12 -->
<g id="edge13" class="edge"><title>Node2&#45;&gt;Node12</title>
<path fill="none" stroke="midnightblue" d="M1166.6,-34.1195C1155.7,-32.5135 1144.61,-30.8806 1134.12,-29.3371"/>
<polygon fill="midnightblue" stroke="midnightblue" points="1166.14,-37.5893 1176.55,-35.5834 1167.16,-30.664 1166.14,-37.5893"/>
</g>
<!-- Node4 -->
<g id="node4" class="node"><title>Node4</title>
<g id="a_node4"><a xlink:href="../../dc/dfb/_outdoor_8h.html#ad0b6920041533cc49817c0c848c6b3b5" target="_top" xlink:title=" ">
<polygon fill="white" stroke="black" points="858,-60.5 858,-79.5 976,-79.5 976,-60.5 858,-60.5"/>
<text text-anchor="middle" x="917" y="-67.5" font-family="Helvetica,sans-Serif" font-size="10.00">ODM_LoadAndInitialize</text>
</a>
</g>
</g>
<!-- Node3&#45;&gt;Node4 -->
<g id="edge3" class="edge"><title>Node3&#45;&gt;Node4</title>
<path fill="none" stroke="midnightblue" d="M1001.87,-70C993.27,-70 984.593,-70 976.247,-70"/>
<polygon fill="midnightblue" stroke="midnightblue" points="1001.89,-73.5001 1011.89,-70 1001.89,-66.5001 1001.89,-73.5001"/>
</g>
<!-- Node5 -->
<g id="node5" class="node"><title>Node5</title>
<g id="a_node5"><a xlink:href="../../de/dcf/_engine_8h.html#a5cf7667eb3b81f9acbc63bdf01528452" target="_top" xlink:title=" ">
<polygon fill="white" stroke="black" points="718,-60.5 718,-79.5 822,-79.5 822,-60.5 718,-60.5"/>
<text text-anchor="middle" x="770" y="-67.5" font-family="Helvetica,sans-Serif" font-size="10.00">PrepareToLoadODM</text>
</a>
</g>
</g>
<!-- Node4&#45;&gt;Node5 -->
<g id="edge4" class="edge"><title>Node4&#45;&gt;Node5</title>
<path fill="none" stroke="midnightblue" d="M847.79,-70C839.157,-70 830.442,-70 822.138,-70"/>
<polygon fill="midnightblue" stroke="midnightblue" points="847.858,-73.5001 857.858,-70 847.858,-66.5001 847.858,-73.5001"/>
</g>
<!-- Node6 -->
<g id="node6" class="node"><title>Node6</title>
<g id="a_node6"><a xlink:href="../../de/dcf/_engine_8h.html#a7ac85aa3f91f16b9f3007f4d7f1b419a" target="_top" xlink:title=" ">
<polygon fill="white" stroke="black" points="594,-81.5 594,-100.5 682,-100.5 682,-81.5 594,-81.5"/>
<text text-anchor="middle" x="638" y="-88.5" font-family="Helvetica,sans-Serif" font-size="10.00">DoPrepareWorld</text>
</a>
</g>
</g>
<!-- Node5&#45;&gt;Node6 -->
<g id="edge5" class="edge"><title>Node5&#45;&gt;Node6</title>
<path fill="none" stroke="midnightblue" d="M707.914,-79.8677C699.26,-81.2657 690.513,-82.6787 682.29,-84.0071"/>
<polygon fill="midnightblue" stroke="midnightblue" points="708.68,-83.2895 717.994,-78.2395 707.563,-76.3791 708.68,-83.2895"/>
</g>
<!-- Node11 -->
<g id="node11" class="node"><title>Node11</title>
<g id="a_node11"><a xlink:href="../../d4/d06/class_application_1_1_game.html#a3f65e3f0ef1a9114fb3dea275e52442e" target="_top" xlink:title=" ">
<polygon fill="white" stroke="black" points="455,-32 455,-62 558,-62 558,-32 455,-32"/>
<text text-anchor="start" x="463" y="-50" font-family="Helvetica,sans-Serif" font-size="10.00">Application::Game::</text>
<text text-anchor="middle" x="506.5" y="-39" font-family="Helvetica,sans-Serif" font-size="10.00">EventLoop</text>
</a>
</g>
</g>
<!-- Node5&#45;&gt;Node11 -->
<g id="edge11" class="edge"><title>Node5&#45;&gt;Node11</title>
<path fill="none" stroke="midnightblue" d="M707.938,-64.6294C662.505,-60.6334 601.212,-55.2424 558.412,-51.4779"/>
<polygon fill="midnightblue" stroke="midnightblue" points="707.691,-68.1211 717.959,-65.5108 708.305,-61.148 707.691,-68.1211"/>
</g>
<!-- Node7 -->
<g id="node7" class="node"><title>Node7</title>
<g id="a_node7"><a xlink:href="../../d4/d06/class_application_1_1_game.html#aaa0ff18388b32b4e6198835a35e000d3" target="_top" xlink:title=" ">
<polygon fill="white" stroke="black" points="316,-76 316,-106 419,-106 419,-76 316,-76"/>
<text text-anchor="start" x="324" y="-94" font-family="Helvetica,sans-Serif" font-size="10.00">Application::Game::</text>
<text text-anchor="middle" x="367.5" y="-83" font-family="Helvetica,sans-Serif" font-size="10.00">GameLoop</text>
</a>
</g>
</g>
<!-- Node6&#45;&gt;Node7 -->
<g id="edge6" class="edge"><title>Node6&#45;&gt;Node7</title>
<path fill="none" stroke="midnightblue" d="M595.309,-102.97C583.365,-105.867 570.257,-108.547 558,-110 512.541,-115.39 500.511,-114.939 455,-110 443.383,-108.739 431.04,-106.552 419.426,-104.101"/>
<polygon fill="midnightblue" stroke="midnightblue" points="596.192,-106.357 605.025,-100.506 594.471,-99.5713 596.192,-106.357"/>
</g>
<!-- Node10 -->
<g id="node10" class="node"><title>Node10</title>
<g id="a_node10"><a xlink:href="../../de/dcf/_engine_8h.html#a287d13406d42b0831d9eb7a64d368202" target="_top" xlink:title=" ">
<polygon fill="white" stroke="black" points="468.5,-81.5 468.5,-100.5 544.5,-100.5 544.5,-81.5 468.5,-81.5"/>
<text text-anchor="middle" x="506.5" y="-88.5" font-family="Helvetica,sans-Serif" font-size="10.00">PrepareWorld</text>
</a>
</g>
</g>
<!-- Node6&#45;&gt;Node10 -->
<g id="edge9" class="edge"><title>Node6&#45;&gt;Node10</title>
<path fill="none" stroke="midnightblue" d="M583.601,-91C570.565,-91 556.894,-91 544.794,-91"/>
<polygon fill="midnightblue" stroke="midnightblue" points="583.878,-94.5001 593.878,-91 583.878,-87.5001 583.878,-94.5001"/>
</g>
<!-- Node8 -->
<g id="node8" class="node"><title>Node8</title>
<g id="a_node8"><a xlink:href="../../d4/d06/class_application_1_1_game.html#a013ffd59e8fdf1c0a396da1dbe1681ca" target="_top" xlink:title=" ">
<polygon fill="white" stroke="black" points="156,-81.5 156,-100.5 280,-100.5 280,-81.5 156,-81.5"/>
<text text-anchor="middle" x="218" y="-88.5" font-family="Helvetica,sans-Serif" font-size="10.00">Application::Game::Loop</text>
</a>
</g>
</g>
<!-- Node7&#45;&gt;Node8 -->
<g id="edge7" class="edge"><title>Node7&#45;&gt;Node8</title>
<path fill="none" stroke="midnightblue" d="M305.59,-91C297.149,-91 288.478,-91 280.035,-91"/>
<polygon fill="midnightblue" stroke="midnightblue" points="305.739,-94.5001 315.739,-91 305.739,-87.5001 305.739,-94.5001"/>
</g>
<!-- Node9 -->
<g id="node9" class="node"><title>Node9</title>
<g id="a_node9"><a xlink:href="../../d4/d06/class_application_1_1_game.html#a96341ca5b54d90adc3ecb3bf0bcd2312" target="_top" xlink:title=" ">
<polygon fill="white" stroke="black" points="0,-81.5 0,-100.5 120,-100.5 120,-81.5 0,-81.5"/>
<text text-anchor="middle" x="60" y="-88.5" font-family="Helvetica,sans-Serif" font-size="10.00">Application::Game::Run</text>
</a>
</g>
</g>
<!-- Node8&#45;&gt;Node9 -->
<g id="edge8" class="edge"><title>Node8&#45;&gt;Node9</title>
<path fill="none" stroke="midnightblue" d="M145.546,-91C137.081,-91 128.513,-91 120.244,-91"/>
<polygon fill="midnightblue" stroke="midnightblue" points="145.792,-94.5001 155.792,-91 145.792,-87.5001 145.792,-94.5001"/>
</g>
<!-- Node10&#45;&gt;Node7 -->
<g id="edge10" class="edge"><title>Node10&#45;&gt;Node7</title>
<path fill="none" stroke="midnightblue" d="M458.16,-91C445.594,-91 431.974,-91 419.235,-91"/>
<polygon fill="midnightblue" stroke="midnightblue" points="458.426,-94.5001 468.426,-91 458.426,-87.5001 458.426,-94.5001"/>
</g>
<!-- Node11&#45;&gt;Node7 -->
<g id="edge12" class="edge"><title>Node11&#45;&gt;Node7</title>
<path fill="none" stroke="midnightblue" d="M449.076,-65.1215C437.92,-68.7044 426.323,-72.4291 415.519,-75.8991"/>
<polygon fill="midnightblue" stroke="midnightblue" points="450.285,-68.4095 458.736,-62.0192 448.144,-61.7448 450.285,-68.4095"/>
</g>
</g>
</svg>
        <g id="navigator" transform="translate(0 0)" fill="#404254">
                <rect fill="#f2f5e9" fill-opacity="0.5" stroke="#606060" stroke-width=".5" x="0" y="0" width="60" height="60"/>
                <use id="zoomplus" xlink:href="#zoomPlus" x="17" y="9" onmousedown="handleZoom(evt,'in')"/>
                <use id="zoomminus" xlink:href="#zoomMin" x="42" y="9" onmousedown="handleZoom(evt,'out')"/>
                <use id="reset" xlink:href="#resetDef" x="30" y="36" onmousedown="handleReset()"/>
                <g id="arrowUp" xlink:href="#dirArrow" transform="translate(30 24)" onmousedown="handlePan(0,-1)">
                  <use xlink:href="#rim" fill="#404040">
                        <set attributeName="fill" to="#808080" begin="arrowUp.mouseover" end="arrowUp.mouseout"/>
                  </use>
                  <path fill="none" stroke="white" stroke-width="1.5" d="M0,-3.0v7 M-2.5,-0.5L0,-3.0L2.5,-0.5"/>
                </g>
                <g id="arrowRight" xlink:href="#dirArrow" transform="rotate(90) translate(36 -43)" onmousedown="handlePan(1,0)">
                  <use xlink:href="#rim" fill="#404040">
                        <set attributeName="fill" to="#808080" begin="arrowRight.mouseover" end="arrowRight.mouseout"/>
                  </use>
                  <path fill="none" stroke="white" stroke-width="1.5" d="M0,-3.0v7 M-2.5,-0.5L0,-3.0L2.5,-0.5"/>
                </g>
                <g id="arrowDown" xlink:href="#dirArrow" transform="rotate(180) translate(-30 -48)" onmousedown="handlePan(0,1)">
                  <use xlink:href="#rim" fill="#404040">
                        <set attributeName="fill" to="#808080" begin="arrowDown.mouseover" end="arrowDown.mouseout"/>
                  </use>
                  <path fill="none" stroke="white" stroke-width="1.5" d="M0,-3.0v7 M-2.5,-0.5L0,-3.0L2.5,-0.5"/>
                </g>
                <g id="arrowLeft" xlink:href="#dirArrow" transform="rotate(270) translate(-36 17)" onmousedown="handlePan(-1,0)">
                  <use xlink:href="#rim" fill="#404040">
                        <set attributeName="fill" to="#808080" begin="arrowLeft.mouseover" end="arrowLeft.mouseout"/>
                  </use>
                  <path fill="none" stroke="white" stroke-width="1.5" d="M0,-3.0v7 M-2.5,-0.5L0,-3.0L2.5,-0.5"/>
                </g>
        </g>
        <svg viewBox="0 0 15 15" width="100%" height="30px" preserveAspectRatio="xMaxYMin meet">
         <g id="arrow_out" transform="scale(0.3 0.3)">
          <a xlink:href="struct_outdoor_location_terrain_a50cd2a8f3b29cf3a12cdd4bd4106038b_icgraph_org.svg" target="_base">
           <rect id="button" ry="5" rx="5" y="6" x="6" height="38" width="38"
                fill="#f2f5e9" fill-opacity="0.5" stroke="#606060" stroke-width="1.0"/>
           <path id="arrow"
             d="M 11.500037,31.436501 C 11.940474,20.09759 22.043105,11.32322 32.158766,21.979434 L 37.068811,17.246167 C 37.068811,17.246167 37.088388,32 37.088388,32 L 22.160133,31.978069 C 22.160133,31.978069 26.997745,27.140456 26.997745,27.140456 C 18.528582,18.264221 13.291696,25.230495 11.500037,31.436501 z"
             style="fill:#404040;"/>
          </a>
         </g>
        </svg>
</svg>
