<?xml version="1.0" encoding="UTF-8" standalone="no"?>
<!DOCTYPE svg PUBLIC "-//W3C//DTD SVG 1.1//EN"
 "http://www.w3.org/Graphics/SVG/1.1/DTD/svg11.dtd">
<!-- Generated by graphviz version 2.38.0 (20140413.2041)
 -->
<!-- Title: IRender::IRender Pages: 1 -->
<!--zoomable 284 -->
<svg id="main" version="1.1" xmlns="http://www.w3.org/2000/svg" xmlns:xlink="http://www.w3.org/1999/xlink" xml:space="preserve" onload="init(evt)">
<style type="text/css"><![CDATA[
.edge:hover path { stroke: red; }
.edge:hover polygon { stroke: red; fill: red; }
]]></style>
<script type="text/javascript"><![CDATA[
var edges = document.getElementsByTagName('g');
if (edges && edges.length) {
  for (var i=0;i<edges.length;i++) {
    if (edges[i].id.substr(0,4)=='edge') {
      edges[i].setAttribute('class','edge');
    }
  }
}
]]></script>
        <defs>
                <circle id="rim" cx="0" cy="0" r="7"/>
                <circle id="rim2" cx="0" cy="0" r="3.5"/>
                <g id="zoomPlus">
                        <use xlink:href="#rim" fill="#404040">
                                <set attributeName="fill" to="#808080" begin="zoomplus.mouseover" end="zoomplus.mouseout"/>
                        </use>
                        <path d="M-4,0h8M0,-4v8" fill="none" stroke="white" stroke-width="1.5" pointer-events="none"/>
                </g>
                <g id="zoomMin">
                        <use xlink:href="#rim" fill="#404040">
                                <set attributeName="fill" to="#808080" begin="zoomminus.mouseover" end="zoomminus.mouseout"/>
                        </use>
                        <path d="M-4,0h8" fill="none" stroke="white" stroke-width="1.5" pointer-events="none"/>
                </g>
                <g id="dirArrow">
                        <path fill="none" stroke="white" stroke-width="1.5" d="M0,-3.0v7 M-2.5,-0.5L0,-3.0L2.5,-0.5"/>
                </g>
               <g id="resetDef">
                       <use xlink:href="#rim2" fill="#404040">
                               <set attributeName="fill" to="#808080" begin="reset.mouseover" end="reset.mouseout"/>
                       </use>
               </g>
        </defs>

<script type="text/javascript">
var viewWidth = 502;
var viewHeight = 284;
var sectionId = 'dynsection-2';
</script>
<script xlink:href="../../svgpan.js"/>
<svg id="graph" class="graph">
<g id="viewport">
<title>IRender::IRender</title>
<polygon fill="white" stroke="none" points="-4,4 -4,-280 498,-280 498,4 -4,4"/>
<!-- Node1 -->
<g id="node1" class="node"><title>Node1</title>
<g id="a_node1"><a xlink:title=" ">
<polygon fill="#bfbfbf" stroke="black" points="0,-128 0,-147 89,-147 89,-128 0,-128"/>
<text text-anchor="middle" x="44.5" y="-135" font-family="Helvetica,sans-Serif" font-size="10.00">IRender::IRender</text>
</a>
</g>
</g>
<!-- Node2 -->
<g id="node2" class="node"><title>Node2</title>
<g id="a_node2"><a xlink:href="../../d1/d12/class_engine___1_1_ioc_container.html#a2d38b23552ec4a6244d4154107b9c981" target="_top" xlink:title=" ">
<polygon fill="white" stroke="black" points="133,-245.5 133,-275.5 245,-275.5 245,-245.5 133,-245.5"/>
<text text-anchor="start" x="141" y="-263.5" font-family="Helvetica,sans-Serif" font-size="10.00">Engine_::IocContainer</text>
<text text-anchor="middle" x="189" y="-252.5" font-family="Helvetica,sans-Serif" font-size="10.00">::ResolveDecalBuilder</text>
</a>
</g>
</g>
<!-- Node1&#45;&gt;Node2 -->
<g id="edge1" class="edge"><title>Node1&#45;&gt;Node2</title>
<path fill="none" stroke="midnightblue" d="M50.7972,-147.076C62.0234,-166.551 90.0662,-211.078 125,-236.5 126.884,-237.871 128.856,-239.174 130.89,-240.411"/>
<polygon fill="midnightblue" stroke="midnightblue" points="129.677,-243.734 140.136,-245.42 133.011,-237.579 129.677,-243.734"/>
</g>
<!-- Node3 -->
<g id="node3" class="node"><title>Node3</title>
<g id="a_node3"><a xlink:href="../../d1/d12/class_engine___1_1_ioc_container.html#a10adf21b7f2dcd027b3c576982ffbc1e" target="_top" xlink:title=" ">
<polygon fill="white" stroke="black" points="126,-196.5 126,-226.5 252,-226.5 252,-196.5 126,-196.5"/>
<text text-anchor="start" x="134" y="-214.5" font-family="Helvetica,sans-Serif" font-size="10.00">Engine_::IocContainer</text>
<text text-anchor="middle" x="189" y="-203.5" font-family="Helvetica,sans-Serif" font-size="10.00">::ResolveLightmapBuilder</text>
</a>
</g>
</g>
<!-- Node1&#45;&gt;Node3 -->
<g id="edge2" class="edge"><title>Node1&#45;&gt;Node3</title>
<path fill="none" stroke="midnightblue" d="M58.8102,-147.021C74.2266,-157.771 100.634,-175.346 125,-187.5 128.494,-189.243 132.147,-190.939 135.859,-192.571"/>
<polygon fill="midnightblue" stroke="midnightblue" points="134.573,-195.827 145.147,-196.486 137.292,-189.377 134.573,-195.827"/>
</g>
<!-- Node4 -->
<g id="node4" class="node"><title>Node4</title>
<g id="a_node4"><a xlink:href="../../d1/d12/class_engine___1_1_ioc_container.html#a095a16a5af8d2d49ae6445b823332256" target="_top" xlink:title=" ">
<polygon fill="white" stroke="black" points="133,-147.5 133,-177.5 245,-177.5 245,-147.5 133,-147.5"/>
<text text-anchor="start" x="141" y="-165.5" font-family="Helvetica,sans-Serif" font-size="10.00">Engine_::IocContainer</text>
<text text-anchor="middle" x="189" y="-154.5" font-family="Helvetica,sans-Serif" font-size="10.00">::ResolveLogger</text>
</a>
</g>
</g>
<!-- Node1&#45;&gt;Node4 -->
<g id="edge3" class="edge"><title>Node1&#45;&gt;Node4</title>
<path fill="none" stroke="midnightblue" d="M89.029,-145.137C99.7275,-147.014 111.414,-149.064 122.887,-151.077"/>
<polygon fill="midnightblue" stroke="midnightblue" points="122.429,-154.55 132.883,-152.83 123.639,-147.655 122.429,-154.55"/>
</g>
<!-- Node8 -->
<g id="node8" class="node"><title>Node8</title>
<g id="a_node8"><a xlink:href="../../d1/d12/class_engine___1_1_ioc_container.html#aca371cf233bf02cc142d84c1e4b3a23b" target="_top" xlink:title=" ">
<polygon fill="white" stroke="black" points="129.5,-98.5 129.5,-128.5 248.5,-128.5 248.5,-98.5 129.5,-98.5"/>
<text text-anchor="start" x="137.5" y="-116.5" font-family="Helvetica,sans-Serif" font-size="10.00">Engine_::IocContainer</text>
<text text-anchor="middle" x="189" y="-105.5" font-family="Helvetica,sans-Serif" font-size="10.00">::ResolveParticleEngine</text>
</a>
</g>
</g>
<!-- Node1&#45;&gt;Node8 -->
<g id="edge7" class="edge"><title>Node1&#45;&gt;Node8</title>
<path fill="none" stroke="midnightblue" d="M89.029,-130.169C98.5439,-128.566 108.84,-126.832 119.073,-125.109"/>
<polygon fill="midnightblue" stroke="midnightblue" points="119.973,-128.507 129.252,-123.394 118.81,-121.604 119.973,-128.507"/>
</g>
<!-- Node9 -->
<g id="node9" class="node"><title>Node9</title>
<g id="a_node9"><a xlink:href="../../d1/d12/class_engine___1_1_ioc_container.html#a29d34163cc9c0b9585b4f2440918de8f" target="_top" xlink:title=" ">
<polygon fill="white" stroke="black" points="125,-49.5 125,-79.5 253,-79.5 253,-49.5 125,-49.5"/>
<text text-anchor="start" x="133" y="-67.5" font-family="Helvetica,sans-Serif" font-size="10.00">Engine_::IocContainer</text>
<text text-anchor="middle" x="189" y="-56.5" font-family="Helvetica,sans-Serif" font-size="10.00">::ResolveSpellFxRenderer</text>
</a>
</g>
</g>
<!-- Node1&#45;&gt;Node9 -->
<g id="edge8" class="edge"><title>Node1&#45;&gt;Node9</title>
<path fill="none" stroke="midnightblue" d="M59.745,-127.911C75.348,-117.644 101.313,-101.25 125,-89.5 129.083,-87.4746 133.373,-85.4897 137.714,-83.5795"/>
<polygon fill="midnightblue" stroke="midnightblue" points="139.403,-86.6644 147.236,-79.5303 136.664,-80.2226 139.403,-86.6644"/>
</g>
<!-- Node10 -->
<g id="node10" class="node"><title>Node10</title>
<g id="a_node10"><a xlink:href="../../d1/d12/class_engine___1_1_ioc_container.html#a201a6dee8928c65a2577af08596b8c18" target="_top" xlink:title=" ">
<polygon fill="white" stroke="black" points="133,-0.5 133,-30.5 245,-30.5 245,-0.5 133,-0.5"/>
<text text-anchor="start" x="141" y="-18.5" font-family="Helvetica,sans-Serif" font-size="10.00">Engine_::IocContainer</text>
<text text-anchor="middle" x="189" y="-7.5" font-family="Helvetica,sans-Serif" font-size="10.00">::ResolveVis</text>
</a>
</g>
</g>
<!-- Node1&#45;&gt;Node10 -->
<g id="edge9" class="edge"><title>Node1&#45;&gt;Node10</title>
<path fill="none" stroke="midnightblue" d="M51.0509,-127.869C62.535,-108.718 90.7172,-65.5484 125,-40.5 127.485,-38.6842 130.12,-36.9785 132.849,-35.3793"/>
<polygon fill="midnightblue" stroke="midnightblue" points="134.613,-38.4053 141.81,-30.6301 131.335,-32.2201 134.613,-38.4053"/>
</g>
<!-- Node5 -->
<g id="node5" class="node"><title>Node5</title>
<g id="a_node5"><a xlink:href="../../d6/d70/class_log.html#a9962588a107d3b4aa927cf12284e0fc7" target="_top" xlink:title=" ">
<polygon fill="white" stroke="black" points="299.5,-172 299.5,-191 352.5,-191 352.5,-172 299.5,-172"/>
<text text-anchor="middle" x="326" y="-179" font-family="Helvetica,sans-Serif" font-size="10.00">Log::Info</text>
</a>
</g>
</g>
<!-- Node4&#45;&gt;Node5 -->
<g id="edge4" class="edge"><title>Node4&#45;&gt;Node5</title>
<path fill="none" stroke="midnightblue" d="M245.299,-170.283C260.123,-172.369 275.759,-174.57 289.218,-176.464"/>
<polygon fill="midnightblue" stroke="midnightblue" points="289.097,-179.981 299.487,-177.909 290.073,-173.05 289.097,-179.981"/>
</g>
<!-- Node6 -->
<g id="node6" class="node"><title>Node6</title>
<g id="a_node6"><a xlink:href="../../d6/d70/class_log.html#ad9612fc4cd0f7350a0ae2a0a0fcad55e" target="_top" xlink:title=" ">
<polygon fill="white" stroke="black" points="289,-134 289,-153 363,-153 363,-134 289,-134"/>
<text text-anchor="middle" x="326" y="-141" font-family="Helvetica,sans-Serif" font-size="10.00">Log::Initialize</text>
</a>
</g>
</g>
<!-- Node4&#45;&gt;Node6 -->
<g id="edge5" class="edge"><title>Node4&#45;&gt;Node6</title>
<path fill="none" stroke="midnightblue" d="M245.299,-154.717C256.446,-153.148 268.052,-151.515 278.846,-149.996"/>
<polygon fill="midnightblue" stroke="midnightblue" points="279.49,-153.44 288.904,-148.58 278.514,-146.508 279.49,-153.44"/>
</g>
<!-- Node7 -->
<g id="node7" class="node"><title>Node7</title>
<g id="a_node7"><a xlink:href="../../d4/ddd/_api_8h.html#a5d3a103186dfe38a891a15131aa4a0de" target="_top" xlink:title=" ">
<polygon fill="white" stroke="black" points="399,-134 399,-153 494,-153 494,-134 399,-134"/>
<text text-anchor="middle" x="446.5" y="-141" font-family="Helvetica,sans-Serif" font-size="10.00">OS_OpenConsole</text>
</a>
</g>
</g>
<!-- Node6&#45;&gt;Node7 -->
<g id="edge6" class="edge"><title>Node6&#45;&gt;Node7</title>
<path fill="none" stroke="midnightblue" d="M363.198,-143.5C371.221,-143.5 379.912,-143.5 388.538,-143.5"/>
<polygon fill="midnightblue" stroke="midnightblue" points="388.591,-147 398.591,-143.5 388.591,-140 388.591,-147"/>
</g>
</g>
</svg>
        <g id="navigator" transform="translate(0 0)" fill="#404254">
                <rect fill="#f2f5e9" fill-opacity="0.5" stroke="#606060" stroke-width=".5" x="0" y="0" width="60" height="60"/>
                <use id="zoomplus" xlink:href="#zoomPlus" x="17" y="9" onmousedown="handleZoom(evt,'in')"/>
                <use id="zoomminus" xlink:href="#zoomMin" x="42" y="9" onmousedown="handleZoom(evt,'out')"/>
                <use id="reset" xlink:href="#resetDef" x="30" y="36" onmousedown="handleReset()"/>
                <g id="arrowUp" xlink:href="#dirArrow" transform="translate(30 24)" onmousedown="handlePan(0,-1)">
                  <use xlink:href="#rim" fill="#404040">
                        <set attributeName="fill" to="#808080" begin="arrowUp.mouseover" end="arrowUp.mouseout"/>
                  </use>
                  <path fill="none" stroke="white" stroke-width="1.5" d="M0,-3.0v7 M-2.5,-0.5L0,-3.0L2.5,-0.5"/>
                </g>
                <g id="arrowRight" xlink:href="#dirArrow" transform="rotate(90) translate(36 -43)" onmousedown="handlePan(1,0)">
                  <use xlink:href="#rim" fill="#404040">
                        <set attributeName="fill" to="#808080" begin="arrowRight.mouseover" end="arrowRight.mouseout"/>
                  </use>
                  <path fill="none" stroke="white" stroke-width="1.5" d="M0,-3.0v7 M-2.5,-0.5L0,-3.0L2.5,-0.5"/>
                </g>
                <g id="arrowDown" xlink:href="#dirArrow" transform="rotate(180) translate(-30 -48)" onmousedown="handlePan(0,1)">
                  <use xlink:href="#rim" fill="#404040">
                        <set attributeName="fill" to="#808080" begin="arrowDown.mouseover" end="arrowDown.mouseout"/>
                  </use>
                  <path fill="none" stroke="white" stroke-width="1.5" d="M0,-3.0v7 M-2.5,-0.5L0,-3.0L2.5,-0.5"/>
                </g>
                <g id="arrowLeft" xlink:href="#dirArrow" transform="rotate(270) translate(-36 17)" onmousedown="handlePan(-1,0)">
                  <use xlink:href="#rim" fill="#404040">
                        <set attributeName="fill" to="#808080" begin="arrowLeft.mouseover" end="arrowLeft.mouseout"/>
                  </use>
                  <path fill="none" stroke="white" stroke-width="1.5" d="M0,-3.0v7 M-2.5,-0.5L0,-3.0L2.5,-0.5"/>
                </g>
        </g>
        <svg viewBox="0 0 15 15" width="100%" height="30px" preserveAspectRatio="xMaxYMin meet">
         <g id="arrow_out" transform="scale(0.3 0.3)">
          <a xlink:href="class_i_render_ac810c04b6735c88caa2045611686c567_cgraph_org.svg" target="_base">
           <rect id="button" ry="5" rx="5" y="6" x="6" height="38" width="38"
                fill="#f2f5e9" fill-opacity="0.5" stroke="#606060" stroke-width="1.0"/>
           <path id="arrow"
             d="M 11.500037,31.436501 C 11.940474,20.09759 22.043105,11.32322 32.158766,21.979434 L 37.068811,17.246167 C 37.068811,17.246167 37.088388,32 37.088388,32 L 22.160133,31.978069 C 22.160133,31.978069 26.997745,27.140456 26.997745,27.140456 C 18.528582,18.264221 13.291696,25.230495 11.500037,31.436501 z"
             style="fill:#404040;"/>
          </a>
         </g>
        </svg>
</svg>
