<?xml version="1.0" encoding="UTF-8" standalone="no"?>
<!DOCTYPE svg PUBLIC "-//W3C//DTD SVG 1.1//EN"
 "http://www.w3.org/Graphics/SVG/1.1/DTD/svg11.dtd">
<!-- Generated by graphviz version 2.38.0 (20140413.2041)
 -->
<!-- Title: AudioPlayer::PlaySpellSound Pages: 1 -->
<svg width="754pt" height="227pt"
 viewBox="0.00 0.00 754.00 226.50" xmlns="http://www.w3.org/2000/svg" xmlns:xlink="http://www.w3.org/1999/xlink">
<g id="graph0" class="graph" transform="scale(1 1) rotate(0) translate(4 222.5)">
<title>AudioPlayer::PlaySpellSound</title>
<polygon fill="white" stroke="none" points="-4,4 -4,-222.5 750,-222.5 750,4 -4,4"/>
<!-- Node1 -->
<g id="node1" class="node"><title>Node1</title>
<g id="a_node1"><a xlink:title=" ">
<polygon fill="#bfbfbf" stroke="black" points="0,-69 0,-88 144,-88 144,-69 0,-69"/>
<text text-anchor="middle" x="72" y="-76" font-family="Helvetica,sans-Serif" font-size="10.00">AudioPlayer::PlaySpellSound</text>
</a>
</g>
</g>
<!-- Node2 -->
<g id="node2" class="node"><title>Node2</title>
<g id="a_node2"><a xlink:href="../../d7/dc2/class_audio_player.html#afa0c135f321bd87b4d4ad2dcad3833e3" target="_top" xlink:title=" ">
<polygon fill="white" stroke="black" points="180,-69 180,-88 302,-88 302,-69 180,-69"/>
<text text-anchor="middle" x="241" y="-76" font-family="Helvetica,sans-Serif" font-size="10.00">AudioPlayer::PlaySound</text>
</a>
</g>
</g>
<!-- Node1&#45;&gt;Node2 -->
<g id="edge1" class="edge"><title>Node1&#45;&gt;Node2</title>
<path fill="none" stroke="midnightblue" d="M144.307,-78.5C152.753,-78.5 161.369,-78.5 169.799,-78.5"/>
<polygon fill="midnightblue" stroke="midnightblue" points="169.965,-82.0001 179.965,-78.5 169.965,-75.0001 169.965,-82.0001"/>
</g>
<!-- Node3 -->
<g id="node3" class="node"><title>Node3</title>
<g id="a_node3"><a xlink:href="../../d4/db9/_open_a_l_sound_provider_8cpp.html#a0d61058bc8900801bc227bc7b47881d7" target="_top" xlink:title=" ">
<polygon fill="white" stroke="black" points="348.5,-161 348.5,-180 451.5,-180 451.5,-161 348.5,-161"/>
<text text-anchor="middle" x="400" y="-168" font-family="Helvetica,sans-Serif" font-size="10.00">CreateAudioSample</text>
</a>
</g>
</g>
<!-- Node2&#45;&gt;Node3 -->
<g id="edge2" class="edge"><title>Node2&#45;&gt;Node3</title>
<path fill="none" stroke="midnightblue" d="M258.505,-88.1717C286.021,-104.296 341.437,-136.769 373.842,-155.757"/>
<polygon fill="midnightblue" stroke="midnightblue" points="372.319,-158.922 382.716,-160.958 375.858,-152.882 372.319,-158.922"/>
</g>
<!-- Node5 -->
<g id="node5" class="node"><title>Node5</title>
<g id="a_node5"><a xlink:href="../../d7/dc2/class_audio_player.html#ae30d2f6cbd73b8e316a47b4694fe8960" target="_top" xlink:title=" ">
<polygon fill="white" stroke="black" points="338,-88 338,-107 462,-107 462,-88 338,-88"/>
<text text-anchor="middle" x="400" y="-95" font-family="Helvetica,sans-Serif" font-size="10.00">AudioPlayer::LoadSound</text>
</a>
</g>
</g>
<!-- Node2&#45;&gt;Node5 -->
<g id="edge4" class="edge"><title>Node2&#45;&gt;Node5</title>
<path fill="none" stroke="midnightblue" d="M302.251,-85.7916C310.642,-86.807 319.327,-87.8581 327.894,-88.8948"/>
<polygon fill="midnightblue" stroke="midnightblue" points="327.523,-92.3754 337.871,-90.1023 328.364,-85.4261 327.523,-92.3754"/>
</g>
<!-- Node10 -->
<g id="node10" class="node"><title>Node10</title>
<g id="a_node10"><a xlink:href="../../d6/d70/class_log.html#ac0de2621497ca3b2fbf208624c08bcdf" target="_top" xlink:title=" ">
<polygon fill="white" stroke="black" points="534,-47 534,-66 608,-66 608,-47 534,-47"/>
<text text-anchor="middle" x="571" y="-54" font-family="Helvetica,sans-Serif" font-size="10.00">Log::Warning</text>
</a>
</g>
</g>
<!-- Node2&#45;&gt;Node10 -->
<g id="edge12" class="edge"><title>Node2&#45;&gt;Node10</title>
<path fill="none" stroke="midnightblue" d="M302.16,-74.4649C366.015,-70.1819 465.55,-63.5058 523.604,-59.6119"/>
<polygon fill="midnightblue" stroke="midnightblue" points="523.852,-63.1032 533.596,-58.9418 523.384,-56.1189 523.852,-63.1032"/>
</g>
<!-- Node11 -->
<g id="node11" class="node"><title>Node11</title>
<g id="a_node11"><a xlink:href="../../d9/d98/class_open_a_l_sound_provider.html#a25ac61cd13253bb659672a1cc29ef22c" target="_top" xlink:title=" ">
<polygon fill="white" stroke="black" points="343,-0.5 343,-30.5 457,-30.5 457,-0.5 343,-0.5"/>
<text text-anchor="start" x="351" y="-18.5" font-family="Helvetica,sans-Serif" font-size="10.00">OpenALSoundProvider</text>
<text text-anchor="middle" x="400" y="-7.5" font-family="Helvetica,sans-Serif" font-size="10.00">::SetListenerPosition</text>
</a>
</g>
</g>
<!-- Node2&#45;&gt;Node11 -->
<g id="edge10" class="edge"><title>Node2&#45;&gt;Node11</title>
<path fill="none" stroke="midnightblue" d="M265.845,-68.9317C288.658,-59.7776 323.695,-45.7178 352.104,-34.3181"/>
<polygon fill="midnightblue" stroke="midnightblue" points="353.48,-37.5374 361.457,-30.565 350.873,-31.041 353.48,-37.5374"/>
</g>
<!-- Node4 -->
<g id="node4" class="node"><title>Node4</title>
<g id="a_node4"><a xlink:href="../../da/def/_media_8h.html#ab508e4ee3c70ec5e60273ec99af30a2e" target="_top" xlink:title=" ">
<polygon fill="white" stroke="black" points="498,-199 498,-218 644,-218 644,-199 498,-199"/>
<text text-anchor="middle" x="571" y="-206" font-family="Helvetica,sans-Serif" font-size="10.00">CreateAudioBufferDataSource</text>
</a>
</g>
</g>
<!-- Node3&#45;&gt;Node4 -->
<g id="edge3" class="edge"><title>Node3&#45;&gt;Node4</title>
<path fill="none" stroke="midnightblue" d="M443.646,-180.089C466.148,-185.149 493.948,-191.4 517.738,-196.749"/>
<polygon fill="midnightblue" stroke="midnightblue" points="517.137,-200.201 527.661,-198.98 518.672,-193.371 517.137,-200.201"/>
</g>
<!-- Node6 -->
<g id="node6" class="node"><title>Node6</title>
<g id="a_node6"><a xlink:href="../../da/d6a/_mem_buffer_8cpp.html#a685632d9cd2b61b24a9bfc649d54937e" target="_top" xlink:title=" ">
<polygon fill="white" stroke="black" points="528.5,-161 528.5,-180 613.5,-180 613.5,-161 528.5,-161"/>
<text text-anchor="middle" x="571" y="-168" font-family="Helvetica,sans-Serif" font-size="10.00">AllocMemBuffer</text>
</a>
</g>
</g>
<!-- Node5&#45;&gt;Node6 -->
<g id="edge5" class="edge"><title>Node5&#45;&gt;Node6</title>
<path fill="none" stroke="midnightblue" d="M415.545,-107.125C434.033,-118.994 467.251,-139.112 498,-151.5 504.445,-154.097 511.358,-156.441 518.258,-158.523"/>
<polygon fill="midnightblue" stroke="midnightblue" points="517.725,-162.011 528.302,-161.387 519.645,-155.279 517.725,-162.011"/>
</g>
<!-- Node7 -->
<g id="node7" class="node"><title>Node7</title>
<g id="a_node7"><a xlink:href="../../d7/dc2/class_audio_player.html#aac82d03b250711ed0ce64fa22dfe3a59" target="_top" xlink:title=" ">
<polygon fill="white" stroke="black" points="510,-123 510,-142 632,-142 632,-123 510,-123"/>
<text text-anchor="middle" x="571" y="-130" font-family="Helvetica,sans-Serif" font-size="10.00">AudioPlayer::FindSound</text>
</a>
</g>
</g>
<!-- Node5&#45;&gt;Node7 -->
<g id="edge6" class="edge"><title>Node5&#45;&gt;Node7</title>
<path fill="none" stroke="midnightblue" d="M447.18,-107.064C467.766,-111.327 492.201,-116.388 513.835,-120.868"/>
<polygon fill="midnightblue" stroke="midnightblue" points="513.374,-124.347 523.876,-122.948 514.793,-117.492 513.374,-124.347"/>
</g>
<!-- Node9 -->
<g id="node9" class="node"><title>Node9</title>
<g id="a_node9"><a xlink:href="../../d9/d3e/namespacezlib.html#ae552beaf4387a81c63a28b01a9cc7ab4" target="_top" xlink:title=" ">
<polygon fill="white" stroke="black" points="525,-85 525,-104 617,-104 617,-85 525,-85"/>
<text text-anchor="middle" x="571" y="-92" font-family="Helvetica,sans-Serif" font-size="10.00">zlib::Uncompress</text>
</a>
</g>
</g>
<!-- Node5&#45;&gt;Node9 -->
<g id="edge8" class="edge"><title>Node5&#45;&gt;Node9</title>
<path fill="none" stroke="midnightblue" d="M462.013,-96.4169C479.238,-96.1112 497.878,-95.7803 514.744,-95.4809"/>
<polygon fill="midnightblue" stroke="midnightblue" points="515.052,-98.9761 524.989,-95.299 514.928,-91.9772 515.052,-98.9761"/>
</g>
<!-- Node5&#45;&gt;Node10 -->
<g id="edge9" class="edge"><title>Node5&#45;&gt;Node10</title>
<path fill="none" stroke="midnightblue" d="M440.197,-87.9907C465.271,-81.9076 497.901,-73.9915 524.172,-67.6179"/>
<polygon fill="midnightblue" stroke="midnightblue" points="525.008,-71.0169 533.901,-65.2578 523.357,-64.2142 525.008,-71.0169"/>
</g>
<!-- Node8 -->
<g id="node8" class="node"><title>Node8</title>
<g id="a_node8"><a xlink:href="../../d8/d44/_strings_8cpp.html#ae591bae1416df2b3638ae859ad4ede6f" target="_top" xlink:title=" ">
<polygon fill="white" stroke="black" points="680,-123 680,-142 746,-142 746,-123 680,-123"/>
<text text-anchor="middle" x="713" y="-130" font-family="Helvetica,sans-Serif" font-size="10.00">MakeLower</text>
</a>
</g>
</g>
<!-- Node7&#45;&gt;Node8 -->
<g id="edge7" class="edge"><title>Node7&#45;&gt;Node8</title>
<path fill="none" stroke="midnightblue" d="M632.185,-132.5C644.796,-132.5 657.84,-132.5 669.636,-132.5"/>
<polygon fill="midnightblue" stroke="midnightblue" points="669.639,-136 679.639,-132.5 669.639,-129 669.639,-136"/>
</g>
<!-- Node12 -->
<g id="node12" class="node"><title>Node12</title>
<g id="a_node12"><a xlink:href="../../d1/d20/al_8h.html#acb8f6904370d9946f4ea496e21729415" target="_top" xlink:title=" ">
<polygon fill="white" stroke="black" points="538,-6 538,-25 604,-25 604,-6 538,-6"/>
<text text-anchor="middle" x="571" y="-13" font-family="Helvetica,sans-Serif" font-size="10.00">alListener3f</text>
</a>
</g>
</g>
<!-- Node11&#45;&gt;Node12 -->
<g id="edge11" class="edge"><title>Node11&#45;&gt;Node12</title>
<path fill="none" stroke="midnightblue" d="M457.275,-15.5C480.214,-15.5 506.29,-15.5 527.58,-15.5"/>
<polygon fill="midnightblue" stroke="midnightblue" points="527.612,-19.0001 537.612,-15.5 527.612,-12.0001 527.612,-19.0001"/>
</g>
</g>
</svg>
