<?xml version="1.0" encoding="UTF-8" standalone="no"?>
<!DOCTYPE svg PUBLIC "-//W3C//DTD SVG 1.1//EN"
 "http://www.w3.org/Graphics/SVG/1.1/DTD/svg11.dtd">
<!-- Generated by graphviz version 2.38.0 (20140413.2041)
 -->
<!-- Title: AudioPlayer::PlaySound Pages: 1 -->
<!--zoomable 227 -->
<svg id="main" version="1.1" xmlns="http://www.w3.org/2000/svg" xmlns:xlink="http://www.w3.org/1999/xlink" xml:space="preserve" onload="init(evt)">
<style type="text/css"><![CDATA[
.edge:hover path { stroke: red; }
.edge:hover polygon { stroke: red; fill: red; }
]]></style>
<script type="text/javascript"><![CDATA[
var edges = document.getElementsByTagName('g');
if (edges && edges.length) {
  for (var i=0;i<edges.length;i++) {
    if (edges[i].id.substr(0,4)=='edge') {
      edges[i].setAttribute('class','edge');
    }
  }
}
]]></script>
        <defs>
                <circle id="rim" cx="0" cy="0" r="7"/>
                <circle id="rim2" cx="0" cy="0" r="3.5"/>
                <g id="zoomPlus">
                        <use xlink:href="#rim" fill="#404040">
                                <set attributeName="fill" to="#808080" begin="zoomplus.mouseover" end="zoomplus.mouseout"/>
                        </use>
                        <path d="M-4,0h8M0,-4v8" fill="none" stroke="white" stroke-width="1.5" pointer-events="none"/>
                </g>
                <g id="zoomMin">
                        <use xlink:href="#rim" fill="#404040">
                                <set attributeName="fill" to="#808080" begin="zoomminus.mouseover" end="zoomminus.mouseout"/>
                        </use>
                        <path d="M-4,0h8" fill="none" stroke="white" stroke-width="1.5" pointer-events="none"/>
                </g>
                <g id="dirArrow">
                        <path fill="none" stroke="white" stroke-width="1.5" d="M0,-3.0v7 M-2.5,-0.5L0,-3.0L2.5,-0.5"/>
                </g>
               <g id="resetDef">
                       <use xlink:href="#rim2" fill="#404040">
                               <set attributeName="fill" to="#808080" begin="reset.mouseover" end="reset.mouseout"/>
                       </use>
               </g>
        </defs>

<script type="text/javascript">
var viewWidth = 574;
var viewHeight = 227;
var sectionId = 'dynsection-10';
</script>
<script xlink:href="../../svgpan.js"/>
<svg id="graph" class="graph">
<g id="viewport">
<title>AudioPlayer::PlaySound</title>
<polygon fill="white" stroke="none" points="-4,4 -4,-222.5 570,-222.5 570,4 -4,4"/>
<!-- Node1 -->
<g id="node1" class="node"><title>Node1</title>
<g id="a_node1"><a xlink:title=" ">
<polygon fill="#bfbfbf" stroke="black" points="0,-69 0,-88 122,-88 122,-69 0,-69"/>
<text text-anchor="middle" x="61" y="-76" font-family="Helvetica,sans-Serif" font-size="10.00">AudioPlayer::PlaySound</text>
</a>
</g>
</g>
<!-- Node2 -->
<g id="node2" class="node"><title>Node2</title>
<g id="a_node2"><a xlink:href="../../d4/db9/_open_a_l_sound_provider_8cpp.html#a0d61058bc8900801bc227bc7b47881d7" target="_top" xlink:title=" ">
<polygon fill="white" stroke="black" points="168.5,-161 168.5,-180 271.5,-180 271.5,-161 168.5,-161"/>
<text text-anchor="middle" x="220" y="-168" font-family="Helvetica,sans-Serif" font-size="10.00">CreateAudioSample</text>
</a>
</g>
</g>
<!-- Node1&#45;&gt;Node2 -->
<g id="edge1" class="edge"><title>Node1&#45;&gt;Node2</title>
<path fill="none" stroke="midnightblue" d="M78.505,-88.1717C106.021,-104.296 161.437,-136.769 193.842,-155.757"/>
<polygon fill="midnightblue" stroke="midnightblue" points="192.319,-158.922 202.716,-160.958 195.858,-152.882 192.319,-158.922"/>
</g>
<!-- Node4 -->
<g id="node4" class="node"><title>Node4</title>
<g id="a_node4"><a xlink:href="../../d7/dc2/class_audio_player.html#ae30d2f6cbd73b8e316a47b4694fe8960" target="_top" xlink:title=" ">
<polygon fill="white" stroke="black" points="158,-88 158,-107 282,-107 282,-88 158,-88"/>
<text text-anchor="middle" x="220" y="-95" font-family="Helvetica,sans-Serif" font-size="10.00">AudioPlayer::LoadSound</text>
</a>
</g>
</g>
<!-- Node1&#45;&gt;Node4 -->
<g id="edge3" class="edge"><title>Node1&#45;&gt;Node4</title>
<path fill="none" stroke="midnightblue" d="M122.251,-85.7916C130.642,-86.807 139.327,-87.8581 147.894,-88.8948"/>
<polygon fill="midnightblue" stroke="midnightblue" points="147.523,-92.3754 157.871,-90.1023 148.364,-85.4261 147.523,-92.3754"/>
</g>
<!-- Node9 -->
<g id="node9" class="node"><title>Node9</title>
<g id="a_node9"><a xlink:href="../../d6/d70/class_log.html#ac0de2621497ca3b2fbf208624c08bcdf" target="_top" xlink:title=" ">
<polygon fill="white" stroke="black" points="354,-47 354,-66 428,-66 428,-47 354,-47"/>
<text text-anchor="middle" x="391" y="-54" font-family="Helvetica,sans-Serif" font-size="10.00">Log::Warning</text>
</a>
</g>
</g>
<!-- Node1&#45;&gt;Node9 -->
<g id="edge11" class="edge"><title>Node1&#45;&gt;Node9</title>
<path fill="none" stroke="midnightblue" d="M122.16,-74.4649C186.015,-70.1819 285.55,-63.5058 343.604,-59.6119"/>
<polygon fill="midnightblue" stroke="midnightblue" points="343.852,-63.1032 353.596,-58.9418 343.384,-56.1189 343.852,-63.1032"/>
</g>
<!-- Node10 -->
<g id="node10" class="node"><title>Node10</title>
<g id="a_node10"><a xlink:href="../../d9/d98/class_open_a_l_sound_provider.html#a25ac61cd13253bb659672a1cc29ef22c" target="_top" xlink:title=" ">
<polygon fill="white" stroke="black" points="163,-0.5 163,-30.5 277,-30.5 277,-0.5 163,-0.5"/>
<text text-anchor="start" x="171" y="-18.5" font-family="Helvetica,sans-Serif" font-size="10.00">OpenALSoundProvider</text>
<text text-anchor="middle" x="220" y="-7.5" font-family="Helvetica,sans-Serif" font-size="10.00">::SetListenerPosition</text>
</a>
</g>
</g>
<!-- Node1&#45;&gt;Node10 -->
<g id="edge9" class="edge"><title>Node1&#45;&gt;Node10</title>
<path fill="none" stroke="midnightblue" d="M85.8449,-68.9317C108.658,-59.7776 143.695,-45.7178 172.104,-34.3181"/>
<polygon fill="midnightblue" stroke="midnightblue" points="173.48,-37.5374 181.457,-30.565 170.873,-31.041 173.48,-37.5374"/>
</g>
<!-- Node3 -->
<g id="node3" class="node"><title>Node3</title>
<g id="a_node3"><a xlink:href="../../da/def/_media_8h.html#ab508e4ee3c70ec5e60273ec99af30a2e" target="_top" xlink:title=" ">
<polygon fill="white" stroke="black" points="318,-199 318,-218 464,-218 464,-199 318,-199"/>
<text text-anchor="middle" x="391" y="-206" font-family="Helvetica,sans-Serif" font-size="10.00">CreateAudioBufferDataSource</text>
</a>
</g>
</g>
<!-- Node2&#45;&gt;Node3 -->
<g id="edge2" class="edge"><title>Node2&#45;&gt;Node3</title>
<path fill="none" stroke="midnightblue" d="M263.646,-180.089C286.148,-185.149 313.948,-191.4 337.738,-196.749"/>
<polygon fill="midnightblue" stroke="midnightblue" points="337.137,-200.201 347.661,-198.98 338.672,-193.371 337.137,-200.201"/>
</g>
<!-- Node5 -->
<g id="node5" class="node"><title>Node5</title>
<g id="a_node5"><a xlink:href="../../da/d6a/_mem_buffer_8cpp.html#a685632d9cd2b61b24a9bfc649d54937e" target="_top" xlink:title=" ">
<polygon fill="white" stroke="black" points="348.5,-161 348.5,-180 433.5,-180 433.5,-161 348.5,-161"/>
<text text-anchor="middle" x="391" y="-168" font-family="Helvetica,sans-Serif" font-size="10.00">AllocMemBuffer</text>
</a>
</g>
</g>
<!-- Node4&#45;&gt;Node5 -->
<g id="edge4" class="edge"><title>Node4&#45;&gt;Node5</title>
<path fill="none" stroke="midnightblue" d="M235.545,-107.125C254.033,-118.994 287.251,-139.112 318,-151.5 324.445,-154.097 331.358,-156.441 338.258,-158.523"/>
<polygon fill="midnightblue" stroke="midnightblue" points="337.725,-162.011 348.302,-161.387 339.645,-155.279 337.725,-162.011"/>
</g>
<!-- Node6 -->
<g id="node6" class="node"><title>Node6</title>
<g id="a_node6"><a xlink:href="../../d7/dc2/class_audio_player.html#aac82d03b250711ed0ce64fa22dfe3a59" target="_top" xlink:title=" ">
<polygon fill="white" stroke="black" points="330,-123 330,-142 452,-142 452,-123 330,-123"/>
<text text-anchor="middle" x="391" y="-130" font-family="Helvetica,sans-Serif" font-size="10.00">AudioPlayer::FindSound</text>
</a>
</g>
</g>
<!-- Node4&#45;&gt;Node6 -->
<g id="edge5" class="edge"><title>Node4&#45;&gt;Node6</title>
<path fill="none" stroke="midnightblue" d="M267.18,-107.064C287.766,-111.327 312.201,-116.388 333.835,-120.868"/>
<polygon fill="midnightblue" stroke="midnightblue" points="333.374,-124.347 343.876,-122.948 334.793,-117.492 333.374,-124.347"/>
</g>
<!-- Node8 -->
<g id="node8" class="node"><title>Node8</title>
<g id="a_node8"><a xlink:href="../../d9/d3e/namespacezlib.html#ae552beaf4387a81c63a28b01a9cc7ab4" target="_top" xlink:title=" ">
<polygon fill="white" stroke="black" points="345,-85 345,-104 437,-104 437,-85 345,-85"/>
<text text-anchor="middle" x="391" y="-92" font-family="Helvetica,sans-Serif" font-size="10.00">zlib::Uncompress</text>
</a>
</g>
</g>
<!-- Node4&#45;&gt;Node8 -->
<g id="edge7" class="edge"><title>Node4&#45;&gt;Node8</title>
<path fill="none" stroke="midnightblue" d="M282.013,-96.4169C299.238,-96.1112 317.878,-95.7803 334.744,-95.4809"/>
<polygon fill="midnightblue" stroke="midnightblue" points="335.052,-98.9761 344.989,-95.299 334.928,-91.9772 335.052,-98.9761"/>
</g>
<!-- Node4&#45;&gt;Node9 -->
<g id="edge8" class="edge"><title>Node4&#45;&gt;Node9</title>
<path fill="none" stroke="midnightblue" d="M260.197,-87.9907C285.271,-81.9076 317.901,-73.9915 344.172,-67.6179"/>
<polygon fill="midnightblue" stroke="midnightblue" points="345.008,-71.0169 353.901,-65.2578 343.357,-64.2142 345.008,-71.0169"/>
</g>
<!-- Node7 -->
<g id="node7" class="node"><title>Node7</title>
<g id="a_node7"><a xlink:href="../../d8/d44/_strings_8cpp.html#ae591bae1416df2b3638ae859ad4ede6f" target="_top" xlink:title=" ">
<polygon fill="white" stroke="black" points="500,-123 500,-142 566,-142 566,-123 500,-123"/>
<text text-anchor="middle" x="533" y="-130" font-family="Helvetica,sans-Serif" font-size="10.00">MakeLower</text>
</a>
</g>
</g>
<!-- Node6&#45;&gt;Node7 -->
<g id="edge6" class="edge"><title>Node6&#45;&gt;Node7</title>
<path fill="none" stroke="midnightblue" d="M452.185,-132.5C464.796,-132.5 477.84,-132.5 489.636,-132.5"/>
<polygon fill="midnightblue" stroke="midnightblue" points="489.639,-136 499.639,-132.5 489.639,-129 489.639,-136"/>
</g>
<!-- Node11 -->
<g id="node11" class="node"><title>Node11</title>
<g id="a_node11"><a xlink:href="../../d1/d20/al_8h.html#acb8f6904370d9946f4ea496e21729415" target="_top" xlink:title=" ">
<polygon fill="white" stroke="black" points="358,-6 358,-25 424,-25 424,-6 358,-6"/>
<text text-anchor="middle" x="391" y="-13" font-family="Helvetica,sans-Serif" font-size="10.00">alListener3f</text>
</a>
</g>
</g>
<!-- Node10&#45;&gt;Node11 -->
<g id="edge10" class="edge"><title>Node10&#45;&gt;Node11</title>
<path fill="none" stroke="midnightblue" d="M277.275,-15.5C300.214,-15.5 326.29,-15.5 347.58,-15.5"/>
<polygon fill="midnightblue" stroke="midnightblue" points="347.612,-19.0001 357.612,-15.5 347.612,-12.0001 347.612,-19.0001"/>
</g>
</g>
</svg>
        <g id="navigator" transform="translate(0 0)" fill="#404254">
                <rect fill="#f2f5e9" fill-opacity="0.5" stroke="#606060" stroke-width=".5" x="0" y="0" width="60" height="60"/>
                <use id="zoomplus" xlink:href="#zoomPlus" x="17" y="9" onmousedown="handleZoom(evt,'in')"/>
                <use id="zoomminus" xlink:href="#zoomMin" x="42" y="9" onmousedown="handleZoom(evt,'out')"/>
                <use id="reset" xlink:href="#resetDef" x="30" y="36" onmousedown="handleReset()"/>
                <g id="arrowUp" xlink:href="#dirArrow" transform="translate(30 24)" onmousedown="handlePan(0,-1)">
                  <use xlink:href="#rim" fill="#404040">
                        <set attributeName="fill" to="#808080" begin="arrowUp.mouseover" end="arrowUp.mouseout"/>
                  </use>
                  <path fill="none" stroke="white" stroke-width="1.5" d="M0,-3.0v7 M-2.5,-0.5L0,-3.0L2.5,-0.5"/>
                </g>
                <g id="arrowRight" xlink:href="#dirArrow" transform="rotate(90) translate(36 -43)" onmousedown="handlePan(1,0)">
                  <use xlink:href="#rim" fill="#404040">
                        <set attributeName="fill" to="#808080" begin="arrowRight.mouseover" end="arrowRight.mouseout"/>
                  </use>
                  <path fill="none" stroke="white" stroke-width="1.5" d="M0,-3.0v7 M-2.5,-0.5L0,-3.0L2.5,-0.5"/>
                </g>
                <g id="arrowDown" xlink:href="#dirArrow" transform="rotate(180) translate(-30 -48)" onmousedown="handlePan(0,1)">
                  <use xlink:href="#rim" fill="#404040">
                        <set attributeName="fill" to="#808080" begin="arrowDown.mouseover" end="arrowDown.mouseout"/>
                  </use>
                  <path fill="none" stroke="white" stroke-width="1.5" d="M0,-3.0v7 M-2.5,-0.5L0,-3.0L2.5,-0.5"/>
                </g>
                <g id="arrowLeft" xlink:href="#dirArrow" transform="rotate(270) translate(-36 17)" onmousedown="handlePan(-1,0)">
                  <use xlink:href="#rim" fill="#404040">
                        <set attributeName="fill" to="#808080" begin="arrowLeft.mouseover" end="arrowLeft.mouseout"/>
                  </use>
                  <path fill="none" stroke="white" stroke-width="1.5" d="M0,-3.0v7 M-2.5,-0.5L0,-3.0L2.5,-0.5"/>
                </g>
        </g>
        <svg viewBox="0 0 15 15" width="100%" height="30px" preserveAspectRatio="xMaxYMin meet">
         <g id="arrow_out" transform="scale(0.3 0.3)">
          <a xlink:href="class_audio_player_afa0c135f321bd87b4d4ad2dcad3833e3_cgraph_org.svg" target="_base">
           <rect id="button" ry="5" rx="5" y="6" x="6" height="38" width="38"
                fill="#f2f5e9" fill-opacity="0.5" stroke="#606060" stroke-width="1.0"/>
           <path id="arrow"
             d="M 11.500037,31.436501 C 11.940474,20.09759 22.043105,11.32322 32.158766,21.979434 L 37.068811,17.246167 C 37.068811,17.246167 37.088388,32 37.088388,32 L 22.160133,31.978069 C 22.160133,31.978069 26.997745,27.140456 26.997745,27.140456 C 18.528582,18.264221 13.291696,25.230495 11.500037,31.436501 z"
             style="fill:#404040;"/>
          </a>
         </g>
        </svg>
</svg>
