<?xml version="1.0" encoding="UTF-8" standalone="no"?>
<!DOCTYPE svg PUBLIC "-//W3C//DTD SVG 1.1//EN"
 "http://www.w3.org/Graphics/SVG/1.1/DTD/svg11.dtd">
<!-- Generated by graphviz version 2.38.0 (20140413.2041)
 -->
<!-- Title: GameTime::GetMonths Pages: 1 -->
<svg width="885pt" height="28pt"
 viewBox="0.00 0.00 885.00 28.00" xmlns="http://www.w3.org/2000/svg" xmlns:xlink="http://www.w3.org/1999/xlink">
<g id="graph0" class="graph" transform="scale(1 1) rotate(0) translate(4 24)">
<title>GameTime::GetMonths</title>
<polygon fill="white" stroke="none" points="-4,4 -4,-24 881,-24 881,4 -4,4"/>
<!-- Node1 -->
<g id="node1" class="node"><title>Node1</title>
<g id="a_node1"><a xlink:title=" ">
<polygon fill="#bfbfbf" stroke="black" points="0,-0.5 0,-19.5 118,-19.5 118,-0.5 0,-0.5"/>
<text text-anchor="middle" x="59" y="-7.5" font-family="Helvetica,sans-Serif" font-size="10.00">GameTime::GetMonths</text>
</a>
</g>
</g>
<!-- Node2 -->
<g id="node2" class="node"><title>Node2</title>
<g id="a_node2"><a xlink:href="../../df/dc2/struct_game_time.html#abba323570853b3416523a1f751d9434e" target="_top" xlink:title=" ">
<polygon fill="white" stroke="black" points="154,-0.5 154,-19.5 270,-19.5 270,-0.5 154,-0.5"/>
<text text-anchor="middle" x="212" y="-7.5" font-family="Helvetica,sans-Serif" font-size="10.00">GameTime::GetWeeks</text>
</a>
</g>
</g>
<!-- Node1&#45;&gt;Node2 -->
<g id="edge1" class="edge"><title>Node1&#45;&gt;Node2</title>
<path fill="none" stroke="midnightblue" d="M118.381,-10C126.641,-10 135.19,-10 143.603,-10"/>
<polygon fill="midnightblue" stroke="midnightblue" points="143.769,-13.5001 153.769,-10 143.769,-6.5001 143.769,-13.5001"/>
</g>
<!-- Node3 -->
<g id="node3" class="node"><title>Node3</title>
<g id="a_node3"><a xlink:href="../../df/dc2/struct_game_time.html#a63923f44c458d6327dec9c87660700a5" target="_top" xlink:title=" ">
<polygon fill="white" stroke="black" points="306,-0.5 306,-19.5 414,-19.5 414,-0.5 306,-0.5"/>
<text text-anchor="middle" x="360" y="-7.5" font-family="Helvetica,sans-Serif" font-size="10.00">GameTime::GetDays</text>
</a>
</g>
</g>
<!-- Node2&#45;&gt;Node3 -->
<g id="edge2" class="edge"><title>Node2&#45;&gt;Node3</title>
<path fill="none" stroke="midnightblue" d="M270.284,-10C278.576,-10 287.152,-10 295.557,-10"/>
<polygon fill="midnightblue" stroke="midnightblue" points="295.692,-13.5001 305.692,-10 295.692,-6.5001 295.692,-13.5001"/>
</g>
<!-- Node4 -->
<g id="node4" class="node"><title>Node4</title>
<g id="a_node4"><a xlink:href="../../df/dc2/struct_game_time.html#a9f828cfde868d07e1f607171c6809435" target="_top" xlink:title=" ">
<polygon fill="white" stroke="black" points="450,-0.5 450,-19.5 561,-19.5 561,-0.5 450,-0.5"/>
<text text-anchor="middle" x="505.5" y="-7.5" font-family="Helvetica,sans-Serif" font-size="10.00">GameTime::GetHours</text>
</a>
</g>
</g>
<!-- Node3&#45;&gt;Node4 -->
<g id="edge3" class="edge"><title>Node3&#45;&gt;Node4</title>
<path fill="none" stroke="midnightblue" d="M414.026,-10C422.405,-10 431.149,-10 439.757,-10"/>
<polygon fill="midnightblue" stroke="midnightblue" points="439.771,-13.5001 449.771,-10 439.771,-6.5001 439.771,-13.5001"/>
</g>
<!-- Node5 -->
<g id="node5" class="node"><title>Node5</title>
<g id="a_node5"><a xlink:href="../../df/dc2/struct_game_time.html#a6957230697b66012e8207c587aa65e33" target="_top" xlink:title=" ">
<polygon fill="white" stroke="black" points="597,-0.5 597,-19.5 717,-19.5 717,-0.5 597,-0.5"/>
<text text-anchor="middle" x="657" y="-7.5" font-family="Helvetica,sans-Serif" font-size="10.00">GameTime::GetMinutes</text>
</a>
</g>
</g>
<!-- Node4&#45;&gt;Node5 -->
<g id="edge4" class="edge"><title>Node4&#45;&gt;Node5</title>
<path fill="none" stroke="midnightblue" d="M561.319,-10C569.645,-10 578.326,-10 586.908,-10"/>
<polygon fill="midnightblue" stroke="midnightblue" points="586.909,-13.5001 596.909,-10 586.909,-6.5001 586.909,-13.5001"/>
</g>
<!-- Node6 -->
<g id="node6" class="node"><title>Node6</title>
<g id="a_node6"><a xlink:href="../../df/dc2/struct_game_time.html#a719def6268b14c320733038cb701d1a6" target="_top" xlink:title=" ">
<polygon fill="white" stroke="black" points="753,-0.5 753,-19.5 877,-19.5 877,-0.5 753,-0.5"/>
<text text-anchor="middle" x="815" y="-7.5" font-family="Helvetica,sans-Serif" font-size="10.00">GameTime::GetSeconds</text>
</a>
</g>
</g>
<!-- Node5&#45;&gt;Node6 -->
<g id="edge5" class="edge"><title>Node5&#45;&gt;Node6</title>
<path fill="none" stroke="midnightblue" d="M717.422,-10C725.686,-10 734.245,-10 742.699,-10"/>
<polygon fill="midnightblue" stroke="midnightblue" points="742.931,-13.5001 752.931,-10 742.931,-6.5001 742.931,-13.5001"/>
</g>
</g>
</svg>
