<?xml version="1.0" encoding="UTF-8" standalone="no"?>
<!DOCTYPE svg PUBLIC "-//W3C//DTD SVG 1.1//EN"
 "http://www.w3.org/Graphics/SVG/1.1/DTD/svg11.dtd">
<!-- Generated by graphviz version 2.38.0 (20140413.2041)
 -->
<!-- Title: GameTime::GetYears Pages: 1 -->
<svg width="1032pt" height="28pt"
 viewBox="0.00 0.00 1032.00 28.00" xmlns="http://www.w3.org/2000/svg" xmlns:xlink="http://www.w3.org/1999/xlink">
<g id="graph0" class="graph" transform="scale(1 1) rotate(0) translate(4 24)">
<title>GameTime::GetYears</title>
<polygon fill="white" stroke="none" points="-4,4 -4,-24 1028,-24 1028,4 -4,4"/>
<!-- Node1 -->
<g id="node1" class="node"><title>Node1</title>
<g id="a_node1"><a xlink:title=" ">
<polygon fill="#bfbfbf" stroke="black" points="0,-0.5 0,-19.5 111,-19.5 111,-0.5 0,-0.5"/>
<text text-anchor="middle" x="55.5" y="-7.5" font-family="Helvetica,sans-Serif" font-size="10.00">GameTime::GetYears</text>
</a>
</g>
</g>
<!-- Node2 -->
<g id="node2" class="node"><title>Node2</title>
<g id="a_node2"><a xlink:href="../../df/dc2/struct_game_time.html#a07ae29857951b03940de0d2232075558" target="_top" xlink:title=" ">
<polygon fill="white" stroke="black" points="147,-0.5 147,-19.5 265,-19.5 265,-0.5 147,-0.5"/>
<text text-anchor="middle" x="206" y="-7.5" font-family="Helvetica,sans-Serif" font-size="10.00">GameTime::GetMonths</text>
</a>
</g>
</g>
<!-- Node1&#45;&gt;Node2 -->
<g id="edge1" class="edge"><title>Node1&#45;&gt;Node2</title>
<path fill="none" stroke="midnightblue" d="M111.374,-10C119.597,-10 128.162,-10 136.624,-10"/>
<polygon fill="midnightblue" stroke="midnightblue" points="136.865,-13.5001 146.865,-10 136.865,-6.5001 136.865,-13.5001"/>
</g>
<!-- Node3 -->
<g id="node3" class="node"><title>Node3</title>
<g id="a_node3"><a xlink:href="../../df/dc2/struct_game_time.html#abba323570853b3416523a1f751d9434e" target="_top" xlink:title=" ">
<polygon fill="white" stroke="black" points="301,-0.5 301,-19.5 417,-19.5 417,-0.5 301,-0.5"/>
<text text-anchor="middle" x="359" y="-7.5" font-family="Helvetica,sans-Serif" font-size="10.00">GameTime::GetWeeks</text>
</a>
</g>
</g>
<!-- Node2&#45;&gt;Node3 -->
<g id="edge2" class="edge"><title>Node2&#45;&gt;Node3</title>
<path fill="none" stroke="midnightblue" d="M265.381,-10C273.641,-10 282.19,-10 290.603,-10"/>
<polygon fill="midnightblue" stroke="midnightblue" points="290.769,-13.5001 300.769,-10 290.769,-6.5001 290.769,-13.5001"/>
</g>
<!-- Node4 -->
<g id="node4" class="node"><title>Node4</title>
<g id="a_node4"><a xlink:href="../../df/dc2/struct_game_time.html#a63923f44c458d6327dec9c87660700a5" target="_top" xlink:title=" ">
<polygon fill="white" stroke="black" points="453,-0.5 453,-19.5 561,-19.5 561,-0.5 453,-0.5"/>
<text text-anchor="middle" x="507" y="-7.5" font-family="Helvetica,sans-Serif" font-size="10.00">GameTime::GetDays</text>
</a>
</g>
</g>
<!-- Node3&#45;&gt;Node4 -->
<g id="edge3" class="edge"><title>Node3&#45;&gt;Node4</title>
<path fill="none" stroke="midnightblue" d="M417.284,-10C425.576,-10 434.152,-10 442.557,-10"/>
<polygon fill="midnightblue" stroke="midnightblue" points="442.692,-13.5001 452.692,-10 442.692,-6.5001 442.692,-13.5001"/>
</g>
<!-- Node5 -->
<g id="node5" class="node"><title>Node5</title>
<g id="a_node5"><a xlink:href="../../df/dc2/struct_game_time.html#a9f828cfde868d07e1f607171c6809435" target="_top" xlink:title=" ">
<polygon fill="white" stroke="black" points="597,-0.5 597,-19.5 708,-19.5 708,-0.5 597,-0.5"/>
<text text-anchor="middle" x="652.5" y="-7.5" font-family="Helvetica,sans-Serif" font-size="10.00">GameTime::GetHours</text>
</a>
</g>
</g>
<!-- Node4&#45;&gt;Node5 -->
<g id="edge4" class="edge"><title>Node4&#45;&gt;Node5</title>
<path fill="none" stroke="midnightblue" d="M561.026,-10C569.405,-10 578.149,-10 586.757,-10"/>
<polygon fill="midnightblue" stroke="midnightblue" points="586.771,-13.5001 596.771,-10 586.771,-6.5001 586.771,-13.5001"/>
</g>
<!-- Node6 -->
<g id="node6" class="node"><title>Node6</title>
<g id="a_node6"><a xlink:href="../../df/dc2/struct_game_time.html#a6957230697b66012e8207c587aa65e33" target="_top" xlink:title=" ">
<polygon fill="white" stroke="black" points="744,-0.5 744,-19.5 864,-19.5 864,-0.5 744,-0.5"/>
<text text-anchor="middle" x="804" y="-7.5" font-family="Helvetica,sans-Serif" font-size="10.00">GameTime::GetMinutes</text>
</a>
</g>
</g>
<!-- Node5&#45;&gt;Node6 -->
<g id="edge5" class="edge"><title>Node5&#45;&gt;Node6</title>
<path fill="none" stroke="midnightblue" d="M708.319,-10C716.645,-10 725.326,-10 733.908,-10"/>
<polygon fill="midnightblue" stroke="midnightblue" points="733.909,-13.5001 743.909,-10 733.909,-6.5001 733.909,-13.5001"/>
</g>
<!-- Node7 -->
<g id="node7" class="node"><title>Node7</title>
<g id="a_node7"><a xlink:href="../../df/dc2/struct_game_time.html#a719def6268b14c320733038cb701d1a6" target="_top" xlink:title=" ">
<polygon fill="white" stroke="black" points="900,-0.5 900,-19.5 1024,-19.5 1024,-0.5 900,-0.5"/>
<text text-anchor="middle" x="962" y="-7.5" font-family="Helvetica,sans-Serif" font-size="10.00">GameTime::GetSeconds</text>
</a>
</g>
</g>
<!-- Node6&#45;&gt;Node7 -->
<g id="edge6" class="edge"><title>Node6&#45;&gt;Node7</title>
<path fill="none" stroke="midnightblue" d="M864.422,-10C872.686,-10 881.245,-10 889.699,-10"/>
<polygon fill="midnightblue" stroke="midnightblue" points="889.931,-13.5001 899.931,-10 889.931,-6.5001 889.931,-13.5001"/>
</g>
</g>
</svg>
