<?xml version="1.0" encoding="UTF-8" standalone="no"?>
<!DOCTYPE svg PUBLIC "-//W3C//DTD SVG 1.1//EN"
 "http://www.w3.org/Graphics/SVG/1.1/DTD/svg11.dtd">
<!-- Generated by graphviz version 2.38.0 (20140413.2041)
 -->
<!-- Title: GUIWindow_MainMenu Pages: 1 -->
<!--zoomable 509 -->
<svg id="main" version="1.1" xmlns="http://www.w3.org/2000/svg" xmlns:xlink="http://www.w3.org/1999/xlink" xml:space="preserve" onload="init(evt)">
<style type="text/css"><![CDATA[
.edge:hover path { stroke: red; }
.edge:hover polygon { stroke: red; fill: red; }
]]></style>
<script type="text/javascript"><![CDATA[
var edges = document.getElementsByTagName('g');
if (edges && edges.length) {
  for (var i=0;i<edges.length;i++) {
    if (edges[i].id.substr(0,4)=='edge') {
      edges[i].setAttribute('class','edge');
    }
  }
}
]]></script>
        <defs>
                <circle id="rim" cx="0" cy="0" r="7"/>
                <circle id="rim2" cx="0" cy="0" r="3.5"/>
                <g id="zoomPlus">
                        <use xlink:href="#rim" fill="#404040">
                                <set attributeName="fill" to="#808080" begin="zoomplus.mouseover" end="zoomplus.mouseout"/>
                        </use>
                        <path d="M-4,0h8M0,-4v8" fill="none" stroke="white" stroke-width="1.5" pointer-events="none"/>
                </g>
                <g id="zoomMin">
                        <use xlink:href="#rim" fill="#404040">
                                <set attributeName="fill" to="#808080" begin="zoomminus.mouseover" end="zoomminus.mouseout"/>
                        </use>
                        <path d="M-4,0h8" fill="none" stroke="white" stroke-width="1.5" pointer-events="none"/>
                </g>
                <g id="dirArrow">
                        <path fill="none" stroke="white" stroke-width="1.5" d="M0,-3.0v7 M-2.5,-0.5L0,-3.0L2.5,-0.5"/>
                </g>
               <g id="resetDef">
                       <use xlink:href="#rim2" fill="#404040">
                               <set attributeName="fill" to="#808080" begin="reset.mouseover" end="reset.mouseout"/>
                       </use>
               </g>
        </defs>

<script type="text/javascript">
var viewWidth = 532;
var viewHeight = 509;
var sectionId = 'dynsection-1';
</script>
<script xlink:href="../../svgpan.js"/>
<svg id="graph" class="graph">
<g id="viewport">
<title>GUIWindow_MainMenu</title>
<polygon fill="white" stroke="none" points="-4,4 -4,-505 528,-505 528,4 -4,4"/>
<!-- Node1 -->
<g id="node1" class="node"><title>Node1</title>
<g id="a_node1"><a xlink:title=" ">
<polygon fill="#bfbfbf" stroke="black" points="35,-0.5 35,-19.5 153,-19.5 153,-0.5 35,-0.5"/>
<text text-anchor="middle" x="94" y="-7.5" font-family="Helvetica,sans-Serif" font-size="10.00">GUIWindow_MainMenu</text>
</a>
</g>
</g>
<!-- Node2 -->
<g id="node2" class="node"><title>Node2</title>
<g id="a_node2"><a xlink:href="../../d4/d38/class_g_u_i_window.html" target="_top" xlink:title=" ">
<polygon fill="white" stroke="black" points="23,-185 23,-204 91,-204 91,-185 23,-185"/>
<text text-anchor="middle" x="57" y="-192" font-family="Helvetica,sans-Serif" font-size="10.00">GUIWindow</text>
</a>
</g>
</g>
<!-- Node2&#45;&gt;Node1 -->
<g id="edge1" class="edge"><title>Node2&#45;&gt;Node1</title>
<path fill="none" stroke="midnightblue" d="M67.9702,-176.032C72.4462,-168.077 77.2153,-158.363 80,-149 94.0726,-101.682 94.5846,-41.654 94.23,-19.6147"/>
<polygon fill="midnightblue" stroke="midnightblue" points="64.9075,-174.334 62.809,-184.719 70.9256,-177.91 64.9075,-174.334"/>
</g>
<!-- Node10 -->
<g id="node10" class="node"><title>Node10</title>
<g id="a_node10"><a xlink:href="../../db/d66/class_g_u_i_button.html" target="_top" xlink:title=" ">
<polygon fill="white" stroke="black" points="0,-100.5 0,-119.5 62,-119.5 62,-100.5 0,-100.5"/>
<text text-anchor="middle" x="31" y="-107.5" font-family="Helvetica,sans-Serif" font-size="10.00">GUIButton</text>
</a>
</g>
</g>
<!-- Node2&#45;&gt;Node10 -->
<g id="edge14" class="edge"><title>Node2&#45;&gt;Node10</title>
<path fill="none" stroke="#9a32cd" stroke-dasharray="5,2" d="M51.3037,-175.425C45.8474,-158.112 37.8499,-132.735 33.7089,-119.595"/>
<polygon fill="#9a32cd" stroke="#9a32cd" points="47.9715,-176.496 54.3155,-184.982 54.6478,-174.392 47.9715,-176.496"/>
<text text-anchor="middle" x="61.5" y="-141" font-family="Helvetica,sans-Serif" font-size="10.00"> pParent</text>
</g>
<!-- Node3 -->
<g id="node3" class="node"><title>Node3</title>
<g id="a_node3"><a xlink:href="../../d6/d70/class_log.html" target="_top" xlink:title=" ">
<polygon fill="white" stroke="black" points="103,-481.5 103,-500.5 135,-500.5 135,-481.5 103,-481.5"/>
<text text-anchor="middle" x="119" y="-488.5" font-family="Helvetica,sans-Serif" font-size="10.00">Log</text>
</a>
</g>
</g>
<!-- Node3&#45;&gt;Node2 -->
<g id="edge2" class="edge"><title>Node3&#45;&gt;Node2</title>
<path fill="none" stroke="#9a32cd" stroke-dasharray="5,2" d="M97.1201,-475.344C82.5248,-463.65 66,-445.814 66,-425 66,-425 66,-425 66,-278 66,-250.913 61.1462,-219.117 58.5677,-204.137"/>
<polygon fill="#9a32cd" stroke="#9a32cd" points="95.2458,-478.313 105.351,-481.496 99.4364,-472.706 95.2458,-478.313"/>
<text text-anchor="middle" x="74" y="-354.5" font-family="Helvetica,sans-Serif" font-size="10.00"> log</text>
</g>
<!-- Node6 -->
<g id="node6" class="node"><title>Node6</title>
<g id="a_node6"><a xlink:href="../../d7/d42/class_image_loader.html" target="_top" xlink:title=" ">
<polygon fill="white" stroke="black" points="178,-414.5 178,-433.5 250,-433.5 250,-414.5 178,-414.5"/>
<text text-anchor="middle" x="214" y="-421.5" font-family="Helvetica,sans-Serif" font-size="10.00">ImageLoader</text>
</a>
</g>
</g>
<!-- Node3&#45;&gt;Node6 -->
<g id="edge6" class="edge"><title>Node3&#45;&gt;Node6</title>
<path fill="none" stroke="#9a32cd" stroke-dasharray="5,2" d="M140.31,-475.42C159.091,-462.569 185.818,-444.282 201.391,-433.627"/>
<polygon fill="#9a32cd" stroke="#9a32cd" points="138.089,-472.698 131.812,-481.234 142.042,-478.476 138.089,-472.698"/>
<text text-anchor="middle" x="181" y="-455" font-family="Helvetica,sans-Serif" font-size="10.00"> log</text>
</g>
<!-- Node7 -->
<g id="node7" class="node"><title>Node7</title>
<g id="a_node7"><a xlink:href="../../db/da4/class_o_s_window.html" target="_top" xlink:title=" ">
<polygon fill="white" stroke="black" points="196.5,-100.5 196.5,-119.5 261.5,-119.5 261.5,-100.5 196.5,-100.5"/>
<text text-anchor="middle" x="229" y="-107.5" font-family="Helvetica,sans-Serif" font-size="10.00">OSWindow</text>
</a>
</g>
</g>
<!-- Node3&#45;&gt;Node7 -->
<g id="edge8" class="edge"><title>Node3&#45;&gt;Node7</title>
<path fill="none" stroke="#9a32cd" stroke-dasharray="5,2" d="M119,-471.134C119,-458.161 119,-440.536 119,-425 119,-425 119,-425 119,-193.5 119,-153.635 165.811,-130.673 198.359,-119.526"/>
<polygon fill="#9a32cd" stroke="#9a32cd" points="115.5,-471.169 119,-481.169 122.5,-471.169 115.5,-471.169"/>
<text text-anchor="middle" x="127" y="-315.5" font-family="Helvetica,sans-Serif" font-size="10.00"> log</text>
</g>
<!-- Node4 -->
<g id="node4" class="node"><title>Node4</title>
<g id="a_node4"><a xlink:href="../../d7/dc5/class_mouse.html" target="_top" xlink:title=" ">
<polygon fill="white" stroke="black" points="206,-269.5 206,-288.5 252,-288.5 252,-269.5 206,-269.5"/>
<text text-anchor="middle" x="229" y="-276.5" font-family="Helvetica,sans-Serif" font-size="10.00">Mouse</text>
</a>
</g>
</g>
<!-- Node4&#45;&gt;Node2 -->
<g id="edge3" class="edge"><title>Node4&#45;&gt;Node2</title>
<path fill="none" stroke="#9a32cd" stroke-dasharray="5,2" d="M201.964,-265.032C166.477,-248.011 105.158,-218.599 74.9203,-204.095"/>
<polygon fill="#9a32cd" stroke="#9a32cd" points="200.711,-268.313 211.241,-269.482 203.738,-262.001 200.711,-268.313"/>
<text text-anchor="middle" x="185.5" y="-243" font-family="Helvetica,sans-Serif" font-size="10.00"> mouse</text>
</g>
<!-- Node8 -->
<g id="node8" class="node"><title>Node8</title>
<g id="a_node8"><a xlink:href="../../dc/d12/class_application_1_1_game_window_handler.html" target="_top" xlink:title=" ">
<polygon fill="white" stroke="black" points="147,-185 147,-204 311,-204 311,-185 147,-185"/>
<text text-anchor="middle" x="229" y="-192" font-family="Helvetica,sans-Serif" font-size="10.00">Application::GameWindowHandler</text>
</a>
</g>
</g>
<!-- Node4&#45;&gt;Node8 -->
<g id="edge10" class="edge"><title>Node4&#45;&gt;Node8</title>
<path fill="none" stroke="#9a32cd" stroke-dasharray="5,2" d="M229,-259.433C229,-242.134 229,-217.111 229,-204.095"/>
<polygon fill="#9a32cd" stroke="#9a32cd" points="225.5,-259.482 229,-269.482 232.5,-259.482 225.5,-259.482"/>
<text text-anchor="middle" x="245.5" y="-243" font-family="Helvetica,sans-Serif" font-size="10.00"> mouse</text>
</g>
<!-- Node5 -->
<g id="node5" class="node"><title>Node5</title>
<g id="a_node5"><a xlink:href="../../de/d73/class_image.html" target="_top" xlink:title=" ">
<polygon fill="white" stroke="black" points="284.5,-347.5 284.5,-366.5 327.5,-366.5 327.5,-347.5 284.5,-347.5"/>
<text text-anchor="middle" x="306" y="-354.5" font-family="Helvetica,sans-Serif" font-size="10.00">Image</text>
</a>
</g>
</g>
<!-- Node5&#45;&gt;Node1 -->
<g id="edge12" class="edge"><title>Node5&#45;&gt;Node1</title>
<path fill="none" stroke="#9a32cd" stroke-dasharray="5,2" d="M337.347,-349.016C370.481,-339.567 418,-319.184 418,-280 418,-280 418,-280 418,-109 418,-54.2734 246.503,-27.3056 153.05,-16.6729"/>
<polygon fill="#9a32cd" stroke="#9a32cd" points="336.361,-345.657 327.595,-351.607 338.158,-352.422 336.361,-345.657"/>
<text text-anchor="middle" x="471" y="-214" font-family="Helvetica,sans-Serif" font-size="10.00"> ui_mainmenu_new</text>
<text text-anchor="middle" x="471" y="-203" font-family="Helvetica,sans-Serif" font-size="10.00">main_menu_background</text>
<text text-anchor="middle" x="471" y="-192" font-family="Helvetica,sans-Serif" font-size="10.00">ui_mainmenu_exit</text>
<text text-anchor="middle" x="471" y="-181" font-family="Helvetica,sans-Serif" font-size="10.00">ui_mainmenu_load</text>
<text text-anchor="middle" x="471" y="-170" font-family="Helvetica,sans-Serif" font-size="10.00">ui_mainmenu_credits</text>
</g>
<!-- Node5&#45;&gt;Node4 -->
<g id="edge4" class="edge"><title>Node5&#45;&gt;Node4</title>
<path fill="none" stroke="#9a32cd" stroke-dasharray="5,2" d="M301.084,-337.537C297.648,-327.511 292.185,-315.471 284,-307 275.278,-297.973 262.911,-291.532 252.113,-287.21"/>
<polygon fill="#9a32cd" stroke="#9a32cd" points="297.808,-338.798 304.048,-347.361 304.51,-336.776 297.808,-338.798"/>
<text text-anchor="middle" x="325.5" y="-321" font-family="Helvetica,sans-Serif" font-size="10.00"> cursor_img</text>
<text text-anchor="middle" x="325.5" y="-310" font-family="Helvetica,sans-Serif" font-size="10.00">pPickedItem</text>
</g>
<!-- Node6&#45;&gt;Node5 -->
<g id="edge5" class="edge"><title>Node6&#45;&gt;Node5</title>
<path fill="none" stroke="#9a32cd" stroke-dasharray="5,2" d="M234.637,-408.42C252.825,-395.569 278.708,-377.282 293.789,-366.627"/>
<polygon fill="#9a32cd" stroke="#9a32cd" points="232.555,-405.605 226.408,-414.234 236.594,-411.322 232.555,-405.605"/>
<text text-anchor="middle" x="281" y="-388" font-family="Helvetica,sans-Serif" font-size="10.00"> loader</text>
</g>
<!-- Node7&#45;&gt;Node4 -->
<g id="edge7" class="edge"><title>Node7&#45;&gt;Node4</title>
<path fill="none" stroke="#9a32cd" stroke-dasharray="5,2" d="M271.104,-123.241C280.482,-127.087 290.004,-131.954 298,-138 310.905,-147.757 314.842,-151.666 320,-167 327.794,-190.169 331.924,-200.661 320,-222 305.612,-247.748 273.993,-263.115 252.097,-271.063"/>
<polygon fill="#9a32cd" stroke="#9a32cd" points="272.045,-119.856 261.454,-119.597 269.572,-126.404 272.045,-119.856"/>
<text text-anchor="middle" x="345.5" y="-192" font-family="Helvetica,sans-Serif" font-size="10.00"> window</text>
</g>
<!-- Node8&#45;&gt;Node7 -->
<g id="edge9" class="edge"><title>Node8&#45;&gt;Node7</title>
<path fill="none" stroke="#9a32cd" stroke-dasharray="5,2" d="M229,-174.933C229,-157.634 229,-132.611 229,-119.595"/>
<polygon fill="#9a32cd" stroke="#9a32cd" points="225.5,-174.982 229,-184.982 232.5,-174.982 225.5,-174.982"/>
<text text-anchor="middle" x="261.5" y="-141" font-family="Helvetica,sans-Serif" font-size="10.00"> gameCallback</text>
</g>
<!-- Node9 -->
<g id="node9" class="node"><title>Node9</title>
<g id="a_node9"><a xlink:href="../../d8/dc8/struct_point.html" target="_top" xlink:title=" ">
<polygon fill="white" stroke="black" points="178.5,-347.5 178.5,-366.5 217.5,-366.5 217.5,-347.5 178.5,-347.5"/>
<text text-anchor="middle" x="198" y="-354.5" font-family="Helvetica,sans-Serif" font-size="10.00">Point</text>
</a>
</g>
</g>
<!-- Node9&#45;&gt;Node4 -->
<g id="edge11" class="edge"><title>Node9&#45;&gt;Node4</title>
<path fill="none" stroke="#9a32cd" stroke-dasharray="5,2" d="M194.962,-337.244C194.26,-327.773 194.724,-316.342 199,-307 202.441,-299.482 209.083,-293.158 215.245,-288.524"/>
<polygon fill="#9a32cd" stroke="#9a32cd" points="191.493,-337.709 196.165,-347.218 198.443,-336.871 191.493,-337.709"/>
<text text-anchor="middle" x="241.5" y="-315.5" font-family="Helvetica,sans-Serif" font-size="10.00"> pCursorBitmapPos</text>
</g>
<!-- Node10&#45;&gt;Node1 -->
<g id="edge13" class="edge"><title>Node10&#45;&gt;Node1</title>
<path fill="none" stroke="#9a32cd" stroke-dasharray="5,2" d="M24.5506,-90.364C20.4756,-75.0047 17.7075,-53.3311 28,-38 33.7274,-29.4688 42.6788,-23.6314 52.1614,-19.6377"/>
<polygon fill="#9a32cd" stroke="#9a32cd" points="21.304,-91.7156 27.5807,-100.251 27.9968,-89.6643 21.304,-91.7156"/>
<text text-anchor="middle" x="54" y="-74" font-family="Helvetica,sans-Serif" font-size="10.00"> pBtnLoad</text>
<text text-anchor="middle" x="54" y="-63" font-family="Helvetica,sans-Serif" font-size="10.00">pBtnNew</text>
<text text-anchor="middle" x="54" y="-52" font-family="Helvetica,sans-Serif" font-size="10.00">pBtnCredits</text>
<text text-anchor="middle" x="54" y="-41" font-family="Helvetica,sans-Serif" font-size="10.00">pBtnExit</text>
</g>
</g>
</svg>
        <g id="navigator" transform="translate(0 0)" fill="#404254">
                <rect fill="#f2f5e9" fill-opacity="0.5" stroke="#606060" stroke-width=".5" x="0" y="0" width="60" height="60"/>
                <use id="zoomplus" xlink:href="#zoomPlus" x="17" y="9" onmousedown="handleZoom(evt,'in')"/>
                <use id="zoomminus" xlink:href="#zoomMin" x="42" y="9" onmousedown="handleZoom(evt,'out')"/>
                <use id="reset" xlink:href="#resetDef" x="30" y="36" onmousedown="handleReset()"/>
                <g id="arrowUp" xlink:href="#dirArrow" transform="translate(30 24)" onmousedown="handlePan(0,-1)">
                  <use xlink:href="#rim" fill="#404040">
                        <set attributeName="fill" to="#808080" begin="arrowUp.mouseover" end="arrowUp.mouseout"/>
                  </use>
                  <path fill="none" stroke="white" stroke-width="1.5" d="M0,-3.0v7 M-2.5,-0.5L0,-3.0L2.5,-0.5"/>
                </g>
                <g id="arrowRight" xlink:href="#dirArrow" transform="rotate(90) translate(36 -43)" onmousedown="handlePan(1,0)">
                  <use xlink:href="#rim" fill="#404040">
                        <set attributeName="fill" to="#808080" begin="arrowRight.mouseover" end="arrowRight.mouseout"/>
                  </use>
                  <path fill="none" stroke="white" stroke-width="1.5" d="M0,-3.0v7 M-2.5,-0.5L0,-3.0L2.5,-0.5"/>
                </g>
                <g id="arrowDown" xlink:href="#dirArrow" transform="rotate(180) translate(-30 -48)" onmousedown="handlePan(0,1)">
                  <use xlink:href="#rim" fill="#404040">
                        <set attributeName="fill" to="#808080" begin="arrowDown.mouseover" end="arrowDown.mouseout"/>
                  </use>
                  <path fill="none" stroke="white" stroke-width="1.5" d="M0,-3.0v7 M-2.5,-0.5L0,-3.0L2.5,-0.5"/>
                </g>
                <g id="arrowLeft" xlink:href="#dirArrow" transform="rotate(270) translate(-36 17)" onmousedown="handlePan(-1,0)">
                  <use xlink:href="#rim" fill="#404040">
                        <set attributeName="fill" to="#808080" begin="arrowLeft.mouseover" end="arrowLeft.mouseout"/>
                  </use>
                  <path fill="none" stroke="white" stroke-width="1.5" d="M0,-3.0v7 M-2.5,-0.5L0,-3.0L2.5,-0.5"/>
                </g>
        </g>
        <svg viewBox="0 0 15 15" width="100%" height="30px" preserveAspectRatio="xMaxYMin meet">
         <g id="arrow_out" transform="scale(0.3 0.3)">
          <a xlink:href="class_g_u_i_window___main_menu__coll__graph_org.svg" target="_base">
           <rect id="button" ry="5" rx="5" y="6" x="6" height="38" width="38"
                fill="#f2f5e9" fill-opacity="0.5" stroke="#606060" stroke-width="1.0"/>
           <path id="arrow"
             d="M 11.500037,31.436501 C 11.940474,20.09759 22.043105,11.32322 32.158766,21.979434 L 37.068811,17.246167 C 37.068811,17.246167 37.088388,32 37.088388,32 L 22.160133,31.978069 C 22.160133,31.978069 26.997745,27.140456 26.997745,27.140456 C 18.528582,18.264221 13.291696,25.230495 11.500037,31.436501 z"
             style="fill:#404040;"/>
          </a>
         </g>
        </svg>
</svg>
