<?xml version="1.0" encoding="UTF-8" standalone="no"?>
<!DOCTYPE svg PUBLIC "-//W3C//DTD SVG 1.1//EN"
 "http://www.w3.org/Graphics/SVG/1.1/DTD/svg11.dtd">
<!-- Generated by graphviz version 2.38.0 (20140413.2041)
 -->
<!-- Title: GUIWindow_QuickReference Pages: 1 -->
<svg width="415pt" height="374pt"
 viewBox="0.00 0.00 415.00 374.00" xmlns="http://www.w3.org/2000/svg" xmlns:xlink="http://www.w3.org/1999/xlink">
<g id="graph0" class="graph" transform="scale(1 1) rotate(0) translate(4 370)">
<title>GUIWindow_QuickReference</title>
<polygon fill="white" stroke="none" points="-4,4 -4,-370 411,-370 411,4 -4,4"/>
<!-- Node1 -->
<g id="node1" class="node"><title>Node1</title>
<g id="a_node1"><a xlink:title=" ">
<polygon fill="#bfbfbf" stroke="black" points="0,-0.5 0,-19.5 142,-19.5 142,-0.5 0,-0.5"/>
<text text-anchor="middle" x="71" y="-7.5" font-family="Helvetica,sans-Serif" font-size="10.00">GUIWindow_QuickReference</text>
</a>
</g>
</g>
<!-- Node2 -->
<g id="node2" class="node"><title>Node2</title>
<g id="a_node2"><a xlink:href="../../d4/d38/class_g_u_i_window.html" target="_top" xlink:title=" ">
<polygon fill="white" stroke="black" points="37,-67.5 37,-86.5 105,-86.5 105,-67.5 37,-67.5"/>
<text text-anchor="middle" x="71" y="-74.5" font-family="Helvetica,sans-Serif" font-size="10.00">GUIWindow</text>
</a>
</g>
</g>
<!-- Node2&#45;&gt;Node1 -->
<g id="edge1" class="edge"><title>Node2&#45;&gt;Node1</title>
<path fill="none" stroke="midnightblue" d="M71,-57.037C71,-44.6703 71,-29.1198 71,-19.6273"/>
<polygon fill="midnightblue" stroke="midnightblue" points="67.5001,-57.2338 71,-67.2338 74.5001,-57.2338 67.5001,-57.2338"/>
</g>
<!-- Node3 -->
<g id="node3" class="node"><title>Node3</title>
<g id="a_node3"><a xlink:href="../../d6/d70/class_log.html" target="_top" xlink:title=" ">
<polygon fill="white" stroke="black" points="224,-346.5 224,-365.5 256,-365.5 256,-346.5 224,-346.5"/>
<text text-anchor="middle" x="240" y="-353.5" font-family="Helvetica,sans-Serif" font-size="10.00">Log</text>
</a>
</g>
</g>
<!-- Node3&#45;&gt;Node2 -->
<g id="edge2" class="edge"><title>Node3&#45;&gt;Node2</title>
<path fill="none" stroke="#9a32cd" stroke-dasharray="5,2" d="M213.706,-350.86C164.852,-342.42 65,-321.336 65,-290 65,-290 65,-290 65,-143 65,-122.828 67.9008,-99.2827 69.6684,-86.8076"/>
<polygon fill="#9a32cd" stroke="#9a32cd" points="213.41,-354.358 223.85,-352.556 214.565,-347.454 213.41,-354.358"/>
<text text-anchor="middle" x="73" y="-219.5" font-family="Helvetica,sans-Serif" font-size="10.00"> log</text>
</g>
<!-- Node6 -->
<g id="node6" class="node"><title>Node6</title>
<g id="a_node6"><a xlink:href="../../d7/d42/class_image_loader.html" target="_top" xlink:title=" ">
<polygon fill="white" stroke="black" points="204,-279.5 204,-298.5 276,-298.5 276,-279.5 204,-279.5"/>
<text text-anchor="middle" x="240" y="-286.5" font-family="Helvetica,sans-Serif" font-size="10.00">ImageLoader</text>
</a>
</g>
</g>
<!-- Node3&#45;&gt;Node6 -->
<g id="edge6" class="edge"><title>Node3&#45;&gt;Node6</title>
<path fill="none" stroke="#9a32cd" stroke-dasharray="5,2" d="M240,-336.037C240,-323.67 240,-308.12 240,-298.627"/>
<polygon fill="#9a32cd" stroke="#9a32cd" points="236.5,-336.234 240,-346.234 243.5,-336.234 236.5,-336.234"/>
<text text-anchor="middle" x="248" y="-320" font-family="Helvetica,sans-Serif" font-size="10.00"> log</text>
</g>
<!-- Node7 -->
<g id="node7" class="node"><title>Node7</title>
<g id="a_node7"><a xlink:href="../../db/da4/class_o_s_window.html" target="_top" xlink:title=" ">
<polygon fill="white" stroke="black" points="248.5,-0.5 248.5,-19.5 313.5,-19.5 313.5,-0.5 248.5,-0.5"/>
<text text-anchor="middle" x="281" y="-7.5" font-family="Helvetica,sans-Serif" font-size="10.00">OSWindow</text>
</a>
</g>
</g>
<!-- Node3&#45;&gt;Node7 -->
<g id="edge8" class="edge"><title>Node3&#45;&gt;Node7</title>
<path fill="none" stroke="#9a32cd" stroke-dasharray="5,2" d="M266.259,-355.037C309.511,-353.567 391,-343.675 391,-290 391,-290 391,-290 391,-76 391,-39.7321 346.131,-23.2772 313.706,-16.121"/>
<polygon fill="#9a32cd" stroke="#9a32cd" points="266.083,-351.54 256.16,-355.251 266.232,-358.538 266.083,-351.54"/>
<text text-anchor="middle" x="399" y="-180.5" font-family="Helvetica,sans-Serif" font-size="10.00"> log</text>
</g>
<!-- Node4 -->
<g id="node4" class="node"><title>Node4</title>
<g id="a_node4"><a xlink:href="../../d7/dc5/class_mouse.html" target="_top" xlink:title=" ">
<polygon fill="white" stroke="black" points="123,-134.5 123,-153.5 169,-153.5 169,-134.5 123,-134.5"/>
<text text-anchor="middle" x="146" y="-141.5" font-family="Helvetica,sans-Serif" font-size="10.00">Mouse</text>
</a>
</g>
</g>
<!-- Node4&#45;&gt;Node2 -->
<g id="edge3" class="edge"><title>Node4&#45;&gt;Node2</title>
<path fill="none" stroke="#9a32cd" stroke-dasharray="5,2" d="M118.142,-129.531C111.502,-125.656 104.696,-121.083 99,-116 89.3397,-107.379 80.938,-94.9246 75.9212,-86.6526"/>
<polygon fill="#9a32cd" stroke="#9a32cd" points="116.522,-132.635 126.974,-134.367 119.883,-126.495 116.522,-132.635"/>
<text text-anchor="middle" x="115.5" y="-108" font-family="Helvetica,sans-Serif" font-size="10.00"> mouse</text>
</g>
<!-- Node8 -->
<g id="node8" class="node"><title>Node8</title>
<g id="a_node8"><a xlink:href="../../dc/d12/class_application_1_1_game_window_handler.html" target="_top" xlink:title=" ">
<polygon fill="white" stroke="black" points="199,-67.5 199,-86.5 363,-86.5 363,-67.5 199,-67.5"/>
<text text-anchor="middle" x="281" y="-74.5" font-family="Helvetica,sans-Serif" font-size="10.00">Application::GameWindowHandler</text>
</a>
</g>
</g>
<!-- Node4&#45;&gt;Node8 -->
<g id="edge10" class="edge"><title>Node4&#45;&gt;Node8</title>
<path fill="none" stroke="#9a32cd" stroke-dasharray="5,2" d="M173.117,-129.944C199.856,-117.069 239.966,-97.7573 262.999,-86.6672"/>
<polygon fill="#9a32cd" stroke="#9a32cd" points="171.419,-126.877 163.927,-134.369 174.455,-133.184 171.419,-126.877"/>
<text text-anchor="middle" x="238.5" y="-108" font-family="Helvetica,sans-Serif" font-size="10.00"> mouse</text>
</g>
<!-- Node5 -->
<g id="node5" class="node"><title>Node5</title>
<g id="a_node5"><a xlink:href="../../de/d73/class_image.html" target="_top" xlink:title=" ">
<polygon fill="white" stroke="black" points="218.5,-212.5 218.5,-231.5 261.5,-231.5 261.5,-212.5 218.5,-212.5"/>
<text text-anchor="middle" x="240" y="-219.5" font-family="Helvetica,sans-Serif" font-size="10.00">Image</text>
</a>
</g>
</g>
<!-- Node5&#45;&gt;Node4 -->
<g id="edge4" class="edge"><title>Node5&#45;&gt;Node4</title>
<path fill="none" stroke="#9a32cd" stroke-dasharray="5,2" d="M235.5,-202.544C232.173,-192.353 226.679,-180.147 218,-172 204.568,-159.391 184.695,-152.53 169.228,-148.885"/>
<polygon fill="#9a32cd" stroke="#9a32cd" points="232.136,-203.511 238.226,-212.181 238.872,-201.606 232.136,-203.511"/>
<text text-anchor="middle" x="260.5" y="-186" font-family="Helvetica,sans-Serif" font-size="10.00"> cursor_img</text>
<text text-anchor="middle" x="260.5" y="-175" font-family="Helvetica,sans-Serif" font-size="10.00">pPickedItem</text>
</g>
<!-- Node6&#45;&gt;Node5 -->
<g id="edge5" class="edge"><title>Node6&#45;&gt;Node5</title>
<path fill="none" stroke="#9a32cd" stroke-dasharray="5,2" d="M240,-269.037C240,-256.67 240,-241.12 240,-231.627"/>
<polygon fill="#9a32cd" stroke="#9a32cd" points="236.5,-269.234 240,-279.234 243.5,-269.234 236.5,-269.234"/>
<text text-anchor="middle" x="255" y="-253" font-family="Helvetica,sans-Serif" font-size="10.00"> loader</text>
</g>
<!-- Node7&#45;&gt;Node4 -->
<g id="edge7" class="edge"><title>Node7&#45;&gt;Node4</title>
<path fill="none" stroke="#9a32cd" stroke-dasharray="5,2" d="M238.435,-18.626C210.162,-26.0212 174.735,-40.2284 155,-67 140.179,-87.1065 142.272,-118.669 144.43,-134.018"/>
<polygon fill="#9a32cd" stroke="#9a32cd" points="239.586,-21.9486 248.485,-16.199 237.943,-15.1442 239.586,-21.9486"/>
<text text-anchor="middle" x="172.5" y="-74.5" font-family="Helvetica,sans-Serif" font-size="10.00"> window</text>
</g>
<!-- Node8&#45;&gt;Node7 -->
<g id="edge9" class="edge"><title>Node8&#45;&gt;Node7</title>
<path fill="none" stroke="#9a32cd" stroke-dasharray="5,2" d="M281,-57.037C281,-44.6703 281,-29.1198 281,-19.6273"/>
<polygon fill="#9a32cd" stroke="#9a32cd" points="277.5,-57.2338 281,-67.2338 284.5,-57.2338 277.5,-57.2338"/>
<text text-anchor="middle" x="313.5" y="-41" font-family="Helvetica,sans-Serif" font-size="10.00"> gameCallback</text>
</g>
<!-- Node9 -->
<g id="node9" class="node"><title>Node9</title>
<g id="a_node9"><a xlink:href="../../d8/dc8/struct_point.html" target="_top" xlink:title=" ">
<polygon fill="white" stroke="black" points="112.5,-212.5 112.5,-231.5 151.5,-231.5 151.5,-212.5 112.5,-212.5"/>
<text text-anchor="middle" x="132" y="-219.5" font-family="Helvetica,sans-Serif" font-size="10.00">Point</text>
</a>
</g>
</g>
<!-- Node9&#45;&gt;Node4 -->
<g id="edge11" class="edge"><title>Node9&#45;&gt;Node4</title>
<path fill="none" stroke="#9a32cd" stroke-dasharray="5,2" d="M130.524,-202.151C130.272,-192.942 130.666,-181.767 133,-172 134.548,-165.523 137.798,-158.773 140.661,-153.642"/>
<polygon fill="#9a32cd" stroke="#9a32cd" points="127.032,-202.387 131.067,-212.183 134.022,-202.009 127.032,-202.387"/>
<text text-anchor="middle" x="175.5" y="-180.5" font-family="Helvetica,sans-Serif" font-size="10.00"> pCursorBitmapPos</text>
</g>
</g>
</svg>
