<?xml version="1.0" encoding="UTF-8" standalone="no"?>
<!DOCTYPE svg PUBLIC "-//W3C//DTD SVG 1.1//EN"
 "http://www.w3.org/Graphics/SVG/1.1/DTD/svg11.dtd">
<!-- Generated by graphviz version 2.38.0 (20140413.2041)
 -->
<!-- Title: av_malloc Pages: 1 -->
<svg width="220pt" height="78pt"
 viewBox="0.00 0.00 220.00 77.50" xmlns="http://www.w3.org/2000/svg" xmlns:xlink="http://www.w3.org/1999/xlink">
<g id="graph0" class="graph" transform="scale(1 1) rotate(0) translate(4 73.5)">
<title>av_malloc</title>
<polygon fill="white" stroke="none" points="-4,4 -4,-73.5 216,-73.5 216,4 -4,4"/>
<!-- Node1 -->
<g id="node1" class="node"><title>Node1</title>
<g id="a_node1"><a xlink:title=" ">
<polygon fill="#bfbfbf" stroke="black" points="153,-28 153,-47 212,-47 212,-28 153,-28"/>
<text text-anchor="middle" x="182.5" y="-35" font-family="Helvetica,sans-Serif" font-size="10.00">av_malloc</text>
</a>
</g>
</g>
<!-- Node2 -->
<g id="node2" class="node"><title>Node2</title>
<g id="a_node2"><a xlink:href="../../de/d14/class_movie.html#ae528f4eacffa4317dd6404768ff563dc" target="_top" xlink:title=" ">
<polygon fill="white" stroke="black" points="3.5,-50 3.5,-69 113.5,-69 113.5,-50 3.5,-50"/>
<text text-anchor="middle" x="58.5" y="-57" font-family="Helvetica,sans-Serif" font-size="10.00">Movie::LoadFromLOD</text>
</a>
</g>
</g>
<!-- Node1&#45;&gt;Node2 -->
<g id="edge1" class="edge"><title>Node1&#45;&gt;Node2</title>
<path fill="none" stroke="midnightblue" d="M142.791,-44.4803C133.112,-46.2256 122.566,-48.1274 112.332,-49.9729"/>
<polygon fill="midnightblue" stroke="midnightblue" points="143.676,-47.8772 152.896,-42.658 142.434,-40.9883 143.676,-47.8772"/>
</g>
<!-- Node3 -->
<g id="node3" class="node"><title>Node3</title>
<g id="a_node3"><a xlink:href="../../d0/de5/class_audio_buffer_data_source.html#af3355c6bb925e3a5968e594668f8c6b6" target="_top" xlink:title=" ">
<polygon fill="white" stroke="black" points="0,-0.5 0,-30.5 117,-30.5 117,-0.5 0,-0.5"/>
<text text-anchor="start" x="8" y="-18.5" font-family="Helvetica,sans-Serif" font-size="10.00">AudioBufferDataSource</text>
<text text-anchor="middle" x="58.5" y="-7.5" font-family="Helvetica,sans-Serif" font-size="10.00">::Open</text>
</a>
</g>
</g>
<!-- Node1&#45;&gt;Node3 -->
<g id="edge2" class="edge"><title>Node1&#45;&gt;Node3</title>
<path fill="none" stroke="midnightblue" d="M142.92,-30.543C134.738,-29.0674 125.93,-27.4792 117.212,-25.9071"/>
<polygon fill="midnightblue" stroke="midnightblue" points="142.434,-34.0117 152.896,-32.342 143.676,-27.1228 142.434,-34.0117"/>
</g>
</g>
</svg>
