<?xml version="1.0" encoding="UTF-8" standalone="no"?>
<!DOCTYPE svg PUBLIC "-//W3C//DTD SVG 1.1//EN"
 "http://www.w3.org/Graphics/SVG/1.1/DTD/svg11.dtd">
<!-- Generated by graphviz version 2.38.0 (20140413.2041)
 -->
<!-- Title: GUIWindow_CharacterRecord Pages: 1 -->
<svg width="417pt" height="374pt"
 viewBox="0.00 0.00 417.00 374.00" xmlns="http://www.w3.org/2000/svg" xmlns:xlink="http://www.w3.org/1999/xlink">
<g id="graph0" class="graph" transform="scale(1 1) rotate(0) translate(4 370)">
<title>GUIWindow_CharacterRecord</title>
<polygon fill="white" stroke="none" points="-4,4 -4,-370 413,-370 413,4 -4,4"/>
<!-- Node1 -->
<g id="node1" class="node"><title>Node1</title>
<g id="a_node1"><a xlink:title=" ">
<polygon fill="#bfbfbf" stroke="black" points="0,-0.5 0,-19.5 146,-19.5 146,-0.5 0,-0.5"/>
<text text-anchor="middle" x="73" y="-7.5" font-family="Helvetica,sans-Serif" font-size="10.00">GUIWindow_CharacterRecord</text>
</a>
</g>
</g>
<!-- Node2 -->
<g id="node2" class="node"><title>Node2</title>
<g id="a_node2"><a xlink:href="../../d4/d38/class_g_u_i_window.html" target="_top" xlink:title=" ">
<polygon fill="white" stroke="black" points="39,-67.5 39,-86.5 107,-86.5 107,-67.5 39,-67.5"/>
<text text-anchor="middle" x="73" y="-74.5" font-family="Helvetica,sans-Serif" font-size="10.00">GUIWindow</text>
</a>
</g>
</g>
<!-- Node2&#45;&gt;Node1 -->
<g id="edge1" class="edge"><title>Node2&#45;&gt;Node1</title>
<path fill="none" stroke="midnightblue" d="M73,-57.037C73,-44.6703 73,-29.1198 73,-19.6273"/>
<polygon fill="midnightblue" stroke="midnightblue" points="69.5001,-57.2338 73,-67.2338 76.5001,-57.2338 69.5001,-57.2338"/>
</g>
<!-- Node3 -->
<g id="node3" class="node"><title>Node3</title>
<g id="a_node3"><a xlink:href="../../d6/d70/class_log.html" target="_top" xlink:title=" ">
<polygon fill="white" stroke="black" points="226,-346.5 226,-365.5 258,-365.5 258,-346.5 226,-346.5"/>
<text text-anchor="middle" x="242" y="-353.5" font-family="Helvetica,sans-Serif" font-size="10.00">Log</text>
</a>
</g>
</g>
<!-- Node3&#45;&gt;Node2 -->
<g id="edge2" class="edge"><title>Node3&#45;&gt;Node2</title>
<path fill="none" stroke="#9a32cd" stroke-dasharray="5,2" d="M215.706,-350.86C166.852,-342.42 67,-321.336 67,-290 67,-290 67,-290 67,-143 67,-122.828 69.9008,-99.2827 71.6684,-86.8076"/>
<polygon fill="#9a32cd" stroke="#9a32cd" points="215.41,-354.358 225.85,-352.556 216.565,-347.454 215.41,-354.358"/>
<text text-anchor="middle" x="75" y="-219.5" font-family="Helvetica,sans-Serif" font-size="10.00"> log</text>
</g>
<!-- Node6 -->
<g id="node6" class="node"><title>Node6</title>
<g id="a_node6"><a xlink:href="../../d7/d42/class_image_loader.html" target="_top" xlink:title=" ">
<polygon fill="white" stroke="black" points="206,-279.5 206,-298.5 278,-298.5 278,-279.5 206,-279.5"/>
<text text-anchor="middle" x="242" y="-286.5" font-family="Helvetica,sans-Serif" font-size="10.00">ImageLoader</text>
</a>
</g>
</g>
<!-- Node3&#45;&gt;Node6 -->
<g id="edge6" class="edge"><title>Node3&#45;&gt;Node6</title>
<path fill="none" stroke="#9a32cd" stroke-dasharray="5,2" d="M242,-336.037C242,-323.67 242,-308.12 242,-298.627"/>
<polygon fill="#9a32cd" stroke="#9a32cd" points="238.5,-336.234 242,-346.234 245.5,-336.234 238.5,-336.234"/>
<text text-anchor="middle" x="250" y="-320" font-family="Helvetica,sans-Serif" font-size="10.00"> log</text>
</g>
<!-- Node7 -->
<g id="node7" class="node"><title>Node7</title>
<g id="a_node7"><a xlink:href="../../db/da4/class_o_s_window.html" target="_top" xlink:title=" ">
<polygon fill="white" stroke="black" points="250.5,-0.5 250.5,-19.5 315.5,-19.5 315.5,-0.5 250.5,-0.5"/>
<text text-anchor="middle" x="283" y="-7.5" font-family="Helvetica,sans-Serif" font-size="10.00">OSWindow</text>
</a>
</g>
</g>
<!-- Node3&#45;&gt;Node7 -->
<g id="edge8" class="edge"><title>Node3&#45;&gt;Node7</title>
<path fill="none" stroke="#9a32cd" stroke-dasharray="5,2" d="M268.259,-355.037C311.511,-353.567 393,-343.675 393,-290 393,-290 393,-290 393,-76 393,-39.7321 348.131,-23.2772 315.706,-16.121"/>
<polygon fill="#9a32cd" stroke="#9a32cd" points="268.083,-351.54 258.16,-355.251 268.232,-358.538 268.083,-351.54"/>
<text text-anchor="middle" x="401" y="-180.5" font-family="Helvetica,sans-Serif" font-size="10.00"> log</text>
</g>
<!-- Node4 -->
<g id="node4" class="node"><title>Node4</title>
<g id="a_node4"><a xlink:href="../../d7/dc5/class_mouse.html" target="_top" xlink:title=" ">
<polygon fill="white" stroke="black" points="125,-134.5 125,-153.5 171,-153.5 171,-134.5 125,-134.5"/>
<text text-anchor="middle" x="148" y="-141.5" font-family="Helvetica,sans-Serif" font-size="10.00">Mouse</text>
</a>
</g>
</g>
<!-- Node4&#45;&gt;Node2 -->
<g id="edge3" class="edge"><title>Node4&#45;&gt;Node2</title>
<path fill="none" stroke="#9a32cd" stroke-dasharray="5,2" d="M120.142,-129.531C113.502,-125.656 106.696,-121.083 101,-116 91.3397,-107.379 82.938,-94.9246 77.9212,-86.6526"/>
<polygon fill="#9a32cd" stroke="#9a32cd" points="118.522,-132.635 128.974,-134.367 121.883,-126.495 118.522,-132.635"/>
<text text-anchor="middle" x="117.5" y="-108" font-family="Helvetica,sans-Serif" font-size="10.00"> mouse</text>
</g>
<!-- Node8 -->
<g id="node8" class="node"><title>Node8</title>
<g id="a_node8"><a xlink:href="../../dc/d12/class_application_1_1_game_window_handler.html" target="_top" xlink:title=" ">
<polygon fill="white" stroke="black" points="201,-67.5 201,-86.5 365,-86.5 365,-67.5 201,-67.5"/>
<text text-anchor="middle" x="283" y="-74.5" font-family="Helvetica,sans-Serif" font-size="10.00">Application::GameWindowHandler</text>
</a>
</g>
</g>
<!-- Node4&#45;&gt;Node8 -->
<g id="edge10" class="edge"><title>Node4&#45;&gt;Node8</title>
<path fill="none" stroke="#9a32cd" stroke-dasharray="5,2" d="M175.117,-129.944C201.856,-117.069 241.966,-97.7573 264.999,-86.6672"/>
<polygon fill="#9a32cd" stroke="#9a32cd" points="173.419,-126.877 165.927,-134.369 176.455,-133.184 173.419,-126.877"/>
<text text-anchor="middle" x="240.5" y="-108" font-family="Helvetica,sans-Serif" font-size="10.00"> mouse</text>
</g>
<!-- Node5 -->
<g id="node5" class="node"><title>Node5</title>
<g id="a_node5"><a xlink:href="../../de/d73/class_image.html" target="_top" xlink:title=" ">
<polygon fill="white" stroke="black" points="220.5,-212.5 220.5,-231.5 263.5,-231.5 263.5,-212.5 220.5,-212.5"/>
<text text-anchor="middle" x="242" y="-219.5" font-family="Helvetica,sans-Serif" font-size="10.00">Image</text>
</a>
</g>
</g>
<!-- Node5&#45;&gt;Node4 -->
<g id="edge4" class="edge"><title>Node5&#45;&gt;Node4</title>
<path fill="none" stroke="#9a32cd" stroke-dasharray="5,2" d="M237.5,-202.544C234.173,-192.353 228.679,-180.147 220,-172 206.568,-159.391 186.695,-152.53 171.228,-148.885"/>
<polygon fill="#9a32cd" stroke="#9a32cd" points="234.136,-203.511 240.226,-212.181 240.872,-201.606 234.136,-203.511"/>
<text text-anchor="middle" x="262.5" y="-186" font-family="Helvetica,sans-Serif" font-size="10.00"> cursor_img</text>
<text text-anchor="middle" x="262.5" y="-175" font-family="Helvetica,sans-Serif" font-size="10.00">pPickedItem</text>
</g>
<!-- Node6&#45;&gt;Node5 -->
<g id="edge5" class="edge"><title>Node6&#45;&gt;Node5</title>
<path fill="none" stroke="#9a32cd" stroke-dasharray="5,2" d="M242,-269.037C242,-256.67 242,-241.12 242,-231.627"/>
<polygon fill="#9a32cd" stroke="#9a32cd" points="238.5,-269.234 242,-279.234 245.5,-269.234 238.5,-269.234"/>
<text text-anchor="middle" x="257" y="-253" font-family="Helvetica,sans-Serif" font-size="10.00"> loader</text>
</g>
<!-- Node7&#45;&gt;Node4 -->
<g id="edge7" class="edge"><title>Node7&#45;&gt;Node4</title>
<path fill="none" stroke="#9a32cd" stroke-dasharray="5,2" d="M240.435,-18.626C212.162,-26.0212 176.735,-40.2284 157,-67 142.179,-87.1065 144.272,-118.669 146.43,-134.018"/>
<polygon fill="#9a32cd" stroke="#9a32cd" points="241.586,-21.9486 250.485,-16.199 239.943,-15.1442 241.586,-21.9486"/>
<text text-anchor="middle" x="174.5" y="-74.5" font-family="Helvetica,sans-Serif" font-size="10.00"> window</text>
</g>
<!-- Node8&#45;&gt;Node7 -->
<g id="edge9" class="edge"><title>Node8&#45;&gt;Node7</title>
<path fill="none" stroke="#9a32cd" stroke-dasharray="5,2" d="M283,-57.037C283,-44.6703 283,-29.1198 283,-19.6273"/>
<polygon fill="#9a32cd" stroke="#9a32cd" points="279.5,-57.2338 283,-67.2338 286.5,-57.2338 279.5,-57.2338"/>
<text text-anchor="middle" x="315.5" y="-41" font-family="Helvetica,sans-Serif" font-size="10.00"> gameCallback</text>
</g>
<!-- Node9 -->
<g id="node9" class="node"><title>Node9</title>
<g id="a_node9"><a xlink:href="../../d8/dc8/struct_point.html" target="_top" xlink:title=" ">
<polygon fill="white" stroke="black" points="114.5,-212.5 114.5,-231.5 153.5,-231.5 153.5,-212.5 114.5,-212.5"/>
<text text-anchor="middle" x="134" y="-219.5" font-family="Helvetica,sans-Serif" font-size="10.00">Point</text>
</a>
</g>
</g>
<!-- Node9&#45;&gt;Node4 -->
<g id="edge11" class="edge"><title>Node9&#45;&gt;Node4</title>
<path fill="none" stroke="#9a32cd" stroke-dasharray="5,2" d="M132.524,-202.151C132.272,-192.942 132.666,-181.767 135,-172 136.548,-165.523 139.798,-158.773 142.661,-153.642"/>
<polygon fill="#9a32cd" stroke="#9a32cd" points="129.032,-202.387 133.067,-212.183 136.022,-202.009 129.032,-202.387"/>
<text text-anchor="middle" x="177.5" y="-180.5" font-family="Helvetica,sans-Serif" font-size="10.00"> pCursorBitmapPos</text>
</g>
</g>
</svg>
