<?xml version="1.0" encoding="UTF-8" standalone="no"?>
<!DOCTYPE svg PUBLIC "-//W3C//DTD SVG 1.1//EN"
 "http://www.w3.org/Graphics/SVG/1.1/DTD/svg11.dtd">
<!-- Generated by graphviz version 2.38.0 (20140413.2041)
 -->
<!-- Title: BspRenderer_stru0 Pages: 1 -->
<svg width="421pt" height="173pt"
 viewBox="0.00 0.00 421.00 173.00" xmlns="http://www.w3.org/2000/svg" xmlns:xlink="http://www.w3.org/1999/xlink">
<g id="graph0" class="graph" transform="scale(1 1) rotate(0) translate(4 169)">
<title>BspRenderer_stru0</title>
<polygon fill="white" stroke="none" points="-4,4 -4,-169 417,-169 417,4 -4,4"/>
<!-- Node1 -->
<g id="node1" class="node"><title>Node1</title>
<g id="a_node1"><a xlink:title=" ">
<polygon fill="#bfbfbf" stroke="black" points="137.5,-0.5 137.5,-19.5 237.5,-19.5 237.5,-0.5 137.5,-0.5"/>
<text text-anchor="middle" x="187.5" y="-7.5" font-family="Helvetica,sans-Serif" font-size="10.00">BspRenderer_stru0</text>
</a>
</g>
</g>
<!-- Node2 -->
<g id="node2" class="node"><title>Node2</title>
<g id="a_node2"><a xlink:href="../../da/d76/struct_indoor_camera_d3_d___vec4.html" target="_top" xlink:title=" ">
<polygon fill="white" stroke="black" points="0,-67.5 0,-86.5 123,-86.5 123,-67.5 0,-67.5"/>
<text text-anchor="middle" x="61.5" y="-74.5" font-family="Helvetica,sans-Serif" font-size="10.00">IndoorCameraD3D_Vec4</text>
</a>
</g>
</g>
<!-- Node2&#45;&gt;Node1 -->
<g id="edge1" class="edge"><title>Node2&#45;&gt;Node1</title>
<path fill="none" stroke="#9a32cd" stroke-dasharray="5,2" d="M71.1507,-58.7732C76.0694,-51.4068 82.6726,-43.3001 90.5,-38 104.395,-28.5911 121.51,-22.442 137.475,-18.431"/>
<polygon fill="#9a32cd" stroke="#9a32cd" points="68.0819,-57.0829 65.8557,-67.4412 74.0556,-60.7319 68.0819,-57.0829"/>
<text text-anchor="middle" x="137" y="-41" font-family="Helvetica,sans-Serif" font-size="10.00"> std__vector_0007AC</text>
</g>
<!-- Node3 -->
<g id="node3" class="node"><title>Node3</title>
<g id="a_node3"><a xlink:href="../../d8/deb/struct_indoor_camera_d3_d___vec3.html" target="_top" xlink:title=" ">
<polygon fill="white" stroke="black" points="0,-145.5 0,-164.5 123,-164.5 123,-145.5 0,-145.5"/>
<text text-anchor="middle" x="61.5" y="-152.5" font-family="Helvetica,sans-Serif" font-size="10.00">IndoorCameraD3D_Vec3</text>
</a>
</g>
</g>
<!-- Node3&#45;&gt;Node2 -->
<g id="edge2" class="edge"><title>Node3&#45;&gt;Node2</title>
<path fill="none" stroke="midnightblue" d="M61.5,-135.224C61.5,-119.697 61.5,-98.3582 61.5,-86.6165"/>
<polygon fill="midnightblue" stroke="midnightblue" points="58.0001,-135.282 61.5,-145.282 65.0001,-135.282 58.0001,-135.282"/>
</g>
<!-- Node4 -->
<g id="node4" class="node"><title>Node4</title>
<g id="a_node4"><a xlink:href="../../db/d1a/struct_render_vertex_soft.html" target="_top" xlink:title=" ">
<polygon fill="white" stroke="black" points="141,-67.5 141,-86.5 234,-86.5 234,-67.5 141,-67.5"/>
<text text-anchor="middle" x="187.5" y="-74.5" font-family="Helvetica,sans-Serif" font-size="10.00">RenderVertexSoft</text>
</a>
</g>
</g>
<!-- Node4&#45;&gt;Node1 -->
<g id="edge3" class="edge"><title>Node4&#45;&gt;Node1</title>
<path fill="none" stroke="#9a32cd" stroke-dasharray="5,2" d="M187.5,-57.037C187.5,-44.6703 187.5,-29.1198 187.5,-19.6273"/>
<polygon fill="#9a32cd" stroke="#9a32cd" points="184,-57.2338 187.5,-67.2338 191,-57.2338 184,-57.2338"/>
<text text-anchor="middle" x="225" y="-41" font-family="Helvetica,sans-Serif" font-size="10.00"> pPortalBounding</text>
</g>
<!-- Node5 -->
<g id="node5" class="node"><title>Node5</title>
<g id="a_node5"><a xlink:href="../../d5/d06/struct_vec3__float__.html" target="_top" xlink:title=" ">
<polygon fill="white" stroke="black" points="153.5,-145.5 153.5,-164.5 221.5,-164.5 221.5,-145.5 153.5,-145.5"/>
<text text-anchor="middle" x="187.5" y="-152.5" font-family="Helvetica,sans-Serif" font-size="10.00">Vec3_float_</text>
</a>
</g>
</g>
<!-- Node5&#45;&gt;Node4 -->
<g id="edge4" class="edge"><title>Node5&#45;&gt;Node4</title>
<path fill="none" stroke="#9a32cd" stroke-dasharray="5,2" d="M187.5,-135.224C187.5,-119.697 187.5,-98.3582 187.5,-86.6165"/>
<polygon fill="#9a32cd" stroke="#9a32cd" points="184,-135.282 187.5,-145.282 191,-135.282 184,-135.282"/>
<text text-anchor="middle" x="232" y="-119" font-family="Helvetica,sans-Serif" font-size="10.00"> vWorldViewPosition</text>
<text text-anchor="middle" x="232" y="-108" font-family="Helvetica,sans-Serif" font-size="10.00">vWorldPosition</text>
</g>
<!-- Node6 -->
<g id="node6" class="node"><title>Node6</title>
<g id="a_node6"><a xlink:href="../../df/d62/struct_bsp_renderer___portal_viewport_data.html" target="_top" xlink:title=" ">
<polygon fill="white" stroke="black" points="252,-67.5 252,-86.5 413,-86.5 413,-67.5 252,-67.5"/>
<text text-anchor="middle" x="332.5" y="-74.5" font-family="Helvetica,sans-Serif" font-size="10.00">BspRenderer_PortalViewportData</text>
</a>
</g>
</g>
<!-- Node6&#45;&gt;Node1 -->
<g id="edge5" class="edge"><title>Node6&#45;&gt;Node1</title>
<path fill="none" stroke="#9a32cd" stroke-dasharray="5,2" d="M310.436,-61.8618C297.873,-54.1813 281.66,-44.8771 266.5,-38 250.528,-30.7549 232.006,-24.3268 216.912,-19.5619"/>
<polygon fill="#9a32cd" stroke="#9a32cd" points="308.914,-65.0373 319.253,-67.3515 312.614,-59.0949 308.914,-65.0373"/>
<text text-anchor="middle" x="327.5" y="-41" font-family="Helvetica,sans-Serif" font-size="10.00"> PortalScreenData</text>
</g>
</g>
</svg>
