<?xml version="1.0" encoding="UTF-8" standalone="no"?>
<!DOCTYPE svg PUBLIC "-//W3C//DTD SVG 1.1//EN"
 "http://www.w3.org/Graphics/SVG/1.1/DTD/svg11.dtd">
<!-- Generated by graphviz version 2.38.0 (20140413.2041)
 -->
<!-- Title: Engine_::IocContainer::ResolveVis Pages: 1 -->
<svg width="1668pt" height="539pt"
 viewBox="0.00 0.00 1668.00 539.00" xmlns="http://www.w3.org/2000/svg" xmlns:xlink="http://www.w3.org/1999/xlink">
<g id="graph0" class="graph" transform="scale(1 1) rotate(0) translate(4 535)">
<title>Engine_::IocContainer::ResolveVis</title>
<polygon fill="white" stroke="none" points="-4,4 -4,-535 1664,-535 1664,4 -4,4"/>
<!-- Node1 -->
<g id="node1" class="node"><title>Node1</title>
<g id="a_node1"><a xlink:title=" ">
<polygon fill="#bfbfbf" stroke="black" points="1548,-133.5 1548,-163.5 1660,-163.5 1660,-133.5 1548,-133.5"/>
<text text-anchor="start" x="1556" y="-151.5" font-family="Helvetica,sans-Serif" font-size="10.00">Engine_::IocContainer</text>
<text text-anchor="middle" x="1604" y="-140.5" font-family="Helvetica,sans-Serif" font-size="10.00">::ResolveVis</text>
</a>
</g>
</g>
<!-- Node2 -->
<g id="node2" class="node"><title>Node2</title>
<g id="a_node2"><a xlink:href="../../d6/d83/struct_engine.html#a8c98683b0a3aa28d8ab72a8bcd0d52f2" target="_top" xlink:title=" ">
<polygon fill="white" stroke="black" points="1397.5,-272 1397.5,-291 1480.5,-291 1480.5,-272 1397.5,-272"/>
<text text-anchor="middle" x="1439" y="-279" font-family="Helvetica,sans-Serif" font-size="10.00">Engine::Engine</text>
</a>
</g>
</g>
<!-- Node1&#45;&gt;Node2 -->
<g id="edge1" class="edge"><title>Node1&#45;&gt;Node2</title>
<path fill="none" stroke="midnightblue" d="M1590.13,-172.515C1574.91,-198.598 1547.15,-239.595 1512,-262.5 1502.69,-268.57 1491.5,-272.706 1480.76,-275.523"/>
<polygon fill="midnightblue" stroke="midnightblue" points="1593.27,-174.066 1595.16,-163.641 1587.18,-170.614 1593.27,-174.066"/>
</g>
<!-- Node3 -->
<g id="node3" class="node"><title>Node3</title>
<g id="a_node3"><a xlink:href="../../d4/d06/class_application_1_1_game.html#abceeabaa240dca2a28a247339010f3cb" target="_top" xlink:title=" ">
<polygon fill="white" stroke="black" points="1374.5,-234 1374.5,-253 1503.5,-253 1503.5,-234 1374.5,-234"/>
<text text-anchor="middle" x="1439" y="-241" font-family="Helvetica,sans-Serif" font-size="10.00">Application::Game::Game</text>
</a>
</g>
</g>
<!-- Node1&#45;&gt;Node3 -->
<g id="edge2" class="edge"><title>Node1&#45;&gt;Node3</title>
<path fill="none" stroke="midnightblue" d="M1581.71,-171.006C1564.43,-188.023 1538.64,-210.734 1512,-224.5 1504.53,-228.357 1496.22,-231.481 1487.96,-233.994"/>
<polygon fill="midnightblue" stroke="midnightblue" points="1584.46,-173.203 1589.02,-163.64 1579.5,-168.271 1584.46,-173.203"/>
</g>
<!-- Node4 -->
<g id="node4" class="node"><title>Node4</title>
<g id="a_node4"><a xlink:href="../../d5/d09/_u_i_game_8h.html#a19b0f805a3fa3ae0a2fbde27e8df406a" target="_top" xlink:title=" ">
<polygon fill="white" stroke="black" points="788,-210.5 788,-240.5 930,-240.5 930,-210.5 788,-210.5"/>
<text text-anchor="start" x="796" y="-228.5" font-family="Helvetica,sans-Serif" font-size="10.00">GameUI_WritePointedObject</text>
<text text-anchor="middle" x="859" y="-217.5" font-family="Helvetica,sans-Serif" font-size="10.00">StatusString</text>
</a>
</g>
</g>
<!-- Node1&#45;&gt;Node4 -->
<g id="edge3" class="edge"><title>Node1&#45;&gt;Node4</title>
<path fill="none" stroke="midnightblue" d="M1537.67,-155.271C1398.46,-169.697 1073.68,-203.355 930.239,-218.221"/>
<polygon fill="midnightblue" stroke="midnightblue" points="1538.18,-158.737 1547.76,-154.225 1537.45,-151.774 1538.18,-158.737"/>
</g>
<!-- Node10 -->
<g id="node10" class="node"><title>Node10</title>
<g id="a_node10"><a xlink:href="../../d9/d20/class_i_render.html#ac810c04b6735c88caa2045611686c567" target="_top" xlink:title=" ">
<polygon fill="white" stroke="black" points="1394.5,-82 1394.5,-101 1483.5,-101 1483.5,-82 1394.5,-82"/>
<text text-anchor="middle" x="1439" y="-89" font-family="Helvetica,sans-Serif" font-size="10.00">IRender::IRender</text>
</a>
</g>
</g>
<!-- Node1&#45;&gt;Node10 -->
<g id="edge10" class="edge"><title>Node1&#45;&gt;Node10</title>
<path fill="none" stroke="midnightblue" d="M1552.87,-130.055C1539.61,-125.248 1525.28,-120.121 1512,-115.5 1497.94,-110.607 1482.26,-105.358 1469.14,-101.02"/>
<polygon fill="midnightblue" stroke="midnightblue" points="1551.72,-133.36 1562.31,-133.488 1554.11,-126.781 1551.72,-133.36"/>
</g>
<!-- Node11 -->
<g id="node11" class="node"><title>Node11</title>
<g id="a_node11"><a xlink:href="../../de/dcf/_engine_8h.html#a287d13406d42b0831d9eb7a64d368202" target="_top" xlink:title=" ">
<polygon fill="white" stroke="black" points="821,-122 821,-141 897,-141 897,-122 821,-122"/>
<text text-anchor="middle" x="859" y="-129" font-family="Helvetica,sans-Serif" font-size="10.00">PrepareWorld</text>
</a>
</g>
</g>
<!-- Node1&#45;&gt;Node11 -->
<g id="edge11" class="edge"><title>Node1&#45;&gt;Node11</title>
<path fill="none" stroke="midnightblue" d="M1537.69,-147.006C1386.51,-143.547 1016.3,-135.076 897.412,-132.356"/>
<polygon fill="midnightblue" stroke="midnightblue" points="1537.68,-150.506 1547.76,-147.236 1537.84,-143.508 1537.68,-150.506"/>
</g>
<!-- Node12 -->
<g id="node12" class="node"><title>Node12</title>
<g id="a_node12"><a xlink:href="../../db/d28/structstru319.html#a75b8f4d17463b2049969ba05d0b5712e" target="_top" xlink:title=" ">
<polygon fill="white" stroke="black" points="1395.5,-44 1395.5,-63 1482.5,-63 1482.5,-44 1395.5,-44"/>
<text text-anchor="middle" x="1439" y="-51" font-family="Helvetica,sans-Serif" font-size="10.00">stru319::stru319</text>
</a>
</g>
</g>
<!-- Node1&#45;&gt;Node12 -->
<g id="edge13" class="edge"><title>Node1&#45;&gt;Node12</title>
<path fill="none" stroke="midnightblue" d="M1581.71,-125.994C1564.43,-108.977 1538.64,-86.2656 1512,-72.5 1502.93,-67.8118 1492.6,-64.2077 1482.65,-61.4652"/>
<polygon fill="midnightblue" stroke="midnightblue" points="1579.5,-128.729 1589.02,-133.36 1584.46,-123.797 1579.5,-128.729"/>
</g>
<!-- Node13 -->
<g id="node13" class="node"><title>Node13</title>
<g id="a_node13"><a xlink:href="../../d7/dc5/class_mouse.html#ae90d9b5b37b0f4612f6225982e1da13e" target="_top" xlink:title=" ">
<polygon fill="white" stroke="black" points="1366,-6 1366,-25 1512,-25 1512,-6 1366,-6"/>
<text text-anchor="middle" x="1439" y="-13" font-family="Helvetica,sans-Serif" font-size="10.00">Mouse::UI_OnMouseLeftClick</text>
</a>
</g>
</g>
<!-- Node1&#45;&gt;Node13 -->
<g id="edge14" class="edge"><title>Node1&#45;&gt;Node13</title>
<path fill="none" stroke="midnightblue" d="M1590.13,-124.485C1574.91,-98.4017 1547.15,-57.4046 1512,-34.5 1506.04,-30.6178 1499.32,-27.5268 1492.44,-25.0661"/>
<polygon fill="midnightblue" stroke="midnightblue" points="1587.18,-126.386 1595.16,-133.359 1593.27,-122.934 1587.18,-126.386"/>
</g>
<!-- Node16 -->
<g id="node16" class="node"><title>Node16</title>
<g id="a_node16"><a xlink:href="../../d6/ded/_u_i_popup_8cpp.html#a4b9d033e0116029f628ef0c4a9a7d306" target="_top" xlink:title=" ">
<polygon fill="white" stroke="black" points="1380.5,-196 1380.5,-215 1497.5,-215 1497.5,-196 1380.5,-196"/>
<text text-anchor="middle" x="1439" y="-203" font-family="Helvetica,sans-Serif" font-size="10.00">UI_OnMouseRightClick</text>
</a>
</g>
</g>
<!-- Node1&#45;&gt;Node16 -->
<g id="edge17" class="edge"><title>Node1&#45;&gt;Node16</title>
<path fill="none" stroke="midnightblue" d="M1552.87,-166.945C1539.61,-171.752 1525.28,-176.879 1512,-181.5 1497.94,-186.393 1482.26,-191.642 1469.14,-195.98"/>
<polygon fill="midnightblue" stroke="midnightblue" points="1554.11,-170.219 1562.31,-163.512 1551.72,-163.64 1554.11,-170.219"/>
</g>
<!-- Node5 -->
<g id="node5" class="node"><title>Node5</title>
<g id="a_node5"><a xlink:href="../../d4/d06/class_application_1_1_game.html#aaa0ff18388b32b4e6198835a35e000d3" target="_top" xlink:title=" ">
<polygon fill="white" stroke="black" points="319,-254.5 319,-284.5 422,-284.5 422,-254.5 319,-254.5"/>
<text text-anchor="start" x="327" y="-272.5" font-family="Helvetica,sans-Serif" font-size="10.00">Application::Game::</text>
<text text-anchor="middle" x="370.5" y="-261.5" font-family="Helvetica,sans-Serif" font-size="10.00">GameLoop</text>
</a>
</g>
</g>
<!-- Node4&#45;&gt;Node5 -->
<g id="edge4" class="edge"><title>Node4&#45;&gt;Node5</title>
<path fill="none" stroke="midnightblue" d="M777.87,-224.085C697.296,-223.89 569.768,-226.935 461,-244.5 446.825,-246.789 431.689,-250.508 417.973,-254.386"/>
<polygon fill="midnightblue" stroke="midnightblue" points="777.931,-227.585 787.946,-224.127 777.96,-220.585 777.931,-227.585"/>
</g>
<!-- Node8 -->
<g id="node8" class="node"><title>Node8</title>
<g id="a_node8"><a xlink:href="../../df/dac/class_application_1_1_menu.html#aaf253396760ddad4b41b2db8901e97ee" target="_top" xlink:title=" ">
<polygon fill="white" stroke="black" points="642.5,-254.5 642.5,-284.5 743.5,-284.5 743.5,-254.5 642.5,-254.5"/>
<text text-anchor="start" x="650.5" y="-272.5" font-family="Helvetica,sans-Serif" font-size="10.00">Application::Menu::</text>
<text text-anchor="middle" x="693" y="-261.5" font-family="Helvetica,sans-Serif" font-size="10.00">MenuLoop</text>
</a>
</g>
</g>
<!-- Node4&#45;&gt;Node8 -->
<g id="edge7" class="edge"><title>Node4&#45;&gt;Node8</title>
<path fill="none" stroke="midnightblue" d="M792.099,-243.181C775.95,-247.514 758.932,-252.079 743.689,-256.169"/>
<polygon fill="midnightblue" stroke="midnightblue" points="793.268,-246.491 802.019,-240.519 791.454,-239.73 793.268,-246.491"/>
</g>
<!-- Node6 -->
<g id="node6" class="node"><title>Node6</title>
<g id="a_node6"><a xlink:href="../../d4/d06/class_application_1_1_game.html#a013ffd59e8fdf1c0a396da1dbe1681ca" target="_top" xlink:title=" ">
<polygon fill="white" stroke="black" points="156,-386 156,-405 280,-405 280,-386 156,-386"/>
<text text-anchor="middle" x="218" y="-393" font-family="Helvetica,sans-Serif" font-size="10.00">Application::Game::Loop</text>
</a>
</g>
</g>
<!-- Node5&#45;&gt;Node6 -->
<g id="edge5" class="edge"><title>Node5&#45;&gt;Node6</title>
<path fill="none" stroke="midnightblue" d="M343.423,-291.332C310.201,-319.146 254.23,-366.005 230.35,-385.998"/>
<polygon fill="midnightblue" stroke="midnightblue" points="345.925,-293.802 351.346,-284.699 341.432,-288.434 345.925,-293.802"/>
</g>
<!-- Node7 -->
<g id="node7" class="node"><title>Node7</title>
<g id="a_node7"><a xlink:href="../../d4/d06/class_application_1_1_game.html#a96341ca5b54d90adc3ecb3bf0bcd2312" target="_top" xlink:title=" ">
<polygon fill="white" stroke="black" points="0,-280 0,-299 120,-299 120,-280 0,-280"/>
<text text-anchor="middle" x="60" y="-287" font-family="Helvetica,sans-Serif" font-size="10.00">Application::Game::Run</text>
</a>
</g>
</g>
<!-- Node6&#45;&gt;Node7 -->
<g id="edge6" class="edge"><title>Node6&#45;&gt;Node7</title>
<path fill="none" stroke="midnightblue" d="M194.457,-380.183C161.91,-358.067 102.679,-317.82 75.4259,-299.302"/>
<polygon fill="midnightblue" stroke="midnightblue" points="192.643,-383.181 202.881,-385.906 196.577,-377.391 192.643,-383.181"/>
</g>
<!-- Node9 -->
<g id="node9" class="node"><title>Node9</title>
<g id="a_node9"><a xlink:href="../../d4/d06/class_application_1_1_game.html#a3f65e3f0ef1a9114fb3dea275e52442e" target="_top" xlink:title=" ">
<polygon fill="white" stroke="black" points="478,-254.5 478,-284.5 581,-284.5 581,-254.5 478,-254.5"/>
<text text-anchor="start" x="486" y="-272.5" font-family="Helvetica,sans-Serif" font-size="10.00">Application::Game::</text>
<text text-anchor="middle" x="529.5" y="-261.5" font-family="Helvetica,sans-Serif" font-size="10.00">EventLoop</text>
</a>
</g>
</g>
<!-- Node8&#45;&gt;Node9 -->
<g id="edge8" class="edge"><title>Node8&#45;&gt;Node9</title>
<path fill="none" stroke="midnightblue" d="M632.019,-269.5C615.315,-269.5 597.339,-269.5 581.223,-269.5"/>
<polygon fill="midnightblue" stroke="midnightblue" points="632.227,-273 642.227,-269.5 632.227,-266 632.227,-273"/>
</g>
<!-- Node9&#45;&gt;Node5 -->
<g id="edge9" class="edge"><title>Node9&#45;&gt;Node5</title>
<path fill="none" stroke="midnightblue" d="M467.721,-269.5C452.679,-269.5 436.72,-269.5 422.214,-269.5"/>
<polygon fill="midnightblue" stroke="midnightblue" points="467.96,-273 477.96,-269.5 467.96,-266 467.96,-273"/>
</g>
<!-- Node11&#45;&gt;Node5 -->
<g id="edge12" class="edge"><title>Node11&#45;&gt;Node5</title>
<path fill="none" stroke="midnightblue" d="M810.756,-133.032C764.958,-135.388 693.829,-141.362 634,-156.5 553.589,-176.845 536.864,-192.968 461,-226.5 440.976,-235.351 418.793,-246.003 401.521,-254.49"/>
<polygon fill="midnightblue" stroke="midnightblue" points="811.158,-136.516 820.98,-132.544 810.825,-129.524 811.158,-136.516"/>
</g>
<!-- Node14 -->
<g id="node14" class="node"><title>Node14</title>
<g id="a_node14"><a xlink:href="../../dc/d12/class_application_1_1_game_window_handler.html#af9a37c1601da3c213099e219685bdcd8" target="_top" xlink:title=" ">
<polygon fill="white" stroke="black" points="1166,-0.5 1166,-30.5 1330,-30.5 1330,-0.5 1166,-0.5"/>
<text text-anchor="start" x="1174" y="-18.5" font-family="Helvetica,sans-Serif" font-size="10.00">Application::GameWindowHandler</text>
<text text-anchor="middle" x="1248" y="-7.5" font-family="Helvetica,sans-Serif" font-size="10.00">::OnMouseLeftClick</text>
</a>
</g>
</g>
<!-- Node13&#45;&gt;Node14 -->
<g id="edge15" class="edge"><title>Node13&#45;&gt;Node14</title>
<path fill="none" stroke="midnightblue" d="M1355.52,-15.5C1347.07,-15.5 1338.49,-15.5 1330.05,-15.5"/>
<polygon fill="midnightblue" stroke="midnightblue" points="1355.74,-19.0001 1365.74,-15.5 1355.74,-12.0001 1355.74,-19.0001"/>
</g>
<!-- Node15 -->
<g id="node15" class="node"><title>Node15</title>
<g id="a_node15"><a xlink:href="../../dc/d12/class_application_1_1_game_window_handler.html#a2df0d1231e06d8ed14b7927e0ad21637" target="_top" xlink:title=" ">
<polygon fill="white" stroke="black" points="966,-0.5 966,-30.5 1130,-30.5 1130,-0.5 966,-0.5"/>
<text text-anchor="start" x="974" y="-18.5" font-family="Helvetica,sans-Serif" font-size="10.00">Application::GameWindowHandler</text>
<text text-anchor="middle" x="1048" y="-7.5" font-family="Helvetica,sans-Serif" font-size="10.00">::OnMouseLeftDoubleClick</text>
</a>
</g>
</g>
<!-- Node14&#45;&gt;Node15 -->
<g id="edge16" class="edge"><title>Node14&#45;&gt;Node15</title>
<path fill="none" stroke="midnightblue" d="M1155.64,-15.5C1147.18,-15.5 1138.65,-15.5 1130.3,-15.5"/>
<polygon fill="midnightblue" stroke="midnightblue" points="1155.89,-19.0001 1165.89,-15.5 1155.89,-12.0001 1155.89,-19.0001"/>
</g>
<!-- Node17 -->
<g id="node17" class="node"><title>Node17</title>
<g id="a_node17"><a xlink:href="../../d5/d0b/_g_u_i_window_8h.html#a9cafb995f3f6b03139380e5fb4fee184" target="_top" xlink:title=" ">
<polygon fill="white" stroke="black" points="1193.5,-310 1193.5,-329 1302.5,-329 1302.5,-310 1193.5,-310"/>
<text text-anchor="middle" x="1248" y="-317" font-family="Helvetica,sans-Serif" font-size="10.00">GUI_UpdateWindows</text>
</a>
</g>
</g>
<!-- Node16&#45;&gt;Node17 -->
<g id="edge18" class="edge"><title>Node16&#45;&gt;Node17</title>
<path fill="none" stroke="midnightblue" d="M1380.42,-218.305C1375.44,-220.125 1370.57,-222.181 1366,-224.5 1320.51,-247.607 1276.44,-290.633 1258.01,-309.825"/>
<polygon fill="midnightblue" stroke="midnightblue" points="1381.7,-221.571 1390.08,-215.092 1379.49,-214.929 1381.7,-221.571"/>
</g>
<!-- Node26 -->
<g id="node26" class="node"><title>Node26</title>
<g id="a_node26"><a xlink:href="../../dc/d12/class_application_1_1_game_window_handler.html#ac207ffe80141c2bd50e962414d07c0c2" target="_top" xlink:title=" ">
<polygon fill="white" stroke="black" points="1166,-424.5 1166,-454.5 1330,-454.5 1330,-424.5 1166,-424.5"/>
<text text-anchor="start" x="1174" y="-442.5" font-family="Helvetica,sans-Serif" font-size="10.00">Application::GameWindowHandler</text>
<text text-anchor="middle" x="1248" y="-431.5" font-family="Helvetica,sans-Serif" font-size="10.00">::OnMouseRightClick</text>
</a>
</g>
</g>
<!-- Node16&#45;&gt;Node26 -->
<g id="edge34" class="edge"><title>Node16&#45;&gt;Node26</title>
<path fill="none" stroke="midnightblue" d="M1371.47,-220.005C1369.54,-221.375 1367.71,-222.869 1366,-224.5 1327.54,-261.161 1355.05,-291.642 1330,-338.5 1311.99,-372.198 1282.18,-405.68 1264.18,-424.372"/>
<polygon fill="midnightblue" stroke="midnightblue" points="1373.59,-222.821 1380.47,-214.765 1370.07,-216.772 1373.59,-222.821"/>
</g>
<!-- Node17&#45;&gt;Node5 -->
<g id="edge25" class="edge"><title>Node17&#45;&gt;Node5</title>
<path fill="none" stroke="midnightblue" d="M1184.57,-330.714C1166.97,-333.583 1147.77,-336.436 1130,-338.5 1010.51,-352.378 980.297,-357.5 860,-357.5 860,-357.5 860,-357.5 692,-357.5 583.232,-357.5 460.874,-309.788 403.91,-284.628"/>
<polygon fill="midnightblue" stroke="midnightblue" points="1185.43,-334.119 1194.72,-329.029 1184.29,-327.213 1185.43,-334.119"/>
</g>
<!-- Node17&#45;&gt;Node8 -->
<g id="edge30" class="edge"><title>Node17&#45;&gt;Node8</title>
<path fill="none" stroke="midnightblue" d="M1224.07,-304.417C1201.29,-290.406 1164.83,-270.533 1130,-262.5 1057.98,-245.891 842.198,-258.689 743.839,-265.699"/>
<polygon fill="midnightblue" stroke="midnightblue" points="1222.34,-307.462 1232.67,-309.828 1226.07,-301.539 1222.34,-307.462"/>
</g>
<!-- Node18 -->
<g id="node18" class="node"><title>Node18</title>
<g id="a_node18"><a xlink:href="../../dd/de7/_save_load_8h.html#a5560a432d5ca59965633a942bb26666f" target="_top" xlink:title=" ">
<polygon fill="white" stroke="black" points="1011,-310 1011,-329 1085,-329 1085,-310 1011,-310"/>
<text text-anchor="middle" x="1048" y="-317" font-family="Helvetica,sans-Serif" font-size="10.00">DoSavegame</text>
</a>
</g>
</g>
<!-- Node17&#45;&gt;Node18 -->
<g id="edge19" class="edge"><title>Node17&#45;&gt;Node18</title>
<path fill="none" stroke="midnightblue" d="M1183.11,-319.5C1150.66,-319.5 1112.43,-319.5 1085.1,-319.5"/>
<polygon fill="midnightblue" stroke="midnightblue" points="1183.42,-323 1193.42,-319.5 1183.42,-316 1183.42,-323"/>
</g>
<!-- Node20 -->
<g id="node20" class="node"><title>Node20</title>
<g id="a_node20"><a xlink:href="../../d6/d83/struct_engine.html#ac098ab29cbcd7352879d0101aaf4b827" target="_top" xlink:title=" ">
<polygon fill="white" stroke="black" points="1011,-272 1011,-291 1085,-291 1085,-272 1011,-272"/>
<text text-anchor="middle" x="1048" y="-279" font-family="Helvetica,sans-Serif" font-size="10.00">Engine::Draw</text>
</a>
</g>
</g>
<!-- Node17&#45;&gt;Node20 -->
<g id="edge22" class="edge"><title>Node17&#45;&gt;Node20</title>
<path fill="none" stroke="midnightblue" d="M1187.23,-308.029C1154.02,-301.654 1113.77,-293.931 1085.29,-288.466"/>
<polygon fill="midnightblue" stroke="midnightblue" points="1186.81,-311.512 1197.29,-309.96 1188.13,-304.638 1186.81,-311.512"/>
</g>
<!-- Node21 -->
<g id="node21" class="node"><title>Node21</title>
<g id="a_node21"><a xlink:href="../../d8/df3/class_g_u_i_credits.html#a552d14f116789f5ff5d7d58b4fd20951" target="_top" xlink:title=" ">
<polygon fill="white" stroke="black" points="461,-386 461,-405 598,-405 598,-386 461,-386"/>
<text text-anchor="middle" x="529.5" y="-393" font-family="Helvetica,sans-Serif" font-size="10.00">GUICredits::ExecuteCredits</text>
</a>
</g>
</g>
<!-- Node17&#45;&gt;Node21 -->
<g id="edge23" class="edge"><title>Node17&#45;&gt;Node21</title>
<path fill="none" stroke="midnightblue" d="M1221.87,-334.031C1198.82,-346.53 1163.3,-363.735 1130,-371.5 941.319,-415.503 710.343,-408.233 598.136,-400.968"/>
<polygon fill="midnightblue" stroke="midnightblue" points="1223.6,-337.076 1230.65,-329.17 1220.21,-330.951 1223.6,-337.076"/>
</g>
<!-- Node22 -->
<g id="node22" class="node"><title>Node22</title>
<g id="a_node22"><a xlink:href="../../d1/d86/class_g_u_i_window___main_menu.html#ad12c43bc3078a3dbdab21a148ba71b64" target="_top" xlink:title=" ">
<polygon fill="white" stroke="black" points="634,-166.5 634,-196.5 752,-196.5 752,-166.5 634,-166.5"/>
<text text-anchor="start" x="642" y="-184.5" font-family="Helvetica,sans-Serif" font-size="10.00">GUIWindow_MainMenu</text>
<text text-anchor="middle" x="693" y="-173.5" font-family="Helvetica,sans-Serif" font-size="10.00">::Loop</text>
</a>
</g>
</g>
<!-- Node17&#45;&gt;Node22 -->
<g id="edge26" class="edge"><title>Node17&#45;&gt;Node22</title>
<path fill="none" stroke="midnightblue" d="M1225.37,-304.154C1202.61,-288.638 1165.25,-264.946 1130,-250.5 1002,-198.048 837.75,-185.259 752,-182.278"/>
<polygon fill="midnightblue" stroke="midnightblue" points="1223.41,-307.053 1233.63,-309.86 1227.39,-301.294 1223.41,-307.053"/>
</g>
<!-- Node23 -->
<g id="node23" class="node"><title>Node23</title>
<g id="a_node23"><a xlink:href="../../d2/d13/_u_i_save_load_8h.html#aaed2836e89ed0ad7f832e51d42551aed" target="_top" xlink:title=" ">
<polygon fill="white" stroke="black" points="316,-462 316,-481 425,-481 425,-462 316,-462"/>
<text text-anchor="middle" x="370.5" y="-469" font-family="Helvetica,sans-Serif" font-size="10.00">MainMenuLoad_Loop</text>
</a>
</g>
</g>
<!-- Node17&#45;&gt;Node23 -->
<g id="edge28" class="edge"><title>Node17&#45;&gt;Node23</title>
<path fill="none" stroke="midnightblue" d="M1232.01,-337.247C1201.99,-372.691 1136.76,-449.15 1130,-452.5 1022.2,-505.882 980.297,-471.5 860,-471.5 860,-471.5 860,-471.5 692,-471.5 598.104,-471.5 488.733,-471.5 425.089,-471.5"/>
<polygon fill="midnightblue" stroke="midnightblue" points="1235.04,-339.084 1238.83,-329.189 1229.7,-334.563 1235.04,-339.084"/>
</g>
<!-- Node24 -->
<g id="node24" class="node"><title>Node24</title>
<g id="a_node24"><a xlink:href="../../de/da8/_u_i_party_creation_8cpp.html#a3989bc11e4d285e802baa8b00e9663ad" target="_top" xlink:title=" ">
<polygon fill="white" stroke="black" points="976.5,-424 976.5,-443 1119.5,-443 1119.5,-424 976.5,-424"/>
<text text-anchor="middle" x="1048" y="-431" font-family="Helvetica,sans-Serif" font-size="10.00">PartyCreationUI_LoopInternal</text>
</a>
</g>
</g>
<!-- Node17&#45;&gt;Node24 -->
<g id="edge31" class="edge"><title>Node17&#45;&gt;Node24</title>
<path fill="none" stroke="midnightblue" d="M1229.83,-336.041C1208.19,-356.062 1169.06,-389.564 1130,-409.5 1118.24,-415.5 1104.74,-420.248 1092.17,-423.882"/>
<polygon fill="midnightblue" stroke="midnightblue" points="1232.34,-338.483 1237.23,-329.084 1227.55,-333.382 1232.34,-338.483"/>
</g>
<!-- Node19 -->
<g id="node19" class="node"><title>Node19</title>
<g id="a_node19"><a xlink:href="../../df/dac/class_application_1_1_menu.html#aac9ec557a30f1ba7bf6746aa62f70764" target="_top" xlink:title=" ">
<polygon fill="white" stroke="black" points="808.5,-298.5 808.5,-328.5 909.5,-328.5 909.5,-298.5 808.5,-298.5"/>
<text text-anchor="start" x="816.5" y="-316.5" font-family="Helvetica,sans-Serif" font-size="10.00">Application::Menu::</text>
<text text-anchor="middle" x="859" y="-305.5" font-family="Helvetica,sans-Serif" font-size="10.00">EventLoop</text>
</a>
</g>
</g>
<!-- Node18&#45;&gt;Node19 -->
<g id="edge20" class="edge"><title>Node18&#45;&gt;Node19</title>
<path fill="none" stroke="midnightblue" d="M1000.74,-318.016C973.096,-317.129 937.972,-316.002 909.729,-315.096"/>
<polygon fill="midnightblue" stroke="midnightblue" points="1000.84,-321.521 1010.94,-318.343 1001.06,-314.524 1000.84,-321.521"/>
</g>
<!-- Node19&#45;&gt;Node8 -->
<g id="edge21" class="edge"><title>Node19&#45;&gt;Node8</title>
<path fill="none" stroke="midnightblue" d="M798.55,-297.55C780.577,-292.728 761.036,-287.485 743.764,-282.851"/>
<polygon fill="midnightblue" stroke="midnightblue" points="797.784,-300.968 808.35,-300.179 799.598,-294.207 797.784,-300.968"/>
</g>
<!-- Node21&#45;&gt;Node6 -->
<g id="edge24" class="edge"><title>Node21&#45;&gt;Node6</title>
<path fill="none" stroke="midnightblue" d="M450.951,-395.5C398.088,-395.5 329.066,-395.5 280.097,-395.5"/>
<polygon fill="midnightblue" stroke="midnightblue" points="450.961,-399 460.961,-395.5 450.961,-392 450.961,-399"/>
</g>
<!-- Node22&#45;&gt;Node7 -->
<g id="edge27" class="edge"><title>Node22&#45;&gt;Node7</title>
<path fill="none" stroke="midnightblue" d="M623.375,-192.815C547.976,-205.29 423.311,-226.042 316,-244.5 246.221,-256.503 165.782,-270.769 114.212,-279.971"/>
<polygon fill="midnightblue" stroke="midnightblue" points="624.386,-196.196 633.68,-191.111 623.243,-189.289 624.386,-196.196"/>
</g>
<!-- Node23&#45;&gt;Node6 -->
<g id="edge29" class="edge"><title>Node23&#45;&gt;Node6</title>
<path fill="none" stroke="midnightblue" d="M337.732,-457.692C330.541,-454.444 322.972,-450.927 316,-447.5 287.535,-433.507 255.2,-415.797 235.982,-405.074"/>
<polygon fill="midnightblue" stroke="midnightblue" points="336.654,-461.043 347.212,-461.921 339.506,-454.651 336.654,-461.043"/>
</g>
<!-- Node25 -->
<g id="node25" class="node"><title>Node25</title>
<g id="a_node25"><a xlink:href="../../d6/d6a/_u_i_party_creation_8h.html#ae6fe5aec2826f251f3950e95fd588d79" target="_top" xlink:title=" ">
<polygon fill="white" stroke="black" points="637.5,-424 637.5,-443 748.5,-443 748.5,-424 637.5,-424"/>
<text text-anchor="middle" x="693" y="-431" font-family="Helvetica,sans-Serif" font-size="10.00">PartyCreationUI_Loop</text>
</a>
</g>
</g>
<!-- Node24&#45;&gt;Node25 -->
<g id="edge32" class="edge"><title>Node24&#45;&gt;Node25</title>
<path fill="none" stroke="midnightblue" d="M966.361,-433.5C899.687,-433.5 806.815,-433.5 748.576,-433.5"/>
<polygon fill="midnightblue" stroke="midnightblue" points="966.414,-437 976.414,-433.5 966.414,-430 966.414,-437"/>
</g>
<!-- Node25&#45;&gt;Node6 -->
<g id="edge33" class="edge"><title>Node25&#45;&gt;Node6</title>
<path fill="none" stroke="midnightblue" d="M627.168,-430.931C552.128,-427.594 424.896,-420.816 316,-409.5 304.238,-408.278 291.713,-406.687 279.707,-405.019"/>
<polygon fill="midnightblue" stroke="midnightblue" points="627.259,-434.438 637.402,-431.379 627.565,-427.445 627.259,-434.438"/>
</g>
<!-- Node27 -->
<g id="node27" class="node"><title>Node27</title>
<g id="a_node27"><a xlink:href="../../dc/d12/class_application_1_1_game_window_handler.html#a6bfa1a3236b3cfa93d8ac526f8bdf05e" target="_top" xlink:title=" ">
<polygon fill="white" stroke="black" points="966,-500.5 966,-530.5 1130,-530.5 1130,-500.5 966,-500.5"/>
<text text-anchor="start" x="974" y="-518.5" font-family="Helvetica,sans-Serif" font-size="10.00">Application::GameWindowHandler</text>
<text text-anchor="middle" x="1048" y="-507.5" font-family="Helvetica,sans-Serif" font-size="10.00">::OnMouseRightDoubleClick</text>
</a>
</g>
</g>
<!-- Node26&#45;&gt;Node27 -->
<g id="edge35" class="edge"><title>Node26&#45;&gt;Node27</title>
<path fill="none" stroke="midnightblue" d="M1199.93,-458.254C1178.61,-466.681 1153.08,-476.691 1130,-485.5 1117.11,-490.42 1103.02,-495.678 1090.27,-500.396"/>
<polygon fill="midnightblue" stroke="midnightblue" points="1201.39,-461.439 1209.4,-454.503 1198.81,-454.931 1201.39,-461.439"/>
</g>
</g>
</svg>
