<?xml version="1.0" encoding="UTF-8" standalone="no"?>
<!DOCTYPE svg PUBLIC "-//W3C//DTD SVG 1.1//EN"
 "http://www.w3.org/Graphics/SVG/1.1/DTD/svg11.dtd">
<!-- Generated by graphviz version 2.38.0 (20140413.2041)
 -->
<!-- Title: LOD::File::DoesContainerExist Pages: 1 -->
<!--zoomable 144 -->
<svg id="main" version="1.1" xmlns="http://www.w3.org/2000/svg" xmlns:xlink="http://www.w3.org/1999/xlink" xml:space="preserve" onload="init(evt)">
<style type="text/css"><![CDATA[
.edge:hover path { stroke: red; }
.edge:hover polygon { stroke: red; fill: red; }
]]></style>
<script type="text/javascript"><![CDATA[
var edges = document.getElementsByTagName('g');
if (edges && edges.length) {
  for (var i=0;i<edges.length;i++) {
    if (edges[i].id.substr(0,4)=='edge') {
      edges[i].setAttribute('class','edge');
    }
  }
}
]]></script>
        <defs>
                <circle id="rim" cx="0" cy="0" r="7"/>
                <circle id="rim2" cx="0" cy="0" r="3.5"/>
                <g id="zoomPlus">
                        <use xlink:href="#rim" fill="#404040">
                                <set attributeName="fill" to="#808080" begin="zoomplus.mouseover" end="zoomplus.mouseout"/>
                        </use>
                        <path d="M-4,0h8M0,-4v8" fill="none" stroke="white" stroke-width="1.5" pointer-events="none"/>
                </g>
                <g id="zoomMin">
                        <use xlink:href="#rim" fill="#404040">
                                <set attributeName="fill" to="#808080" begin="zoomminus.mouseover" end="zoomminus.mouseout"/>
                        </use>
                        <path d="M-4,0h8" fill="none" stroke="white" stroke-width="1.5" pointer-events="none"/>
                </g>
                <g id="dirArrow">
                        <path fill="none" stroke="white" stroke-width="1.5" d="M0,-3.0v7 M-2.5,-0.5L0,-3.0L2.5,-0.5"/>
                </g>
               <g id="resetDef">
                       <use xlink:href="#rim2" fill="#404040">
                               <set attributeName="fill" to="#808080" begin="reset.mouseover" end="reset.mouseout"/>
                       </use>
               </g>
        </defs>

<script type="text/javascript">
var viewWidth = 1452;
var viewHeight = 144;
var sectionId = 'dynsection-11';
</script>
<script xlink:href="../../svgpan.js"/>
<svg id="graph" class="graph">
<g id="viewport">
<title>LOD::File::DoesContainerExist</title>
<polygon fill="white" stroke="none" points="-4,4 -4,-140 1448,-140 1448,4 -4,4"/>
<!-- Node1 -->
<g id="node1" class="node"><title>Node1</title>
<g id="a_node1"><a xlink:title=" ">
<polygon fill="#bfbfbf" stroke="black" points="1316,-73 1316,-103 1444,-103 1444,-73 1316,-73"/>
<text text-anchor="start" x="1324" y="-91" font-family="Helvetica,sans-Serif" font-size="10.00">LOD::File::DoesContainer</text>
<text text-anchor="middle" x="1380" y="-80" font-family="Helvetica,sans-Serif" font-size="10.00">Exist</text>
</a>
</g>
</g>
<!-- Node2 -->
<g id="node2" class="node"><title>Node2</title>
<g id="a_node2"><a xlink:href="../../d1/d55/struct_outdoor_location.html#afd894a20666dca822ffcf6186a216e62" target="_top" xlink:title=" ">
<polygon fill="white" stroke="black" points="1165,-78.5 1165,-97.5 1280,-97.5 1280,-78.5 1165,-78.5"/>
<text text-anchor="middle" x="1222.5" y="-85.5" font-family="Helvetica,sans-Serif" font-size="10.00">OutdoorLocation::Load</text>
</a>
</g>
</g>
<!-- Node1&#45;&gt;Node2 -->
<g id="edge1" class="edge"><title>Node1&#45;&gt;Node2</title>
<path fill="none" stroke="midnightblue" d="M1305.74,-88C1297.15,-88 1288.5,-88 1280.19,-88"/>
<polygon fill="midnightblue" stroke="midnightblue" points="1305.75,-91.5001 1315.75,-88 1305.75,-84.5001 1305.75,-91.5001"/>
</g>
<!-- Node12 -->
<g id="node12" class="node"><title>Node12</title>
<g id="a_node12"><a xlink:href="../../d6/d9e/struct_indoor_location.html#a49022907e8b214b629b60d390dad4a38" target="_top" xlink:title=" ">
<polygon fill="white" stroke="black" points="1169,-116.5 1169,-135.5 1276,-135.5 1276,-116.5 1169,-116.5"/>
<text text-anchor="middle" x="1222.5" y="-123.5" font-family="Helvetica,sans-Serif" font-size="10.00">IndoorLocation::Load</text>
</a>
</g>
</g>
<!-- Node1&#45;&gt;Node12 -->
<g id="edge13" class="edge"><title>Node1&#45;&gt;Node12</title>
<path fill="none" stroke="midnightblue" d="M1307.47,-105.481C1292.02,-109.255 1276.25,-113.109 1262.61,-116.443"/>
<polygon fill="midnightblue" stroke="midnightblue" points="1308.66,-108.793 1317.54,-103.019 1307,-101.993 1308.66,-108.793"/>
</g>
<!-- Node14 -->
<g id="node14" class="node"><title>Node14</title>
<g id="a_node14"><a xlink:href="../../dd/de7/_save_load_8h.html#aec4ea4d9c15c927eed9a2a9227c4b16c" target="_top" xlink:title=" ">
<polygon fill="white" stroke="black" points="1032.5,-34.5 1032.5,-53.5 1096.5,-53.5 1096.5,-34.5 1032.5,-34.5"/>
<text text-anchor="middle" x="1064.5" y="-41.5" font-family="Helvetica,sans-Serif" font-size="10.00">LoadGame</text>
</a>
</g>
</g>
<!-- Node1&#45;&gt;Node14 -->
<g id="edge16" class="edge"><title>Node1&#45;&gt;Node14</title>
<path fill="none" stroke="midnightblue" d="M1305.66,-73.3011C1297.03,-71.7555 1288.33,-70.2829 1280,-69 1215.15,-59.0124 1138.73,-50.9972 1096.86,-46.925"/>
<polygon fill="midnightblue" stroke="midnightblue" points="1305.28,-76.7885 1315.74,-75.1418 1306.54,-69.9024 1305.28,-76.7885"/>
</g>
<!-- Node3 -->
<g id="node3" class="node"><title>Node3</title>
<g id="a_node3"><a xlink:href="../../d1/d55/struct_outdoor_location.html#a51ee85637b8d77dd09ac74de8b1f35a1" target="_top" xlink:title=" ">
<polygon fill="white" stroke="black" points="1000,-78.5 1000,-97.5 1129,-97.5 1129,-78.5 1000,-78.5"/>
<text text-anchor="middle" x="1064.5" y="-85.5" font-family="Helvetica,sans-Serif" font-size="10.00">OutdoorLocation::Initialize</text>
</a>
</g>
</g>
<!-- Node2&#45;&gt;Node3 -->
<g id="edge2" class="edge"><title>Node2&#45;&gt;Node3</title>
<path fill="none" stroke="midnightblue" d="M1154.55,-88C1146.1,-88 1137.48,-88 1129.08,-88"/>
<polygon fill="midnightblue" stroke="midnightblue" points="1154.74,-91.5001 1164.74,-88 1154.74,-84.5001 1154.74,-91.5001"/>
</g>
<!-- Node4 -->
<g id="node4" class="node"><title>Node4</title>
<g id="a_node4"><a xlink:href="../../dc/dfb/_outdoor_8h.html#ad0b6920041533cc49817c0c848c6b3b5" target="_top" xlink:title=" ">
<polygon fill="white" stroke="black" points="846,-78.5 846,-97.5 964,-97.5 964,-78.5 846,-78.5"/>
<text text-anchor="middle" x="905" y="-85.5" font-family="Helvetica,sans-Serif" font-size="10.00">ODM_LoadAndInitialize</text>
</a>
</g>
</g>
<!-- Node3&#45;&gt;Node4 -->
<g id="edge3" class="edge"><title>Node3&#45;&gt;Node4</title>
<path fill="none" stroke="midnightblue" d="M989.865,-88C981.27,-88 972.593,-88 964.247,-88"/>
<polygon fill="midnightblue" stroke="midnightblue" points="989.893,-91.5001 999.893,-88 989.893,-84.5001 989.893,-91.5001"/>
</g>
<!-- Node5 -->
<g id="node5" class="node"><title>Node5</title>
<g id="a_node5"><a xlink:href="../../de/dcf/_engine_8h.html#a5cf7667eb3b81f9acbc63bdf01528452" target="_top" xlink:title=" ">
<polygon fill="white" stroke="black" points="706,-78.5 706,-97.5 810,-97.5 810,-78.5 706,-78.5"/>
<text text-anchor="middle" x="758" y="-85.5" font-family="Helvetica,sans-Serif" font-size="10.00">PrepareToLoadODM</text>
</a>
</g>
</g>
<!-- Node4&#45;&gt;Node5 -->
<g id="edge4" class="edge"><title>Node4&#45;&gt;Node5</title>
<path fill="none" stroke="midnightblue" d="M835.79,-88C827.157,-88 818.442,-88 810.138,-88"/>
<polygon fill="midnightblue" stroke="midnightblue" points="835.858,-91.5001 845.858,-88 835.858,-84.5001 835.858,-91.5001"/>
</g>
<!-- Node6 -->
<g id="node6" class="node"><title>Node6</title>
<g id="a_node6"><a xlink:href="../../de/dcf/_engine_8h.html#a7ac85aa3f91f16b9f3007f4d7f1b419a" target="_top" xlink:title=" ">
<polygon fill="white" stroke="black" points="574.5,-91.5 574.5,-110.5 662.5,-110.5 662.5,-91.5 574.5,-91.5"/>
<text text-anchor="middle" x="618.5" y="-98.5" font-family="Helvetica,sans-Serif" font-size="10.00">DoPrepareWorld</text>
</a>
</g>
</g>
<!-- Node5&#45;&gt;Node6 -->
<g id="edge5" class="edge"><title>Node5&#45;&gt;Node6</title>
<path fill="none" stroke="midnightblue" d="M695.672,-93.7983C684.526,-94.8521 673.117,-95.9308 662.634,-96.9218"/>
<polygon fill="midnightblue" stroke="midnightblue" points="696.174,-97.2665 705.8,-92.8407 695.515,-90.2976 696.174,-97.2665"/>
</g>
<!-- Node11 -->
<g id="node11" class="node"><title>Node11</title>
<g id="a_node11"><a xlink:href="../../d4/d06/class_application_1_1_game.html#a3f65e3f0ef1a9114fb3dea275e52442e" target="_top" xlink:title=" ">
<polygon fill="white" stroke="black" points="567,-29 567,-59 670,-59 670,-29 567,-29"/>
<text text-anchor="start" x="575" y="-47" font-family="Helvetica,sans-Serif" font-size="10.00">Application::Game::</text>
<text text-anchor="middle" x="618.5" y="-36" font-family="Helvetica,sans-Serif" font-size="10.00">EventLoop</text>
</a>
</g>
</g>
<!-- Node5&#45;&gt;Node11 -->
<g id="edge11" class="edge"><title>Node5&#45;&gt;Node11</title>
<path fill="none" stroke="midnightblue" d="M717.628,-75.4008C701.709,-70.3069 683.203,-64.3849 666.579,-59.0654"/>
<polygon fill="midnightblue" stroke="midnightblue" points="716.574,-78.7383 727.165,-78.4527 718.707,-72.0713 716.574,-78.7383"/>
</g>
<!-- Node7 -->
<g id="node7" class="node"><title>Node7</title>
<g id="a_node7"><a xlink:href="../../d4/d06/class_application_1_1_game.html#aaa0ff18388b32b4e6198835a35e000d3" target="_top" xlink:title=" ">
<polygon fill="white" stroke="black" points="316,-45 316,-75 419,-75 419,-45 316,-45"/>
<text text-anchor="start" x="324" y="-63" font-family="Helvetica,sans-Serif" font-size="10.00">Application::Game::</text>
<text text-anchor="middle" x="367.5" y="-52" font-family="Helvetica,sans-Serif" font-size="10.00">GameLoop</text>
</a>
</g>
</g>
<!-- Node6&#45;&gt;Node7 -->
<g id="edge6" class="edge"><title>Node6&#45;&gt;Node7</title>
<path fill="none" stroke="midnightblue" d="M564.146,-105.255C532.133,-106.519 490.81,-105.865 455,-98 434.013,-93.3907 411.854,-83.5482 395.219,-75.0353"/>
<polygon fill="midnightblue" stroke="midnightblue" points="564.368,-108.749 574.194,-104.785 564.041,-101.757 564.368,-108.749"/>
</g>
<!-- Node10 -->
<g id="node10" class="node"><title>Node10</title>
<g id="a_node10"><a xlink:href="../../de/dcf/_engine_8h.html#a287d13406d42b0831d9eb7a64d368202" target="_top" xlink:title=" ">
<polygon fill="white" stroke="black" points="455,-69.5 455,-88.5 531,-88.5 531,-69.5 455,-69.5"/>
<text text-anchor="middle" x="493" y="-76.5" font-family="Helvetica,sans-Serif" font-size="10.00">PrepareWorld</text>
</a>
</g>
</g>
<!-- Node6&#45;&gt;Node10 -->
<g id="edge9" class="edge"><title>Node6&#45;&gt;Node10</title>
<path fill="none" stroke="midnightblue" d="M564.236,-91.5117C553.11,-89.5297 541.61,-87.481 531.216,-85.6296"/>
<polygon fill="midnightblue" stroke="midnightblue" points="563.847,-94.9974 574.306,-93.3055 565.075,-88.1059 563.847,-94.9974"/>
</g>
<!-- Node8 -->
<g id="node8" class="node"><title>Node8</title>
<g id="a_node8"><a xlink:href="../../d4/d06/class_application_1_1_game.html#a013ffd59e8fdf1c0a396da1dbe1681ca" target="_top" xlink:title=" ">
<polygon fill="white" stroke="black" points="156,-50.5 156,-69.5 280,-69.5 280,-50.5 156,-50.5"/>
<text text-anchor="middle" x="218" y="-57.5" font-family="Helvetica,sans-Serif" font-size="10.00">Application::Game::Loop</text>
</a>
</g>
</g>
<!-- Node7&#45;&gt;Node8 -->
<g id="edge7" class="edge"><title>Node7&#45;&gt;Node8</title>
<path fill="none" stroke="midnightblue" d="M305.59,-60C297.149,-60 288.478,-60 280.035,-60"/>
<polygon fill="midnightblue" stroke="midnightblue" points="305.739,-63.5001 315.739,-60 305.739,-56.5001 305.739,-63.5001"/>
</g>
<!-- Node9 -->
<g id="node9" class="node"><title>Node9</title>
<g id="a_node9"><a xlink:href="../../d4/d06/class_application_1_1_game.html#a96341ca5b54d90adc3ecb3bf0bcd2312" target="_top" xlink:title=" ">
<polygon fill="white" stroke="black" points="0,-50.5 0,-69.5 120,-69.5 120,-50.5 0,-50.5"/>
<text text-anchor="middle" x="60" y="-57.5" font-family="Helvetica,sans-Serif" font-size="10.00">Application::Game::Run</text>
</a>
</g>
</g>
<!-- Node8&#45;&gt;Node9 -->
<g id="edge8" class="edge"><title>Node8&#45;&gt;Node9</title>
<path fill="none" stroke="midnightblue" d="M145.546,-60C137.081,-60 128.513,-60 120.244,-60"/>
<polygon fill="midnightblue" stroke="midnightblue" points="145.792,-63.5001 155.792,-60 145.792,-56.5001 145.792,-63.5001"/>
</g>
<!-- Node10&#45;&gt;Node7 -->
<g id="edge10" class="edge"><title>Node10&#45;&gt;Node7</title>
<path fill="none" stroke="midnightblue" d="M444.929,-71.7584C436.524,-70.4652 427.733,-69.1128 419.231,-67.8047"/>
<polygon fill="midnightblue" stroke="midnightblue" points="444.53,-75.238 454.946,-73.2994 445.594,-68.3194 444.53,-75.238"/>
</g>
<!-- Node11&#45;&gt;Node7 -->
<g id="edge12" class="edge"><title>Node11&#45;&gt;Node7</title>
<path fill="none" stroke="midnightblue" d="M556.66,-47.9094C514.457,-50.6212 458.903,-54.191 419.118,-56.7474"/>
<polygon fill="midnightblue" stroke="midnightblue" points="557.056,-51.3913 566.811,-47.2571 556.607,-44.4057 557.056,-51.3913"/>
</g>
<!-- Node13 -->
<g id="node13" class="node"><title>Node13</title>
<g id="a_node13"><a xlink:href="../../da/dc7/_indoor_8h.html#abecbfe3d22734c1621783ba67cb67cc1" target="_top" xlink:title=" ">
<polygon fill="white" stroke="black" points="854.5,-116.5 854.5,-135.5 955.5,-135.5 955.5,-116.5 854.5,-116.5"/>
<text text-anchor="middle" x="905" y="-123.5" font-family="Helvetica,sans-Serif" font-size="10.00">PrepareToLoadBLV</text>
</a>
</g>
</g>
<!-- Node12&#45;&gt;Node13 -->
<g id="edge14" class="edge"><title>Node12&#45;&gt;Node13</title>
<path fill="none" stroke="midnightblue" d="M1158.64,-126C1098.96,-126 1010.45,-126 955.596,-126"/>
<polygon fill="midnightblue" stroke="midnightblue" points="1158.69,-129.5 1168.69,-126 1158.69,-122.5 1158.69,-129.5"/>
</g>
<!-- Node13&#45;&gt;Node6 -->
<g id="edge15" class="edge"><title>Node13&#45;&gt;Node6</title>
<path fill="none" stroke="midnightblue" d="M844.278,-120.752C790.046,-115.986 711.349,-109.071 662.903,-104.814"/>
<polygon fill="midnightblue" stroke="midnightblue" points="844.176,-124.256 854.444,-121.645 844.789,-117.283 844.176,-124.256"/>
</g>
<!-- Node14&#45;&gt;Node7 -->
<g id="edge20" class="edge"><title>Node14&#45;&gt;Node7</title>
<path fill="none" stroke="midnightblue" d="M1022.59,-32.2122C1004.73,-27.4604 983.463,-22.3268 964,-19 873.806,-3.5836 850.502,-0 759,-0 759,-0 759,-0 617.5,-0 541.018,-0 454.906,-27.085 406.63,-44.8595"/>
<polygon fill="midnightblue" stroke="midnightblue" points="1021.83,-35.6325 1032.39,-34.8738 1023.66,-28.8769 1021.83,-35.6325"/>
</g>
<!-- Node15 -->
<g id="node15" class="node"><title>Node15</title>
<g id="a_node15"><a xlink:href="../../df/dac/class_application_1_1_menu.html#aac9ec557a30f1ba7bf6746aa62f70764" target="_top" xlink:title=" ">
<polygon fill="white" stroke="black" points="854.5,-29 854.5,-59 955.5,-59 955.5,-29 854.5,-29"/>
<text text-anchor="start" x="862.5" y="-47" font-family="Helvetica,sans-Serif" font-size="10.00">Application::Menu::</text>
<text text-anchor="middle" x="905" y="-36" font-family="Helvetica,sans-Serif" font-size="10.00">EventLoop</text>
</a>
</g>
</g>
<!-- Node14&#45;&gt;Node15 -->
<g id="edge17" class="edge"><title>Node14&#45;&gt;Node15</title>
<path fill="none" stroke="midnightblue" d="M1022.16,-44C1001.78,-44 977.05,-44 955.652,-44"/>
<polygon fill="midnightblue" stroke="midnightblue" points="1022.38,-47.5001 1032.38,-44 1022.38,-40.5001 1022.38,-47.5001"/>
</g>
<!-- Node16 -->
<g id="node16" class="node"><title>Node16</title>
<g id="a_node16"><a xlink:href="../../df/dac/class_application_1_1_menu.html#aaf253396760ddad4b41b2db8901e97ee" target="_top" xlink:title=" ">
<polygon fill="white" stroke="black" points="707.5,-29 707.5,-59 808.5,-59 808.5,-29 707.5,-29"/>
<text text-anchor="start" x="715.5" y="-47" font-family="Helvetica,sans-Serif" font-size="10.00">Application::Menu::</text>
<text text-anchor="middle" x="758" y="-36" font-family="Helvetica,sans-Serif" font-size="10.00">MenuLoop</text>
</a>
</g>
</g>
<!-- Node15&#45;&gt;Node16 -->
<g id="edge18" class="edge"><title>Node15&#45;&gt;Node16</title>
<path fill="none" stroke="midnightblue" d="M843.896,-44C832.116,-44 819.887,-44 808.502,-44"/>
<polygon fill="midnightblue" stroke="midnightblue" points="844.099,-47.5001 854.099,-44 844.099,-40.5001 844.099,-47.5001"/>
</g>
<!-- Node16&#45;&gt;Node11 -->
<g id="edge19" class="edge"><title>Node16&#45;&gt;Node11</title>
<path fill="none" stroke="midnightblue" d="M697.07,-44C688.196,-44 679.123,-44 670.456,-44"/>
<polygon fill="midnightblue" stroke="midnightblue" points="697.359,-47.5001 707.359,-44 697.359,-40.5001 697.359,-47.5001"/>
</g>
</g>
</svg>
        <g id="navigator" transform="translate(0 0)" fill="#404254">
                <rect fill="#f2f5e9" fill-opacity="0.5" stroke="#606060" stroke-width=".5" x="0" y="0" width="60" height="60"/>
                <use id="zoomplus" xlink:href="#zoomPlus" x="17" y="9" onmousedown="handleZoom(evt,'in')"/>
                <use id="zoomminus" xlink:href="#zoomMin" x="42" y="9" onmousedown="handleZoom(evt,'out')"/>
                <use id="reset" xlink:href="#resetDef" x="30" y="36" onmousedown="handleReset()"/>
                <g id="arrowUp" xlink:href="#dirArrow" transform="translate(30 24)" onmousedown="handlePan(0,-1)">
                  <use xlink:href="#rim" fill="#404040">
                        <set attributeName="fill" to="#808080" begin="arrowUp.mouseover" end="arrowUp.mouseout"/>
                  </use>
                  <path fill="none" stroke="white" stroke-width="1.5" d="M0,-3.0v7 M-2.5,-0.5L0,-3.0L2.5,-0.5"/>
                </g>
                <g id="arrowRight" xlink:href="#dirArrow" transform="rotate(90) translate(36 -43)" onmousedown="handlePan(1,0)">
                  <use xlink:href="#rim" fill="#404040">
                        <set attributeName="fill" to="#808080" begin="arrowRight.mouseover" end="arrowRight.mouseout"/>
                  </use>
                  <path fill="none" stroke="white" stroke-width="1.5" d="M0,-3.0v7 M-2.5,-0.5L0,-3.0L2.5,-0.5"/>
                </g>
                <g id="arrowDown" xlink:href="#dirArrow" transform="rotate(180) translate(-30 -48)" onmousedown="handlePan(0,1)">
                  <use xlink:href="#rim" fill="#404040">
                        <set attributeName="fill" to="#808080" begin="arrowDown.mouseover" end="arrowDown.mouseout"/>
                  </use>
                  <path fill="none" stroke="white" stroke-width="1.5" d="M0,-3.0v7 M-2.5,-0.5L0,-3.0L2.5,-0.5"/>
                </g>
                <g id="arrowLeft" xlink:href="#dirArrow" transform="rotate(270) translate(-36 17)" onmousedown="handlePan(-1,0)">
                  <use xlink:href="#rim" fill="#404040">
                        <set attributeName="fill" to="#808080" begin="arrowLeft.mouseover" end="arrowLeft.mouseout"/>
                  </use>
                  <path fill="none" stroke="white" stroke-width="1.5" d="M0,-3.0v7 M-2.5,-0.5L0,-3.0L2.5,-0.5"/>
                </g>
        </g>
        <svg viewBox="0 0 15 15" width="100%" height="30px" preserveAspectRatio="xMaxYMin meet">
         <g id="arrow_out" transform="scale(0.3 0.3)">
          <a xlink:href="class_l_o_d_1_1_file_a5f308ac99a49c87179a5dff49084b81f_icgraph_org.svg" target="_base">
           <rect id="button" ry="5" rx="5" y="6" x="6" height="38" width="38"
                fill="#f2f5e9" fill-opacity="0.5" stroke="#606060" stroke-width="1.0"/>
           <path id="arrow"
             d="M 11.500037,31.436501 C 11.940474,20.09759 22.043105,11.32322 32.158766,21.979434 L 37.068811,17.246167 C 37.068811,17.246167 37.088388,32 37.088388,32 L 22.160133,31.978069 C 22.160133,31.978069 26.997745,27.140456 26.997745,27.140456 C 18.528582,18.264221 13.291696,25.230495 11.500037,31.436501 z"
             style="fill:#404040;"/>
          </a>
         </g>
        </svg>
</svg>
