<?xml version="1.0" encoding="UTF-8" standalone="no"?>
<!DOCTYPE svg PUBLIC "-//W3C//DTD SVG 1.1//EN"
 "http://www.w3.org/Graphics/SVG/1.1/DTD/svg11.dtd">
<!-- Generated by graphviz version 2.38.0 (20140413.2041)
 -->
<!-- Title: LOD::File::Open Pages: 1 -->
<svg width="769pt" height="154pt"
 viewBox="0.00 0.00 769.00 154.00" xmlns="http://www.w3.org/2000/svg" xmlns:xlink="http://www.w3.org/1999/xlink">
<g id="graph0" class="graph" transform="scale(1 1) rotate(0) translate(4 150)">
<title>LOD::File::Open</title>
<polygon fill="white" stroke="none" points="-4,4 -4,-150 765,-150 765,4 -4,4"/>
<!-- Node1 -->
<g id="node1" class="node"><title>Node1</title>
<g id="a_node1"><a xlink:title=" ">
<polygon fill="#bfbfbf" stroke="black" points="674,-66.5 674,-85.5 761,-85.5 761,-66.5 674,-66.5"/>
<text text-anchor="middle" x="717.5" y="-73.5" font-family="Helvetica,sans-Serif" font-size="10.00">LOD::File::Open</text>
</a>
</g>
</g>
<!-- Node2 -->
<g id="node2" class="node"><title>Node2</title>
<g id="a_node2"><a xlink:href="../../d0/dd2/class_g_u_i_window___load.html#a1b8c62bd93ed3b2ed28ac51703465d86" target="_top" xlink:title=" ">
<polygon fill="white" stroke="black" points="461,-126.5 461,-145.5 638,-145.5 638,-126.5 461,-126.5"/>
<text text-anchor="middle" x="549.5" y="-133.5" font-family="Helvetica,sans-Serif" font-size="10.00">GUIWindow_Load::GUIWindow_Load</text>
</a>
</g>
</g>
<!-- Node1&#45;&gt;Node2 -->
<g id="edge1" class="edge"><title>Node1&#45;&gt;Node2</title>
<path fill="none" stroke="midnightblue" d="M692.407,-90.7387C677.255,-99.4555 657.034,-110.104 638,-117 627.623,-120.759 616.272,-123.895 605.284,-126.464"/>
<polygon fill="midnightblue" stroke="midnightblue" points="694.282,-93.6964 701.13,-85.6118 690.735,-87.6616 694.282,-93.6964"/>
</g>
<!-- Node3 -->
<g id="node3" class="node"><title>Node3</title>
<g id="a_node3"><a xlink:href="../../db/ddc/class_g_u_i_window___save.html#a817defda02c21a79d488aa3e0d2a61d5" target="_top" xlink:title=" ">
<polygon fill="white" stroke="black" points="461,-88.5 461,-107.5 638,-107.5 638,-88.5 461,-88.5"/>
<text text-anchor="middle" x="549.5" y="-95.5" font-family="Helvetica,sans-Serif" font-size="10.00">GUIWindow_Save::GUIWindow_Save</text>
</a>
</g>
</g>
<!-- Node1&#45;&gt;Node3 -->
<g id="edge2" class="edge"><title>Node1&#45;&gt;Node3</title>
<path fill="none" stroke="midnightblue" d="M663.535,-83.0194C650.453,-84.7533 636.219,-86.6397 622.403,-88.4707"/>
<polygon fill="midnightblue" stroke="midnightblue" points="664.297,-86.4491 673.751,-81.6655 663.378,-79.5098 664.297,-86.4491"/>
</g>
<!-- Node4 -->
<g id="node4" class="node"><title>Node4</title>
<g id="a_node4"><a xlink:href="../../dd/de7/_save_load_8h.html#ac5f6c27c016c3c4c5cc60702a578c538" target="_top" xlink:title=" ">
<polygon fill="white" stroke="black" points="495.5,-39 495.5,-69 603.5,-69 603.5,-39 495.5,-39"/>
<text text-anchor="start" x="503.5" y="-57" font-family="Helvetica,sans-Serif" font-size="10.00">Initialize_GamesLOD</text>
<text text-anchor="middle" x="549.5" y="-46" font-family="Helvetica,sans-Serif" font-size="10.00">_NewLOD</text>
</a>
</g>
</g>
<!-- Node1&#45;&gt;Node4 -->
<g id="edge3" class="edge"><title>Node1&#45;&gt;Node4</title>
<path fill="none" stroke="midnightblue" d="M663.707,-69.0033C644.58,-66.4685 622.975,-63.6052 603.805,-61.0645"/>
<polygon fill="midnightblue" stroke="midnightblue" points="663.378,-72.4902 673.751,-70.3345 664.297,-65.5509 663.378,-72.4902"/>
</g>
<!-- Node6 -->
<g id="node6" class="node"><title>Node6</title>
<g id="a_node6"><a xlink:href="../../d4/d10/class_l_o_d_file___sprites.html#ab570cb1e13baf3bdd831c725bbec7489" target="_top" xlink:title=" ">
<polygon fill="white" stroke="black" points="476.5,-0.5 476.5,-19.5 622.5,-19.5 622.5,-0.5 476.5,-0.5"/>
<text text-anchor="middle" x="549.5" y="-7.5" font-family="Helvetica,sans-Serif" font-size="10.00">LODFile_Sprites::LoadSprites</text>
</a>
</g>
</g>
<!-- Node1&#45;&gt;Node6 -->
<g id="edge5" class="edge"><title>Node1&#45;&gt;Node6</title>
<path fill="none" stroke="midnightblue" d="M695.361,-60.7447C680.095,-50.3934 658.621,-37.1562 638,-29 628.315,-25.1692 617.706,-22.0422 607.32,-19.5129"/>
<polygon fill="midnightblue" stroke="midnightblue" points="693.366,-63.621 703.578,-66.4457 697.357,-57.8696 693.366,-63.621"/>
</g>
<!-- Node5 -->
<g id="node5" class="node"><title>Node5</title>
<g id="a_node5"><a xlink:href="../../d6/d83/struct_engine.html#af028add00f4a849c60d0afa42da04a08" target="_top" xlink:title=" ">
<polygon fill="white" stroke="black" points="275,-44.5 275,-63.5 425,-63.5 425,-44.5 275,-44.5"/>
<text text-anchor="middle" x="350" y="-51.5" font-family="Helvetica,sans-Serif" font-size="10.00">Engine::SecondaryInitialization</text>
</a>
</g>
</g>
<!-- Node4&#45;&gt;Node5 -->
<g id="edge4" class="edge"><title>Node4&#45;&gt;Node5</title>
<path fill="none" stroke="midnightblue" d="M485.206,-54C466.052,-54 444.847,-54 425.056,-54"/>
<polygon fill="midnightblue" stroke="midnightblue" points="485.314,-57.5001 495.314,-54 485.314,-50.5001 485.314,-57.5001"/>
</g>
<!-- Node7 -->
<g id="node7" class="node"><title>Node7</title>
<g id="a_node7"><a xlink:href="../../d4/d68/_engine_8cpp.html#a62258c64a9ef81eadc2d47d8b755915f" target="_top" xlink:title=" ">
<polygon fill="white" stroke="black" points="307,-0.5 307,-19.5 393,-19.5 393,-0.5 307,-0.5"/>
<text text-anchor="middle" x="350" y="-7.5" font-family="Helvetica,sans-Serif" font-size="10.00">MM7_LoadLods</text>
</a>
</g>
</g>
<!-- Node6&#45;&gt;Node7 -->
<g id="edge6" class="edge"><title>Node6&#45;&gt;Node7</title>
<path fill="none" stroke="midnightblue" d="M466.074,-10C440.946,-10 414.369,-10 393.093,-10"/>
<polygon fill="midnightblue" stroke="midnightblue" points="466.36,-13.5001 476.36,-10 466.36,-6.5001 466.36,-13.5001"/>
</g>
<!-- Node8 -->
<g id="node8" class="node"><title>Node8</title>
<g id="a_node8"><a xlink:href="../../d6/d83/struct_engine.html#ae384c8c86225ff402d4540706340f820" target="_top" xlink:title=" ">
<polygon fill="white" stroke="black" points="124,-0.5 124,-19.5 239,-19.5 239,-0.5 124,-0.5"/>
<text text-anchor="middle" x="181.5" y="-7.5" font-family="Helvetica,sans-Serif" font-size="10.00">Engine::MM7_Initialize</text>
</a>
</g>
</g>
<!-- Node7&#45;&gt;Node8 -->
<g id="edge7" class="edge"><title>Node7&#45;&gt;Node8</title>
<path fill="none" stroke="midnightblue" d="M296.812,-10C278.532,-10 257.92,-10 239.283,-10"/>
<polygon fill="midnightblue" stroke="midnightblue" points="296.985,-13.5001 306.985,-10 296.985,-6.5001 296.985,-13.5001"/>
</g>
<!-- Node9 -->
<g id="node9" class="node"><title>Node9</title>
<g id="a_node9"><a xlink:href="../../d6/d83/struct_engine.html#a4e6fbae6c087bbfa2b1e20f11c46460d" target="_top" xlink:title=" ">
<polygon fill="white" stroke="black" points="0,-0.5 0,-19.5 88,-19.5 88,-0.5 0,-0.5"/>
<text text-anchor="middle" x="44" y="-7.5" font-family="Helvetica,sans-Serif" font-size="10.00">Engine::Initialize</text>
</a>
</g>
</g>
<!-- Node8&#45;&gt;Node9 -->
<g id="edge8" class="edge"><title>Node8&#45;&gt;Node9</title>
<path fill="none" stroke="midnightblue" d="M113.709,-10C105.058,-10 96.3857,-10 88.2572,-10"/>
<polygon fill="midnightblue" stroke="midnightblue" points="113.821,-13.5001 123.821,-10 113.821,-6.5001 113.821,-13.5001"/>
</g>
</g>
</svg>
