<?xml version="1.0" encoding="UTF-8" standalone="no"?>
<!DOCTYPE svg PUBLIC "-//W3C//DTD SVG 1.1//EN"
 "http://www.w3.org/Graphics/SVG/1.1/DTD/svg11.dtd">
<!-- Generated by graphviz version 2.38.0 (20140413.2041)
 -->
<!-- Title: GUIWindow_JournalBook::Update Pages: 1 -->
<svg width="788pt" height="454pt"
 viewBox="0.00 0.00 788.00 454.00" xmlns="http://www.w3.org/2000/svg" xmlns:xlink="http://www.w3.org/1999/xlink">
<g id="graph0" class="graph" transform="scale(1 1) rotate(0) translate(4 450)">
<title>GUIWindow_JournalBook::Update</title>
<polygon fill="white" stroke="none" points="-4,4 -4,-450 784,-450 784,4 -4,4"/>
<!-- Node1 -->
<g id="node1" class="node"><title>Node1</title>
<g id="a_node1"><a xlink:title=" ">
<polygon fill="#bfbfbf" stroke="black" points="0,-327 0,-357 126,-357 126,-327 0,-327"/>
<text text-anchor="start" x="8" y="-345" font-family="Helvetica,sans-Serif" font-size="10.00">GUIWindow_JournalBook</text>
<text text-anchor="middle" x="63" y="-334" font-family="Helvetica,sans-Serif" font-size="10.00">::Update</text>
</a>
</g>
</g>
<!-- Node2 -->
<g id="node2" class="node"><title>Node2</title>
<g id="a_node2"><a xlink:href="../../dc/dce/_g_u_i_window_8cpp.html#a64d55e0c3e7a3991e8c2951291a85b00" target="_top" xlink:title=" ">
<polygon fill="white" stroke="black" points="177.5,-408.5 177.5,-427.5 278.5,-427.5 278.5,-408.5 177.5,-408.5"/>
<text text-anchor="middle" x="228" y="-415.5" font-family="Helvetica,sans-Serif" font-size="10.00">BuildDialogueString</text>
</a>
</g>
</g>
<!-- Node1&#45;&gt;Node2 -->
<g id="edge1" class="edge"><title>Node1&#45;&gt;Node2</title>
<path fill="none" stroke="midnightblue" d="M90.1414,-357.105C109.614,-368.051 137.035,-382.828 162,-394 170.628,-397.861 180.083,-401.613 189.045,-404.959"/>
<polygon fill="midnightblue" stroke="midnightblue" points="187.92,-408.274 198.514,-408.416 190.321,-401.699 187.92,-408.274"/>
</g>
<!-- Node3 -->
<g id="node3" class="node"><title>Node3</title>
<g id="a_node3"><a xlink:href="../../d4/d38/class_g_u_i_window.html#a009aad05d919c42979eebb93d8b4354c" target="_top" xlink:title=" ">
<polygon fill="white" stroke="black" points="171,-332.5 171,-351.5 285,-351.5 285,-332.5 171,-332.5"/>
<text text-anchor="middle" x="228" y="-339.5" font-family="Helvetica,sans-Serif" font-size="10.00">GUIWindow::DrawText</text>
</a>
</g>
</g>
<!-- Node1&#45;&gt;Node3 -->
<g id="edge3" class="edge"><title>Node1&#45;&gt;Node3</title>
<path fill="none" stroke="midnightblue" d="M126.088,-342C137.385,-342 149.21,-342 160.625,-342"/>
<polygon fill="midnightblue" stroke="midnightblue" points="160.965,-345.5 170.965,-342 160.965,-338.5 160.965,-345.5"/>
</g>
<!-- Node8 -->
<g id="node8" class="node"><title>Node8</title>
<g id="a_node8"><a xlink:href="../../d4/d38/class_g_u_i_window.html#aae805c92b9242bc94cf18c7a702433f7" target="_top" xlink:title=" ">
<polygon fill="white" stroke="black" points="162,-272.5 162,-291.5 294,-291.5 294,-272.5 162,-272.5"/>
<text text-anchor="middle" x="228" y="-279.5" font-family="Helvetica,sans-Serif" font-size="10.00">GUIWindow::DrawTitleText</text>
</a>
</g>
</g>
<!-- Node1&#45;&gt;Node8 -->
<g id="edge9" class="edge"><title>Node1&#45;&gt;Node8</title>
<path fill="none" stroke="midnightblue" d="M105.132,-326.859C131.775,-317.052 166.118,-304.411 191.553,-295.048"/>
<polygon fill="midnightblue" stroke="midnightblue" points="192.997,-298.246 201.172,-291.507 190.579,-291.677 192.997,-298.246"/>
</g>
<!-- Node12 -->
<g id="node12" class="node"><title>Node12</title>
<g id="a_node12"><a xlink:href="../../d3/d39/class_g_u_i_font.html#ace43d089e882ba6f5d721ffd5779342f" target="_top" xlink:title=" ">
<polygon fill="white" stroke="black" points="335.5,-392.5 335.5,-411.5 448.5,-411.5 448.5,-392.5 335.5,-392.5"/>
<text text-anchor="middle" x="392" y="-399.5" font-family="Helvetica,sans-Serif" font-size="10.00">GUIFont::GetPageTop</text>
</a>
</g>
</g>
<!-- Node1&#45;&gt;Node12 -->
<g id="edge16" class="edge"><title>Node1&#45;&gt;Node12</title>
<path fill="none" stroke="midnightblue" d="M126.186,-354.196C138.07,-356.487 150.415,-358.84 162,-361 217.37,-371.324 280.369,-382.566 326.255,-390.663"/>
<polygon fill="midnightblue" stroke="midnightblue" points="325.906,-394.156 336.362,-392.445 327.121,-387.262 325.906,-394.156"/>
</g>
<!-- Node13 -->
<g id="node13" class="node"><title>Node13</title>
<g id="a_node13"><a xlink:href="../../d7/dc2/class_audio_player.html#afa0c135f321bd87b4d4ad2dcad3833e3" target="_top" xlink:title=" ">
<polygon fill="white" stroke="black" points="167,-114.5 167,-133.5 289,-133.5 289,-114.5 167,-114.5"/>
<text text-anchor="middle" x="228" y="-121.5" font-family="Helvetica,sans-Serif" font-size="10.00">AudioPlayer::PlaySound</text>
</a>
</g>
</g>
<!-- Node1&#45;&gt;Node13 -->
<g id="edge19" class="edge"><title>Node1&#45;&gt;Node13</title>
<path fill="none" stroke="midnightblue" d="M75.4618,-326.671C104.762,-287.484 182.291,-183.795 213.602,-141.919"/>
<polygon fill="midnightblue" stroke="midnightblue" points="216.525,-143.854 219.71,-133.749 210.919,-139.662 216.525,-143.854"/>
</g>
<!-- Node2&#45;&gt;Node2 -->
<g id="edge2" class="edge"><title>Node2&#45;&gt;Node2</title>
<path fill="none" stroke="midnightblue" d="M202.723,-427.757C190.426,-436.565 198.852,-446 228,-446 247.584,-446 257.814,-441.741 258.689,-436.275"/>
<polygon fill="midnightblue" stroke="midnightblue" points="261.594,-434.321 253.277,-427.757 255.686,-438.075 261.594,-434.321"/>
</g>
<!-- Node4 -->
<g id="node4" class="node"><title>Node4</title>
<g id="a_node4"><a xlink:href="../../d3/d39/class_g_u_i_font.html#abea1624c5890b044ef1368a7ca051b3e" target="_top" xlink:title=" ">
<polygon fill="white" stroke="black" points="342.5,-354.5 342.5,-373.5 441.5,-373.5 441.5,-354.5 342.5,-354.5"/>
<text text-anchor="middle" x="392" y="-361.5" font-family="Helvetica,sans-Serif" font-size="10.00">GUIFont::DrawText</text>
</a>
</g>
</g>
<!-- Node3&#45;&gt;Node4 -->
<g id="edge4" class="edge"><title>Node3&#45;&gt;Node4</title>
<path fill="none" stroke="midnightblue" d="M285.205,-349.633C300.498,-351.71 317.096,-353.964 332.512,-356.057"/>
<polygon fill="midnightblue" stroke="midnightblue" points="332.066,-359.529 342.446,-357.406 333.008,-352.592 332.066,-359.529"/>
</g>
<!-- Node5 -->
<g id="node5" class="node"><title>Node5</title>
<g id="a_node5"><a xlink:href="../../d3/d39/class_g_u_i_font.html#acff82a6ae67e879bd76ddc52aa25fe02" target="_top" xlink:title=" ">
<polygon fill="white" stroke="black" points="494.5,-354.5 494.5,-373.5 631.5,-373.5 631.5,-354.5 494.5,-354.5"/>
<text text-anchor="middle" x="563" y="-361.5" font-family="Helvetica,sans-Serif" font-size="10.00">GUIFont::FitTextInAWindow</text>
</a>
</g>
</g>
<!-- Node4&#45;&gt;Node5 -->
<g id="edge5" class="edge"><title>Node4&#45;&gt;Node5</title>
<path fill="none" stroke="midnightblue" d="M441.882,-364C455.061,-364 469.654,-364 483.996,-364"/>
<polygon fill="midnightblue" stroke="midnightblue" points="484.372,-367.5 494.372,-364 484.372,-360.5 484.372,-367.5"/>
</g>
<!-- Node7 -->
<g id="node7" class="node"><title>Node7</title>
<g id="a_node7"><a xlink:href="../../d3/d39/class_g_u_i_font.html#abf5dc44bc1b328f80d5c7033279a4f8d" target="_top" xlink:title=" ">
<polygon fill="white" stroke="black" points="504,-316.5 504,-335.5 622,-335.5 622,-316.5 504,-316.5"/>
<text text-anchor="middle" x="563" y="-323.5" font-family="Helvetica,sans-Serif" font-size="10.00">GUIFont::GetLineWidth</text>
</a>
</g>
</g>
<!-- Node4&#45;&gt;Node7 -->
<g id="edge7" class="edge"><title>Node4&#45;&gt;Node7</title>
<path fill="none" stroke="midnightblue" d="M435.646,-354.411C458.148,-349.351 485.948,-343.1 509.738,-337.751"/>
<polygon fill="midnightblue" stroke="midnightblue" points="510.672,-341.129 519.661,-335.52 509.137,-334.299 510.672,-341.129"/>
</g>
<!-- Node6 -->
<g id="node6" class="node"><title>Node6</title>
<g id="a_node6"><a xlink:href="../../d3/d39/class_g_u_i_font.html#adfbdd225f4c0eedcbf7e82eecd29e404" target="_top" xlink:title=" ">
<polygon fill="white" stroke="black" points="672,-335.5 672,-354.5 780,-354.5 780,-335.5 672,-335.5"/>
<text text-anchor="middle" x="726" y="-342.5" font-family="Helvetica,sans-Serif" font-size="10.00">GUIFont::IsCharValid</text>
</a>
</g>
</g>
<!-- Node5&#45;&gt;Node6 -->
<g id="edge6" class="edge"><title>Node5&#45;&gt;Node6</title>
<path fill="none" stroke="midnightblue" d="M631.812,-355.997C641.762,-354.823 651.977,-353.618 661.829,-352.455"/>
<polygon fill="midnightblue" stroke="midnightblue" points="662.417,-355.91 671.938,-351.262 661.596,-348.958 662.417,-355.91"/>
</g>
<!-- Node7&#45;&gt;Node6 -->
<g id="edge8" class="edge"><title>Node7&#45;&gt;Node6</title>
<path fill="none" stroke="midnightblue" d="M622.125,-332.859C634.918,-334.369 648.53,-335.976 661.522,-337.509"/>
<polygon fill="midnightblue" stroke="midnightblue" points="661.439,-341.023 671.781,-338.719 662.26,-334.071 661.439,-341.023"/>
</g>
<!-- Node8&#45;&gt;Node5 -->
<g id="edge14" class="edge"><title>Node8&#45;&gt;Node5</title>
<path fill="none" stroke="midnightblue" d="M267.851,-291.567C328.884,-306.596 447.105,-335.708 513.582,-352.077"/>
<polygon fill="midnightblue" stroke="midnightblue" points="512.85,-355.501 523.396,-354.494 514.523,-348.704 512.85,-355.501"/>
</g>
<!-- Node9 -->
<g id="node9" class="node"><title>Node9</title>
<g id="a_node9"><a xlink:href="../../d3/d39/class_g_u_i_font.html#a9fa3825419fdf34ded3536e27bccbfdf" target="_top" xlink:title=" ">
<polygon fill="white" stroke="black" points="342.5,-267 342.5,-297 441.5,-297 441.5,-267 342.5,-267"/>
<text text-anchor="start" x="350.5" y="-285" font-family="Helvetica,sans-Serif" font-size="10.00">GUIFont::AlignText</text>
<text text-anchor="middle" x="392" y="-274" font-family="Helvetica,sans-Serif" font-size="10.00">_Center</text>
</a>
</g>
</g>
<!-- Node8&#45;&gt;Node9 -->
<g id="edge10" class="edge"><title>Node8&#45;&gt;Node9</title>
<path fill="none" stroke="midnightblue" d="M294.425,-282C306.911,-282 319.91,-282 332.174,-282"/>
<polygon fill="midnightblue" stroke="midnightblue" points="332.276,-285.5 342.276,-282 332.276,-278.5 332.276,-285.5"/>
</g>
<!-- Node10 -->
<g id="node10" class="node"><title>Node10</title>
<g id="a_node10"><a xlink:href="../../d3/d39/class_g_u_i_font.html#af8449e36ee49ae96e21f4406b398a010" target="_top" xlink:title=" ">
<polygon fill="white" stroke="black" points="333.5,-228.5 333.5,-247.5 450.5,-247.5 450.5,-228.5 333.5,-228.5"/>
<text text-anchor="middle" x="392" y="-235.5" font-family="Helvetica,sans-Serif" font-size="10.00">GUIFont::DrawTextLine</text>
</a>
</g>
</g>
<!-- Node8&#45;&gt;Node10 -->
<g id="edge12" class="edge"><title>Node8&#45;&gt;Node10</title>
<path fill="none" stroke="midnightblue" d="M264.152,-272.453C288.14,-265.937 320.128,-257.249 345.98,-250.228"/>
<polygon fill="midnightblue" stroke="midnightblue" points="347.184,-253.528 355.917,-247.529 345.349,-246.772 347.184,-253.528"/>
</g>
<!-- Node11 -->
<g id="node11" class="node"><title>Node11</title>
<g id="a_node11"><a xlink:href="../../d3/d39/class_g_u_i_font.html#a439cccf73db5fd93ffc18cbba51d07e0" target="_top" xlink:title=" ">
<polygon fill="white" stroke="black" points="341,-190.5 341,-209.5 443,-209.5 443,-190.5 341,-190.5"/>
<text text-anchor="middle" x="392" y="-197.5" font-family="Helvetica,sans-Serif" font-size="10.00">GUIFont::GetHeight</text>
</a>
</g>
</g>
<!-- Node8&#45;&gt;Node11 -->
<g id="edge15" class="edge"><title>Node8&#45;&gt;Node11</title>
<path fill="none" stroke="midnightblue" d="M242.102,-272.288C260.793,-258.799 296.56,-234.329 330,-219 334.916,-216.747 340.171,-214.662 345.459,-212.765"/>
<polygon fill="midnightblue" stroke="midnightblue" points="346.595,-216.075 354.945,-209.554 344.351,-209.445 346.595,-216.075"/>
</g>
<!-- Node9&#45;&gt;Node7 -->
<g id="edge11" class="edge"><title>Node9&#45;&gt;Node7</title>
<path fill="none" stroke="midnightblue" d="M441.882,-294.727C465.064,-300.762 492.625,-307.938 515.496,-313.892"/>
<polygon fill="midnightblue" stroke="midnightblue" points="514.752,-317.315 525.312,-316.448 516.516,-310.541 514.752,-317.315"/>
</g>
<!-- Node10&#45;&gt;Node6 -->
<g id="edge13" class="edge"><title>Node10&#45;&gt;Node6</title>
<path fill="none" stroke="midnightblue" d="M432.622,-247.602C481.126,-259.732 565.51,-282.057 636,-307 656.125,-314.121 678.197,-323.535 695.327,-331.211"/>
<polygon fill="midnightblue" stroke="midnightblue" points="694.236,-334.559 704.789,-335.499 697.125,-328.183 694.236,-334.559"/>
</g>
<!-- Node12&#45;&gt;Node5 -->
<g id="edge17" class="edge"><title>Node12&#45;&gt;Node5</title>
<path fill="none" stroke="midnightblue" d="M435.646,-392.411C458.148,-387.351 485.948,-381.1 509.738,-375.751"/>
<polygon fill="midnightblue" stroke="midnightblue" points="510.672,-379.129 519.661,-373.52 509.137,-372.299 510.672,-379.129"/>
</g>
<!-- Node12&#45;&gt;Node6 -->
<g id="edge18" class="edge"><title>Node12&#45;&gt;Node6</title>
<path fill="none" stroke="midnightblue" d="M448.822,-402.746C498.606,-402.21 573.124,-398.439 636,-383 657.55,-377.708 680.554,-367.762 697.775,-359.372"/>
<polygon fill="midnightblue" stroke="midnightblue" points="699.816,-362.265 707.192,-354.66 696.683,-356.005 699.816,-362.265"/>
</g>
<!-- Node14 -->
<g id="node14" class="node"><title>Node14</title>
<g id="a_node14"><a xlink:href="../../d4/db9/_open_a_l_sound_provider_8cpp.html#a0d61058bc8900801bc227bc7b47881d7" target="_top" xlink:title=" ">
<polygon fill="white" stroke="black" points="340.5,-7.5 340.5,-26.5 443.5,-26.5 443.5,-7.5 340.5,-7.5"/>
<text text-anchor="middle" x="392" y="-14.5" font-family="Helvetica,sans-Serif" font-size="10.00">CreateAudioSample</text>
</a>
</g>
</g>
<!-- Node13&#45;&gt;Node14 -->
<g id="edge20" class="edge"><title>Node13&#45;&gt;Node14</title>
<path fill="none" stroke="midnightblue" d="M240.698,-114.369C259.087,-99.4511 296.157,-70.262 330,-49 340.079,-42.6679 351.541,-36.4225 361.788,-31.1534"/>
<polygon fill="midnightblue" stroke="midnightblue" points="363.431,-34.2447 370.782,-26.6145 360.277,-27.9954 363.431,-34.2447"/>
</g>
<!-- Node16 -->
<g id="node16" class="node"><title>Node16</title>
<g id="a_node16"><a xlink:href="../../d7/dc2/class_audio_player.html#ae30d2f6cbd73b8e316a47b4694fe8960" target="_top" xlink:title=" ">
<polygon fill="white" stroke="black" points="330,-114.5 330,-133.5 454,-133.5 454,-114.5 330,-114.5"/>
<text text-anchor="middle" x="392" y="-121.5" font-family="Helvetica,sans-Serif" font-size="10.00">AudioPlayer::LoadSound</text>
</a>
</g>
</g>
<!-- Node13&#45;&gt;Node16 -->
<g id="edge22" class="edge"><title>Node13&#45;&gt;Node16</title>
<path fill="none" stroke="midnightblue" d="M289.323,-124C299.241,-124 309.602,-124 319.756,-124"/>
<polygon fill="midnightblue" stroke="midnightblue" points="319.816,-127.5 329.816,-124 319.816,-120.5 319.816,-127.5"/>
</g>
<!-- Node21 -->
<g id="node21" class="node"><title>Node21</title>
<g id="a_node21"><a xlink:href="../../d6/d70/class_log.html#ac0de2621497ca3b2fbf208624c08bcdf" target="_top" xlink:title=" ">
<polygon fill="white" stroke="black" points="526,-190.5 526,-209.5 600,-209.5 600,-190.5 526,-190.5"/>
<text text-anchor="middle" x="563" y="-197.5" font-family="Helvetica,sans-Serif" font-size="10.00">Log::Warning</text>
</a>
</g>
</g>
<!-- Node13&#45;&gt;Node21 -->
<g id="edge30" class="edge"><title>Node13&#45;&gt;Node21</title>
<path fill="none" stroke="midnightblue" d="M270.837,-133.548C333.348,-147.815 450.713,-174.601 515.716,-189.437"/>
<polygon fill="midnightblue" stroke="midnightblue" points="515.155,-192.898 525.683,-191.711 516.712,-186.074 515.155,-192.898"/>
</g>
<!-- Node22 -->
<g id="node22" class="node"><title>Node22</title>
<g id="a_node22"><a xlink:href="../../d9/d98/class_open_a_l_sound_provider.html#a25ac61cd13253bb659672a1cc29ef22c" target="_top" xlink:title=" ">
<polygon fill="white" stroke="black" points="335,-59 335,-89 449,-89 449,-59 335,-59"/>
<text text-anchor="start" x="343" y="-77" font-family="Helvetica,sans-Serif" font-size="10.00">OpenALSoundProvider</text>
<text text-anchor="middle" x="392" y="-66" font-family="Helvetica,sans-Serif" font-size="10.00">::SetListenerPosition</text>
</a>
</g>
</g>
<!-- Node13&#45;&gt;Node22 -->
<g id="edge28" class="edge"><title>Node13&#45;&gt;Node22</title>
<path fill="none" stroke="midnightblue" d="M259.852,-114.478C280.356,-108.149 307.929,-99.6393 332.501,-92.0554"/>
<polygon fill="midnightblue" stroke="midnightblue" points="333.581,-95.385 342.104,-89.0915 331.516,-88.6963 333.581,-95.385"/>
</g>
<!-- Node15 -->
<g id="node15" class="node"><title>Node15</title>
<g id="a_node15"><a xlink:href="../../da/def/_media_8h.html#ab508e4ee3c70ec5e60273ec99af30a2e" target="_top" xlink:title=" ">
<polygon fill="white" stroke="black" points="490,-0.5 490,-19.5 636,-19.5 636,-0.5 490,-0.5"/>
<text text-anchor="middle" x="563" y="-7.5" font-family="Helvetica,sans-Serif" font-size="10.00">CreateAudioBufferDataSource</text>
</a>
</g>
</g>
<!-- Node14&#45;&gt;Node15 -->
<g id="edge21" class="edge"><title>Node14&#45;&gt;Node15</title>
<path fill="none" stroke="midnightblue" d="M443.706,-14.8998C455.023,-14.431 467.31,-13.9221 479.539,-13.4156"/>
<polygon fill="midnightblue" stroke="midnightblue" points="479.929,-16.9025 489.775,-12.9916 479.639,-9.90849 479.929,-16.9025"/>
</g>
<!-- Node17 -->
<g id="node17" class="node"><title>Node17</title>
<g id="a_node17"><a xlink:href="../../da/d6a/_mem_buffer_8cpp.html#a685632d9cd2b61b24a9bfc649d54937e" target="_top" xlink:title=" ">
<polygon fill="white" stroke="black" points="520.5,-152.5 520.5,-171.5 605.5,-171.5 605.5,-152.5 520.5,-152.5"/>
<text text-anchor="middle" x="563" y="-159.5" font-family="Helvetica,sans-Serif" font-size="10.00">AllocMemBuffer</text>
</a>
</g>
</g>
<!-- Node16&#45;&gt;Node17 -->
<g id="edge23" class="edge"><title>Node16&#45;&gt;Node17</title>
<path fill="none" stroke="midnightblue" d="M435.646,-133.589C458.319,-138.687 486.371,-144.995 510.28,-150.371"/>
<polygon fill="midnightblue" stroke="midnightblue" points="509.721,-153.832 520.245,-152.611 511.256,-147.003 509.721,-153.832"/>
</g>
<!-- Node18 -->
<g id="node18" class="node"><title>Node18</title>
<g id="a_node18"><a xlink:href="../../d7/dc2/class_audio_player.html#aac82d03b250711ed0ce64fa22dfe3a59" target="_top" xlink:title=" ">
<polygon fill="white" stroke="black" points="502,-114.5 502,-133.5 624,-133.5 624,-114.5 502,-114.5"/>
<text text-anchor="middle" x="563" y="-121.5" font-family="Helvetica,sans-Serif" font-size="10.00">AudioPlayer::FindSound</text>
</a>
</g>
</g>
<!-- Node16&#45;&gt;Node18 -->
<g id="edge24" class="edge"><title>Node16&#45;&gt;Node18</title>
<path fill="none" stroke="midnightblue" d="M454.013,-124C466.201,-124 479.096,-124 491.571,-124"/>
<polygon fill="midnightblue" stroke="midnightblue" points="491.926,-127.5 501.926,-124 491.926,-120.5 491.926,-127.5"/>
</g>
<!-- Node20 -->
<g id="node20" class="node"><title>Node20</title>
<g id="a_node20"><a xlink:href="../../d9/d3e/namespacezlib.html#ae552beaf4387a81c63a28b01a9cc7ab4" target="_top" xlink:title=" ">
<polygon fill="white" stroke="black" points="517,-76.5 517,-95.5 609,-95.5 609,-76.5 517,-76.5"/>
<text text-anchor="middle" x="563" y="-83.5" font-family="Helvetica,sans-Serif" font-size="10.00">zlib::Uncompress</text>
</a>
</g>
</g>
<!-- Node16&#45;&gt;Node20 -->
<g id="edge26" class="edge"><title>Node16&#45;&gt;Node20</title>
<path fill="none" stroke="midnightblue" d="M435.646,-114.411C458.148,-109.351 485.948,-103.1 509.738,-97.7512"/>
<polygon fill="midnightblue" stroke="midnightblue" points="510.672,-101.129 519.661,-95.5201 509.137,-94.2991 510.672,-101.129"/>
</g>
<!-- Node16&#45;&gt;Node21 -->
<g id="edge27" class="edge"><title>Node16&#45;&gt;Node21</title>
<path fill="none" stroke="midnightblue" d="M423.529,-133.506C433.612,-137.289 444.638,-142.151 454,-148 472.408,-159.5 470.952,-170.594 490,-181 498.082,-185.415 507.241,-188.844 516.252,-191.494"/>
<polygon fill="midnightblue" stroke="midnightblue" points="515.349,-194.875 525.913,-194.074 517.155,-188.112 515.349,-194.875"/>
</g>
<!-- Node19 -->
<g id="node19" class="node"><title>Node19</title>
<g id="a_node19"><a xlink:href="../../d8/d44/_strings_8cpp.html#ae591bae1416df2b3638ae859ad4ede6f" target="_top" xlink:title=" ">
<polygon fill="white" stroke="black" points="693,-114.5 693,-133.5 759,-133.5 759,-114.5 693,-114.5"/>
<text text-anchor="middle" x="726" y="-121.5" font-family="Helvetica,sans-Serif" font-size="10.00">MakeLower</text>
</a>
</g>
</g>
<!-- Node18&#45;&gt;Node19 -->
<g id="edge25" class="edge"><title>Node18&#45;&gt;Node19</title>
<path fill="none" stroke="midnightblue" d="M624.409,-124C643.802,-124 664.856,-124 682.668,-124"/>
<polygon fill="midnightblue" stroke="midnightblue" points="682.743,-127.5 692.743,-124 682.743,-120.5 682.743,-127.5"/>
</g>
<!-- Node23 -->
<g id="node23" class="node"><title>Node23</title>
<g id="a_node23"><a xlink:href="../../d1/d20/al_8h.html#acb8f6904370d9946f4ea496e21729415" target="_top" xlink:title=" ">
<polygon fill="white" stroke="black" points="530,-38.5 530,-57.5 596,-57.5 596,-38.5 530,-38.5"/>
<text text-anchor="middle" x="563" y="-45.5" font-family="Helvetica,sans-Serif" font-size="10.00">alListener3f</text>
</a>
</g>
</g>
<!-- Node22&#45;&gt;Node23 -->
<g id="edge29" class="edge"><title>Node22&#45;&gt;Node23</title>
<path fill="none" stroke="midnightblue" d="M449.275,-65.3424C472.214,-61.8132 498.29,-57.8016 519.58,-54.5262"/>
<polygon fill="midnightblue" stroke="midnightblue" points="520.26,-57.9627 529.612,-52.9828 519.196,-51.0441 520.26,-57.9627"/>
</g>
</g>
</svg>
