<?xml version="1.0" encoding="UTF-8" standalone="no"?>
<!DOCTYPE svg PUBLIC "-//W3C//DTD SVG 1.1//EN"
 "http://www.w3.org/Graphics/SVG/1.1/DTD/svg11.dtd">
<!-- Generated by graphviz version 2.38.0 (20140413.2041)
 -->
<!-- Title: SpellStats::Initialize Pages: 1 -->
<svg width="415pt" height="116pt"
 viewBox="0.00 0.00 415.00 115.50" xmlns="http://www.w3.org/2000/svg" xmlns:xlink="http://www.w3.org/1999/xlink">
<g id="graph0" class="graph" transform="scale(1 1) rotate(0) translate(4 111.5)">
<title>SpellStats::Initialize</title>
<polygon fill="white" stroke="none" points="-4,4 -4,-111.5 411,-111.5 411,4 -4,4"/>
<!-- Node1 -->
<g id="node1" class="node"><title>Node1</title>
<g id="a_node1"><a xlink:title=" ">
<polygon fill="#bfbfbf" stroke="black" points="0,-38.5 0,-57.5 103,-57.5 103,-38.5 0,-38.5"/>
<text text-anchor="middle" x="51.5" y="-45.5" font-family="Helvetica,sans-Serif" font-size="10.00">SpellStats::Initialize</text>
</a>
</g>
</g>
<!-- Node2 -->
<g id="node2" class="node"><title>Node2</title>
<g id="a_node2"><a xlink:href="../../dd/da7/class_l_o_d_1_1_file.html#af2af972a90784bbcfa975ccd0346385d" target="_top" xlink:title=" ">
<polygon fill="white" stroke="black" points="139,-77 139,-107 279,-107 279,-77 139,-77"/>
<text text-anchor="start" x="147" y="-95" font-family="Helvetica,sans-Serif" font-size="10.00">LOD::File::LoadCompressed</text>
<text text-anchor="middle" x="209" y="-84" font-family="Helvetica,sans-Serif" font-size="10.00">Texture</text>
</a>
</g>
</g>
<!-- Node1&#45;&gt;Node2 -->
<g id="edge1" class="edge"><title>Node1&#45;&gt;Node2</title>
<path fill="none" stroke="midnightblue" d="M86.2412,-57.5473C103.436,-62.4128 124.913,-68.4898 145.021,-74.1796"/>
<polygon fill="midnightblue" stroke="midnightblue" points="144.182,-77.5797 154.758,-76.9346 146.088,-70.8441 144.182,-77.5797"/>
</g>
<!-- Node4 -->
<g id="node4" class="node"><title>Node4</title>
<g id="a_node4"><a xlink:href="../../de/df7/_strings_8h.html#a789f57a6ffe0251d575c135969eb35fa" target="_top" xlink:title=" ">
<polygon fill="white" stroke="black" points="167.5,-38.5 167.5,-57.5 250.5,-57.5 250.5,-38.5 167.5,-38.5"/>
<text text-anchor="middle" x="209" y="-45.5" font-family="Helvetica,sans-Serif" font-size="10.00">RemoveQuotes</text>
</a>
</g>
</g>
<!-- Node1&#45;&gt;Node4 -->
<g id="edge3" class="edge"><title>Node1&#45;&gt;Node4</title>
<path fill="none" stroke="midnightblue" d="M103.417,-48C120.581,-48 139.733,-48 156.911,-48"/>
<polygon fill="midnightblue" stroke="midnightblue" points="157.316,-51.5001 167.316,-48 157.316,-44.5001 157.316,-51.5001"/>
</g>
<!-- Node5 -->
<g id="node5" class="node"><title>Node5</title>
<g id="a_node5"><a xlink:href="../../dd/d8c/_localization_8cpp.html#ae146e86f2bb99e255b31df22155b2d79" target="_top" xlink:title=" ">
<polygon fill="white" stroke="black" points="181,-0.5 181,-19.5 237,-19.5 237,-0.5 181,-0.5"/>
<text text-anchor="middle" x="209" y="-7.5" font-family="Helvetica,sans-Serif" font-size="10.00">Tokenize</text>
</a>
</g>
</g>
<!-- Node1&#45;&gt;Node5 -->
<g id="edge4" class="edge"><title>Node1&#45;&gt;Node5</title>
<path fill="none" stroke="midnightblue" d="M91.7392,-38.411C115.987,-32.4856 146.919,-24.9264 170.782,-19.0952"/>
<polygon fill="midnightblue" stroke="midnightblue" points="171.652,-22.4855 180.535,-16.7116 169.99,-15.6856 171.652,-22.4855"/>
</g>
<!-- Node3 -->
<g id="node3" class="node"><title>Node3</title>
<g id="a_node3"><a xlink:href="../../d9/d3e/namespacezlib.html#ae552beaf4387a81c63a28b01a9cc7ab4" target="_top" xlink:title=" ">
<polygon fill="white" stroke="black" points="315,-82.5 315,-101.5 407,-101.5 407,-82.5 315,-82.5"/>
<text text-anchor="middle" x="361" y="-89.5" font-family="Helvetica,sans-Serif" font-size="10.00">zlib::Uncompress</text>
</a>
</g>
</g>
<!-- Node2&#45;&gt;Node3 -->
<g id="edge2" class="edge"><title>Node2&#45;&gt;Node3</title>
<path fill="none" stroke="midnightblue" d="M279.292,-92C287.82,-92 296.447,-92 304.728,-92"/>
<polygon fill="midnightblue" stroke="midnightblue" points="305,-95.5001 315,-92 305,-88.5001 305,-95.5001"/>
</g>
</g>
</svg>
