<?xml version="1.0" encoding="UTF-8" standalone="no"?>
<!DOCTYPE svg PUBLIC "-//W3C//DTD SVG 1.1//EN"
 "http://www.w3.org/Graphics/SVG/1.1/DTD/svg11.dtd">
<!-- Generated by graphviz version 2.38.0 (20140413.2041)
 -->
<!-- Title: AVHWFramesContext Pages: 1 -->
<svg width="260pt" height="296pt"
 viewBox="0.00 0.00 260.00 296.00" xmlns="http://www.w3.org/2000/svg" xmlns:xlink="http://www.w3.org/1999/xlink">
<g id="graph0" class="graph" transform="scale(1 1) rotate(0) translate(4 292)">
<title>AVHWFramesContext</title>
<polygon fill="white" stroke="none" points="-4,4 -4,-292 256,-292 256,4 -4,4"/>
<!-- Node1 -->
<g id="node1" class="node"><title>Node1</title>
<g id="a_node1"><a xlink:title=" ">
<polygon fill="#bfbfbf" stroke="black" points="54,-0.5 54,-19.5 167,-19.5 167,-0.5 54,-0.5"/>
<text text-anchor="middle" x="110.5" y="-7.5" font-family="Helvetica,sans-Serif" font-size="10.00">AVHWFramesContext</text>
</a>
</g>
</g>
<!-- Node2 -->
<g id="node2" class="node"><title>Node2</title>
<g id="a_node2"><a xlink:href="../../d2/de1/struct_a_v_class.html" target="_top" xlink:title=" ">
<polygon fill="white" stroke="black" points="5,-134.5 5,-153.5 60,-153.5 60,-134.5 5,-134.5"/>
<text text-anchor="middle" x="32.5" y="-141.5" font-family="Helvetica,sans-Serif" font-size="10.00">AVClass</text>
</a>
</g>
</g>
<!-- Node2&#45;&gt;Node1 -->
<g id="edge1" class="edge"><title>Node2&#45;&gt;Node1</title>
<path fill="none" stroke="#9a32cd" stroke-dasharray="5,2" d="M18.4211,-126.132C6.89697,-110.145 -5.80602,-85.8434 5.5,-67 20.5405,-41.9325 51.0333,-27.4675 75.3013,-19.5427"/>
<polygon fill="#9a32cd" stroke="#9a32cd" points="15.6641,-128.288 24.5422,-134.07 21.2075,-124.013 15.6641,-128.288"/>
<text text-anchor="middle" x="26" y="-74.5" font-family="Helvetica,sans-Serif" font-size="10.00"> av_class</text>
</g>
<!-- Node2&#45;&gt;Node2 -->
<g id="edge2" class="edge"><title>Node2&#45;&gt;Node2</title>
<path fill="none" stroke="#9a32cd" stroke-dasharray="5,2" d="M70.072,-149.242C74.8497,-148.325 78,-146.578 78,-144 78,-139.875 69.9353,-137.877 60.0434,-138.006"/>
<polygon fill="#9a32cd" stroke="#9a32cd" points="69.7536,-145.756 60.0434,-149.994 70.2773,-152.736 69.7536,-145.756"/>
<text text-anchor="middle" x="116" y="-141.5" font-family="Helvetica,sans-Serif" font-size="10.00"> child_class_next</text>
</g>
<!-- Node5 -->
<g id="node5" class="node"><title>Node5</title>
<g id="a_node5"><a xlink:href="../../d1/d5e/struct_a_v_h_w_device_context.html" target="_top" xlink:title=" ">
<polygon fill="white" stroke="black" points="56,-67.5 56,-86.5 165,-86.5 165,-67.5 56,-67.5"/>
<text text-anchor="middle" x="110.5" y="-74.5" font-family="Helvetica,sans-Serif" font-size="10.00">AVHWDeviceContext</text>
</a>
</g>
</g>
<!-- Node2&#45;&gt;Node5 -->
<g id="edge6" class="edge"><title>Node2&#45;&gt;Node5</title>
<path fill="none" stroke="#9a32cd" stroke-dasharray="5,2" d="M50.8439,-127.713C66.2116,-114.907 87.5939,-97.0884 100.147,-86.6273"/>
<polygon fill="#9a32cd" stroke="#9a32cd" points="48.461,-125.143 43.0194,-134.234 52.9423,-130.521 48.461,-125.143"/>
<text text-anchor="middle" x="97" y="-108" font-family="Helvetica,sans-Serif" font-size="10.00"> av_class</text>
</g>
<!-- Node3 -->
<g id="node3" class="node"><title>Node3</title>
<g id="a_node3"><a xlink:href="../../d3/ded/struct_a_v_option.html" target="_top" xlink:title=" ">
<polygon fill="white" stroke="black" points="3,-201.5 3,-220.5 62,-220.5 62,-201.5 3,-201.5"/>
<text text-anchor="middle" x="32.5" y="-208.5" font-family="Helvetica,sans-Serif" font-size="10.00">AVOption</text>
</a>
</g>
</g>
<!-- Node3&#45;&gt;Node2 -->
<g id="edge3" class="edge"><title>Node3&#45;&gt;Node2</title>
<path fill="none" stroke="#9a32cd" stroke-dasharray="5,2" d="M32.5,-191.037C32.5,-178.67 32.5,-163.12 32.5,-153.627"/>
<polygon fill="#9a32cd" stroke="#9a32cd" points="29.0001,-191.234 32.5,-201.234 36.0001,-191.234 29.0001,-191.234"/>
<text text-anchor="middle" x="47.5" y="-175" font-family="Helvetica,sans-Serif" font-size="10.00"> option</text>
</g>
<!-- Node4 -->
<g id="node4" class="node"><title>Node4</title>
<g id="a_node4"><a xlink:href="../../d7/d28/struct_a_v_rational.html" target="_top" xlink:title=" ">
<polygon fill="white" stroke="black" points="0,-268.5 0,-287.5 65,-287.5 65,-268.5 0,-268.5"/>
<text text-anchor="middle" x="32.5" y="-275.5" font-family="Helvetica,sans-Serif" font-size="10.00">AVRational</text>
</a>
</g>
</g>
<!-- Node4&#45;&gt;Node3 -->
<g id="edge4" class="edge"><title>Node4&#45;&gt;Node3</title>
<path fill="none" stroke="#9a32cd" stroke-dasharray="5,2" d="M32.5,-258.037C32.5,-245.67 32.5,-230.12 32.5,-220.627"/>
<polygon fill="#9a32cd" stroke="#9a32cd" points="29.0001,-258.234 32.5,-268.234 36.0001,-258.234 29.0001,-258.234"/>
<text text-anchor="middle" x="37" y="-242" font-family="Helvetica,sans-Serif" font-size="10.00"> q</text>
</g>
<!-- Node5&#45;&gt;Node1 -->
<g id="edge5" class="edge"><title>Node5&#45;&gt;Node1</title>
<path fill="none" stroke="#9a32cd" stroke-dasharray="5,2" d="M110.5,-57.037C110.5,-44.6703 110.5,-29.1198 110.5,-19.6273"/>
<polygon fill="#9a32cd" stroke="#9a32cd" points="107,-57.2338 110.5,-67.2338 114,-57.2338 107,-57.2338"/>
<text text-anchor="middle" x="135" y="-41" font-family="Helvetica,sans-Serif" font-size="10.00"> device_ctx</text>
</g>
<!-- Node6 -->
<g id="node6" class="node"><title>Node6</title>
<g id="a_node6"><a xlink:href="../../d0/dc0/struct_a_v_buffer_ref.html" target="_top" xlink:title=" ">
<polygon fill="white" stroke="black" points="183,-67.5 183,-86.5 252,-86.5 252,-67.5 183,-67.5"/>
<text text-anchor="middle" x="217.5" y="-74.5" font-family="Helvetica,sans-Serif" font-size="10.00">AVBufferRef</text>
</a>
</g>
</g>
<!-- Node6&#45;&gt;Node1 -->
<g id="edge7" class="edge"><title>Node6&#45;&gt;Node1</title>
<path fill="none" stroke="#9a32cd" stroke-dasharray="5,2" d="M198.114,-61.3514C188.023,-53.9879 175.348,-45.1372 163.5,-38 152.355,-31.2859 139.341,-24.6403 128.999,-19.6222"/>
<polygon fill="#9a32cd" stroke="#9a32cd" points="196.11,-64.223 206.23,-67.3591 200.275,-58.5965 196.11,-64.223"/>
<text text-anchor="middle" x="203.5" y="-41" font-family="Helvetica,sans-Serif" font-size="10.00"> device_ref</text>
</g>
</g>
</svg>
