<?xml version="1.0" encoding="UTF-8" standalone="no"?>
<!DOCTYPE svg PUBLIC "-//W3C//DTD SVG 1.1//EN"
 "http://www.w3.org/Graphics/SVG/1.1/DTD/svg11.dtd">
<!-- Generated by graphviz version 2.38.0 (20140413.2041)
 -->
<!-- Title: arcomage_mouse::Inside Pages: 1 -->
<svg width="1096pt" height="66pt"
 viewBox="0.00 0.00 1096.00 66.00" xmlns="http://www.w3.org/2000/svg" xmlns:xlink="http://www.w3.org/1999/xlink">
<g id="graph0" class="graph" transform="scale(1 1) rotate(0) translate(4 62)">
<title>arcomage_mouse::Inside</title>
<polygon fill="white" stroke="none" points="-4,4 -4,-62 1092,-62 1092,4 -4,4"/>
<!-- Node1 -->
<g id="node1" class="node"><title>Node1</title>
<g id="a_node1"><a xlink:title=" ">
<polygon fill="#bfbfbf" stroke="black" points="963,-19.5 963,-38.5 1088,-38.5 1088,-19.5 963,-19.5"/>
<text text-anchor="middle" x="1025.5" y="-26.5" font-family="Helvetica,sans-Serif" font-size="10.00">arcomage_mouse::Inside</text>
</a>
</g>
</g>
<!-- Node2 -->
<g id="node2" class="node"><title>Node2</title>
<g id="a_node2"><a xlink:href="../../d3/d70/_arcomage_2_arcomage_8cpp.html#a4bf8d6c31d05d20eff988ca0825b7d9a" target="_top" xlink:title=" ">
<polygon fill="white" stroke="black" points="814,-19.5 814,-38.5 927,-38.5 927,-19.5 814,-19.5"/>
<text text-anchor="middle" x="870.5" y="-26.5" font-family="Helvetica,sans-Serif" font-size="10.00">DrawCardsRectangles</text>
</a>
</g>
</g>
<!-- Node1&#45;&gt;Node2 -->
<g id="edge1" class="edge"><title>Node1&#45;&gt;Node2</title>
<path fill="none" stroke="midnightblue" d="M952.685,-29C944.091,-29 935.419,-29 927.103,-29"/>
<polygon fill="midnightblue" stroke="midnightblue" points="952.71,-32.5001 962.71,-29 952.71,-25.5001 952.71,-32.5001"/>
</g>
<!-- Node3 -->
<g id="node3" class="node"><title>Node3</title>
<g id="a_node3"><a xlink:href="../../d3/d70/_arcomage_2_arcomage_8cpp.html#ab809b05bad30ea060faa30704e9e75ec" target="_top" xlink:title=" ">
<polygon fill="white" stroke="black" points="704,-38.5 704,-57.5 778,-57.5 778,-38.5 704,-38.5"/>
<text text-anchor="middle" x="741" y="-45.5" font-family="Helvetica,sans-Serif" font-size="10.00">DrawGameUI</text>
</a>
</g>
</g>
<!-- Node2&#45;&gt;Node3 -->
<g id="edge2" class="edge"><title>Node2&#45;&gt;Node3</title>
<path fill="none" stroke="midnightblue" d="M803.986,-38.7629C795.147,-40.0801 786.354,-41.3904 778.286,-42.5927"/>
<polygon fill="midnightblue" stroke="midnightblue" points="804.573,-42.2142 813.948,-37.2784 803.541,-35.2906 804.573,-42.2142"/>
</g>
<!-- Node8 -->
<g id="node8" class="node"><title>Node8</title>
<g id="a_node8"><a xlink:href="../../d3/d70/_arcomage_2_arcomage_8cpp.html#aa002c458365a310e9988b642add051cf" target="_top" xlink:title=" ">
<polygon fill="white" stroke="black" points="605,-0.5 605,-19.5 668,-19.5 668,-0.5 605,-0.5"/>
<text text-anchor="middle" x="636.5" y="-7.5" font-family="Helvetica,sans-Serif" font-size="10.00">PlayerTurn</text>
</a>
</g>
</g>
<!-- Node2&#45;&gt;Node8 -->
<g id="edge9" class="edge"><title>Node2&#45;&gt;Node8</title>
<path fill="none" stroke="midnightblue" d="M803.764,-23.6165C759.237,-19.9698 702.459,-15.3199 668.097,-12.5058"/>
<polygon fill="midnightblue" stroke="midnightblue" points="803.678,-27.121 813.93,-24.449 804.249,-20.1444 803.678,-27.121"/>
</g>
<!-- Node4 -->
<g id="node4" class="node"><title>Node4</title>
<g id="a_node4"><a xlink:href="../../d1/d67/struct_arcomage_game.html#af5f4ef42b2a0d72d14621a54895afb58" target="_top" xlink:title=" ">
<polygon fill="white" stroke="black" points="455,-19.5 455,-38.5 569,-38.5 569,-19.5 455,-19.5"/>
<text text-anchor="middle" x="512" y="-26.5" font-family="Helvetica,sans-Serif" font-size="10.00">ArcomageGame::Loop</text>
</a>
</g>
</g>
<!-- Node3&#45;&gt;Node4 -->
<g id="edge3" class="edge"><title>Node3&#45;&gt;Node4</title>
<path fill="none" stroke="midnightblue" d="M693.535,-44.1108C657.464,-41.0917 607.316,-36.8943 569.025,-33.6893"/>
<polygon fill="midnightblue" stroke="midnightblue" points="693.523,-47.622 703.78,-44.9684 694.107,-40.6464 693.523,-47.622"/>
</g>
<!-- Node3&#45;&gt;Node8 -->
<g id="edge7" class="edge"><title>Node3&#45;&gt;Node8</title>
<path fill="none" stroke="midnightblue" d="M704.616,-34.882C691.059,-29.8561 675.859,-24.2209 663.357,-19.5859"/>
<polygon fill="midnightblue" stroke="midnightblue" points="703.542,-38.2165 714.135,-38.411 705.975,-31.6531 703.542,-38.2165"/>
</g>
<!-- Node5 -->
<g id="node5" class="node"><title>Node5</title>
<g id="a_node5"><a xlink:href="../../d4/d06/class_application_1_1_game.html#aaa0ff18388b32b4e6198835a35e000d3" target="_top" xlink:title=" ">
<polygon fill="white" stroke="black" points="316,-14 316,-44 419,-44 419,-14 316,-14"/>
<text text-anchor="start" x="324" y="-32" font-family="Helvetica,sans-Serif" font-size="10.00">Application::Game::</text>
<text text-anchor="middle" x="367.5" y="-21" font-family="Helvetica,sans-Serif" font-size="10.00">GameLoop</text>
</a>
</g>
</g>
<!-- Node4&#45;&gt;Node5 -->
<g id="edge4" class="edge"><title>Node4&#45;&gt;Node5</title>
<path fill="none" stroke="midnightblue" d="M444.453,-29C436.006,-29 427.47,-29 419.323,-29"/>
<polygon fill="midnightblue" stroke="midnightblue" points="444.68,-32.5001 454.68,-29 444.68,-25.5001 444.68,-32.5001"/>
</g>
<!-- Node6 -->
<g id="node6" class="node"><title>Node6</title>
<g id="a_node6"><a xlink:href="../../d4/d06/class_application_1_1_game.html#a013ffd59e8fdf1c0a396da1dbe1681ca" target="_top" xlink:title=" ">
<polygon fill="white" stroke="black" points="156,-19.5 156,-38.5 280,-38.5 280,-19.5 156,-19.5"/>
<text text-anchor="middle" x="218" y="-26.5" font-family="Helvetica,sans-Serif" font-size="10.00">Application::Game::Loop</text>
</a>
</g>
</g>
<!-- Node5&#45;&gt;Node6 -->
<g id="edge5" class="edge"><title>Node5&#45;&gt;Node6</title>
<path fill="none" stroke="midnightblue" d="M305.59,-29C297.149,-29 288.478,-29 280.035,-29"/>
<polygon fill="midnightblue" stroke="midnightblue" points="305.739,-32.5001 315.739,-29 305.739,-25.5001 305.739,-32.5001"/>
</g>
<!-- Node7 -->
<g id="node7" class="node"><title>Node7</title>
<g id="a_node7"><a xlink:href="../../d4/d06/class_application_1_1_game.html#a96341ca5b54d90adc3ecb3bf0bcd2312" target="_top" xlink:title=" ">
<polygon fill="white" stroke="black" points="0,-19.5 0,-38.5 120,-38.5 120,-19.5 0,-19.5"/>
<text text-anchor="middle" x="60" y="-26.5" font-family="Helvetica,sans-Serif" font-size="10.00">Application::Game::Run</text>
</a>
</g>
</g>
<!-- Node6&#45;&gt;Node7 -->
<g id="edge6" class="edge"><title>Node6&#45;&gt;Node7</title>
<path fill="none" stroke="midnightblue" d="M145.546,-29C137.081,-29 128.513,-29 120.244,-29"/>
<polygon fill="midnightblue" stroke="midnightblue" points="145.792,-32.5001 155.792,-29 145.792,-25.5001 145.792,-32.5001"/>
</g>
<!-- Node8&#45;&gt;Node4 -->
<g id="edge8" class="edge"><title>Node8&#45;&gt;Node4</title>
<path fill="none" stroke="midnightblue" d="M594.911,-16.2954C586.747,-17.5616 578.029,-18.9139 569.437,-20.2464"/>
<polygon fill="midnightblue" stroke="midnightblue" points="595.559,-19.7369 604.904,-14.7455 594.486,-12.8196 595.559,-19.7369"/>
</g>
</g>
</svg>
