<?xml version="1.0" encoding="UTF-8" standalone="no"?>
<!DOCTYPE svg PUBLIC "-//W3C//DTD SVG 1.1//EN"
 "http://www.w3.org/Graphics/SVG/1.1/DTD/svg11.dtd">
<!-- Generated by graphviz version 2.38.0 (20140413.2041)
 -->
<!-- Title: Render::DrawTextureNew Pages: 1 -->
<svg width="613pt" height="113pt"
 viewBox="0.00 0.00 613.00 112.50" xmlns="http://www.w3.org/2000/svg" xmlns:xlink="http://www.w3.org/1999/xlink">
<g id="graph0" class="graph" transform="scale(1 1) rotate(0) translate(4 108.5)">
<title>Render::DrawTextureNew</title>
<polygon fill="white" stroke="none" points="-4,4 -4,-108.5 609,-108.5 609,4 -4,4"/>
<!-- Node1 -->
<g id="node1" class="node"><title>Node1</title>
<g id="a_node1"><a xlink:title=" ">
<polygon fill="#bfbfbf" stroke="black" points="0,-57.5 0,-76.5 126,-76.5 126,-57.5 0,-57.5"/>
<text text-anchor="middle" x="63" y="-64.5" font-family="Helvetica,sans-Serif" font-size="10.00">Render::DrawTextureNew</text>
</a>
</g>
</g>
<!-- Node2 -->
<g id="node2" class="node"><title>Node2</title>
<g id="a_node2"><a xlink:href="../../da/d7f/class_render.html#a6e9d9f7d871c6b41c38f09ce2d04c479" target="_top" xlink:title=" ">
<polygon fill="white" stroke="black" points="162,-74 162,-104 303,-104 303,-74 162,-74"/>
<text text-anchor="start" x="170" y="-92" font-family="Helvetica,sans-Serif" font-size="10.00">Render::DrawTextureCustom</text>
<text text-anchor="middle" x="232.5" y="-81" font-family="Helvetica,sans-Serif" font-size="10.00">Height</text>
</a>
</g>
</g>
<!-- Node1&#45;&gt;Node2 -->
<g id="edge1" class="edge"><title>Node1&#45;&gt;Node2</title>
<path fill="none" stroke="midnightblue" d="M126.371,-75.192C134.661,-76.2808 143.25,-77.4089 151.783,-78.5297"/>
<polygon fill="midnightblue" stroke="midnightblue" points="151.383,-82.0071 161.754,-79.8393 152.295,-75.0667 151.383,-82.0071"/>
</g>
<!-- Node4 -->
<g id="node4" class="node"><title>Node4</title>
<g id="a_node4"><a xlink:href="../../de/d73/class_image.html#a5093fa64598a4d7e0c70d43fe67e35cd" target="_top" xlink:title=" ">
<polygon fill="white" stroke="black" points="186.5,-35.5 186.5,-54.5 278.5,-54.5 278.5,-35.5 186.5,-35.5"/>
<text text-anchor="middle" x="232.5" y="-42.5" font-family="Helvetica,sans-Serif" font-size="10.00">Image::GetHeight</text>
</a>
</g>
</g>
<!-- Node1&#45;&gt;Node4 -->
<g id="edge3" class="edge"><title>Node1&#45;&gt;Node4</title>
<path fill="none" stroke="midnightblue" d="M126.371,-58.808C142.699,-56.6634 160.189,-54.3662 176.125,-52.2732"/>
<polygon fill="midnightblue" stroke="midnightblue" points="176.885,-55.7034 186.344,-50.9309 175.974,-48.763 176.885,-55.7034"/>
</g>
<!-- Node3 -->
<g id="node3" class="node"><title>Node3</title>
<g id="a_node3"><a xlink:href="../../da/d7f/class_render.html#aec7b0dafef8139a617d40a4604bbc3d4" target="_top" xlink:title=" ">
<polygon fill="white" stroke="black" points="339,-79.5 339,-98.5 470,-98.5 470,-79.5 339,-79.5"/>
<text text-anchor="middle" x="404.5" y="-86.5" font-family="Helvetica,sans-Serif" font-size="10.00">Render::BitmapWithImage</text>
</a>
</g>
</g>
<!-- Node2&#45;&gt;Node3 -->
<g id="edge2" class="edge"><title>Node2&#45;&gt;Node3</title>
<path fill="none" stroke="midnightblue" d="M303.136,-89C311.545,-89 320.162,-89 328.643,-89"/>
<polygon fill="midnightblue" stroke="midnightblue" points="328.896,-92.5001 338.896,-89 328.896,-85.5001 328.896,-92.5001"/>
</g>
<!-- Node5 -->
<g id="node5" class="node"><title>Node5</title>
<g id="a_node5"><a xlink:href="../../d9/d30/_s_d_l__assert_8h.html#afedcea68cf85ee469ab1ea390bbe0abb" target="_top" xlink:title=" ">
<polygon fill="white" stroke="black" points="517,-38.5 517,-57.5 594,-57.5 594,-38.5 517,-38.5"/>
<text text-anchor="middle" x="555.5" y="-45.5" font-family="Helvetica,sans-Serif" font-size="10.00">__debugbreak</text>
</a>
</g>
</g>
<!-- Node4&#45;&gt;Node5 -->
<g id="edge4" class="edge"><title>Node4&#45;&gt;Node5</title>
<path fill="none" stroke="midnightblue" d="M278.811,-45.4235C339.094,-45.9869 445.199,-46.9785 506.71,-47.5534"/>
<polygon fill="midnightblue" stroke="midnightblue" points="506.887,-51.0551 516.92,-47.6488 506.953,-44.0554 506.887,-51.0551"/>
</g>
<!-- Node6 -->
<g id="node6" class="node"><title>Node6</title>
<g id="a_node6"><a xlink:href="../../de/d73/class_image.html#a9b786ec61110907b38dda728bd281c73" target="_top" xlink:title=" ">
<polygon fill="white" stroke="black" points="346.5,-0.5 346.5,-19.5 462.5,-19.5 462.5,-0.5 346.5,-0.5"/>
<text text-anchor="middle" x="404.5" y="-7.5" font-family="Helvetica,sans-Serif" font-size="10.00">Image::LoadImageData</text>
</a>
</g>
</g>
<!-- Node4&#45;&gt;Node6 -->
<g id="edge5" class="edge"><title>Node4&#45;&gt;Node6</title>
<path fill="none" stroke="midnightblue" d="M278.611,-35.7125C299.68,-31.3747 324.978,-26.1662 347.28,-21.5747"/>
<polygon fill="midnightblue" stroke="midnightblue" points="348.201,-24.9586 357.29,-19.5139 346.789,-18.1024 348.201,-24.9586"/>
</g>
<!-- Node6&#45;&gt;Node5 -->
<g id="edge6" class="edge"><title>Node6&#45;&gt;Node5</title>
<path fill="none" stroke="midnightblue" d="M443.099,-19.589C462.584,-24.5583 486.575,-30.6767 507.296,-35.9613"/>
<polygon fill="midnightblue" stroke="midnightblue" points="506.617,-39.4001 517.171,-38.4799 508.346,-32.6172 506.617,-39.4001"/>
</g>
<!-- Node7 -->
<g id="node7" class="node"><title>Node7</title>
<g id="a_node7"><a xlink:href="../../d7/d42/class_image_loader.html#ad346c7973ae6f1d84a8c1fc655661319" target="_top" xlink:title=" ">
<polygon fill="white" stroke="black" points="506,-0.5 506,-19.5 605,-19.5 605,-0.5 506,-0.5"/>
<text text-anchor="middle" x="555.5" y="-7.5" font-family="Helvetica,sans-Serif" font-size="10.00">ImageLoader::Load</text>
</a>
</g>
</g>
<!-- Node6&#45;&gt;Node7 -->
<g id="edge7" class="edge"><title>Node6&#45;&gt;Node7</title>
<path fill="none" stroke="midnightblue" d="M462.681,-10C473.503,-10 484.84,-10 495.71,-10"/>
<polygon fill="midnightblue" stroke="midnightblue" points="495.957,-13.5001 505.957,-10 495.957,-6.5001 495.957,-13.5001"/>
</g>
</g>
</svg>
