<?xml version="1.0" encoding="UTF-8" standalone="no"?>
<!DOCTYPE svg PUBLIC "-//W3C//DTD SVG 1.1//EN"
 "http://www.w3.org/Graphics/SVG/1.1/DTD/svg11.dtd">
<!-- Generated by graphviz version 2.38.0 (20140413.2041)
 -->
<!-- Title: Render::am_Blt_Chroma Pages: 1 -->
<!--zoomable 684 -->
<svg id="main" version="1.1" xmlns="http://www.w3.org/2000/svg" xmlns:xlink="http://www.w3.org/1999/xlink" xml:space="preserve" onload="init(evt)">
<style type="text/css"><![CDATA[
.edge:hover path { stroke: red; }
.edge:hover polygon { stroke: red; fill: red; }
]]></style>
<script type="text/javascript"><![CDATA[
var edges = document.getElementsByTagName('g');
if (edges && edges.length) {
  for (var i=0;i<edges.length;i++) {
    if (edges[i].id.substr(0,4)=='edge') {
      edges[i].setAttribute('class','edge');
    }
  }
}
]]></script>
        <defs>
                <circle id="rim" cx="0" cy="0" r="7"/>
                <circle id="rim2" cx="0" cy="0" r="3.5"/>
                <g id="zoomPlus">
                        <use xlink:href="#rim" fill="#404040">
                                <set attributeName="fill" to="#808080" begin="zoomplus.mouseover" end="zoomplus.mouseout"/>
                        </use>
                        <path d="M-4,0h8M0,-4v8" fill="none" stroke="white" stroke-width="1.5" pointer-events="none"/>
                </g>
                <g id="zoomMin">
                        <use xlink:href="#rim" fill="#404040">
                                <set attributeName="fill" to="#808080" begin="zoomminus.mouseover" end="zoomminus.mouseout"/>
                        </use>
                        <path d="M-4,0h8" fill="none" stroke="white" stroke-width="1.5" pointer-events="none"/>
                </g>
                <g id="dirArrow">
                        <path fill="none" stroke="white" stroke-width="1.5" d="M0,-3.0v7 M-2.5,-0.5L0,-3.0L2.5,-0.5"/>
                </g>
               <g id="resetDef">
                       <use xlink:href="#rim2" fill="#404040">
                               <set attributeName="fill" to="#808080" begin="reset.mouseover" end="reset.mouseout"/>
                       </use>
               </g>
        </defs>

<script type="text/javascript">
var viewWidth = 763;
var viewHeight = 684;
var sectionId = 'dynsection-74';
</script>
<script xlink:href="../../svgpan.js"/>
<svg id="graph" class="graph">
<g id="viewport">
<title>Render::am_Blt_Chroma</title>
<polygon fill="white" stroke="none" points="-4,4 -4,-680.021 759,-680.021 759,4 -4,4"/>
<!-- Node1 -->
<g id="node1" class="node"><title>Node1</title>
<g id="a_node1"><a xlink:title=" ">
<polygon fill="#bfbfbf" stroke="black" points="0,-427.5 0,-446.5 123,-446.5 123,-427.5 0,-427.5"/>
<text text-anchor="middle" x="61.5" y="-434.5" font-family="Helvetica,sans-Serif" font-size="10.00">Render::am_Blt_Chroma</text>
</a>
</g>
</g>
<!-- Node2 -->
<g id="node2" class="node"><title>Node2</title>
<g id="a_node2"><a xlink:href="../../d9/d30/_s_d_l__assert_8h.html#afedcea68cf85ee469ab1ea390bbe0abb" target="_top" xlink:title=" ">
<polygon fill="white" stroke="black" points="667,-152.5 667,-171.5 744,-171.5 744,-152.5 667,-152.5"/>
<text text-anchor="middle" x="705.5" y="-159.5" font-family="Helvetica,sans-Serif" font-size="10.00">__debugbreak</text>
</a>
</g>
</g>
<!-- Node1&#45;&gt;Node2 -->
<g id="edge1" class="edge"><title>Node1&#45;&gt;Node2</title>
<path fill="none" stroke="midnightblue" d="M64.3092,-446.596C70.7176,-477.608 95.4602,-575.523 159,-617 245.873,-673.708 521.035,-709.602 620,-627 689.646,-568.869 702.021,-264.226 704.1,-182.302"/>
<polygon fill="midnightblue" stroke="midnightblue" points="707.609,-181.964 704.338,-171.886 700.611,-181.804 707.609,-181.964"/>
</g>
<!-- Node3 -->
<g id="node3" class="node"><title>Node3</title>
<g id="a_node3"><a xlink:href="../../d4/d68/_engine_8cpp.html#a3fa4621a9002451f0e3066f2e027bfd3" target="_top" xlink:title=" ">
<polygon fill="white" stroke="black" points="180,-570.5 180,-589.5 230,-589.5 230,-570.5 180,-570.5"/>
<text text-anchor="middle" x="205" y="-577.5" font-family="Helvetica,sans-Serif" font-size="10.00">Color32</text>
</a>
</g>
</g>
<!-- Node1&#45;&gt;Node3 -->
<g id="edge2" class="edge"><title>Node1&#45;&gt;Node3</title>
<path fill="none" stroke="midnightblue" d="M67.7344,-446.747C80.4745,-469.644 115.284,-527.456 159,-561 162.578,-563.746 166.612,-566.171 170.758,-568.29"/>
<polygon fill="midnightblue" stroke="midnightblue" points="169.328,-571.484 179.879,-572.445 172.23,-565.114 169.328,-571.484"/>
</g>
<!-- Node4 -->
<g id="node4" class="node"><title>Node4</title>
<g id="a_node4"><a xlink:href="../../de/d73/class_image.html#aafa267b1b060db2b6bb76bd36c5812f0" target="_top" xlink:title=" ">
<polygon fill="white" stroke="black" points="166.5,-532.5 166.5,-551.5 243.5,-551.5 243.5,-532.5 166.5,-532.5"/>
<text text-anchor="middle" x="205" y="-539.5" font-family="Helvetica,sans-Serif" font-size="10.00">Image::Create</text>
</a>
</g>
</g>
<!-- Node1&#45;&gt;Node4 -->
<g id="edge4" class="edge"><title>Node1&#45;&gt;Node4</title>
<path fill="none" stroke="midnightblue" d="M75.5583,-446.69C100.093,-464.896 153.267,-504.354 182.927,-526.363"/>
<polygon fill="midnightblue" stroke="midnightblue" points="180.857,-529.185 190.973,-532.333 185.028,-523.564 180.857,-529.185"/>
</g>
<!-- Node7 -->
<g id="node7" class="node"><title>Node7</title>
<g id="a_node7"><a xlink:href="../../de/d73/class_image.html#acfd22d055cadfeed00655c82f4ffdaa2" target="_top" xlink:title=" ">
<polygon fill="white" stroke="black" points="159,-323.5 159,-342.5 251,-342.5 251,-323.5 159,-323.5"/>
<text text-anchor="middle" x="205" y="-330.5" font-family="Helvetica,sans-Serif" font-size="10.00">Image::GetPixels</text>
</a>
</g>
</g>
<!-- Node1&#45;&gt;Node7 -->
<g id="edge8" class="edge"><title>Node1&#45;&gt;Node7</title>
<path fill="none" stroke="midnightblue" d="M75.5583,-427.402C99.9875,-409.447 152.811,-370.623 182.544,-348.77"/>
<polygon fill="midnightblue" stroke="midnightblue" points="184.988,-351.317 190.973,-342.574 180.843,-345.677 184.988,-351.317"/>
</g>
<!-- Node11 -->
<g id="node11" class="node"><title>Node11</title>
<g id="a_node11"><a xlink:href="../../de/d73/class_image.html#a9241b1c53141c78273e4060a91634d47" target="_top" xlink:title=" ">
<polygon fill="white" stroke="black" points="324,-76.5 324,-95.5 414,-95.5 414,-76.5 324,-76.5"/>
<text text-anchor="middle" x="369" y="-83.5" font-family="Helvetica,sans-Serif" font-size="10.00">Image::GetWidth</text>
</a>
</g>
</g>
<!-- Node1&#45;&gt;Node11 -->
<g id="edge40" class="edge"><title>Node1&#45;&gt;Node11</title>
<path fill="none" stroke="midnightblue" d="M65.8117,-427.295C81.8292,-381.932 155.904,-189.341 287,-102 295.057,-96.6322 304.5,-92.9831 314.038,-90.5194"/>
<polygon fill="midnightblue" stroke="midnightblue" points="314.931,-93.907 323.957,-88.3587 313.442,-87.0674 314.931,-93.907"/>
</g>
<!-- Node33 -->
<g id="node33" class="node"><title>Node33</title>
<g id="a_node33"><a xlink:href="../../de/d73/class_image.html#a79e0e96332914caa0816c7d34822b9bf" target="_top" xlink:title=" ">
<polygon fill="white" stroke="black" points="163,-38.5 163,-57.5 247,-57.5 247,-38.5 163,-38.5"/>
<text text-anchor="middle" x="205" y="-45.5" font-family="Helvetica,sans-Serif" font-size="10.00">Image::Release</text>
</a>
</g>
</g>
<!-- Node1&#45;&gt;Node33 -->
<g id="edge41" class="edge"><title>Node1&#45;&gt;Node33</title>
<path fill="none" stroke="midnightblue" d="M65.9978,-427.384C84.54,-376.409 171.457,-137.465 196.953,-67.3729"/>
<polygon fill="midnightblue" stroke="midnightblue" points="200.369,-68.2219 200.498,-57.6279 193.79,-65.829 200.369,-68.2219"/>
</g>
<!-- Node3&#45;&gt;Node3 -->
<g id="edge3" class="edge"><title>Node3&#45;&gt;Node3</title>
<path fill="none" stroke="midnightblue" d="M183.114,-589.757C172.466,-598.565 179.762,-608 205,-608 221.563,-608 230.398,-603.937 231.506,-598.654"/>
<polygon fill="midnightblue" stroke="midnightblue" points="234.601,-597.019 226.886,-589.757 228.388,-600.245 234.601,-597.019"/>
</g>
<!-- Node4&#45;&gt;Node2 -->
<g id="edge5" class="edge"><title>Node4&#45;&gt;Node2</title>
<path fill="none" stroke="midnightblue" d="M233.6,-551.526C239.584,-554.163 245.702,-557.329 251,-561 270.122,-574.25 265.629,-589.808 287,-599 354.978,-628.24 562.923,-646.098 620,-599 685.621,-544.853 700.872,-260.542 703.854,-182.075"/>
<polygon fill="midnightblue" stroke="midnightblue" points="707.366,-181.795 704.222,-171.677 700.371,-181.547 707.366,-181.795"/>
</g>
<!-- Node5 -->
<g id="node5" class="node"><title>Node5</title>
<g id="a_node5"><a xlink:href="../../de/d73/class_image.html#acd9726d92935db3c39feda65e93ff54a" target="_top" xlink:title=" ">
<polygon fill="white" stroke="black" points="331.5,-570.5 331.5,-589.5 406.5,-589.5 406.5,-570.5 331.5,-570.5"/>
<text text-anchor="middle" x="369" y="-577.5" font-family="Helvetica,sans-Serif" font-size="10.00">Image::Image</text>
</a>
</g>
</g>
<!-- Node4&#45;&gt;Node5 -->
<g id="edge6" class="edge"><title>Node4&#45;&gt;Node5</title>
<path fill="none" stroke="midnightblue" d="M243.573,-550.813C266.822,-556.267 296.847,-563.31 321.578,-569.111"/>
<polygon fill="midnightblue" stroke="midnightblue" points="320.932,-572.554 331.467,-571.431 322.531,-565.739 320.932,-572.554"/>
</g>
<!-- Node6 -->
<g id="node6" class="node"><title>Node6</title>
<g id="a_node6"><a xlink:href="../../d0/dac/_image_8cpp.html#a2d49a4e268507e69f4afe34f9814b0df" target="_top" xlink:title=" ">
<polygon fill="white" stroke="black" points="288.5,-532.5 288.5,-551.5 449.5,-551.5 449.5,-532.5 288.5,-532.5"/>
<text text-anchor="middle" x="369" y="-539.5" font-family="Helvetica,sans-Serif" font-size="10.00">IMAGE_FORMAT_BytesPerPixel</text>
</a>
</g>
</g>
<!-- Node4&#45;&gt;Node6 -->
<g id="edge7" class="edge"><title>Node4&#45;&gt;Node6</title>
<path fill="none" stroke="midnightblue" d="M243.573,-542C254.089,-542 265.99,-542 278.161,-542"/>
<polygon fill="midnightblue" stroke="midnightblue" points="278.424,-545.5 288.424,-542 278.424,-538.5 278.424,-545.5"/>
</g>
<!-- Node7&#45;&gt;Node6 -->
<g id="edge28" class="edge"><title>Node7&#45;&gt;Node6</title>
<path fill="none" stroke="midnightblue" d="M207.082,-342.677C211.125,-374.026 228.264,-473.617 287,-523 288.983,-524.667 291.086,-526.194 293.282,-527.592"/>
<polygon fill="midnightblue" stroke="midnightblue" points="291.695,-530.713 302.159,-532.37 295.012,-524.549 291.695,-530.713"/>
</g>
<!-- Node8 -->
<g id="node8" class="node"><title>Node8</title>
<g id="a_node8"><a xlink:href="../../de/d73/class_image.html#a5093fa64598a4d7e0c70d43fe67e35cd" target="_top" xlink:title=" ">
<polygon fill="white" stroke="black" points="323,-228.5 323,-247.5 415,-247.5 415,-228.5 323,-228.5"/>
<text text-anchor="middle" x="369" y="-235.5" font-family="Helvetica,sans-Serif" font-size="10.00">Image::GetHeight</text>
</a>
</g>
</g>
<!-- Node7&#45;&gt;Node8 -->
<g id="edge9" class="edge"><title>Node7&#45;&gt;Node8</title>
<path fill="none" stroke="midnightblue" d="M213.346,-323.387C226.341,-307.085 255.047,-274.125 287,-257 295.04,-252.691 304.044,-249.351 313.045,-246.766"/>
<polygon fill="midnightblue" stroke="midnightblue" points="313.965,-250.143 322.766,-244.245 312.208,-243.367 313.965,-250.143"/>
</g>
<!-- Node9 -->
<g id="node9" class="node"><title>Node9</title>
<g id="a_node9"><a xlink:href="../../de/d73/class_image.html#a9b786ec61110907b38dda728bd281c73" target="_top" xlink:title=" ">
<polygon fill="white" stroke="black" points="495.5,-76.5 495.5,-95.5 611.5,-95.5 611.5,-76.5 495.5,-76.5"/>
<text text-anchor="middle" x="553.5" y="-83.5" font-family="Helvetica,sans-Serif" font-size="10.00">Image::LoadImageData</text>
</a>
</g>
</g>
<!-- Node7&#45;&gt;Node9 -->
<g id="edge38" class="edge"><title>Node7&#45;&gt;Node9</title>
<path fill="none" stroke="midnightblue" d="M209.544,-323.278C223.122,-286.253 271.819,-155.52 287,-143 294.973,-136.424 416.624,-112.107 492.458,-97.443"/>
<polygon fill="midnightblue" stroke="midnightblue" points="493.225,-100.86 502.381,-95.5287 491.899,-93.9864 493.225,-100.86"/>
</g>
<!-- Node7&#45;&gt;Node11 -->
<g id="edge14" class="edge"><title>Node7&#45;&gt;Node11</title>
<path fill="none" stroke="midnightblue" d="M209.708,-323.471C217.524,-303.328 236.187,-254.913 251,-214 267.652,-168.009 251.641,-143.797 287,-110 294.553,-102.781 304.174,-97.7213 314.128,-94.1781"/>
<polygon fill="midnightblue" stroke="midnightblue" points="315.189,-97.5134 323.716,-91.2247 313.129,-90.8235 315.189,-97.5134"/>
</g>
<!-- Node12 -->
<g id="node12" class="node"><title>Node12</title>
<g id="a_node12"><a xlink:href="../../d4/d94/_image_format_converter_8h.html#a7909743ad464882c31d015584940a7d9" target="_top" xlink:title=" ">
<polygon fill="white" stroke="black" points="287,-266.5 287,-285.5 451,-285.5 451,-266.5 287,-266.5"/>
<text text-anchor="middle" x="369" y="-273.5" font-family="Helvetica,sans-Serif" font-size="10.00">Image_A1R5G5B5_to_R8G8B8A8</text>
</a>
</g>
</g>
<!-- Node7&#45;&gt;Node12 -->
<g id="edge17" class="edge"><title>Node7&#45;&gt;Node12</title>
<path fill="none" stroke="midnightblue" d="M223.569,-323.45C239.683,-315.01 264.405,-302.854 287,-295 294.387,-292.432 302.272,-290.101 310.114,-288.021"/>
<polygon fill="midnightblue" stroke="midnightblue" points="311.15,-291.369 319.984,-285.521 309.431,-284.583 311.15,-291.369"/>
</g>
<!-- Node17 -->
<g id="node17" class="node"><title>Node17</title>
<g id="a_node17"><a xlink:href="../../d4/d94/_image_format_converter_8h.html#aa17c6708ec4c491b2fddb33456672faa" target="_top" xlink:title=" ">
<polygon fill="white" stroke="black" points="287,-152.5 287,-171.5 451,-171.5 451,-152.5 287,-152.5"/>
<text text-anchor="middle" x="369" y="-159.5" font-family="Helvetica,sans-Serif" font-size="10.00">Image_A8R8G8B8_to_A1R5G5B5</text>
</a>
</g>
</g>
<!-- Node7&#45;&gt;Node17 -->
<g id="edge22" class="edge"><title>Node7&#45;&gt;Node17</title>
<path fill="none" stroke="midnightblue" d="M208.18,-323.365C214.825,-296.304 237.469,-219.109 287,-181 289.361,-179.183 291.868,-177.536 294.481,-176.043"/>
<polygon fill="midnightblue" stroke="midnightblue" points="296.266,-179.066 303.719,-171.536 293.197,-172.775 296.266,-179.066"/>
</g>
<!-- Node19 -->
<g id="node19" class="node"><title>Node19</title>
<g id="a_node19"><a xlink:href="../../d4/d94/_image_format_converter_8h.html#ae3332c95890054f7cda680ad023eb719" target="_top" xlink:title=" ">
<polygon fill="white" stroke="black" points="293,-494.5 293,-513.5 445,-513.5 445,-494.5 293,-494.5"/>
<text text-anchor="middle" x="369" y="-501.5" font-family="Helvetica,sans-Serif" font-size="10.00">Image_A8R8G8B8_to_R5G6B5</text>
</a>
</g>
</g>
<!-- Node7&#45;&gt;Node19 -->
<g id="edge24" class="edge"><title>Node7&#45;&gt;Node19</title>
<path fill="none" stroke="midnightblue" d="M208.18,-342.635C214.825,-369.696 237.469,-446.891 287,-485 289.361,-486.817 291.868,-488.464 294.481,-489.957"/>
<polygon fill="midnightblue" stroke="midnightblue" points="293.197,-493.225 303.719,-494.464 296.266,-486.934 293.197,-493.225"/>
</g>
<!-- Node21 -->
<g id="node21" class="node"><title>Node21</title>
<g id="a_node21"><a xlink:href="../../d4/d94/_image_format_converter_8h.html#aee128ab402e6aaf80515a1badf12347d" target="_top" xlink:title=" ">
<polygon fill="white" stroke="black" points="287,-456.5 287,-475.5 451,-475.5 451,-456.5 287,-456.5"/>
<text text-anchor="middle" x="369" y="-463.5" font-family="Helvetica,sans-Serif" font-size="10.00">Image_A8R8G8B8_to_R8G8B8A8</text>
</a>
</g>
</g>
<!-- Node7&#45;&gt;Node21 -->
<g id="edge26" class="edge"><title>Node7&#45;&gt;Node21</title>
<path fill="none" stroke="midnightblue" d="M210.001,-342.756C219.662,-365.026 246.496,-419.78 287,-447 289.967,-448.994 293.118,-450.78 296.388,-452.38"/>
<polygon fill="midnightblue" stroke="midnightblue" points="295.299,-455.72 305.872,-456.412 298.039,-449.278 295.299,-455.72"/>
</g>
<!-- Node23 -->
<g id="node23" class="node"><title>Node23</title>
<g id="a_node23"><a xlink:href="../../d0/dac/_image_8cpp.html#ab982c37f51b50cdefe19261be0e15e13" target="_top" xlink:title=" ">
<polygon fill="white" stroke="black" points="301.5,-380.5 301.5,-399.5 436.5,-399.5 436.5,-380.5 301.5,-380.5"/>
<text text-anchor="middle" x="369" y="-387.5" font-family="Helvetica,sans-Serif" font-size="10.00">IMAGE_FORMAT_ToString</text>
</a>
</g>
</g>
<!-- Node7&#45;&gt;Node23 -->
<g id="edge29" class="edge"><title>Node7&#45;&gt;Node23</title>
<path fill="none" stroke="midnightblue" d="M223.569,-342.55C239.683,-350.99 264.405,-363.146 287,-371 294.387,-373.568 302.272,-375.899 310.114,-377.979"/>
<polygon fill="midnightblue" stroke="midnightblue" points="309.431,-381.417 319.984,-380.479 311.15,-374.631 309.431,-381.417"/>
</g>
<!-- Node24 -->
<g id="node24" class="node"><title>Node24</title>
<g id="a_node24"><a xlink:href="../../d4/d94/_image_format_converter_8h.html#a573e450ba52428d68be57bc280b7d9e5" target="_top" xlink:title=" ">
<polygon fill="white" stroke="black" points="293,-418.5 293,-437.5 445,-437.5 445,-418.5 293,-418.5"/>
<text text-anchor="middle" x="369" y="-425.5" font-family="Helvetica,sans-Serif" font-size="10.00">Image_R5G6B5_to_A8R8G8B8</text>
</a>
</g>
</g>
<!-- Node7&#45;&gt;Node24 -->
<g id="edge30" class="edge"><title>Node7&#45;&gt;Node24</title>
<path fill="none" stroke="midnightblue" d="M213.346,-342.613C226.341,-358.915 255.047,-391.875 287,-409 291.309,-411.309 295.894,-413.34 300.607,-415.125"/>
<polygon fill="midnightblue" stroke="midnightblue" points="299.819,-418.554 310.414,-418.457 302.071,-411.926 299.819,-418.554"/>
</g>
<!-- Node26 -->
<g id="node26" class="node"><title>Node26</title>
<g id="a_node26"><a xlink:href="../../d4/d94/_image_format_converter_8h.html#a0dc48a3cb903468a6845ef345689e23d" target="_top" xlink:title=" ">
<polygon fill="white" stroke="black" points="299,-342.5 299,-361.5 439,-361.5 439,-342.5 299,-342.5"/>
<text text-anchor="middle" x="369" y="-349.5" font-family="Helvetica,sans-Serif" font-size="10.00">Image_R5G6B5_to_R8G8B8</text>
</a>
</g>
</g>
<!-- Node7&#45;&gt;Node26 -->
<g id="edge32" class="edge"><title>Node7&#45;&gt;Node26</title>
<path fill="none" stroke="midnightblue" d="M251.126,-338.293C262.798,-339.662 275.716,-341.177 288.58,-342.685"/>
<polygon fill="midnightblue" stroke="midnightblue" points="288.521,-346.202 298.861,-343.891 289.336,-339.25 288.521,-346.202"/>
</g>
<!-- Node30 -->
<g id="node30" class="node"><title>Node30</title>
<g id="a_node30"><a xlink:href="../../d4/d94/_image_format_converter_8h.html#a2c1701231a84895f79d40614fa6b37fa" target="_top" xlink:title=" ">
<polygon fill="white" stroke="black" points="293,-304.5 293,-323.5 445,-323.5 445,-304.5 293,-304.5"/>
<text text-anchor="middle" x="369" y="-311.5" font-family="Helvetica,sans-Serif" font-size="10.00">Image_R5G6B5_to_R8G8B8A8</text>
</a>
</g>
</g>
<!-- Node7&#45;&gt;Node30 -->
<g id="edge36" class="edge"><title>Node7&#45;&gt;Node30</title>
<path fill="none" stroke="midnightblue" d="M251.126,-327.707C261.018,-326.547 271.804,-325.282 282.694,-324.005"/>
<polygon fill="midnightblue" stroke="midnightblue" points="283.178,-327.472 292.702,-322.831 282.363,-320.52 283.178,-327.472"/>
</g>
<!-- Node32 -->
<g id="node32" class="node"><title>Node32</title>
<g id="a_node32"><a xlink:href="../../d6/d70/class_log.html#ac0de2621497ca3b2fbf208624c08bcdf" target="_top" xlink:title=" ">
<polygon fill="white" stroke="black" points="332,-190.5 332,-209.5 406,-209.5 406,-190.5 332,-190.5"/>
<text text-anchor="middle" x="369" y="-197.5" font-family="Helvetica,sans-Serif" font-size="10.00">Log::Warning</text>
</a>
</g>
</g>
<!-- Node7&#45;&gt;Node32 -->
<g id="edge39" class="edge"><title>Node7&#45;&gt;Node32</title>
<path fill="none" stroke="midnightblue" d="M210.001,-323.244C219.662,-300.974 246.496,-246.22 287,-219 297.303,-212.076 309.816,-207.66 321.895,-204.848"/>
<polygon fill="midnightblue" stroke="midnightblue" points="322.766,-208.243 331.881,-202.843 321.388,-201.38 322.766,-208.243"/>
</g>
<!-- Node8&#45;&gt;Node2 -->
<g id="edge10" class="edge"><title>Node8&#45;&gt;Node2</title>
<path fill="none" stroke="midnightblue" d="M415.047,-232.275C427.258,-229.459 440.103,-225.259 451,-219 471.173,-207.412 466.049,-191.115 487,-181 540.677,-155.086 610.477,-153.839 656.339,-156.733"/>
<polygon fill="midnightblue" stroke="midnightblue" points="656.376,-160.244 666.602,-157.475 656.88,-153.263 656.376,-160.244"/>
</g>
<!-- Node8&#45;&gt;Node9 -->
<g id="edge11" class="edge"><title>Node8&#45;&gt;Node9</title>
<path fill="none" stroke="midnightblue" d="M415.138,-235.722C428.054,-233.03 441.256,-228.035 451,-219 489.961,-182.874 448.99,-142.126 487,-105 488.493,-103.542 490.091,-102.194 491.772,-100.949"/>
<polygon fill="midnightblue" stroke="midnightblue" points="494.005,-103.69 500.773,-95.5388 490.399,-97.6909 494.005,-103.69"/>
</g>
<!-- Node9&#45;&gt;Node2 -->
<g id="edge12" class="edge"><title>Node9&#45;&gt;Node2</title>
<path fill="none" stroke="midnightblue" d="M594.713,-95.5217C603.244,-98.1298 612.065,-101.285 620,-105 643.664,-116.079 668.141,-133.341 684.621,-145.967"/>
<polygon fill="midnightblue" stroke="midnightblue" points="682.864,-149.035 692.898,-152.436 687.174,-143.52 682.864,-149.035"/>
</g>
<!-- Node10 -->
<g id="node10" class="node"><title>Node10</title>
<g id="a_node10"><a xlink:href="../../d7/d42/class_image_loader.html#ad346c7973ae6f1d84a8c1fc655661319" target="_top" xlink:title=" ">
<polygon fill="white" stroke="black" points="656,-76.5 656,-95.5 755,-95.5 755,-76.5 656,-76.5"/>
<text text-anchor="middle" x="705.5" y="-83.5" font-family="Helvetica,sans-Serif" font-size="10.00">ImageLoader::Load</text>
</a>
</g>
</g>
<!-- Node9&#45;&gt;Node10 -->
<g id="edge13" class="edge"><title>Node9&#45;&gt;Node10</title>
<path fill="none" stroke="midnightblue" d="M611.636,-86C622.793,-86 634.509,-86 645.718,-86"/>
<polygon fill="midnightblue" stroke="midnightblue" points="645.838,-89.5001 655.838,-86 645.838,-82.5001 645.838,-89.5001"/>
</g>
<!-- Node11&#45;&gt;Node2 -->
<g id="edge15" class="edge"><title>Node11&#45;&gt;Node2</title>
<path fill="none" stroke="midnightblue" d="M414.083,-77.6383C475.789,-66.7799 584.36,-51.0021 620,-67 624.656,-69.0901 666.703,-117.761 689.674,-144.605"/>
<polygon fill="midnightblue" stroke="midnightblue" points="687.233,-147.137 696.39,-152.467 692.556,-142.59 687.233,-147.137"/>
</g>
<!-- Node11&#45;&gt;Node9 -->
<g id="edge16" class="edge"><title>Node11&#45;&gt;Node9</title>
<path fill="none" stroke="midnightblue" d="M414.178,-86C435.501,-86 461.545,-86 485.26,-86"/>
<polygon fill="midnightblue" stroke="midnightblue" points="485.261,-89.5001 495.26,-86 485.26,-82.5001 485.261,-89.5001"/>
</g>
<!-- Node13 -->
<g id="node13" class="node"><title>Node13</title>
<g id="a_node13"><a xlink:href="../../d4/d94/_image_format_converter_8h.html#adf2b1a0005df71e46bb914d080a9ceb1" target="_top" xlink:title=" ">
<polygon fill="white" stroke="black" points="497,-228.5 497,-247.5 610,-247.5 610,-228.5 497,-228.5"/>
<text text-anchor="middle" x="553.5" y="-235.5" font-family="Helvetica,sans-Serif" font-size="10.00">A1R5G5B5_extract_A</text>
</a>
</g>
</g>
<!-- Node12&#45;&gt;Node13 -->
<g id="edge18" class="edge"><title>Node12&#45;&gt;Node13</title>
<path fill="none" stroke="midnightblue" d="M416.052,-266.411C440.569,-261.306 470.91,-254.989 496.75,-249.608"/>
<polygon fill="midnightblue" stroke="midnightblue" points="497.702,-252.985 506.779,-247.52 496.275,-246.132 497.702,-252.985"/>
</g>
<!-- Node14 -->
<g id="node14" class="node"><title>Node14</title>
<g id="a_node14"><a xlink:href="../../d4/d94/_image_format_converter_8h.html#a2f707a9807d15ca043f8955072daf991" target="_top" xlink:title=" ">
<polygon fill="white" stroke="black" points="497,-190.5 497,-209.5 610,-209.5 610,-190.5 497,-190.5"/>
<text text-anchor="middle" x="553.5" y="-197.5" font-family="Helvetica,sans-Serif" font-size="10.00">A1R5G5B5_extract_B</text>
</a>
</g>
</g>
<!-- Node12&#45;&gt;Node14 -->
<g id="edge19" class="edge"><title>Node12&#45;&gt;Node14</title>
<path fill="none" stroke="midnightblue" d="M429.075,-266.436C436.722,-263.977 444.237,-260.885 451,-257 471.173,-245.412 467.135,-231.108 487,-219 490.428,-216.911 494.097,-215.041 497.883,-213.371"/>
<polygon fill="midnightblue" stroke="midnightblue" points="499.432,-216.523 507.464,-209.614 496.877,-210.006 499.432,-216.523"/>
</g>
<!-- Node15 -->
<g id="node15" class="node"><title>Node15</title>
<g id="a_node15"><a xlink:href="../../d4/d94/_image_format_converter_8h.html#a0da5a7b25d9c3204b011d43a2f1a31b5" target="_top" xlink:title=" ">
<polygon fill="white" stroke="black" points="497,-304.5 497,-323.5 610,-323.5 610,-304.5 497,-304.5"/>
<text text-anchor="middle" x="553.5" y="-311.5" font-family="Helvetica,sans-Serif" font-size="10.00">A1R5G5B5_extract_G</text>
</a>
</g>
</g>
<!-- Node12&#45;&gt;Node15 -->
<g id="edge20" class="edge"><title>Node12&#45;&gt;Node15</title>
<path fill="none" stroke="midnightblue" d="M416.052,-285.589C440.569,-290.694 470.91,-297.011 496.75,-302.392"/>
<polygon fill="midnightblue" stroke="midnightblue" points="496.275,-305.868 506.779,-304.48 497.702,-299.015 496.275,-305.868"/>
</g>
<!-- Node16 -->
<g id="node16" class="node"><title>Node16</title>
<g id="a_node16"><a xlink:href="../../d4/d94/_image_format_converter_8h.html#a001919a6b7668fe120806f4c0cd703d9" target="_top" xlink:title=" ">
<polygon fill="white" stroke="black" points="497,-266.5 497,-285.5 610,-285.5 610,-266.5 497,-266.5"/>
<text text-anchor="middle" x="553.5" y="-273.5" font-family="Helvetica,sans-Serif" font-size="10.00">A1R5G5B5_extract_R</text>
</a>
</g>
</g>
<!-- Node12&#45;&gt;Node16 -->
<g id="edge21" class="edge"><title>Node12&#45;&gt;Node16</title>
<path fill="none" stroke="midnightblue" d="M451.11,-276C462.917,-276 474.954,-276 486.416,-276"/>
<polygon fill="midnightblue" stroke="midnightblue" points="486.758,-279.5 496.758,-276 486.758,-272.5 486.758,-279.5"/>
</g>
<!-- Node18 -->
<g id="node18" class="node"><title>Node18</title>
<g id="a_node18"><a xlink:href="../../d4/d94/_image_format_converter_8h.html#a757c28f5b88155fabd0a99c9dd12393b" target="_top" xlink:title=" ">
<polygon fill="white" stroke="black" points="487,-114.5 487,-133.5 620,-133.5 620,-114.5 487,-114.5"/>
<text text-anchor="middle" x="553.5" y="-121.5" font-family="Helvetica,sans-Serif" font-size="10.00">A8R8G8B8_to_A1R5G5B5</text>
</a>
</g>
</g>
<!-- Node17&#45;&gt;Node18 -->
<g id="edge23" class="edge"><title>Node17&#45;&gt;Node18</title>
<path fill="none" stroke="midnightblue" d="M416.052,-152.411C440.569,-147.306 470.91,-140.989 496.75,-135.608"/>
<polygon fill="midnightblue" stroke="midnightblue" points="497.702,-138.985 506.779,-133.52 496.275,-132.132 497.702,-138.985"/>
</g>
<!-- Node20 -->
<g id="node20" class="node"><title>Node20</title>
<g id="a_node20"><a xlink:href="../../d4/d94/_image_format_converter_8h.html#a5d610db2858945d20b4ef4a48da889c3" target="_top" xlink:title=" ">
<polygon fill="white" stroke="black" points="493,-570.5 493,-589.5 614,-589.5 614,-570.5 493,-570.5"/>
<text text-anchor="middle" x="553.5" y="-577.5" font-family="Helvetica,sans-Serif" font-size="10.00">A8R8G8B8_to_R5G6B5</text>
</a>
</g>
</g>
<!-- Node19&#45;&gt;Node20 -->
<g id="edge25" class="edge"><title>Node19&#45;&gt;Node20</title>
<path fill="none" stroke="midnightblue" d="M429.075,-513.564C436.722,-516.023 444.237,-519.115 451,-523 471.173,-534.588 467.135,-548.892 487,-561 490.428,-563.089 494.097,-564.959 497.883,-566.629"/>
<polygon fill="midnightblue" stroke="midnightblue" points="496.877,-569.994 507.464,-570.386 499.432,-563.477 496.877,-569.994"/>
</g>
<!-- Node22 -->
<g id="node22" class="node"><title>Node22</title>
<g id="a_node22"><a xlink:href="../../d4/d94/_image_format_converter_8h.html#a0bfbdeb2628ef42c7e4cac50df88d8c0" target="_top" xlink:title=" ">
<polygon fill="white" stroke="black" points="487,-532.5 487,-551.5 620,-551.5 620,-532.5 487,-532.5"/>
<text text-anchor="middle" x="553.5" y="-539.5" font-family="Helvetica,sans-Serif" font-size="10.00">A8R8G8B8_to_R8G8B8A8</text>
</a>
</g>
</g>
<!-- Node21&#45;&gt;Node22 -->
<g id="edge27" class="edge"><title>Node21&#45;&gt;Node22</title>
<path fill="none" stroke="midnightblue" d="M429.075,-475.564C436.722,-478.023 444.237,-481.115 451,-485 471.173,-496.588 467.135,-510.892 487,-523 490.428,-525.089 494.097,-526.959 497.883,-528.629"/>
<polygon fill="midnightblue" stroke="midnightblue" points="496.877,-531.994 507.464,-532.386 499.432,-525.477 496.877,-531.994"/>
</g>
<!-- Node25 -->
<g id="node25" class="node"><title>Node25</title>
<g id="a_node25"><a xlink:href="../../d4/d94/_image_format_converter_8h.html#a4a66f93259ecaf44317eae4fed3f7e26" target="_top" xlink:title=" ">
<polygon fill="white" stroke="black" points="493,-494.5 493,-513.5 614,-513.5 614,-494.5 493,-494.5"/>
<text text-anchor="middle" x="553.5" y="-501.5" font-family="Helvetica,sans-Serif" font-size="10.00">R5G6B5_to_A8R8G8B8</text>
</a>
</g>
</g>
<!-- Node24&#45;&gt;Node25 -->
<g id="edge31" class="edge"><title>Node24&#45;&gt;Node25</title>
<path fill="none" stroke="midnightblue" d="M429.075,-437.564C436.722,-440.023 444.237,-443.115 451,-447 471.173,-458.588 467.135,-472.892 487,-485 490.428,-487.089 494.097,-488.959 497.883,-490.629"/>
<polygon fill="midnightblue" stroke="midnightblue" points="496.877,-493.994 507.464,-494.386 499.432,-487.477 496.877,-493.994"/>
</g>
<!-- Node27 -->
<g id="node27" class="node"><title>Node27</title>
<g id="a_node27"><a xlink:href="../../d4/d94/_image_format_converter_8h.html#adaf083df2188ace815dd2f35e067453c" target="_top" xlink:title=" ">
<polygon fill="white" stroke="black" points="503,-380.5 503,-399.5 604,-399.5 604,-380.5 503,-380.5"/>
<text text-anchor="middle" x="553.5" y="-387.5" font-family="Helvetica,sans-Serif" font-size="10.00">R5G6B5_extract_B</text>
</a>
</g>
</g>
<!-- Node26&#45;&gt;Node27 -->
<g id="edge33" class="edge"><title>Node26&#45;&gt;Node27</title>
<path fill="none" stroke="midnightblue" d="M416.052,-361.589C440.569,-366.694 470.91,-373.011 496.75,-378.392"/>
<polygon fill="midnightblue" stroke="midnightblue" points="496.275,-381.868 506.779,-380.48 497.702,-375.015 496.275,-381.868"/>
</g>
<!-- Node28 -->
<g id="node28" class="node"><title>Node28</title>
<g id="a_node28"><a xlink:href="../../d4/d94/_image_format_converter_8h.html#a37fb8dfe8fccc82fa7a0b7c4e3758a2f" target="_top" xlink:title=" ">
<polygon fill="white" stroke="black" points="503,-456.5 503,-475.5 604,-475.5 604,-456.5 503,-456.5"/>
<text text-anchor="middle" x="553.5" y="-463.5" font-family="Helvetica,sans-Serif" font-size="10.00">R5G6B5_extract_G</text>
</a>
</g>
</g>
<!-- Node26&#45;&gt;Node28 -->
<g id="edge34" class="edge"><title>Node26&#45;&gt;Node28</title>
<path fill="none" stroke="midnightblue" d="M435.281,-361.643C440.929,-364.116 446.281,-367.188 451,-371 480.076,-394.484 458.543,-422.769 487,-447 489.051,-448.746 491.255,-450.332 493.568,-451.773"/>
<polygon fill="midnightblue" stroke="midnightblue" points="492.452,-455.137 502.94,-456.638 495.677,-448.924 492.452,-455.137"/>
</g>
<!-- Node29 -->
<g id="node29" class="node"><title>Node29</title>
<g id="a_node29"><a xlink:href="../../d4/d94/_image_format_converter_8h.html#a3cd95d7a689b9d27cf1266f1bedd17ec" target="_top" xlink:title=" ">
<polygon fill="white" stroke="black" points="503,-418.5 503,-437.5 604,-437.5 604,-418.5 503,-418.5"/>
<text text-anchor="middle" x="553.5" y="-425.5" font-family="Helvetica,sans-Serif" font-size="10.00">R5G6B5_extract_R</text>
</a>
</g>
</g>
<!-- Node26&#45;&gt;Node29 -->
<g id="edge35" class="edge"><title>Node26&#45;&gt;Node29</title>
<path fill="none" stroke="midnightblue" d="M429.075,-361.564C436.722,-364.023 444.237,-367.115 451,-371 471.173,-382.588 467.135,-396.892 487,-409 490.428,-411.089 494.097,-412.959 497.883,-414.629"/>
<polygon fill="midnightblue" stroke="midnightblue" points="496.877,-417.994 507.464,-418.386 499.432,-411.477 496.877,-417.994"/>
</g>
<!-- Node31 -->
<g id="node31" class="node"><title>Node31</title>
<g id="a_node31"><a xlink:href="../../d4/d94/_image_format_converter_8h.html#aab2c71c27e9a2fdda3b8b15f3c3ab334" target="_top" xlink:title=" ">
<polygon fill="white" stroke="black" points="493,-342.5 493,-361.5 614,-361.5 614,-342.5 493,-342.5"/>
<text text-anchor="middle" x="553.5" y="-349.5" font-family="Helvetica,sans-Serif" font-size="10.00">R5G6B5_to_R8G8B8A8</text>
</a>
</g>
</g>
<!-- Node30&#45;&gt;Node31 -->
<g id="edge37" class="edge"><title>Node30&#45;&gt;Node31</title>
<path fill="none" stroke="midnightblue" d="M416.052,-323.589C440.569,-328.694 470.91,-335.011 496.75,-340.392"/>
<polygon fill="midnightblue" stroke="midnightblue" points="496.275,-343.868 506.779,-342.48 497.702,-337.015 496.275,-343.868"/>
</g>
<!-- Node34 -->
<g id="node34" class="node"><title>Node34</title>
<g id="a_node34"><a xlink:href="../../d7/d42/class_image_loader.html#a18f2d859b812d0877891b4960ad48e53" target="_top" xlink:title=" ">
<polygon fill="white" stroke="black" points="288.5,-38.5 288.5,-57.5 449.5,-57.5 449.5,-38.5 288.5,-38.5"/>
<text text-anchor="middle" x="369" y="-45.5" font-family="Helvetica,sans-Serif" font-size="10.00">ImageLoader::GetResourceName</text>
</a>
</g>
</g>
<!-- Node33&#45;&gt;Node34 -->
<g id="edge42" class="edge"><title>Node33&#45;&gt;Node34</title>
<path fill="none" stroke="midnightblue" d="M247.299,-48C256.818,-48 267.309,-48 278.012,-48"/>
<polygon fill="midnightblue" stroke="midnightblue" points="278.314,-51.5001 288.314,-48 278.314,-44.5001 278.314,-51.5001"/>
</g>
<!-- Node35 -->
<g id="node35" class="node"><title>Node35</title>
<g id="a_node35"><a xlink:href="../../db/dd6/class_assets_manager.html#a267f5a440cbd28f4a1a0d9527223bd08" target="_top" xlink:title=" ">
<polygon fill="white" stroke="black" points="293,-0.5 293,-19.5 445,-19.5 445,-0.5 293,-0.5"/>
<text text-anchor="middle" x="369" y="-7.5" font-family="Helvetica,sans-Serif" font-size="10.00">AssetsManager::ReleaseImage</text>
</a>
</g>
</g>
<!-- Node33&#45;&gt;Node35 -->
<g id="edge43" class="edge"><title>Node33&#45;&gt;Node35</title>
<path fill="none" stroke="midnightblue" d="M246.879,-38.411C268.353,-33.3739 294.86,-27.1562 317.597,-21.8229"/>
<polygon fill="midnightblue" stroke="midnightblue" points="318.478,-25.2113 327.415,-19.5201 316.879,-18.3963 318.478,-25.2113"/>
</g>
</g>
</svg>
        <g id="navigator" transform="translate(0 0)" fill="#404254">
                <rect fill="#f2f5e9" fill-opacity="0.5" stroke="#606060" stroke-width=".5" x="0" y="0" width="60" height="60"/>
                <use id="zoomplus" xlink:href="#zoomPlus" x="17" y="9" onmousedown="handleZoom(evt,'in')"/>
                <use id="zoomminus" xlink:href="#zoomMin" x="42" y="9" onmousedown="handleZoom(evt,'out')"/>
                <use id="reset" xlink:href="#resetDef" x="30" y="36" onmousedown="handleReset()"/>
                <g id="arrowUp" xlink:href="#dirArrow" transform="translate(30 24)" onmousedown="handlePan(0,-1)">
                  <use xlink:href="#rim" fill="#404040">
                        <set attributeName="fill" to="#808080" begin="arrowUp.mouseover" end="arrowUp.mouseout"/>
                  </use>
                  <path fill="none" stroke="white" stroke-width="1.5" d="M0,-3.0v7 M-2.5,-0.5L0,-3.0L2.5,-0.5"/>
                </g>
                <g id="arrowRight" xlink:href="#dirArrow" transform="rotate(90) translate(36 -43)" onmousedown="handlePan(1,0)">
                  <use xlink:href="#rim" fill="#404040">
                        <set attributeName="fill" to="#808080" begin="arrowRight.mouseover" end="arrowRight.mouseout"/>
                  </use>
                  <path fill="none" stroke="white" stroke-width="1.5" d="M0,-3.0v7 M-2.5,-0.5L0,-3.0L2.5,-0.5"/>
                </g>
                <g id="arrowDown" xlink:href="#dirArrow" transform="rotate(180) translate(-30 -48)" onmousedown="handlePan(0,1)">
                  <use xlink:href="#rim" fill="#404040">
                        <set attributeName="fill" to="#808080" begin="arrowDown.mouseover" end="arrowDown.mouseout"/>
                  </use>
                  <path fill="none" stroke="white" stroke-width="1.5" d="M0,-3.0v7 M-2.5,-0.5L0,-3.0L2.5,-0.5"/>
                </g>
                <g id="arrowLeft" xlink:href="#dirArrow" transform="rotate(270) translate(-36 17)" onmousedown="handlePan(-1,0)">
                  <use xlink:href="#rim" fill="#404040">
                        <set attributeName="fill" to="#808080" begin="arrowLeft.mouseover" end="arrowLeft.mouseout"/>
                  </use>
                  <path fill="none" stroke="white" stroke-width="1.5" d="M0,-3.0v7 M-2.5,-0.5L0,-3.0L2.5,-0.5"/>
                </g>
        </g>
        <svg viewBox="0 0 15 15" width="100%" height="30px" preserveAspectRatio="xMaxYMin meet">
         <g id="arrow_out" transform="scale(0.3 0.3)">
          <a xlink:href="class_render_a7cc493954b2a78c217ba280fcbab731a_cgraph_org.svg" target="_base">
           <rect id="button" ry="5" rx="5" y="6" x="6" height="38" width="38"
                fill="#f2f5e9" fill-opacity="0.5" stroke="#606060" stroke-width="1.0"/>
           <path id="arrow"
             d="M 11.500037,31.436501 C 11.940474,20.09759 22.043105,11.32322 32.158766,21.979434 L 37.068811,17.246167 C 37.068811,17.246167 37.088388,32 37.088388,32 L 22.160133,31.978069 C 22.160133,31.978069 26.997745,27.140456 26.997745,27.140456 C 18.528582,18.264221 13.291696,25.230495 11.500037,31.436501 z"
             style="fill:#404040;"/>
          </a>
         </g>
        </svg>
</svg>
