<?xml version="1.0" encoding="UTF-8" standalone="no"?>
<!DOCTYPE svg PUBLIC "-//W3C//DTD SVG 1.1//EN"
 "http://www.w3.org/Graphics/SVG/1.1/DTD/svg11.dtd">
<!-- Generated by graphviz version 2.38.0 (20140413.2041)
 -->
<!-- Title: Render::DrawBillboardList_BLV Pages: 1 -->
<!--zoomable 274 -->
<svg id="main" version="1.1" xmlns="http://www.w3.org/2000/svg" xmlns:xlink="http://www.w3.org/1999/xlink" xml:space="preserve" onload="init(evt)">
<style type="text/css"><![CDATA[
.edge:hover path { stroke: red; }
.edge:hover polygon { stroke: red; fill: red; }
]]></style>
<script type="text/javascript"><![CDATA[
var edges = document.getElementsByTagName('g');
if (edges && edges.length) {
  for (var i=0;i<edges.length;i++) {
    if (edges[i].id.substr(0,4)=='edge') {
      edges[i].setAttribute('class','edge');
    }
  }
}
]]></script>
        <defs>
                <circle id="rim" cx="0" cy="0" r="7"/>
                <circle id="rim2" cx="0" cy="0" r="3.5"/>
                <g id="zoomPlus">
                        <use xlink:href="#rim" fill="#404040">
                                <set attributeName="fill" to="#808080" begin="zoomplus.mouseover" end="zoomplus.mouseout"/>
                        </use>
                        <path d="M-4,0h8M0,-4v8" fill="none" stroke="white" stroke-width="1.5" pointer-events="none"/>
                </g>
                <g id="zoomMin">
                        <use xlink:href="#rim" fill="#404040">
                                <set attributeName="fill" to="#808080" begin="zoomminus.mouseover" end="zoomminus.mouseout"/>
                        </use>
                        <path d="M-4,0h8" fill="none" stroke="white" stroke-width="1.5" pointer-events="none"/>
                </g>
                <g id="dirArrow">
                        <path fill="none" stroke="white" stroke-width="1.5" d="M0,-3.0v7 M-2.5,-0.5L0,-3.0L2.5,-0.5"/>
                </g>
               <g id="resetDef">
                       <use xlink:href="#rim2" fill="#404040">
                               <set attributeName="fill" to="#808080" begin="reset.mouseover" end="reset.mouseout"/>
                       </use>
               </g>
        </defs>

<script type="text/javascript">
var viewWidth = 1103;
var viewHeight = 274;
var sectionId = 'dynsection-38';
</script>
<script xlink:href="../../svgpan.js"/>
<svg id="graph" class="graph">
<g id="viewport">
<title>Render::DrawBillboardList_BLV</title>
<polygon fill="white" stroke="none" points="-4,4 -4,-270.02 1099,-270.02 1099,4 -4,4"/>
<!-- Node1 -->
<g id="node1" class="node"><title>Node1</title>
<g id="a_node1"><a xlink:title=" ">
<polygon fill="#bfbfbf" stroke="black" points="0,-122.5 0,-141.5 152,-141.5 152,-122.5 0,-122.5"/>
<text text-anchor="middle" x="76" y="-129.5" font-family="Helvetica,sans-Serif" font-size="10.00">Render::DrawBillboardList_BLV</text>
</a>
</g>
</g>
<!-- Node2 -->
<g id="node2" class="node"><title>Node2</title>
<g id="a_node2"><a xlink:href="../../da/d7f/class_render.html#ae7ef7fb54f5ba374efa6fecd46fa29c9" target="_top" xlink:title=" ">
<polygon fill="white" stroke="black" points="188,-117 188,-147 301,-147 301,-117 188,-117"/>
<text text-anchor="start" x="196" y="-135" font-family="Helvetica,sans-Serif" font-size="10.00">Render::DrawBillboard</text>
<text text-anchor="middle" x="244.5" y="-124" font-family="Helvetica,sans-Serif" font-size="10.00">_Indoor</text>
</a>
</g>
</g>
<!-- Node1&#45;&gt;Node2 -->
<g id="edge1" class="edge"><title>Node1&#45;&gt;Node2</title>
<path fill="none" stroke="midnightblue" d="M152.455,-132C160.804,-132 169.259,-132 177.479,-132"/>
<polygon fill="midnightblue" stroke="midnightblue" points="177.74,-135.5 187.74,-132 177.74,-128.5 177.74,-135.5"/>
</g>
<!-- Node3 -->
<g id="node3" class="node"><title>Node3</title>
<g id="a_node3"><a xlink:href="../../d9/d30/_s_d_l__assert_8h.html#afedcea68cf85ee469ab1ea390bbe0abb" target="_top" xlink:title=" ">
<polygon fill="white" stroke="black" points="695,-185.5 695,-204.5 772,-204.5 772,-185.5 695,-185.5"/>
<text text-anchor="middle" x="733.5" y="-192.5" font-family="Helvetica,sans-Serif" font-size="10.00">__debugbreak</text>
</a>
</g>
</g>
<!-- Node2&#45;&gt;Node3 -->
<g id="edge2" class="edge"><title>Node2&#45;&gt;Node3</title>
<path fill="none" stroke="midnightblue" d="M301.365,-139.227C397.954,-151.722 594.488,-177.146 684.964,-188.851"/>
<polygon fill="midnightblue" stroke="midnightblue" points="684.574,-192.329 694.94,-190.141 685.472,-185.387 684.574,-192.329"/>
</g>
<!-- Node4 -->
<g id="node4" class="node"><title>Node4</title>
<g id="a_node4"><a xlink:href="../../d9/d47/class_render_base.html#a18f94bfc431e24e140d93e7521bd270a" target="_top" xlink:title=" ">
<polygon fill="white" stroke="black" points="337,-87.5 337,-128.5 488,-128.5 488,-87.5 337,-87.5"/>
<text text-anchor="start" x="345" y="-116.5" font-family="Helvetica,sans-Serif" font-size="10.00">RenderBase::Billboard</text>
<text text-anchor="start" x="345" y="-105.5" font-family="Helvetica,sans-Serif" font-size="10.00">_ProbablyAddToListAndSortBy</text>
<text text-anchor="middle" x="412.5" y="-94.5" font-family="Helvetica,sans-Serif" font-size="10.00">ZOrder</text>
</a>
</g>
</g>
<!-- Node2&#45;&gt;Node4 -->
<g id="edge3" class="edge"><title>Node2&#45;&gt;Node4</title>
<path fill="none" stroke="midnightblue" d="M301.237,-123.942C309.429,-122.757 318.019,-121.515 326.636,-120.27"/>
<polygon fill="midnightblue" stroke="midnightblue" points="327.345,-123.703 336.741,-118.808 326.343,-116.776 327.345,-123.703"/>
</g>
<!-- Node5 -->
<g id="node5" class="node"><title>Node5</title>
<g id="a_node5"><a xlink:href="../../d2/dc7/_render_8cpp.html#a99692fd7f5691c536b66eae01c931b01" target="_top" xlink:title=" ">
<polygon fill="white" stroke="black" points="378,-49.5 378,-68.5 447,-68.5 447,-49.5 378,-49.5"/>
<text text-anchor="middle" x="412.5" y="-56.5" font-family="Helvetica,sans-Serif" font-size="10.00">BlendColors</text>
</a>
</g>
</g>
<!-- Node2&#45;&gt;Node5 -->
<g id="edge4" class="edge"><title>Node2&#45;&gt;Node5</title>
<path fill="none" stroke="midnightblue" d="M267.141,-116.838C285.126,-104.836 311.765,-88.4151 337,-78 346.818,-73.9479 357.73,-70.5792 368.107,-67.8605"/>
<polygon fill="midnightblue" stroke="midnightblue" points="368.974,-71.2518 377.84,-65.452 367.292,-64.4567 368.974,-71.2518"/>
</g>
<!-- Node6 -->
<g id="node6" class="node"><title>Node6</title>
<g id="a_node6"><a xlink:href="../../da/d7f/class_render.html#a3fa28b49954a5e0bd04d6ecec33a20cf" target="_top" xlink:title=" ">
<polygon fill="white" stroke="black" points="347,-11.5 347,-30.5 478,-30.5 478,-11.5 347,-11.5"/>
<text text-anchor="middle" x="412.5" y="-18.5" font-family="Helvetica,sans-Serif" font-size="10.00">Render::GetActorTintColor</text>
</a>
</g>
</g>
<!-- Node2&#45;&gt;Node6 -->
<g id="edge5" class="edge"><title>Node2&#45;&gt;Node6</title>
<path fill="none" stroke="midnightblue" d="M256.371,-116.773C271.89,-96.1844 302.376,-59.7744 337,-40 340.887,-37.7803 345.033,-35.8161 349.305,-34.0786"/>
<polygon fill="midnightblue" stroke="midnightblue" points="350.602,-37.3314 358.804,-30.6257 348.21,-30.7525 350.602,-37.3314"/>
</g>
<!-- Node11 -->
<g id="node11" class="node"><title>Node11</title>
<g id="a_node11"><a xlink:href="../../de/d73/class_image.html#a5093fa64598a4d7e0c70d43fe67e35cd" target="_top" xlink:title=" ">
<polygon fill="white" stroke="black" points="366.5,-223.5 366.5,-242.5 458.5,-242.5 458.5,-223.5 366.5,-223.5"/>
<text text-anchor="middle" x="412.5" y="-230.5" font-family="Helvetica,sans-Serif" font-size="10.00">Image::GetHeight</text>
</a>
</g>
</g>
<!-- Node2&#45;&gt;Node11 -->
<g id="edge10" class="edge"><title>Node2&#45;&gt;Node11</title>
<path fill="none" stroke="midnightblue" d="M258.134,-147.113C274.453,-165.648 304.631,-196.726 337,-214 343.092,-217.251 349.765,-219.964 356.534,-222.224"/>
<polygon fill="midnightblue" stroke="midnightblue" points="355.88,-225.682 366.465,-225.22 357.902,-218.981 355.88,-225.682"/>
</g>
<!-- Node14 -->
<g id="node14" class="node"><title>Node14</title>
<g id="a_node14"><a xlink:href="../../de/d73/class_image.html#a9241b1c53141c78273e4060a91634d47" target="_top" xlink:title=" ">
<polygon fill="white" stroke="black" points="367.5,-185.5 367.5,-204.5 457.5,-204.5 457.5,-185.5 367.5,-185.5"/>
<text text-anchor="middle" x="412.5" y="-192.5" font-family="Helvetica,sans-Serif" font-size="10.00">Image::GetWidth</text>
</a>
</g>
</g>
<!-- Node2&#45;&gt;Node14 -->
<g id="edge15" class="edge"><title>Node2&#45;&gt;Node14</title>
<path fill="none" stroke="midnightblue" d="M278.668,-147.002C295.913,-154.58 317.425,-163.693 337,-171 347.624,-174.966 359.238,-178.897 370.069,-182.394"/>
<polygon fill="midnightblue" stroke="midnightblue" points="369.153,-185.775 379.743,-185.472 371.275,-179.105 369.153,-185.775"/>
</g>
<!-- Node7 -->
<g id="node7" class="node"><title>Node7</title>
<g id="a_node7"><a xlink:href="../../d2/dc7/_render_8cpp.html#affb59d87fdc8c1c2415376ae745a2821" target="_top" xlink:title=" ">
<polygon fill="white" stroke="black" points="535,-11.5 535,-30.5 629,-30.5 629,-11.5 535,-11.5"/>
<text text-anchor="middle" x="582" y="-18.5" font-family="Helvetica,sans-Serif" font-size="10.00">GetActorTintColor</text>
</a>
</g>
</g>
<!-- Node6&#45;&gt;Node7 -->
<g id="edge6" class="edge"><title>Node6&#45;&gt;Node7</title>
<path fill="none" stroke="midnightblue" d="M478.26,-21C493.594,-21 509.824,-21 524.744,-21"/>
<polygon fill="midnightblue" stroke="midnightblue" points="524.838,-24.5001 534.838,-21 524.838,-17.5001 524.838,-24.5001"/>
</g>
<!-- Node8 -->
<g id="node8" class="node"><title>Node8</title>
<g id="a_node8"><a xlink:href="../../d2/dc7/_render_8cpp.html#ac91abbddf2a7fc9ee162e3fadf8534f6" target="_top" xlink:title=" ">
<polygon fill="white" stroke="black" points="676,-6 676,-36 791,-36 791,-6 676,-6"/>
<text text-anchor="start" x="684" y="-24" font-family="Helvetica,sans-Serif" font-size="10.00">_43F55F_get_billboard</text>
<text text-anchor="middle" x="733.5" y="-13" font-family="Helvetica,sans-Serif" font-size="10.00">_light_level</text>
</a>
</g>
</g>
<!-- Node7&#45;&gt;Node8 -->
<g id="edge7" class="edge"><title>Node7&#45;&gt;Node8</title>
<path fill="none" stroke="midnightblue" d="M629.075,-21C640.603,-21 653.205,-21 665.521,-21"/>
<polygon fill="midnightblue" stroke="midnightblue" points="665.771,-24.5001 675.771,-21 665.771,-17.5001 665.771,-24.5001"/>
</g>
<!-- Node9 -->
<g id="node9" class="node"><title>Node9</title>
<g id="a_node9"><a xlink:href="../../d2/dc7/_render_8cpp.html#aa7459c3126d3e1bcf791c83d4862603c" target="_top" xlink:title=" ">
<polygon fill="white" stroke="black" points="827,-0.5 827,-41.5 951,-41.5 951,-0.5 827,-0.5"/>
<text text-anchor="start" x="835" y="-29.5" font-family="Helvetica,sans-Serif" font-size="10.00">_43F5C8_get_point_light</text>
<text text-anchor="start" x="835" y="-18.5" font-family="Helvetica,sans-Serif" font-size="10.00">_level_with_respect_to</text>
<text text-anchor="middle" x="889" y="-7.5" font-family="Helvetica,sans-Serif" font-size="10.00">_lights</text>
</a>
</g>
</g>
<!-- Node8&#45;&gt;Node9 -->
<g id="edge8" class="edge"><title>Node8&#45;&gt;Node9</title>
<path fill="none" stroke="midnightblue" d="M791.222,-21C799.57,-21 808.258,-21 816.852,-21"/>
<polygon fill="midnightblue" stroke="midnightblue" points="816.871,-24.5001 826.871,-21 816.871,-17.5001 816.871,-24.5001"/>
</g>
<!-- Node10 -->
<g id="node10" class="node"><title>Node10</title>
<g id="a_node10"><a xlink:href="../../d5/d2e/_vector_types_8cpp.html#a5eb2b4017143261b8e3f12f6c796a11c" target="_top" xlink:title=" ">
<polygon fill="white" stroke="black" points="987,-11.5 987,-30.5 1095,-30.5 1095,-11.5 987,-11.5"/>
<text text-anchor="middle" x="1041" y="-18.5" font-family="Helvetica,sans-Serif" font-size="10.00">int_get_vector_length</text>
</a>
</g>
</g>
<!-- Node9&#45;&gt;Node10 -->
<g id="edge9" class="edge"><title>Node9&#45;&gt;Node10</title>
<path fill="none" stroke="midnightblue" d="M951.011,-21C959.43,-21 968.092,-21 976.554,-21"/>
<polygon fill="midnightblue" stroke="midnightblue" points="976.746,-24.5001 986.746,-21 976.746,-17.5001 976.746,-24.5001"/>
</g>
<!-- Node11&#45;&gt;Node3 -->
<g id="edge11" class="edge"><title>Node11&#45;&gt;Node3</title>
<path fill="none" stroke="midnightblue" d="M438.528,-242.514C481.642,-257.326 571.85,-281.313 640,-252 661.371,-242.808 656.394,-226.523 676,-214 679.151,-211.988 682.537,-210.165 686.03,-208.518"/>
<polygon fill="midnightblue" stroke="midnightblue" points="687.576,-211.665 695.437,-204.562 684.862,-205.213 687.576,-211.665"/>
</g>
<!-- Node12 -->
<g id="node12" class="node"><title>Node12</title>
<g id="a_node12"><a xlink:href="../../de/d73/class_image.html#a9b786ec61110907b38dda728bd281c73" target="_top" xlink:title=" ">
<polygon fill="white" stroke="black" points="524,-223.5 524,-242.5 640,-242.5 640,-223.5 524,-223.5"/>
<text text-anchor="middle" x="582" y="-230.5" font-family="Helvetica,sans-Serif" font-size="10.00">Image::LoadImageData</text>
</a>
</g>
</g>
<!-- Node11&#45;&gt;Node12 -->
<g id="edge12" class="edge"><title>Node11&#45;&gt;Node12</title>
<path fill="none" stroke="midnightblue" d="M458.828,-233C475.75,-233 495.343,-233 513.817,-233"/>
<polygon fill="midnightblue" stroke="midnightblue" points="513.941,-236.5 523.941,-233 513.941,-229.5 513.941,-236.5"/>
</g>
<!-- Node12&#45;&gt;Node3 -->
<g id="edge13" class="edge"><title>Node12&#45;&gt;Node3</title>
<path fill="none" stroke="midnightblue" d="M620.725,-223.411C640.276,-218.442 664.347,-212.323 685.137,-207.039"/>
<polygon fill="midnightblue" stroke="midnightblue" points="686.217,-210.376 695.046,-204.52 684.492,-203.591 686.217,-210.376"/>
</g>
<!-- Node13 -->
<g id="node13" class="node"><title>Node13</title>
<g id="a_node13"><a xlink:href="../../d7/d42/class_image_loader.html#ad346c7973ae6f1d84a8c1fc655661319" target="_top" xlink:title=" ">
<polygon fill="white" stroke="black" points="684,-223.5 684,-242.5 783,-242.5 783,-223.5 684,-223.5"/>
<text text-anchor="middle" x="733.5" y="-230.5" font-family="Helvetica,sans-Serif" font-size="10.00">ImageLoader::Load</text>
</a>
</g>
</g>
<!-- Node12&#45;&gt;Node13 -->
<g id="edge14" class="edge"><title>Node12&#45;&gt;Node13</title>
<path fill="none" stroke="midnightblue" d="M640.373,-233C651.231,-233 662.606,-233 673.513,-233"/>
<polygon fill="midnightblue" stroke="midnightblue" points="673.794,-236.5 683.794,-233 673.794,-229.5 673.794,-236.5"/>
</g>
<!-- Node14&#45;&gt;Node3 -->
<g id="edge16" class="edge"><title>Node14&#45;&gt;Node3</title>
<path fill="none" stroke="midnightblue" d="M457.521,-195C517.14,-195 623.157,-195 684.678,-195"/>
<polygon fill="midnightblue" stroke="midnightblue" points="684.891,-198.5 694.891,-195 684.891,-191.5 684.891,-198.5"/>
</g>
<!-- Node14&#45;&gt;Node12 -->
<g id="edge17" class="edge"><title>Node14&#45;&gt;Node12</title>
<path fill="none" stroke="midnightblue" d="M455.767,-204.589C478.07,-209.649 505.623,-215.9 529.202,-221.249"/>
<polygon fill="midnightblue" stroke="midnightblue" points="528.51,-224.681 539.037,-223.48 530.059,-217.854 528.51,-224.681"/>
</g>
</g>
</svg>
        <g id="navigator" transform="translate(0 0)" fill="#404254">
                <rect fill="#f2f5e9" fill-opacity="0.5" stroke="#606060" stroke-width=".5" x="0" y="0" width="60" height="60"/>
                <use id="zoomplus" xlink:href="#zoomPlus" x="17" y="9" onmousedown="handleZoom(evt,'in')"/>
                <use id="zoomminus" xlink:href="#zoomMin" x="42" y="9" onmousedown="handleZoom(evt,'out')"/>
                <use id="reset" xlink:href="#resetDef" x="30" y="36" onmousedown="handleReset()"/>
                <g id="arrowUp" xlink:href="#dirArrow" transform="translate(30 24)" onmousedown="handlePan(0,-1)">
                  <use xlink:href="#rim" fill="#404040">
                        <set attributeName="fill" to="#808080" begin="arrowUp.mouseover" end="arrowUp.mouseout"/>
                  </use>
                  <path fill="none" stroke="white" stroke-width="1.5" d="M0,-3.0v7 M-2.5,-0.5L0,-3.0L2.5,-0.5"/>
                </g>
                <g id="arrowRight" xlink:href="#dirArrow" transform="rotate(90) translate(36 -43)" onmousedown="handlePan(1,0)">
                  <use xlink:href="#rim" fill="#404040">
                        <set attributeName="fill" to="#808080" begin="arrowRight.mouseover" end="arrowRight.mouseout"/>
                  </use>
                  <path fill="none" stroke="white" stroke-width="1.5" d="M0,-3.0v7 M-2.5,-0.5L0,-3.0L2.5,-0.5"/>
                </g>
                <g id="arrowDown" xlink:href="#dirArrow" transform="rotate(180) translate(-30 -48)" onmousedown="handlePan(0,1)">
                  <use xlink:href="#rim" fill="#404040">
                        <set attributeName="fill" to="#808080" begin="arrowDown.mouseover" end="arrowDown.mouseout"/>
                  </use>
                  <path fill="none" stroke="white" stroke-width="1.5" d="M0,-3.0v7 M-2.5,-0.5L0,-3.0L2.5,-0.5"/>
                </g>
                <g id="arrowLeft" xlink:href="#dirArrow" transform="rotate(270) translate(-36 17)" onmousedown="handlePan(-1,0)">
                  <use xlink:href="#rim" fill="#404040">
                        <set attributeName="fill" to="#808080" begin="arrowLeft.mouseover" end="arrowLeft.mouseout"/>
                  </use>
                  <path fill="none" stroke="white" stroke-width="1.5" d="M0,-3.0v7 M-2.5,-0.5L0,-3.0L2.5,-0.5"/>
                </g>
        </g>
        <svg viewBox="0 0 15 15" width="100%" height="30px" preserveAspectRatio="xMaxYMin meet">
         <g id="arrow_out" transform="scale(0.3 0.3)">
          <a xlink:href="class_render_af0ec31297483f0d979c33789997d150c_cgraph_org.svg" target="_base">
           <rect id="button" ry="5" rx="5" y="6" x="6" height="38" width="38"
                fill="#f2f5e9" fill-opacity="0.5" stroke="#606060" stroke-width="1.0"/>
           <path id="arrow"
             d="M 11.500037,31.436501 C 11.940474,20.09759 22.043105,11.32322 32.158766,21.979434 L 37.068811,17.246167 C 37.068811,17.246167 37.088388,32 37.088388,32 L 22.160133,31.978069 C 22.160133,31.978069 26.997745,27.140456 26.997745,27.140456 C 18.528582,18.264221 13.291696,25.230495 11.500037,31.436501 z"
             style="fill:#404040;"/>
          </a>
         </g>
        </svg>
</svg>
