<?xml version="1.0" encoding="UTF-8" standalone="no"?>
<!DOCTYPE svg PUBLIC "-//W3C//DTD SVG 1.1//EN"
 "http://www.w3.org/Graphics/SVG/1.1/DTD/svg11.dtd">
<!-- Generated by graphviz version 2.38.0 (20140413.2041)
 -->
<!-- Title: Render::GetActorTintColor Pages: 1 -->
<svg width="693pt" height="192pt"
 viewBox="0.00 0.00 693.00 191.50" xmlns="http://www.w3.org/2000/svg" xmlns:xlink="http://www.w3.org/1999/xlink">
<g id="graph0" class="graph" transform="scale(1 1) rotate(0) translate(4 187.5)">
<title>Render::GetActorTintColor</title>
<polygon fill="white" stroke="none" points="-4,4 -4,-187.5 689,-187.5 689,4 -4,4"/>
<!-- Node1 -->
<g id="node1" class="node"><title>Node1</title>
<g id="a_node1"><a xlink:title=" ">
<polygon fill="#bfbfbf" stroke="black" points="554,-76.5 554,-95.5 685,-95.5 685,-76.5 554,-76.5"/>
<text text-anchor="middle" x="619.5" y="-83.5" font-family="Helvetica,sans-Serif" font-size="10.00">Render::GetActorTintColor</text>
</a>
</g>
</g>
<!-- Node2 -->
<g id="node2" class="node"><title>Node2</title>
<g id="a_node2"><a xlink:href="../../da/d7f/class_render.html#ae7ef7fb54f5ba374efa6fecd46fa29c9" target="_top" xlink:title=" ">
<polygon fill="white" stroke="black" points="380.5,-153 380.5,-183 493.5,-183 493.5,-153 380.5,-153"/>
<text text-anchor="start" x="388.5" y="-171" font-family="Helvetica,sans-Serif" font-size="10.00">Render::DrawBillboard</text>
<text text-anchor="middle" x="437" y="-160" font-family="Helvetica,sans-Serif" font-size="10.00">_Indoor</text>
</a>
</g>
</g>
<!-- Node1&#45;&gt;Node2 -->
<g id="edge1" class="edge"><title>Node1&#45;&gt;Node2</title>
<path fill="none" stroke="midnightblue" d="M595.358,-101.012C575.445,-113.463 545.641,-131.006 518,-143 509.724,-146.591 500.764,-149.909 491.937,-152.876"/>
<polygon fill="midnightblue" stroke="midnightblue" points="597.451,-103.829 604.027,-95.5217 593.706,-97.9154 597.451,-103.829"/>
</g>
<!-- Node4 -->
<g id="node4" class="node"><title>Node4</title>
<g id="a_node4"><a xlink:href="../../da/d7f/class_render.html#a00592516644e9d3ca43a3c8a1b6dcafd" target="_top" xlink:title=" ">
<polygon fill="white" stroke="black" points="387,-114.5 387,-133.5 487,-133.5 487,-114.5 387,-114.5"/>
<text text-anchor="middle" x="437" y="-121.5" font-family="Helvetica,sans-Serif" font-size="10.00">Render::DrawDecal</text>
</a>
</g>
</g>
<!-- Node1&#45;&gt;Node4 -->
<g id="edge3" class="edge"><title>Node1&#45;&gt;Node4</title>
<path fill="none" stroke="midnightblue" d="M563.015,-97.681C537.418,-103.07 507.416,-109.386 483.22,-114.48"/>
<polygon fill="midnightblue" stroke="midnightblue" points="563.888,-101.074 572.952,-95.589 562.446,-94.2243 563.888,-101.074"/>
</g>
<!-- Node5 -->
<g id="node5" class="node"><title>Node5</title>
<g id="a_node5"><a xlink:href="../../da/d7f/class_render.html#ae7ab22436103697eb832d25fe70933ec" target="_top" xlink:title=" ">
<polygon fill="white" stroke="black" points="356,-76.5 356,-95.5 518,-95.5 518,-76.5 356,-76.5"/>
<text text-anchor="middle" x="437" y="-83.5" font-family="Helvetica,sans-Serif" font-size="10.00">Render::DrawOutdoorSkyPolygon</text>
</a>
</g>
</g>
<!-- Node1&#45;&gt;Node5 -->
<g id="edge4" class="edge"><title>Node1&#45;&gt;Node5</title>
<path fill="none" stroke="midnightblue" d="M543.713,-86C535.315,-86 526.732,-86 518.268,-86"/>
<polygon fill="midnightblue" stroke="midnightblue" points="543.845,-89.5001 553.845,-86 543.845,-82.5001 543.845,-89.5001"/>
</g>
<!-- Node7 -->
<g id="node7" class="node"><title>Node7</title>
<g id="a_node7"><a xlink:href="../../da/d7f/class_render.html#ae7126e41b3845627f862b288a5c3d3b4" target="_top" xlink:title=" ">
<polygon fill="white" stroke="black" points="382,-38.5 382,-57.5 492,-57.5 492,-38.5 382,-38.5"/>
<text text-anchor="middle" x="437" y="-45.5" font-family="Helvetica,sans-Serif" font-size="10.00">Render::DrawPolygon</text>
</a>
</g>
</g>
<!-- Node1&#45;&gt;Node7 -->
<g id="edge6" class="edge"><title>Node1&#45;&gt;Node7</title>
<path fill="none" stroke="midnightblue" d="M563.015,-74.319C537.418,-68.9301 507.416,-62.6139 483.22,-57.5201"/>
<polygon fill="midnightblue" stroke="midnightblue" points="562.446,-77.7757 572.952,-76.411 563.888,-70.9259 562.446,-77.7757"/>
</g>
<!-- Node8 -->
<g id="node8" class="node"><title>Node8</title>
<g id="a_node8"><a xlink:href="../../da/d7f/class_render.html#a052b5ec5bff39d79ce8fe279fdbe4dc2" target="_top" xlink:title=" ">
<polygon fill="white" stroke="black" points="367,-0.5 367,-19.5 507,-19.5 507,-0.5 367,-0.5"/>
<text text-anchor="middle" x="437" y="-7.5" font-family="Helvetica,sans-Serif" font-size="10.00">Render::DrawTerrainPolygon</text>
</a>
</g>
</g>
<!-- Node1&#45;&gt;Node8 -->
<g id="edge7" class="edge"><title>Node1&#45;&gt;Node8</title>
<path fill="none" stroke="midnightblue" d="M595.904,-70.7104C576.119,-57.9389 546.203,-40.0868 518,-29 508.434,-25.2397 497.921,-22.0916 487.75,-19.5088"/>
<polygon fill="midnightblue" stroke="midnightblue" points="594.214,-73.7879 604.495,-76.3489 598.055,-67.9357 594.214,-73.7879"/>
</g>
<!-- Node3 -->
<g id="node3" class="node"><title>Node3</title>
<g id="a_node3"><a xlink:href="../../da/d7f/class_render.html#af0ec31297483f0d979c33789997d150c" target="_top" xlink:title=" ">
<polygon fill="white" stroke="black" points="168,-158.5 168,-177.5 320,-177.5 320,-158.5 168,-158.5"/>
<text text-anchor="middle" x="244" y="-165.5" font-family="Helvetica,sans-Serif" font-size="10.00">Render::DrawBillboardList_BLV</text>
</a>
</g>
</g>
<!-- Node2&#45;&gt;Node3 -->
<g id="edge2" class="edge"><title>Node2&#45;&gt;Node3</title>
<path fill="none" stroke="midnightblue" d="M370.122,-168C354.025,-168 336.683,-168 320.188,-168"/>
<polygon fill="midnightblue" stroke="midnightblue" points="370.498,-171.5 380.498,-168 370.498,-164.5 370.498,-171.5"/>
</g>
<!-- Node6 -->
<g id="node6" class="node"><title>Node6</title>
<g id="a_node6"><a xlink:href="../../da/d7f/class_render.html#abfb3c9ce6265cbe9bfafc53fb222f825" target="_top" xlink:title=" ">
<polygon fill="white" stroke="black" points="171,-76.5 171,-95.5 317,-95.5 317,-76.5 171,-76.5"/>
<text text-anchor="middle" x="244" y="-83.5" font-family="Helvetica,sans-Serif" font-size="10.00">Render::DrawOutdoorSkyD3D</text>
</a>
</g>
</g>
<!-- Node5&#45;&gt;Node6 -->
<g id="edge5" class="edge"><title>Node5&#45;&gt;Node6</title>
<path fill="none" stroke="midnightblue" d="M345.821,-86C336.176,-86 326.458,-86 317.063,-86"/>
<polygon fill="midnightblue" stroke="midnightblue" points="345.829,-89.5001 355.829,-86 345.829,-82.5001 345.829,-89.5001"/>
</g>
<!-- Node9 -->
<g id="node9" class="node"><title>Node9</title>
<g id="a_node9"><a xlink:href="../../da/d7f/class_render.html#a564a06ea7b3e8d9d646c73e90bdd8286" target="_top" xlink:title=" ">
<polygon fill="white" stroke="black" points="182,-0.5 182,-19.5 306,-19.5 306,-0.5 182,-0.5"/>
<text text-anchor="middle" x="244" y="-7.5" font-family="Helvetica,sans-Serif" font-size="10.00">Render::DrawBorderTiles</text>
</a>
</g>
</g>
<!-- Node8&#45;&gt;Node9 -->
<g id="edge8" class="edge"><title>Node8&#45;&gt;Node9</title>
<path fill="none" stroke="midnightblue" d="M356.409,-10C339.591,-10 322.094,-10 306.087,-10"/>
<polygon fill="midnightblue" stroke="midnightblue" points="356.775,-13.5001 366.775,-10 356.775,-6.5001 356.775,-13.5001"/>
</g>
<!-- Node10 -->
<g id="node10" class="node"><title>Node10</title>
<g id="a_node10"><a xlink:href="../../da/d7f/class_render.html#a669638f085b2e25a069c901801e79437" target="_top" xlink:title=" ">
<polygon fill="white" stroke="black" points="0,-0.5 0,-19.5 132,-19.5 132,-0.5 0,-0.5"/>
<text text-anchor="middle" x="66" y="-7.5" font-family="Helvetica,sans-Serif" font-size="10.00">Render::RenderTerrainD3D</text>
</a>
</g>
</g>
<!-- Node9&#45;&gt;Node10 -->
<g id="edge9" class="edge"><title>Node9&#45;&gt;Node10</title>
<path fill="none" stroke="midnightblue" d="M171.605,-10C158.558,-10 145.005,-10 132.151,-10"/>
<polygon fill="midnightblue" stroke="midnightblue" points="171.938,-13.5001 181.938,-10 171.938,-6.5001 171.938,-13.5001"/>
</g>
</g>
</svg>
