<?xml version="1.0" encoding="UTF-8" standalone="no"?>
<!DOCTYPE svg PUBLIC "-//W3C//DTD SVG 1.1//EN"
 "http://www.w3.org/Graphics/SVG/1.1/DTD/svg11.dtd">
<!-- Generated by graphviz version 2.38.0 (20140413.2041)
 -->
<!-- Title: Render::DrawTransparentGreenShade Pages: 1 -->
<svg width="938pt" height="636pt"
 viewBox="0.00 0.00 938.00 636.00" xmlns="http://www.w3.org/2000/svg" xmlns:xlink="http://www.w3.org/1999/xlink">
<g id="graph0" class="graph" transform="scale(1 1) rotate(0) translate(4 632)">
<title>Render::DrawTransparentGreenShade</title>
<polygon fill="white" stroke="none" points="-4,4 -4,-632 934,-632 934,4 -4,4"/>
<!-- Node1 -->
<g id="node1" class="node"><title>Node1</title>
<g id="a_node1"><a xlink:title=" ">
<polygon fill="#bfbfbf" stroke="black" points="0,-470 0,-500 152,-500 152,-470 0,-470"/>
<text text-anchor="start" x="8" y="-488" font-family="Helvetica,sans-Serif" font-size="10.00">Render::DrawTransparentGreen</text>
<text text-anchor="middle" x="76" y="-477" font-family="Helvetica,sans-Serif" font-size="10.00">Shade</text>
</a>
</g>
</g>
<!-- Node2 -->
<g id="node2" class="node"><title>Node2</title>
<g id="a_node2"><a xlink:href="../../da/d7f/class_render.html#a7475faebc77facde2f785c7b74bdf43b" target="_top" xlink:title=" ">
<polygon fill="white" stroke="black" points="188,-475.5 188,-494.5 298,-494.5 298,-475.5 188,-475.5"/>
<text text-anchor="middle" x="243" y="-482.5" font-family="Helvetica,sans-Serif" font-size="10.00">Render::DrawMasked</text>
</a>
</g>
</g>
<!-- Node1&#45;&gt;Node2 -->
<g id="edge1" class="edge"><title>Node1&#45;&gt;Node2</title>
<path fill="none" stroke="midnightblue" d="M152.257,-485C160.624,-485 169.091,-485 177.31,-485"/>
<polygon fill="midnightblue" stroke="midnightblue" points="177.562,-488.5 187.562,-485 177.562,-481.5 177.562,-488.5"/>
</g>
<!-- Node3 -->
<g id="node3" class="node"><title>Node3</title>
<g id="a_node3"><a xlink:href="../../d4/d68/_engine_8cpp.html#a3fa4621a9002451f0e3066f2e027bfd3" target="_top" xlink:title=" ">
<polygon fill="white" stroke="black" points="355,-570.5 355,-589.5 405,-589.5 405,-570.5 355,-570.5"/>
<text text-anchor="middle" x="380" y="-577.5" font-family="Helvetica,sans-Serif" font-size="10.00">Color32</text>
</a>
</g>
</g>
<!-- Node2&#45;&gt;Node3 -->
<g id="edge2" class="edge"><title>Node2&#45;&gt;Node3</title>
<path fill="none" stroke="midnightblue" d="M253.742,-494.983C269.465,-510.668 301.928,-541.319 334,-561 337.659,-563.245 341.631,-565.346 345.648,-567.271"/>
<polygon fill="midnightblue" stroke="midnightblue" points="344.422,-570.556 354.981,-571.429 347.271,-564.162 344.422,-570.556"/>
</g>
<!-- Node4 -->
<g id="node4" class="node"><title>Node4</title>
<g id="a_node4"><a xlink:href="../../de/d73/class_image.html#aafa267b1b060db2b6bb76bd36c5812f0" target="_top" xlink:title=" ">
<polygon fill="white" stroke="black" points="341.5,-532.5 341.5,-551.5 418.5,-551.5 418.5,-532.5 341.5,-532.5"/>
<text text-anchor="middle" x="380" y="-539.5" font-family="Helvetica,sans-Serif" font-size="10.00">Image::Create</text>
</a>
</g>
</g>
<!-- Node2&#45;&gt;Node4 -->
<g id="edge4" class="edge"><title>Node2&#45;&gt;Node4</title>
<path fill="none" stroke="midnightblue" d="M266.596,-494.541C288.596,-503.829 322.243,-518.036 346.993,-528.486"/>
<polygon fill="midnightblue" stroke="midnightblue" points="345.756,-531.763 356.33,-532.428 348.479,-525.314 345.756,-531.763"/>
</g>
<!-- Node8 -->
<g id="node8" class="node"><title>Node8</title>
<g id="a_node8"><a xlink:href="../../de/d73/class_image.html#a5093fa64598a4d7e0c70d43fe67e35cd" target="_top" xlink:title=" ">
<polygon fill="white" stroke="black" points="498,-456.5 498,-475.5 590,-475.5 590,-456.5 498,-456.5"/>
<text text-anchor="middle" x="544" y="-463.5" font-family="Helvetica,sans-Serif" font-size="10.00">Image::GetHeight</text>
</a>
</g>
</g>
<!-- Node2&#45;&gt;Node8 -->
<g id="edge8" class="edge"><title>Node2&#45;&gt;Node8</title>
<path fill="none" stroke="midnightblue" d="M298.147,-481.559C351.742,-478.154 433.399,-472.965 487.471,-469.529"/>
<polygon fill="midnightblue" stroke="midnightblue" points="487.809,-473.014 497.567,-468.887 487.365,-466.028 487.809,-473.014"/>
</g>
<!-- Node11 -->
<g id="node11" class="node"><title>Node11</title>
<g id="a_node11"><a xlink:href="../../de/d73/class_image.html#acfd22d055cadfeed00655c82f4ffdaa2" target="_top" xlink:title=" ">
<polygon fill="white" stroke="black" points="334,-323.5 334,-342.5 426,-342.5 426,-323.5 334,-323.5"/>
<text text-anchor="middle" x="380" y="-330.5" font-family="Helvetica,sans-Serif" font-size="10.00">Image::GetPixels</text>
</a>
</g>
</g>
<!-- Node2&#45;&gt;Node11 -->
<g id="edge13" class="edge"><title>Node2&#45;&gt;Node11</title>
<path fill="none" stroke="midnightblue" d="M252.445,-475.492C274.7,-450.434 335.2,-382.316 363.727,-350.196"/>
<polygon fill="midnightblue" stroke="midnightblue" points="366.535,-352.306 370.558,-342.505 361.301,-347.657 366.535,-352.306"/>
</g>
<!-- Node12 -->
<g id="node12" class="node"><title>Node12</title>
<g id="a_node12"><a xlink:href="../../de/d73/class_image.html#a9241b1c53141c78273e4060a91634d47" target="_top" xlink:title=" ">
<polygon fill="white" stroke="black" points="499,-494.5 499,-513.5 589,-513.5 589,-494.5 499,-494.5"/>
<text text-anchor="middle" x="544" y="-501.5" font-family="Helvetica,sans-Serif" font-size="10.00">Image::GetWidth</text>
</a>
</g>
</g>
<!-- Node2&#45;&gt;Node12 -->
<g id="edge41" class="edge"><title>Node2&#45;&gt;Node12</title>
<path fill="none" stroke="midnightblue" d="M298.147,-488.441C352.216,-491.877 434.846,-497.127 488.9,-500.562"/>
<polygon fill="midnightblue" stroke="midnightblue" points="488.778,-504.061 498.979,-501.203 489.222,-497.075 488.778,-504.061"/>
</g>
<!-- Node34 -->
<g id="node34" class="node"><title>Node34</title>
<g id="a_node34"><a xlink:href="../../de/d73/class_image.html#a79e0e96332914caa0816c7d34822b9bf" target="_top" xlink:title=" ">
<polygon fill="white" stroke="black" points="338,-38.5 338,-57.5 422,-57.5 422,-38.5 338,-38.5"/>
<text text-anchor="middle" x="380" y="-45.5" font-family="Helvetica,sans-Serif" font-size="10.00">Image::Release</text>
</a>
</g>
</g>
<!-- Node2&#45;&gt;Node34 -->
<g id="edge42" class="edge"><title>Node2&#45;&gt;Node34</title>
<path fill="none" stroke="midnightblue" d="M246.945,-475.466C263.925,-420.503 349.376,-143.894 372.962,-67.5451"/>
<polygon fill="midnightblue" stroke="midnightblue" points="376.37,-68.3714 375.978,-57.7839 369.682,-66.3052 376.37,-68.3714"/>
</g>
<!-- Node3&#45;&gt;Node3 -->
<g id="edge3" class="edge"><title>Node3&#45;&gt;Node3</title>
<path fill="none" stroke="midnightblue" d="M359.038,-589.757C348.841,-598.565 355.828,-608 380,-608 395.485,-608 403.918,-604.128 405.298,-599.029"/>
<polygon fill="midnightblue" stroke="midnightblue" points="408.368,-597.333 400.962,-589.757 402.027,-600.298 408.368,-597.333"/>
</g>
<!-- Node5 -->
<g id="node5" class="node"><title>Node5</title>
<g id="a_node5"><a xlink:href="../../d9/d30/_s_d_l__assert_8h.html#afedcea68cf85ee469ab1ea390bbe0abb" target="_top" xlink:title=" ">
<polygon fill="white" stroke="black" points="842,-513.5 842,-532.5 919,-532.5 919,-513.5 842,-513.5"/>
<text text-anchor="middle" x="880.5" y="-520.5" font-family="Helvetica,sans-Serif" font-size="10.00">__debugbreak</text>
</a>
</g>
</g>
<!-- Node4&#45;&gt;Node5 -->
<g id="edge5" class="edge"><title>Node4&#45;&gt;Node5</title>
<path fill="none" stroke="midnightblue" d="M413.8,-551.507C428.417,-555.271 445.93,-559.14 462,-561 595.716,-576.473 754.132,-549.756 831.769,-533.733"/>
<polygon fill="midnightblue" stroke="midnightblue" points="832.659,-537.122 841.728,-531.644 831.223,-530.271 832.659,-537.122"/>
</g>
<!-- Node6 -->
<g id="node6" class="node"><title>Node6</title>
<g id="a_node6"><a xlink:href="../../de/d73/class_image.html#acd9726d92935db3c39feda65e93ff54a" target="_top" xlink:title=" ">
<polygon fill="white" stroke="black" points="506.5,-608.5 506.5,-627.5 581.5,-627.5 581.5,-608.5 506.5,-608.5"/>
<text text-anchor="middle" x="544" y="-615.5" font-family="Helvetica,sans-Serif" font-size="10.00">Image::Image</text>
</a>
</g>
</g>
<!-- Node4&#45;&gt;Node6 -->
<g id="edge6" class="edge"><title>Node4&#45;&gt;Node6</title>
<path fill="none" stroke="midnightblue" d="M407.94,-551.6C414.082,-554.267 420.434,-557.426 426,-561 444.265,-572.726 443.11,-583.309 462,-594 472.571,-599.982 484.778,-604.606 496.458,-608.123"/>
<polygon fill="midnightblue" stroke="midnightblue" points="495.524,-611.496 506.097,-610.824 497.412,-604.756 495.524,-611.496"/>
</g>
<!-- Node7 -->
<g id="node7" class="node"><title>Node7</title>
<g id="a_node7"><a xlink:href="../../d0/dac/_image_8cpp.html#a2d49a4e268507e69f4afe34f9814b0df" target="_top" xlink:title=" ">
<polygon fill="white" stroke="black" points="463.5,-532.5 463.5,-551.5 624.5,-551.5 624.5,-532.5 463.5,-532.5"/>
<text text-anchor="middle" x="544" y="-539.5" font-family="Helvetica,sans-Serif" font-size="10.00">IMAGE_FORMAT_BytesPerPixel</text>
</a>
</g>
</g>
<!-- Node4&#45;&gt;Node7 -->
<g id="edge7" class="edge"><title>Node4&#45;&gt;Node7</title>
<path fill="none" stroke="midnightblue" d="M418.573,-542C429.089,-542 440.99,-542 453.161,-542"/>
<polygon fill="midnightblue" stroke="midnightblue" points="453.424,-545.5 463.424,-542 453.424,-538.5 453.424,-545.5"/>
</g>
<!-- Node8&#45;&gt;Node5 -->
<g id="edge9" class="edge"><title>Node8&#45;&gt;Node5</title>
<path fill="none" stroke="midnightblue" d="M590.112,-473.687C653.251,-484.446 767.452,-503.907 831.901,-514.889"/>
<polygon fill="midnightblue" stroke="midnightblue" points="831.356,-518.346 841.802,-516.576 832.532,-511.446 831.356,-518.346"/>
</g>
<!-- Node9 -->
<g id="node9" class="node"><title>Node9</title>
<g id="a_node9"><a xlink:href="../../de/d73/class_image.html#a9b786ec61110907b38dda728bd281c73" target="_top" xlink:title=" ">
<polygon fill="white" stroke="black" points="670.5,-456.5 670.5,-475.5 786.5,-475.5 786.5,-456.5 670.5,-456.5"/>
<text text-anchor="middle" x="728.5" y="-463.5" font-family="Helvetica,sans-Serif" font-size="10.00">Image::LoadImageData</text>
</a>
</g>
</g>
<!-- Node8&#45;&gt;Node9 -->
<g id="edge10" class="edge"><title>Node8&#45;&gt;Node9</title>
<path fill="none" stroke="midnightblue" d="M590.112,-466C611.26,-466 636.895,-466 660.266,-466"/>
<polygon fill="midnightblue" stroke="midnightblue" points="660.471,-469.5 670.471,-466 660.471,-462.5 660.471,-469.5"/>
</g>
<!-- Node9&#45;&gt;Node5 -->
<g id="edge11" class="edge"><title>Node9&#45;&gt;Node5</title>
<path fill="none" stroke="midnightblue" d="M755.999,-475.566C767.939,-479.913 782.201,-485.156 795,-490 811.795,-496.356 830.393,-503.596 845.855,-509.673"/>
<polygon fill="midnightblue" stroke="midnightblue" points="844.926,-513.069 855.513,-513.477 847.491,-506.556 844.926,-513.069"/>
</g>
<!-- Node10 -->
<g id="node10" class="node"><title>Node10</title>
<g id="a_node10"><a xlink:href="../../d7/d42/class_image_loader.html#ad346c7973ae6f1d84a8c1fc655661319" target="_top" xlink:title=" ">
<polygon fill="white" stroke="black" points="831,-456.5 831,-475.5 930,-475.5 930,-456.5 831,-456.5"/>
<text text-anchor="middle" x="880.5" y="-463.5" font-family="Helvetica,sans-Serif" font-size="10.00">ImageLoader::Load</text>
</a>
</g>
</g>
<!-- Node9&#45;&gt;Node10 -->
<g id="edge12" class="edge"><title>Node9&#45;&gt;Node10</title>
<path fill="none" stroke="midnightblue" d="M786.636,-466C797.793,-466 809.509,-466 820.718,-466"/>
<polygon fill="midnightblue" stroke="midnightblue" points="820.838,-469.5 830.838,-466 820.838,-462.5 820.838,-469.5"/>
</g>
<!-- Node11&#45;&gt;Node7 -->
<g id="edge29" class="edge"><title>Node11&#45;&gt;Node7</title>
<path fill="none" stroke="midnightblue" d="M382.082,-342.677C386.125,-374.026 403.264,-473.617 462,-523 463.983,-524.667 466.086,-526.194 468.282,-527.592"/>
<polygon fill="midnightblue" stroke="midnightblue" points="466.695,-530.713 477.159,-532.37 470.012,-524.549 466.695,-530.713"/>
</g>
<!-- Node11&#45;&gt;Node8 -->
<g id="edge14" class="edge"><title>Node11&#45;&gt;Node8</title>
<path fill="none" stroke="midnightblue" d="M385.539,-342.808C395.928,-364.168 423.541,-415.127 462,-442 469.852,-447.487 478.97,-451.736 488.197,-455.022"/>
<polygon fill="midnightblue" stroke="midnightblue" points="487.211,-458.382 497.803,-458.109 489.353,-451.717 487.211,-458.382"/>
</g>
<!-- Node11&#45;&gt;Node9 -->
<g id="edge39" class="edge"><title>Node11&#45;&gt;Node9</title>
<path fill="none" stroke="midnightblue" d="M388.312,-342.678C401.256,-359.076 429.886,-392.178 462,-409 479.924,-418.389 593.207,-440.819 665.891,-454.577"/>
<polygon fill="midnightblue" stroke="midnightblue" points="665.388,-458.044 675.864,-456.458 666.686,-451.165 665.388,-458.044"/>
</g>
<!-- Node11&#45;&gt;Node12 -->
<g id="edge15" class="edge"><title>Node11&#45;&gt;Node12</title>
<path fill="none" stroke="midnightblue" d="M383.18,-342.635C389.825,-369.696 412.469,-446.891 462,-485 469.899,-491.077 479.425,-495.259 489.126,-498.125"/>
<polygon fill="midnightblue" stroke="midnightblue" points="488.279,-501.521 498.832,-500.575 489.992,-494.734 488.279,-501.521"/>
</g>
<!-- Node13 -->
<g id="node13" class="node"><title>Node13</title>
<g id="a_node13"><a xlink:href="../../d4/d94/_image_format_converter_8h.html#a7909743ad464882c31d015584940a7d9" target="_top" xlink:title=" ">
<polygon fill="white" stroke="black" points="462,-266.5 462,-285.5 626,-285.5 626,-266.5 462,-266.5"/>
<text text-anchor="middle" x="544" y="-273.5" font-family="Helvetica,sans-Serif" font-size="10.00">Image_A1R5G5B5_to_R8G8B8A8</text>
</a>
</g>
</g>
<!-- Node11&#45;&gt;Node13 -->
<g id="edge18" class="edge"><title>Node11&#45;&gt;Node13</title>
<path fill="none" stroke="midnightblue" d="M398.569,-323.45C414.683,-315.01 439.405,-302.854 462,-295 469.387,-292.432 477.272,-290.101 485.114,-288.021"/>
<polygon fill="midnightblue" stroke="midnightblue" points="486.15,-291.369 494.984,-285.521 484.431,-284.583 486.15,-291.369"/>
</g>
<!-- Node18 -->
<g id="node18" class="node"><title>Node18</title>
<g id="a_node18"><a xlink:href="../../d4/d94/_image_format_converter_8h.html#aa17c6708ec4c491b2fddb33456672faa" target="_top" xlink:title=" ">
<polygon fill="white" stroke="black" points="462,-228.5 462,-247.5 626,-247.5 626,-228.5 462,-228.5"/>
<text text-anchor="middle" x="544" y="-235.5" font-family="Helvetica,sans-Serif" font-size="10.00">Image_A8R8G8B8_to_A1R5G5B5</text>
</a>
</g>
</g>
<!-- Node11&#45;&gt;Node18 -->
<g id="edge23" class="edge"><title>Node11&#45;&gt;Node18</title>
<path fill="none" stroke="midnightblue" d="M388.346,-323.387C401.341,-307.085 430.047,-274.125 462,-257 466.309,-254.691 470.894,-252.66 475.607,-250.875"/>
<polygon fill="midnightblue" stroke="midnightblue" points="477.071,-254.074 485.414,-247.543 474.819,-247.446 477.071,-254.074"/>
</g>
<!-- Node20 -->
<g id="node20" class="node"><title>Node20</title>
<g id="a_node20"><a xlink:href="../../d4/d94/_image_format_converter_8h.html#ae3332c95890054f7cda680ad023eb719" target="_top" xlink:title=" ">
<polygon fill="white" stroke="black" points="468,-152.5 468,-171.5 620,-171.5 620,-152.5 468,-152.5"/>
<text text-anchor="middle" x="544" y="-159.5" font-family="Helvetica,sans-Serif" font-size="10.00">Image_A8R8G8B8_to_R5G6B5</text>
</a>
</g>
</g>
<!-- Node11&#45;&gt;Node20 -->
<g id="edge25" class="edge"><title>Node11&#45;&gt;Node20</title>
<path fill="none" stroke="midnightblue" d="M383.18,-323.365C389.825,-296.304 412.469,-219.109 462,-181 464.361,-179.183 466.868,-177.536 469.481,-176.043"/>
<polygon fill="midnightblue" stroke="midnightblue" points="471.266,-179.066 478.719,-171.536 468.197,-172.775 471.266,-179.066"/>
</g>
<!-- Node22 -->
<g id="node22" class="node"><title>Node22</title>
<g id="a_node22"><a xlink:href="../../d4/d94/_image_format_converter_8h.html#aee128ab402e6aaf80515a1badf12347d" target="_top" xlink:title=" ">
<polygon fill="white" stroke="black" points="462,-114.5 462,-133.5 626,-133.5 626,-114.5 462,-114.5"/>
<text text-anchor="middle" x="544" y="-121.5" font-family="Helvetica,sans-Serif" font-size="10.00">Image_A8R8G8B8_to_R8G8B8A8</text>
</a>
</g>
</g>
<!-- Node11&#45;&gt;Node22 -->
<g id="edge27" class="edge"><title>Node11&#45;&gt;Node22</title>
<path fill="none" stroke="midnightblue" d="M382.082,-323.323C386.125,-291.974 403.264,-192.383 462,-143 463.983,-141.333 466.086,-139.806 468.282,-138.408"/>
<polygon fill="midnightblue" stroke="midnightblue" points="470.012,-141.451 477.159,-133.63 466.695,-135.287 470.012,-141.451"/>
</g>
<!-- Node24 -->
<g id="node24" class="node"><title>Node24</title>
<g id="a_node24"><a xlink:href="../../d0/dac/_image_8cpp.html#ab982c37f51b50cdefe19261be0e15e13" target="_top" xlink:title=" ">
<polygon fill="white" stroke="black" points="476.5,-190.5 476.5,-209.5 611.5,-209.5 611.5,-190.5 476.5,-190.5"/>
<text text-anchor="middle" x="544" y="-197.5" font-family="Helvetica,sans-Serif" font-size="10.00">IMAGE_FORMAT_ToString</text>
</a>
</g>
</g>
<!-- Node11&#45;&gt;Node24 -->
<g id="edge30" class="edge"><title>Node11&#45;&gt;Node24</title>
<path fill="none" stroke="midnightblue" d="M385.001,-323.244C394.662,-300.974 421.496,-246.22 462,-219 464.967,-217.006 468.118,-215.22 471.388,-213.62"/>
<polygon fill="midnightblue" stroke="midnightblue" points="473.039,-216.722 480.872,-209.588 470.299,-210.28 473.039,-216.722"/>
</g>
<!-- Node25 -->
<g id="node25" class="node"><title>Node25</title>
<g id="a_node25"><a xlink:href="../../d4/d94/_image_format_converter_8h.html#a573e450ba52428d68be57bc280b7d9e5" target="_top" xlink:title=" ">
<polygon fill="white" stroke="black" points="468,-76.5 468,-95.5 620,-95.5 620,-76.5 468,-76.5"/>
<text text-anchor="middle" x="544" y="-83.5" font-family="Helvetica,sans-Serif" font-size="10.00">Image_R5G6B5_to_A8R8G8B8</text>
</a>
</g>
</g>
<!-- Node11&#45;&gt;Node25 -->
<g id="edge31" class="edge"><title>Node11&#45;&gt;Node25</title>
<path fill="none" stroke="midnightblue" d="M381.313,-323.457C383.002,-288.464 393.756,-166.064 462,-105 463.749,-103.435 465.603,-101.992 467.54,-100.662"/>
<polygon fill="midnightblue" stroke="midnightblue" points="469.572,-103.532 476.51,-95.5252 466.093,-97.4572 469.572,-103.532"/>
</g>
<!-- Node27 -->
<g id="node27" class="node"><title>Node27</title>
<g id="a_node27"><a xlink:href="../../d4/d94/_image_format_converter_8h.html#a0dc48a3cb903468a6845ef345689e23d" target="_top" xlink:title=" ">
<polygon fill="white" stroke="black" points="474,-342.5 474,-361.5 614,-361.5 614,-342.5 474,-342.5"/>
<text text-anchor="middle" x="544" y="-349.5" font-family="Helvetica,sans-Serif" font-size="10.00">Image_R5G6B5_to_R8G8B8</text>
</a>
</g>
</g>
<!-- Node11&#45;&gt;Node27 -->
<g id="edge33" class="edge"><title>Node11&#45;&gt;Node27</title>
<path fill="none" stroke="midnightblue" d="M426.126,-338.293C437.798,-339.662 450.716,-341.177 463.58,-342.685"/>
<polygon fill="midnightblue" stroke="midnightblue" points="463.521,-346.202 473.861,-343.891 464.336,-339.25 463.521,-346.202"/>
</g>
<!-- Node31 -->
<g id="node31" class="node"><title>Node31</title>
<g id="a_node31"><a xlink:href="../../d4/d94/_image_format_converter_8h.html#a2c1701231a84895f79d40614fa6b37fa" target="_top" xlink:title=" ">
<polygon fill="white" stroke="black" points="468,-304.5 468,-323.5 620,-323.5 620,-304.5 468,-304.5"/>
<text text-anchor="middle" x="544" y="-311.5" font-family="Helvetica,sans-Serif" font-size="10.00">Image_R5G6B5_to_R8G8B8A8</text>
</a>
</g>
</g>
<!-- Node11&#45;&gt;Node31 -->
<g id="edge37" class="edge"><title>Node11&#45;&gt;Node31</title>
<path fill="none" stroke="midnightblue" d="M426.126,-327.707C436.018,-326.547 446.804,-325.282 457.694,-324.005"/>
<polygon fill="midnightblue" stroke="midnightblue" points="458.178,-327.472 467.702,-322.831 457.363,-320.52 458.178,-327.472"/>
</g>
<!-- Node33 -->
<g id="node33" class="node"><title>Node33</title>
<g id="a_node33"><a xlink:href="../../d6/d70/class_log.html#ac0de2621497ca3b2fbf208624c08bcdf" target="_top" xlink:title=" ">
<polygon fill="white" stroke="black" points="507,-380.5 507,-399.5 581,-399.5 581,-380.5 507,-380.5"/>
<text text-anchor="middle" x="544" y="-387.5" font-family="Helvetica,sans-Serif" font-size="10.00">Log::Warning</text>
</a>
</g>
</g>
<!-- Node11&#45;&gt;Node33 -->
<g id="edge40" class="edge"><title>Node11&#45;&gt;Node33</title>
<path fill="none" stroke="midnightblue" d="M398.569,-342.55C414.683,-350.99 439.405,-363.146 462,-371 473.08,-374.851 485.282,-378.171 496.778,-380.909"/>
<polygon fill="midnightblue" stroke="midnightblue" points="496.126,-384.35 506.654,-383.164 497.684,-377.526 496.126,-384.35"/>
</g>
<!-- Node12&#45;&gt;Node5 -->
<g id="edge16" class="edge"><title>Node12&#45;&gt;Node5</title>
<path fill="none" stroke="midnightblue" d="M589.073,-510.289C610.955,-513.152 637.819,-516.279 662,-518 720.248,-522.145 787.469,-523.107 831.581,-523.219"/>
<polygon fill="midnightblue" stroke="midnightblue" points="831.724,-526.719 841.728,-523.231 831.732,-519.719 831.724,-526.719"/>
</g>
<!-- Node12&#45;&gt;Node9 -->
<g id="edge17" class="edge"><title>Node12&#45;&gt;Node9</title>
<path fill="none" stroke="midnightblue" d="M589.178,-494.801C614.06,-489.62 645.372,-483.101 671.909,-477.575"/>
<polygon fill="midnightblue" stroke="midnightblue" points="672.746,-480.976 681.823,-475.511 671.319,-474.123 672.746,-480.976"/>
</g>
<!-- Node14 -->
<g id="node14" class="node"><title>Node14</title>
<g id="a_node14"><a xlink:href="../../d4/d94/_image_format_converter_8h.html#adf2b1a0005df71e46bb914d080a9ceb1" target="_top" xlink:title=" ">
<polygon fill="white" stroke="black" points="672,-228.5 672,-247.5 785,-247.5 785,-228.5 672,-228.5"/>
<text text-anchor="middle" x="728.5" y="-235.5" font-family="Helvetica,sans-Serif" font-size="10.00">A1R5G5B5_extract_A</text>
</a>
</g>
</g>
<!-- Node13&#45;&gt;Node14 -->
<g id="edge19" class="edge"><title>Node13&#45;&gt;Node14</title>
<path fill="none" stroke="midnightblue" d="M591.052,-266.411C615.569,-261.306 645.91,-254.989 671.75,-249.608"/>
<polygon fill="midnightblue" stroke="midnightblue" points="672.702,-252.985 681.779,-247.52 671.275,-246.132 672.702,-252.985"/>
</g>
<!-- Node15 -->
<g id="node15" class="node"><title>Node15</title>
<g id="a_node15"><a xlink:href="../../d4/d94/_image_format_converter_8h.html#a2f707a9807d15ca043f8955072daf991" target="_top" xlink:title=" ">
<polygon fill="white" stroke="black" points="672,-190.5 672,-209.5 785,-209.5 785,-190.5 672,-190.5"/>
<text text-anchor="middle" x="728.5" y="-197.5" font-family="Helvetica,sans-Serif" font-size="10.00">A1R5G5B5_extract_B</text>
</a>
</g>
</g>
<!-- Node13&#45;&gt;Node15 -->
<g id="edge20" class="edge"><title>Node13&#45;&gt;Node15</title>
<path fill="none" stroke="midnightblue" d="M604.075,-266.436C611.722,-263.977 619.237,-260.885 626,-257 646.173,-245.412 642.135,-231.108 662,-219 665.428,-216.911 669.097,-215.041 672.883,-213.371"/>
<polygon fill="midnightblue" stroke="midnightblue" points="674.432,-216.523 682.464,-209.614 671.877,-210.006 674.432,-216.523"/>
</g>
<!-- Node16 -->
<g id="node16" class="node"><title>Node16</title>
<g id="a_node16"><a xlink:href="../../d4/d94/_image_format_converter_8h.html#a0da5a7b25d9c3204b011d43a2f1a31b5" target="_top" xlink:title=" ">
<polygon fill="white" stroke="black" points="672,-152.5 672,-171.5 785,-171.5 785,-152.5 672,-152.5"/>
<text text-anchor="middle" x="728.5" y="-159.5" font-family="Helvetica,sans-Serif" font-size="10.00">A1R5G5B5_extract_G</text>
</a>
</g>
</g>
<!-- Node13&#45;&gt;Node16 -->
<g id="edge21" class="edge"><title>Node13&#45;&gt;Node16</title>
<path fill="none" stroke="midnightblue" d="M610.281,-266.357C615.929,-263.884 621.281,-260.812 626,-257 655.076,-233.516 633.543,-205.231 662,-181 664.011,-179.287 666.17,-177.729 668.434,-176.31"/>
<polygon fill="midnightblue" stroke="midnightblue" points="670.372,-179.247 677.608,-171.507 667.125,-173.045 670.372,-179.247"/>
</g>
<!-- Node17 -->
<g id="node17" class="node"><title>Node17</title>
<g id="a_node17"><a xlink:href="../../d4/d94/_image_format_converter_8h.html#a001919a6b7668fe120806f4c0cd703d9" target="_top" xlink:title=" ">
<polygon fill="white" stroke="black" points="672,-266.5 672,-285.5 785,-285.5 785,-266.5 672,-266.5"/>
<text text-anchor="middle" x="728.5" y="-273.5" font-family="Helvetica,sans-Serif" font-size="10.00">A1R5G5B5_extract_R</text>
</a>
</g>
</g>
<!-- Node13&#45;&gt;Node17 -->
<g id="edge22" class="edge"><title>Node13&#45;&gt;Node17</title>
<path fill="none" stroke="midnightblue" d="M626.11,-276C637.917,-276 649.954,-276 661.416,-276"/>
<polygon fill="midnightblue" stroke="midnightblue" points="661.758,-279.5 671.758,-276 661.758,-272.5 661.758,-279.5"/>
</g>
<!-- Node19 -->
<g id="node19" class="node"><title>Node19</title>
<g id="a_node19"><a xlink:href="../../d4/d94/_image_format_converter_8h.html#a757c28f5b88155fabd0a99c9dd12393b" target="_top" xlink:title=" ">
<polygon fill="white" stroke="black" points="662,-114.5 662,-133.5 795,-133.5 795,-114.5 662,-114.5"/>
<text text-anchor="middle" x="728.5" y="-121.5" font-family="Helvetica,sans-Serif" font-size="10.00">A8R8G8B8_to_A1R5G5B5</text>
</a>
</g>
</g>
<!-- Node18&#45;&gt;Node19 -->
<g id="edge24" class="edge"><title>Node18&#45;&gt;Node19</title>
<path fill="none" stroke="midnightblue" d="M610.281,-228.357C615.929,-225.884 621.281,-222.812 626,-219 655.076,-195.516 633.543,-167.231 662,-143 664.011,-141.287 666.17,-139.729 668.434,-138.31"/>
<polygon fill="midnightblue" stroke="midnightblue" points="670.372,-141.247 677.608,-133.507 667.125,-135.045 670.372,-141.247"/>
</g>
<!-- Node21 -->
<g id="node21" class="node"><title>Node21</title>
<g id="a_node21"><a xlink:href="../../d4/d94/_image_format_converter_8h.html#a5d610db2858945d20b4ef4a48da889c3" target="_top" xlink:title=" ">
<polygon fill="white" stroke="black" points="668,-76.5 668,-95.5 789,-95.5 789,-76.5 668,-76.5"/>
<text text-anchor="middle" x="728.5" y="-83.5" font-family="Helvetica,sans-Serif" font-size="10.00">A8R8G8B8_to_R5G6B5</text>
</a>
</g>
</g>
<!-- Node20&#45;&gt;Node21 -->
<g id="edge26" class="edge"><title>Node20&#45;&gt;Node21</title>
<path fill="none" stroke="midnightblue" d="M604.075,-152.436C611.722,-149.977 619.237,-146.885 626,-143 646.173,-131.412 642.135,-117.108 662,-105 665.428,-102.911 669.097,-101.041 672.883,-99.3707"/>
<polygon fill="midnightblue" stroke="midnightblue" points="674.432,-102.523 682.464,-95.6142 671.877,-96.0059 674.432,-102.523"/>
</g>
<!-- Node23 -->
<g id="node23" class="node"><title>Node23</title>
<g id="a_node23"><a xlink:href="../../d4/d94/_image_format_converter_8h.html#a0bfbdeb2628ef42c7e4cac50df88d8c0" target="_top" xlink:title=" ">
<polygon fill="white" stroke="black" points="662,-38.5 662,-57.5 795,-57.5 795,-38.5 662,-38.5"/>
<text text-anchor="middle" x="728.5" y="-45.5" font-family="Helvetica,sans-Serif" font-size="10.00">A8R8G8B8_to_R8G8B8A8</text>
</a>
</g>
</g>
<!-- Node22&#45;&gt;Node23 -->
<g id="edge28" class="edge"><title>Node22&#45;&gt;Node23</title>
<path fill="none" stroke="midnightblue" d="M604.075,-114.436C611.722,-111.977 619.237,-108.885 626,-105 646.173,-93.4119 642.135,-79.1079 662,-67 665.428,-64.9106 669.097,-63.0414 672.883,-61.3707"/>
<polygon fill="midnightblue" stroke="midnightblue" points="674.432,-64.5229 682.464,-57.6142 671.877,-58.0059 674.432,-64.5229"/>
</g>
<!-- Node26 -->
<g id="node26" class="node"><title>Node26</title>
<g id="a_node26"><a xlink:href="../../d4/d94/_image_format_converter_8h.html#a4a66f93259ecaf44317eae4fed3f7e26" target="_top" xlink:title=" ">
<polygon fill="white" stroke="black" points="668,-0.5 668,-19.5 789,-19.5 789,-0.5 668,-0.5"/>
<text text-anchor="middle" x="728.5" y="-7.5" font-family="Helvetica,sans-Serif" font-size="10.00">R5G6B5_to_A8R8G8B8</text>
</a>
</g>
</g>
<!-- Node25&#45;&gt;Node26 -->
<g id="edge32" class="edge"><title>Node25&#45;&gt;Node26</title>
<path fill="none" stroke="midnightblue" d="M604.075,-76.4364C611.722,-73.9766 619.237,-70.8851 626,-67 646.173,-55.4119 642.135,-41.1079 662,-29 665.428,-26.9106 669.097,-25.0414 672.883,-23.3707"/>
<polygon fill="midnightblue" stroke="midnightblue" points="674.432,-26.5229 682.464,-19.6142 671.877,-20.0059 674.432,-26.5229"/>
</g>
<!-- Node28 -->
<g id="node28" class="node"><title>Node28</title>
<g id="a_node28"><a xlink:href="../../d4/d94/_image_format_converter_8h.html#adaf083df2188ace815dd2f35e067453c" target="_top" xlink:title=" ">
<polygon fill="white" stroke="black" points="678,-418.5 678,-437.5 779,-437.5 779,-418.5 678,-418.5"/>
<text text-anchor="middle" x="728.5" y="-425.5" font-family="Helvetica,sans-Serif" font-size="10.00">R5G6B5_extract_B</text>
</a>
</g>
</g>
<!-- Node27&#45;&gt;Node28 -->
<g id="edge34" class="edge"><title>Node27&#45;&gt;Node28</title>
<path fill="none" stroke="midnightblue" d="M604.075,-361.564C611.722,-364.023 619.237,-367.115 626,-371 646.173,-382.588 642.135,-396.892 662,-409 665.428,-411.089 669.097,-412.959 672.883,-414.629"/>
<polygon fill="midnightblue" stroke="midnightblue" points="671.877,-417.994 682.464,-418.386 674.432,-411.477 671.877,-417.994"/>
</g>
<!-- Node29 -->
<g id="node29" class="node"><title>Node29</title>
<g id="a_node29"><a xlink:href="../../d4/d94/_image_format_converter_8h.html#a37fb8dfe8fccc82fa7a0b7c4e3758a2f" target="_top" xlink:title=" ">
<polygon fill="white" stroke="black" points="678,-380.5 678,-399.5 779,-399.5 779,-380.5 678,-380.5"/>
<text text-anchor="middle" x="728.5" y="-387.5" font-family="Helvetica,sans-Serif" font-size="10.00">R5G6B5_extract_G</text>
</a>
</g>
</g>
<!-- Node27&#45;&gt;Node29 -->
<g id="edge35" class="edge"><title>Node27&#45;&gt;Node29</title>
<path fill="none" stroke="midnightblue" d="M591.052,-361.589C615.569,-366.694 645.91,-373.011 671.75,-378.392"/>
<polygon fill="midnightblue" stroke="midnightblue" points="671.275,-381.868 681.779,-380.48 672.702,-375.015 671.275,-381.868"/>
</g>
<!-- Node30 -->
<g id="node30" class="node"><title>Node30</title>
<g id="a_node30"><a xlink:href="../../d4/d94/_image_format_converter_8h.html#a3cd95d7a689b9d27cf1266f1bedd17ec" target="_top" xlink:title=" ">
<polygon fill="white" stroke="black" points="678,-342.5 678,-361.5 779,-361.5 779,-342.5 678,-342.5"/>
<text text-anchor="middle" x="728.5" y="-349.5" font-family="Helvetica,sans-Serif" font-size="10.00">R5G6B5_extract_R</text>
</a>
</g>
</g>
<!-- Node27&#45;&gt;Node30 -->
<g id="edge36" class="edge"><title>Node27&#45;&gt;Node30</title>
<path fill="none" stroke="midnightblue" d="M614.256,-352C631.792,-352 650.48,-352 667.515,-352"/>
<polygon fill="midnightblue" stroke="midnightblue" points="667.883,-355.5 677.882,-352 667.882,-348.5 667.883,-355.5"/>
</g>
<!-- Node32 -->
<g id="node32" class="node"><title>Node32</title>
<g id="a_node32"><a xlink:href="../../d4/d94/_image_format_converter_8h.html#aab2c71c27e9a2fdda3b8b15f3c3ab334" target="_top" xlink:title=" ">
<polygon fill="white" stroke="black" points="668,-304.5 668,-323.5 789,-323.5 789,-304.5 668,-304.5"/>
<text text-anchor="middle" x="728.5" y="-311.5" font-family="Helvetica,sans-Serif" font-size="10.00">R5G6B5_to_R8G8B8A8</text>
</a>
</g>
</g>
<!-- Node31&#45;&gt;Node32 -->
<g id="edge38" class="edge"><title>Node31&#45;&gt;Node32</title>
<path fill="none" stroke="midnightblue" d="M620.02,-314C632.462,-314 645.321,-314 657.63,-314"/>
<polygon fill="midnightblue" stroke="midnightblue" points="657.819,-317.5 667.819,-314 657.819,-310.5 657.819,-317.5"/>
</g>
<!-- Node35 -->
<g id="node35" class="node"><title>Node35</title>
<g id="a_node35"><a xlink:href="../../d7/d42/class_image_loader.html#a18f2d859b812d0877891b4960ad48e53" target="_top" xlink:title=" ">
<polygon fill="white" stroke="black" points="463.5,-0.5 463.5,-19.5 624.5,-19.5 624.5,-0.5 463.5,-0.5"/>
<text text-anchor="middle" x="544" y="-7.5" font-family="Helvetica,sans-Serif" font-size="10.00">ImageLoader::GetResourceName</text>
</a>
</g>
</g>
<!-- Node34&#45;&gt;Node35 -->
<g id="edge43" class="edge"><title>Node34&#45;&gt;Node35</title>
<path fill="none" stroke="midnightblue" d="M421.879,-38.411C443.353,-33.3739 469.86,-27.1562 492.597,-21.8229"/>
<polygon fill="midnightblue" stroke="midnightblue" points="493.478,-25.2113 502.415,-19.5201 491.879,-18.3963 493.478,-25.2113"/>
</g>
<!-- Node36 -->
<g id="node36" class="node"><title>Node36</title>
<g id="a_node36"><a xlink:href="../../db/dd6/class_assets_manager.html#a267f5a440cbd28f4a1a0d9527223bd08" target="_top" xlink:title=" ">
<polygon fill="white" stroke="black" points="468,-38.5 468,-57.5 620,-57.5 620,-38.5 468,-38.5"/>
<text text-anchor="middle" x="544" y="-45.5" font-family="Helvetica,sans-Serif" font-size="10.00">AssetsManager::ReleaseImage</text>
</a>
</g>
</g>
<!-- Node34&#45;&gt;Node36 -->
<g id="edge44" class="edge"><title>Node34&#45;&gt;Node36</title>
<path fill="none" stroke="midnightblue" d="M422.299,-48C433.138,-48 445.237,-48 457.474,-48"/>
<polygon fill="midnightblue" stroke="midnightblue" points="457.761,-51.5001 467.761,-48 457.761,-44.5001 457.761,-51.5001"/>
</g>
</g>
</svg>
