<?xml version="1.0" encoding="UTF-8" standalone="no"?>
<!DOCTYPE svg PUBLIC "-//W3C//DTD SVG 1.1//EN"
 "http://www.w3.org/Graphics/SVG/1.1/DTD/svg11.dtd">
<!-- Generated by graphviz version 2.38.0 (20140413.2041)
 -->
<!-- Title: Render::DrawPolygon Pages: 1 -->
<!--zoomable 241 -->
<svg id="main" version="1.1" xmlns="http://www.w3.org/2000/svg" xmlns:xlink="http://www.w3.org/1999/xlink" xml:space="preserve" onload="init(evt)">
<style type="text/css"><![CDATA[
.edge:hover path { stroke: red; }
.edge:hover polygon { stroke: red; fill: red; }
]]></style>
<script type="text/javascript"><![CDATA[
var edges = document.getElementsByTagName('g');
if (edges && edges.length) {
  for (var i=0;i<edges.length;i++) {
    if (edges[i].id.substr(0,4)=='edge') {
      edges[i].setAttribute('class','edge');
    }
  }
}
]]></script>
        <defs>
                <circle id="rim" cx="0" cy="0" r="7"/>
                <circle id="rim2" cx="0" cy="0" r="3.5"/>
                <g id="zoomPlus">
                        <use xlink:href="#rim" fill="#404040">
                                <set attributeName="fill" to="#808080" begin="zoomplus.mouseover" end="zoomplus.mouseout"/>
                        </use>
                        <path d="M-4,0h8M0,-4v8" fill="none" stroke="white" stroke-width="1.5" pointer-events="none"/>
                </g>
                <g id="zoomMin">
                        <use xlink:href="#rim" fill="#404040">
                                <set attributeName="fill" to="#808080" begin="zoomminus.mouseover" end="zoomminus.mouseout"/>
                        </use>
                        <path d="M-4,0h8" fill="none" stroke="white" stroke-width="1.5" pointer-events="none"/>
                </g>
                <g id="dirArrow">
                        <path fill="none" stroke="white" stroke-width="1.5" d="M0,-3.0v7 M-2.5,-0.5L0,-3.0L2.5,-0.5"/>
                </g>
               <g id="resetDef">
                       <use xlink:href="#rim2" fill="#404040">
                               <set attributeName="fill" to="#808080" begin="reset.mouseover" end="reset.mouseout"/>
                       </use>
               </g>
        </defs>

<script type="text/javascript">
var viewWidth = 898;
var viewHeight = 241;
var sectionId = 'dynsection-29';
</script>
<script xlink:href="../../svgpan.js"/>
<svg id="graph" class="graph">
<g id="viewport">
<title>Render::DrawPolygon</title>
<polygon fill="white" stroke="none" points="-4,4 -4,-236.5 894,-236.5 894,4 -4,4"/>
<!-- Node1 -->
<g id="node1" class="node"><title>Node1</title>
<g id="a_node1"><a xlink:title=" ">
<polygon fill="#bfbfbf" stroke="black" points="0,-107 0,-126 110,-126 110,-107 0,-107"/>
<text text-anchor="middle" x="55" y="-114" font-family="Helvetica,sans-Serif" font-size="10.00">Render::DrawPolygon</text>
</a>
</g>
</g>
<!-- Node2 -->
<g id="node2" class="node"><title>Node2</title>
<g id="a_node2"><a xlink:href="../../d8/d95/class_lightmap_builder.html#a6d9ffef1494e6fa977e551a65ab0bf67" target="_top" xlink:title=" ">
<polygon fill="white" stroke="black" points="146,-164 146,-183 305,-183 305,-164 146,-164"/>
<text text-anchor="middle" x="225.5" y="-171" font-family="Helvetica,sans-Serif" font-size="10.00">LightmapBuilder::DrawLightmaps</text>
</a>
</g>
</g>
<!-- Node1&#45;&gt;Node2 -->
<g id="edge1" class="edge"><title>Node1&#45;&gt;Node2</title>
<path fill="none" stroke="midnightblue" d="M76.0155,-126.058C94.0213,-134.388 121.355,-146.374 146,-154.5 153.669,-157.028 161.859,-159.381 169.949,-161.508"/>
<polygon fill="midnightblue" stroke="midnightblue" points="169.172,-164.922 179.725,-163.989 170.893,-158.137 169.172,-164.922"/>
</g>
<!-- Node4 -->
<g id="node4" class="node"><title>Node4</title>
<g id="a_node4"><a xlink:href="../../da/d7f/class_render.html#a3fa28b49954a5e0bd04d6ecec33a20cf" target="_top" xlink:title=" ">
<polygon fill="white" stroke="black" points="160,-202 160,-221 291,-221 291,-202 160,-202"/>
<text text-anchor="middle" x="225.5" y="-209" font-family="Helvetica,sans-Serif" font-size="10.00">Render::GetActorTintColor</text>
</a>
</g>
</g>
<!-- Node1&#45;&gt;Node4 -->
<g id="edge3" class="edge"><title>Node1&#45;&gt;Node4</title>
<path fill="none" stroke="midnightblue" d="M64.4187,-126.057C79.2461,-142.274 111.71,-175.109 146,-192.5 150.649,-194.858 155.602,-196.931 160.674,-198.753"/>
<polygon fill="midnightblue" stroke="midnightblue" points="159.933,-202.193 170.525,-201.957 162.098,-195.536 159.933,-202.193"/>
</g>
<!-- Node9 -->
<g id="node9" class="node"><title>Node9</title>
<g id="a_node9"><a xlink:href="../../d9/de5/struct_indoor_camera_d3_d.html#ae44ac296d0d5225048b313e14edf7da1" target="_top" xlink:title=" ">
<polygon fill="white" stroke="black" points="151.5,-126 151.5,-145 299.5,-145 299.5,-126 151.5,-126"/>
<text text-anchor="middle" x="225.5" y="-133" font-family="Helvetica,sans-Serif" font-size="10.00">IndoorCameraD3D::GetFarClip</text>
</a>
</g>
</g>
<!-- Node1&#45;&gt;Node9 -->
<g id="edge8" class="edge"><title>Node1&#45;&gt;Node9</title>
<path fill="none" stroke="midnightblue" d="M110.242,-122.616C120.157,-123.734 130.71,-124.924 141.243,-126.112"/>
<polygon fill="midnightblue" stroke="midnightblue" points="140.984,-129.605 151.313,-127.247 141.768,-122.649 140.984,-129.605"/>
</g>
<!-- Node10 -->
<g id="node10" class="node"><title>Node10</title>
<g id="a_node10"><a xlink:href="../../d1/d03/_outdoor_8cpp.html#a8d5c8191b77230ef2e0a584341500920" target="_top" xlink:title=" ">
<polygon fill="white" stroke="black" points="179,-88 179,-107 272,-107 272,-88 179,-88"/>
<text text-anchor="middle" x="225.5" y="-95" font-family="Helvetica,sans-Serif" font-size="10.00">GetLevelFogColor</text>
</a>
</g>
</g>
<!-- Node1&#45;&gt;Node10 -->
<g id="edge9" class="edge"><title>Node1&#45;&gt;Node10</title>
<path fill="none" stroke="midnightblue" d="M110.242,-110.384C128.912,-108.278 149.844,-105.918 168.64,-103.799"/>
<polygon fill="midnightblue" stroke="midnightblue" points="169.291,-107.248 178.836,-102.649 168.506,-100.292 169.291,-107.248"/>
</g>
<!-- Node12 -->
<g id="node12" class="node"><title>Node12</title>
<g id="a_node12"><a xlink:href="../../d4/ddd/_api_8h.html#ac0cda4967d55e3ade51d622720b64936" target="_top" xlink:title=" ">
<polygon fill="white" stroke="black" points="189,-50 189,-69 262,-69 262,-50 189,-50"/>
<text text-anchor="middle" x="225.5" y="-57" font-family="Helvetica,sans-Serif" font-size="10.00">OS_GetTime</text>
</a>
</g>
</g>
<!-- Node1&#45;&gt;Node12 -->
<g id="edge12" class="edge"><title>Node1&#45;&gt;Node12</title>
<path fill="none" stroke="midnightblue" d="M76.0155,-106.942C94.0213,-98.6121 121.355,-86.6258 146,-78.5 156.603,-75.0038 168.205,-71.8444 179.158,-69.1505"/>
<polygon fill="midnightblue" stroke="midnightblue" points="180.07,-72.5314 188.988,-66.811 178.449,-65.7216 180.07,-72.5314"/>
</g>
<!-- Node13 -->
<g id="node13" class="node"><title>Node13</title>
<g id="a_node13"><a xlink:href="../../d1/d03/_outdoor_8cpp.html#a84d5fb801638d6a02bb9ef829cf5b5b8" target="_top" xlink:title=" ">
<polygon fill="white" stroke="black" points="171,-0.5 171,-30.5 280,-30.5 280,-0.5 171,-0.5"/>
<text text-anchor="start" x="179" y="-18.5" font-family="Helvetica,sans-Serif" font-size="10.00">sub_47C3D7_get_fog</text>
<text text-anchor="middle" x="225.5" y="-7.5" font-family="Helvetica,sans-Serif" font-size="10.00">_specular</text>
</a>
</g>
</g>
<!-- Node1&#45;&gt;Node13 -->
<g id="edge13" class="edge"><title>Node1&#45;&gt;Node13</title>
<path fill="none" stroke="midnightblue" d="M64.795,-106.944C79.9333,-91.0225 112.527,-58.9951 146,-40.5 150.851,-37.8196 156.032,-35.3778 161.332,-33.1639"/>
<polygon fill="midnightblue" stroke="midnightblue" points="162.903,-36.3084 170.955,-29.4225 160.367,-29.7842 162.903,-36.3084"/>
</g>
<!-- Node3 -->
<g id="node3" class="node"><title>Node3</title>
<g id="a_node3"><a xlink:href="../../d9/d30/_s_d_l__assert_8h.html#afedcea68cf85ee469ab1ea390bbe0abb" target="_top" xlink:title=" ">
<polygon fill="white" stroke="black" points="349.5,-145 349.5,-164 426.5,-164 426.5,-145 349.5,-145"/>
<text text-anchor="middle" x="388" y="-152" font-family="Helvetica,sans-Serif" font-size="10.00">__debugbreak</text>
</a>
</g>
</g>
<!-- Node2&#45;&gt;Node3 -->
<g id="edge2" class="edge"><title>Node2&#45;&gt;Node3</title>
<path fill="none" stroke="midnightblue" d="M305.339,-164.167C316.994,-162.787 328.689,-161.403 339.439,-160.13"/>
<polygon fill="midnightblue" stroke="midnightblue" points="339.906,-163.6 349.425,-158.948 339.083,-156.648 339.906,-163.6"/>
</g>
<!-- Node5 -->
<g id="node5" class="node"><title>Node5</title>
<g id="a_node5"><a xlink:href="../../d2/dc7/_render_8cpp.html#affb59d87fdc8c1c2415376ae745a2821" target="_top" xlink:title=" ">
<polygon fill="white" stroke="black" points="341,-202 341,-221 435,-221 435,-202 341,-202"/>
<text text-anchor="middle" x="388" y="-209" font-family="Helvetica,sans-Serif" font-size="10.00">GetActorTintColor</text>
</a>
</g>
</g>
<!-- Node4&#45;&gt;Node5 -->
<g id="edge4" class="edge"><title>Node4&#45;&gt;Node5</title>
<path fill="none" stroke="midnightblue" d="M291.319,-211.5C304.233,-211.5 317.701,-211.5 330.317,-211.5"/>
<polygon fill="midnightblue" stroke="midnightblue" points="330.683,-215 340.683,-211.5 330.683,-208 330.683,-215"/>
</g>
<!-- Node6 -->
<g id="node6" class="node"><title>Node6</title>
<g id="a_node6"><a xlink:href="../../d2/dc7/_render_8cpp.html#ac91abbddf2a7fc9ee162e3fadf8534f6" target="_top" xlink:title=" ">
<polygon fill="white" stroke="black" points="471,-196.5 471,-226.5 586,-226.5 586,-196.5 471,-196.5"/>
<text text-anchor="start" x="479" y="-214.5" font-family="Helvetica,sans-Serif" font-size="10.00">_43F55F_get_billboard</text>
<text text-anchor="middle" x="528.5" y="-203.5" font-family="Helvetica,sans-Serif" font-size="10.00">_light_level</text>
</a>
</g>
</g>
<!-- Node5&#45;&gt;Node6 -->
<g id="edge5" class="edge"><title>Node5&#45;&gt;Node6</title>
<path fill="none" stroke="midnightblue" d="M435.118,-211.5C443.376,-211.5 452.13,-211.5 460.829,-211.5"/>
<polygon fill="midnightblue" stroke="midnightblue" points="460.983,-215 470.983,-211.5 460.983,-208 460.983,-215"/>
</g>
<!-- Node7 -->
<g id="node7" class="node"><title>Node7</title>
<g id="a_node7"><a xlink:href="../../d2/dc7/_render_8cpp.html#aa7459c3126d3e1bcf791c83d4862603c" target="_top" xlink:title=" ">
<polygon fill="white" stroke="black" points="622,-191 622,-232 746,-232 746,-191 622,-191"/>
<text text-anchor="start" x="630" y="-220" font-family="Helvetica,sans-Serif" font-size="10.00">_43F5C8_get_point_light</text>
<text text-anchor="start" x="630" y="-209" font-family="Helvetica,sans-Serif" font-size="10.00">_level_with_respect_to</text>
<text text-anchor="middle" x="684" y="-198" font-family="Helvetica,sans-Serif" font-size="10.00">_lights</text>
</a>
</g>
</g>
<!-- Node6&#45;&gt;Node7 -->
<g id="edge6" class="edge"><title>Node6&#45;&gt;Node7</title>
<path fill="none" stroke="midnightblue" d="M586.222,-211.5C594.57,-211.5 603.258,-211.5 611.852,-211.5"/>
<polygon fill="midnightblue" stroke="midnightblue" points="611.871,-215 621.871,-211.5 611.871,-208 611.871,-215"/>
</g>
<!-- Node8 -->
<g id="node8" class="node"><title>Node8</title>
<g id="a_node8"><a xlink:href="../../d5/d2e/_vector_types_8cpp.html#a5eb2b4017143261b8e3f12f6c796a11c" target="_top" xlink:title=" ">
<polygon fill="white" stroke="black" points="782,-202 782,-221 890,-221 890,-202 782,-202"/>
<text text-anchor="middle" x="836" y="-209" font-family="Helvetica,sans-Serif" font-size="10.00">int_get_vector_length</text>
</a>
</g>
</g>
<!-- Node7&#45;&gt;Node8 -->
<g id="edge7" class="edge"><title>Node7&#45;&gt;Node8</title>
<path fill="none" stroke="midnightblue" d="M746.011,-211.5C754.43,-211.5 763.092,-211.5 771.554,-211.5"/>
<polygon fill="midnightblue" stroke="midnightblue" points="771.746,-215 781.746,-211.5 771.746,-208 771.746,-215"/>
</g>
<!-- Node10&#45;&gt;Node3 -->
<g id="edge10" class="edge"><title>Node10&#45;&gt;Node3</title>
<path fill="none" stroke="midnightblue" d="M272.188,-106.955C283.062,-109.644 294.541,-112.851 305,-116.5 323.77,-123.049 344.047,-132.424 359.741,-140.223"/>
<polygon fill="midnightblue" stroke="midnightblue" points="358.363,-143.448 368.867,-144.836 361.521,-137.201 358.363,-143.448"/>
</g>
<!-- Node11 -->
<g id="node11" class="node"><title>Node11</title>
<g id="a_node11"><a xlink:href="../../d6/d70/class_log.html#ac0de2621497ca3b2fbf208624c08bcdf" target="_top" xlink:title=" ">
<polygon fill="white" stroke="black" points="351,-88 351,-107 425,-107 425,-88 351,-88"/>
<text text-anchor="middle" x="388" y="-95" font-family="Helvetica,sans-Serif" font-size="10.00">Log::Warning</text>
</a>
</g>
</g>
<!-- Node10&#45;&gt;Node11 -->
<g id="edge11" class="edge"><title>Node10&#45;&gt;Node11</title>
<path fill="none" stroke="midnightblue" d="M272.064,-97.5C293.488,-97.5 318.997,-97.5 340.534,-97.5"/>
<polygon fill="midnightblue" stroke="midnightblue" points="340.752,-101 350.752,-97.5 340.752,-94.0001 340.752,-101"/>
</g>
</g>
</svg>
        <g id="navigator" transform="translate(0 0)" fill="#404254">
                <rect fill="#f2f5e9" fill-opacity="0.5" stroke="#606060" stroke-width=".5" x="0" y="0" width="60" height="60"/>
                <use id="zoomplus" xlink:href="#zoomPlus" x="17" y="9" onmousedown="handleZoom(evt,'in')"/>
                <use id="zoomminus" xlink:href="#zoomMin" x="42" y="9" onmousedown="handleZoom(evt,'out')"/>
                <use id="reset" xlink:href="#resetDef" x="30" y="36" onmousedown="handleReset()"/>
                <g id="arrowUp" xlink:href="#dirArrow" transform="translate(30 24)" onmousedown="handlePan(0,-1)">
                  <use xlink:href="#rim" fill="#404040">
                        <set attributeName="fill" to="#808080" begin="arrowUp.mouseover" end="arrowUp.mouseout"/>
                  </use>
                  <path fill="none" stroke="white" stroke-width="1.5" d="M0,-3.0v7 M-2.5,-0.5L0,-3.0L2.5,-0.5"/>
                </g>
                <g id="arrowRight" xlink:href="#dirArrow" transform="rotate(90) translate(36 -43)" onmousedown="handlePan(1,0)">
                  <use xlink:href="#rim" fill="#404040">
                        <set attributeName="fill" to="#808080" begin="arrowRight.mouseover" end="arrowRight.mouseout"/>
                  </use>
                  <path fill="none" stroke="white" stroke-width="1.5" d="M0,-3.0v7 M-2.5,-0.5L0,-3.0L2.5,-0.5"/>
                </g>
                <g id="arrowDown" xlink:href="#dirArrow" transform="rotate(180) translate(-30 -48)" onmousedown="handlePan(0,1)">
                  <use xlink:href="#rim" fill="#404040">
                        <set attributeName="fill" to="#808080" begin="arrowDown.mouseover" end="arrowDown.mouseout"/>
                  </use>
                  <path fill="none" stroke="white" stroke-width="1.5" d="M0,-3.0v7 M-2.5,-0.5L0,-3.0L2.5,-0.5"/>
                </g>
                <g id="arrowLeft" xlink:href="#dirArrow" transform="rotate(270) translate(-36 17)" onmousedown="handlePan(-1,0)">
                  <use xlink:href="#rim" fill="#404040">
                        <set attributeName="fill" to="#808080" begin="arrowLeft.mouseover" end="arrowLeft.mouseout"/>
                  </use>
                  <path fill="none" stroke="white" stroke-width="1.5" d="M0,-3.0v7 M-2.5,-0.5L0,-3.0L2.5,-0.5"/>
                </g>
        </g>
        <svg viewBox="0 0 15 15" width="100%" height="30px" preserveAspectRatio="xMaxYMin meet">
         <g id="arrow_out" transform="scale(0.3 0.3)">
          <a xlink:href="class_render_ae7126e41b3845627f862b288a5c3d3b4_cgraph_org.svg" target="_base">
           <rect id="button" ry="5" rx="5" y="6" x="6" height="38" width="38"
                fill="#f2f5e9" fill-opacity="0.5" stroke="#606060" stroke-width="1.0"/>
           <path id="arrow"
             d="M 11.500037,31.436501 C 11.940474,20.09759 22.043105,11.32322 32.158766,21.979434 L 37.068811,17.246167 C 37.068811,17.246167 37.088388,32 37.088388,32 L 22.160133,31.978069 C 22.160133,31.978069 26.997745,27.140456 26.997745,27.140456 C 18.528582,18.264221 13.291696,25.230495 11.500037,31.436501 z"
             style="fill:#404040;"/>
          </a>
         </g>
        </svg>
</svg>
