<?xml version="1.0" encoding="UTF-8" standalone="no"?>
<!DOCTYPE svg PUBLIC "-//W3C//DTD SVG 1.1//EN"
 "http://www.w3.org/Graphics/SVG/1.1/DTD/svg11.dtd">
<!-- Generated by graphviz version 2.38.0 (20140413.2041)
 -->
<!-- Title: Render::PrepareDecorationsRenderList_ODM Pages: 1 -->
<svg width="1383pt" height="661pt"
 viewBox="0.00 0.00 1383.00 661.32" xmlns="http://www.w3.org/2000/svg" xmlns:xlink="http://www.w3.org/1999/xlink">
<g id="graph0" class="graph" transform="scale(1 1) rotate(0) translate(4 657.322)">
<title>Render::PrepareDecorationsRenderList_ODM</title>
<polygon fill="white" stroke="none" points="-4,4 -4,-657.322 1379,-657.322 1379,4 -4,4"/>
<!-- Node1 -->
<g id="node1" class="node"><title>Node1</title>
<g id="a_node1"><a xlink:title=" ">
<polygon fill="#bfbfbf" stroke="black" points="0,-223 0,-253 139,-253 139,-223 0,-223"/>
<text text-anchor="start" x="8" y="-241" font-family="Helvetica,sans-Serif" font-size="10.00">Render::PrepareDecorations</text>
<text text-anchor="middle" x="69.5" y="-230" font-family="Helvetica,sans-Serif" font-size="10.00">RenderList_ODM</text>
</a>
</g>
</g>
<!-- Node2 -->
<g id="node2" class="node"><title>Node2</title>
<g id="a_node2"><a xlink:href="../../d9/d30/_s_d_l__assert_8h.html#afedcea68cf85ee469ab1ea390bbe0abb" target="_top" xlink:title=" ">
<polygon fill="white" stroke="black" points="1287,-389.5 1287,-408.5 1364,-408.5 1364,-389.5 1287,-389.5"/>
<text text-anchor="middle" x="1325.5" y="-396.5" font-family="Helvetica,sans-Serif" font-size="10.00">__debugbreak</text>
</a>
</g>
</g>
<!-- Node1&#45;&gt;Node2 -->
<g id="edge1" class="edge"><title>Node1&#45;&gt;Node2</title>
<path fill="none" stroke="midnightblue" d="M72.2787,-253.11C78.374,-298.8 102.231,-437.482 175,-521 262.354,-621.257 310.525,-653 443.5,-653 443.5,-653 443.5,-653 1003.5,-653 1112.63,-653 1157.26,-658.155 1240,-587 1292.6,-541.767 1313.99,-457.229 1321.28,-418.856"/>
<polygon fill="midnightblue" stroke="midnightblue" points="1324.74,-419.382 1323.04,-408.924 1317.85,-418.159 1324.74,-419.382"/>
</g>
<!-- Node3 -->
<g id="node3" class="node"><title>Node3</title>
<g id="a_node3"><a xlink:href="../../d2/d9c/struct_lights_stack___stationary_light__.html#af7e269c710a266117bf52cfe66f1a8e1" target="_top" xlink:title=" ">
<polygon fill="white" stroke="black" points="375,-223 375,-253 514,-253 514,-223 375,-223"/>
<text text-anchor="start" x="383" y="-241" font-family="Helvetica,sans-Serif" font-size="10.00">LightsStack_StationaryLight</text>
<text text-anchor="middle" x="444.5" y="-230" font-family="Helvetica,sans-Serif" font-size="10.00">_::AddLight</text>
</a>
</g>
</g>
<!-- Node1&#45;&gt;Node3 -->
<g id="edge2" class="edge"><title>Node1&#45;&gt;Node3</title>
<path fill="none" stroke="midnightblue" d="M139.119,-252.289C151.032,-254.25 163.338,-255.948 175,-257 241.84,-263.027 259.104,-262.374 326,-257 338.515,-255.995 351.708,-254.396 364.552,-252.543"/>
<polygon fill="midnightblue" stroke="midnightblue" points="365.39,-255.957 374.759,-251.009 364.349,-249.034 365.39,-255.957"/>
</g>
<!-- Node5 -->
<g id="node5" class="node"><title>Node5</title>
<g id="a_node5"><a xlink:href="../../dd/d2d/class_particle_engine.html#aa0699c216edc3b210955899c8df6cb05" target="_top" xlink:title=" ">
<polygon fill="white" stroke="black" points="182.5,-228.5 182.5,-247.5 318.5,-247.5 318.5,-228.5 182.5,-228.5"/>
<text text-anchor="middle" x="250.5" y="-235.5" font-family="Helvetica,sans-Serif" font-size="10.00">ParticleEngine::AddParticle</text>
</a>
</g>
</g>
<!-- Node1&#45;&gt;Node5 -->
<g id="edge4" class="edge"><title>Node1&#45;&gt;Node5</title>
<path fill="none" stroke="midnightblue" d="M139.194,-238C150.064,-238 161.367,-238 172.413,-238"/>
<polygon fill="midnightblue" stroke="midnightblue" points="172.465,-241.5 182.465,-238 172.465,-234.5 172.465,-241.5"/>
</g>
<!-- Node6 -->
<g id="node6" class="node"><title>Node6</title>
<g id="a_node6"><a xlink:href="../../d6/d38/structstru193__math.html#ae5c580a8915049b2fe00949acf3ca728" target="_top" xlink:title=" ">
<polygon fill="white" stroke="black" points="197,-190.5 197,-209.5 304,-209.5 304,-190.5 197,-190.5"/>
<text text-anchor="middle" x="250.5" y="-197.5" font-family="Helvetica,sans-Serif" font-size="10.00">stru193_math::Atan2</text>
</a>
</g>
</g>
<!-- Node1&#45;&gt;Node6 -->
<g id="edge5" class="edge"><title>Node1&#45;&gt;Node6</title>
<path fill="none" stroke="midnightblue" d="M139.194,-223.417C157.491,-219.533 177.015,-215.388 194.474,-211.682"/>
<polygon fill="midnightblue" stroke="midnightblue" points="195.434,-215.056 204.49,-209.555 193.981,-208.208 195.434,-215.056"/>
</g>
<!-- Node7 -->
<g id="node7" class="node"><title>Node7</title>
<g id="a_node7"><a xlink:href="../../d6/dc9/structfixed.html#a5afca03668479a0abe9b6d9fcc2d3bd6" target="_top" xlink:title=" ">
<polygon fill="white" stroke="black" points="212.5,-152.5 212.5,-171.5 288.5,-171.5 288.5,-152.5 212.5,-152.5"/>
<text text-anchor="middle" x="250.5" y="-159.5" font-family="Helvetica,sans-Serif" font-size="10.00">fixed::FromInt</text>
</a>
</g>
</g>
<!-- Node1&#45;&gt;Node7 -->
<g id="edge6" class="edge"><title>Node1&#45;&gt;Node7</title>
<path fill="none" stroke="midnightblue" d="M94.1615,-222.86C114.819,-210.196 145.958,-192.416 175,-181 183.667,-177.593 193.143,-174.632 202.343,-172.127"/>
<polygon fill="midnightblue" stroke="midnightblue" points="203.361,-175.479 212.167,-169.588 201.61,-168.702 203.361,-175.479"/>
</g>
<!-- Node10 -->
<g id="node10" class="node"><title>Node10</title>
<g id="a_node10"><a xlink:href="../../dc/d80/class_decoration_list.html#a61cd080000af242e9e5cfc6ed3df332d" target="_top" xlink:title=" ">
<polygon fill="white" stroke="black" points="177,-114.5 177,-133.5 324,-133.5 324,-114.5 177,-114.5"/>
<text text-anchor="middle" x="250.5" y="-121.5" font-family="Helvetica,sans-Serif" font-size="10.00">DecorationList::GetDecoration</text>
</a>
</g>
</g>
<!-- Node1&#45;&gt;Node10 -->
<g id="edge9" class="edge"><title>Node1&#45;&gt;Node10</title>
<path fill="none" stroke="midnightblue" d="M82.989,-222.677C101.06,-201.533 136.57,-163.684 175,-143 179.257,-140.709 183.801,-138.685 188.465,-136.9"/>
<polygon fill="midnightblue" stroke="midnightblue" points="189.84,-140.128 198.154,-133.561 187.559,-133.51 189.84,-140.128"/>
</g>
<!-- Node11 -->
<g id="node11" class="node"><title>Node11</title>
<g id="a_node11"><a xlink:href="../../de/da7/struct_sprite_frame_table.html#a4bca0b7ce7055f69630c6bd3217047d7" target="_top" xlink:title=" ">
<polygon fill="white" stroke="black" points="373,-304.5 373,-323.5 516,-323.5 516,-304.5 373,-304.5"/>
<text text-anchor="middle" x="444.5" y="-311.5" font-family="Helvetica,sans-Serif" font-size="10.00">SpriteFrameTable::GetFrame</text>
</a>
</g>
</g>
<!-- Node1&#45;&gt;Node11 -->
<g id="edge10" class="edge"><title>Node1&#45;&gt;Node11</title>
<path fill="none" stroke="midnightblue" d="M108.704,-253.054C128.273,-260.278 152.633,-268.53 175,-274 237.255,-289.223 309.133,-299.56 362.844,-305.906"/>
<polygon fill="midnightblue" stroke="midnightblue" points="362.658,-309.408 372.995,-307.084 363.465,-302.455 362.658,-309.408"/>
</g>
<!-- Node12 -->
<g id="node12" class="node"><title>Node12</title>
<g id="a_node12"><a xlink:href="../../de/d73/class_image.html#a5093fa64598a4d7e0c70d43fe67e35cd" target="_top" xlink:title=" ">
<polygon fill="white" stroke="black" points="956.5,-558.5 956.5,-577.5 1048.5,-577.5 1048.5,-558.5 956.5,-558.5"/>
<text text-anchor="middle" x="1002.5" y="-565.5" font-family="Helvetica,sans-Serif" font-size="10.00">Image::GetHeight</text>
</a>
</g>
</g>
<!-- Node1&#45;&gt;Node12 -->
<g id="edge11" class="edge"><title>Node1&#45;&gt;Node12</title>
<path fill="none" stroke="midnightblue" d="M76.4707,-253.246C105.194,-323.776 236.337,-615 443.5,-615 443.5,-615 443.5,-615 635.5,-615 746.63,-615 875.206,-593.42 946.558,-579.505"/>
<polygon fill="midnightblue" stroke="midnightblue" points="947.528,-582.881 956.662,-577.511 946.173,-576.014 947.528,-582.881"/>
</g>
<!-- Node15 -->
<g id="node15" class="node"><title>Node15</title>
<g id="a_node15"><a xlink:href="../../db/d87/_sprites_8cpp.html#ae1943d7f081f788ef8163a16e0b7d451" target="_top" xlink:title=" ">
<polygon fill="white" stroke="black" points="175,-342.5 175,-361.5 326,-361.5 326,-342.5 175,-342.5"/>
<text text-anchor="middle" x="250.5" y="-349.5" font-family="Helvetica,sans-Serif" font-size="10.00">LevelDecorationChangeSeason</text>
</a>
</g>
</g>
<!-- Node1&#45;&gt;Node15 -->
<g id="edge16" class="edge"><title>Node1&#45;&gt;Node15</title>
<path fill="none" stroke="midnightblue" d="M84.2901,-253.171C103.043,-272.968 138.458,-307.497 175,-328 182.835,-332.396 191.593,-336.123 200.273,-339.232"/>
<polygon fill="midnightblue" stroke="midnightblue" points="199.394,-342.628 209.988,-342.483 201.616,-335.99 199.394,-342.628"/>
</g>
<!-- Node31 -->
<g id="node31" class="node"><title>Node31</title>
<g id="a_node31"><a xlink:href="../../d9/de5/struct_indoor_camera_d3_d.html#a32190b521a23e986e5b0b13098e4b114" target="_top" xlink:title=" ">
<polygon fill="white" stroke="black" points="184.5,-76.5 184.5,-95.5 316.5,-95.5 316.5,-76.5 184.5,-76.5"/>
<text text-anchor="middle" x="250.5" y="-83.5" font-family="Helvetica,sans-Serif" font-size="10.00">IndoorCameraD3D::Project</text>
</a>
</g>
</g>
<!-- Node1&#45;&gt;Node31 -->
<g id="edge42" class="edge"><title>Node1&#45;&gt;Node31</title>
<path fill="none" stroke="midnightblue" d="M77.9697,-222.988C92.5964,-195.197 127.755,-135.769 175,-105 178.149,-102.949 181.507,-101.119 184.989,-99.487"/>
<polygon fill="midnightblue" stroke="midnightblue" points="186.516,-102.644 194.44,-95.6111 183.86,-96.1673 186.516,-102.644"/>
</g>
<!-- Node32 -->
<g id="node32" class="node"><title>Node32</title>
<g id="a_node32"><a xlink:href="../../d9/de5/struct_indoor_camera_d3_d.html#a4c237cb96e18e53a8d9a9f01df08165c" target="_top" xlink:title=" ">
<polygon fill="white" stroke="black" points="181,-38.5 181,-57.5 320,-57.5 320,-38.5 181,-38.5"/>
<text text-anchor="middle" x="250.5" y="-45.5" font-family="Helvetica,sans-Serif" font-size="10.00">IndoorCameraD3D::ViewClip</text>
</a>
</g>
</g>
<!-- Node1&#45;&gt;Node32 -->
<g id="edge43" class="edge"><title>Node1&#45;&gt;Node32</title>
<path fill="none" stroke="midnightblue" d="M75.2776,-222.965C86.7271,-189.452 119.02,-108.331 175,-67 177.631,-65.0576 180.441,-63.3129 183.371,-61.746"/>
<polygon fill="midnightblue" stroke="midnightblue" points="184.845,-64.9203 192.464,-57.5582 181.917,-58.5621 184.845,-64.9203"/>
</g>
<!-- Node4 -->
<g id="node4" class="node"><title>Node4</title>
<g id="a_node4"><a xlink:href="../../d6/d70/class_log.html#ac0de2621497ca3b2fbf208624c08bcdf" target="_top" xlink:title=" ">
<polygon fill="white" stroke="black" points="597.5,-190.5 597.5,-209.5 671.5,-209.5 671.5,-190.5 597.5,-190.5"/>
<text text-anchor="middle" x="634.5" y="-197.5" font-family="Helvetica,sans-Serif" font-size="10.00">Log::Warning</text>
</a>
</g>
</g>
<!-- Node3&#45;&gt;Node4 -->
<g id="edge3" class="edge"><title>Node3&#45;&gt;Node4</title>
<path fill="none" stroke="midnightblue" d="M514.17,-224.12C538.529,-219.196 565.339,-213.777 587.366,-209.325"/>
<polygon fill="midnightblue" stroke="midnightblue" points="588.335,-212.7 597.443,-207.288 586.948,-205.839 588.335,-212.7"/>
</g>
<!-- Node8 -->
<g id="node8" class="node"><title>Node8</title>
<g id="a_node8"><a xlink:href="../../d6/dc9/structfixed.html#a77864f1a61a82980108874fc3709d9ef" target="_top" xlink:title=" ">
<polygon fill="white" stroke="black" points="413.5,-152.5 413.5,-171.5 475.5,-171.5 475.5,-152.5 413.5,-152.5"/>
<text text-anchor="middle" x="444.5" y="-159.5" font-family="Helvetica,sans-Serif" font-size="10.00">fixed::Raw</text>
</a>
</g>
</g>
<!-- Node7&#45;&gt;Node8 -->
<g id="edge7" class="edge"><title>Node7&#45;&gt;Node8</title>
<path fill="none" stroke="midnightblue" d="M288.52,-162C321.405,-162 369.366,-162 403.206,-162"/>
<polygon fill="midnightblue" stroke="midnightblue" points="403.223,-165.5 413.223,-162 403.223,-158.5 403.223,-165.5"/>
</g>
<!-- Node9 -->
<g id="node9" class="node"><title>Node9</title>
<g id="a_node9"><a xlink:href="../../d6/dc9/structfixed.html#a35ab68b29d570ad4cdb6c752b344f7e2" target="_top" xlink:title=" ">
<polygon fill="white" stroke="black" points="603,-152.5 603,-171.5 666,-171.5 666,-152.5 603,-152.5"/>
<text text-anchor="middle" x="634.5" y="-159.5" font-family="Helvetica,sans-Serif" font-size="10.00">fixed::fixed</text>
</a>
</g>
</g>
<!-- Node8&#45;&gt;Node9 -->
<g id="edge8" class="edge"><title>Node8&#45;&gt;Node9</title>
<path fill="none" stroke="midnightblue" d="M475.705,-162C507.311,-162 557.135,-162 592.329,-162"/>
<polygon fill="midnightblue" stroke="midnightblue" points="592.745,-165.5 602.745,-162 592.745,-158.5 592.745,-165.5"/>
</g>
<!-- Node12&#45;&gt;Node2 -->
<g id="edge12" class="edge"><title>Node12&#45;&gt;Node2</title>
<path fill="none" stroke="midnightblue" d="M1048.51,-560.911C1107.98,-550.912 1208.86,-531.578 1240,-511 1275.9,-487.277 1302.49,-442.96 1315.53,-417.769"/>
<polygon fill="midnightblue" stroke="midnightblue" points="1318.79,-419.06 1320.13,-408.55 1312.53,-415.932 1318.79,-419.06"/>
</g>
<!-- Node13 -->
<g id="node13" class="node"><title>Node13</title>
<g id="a_node13"><a xlink:href="../../de/d73/class_image.html#a9b786ec61110907b38dda728bd281c73" target="_top" xlink:title=" ">
<polygon fill="white" stroke="black" points="1123.5,-558.5 1123.5,-577.5 1239.5,-577.5 1239.5,-558.5 1123.5,-558.5"/>
<text text-anchor="middle" x="1181.5" y="-565.5" font-family="Helvetica,sans-Serif" font-size="10.00">Image::LoadImageData</text>
</a>
</g>
</g>
<!-- Node12&#45;&gt;Node13 -->
<g id="edge13" class="edge"><title>Node12&#45;&gt;Node13</title>
<path fill="none" stroke="midnightblue" d="M1048.62,-568C1068.25,-568 1091.66,-568 1113.28,-568"/>
<polygon fill="midnightblue" stroke="midnightblue" points="1113.39,-571.5 1123.39,-568 1113.39,-564.5 1113.39,-571.5"/>
</g>
<!-- Node13&#45;&gt;Node2 -->
<g id="edge14" class="edge"><title>Node13&#45;&gt;Node2</title>
<path fill="none" stroke="midnightblue" d="M1215.63,-558.414C1224.22,-554.849 1233,-550.129 1240,-544 1280.59,-508.455 1306.67,-448.469 1317.99,-417.995"/>
<polygon fill="midnightblue" stroke="midnightblue" points="1321.31,-419.13 1321.38,-408.536 1314.72,-416.769 1321.31,-419.13"/>
</g>
<!-- Node14 -->
<g id="node14" class="node"><title>Node14</title>
<g id="a_node14"><a xlink:href="../../d7/d42/class_image_loader.html#ad346c7973ae6f1d84a8c1fc655661319" target="_top" xlink:title=" ">
<polygon fill="white" stroke="black" points="1276,-558.5 1276,-577.5 1375,-577.5 1375,-558.5 1276,-558.5"/>
<text text-anchor="middle" x="1325.5" y="-565.5" font-family="Helvetica,sans-Serif" font-size="10.00">ImageLoader::Load</text>
</a>
</g>
</g>
<!-- Node13&#45;&gt;Node14 -->
<g id="edge15" class="edge"><title>Node13&#45;&gt;Node14</title>
<path fill="none" stroke="midnightblue" d="M1239.85,-568C1248.27,-568 1256.97,-568 1265.43,-568"/>
<polygon fill="midnightblue" stroke="midnightblue" points="1265.6,-571.5 1275.6,-568 1265.6,-564.5 1265.6,-571.5"/>
</g>
<!-- Node15&#45;&gt;Node11 -->
<g id="edge17" class="edge"><title>Node15&#45;&gt;Node11</title>
<path fill="none" stroke="midnightblue" d="M299.95,-342.411C325.971,-337.261 358.228,-330.877 385.569,-325.466"/>
<polygon fill="midnightblue" stroke="midnightblue" points="386.269,-328.895 395.399,-323.52 384.909,-322.028 386.269,-328.895"/>
</g>
<!-- Node16 -->
<g id="node16" class="node"><title>Node16</title>
<g id="a_node16"><a xlink:href="../../de/da7/struct_sprite_frame_table.html#a1d390b4fbe5985c715439289d806b3c4" target="_top" xlink:title=" ">
<polygon fill="white" stroke="black" points="377.5,-343 377.5,-373 511.5,-373 511.5,-343 377.5,-343"/>
<text text-anchor="start" x="385.5" y="-361" font-family="Helvetica,sans-Serif" font-size="10.00">SpriteFrameTable::Initialize</text>
<text text-anchor="middle" x="444.5" y="-350" font-family="Helvetica,sans-Serif" font-size="10.00">Sprite</text>
</a>
</g>
</g>
<!-- Node15&#45;&gt;Node16 -->
<g id="edge18" class="edge"><title>Node15&#45;&gt;Node16</title>
<path fill="none" stroke="midnightblue" d="M326.007,-354.328C339.531,-354.751 353.654,-355.192 367.228,-355.617"/>
<polygon fill="midnightblue" stroke="midnightblue" points="367.377,-359.123 377.482,-355.937 367.596,-352.126 367.377,-359.123"/>
</g>
<!-- Node16&#45;&gt;Node2 -->
<g id="edge19" class="edge"><title>Node16&#45;&gt;Node2</title>
<path fill="none" stroke="midnightblue" d="M495.126,-342.995C505.664,-339.748 516.712,-336.298 527,-333 653.744,-292.37 677.903,-238 811,-238 811,-238 811,-238 1003.5,-238 1110.26,-238 1149.81,-222.882 1240,-280 1278.36,-304.295 1304.42,-352.892 1316.61,-379.86"/>
<polygon fill="midnightblue" stroke="midnightblue" points="1313.53,-381.567 1320.72,-389.349 1319.95,-378.782 1313.53,-381.567"/>
</g>
<!-- Node16&#45;&gt;Node4 -->
<g id="edge41" class="edge"><title>Node16&#45;&gt;Node4</title>
<path fill="none" stroke="midnightblue" d="M511.826,-343.913C517.38,-340.943 522.558,-337.348 527,-333 563.459,-297.312 527.09,-260.24 563,-224 569.822,-217.116 578.693,-212.205 587.829,-208.703"/>
<polygon fill="midnightblue" stroke="midnightblue" points="588.981,-212.009 597.371,-205.539 586.777,-205.364 588.981,-212.009"/>
</g>
<!-- Node17 -->
<g id="node17" class="node"><title>Node17</title>
<g id="a_node17"><a xlink:href="../../d3/db3/struct_palette_manager.html#ad6074b75afa72d582b5aa98816670e49" target="_top" xlink:title=" ">
<polygon fill="white" stroke="black" points="563,-348.5 563,-367.5 706,-367.5 706,-348.5 563,-348.5"/>
<text text-anchor="middle" x="634.5" y="-355.5" font-family="Helvetica,sans-Serif" font-size="10.00">PaletteManager::LoadPalette</text>
</a>
</g>
</g>
<!-- Node16&#45;&gt;Node17 -->
<g id="edge20" class="edge"><title>Node16&#45;&gt;Node17</title>
<path fill="none" stroke="midnightblue" d="M511.517,-358C524.754,-358 538.805,-358 552.483,-358"/>
<polygon fill="midnightblue" stroke="midnightblue" points="552.85,-361.5 562.85,-358 552.849,-354.5 552.85,-361.5"/>
</g>
<!-- Node25 -->
<g id="node25" class="node"><title>Node25</title>
<g id="a_node25"><a xlink:href="../../d4/d10/class_l_o_d_file___sprites.html#a9196ad3e3bbbfe3a18751a754aff5661" target="_top" xlink:title=" ">
<polygon fill="white" stroke="black" points="564.5,-507.5 564.5,-526.5 704.5,-526.5 704.5,-507.5 564.5,-507.5"/>
<text text-anchor="middle" x="634.5" y="-514.5" font-family="Helvetica,sans-Serif" font-size="10.00">LODFile_Sprites::LoadSprite</text>
</a>
</g>
</g>
<!-- Node16&#45;&gt;Node25 -->
<g id="edge33" class="edge"><title>Node16&#45;&gt;Node25</title>
<path fill="none" stroke="midnightblue" d="M463.526,-373.246C498.921,-403.18 577.239,-469.418 613.881,-500.407"/>
<polygon fill="midnightblue" stroke="midnightblue" points="611.951,-503.359 621.846,-507.144 616.471,-498.014 611.951,-503.359"/>
</g>
<!-- Node18 -->
<g id="node18" class="node"><title>Node18</title>
<g id="a_node18"><a xlink:href="../../dc/dc7/_palette_manager_8cpp.html#ac3ff9b1524059bcbd44e6318120c1211" target="_top" xlink:title=" ">
<polygon fill="white" stroke="black" points="1150,-389.5 1150,-408.5 1213,-408.5 1213,-389.5 1150,-389.5"/>
<text text-anchor="middle" x="1181.5" y="-396.5" font-family="Helvetica,sans-Serif" font-size="10.00">HSV2RGB</text>
</a>
</g>
</g>
<!-- Node17&#45;&gt;Node18 -->
<g id="edge21" class="edge"><title>Node17&#45;&gt;Node18</title>
<path fill="none" stroke="midnightblue" d="M670.227,-367.516C690.904,-372.756 717.757,-378.826 742,-382 887.197,-401.012 1061.56,-401.058 1139.43,-399.901"/>
<polygon fill="midnightblue" stroke="midnightblue" points="1139.83,-403.395 1149.77,-399.731 1139.71,-396.396 1139.83,-403.395"/>
</g>
<!-- Node19 -->
<g id="node19" class="node"><title>Node19</title>
<g id="a_node19"><a xlink:href="../../d8/d81/class_l_o_d_file___icons_bitmaps.html#af1497f81fa4c1f6dff3eaf1b6a4144f5" target="_top" xlink:title=" ">
<polygon fill="white" stroke="black" points="753,-431 753,-461 871,-461 871,-431 753,-431"/>
<text text-anchor="start" x="761" y="-449" font-family="Helvetica,sans-Serif" font-size="10.00">LODFile_IconsBitmaps</text>
<text text-anchor="middle" x="812" y="-438" font-family="Helvetica,sans-Serif" font-size="10.00">::LoadTextureFromLOD</text>
</a>
</g>
</g>
<!-- Node17&#45;&gt;Node19 -->
<g id="edge23" class="edge"><title>Node17&#45;&gt;Node19</title>
<path fill="none" stroke="midnightblue" d="M651.865,-367.502C672.571,-379.387 709.462,-400.105 742,-416 749.426,-419.628 757.397,-423.295 765.189,-426.76"/>
<polygon fill="midnightblue" stroke="midnightblue" points="763.993,-430.058 774.556,-430.871 766.806,-423.648 763.993,-430.058"/>
</g>
<!-- Node21 -->
<g id="node21" class="node"><title>Node21</title>
<g id="a_node21"><a xlink:href="../../d3/db3/struct_palette_manager.html#a538015d7dba26a0012f50bc68aee3101" target="_top" xlink:title=" ">
<polygon fill="white" stroke="black" points="743.5,-343 743.5,-373 880.5,-373 880.5,-343 743.5,-343"/>
<text text-anchor="start" x="751.5" y="-361" font-family="Helvetica,sans-Serif" font-size="10.00">PaletteManager::MakeBase</text>
<text text-anchor="middle" x="812" y="-350" font-family="Helvetica,sans-Serif" font-size="10.00">PaletteLut</text>
</a>
</g>
</g>
<!-- Node17&#45;&gt;Node21 -->
<g id="edge25" class="edge"><title>Node17&#45;&gt;Node21</title>
<path fill="none" stroke="midnightblue" d="M706.124,-358C715.051,-358 724.224,-358 733.255,-358"/>
<polygon fill="midnightblue" stroke="midnightblue" points="733.368,-361.5 743.368,-358 733.368,-354.5 733.368,-361.5"/>
</g>
<!-- Node23 -->
<g id="node23" class="node"><title>Node23</title>
<g id="a_node23"><a xlink:href="../../dc/dc7/_palette_manager_8cpp.html#aa590abf1c9bfcecac42541926c9d90f7" target="_top" xlink:title=" ">
<polygon fill="white" stroke="black" points="1150,-350.5 1150,-369.5 1213,-369.5 1213,-350.5 1150,-350.5"/>
<text text-anchor="middle" x="1181.5" y="-357.5" font-family="Helvetica,sans-Serif" font-size="10.00">RGB2HSV</text>
</a>
</g>
</g>
<!-- Node17&#45;&gt;Node23 -->
<g id="edge32" class="edge"><title>Node17&#45;&gt;Node23</title>
<path fill="none" stroke="midnightblue" d="M667.784,-348.373C688.725,-342.64 716.719,-335.927 742,-333 894.356,-315.358 934.724,-322.679 1087,-341 1104.57,-343.114 1123.76,-346.772 1140.15,-350.318"/>
<polygon fill="midnightblue" stroke="midnightblue" points="1139.44,-353.745 1149.96,-352.496 1140.96,-346.911 1139.44,-353.745"/>
</g>
<!-- Node24 -->
<g id="node24" class="node"><title>Node24</title>
<g id="a_node24"><a xlink:href="../../d0/ded/struct_texture___m_m7.html#a5d76b76e8d592e2cc382ca2723774b32" target="_top" xlink:title=" ">
<polygon fill="white" stroke="black" points="1123,-289.5 1123,-308.5 1240,-308.5 1240,-289.5 1123,-289.5"/>
<text text-anchor="middle" x="1181.5" y="-296.5" font-family="Helvetica,sans-Serif" font-size="10.00">Texture_MM7::Release</text>
</a>
</g>
</g>
<!-- Node17&#45;&gt;Node24 -->
<g id="edge30" class="edge"><title>Node17&#45;&gt;Node24</title>
<path fill="none" stroke="midnightblue" d="M655.773,-348.454C676.81,-339.061 710.92,-325.245 742,-319 871.053,-293.067 1025.58,-293.024 1112.46,-295.74"/>
<polygon fill="midnightblue" stroke="midnightblue" points="1112.6,-299.247 1122.71,-296.084 1112.83,-292.251 1112.6,-299.247"/>
</g>
<!-- Node18&#45;&gt;Node2 -->
<g id="edge22" class="edge"><title>Node18&#45;&gt;Node2</title>
<path fill="none" stroke="midnightblue" d="M1213.31,-399C1231.89,-399 1255.94,-399 1276.91,-399"/>
<polygon fill="midnightblue" stroke="midnightblue" points="1276.93,-402.5 1286.93,-399 1276.93,-395.5 1276.93,-402.5"/>
</g>
<!-- Node20 -->
<g id="node20" class="node"><title>Node20</title>
<g id="a_node20"><a xlink:href="../../d9/d3e/namespacezlib.html#ae552beaf4387a81c63a28b01a9cc7ab4" target="_top" xlink:title=" ">
<polygon fill="white" stroke="black" points="956.5,-439.5 956.5,-458.5 1048.5,-458.5 1048.5,-439.5 956.5,-439.5"/>
<text text-anchor="middle" x="1002.5" y="-446.5" font-family="Helvetica,sans-Serif" font-size="10.00">zlib::Uncompress</text>
</a>
</g>
</g>
<!-- Node19&#45;&gt;Node20 -->
<g id="edge24" class="edge"><title>Node19&#45;&gt;Node20</title>
<path fill="none" stroke="midnightblue" d="M871.094,-446.925C895.029,-447.306 922.63,-447.745 946.259,-448.121"/>
<polygon fill="midnightblue" stroke="midnightblue" points="946.409,-451.624 956.464,-448.283 946.521,-444.624 946.409,-451.624"/>
</g>
<!-- Node22 -->
<g id="node22" class="node"><title>Node22</title>
<g id="a_node22"><a xlink:href="../../d3/db3/struct_palette_manager.html#ae561cf64d07038ce806940d4a64d2088" target="_top" xlink:title=" ">
<polygon fill="white" stroke="black" points="918,-350.5 918,-369.5 1087,-369.5 1087,-350.5 918,-350.5"/>
<text text-anchor="middle" x="1002.5" y="-357.5" font-family="Helvetica,sans-Serif" font-size="10.00">PaletteManager::CalcPalettes_LUT</text>
</a>
</g>
</g>
<!-- Node21&#45;&gt;Node22 -->
<g id="edge26" class="edge"><title>Node21&#45;&gt;Node22</title>
<path fill="none" stroke="midnightblue" d="M880.52,-358.716C889.27,-358.809 898.356,-358.906 907.438,-359.002"/>
<polygon fill="midnightblue" stroke="midnightblue" points="907.637,-362.504 917.674,-359.111 907.712,-355.505 907.637,-362.504"/>
</g>
<!-- Node22&#45;&gt;Node18 -->
<g id="edge27" class="edge"><title>Node22&#45;&gt;Node18</title>
<path fill="none" stroke="midnightblue" d="M1046.8,-369.54C1075.24,-375.807 1112.19,-383.949 1140.04,-390.084"/>
<polygon fill="midnightblue" stroke="midnightblue" points="1139.33,-393.513 1149.85,-392.247 1140.84,-386.677 1139.33,-393.513"/>
</g>
<!-- Node22&#45;&gt;Node23 -->
<g id="edge28" class="edge"><title>Node22&#45;&gt;Node23</title>
<path fill="none" stroke="midnightblue" d="M1087.08,-360C1105.26,-360 1123.72,-360 1139.37,-360"/>
<polygon fill="midnightblue" stroke="midnightblue" points="1139.73,-363.5 1149.73,-360 1139.73,-356.5 1139.73,-363.5"/>
</g>
<!-- Node23&#45;&gt;Node2 -->
<g id="edge29" class="edge"><title>Node23&#45;&gt;Node2</title>
<path fill="none" stroke="midnightblue" d="M1213.31,-368.462C1232.83,-373.824 1258.4,-380.847 1280.1,-386.805"/>
<polygon fill="midnightblue" stroke="midnightblue" points="1279.19,-390.185 1289.76,-389.458 1281.04,-383.434 1279.19,-390.185"/>
</g>
<!-- Node24&#45;&gt;Node2 -->
<g id="edge31" class="edge"><title>Node24&#45;&gt;Node2</title>
<path fill="none" stroke="midnightblue" d="M1196.12,-308.588C1220.65,-325.866 1272.49,-362.373 1302.25,-383.328"/>
<polygon fill="midnightblue" stroke="midnightblue" points="1300.53,-386.397 1310.72,-389.294 1304.56,-380.674 1300.53,-386.397"/>
</g>
<!-- Node26 -->
<g id="node26" class="node"><title>Node26</title>
<g id="a_node26"><a xlink:href="../../dd/da7/class_l_o_d_1_1_file.html#a3b042a1ac553b2cfdf5b3a1298ce9375" target="_top" xlink:title=" ">
<polygon fill="white" stroke="black" points="940.5,-520.5 940.5,-539.5 1064.5,-539.5 1064.5,-520.5 940.5,-520.5"/>
<text text-anchor="middle" x="1002.5" y="-527.5" font-family="Helvetica,sans-Serif" font-size="10.00">LOD::File::FindContainer</text>
</a>
</g>
</g>
<!-- Node25&#45;&gt;Node26 -->
<g id="edge34" class="edge"><title>Node25&#45;&gt;Node26</title>
<path fill="none" stroke="midnightblue" d="M654.121,-526.595C674.908,-536.721 709.86,-552.027 742,-558 803.175,-569.369 820.244,-565.603 882,-558 898.369,-555.985 901.958,-552.83 918,-549 927.869,-546.644 938.411,-544.193 948.566,-541.867"/>
<polygon fill="midnightblue" stroke="midnightblue" points="949.58,-545.225 958.551,-539.589 948.024,-538.4 949.58,-545.225"/>
</g>
<!-- Node27 -->
<g id="node27" class="node"><title>Node27</title>
<g id="a_node27"><a xlink:href="../../db/dd6/class_assets_manager.html#ae548bd58b748e70c6d31c96e07f2711a" target="_top" xlink:title=" ">
<polygon fill="white" stroke="black" points="746,-529.5 746,-548.5 878,-548.5 878,-529.5 746,-529.5"/>
<text text-anchor="middle" x="812" y="-536.5" font-family="Helvetica,sans-Serif" font-size="10.00">AssetsManager::GetSprite</text>
</a>
</g>
</g>
<!-- Node25&#45;&gt;Node27 -->
<g id="edge35" class="edge"><title>Node25&#45;&gt;Node27</title>
<path fill="none" stroke="midnightblue" d="M704.61,-525.663C714.826,-526.944 725.395,-528.269 735.728,-529.564"/>
<polygon fill="midnightblue" stroke="midnightblue" points="735.603,-533.076 745.961,-530.847 736.474,-526.13 735.603,-533.076"/>
</g>
<!-- Node28 -->
<g id="node28" class="node"><title>Node28</title>
<g id="a_node28"><a xlink:href="../../d4/d10/class_l_o_d_file___sprites.html#a6704a668ef693d91d861553e1c4d0c49" target="_top" xlink:title=" ">
<polygon fill="white" stroke="black" points="742,-480 742,-510 882,-510 882,-480 742,-480"/>
<text text-anchor="start" x="750" y="-498" font-family="Helvetica,sans-Serif" font-size="10.00">LODFile_Sprites::LoadSprite</text>
<text text-anchor="middle" x="812" y="-487" font-family="Helvetica,sans-Serif" font-size="10.00">FromFile</text>
</a>
</g>
</g>
<!-- Node25&#45;&gt;Node28 -->
<g id="edge36" class="edge"><title>Node25&#45;&gt;Node28</title>
<path fill="none" stroke="midnightblue" d="M704.61,-508.337C713.531,-507.218 722.721,-506.066 731.788,-504.93"/>
<polygon fill="midnightblue" stroke="midnightblue" points="732.466,-508.372 741.953,-503.656 731.595,-501.427 732.466,-508.372"/>
</g>
<!-- Node28&#45;&gt;Node20 -->
<g id="edge40" class="edge"><title>Node28&#45;&gt;Node20</title>
<path fill="none" stroke="midnightblue" d="M874.722,-479.938C899.995,-473.771 928.824,-466.735 952.599,-460.933"/>
<polygon fill="midnightblue" stroke="midnightblue" points="953.568,-464.3 962.453,-458.529 951.909,-457.499 953.568,-464.3"/>
</g>
<!-- Node28&#45;&gt;Node26 -->
<g id="edge39" class="edge"><title>Node28&#45;&gt;Node26</title>
<path fill="none" stroke="midnightblue" d="M882.12,-507.834C901.092,-511.357 921.53,-515.152 940.041,-518.588"/>
<polygon fill="midnightblue" stroke="midnightblue" points="939.633,-522.073 950.104,-520.457 940.911,-515.19 939.633,-522.073"/>
</g>
<!-- Node29 -->
<g id="node29" class="node"><title>Node29</title>
<g id="a_node29"><a xlink:href="../../dd/da7/class_l_o_d_1_1_file.html#a9727a0a74fa79d7c2f968c677320b26f" target="_top" xlink:title=" ">
<polygon fill="white" stroke="black" points="962.5,-482.5 962.5,-501.5 1042.5,-501.5 1042.5,-482.5 962.5,-482.5"/>
<text text-anchor="middle" x="1002.5" y="-489.5" font-family="Helvetica,sans-Serif" font-size="10.00">LOD::File::File</text>
</a>
</g>
</g>
<!-- Node28&#45;&gt;Node29 -->
<g id="edge37" class="edge"><title>Node28&#45;&gt;Node29</title>
<path fill="none" stroke="midnightblue" d="M882.12,-493.9C905.327,-493.531 930.726,-493.126 952.108,-492.786"/>
<polygon fill="midnightblue" stroke="midnightblue" points="952.312,-496.283 962.255,-492.625 952.2,-489.284 952.312,-496.283"/>
</g>
<!-- Node30 -->
<g id="node30" class="node"><title>Node30</title>
<g id="a_node30"><a xlink:href="../../dd/da7/class_l_o_d_1_1_file.html#ab71fc5e72e25e22a2712c317528db0d9" target="_top" xlink:title=" ">
<polygon fill="white" stroke="black" points="1137,-482.5 1137,-501.5 1226,-501.5 1226,-482.5 1137,-482.5"/>
<text text-anchor="middle" x="1181.5" y="-489.5" font-family="Helvetica,sans-Serif" font-size="10.00">LOD::File::Close</text>
</a>
</g>
</g>
<!-- Node29&#45;&gt;Node30 -->
<g id="edge38" class="edge"><title>Node29&#45;&gt;Node30</title>
<path fill="none" stroke="midnightblue" d="M1042.78,-492C1067.53,-492 1099.8,-492 1126.88,-492"/>
<polygon fill="midnightblue" stroke="midnightblue" points="1126.98,-495.5 1136.98,-492 1126.98,-488.5 1126.98,-495.5"/>
</g>
<!-- Node33 -->
<g id="node33" class="node"><title>Node33</title>
<g id="a_node33"><a xlink:href="../../d9/de5/struct_indoor_camera_d3_d.html#ae44ac296d0d5225048b313e14edf7da1" target="_top" xlink:title=" ">
<polygon fill="white" stroke="black" points="370.5,-76.5 370.5,-95.5 518.5,-95.5 518.5,-76.5 370.5,-76.5"/>
<text text-anchor="middle" x="444.5" y="-83.5" font-family="Helvetica,sans-Serif" font-size="10.00">IndoorCameraD3D::GetFarClip</text>
</a>
</g>
</g>
<!-- Node32&#45;&gt;Node33 -->
<g id="edge44" class="edge"><title>Node32&#45;&gt;Node33</title>
<path fill="none" stroke="midnightblue" d="M299.95,-57.589C325.971,-62.739 358.228,-69.1232 385.569,-74.5344"/>
<polygon fill="midnightblue" stroke="midnightblue" points="384.909,-77.9718 395.399,-76.4799 386.269,-71.105 384.909,-77.9718"/>
</g>
<!-- Node34 -->
<g id="node34" class="node"><title>Node34</title>
<g id="a_node34"><a xlink:href="../../d9/de5/struct_indoor_camera_d3_d.html#a6ade9a050aa9009a83e21461c6c470c4" target="_top" xlink:title=" ">
<polygon fill="white" stroke="black" points="367.5,-38.5 367.5,-57.5 521.5,-57.5 521.5,-38.5 367.5,-38.5"/>
<text text-anchor="middle" x="444.5" y="-45.5" font-family="Helvetica,sans-Serif" font-size="10.00">IndoorCameraD3D::GetNearClip</text>
</a>
</g>
</g>
<!-- Node32&#45;&gt;Node34 -->
<g id="edge45" class="edge"><title>Node32&#45;&gt;Node34</title>
<path fill="none" stroke="midnightblue" d="M320.003,-48C331.951,-48 344.519,-48 356.877,-48"/>
<polygon fill="midnightblue" stroke="midnightblue" points="357.191,-51.5001 367.191,-48 357.191,-44.5001 357.191,-51.5001"/>
</g>
<!-- Node35 -->
<g id="node35" class="node"><title>Node35</title>
<g id="a_node35"><a xlink:href="../../d9/de5/struct_indoor_camera_d3_d.html#a819c840787fde1b667c5477bafb21a62" target="_top" xlink:title=" ">
<polygon fill="white" stroke="black" points="362,-0.5 362,-19.5 527,-19.5 527,-0.5 362,-0.5"/>
<text text-anchor="middle" x="444.5" y="-7.5" font-family="Helvetica,sans-Serif" font-size="10.00">IndoorCameraD3D::ViewTransform</text>
</a>
</g>
</g>
<!-- Node32&#45;&gt;Node35 -->
<g id="edge46" class="edge"><title>Node32&#45;&gt;Node35</title>
<path fill="none" stroke="midnightblue" d="M299.95,-38.411C325.971,-33.261 358.228,-26.8768 385.569,-21.4656"/>
<polygon fill="midnightblue" stroke="midnightblue" points="386.269,-24.895 395.399,-19.5201 384.909,-18.0282 386.269,-24.895"/>
</g>
</g>
</svg>
