<?xml version="1.0" encoding="UTF-8" standalone="no"?>
<!DOCTYPE svg PUBLIC "-//W3C//DTD SVG 1.1//EN"
 "http://www.w3.org/Graphics/SVG/1.1/DTD/svg11.dtd">
<!-- Generated by graphviz version 2.38.0 (20140413.2041)
 -->
<!-- Title: Render::Initialize Pages: 1 -->
<svg width="562pt" height="180pt"
 viewBox="0.00 0.00 562.00 180.00" xmlns="http://www.w3.org/2000/svg" xmlns:xlink="http://www.w3.org/1999/xlink">
<g id="graph0" class="graph" transform="scale(1 1) rotate(0) translate(4 176)">
<title>Render::Initialize</title>
<polygon fill="white" stroke="none" points="-4,4 -4,-176 558,-176 558,4 -4,4"/>
<!-- Node1 -->
<g id="node1" class="node"><title>Node1</title>
<g id="a_node1"><a xlink:title=" ">
<polygon fill="#bfbfbf" stroke="black" points="0,-76.5 0,-95.5 89,-95.5 89,-76.5 0,-76.5"/>
<text text-anchor="middle" x="44.5" y="-83.5" font-family="Helvetica,sans-Serif" font-size="10.00">Render::Initialize</text>
</a>
</g>
</g>
<!-- Node2 -->
<g id="node2" class="node"><title>Node2</title>
<g id="a_node2"><a xlink:href="../../d9/d47/class_render_base.html#aef1916dcf1e87a912dc416f07e58f139" target="_top" xlink:title=" ">
<polygon fill="white" stroke="black" points="143,-114.5 143,-133.5 254,-133.5 254,-114.5 143,-114.5"/>
<text text-anchor="middle" x="198.5" y="-121.5" font-family="Helvetica,sans-Serif" font-size="10.00">RenderBase::Initialize</text>
</a>
</g>
</g>
<!-- Node1&#45;&gt;Node2 -->
<g id="edge1" class="edge"><title>Node1&#45;&gt;Node2</title>
<path fill="none" stroke="midnightblue" d="M83.856,-95.589C103.824,-100.581 128.43,-106.732 149.633,-112.033"/>
<polygon fill="midnightblue" stroke="midnightblue" points="148.869,-115.45 159.42,-114.48 150.567,-108.659 148.869,-115.45"/>
</g>
<!-- Node7 -->
<g id="node7" class="node"><title>Node7</title>
<g id="a_node7"><a xlink:href="../../d4/ddd/_api_8h.html#aaa98c64d3d239ead56412b33f374b380" target="_top" xlink:title=" ">
<polygon fill="white" stroke="black" points="158.5,-76.5 158.5,-95.5 238.5,-95.5 238.5,-76.5 158.5,-76.5"/>
<text text-anchor="middle" x="198.5" y="-83.5" font-family="Helvetica,sans-Serif" font-size="10.00">OS_GetAppInt</text>
</a>
</g>
</g>
<!-- Node1&#45;&gt;Node7 -->
<g id="edge6" class="edge"><title>Node1&#45;&gt;Node7</title>
<path fill="none" stroke="midnightblue" d="M89.0571,-86C107.573,-86 129.252,-86 148.339,-86"/>
<polygon fill="midnightblue" stroke="midnightblue" points="148.346,-89.5001 158.346,-86 148.346,-82.5001 148.346,-89.5001"/>
</g>
<!-- Node8 -->
<g id="node8" class="node"><title>Node8</title>
<g id="a_node8"><a xlink:href="../../d9/d47/class_render_base.html#a098842ca50b330d84ab258d6e8512d4f" target="_top" xlink:title=" ">
<polygon fill="white" stroke="black" points="125,-38.5 125,-57.5 272,-57.5 272,-38.5 125,-38.5"/>
<text text-anchor="middle" x="198.5" y="-45.5" font-family="Helvetica,sans-Serif" font-size="10.00">RenderBase::PostInitialization</text>
</a>
</g>
</g>
<!-- Node1&#45;&gt;Node8 -->
<g id="edge7" class="edge"><title>Node1&#45;&gt;Node8</title>
<path fill="none" stroke="midnightblue" d="M83.856,-76.411C103.824,-71.4191 128.43,-65.2676 149.633,-59.9666"/>
<polygon fill="midnightblue" stroke="midnightblue" points="150.567,-63.341 159.42,-57.5201 148.869,-56.55 150.567,-63.341"/>
</g>
<!-- Node3 -->
<g id="node3" class="node"><title>Node3</title>
<g id="a_node3"><a xlink:href="../../d4/d68/_engine_8cpp.html#a7a083a74e008e624d001444406d58c6d" target="_top" xlink:title=" ">
<polygon fill="white" stroke="black" points="335.5,-152.5 335.5,-171.5 416.5,-171.5 416.5,-152.5 335.5,-152.5"/>
<text text-anchor="middle" x="376" y="-159.5" font-family="Helvetica,sans-Serif" font-size="10.00">MakeDataPath</text>
</a>
</g>
</g>
<!-- Node2&#45;&gt;Node3 -->
<g id="edge2" class="edge"><title>Node2&#45;&gt;Node3</title>
<path fill="none" stroke="midnightblue" d="M243.786,-133.589C268.617,-138.966 299.661,-145.687 325.319,-151.243"/>
<polygon fill="midnightblue" stroke="midnightblue" points="324.71,-154.692 335.224,-153.388 326.191,-147.851 324.71,-154.692"/>
</g>
<!-- Node4 -->
<g id="node4" class="node"><title>Node4</title>
<g id="a_node4"><a xlink:href="../../d6/d71/class_h_w_l_container.html#a88ff4e43206798441867a8b333c7461b" target="_top" xlink:title=" ">
<polygon fill="white" stroke="black" points="321.5,-114.5 321.5,-133.5 430.5,-133.5 430.5,-114.5 321.5,-114.5"/>
<text text-anchor="middle" x="376" y="-121.5" font-family="Helvetica,sans-Serif" font-size="10.00">HWLContainer::Open</text>
</a>
</g>
</g>
<!-- Node2&#45;&gt;Node4 -->
<g id="edge3" class="edge"><title>Node2&#45;&gt;Node4</title>
<path fill="none" stroke="midnightblue" d="M254.067,-124C272.151,-124 292.44,-124 311.157,-124"/>
<polygon fill="midnightblue" stroke="midnightblue" points="311.37,-127.5 321.37,-124 311.37,-120.5 311.37,-127.5"/>
</g>
<!-- Node5 -->
<g id="node5" class="node"><title>Node5</title>
<g id="a_node5"><a xlink:href="../../d8/d44/_strings_8cpp.html#ae591bae1416df2b3638ae859ad4ede6f" target="_top" xlink:title=" ">
<polygon fill="white" stroke="black" points="484,-133.5 484,-152.5 550,-152.5 550,-133.5 484,-133.5"/>
<text text-anchor="middle" x="517" y="-140.5" font-family="Helvetica,sans-Serif" font-size="10.00">MakeLower</text>
</a>
</g>
</g>
<!-- Node4&#45;&gt;Node5 -->
<g id="edge4" class="edge"><title>Node4&#45;&gt;Node5</title>
<path fill="none" stroke="midnightblue" d="M430.741,-131.346C444.986,-133.293 460.164,-135.368 473.706,-137.219"/>
<polygon fill="midnightblue" stroke="midnightblue" points="473.318,-140.698 483.7,-138.585 474.266,-133.763 473.318,-140.698"/>
</g>
<!-- Node6 -->
<g id="node6" class="node"><title>Node6</title>
<g id="a_node6"><a xlink:href="../../d6/d70/class_log.html#ac0de2621497ca3b2fbf208624c08bcdf" target="_top" xlink:title=" ">
<polygon fill="white" stroke="black" points="480,-95.5 480,-114.5 554,-114.5 554,-95.5 480,-95.5"/>
<text text-anchor="middle" x="517" y="-102.5" font-family="Helvetica,sans-Serif" font-size="10.00">Log::Warning</text>
</a>
</g>
</g>
<!-- Node4&#45;&gt;Node6 -->
<g id="edge5" class="edge"><title>Node4&#45;&gt;Node6</title>
<path fill="none" stroke="midnightblue" d="M430.741,-116.654C443.513,-114.908 457.035,-113.06 469.456,-111.362"/>
<polygon fill="midnightblue" stroke="midnightblue" points="470.155,-114.799 479.589,-109.977 469.207,-107.864 470.155,-114.799"/>
</g>
<!-- Node9 -->
<g id="node9" class="node"><title>Node9</title>
<g id="a_node9"><a xlink:href="../../d9/d30/_s_d_l__assert_8h.html#afedcea68cf85ee469ab1ea390bbe0abb" target="_top" xlink:title=" ">
<polygon fill="white" stroke="black" points="337.5,-76.5 337.5,-95.5 414.5,-95.5 414.5,-76.5 337.5,-76.5"/>
<text text-anchor="middle" x="376" y="-83.5" font-family="Helvetica,sans-Serif" font-size="10.00">__debugbreak</text>
</a>
</g>
</g>
<!-- Node8&#45;&gt;Node9 -->
<g id="edge8" class="edge"><title>Node8&#45;&gt;Node9</title>
<path fill="none" stroke="midnightblue" d="M243.786,-57.589C269.245,-63.1015 301.234,-70.0279 327.253,-75.6617"/>
<polygon fill="midnightblue" stroke="midnightblue" points="326.756,-79.135 337.27,-77.8305 328.237,-72.2935 326.756,-79.135"/>
</g>
<!-- Node10 -->
<g id="node10" class="node"><title>Node10</title>
<g id="a_node10"><a xlink:href="../../d9/d20/class_i_render.html#a700102c7f477284e99b90b58fc2e0bc7" target="_top" xlink:title=" ">
<polygon fill="white" stroke="black" points="308,-38.5 308,-57.5 444,-57.5 444,-38.5 308,-38.5"/>
<text text-anchor="middle" x="376" y="-45.5" font-family="Helvetica,sans-Serif" font-size="10.00">IRender::InitializeFullscreen</text>
</a>
</g>
</g>
<!-- Node8&#45;&gt;Node10 -->
<g id="edge9" class="edge"><title>Node8&#45;&gt;Node10</title>
<path fill="none" stroke="midnightblue" d="M272.149,-48C280.53,-48 289.099,-48 297.54,-48"/>
<polygon fill="midnightblue" stroke="midnightblue" points="297.75,-51.5001 307.75,-48 297.75,-44.5001 297.75,-51.5001"/>
</g>
<!-- Node11 -->
<g id="node11" class="node"><title>Node11</title>
<g id="a_node11"><a xlink:href="../../d9/d20/class_i_render.html#a8abd748d1c183ec4e57768522ec2c67c" target="_top" xlink:title=" ">
<polygon fill="white" stroke="black" points="311,-0.5 311,-19.5 441,-19.5 441,-0.5 311,-0.5"/>
<text text-anchor="middle" x="376" y="-7.5" font-family="Helvetica,sans-Serif" font-size="10.00">IRender::SwitchToWindow</text>
</a>
</g>
</g>
<!-- Node8&#45;&gt;Node11 -->
<g id="edge10" class="edge"><title>Node8&#45;&gt;Node11</title>
<path fill="none" stroke="midnightblue" d="M243.786,-38.411C267.258,-33.3287 296.281,-27.0446 321.058,-21.6797"/>
<polygon fill="midnightblue" stroke="midnightblue" points="322,-25.0571 331.032,-19.5201 320.518,-18.2156 322,-25.0571"/>
</g>
</g>
</svg>
