<?xml version="1.0" encoding="UTF-8" standalone="no"?>
<!DOCTYPE svg PUBLIC "-//W3C//DTD SVG 1.1//EN"
 "http://www.w3.org/Graphics/SVG/1.1/DTD/svg11.dtd">
<!-- Generated by graphviz version 2.38.0 (20140413.2041)
 -->
<!-- Title: Render::DrawDecal Pages: 1 -->
<svg width="877pt" height="164pt"
 viewBox="0.00 0.00 877.00 164.00" xmlns="http://www.w3.org/2000/svg" xmlns:xlink="http://www.w3.org/1999/xlink">
<g id="graph0" class="graph" transform="scale(1 1) rotate(0) translate(4 160)">
<title>Render::DrawDecal</title>
<polygon fill="white" stroke="none" points="-4,4 -4,-160 873,-160 873,4 -4,4"/>
<!-- Node1 -->
<g id="node1" class="node"><title>Node1</title>
<g id="a_node1"><a xlink:title=" ">
<polygon fill="#bfbfbf" stroke="black" points="0,-57.5 0,-76.5 100,-76.5 100,-57.5 0,-57.5"/>
<text text-anchor="middle" x="50" y="-64.5" font-family="Helvetica,sans-Serif" font-size="10.00">Render::DrawDecal</text>
</a>
</g>
</g>
<!-- Node2 -->
<g id="node2" class="node"><title>Node2</title>
<g id="a_node2"><a xlink:href="../../d6/d48/struct_decal_builder__stru0.html#a53536ec2d70e5708029aae031ff19ad4" target="_top" xlink:title=" ">
<polygon fill="white" stroke="black" points="157,-114.5 157,-155.5 263,-155.5 263,-114.5 157,-114.5"/>
<text text-anchor="start" x="165" y="-143.5" font-family="Helvetica,sans-Serif" font-size="10.00">DecalBuilder_stru0</text>
<text text-anchor="start" x="165" y="-132.5" font-family="Helvetica,sans-Serif" font-size="10.00">::_43B570_get_color</text>
<text text-anchor="middle" x="210" y="-121.5" font-family="Helvetica,sans-Serif" font-size="10.00">_mult_by_time</text>
</a>
</g>
</g>
<!-- Node1&#45;&gt;Node2 -->
<g id="edge1" class="edge"><title>Node1&#45;&gt;Node2</title>
<path fill="none" stroke="midnightblue" d="M71.8807,-76.5482C89.0394,-84.3429 114.013,-95.5702 136,-105 140.15,-106.78 144.441,-108.598 148.768,-110.416"/>
<polygon fill="midnightblue" stroke="midnightblue" points="147.681,-113.756 158.257,-114.38 150.379,-107.296 147.681,-113.756"/>
</g>
<!-- Node4 -->
<g id="node4" class="node"><title>Node4</title>
<g id="a_node4"><a xlink:href="../../da/d7f/class_render.html#a3fa28b49954a5e0bd04d6ecec33a20cf" target="_top" xlink:title=" ">
<polygon fill="white" stroke="black" points="144.5,-76.5 144.5,-95.5 275.5,-95.5 275.5,-76.5 144.5,-76.5"/>
<text text-anchor="middle" x="210" y="-83.5" font-family="Helvetica,sans-Serif" font-size="10.00">Render::GetActorTintColor</text>
</a>
</g>
</g>
<!-- Node1&#45;&gt;Node4 -->
<g id="edge3" class="edge"><title>Node1&#45;&gt;Node4</title>
<path fill="none" stroke="midnightblue" d="M100.126,-72.9076C110.986,-74.2135 122.729,-75.6257 134.347,-77.0227"/>
<polygon fill="midnightblue" stroke="midnightblue" points="134.152,-80.5244 144.499,-78.2435 134.988,-73.5745 134.152,-80.5244"/>
</g>
<!-- Node9 -->
<g id="node9" class="node"><title>Node9</title>
<g id="a_node9"><a xlink:href="../../d9/de5/struct_indoor_camera_d3_d.html#ae44ac296d0d5225048b313e14edf7da1" target="_top" xlink:title=" ">
<polygon fill="white" stroke="black" points="136,-38.5 136,-57.5 284,-57.5 284,-38.5 136,-38.5"/>
<text text-anchor="middle" x="210" y="-45.5" font-family="Helvetica,sans-Serif" font-size="10.00">IndoorCameraD3D::GetFarClip</text>
</a>
</g>
</g>
<!-- Node1&#45;&gt;Node9 -->
<g id="edge8" class="edge"><title>Node1&#45;&gt;Node9</title>
<path fill="none" stroke="midnightblue" d="M100.126,-61.0924C108.353,-60.1031 117.088,-59.0528 125.89,-57.9942"/>
<polygon fill="midnightblue" stroke="midnightblue" points="126.323,-61.4674 135.834,-56.7985 125.487,-54.5175 126.323,-61.4674"/>
</g>
<!-- Node10 -->
<g id="node10" class="node"><title>Node10</title>
<g id="a_node10"><a xlink:href="../../d6/d70/class_log.html#ac0de2621497ca3b2fbf208624c08bcdf" target="_top" xlink:title=" ">
<polygon fill="white" stroke="black" points="173,-0.5 173,-19.5 247,-19.5 247,-0.5 173,-0.5"/>
<text text-anchor="middle" x="210" y="-7.5" font-family="Helvetica,sans-Serif" font-size="10.00">Log::Warning</text>
</a>
</g>
</g>
<!-- Node1&#45;&gt;Node10 -->
<g id="edge9" class="edge"><title>Node1&#45;&gt;Node10</title>
<path fill="none" stroke="midnightblue" d="M69.8741,-57.4729C86.8601,-49.1635 112.664,-37.1897 136,-29 144.712,-25.9427 154.161,-23.1283 163.282,-20.655"/>
<polygon fill="midnightblue" stroke="midnightblue" points="164.213,-24.0294 172.999,-18.1096 162.439,-17.2579 164.213,-24.0294"/>
</g>
<!-- Node3 -->
<g id="node3" class="node"><title>Node3</title>
<g id="a_node3"><a xlink:href="../../d8/da1/struct_timer.html#af11deea7dde51d637aec54587820f92b" target="_top" xlink:title=" ">
<polygon fill="white" stroke="black" points="333,-125.5 333,-144.5 401,-144.5 401,-125.5 333,-125.5"/>
<text text-anchor="middle" x="367" y="-132.5" font-family="Helvetica,sans-Serif" font-size="10.00">Timer::Time</text>
</a>
</g>
</g>
<!-- Node2&#45;&gt;Node3 -->
<g id="edge2" class="edge"><title>Node2&#45;&gt;Node3</title>
<path fill="none" stroke="midnightblue" d="M263.044,-135C282.396,-135 304.13,-135 322.624,-135"/>
<polygon fill="midnightblue" stroke="midnightblue" points="322.813,-138.5 332.813,-135 322.812,-131.5 322.813,-138.5"/>
</g>
<!-- Node5 -->
<g id="node5" class="node"><title>Node5</title>
<g id="a_node5"><a xlink:href="../../d2/dc7/_render_8cpp.html#affb59d87fdc8c1c2415376ae745a2821" target="_top" xlink:title=" ">
<polygon fill="white" stroke="black" points="320,-76.5 320,-95.5 414,-95.5 414,-76.5 320,-76.5"/>
<text text-anchor="middle" x="367" y="-83.5" font-family="Helvetica,sans-Serif" font-size="10.00">GetActorTintColor</text>
</a>
</g>
</g>
<!-- Node4&#45;&gt;Node5 -->
<g id="edge4" class="edge"><title>Node4&#45;&gt;Node5</title>
<path fill="none" stroke="midnightblue" d="M275.836,-86C287.026,-86 298.578,-86 309.525,-86"/>
<polygon fill="midnightblue" stroke="midnightblue" points="309.803,-89.5001 319.803,-86 309.803,-82.5001 309.803,-89.5001"/>
</g>
<!-- Node6 -->
<g id="node6" class="node"><title>Node6</title>
<g id="a_node6"><a xlink:href="../../d2/dc7/_render_8cpp.html#ac91abbddf2a7fc9ee162e3fadf8534f6" target="_top" xlink:title=" ">
<polygon fill="white" stroke="black" points="450,-71 450,-101 565,-101 565,-71 450,-71"/>
<text text-anchor="start" x="458" y="-89" font-family="Helvetica,sans-Serif" font-size="10.00">_43F55F_get_billboard</text>
<text text-anchor="middle" x="507.5" y="-78" font-family="Helvetica,sans-Serif" font-size="10.00">_light_level</text>
</a>
</g>
</g>
<!-- Node5&#45;&gt;Node6 -->
<g id="edge5" class="edge"><title>Node5&#45;&gt;Node6</title>
<path fill="none" stroke="midnightblue" d="M414.118,-86C422.376,-86 431.13,-86 439.829,-86"/>
<polygon fill="midnightblue" stroke="midnightblue" points="439.983,-89.5001 449.983,-86 439.983,-82.5001 439.983,-89.5001"/>
</g>
<!-- Node7 -->
<g id="node7" class="node"><title>Node7</title>
<g id="a_node7"><a xlink:href="../../d2/dc7/_render_8cpp.html#aa7459c3126d3e1bcf791c83d4862603c" target="_top" xlink:title=" ">
<polygon fill="white" stroke="black" points="601,-65.5 601,-106.5 725,-106.5 725,-65.5 601,-65.5"/>
<text text-anchor="start" x="609" y="-94.5" font-family="Helvetica,sans-Serif" font-size="10.00">_43F5C8_get_point_light</text>
<text text-anchor="start" x="609" y="-83.5" font-family="Helvetica,sans-Serif" font-size="10.00">_level_with_respect_to</text>
<text text-anchor="middle" x="663" y="-72.5" font-family="Helvetica,sans-Serif" font-size="10.00">_lights</text>
</a>
</g>
</g>
<!-- Node6&#45;&gt;Node7 -->
<g id="edge6" class="edge"><title>Node6&#45;&gt;Node7</title>
<path fill="none" stroke="midnightblue" d="M565.222,-86C573.57,-86 582.258,-86 590.852,-86"/>
<polygon fill="midnightblue" stroke="midnightblue" points="590.871,-89.5001 600.871,-86 590.871,-82.5001 590.871,-89.5001"/>
</g>
<!-- Node8 -->
<g id="node8" class="node"><title>Node8</title>
<g id="a_node8"><a xlink:href="../../d5/d2e/_vector_types_8cpp.html#a5eb2b4017143261b8e3f12f6c796a11c" target="_top" xlink:title=" ">
<polygon fill="white" stroke="black" points="761,-76.5 761,-95.5 869,-95.5 869,-76.5 761,-76.5"/>
<text text-anchor="middle" x="815" y="-83.5" font-family="Helvetica,sans-Serif" font-size="10.00">int_get_vector_length</text>
</a>
</g>
</g>
<!-- Node7&#45;&gt;Node8 -->
<g id="edge7" class="edge"><title>Node7&#45;&gt;Node8</title>
<path fill="none" stroke="midnightblue" d="M725.011,-86C733.43,-86 742.092,-86 750.554,-86"/>
<polygon fill="midnightblue" stroke="midnightblue" points="750.746,-89.5001 760.746,-86 750.746,-82.5001 750.746,-89.5001"/>
</g>
</g>
</svg>
