<?xml version="1.0" encoding="UTF-8" standalone="no"?>
<!DOCTYPE svg PUBLIC "-//W3C//DTD SVG 1.1//EN"
 "http://www.w3.org/Graphics/SVG/1.1/DTD/svg11.dtd">
<!-- Generated by graphviz version 2.38.0 (20140413.2041)
 -->
<!-- Title: Render::DrawOutdoorSkyD3D Pages: 1 -->
<!--zoomable 256 -->
<svg id="main" version="1.1" xmlns="http://www.w3.org/2000/svg" xmlns:xlink="http://www.w3.org/1999/xlink" xml:space="preserve" onload="init(evt)">
<style type="text/css"><![CDATA[
.edge:hover path { stroke: red; }
.edge:hover polygon { stroke: red; fill: red; }
]]></style>
<script type="text/javascript"><![CDATA[
var edges = document.getElementsByTagName('g');
if (edges && edges.length) {
  for (var i=0;i<edges.length;i++) {
    if (edges[i].id.substr(0,4)=='edge') {
      edges[i].setAttribute('class','edge');
    }
  }
}
]]></script>
        <defs>
                <circle id="rim" cx="0" cy="0" r="7"/>
                <circle id="rim2" cx="0" cy="0" r="3.5"/>
                <g id="zoomPlus">
                        <use xlink:href="#rim" fill="#404040">
                                <set attributeName="fill" to="#808080" begin="zoomplus.mouseover" end="zoomplus.mouseout"/>
                        </use>
                        <path d="M-4,0h8M0,-4v8" fill="none" stroke="white" stroke-width="1.5" pointer-events="none"/>
                </g>
                <g id="zoomMin">
                        <use xlink:href="#rim" fill="#404040">
                                <set attributeName="fill" to="#808080" begin="zoomminus.mouseover" end="zoomminus.mouseout"/>
                        </use>
                        <path d="M-4,0h8" fill="none" stroke="white" stroke-width="1.5" pointer-events="none"/>
                </g>
                <g id="dirArrow">
                        <path fill="none" stroke="white" stroke-width="1.5" d="M0,-3.0v7 M-2.5,-0.5L0,-3.0L2.5,-0.5"/>
                </g>
               <g id="resetDef">
                       <use xlink:href="#rim2" fill="#404040">
                               <set attributeName="fill" to="#808080" begin="reset.mouseover" end="reset.mouseout"/>
                       </use>
               </g>
        </defs>

<script type="text/javascript">
var viewWidth = 1109;
var viewHeight = 256;
var sectionId = 'dynsection-61';
</script>
<script xlink:href="../../svgpan.js"/>
<svg id="graph" class="graph">
<g id="viewport">
<title>Render::DrawOutdoorSkyD3D</title>
<polygon fill="white" stroke="none" points="-4,4 -4,-252 1105,-252 1105,4 -4,4"/>
<!-- Node1 -->
<g id="node1" class="node"><title>Node1</title>
<g id="a_node1"><a xlink:title=" ">
<polygon fill="#bfbfbf" stroke="black" points="0,-114.5 0,-133.5 146,-133.5 146,-114.5 0,-114.5"/>
<text text-anchor="middle" x="73" y="-121.5" font-family="Helvetica,sans-Serif" font-size="10.00">Render::DrawOutdoorSkyD3D</text>
</a>
</g>
</g>
<!-- Node2 -->
<g id="node2" class="node"><title>Node2</title>
<g id="a_node2"><a xlink:href="../../d6/d38/structstru193__math.html#a7a4a47e93ff200721e19681b71783c51" target="_top" xlink:title=" ">
<polygon fill="white" stroke="black" points="396,-209.5 396,-228.5 495,-228.5 495,-209.5 396,-209.5"/>
<text text-anchor="middle" x="445.5" y="-216.5" font-family="Helvetica,sans-Serif" font-size="10.00">stru193_math::Cos</text>
</a>
</g>
</g>
<!-- Node1&#45;&gt;Node2 -->
<g id="edge1" class="edge"><title>Node1&#45;&gt;Node2</title>
<path fill="none" stroke="midnightblue" d="M88.3125,-133.616C108.348,-146.583 146.317,-169.385 182,-181 249.874,-203.093 331.794,-212.364 385.865,-216.24"/>
<polygon fill="midnightblue" stroke="midnightblue" points="385.748,-219.739 395.961,-216.924 386.221,-212.756 385.748,-219.739"/>
</g>
<!-- Node3 -->
<g id="node3" class="node"><title>Node3</title>
<g id="a_node3"><a xlink:href="../../da/d7f/class_render.html#ae7ab22436103697eb832d25fe70933ec" target="_top" xlink:title=" ">
<polygon fill="white" stroke="black" points="182,-152.5 182,-171.5 344,-171.5 344,-152.5 182,-152.5"/>
<text text-anchor="middle" x="263" y="-159.5" font-family="Helvetica,sans-Serif" font-size="10.00">Render::DrawOutdoorSkyPolygon</text>
</a>
</g>
</g>
<!-- Node1&#45;&gt;Node3 -->
<g id="edge2" class="edge"><title>Node1&#45;&gt;Node3</title>
<path fill="none" stroke="midnightblue" d="M121.44,-133.589C146.808,-138.716 178.227,-145.067 204.923,-150.463"/>
<polygon fill="midnightblue" stroke="midnightblue" points="204.406,-153.929 214.901,-152.48 205.792,-147.068 204.406,-153.929"/>
</g>
<!-- Node10 -->
<g id="node10" class="node"><title>Node10</title>
<g id="a_node10"><a xlink:href="../../de/db6/_our_math_8cpp.html#abc4811d26f9864e00046c39c39d65680" target="_top" xlink:title=" ">
<polygon fill="white" stroke="black" points="229,-114.5 229,-133.5 297,-133.5 297,-114.5 229,-114.5"/>
<text text-anchor="middle" x="263" y="-121.5" font-family="Helvetica,sans-Serif" font-size="10.00">fixpoint_mul</text>
</a>
</g>
</g>
<!-- Node1&#45;&gt;Node10 -->
<g id="edge9" class="edge"><title>Node1&#45;&gt;Node10</title>
<path fill="none" stroke="midnightblue" d="M146.148,-124C170.531,-124 196.99,-124 218.458,-124"/>
<polygon fill="midnightblue" stroke="midnightblue" points="218.565,-127.5 228.565,-124 218.565,-120.5 218.565,-127.5"/>
</g>
<!-- Node11 -->
<g id="node11" class="node"><title>Node11</title>
<g id="a_node11"><a xlink:href="../../d9/de5/struct_indoor_camera_d3_d.html#ae44ac296d0d5225048b313e14edf7da1" target="_top" xlink:title=" ">
<polygon fill="white" stroke="black" points="189,-76.5 189,-95.5 337,-95.5 337,-76.5 189,-76.5"/>
<text text-anchor="middle" x="263" y="-83.5" font-family="Helvetica,sans-Serif" font-size="10.00">IndoorCameraD3D::GetFarClip</text>
</a>
</g>
</g>
<!-- Node1&#45;&gt;Node11 -->
<g id="edge10" class="edge"><title>Node1&#45;&gt;Node11</title>
<path fill="none" stroke="midnightblue" d="M121.44,-114.411C146.808,-109.284 178.227,-102.933 204.923,-97.5368"/>
<polygon fill="midnightblue" stroke="midnightblue" points="205.792,-100.932 214.901,-95.5201 204.406,-94.0707 205.792,-100.932"/>
</g>
<!-- Node12 -->
<g id="node12" class="node"><title>Node12</title>
<g id="a_node12"><a xlink:href="../../de/d73/class_image.html#a5093fa64598a4d7e0c70d43fe67e35cd" target="_top" xlink:title=" ">
<polygon fill="white" stroke="black" points="217,-0.5 217,-19.5 309,-19.5 309,-0.5 217,-0.5"/>
<text text-anchor="middle" x="263" y="-7.5" font-family="Helvetica,sans-Serif" font-size="10.00">Image::GetHeight</text>
</a>
</g>
</g>
<!-- Node1&#45;&gt;Node12 -->
<g id="edge11" class="edge"><title>Node1&#45;&gt;Node12</title>
<path fill="none" stroke="midnightblue" d="M81.8526,-114.496C98.3139,-95.227 138.526,-51.4848 182,-29 189.739,-24.9976 198.334,-21.8237 206.939,-19.3107"/>
<polygon fill="midnightblue" stroke="midnightblue" points="207.843,-22.692 216.611,-16.7454 206.048,-15.9259 207.843,-22.692"/>
</g>
<!-- Node16 -->
<g id="node16" class="node"><title>Node16</title>
<g id="a_node16"><a xlink:href="../../de/d73/class_image.html#a9241b1c53141c78273e4060a91634d47" target="_top" xlink:title=" ">
<polygon fill="white" stroke="black" points="218,-38.5 218,-57.5 308,-57.5 308,-38.5 218,-38.5"/>
<text text-anchor="middle" x="263" y="-45.5" font-family="Helvetica,sans-Serif" font-size="10.00">Image::GetWidth</text>
</a>
</g>
</g>
<!-- Node1&#45;&gt;Node16 -->
<g id="edge16" class="edge"><title>Node1&#45;&gt;Node16</title>
<path fill="none" stroke="midnightblue" d="M89.1633,-114.411C109.553,-101.894 147.268,-80.0493 182,-67 190.253,-63.8993 199.18,-61.1888 207.975,-58.8608"/>
<polygon fill="midnightblue" stroke="midnightblue" points="208.958,-62.2227 217.806,-56.3946 207.255,-55.433 208.958,-62.2227"/>
</g>
<!-- Node17 -->
<g id="node17" class="node"><title>Node17</title>
<g id="a_node17"><a xlink:href="../../d6/d38/structstru193__math.html#a9bd57620c86e36d03d93f2306f8ab80a" target="_top" xlink:title=" ">
<polygon fill="white" stroke="black" points="215,-228.5 215,-247.5 311,-247.5 311,-228.5 215,-228.5"/>
<text text-anchor="middle" x="263" y="-235.5" font-family="Helvetica,sans-Serif" font-size="10.00">stru193_math::Sin</text>
</a>
</g>
</g>
<!-- Node1&#45;&gt;Node17 -->
<g id="edge19" class="edge"><title>Node1&#45;&gt;Node17</title>
<path fill="none" stroke="midnightblue" d="M82.864,-133.618C100.193,-151.872 140.506,-191.702 182,-214 190.437,-218.534 199.847,-222.326 209.165,-225.457"/>
<polygon fill="midnightblue" stroke="midnightblue" points="208.208,-228.825 218.797,-228.484 210.307,-222.147 208.208,-228.825"/>
</g>
<!-- Node4 -->
<g id="node4" class="node"><title>Node4</title>
<g id="a_node4"><a xlink:href="../../da/d7f/class_render.html#a3fa28b49954a5e0bd04d6ecec33a20cf" target="_top" xlink:title=" ">
<polygon fill="white" stroke="black" points="380,-165.5 380,-184.5 511,-184.5 511,-165.5 380,-165.5"/>
<text text-anchor="middle" x="445.5" y="-172.5" font-family="Helvetica,sans-Serif" font-size="10.00">Render::GetActorTintColor</text>
</a>
</g>
</g>
<!-- Node3&#45;&gt;Node4 -->
<g id="edge3" class="edge"><title>Node3&#45;&gt;Node4</title>
<path fill="none" stroke="midnightblue" d="M344.221,-167.778C352.722,-168.39 361.344,-169.011 369.778,-169.618"/>
<polygon fill="midnightblue" stroke="midnightblue" points="369.728,-173.124 379.954,-170.351 370.231,-166.142 369.728,-173.124"/>
</g>
<!-- Node9 -->
<g id="node9" class="node"><title>Node9</title>
<g id="a_node9"><a xlink:href="../../d1/d03/_outdoor_8cpp.html#a84d5fb801638d6a02bb9ef829cf5b5b8" target="_top" xlink:title=" ">
<polygon fill="white" stroke="black" points="391,-116 391,-146 500,-146 500,-116 391,-116"/>
<text text-anchor="start" x="399" y="-134" font-family="Helvetica,sans-Serif" font-size="10.00">sub_47C3D7_get_fog</text>
<text text-anchor="middle" x="445.5" y="-123" font-family="Helvetica,sans-Serif" font-size="10.00">_specular</text>
</a>
</g>
</g>
<!-- Node3&#45;&gt;Node9 -->
<g id="edge8" class="edge"><title>Node3&#45;&gt;Node9</title>
<path fill="none" stroke="midnightblue" d="M319.629,-152.446C339.035,-149.113 360.959,-145.348 380.959,-141.913"/>
<polygon fill="midnightblue" stroke="midnightblue" points="381.647,-145.346 390.91,-140.204 380.462,-138.447 381.647,-145.346"/>
</g>
<!-- Node5 -->
<g id="node5" class="node"><title>Node5</title>
<g id="a_node5"><a xlink:href="../../d2/dc7/_render_8cpp.html#affb59d87fdc8c1c2415376ae745a2821" target="_top" xlink:title=" ">
<polygon fill="white" stroke="black" points="549.5,-165.5 549.5,-184.5 643.5,-184.5 643.5,-165.5 549.5,-165.5"/>
<text text-anchor="middle" x="596.5" y="-172.5" font-family="Helvetica,sans-Serif" font-size="10.00">GetActorTintColor</text>
</a>
</g>
</g>
<!-- Node4&#45;&gt;Node5 -->
<g id="edge4" class="edge"><title>Node4&#45;&gt;Node5</title>
<path fill="none" stroke="midnightblue" d="M511.42,-175C520.651,-175 530.081,-175 539.131,-175"/>
<polygon fill="midnightblue" stroke="midnightblue" points="539.156,-178.5 549.156,-175 539.156,-171.5 539.156,-178.5"/>
</g>
<!-- Node6 -->
<g id="node6" class="node"><title>Node6</title>
<g id="a_node6"><a xlink:href="../../d2/dc7/_render_8cpp.html#ac91abbddf2a7fc9ee162e3fadf8534f6" target="_top" xlink:title=" ">
<polygon fill="white" stroke="black" points="682,-160 682,-190 797,-190 797,-160 682,-160"/>
<text text-anchor="start" x="690" y="-178" font-family="Helvetica,sans-Serif" font-size="10.00">_43F55F_get_billboard</text>
<text text-anchor="middle" x="739.5" y="-167" font-family="Helvetica,sans-Serif" font-size="10.00">_light_level</text>
</a>
</g>
</g>
<!-- Node5&#45;&gt;Node6 -->
<g id="edge5" class="edge"><title>Node5&#45;&gt;Node6</title>
<path fill="none" stroke="midnightblue" d="M643.669,-175C652.634,-175 662.197,-175 671.672,-175"/>
<polygon fill="midnightblue" stroke="midnightblue" points="671.886,-178.5 681.886,-175 671.886,-171.5 671.886,-178.5"/>
</g>
<!-- Node7 -->
<g id="node7" class="node"><title>Node7</title>
<g id="a_node7"><a xlink:href="../../d2/dc7/_render_8cpp.html#aa7459c3126d3e1bcf791c83d4862603c" target="_top" xlink:title=" ">
<polygon fill="white" stroke="black" points="833,-154.5 833,-195.5 957,-195.5 957,-154.5 833,-154.5"/>
<text text-anchor="start" x="841" y="-183.5" font-family="Helvetica,sans-Serif" font-size="10.00">_43F5C8_get_point_light</text>
<text text-anchor="start" x="841" y="-172.5" font-family="Helvetica,sans-Serif" font-size="10.00">_level_with_respect_to</text>
<text text-anchor="middle" x="895" y="-161.5" font-family="Helvetica,sans-Serif" font-size="10.00">_lights</text>
</a>
</g>
</g>
<!-- Node6&#45;&gt;Node7 -->
<g id="edge6" class="edge"><title>Node6&#45;&gt;Node7</title>
<path fill="none" stroke="midnightblue" d="M797.222,-175C805.57,-175 814.258,-175 822.852,-175"/>
<polygon fill="midnightblue" stroke="midnightblue" points="822.871,-178.5 832.871,-175 822.871,-171.5 822.871,-178.5"/>
</g>
<!-- Node8 -->
<g id="node8" class="node"><title>Node8</title>
<g id="a_node8"><a xlink:href="../../d5/d2e/_vector_types_8cpp.html#a5eb2b4017143261b8e3f12f6c796a11c" target="_top" xlink:title=" ">
<polygon fill="white" stroke="black" points="993,-165.5 993,-184.5 1101,-184.5 1101,-165.5 993,-165.5"/>
<text text-anchor="middle" x="1047" y="-172.5" font-family="Helvetica,sans-Serif" font-size="10.00">int_get_vector_length</text>
</a>
</g>
</g>
<!-- Node7&#45;&gt;Node8 -->
<g id="edge7" class="edge"><title>Node7&#45;&gt;Node8</title>
<path fill="none" stroke="midnightblue" d="M957.011,-175C965.43,-175 974.092,-175 982.554,-175"/>
<polygon fill="midnightblue" stroke="midnightblue" points="982.746,-178.5 992.746,-175 982.746,-171.5 982.746,-178.5"/>
</g>
<!-- Node13 -->
<g id="node13" class="node"><title>Node13</title>
<g id="a_node13"><a xlink:href="../../d9/d30/_s_d_l__assert_8h.html#afedcea68cf85ee469ab1ea390bbe0abb" target="_top" xlink:title=" ">
<polygon fill="white" stroke="black" points="558,-45.5 558,-64.5 635,-64.5 635,-45.5 558,-45.5"/>
<text text-anchor="middle" x="596.5" y="-52.5" font-family="Helvetica,sans-Serif" font-size="10.00">__debugbreak</text>
</a>
</g>
</g>
<!-- Node12&#45;&gt;Node13 -->
<g id="edge12" class="edge"><title>Node12&#45;&gt;Node13</title>
<path fill="none" stroke="midnightblue" d="M309.036,-5.24058C359.219,-1.3162 442.333,1.04476 511,-17 528.498,-21.5981 530.552,-28.4663 547,-36 551.183,-37.9158 555.619,-39.8206 560.042,-41.6429"/>
<polygon fill="midnightblue" stroke="midnightblue" points="559.016,-45.0026 569.601,-45.4733 561.62,-38.5048 559.016,-45.0026"/>
</g>
<!-- Node14 -->
<g id="node14" class="node"><title>Node14</title>
<g id="a_node14"><a xlink:href="../../de/d73/class_image.html#a9b786ec61110907b38dda728bd281c73" target="_top" xlink:title=" ">
<polygon fill="white" stroke="black" points="387.5,-26.5 387.5,-45.5 503.5,-45.5 503.5,-26.5 387.5,-26.5"/>
<text text-anchor="middle" x="445.5" y="-33.5" font-family="Helvetica,sans-Serif" font-size="10.00">Image::LoadImageData</text>
</a>
</g>
</g>
<!-- Node12&#45;&gt;Node14 -->
<g id="edge13" class="edge"><title>Node12&#45;&gt;Node14</title>
<path fill="none" stroke="midnightblue" d="M309.082,-16.4938C329.73,-19.468 354.627,-23.0544 377.412,-26.3364"/>
<polygon fill="midnightblue" stroke="midnightblue" points="376.971,-29.8089 387.368,-27.7705 377.97,-22.8804 376.971,-29.8089"/>
</g>
<!-- Node14&#45;&gt;Node13 -->
<g id="edge14" class="edge"><title>Node14&#45;&gt;Node13</title>
<path fill="none" stroke="midnightblue" d="M503.681,-43.2916C518.069,-45.1262 533.369,-47.0772 547.269,-48.8497"/>
<polygon fill="midnightblue" stroke="midnightblue" points="547.225,-52.3724 557.588,-50.1656 548.111,-45.4287 547.225,-52.3724"/>
</g>
<!-- Node15 -->
<g id="node15" class="node"><title>Node15</title>
<g id="a_node15"><a xlink:href="../../d7/d42/class_image_loader.html#ad346c7973ae6f1d84a8c1fc655661319" target="_top" xlink:title=" ">
<polygon fill="white" stroke="black" points="547,-7.5 547,-26.5 646,-26.5 646,-7.5 547,-7.5"/>
<text text-anchor="middle" x="596.5" y="-14.5" font-family="Helvetica,sans-Serif" font-size="10.00">ImageLoader::Load</text>
</a>
</g>
</g>
<!-- Node14&#45;&gt;Node15 -->
<g id="edge15" class="edge"><title>Node14&#45;&gt;Node15</title>
<path fill="none" stroke="midnightblue" d="M503.681,-28.7084C514.503,-27.3285 525.84,-25.8828 536.71,-24.4967"/>
<polygon fill="midnightblue" stroke="midnightblue" points="537.48,-27.927 546.957,-23.1901 536.594,-20.9832 537.48,-27.927"/>
</g>
<!-- Node16&#45;&gt;Node13 -->
<g id="edge17" class="edge"><title>Node16&#45;&gt;Node13</title>
<path fill="none" stroke="midnightblue" d="M308.038,-51.284C329.699,-52.7394 356.204,-54.2827 380,-55 437.643,-56.7377 503.999,-56.3828 547.678,-55.8253"/>
<polygon fill="midnightblue" stroke="midnightblue" points="547.778,-59.3243 557.729,-55.6882 547.682,-52.325 547.778,-59.3243"/>
</g>
<!-- Node16&#45;&gt;Node14 -->
<g id="edge18" class="edge"><title>Node16&#45;&gt;Node14</title>
<path fill="none" stroke="midnightblue" d="M308.155,-45.0645C328.975,-43.6803 354.268,-41.9988 377.388,-40.4617"/>
<polygon fill="midnightblue" stroke="midnightblue" points="377.743,-43.946 387.488,-39.7902 377.278,-36.9614 377.743,-43.946"/>
</g>
<!-- Node17&#45;&gt;Node2 -->
<g id="edge20" class="edge"><title>Node17&#45;&gt;Node2</title>
<path fill="none" stroke="midnightblue" d="M311.424,-233.008C334.182,-230.612 361.668,-227.719 385.738,-225.185"/>
<polygon fill="midnightblue" stroke="midnightblue" points="386.243,-228.652 395.821,-224.124 385.51,-221.69 386.243,-228.652"/>
</g>
</g>
</svg>
        <g id="navigator" transform="translate(0 0)" fill="#404254">
                <rect fill="#f2f5e9" fill-opacity="0.5" stroke="#606060" stroke-width=".5" x="0" y="0" width="60" height="60"/>
                <use id="zoomplus" xlink:href="#zoomPlus" x="17" y="9" onmousedown="handleZoom(evt,'in')"/>
                <use id="zoomminus" xlink:href="#zoomMin" x="42" y="9" onmousedown="handleZoom(evt,'out')"/>
                <use id="reset" xlink:href="#resetDef" x="30" y="36" onmousedown="handleReset()"/>
                <g id="arrowUp" xlink:href="#dirArrow" transform="translate(30 24)" onmousedown="handlePan(0,-1)">
                  <use xlink:href="#rim" fill="#404040">
                        <set attributeName="fill" to="#808080" begin="arrowUp.mouseover" end="arrowUp.mouseout"/>
                  </use>
                  <path fill="none" stroke="white" stroke-width="1.5" d="M0,-3.0v7 M-2.5,-0.5L0,-3.0L2.5,-0.5"/>
                </g>
                <g id="arrowRight" xlink:href="#dirArrow" transform="rotate(90) translate(36 -43)" onmousedown="handlePan(1,0)">
                  <use xlink:href="#rim" fill="#404040">
                        <set attributeName="fill" to="#808080" begin="arrowRight.mouseover" end="arrowRight.mouseout"/>
                  </use>
                  <path fill="none" stroke="white" stroke-width="1.5" d="M0,-3.0v7 M-2.5,-0.5L0,-3.0L2.5,-0.5"/>
                </g>
                <g id="arrowDown" xlink:href="#dirArrow" transform="rotate(180) translate(-30 -48)" onmousedown="handlePan(0,1)">
                  <use xlink:href="#rim" fill="#404040">
                        <set attributeName="fill" to="#808080" begin="arrowDown.mouseover" end="arrowDown.mouseout"/>
                  </use>
                  <path fill="none" stroke="white" stroke-width="1.5" d="M0,-3.0v7 M-2.5,-0.5L0,-3.0L2.5,-0.5"/>
                </g>
                <g id="arrowLeft" xlink:href="#dirArrow" transform="rotate(270) translate(-36 17)" onmousedown="handlePan(-1,0)">
                  <use xlink:href="#rim" fill="#404040">
                        <set attributeName="fill" to="#808080" begin="arrowLeft.mouseover" end="arrowLeft.mouseout"/>
                  </use>
                  <path fill="none" stroke="white" stroke-width="1.5" d="M0,-3.0v7 M-2.5,-0.5L0,-3.0L2.5,-0.5"/>
                </g>
        </g>
        <svg viewBox="0 0 15 15" width="100%" height="30px" preserveAspectRatio="xMaxYMin meet">
         <g id="arrow_out" transform="scale(0.3 0.3)">
          <a xlink:href="class_render_abfb3c9ce6265cbe9bfafc53fb222f825_cgraph_org.svg" target="_base">
           <rect id="button" ry="5" rx="5" y="6" x="6" height="38" width="38"
                fill="#f2f5e9" fill-opacity="0.5" stroke="#606060" stroke-width="1.0"/>
           <path id="arrow"
             d="M 11.500037,31.436501 C 11.940474,20.09759 22.043105,11.32322 32.158766,21.979434 L 37.068811,17.246167 C 37.068811,17.246167 37.088388,32 37.088388,32 L 22.160133,31.978069 C 22.160133,31.978069 26.997745,27.140456 26.997745,27.140456 C 18.528582,18.264221 13.291696,25.230495 11.500037,31.436501 z"
             style="fill:#404040;"/>
          </a>
         </g>
        </svg>
</svg>
