<?xml version="1.0" encoding="UTF-8" standalone="no"?>
<!DOCTYPE svg PUBLIC "-//W3C//DTD SVG 1.1//EN"
 "http://www.w3.org/Graphics/SVG/1.1/DTD/svg11.dtd">
<!-- Generated by graphviz version 2.38.0 (20140413.2041)
 -->
<!-- Title: Render::DrawBorderTiles Pages: 1 -->
<!--zoomable 241 -->
<svg id="main" version="1.1" xmlns="http://www.w3.org/2000/svg" xmlns:xlink="http://www.w3.org/1999/xlink" xml:space="preserve" onload="init(evt)">
<style type="text/css"><![CDATA[
.edge:hover path { stroke: red; }
.edge:hover polygon { stroke: red; fill: red; }
]]></style>
<script type="text/javascript"><![CDATA[
var edges = document.getElementsByTagName('g');
if (edges && edges.length) {
  for (var i=0;i<edges.length;i++) {
    if (edges[i].id.substr(0,4)=='edge') {
      edges[i].setAttribute('class','edge');
    }
  }
}
]]></script>
        <defs>
                <circle id="rim" cx="0" cy="0" r="7"/>
                <circle id="rim2" cx="0" cy="0" r="3.5"/>
                <g id="zoomPlus">
                        <use xlink:href="#rim" fill="#404040">
                                <set attributeName="fill" to="#808080" begin="zoomplus.mouseover" end="zoomplus.mouseout"/>
                        </use>
                        <path d="M-4,0h8M0,-4v8" fill="none" stroke="white" stroke-width="1.5" pointer-events="none"/>
                </g>
                <g id="zoomMin">
                        <use xlink:href="#rim" fill="#404040">
                                <set attributeName="fill" to="#808080" begin="zoomminus.mouseover" end="zoomminus.mouseout"/>
                        </use>
                        <path d="M-4,0h8" fill="none" stroke="white" stroke-width="1.5" pointer-events="none"/>
                </g>
                <g id="dirArrow">
                        <path fill="none" stroke="white" stroke-width="1.5" d="M0,-3.0v7 M-2.5,-0.5L0,-3.0L2.5,-0.5"/>
                </g>
               <g id="resetDef">
                       <use xlink:href="#rim2" fill="#404040">
                               <set attributeName="fill" to="#808080" begin="reset.mouseover" end="reset.mouseout"/>
                       </use>
               </g>
        </defs>

<script type="text/javascript">
var viewWidth = 1088;
var viewHeight = 241;
var sectionId = 'dynsection-85';
</script>
<script xlink:href="../../svgpan.js"/>
<svg id="graph" class="graph">
<g id="viewport">
<title>Render::DrawBorderTiles</title>
<polygon fill="white" stroke="none" points="-4,4 -4,-237 1084,-237 1084,4 -4,4"/>
<!-- Node1 -->
<g id="node1" class="node"><title>Node1</title>
<g id="a_node1"><a xlink:title=" ">
<polygon fill="#bfbfbf" stroke="black" points="0,-107 0,-126 124,-126 124,-107 0,-107"/>
<text text-anchor="middle" x="62" y="-114" font-family="Helvetica,sans-Serif" font-size="10.00">Render::DrawBorderTiles</text>
</a>
</g>
</g>
<!-- Node2 -->
<g id="node2" class="node"><title>Node2</title>
<g id="a_node2"><a xlink:href="../../da/d7f/class_render.html#a052b5ec5bff39d79ce8fe279fdbe4dc2" target="_top" xlink:title=" ">
<polygon fill="white" stroke="black" points="160,-107 160,-126 300,-126 300,-107 160,-107"/>
<text text-anchor="middle" x="230" y="-114" font-family="Helvetica,sans-Serif" font-size="10.00">Render::DrawTerrainPolygon</text>
</a>
</g>
</g>
<!-- Node1&#45;&gt;Node2 -->
<g id="edge1" class="edge"><title>Node1&#45;&gt;Node2</title>
<path fill="none" stroke="midnightblue" d="M124.341,-116.5C132.548,-116.5 141.06,-116.5 149.522,-116.5"/>
<polygon fill="midnightblue" stroke="midnightblue" points="149.797,-120 159.797,-116.5 149.796,-113 149.797,-120"/>
</g>
<!-- Node3 -->
<g id="node3" class="node"><title>Node3</title>
<g id="a_node3"><a xlink:href="../../d9/de5/struct_indoor_camera_d3_d.html#aa8ae311051af7ec7603d5f7deccf00b8" target="_top" xlink:title=" ">
<polygon fill="white" stroke="black" points="351.5,-202.5 351.5,-232.5 479.5,-232.5 479.5,-202.5 351.5,-202.5"/>
<text text-anchor="start" x="359.5" y="-220.5" font-family="Helvetica,sans-Serif" font-size="10.00">IndoorCameraD3D::debug</text>
<text text-anchor="middle" x="415.5" y="-209.5" font-family="Helvetica,sans-Serif" font-size="10.00">_outline_d3d</text>
</a>
</g>
</g>
<!-- Node2&#45;&gt;Node3 -->
<g id="edge2" class="edge"><title>Node2&#45;&gt;Node3</title>
<path fill="none" stroke="midnightblue" d="M241.877,-126.209C260.137,-142.066 298.634,-173.64 336,-192.5 340.513,-194.778 345.276,-196.903 350.134,-198.875"/>
<polygon fill="midnightblue" stroke="midnightblue" points="348.963,-202.174 359.553,-202.476 351.463,-195.636 348.963,-202.174"/>
</g>
<!-- Node4 -->
<g id="node4" class="node"><title>Node4</title>
<g id="a_node4"><a xlink:href="../../d8/d95/class_lightmap_builder.html#a6d9ffef1494e6fa977e551a65ab0bf67" target="_top" xlink:title=" ">
<polygon fill="white" stroke="black" points="336,-126 336,-145 495,-145 495,-126 336,-126"/>
<text text-anchor="middle" x="415.5" y="-133" font-family="Helvetica,sans-Serif" font-size="10.00">LightmapBuilder::DrawLightmaps</text>
</a>
</g>
</g>
<!-- Node2&#45;&gt;Node4 -->
<g id="edge3" class="edge"><title>Node2&#45;&gt;Node4</title>
<path fill="none" stroke="midnightblue" d="M300.112,-123.656C308.509,-124.526 317.177,-125.423 325.808,-126.317"/>
<polygon fill="midnightblue" stroke="midnightblue" points="325.598,-129.814 335.905,-127.362 326.319,-122.851 325.598,-129.814"/>
</g>
<!-- Node6 -->
<g id="node6" class="node"><title>Node6</title>
<g id="a_node6"><a xlink:href="../../da/d7f/class_render.html#a3fa28b49954a5e0bd04d6ecec33a20cf" target="_top" xlink:title=" ">
<polygon fill="white" stroke="black" points="350,-164 350,-183 481,-183 481,-164 350,-164"/>
<text text-anchor="middle" x="415.5" y="-171" font-family="Helvetica,sans-Serif" font-size="10.00">Render::GetActorTintColor</text>
</a>
</g>
</g>
<!-- Node2&#45;&gt;Node6 -->
<g id="edge5" class="edge"><title>Node2&#45;&gt;Node6</title>
<path fill="none" stroke="midnightblue" d="M254.937,-126.014C276.057,-134.203 307.783,-146.007 336,-154.5 344.203,-156.969 352.962,-159.342 361.543,-161.523"/>
<polygon fill="midnightblue" stroke="midnightblue" points="360.944,-164.981 371.492,-163.991 362.629,-158.186 360.944,-164.981"/>
</g>
<!-- Node11 -->
<g id="node11" class="node"><title>Node11</title>
<g id="a_node11"><a xlink:href="../../d9/de5/struct_indoor_camera_d3_d.html#ae44ac296d0d5225048b313e14edf7da1" target="_top" xlink:title=" ">
<polygon fill="white" stroke="black" points="341.5,-88 341.5,-107 489.5,-107 489.5,-88 341.5,-88"/>
<text text-anchor="middle" x="415.5" y="-95" font-family="Helvetica,sans-Serif" font-size="10.00">IndoorCameraD3D::GetFarClip</text>
</a>
</g>
</g>
<!-- Node2&#45;&gt;Node11 -->
<g id="edge10" class="edge"><title>Node2&#45;&gt;Node11</title>
<path fill="none" stroke="midnightblue" d="M300.112,-109.344C310.352,-108.284 320.993,-107.182 331.48,-106.096"/>
<polygon fill="midnightblue" stroke="midnightblue" points="331.883,-109.573 341.47,-105.062 331.162,-102.61 331.883,-109.573"/>
</g>
<!-- Node12 -->
<g id="node12" class="node"><title>Node12</title>
<g id="a_node12"><a xlink:href="../../d1/d03/_outdoor_8cpp.html#a8d5c8191b77230ef2e0a584341500920" target="_top" xlink:title=" ">
<polygon fill="white" stroke="black" points="369,-50 369,-69 462,-69 462,-50 369,-50"/>
<text text-anchor="middle" x="415.5" y="-57" font-family="Helvetica,sans-Serif" font-size="10.00">GetLevelFogColor</text>
</a>
</g>
</g>
<!-- Node2&#45;&gt;Node12 -->
<g id="edge11" class="edge"><title>Node2&#45;&gt;Node12</title>
<path fill="none" stroke="midnightblue" d="M254.937,-106.986C276.057,-98.7968 307.783,-86.9927 336,-78.5 344.203,-76.031 352.962,-73.6584 361.543,-71.4767"/>
<polygon fill="midnightblue" stroke="midnightblue" points="362.629,-74.8135 371.492,-69.009 360.944,-68.0194 362.629,-74.8135"/>
</g>
<!-- Node14 -->
<g id="node14" class="node"><title>Node14</title>
<g id="a_node14"><a xlink:href="../../d1/d03/_outdoor_8cpp.html#a84d5fb801638d6a02bb9ef829cf5b5b8" target="_top" xlink:title=" ">
<polygon fill="white" stroke="black" points="361,-0.5 361,-30.5 470,-30.5 470,-0.5 361,-0.5"/>
<text text-anchor="start" x="369" y="-18.5" font-family="Helvetica,sans-Serif" font-size="10.00">sub_47C3D7_get_fog</text>
<text text-anchor="middle" x="415.5" y="-7.5" font-family="Helvetica,sans-Serif" font-size="10.00">_specular</text>
</a>
</g>
</g>
<!-- Node2&#45;&gt;Node14 -->
<g id="edge14" class="edge"><title>Node2&#45;&gt;Node14</title>
<path fill="none" stroke="midnightblue" d="M241.877,-106.791C260.137,-90.9338 298.634,-59.3597 336,-40.5 340.868,-38.043 346.027,-35.7633 351.283,-33.6626"/>
<polygon fill="midnightblue" stroke="midnightblue" points="352.681,-36.8761 360.805,-30.0752 350.213,-30.3256 352.681,-36.8761"/>
</g>
<!-- Node5 -->
<g id="node5" class="node"><title>Node5</title>
<g id="a_node5"><a xlink:href="../../d9/d30/_s_d_l__assert_8h.html#afedcea68cf85ee469ab1ea390bbe0abb" target="_top" xlink:title=" ">
<polygon fill="white" stroke="black" points="539.5,-107 539.5,-126 616.5,-126 616.5,-107 539.5,-107"/>
<text text-anchor="middle" x="578" y="-114" font-family="Helvetica,sans-Serif" font-size="10.00">__debugbreak</text>
</a>
</g>
</g>
<!-- Node4&#45;&gt;Node5 -->
<g id="edge4" class="edge"><title>Node4&#45;&gt;Node5</title>
<path fill="none" stroke="midnightblue" d="M495.339,-126.167C506.994,-124.787 518.689,-123.403 529.439,-122.13"/>
<polygon fill="midnightblue" stroke="midnightblue" points="529.906,-125.6 539.425,-120.948 529.083,-118.648 529.906,-125.6"/>
</g>
<!-- Node7 -->
<g id="node7" class="node"><title>Node7</title>
<g id="a_node7"><a xlink:href="../../d2/dc7/_render_8cpp.html#affb59d87fdc8c1c2415376ae745a2821" target="_top" xlink:title=" ">
<polygon fill="white" stroke="black" points="531,-164 531,-183 625,-183 625,-164 531,-164"/>
<text text-anchor="middle" x="578" y="-171" font-family="Helvetica,sans-Serif" font-size="10.00">GetActorTintColor</text>
</a>
</g>
</g>
<!-- Node6&#45;&gt;Node7 -->
<g id="edge6" class="edge"><title>Node6&#45;&gt;Node7</title>
<path fill="none" stroke="midnightblue" d="M481.319,-173.5C494.233,-173.5 507.701,-173.5 520.317,-173.5"/>
<polygon fill="midnightblue" stroke="midnightblue" points="520.683,-177 530.683,-173.5 520.683,-170 520.683,-177"/>
</g>
<!-- Node8 -->
<g id="node8" class="node"><title>Node8</title>
<g id="a_node8"><a xlink:href="../../d2/dc7/_render_8cpp.html#ac91abbddf2a7fc9ee162e3fadf8534f6" target="_top" xlink:title=" ">
<polygon fill="white" stroke="black" points="661,-158.5 661,-188.5 776,-188.5 776,-158.5 661,-158.5"/>
<text text-anchor="start" x="669" y="-176.5" font-family="Helvetica,sans-Serif" font-size="10.00">_43F55F_get_billboard</text>
<text text-anchor="middle" x="718.5" y="-165.5" font-family="Helvetica,sans-Serif" font-size="10.00">_light_level</text>
</a>
</g>
</g>
<!-- Node7&#45;&gt;Node8 -->
<g id="edge7" class="edge"><title>Node7&#45;&gt;Node8</title>
<path fill="none" stroke="midnightblue" d="M625.118,-173.5C633.376,-173.5 642.13,-173.5 650.829,-173.5"/>
<polygon fill="midnightblue" stroke="midnightblue" points="650.983,-177 660.983,-173.5 650.983,-170 650.983,-177"/>
</g>
<!-- Node9 -->
<g id="node9" class="node"><title>Node9</title>
<g id="a_node9"><a xlink:href="../../d2/dc7/_render_8cpp.html#aa7459c3126d3e1bcf791c83d4862603c" target="_top" xlink:title=" ">
<polygon fill="white" stroke="black" points="812,-153 812,-194 936,-194 936,-153 812,-153"/>
<text text-anchor="start" x="820" y="-182" font-family="Helvetica,sans-Serif" font-size="10.00">_43F5C8_get_point_light</text>
<text text-anchor="start" x="820" y="-171" font-family="Helvetica,sans-Serif" font-size="10.00">_level_with_respect_to</text>
<text text-anchor="middle" x="874" y="-160" font-family="Helvetica,sans-Serif" font-size="10.00">_lights</text>
</a>
</g>
</g>
<!-- Node8&#45;&gt;Node9 -->
<g id="edge8" class="edge"><title>Node8&#45;&gt;Node9</title>
<path fill="none" stroke="midnightblue" d="M776.222,-173.5C784.57,-173.5 793.258,-173.5 801.852,-173.5"/>
<polygon fill="midnightblue" stroke="midnightblue" points="801.871,-177 811.871,-173.5 801.871,-170 801.871,-177"/>
</g>
<!-- Node10 -->
<g id="node10" class="node"><title>Node10</title>
<g id="a_node10"><a xlink:href="../../d5/d2e/_vector_types_8cpp.html#a5eb2b4017143261b8e3f12f6c796a11c" target="_top" xlink:title=" ">
<polygon fill="white" stroke="black" points="972,-164 972,-183 1080,-183 1080,-164 972,-164"/>
<text text-anchor="middle" x="1026" y="-171" font-family="Helvetica,sans-Serif" font-size="10.00">int_get_vector_length</text>
</a>
</g>
</g>
<!-- Node9&#45;&gt;Node10 -->
<g id="edge9" class="edge"><title>Node9&#45;&gt;Node10</title>
<path fill="none" stroke="midnightblue" d="M936.011,-173.5C944.43,-173.5 953.092,-173.5 961.554,-173.5"/>
<polygon fill="midnightblue" stroke="midnightblue" points="961.746,-177 971.746,-173.5 961.746,-170 961.746,-177"/>
</g>
<!-- Node12&#45;&gt;Node5 -->
<g id="edge12" class="edge"><title>Node12&#45;&gt;Node5</title>
<path fill="none" stroke="midnightblue" d="M462.188,-68.955C473.062,-71.6443 484.541,-74.8507 495,-78.5 513.77,-85.0494 534.047,-94.4242 549.741,-102.223"/>
<polygon fill="midnightblue" stroke="midnightblue" points="548.363,-105.448 558.867,-106.836 551.521,-99.2012 548.363,-105.448"/>
</g>
<!-- Node13 -->
<g id="node13" class="node"><title>Node13</title>
<g id="a_node13"><a xlink:href="../../d6/d70/class_log.html#ac0de2621497ca3b2fbf208624c08bcdf" target="_top" xlink:title=" ">
<polygon fill="white" stroke="black" points="541,-50 541,-69 615,-69 615,-50 541,-50"/>
<text text-anchor="middle" x="578" y="-57" font-family="Helvetica,sans-Serif" font-size="10.00">Log::Warning</text>
</a>
</g>
</g>
<!-- Node12&#45;&gt;Node13 -->
<g id="edge13" class="edge"><title>Node12&#45;&gt;Node13</title>
<path fill="none" stroke="midnightblue" d="M462.064,-59.5C483.488,-59.5 508.997,-59.5 530.534,-59.5"/>
<polygon fill="midnightblue" stroke="midnightblue" points="530.752,-63.0001 540.752,-59.5 530.752,-56.0001 530.752,-63.0001"/>
</g>
</g>
</svg>
        <g id="navigator" transform="translate(0 0)" fill="#404254">
                <rect fill="#f2f5e9" fill-opacity="0.5" stroke="#606060" stroke-width=".5" x="0" y="0" width="60" height="60"/>
                <use id="zoomplus" xlink:href="#zoomPlus" x="17" y="9" onmousedown="handleZoom(evt,'in')"/>
                <use id="zoomminus" xlink:href="#zoomMin" x="42" y="9" onmousedown="handleZoom(evt,'out')"/>
                <use id="reset" xlink:href="#resetDef" x="30" y="36" onmousedown="handleReset()"/>
                <g id="arrowUp" xlink:href="#dirArrow" transform="translate(30 24)" onmousedown="handlePan(0,-1)">
                  <use xlink:href="#rim" fill="#404040">
                        <set attributeName="fill" to="#808080" begin="arrowUp.mouseover" end="arrowUp.mouseout"/>
                  </use>
                  <path fill="none" stroke="white" stroke-width="1.5" d="M0,-3.0v7 M-2.5,-0.5L0,-3.0L2.5,-0.5"/>
                </g>
                <g id="arrowRight" xlink:href="#dirArrow" transform="rotate(90) translate(36 -43)" onmousedown="handlePan(1,0)">
                  <use xlink:href="#rim" fill="#404040">
                        <set attributeName="fill" to="#808080" begin="arrowRight.mouseover" end="arrowRight.mouseout"/>
                  </use>
                  <path fill="none" stroke="white" stroke-width="1.5" d="M0,-3.0v7 M-2.5,-0.5L0,-3.0L2.5,-0.5"/>
                </g>
                <g id="arrowDown" xlink:href="#dirArrow" transform="rotate(180) translate(-30 -48)" onmousedown="handlePan(0,1)">
                  <use xlink:href="#rim" fill="#404040">
                        <set attributeName="fill" to="#808080" begin="arrowDown.mouseover" end="arrowDown.mouseout"/>
                  </use>
                  <path fill="none" stroke="white" stroke-width="1.5" d="M0,-3.0v7 M-2.5,-0.5L0,-3.0L2.5,-0.5"/>
                </g>
                <g id="arrowLeft" xlink:href="#dirArrow" transform="rotate(270) translate(-36 17)" onmousedown="handlePan(-1,0)">
                  <use xlink:href="#rim" fill="#404040">
                        <set attributeName="fill" to="#808080" begin="arrowLeft.mouseover" end="arrowLeft.mouseout"/>
                  </use>
                  <path fill="none" stroke="white" stroke-width="1.5" d="M0,-3.0v7 M-2.5,-0.5L0,-3.0L2.5,-0.5"/>
                </g>
        </g>
        <svg viewBox="0 0 15 15" width="100%" height="30px" preserveAspectRatio="xMaxYMin meet">
         <g id="arrow_out" transform="scale(0.3 0.3)">
          <a xlink:href="class_render_a564a06ea7b3e8d9d646c73e90bdd8286_cgraph_org.svg" target="_base">
           <rect id="button" ry="5" rx="5" y="6" x="6" height="38" width="38"
                fill="#f2f5e9" fill-opacity="0.5" stroke="#606060" stroke-width="1.0"/>
           <path id="arrow"
             d="M 11.500037,31.436501 C 11.940474,20.09759 22.043105,11.32322 32.158766,21.979434 L 37.068811,17.246167 C 37.068811,17.246167 37.088388,32 37.088388,32 L 22.160133,31.978069 C 22.160133,31.978069 26.997745,27.140456 26.997745,27.140456 C 18.528582,18.264221 13.291696,25.230495 11.500037,31.436501 z"
             style="fill:#404040;"/>
          </a>
         </g>
        </svg>
</svg>
