<?xml version="1.0" encoding="UTF-8" standalone="no"?>
<!DOCTYPE svg PUBLIC "-//W3C//DTD SVG 1.1//EN"
 "http://www.w3.org/Graphics/SVG/1.1/DTD/svg11.dtd">
<!-- Generated by graphviz version 2.38.0 (20140413.2041)
 -->
<!-- Title: SpriteFrameTable::ResetSomeSpriteFlags Pages: 1 -->
<!--zoomable 132 -->
<svg id="main" version="1.1" xmlns="http://www.w3.org/2000/svg" xmlns:xlink="http://www.w3.org/1999/xlink" xml:space="preserve" onload="init(evt)">
<style type="text/css"><![CDATA[
.edge:hover path { stroke: red; }
.edge:hover polygon { stroke: red; fill: red; }
]]></style>
<script type="text/javascript"><![CDATA[
var edges = document.getElementsByTagName('g');
if (edges && edges.length) {
  for (var i=0;i<edges.length;i++) {
    if (edges[i].id.substr(0,4)=='edge') {
      edges[i].setAttribute('class','edge');
    }
  }
}
]]></script>
        <defs>
                <circle id="rim" cx="0" cy="0" r="7"/>
                <circle id="rim2" cx="0" cy="0" r="3.5"/>
                <g id="zoomPlus">
                        <use xlink:href="#rim" fill="#404040">
                                <set attributeName="fill" to="#808080" begin="zoomplus.mouseover" end="zoomplus.mouseout"/>
                        </use>
                        <path d="M-4,0h8M0,-4v8" fill="none" stroke="white" stroke-width="1.5" pointer-events="none"/>
                </g>
                <g id="zoomMin">
                        <use xlink:href="#rim" fill="#404040">
                                <set attributeName="fill" to="#808080" begin="zoomminus.mouseover" end="zoomminus.mouseout"/>
                        </use>
                        <path d="M-4,0h8" fill="none" stroke="white" stroke-width="1.5" pointer-events="none"/>
                </g>
                <g id="dirArrow">
                        <path fill="none" stroke="white" stroke-width="1.5" d="M0,-3.0v7 M-2.5,-0.5L0,-3.0L2.5,-0.5"/>
                </g>
               <g id="resetDef">
                       <use xlink:href="#rim2" fill="#404040">
                               <set attributeName="fill" to="#808080" begin="reset.mouseover" end="reset.mouseout"/>
                       </use>
               </g>
        </defs>

<script type="text/javascript">
var viewWidth = 1323;
var viewHeight = 132;
var sectionId = 'dynsection-3';
</script>
<script xlink:href="../../svgpan.js"/>
<svg id="graph" class="graph">
<g id="viewport">
<title>SpriteFrameTable::ResetSomeSpriteFlags</title>
<polygon fill="white" stroke="none" points="-4,4 -4,-127.5 1319,-127.5 1319,4 -4,4"/>
<!-- Node1 -->
<g id="node1" class="node"><title>Node1</title>
<g id="a_node1"><a xlink:title=" ">
<polygon fill="#bfbfbf" stroke="black" points="1165,-55 1165,-85 1315,-85 1315,-55 1165,-55"/>
<text text-anchor="start" x="1173" y="-73" font-family="Helvetica,sans-Serif" font-size="10.00">SpriteFrameTable::ResetSome</text>
<text text-anchor="middle" x="1240" y="-62" font-family="Helvetica,sans-Serif" font-size="10.00">SpriteFlags</text>
</a>
</g>
</g>
<!-- Node2 -->
<g id="node2" class="node"><title>Node2</title>
<g id="a_node2"><a xlink:href="../../d4/d06/class_application_1_1_game.html#a3f65e3f0ef1a9114fb3dea275e52442e" target="_top" xlink:title=" ">
<polygon fill="white" stroke="black" points="567,-93 567,-123 670,-123 670,-93 567,-93"/>
<text text-anchor="start" x="575" y="-111" font-family="Helvetica,sans-Serif" font-size="10.00">Application::Game::</text>
<text text-anchor="middle" x="618.5" y="-100" font-family="Helvetica,sans-Serif" font-size="10.00">EventLoop</text>
</a>
</g>
</g>
<!-- Node1&#45;&gt;Node2 -->
<g id="edge1" class="edge"><title>Node1&#45;&gt;Node2</title>
<path fill="none" stroke="midnightblue" d="M1154.77,-85.7302C1146.09,-86.9971 1137.38,-88.1238 1129,-89 961.73,-106.486 762.097,-108.482 670.28,-108.349"/>
<polygon fill="midnightblue" stroke="midnightblue" points="1155.57,-89.1492 1164.93,-84.1853 1154.52,-82.2287 1155.57,-89.1492"/>
</g>
<!-- Node6 -->
<g id="node6" class="node"><title>Node6</title>
<g id="a_node6"><a xlink:href="../../d1/d55/struct_outdoor_location.html#a51ee85637b8d77dd09ac74de8b1f35a1" target="_top" xlink:title=" ">
<polygon fill="white" stroke="black" points="1000,-60.5 1000,-79.5 1129,-79.5 1129,-60.5 1000,-60.5"/>
<text text-anchor="middle" x="1064.5" y="-67.5" font-family="Helvetica,sans-Serif" font-size="10.00">OutdoorLocation::Initialize</text>
</a>
</g>
</g>
<!-- Node1&#45;&gt;Node6 -->
<g id="edge5" class="edge"><title>Node1&#45;&gt;Node6</title>
<path fill="none" stroke="midnightblue" d="M1154.84,-70C1146.22,-70 1137.56,-70 1129.22,-70"/>
<polygon fill="midnightblue" stroke="midnightblue" points="1154.92,-73.5001 1164.92,-70 1154.92,-66.5001 1154.92,-73.5001"/>
</g>
<!-- Node11 -->
<g id="node11" class="node"><title>Node11</title>
<g id="a_node11"><a xlink:href="../../d6/d83/struct_engine.html#a7ac6c1e7625f17b3764da03e8cec6255" target="_top" xlink:title=" ">
<polygon fill="white" stroke="black" points="1007,-0.5 1007,-41.5 1122,-41.5 1122,-0.5 1007,-0.5"/>
<text text-anchor="start" x="1015" y="-29.5" font-family="Helvetica,sans-Serif" font-size="10.00">Engine::ResetCursor</text>
<text text-anchor="start" x="1015" y="-18.5" font-family="Helvetica,sans-Serif" font-size="10.00">_Palettes_LODs_Level</text>
<text text-anchor="middle" x="1064.5" y="-7.5" font-family="Helvetica,sans-Serif" font-size="10.00">_Audio_SFT_Windows</text>
</a>
</g>
</g>
<!-- Node1&#45;&gt;Node11 -->
<g id="edge13" class="edge"><title>Node1&#45;&gt;Node11</title>
<path fill="none" stroke="midnightblue" d="M1175.43,-52.0454C1157.96,-47.1131 1139.15,-41.799 1122.1,-36.9856"/>
<polygon fill="midnightblue" stroke="midnightblue" points="1174.95,-55.5488 1185.53,-54.8986 1176.86,-48.8123 1174.95,-55.5488"/>
</g>
<!-- Node3 -->
<g id="node3" class="node"><title>Node3</title>
<g id="a_node3"><a xlink:href="../../d4/d06/class_application_1_1_game.html#aaa0ff18388b32b4e6198835a35e000d3" target="_top" xlink:title=" ">
<polygon fill="white" stroke="black" points="316,-55 316,-85 419,-85 419,-55 316,-55"/>
<text text-anchor="start" x="324" y="-73" font-family="Helvetica,sans-Serif" font-size="10.00">Application::Game::</text>
<text text-anchor="middle" x="367.5" y="-62" font-family="Helvetica,sans-Serif" font-size="10.00">GameLoop</text>
</a>
</g>
</g>
<!-- Node2&#45;&gt;Node3 -->
<g id="edge2" class="edge"><title>Node2&#45;&gt;Node3</title>
<path fill="none" stroke="midnightblue" d="M556.66,-98.7152C514.457,-92.2746 458.903,-83.7964 419.118,-77.7248"/>
<polygon fill="midnightblue" stroke="midnightblue" points="556.397,-102.216 566.811,-100.264 557.454,-95.2957 556.397,-102.216"/>
</g>
<!-- Node4 -->
<g id="node4" class="node"><title>Node4</title>
<g id="a_node4"><a xlink:href="../../d4/d06/class_application_1_1_game.html#a013ffd59e8fdf1c0a396da1dbe1681ca" target="_top" xlink:title=" ">
<polygon fill="white" stroke="black" points="156,-60.5 156,-79.5 280,-79.5 280,-60.5 156,-60.5"/>
<text text-anchor="middle" x="218" y="-67.5" font-family="Helvetica,sans-Serif" font-size="10.00">Application::Game::Loop</text>
</a>
</g>
</g>
<!-- Node3&#45;&gt;Node4 -->
<g id="edge3" class="edge"><title>Node3&#45;&gt;Node4</title>
<path fill="none" stroke="midnightblue" d="M305.59,-70C297.149,-70 288.478,-70 280.035,-70"/>
<polygon fill="midnightblue" stroke="midnightblue" points="305.739,-73.5001 315.739,-70 305.739,-66.5001 305.739,-73.5001"/>
</g>
<!-- Node5 -->
<g id="node5" class="node"><title>Node5</title>
<g id="a_node5"><a xlink:href="../../d4/d06/class_application_1_1_game.html#a96341ca5b54d90adc3ecb3bf0bcd2312" target="_top" xlink:title=" ">
<polygon fill="white" stroke="black" points="0,-60.5 0,-79.5 120,-79.5 120,-60.5 0,-60.5"/>
<text text-anchor="middle" x="60" y="-67.5" font-family="Helvetica,sans-Serif" font-size="10.00">Application::Game::Run</text>
</a>
</g>
</g>
<!-- Node4&#45;&gt;Node5 -->
<g id="edge4" class="edge"><title>Node4&#45;&gt;Node5</title>
<path fill="none" stroke="midnightblue" d="M145.546,-70C137.081,-70 128.513,-70 120.244,-70"/>
<polygon fill="midnightblue" stroke="midnightblue" points="145.792,-73.5001 155.792,-70 145.792,-66.5001 145.792,-73.5001"/>
</g>
<!-- Node7 -->
<g id="node7" class="node"><title>Node7</title>
<g id="a_node7"><a xlink:href="../../dc/dfb/_outdoor_8h.html#ad0b6920041533cc49817c0c848c6b3b5" target="_top" xlink:title=" ">
<polygon fill="white" stroke="black" points="846,-60.5 846,-79.5 964,-79.5 964,-60.5 846,-60.5"/>
<text text-anchor="middle" x="905" y="-67.5" font-family="Helvetica,sans-Serif" font-size="10.00">ODM_LoadAndInitialize</text>
</a>
</g>
</g>
<!-- Node6&#45;&gt;Node7 -->
<g id="edge6" class="edge"><title>Node6&#45;&gt;Node7</title>
<path fill="none" stroke="midnightblue" d="M989.865,-70C981.27,-70 972.593,-70 964.247,-70"/>
<polygon fill="midnightblue" stroke="midnightblue" points="989.893,-73.5001 999.893,-70 989.893,-66.5001 989.893,-73.5001"/>
</g>
<!-- Node8 -->
<g id="node8" class="node"><title>Node8</title>
<g id="a_node8"><a xlink:href="../../de/dcf/_engine_8h.html#a5cf7667eb3b81f9acbc63bdf01528452" target="_top" xlink:title=" ">
<polygon fill="white" stroke="black" points="706,-60.5 706,-79.5 810,-79.5 810,-60.5 706,-60.5"/>
<text text-anchor="middle" x="758" y="-67.5" font-family="Helvetica,sans-Serif" font-size="10.00">PrepareToLoadODM</text>
</a>
</g>
</g>
<!-- Node7&#45;&gt;Node8 -->
<g id="edge7" class="edge"><title>Node7&#45;&gt;Node8</title>
<path fill="none" stroke="midnightblue" d="M835.79,-70C827.157,-70 818.442,-70 810.138,-70"/>
<polygon fill="midnightblue" stroke="midnightblue" points="835.858,-73.5001 845.858,-70 835.858,-66.5001 835.858,-73.5001"/>
</g>
<!-- Node8&#45;&gt;Node2 -->
<g id="edge12" class="edge"><title>Node8&#45;&gt;Node2</title>
<path fill="none" stroke="midnightblue" d="M712.297,-82.3542C698.799,-86.0846 683.885,-90.2062 670.035,-94.034"/>
<polygon fill="midnightblue" stroke="midnightblue" points="713.597,-85.6264 722.303,-79.589 711.732,-78.8793 713.597,-85.6264"/>
</g>
<!-- Node9 -->
<g id="node9" class="node"><title>Node9</title>
<g id="a_node9"><a xlink:href="../../de/dcf/_engine_8h.html#a7ac85aa3f91f16b9f3007f4d7f1b419a" target="_top" xlink:title=" ">
<polygon fill="white" stroke="black" points="574.5,-54.5 574.5,-73.5 662.5,-73.5 662.5,-54.5 574.5,-54.5"/>
<text text-anchor="middle" x="618.5" y="-61.5" font-family="Helvetica,sans-Serif" font-size="10.00">DoPrepareWorld</text>
</a>
</g>
</g>
<!-- Node8&#45;&gt;Node9 -->
<g id="edge8" class="edge"><title>Node8&#45;&gt;Node9</title>
<path fill="none" stroke="midnightblue" d="M695.672,-67.3239C684.526,-66.8375 673.117,-66.3396 662.634,-65.8822"/>
<polygon fill="midnightblue" stroke="midnightblue" points="695.657,-70.8265 705.8,-67.7658 695.962,-63.8331 695.657,-70.8265"/>
</g>
<!-- Node9&#45;&gt;Node3 -->
<g id="edge9" class="edge"><title>Node9&#45;&gt;Node3</title>
<path fill="none" stroke="midnightblue" d="M564.166,-65.2851C521.269,-66.3188 461.4,-67.7615 419.214,-68.778"/>
<polygon fill="midnightblue" stroke="midnightblue" points="564.499,-68.7782 574.412,-65.0383 564.33,-61.7803 564.499,-68.7782"/>
</g>
<!-- Node10 -->
<g id="node10" class="node"><title>Node10</title>
<g id="a_node10"><a xlink:href="../../de/dcf/_engine_8h.html#a287d13406d42b0831d9eb7a64d368202" target="_top" xlink:title=" ">
<polygon fill="white" stroke="black" points="455,-22.5 455,-41.5 531,-41.5 531,-22.5 455,-22.5"/>
<text text-anchor="middle" x="493" y="-29.5" font-family="Helvetica,sans-Serif" font-size="10.00">PrepareWorld</text>
</a>
</g>
</g>
<!-- Node9&#45;&gt;Node10 -->
<g id="edge10" class="edge"><title>Node9&#45;&gt;Node10</title>
<path fill="none" stroke="midnightblue" d="M570.88,-51.9204C557.624,-48.4856 543.376,-44.7938 530.791,-41.533"/>
<polygon fill="midnightblue" stroke="midnightblue" points="570.222,-55.3654 580.78,-54.4856 571.978,-48.5891 570.222,-55.3654"/>
</g>
<!-- Node10&#45;&gt;Node3 -->
<g id="edge11" class="edge"><title>Node10&#45;&gt;Node3</title>
<path fill="none" stroke="midnightblue" d="M451.228,-44.5453C440.419,-47.871 428.638,-51.4961 417.443,-54.9405"/>
<polygon fill="midnightblue" stroke="midnightblue" points="452.307,-47.8752 460.836,-41.589 450.249,-41.1847 452.307,-47.8752"/>
</g>
</g>
</svg>
        <g id="navigator" transform="translate(0 0)" fill="#404254">
                <rect fill="#f2f5e9" fill-opacity="0.5" stroke="#606060" stroke-width=".5" x="0" y="0" width="60" height="60"/>
                <use id="zoomplus" xlink:href="#zoomPlus" x="17" y="9" onmousedown="handleZoom(evt,'in')"/>
                <use id="zoomminus" xlink:href="#zoomMin" x="42" y="9" onmousedown="handleZoom(evt,'out')"/>
                <use id="reset" xlink:href="#resetDef" x="30" y="36" onmousedown="handleReset()"/>
                <g id="arrowUp" xlink:href="#dirArrow" transform="translate(30 24)" onmousedown="handlePan(0,-1)">
                  <use xlink:href="#rim" fill="#404040">
                        <set attributeName="fill" to="#808080" begin="arrowUp.mouseover" end="arrowUp.mouseout"/>
                  </use>
                  <path fill="none" stroke="white" stroke-width="1.5" d="M0,-3.0v7 M-2.5,-0.5L0,-3.0L2.5,-0.5"/>
                </g>
                <g id="arrowRight" xlink:href="#dirArrow" transform="rotate(90) translate(36 -43)" onmousedown="handlePan(1,0)">
                  <use xlink:href="#rim" fill="#404040">
                        <set attributeName="fill" to="#808080" begin="arrowRight.mouseover" end="arrowRight.mouseout"/>
                  </use>
                  <path fill="none" stroke="white" stroke-width="1.5" d="M0,-3.0v7 M-2.5,-0.5L0,-3.0L2.5,-0.5"/>
                </g>
                <g id="arrowDown" xlink:href="#dirArrow" transform="rotate(180) translate(-30 -48)" onmousedown="handlePan(0,1)">
                  <use xlink:href="#rim" fill="#404040">
                        <set attributeName="fill" to="#808080" begin="arrowDown.mouseover" end="arrowDown.mouseout"/>
                  </use>
                  <path fill="none" stroke="white" stroke-width="1.5" d="M0,-3.0v7 M-2.5,-0.5L0,-3.0L2.5,-0.5"/>
                </g>
                <g id="arrowLeft" xlink:href="#dirArrow" transform="rotate(270) translate(-36 17)" onmousedown="handlePan(-1,0)">
                  <use xlink:href="#rim" fill="#404040">
                        <set attributeName="fill" to="#808080" begin="arrowLeft.mouseover" end="arrowLeft.mouseout"/>
                  </use>
                  <path fill="none" stroke="white" stroke-width="1.5" d="M0,-3.0v7 M-2.5,-0.5L0,-3.0L2.5,-0.5"/>
                </g>
        </g>
        <svg viewBox="0 0 15 15" width="100%" height="30px" preserveAspectRatio="xMaxYMin meet">
         <g id="arrow_out" transform="scale(0.3 0.3)">
          <a xlink:href="struct_sprite_frame_table_a30c9b11528f0826e579f8ecfb5c25f5b_icgraph_org.svg" target="_base">
           <rect id="button" ry="5" rx="5" y="6" x="6" height="38" width="38"
                fill="#f2f5e9" fill-opacity="0.5" stroke="#606060" stroke-width="1.0"/>
           <path id="arrow"
             d="M 11.500037,31.436501 C 11.940474,20.09759 22.043105,11.32322 32.158766,21.979434 L 37.068811,17.246167 C 37.068811,17.246167 37.088388,32 37.088388,32 L 22.160133,31.978069 C 22.160133,31.978069 26.997745,27.140456 26.997745,27.140456 C 18.528582,18.264221 13.291696,25.230495 11.500037,31.436501 z"
             style="fill:#404040;"/>
          </a>
         </g>
        </svg>
</svg>
