<?xml version="1.0" encoding="UTF-8" standalone="no"?>
<!DOCTYPE svg PUBLIC "-//W3C//DTD SVG 1.1//EN"
 "http://www.w3.org/Graphics/SVG/1.1/DTD/svg11.dtd">
<!-- Generated by graphviz version 2.38.0 (20140413.2041)
 -->
<!-- Title: SpriteFrameTable::InitializeSprite Pages: 1 -->
<svg width="968pt" height="352pt"
 viewBox="0.00 0.00 968.00 351.89" xmlns="http://www.w3.org/2000/svg" xmlns:xlink="http://www.w3.org/1999/xlink">
<g id="graph0" class="graph" transform="scale(1 1) rotate(0) translate(4 347.894)">
<title>SpriteFrameTable::InitializeSprite</title>
<polygon fill="white" stroke="none" points="-4,4 -4,-347.894 964,-347.894 964,4 -4,4"/>
<!-- Node1 -->
<g id="node1" class="node"><title>Node1</title>
<g id="a_node1"><a xlink:title=" ">
<polygon fill="#bfbfbf" stroke="black" points="0,-126.393 0,-156.393 134,-156.393 134,-126.393 0,-126.393"/>
<text text-anchor="start" x="8" y="-144.393" font-family="Helvetica,sans-Serif" font-size="10.00">SpriteFrameTable::Initialize</text>
<text text-anchor="middle" x="67" y="-133.393" font-family="Helvetica,sans-Serif" font-size="10.00">Sprite</text>
</a>
</g>
</g>
<!-- Node2 -->
<g id="node2" class="node"><title>Node2</title>
<g id="a_node2"><a xlink:href="../../d9/d30/_s_d_l__assert_8h.html#afedcea68cf85ee469ab1ea390bbe0abb" target="_top" xlink:title=" ">
<polygon fill="white" stroke="black" points="883,-274.893 883,-293.893 960,-293.893 960,-274.893 883,-274.893"/>
<text text-anchor="middle" x="921.5" y="-281.893" font-family="Helvetica,sans-Serif" font-size="10.00">__debugbreak</text>
</a>
</g>
</g>
<!-- Node1&#45;&gt;Node2 -->
<g id="edge1" class="edge"><title>Node1&#45;&gt;Node2</title>
<path fill="none" stroke="midnightblue" d="M81.6897,-156.425C125.626,-202.937 268.932,-341.393 418,-341.393 418,-341.393 418,-341.393 610.5,-341.393 715.95,-341.393 745.618,-351.399 847,-322.393 864.842,-317.288 883.394,-307.658 897.396,-299.37"/>
<polygon fill="midnightblue" stroke="midnightblue" points="899.597,-302.126 906.298,-293.919 895.942,-296.157 899.597,-302.126"/>
</g>
<!-- Node3 -->
<g id="node3" class="node"><title>Node3</title>
<g id="a_node3"><a xlink:href="../../d3/db3/struct_palette_manager.html#ad6074b75afa72d582b5aa98816670e49" target="_top" xlink:title=" ">
<polygon fill="white" stroke="black" points="170,-189.893 170,-208.893 313,-208.893 313,-189.893 170,-189.893"/>
<text text-anchor="middle" x="241.5" y="-196.893" font-family="Helvetica,sans-Serif" font-size="10.00">PaletteManager::LoadPalette</text>
</a>
</g>
</g>
<!-- Node1&#45;&gt;Node3 -->
<g id="edge2" class="edge"><title>Node1&#45;&gt;Node3</title>
<path fill="none" stroke="midnightblue" d="M112.872,-156.48C140.667,-165.825 175.974,-177.697 202.404,-186.584"/>
<polygon fill="midnightblue" stroke="midnightblue" points="201.471,-189.962 212.065,-189.832 203.702,-183.327 201.471,-189.962"/>
</g>
<!-- Node11 -->
<g id="node11" class="node"><title>Node11</title>
<g id="a_node11"><a xlink:href="../../d4/d10/class_l_o_d_file___sprites.html#a9196ad3e3bbbfe3a18751a754aff5661" target="_top" xlink:title=" ">
<polygon fill="white" stroke="black" points="171.5,-74.8926 171.5,-93.8926 311.5,-93.8926 311.5,-74.8926 171.5,-74.8926"/>
<text text-anchor="middle" x="241.5" y="-81.8926" font-family="Helvetica,sans-Serif" font-size="10.00">LODFile_Sprites::LoadSprite</text>
</a>
</g>
</g>
<!-- Node1&#45;&gt;Node11 -->
<g id="edge15" class="edge"><title>Node1&#45;&gt;Node11</title>
<path fill="none" stroke="midnightblue" d="M113.774,-126.267C141.299,-117.172 175.937,-105.726 202.041,-97.1008"/>
<polygon fill="midnightblue" stroke="midnightblue" points="203.198,-100.405 211.595,-93.9439 201.002,-93.7582 203.198,-100.405"/>
</g>
<!-- Node17 -->
<g id="node17" class="node"><title>Node17</title>
<g id="a_node17"><a xlink:href="../../d6/d70/class_log.html#ac0de2621497ca3b2fbf208624c08bcdf" target="_top" xlink:title=" ">
<polygon fill="white" stroke="black" points="204.5,-36.8926 204.5,-55.8926 278.5,-55.8926 278.5,-36.8926 204.5,-36.8926"/>
<text text-anchor="middle" x="241.5" y="-43.8926" font-family="Helvetica,sans-Serif" font-size="10.00">Log::Warning</text>
</a>
</g>
</g>
<!-- Node1&#45;&gt;Node17 -->
<g id="edge23" class="edge"><title>Node1&#45;&gt;Node17</title>
<path fill="none" stroke="midnightblue" d="M84.0398,-126.367C103.125,-109.259 136.622,-81.5901 170,-65.3926 177.705,-61.6534 186.254,-58.5646 194.664,-56.0432"/>
<polygon fill="midnightblue" stroke="midnightblue" points="195.713,-59.3843 204.414,-53.3389 193.842,-52.6389 195.713,-59.3843"/>
</g>
<!-- Node4 -->
<g id="node4" class="node"><title>Node4</title>
<g id="a_node4"><a xlink:href="../../dc/dc7/_palette_manager_8cpp.html#ac3ff9b1524059bcbd44e6318120c1211" target="_top" xlink:title=" ">
<polygon fill="white" stroke="black" points="757,-214.893 757,-233.893 820,-233.893 820,-214.893 757,-214.893"/>
<text text-anchor="middle" x="788.5" y="-221.893" font-family="Helvetica,sans-Serif" font-size="10.00">HSV2RGB</text>
</a>
</g>
</g>
<!-- Node3&#45;&gt;Node4 -->
<g id="edge3" class="edge"><title>Node3&#45;&gt;Node4</title>
<path fill="none" stroke="midnightblue" d="M313.243,-197.121C325.178,-196.817 337.441,-196.555 349,-196.393 502.37,-194.233 541.758,-186.699 694,-205.393 711.564,-207.549 730.75,-211.214 747.147,-214.754"/>
<polygon fill="midnightblue" stroke="midnightblue" points="746.437,-218.181 756.957,-216.927 747.95,-211.347 746.437,-218.181"/>
</g>
<!-- Node5 -->
<g id="node5" class="node"><title>Node5</title>
<g id="a_node5"><a xlink:href="../../d8/d81/class_l_o_d_file___icons_bitmaps.html#af1497f81fa4c1f6dff3eaf1b6a4144f5" target="_top" xlink:title=" ">
<polygon fill="white" stroke="black" points="360,-118.393 360,-148.393 478,-148.393 478,-118.393 360,-118.393"/>
<text text-anchor="start" x="368" y="-136.393" font-family="Helvetica,sans-Serif" font-size="10.00">LODFile_IconsBitmaps</text>
<text text-anchor="middle" x="419" y="-125.393" font-family="Helvetica,sans-Serif" font-size="10.00">::LoadTextureFromLOD</text>
</a>
</g>
</g>
<!-- Node3&#45;&gt;Node5 -->
<g id="edge5" class="edge"><title>Node3&#45;&gt;Node5</title>
<path fill="none" stroke="midnightblue" d="M268.019,-189.796C294.237,-179.936 335.724,-164.334 368.425,-152.036"/>
<polygon fill="midnightblue" stroke="midnightblue" points="369.701,-155.296 377.829,-148.5 367.237,-148.744 369.701,-155.296"/>
</g>
<!-- Node7 -->
<g id="node7" class="node"><title>Node7</title>
<g id="a_node7"><a xlink:href="../../d3/db3/struct_palette_manager.html#a538015d7dba26a0012f50bc68aee3101" target="_top" xlink:title=" ">
<polygon fill="white" stroke="black" points="350.5,-206.393 350.5,-236.393 487.5,-236.393 487.5,-206.393 350.5,-206.393"/>
<text text-anchor="start" x="358.5" y="-224.393" font-family="Helvetica,sans-Serif" font-size="10.00">PaletteManager::MakeBase</text>
<text text-anchor="middle" x="419" y="-213.393" font-family="Helvetica,sans-Serif" font-size="10.00">PaletteLut</text>
</a>
</g>
</g>
<!-- Node3&#45;&gt;Node7 -->
<g id="edge7" class="edge"><title>Node3&#45;&gt;Node7</title>
<path fill="none" stroke="midnightblue" d="M313.124,-208.246C322.051,-209.365 331.224,-210.515 340.255,-211.647"/>
<polygon fill="midnightblue" stroke="midnightblue" points="340.011,-215.143 350.368,-212.915 340.881,-208.198 340.011,-215.143"/>
</g>
<!-- Node9 -->
<g id="node9" class="node"><title>Node9</title>
<g id="a_node9"><a xlink:href="../../dc/dc7/_palette_manager_8cpp.html#aa590abf1c9bfcecac42541926c9d90f7" target="_top" xlink:title=" ">
<polygon fill="white" stroke="black" points="757,-255.893 757,-274.893 820,-274.893 820,-255.893 757,-255.893"/>
<text text-anchor="middle" x="788.5" y="-262.893" font-family="Helvetica,sans-Serif" font-size="10.00">RGB2HSV</text>
</a>
</g>
</g>
<!-- Node3&#45;&gt;Node9 -->
<g id="edge14" class="edge"><title>Node3&#45;&gt;Node9</title>
<path fill="none" stroke="midnightblue" d="M259.548,-209.07C280.043,-220.147 315.833,-237.744 349,-245.393 492.087,-278.39 668.2,-273.045 746.559,-268.383"/>
<polygon fill="midnightblue" stroke="midnightblue" points="747.191,-271.85 756.954,-267.733 746.755,-264.864 747.191,-271.85"/>
</g>
<!-- Node10 -->
<g id="node10" class="node"><title>Node10</title>
<g id="a_node10"><a xlink:href="../../d0/ded/struct_texture___m_m7.html#a5d76b76e8d592e2cc382ca2723774b32" target="_top" xlink:title=" ">
<polygon fill="white" stroke="black" points="730,-293.893 730,-312.893 847,-312.893 847,-293.893 730,-293.893"/>
<text text-anchor="middle" x="788.5" y="-300.893" font-family="Helvetica,sans-Serif" font-size="10.00">Texture_MM7::Release</text>
</a>
</g>
</g>
<!-- Node3&#45;&gt;Node10 -->
<g id="edge12" class="edge"><title>Node3&#45;&gt;Node10</title>
<path fill="none" stroke="midnightblue" d="M252.992,-209.096C271.029,-225.111 309.776,-256.671 349,-270.393 474.291,-314.222 631.66,-313.738 719.742,-308.916"/>
<polygon fill="midnightblue" stroke="midnightblue" points="720.093,-312.402 729.873,-308.326 719.686,-305.414 720.093,-312.402"/>
</g>
<!-- Node4&#45;&gt;Node2 -->
<g id="edge4" class="edge"><title>Node4&#45;&gt;Node2</title>
<path fill="none" stroke="midnightblue" d="M816.377,-233.966C826.12,-237.622 837.149,-241.978 847,-246.393 862.976,-253.552 880.399,-262.507 894.271,-269.926"/>
<polygon fill="midnightblue" stroke="midnightblue" points="892.783,-273.1 903.245,-274.775 896.111,-266.942 892.783,-273.1"/>
</g>
<!-- Node6 -->
<g id="node6" class="node"><title>Node6</title>
<g id="a_node6"><a xlink:href="../../d9/d3e/namespacezlib.html#ae552beaf4387a81c63a28b01a9cc7ab4" target="_top" xlink:title=" ">
<polygon fill="white" stroke="black" points="563.5,-118.893 563.5,-137.893 655.5,-137.893 655.5,-118.893 563.5,-118.893"/>
<text text-anchor="middle" x="609.5" y="-125.893" font-family="Helvetica,sans-Serif" font-size="10.00">zlib::Uncompress</text>
</a>
</g>
</g>
<!-- Node5&#45;&gt;Node6 -->
<g id="edge6" class="edge"><title>Node5&#45;&gt;Node6</title>
<path fill="none" stroke="midnightblue" d="M478.094,-131.852C502.029,-131.217 529.63,-130.485 553.259,-129.858"/>
<polygon fill="midnightblue" stroke="midnightblue" points="553.56,-133.351 563.464,-129.587 553.374,-126.354 553.56,-133.351"/>
</g>
<!-- Node8 -->
<g id="node8" class="node"><title>Node8</title>
<g id="a_node8"><a xlink:href="../../d3/db3/struct_palette_manager.html#ae561cf64d07038ce806940d4a64d2088" target="_top" xlink:title=" ">
<polygon fill="white" stroke="black" points="525,-214.893 525,-233.893 694,-233.893 694,-214.893 525,-214.893"/>
<text text-anchor="middle" x="609.5" y="-221.893" font-family="Helvetica,sans-Serif" font-size="10.00">PaletteManager::CalcPalettes_LUT</text>
</a>
</g>
</g>
<!-- Node7&#45;&gt;Node8 -->
<g id="edge8" class="edge"><title>Node7&#45;&gt;Node8</title>
<path fill="none" stroke="midnightblue" d="M487.52,-222.467C496.27,-222.606 505.356,-222.751 514.438,-222.896"/>
<polygon fill="midnightblue" stroke="midnightblue" points="514.62,-226.399 524.674,-223.058 514.731,-219.4 514.62,-226.399"/>
</g>
<!-- Node8&#45;&gt;Node4 -->
<g id="edge9" class="edge"><title>Node8&#45;&gt;Node4</title>
<path fill="none" stroke="midnightblue" d="M694.076,-224.393C712.258,-224.393 730.717,-224.393 746.373,-224.393"/>
<polygon fill="midnightblue" stroke="midnightblue" points="746.725,-227.893 756.725,-224.393 746.725,-220.893 746.725,-227.893"/>
</g>
<!-- Node8&#45;&gt;Node9 -->
<g id="edge10" class="edge"><title>Node8&#45;&gt;Node9</title>
<path fill="none" stroke="midnightblue" d="M651.552,-233.902C680.203,-240.538 718.273,-249.357 746.838,-255.974"/>
<polygon fill="midnightblue" stroke="midnightblue" points="746.364,-259.457 756.896,-258.304 747.944,-252.637 746.364,-259.457"/>
</g>
<!-- Node9&#45;&gt;Node2 -->
<g id="edge11" class="edge"><title>Node9&#45;&gt;Node2</title>
<path fill="none" stroke="midnightblue" d="M820.214,-269.847C835.892,-272.121 855.315,-274.938 872.881,-277.486"/>
<polygon fill="midnightblue" stroke="midnightblue" points="872.567,-280.977 882.966,-278.949 873.572,-274.05 872.567,-280.977"/>
</g>
<!-- Node10&#45;&gt;Node2 -->
<g id="edge13" class="edge"><title>Node10&#45;&gt;Node2</title>
<path fill="none" stroke="midnightblue" d="M847.34,-295.004C855.916,-293.76 864.67,-292.49 873.002,-291.282"/>
<polygon fill="midnightblue" stroke="midnightblue" points="873.523,-294.743 882.917,-289.844 872.518,-287.815 873.523,-294.743"/>
</g>
<!-- Node12 -->
<g id="node12" class="node"><title>Node12</title>
<g id="a_node12"><a xlink:href="../../dd/da7/class_l_o_d_1_1_file.html#a3b042a1ac553b2cfdf5b3a1298ce9375" target="_top" xlink:title=" ">
<polygon fill="white" stroke="black" points="547.5,-14.8926 547.5,-33.8926 671.5,-33.8926 671.5,-14.8926 547.5,-14.8926"/>
<text text-anchor="middle" x="609.5" y="-21.8926" font-family="Helvetica,sans-Serif" font-size="10.00">LOD::File::FindContainer</text>
</a>
</g>
</g>
<!-- Node11&#45;&gt;Node12 -->
<g id="edge16" class="edge"><title>Node11&#45;&gt;Node12</title>
<path fill="none" stroke="midnightblue" d="M293.441,-74.782C300.313,-72.326 307.04,-69.2481 313,-65.3926 334.215,-51.6694 326.167,-32.2126 349,-21.3926 418.423,11.5057 510.489,-0.751211 564.237,-12.6061"/>
<polygon fill="midnightblue" stroke="midnightblue" points="563.605,-16.0521 574.135,-14.8811 565.173,-9.22999 563.605,-16.0521"/>
</g>
<!-- Node13 -->
<g id="node13" class="node"><title>Node13</title>
<g id="a_node13"><a xlink:href="../../db/dd6/class_assets_manager.html#ae548bd58b748e70c6d31c96e07f2711a" target="_top" xlink:title=" ">
<polygon fill="white" stroke="black" points="353,-30.8926 353,-49.8926 485,-49.8926 485,-30.8926 353,-30.8926"/>
<text text-anchor="middle" x="419" y="-37.8926" font-family="Helvetica,sans-Serif" font-size="10.00">AssetsManager::GetSprite</text>
</a>
</g>
</g>
<!-- Node11&#45;&gt;Node13 -->
<g id="edge17" class="edge"><title>Node11&#45;&gt;Node13</title>
<path fill="none" stroke="midnightblue" d="M280.581,-74.8452C306.798,-68.2722 341.836,-59.4878 369.97,-52.4343"/>
<polygon fill="midnightblue" stroke="midnightblue" points="371.145,-55.7481 379.993,-49.9213 369.442,-48.9583 371.145,-55.7481"/>
</g>
<!-- Node14 -->
<g id="node14" class="node"><title>Node14</title>
<g id="a_node14"><a xlink:href="../../d4/d10/class_l_o_d_file___sprites.html#a6704a668ef693d91d861553e1c4d0c49" target="_top" xlink:title=" ">
<polygon fill="white" stroke="black" points="349,-69.3926 349,-99.3926 489,-99.3926 489,-69.3926 349,-69.3926"/>
<text text-anchor="start" x="357" y="-87.3926" font-family="Helvetica,sans-Serif" font-size="10.00">LODFile_Sprites::LoadSprite</text>
<text text-anchor="middle" x="419" y="-76.3926" font-family="Helvetica,sans-Serif" font-size="10.00">FromFile</text>
</a>
</g>
</g>
<!-- Node11&#45;&gt;Node14 -->
<g id="edge18" class="edge"><title>Node11&#45;&gt;Node14</title>
<path fill="none" stroke="midnightblue" d="M311.61,-84.3926C320.531,-84.3926 329.721,-84.3926 338.788,-84.3926"/>
<polygon fill="midnightblue" stroke="midnightblue" points="338.953,-87.8927 348.953,-84.3926 338.953,-80.8927 338.953,-87.8927"/>
</g>
<!-- Node14&#45;&gt;Node6 -->
<g id="edge22" class="edge"><title>Node14&#45;&gt;Node6</title>
<path fill="none" stroke="midnightblue" d="M484.344,-99.4118C508.406,-105.029 535.37,-111.323 558.006,-116.606"/>
<polygon fill="midnightblue" stroke="midnightblue" points="557.214,-120.015 567.748,-118.88 558.805,-113.199 557.214,-120.015"/>
</g>
<!-- Node14&#45;&gt;Node12 -->
<g id="edge21" class="edge"><title>Node14&#45;&gt;Node12</title>
<path fill="none" stroke="midnightblue" d="M467.567,-69.252C498.923,-59.2712 539.502,-46.3548 569.06,-36.9465"/>
<polygon fill="midnightblue" stroke="midnightblue" points="570.164,-40.268 578.632,-33.8997 568.041,-33.5978 570.164,-40.268"/>
</g>
<!-- Node15 -->
<g id="node15" class="node"><title>Node15</title>
<g id="a_node15"><a xlink:href="../../dd/da7/class_l_o_d_1_1_file.html#a9727a0a74fa79d7c2f968c677320b26f" target="_top" xlink:title=" ">
<polygon fill="white" stroke="black" points="569.5,-74.8926 569.5,-93.8926 649.5,-93.8926 649.5,-74.8926 569.5,-74.8926"/>
<text text-anchor="middle" x="609.5" y="-81.8926" font-family="Helvetica,sans-Serif" font-size="10.00">LOD::File::File</text>
</a>
</g>
</g>
<!-- Node14&#45;&gt;Node15 -->
<g id="edge19" class="edge"><title>Node14&#45;&gt;Node15</title>
<path fill="none" stroke="midnightblue" d="M489.12,-84.3926C512.327,-84.3926 537.726,-84.3926 559.108,-84.3926"/>
<polygon fill="midnightblue" stroke="midnightblue" points="559.255,-87.8927 569.255,-84.3926 559.255,-80.8927 559.255,-87.8927"/>
</g>
<!-- Node16 -->
<g id="node16" class="node"><title>Node16</title>
<g id="a_node16"><a xlink:href="../../dd/da7/class_l_o_d_1_1_file.html#ab71fc5e72e25e22a2712c317528db0d9" target="_top" xlink:title=" ">
<polygon fill="white" stroke="black" points="744,-74.8926 744,-93.8926 833,-93.8926 833,-74.8926 744,-74.8926"/>
<text text-anchor="middle" x="788.5" y="-81.8926" font-family="Helvetica,sans-Serif" font-size="10.00">LOD::File::Close</text>
</a>
</g>
</g>
<!-- Node15&#45;&gt;Node16 -->
<g id="edge20" class="edge"><title>Node15&#45;&gt;Node16</title>
<path fill="none" stroke="midnightblue" d="M649.782,-84.3926C674.527,-84.3926 706.799,-84.3926 733.882,-84.3926"/>
<polygon fill="midnightblue" stroke="midnightblue" points="733.981,-87.8927 743.981,-84.3926 733.981,-80.8927 733.981,-87.8927"/>
</g>
</g>
</svg>
