<?xml version="1.0" encoding="UTF-8" standalone="no"?>
<!DOCTYPE svg PUBLIC "-//W3C//DTD SVG 1.1//EN"
 "http://www.w3.org/Graphics/SVG/1.1/DTD/svg11.dtd">
<!-- Generated by graphviz version 2.38.0 (20140413.2041)
 -->
<!-- Title: av_packet_free Pages: 1 -->
<svg width="240pt" height="78pt"
 viewBox="0.00 0.00 240.00 77.50" xmlns="http://www.w3.org/2000/svg" xmlns:xlink="http://www.w3.org/1999/xlink">
<g id="graph0" class="graph" transform="scale(1 1) rotate(0) translate(4 73.5)">
<title>av_packet_free</title>
<polygon fill="white" stroke="none" points="-4,4 -4,-73.5 236,-73.5 236,4 -4,4"/>
<!-- Node1 -->
<g id="node1" class="node"><title>Node1</title>
<g id="a_node1"><a xlink:title=" ">
<polygon fill="#bfbfbf" stroke="black" points="151,-28 151,-47 232,-47 232,-28 151,-28"/>
<text text-anchor="middle" x="191.5" y="-35" font-family="Helvetica,sans-Serif" font-size="10.00">av_packet_free</text>
</a>
</g>
</g>
<!-- Node2 -->
<g id="node2" class="node"><title>Node2</title>
<g id="a_node2"><a xlink:href="../../de/d14/class_movie.html#aa9f6ef7307d7a42b57db6d14de6e2cfe" target="_top" xlink:title=" ">
<polygon fill="white" stroke="black" points="12,-50 12,-69 103,-69 103,-50 12,-50"/>
<text text-anchor="middle" x="57.5" y="-57" font-family="Helvetica,sans-Serif" font-size="10.00">Movie::GetFrame</text>
</a>
</g>
</g>
<!-- Node1&#45;&gt;Node2 -->
<g id="edge1" class="edge"><title>Node1&#45;&gt;Node2</title>
<path fill="none" stroke="midnightblue" d="M140.755,-45.7908C128.408,-47.8487 115.251,-50.0416 103.163,-52.0561"/>
<polygon fill="midnightblue" stroke="midnightblue" points="141.607,-49.1972 150.896,-44.1007 140.456,-42.2924 141.607,-49.1972"/>
</g>
<!-- Node3 -->
<g id="node3" class="node"><title>Node3</title>
<g id="a_node3"><a xlink:href="../../da/dfd/class_audio_base_data_source.html#a30b77f7fdec9b97ad5306b30f27a060e" target="_top" xlink:title=" ">
<polygon fill="white" stroke="black" points="0,-0.5 0,-30.5 115,-30.5 115,-0.5 0,-0.5"/>
<text text-anchor="start" x="8" y="-18.5" font-family="Helvetica,sans-Serif" font-size="10.00">AudioBaseDataSource</text>
<text text-anchor="middle" x="57.5" y="-7.5" font-family="Helvetica,sans-Serif" font-size="10.00">::GetNextBuffer</text>
</a>
</g>
</g>
<!-- Node1&#45;&gt;Node3 -->
<g id="edge2" class="edge"><title>Node1&#45;&gt;Node3</title>
<path fill="none" stroke="midnightblue" d="M140.882,-29.2304C132.487,-27.8312 123.715,-26.3691 115.156,-24.9427"/>
<polygon fill="midnightblue" stroke="midnightblue" points="140.456,-32.7076 150.896,-30.8993 141.607,-25.8028 140.456,-32.7076"/>
</g>
</g>
</svg>
