<?xml version="1.0" encoding="UTF-8" standalone="no"?>
<!DOCTYPE svg PUBLIC "-//W3C//DTD SVG 1.1//EN"
 "http://www.w3.org/Graphics/SVG/1.1/DTD/svg11.dtd">
<!-- Generated by graphviz version 2.38.0 (20140413.2041)
 -->
<!-- Title: InitializeQuests Pages: 1 -->
<svg width="395pt" height="78pt"
 viewBox="0.00 0.00 395.00 77.50" xmlns="http://www.w3.org/2000/svg" xmlns:xlink="http://www.w3.org/1999/xlink">
<g id="graph0" class="graph" transform="scale(1 1) rotate(0) translate(4 73.5)">
<title>InitializeQuests</title>
<polygon fill="white" stroke="none" points="-4,4 -4,-73.5 391,-73.5 391,4 -4,4"/>
<!-- Node1 -->
<g id="node1" class="node"><title>Node1</title>
<g id="a_node1"><a xlink:title=" ">
<polygon fill="#bfbfbf" stroke="black" points="0,-22.5 0,-41.5 83,-41.5 83,-22.5 0,-22.5"/>
<text text-anchor="middle" x="41.5" y="-29.5" font-family="Helvetica,sans-Serif" font-size="10.00">InitializeQuests</text>
</a>
</g>
</g>
<!-- Node2 -->
<g id="node2" class="node"><title>Node2</title>
<g id="a_node2"><a xlink:href="../../dd/da7/class_l_o_d_1_1_file.html#af2af972a90784bbcfa975ccd0346385d" target="_top" xlink:title=" ">
<polygon fill="white" stroke="black" points="119,-39 119,-69 259,-69 259,-39 119,-39"/>
<text text-anchor="start" x="127" y="-57" font-family="Helvetica,sans-Serif" font-size="10.00">LOD::File::LoadCompressed</text>
<text text-anchor="middle" x="189" y="-46" font-family="Helvetica,sans-Serif" font-size="10.00">Texture</text>
</a>
</g>
</g>
<!-- Node1&#45;&gt;Node2 -->
<g id="edge1" class="edge"><title>Node1&#45;&gt;Node2</title>
<path fill="none" stroke="midnightblue" d="M83.0299,-38.1282C91.1554,-39.3568 99.9529,-40.687 108.879,-42.0367"/>
<polygon fill="midnightblue" stroke="midnightblue" points="108.572,-45.53 118.983,-43.5645 109.619,-38.6087 108.572,-45.53"/>
</g>
<!-- Node4 -->
<g id="node4" class="node"><title>Node4</title>
<g id="a_node4"><a xlink:href="../../de/df7/_strings_8h.html#a789f57a6ffe0251d575c135969eb35fa" target="_top" xlink:title=" ">
<polygon fill="white" stroke="black" points="147.5,-0.5 147.5,-19.5 230.5,-19.5 230.5,-0.5 147.5,-0.5"/>
<text text-anchor="middle" x="189" y="-7.5" font-family="Helvetica,sans-Serif" font-size="10.00">RemoveQuotes</text>
</a>
</g>
</g>
<!-- Node1&#45;&gt;Node4 -->
<g id="edge3" class="edge"><title>Node1&#45;&gt;Node4</title>
<path fill="none" stroke="midnightblue" d="M83.0299,-25.8718C99.8294,-23.3316 119.502,-20.3572 137.246,-17.6741"/>
<polygon fill="midnightblue" stroke="midnightblue" points="138.071,-21.0893 147.435,-16.1335 137.024,-14.1679 138.071,-21.0893"/>
</g>
<!-- Node3 -->
<g id="node3" class="node"><title>Node3</title>
<g id="a_node3"><a xlink:href="../../d9/d3e/namespacezlib.html#ae552beaf4387a81c63a28b01a9cc7ab4" target="_top" xlink:title=" ">
<polygon fill="white" stroke="black" points="295,-44.5 295,-63.5 387,-63.5 387,-44.5 295,-44.5"/>
<text text-anchor="middle" x="341" y="-51.5" font-family="Helvetica,sans-Serif" font-size="10.00">zlib::Uncompress</text>
</a>
</g>
</g>
<!-- Node2&#45;&gt;Node3 -->
<g id="edge2" class="edge"><title>Node2&#45;&gt;Node3</title>
<path fill="none" stroke="midnightblue" d="M259.292,-54C267.82,-54 276.447,-54 284.728,-54"/>
<polygon fill="midnightblue" stroke="midnightblue" points="285,-57.5001 295,-54 285,-50.5001 285,-57.5001"/>
</g>
</g>
</svg>
